<?xml version="1.0" encoding="UTF-8"?>
<svg width="64px" height="33px" viewBox="0 0 64 33" version="1.1" xmlns="http://www.w3.org/2000/svg" xmlns:xlink="http://www.w3.org/1999/xlink">
    <!-- Generator: Sketch 58 (84663) - https://sketch.com -->
    <title>Artboard Copy</title>
    <desc>Created with Sketch.</desc>
    <g id="Artboard-Copy" stroke="none" stroke-width="1" fill="none" fill-rule="evenodd">
        <g id="cross" transform="translate(38.000000, 8.000000)" fill="#FFFFFF">
            <path d="M15.5476,17.3333 C15.0535,17.3333 14.6071,17.1309 14.2857,16.8095 L8.99996,11.5238 L3.71424,16.8095 C3.39282,17.1309 2.94639,17.3333 2.45234,17.3333 C1.46425,17.3333 0.666626,16.5357 0.666626,15.5476 C0.666626,15.0535 0.869007,14.6071 1.19044,14.2857 L6.47615,8.99996 L1.19044,3.71424 C0.869007,3.39282 0.666626,2.94639 0.666626,2.45234 C0.666626,1.46425 1.46425,0.666626 2.45234,0.666626 C2.94639,0.666626 3.39282,0.869007 3.71424,1.19044 L8.99996,6.47615 L14.2857,1.19044 C14.6071,0.869007 15.0535,0.666626 15.5476,0.666626 C16.5357,0.666626 17.3333,1.46425 17.3333,2.45234 C17.3333,2.94639 17.1309,3.39282 16.8095,3.71424 L11.5238,8.99996 L16.8095,14.2857 C17.1309,14.6071 17.3333,15.0535 17.3333,15.5476 C17.3333,16.5357 16.5357,17.3333 15.5476,17.3333 Z" id="Path"></path>
        </g>
        <g id="arrow-noline" transform="translate(13.000000, 10.000000)" stroke="#FFFFFF" stroke-linecap="round" stroke-width="4.2">
            <polyline id="Path" points="6.66667 0.33337 0 7.00004 6.66667 13.6667"></polyline>
        </g>
    </g>
</svg>