<svg width="9" height="7" viewBox="0 0 9 7" fill="none" xmlns="http://www.w3.org/2000/svg">
<path fill-rule="evenodd" clip-rule="evenodd" d="M8.71875 4.1475L5.90906 6.77542L5.90625 6.7725C5.75719 6.9125 5.56031 7 5.34375 7C4.87687 7 4.5 6.60917 4.5 6.125C4.5 5.86542 4.60969 5.63792 4.78125 5.4775L4.77844 5.47458L5.95687 4.375H0.84375C0.376875 4.375 0 3.98417 0 3.5C0 3.01583 0.376875 2.625 0.84375 2.625H5.95687L4.77844 1.52542L4.78125 1.5225C4.60969 1.36208 4.5 1.13458 4.5 0.875C4.5 0.390833 4.87687 0 5.34375 0C5.56031 0 5.75719 0.0875 5.90625 0.2275L5.90906 0.224583L8.72156 2.84958L8.71875 2.8525C8.89031 3.01292 9 3.24333 9 3.5C9 3.75958 8.89031 3.98708 8.71875 4.1475Z" fill="#3475E0"/>
</svg>
