<svg width="8" height="8" viewBox="0 0 8 8" fill="none" xmlns="http://www.w3.org/2000/svg">
<path d="M7.4074 0.158868C7.7037 0.317187 7.89876 0.564556 7.99259 0.900983C8.08642 1.23741 8.04938 1.55404 7.88148 1.85089L4.8 7.41675C4.60247 7.77297 4.30123 7.98076 3.89629 8.04013L3.71852 8.05497C3.38271 8.05497 3.09136 7.93129 2.84444 7.68391L0.37037 5.22009C0.123455 4.97272 0 4.68082 0 4.3444C0 4.00797 0.123455 3.71607 0.37037 3.4687C0.617285 3.22133 0.90864 3.09764 1.24444 3.09764C1.58025 3.09764 1.8716 3.22133 2.11852 3.4687L3.43704 4.77482L5.71852 0.648664C5.87654 0.351816 6.12345 0.153921 6.45926 0.054972C6.79506 -0.0439772 7.11111 -0.00934568 7.4074 0.158868Z" fill="#3475E0"/>
</svg>
