<svg width="18" height="18" viewBox="0 0 18 18" fill="none" xmlns="http://www.w3.org/2000/svg">
<path fill-rule="evenodd" clip-rule="evenodd" d="M15.5476 17.3333C15.0535 17.3333 14.6071 17.1309 14.2857 16.8095L8.99996 11.5238L3.71424 16.8095C3.39282 17.1309 2.94639 17.3333 2.45234 17.3333C1.46425 17.3333 0.666626 16.5357 0.666626 15.5476C0.666626 15.0535 0.869007 14.6071 1.19044 14.2857L6.47615 8.99996L1.19044 3.71424C0.869007 3.39282 0.666626 2.94639 0.666626 2.45234C0.666626 1.46425 1.46425 0.666626 2.45234 0.666626C2.94639 0.666626 3.39282 0.869007 3.71424 1.19044L8.99996 6.47615L14.2857 1.19044C14.6071 0.869007 15.0535 0.666626 15.5476 0.666626C16.5357 0.666626 17.3333 1.46425 17.3333 2.45234C17.3333 2.94639 17.1309 3.39282 16.8095 3.71424L11.5238 8.99996L16.8095 14.2857C17.1309 14.6071 17.3333 15.0535 17.3333 15.5476C17.3333 16.5357 16.5357 17.3333 15.5476 17.3333Z" fill="white"/>
</svg>
