<?xml version="1.0" standalone="no"?>
<!DOCTYPE svg PUBLIC "-//W3C//DTD SVG 1.1//EN" "http://www.w3.org/Graphics/SVG/1.1/DTD/svg11.dtd" >
<svg xmlns="http://www.w3.org/2000/svg" xmlns:xlink="http://www.w3.org/1999/xlink" version="1.1">
<metadata>
Created by FontForge 20170731 at Thu Oct 20 23:43:00 2016
 By Aleksey,,,
Copyright (c) Luc[as] de Groot, published by LucasFonts, 2002, 2004, 2007, 2009, 2016. All rights reserved.
</metadata>
<defs>
<font id="FHPSun-Italic" horiz-adv-x="500" >
  <font-face 
    font-family="FHP Sun"
    font-weight="400"
    font-style="italic"
    font-stretch="normal"
    units-per-em="1000"
    panose-1="2 11 5 3 5 3 2 9 2 3"
    ascent="800"
    descent="-200"
    x-height="496"
    cap-height="675"
    bbox="-322 -200 1704 885"
    underline-thickness="62"
    underline-position="-269"
    slope="-11"
    unicode-range="U+000D-1F6C8"
  />
<missing-glyph horiz-adv-x="550" 
d="M300 150h-150v250h50v-200h100v-50zM500 50h-450v450h450v-450zM350 350h-100v50h150v-250h-50v100h-100v50h100v50zM100 100h350v350h-350v-350z" />
    <glyph glyph-name="ellipsis" unicode="&#x2e;&#x2e;&#x2e;" horiz-adv-x="777" 
d="M104 -7q-24 0 -34 6.5t-10 22.5q0 15 5 34t11 25q12 12 43 12q24 0 34 -6.5t10 -22.5q0 -43 -16 -59q-12 -12 -43 -12zM331 -7q-25 0 -35 6.5t-10 22.5q0 15 5 34t11 25q12 12 43 12q25 0 35 -6.5t10 -22.5q0 -44 -17 -59q-11 -12 -42 -12zM557 -7q-25 0 -35 6.5
t-10 22.5q0 15 5 34t12 25q11 12 42 12q25 0 35 -6.5t10 -22.5q0 -43 -16 -59q-12 -12 -43 -12z" />
    <glyph glyph-name="f_f" unicode="ff" horiz-adv-x="576" 
d="M690 688l-20 -47q-38 17 -65 17q-71 0 -87 -83l-16 -79h109l-10 -58h-111l-90 -467q-28 -142 -150 -142q-54 0 -96 24l20 48q33 -13 61 -13q69 0 86 83l90 467h-202l-92 -474q-12 -67 -50 -104.5t-101 -37.5q-57 0 -100 29l20 46q36 -16 65 -16q71 0 87 83l92 474h-79
l11 58h80l13 73q28 141 149 141q55 0 97 -24l-20 -48q-33 13 -61 13q-70 0 -86 -83l-14 -72h203l16 80q27 141 151 141q57 0 100 -29z" />
    <glyph glyph-name="fi" unicode="fi" horiz-adv-x="540" 
d="M38 -36l92 474h-80l11 58h80l16 80q12 66 50 103.5t100 37.5q51 0 91 -22l-21 -50q-27 13 -57 13q-68 0 -84 -83l-16 -79h203h79l-96 -496h-79l85 438h-203l-92 -474q-12 -67 -50 -104.5t-101 -37.5q-57 0 -101 29l21 46q36 -16 65 -16q71 0 87 83zM483 592q-46 0 -46 26
q0 11 5 29.5t11 24.5q12 12 43 12q25 0 35 -6t10 -20q0 -12 -4.5 -30t-10.5 -24q-12 -12 -43 -12z" />
    <glyph glyph-name="fl" unicode="fl" horiz-adv-x="559" 
d="M38 -36l92 474h-80l11 58h80l10 48q17 91 67 132t140 41q63 0 108 -8h77l-113 -582q-7 -34 -7 -50q0 -15 7 -20.5t23 -5.5q14 0 30 2l-4 -50q-32 -10 -67 -10q-37 0 -54 14t-17 49q0 20 7 54l104 539q-42 9 -85 9q-60 0 -92.5 -25t-44.5 -87l-10 -50h100l-11 -58h-100
l-92 -474q-12 -67 -50 -104.5t-101 -37.5q-57 0 -101 29l21 46q36 -16 65 -16q71 0 87 83z" />
    <glyph glyph-name="f_f_i" unicode="ffi" horiz-adv-x="821" 
d="M783 496l-96 -496h-79l84 438h-202l-90 -467q-28 -142 -150 -142q-54 0 -96 24l20 48q33 -13 61 -13q69 0 86 83l90 467h-202l-92 -474q-12 -67 -50 -104.5t-101 -37.5q-57 0 -100 29l20 46q36 -16 65 -16q71 0 87 83l92 474h-79l11 58h80l13 73q28 141 149 141
q55 0 97 -24l-20 -48q-33 13 -61 13q-70 0 -86 -83l-14 -72h202l16 82q27 139 150 139q51 0 91 -22l-21 -50q-27 13 -57 13q-68 0 -84 -83l-15 -79h202h79zM764 592q-46 0 -46 26q0 11 5 29.5t11 24.5q12 12 43 12q25 0 35 -6t10 -20q0 -12 -4.5 -30t-10.5 -24
q-12 -12 -43 -12z" />
    <glyph glyph-name="f_f_l" unicode="ffl" horiz-adv-x="839" 
d="M824 709l-114 -582q-7 -42 -7 -50q0 -15 7 -20.5t23 -5.5q15 0 31 2l-4 -50q-30 -10 -68 -10q-37 0 -54 14t-17 49q0 20 7 54l105 538q-47 10 -85 10q-60 0 -92 -25.5t-44 -86.5l-10 -50h99l-11 -58h-100l-90 -467q-28 -142 -150 -142q-54 0 -96 24l20 48q33 -13 61 -13
q69 0 86 83l90 467h-202l-92 -474q-12 -67 -50 -104.5t-101 -37.5q-57 0 -100 29l20 46q36 -16 65 -16q71 0 87 83l92 474h-79l11 58h80l13 73q28 141 149 141q55 0 97 -24l-20 -48q-33 13 -61 13q-70 0 -86 -83l-14 -72h203l9 48q17 91 67 132t140 41q63 0 108 -8h77z" />
    <glyph glyph-name="f_b" unicode="fb" horiz-adv-x="808" 
d="M766 345q0 -44 -7.5 -88.5t-28 -93.5t-51.5 -86t-83.5 -61t-119.5 -24q-32 0 -69 4t-58 8l-21 4l125 641q-42 9 -86 9q-60 0 -92 -25t-44 -87l-10 -50h99l-11 -58h-100l-92 -474q-12 -67 -50 -104.5t-101 -37.5q-57 0 -100 29l20 46q36 -16 65 -16q71 0 87 83l92 474h-80
l11 58h81l9 47q18 92 67.5 133t139.5 41q63 0 108 -8h77l-47 -242q-18 -71 -21 -86q29 52 73.5 87.5t95.5 35.5q58 0 90 -45t32 -114zM683 331q0 109 -68 109q-48 0 -99 -66.5t-70 -166.5l-28 -145q35 -11 74 -11q53 0 93 30.5t60 77.5t29 90.5t9 81.5z" />
    <glyph glyph-name="f_f_b" unicode="ffb" horiz-adv-x="1090" 
d="M824 709l-47 -242q-18 -71 -21 -86q29 52 73.5 87.5t95.5 35.5q58 0 90 -45t32 -114q0 -44 -7.5 -88.5t-28 -93.5t-51.5 -86t-83.5 -61t-119.5 -24q-32 0 -69 4t-58 8l-21 4l125 641q-42 9 -86 9q-60 0 -92 -25t-44 -87l-10 -50h99l-11 -58h-100l-90 -467
q-28 -142 -150 -142q-54 0 -96 24l20 48q33 -13 61 -13q69 0 86 83l90 467h-202l-92 -474q-12 -67 -50 -104.5t-101 -37.5q-57 0 -100 29l20 46q36 -16 65 -16q71 0 87 83l92 474h-79l11 58h80l13 73q28 141 149 141q55 0 97 -24l-20 -48q-33 13 -61 13q-70 0 -86 -83
l-14 -72h203l9 47q18 92 67.5 133t139.5 41q63 0 108 -8h77zM964 331q0 109 -68 109q-48 0 -99 -66.5t-70 -166.5l-28 -145q35 -11 75 -11q43 0 77.5 21t55 52.5t34 71t18.5 73t5 62.5z" />
    <glyph glyph-name="f_h" unicode="fh" horiz-adv-x="829" 
d="M543 709l-47 -242q-18 -71 -21 -86q29 53 74 88t97 35q117 0 117 -134q0 -34 -7.5 -77t-27 -133t-32.5 -160h-79q12 62 27 132t22 103t12 65.5t5 53.5q0 85 -65 85q-51 0 -102.5 -69t-71.5 -172l-39 -198h-79l127 649q-42 9 -86 9q-60 0 -92 -25t-44 -87l-10 -50h99
l-11 -58h-100l-92 -474q-12 -67 -50 -104.5t-101 -37.5q-57 0 -100 29l20 46q36 -16 65 -16q71 0 87 83l92 474h-80l11 58h81l9 47q18 92 67.5 133t139.5 41q63 0 108 -8h77z" />
    <glyph glyph-name="f_f_h" unicode="ffh" horiz-adv-x="1110" 
d="M824 709l-47 -242q-18 -71 -21 -86q29 53 74 88t97 35q117 0 117 -134q0 -34 -7.5 -77t-27 -133t-32.5 -160h-79q12 62 27 132t22 103t12 65.5t5 53.5q0 85 -65 85q-51 0 -102.5 -69t-71.5 -172l-39 -198h-79l127 649q-42 9 -86 9q-60 0 -92 -25t-44 -87l-10 -50h99
l-11 -58h-100l-90 -467q-28 -142 -150 -142q-54 0 -96 24l20 48q33 -13 61 -13q69 0 86 83l90 467h-202l-92 -474q-12 -67 -50 -104.5t-101 -37.5q-57 0 -100 29l20 46q36 -16 65 -16q71 0 87 83l92 474h-79l11 58h80l13 73q28 141 149 141q55 0 97 -24l-20 -48
q-33 13 -61 13q-70 0 -86 -83l-14 -72h203l9 47q18 92 67.5 133t139.5 41q63 0 108 -8h77z" />
    <glyph glyph-name="f_igrave" unicode="f&#xec;" horiz-adv-x="540" 
d="M469 725l46 -161l-48 -13l-68 154zM38 -36l92 474h-80l11 58h80l18 89q13 67 45 99.5t88 32.5q35 0 68 -14l-18 -51q-20 6 -38 6q-27 0 -43 -17t-23 -55l-17 -90h280l-95 -496h-79l84 438h-202l-92 -474q-12 -67 -50 -104.5t-101 -37.5q-57 0 -100 29l20 46
q36 -16 65 -16q71 0 87 83z" />
    <glyph glyph-name="f_iacute" unicode="f&#xed;" horiz-adv-x="540" 
d="M38 -36l92 474h-80l11 58h80l16 82q27 139 150 139q50 0 92 -22l-21 -50q-27 13 -56 13q-70 0 -86 -83l-15 -79h202h78l-95 -496h-79l84 438h-202l-92 -474q-12 -67 -50 -104.5t-101 -37.5q-57 0 -100 29l20 46q36 -16 65 -16q71 0 87 83zM637 679l-168 -119l-37 28
l150 132z" />
    <glyph glyph-name="f_icircumflex" unicode="f&#xee;" horiz-adv-x="540" 
d="M608 585l-36 -30l-80 91l-115 -91l-25 33l155 134zM38 -36l92 474h-80l11 58h80l18 90q26 131 133 131q36 0 68 -14l-20 -51q-18 6 -36 6q-27 0 -43 -17t-23 -55l-17 -90h280l-95 -496h-79l84 438h-202l-92 -474q-12 -67 -50 -104.5t-101 -37.5q-57 0 -100 29l20 46
q36 -16 65 -16q71 0 87 83z" />
    <glyph glyph-name="f_itilde" unicode="f&#x129;" horiz-adv-x="540" 
d="M586 656l30 -27q-22 -36 -44 -52.5t-52 -16.5q-26 0 -56.5 20.5t-44.5 20.5q-25 0 -57 -41l-30 28q22 35 44 51.5t52 16.5q26 0 56.5 -20.5t44.5 -20.5q25 0 57 41zM38 -36l92 474h-80l12 58h80l17 88q26 133 131 133q36 0 68 -14l-18 -51q-18 6 -36 6q-27 0 -43 -17
t-23 -55l-17 -90h280l-95 -496h-79l84 438h-202l-92 -474q-12 -67 -50 -104.5t-101 -37.5q-57 0 -100 29l20 46q36 -16 65 -16q71 0 87 83z" />
    <glyph glyph-name="f_idieresis" unicode="f&#xef;" horiz-adv-x="540" 
d="M606 654q0 -33 -13 -46q-11 -11 -37 -11q-19 0 -27 6t-8 21q0 34 14 46q11 11 37 11q19 0 26.5 -6t7.5 -21zM471 654q0 -33 -13 -46q-11 -11 -37 -11q-19 0 -27 6t-8 21q0 33 13 46q12 11 37 11q19 0 27 -6t8 -21zM38 -36l92 474h-80l12 58h80l17 88q26 133 131 133
q36 0 68 -14l-18 -51q-18 6 -36 6q-27 0 -43 -17t-23 -55l-17 -90h280l-95 -496h-79l84 438h-202l-92 -474q-12 -67 -50 -104.5t-101 -37.5q-57 0 -100 29l20 46q36 -16 65 -16q71 0 87 83z" />
    <glyph glyph-name="f_imacron" unicode="f&#x12b;" horiz-adv-x="540" 
d="M604 603h-234l12 58h233zM38 -36l92 474h-80l12 58h80l17 88q26 133 131 133q36 0 68 -14l-18 -51q-18 6 -36 6q-27 0 -43 -17t-23 -55l-17 -90h280l-95 -496h-79l84 438h-202l-92 -474q-12 -67 -50 -104.5t-101 -37.5q-57 0 -100 29l20 46q36 -16 65 -16q71 0 87 83z
" />
    <glyph glyph-name="f_ibreve" unicode="f&#x12d;" horiz-adv-x="540" 
d="M568 676h48q-26 -129 -142 -129q-120 0 -95 129h47q-11 -71 56 -71q36 0 55.5 16.5t30.5 54.5zM38 -36l92 474h-80l12 58h80l17 88q26 133 131 133q36 0 68 -14l-18 -51q-18 6 -36 6q-27 0 -43 -17t-23 -55l-17 -90h280l-95 -496h-79l84 438h-202l-92 -474
q-12 -67 -50 -104.5t-101 -37.5q-57 0 -100 29l20 46q36 -16 65 -16q71 0 87 83z" />
    <glyph glyph-name="f_iogonek" unicode="f&#x12f;" horiz-adv-x="540" 
d="M502 496l-96 -496q-29 -11 -53 -45t-24 -60q0 -24 25 -24t55 14l6 -39q-37 -24 -90 -24q-30 0 -48.5 14t-18.5 39q0 65 69 125l84 438h-202l-92 -474q-12 -67 -50 -104.5t-101 -37.5q-57 0 -100 29l20 46q36 -16 65 -16q71 0 87 83l92 474h-80l11 58h80l16 82
q27 139 150 139q51 0 91 -22l-21 -50q-27 13 -57 13q-68 0 -84 -83l-15 -79h202h79zM483 592q-46 0 -46 26q0 11 5 29.5t11 24.5q12 12 43 12q25 0 35 -6t10 -20q0 -12 -4.5 -30t-10.5 -24q-12 -12 -43 -12z" />
    <glyph glyph-name="f_dotlessi" unicode="f&#x131;" horiz-adv-x="540" 
d="M38 -36l92 474h-80l11 58h80l16 82q27 139 150 139q50 0 92 -22l-21 -50q-27 13 -56 13q-70 0 -86 -83l-15 -79h202h78l-95 -496h-79l84 438h-202l-92 -474q-12 -67 -50 -104.5t-101 -37.5q-57 0 -100 29l20 46q36 -16 65 -16q71 0 87 83z" />
    <glyph glyph-name="f_f_igrave" unicode="ff&#xec;" horiz-adv-x="821" 
d="M750 725l46 -161l-48 -13l-68 154zM687 0h-79l84 438h-202l-90 -467q-28 -142 -150 -142q-54 0 -96 24l20 48q33 -13 61 -13q69 0 86 83l90 467h-202l-92 -474q-12 -67 -50 -104.5t-101 -37.5q-57 0 -100 29l20 46q36 -16 65 -16q71 0 87 83l92 474h-80l12 58h80l14 74
q28 140 149 140q58 0 95 -25l-21 -48q-30 14 -60 14q-68 0 -84 -83l-14 -72h201l18 89q13 67 45 99.5t88 32.5q35 0 68 -14l-18 -51q-20 6 -38 6q-27 0 -43 -17t-23 -55l-17 -90h280z" />
    <glyph glyph-name="f_f_iacute" unicode="ff&#xed;" horiz-adv-x="821" 
d="M782 496l-95 -496h-79l84 438h-202l-90 -467q-28 -142 -150 -142q-54 0 -96 24l20 48q33 -13 61 -13q69 0 86 83l90 467h-202l-92 -474q-12 -67 -50 -104.5t-101 -37.5q-57 0 -100 29l20 46q36 -16 65 -16q71 0 87 83l92 474h-79l11 58h80l13 73q28 141 149 141
q55 0 97 -24l-20 -48q-33 13 -61 13q-70 0 -86 -83l-14 -72h203l16 80q27 141 149 141q52 0 92 -22l-21 -50q-30 13 -56 13q-69 0 -85 -83l-16 -79h202h78zM917 679l-168 -119l-37 28l150 132z" />
    <glyph glyph-name="f_f_icircumflex" unicode="ff&#xee;" horiz-adv-x="821" 
d="M687 0h-79l84 438h-202l-90 -467q-28 -142 -150 -142q-54 0 -96 24l20 48q33 -13 61 -13q69 0 86 83l90 467h-202l-92 -474q-12 -67 -50 -104.5t-101 -37.5q-57 0 -100 29l20 46q36 -16 65 -16q71 0 87 83l92 474h-80l12 58h80l14 74q28 140 149 140q58 0 95 -25l-21 -48
q-30 14 -60 14q-68 0 -84 -83l-14 -72h201l18 89q13 67 45 99.5t88 32.5q35 0 68 -14l-20 -51q-18 6 -36 6q-27 0 -43 -17t-23 -55l-17 -90h280zM890 585l-37 -30l-80 91l-115 -91l-25 33l155 134z" />
    <glyph glyph-name="f_f_itilde" unicode="ff&#x129;" horiz-adv-x="821" 
d="M687 0h-79l84 438h-202l-90 -467q-28 -142 -150 -142q-54 0 -96 24l20 48q33 -13 61 -13q69 0 86 83l90 467h-202l-92 -474q-12 -67 -50 -104.5t-101 -37.5q-57 0 -100 29l20 46q36 -16 65 -16q71 0 87 83l92 474h-80l12 58h80l14 74q28 140 149 140q58 0 95 -25l-21 -48
q-30 14 -60 14q-68 0 -84 -83l-14 -72h201l18 89q26 132 131 132q37 0 68 -14l-18 -51q-18 6 -36 6q-27 0 -43 -17t-23 -55l-17 -90h280zM867 656l30 -27q-42 -69 -96 -69q-26 0 -56.5 20.5t-44.5 20.5q-25 0 -57 -41l-30 28q42 68 96 68q26 0 57 -20.5t44 -20.5q25 0 57 41
z" />
    <glyph glyph-name="f_f_idieresis" unicode="ff&#xef;" horiz-adv-x="821" 
d="M687 0h-79l84 438h-202l-90 -467q-28 -142 -150 -142q-54 0 -96 24l20 48q33 -13 61 -13q69 0 86 83l90 467h-202l-92 -474q-12 -67 -50 -104.5t-101 -37.5q-57 0 -100 29l20 46q36 -16 65 -16q71 0 87 83l92 474h-80l12 58h80l14 74q28 140 149 140q58 0 95 -25l-21 -48
q-30 14 -60 14q-68 0 -84 -83l-14 -72h201l18 89q26 132 131 132q37 0 68 -14l-18 -51q-18 6 -36 6q-27 0 -43 -17t-23 -55l-17 -90h280zM887 654q0 -33 -13 -46q-11 -11 -37 -11q-19 0 -27 6t-8 21q0 34 14 46q11 11 37 11q19 0 26.5 -6t7.5 -21zM752 654q0 -33 -13 -46
q-11 -11 -37 -11q-19 0 -27 6t-8 21q0 34 14 46q11 11 36 11q19 0 27 -6t8 -21z" />
    <glyph glyph-name="f_f_imacron" unicode="ff&#x12b;" horiz-adv-x="821" 
d="M896 661l-11 -58h-234l12 58h233zM687 0h-79l84 438h-202l-90 -467q-28 -142 -150 -142q-54 0 -96 24l20 48q33 -13 61 -13q69 0 86 83l90 467h-202l-92 -474q-12 -67 -50 -104.5t-101 -37.5q-57 0 -100 29l20 46q36 -16 65 -16q71 0 87 83l92 474h-80l12 58h80l14 74
q28 140 149 140q58 0 95 -25l-21 -48q-30 14 -60 14q-68 0 -84 -83l-14 -72h201l18 89q26 132 131 132q37 0 68 -14l-18 -51q-18 6 -36 6q-27 0 -43 -17t-23 -55l-17 -90h280z" />
    <glyph glyph-name="f_f_ibreve" unicode="ff&#x12d;" horiz-adv-x="821" 
d="M687 0h-79l84 438h-202l-90 -467q-28 -142 -150 -142q-54 0 -96 24l20 48q33 -13 61 -13q69 0 86 83l90 467h-202l-92 -474q-12 -67 -50 -104.5t-101 -37.5q-57 0 -100 29l20 46q36 -16 65 -16q71 0 87 83l92 474h-80l12 58h80l14 74q28 140 149 140q58 0 95 -25l-21 -48
q-30 14 -60 14q-68 0 -84 -83l-14 -72h201l18 89q26 132 131 132q37 0 68 -14l-18 -51q-18 6 -36 6q-27 0 -43 -17t-23 -55l-17 -90h280zM849 676h48q-26 -129 -142 -129q-120 0 -95 129h47q-11 -71 56 -71q36 0 55.5 16.5t30.5 54.5z" />
    <glyph glyph-name="f_f_iogonek" unicode="ff&#x12f;" horiz-adv-x="821" 
d="M783 496l-96 -496q-39 -22 -63 -51.5t-24 -53.5t27 -24q24 0 50 13l10 -39q-38 -23 -84 -23q-74 0 -74 61q0 53 79 117l84 438h-202l-90 -467q-28 -142 -150 -142q-54 0 -96 24l20 48q33 -13 61 -13q69 0 86 83l90 467h-202l-92 -474q-12 -67 -50 -104.5t-101 -37.5
q-57 0 -100 29l20 46q36 -16 65 -16q71 0 87 83l92 474h-79l11 58h80l13 73q28 141 149 141q55 0 97 -24l-20 -48q-33 13 -61 13q-70 0 -86 -83l-14 -72h202l16 82q27 139 150 139q51 0 91 -22l-21 -50q-27 13 -57 13q-68 0 -84 -83l-15 -79h202h79zM764 592q-46 0 -46 26
q0 11 5 29.5t11 24.5q12 12 43 12q25 0 35 -6t10 -20q0 -12 -4.5 -30t-10.5 -24q-12 -12 -43 -12z" />
    <glyph glyph-name="f_f_dotlessi" unicode="ff&#x131;" horiz-adv-x="821" 
d="M782 496l-95 -496h-79l84 438h-202l-90 -467q-28 -142 -150 -142q-54 0 -96 24l20 48q33 -13 61 -13q69 0 86 83l90 467h-202l-92 -474q-12 -67 -50 -104.5t-101 -37.5q-57 0 -100 29l20 46q36 -16 65 -16q71 0 87 83l92 474h-79l11 58h80l13 73q28 141 149 141
q55 0 97 -24l-20 -48q-33 13 -61 13q-70 0 -86 -83l-14 -72h203l16 80q27 141 149 141q52 0 92 -22l-21 -50q-30 13 -56 13q-69 0 -85 -83l-16 -79h202h78z" />
    <glyph glyph-name="f_ij" unicode="f&#x133;" horiz-adv-x="828" 
d="M483 592q-45 0 -45 26q0 12 4.5 30t10.5 24q12 12 43 12q46 0 46 -26q0 -12 -4.5 -30t-11.5 -24q-12 -12 -43 -12zM769 592q-45 0 -45 26q0 12 4.5 30t10.5 24q12 12 43 12q46 0 46 -26q0 -12 -4.5 -30t-11.5 -24q-12 -12 -43 -12zM790 496l-94 -480q-21 -111 -77 -152.5
t-149 -41.5q-75 0 -149 30l17 46q83 -15 137 -15q61 0 93 25.5t45 87.5l8 34q8 41 21 84h-1q-29 -51 -74.5 -85.5t-96.5 -34.5q-117 0 -117 134q0 24 4.5 56.5t11 61.5t19 87.5t21.5 104.5h-200l-92 -474q-12 -67 -50 -104.5t-101 -37.5q-57 0 -100 29l20 46q36 -16 65 -16
q71 0 87 83l92 474h-80l11 58h80l16 82q27 139 150 139q51 0 91 -22l-21 -50q-27 13 -57 13q-68 0 -84 -83l-15 -79h199h79q-12 -61 -27 -131.5t-21.5 -103t-11.5 -64.5t-5 -53q0 -85 64 -85q51 0 102 66.5t71 165.5l40 205h79z" />
    <glyph glyph-name="f_j" unicode="fj" horiz-adv-x="540" 
d="M38 -36l92 474h-80l11 58h80l16 82q27 139 150 139q51 0 91 -22l-21 -50q-27 13 -57 13q-68 0 -84 -83l-15 -79h202h79l-89 -457q-15 -74 -45.5 -123.5t-92.5 -93.5l-45 29q81 71 101 171l80 416h-202l-92 -474q-12 -67 -50 -104.5t-101 -37.5q-57 0 -100 29l20 46
q36 -16 65 -16q71 0 87 83zM484 592q-46 0 -46 26q0 11 5 29.5t11 24.5q12 12 43 12q25 0 35 -6t10 -20q0 -12 -4.5 -30t-10.5 -24q-12 -12 -43 -12z" />
    <glyph glyph-name="f_jcircumflex" unicode="f&#x135;" horiz-adv-x="540" 
d="M608 585l-36 -30l-80 91l-115 -91l-25 33l155 134zM501 496l-88 -457q-15 -74 -45.5 -123.5t-92.5 -93.5l-45 29q81 71 101 171l80 416h-202l-92 -474q-12 -67 -50 -104.5t-101 -37.5q-57 0 -100 29l20 46q36 -16 65 -16q71 0 87 83l92 474h-80l11 58h80l18 90
q26 131 133 131q36 0 68 -14l-20 -51q-18 6 -36 6q-27 0 -43 -17t-23 -55l-17 -90h201h79z" />
    <glyph glyph-name="f_f_j" unicode="ffj" horiz-adv-x="821" 
d="M764 592q-46 0 -46 26q0 11 5 29.5t11 24.5q12 12 43 12q25 0 35 -6t10 -20q0 -12 -4.5 -30t-10.5 -24q-12 -12 -43 -12zM693 438h-203l-90 -467q-28 -142 -150 -142q-54 0 -96 24l20 48q33 -13 61 -13q69 0 86 83l90 467h-202l-92 -474q-12 -67 -50 -104.5t-101 -37.5
q-57 0 -100 29l20 46q36 -16 65 -16q71 0 87 83l92 474h-79l11 58h80l13 73q28 141 149 141q55 0 97 -24l-20 -48q-33 13 -61 13q-70 0 -86 -83l-14 -72h202l16 82q27 139 150 139q51 0 91 -22l-21 -50q-27 13 -57 13q-68 0 -84 -83l-15 -79h202h79l-89 -457
q-15 -74 -45.5 -123.5t-92.5 -93.5l-45 29q81 71 101 171z" />
    <glyph glyph-name="f_k" unicode="fk" horiz-adv-x="749" 
d="M326 0l127 649q-42 9 -86 9q-60 0 -92 -25t-44 -87l-10 -50h99l-11 -58h-100l-92 -474q-12 -67 -50 -104.5t-101 -37.5q-57 0 -100 29l20 46q36 -16 65 -16q71 0 87 83l92 474h-80l11 58h81l9 47q18 92 67.5 133t139.5 41q63 0 108 -8h77l-82 -419h2l196 206h100
l-225 -217l148 -279h-92l-132 259h-3l-50 -259h-79z" />
    <glyph glyph-name="f_kcommaaccent" unicode="f&#x137;" horiz-adv-x="749" 
d="M326 0l127 649q-42 9 -86 9q-60 0 -92 -25t-44 -87l-10 -50h99l-11 -58h-100l-92 -474q-12 -67 -50 -104.5t-101 -37.5q-57 0 -100 29l20 46q36 -16 65 -16q71 0 87 83l92 474h-80l11 58h81l9 47q18 92 67.5 133t139.5 41q63 0 108 -8h77l-82 -419h2l196 206h100
l-225 -217l148 -279h-92l-132 259h-3l-50 -259h-79zM478 -38q35 0 35 -31q0 -74 -120 -109l-10 30q58 25 58 50q0 2 -2 9t-2 16q0 16 10.5 25.5t30.5 9.5z" />
    <glyph glyph-name="f_f_k" unicode="ffk" horiz-adv-x="1030" 
d="M1040 496l-225 -217l148 -279h-92l-132 259h-3l-50 -259h-79l127 649q-42 9 -86 9q-60 0 -92 -25t-44 -87l-10 -50h99l-11 -58h-100l-90 -467q-28 -142 -150 -142q-54 0 -96 24l20 48q33 -13 61 -13q69 0 86 83l90 467h-202l-92 -474q-12 -67 -50 -104.5t-101 -37.5
q-57 0 -100 29l20 46q36 -16 65 -16q71 0 87 83l92 474h-79l11 58h80l13 73q28 141 149 141q55 0 97 -24l-20 -48q-33 13 -61 13q-70 0 -86 -83l-14 -72h203l9 47q18 92 67.5 133t139.5 41q63 0 109 -8h76l-82 -419h2l196 206h100z" />
    <glyph glyph-name="f_lacute" unicode="f&#x13a;" horiz-adv-x="558" 
d="M38 -36l92 474h-80l11 58h80l10 48q17 91 67 132t140 41q63 0 108 -8h77l-113 -582q-7 -34 -7 -50q0 -15 7 -20.5t23 -5.5q14 0 30 2l-4 -50q-32 -10 -67 -10q-37 0 -54 14t-17 49q0 20 7 54l104 539q-42 9 -85 9q-60 0 -92.5 -25t-44.5 -87l-10 -50h100l-11 -58h-100
l-92 -474q-12 -67 -50 -104.5t-101 -37.5q-57 0 -101 29l21 46q36 -16 65 -16q71 0 87 83zM677 804l-191 -67l-20 40l181 86z" />
    <glyph glyph-name="f_lcaron" unicode="f&#x13e;" horiz-adv-x="583" 
d="M38 -36l92 474h-80l11 58h80l10 48q17 91 67 132t140 41q63 0 108 -8h77l-113 -582q-7 -34 -7 -50q0 -15 7 -20.5t23 -5.5q14 0 30 2l-4 -50q-32 -10 -67 -10q-37 0 -54 14t-17 49q0 20 7 54l104 539q-42 9 -85 9q-60 0 -92.5 -25t-44.5 -87l-10 -50h100l-11 -58h-100
l-92 -474q-12 -67 -50 -104.5t-101 -37.5q-57 0 -101 29l21 46q36 -16 65 -16q71 0 87 83zM690 736l-88 -171l-43 9l68 176z" />
    <glyph glyph-name="f_lcommaaccent" unicode="f&#x13c;" horiz-adv-x="558" 
d="M38 -36l92 474h-80l11 58h80l10 48q17 91 67 132t140 41q63 0 108 -8h77l-113 -582q-7 -34 -7 -50q0 -15 7 -20.5t23 -5.5q14 0 30 2l-4 -50q-32 -10 -67 -10q-37 0 -54 14t-17 49q0 20 7 54l104 539q-42 9 -85 9q-60 0 -92.5 -25t-44.5 -87l-10 -50h100l-11 -58h-100
l-92 -474q-12 -67 -50 -104.5t-101 -37.5q-57 0 -101 29l21 46q36 -16 65 -16q71 0 87 83zM402 -38q35 0 35 -31q0 -74 -120 -109l-10 30q58 25 58 50q0 2 -2 9t-2 16q0 16 10.5 25.5t30.5 9.5z" />
    <glyph glyph-name="f_lslash" unicode="f&#x142;" horiz-adv-x="560" 
d="M38 -36l92 474h-80l11 58h81l9 47q17 90 67 132t141 42q51 0 105 -8h79l-53 -275l74 38v-59l-87 -44l-47 -242q-7 -39 -7 -50q0 -15 7 -20.5t23 -5.5q12 0 30 2l-4 -50q-30 -10 -67 -10q-36 0 -53.5 14t-17.5 49q0 17 7 54l42 216l-76 -38v59l88 43l50 259q-42 9 -85 9
q-60 0 -92 -24.5t-44 -87.5l-10 -50h97l-11 -58h-98l-92 -474q-12 -67 -50 -104.5t-101 -37.5q-57 0 -100 29l20 46q36 -16 65 -16q71 0 87 83z" />
    <glyph glyph-name="f_thorn" unicode="f&#xfe;" horiz-adv-x="809" 
d="M544 709l-48 -242q-3 -17 -21 -86q29 52 73.5 87.5t95.5 35.5q59 0 90.5 -45t31.5 -114q0 -44 -7.5 -88.5t-27.5 -93.5t-51.5 -86t-84 -61t-119.5 -24l-72 5l-32 -170h-79l160 822q-42 9 -86 9q-60 0 -92 -25t-44 -87l-10 -50h99l-11 -58h-100l-92 -474
q-12 -67 -50 -104.5t-101 -37.5q-57 0 -100 29l20 46q36 -16 65 -16q71 0 87 83l92 474h-80l11 58h81l9 47q18 92 67.5 133t139.5 41q63 0 108 -8h78zM683 331q0 109 -67 109q-49 0 -99.5 -66.5t-70.5 -166.5l-28 -145q35 -11 75 -11q53 0 93 30.5t59.5 77.5t28.5 90.5
t9 81.5z" />
    <glyph glyph-name="f_f_thorn" unicode="ff&#xfe;" horiz-adv-x="1090" 
d="M574 -173l160 822q-42 9 -86 9q-60 0 -92 -25t-44 -87l-10 -50h99l-11 -58h-100l-90 -467q-28 -142 -150 -142q-54 0 -96 24l20 48q33 -13 61 -13q69 0 86 83l90 467h-202l-92 -474q-12 -67 -50 -104.5t-101 -37.5q-57 0 -100 29l20 46q36 -16 65 -16q71 0 87 83l92 474
h-79l11 58h80l13 73q28 141 149 141q55 0 97 -24l-20 -48q-33 13 -61 13q-70 0 -86 -83l-14 -72h203l9 47q18 92 67.5 133t139.5 41q63 0 109 -8h77l-48 -242q-3 -17 -21 -86q29 52 73.5 87.5t95.5 35.5q59 0 90.5 -45t31.5 -114q0 -36 -5.5 -73t-17.5 -78t-34.5 -76
t-53 -64t-76.5 -45.5t-102 -16.5l-73 5l-32 -170h-79zM964 331q0 109 -67 109q-49 0 -99.5 -66.5t-70.5 -166.5l-28 -145q35 -11 75 -11q53 0 93 30.5t59.5 77.5t28.5 90.5t9 81.5z" />
    <glyph glyph-name=".notdef" horiz-adv-x="550" 
d="M300 150h-150v250h50v-200h100v-50zM500 50h-450v450h450v-450zM350 350h-100v50h150v-250h-50v100h-100v50h100v50zM100 100h350v350h-350v-350z" />
    <glyph glyph-name=".null" horiz-adv-x="0" 
 />
    <glyph glyph-name="nonmarkingreturn" horiz-adv-x="333" 
 />
    <glyph glyph-name="CR" unicode="&#xd;" horiz-adv-x="0" 
 />
    <glyph glyph-name="space" unicode=" " horiz-adv-x="240" 
 />
    <glyph glyph-name="exclam" unicode="!" horiz-adv-x="367" 
d="M342 675l-118 -526h-67l88 526h97zM162 -7q-26 0 -36.5 7t-10.5 26q0 37 15 52q14 13 46 13q26 0 36.5 -7t10.5 -26q0 -37 -14 -51t-47 -14z" />
    <glyph glyph-name="quotedbl" unicode="&#x22;" horiz-adv-x="436" 
d="M246 675l-60 -255h-60l40 255h80zM428 675l-60 -255h-60l40 255h80z" />
    <glyph glyph-name="numbersign" unicode="#" horiz-adv-x="506" 
d="M466 210h-114l-65 -210h-64l65 210h-121l-66 -210h-64l66 210h-82l10 53h88l56 180h-109l10 53h115l56 179h64l-56 -179h121l56 179h64l-56 -179h82l-10 -53h-88l-56 -180h109zM304 263l56 180h-121l-56 -180h121z" />
    <glyph glyph-name="dollar" unicode="$" 
d="M225 2l-28 -107h-49l15 107q-85 9 -145 51l30 45q59 -37 141 -37q75 0 116 33t41 86q0 34 -25 61.5t-60 47t-70.5 41t-60.5 56t-25 80.5q0 67 50.5 116.5t131.5 57.5l27 105h49l-13 -105q73 -7 121 -41l-25 -44q-56 29 -123 29q-58 0 -96.5 -28t-38.5 -79q0 -34 25 -61
t61 -46t72.5 -40.5t61.5 -56t25 -80.5q0 -79 -58.5 -131t-149.5 -60z" />
    <glyph glyph-name="percent" unicode="%" horiz-adv-x="694" 
d="M220 369q-59 0 -85.5 25.5t-26.5 77.5q0 26 5 53t17.5 56t31.5 51t48.5 36.5t66.5 14.5q59 0 85.5 -25.5t26.5 -77.5q0 -33 -9 -67.5t-27.5 -67.5t-53 -54.5t-79.5 -21.5zM324 573q0 62 -55 62q-37 0 -60 -31.5t-29.5 -63.5t-6.5 -61q0 -62 55 -62q28 0 48 17.5t30 44.5
t14 50.5t4 43.5zM691 663l-616 -680l-41 29l617 680zM447 -8q-59 0 -85.5 25.5t-26.5 77.5q0 32 9 66.5t27.5 68t53 55t79.5 21.5q59 0 85.5 -25.5t26.5 -77.5q0 -26 -5 -53t-17.5 -56t-31.5 -51t-48.5 -36.5t-66.5 -14.5zM551 196q0 62 -55 62q-28 0 -48 -17.5t-29.5 -44.5
t-13.5 -50.5t-4 -43.5q0 -32 13 -47t41 -15q37 0 60 31.5t29.5 63.5t6.5 61z" />
    <glyph glyph-name="ampersand" unicode="&#x26;" horiz-adv-x="696" 
d="M613 52l-10 -49q-24 -11 -52 -11q-31 0 -87 44.5t-126 130.5q-181 222 -181 341q0 29 10.5 58.5t33 56.5t62.5 43.5t93 16.5q68 0 103.5 -28.5t35.5 -73.5t-21 -81.5t-54.5 -63t-74.5 -50t-81.5 -47.5t-74 -50.5t-54.5 -64t-21 -82.5q0 -43 27.5 -67.5t82.5 -24.5
q109 0 203 103t116 223h77q-12 -63 -46.5 -129t-87 -124t-127 -94.5t-156.5 -36.5q-85 0 -126.5 39t-41.5 99t28.5 109.5t71 80t92.5 61.5t92.5 54.5t71 58.5t28.5 75q0 61 -74 61q-50 0 -80 -34t-30 -76q0 -103 165 -306q130 -162 182 -162h31z" />
    <glyph glyph-name="quotesingle" unicode="'" horiz-adv-x="320" 
d="M284 675l-61 -255h-57l40 255h78z" />
    <glyph glyph-name="parenleft" unicode="(" horiz-adv-x="310" 
d="M181 -153l-56 -19q-59 129 -59 293q0 154 59.5 311.5t170.5 292.5l51 -22q-97 -135 -151.5 -291t-54.5 -308q0 -135 40 -257z" />
    <glyph glyph-name="parenright" unicode=")" horiz-adv-x="310" 
d="M137 707l55 19q59 -126 59 -292q0 -152 -57 -308t-173 -297l-50 22q205 287 205 598q0 139 -39 258z" />
    <glyph glyph-name="asterisk" unicode="*" 
d="M480 457l-47 -66l-112 89l-8 -152h-76l34 152l-136 -89l-28 66l147 65l-129 65l47 65l112 -88l7 152h76l-34 -152l137 88l28 -65l-146 -65z" />
    <glyph glyph-name="plus" unicode="+" 
d="M458 268h-173l-37 -189h-68l37 189h-173l11 59h174l35 185h68l-35 -185h172z" />
    <glyph glyph-name="comma" unicode="," horiz-adv-x="304" 
d="M11 -148l-27 37q89 54 89 99q0 7 -7 17.5t-7 22.5q0 39 17 56q12 12 45 12q25 0 34.5 -8t9.5 -27q0 -56 -37.5 -112.5t-116.5 -96.5z" />
    <glyph glyph-name="hyphen" unicode="&#xad;" horiz-adv-x="233" 
d="M232 261h-200l13 62h200z" />
    <glyph glyph-name="hyphen" unicode="-" horiz-adv-x="233" 
d="M232 261h-200l13 62h200z" />
    <glyph glyph-name="period" unicode="." horiz-adv-x="290" 
d="M104 -8q-25 0 -35.5 7t-10.5 24q0 15 5 34t12 26q13 13 44 13q26 0 36 -6.5t10 -23.5q0 -44 -17 -61q-13 -13 -44 -13z" />
    <glyph glyph-name="slash" unicode="/" 
d="M574 709l-566 -813h-78l566 813h78z" />
    <glyph glyph-name="zero" unicode="0" 
d="M476 406q0 -78 -31.5 -188.5t-86.5 -165.5q-59 -60 -159 -60q-85 0 -126.5 39t-41.5 130q0 76 32.5 187t87.5 167q60 60 159 60q84 0 125 -39t41 -130zM211 54q55 0 91 36q42 42 67 147t25 167q0 59 -23.5 84t-74.5 25q-55 0 -91 -37q-42 -42 -67 -146.5t-25 -166.5
q0 -59 24 -84t74 -25z" />
    <glyph glyph-name="one" unicode="1" 
d="M396 0h-373l12 68h153l81 417l-146 -48l-8 54l187 76h68l-98 -499h137z" />
    <glyph glyph-name="two" unicode="2" 
d="M395 0h-389l11 60q223 159 288.5 227t65.5 141q0 81 -101 81q-61 0 -147 -27l-4 55q103 38 179 38q75 0 118.5 -34t43.5 -101q0 -88 -66.5 -160.5t-266.5 -211.5h280z" />
    <glyph glyph-name="three" unicode="3" 
d="M143 -111q-84 0 -175 39l16 49q83 -23 153 -23q52 0 90 17t56.5 45.5t26.5 56t8 56.5q0 92 -119 92h-71l11 63h67q78 0 115.5 45.5t37.5 102.5q0 40 -24 59t-76 19q-73 0 -147 -24l-4 54q89 35 177 35q160 0 160 -127q0 -65 -37.5 -119t-100.5 -71q50 -7 74 -40.5
t24 -83.5q0 -39 -12 -78t-39.5 -78.5t-82 -64t-128.5 -24.5z" />
    <glyph glyph-name="four" unicode="4" 
d="M427 50h-81l-30 -154h-78l30 154h-282l14 68q160 234 330 449h117l-87 -449h81zM281 118l75 382h-2q-137 -175 -281 -382h208z" />
    <glyph glyph-name="five" unicode="5" 
d="M145 -111q-79 0 -175 39l17 49q77 -23 154 -23q51 0 88.5 17t57.5 45.5t29.5 59.5t9.5 64q0 50 -30.5 73t-96.5 23q-68 0 -141 -16l89 347h68h236l-13 -70h-240l-54 -205q42 8 94 8q173 0 173 -146q0 -45 -14 -89t-43 -85t-83 -66t-126 -25z" />
    <glyph glyph-name="six" unicode="6" 
d="M211 -8q-156 0 -156 178q0 97 36.5 236t106.5 209q68 68 169 68q68 0 146 -32l-17 -50q-76 20 -128 20q-79 0 -130 -64.5t-81 -208.5q91 46 153 46q67 0 103 -35t36 -98q0 -32 -7.5 -66.5t-26 -71t-45 -65.5t-68 -47.5t-91.5 -18.5zM367 249q0 82 -88 82q-53 0 -131 -41
q-15 -85 -15 -120q0 -61 21.5 -89t67.5 -28q39 0 68.5 20.5t45.5 52t23.5 63t7.5 60.5z" />
    <glyph glyph-name="seven" unicode="7" 
d="M508 506l-199 -302q-99 -150 -228 -315l-53 23l377 585h-315l13 70h417z" />
    <glyph glyph-name="eight" unicode="8" 
d="M196 -8q-86 0 -130 36t-44 97q0 67 40.5 119.5t133.5 102.5q-90 56 -90 140q0 34 12.5 66.5t38 62.5t71.5 48.5t106 18.5q82 0 122.5 -34.5t40.5 -91.5q0 -64 -38.5 -111.5t-131.5 -95.5q59 -34 87 -70t28 -81q0 -83 -62.5 -145t-183.5 -62zM417 548q0 77 -101 77
q-64 0 -97 -40t-33 -87q0 -63 85 -113q84 43 115 78t31 85zM360 181q0 38 -27 68.5t-84 62.5q-85 -47 -115.5 -87.5t-30.5 -88.5q0 -40 28.5 -62.5t83.5 -22.5q64 0 104.5 38.5t40.5 91.5z" />
    <glyph glyph-name="nine" unicode="9" 
d="M297 575q158 0 158 -177q0 -103 -37 -238.5t-106 -203.5t-169 -68q-75 0 -158 33l15 49q78 -20 141 -20q78 0 129.5 64t82.5 207q-94 -48 -157 -48q-67 0 -101.5 34.5t-34.5 97.5q0 37 12.5 79.5t37.5 87t74 74t113 29.5zM141 318q0 -82 93 -82q48 0 128 42q14 79 14 119
q0 117 -90 117q-39 0 -69.5 -22t-45.5 -54.5t-22.5 -63.5t-7.5 -56z" />
    <glyph glyph-name="colon" unicode=":" horiz-adv-x="306" 
d="M116 -1q-24 0 -34 7t-10 24q0 37 16 53q13 13 45 13q24 0 34 -7t10 -25q0 -37 -16 -53q-12 -12 -45 -12zM194 398q-24 0 -34 7t-10 25q0 37 16 53q12 12 45 12q24 0 34 -7t10 -24q0 -37 -16 -53q-13 -13 -45 -13z" />
    <glyph glyph-name="semicolon" unicode=";" horiz-adv-x="306" 
d="M24 -148l-27 35q88 54 88 99q0 7 -7 17t-7 22q0 37 17 54q12 12 44 12q23 0 32.5 -8t9.5 -26q0 -55 -36.5 -110t-113.5 -95zM193 398q-24 0 -34 7t-10 25q0 37 16 53q12 12 45 12q24 0 34 -7t10 -24q0 -37 -16 -53q-13 -13 -45 -13z" />
    <glyph glyph-name="less" unicode="&#x3c;" 
d="M424 130l-39 -59l-345 199l11 55l422 199l16 -60l-362 -168z" />
    <glyph glyph-name="equal" unicode="=" 
d="M471 363h-402l12 59h401zM434 173h-402l12 59h402z" />
    <glyph glyph-name="greater" unicode="&#x3e;" 
d="M463 270l-422 -199l-15 60l362 168l-297 166l38 59l345 -199z" />
    <glyph glyph-name="question" unicode="?" 
d="M484 555q0 -46 -20 -84t-50 -65.5t-61 -53.5t-57.5 -60.5t-34.5 -73.5l-15 -69h-67l13 81q5 40 28 76t51.5 62.5t56 52t46.5 55.5t19 62q0 80 -96 80q-62 0 -131 -21l-10 50q93 36 166 36q81 0 121.5 -34.5t40.5 -93.5zM187 -7q-26 0 -36.5 7t-10.5 26q0 37 15 52
q14 13 47 13q26 0 36.5 -7t10.5 -26q0 -38 -15 -51q-14 -14 -47 -14z" />
    <glyph glyph-name="at" unicode="@" horiz-adv-x="1010" 
d="M928 463q0 -159 -97 -273.5t-261 -114.5h-42l28 106q-35 -49 -80 -81t-90 -32q-106 0 -106 119q0 55 17.5 109t51 100.5t91 75t129.5 28.5q79 0 144 -18l-106 -347q109 0 178 92.5t69 225.5q0 101 -56.5 152t-187.5 51q-111 0 -203 -45.5t-149.5 -120t-88.5 -165
t-31 -185.5q0 -126 62.5 -186.5t211.5 -60.5q126 0 257 54l11 -49q-139 -61 -282 -61q-334 0 -334 289q0 112 38.5 216.5t108 187t177.5 132t237 49.5q155 0 229 -66t74 -182zM364 197q0 -65 54 -65q43 0 94.5 58.5t77.5 142.5l31 98q-34 9 -71 9q-62 0 -106.5 -41t-62 -94
t-17.5 -108z" />
    <glyph glyph-name="A" unicode="A" horiz-adv-x="531" 
d="M464 0h-87q-3 57 -10 147h-253q-25 -55 -62 -147h-85q147 339 326 675h102q51 -348 69 -675zM141 211h225q-18 217 -41 384h-2q-114 -229 -182 -384z" />
    <glyph glyph-name="B" unicode="B" horiz-adv-x="544" 
d="M201 -2q-32 0 -85.5 1t-73.5 1l131 675h82h96q86 0 127.5 -34.5t41.5 -92.5q0 -62 -38.5 -112.5t-101.5 -70.5q114 -22 114 -127q0 -41 -15.5 -81t-47.5 -77t-91.5 -59.5t-138.5 -22.5zM433 533q0 81 -105 81h-85l-45 -230h70q82 0 123.5 48t41.5 101zM405 228
q0 96 -137 96h-82l-50 -259q45 -5 82 -5q53 0 92 17.5t58.5 45t28 53.5t8.5 52z" />
    <glyph glyph-name="C" unicode="C" horiz-adv-x="518" 
d="M421 134l31 -42q-92 -100 -209 -100q-91 0 -138.5 55.5t-47.5 162.5q0 74 19 153t55.5 152.5t100.5 120.5t145 47q120 0 157 -111l-46 -34q-34 78 -109 78q-73 0 -128.5 -66.5t-80.5 -154.5t-25 -174q0 -161 120 -161q78 0 156 74z" />
    <glyph glyph-name="D" unicode="D" horiz-adv-x="580" 
d="M553 446q0 -78 -30.5 -180.5t-100.5 -171.5q-96 -96 -242 -96q-27 0 -74.5 1t-63.5 1l131 675q26 0 72.5 0.5t71.5 0.5q121 0 178.5 -63t57.5 -167zM464 440q0 172 -160 172q-41 0 -60 -1l-107 -545q33 -3 61 -3q94 0 157 63q59 59 84 152.5t25 161.5z" />
    <glyph glyph-name="E" unicode="E" horiz-adv-x="472" 
d="M366 0h-324l131 675h320l-13 -66h-237l-44 -226h195l-12 -63h-196l-48 -254h240z" />
    <glyph glyph-name="F" unicode="F" horiz-adv-x="451" 
d="M475 610h-232l-46 -236h211l-12 -64h-211l-60 -310h-83l131 675h314z" />
    <glyph glyph-name="G" unicode="G" horiz-adv-x="572" 
d="M512 367l-59 -301q-97 -74 -210 -74q-89 0 -137.5 55t-48.5 166q0 112 37 218t103 172q78 80 184 80q107 0 168 -82l-42 -38q-57 53 -122 53q-70 0 -124 -55q-55 -54 -86 -151.5t-31 -192.5q0 -157 118 -157q67 0 114 34l42 210h-98l13 63h179z" />
    <glyph glyph-name="H" unicode="H" horiz-adv-x="658" 
d="M516 0h-83l62 319h-309l-61 -319h-83l131 675h83l-56 -285h308l56 285h83z" />
    <glyph glyph-name="I" unicode="I" horiz-adv-x="266" 
d="M125 0h-83l131 675h83z" />
    <glyph glyph-name="J" unicode="J" horiz-adv-x="274" 
d="M263 675l-117 -603q-18 -92 -49.5 -147.5t-92.5 -99.5l-37 37q39 37 59.5 85t35.5 123l118 605h83z" />
    <glyph glyph-name="K" unicode="K" horiz-adv-x="522" 
d="M447 0h-94l-163 333h-1l-64 -333h-83l131 675h83l-59 -301h1l268 301h97l-294 -315z" />
    <glyph glyph-name="L" unicode="L" horiz-adv-x="421" 
d="M353 0h-311l131 675h83l-118 -608h228z" />
    <glyph glyph-name="M" unicode="M" horiz-adv-x="840" 
d="M711 0h-87q57 340 74 574h-1l-301 -574h-65l-80 574h-1q-64 -219 -139 -574h-81q76 350 181 675h104l79 -539h1l285 539h108q-25 -364 -77 -675z" />
    <glyph glyph-name="N" unicode="N" horiz-adv-x="646" 
d="M504 0h-75l-152 411l-56 161h-2q-12 -89 -26 -157l-80 -415h-71l131 675h97l135 -366l58 -165h1q15 95 28 163l72 368h71z" />
    <glyph glyph-name="O" unicode="O" horiz-adv-x="637" 
d="M268 -8q-211 0 -211 220q0 63 12 126.5t38.5 126t65 110.5t97.5 78t129 30q211 0 211 -220q0 -64 -11.5 -127.5t-38.5 -125.5t-65.5 -110t-97 -77.5t-129.5 -30.5zM522 459q0 160 -136 160q-63 0 -112 -42t-75.5 -106.5t-40 -130t-13.5 -124.5q0 -82 33.5 -120.5
t102.5 -38.5q63 0 112 42t75.5 106.5t40 129.5t13.5 124z" />
    <glyph glyph-name="P" unicode="P" horiz-adv-x="515" 
d="M532 519q0 -50 -16 -95.5t-50.5 -86t-97.5 -64.5t-148 -24h-48l-47 -249h-83l131 675q22 0 71.5 0.5t73.5 0.5q214 0 214 -157zM443 507q0 52 -32.5 79t-108.5 27h-59l-58 -300h52q59 0 101.5 19t64 49.5t31 61.5t9.5 64z" />
    <glyph glyph-name="Q" unicode="Q" horiz-adv-x="637" 
d="M625 -117l-36 -36q-34 22 -76.5 27t-76.5 2.5t-67.5 0.5t-61.5 30.5t-47 84.5q-203 3 -203 220q0 63 12 126.5t38.5 126t65 110.5t97.5 78t129 30q211 0 211 -220q0 -107 -30 -204.5t-98.5 -172t-163.5 -90.5q21 -34 51.5 -47.5t63.5 -12t65.5 3.5t67 -11t59.5 -46z
M522 459q0 160 -136 160q-63 0 -112 -42t-75.5 -106.5t-40 -130t-13.5 -124.5q0 -82 33.5 -120.5t102.5 -38.5q63 0 112 42t75.5 106.5t40 129.5t13.5 124z" />
    <glyph glyph-name="R" unicode="R" horiz-adv-x="541" 
d="M476 0h-97l-138 297h-58l-58 -297h-83l131 675q96 2 158 2q208 0 208 -148q0 -79 -54.5 -144t-160.5 -75zM450 522q0 91 -135 91h-72l-48 -252h79q49 0 85 15.5t55 40.5t27.5 51.5t8.5 53.5z" />
    <glyph glyph-name="S" unicode="S" horiz-adv-x="495" 
d="M190 -8q-102 0 -179 56l27 46q81 -38 146 -38q74 0 119.5 38t45.5 100q0 36 -25 64t-61 47.5t-72.5 41t-61.5 56.5t-25 81q0 86 63 142.5t163 56.5q93 0 156 -46l-26 -46q-58 29 -125 29q-66 0 -104.5 -34.5t-38.5 -86.5q0 -36 26 -63.5t62.5 -47.5t73 -41.5t62.5 -57
t26 -82.5q0 -93 -70.5 -154t-181.5 -61z" />
    <glyph glyph-name="T" unicode="T" horiz-adv-x="466" 
d="M518 609h-176l-118 -609h-83l118 609h-175l13 66h434z" />
    <glyph glyph-name="U" unicode="U" horiz-adv-x="652" 
d="M643 675l-85 -433q-48 -250 -285 -250q-98 0 -146.5 40.5t-48.5 126.5q0 39 8 83l85 433h83l-83 -426q-9 -48 -9 -79q0 -61 30.5 -88t95.5 -27q75 0 122 42.5t66 143.5l85 434h82z" />
    <glyph glyph-name="V" unicode="V" horiz-adv-x="524" 
d="M502 675h86q-158 -375 -327 -675h-97q-56 370 -66 675h88q6 -268 47 -588h2q140 274 267 588z" />
    <glyph glyph-name="W" unicode="W" horiz-adv-x="851" 
d="M826 675h84q-157 -373 -312 -675h-88l-29 439l-2 95h-1l-40 -98l-188 -436h-95q-41 308 -51 675h87q3 -190 35 -570h1l26 69l218 501h76l30 -491l2 -79h2q149 326 245 570z" />
    <glyph glyph-name="X" unicode="X" horiz-adv-x="543" 
d="M465 0h-90q-46 163 -102 288h-2q-104 -125 -208 -288h-88q115 182 262 355q-68 157 -113 320h88q47 -165 88 -259h1q92 108 188 259h88q-101 -158 -239 -319q86 -201 127 -356z" />
    <glyph glyph-name="Y" unicode="Y" horiz-adv-x="483" 
d="M475 675h90q-156 -243 -275 -381l-57 -294h-83l57 294q-74 167 -127 381h90q47 -190 97 -307h1q93 114 207 307z" />
    <glyph glyph-name="Z" unicode="Z" horiz-adv-x="486" 
d="M396 0h-407l11 57l399 551h-277l15 67h378l-11 -55l-399 -552h306z" />
    <glyph glyph-name="bracketleft" unicode="[" horiz-adv-x="354" 
d="M203 -173h-166l177 912h166l-10 -53h-96l-157 -806h96z" />
    <glyph glyph-name="backslash" unicode="\" 
d="M429 -104h-70l-259 813h70z" />
    <glyph glyph-name="bracketright" unicode="]" horiz-adv-x="354" 
d="M149 -173h-167l10 53h96l157 806h-96l10 53h167z" />
    <glyph glyph-name="asciicircum" unicode="^" 
d="M487 391l-65 -25l-96 277l-202 -277l-58 25l237 318h69z" />
    <glyph glyph-name="underscore" unicode="_" 
d="M415 -176h-499l12 62h499z" />
    <glyph glyph-name="grave" unicode="`" horiz-adv-x="329" 
d="M321 585l-42 -25l-126 125l63 35z" />
    <glyph glyph-name="a" unicode="a" horiz-adv-x="516" 
d="M39 150q0 44 7.5 88.5t27.5 93.5t51 86t83.5 61.5t119.5 24.5q32 0 69.5 -4t58.5 -8l21 -4l-95 -488h-66l19 120q-30 -56 -76.5 -92t-97.5 -36q-59 0 -90.5 45t-31.5 113zM122 165q0 -110 67 -110q49 0 100 66.5t70 167.5l28 145q-36 11 -75 11q-53 0 -93 -30.5
t-59.5 -77.5t-28.5 -90.5t-9 -81.5z" />
    <glyph glyph-name="b" unicode="b" horiz-adv-x="516" 
d="M184 -8q-32 0 -69 4t-58 8l-21 4l135 701h79l-46 -242q-3 -16 -11 -47t-10 -39q29 52 73.5 87.5t95.5 35.5q58 0 90 -45t32 -114q0 -44 -7.5 -88.5t-28 -93.5t-51.5 -86t-83.5 -61t-119.5 -24zM391 331q0 109 -68 109q-48 0 -99.5 -66.5t-70.5 -166.5l-28 -145
q36 -11 75 -11q53 0 93 30.5t60 77.5t29 90.5t9 81.5z" />
    <glyph glyph-name="c" unicode="c" horiz-adv-x="427" 
d="M339 107l23 -42q-81 -73 -169 -73q-153 0 -153 168q0 49 13.5 105t41 111.5t78.5 91.5t116 36q89 0 130 -61l-35 -41q-40 41 -91 41q-47 0 -82.5 -31.5t-53 -78.5t-26 -90t-8.5 -78q0 -111 91 -111q62 0 125 53z" />
    <glyph glyph-name="d" unicode="d" horiz-adv-x="516" 
d="M382 0h-66l19 116q-31 -54 -77 -89t-97 -35q-59 0 -90.5 45t-31.5 113q0 44 7.5 88.5t27.5 93.5t51 86t83.5 61.5t119.5 24.5l72 -5l41 210h79zM122 165q0 -110 67 -110q49 0 100 66.5t70 167.5l28 145q-36 11 -75 11q-53 0 -93 -30.5t-59.5 -77.5t-28.5 -90.5t-9 -81.5z
" />
    <glyph glyph-name="e" unicode="e" horiz-adv-x="475" 
d="M366 85l7 -50q-82 -43 -169 -43q-165 0 -165 165q0 29 5 66.5t22.5 89t44 92.5t76 70t112.5 29q64 0 102 -30.5t38 -80.5q0 -156 -310 -156q-9 -37 -9 -75q0 -108 106 -108q62 0 140 31zM360 387q0 60 -73 60q-54 0 -92 -44t-56 -112q130 0 175.5 24.5t45.5 71.5z" />
    <glyph glyph-name="f" unicode="f" horiz-adv-x="295" 
d="M330 496l-11 -58h-110l-92 -474q-12 -67 -50 -104.5t-101 -37.5q-57 0 -101 29l21 46q36 -16 65 -16q71 0 87 83l92 474h-80l11 58h80l16 80q27 141 152 141q57 0 100 -29l-20 -47q-38 17 -65 17q-72 0 -88 -83l-16 -79h110z" />
    <glyph glyph-name="g" unicode="g" horiz-adv-x="516" 
d="M477 488l-95 -487q-20 -101 -74 -140t-145 -39q-79 0 -153 30l13 46q87 -15 140 -15q63 0 95.5 25.5t43.5 87.5l11 56q5 25 21 83q-29 -52 -74 -88t-95 -36q-58 0 -90.5 44t-32.5 117q0 41 8 83.5t28.5 88t51.5 80.5t82.5 57.5t115.5 22.5q33 0 70 -4t58 -8zM125 180
q0 -105 68 -105q48 0 98.5 65t69.5 161l26 133q-36 11 -75 11q-50 0 -88.5 -27t-58.5 -69.5t-30 -85.5t-10 -83z" />
    <glyph glyph-name="h" unicode="h" horiz-adv-x="537" 
d="M404 0h-79q12 62 27 132t22 103t12 65.5t5 53.5q0 85 -65 85q-51 0 -102 -67t-70 -165l-41 -207h-79l138 709h79l-47 -242q-6 -34 -21 -86q29 53 74 88t97 35q117 0 117 -134q0 -34 -7.5 -77t-27 -133t-32.5 -160z" />
    <glyph glyph-name="i" unicode="i" horiz-adv-x="248" 
d="M113 0h-79l96 496h79zM191 592q-46 0 -46 26q0 12 4.5 30t11.5 24q12 12 43 12q45 0 45 -26q0 -12 -4.5 -30t-10.5 -24q-14 -12 -43 -12z" />
    <glyph glyph-name="j" unicode="j" horiz-adv-x="248" 
d="M209 496l-89 -457q-15 -75 -45 -124t-92 -93l-45 29q80 70 100 171l92 474h79zM191 592q-46 0 -46 26q0 12 4.5 30t11.5 24q12 12 43 12q45 0 45 -26q0 -12 -4.5 -30t-10.5 -24q-14 -12 -43 -12z" />
    <glyph glyph-name="k" unicode="k" horiz-adv-x="457" 
d="M390 0h-92l-132 259h-3l-50 -259h-79l138 709h79l-82 -419h2l197 206h98l-224 -218z" />
    <glyph glyph-name="l" unicode="l" horiz-adv-x="266" 
d="M191 53l-4 -50q-32 -10 -67 -10q-37 0 -54.5 14t-17.5 49q0 20 7 54l116 599h79l-112 -582q-7 -34 -7 -50q0 -15 6.5 -20.5t23.5 -5.5q14 0 30 2z" />
    <glyph glyph-name="m" unicode="m" horiz-adv-x="814" 
d="M681 0h-79q14 74 33 163t26 127t7 64q0 85 -61 85q-47 0 -98 -66t-71 -166l-41 -207h-79l48 240q16 80 16 114q0 85 -60 85q-48 0 -98.5 -66t-69.5 -166l-41 -207h-79l96 496h66l-19 -117q32 54 77.5 89.5t95.5 35.5q105 0 111 -126q32 55 77.5 90.5t96.5 35.5
q113 0 113 -134q0 -34 -7.5 -77t-27 -133t-32.5 -160z" />
    <glyph glyph-name="n" unicode="n" horiz-adv-x="537" 
d="M326 439q-51 0 -102 -67t-70 -165l-41 -207h-79l96 496h66l-19 -117q32 54 78.5 89.5t98.5 35.5q117 0 117 -134q0 -34 -7.5 -77t-27 -133t-32.5 -160h-79q12 62 27 132t22 103t12 65.5t5 53.5q0 85 -65 85z" />
    <glyph glyph-name="o" unicode="o" horiz-adv-x="522" 
d="M205 -8q-164 0 -164 169q0 40 6.5 82t25.5 90t48 85t79 61.5t113 24.5q164 0 164 -169q0 -40 -6.5 -82t-25.5 -90t-48 -85t-79 -61.5t-113 -24.5zM396 333q0 57 -23.5 83.5t-74.5 26.5q-50 0 -87 -31t-55 -78.5t-26 -90.5t-8 -81q0 -57 24 -83.5t74 -26.5q40 0 72.5 21.5
t51 53t31 71.5t17 73t4.5 62z" />
    <glyph glyph-name="p" unicode="p" horiz-adv-x="516" 
d="M474 345q0 -44 -7.5 -88.5t-28 -93.5t-51.5 -86t-83.5 -61t-119.5 -24l-72 5l-33 -170h-79l130 669h66l-19 -117q32 54 78 89.5t96 35.5q59 0 91 -45t32 -114zM391 331q0 109 -68 109q-48 0 -99 -66.5t-70 -166.5l-28 -145q35 -11 74 -11q53 0 93 30.5t60 77.5t29 90.5
t9 81.5z" />
    <glyph glyph-name="q" unicode="q" horiz-adv-x="516" 
d="M328 504q33 0 70 -4t58 -8l21 -4l-129 -661h-79l39 202q4 16 12 46.5t10 38.5q-30 -52 -74.5 -87t-95.5 -35q-58 0 -89.5 45t-31.5 113q0 44 7.5 88.5t27.5 93.5t51 86t83.5 61.5t119.5 24.5zM122 165q0 -110 67 -110q49 0 100 66.5t70 167.5l28 145q-36 11 -75 11
q-53 0 -93 -30.5t-59.5 -77.5t-28.5 -90.5t-9 -81.5z" />
    <glyph glyph-name="r" unicode="r" horiz-adv-x="349" 
d="M368 493l-19 -74q-23 7 -40 7q-39 0 -87.5 -58.5t-68.5 -162.5l-40 -205h-79l96 496h65l-18 -121q30 55 70 91.5t82 36.5q20 0 39 -10z" />
    <glyph glyph-name="s" unicode="s" horiz-adv-x="401" 
d="M136 -8q-82 0 -139 35l16 45q66 -21 117 -21q55 0 88.5 24.5t33.5 69.5q0 26 -19.5 44.5t-47.5 30.5t-55.5 26t-47 39.5t-19.5 62.5q0 66 49 111t135 45q65 0 117 -29l-18 -44q-48 15 -91 15q-48 0 -78 -22.5t-30 -63.5q0 -25 19.5 -42.5t48 -29.5t56.5 -26t47.5 -40.5
t19.5 -64.5q0 -73 -55.5 -119t-146.5 -46z" />
    <glyph glyph-name="t" unicode="t" horiz-adv-x="347" 
d="M272 69l4 -48q-61 -29 -113 -29q-51 0 -75 20t-24 64q0 27 6 59l60 303h-80l12 58h80q28 71 49 141h56l-27 -141h134l-11 -58h-135l-56 -287q-7 -36 -7 -56q0 -22 11 -32t37 -10q30 0 79 16z" />
    <glyph glyph-name="u" unicode="u" horiz-adv-x="537" 
d="M499 496l-96 -496h-66l19 116q-32 -54 -78 -89t-99 -35q-117 0 -117 133q0 35 7.5 78t27 132.5t32.5 160.5h79q-12 -62 -26.5 -132t-21.5 -103.5t-12 -66t-5 -52.5q0 -86 64 -86q51 0 102 67t71 166l40 207h79z" />
    <glyph glyph-name="v" unicode="v" horiz-adv-x="461" 
d="M393 496h87q-113 -287 -259 -496h-89l-67 496h83l46 -329l4 -84h2q109 178 193 413z" />
    <glyph glyph-name="w" unicode="w" horiz-adv-x="730" 
d="M665 496h81q-89 -238 -239 -496h-84l-32 333l-2 64h-1l-26 -65l-149 -332h-92l-51 496h84l28 -316l5 -92h2l31 78l146 330h86l31 -339l3 -69h2q108 211 177 408z" />
    <glyph glyph-name="x" unicode="x" horiz-adv-x="469" 
d="M393 0h-91l-79 215h-2q-88 -120 -154 -215h-91l209 265l-88 231h89l60 -182h2q51 65 127 182h87l-177 -227z" />
    <glyph glyph-name="y" unicode="y" horiz-adv-x="461" 
d="M393 496h87q-271 -673 -493 -673q-34 0 -64 14l9 48q13 -3 41 -3q61 0 108 47q45 45 45 106q0 46 -10 119l-51 342h83l40 -284q15 -98 0 -161h2q48 79 105.5 204.5t97.5 240.5z" />
    <glyph glyph-name="z" unicode="z" horiz-adv-x="400" 
d="M318 62l-14 -62h-312l9 51l282 384h-197l14 61h290l-9 -50l-282 -384h219z" />
    <glyph glyph-name="braceleft" unicode="{" horiz-adv-x="388" 
d="M222 -173h-38q-65 0 -86 31.5t-9 93.5l41 211q20 95 -55 95h-23l12 60h22q74 0 92 92l40 205q23 124 147 124h35l-11 -50h-26q-29 0 -48.5 -19.5t-26.5 -54.5l-34 -177q-15 -73 -44 -108t-77 -41q88 -14 62 -152l-36 -186q-8 -42 2 -58t46 -16h25z" />
    <glyph glyph-name="bar" unicode="|" horiz-adv-x="252" 
d="M77 -173h-72l180 926h72z" />
    <glyph glyph-name="braceright" unicode="}" horiz-adv-x="388" 
d="M175 739h38q65 0 85.5 -32.5t8.5 -92.5l-39 -201q-18 -95 56 -95h22l-11 -60h-23q-74 0 -92 -92l-41 -215q-23 -124 -147 -124h-35l10 50h26q30 0 49 19.5t26 54.5l36 187q26 137 121 149q-88 14 -62 152l35 176q8 41 -2.5 57.5t-45.5 16.5h-25z" />
    <glyph glyph-name="asciitilde" unicode="~" 
d="M530 600l-3 -13q-12 -62 -52.5 -101t-99.5 -39q-37 0 -62.5 16.5t-36 36t-27 36t-38.5 16.5q-30 0 -51.5 -24t-29.5 -67h-62l3 13q13 64 53.5 102t97.5 38q31 0 53 -10.5t33.5 -26t21.5 -31t24 -26t32 -10.5q32 0 53 25t28 65h63z" />
    <glyph glyph-name="uni00A0" unicode="&#xa0;" horiz-adv-x="240" 
 />
    <glyph glyph-name="exclamdown" unicode="&#xa1;" horiz-adv-x="367" 
d="M35 -104l119 526h66l-87 -526h-98zM216 578q26 0 36.5 -7t10.5 -26q0 -35 -15 -52q-14 -13 -47 -13q-26 0 -36.5 7t-10.5 26q0 38 15 51q14 14 47 14z" />
    <glyph glyph-name="cent" unicode="&#xa2;" 
d="M384 215l24 -41q-66 -55 -139 -65l-29 -111h-50l15 109q-63 7 -97 49.5t-34 109.5q0 36 7.5 73.5t24.5 76.5t42 70.5t63 54.5t84 29l27 107h49l-13 -108q63 -10 100 -57l-34 -40q-44 41 -100 41q-52 0 -91 -36.5t-57 -89t-18 -109.5q0 -112 96 -112q64 0 130 49z" />
    <glyph glyph-name="sterling" unicode="&#xa3;" 
d="M400 0h-407l11 55q69 57 98 115t34 141h-90l10 57h81q0 7 -0.5 23.5t-0.5 25.5q0 119 51 192t164 73q87 0 157 -38l-18 -45q-73 22 -127 22q-76 0 -109 -49.5t-33 -155.5q0 -34 1 -48h184l-11 -57h-176q-6 -80 -31.5 -137t-87.5 -109h312z" />
    <glyph glyph-name="currency" unicode="&#xa4;" 
d="M426 53l-60 -36l-48 85q-48 -29 -111 -29q-52 0 -83 25l-77 -81l-50 39l86 75q-16 30 -16 70q0 53 18.5 105t52.5 86l-61 80l60 36l48 -85q50 29 110 29q50 0 84 -26l77 82l50 -40l-87 -75q16 -29 16 -70q0 -120 -70 -190zM362 317q0 44 -19.5 64t-61.5 20
q-43 0 -73.5 -21.5t-44 -55.5t-18.5 -62t-5 -55q0 -84 81 -84q43 0 73 21.5t43.5 55t19 62t5.5 55.5z" />
    <glyph glyph-name="yen" unicode="&#xa5;" 
d="M439 297l-10 -56h-143l-17 -85h143l-10 -56h-143l-19 -100h-80l19 100h-142l10 56h143l17 85h-143l11 56h142l5 21q-70 148 -130 357h88q44 -173 99 -293q87 101 203 293h89q-129 -192 -269 -357l-5 -21h142z" />
    <glyph glyph-name="brokenbar" unicode="&#xa6;" horiz-adv-x="252" 
d="M76 -173h-68l71 371h69zM181 366h-69l76 390h68z" />
    <glyph glyph-name="section" unicode="&#xa7;" horiz-adv-x="503" 
d="M442 177q0 -77 -45.5 -160t-116.5 -138t-139 -55q-62 0 -110 31l22 47q43 -17 90 -17q50 0 77.5 32t27.5 77q0 27 -18.5 56.5t-45 57t-53 58.5t-45 73.5t-18.5 89.5q0 80 45 162.5t115.5 136.5t138.5 54q63 0 102 -26l-23 -47q-36 13 -82 13q-51 0 -77.5 -34t-26.5 -75
q0 -27 18.5 -56.5t45.5 -57t54 -58.5t45.5 -74t18.5 -90zM368 162q0 39 -17.5 76t-42 65t-49.5 55t-42.5 56.5t-17.5 59.5q0 29 21 63q-80 -91 -80 -191q0 -40 17.5 -77t42.5 -65.5t50 -55t42.5 -56.5t17.5 -60q0 -31 -24 -66q38 41 60 93.5t22 102.5z" />
    <glyph glyph-name="dieresis" unicode="&#xa8;" horiz-adv-x="421" 
d="M425 654q0 -34 -14 -46q-11 -11 -37 -11q-39 0 -39 27q0 34 14 46q11 11 38 11q38 0 38 -27zM233 654q0 -34 -14 -46q-11 -11 -37 -11q-39 0 -39 27q0 32 14 46q11 11 38 11q38 0 38 -27z" />
    <glyph glyph-name="copyright" unicode="&#xa9;" horiz-adv-x="774" 
d="M480 237l21 -36q-66 -52 -133 -52q-59 0 -91 34.5t-32 100.5q0 94 52 170t146 76q65 0 103 -46l-33 -35q-29 28 -69 28q-57 0 -90 -61t-33 -128q0 -85 69 -85q43 0 90 34zM356 -10q-133 0 -217 84.5t-84 213.5q0 101 51.5 192t142.5 147.5t198 56.5q133 0 217 -84.5
t84 -213.5q0 -101 -51.5 -192t-142.5 -147.5t-198 -56.5zM686 380q0 107 -67.5 180t-176.5 73q-135 0 -230 -103t-95 -236q0 -107 67.5 -180t176.5 -73q135 0 230 103t95 236z" />
    <glyph glyph-name="ordfeminine" unicode="&#xaa;" horiz-adv-x="463" 
d="M355 211h-293l10 51h293zM373 339h-57l16 89q-24 -42 -61 -69t-71 -27q-45 0 -70.5 31.5t-25.5 89.5q0 44 11.5 86.5t35.5 84t70.5 67t108.5 25.5q41 0 113 -12zM349 568l18 93q-26 7 -54 7q-40 0 -69.5 -22t-43.5 -56.5t-20.5 -66t-6.5 -60.5q0 -78 48 -78
q36 0 74.5 51.5t53.5 131.5z" />
    <glyph glyph-name="guillemotleft" unicode="&#xab;" horiz-adv-x="504" 
d="M198 121l-54 -18l-88 193l159 191l50 -23l-126 -170zM392 127l-52 -17l-85 186l153 184l48 -21l-119 -165z" />
    <glyph glyph-name="logicalnot" unicode="&#xac;" 
d="M418 133h-69l27 134h-333l11 61h402z" />
    <glyph glyph-name="registered" unicode="&#xae;" horiz-adv-x="567" 
d="M555 510q0 -100 -72 -175.5t-179 -75.5q-91 0 -149.5 57.5t-58.5 141.5q0 100 72 176t179 76q91 0 149.5 -57.5t58.5 -142.5zM504 506q0 68 -45 114.5t-115 46.5q-82 0 -139.5 -60t-57.5 -144q0 -68 45 -115t115 -47q82 0 139.5 60t57.5 145zM421 553q0 -60 -63 -84
l38 -102h-52l-30 97h-20l-19 -97h-46l47 239q16 0 40.5 0.5t32.5 0.5q34 0 53 -15t19 -39zM374 550q0 23 -32 23h-27l-14 -75h24q21 0 35 13.5t14 38.5z" />
    <glyph glyph-name="macron" unicode="&#x2c9;" horiz-adv-x="404" 
d="M399 603h-261l11 58h261z" />
    <glyph glyph-name="macron" unicode="&#xaf;" horiz-adv-x="404" 
d="M399 603h-261l11 58h261z" />
    <glyph glyph-name="degree" unicode="&#xb0;" horiz-adv-x="450" 
d="M421 590q0 -65 -40.5 -112.5t-118.5 -47.5q-114 0 -114 100q0 65 41.5 112.5t119.5 47.5q112 0 112 -100zM354 587q0 52 -53 52q-45 0 -66 -30.5t-21 -75.5q0 -51 56 -51q44 0 64 29.5t20 75.5z" />
    <glyph glyph-name="plusminus" unicode="&#xb1;" 
d="M405 0h-412l11 57h411zM465 311h-172l-35 -178h-67l35 178h-173l11 57h173l35 175h66l-34 -175h171z" />
    <glyph glyph-name="twosuperior" unicode="&#xb2;" horiz-adv-x="343" 
d="M324 364h-262l10 49q129 90 175.5 135t46.5 89q0 42 -62 42q-34 0 -95 -17l-5 42q76 26 125 26q52 0 81 -23t29 -61q0 -53 -53 -107.5t-161 -119.5v-1h181z" />
    <glyph glyph-name="threesuperior" unicode="&#xb3;" horiz-adv-x="344" 
d="M352 485q0 -20 -7.5 -40t-24.5 -41t-53.5 -34t-87.5 -13q-55 0 -118 21l13 38q62 -12 102 -12q56 0 79 22.5t23 53.5q0 48 -80 48h-51l9 46h52q46 0 68.5 18.5t22.5 45.5q0 44 -67 44q-36 0 -88 -13l-6 40q63 21 114 21q62 0 90.5 -22.5t28.5 -57.5q0 -34 -23 -59.5
t-63 -34.5q67 -14 67 -71z" />
    <glyph glyph-name="acute" unicode="&#xb4;" horiz-adv-x="329" 
d="M340 679l-168 -119l-37 28l150 132z" />
    <glyph glyph-name="mu" unicode="&#x3bc;" horiz-adv-x="559" 
d="M423 -7q-45 0 -59 30.5t-3 90.5q-73 -120 -166 -120q-66 0 -83 58q-27 -195 -32 -225h-80l130 669h79l-55 -284q-9 -43 -9 -72q-3 -83 68 -83q52 0 103 67t69 165l40 207h79l-43 -221q-14 -76 -20.5 -119.5t-5.5 -67t6.5 -30t19.5 -6.5q21 0 43 7l-1 -47q-37 -19 -80 -19
z" />
    <glyph glyph-name="mu" unicode="&#xb5;" horiz-adv-x="559" 
d="M423 -7q-45 0 -59 30.5t-3 90.5q-73 -120 -166 -120q-66 0 -83 58q-27 -195 -32 -225h-80l130 669h79l-55 -284q-9 -43 -9 -72q-3 -83 68 -83q52 0 103 67t69 165l40 207h79l-43 -221q-14 -76 -20.5 -119.5t-5.5 -67t6.5 -30t19.5 -6.5q21 0 43 7l-1 -47q-37 -19 -80 -19
z" />
    <glyph glyph-name="paragraph" unicode="&#xb6;" horiz-adv-x="620" 
d="M459 -104h-66l141 724h-99l-140 -724h-66l78 404q-26 -4 -38 -4q-69 0 -113 43t-44 109q0 91 63.5 159t176.5 68h94h98h66z" />
    <glyph glyph-name="periodcentered" unicode="&#x2219;" horiz-adv-x="261" 
d="M130 246q-25 0 -35 6.5t-10 23.5q0 43 16 59q13 13 45 13q25 0 35.5 -7t10.5 -23q0 -43 -17 -60q-12 -12 -45 -12z" />
    <glyph glyph-name="periodcentered" unicode="&#xb7;" horiz-adv-x="261" 
d="M130 246q-25 0 -35 6.5t-10 23.5q0 43 16 59q13 13 45 13q25 0 35.5 -7t10.5 -23q0 -43 -17 -60q-12 -12 -45 -12z" />
    <glyph glyph-name="cedilla" unicode="&#xb8;" horiz-adv-x="261" 
d="M58 -43h70q-3 -80 -93 -136l-41 25q34 27 48 50.5t16 60.5z" />
    <glyph glyph-name="onesuperior" unicode="&#xb9;" horiz-adv-x="336" 
d="M316 364h-245l10 51h92l48 249l-86 -24l-3 40l118 45h53l-60 -310h83z" />
    <glyph glyph-name="ordmasculine" unicode="&#xba;" horiz-adv-x="435" 
d="M228 333q-60 0 -96.5 31.5t-36.5 99.5q0 37 10 76.5t31.5 80.5t64 67.5t99.5 26.5q60 0 97.5 -33.5t37.5 -100.5q0 -39 -11 -79.5t-33.5 -79.5t-64.5 -64t-98 -25zM349 211h-291l11 51h290zM364 580q0 83 -73 83q-35 0 -61 -21t-39 -53.5t-19 -63t-6 -57.5q0 -83 74 -83
q34 0 60 21t39 53.5t19 63t6 57.5z" />
    <glyph glyph-name="guillemotright" unicode="&#xbb;" horiz-adv-x="504" 
d="M321 469l53 18l88 -193l-159 -191l-49 22l126 171zM126 463l53 17l85 -186l-154 -184l-49 21l121 165z" />
    <glyph glyph-name="onequarter" unicode="&#xbc;" horiz-adv-x="713" 
d="M316 364h-245l10 51h92l48 249l-86 -24l-3 40l118 45h53l-60 -310h83zM775 703l-719 -772l-42 27l719 772zM645 20h-55l-16 -78h-67l15 78h-179l9 48q82 112 196 233h95l-43 -230h55zM532 71l38 187h-2q-61 -62 -158 -187h122z" />
    <glyph glyph-name="onehalf" unicode="&#xbd;" horiz-adv-x="746" 
d="M316 364h-245l10 51h92l48 249l-86 -24l-3 40l118 45h53l-60 -310h83zM775 703l-719 -772l-42 27l719 772zM645 -58h-262l10 49q129 90 175.5 135t46.5 89q0 42 -62 42q-34 0 -95 -17l-5 42q76 26 125 26q52 0 81 -23t29 -61q0 -53 -53 -107.5t-161 -119.5v-1h181z" />
    <glyph glyph-name="threequarters" unicode="&#xbe;" horiz-adv-x="723" 
d="M352 485q0 -20 -7.5 -40t-24.5 -41t-53.5 -34t-87.5 -13q-55 0 -118 21l13 38q62 -12 102 -12q56 0 79 22.5t23 53.5q0 48 -80 48h-51l9 46h52q46 0 68.5 18.5t22.5 45.5q0 44 -67 44q-36 0 -88 -13l-6 40q63 21 114 21q62 0 90.5 -22.5t28.5 -57.5q0 -34 -23 -59.5
t-63 -34.5q67 -14 67 -71zM785 703l-719 -772l-42 27l719 772zM656 20h-55l-16 -78h-67l15 78h-179l9 48q82 112 196 233h95l-43 -230h55zM543 71l38 187h-2q-61 -62 -158 -187h122z" />
    <glyph glyph-name="questiondown" unicode="&#xbf;" 
d="M27 16q0 46 20 84t50 65.5t61 53.5t57.5 60.5t34.5 73.5l15 69h67l-13 -81q-5 -40 -28 -76t-51.5 -62.5t-56 -52t-46.5 -55.5t-19 -62q0 -80 96 -80q62 0 131 21l10 -50q-93 -36 -166 -36q-81 0 -121.5 34.5t-40.5 93.5zM324 578q26 0 36.5 -7t10.5 -26q0 -37 -15 -52
q-14 -13 -47 -13q-26 0 -36.5 7t-10.5 26q0 38 15 51q14 14 47 14z" />
    <glyph glyph-name="Agrave" unicode="&#xc0;" horiz-adv-x="531" 
d="M464 0h-87q-3 57 -10 147h-253q-25 -55 -62 -147h-85q147 339 326 675h102q51 -348 69 -675zM141 211h225q-18 217 -41 384h-2q-114 -229 -182 -384zM406 765l-29 -37l-171 72l45 54z" />
    <glyph glyph-name="Aacute" unicode="&#xc1;" horiz-adv-x="531" 
d="M464 0h-87q-3 57 -10 147h-253q-25 -55 -62 -147h-85q147 339 326 675h102q51 -348 69 -675zM141 211h225q-18 217 -41 384h-2q-114 -229 -182 -384zM512 795l-191 -67l-20 40l181 86z" />
    <glyph glyph-name="Acircumflex" unicode="&#xc2;" horiz-adv-x="531" 
d="M464 0h-87q-3 57 -10 147h-253q-25 -55 -62 -147h-85q147 339 326 675h102q51 -348 69 -675zM141 211h225q-18 217 -41 384h-2q-114 -229 -182 -384zM374 854l129 -90l-29 -36l-109 61l-134 -61l-17 36z" />
    <glyph glyph-name="Atilde" unicode="&#xc3;" horiz-adv-x="531" 
d="M464 0h-87q-3 57 -10 147h-253q-25 -55 -62 -147h-85q147 339 326 675h102q51 -348 69 -675zM141 211h225q-18 217 -41 384h-2q-114 -229 -182 -384zM494 839l36 -25q-28 -44 -52 -62.5t-60 -18.5q-35 0 -71 27.5t-51 27.5q-16 0 -29.5 -11t-37.5 -42l-35 25
q27 44 51.5 62.5t60.5 18.5q27 0 49.5 -13.5t39.5 -27.5t32 -14q16 0 29.5 11t37.5 42z" />
    <glyph glyph-name="Adieresis" unicode="&#xc4;" horiz-adv-x="531" 
d="M464 0h-87q-3 57 -10 147h-253q-25 -55 -62 -147h-85q147 339 326 675h102q51 -348 69 -675zM141 211h225q-18 217 -41 384h-2q-114 -229 -182 -384zM508 792q0 -31 -12 -43q-10 -11 -38 -11q-21 0 -30 6t-9 21q0 29 12 43q12 11 39 11q21 0 29.5 -5.5t8.5 -21.5z
M309 792q0 -31 -12 -43q-10 -11 -38 -11q-21 0 -29.5 5.5t-8.5 21.5q0 31 12 43q11 11 38 11q21 0 29.5 -5.5t8.5 -21.5z" />
    <glyph glyph-name="Aring" unicode="&#xc5;" horiz-adv-x="531" 
d="M464 0h-87q-3 57 -10 147h-253q-25 -55 -62 -147h-85q147 339 326 675h102q51 -348 69 -675zM141 211h225q-18 217 -41 384h-2q-114 -229 -182 -384zM345 692q-85 0 -85 61q0 42 29.5 71.5t85.5 29.5q86 0 86 -61q0 -42 -30 -71.5t-86 -29.5zM405 789q0 26 -38 26
q-52 0 -52 -57q0 -27 37 -27q53 0 53 58z" />
    <glyph glyph-name="AE" unicode="&#xc6;" horiz-adv-x="714" 
d="M608 0h-242h-83l28 147h-201q-42 -67 -85 -147h-88q223 374 433 675h365l-14 -66h-237l-43 -226h195l-12 -63h-196l-50 -254h242zM324 211l77 398h-1q-117 -171 -253 -398h177z" />
    <glyph glyph-name="Ccedilla" unicode="&#xc7;" horiz-adv-x="518" 
d="M421 134l31 -42q-92 -100 -209 -100q-91 0 -138.5 55.5t-47.5 162.5q0 74 19 153t55.5 152.5t100.5 120.5t145 47q120 0 157 -111l-46 -34q-34 78 -109 78q-73 0 -128.5 -66.5t-80.5 -154.5t-25 -174q0 -161 120 -161q78 0 156 74zM202 -43h70q-3 -80 -93 -136l-41 25
q34 27 48 50.5t16 60.5z" />
    <glyph glyph-name="Egrave" unicode="&#xc8;" horiz-adv-x="472" 
d="M366 0h-324l131 675h320l-13 -66h-237l-44 -226h195l-12 -63h-196l-48 -254h240zM400 765l-29 -37l-171 72l45 54z" />
    <glyph glyph-name="Eacute" unicode="&#xc9;" horiz-adv-x="472" 
d="M366 0h-324l131 675h320l-13 -66h-237l-44 -226h195l-12 -63h-196l-48 -254h240zM502 795l-191 -67l-20 40l181 86z" />
    <glyph glyph-name="Ecircumflex" unicode="&#xca;" horiz-adv-x="472" 
d="M366 0h-324l131 675h320l-13 -66h-237l-44 -226h195l-12 -63h-196l-48 -254h240zM361 854l129 -90l-29 -36l-109 61l-134 -61l-17 36z" />
    <glyph glyph-name="Edieresis" unicode="&#xcb;" horiz-adv-x="472" 
d="M366 0h-324l131 675h320l-13 -66h-237l-44 -226h195l-12 -63h-196l-48 -254h240zM493 792q0 -31 -12 -43q-10 -11 -38 -11q-21 0 -30 6t-9 21q0 29 12 43q12 11 39 11q21 0 29.5 -5.5t8.5 -21.5zM294 792q0 -31 -12 -43q-10 -11 -38 -11q-21 0 -29.5 5.5t-8.5 21.5
q0 31 12 43q11 11 38 11q21 0 29.5 -5.5t8.5 -21.5z" />
    <glyph glyph-name="Igrave" unicode="&#xcc;" horiz-adv-x="266" 
d="M125 0h-83l131 675h83zM275 765l-29 -37l-171 72l45 54z" />
    <glyph glyph-name="Iacute" unicode="&#xcd;" horiz-adv-x="266" 
d="M125 0h-83l131 675h83zM383 795l-191 -67l-20 40l181 86z" />
    <glyph glyph-name="Icircumflex" unicode="&#xce;" horiz-adv-x="266" 
d="M125 0h-83l131 675h83zM246 854l129 -90l-29 -36l-109 61l-134 -61l-17 36z" />
    <glyph glyph-name="Idieresis" unicode="&#xcf;" horiz-adv-x="266" 
d="M125 0h-83l131 675h83zM349 792q0 -29 -12 -43q-11 -11 -37 -11q-21 0 -29 6t-8 21q0 31 12 43q11 11 37 11q21 0 29 -6t8 -21zM203 792q0 -31 -12 -43q-10 -11 -37 -11q-21 0 -29 6t-8 21q0 29 12 43q11 11 37 11q21 0 29 -6t8 -21z" />
    <glyph glyph-name="Eth" unicode="&#xd0;" horiz-adv-x="590" 
d="M563 446q0 -78 -30.5 -180.5t-100.5 -171.5q-96 -96 -242 -96q-27 0 -74.5 1t-63.5 1l61 320h-65l13 63h65l57 292q26 0 72.5 0.5t71.5 0.5q121 0 178.5 -63t57.5 -167zM474 440q0 172 -160 172q-41 0 -60 -1l-45 -228h122l-13 -63h-122l-49 -254q33 -3 61 -3
q94 0 157 63q59 59 84 152.5t25 161.5z" />
    <glyph glyph-name="Ntilde" unicode="&#xd1;" horiz-adv-x="646" 
d="M504 0h-75l-152 411l-56 161h-2q-12 -89 -26 -157l-80 -415h-71l131 675h97l135 -366l58 -165h1q15 95 28 163l72 368h71zM565 839l36 -25q-28 -44 -52 -62.5t-60 -18.5q-35 0 -71 27.5t-51 27.5q-16 0 -29.5 -11t-37.5 -42l-35 25q27 44 51.5 62.5t60.5 18.5
q27 0 49.5 -13.5t39.5 -27.5t32 -14q16 0 29.5 11t37.5 42z" />
    <glyph glyph-name="Ograve" unicode="&#xd2;" horiz-adv-x="637" 
d="M268 -8q-211 0 -211 220q0 63 12 126.5t38.5 126t65 110.5t97.5 78t129 30q211 0 211 -220q0 -64 -11.5 -127.5t-38.5 -125.5t-65.5 -110t-97 -77.5t-129.5 -30.5zM522 459q0 160 -136 160q-63 0 -112 -42t-75.5 -106.5t-40 -130t-13.5 -124.5q0 -82 33.5 -120.5
t102.5 -38.5q63 0 112 42t75.5 106.5t40 129.5t13.5 124zM452 765l-29 -37l-171 72l45 54z" />
    <glyph glyph-name="Oacute" unicode="&#xd3;" horiz-adv-x="637" 
d="M268 -8q-211 0 -211 220q0 63 12 126.5t38.5 126t65 110.5t97.5 78t129 30q211 0 211 -220q0 -64 -11.5 -127.5t-38.5 -125.5t-65.5 -110t-97 -77.5t-129.5 -30.5zM522 459q0 160 -136 160q-63 0 -112 -42t-75.5 -106.5t-40 -130t-13.5 -124.5q0 -82 33.5 -120.5
t102.5 -38.5q63 0 112 42t75.5 106.5t40 129.5t13.5 124zM582 795l-191 -67l-20 40l181 86z" />
    <glyph glyph-name="Ocircumflex" unicode="&#xd4;" horiz-adv-x="637" 
d="M268 -8q-211 0 -211 220q0 63 12 126.5t38.5 126t65 110.5t97.5 78t129 30q211 0 211 -220q0 -64 -11.5 -127.5t-38.5 -125.5t-65.5 -110t-97 -77.5t-129.5 -30.5zM522 459q0 160 -136 160q-63 0 -112 -42t-75.5 -106.5t-40 -130t-13.5 -124.5q0 -82 33.5 -120.5
t102.5 -38.5q63 0 112 42t75.5 106.5t40 129.5t13.5 124zM429 854l129 -90l-29 -36l-109 61l-134 -61l-17 36z" />
    <glyph glyph-name="Otilde" unicode="&#xd5;" horiz-adv-x="637" 
d="M268 -8q-211 0 -211 220q0 63 12 126.5t38.5 126t65 110.5t97.5 78t129 30q211 0 211 -220q0 -64 -11.5 -127.5t-38.5 -125.5t-65.5 -110t-97 -77.5t-129.5 -30.5zM522 459q0 160 -136 160q-63 0 -112 -42t-75.5 -106.5t-40 -130t-13.5 -124.5q0 -82 33.5 -120.5
t102.5 -38.5q63 0 112 42t75.5 106.5t40 129.5t13.5 124zM554 839l36 -25q-28 -44 -52 -62.5t-60 -18.5q-35 0 -71 27.5t-51 27.5q-16 0 -29.5 -11t-37.5 -42l-35 25q27 44 51.5 62.5t60.5 18.5q27 0 49.5 -13.5t39.5 -27.5t32 -14q16 0 29.5 11t37.5 42z" />
    <glyph glyph-name="Odieresis" unicode="&#xd6;" horiz-adv-x="637" 
d="M268 -8q-211 0 -211 220q0 63 12 126.5t38.5 126t65 110.5t97.5 78t129 30q211 0 211 -220q0 -64 -11.5 -127.5t-38.5 -125.5t-65.5 -110t-97 -77.5t-129.5 -30.5zM522 459q0 160 -136 160q-63 0 -112 -42t-75.5 -106.5t-40 -130t-13.5 -124.5q0 -82 33.5 -120.5
t102.5 -38.5q63 0 112 42t75.5 106.5t40 129.5t13.5 124zM562 792q0 -31 -12 -43q-10 -11 -38 -11q-21 0 -30 6t-9 21q0 29 12 43q12 11 39 11q21 0 29.5 -5.5t8.5 -21.5zM363 792q0 -31 -12 -43q-10 -11 -38 -11q-21 0 -29.5 5.5t-8.5 21.5q0 31 12 43q11 11 38 11
q21 0 29.5 -5.5t8.5 -21.5z" />
    <glyph glyph-name="multiply" unicode="&#xd7;" 
d="M303 296l110 -137l-52 -42l-110 136l-163 -136l-36 45l162 137l-109 135l51 43l110 -136l162 136l37 -45z" />
    <glyph glyph-name="Oslash" unicode="&#xd8;" horiz-adv-x="637" 
d="M268 -8q-90 0 -140 43l-85 -108l-44 28l91 117q-33 52 -33 140q0 63 12 126.5t39 126t65.5 110.5t97 78t128.5 30q90 0 140 -43l85 108l44 -28l-91 -117q33 -52 33 -140q0 -63 -11.5 -126.5t-38 -126t-65 -110.5t-97.5 -78t-130 -30zM386 622q-64 0 -114 -41
t-77.5 -103.5t-41.5 -126t-14 -119.5q0 -59 14 -84l339 433q-35 41 -106 41zM281 53q64 0 114 41t77.5 103.5t41.5 126t14 119.5q0 58 -13 84l-340 -433q35 -41 106 -41z" />
    <glyph glyph-name="Ugrave" unicode="&#xd9;" horiz-adv-x="652" 
d="M643 675l-85 -433q-48 -250 -285 -250q-98 0 -146.5 40.5t-48.5 126.5q0 39 8 83l85 433h83l-83 -426q-9 -48 -9 -79q0 -61 30.5 -88t95.5 -27q75 0 122 42.5t66 143.5l85 434h82zM454 765l-29 -37l-171 72l45 54z" />
    <glyph glyph-name="Uacute" unicode="&#xda;" horiz-adv-x="652" 
d="M643 675l-85 -433q-48 -250 -285 -250q-98 0 -146.5 40.5t-48.5 126.5q0 39 8 83l85 433h83l-83 -426q-9 -48 -9 -79q0 -61 30.5 -88t95.5 -27q75 0 122 42.5t66 143.5l85 434h82zM602 795l-191 -67l-20 40l181 86z" />
    <glyph glyph-name="Ucircumflex" unicode="&#xdb;" horiz-adv-x="652" 
d="M643 675l-85 -433q-48 -250 -285 -250q-98 0 -146.5 40.5t-48.5 126.5q0 39 8 83l85 433h83l-83 -426q-9 -48 -9 -79q0 -61 30.5 -88t95.5 -27q75 0 122 42.5t66 143.5l85 434h82zM439 854l129 -90l-29 -36l-109 61l-134 -61l-17 36z" />
    <glyph glyph-name="Udieresis" unicode="&#xdc;" horiz-adv-x="652" 
d="M643 675l-85 -433q-48 -250 -285 -250q-98 0 -146.5 40.5t-48.5 126.5q0 39 8 83l85 433h83l-83 -426q-9 -48 -9 -79q0 -61 30.5 -88t95.5 -27q75 0 122 42.5t66 143.5l85 434h82zM569 792q0 -31 -12 -43q-10 -11 -38 -11q-21 0 -30 6t-9 21q0 29 12 43q12 11 39 11
q21 0 29.5 -5.5t8.5 -21.5zM370 792q0 -31 -12 -43q-10 -11 -38 -11q-21 0 -29.5 5.5t-8.5 21.5q0 31 12 43q11 11 38 11q21 0 29.5 -5.5t8.5 -21.5z" />
    <glyph glyph-name="Yacute" unicode="&#xdd;" horiz-adv-x="483" 
d="M475 675h90q-156 -243 -275 -381l-57 -294h-83l57 294q-74 167 -127 381h90q47 -190 97 -307h1q93 114 207 307zM507 795l-191 -67l-20 40l181 86z" />
    <glyph glyph-name="Thorn" unicode="&#xde;" horiz-adv-x="515" 
d="M510 409q0 -50 -16 -95.5t-50.5 -86t-97.5 -64.5t-148 -24h-47l-26 -139h-83l131 675h83l-21 -109q6 0 26.5 0.5t34.5 0.5q214 0 214 -158zM422 397q0 53 -33 79.5t-109 26.5h-58l-58 -300h51q59 0 102 19t64.5 50t31 62t9.5 63z" />
    <glyph glyph-name="germandbls" unicode="&#xdf;" horiz-adv-x="547" 
d="M27 -36l106 543q21 107 76 158.5t153 51.5q69 0 108 -31t39 -84q0 -42 -16 -73.5t-39 -50t-46 -34t-39 -36.5t-16 -48q0 -26 21 -49.5t45.5 -39t45.5 -46t21 -69.5q0 -66 -47 -114.5t-129 -48.5q-65 0 -111 26l18 45q39 -14 85 -14q44 0 72.5 27t28.5 65q0 25 -13.5 45
t-32.5 34.5t-38.5 30t-33 39t-13.5 53.5q0 39 16.5 67.5t40 45.5t46.5 33.5t39.5 42t16.5 61.5q0 64 -77 64q-63 0 -95 -37.5t-47 -111.5l-105 -542q-29 -145 -152 -145q-57 0 -101 29l21 46q36 -16 65 -16q71 0 87 83z" />
    <glyph glyph-name="agrave" unicode="&#xe0;" horiz-adv-x="516" 
d="M39 150q0 44 7.5 88.5t27.5 93.5t51 86t83.5 61.5t119.5 24.5q32 0 69.5 -4t58.5 -8l21 -4l-95 -488h-66l19 120q-30 -56 -76.5 -92t-97.5 -36q-59 0 -90.5 45t-31.5 113zM122 165q0 -110 67 -110q49 0 100 66.5t70 167.5l28 145q-36 11 -75 11q-53 0 -93 -30.5
t-59.5 -77.5t-28.5 -90.5t-9 -81.5zM372 585l-42 -25l-126 125l63 35z" />
    <glyph glyph-name="aacute" unicode="&#xe1;" horiz-adv-x="516" 
d="M39 150q0 44 7.5 88.5t27.5 93.5t51 86t83.5 61.5t119.5 24.5q32 0 69.5 -4t58.5 -8l21 -4l-95 -488h-66l19 120q-30 -56 -76.5 -92t-97.5 -36q-59 0 -90.5 45t-31.5 113zM122 165q0 -110 67 -110q49 0 100 66.5t70 167.5l28 145q-36 11 -75 11q-53 0 -93 -30.5
t-59.5 -77.5t-28.5 -90.5t-9 -81.5zM480 679l-168 -119l-37 28l150 132z" />
    <glyph glyph-name="acircumflex" unicode="&#xe2;" horiz-adv-x="516" 
d="M39 150q0 44 7.5 88.5t27.5 93.5t51 86t83.5 61.5t119.5 24.5q32 0 69.5 -4t58.5 -8l21 -4l-95 -488h-66l19 120q-30 -56 -76.5 -92t-97.5 -36q-59 0 -90.5 45t-31.5 113zM122 165q0 -110 67 -110q49 0 100 66.5t70 167.5l28 145q-36 11 -75 11q-53 0 -93 -30.5
t-59.5 -77.5t-28.5 -90.5t-9 -81.5zM462 595l-34 -32l-92 83l-126 -83l-23 34l161 125z" />
    <glyph glyph-name="atilde" unicode="&#xe3;" horiz-adv-x="516" 
d="M39 150q0 44 7.5 88.5t27.5 93.5t51 86t83.5 61.5t119.5 24.5q32 0 69.5 -4t58.5 -8l21 -4l-95 -488h-66l19 120q-30 -56 -76.5 -92t-97.5 -36q-59 0 -90.5 45t-31.5 113zM122 165q0 -110 67 -110q49 0 100 66.5t70 167.5l28 145q-36 11 -75 11q-53 0 -93 -30.5
t-59.5 -77.5t-28.5 -90.5t-9 -81.5zM462 687l34 -26q-28 -44 -52 -62.5t-59 -18.5q-27 0 -49.5 14t-39.5 27.5t-32 13.5q-16 0 -29 -10.5t-37 -42.5l-34 26q28 45 51.5 63t58.5 18q27 0 49.5 -13.5t39.5 -27.5t32 -14q16 0 29 10.5t38 42.5z" />
    <glyph glyph-name="adieresis" unicode="&#xe4;" horiz-adv-x="516" 
d="M39 150q0 44 7.5 88.5t27.5 93.5t51 86t83.5 61.5t119.5 24.5q32 0 69.5 -4t58.5 -8l21 -4l-95 -488h-66l19 120q-30 -56 -76.5 -92t-97.5 -36q-59 0 -90.5 45t-31.5 113zM122 165q0 -110 67 -110q49 0 100 66.5t70 167.5l28 145q-36 11 -75 11q-53 0 -93 -30.5
t-59.5 -77.5t-28.5 -90.5t-9 -81.5zM472 654q0 -34 -14 -46q-11 -11 -37 -11q-39 0 -39 27q0 34 14 46q11 11 38 11q38 0 38 -27zM280 654q0 -34 -14 -46q-11 -11 -37 -11q-39 0 -39 27q0 32 14 46q11 11 38 11q38 0 38 -27z" />
    <glyph glyph-name="aring" unicode="&#xe5;" horiz-adv-x="516" 
d="M39 150q0 44 7.5 88.5t27.5 93.5t51 86t83.5 61.5t119.5 24.5q32 0 69.5 -4t58.5 -8l21 -4l-95 -488h-66l19 120q-30 -56 -76.5 -92t-97.5 -36q-59 0 -90.5 45t-31.5 113zM122 165q0 -110 67 -110q49 0 100 66.5t70 167.5l28 145q-36 11 -75 11q-53 0 -93 -30.5
t-59.5 -77.5t-28.5 -90.5t-9 -81.5zM311 547q-88 0 -88 67q0 44 29.5 76.5t89.5 32.5q88 0 88 -67q0 -44 -29.5 -76.5t-89.5 -32.5zM372 652q0 28 -38 28q-29 0 -41 -18t-12 -43q0 -29 37 -29q54 0 54 62z" />
    <glyph glyph-name="ae" unicode="&#xe6;" horiz-adv-x="751" 
d="M642 85l7 -50q-82 -43 -169 -43q-136 0 -155 116q-40 -58 -91 -87t-101 -29q-60 0 -89.5 32t-29.5 78q0 20 4 38.5t14 41t30.5 41t49.5 34.5t75 25t104 9h46l10 52q10 53 -10.5 77t-78.5 24q-63 0 -148 -29l-5 51q98 38 177 38q114 0 131 -77q63 77 162 77
q64 0 102 -30.5t38 -80.5q0 -156 -310 -156q-9 -37 -9 -75q0 -108 106 -108q62 0 140 31zM636 387q0 60 -73 60q-54 0 -92 -44t-56 -112q130 0 175.5 24.5t45.5 71.5zM327 238h-49q-61 0 -101 -13t-56.5 -36t-21.5 -41t-5 -41q0 -57 62 -57q58 0 106.5 52.5t61.5 119.5z" />
    <glyph glyph-name="ccedilla" unicode="&#xe7;" horiz-adv-x="427" 
d="M339 107l23 -42q-81 -73 -169 -73q-153 0 -153 168q0 49 13.5 105t41 111.5t78.5 91.5t116 36q89 0 130 -61l-35 -41q-40 41 -91 41q-47 0 -82.5 -31.5t-53 -78.5t-26 -90t-8.5 -78q0 -111 91 -111q62 0 125 53zM141 -43h70q-3 -80 -93 -136l-41 25q34 27 48 50.5
t16 60.5z" />
    <glyph glyph-name="egrave" unicode="&#xe8;" horiz-adv-x="475" 
d="M366 85l7 -50q-82 -43 -169 -43q-165 0 -165 165q0 29 5 66.5t22.5 89t44 92.5t76 70t112.5 29q64 0 102 -30.5t38 -80.5q0 -156 -310 -156q-9 -37 -9 -75q0 -108 106 -108q62 0 140 31zM360 387q0 60 -73 60q-54 0 -92 -44t-56 -112q130 0 175.5 24.5t45.5 71.5z
M355 585l-42 -25l-126 125l63 35z" />
    <glyph glyph-name="eacute" unicode="&#xe9;" horiz-adv-x="475" 
d="M366 85l7 -50q-82 -43 -169 -43q-165 0 -165 165q0 29 5 66.5t22.5 89t44 92.5t76 70t112.5 29q64 0 102 -30.5t38 -80.5q0 -156 -310 -156q-9 -37 -9 -75q0 -108 106 -108q62 0 140 31zM360 387q0 60 -73 60q-54 0 -92 -44t-56 -112q130 0 175.5 24.5t45.5 71.5z
M458 679l-168 -119l-37 28l150 132z" />
    <glyph glyph-name="ecircumflex" unicode="&#xea;" horiz-adv-x="475" 
d="M366 85l7 -50q-82 -43 -169 -43q-165 0 -165 165q0 29 5 66.5t22.5 89t44 92.5t76 70t112.5 29q64 0 102 -30.5t38 -80.5q0 -156 -310 -156q-9 -37 -9 -75q0 -108 106 -108q62 0 140 31zM360 387q0 60 -73 60q-54 0 -92 -44t-56 -112q130 0 175.5 24.5t45.5 71.5z
M436 595l-34 -32l-92 83l-126 -83l-23 34l161 125z" />
    <glyph glyph-name="edieresis" unicode="&#xeb;" horiz-adv-x="475" 
d="M366 85l7 -50q-82 -43 -169 -43q-165 0 -165 165q0 29 5 66.5t22.5 89t44 92.5t76 70t112.5 29q64 0 102 -30.5t38 -80.5q0 -156 -310 -156q-9 -37 -9 -75q0 -108 106 -108q62 0 140 31zM360 387q0 60 -73 60q-54 0 -92 -44t-56 -112q130 0 175.5 24.5t45.5 71.5z
M449 654q0 -34 -14 -46q-11 -11 -37 -11q-39 0 -39 27q0 34 14 46q11 11 38 11q38 0 38 -27zM257 654q0 -34 -14 -46q-11 -11 -37 -11q-39 0 -39 27q0 32 14 46q11 11 38 11q38 0 38 -27z" />
    <glyph glyph-name="igrave" unicode="&#xec;" horiz-adv-x="248" 
d="M113 0h-79l96 496h79zM241 585l-42 -25l-126 125l63 35z" />
    <glyph glyph-name="iacute" unicode="&#xed;" horiz-adv-x="248" 
d="M113 0h-79l96 496h79zM344 679l-168 -119l-37 28l150 132z" />
    <glyph glyph-name="icircumflex" unicode="&#xee;" horiz-adv-x="248" 
d="M113 0h-79l96 496h79zM325 595l-34 -32l-92 83l-126 -83l-23 34l161 125z" />
    <glyph glyph-name="idieresis" unicode="&#xef;" horiz-adv-x="248" 
d="M113 0h-79l96 496h79zM321 654q0 -34 -14 -46q-11 -11 -37 -11q-38 0 -38 27q0 34 14 46q11 11 37 11q38 0 38 -27zM163 654q0 -34 -14 -46q-11 -11 -37 -11q-38 0 -38 27q0 34 14 46q11 11 37 11q38 0 38 -27z" />
    <glyph glyph-name="eth" unicode="&#xf0;" horiz-adv-x="519" 
d="M477 400q0 -35 -5.5 -75.5t-17.5 -88t-33.5 -90t-50.5 -77.5t-72 -56t-95 -21q-169 0 -169 168q0 54 15 109.5t46 108.5t87 86.5t129 33.5q53 0 73 -8q-14 50 -45 98l-111 -54l-27 44l110 52q-28 37 -71 79h99q35 -35 49 -55l102 48l27 -44l-101 -47q61 -98 61 -211z
M390 393q0 24 -1 34q-30 13 -88 13q-41 0 -73.5 -20.5t-52 -51t-32 -69.5t-17.5 -72t-5 -61q0 -112 95 -112q48 0 84.5 39.5t54.5 97.5t26.5 110t8.5 92z" />
    <glyph glyph-name="ntilde" unicode="&#xf1;" horiz-adv-x="537" 
d="M326 439q-51 0 -102 -67t-70 -165l-41 -207h-79l96 496h66l-19 -117q32 54 78.5 89.5t98.5 35.5q117 0 117 -134q0 -34 -7.5 -77t-27 -133t-32.5 -160h-79q12 62 27 132t22 103t12 65.5t5 53.5q0 85 -65 85zM476 687l34 -26q-28 -44 -52 -62.5t-59 -18.5q-27 0 -49.5 14
t-39.5 27.5t-32 13.5q-16 0 -29 -10.5t-37 -42.5l-34 26q28 45 51.5 63t58.5 18q27 0 49.5 -13.5t39.5 -27.5t32 -14q16 0 29 10.5t38 42.5z" />
    <glyph glyph-name="ograve" unicode="&#xf2;" horiz-adv-x="522" 
d="M205 -8q-164 0 -164 169q0 40 6.5 82t25.5 90t48 85t79 61.5t113 24.5q164 0 164 -169q0 -40 -6.5 -82t-25.5 -90t-48 -85t-79 -61.5t-113 -24.5zM396 333q0 57 -23.5 83.5t-74.5 26.5q-50 0 -87 -31t-55 -78.5t-26 -90.5t-8 -81q0 -57 24 -83.5t74 -26.5q40 0 72.5 21.5
t51 53t31 71.5t17 73t4.5 62zM362 585l-42 -25l-126 125l63 35z" />
    <glyph glyph-name="oacute" unicode="&#xf3;" horiz-adv-x="522" 
d="M205 -8q-164 0 -164 169q0 40 6.5 82t25.5 90t48 85t79 61.5t113 24.5q164 0 164 -169q0 -40 -6.5 -82t-25.5 -90t-48 -85t-79 -61.5t-113 -24.5zM396 333q0 57 -23.5 83.5t-74.5 26.5q-50 0 -87 -31t-55 -78.5t-26 -90.5t-8 -81q0 -57 24 -83.5t74 -26.5q40 0 72.5 21.5
t51 53t31 71.5t17 73t4.5 62zM485 679l-168 -119l-37 28l150 132z" />
    <glyph glyph-name="ocircumflex" unicode="&#xf4;" horiz-adv-x="522" 
d="M205 -8q-164 0 -164 169q0 40 6.5 82t25.5 90t48 85t79 61.5t113 24.5q164 0 164 -169q0 -40 -6.5 -82t-25.5 -90t-48 -85t-79 -61.5t-113 -24.5zM396 333q0 57 -23.5 83.5t-74.5 26.5q-50 0 -87 -31t-55 -78.5t-26 -90.5t-8 -81q0 -57 24 -83.5t74 -26.5q40 0 72.5 21.5
t51 53t31 71.5t17 73t4.5 62zM465 595l-34 -32l-92 83l-126 -83l-23 34l161 125z" />
    <glyph glyph-name="otilde" unicode="&#xf5;" horiz-adv-x="522" 
d="M205 -8q-164 0 -164 169q0 40 6.5 82t25.5 90t48 85t79 61.5t113 24.5q164 0 164 -169q0 -40 -6.5 -82t-25.5 -90t-48 -85t-79 -61.5t-113 -24.5zM396 333q0 57 -23.5 83.5t-74.5 26.5q-50 0 -87 -31t-55 -78.5t-26 -90.5t-8 -81q0 -57 24 -83.5t74 -26.5q40 0 72.5 21.5
t51 53t31 71.5t17 73t4.5 62zM464 687l34 -26q-28 -44 -52 -62.5t-59 -18.5q-27 0 -49.5 14t-39.5 27.5t-32 13.5q-16 0 -29 -10.5t-37 -42.5l-34 26q28 45 51.5 63t58.5 18q27 0 49.5 -13.5t39.5 -27.5t32 -14q16 0 29 10.5t38 42.5z" />
    <glyph glyph-name="odieresis" unicode="&#xf6;" horiz-adv-x="522" 
d="M205 -8q-164 0 -164 169q0 40 6.5 82t25.5 90t48 85t79 61.5t113 24.5q164 0 164 -169q0 -40 -6.5 -82t-25.5 -90t-48 -85t-79 -61.5t-113 -24.5zM396 333q0 57 -23.5 83.5t-74.5 26.5q-50 0 -87 -31t-55 -78.5t-26 -90.5t-8 -81q0 -57 24 -83.5t74 -26.5q40 0 72.5 21.5
t51 53t31 71.5t17 73t4.5 62zM476 654q0 -34 -14 -46q-11 -11 -37 -11q-39 0 -39 27q0 34 14 46q11 11 38 11q38 0 38 -27zM284 654q0 -34 -14 -46q-11 -11 -37 -11q-39 0 -39 27q0 32 14 46q11 11 38 11q38 0 38 -27z" />
    <glyph glyph-name="divide" unicode="&#xf7;" 
d="M212 59q-24 0 -33.5 6t-9.5 21q0 39 15 56q12 11 43 11q24 0 33.5 -6t9.5 -21q0 -40 -16 -56q-11 -11 -42 -11zM287 442q-24 0 -34 6t-10 21q0 40 16 56q11 11 42 11q24 0 34 -6t10 -21q0 -13 -5 -31t-11 -25q-12 -11 -42 -11zM458 268h-414l11 59h415z" />
    <glyph glyph-name="oslash" unicode="&#xf8;" horiz-adv-x="522" 
d="M477 335q0 -40 -6.5 -82t-25.5 -90t-48 -85t-79 -61.5t-113 -24.5q-57 0 -94 23l-68 -88l-43 29l71 92q-30 39 -30 113q0 40 6.5 82t25.5 90t48 85t79 61.5t113 24.5q56 0 95 -24l69 89l43 -29l-72 -93q29 -40 29 -112zM398 316q0 33 -11 58l-233 -306q23 -19 67 -19
q49 0 86 29t55.5 73.5t27 86t8.5 78.5zM119 178q0 -36 12 -59l234 307q-24 21 -68 21q-50 0 -87.5 -29.5t-55.5 -75t-26.5 -87t-8.5 -77.5z" />
    <glyph glyph-name="ugrave" unicode="&#xf9;" horiz-adv-x="537" 
d="M499 496l-96 -496h-66l19 116q-32 -54 -78 -89t-99 -35q-117 0 -117 133q0 35 7.5 78t27 132.5t32.5 160.5h79q-12 -62 -26.5 -132t-21.5 -103.5t-12 -66t-5 -52.5q0 -86 64 -86q51 0 102 67t71 166l40 207h79zM378 585l-42 -25l-126 125l63 35z" />
    <glyph glyph-name="uacute" unicode="&#xfa;" horiz-adv-x="537" 
d="M499 496l-96 -496h-66l19 116q-32 -54 -78 -89t-99 -35q-117 0 -117 133q0 35 7.5 78t27 132.5t32.5 160.5h79q-12 -62 -26.5 -132t-21.5 -103.5t-12 -66t-5 -52.5q0 -86 64 -86q51 0 102 67t71 166l40 207h79zM493 679l-168 -119l-37 28l150 132z" />
    <glyph glyph-name="ucircumflex" unicode="&#xfb;" horiz-adv-x="537" 
d="M499 496l-96 -496h-66l19 116q-32 -54 -78 -89t-99 -35q-117 0 -117 133q0 35 7.5 78t27 132.5t32.5 160.5h79q-12 -62 -26.5 -132t-21.5 -103.5t-12 -66t-5 -52.5q0 -86 64 -86q51 0 102 67t71 166l40 207h79zM468 595l-34 -32l-92 83l-126 -83l-23 34l161 125z" />
    <glyph glyph-name="udieresis" unicode="&#xfc;" horiz-adv-x="537" 
d="M499 496l-96 -496h-66l19 116q-32 -54 -78 -89t-99 -35q-117 0 -117 133q0 35 7.5 78t27 132.5t32.5 160.5h79q-12 -62 -26.5 -132t-21.5 -103.5t-12 -66t-5 -52.5q0 -86 64 -86q51 0 102 67t71 166l40 207h79zM480 654q0 -34 -14 -46q-11 -11 -37 -11q-39 0 -39 27
q0 34 14 46q11 11 38 11q38 0 38 -27zM288 654q0 -34 -14 -46q-11 -11 -37 -11q-39 0 -39 27q0 32 14 46q11 11 38 11q38 0 38 -27z" />
    <glyph glyph-name="yacute" unicode="&#xfd;" horiz-adv-x="461" 
d="M393 496h87q-271 -673 -493 -673q-34 0 -64 14l9 48q13 -3 41 -3q61 0 108 47q45 45 45 106q0 46 -10 119l-51 342h83l40 -284q15 -98 0 -161h2q48 79 105.5 204.5t97.5 240.5zM456 679l-168 -119l-37 28l150 132z" />
    <glyph glyph-name="thorn" unicode="&#xfe;" horiz-adv-x="516" 
d="M184 -8l-72 5l-33 -170h-79l172 882h79l-47 -242q-3 -16 -11 -47t-10 -39q29 52 73.5 87.5t95.5 35.5q58 0 90 -45t32 -114q0 -44 -7.5 -88.5t-28 -93.5t-51.5 -86t-83.5 -61t-119.5 -24zM391 331q0 109 -68 109q-48 0 -99 -66.5t-70 -166.5l-28 -145q35 -11 74 -11
q53 0 93 30.5t60 77.5t29 90.5t9 81.5z" />
    <glyph glyph-name="ydieresis" unicode="&#xff;" horiz-adv-x="461" 
d="M393 496h87q-271 -673 -493 -673q-34 0 -64 14l9 48q13 -3 41 -3q61 0 108 47q45 45 45 106q0 46 -10 119l-51 342h83l40 -284q15 -98 0 -161h2q48 79 105.5 204.5t97.5 240.5zM435 654q0 -34 -14 -46q-11 -11 -37 -11q-39 0 -39 27q0 34 14 46q11 11 38 11q38 0 38 -27z
M243 654q0 -34 -14 -46q-11 -11 -37 -11q-39 0 -39 27q0 32 14 46q11 11 38 11q38 0 38 -27z" />
    <glyph glyph-name="Amacron" unicode="&#x100;" horiz-adv-x="531" 
d="M464 0h-87q-3 57 -10 147h-253q-25 -55 -62 -147h-85q147 339 326 675h102q51 -348 69 -675zM141 211h225q-18 217 -41 384h-2q-114 -229 -182 -384zM495 751h-270l10 56h270z" />
    <glyph glyph-name="amacron" unicode="&#x101;" horiz-adv-x="516" 
d="M39 150q0 44 7.5 88.5t27.5 93.5t51 86t83.5 61.5t119.5 24.5q32 0 69.5 -4t58.5 -8l21 -4l-95 -488h-66l19 120q-30 -56 -76.5 -92t-97.5 -36q-59 0 -90.5 45t-31.5 113zM122 165q0 -110 67 -110q49 0 100 66.5t70 167.5l28 145q-36 11 -75 11q-53 0 -93 -30.5
t-59.5 -77.5t-28.5 -90.5t-9 -81.5zM455 603h-261l11 58h261z" />
    <glyph glyph-name="Abreve" unicode="&#x102;" horiz-adv-x="531" 
d="M464 0h-87q-3 57 -10 147h-253q-25 -55 -62 -147h-85q147 339 326 675h102q51 -348 69 -675zM141 211h225q-18 217 -41 384h-2q-114 -229 -182 -384zM460 854h51q-12 -62 -55 -97t-101 -35q-64 0 -93 36.5t-17 95.5h50q-7 -32 10.5 -53t56.5 -21t65.5 20.5t32.5 53.5z
" />
    <glyph glyph-name="abreve" unicode="&#x103;" horiz-adv-x="516" 
d="M39 150q0 44 7.5 88.5t27.5 93.5t51 86t83.5 61.5t119.5 24.5q32 0 69.5 -4t58.5 -8l21 -4l-95 -488h-66l19 120q-30 -56 -76.5 -92t-97.5 -36q-59 0 -90.5 45t-31.5 113zM122 165q0 -110 67 -110q49 0 100 66.5t70 167.5l28 145q-36 11 -75 11q-53 0 -93 -30.5
t-59.5 -77.5t-28.5 -90.5t-9 -81.5zM424 715h51q-11 -69 -52.5 -107t-105.5 -38q-66 0 -94.5 38t-14.5 107h51q-16 -83 65 -83q83 0 100 83z" />
    <glyph glyph-name="Aogonek" unicode="&#x104;" horiz-adv-x="531" 
d="M442 -116l9 -39q-37 -23 -83 -23q-74 0 -74 61q0 26 22.5 58t60.5 59q-3 57 -10 147h-253q-25 -55 -62 -147h-85q147 339 326 675h102q51 -348 69 -675q-45 -20 -72.5 -50t-27.5 -55q0 -24 27 -24q25 0 51 13zM141 211h225q-18 217 -41 384h-2q-114 -229 -182 -384z" />
    <glyph glyph-name="aogonek" unicode="&#x105;" horiz-adv-x="516" 
d="M39 150q0 44 7.5 88.5t27.5 93.5t51 86t83.5 61.5t119.5 24.5q32 0 69.5 -4t58.5 -8l21 -4l-95 -488q-23 -12 -43.5 -46t-20.5 -59q0 -24 25 -24t55 14l6 -39q-38 -24 -90 -24q-32 0 -49.5 14.5t-17.5 38.5q0 65 69 125l19 120q-30 -56 -76.5 -92t-97.5 -36
q-59 0 -90.5 45t-31.5 113zM122 165q0 -110 67 -110q49 0 100 66.5t70 167.5l28 145q-36 11 -75 11q-53 0 -93 -30.5t-59.5 -77.5t-28.5 -90.5t-9 -81.5z" />
    <glyph glyph-name="Cacute" unicode="&#x106;" horiz-adv-x="518" 
d="M421 134l31 -42q-92 -100 -209 -100q-91 0 -138.5 55.5t-47.5 162.5q0 74 19 153t55.5 152.5t100.5 120.5t145 47q120 0 157 -111l-46 -34q-34 78 -109 78q-73 0 -128.5 -66.5t-80.5 -154.5t-25 -174q0 -161 120 -161q78 0 156 74zM573 795l-191 -67l-20 40l181 86z" />
    <glyph glyph-name="cacute" unicode="&#x107;" horiz-adv-x="427" 
d="M339 107l23 -42q-81 -73 -169 -73q-153 0 -153 168q0 49 13.5 105t41 111.5t78.5 91.5t116 36q89 0 130 -61l-35 -41q-40 41 -91 41q-47 0 -82.5 -31.5t-53 -78.5t-26 -90t-8.5 -78q0 -111 91 -111q62 0 125 53zM485 679l-168 -119l-37 28l150 132z" />
    <glyph glyph-name="Ccircumflex" unicode="&#x108;" horiz-adv-x="518" 
d="M421 134l31 -42q-92 -100 -209 -100q-91 0 -138.5 55.5t-47.5 162.5q0 74 19 153t55.5 152.5t100.5 120.5t145 47q120 0 157 -111l-46 -34q-34 78 -109 78q-73 0 -128.5 -66.5t-80.5 -154.5t-25 -174q0 -161 120 -161q78 0 156 74zM406 854l129 -90l-29 -36l-109 61
l-134 -61l-17 36z" />
    <glyph glyph-name="ccircumflex" unicode="&#x109;" horiz-adv-x="427" 
d="M339 107l23 -42q-81 -73 -169 -73q-153 0 -153 168q0 49 13.5 105t41 111.5t78.5 91.5t116 36q89 0 130 -61l-35 -41q-40 41 -91 41q-47 0 -82.5 -31.5t-53 -78.5t-26 -90t-8.5 -78q0 -111 91 -111q62 0 125 53zM438 595l-34 -32l-92 83l-126 -83l-23 34l161 125z" />
    <glyph glyph-name="Cdotaccent" unicode="&#x10a;" horiz-adv-x="518" 
d="M421 134l31 -42q-92 -100 -209 -100q-91 0 -138.5 55.5t-47.5 162.5q0 74 19 153t55.5 152.5t100.5 120.5t145 47q120 0 157 -111l-46 -34q-34 78 -109 78q-73 0 -128.5 -66.5t-80.5 -154.5t-25 -174q0 -161 120 -161q78 0 156 74zM384 740q-23 0 -32 6t-9 19q0 31 14 47
q11 11 44 11q24 0 32.5 -5.5t8.5 -19.5q0 -33 -14 -47q-13 -11 -44 -11z" />
    <glyph glyph-name="cdotaccent" unicode="&#x10b;" horiz-adv-x="427" 
d="M339 107l23 -42q-81 -73 -169 -73q-153 0 -153 168q0 49 13.5 105t41 111.5t78.5 91.5t116 36q89 0 130 -61l-35 -41q-40 41 -91 41q-47 0 -82.5 -31.5t-53 -78.5t-26 -90t-8.5 -78q0 -111 91 -111q62 0 125 53zM305 597q-25 0 -35.5 5.5t-10.5 19.5q0 10 5 28t11 25
q11 11 43 11q45 0 45 -26q0 -10 -4.5 -28t-10.5 -24q-11 -11 -43 -11z" />
    <glyph glyph-name="Ccaron" unicode="&#x10c;" horiz-adv-x="518" 
d="M421 134l31 -42q-92 -100 -209 -100q-91 0 -138.5 55.5t-47.5 162.5q0 74 19 153t55.5 152.5t100.5 120.5t145 47q120 0 157 -111l-46 -34q-34 78 -109 78q-73 0 -128.5 -66.5t-80.5 -154.5t-25 -174q0 -161 120 -161q78 0 156 74zM395 728l-130 90l29 36l109 -62l134 62
l17 -38z" />
    <glyph glyph-name="ccaron" unicode="&#x10d;" horiz-adv-x="427" 
d="M339 107l23 -42q-81 -73 -169 -73q-153 0 -153 168q0 49 13.5 105t41 111.5t78.5 91.5t116 36q89 0 130 -61l-35 -41q-40 41 -91 41q-47 0 -82.5 -31.5t-53 -78.5t-26 -90t-8.5 -78q0 -111 91 -111q62 0 125 53zM461 687l-161 -125l-113 127l32 33l94 -83l125 83z" />
    <glyph glyph-name="Dcaron" unicode="&#x10e;" horiz-adv-x="580" 
d="M553 446q0 -78 -30.5 -180.5t-100.5 -171.5q-96 -96 -242 -96q-27 0 -74.5 1t-63.5 1l131 675q26 0 72.5 0.5t71.5 0.5q121 0 178.5 -63t57.5 -167zM464 440q0 172 -160 172q-41 0 -60 -1l-107 -545q33 -3 61 -3q94 0 157 63q59 59 84 152.5t25 161.5zM358 728l-130 90
l29 36l109 -62l134 62l17 -38z" />
    <glyph glyph-name="dcaron" unicode="&#x10f;" horiz-adv-x="544" 
d="M382 0h-66l19 116q-31 -54 -77 -89t-97 -35q-59 0 -90.5 45t-31.5 113q0 44 7.5 88.5t27.5 93.5t51 86t83.5 61.5t119.5 24.5l72 -5l41 210h79zM122 165q0 -110 67 -110q49 0 100 66.5t70 167.5l28 145q-36 11 -75 11q-53 0 -93 -30.5t-59.5 -77.5t-28.5 -90.5t-9 -81.5z
M669 736l-88 -171l-43 9l68 176z" />
    <glyph glyph-name="Dcroat" unicode="&#x110;" horiz-adv-x="590" 
d="M563 446q0 -78 -30.5 -180.5t-100.5 -171.5q-96 -96 -242 -96q-27 0 -74.5 1t-63.5 1l61 320h-65l13 63h65l57 292q26 0 72.5 0.5t71.5 0.5q121 0 178.5 -63t57.5 -167zM474 440q0 172 -160 172q-41 0 -60 -1l-45 -228h122l-13 -63h-122l-49 -254q33 -3 61 -3
q94 0 157 63q59 59 84 152.5t25 161.5z" />
    <glyph glyph-name="dcroat" unicode="&#x111;" horiz-adv-x="516" 
d="M382 0h-66l19 116q-31 -54 -77 -89t-97 -35q-59 0 -90.5 45t-31.5 113q0 44 7.5 88.5t27.5 93.5t51 86t83.5 61.5t119.5 24.5l72 -5l15 77h-110l9 49h111l16 84h79l-16 -84h80l-10 -49h-80zM122 165q0 -110 67 -110q49 0 100 66.5t70 167.5l28 145q-36 11 -75 11
q-53 0 -93 -30.5t-59.5 -77.5t-28.5 -90.5t-9 -81.5z" />
    <glyph glyph-name="Emacron" unicode="&#x112;" horiz-adv-x="472" 
d="M366 0h-324l131 675h320l-13 -66h-237l-44 -226h195l-12 -63h-196l-48 -254h240zM480 751h-270l10 56h270z" />
    <glyph glyph-name="emacron" unicode="&#x113;" horiz-adv-x="475" 
d="M366 85l7 -50q-82 -43 -169 -43q-165 0 -165 165q0 29 5 66.5t22.5 89t44 92.5t76 70t112.5 29q64 0 102 -30.5t38 -80.5q0 -156 -310 -156q-9 -37 -9 -75q0 -108 106 -108q62 0 140 31zM360 387q0 60 -73 60q-54 0 -92 -44t-56 -112q130 0 175.5 24.5t45.5 71.5z
M433 603h-261l11 58h261z" />
    <glyph glyph-name="Ebreve" unicode="&#x114;" horiz-adv-x="472" 
d="M366 0h-324l131 675h320l-13 -66h-237l-44 -226h195l-12 -63h-196l-48 -254h240zM444 854h51q-12 -62 -55 -97t-101 -35q-64 0 -93 36.5t-17 95.5h50q-7 -32 10.5 -53t56.5 -21t65.5 20.5t32.5 53.5z" />
    <glyph glyph-name="ebreve" unicode="&#x115;" horiz-adv-x="475" 
d="M366 85l7 -50q-82 -43 -169 -43q-165 0 -165 165q0 29 5 66.5t22.5 89t44 92.5t76 70t112.5 29q64 0 102 -30.5t38 -80.5q0 -156 -310 -156q-9 -37 -9 -75q0 -108 106 -108q62 0 140 31zM360 387q0 60 -73 60q-54 0 -92 -44t-56 -112q130 0 175.5 24.5t45.5 71.5z
M402 715h51q-11 -69 -52.5 -107t-105.5 -38q-66 0 -94.5 38t-14.5 107h51q-16 -83 65 -83q83 0 100 83z" />
    <glyph glyph-name="Edotaccent" unicode="&#x116;" horiz-adv-x="472" 
d="M366 0h-324l131 675h320l-13 -66h-237l-44 -226h195l-12 -63h-196l-48 -254h240zM340 738q-23 0 -32 6t-9 19q0 31 14 47q11 11 44 11q24 0 32.5 -5.5t8.5 -19.5q0 -33 -14 -47q-13 -11 -44 -11z" />
    <glyph glyph-name="edotaccent" unicode="&#x117;" horiz-adv-x="475" 
d="M366 85l7 -50q-82 -43 -169 -43q-165 0 -165 165q0 29 5 66.5t22.5 89t44 92.5t76 70t112.5 29q64 0 102 -30.5t38 -80.5q0 -156 -310 -156q-9 -37 -9 -75q0 -108 106 -108q62 0 140 31zM360 387q0 60 -73 60q-54 0 -92 -44t-56 -112q130 0 175.5 24.5t45.5 71.5z
M304 597q-25 0 -35.5 5.5t-10.5 19.5q0 10 5 28t11 25q11 11 43 11q45 0 45 -26q0 -10 -4.5 -28t-10.5 -24q-11 -11 -43 -11z" />
    <glyph glyph-name="Eogonek" unicode="&#x118;" horiz-adv-x="472" 
d="M378 66l-12 -66q-40 -25 -64 -53.5t-24 -51.5q0 -24 27 -24q25 0 51 13l9 -39q-38 -23 -83 -23q-74 0 -74 61q0 56 81 117h-247l131 675h320l-13 -66h-237l-44 -226h195l-12 -63h-196l-48 -254h240z" />
    <glyph glyph-name="eogonek" unicode="&#x119;" horiz-adv-x="475" 
d="M366 85l7 -50q-122 -94 -122 -140q0 -24 27 -24q23 0 51 13l9 -39q-38 -23 -84 -23q-74 0 -74 61q0 24 21.5 56t62.5 61q-32 -8 -60 -8q-165 0 -165 165q0 29 5 66.5t22.5 89t44 92.5t76 70t112.5 29q64 0 102 -30.5t38 -80.5q0 -156 -310 -156q-9 -37 -9 -75
q0 -108 106 -108q62 0 140 31zM360 387q0 60 -73 60q-54 0 -92 -44t-56 -112q130 0 175.5 24.5t45.5 71.5z" />
    <glyph glyph-name="Ecaron" unicode="&#x11a;" horiz-adv-x="472" 
d="M366 0h-324l131 675h320l-13 -66h-237l-44 -226h195l-12 -63h-196l-48 -254h240zM341 728l-130 90l29 36l109 -62l134 62l17 -38z" />
    <glyph glyph-name="ecaron" unicode="&#x11b;" horiz-adv-x="475" 
d="M366 85l7 -50q-82 -43 -169 -43q-165 0 -165 165q0 29 5 66.5t22.5 89t44 92.5t76 70t112.5 29q64 0 102 -30.5t38 -80.5q0 -156 -310 -156q-9 -37 -9 -75q0 -108 106 -108q62 0 140 31zM360 387q0 60 -73 60q-54 0 -92 -44t-56 -112q130 0 175.5 24.5t45.5 71.5z
M453 687l-161 -125l-113 127l32 33l94 -83l125 83z" />
    <glyph glyph-name="Gcircumflex" unicode="&#x11c;" horiz-adv-x="572" 
d="M512 367l-59 -301q-97 -74 -210 -74q-89 0 -137.5 55t-48.5 166q0 112 37 218t103 172q78 80 184 80q107 0 168 -82l-42 -38q-57 53 -122 53q-70 0 -124 -55q-55 -54 -86 -151.5t-31 -192.5q0 -157 118 -157q67 0 114 34l42 210h-98l13 63h179zM416 854l129 -90l-29 -36
l-109 61l-134 -61l-17 36z" />
    <glyph glyph-name="gcircumflex" unicode="&#x11d;" horiz-adv-x="516" 
d="M477 488l-95 -487q-20 -101 -74 -140t-145 -39q-79 0 -153 30l13 46q87 -15 140 -15q63 0 95.5 25.5t43.5 87.5l11 56q5 25 21 83q-29 -52 -74 -88t-95 -36q-58 0 -90.5 44t-32.5 117q0 41 8 83.5t28.5 88t51.5 80.5t82.5 57.5t115.5 22.5q33 0 70 -4t58 -8zM125 180
q0 -105 68 -105q48 0 98.5 65t69.5 161l26 133q-36 11 -75 11q-50 0 -88.5 -27t-58.5 -69.5t-30 -85.5t-10 -83zM458 595l-34 -32l-92 83l-126 -83l-23 34l161 125z" />
    <glyph glyph-name="Gbreve" unicode="&#x11e;" horiz-adv-x="572" 
d="M512 367l-59 -301q-97 -74 -210 -74q-89 0 -137.5 55t-48.5 166q0 112 37 218t103 172q78 80 184 80q107 0 168 -82l-42 -38q-57 53 -122 53q-70 0 -124 -55q-55 -54 -86 -151.5t-31 -192.5q0 -157 118 -157q67 0 114 34l42 210h-98l13 63h179zM493 855h51
q-12 -62 -55 -97t-101 -35q-64 0 -93 36.5t-17 95.5h50q-7 -32 10.5 -53t56.5 -21t65.5 20.5t32.5 53.5z" />
    <glyph glyph-name="gbreve" unicode="&#x11f;" horiz-adv-x="516" 
d="M477 488l-95 -487q-20 -101 -74 -140t-145 -39q-79 0 -153 30l13 46q87 -15 140 -15q63 0 95.5 25.5t43.5 87.5l11 56q5 25 21 83q-29 -52 -74 -88t-95 -36q-58 0 -90.5 44t-32.5 117q0 41 8 83.5t28.5 88t51.5 80.5t82.5 57.5t115.5 22.5q33 0 70 -4t58 -8zM125 180
q0 -105 68 -105q48 0 98.5 65t69.5 161l26 133q-36 11 -75 11q-50 0 -88.5 -27t-58.5 -69.5t-30 -85.5t-10 -83zM429 715h51q-11 -69 -52.5 -107t-105.5 -38q-66 0 -94.5 38t-14.5 107h51q-16 -83 65 -83q83 0 100 83z" />
    <glyph glyph-name="Gdotaccent" unicode="&#x120;" horiz-adv-x="572" 
d="M512 367l-59 -301q-97 -74 -210 -74q-89 0 -137.5 55t-48.5 166q0 112 37 218t103 172q78 80 184 80q107 0 168 -82l-42 -38q-57 53 -122 53q-70 0 -124 -55q-55 -54 -86 -151.5t-31 -192.5q0 -157 118 -157q67 0 114 34l42 210h-98l13 63h179zM393 740q-23 0 -32 6
t-9 19q0 31 14 47q11 11 44 11q24 0 32.5 -5.5t8.5 -19.5q0 -33 -14 -47q-13 -11 -44 -11z" />
    <glyph glyph-name="gdotaccent" unicode="&#x121;" horiz-adv-x="516" 
d="M477 488l-95 -487q-20 -101 -74 -140t-145 -39q-79 0 -153 30l13 46q87 -15 140 -15q63 0 95.5 25.5t43.5 87.5l11 56q5 25 21 83q-29 -52 -74 -88t-95 -36q-58 0 -90.5 44t-32.5 117q0 41 8 83.5t28.5 88t51.5 80.5t82.5 57.5t115.5 22.5q33 0 70 -4t58 -8zM125 180
q0 -105 68 -105q48 0 98.5 65t69.5 161l26 133q-36 11 -75 11q-50 0 -88.5 -27t-58.5 -69.5t-30 -85.5t-10 -83zM322 597q-25 0 -35.5 5.5t-10.5 19.5q0 10 5 28t11 25q11 11 43 11q45 0 45 -26q0 -10 -4.5 -28t-10.5 -24q-11 -11 -43 -11z" />
    <glyph glyph-name="Gcommaaccent" unicode="&#x122;" horiz-adv-x="572" 
d="M512 367l-59 -301q-97 -74 -210 -74q-89 0 -137.5 55t-48.5 166q0 112 37 218t103 172q78 80 184 80q107 0 168 -82l-42 -38q-57 53 -122 53q-70 0 -124 -55q-55 -54 -86 -151.5t-31 -192.5q0 -157 118 -157q67 0 114 34l42 210h-98l13 63h179zM231 -38q35 0 35 -31
q0 -74 -120 -109l-10 30q58 25 58 50q0 2 -2 9t-2 16q0 16 10.5 25.5t30.5 9.5z" />
    <glyph glyph-name="gcommaaccent" unicode="&#x123;" horiz-adv-x="516" 
d="M477 488l-95 -487q-20 -101 -74 -140t-145 -39q-79 0 -153 30l13 46q87 -15 140 -15q63 0 95.5 25.5t43.5 87.5l11 56q5 25 21 83q-29 -52 -74 -88t-95 -36q-58 0 -90.5 44t-32.5 117q0 41 8 83.5t28.5 88t51.5 80.5t82.5 57.5t115.5 22.5q33 0 70 -4t58 -8zM125 180
q0 -105 68 -105q48 0 98.5 65t69.5 161l26 133q-36 11 -75 11q-50 0 -88.5 -27t-58.5 -69.5t-30 -85.5t-10 -83zM310 597q0 38 35 72.5t102 45.5l9 -31q-35 -11 -55 -28.5t-20 -31.5q0 -3 2.5 -9t2.5 -15q0 -16 -11 -26t-31 -10q-34 0 -34 33z" />
    <glyph glyph-name="Hcircumflex" unicode="&#x124;" horiz-adv-x="658" 
d="M516 0h-83l62 319h-309l-61 -319h-83l131 675h83l-56 -285h308l56 285h83zM440 854l129 -90l-29 -36l-109 61l-134 -61l-17 36z" />
    <glyph glyph-name="hcircumflex" unicode="&#x125;" horiz-adv-x="537" 
d="M404 0h-79q12 62 27 132t22 103t12 65.5t5 53.5q0 85 -65 85q-51 0 -102.5 -67.5t-69.5 -164.5l-41 -207h-79l138 709h79l-47 -242q-6 -34 -21 -86q29 53 74 88t97 35q117 0 117 -134q0 -34 -7.5 -77t-27 -133t-32.5 -160zM245 885l127 -89l-28 -37l-111 61l-132 -61
l-18 36z" />
    <glyph glyph-name="Hbar" unicode="&#x126;" horiz-adv-x="678" 
d="M526 0h-83l58 296h-309l-57 -296h-83l94 485h-82l11 61h82l26 129h83l-26 -129h309l25 129h83l-25 -129h82l-12 -61h-81zM205 364h309l24 121h-309z" />
    <glyph glyph-name="hbar" unicode="&#x127;" horiz-adv-x="537" 
d="M404 0h-79q12 62 27 132t22 103t12 65t5 52q0 86 -65 86q-51 0 -102.5 -67t-70.5 -165l-40 -206h-79l113 579h-80l11 56h80l15 78h79l-15 -78h143l-11 -56h-143l-22 -113q-10 -46 -22 -86q30 53 75 88t97 35q117 0 117 -134q0 -35 -7.5 -77.5t-27 -131.5t-32.5 -160z" />
    <glyph glyph-name="Itilde" unicode="&#x128;" horiz-adv-x="266" 
d="M125 0h-83l131 675h83zM368 839l36 -25q-28 -44 -52 -62.5t-60 -18.5q-35 0 -71 27.5t-51 27.5q-16 0 -29.5 -11t-37.5 -42l-35 25q27 44 51.5 62.5t60.5 18.5q27 0 49.5 -13.5t39.5 -27.5t32 -14q16 0 29.5 11t37.5 42z" />
    <glyph glyph-name="itilde" unicode="&#x129;" horiz-adv-x="248" 
d="M113 0h-79l96 496h79zM328 687l34 -26q-28 -44 -52 -62.5t-59 -18.5q-27 0 -49.5 14t-39.5 27.5t-32 13.5q-16 0 -29 -10.5t-37 -42.5l-34 26q28 45 51.5 63t58.5 18q27 0 49.5 -13.5t39.5 -27.5t32 -14q16 0 29 10.5t38 42.5z" />
    <glyph glyph-name="Imacron" unicode="&#x12a;" horiz-adv-x="266" 
d="M125 0h-83l131 675h83zM364 751h-270l10 56h270z" />
    <glyph glyph-name="imacron" unicode="&#x12b;" horiz-adv-x="248" 
d="M113 0h-79l96 496h79zM322 603h-261l11 58h261z" />
    <glyph glyph-name="Ibreve" unicode="&#x12c;" horiz-adv-x="266" 
d="M125 0h-83l131 675h83zM329 854h51q-12 -62 -55 -97t-101 -35q-64 0 -93 36.5t-17 95.5h50q-7 -32 10.5 -53t56.5 -21t65.5 20.5t32.5 53.5z" />
    <glyph glyph-name="ibreve" unicode="&#x12d;" horiz-adv-x="248" 
d="M113 0h-79l96 496h79zM294 715h51q-11 -69 -52.5 -107t-105.5 -38q-66 0 -94.5 38t-14.5 107h51q-16 -83 65 -83q83 0 100 83z" />
    <glyph glyph-name="Iogonek" unicode="&#x12e;" horiz-adv-x="266" 
d="M42 0l131 675h83l-131 -675q-39 -21 -65 -50.5t-26 -54.5q0 -24 27 -24q25 0 51 13l9 -39q-37 -23 -83 -23q-74 0 -74 61q0 53 78 117z" />
    <glyph glyph-name="iogonek" unicode="&#x12f;" horiz-adv-x="248" 
d="M209 496l-96 -496q-37 -21 -62 -50.5t-25 -54.5q0 -24 28 -24q22 0 50 14l8 -40q-41 -23 -85 -23q-71 0 -71 56t78 122l96 496h79zM191 592q-46 0 -46 26q0 12 4.5 30t11.5 24q12 12 43 12q45 0 45 -26q0 -12 -4.5 -30t-10.5 -24q-14 -12 -43 -12z" />
    <glyph glyph-name="Idotaccent" unicode="&#x130;" horiz-adv-x="266" 
d="M125 0h-83l131 675h83zM225 738q-23 0 -32 6t-9 19q0 31 14 47q11 11 44 11q24 0 32.5 -5.5t8.5 -19.5q0 -33 -14 -47q-13 -11 -44 -11z" />
    <glyph glyph-name="dotlessi" unicode="&#x131;" horiz-adv-x="248" 
d="M113 0h-79l96 496h79z" />
    <glyph glyph-name="IJ" unicode="&#x132;" horiz-adv-x="540" 
d="M125 0h-83l131 675h83zM529 675l-117 -603q-18 -92 -49.5 -147.5t-92.5 -99.5l-37 37q39 37 59.5 85t35.5 123l118 605h83z" />
    <glyph glyph-name="ij" unicode="&#x133;" horiz-adv-x="495" 
d="M113 0h-79l96 496h79zM191 592q-46 0 -46 26q0 12 4.5 30t11.5 24q12 12 43 12q45 0 45 -26q0 -12 -4.5 -30t-10.5 -24q-14 -12 -43 -12zM457 496l-89 -457q-15 -75 -45 -124t-92 -93l-45 29q80 70 100 171l92 474h79zM439 592q-46 0 -46 26q0 12 4.5 30t11.5 24
q12 12 43 12q45 0 45 -26q0 -12 -4.5 -30t-10.5 -24q-14 -12 -43 -12z" />
    <glyph glyph-name="Jcircumflex" unicode="&#x134;" horiz-adv-x="274" 
d="M263 675l-117 -603q-18 -92 -49.5 -147.5t-92.5 -99.5l-37 37q39 37 59.5 85t35.5 123l118 605h83zM253 854l129 -90l-29 -36l-109 61l-134 -61l-17 36z" />
    <glyph glyph-name="jcircumflex" unicode="&#x135;" horiz-adv-x="248" 
d="M209 496l-89 -457q-15 -75 -45 -124t-92 -93l-45 29q80 70 100 171l92 474h79zM324 595l-34 -32l-92 83l-126 -83l-23 34l161 125z" />
    <glyph glyph-name="Kcommaaccent" unicode="&#x136;" horiz-adv-x="522" 
d="M447 0h-94l-163 333h-1l-64 -333h-83l131 675h83l-59 -301h1l268 301h97l-294 -315zM214 -38q35 0 35 -31q0 -74 -120 -109l-10 30q58 25 58 50q0 2 -2 9t-2 16q0 16 10.5 25.5t30.5 9.5z" />
    <glyph glyph-name="kcommaaccent" unicode="&#x137;" horiz-adv-x="457" 
d="M390 0h-92l-132 259h-3l-50 -259h-79l138 709h79l-82 -419h2l197 206h98l-224 -218zM185 -38q35 0 35 -31q0 -74 -120 -109l-10 30q58 25 58 50q0 2 -2 9t-2 16q0 16 10.5 25.5t30.5 9.5z" />
    <glyph glyph-name="kgreenlandic" unicode="&#x138;" horiz-adv-x="457" 
d="M388 0h-91l-133 249h-3l-48 -249h-79l96 496h79l-42 -216h2l202 216h96l-227 -229z" />
    <glyph glyph-name="Lacute" unicode="&#x139;" horiz-adv-x="421" 
d="M353 0h-311l131 675h83l-118 -608h228zM426 795l-191 -67l-20 40l181 86z" />
    <glyph glyph-name="lacute" unicode="&#x13a;" horiz-adv-x="266" 
d="M191 53l-4 -50q-32 -10 -67 -10q-37 0 -54.5 14t-17.5 49q0 20 7 54l116 599h79l-112 -582q-7 -34 -7 -50q0 -15 6.5 -20.5t23.5 -5.5q14 0 30 2zM412 804l-191 -67l-20 40l181 86z" />
    <glyph glyph-name="Lcommaaccent" unicode="&#x13b;" horiz-adv-x="421" 
d="M353 0h-311l131 675h83l-118 -608h228zM182 -38q35 0 35 -31q0 -74 -120 -109l-10 30q58 25 58 50q0 2 -2 9t-2 16q0 16 10.5 25.5t30.5 9.5z" />
    <glyph glyph-name="lcommaaccent" unicode="&#x13c;" horiz-adv-x="266" 
d="M191 53l-4 -50q-32 -10 -67 -10q-37 0 -54.5 14t-17.5 49q0 20 7 54l116 599h79l-112 -582q-7 -34 -7 -50q0 -15 6.5 -20.5t23.5 -5.5q14 0 30 2zM110 -38q35 0 35 -31q0 -74 -120 -109l-10 30q58 25 58 50q0 2 -2 9t-2 16q0 16 10.5 25.5t30.5 9.5z" />
    <glyph glyph-name="Lcaron" unicode="&#x13d;" horiz-adv-x="421" 
d="M353 0h-311l131 675h83l-118 -608h228zM453 735l-88 -170l-43 9l68 176z" />
    <glyph glyph-name="lcaron" unicode="&#x13e;" horiz-adv-x="291" 
d="M191 53l-4 -50q-32 -10 -67 -10q-37 0 -54.5 14t-17.5 49q0 20 7 54l116 599h79l-112 -582q-7 -34 -7 -50q0 -15 6.5 -20.5t23.5 -5.5q14 0 30 2zM399 736l-88 -171l-43 9l68 176z" />
    <glyph glyph-name="Ldot" unicode="&#x13f;" horiz-adv-x="525" 
d="M353 0h-311l131 675h83l-118 -608h228zM433 286q-25 0 -35 6.5t-10 23.5q0 43 16 59q13 13 45 13q25 0 35.5 -7t10.5 -23q0 -43 -17 -60q-12 -12 -45 -12z" />
    <glyph glyph-name="ldot" unicode="&#x140;" horiz-adv-x="470" 
d="M191 53l-4 -50q-32 -10 -67 -10q-37 0 -54.5 14t-17.5 49q0 20 7 54l116 599h79l-112 -582q-7 -34 -7 -50q0 -15 6.5 -20.5t23.5 -5.5q14 0 30 2zM357 246q-25 0 -35 6.5t-10 23.5q0 43 16 59q13 13 45 13q25 0 35.5 -7t10.5 -23q0 -43 -17 -60q-12 -12 -45 -12z" />
    <glyph glyph-name="Lslash" unicode="&#x141;" horiz-adv-x="430" 
d="M221 454l136 67l-13 -64l-135 -67l-63 -323h228l-12 -67h-312l67 347l-85 -41l12 63l86 42l51 264h83z" />
    <glyph glyph-name="lslash" unicode="&#x142;" horiz-adv-x="277" 
d="M199 53l-3 -50q-32 -10 -67 -10q-37 0 -54.5 14t-17.5 49q0 20 7 54l43 221l-82 -40l13 65l82 41l60 312h79l-52 -269l81 39l-13 -65l-81 -40l-47 -247q-7 -34 -7 -50q0 -15 6.5 -20.5t23.5 -5.5q15 0 29 2z" />
    <glyph glyph-name="Nacute" unicode="&#x143;" horiz-adv-x="646" 
d="M504 0h-75l-152 411l-56 161h-2q-12 -89 -26 -157l-80 -415h-71l131 675h97l135 -366l58 -165h1q15 95 28 163l72 368h71zM603 795l-191 -67l-20 40l181 86z" />
    <glyph glyph-name="nacute" unicode="&#x144;" horiz-adv-x="537" 
d="M326 439q-51 0 -102 -67t-70 -165l-41 -207h-79l96 496h66l-19 -117q32 54 78.5 89.5t98.5 35.5q117 0 117 -134q0 -34 -7.5 -77t-27 -133t-32.5 -160h-79q12 62 27 132t22 103t12 65.5t5 53.5q0 85 -65 85zM495 679l-168 -119l-37 28l150 132z" />
    <glyph glyph-name="Ncommaaccent" unicode="&#x145;" horiz-adv-x="646" 
d="M504 0h-75l-152 411l-56 161h-2q-12 -89 -26 -157l-80 -415h-71l131 675h97l135 -366l58 -165h1q15 95 28 163l72 368h71zM254 -38q35 0 35 -31q0 -74 -120 -109l-10 30q58 25 58 50q0 2 -2 9t-2 16q0 16 10.5 25.5t30.5 9.5z" />
    <glyph glyph-name="ncommaaccent" unicode="&#x146;" horiz-adv-x="537" 
d="M326 439q-51 0 -102 -67t-70 -165l-41 -207h-79l96 496h66l-19 -117q32 54 78.5 89.5t98.5 35.5q117 0 117 -134q0 -34 -7.5 -77t-27 -133t-32.5 -160h-79q12 62 27 132t22 103t12 65.5t5 53.5q0 85 -65 85zM204 -38q35 0 35 -31q0 -74 -120 -109l-10 30q58 25 58 50
q0 2 -2 9t-2 16q0 16 10.5 25.5t30.5 9.5z" />
    <glyph glyph-name="Ncaron" unicode="&#x147;" horiz-adv-x="646" 
d="M504 0h-75l-152 411l-56 161h-2q-12 -89 -26 -157l-80 -415h-71l131 675h97l135 -366l58 -165h1q15 95 28 163l72 368h71zM426 728l-130 90l29 36l109 -62l134 62l17 -38z" />
    <glyph glyph-name="ncaron" unicode="&#x148;" horiz-adv-x="537" 
d="M326 439q-51 0 -102 -67t-70 -165l-41 -207h-79l96 496h66l-19 -117q32 54 78.5 89.5t98.5 35.5q117 0 117 -134q0 -34 -7.5 -77t-27 -133t-32.5 -160h-79q12 62 27 132t22 103t12 65.5t5 53.5q0 85 -65 85zM487 687l-161 -125l-113 127l32 33l94 -83l125 83z" />
    <glyph glyph-name="napostrophe" unicode="&#x149;" horiz-adv-x="592" 
d="M381 439q-51 0 -102 -67t-70 -165l-41 -207h-79l96 496h66l-19 -117q32 54 78.5 89.5t98.5 35.5q117 0 117 -134q0 -34 -7.5 -77t-27 -133t-32.5 -160h-79q12 62 27 132t22 103t12 65.5t5 53.5q0 85 -65 85zM205 741q21 0 29.5 -7.5t8.5 -23.5q0 -51 -33 -102.5
t-106 -88.5l-24 32q82 50 82 94q0 6 -6 15.5t-6 20.5q0 35 15 49q10 11 40 11z" />
    <glyph glyph-name="Eng" unicode="&#x14a;" horiz-adv-x="646" 
d="M636 675l-126 -644q-14 -72 -44 -121t-92 -88l-30 37q62 49 80 141h-4l-145 411l-54 161h-2q-10 -79 -26 -157l-80 -415h-71l131 675h98l135 -373q12 -34 26 -77t22 -69l7 -26h1q15 94 29 169l73 376h72zM504 0h-75l-152 411l-56 161h-2q-12 -89 -26 -157l-80 -415h-71
l131 675h97l135 -366l58 -165h1q15 95 28 163l72 368h71z" />
    <glyph glyph-name="eng" unicode="&#x14b;" horiz-adv-x="537" 
d="M331 24q60 289 60 330q0 85 -65 85q-51 0 -102 -67t-70 -165l-41 -207h-79l96 496h66l-19 -117q32 54 78.5 89.5t98.5 35.5q117 0 117 -134q0 -57 -59 -332q-17 -80 -45.5 -125.5t-91.5 -90.5l-44 29q78 69 100 173z" />
    <glyph glyph-name="Omacron" unicode="&#x14c;" horiz-adv-x="637" 
d="M268 -8q-211 0 -211 220q0 63 12 126.5t38.5 126t65 110.5t97.5 78t129 30q211 0 211 -220q0 -64 -11.5 -127.5t-38.5 -125.5t-65.5 -110t-97 -77.5t-129.5 -30.5zM522 459q0 160 -136 160q-63 0 -112 -42t-75.5 -106.5t-40 -130t-13.5 -124.5q0 -82 33.5 -120.5
t102.5 -38.5q63 0 112 42t75.5 106.5t40 129.5t13.5 124zM549 751h-270l10 56h270z" />
    <glyph glyph-name="omacron" unicode="&#x14d;" horiz-adv-x="522" 
d="M205 -8q-164 0 -164 169q0 40 6.5 82t25.5 90t48 85t79 61.5t113 24.5q164 0 164 -169q0 -40 -6.5 -82t-25.5 -90t-48 -85t-79 -61.5t-113 -24.5zM396 333q0 57 -23.5 83.5t-74.5 26.5q-50 0 -87 -31t-55 -78.5t-26 -90.5t-8 -81q0 -57 24 -83.5t74 -26.5q40 0 72.5 21.5
t51 53t31 71.5t17 73t4.5 62zM456 603h-261l11 58h261z" />
    <glyph glyph-name="Obreve" unicode="&#x14e;" horiz-adv-x="637" 
d="M268 -8q-211 0 -211 220q0 63 12 126.5t38.5 126t65 110.5t97.5 78t129 30q211 0 211 -220q0 -64 -11.5 -127.5t-38.5 -125.5t-65.5 -110t-97 -77.5t-129.5 -30.5zM522 459q0 160 -136 160q-63 0 -112 -42t-75.5 -106.5t-40 -130t-13.5 -124.5q0 -82 33.5 -120.5
t102.5 -38.5q63 0 112 42t75.5 106.5t40 129.5t13.5 124zM517 854h51q-12 -62 -55 -97t-101 -35q-64 0 -93 36.5t-17 95.5h50q-7 -32 10.5 -53t56.5 -21t65.5 20.5t32.5 53.5z" />
    <glyph glyph-name="obreve" unicode="&#x14f;" horiz-adv-x="522" 
d="M205 -8q-164 0 -164 169q0 40 6.5 82t25.5 90t48 85t79 61.5t113 24.5q164 0 164 -169q0 -40 -6.5 -82t-25.5 -90t-48 -85t-79 -61.5t-113 -24.5zM396 333q0 57 -23.5 83.5t-74.5 26.5q-50 0 -87 -31t-55 -78.5t-26 -90.5t-8 -81q0 -57 24 -83.5t74 -26.5q40 0 72.5 21.5
t51 53t31 71.5t17 73t4.5 62zM427 715h51q-11 -69 -52.5 -107t-105.5 -38q-66 0 -94.5 38t-14.5 107h51q-16 -83 65 -83q83 0 100 83z" />
    <glyph glyph-name="Ohungarumlaut" unicode="&#x150;" horiz-adv-x="637" 
d="M268 -8q-211 0 -211 220q0 63 12 126.5t38.5 126t65 110.5t97.5 78t129 30q211 0 211 -220q0 -64 -11.5 -127.5t-38.5 -125.5t-65.5 -110t-97 -77.5t-129.5 -30.5zM522 459q0 160 -136 160q-63 0 -112 -42t-75.5 -106.5t-40 -130t-13.5 -124.5q0 -82 33.5 -120.5
t102.5 -38.5q63 0 112 42t75.5 106.5t40 129.5t13.5 124zM690 810l-190 -87l-26 29l178 104zM494 821l-179 -100l-29 27l164 115z" />
    <glyph glyph-name="ohungarumlaut" unicode="&#x151;" horiz-adv-x="522" 
d="M205 -8q-164 0 -164 169q0 40 6.5 82t25.5 90t48 85t79 61.5t113 24.5q164 0 164 -169q0 -40 -6.5 -82t-25.5 -90t-48 -85t-79 -61.5t-113 -24.5zM396 333q0 57 -23.5 83.5t-74.5 26.5q-50 0 -87 -31t-55 -78.5t-26 -90.5t-8 -81q0 -57 24 -83.5t74 -26.5q40 0 72.5 21.5
t51 53t31 71.5t17 73t4.5 62zM567 677l-164 -117l-38 27l149 131zM385 683l-156 -126l-38 27l140 138z" />
    <glyph glyph-name="OE" unicode="&#x152;" horiz-adv-x="768" 
d="M789 675l-13 -66h-237l-44 -226h196l-13 -63h-196l-49 -254h241l-12 -66h-307q-41 -8 -86 -8q-212 0 -212 220q0 63 12 126.5t38.5 126t65 110.5t97.5 78t129 30q51 0 86 -8h304zM350 65l105 540q-30 14 -69 14q-63 0 -112 -42t-75.5 -106.5t-40 -130t-13.5 -124.5
q0 -159 136 -159q37 0 69 8z" />
    <glyph glyph-name="oe" unicode="&#x153;" horiz-adv-x="811" 
d="M774 393q0 -156 -310 -156q-8 -40 -8 -75q0 -108 105 -108q63 0 140 31l8 -50q-84 -43 -170 -43q-119 0 -143 99q-70 -99 -191 -99q-164 0 -164 169q0 40 6.5 82t25.5 90t48 85t79 61.5t113 24.5q117 0 142 -102q67 102 180 102q63 0 101 -30.5t38 -80.5zM696 387
q0 60 -74 60q-53 0 -91.5 -44t-55.5 -112q130 0 175.5 24.5t45.5 71.5zM396 333q0 57 -23.5 83.5t-74.5 26.5q-50 0 -87 -31t-55 -78.5t-26 -90.5t-8 -81q0 -57 24 -83.5t74 -26.5q40 0 72.5 21.5t51 53t31 71.5t17 73t4.5 62z" />
    <glyph glyph-name="Racute" unicode="&#x154;" horiz-adv-x="541" 
d="M476 0h-97l-138 297h-58l-58 -297h-83l131 675q96 2 158 2q208 0 208 -148q0 -79 -54.5 -144t-160.5 -75zM450 522q0 91 -135 91h-72l-48 -252h79q49 0 85 15.5t55 40.5t27.5 51.5t8.5 53.5zM517 795l-191 -67l-20 40l181 86z" />
    <glyph glyph-name="racute" unicode="&#x155;" horiz-adv-x="349" 
d="M368 493l-19 -74q-23 7 -40 7q-39 0 -87.5 -58.5t-68.5 -162.5l-40 -205h-79l96 496h65l-18 -121q30 55 70 91.5t82 36.5q20 0 39 -10zM421 679l-168 -119l-37 28l150 132z" />
    <glyph glyph-name="Rcommaaccent" unicode="&#x156;" horiz-adv-x="541" 
d="M476 0h-97l-138 297h-58l-58 -297h-83l131 675q96 2 158 2q208 0 208 -148q0 -79 -54.5 -144t-160.5 -75zM450 522q0 91 -135 91h-72l-48 -252h79q49 0 85 15.5t55 40.5t27.5 51.5t8.5 53.5zM220 -38q35 0 35 -31q0 -74 -120 -109l-10 30q58 25 58 50q0 2 -2 9t-2 16
q0 16 10.5 25.5t30.5 9.5z" />
    <glyph glyph-name="rcommaaccent" unicode="&#x157;" horiz-adv-x="349" 
d="M368 493l-19 -74q-23 7 -40 7q-39 0 -87.5 -58.5t-68.5 -162.5l-40 -205h-79l96 496h65l-18 -121q30 55 70 91.5t82 36.5q20 0 39 -10zM65 -38q35 0 35 -31q0 -74 -120 -109l-10 30q58 25 58 50q0 2 -2 9t-2 16q0 16 10.5 25.5t30.5 9.5z" />
    <glyph glyph-name="Rcaron" unicode="&#x158;" horiz-adv-x="541" 
d="M476 0h-97l-138 297h-58l-58 -297h-83l131 675q96 2 158 2q208 0 208 -148q0 -79 -54.5 -144t-160.5 -75zM450 522q0 91 -135 91h-72l-48 -252h79q49 0 85 15.5t55 40.5t27.5 51.5t8.5 53.5zM352 728l-130 90l29 36l109 -62l134 62l17 -38z" />
    <glyph glyph-name="rcaron" unicode="&#x159;" horiz-adv-x="349" 
d="M368 493l-19 -74q-23 7 -40 7q-39 0 -87.5 -58.5t-68.5 -162.5l-40 -205h-79l96 496h65l-18 -121q30 55 70 91.5t82 36.5q20 0 39 -10zM419 687l-161 -125l-113 127l32 33l94 -83l125 83z" />
    <glyph glyph-name="Sacute" unicode="&#x15a;" horiz-adv-x="495" 
d="M190 -8q-102 0 -179 56l27 46q81 -38 146 -38q74 0 119.5 38t45.5 100q0 36 -25 64t-61 47.5t-72.5 41t-61.5 56.5t-25 81q0 86 63 142.5t163 56.5q93 0 156 -46l-26 -46q-58 29 -125 29q-66 0 -104.5 -34.5t-38.5 -86.5q0 -36 26 -63.5t62.5 -47.5t73 -41.5t62.5 -57
t26 -82.5q0 -93 -70.5 -154t-181.5 -61zM518 795l-191 -67l-20 40l181 86z" />
    <glyph glyph-name="sacute" unicode="&#x15b;" horiz-adv-x="401" 
d="M136 -8q-82 0 -139 35l16 45q66 -21 117 -21q55 0 88.5 24.5t33.5 69.5q0 26 -19.5 44.5t-47.5 30.5t-55.5 26t-47 39.5t-19.5 62.5q0 66 49 111t135 45q65 0 117 -29l-18 -44q-48 15 -91 15q-48 0 -78 -22.5t-30 -63.5q0 -25 19.5 -42.5t48 -29.5t56.5 -26t47.5 -40.5
t19.5 -64.5q0 -73 -55.5 -119t-146.5 -46zM427 679l-168 -119l-37 28l150 132z" />
    <glyph glyph-name="Scircumflex" unicode="&#x15c;" horiz-adv-x="495" 
d="M190 -8q-102 0 -179 56l27 46q81 -38 146 -38q74 0 119.5 38t45.5 100q0 36 -25 64t-61 47.5t-72.5 41t-61.5 56.5t-25 81q0 86 63 142.5t163 56.5q93 0 156 -46l-26 -46q-58 29 -125 29q-66 0 -104.5 -34.5t-38.5 -86.5q0 -36 26 -63.5t62.5 -47.5t73 -41.5t62.5 -57
t26 -82.5q0 -93 -70.5 -154t-181.5 -61zM367 854l129 -90l-29 -36l-109 61l-134 -61l-17 36z" />
    <glyph glyph-name="scircumflex" unicode="&#x15d;" horiz-adv-x="401" 
d="M136 -8q-82 0 -139 35l16 45q66 -21 117 -21q55 0 88.5 24.5t33.5 69.5q0 26 -19.5 44.5t-47.5 30.5t-55.5 26t-47 39.5t-19.5 62.5q0 66 49 111t135 45q65 0 117 -29l-18 -44q-48 15 -91 15q-48 0 -78 -22.5t-30 -63.5q0 -25 19.5 -42.5t48 -29.5t56.5 -26t47.5 -40.5
t19.5 -64.5q0 -73 -55.5 -119t-146.5 -46zM401 595l-34 -32l-92 83l-126 -83l-23 34l161 125z" />
    <glyph glyph-name="Scedilla" unicode="&#x15e;" horiz-adv-x="495" 
d="M190 -8q-102 0 -179 56l27 46q81 -38 146 -38q74 0 119.5 38t45.5 100q0 36 -25 64t-61 47.5t-72.5 41t-61.5 56.5t-25 81q0 86 63 142.5t163 56.5q93 0 156 -46l-26 -46q-58 29 -125 29q-66 0 -104.5 -34.5t-38.5 -86.5q0 -36 26 -63.5t62.5 -47.5t73 -41.5t62.5 -57
t26 -82.5q0 -93 -70.5 -154t-181.5 -61zM146 -43h70q-3 -80 -93 -136l-41 25q34 27 48 50.5t16 60.5z" />
    <glyph glyph-name="scedilla" unicode="&#x15f;" horiz-adv-x="401" 
d="M136 -8q-82 0 -139 35l16 45q66 -21 117 -21q55 0 88.5 24.5t33.5 69.5q0 26 -19.5 44.5t-47.5 30.5t-55.5 26t-47 39.5t-19.5 62.5q0 66 49 111t135 45q65 0 117 -29l-18 -44q-48 15 -91 15q-48 0 -78 -22.5t-30 -63.5q0 -25 19.5 -42.5t48 -29.5t56.5 -26t47.5 -40.5
t19.5 -64.5q0 -73 -55.5 -119t-146.5 -46zM95 -43h70q-3 -80 -93 -136l-41 25q34 27 48 50.5t16 60.5z" />
    <glyph glyph-name="Scaron" unicode="&#x160;" horiz-adv-x="495" 
d="M190 -8q-102 0 -179 56l27 46q81 -38 146 -38q74 0 119.5 38t45.5 100q0 36 -25 64t-61 47.5t-72.5 41t-61.5 56.5t-25 81q0 86 63 142.5t163 56.5q93 0 156 -46l-26 -46q-58 29 -125 29q-66 0 -104.5 -34.5t-38.5 -86.5q0 -36 26 -63.5t62.5 -47.5t73 -41.5t62.5 -57
t26 -82.5q0 -93 -70.5 -154t-181.5 -61zM337 728l-130 90l29 36l109 -62l134 62l17 -38z" />
    <glyph glyph-name="scaron" unicode="&#x161;" horiz-adv-x="401" 
d="M136 -8q-82 0 -139 35l16 45q66 -21 117 -21q55 0 88.5 24.5t33.5 69.5q0 26 -19.5 44.5t-47.5 30.5t-55.5 26t-47 39.5t-19.5 62.5q0 66 49 111t135 45q65 0 117 -29l-18 -44q-48 15 -91 15q-48 0 -78 -22.5t-30 -63.5q0 -25 19.5 -42.5t48 -29.5t56.5 -26t47.5 -40.5
t19.5 -64.5q0 -73 -55.5 -119t-146.5 -46zM418 687l-161 -125l-113 127l32 33l94 -83l125 83z" />
    <glyph glyph-name="uni0162" unicode="&#x162;" horiz-adv-x="466" 
d="M518 609h-176l-118 -609h-83l118 609h-175l13 66h434zM172 -38q35 0 35 -31q0 -74 -120 -109l-10 30q58 25 58 50q0 2 -2 9t-2 16q0 16 10.5 25.5t30.5 9.5z" />
    <glyph glyph-name="uni0163" unicode="&#x163;" horiz-adv-x="347" 
d="M272 69l4 -48q-61 -29 -113 -29q-51 0 -75 20t-24 64q0 27 6 59l60 303h-80l12 58h80q28 71 49 141h56l-27 -141h134l-11 -58h-135l-56 -287q-7 -36 -7 -56q0 -22 11 -32t37 -10q30 0 79 16zM144 -38q35 0 35 -31q0 -74 -120 -109l-10 30q58 25 58 50q0 2 -2 9t-2 16
q0 16 10.5 25.5t30.5 9.5z" />
    <glyph glyph-name="Tcaron" unicode="&#x164;" horiz-adv-x="466" 
d="M518 609h-176l-118 -609h-83l118 609h-175l13 66h434zM323 728l-130 90l29 36l109 -62l134 62l17 -38z" />
    <glyph glyph-name="tcaron" unicode="&#x165;" horiz-adv-x="364" 
d="M272 69l4 -48q-61 -29 -113 -29q-51 0 -75 20t-24 64q0 27 6 59l60 303h-80l12 58h80q28 71 49 141h56l-27 -141h134l-11 -58h-135l-56 -287q-7 -36 -7 -56q0 -22 11 -32t37 -10q30 0 79 16zM426 736l-88 -171l-43 9l68 176z" />
    <glyph glyph-name="Tbar" unicode="&#x166;" horiz-adv-x="466" 
d="M518 609h-176l-48 -245h118l-11 -60h-118l-59 -304h-83l59 304h-117l11 60h117l48 245h-175l13 66h434z" />
    <glyph glyph-name="tbar" unicode="&#x167;" horiz-adv-x="347" 
d="M272 69l4 -48q-61 -29 -113 -29q-51 0 -75 20t-24 64q0 27 6 59l20 99h-63l10 57h64l29 147h-80l12 58h80q28 71 49 141h56l-27 -141h134l-11 -58h-135l-28 -147h119l-11 -57h-119l-17 -83q-7 -36 -7 -56q0 -22 11 -32t37 -10q30 0 79 16z" />
    <glyph glyph-name="Utilde" unicode="&#x168;" horiz-adv-x="652" 
d="M643 675l-85 -433q-48 -250 -285 -250q-98 0 -146.5 40.5t-48.5 126.5q0 39 8 83l85 433h83l-83 -426q-9 -48 -9 -79q0 -61 30.5 -88t95.5 -27q75 0 122 42.5t66 143.5l85 434h82zM561 839l36 -25q-28 -44 -52 -62.5t-60 -18.5q-35 0 -71 27.5t-51 27.5q-16 0 -29.5 -11
t-37.5 -42l-35 25q27 44 51.5 62.5t60.5 18.5q27 0 49.5 -13.5t39.5 -27.5t32 -14q16 0 29.5 11t37.5 42z" />
    <glyph glyph-name="utilde" unicode="&#x169;" horiz-adv-x="537" 
d="M499 496l-96 -496h-66l19 116q-32 -54 -78 -89t-99 -35q-117 0 -117 133q0 35 7.5 78t27 132.5t32.5 160.5h79q-12 -62 -26.5 -132t-21.5 -103.5t-12 -66t-5 -52.5q0 -86 64 -86q51 0 102 67t71 166l40 207h79zM470 687l34 -26q-28 -44 -52 -62.5t-59 -18.5
q-27 0 -49.5 14t-39.5 27.5t-32 13.5q-16 0 -29 -10.5t-37 -42.5l-34 26q28 45 51.5 63t58.5 18q27 0 49.5 -13.5t39.5 -27.5t32 -14q16 0 29 10.5t38 42.5z" />
    <glyph glyph-name="Umacron" unicode="&#x16a;" horiz-adv-x="652" 
d="M643 675l-85 -433q-48 -250 -285 -250q-98 0 -146.5 40.5t-48.5 126.5q0 39 8 83l85 433h83l-83 -426q-9 -48 -9 -79q0 -61 30.5 -88t95.5 -27q75 0 122 42.5t66 143.5l85 434h82zM557 751h-270l10 56h270z" />
    <glyph glyph-name="umacron" unicode="&#x16b;" horiz-adv-x="537" 
d="M499 496l-96 -496h-66l19 116q-32 -54 -78 -89t-99 -35q-117 0 -117 133q0 35 7.5 78t27 132.5t32.5 160.5h79q-12 -62 -26.5 -132t-21.5 -103.5t-12 -66t-5 -52.5q0 -86 64 -86q51 0 102 67t71 166l40 207h79zM462 603h-261l11 58h261z" />
    <glyph glyph-name="Ubreve" unicode="&#x16c;" horiz-adv-x="652" 
d="M643 675l-85 -433q-48 -250 -285 -250q-98 0 -146.5 40.5t-48.5 126.5q0 39 8 83l85 433h83l-83 -426q-9 -48 -9 -79q0 -61 30.5 -88t95.5 -27q75 0 122 42.5t66 143.5l85 434h82zM524 854h51q-12 -62 -55 -97t-101 -35q-64 0 -93 36.5t-17 95.5h50q-7 -32 10.5 -53
t56.5 -21t65.5 20.5t32.5 53.5z" />
    <glyph glyph-name="ubreve" unicode="&#x16d;" horiz-adv-x="537" 
d="M499 496l-96 -496h-66l19 116q-32 -54 -78 -89t-99 -35q-117 0 -117 133q0 35 7.5 78t27 132.5t32.5 160.5h79q-12 -62 -26.5 -132t-21.5 -103.5t-12 -66t-5 -52.5q0 -86 64 -86q51 0 102 67t71 166l40 207h79zM432 715h51q-11 -69 -52.5 -107t-105.5 -38q-66 0 -94.5 38
t-14.5 107h51q-16 -83 65 -83q83 0 100 83z" />
    <glyph glyph-name="Uring" unicode="&#x16e;" horiz-adv-x="652" 
d="M643 675l-85 -433q-48 -250 -285 -250q-98 0 -146.5 40.5t-48.5 126.5q0 39 8 83l85 433h83l-83 -426q-9 -48 -9 -79q0 -61 30.5 -88t95.5 -27q75 0 122 42.5t66 143.5l85 434h82zM409 692q-85 0 -85 61q0 42 29.5 71.5t85.5 29.5q86 0 86 -61q0 -42 -30 -71.5t-86 -29.5
zM469 789q0 26 -38 26q-52 0 -52 -57q0 -27 37 -27q53 0 53 58z" />
    <glyph glyph-name="uring" unicode="&#x16f;" horiz-adv-x="537" 
d="M499 496l-96 -496h-66l19 116q-32 -54 -78 -89t-99 -35q-117 0 -117 133q0 35 7.5 78t27 132.5t32.5 160.5h79q-12 -62 -26.5 -132t-21.5 -103.5t-12 -66t-5 -52.5q0 -86 64 -86q51 0 102 67t71 166l40 207h79zM326 547q-88 0 -88 67q0 44 29.5 76.5t89.5 32.5
q88 0 88 -67q0 -44 -29.5 -76.5t-89.5 -32.5zM387 652q0 28 -38 28q-29 0 -41 -18t-12 -43q0 -29 37 -29q54 0 54 62z" />
    <glyph glyph-name="Uhungarumlaut" unicode="&#x170;" horiz-adv-x="652" 
d="M643 675l-85 -433q-48 -250 -285 -250q-98 0 -146.5 40.5t-48.5 126.5q0 39 8 83l85 433h83l-83 -426q-9 -48 -9 -79q0 -61 30.5 -88t95.5 -27q75 0 122 42.5t66 143.5l85 434h82zM694 810l-190 -87l-26 29l178 104zM498 821l-179 -100l-29 27l164 115z" />
    <glyph glyph-name="uhungarumlaut" unicode="&#x171;" horiz-adv-x="537" 
d="M499 496l-96 -496h-66l19 116q-32 -54 -78 -89t-99 -35q-117 0 -117 133q0 35 7.5 78t27 132.5t32.5 160.5h79q-12 -62 -26.5 -132t-21.5 -103.5t-12 -66t-5 -52.5q0 -86 64 -86q51 0 102 67t71 166l40 207h79zM580 677l-164 -117l-38 27l149 131zM398 683l-156 -126
l-38 27l140 138z" />
    <glyph glyph-name="Uogonek" unicode="&#x172;" horiz-adv-x="652" 
d="M643 675l-85 -433q-22 -116 -81 -175q-21 -21 -63.5 -55t-60.5 -52q-37 -37 -37 -65q0 -24 27 -24q25 0 51 13l9 -39q-37 -23 -83 -23q-74 0 -74 61q0 56 82 115q-24 -6 -55 -6q-98 0 -146.5 40.5t-48.5 126.5q0 39 8 83l85 433h83l-83 -426q-9 -48 -9 -79
q0 -61 30.5 -88t95.5 -27q76 0 122.5 42.5t65.5 143.5l85 434h82z" />
    <glyph glyph-name="uogonek" unicode="&#x173;" horiz-adv-x="537" 
d="M499 496l-96 -496q-83 -63 -83 -105q0 -24 27 -24q25 0 51 13l9 -39q-37 -23 -83 -23q-74 0 -74 61q0 54 88 124l18 109q-32 -54 -78 -89t-99 -35q-117 0 -117 133q0 35 7.5 78t27 132.5t32.5 160.5h79q-12 -62 -26.5 -132t-21.5 -103.5t-12 -66t-5 -52.5q0 -86 64 -86
q51 0 102 67t71 166l40 207h79z" />
    <glyph glyph-name="Wcircumflex" unicode="&#x174;" horiz-adv-x="851" 
d="M826 675h84q-157 -373 -312 -675h-88l-29 439l-2 95h-1l-40 -98l-188 -436h-95q-41 308 -51 675h87q3 -190 35 -570h1l26 69l218 501h76l30 -491l2 -79h2q149 326 245 570zM541 854l129 -90l-29 -36l-109 61l-134 -61l-17 36z" />
    <glyph glyph-name="wcircumflex" unicode="&#x175;" horiz-adv-x="730" 
d="M665 496h81q-89 -238 -239 -496h-84l-32 333l-2 64h-1l-26 -65l-149 -332h-92l-51 496h84l28 -316l5 -92h2l31 78l146 330h86l31 -339l3 -69h2q108 211 177 408zM561 595l-34 -32l-92 83l-126 -83l-23 34l161 125z" />
    <glyph glyph-name="Ycircumflex" unicode="&#x176;" horiz-adv-x="483" 
d="M475 675h90q-156 -243 -275 -381l-57 -294h-83l57 294q-74 167 -127 381h90q47 -190 97 -307h1q93 114 207 307zM353 854l129 -90l-29 -36l-109 61l-134 -61l-17 36z" />
    <glyph glyph-name="ycircumflex" unicode="&#x177;" horiz-adv-x="461" 
d="M393 496h87q-271 -673 -493 -673q-34 0 -64 14l9 48q13 -3 41 -3q61 0 108 47q45 45 45 106q0 46 -10 119l-51 342h83l40 -284q15 -98 0 -161h2q48 79 105.5 204.5t97.5 240.5zM429 595l-34 -32l-92 83l-126 -83l-23 34l161 125z" />
    <glyph glyph-name="Ydieresis" unicode="&#x178;" horiz-adv-x="483" 
d="M475 675h90q-156 -243 -275 -381l-57 -294h-83l57 294q-74 167 -127 381h90q47 -190 97 -307h1q93 114 207 307zM485 792q0 -31 -12 -43q-10 -11 -38 -11q-21 0 -30 6t-9 21q0 29 12 43q12 11 39 11q21 0 29.5 -5.5t8.5 -21.5zM286 792q0 -31 -12 -43q-10 -11 -38 -11
q-21 0 -29.5 5.5t-8.5 21.5q0 31 12 43q11 11 38 11q21 0 29.5 -5.5t8.5 -21.5z" />
    <glyph glyph-name="Zacute" unicode="&#x179;" horiz-adv-x="486" 
d="M396 0h-407l11 57l399 551h-277l15 67h378l-11 -55l-399 -552h306zM510 795l-191 -67l-20 40l181 86z" />
    <glyph glyph-name="zacute" unicode="&#x17a;" horiz-adv-x="400" 
d="M318 62l-14 -62h-312l9 51l282 384h-197l14 61h290l-9 -50l-282 -384h219zM434 679l-168 -119l-37 28l150 132z" />
    <glyph glyph-name="Zdotaccent" unicode="&#x17b;" horiz-adv-x="486" 
d="M396 0h-407l11 57l399 551h-277l15 67h378l-11 -55l-399 -552h306zM335 738q-23 0 -32 6t-9 19q0 31 14 47q11 11 44 11q24 0 32.5 -5.5t8.5 -19.5q0 -33 -14 -47q-13 -11 -44 -11z" />
    <glyph glyph-name="zdotaccent" unicode="&#x17c;" horiz-adv-x="400" 
d="M318 62l-14 -62h-312l9 51l282 384h-197l14 61h290l-9 -50l-282 -384h219zM265 595q-25 0 -35.5 5.5t-10.5 19.5q0 10 5 28t11 25q11 11 43 11q45 0 45 -26q0 -10 -4.5 -28t-10.5 -24q-11 -11 -43 -11z" />
    <glyph glyph-name="Zcaron" unicode="&#x17d;" horiz-adv-x="486" 
d="M396 0h-407l11 57l399 551h-277l15 67h378l-11 -55l-399 -552h306zM336 728l-130 90l29 36l109 -62l134 62l17 -38z" />
    <glyph glyph-name="zcaron" unicode="&#x17e;" horiz-adv-x="400" 
d="M318 62l-14 -62h-312l9 51l282 384h-197l14 61h290l-9 -50l-282 -384h219zM418 687l-161 -125l-113 127l32 33l94 -83l125 83z" />
    <glyph glyph-name="longs" unicode="&#x17f;" horiz-adv-x="260" 
d="M225 576l-118 -609q-29 -145 -152 -145q-57 0 -101 29l21 46q36 -16 65 -16q71 0 87 83l118 612q28 141 143 141q56 0 97 -24l-21 -49q-28 14 -59 14q-64 0 -80 -82z" />
    <glyph glyph-name="florin" unicode="&#x192;" 
d="M529 652l-20 -46q-37 17 -71 17q-70 0 -94 -85l-43 -167h156l-11 -55h-157l-72 -282q-36 -145 -159 -145q-60 0 -103 30l20 46q42 -17 69 -17q72 0 94 86l73 282h-139l11 55h140l42 166q37 145 161 145q58 0 103 -30z" />
    <glyph glyph-name="Gcaron" unicode="&#x1e6;" horiz-adv-x="572" 
d="M512 367l-59 -301q-97 -74 -210 -74q-89 0 -137.5 55t-48.5 166q0 112 37 218t103 172q78 80 184 80q107 0 168 -82l-42 -38q-57 53 -122 53q-70 0 -124 -55q-55 -54 -86 -151.5t-31 -192.5q0 -157 118 -157q67 0 114 34l42 210h-98l13 63h179zM392 728l-130 90l29 36
l109 -62l134 62l17 -38z" />
    <glyph glyph-name="gcaron" unicode="&#x1e7;" horiz-adv-x="516" 
d="M477 488l-95 -487q-20 -101 -74 -140t-145 -39q-79 0 -153 30l13 46q87 -15 140 -15q63 0 95.5 25.5t43.5 87.5l11 56q5 25 21 83q-29 -52 -74 -88t-95 -36q-58 0 -90.5 44t-32.5 117q0 41 8 83.5t28.5 88t51.5 80.5t82.5 57.5t115.5 22.5q33 0 70 -4t58 -8zM125 180
q0 -105 68 -105q48 0 98.5 65t69.5 161l26 133q-36 11 -75 11q-50 0 -88.5 -27t-58.5 -69.5t-30 -85.5t-10 -83zM472 687l-161 -125l-113 127l32 33l94 -83l125 83z" />
    <glyph glyph-name="Aringacute" unicode="&#x1fa;" horiz-adv-x="531" 
d="M464 0h-87q-3 57 -10 147h-253q-25 -55 -62 -147h-85q147 339 326 675h102q51 -348 69 -675zM141 211h225q-18 217 -41 384h-2q-114 -229 -182 -384zM319 845l150 40l13 -38l-155 -28zM351 691q-86 0 -86 51q0 28 27 44t71 16q86 0 86 -51q0 -28 -27 -44t-71 -16z
M395 748q0 25 -36 25q-41 0 -41 -28q0 -25 37 -25q40 0 40 28z" />
    <glyph glyph-name="aringacute" unicode="&#x1fb;" horiz-adv-x="516" 
d="M39 150q0 44 7.5 88.5t27.5 93.5t51 86t83.5 61.5t119.5 24.5q32 0 69.5 -4t58.5 -8l21 -4l-95 -488h-66l19 120q-30 -56 -76.5 -92t-97.5 -36q-59 0 -90.5 45t-31.5 113zM122 165q0 -110 67 -110q49 0 100 66.5t70 167.5l28 145q-36 11 -75 11q-53 0 -93 -30.5
t-59.5 -77.5t-28.5 -90.5t-9 -81.5zM317 778l119 107l53 -37l-136 -94zM311 548q-84 0 -84 65q0 38 30 67.5t84 29.5q84 0 84 -65q0 -39 -29.5 -68t-84.5 -29zM371 641q0 30 -36 30q-28 0 -41 -16t-13 -38q0 -30 35 -30q29 0 42 16t13 38z" />
    <glyph glyph-name="AEacute" unicode="&#x1fc;" horiz-adv-x="714" 
d="M608 0h-242h-83l28 147h-201q-42 -67 -85 -147h-88q223 374 433 675h365l-14 -66h-237l-43 -226h195l-12 -63h-196l-50 -254h242zM324 211l77 398h-1q-117 -171 -253 -398h177zM719 795l-191 -67l-20 40l181 86z" />
    <glyph glyph-name="aeacute" unicode="&#x1fd;" horiz-adv-x="751" 
d="M642 85l7 -50q-82 -43 -169 -43q-136 0 -155 116q-40 -58 -91 -87t-101 -29q-60 0 -89.5 32t-29.5 78q0 20 4 38.5t14 41t30.5 41t49.5 34.5t75 25t104 9h46l10 52q10 53 -10.5 77t-78.5 24q-63 0 -148 -29l-5 51q98 38 177 38q114 0 131 -77q63 77 162 77
q64 0 102 -30.5t38 -80.5q0 -156 -310 -156q-9 -37 -9 -75q0 -108 106 -108q62 0 140 31zM636 387q0 60 -73 60q-54 0 -92 -44t-56 -112q130 0 175.5 24.5t45.5 71.5zM327 238h-49q-61 0 -101 -13t-56.5 -36t-21.5 -41t-5 -41q0 -57 62 -57q58 0 106.5 52.5t61.5 119.5z
M611 679l-168 -119l-37 28l150 132z" />
    <glyph glyph-name="Oslashacute" unicode="&#x1fe;" horiz-adv-x="637" 
d="M268 -8q-90 0 -140 43l-85 -108l-44 28l91 117q-33 52 -33 140q0 63 12 126.5t39 126t65.5 110.5t97 78t128.5 30q90 0 140 -43l85 108l44 -28l-91 -117q33 -52 33 -140q0 -63 -11.5 -126.5t-38 -126t-65 -110.5t-97.5 -78t-130 -30zM386 622q-64 0 -114 -41
t-77.5 -103.5t-41.5 -126t-14 -119.5q0 -59 14 -84l339 433q-35 41 -106 41zM281 53q64 0 114 41t77.5 103.5t41.5 126t14 119.5q0 58 -13 84l-340 -433q35 -41 106 -41zM583 800l-191 -67l-20 40l181 86z" />
    <glyph glyph-name="oslashacute" unicode="&#x1ff;" horiz-adv-x="522" 
d="M477 335q0 -40 -6.5 -82t-25.5 -90t-48 -85t-79 -61.5t-113 -24.5q-57 0 -94 23l-68 -88l-43 29l71 92q-30 39 -30 113q0 40 6.5 82t25.5 90t48 85t79 61.5t113 24.5q56 0 95 -24l69 89l43 -29l-72 -93q29 -40 29 -112zM398 316q0 33 -11 58l-233 -306q23 -19 67 -19
q49 0 86 29t55.5 73.5t27 86t8.5 78.5zM119 178q0 -36 12 -59l234 307q-24 21 -68 21q-50 0 -87.5 -29.5t-55.5 -75t-26.5 -87t-8.5 -77.5zM482 679l-168 -119l-37 28l150 132z" />
    <glyph glyph-name="Scommaaccent" unicode="&#x218;" horiz-adv-x="495" 
d="M190 -8q-102 0 -179 56l27 46q81 -38 146 -38q74 0 119.5 38t45.5 100q0 36 -25 64t-61 47.5t-72.5 41t-61.5 56.5t-25 81q0 86 63 142.5t163 56.5q93 0 156 -46l-26 -46q-58 29 -125 29q-66 0 -104.5 -34.5t-38.5 -86.5q0 -36 26 -63.5t62.5 -47.5t73 -41.5t62.5 -57
t26 -82.5q0 -93 -70.5 -154t-181.5 -61zM186 -38q35 0 35 -31q0 -74 -120 -109l-10 30q58 25 58 50q0 2 -2 9t-2 16q0 16 10.5 25.5t30.5 9.5z" />
    <glyph glyph-name="scommaaccent" unicode="&#x219;" horiz-adv-x="401" 
d="M136 -8q-82 0 -139 35l16 45q66 -21 117 -21q55 0 88.5 24.5t33.5 69.5q0 26 -19.5 44.5t-47.5 30.5t-55.5 26t-47 39.5t-19.5 62.5q0 66 49 111t135 45q65 0 117 -29l-18 -44q-48 15 -91 15q-48 0 -78 -22.5t-30 -63.5q0 -25 19.5 -42.5t48 -29.5t56.5 -26t47.5 -40.5
t19.5 -64.5q0 -73 -55.5 -119t-146.5 -46zM133 -38q35 0 35 -31q0 -74 -120 -109l-10 30q58 25 58 50q0 2 -2 9t-2 16q0 16 10.5 25.5t30.5 9.5z" />
    <glyph glyph-name="Tcommaaccent" unicode="&#x21a;" horiz-adv-x="466" 
d="M518 609h-176l-118 -609h-83l118 609h-175l13 66h434zM172 -38q35 0 35 -31q0 -74 -120 -109l-10 30q58 25 58 50q0 2 -2 9t-2 16q0 16 10.5 25.5t30.5 9.5z" />
    <glyph glyph-name="tcommaaccent" unicode="&#x21b;" horiz-adv-x="347" 
d="M272 69l4 -48q-61 -29 -113 -29q-51 0 -75 20t-24 64q0 27 6 59l60 303h-80l12 58h80q28 71 49 141h56l-27 -141h134l-11 -58h-135l-56 -287q-7 -36 -7 -56q0 -22 11 -32t37 -10q30 0 79 16zM144 -38q35 0 35 -31q0 -74 -120 -109l-10 30q58 25 58 50q0 2 -2 9t-2 16
q0 16 10.5 25.5t30.5 9.5z" />
    <glyph glyph-name="dotlessj" unicode="&#x237;" horiz-adv-x="248" 
d="M209 496l-89 -457q-15 -75 -45 -124t-92 -93l-45 29q80 70 100 171l92 474h79z" />
    <glyph glyph-name="apostrophe" unicode="&#x2bc;" horiz-adv-x="221" 
d="M205 741q21 0 29.5 -7.5t8.5 -23.5q0 -51 -33 -102.5t-106 -88.5l-24 32q82 50 82 94q0 6 -6 15.5t-6 20.5q0 35 15 49q10 11 40 11z" />
    <glyph glyph-name="circumflex" unicode="&#x2c6;" horiz-adv-x="417" 
d="M412 595l-34 -32l-92 83l-126 -83l-23 34l161 125z" />
    <glyph glyph-name="caron" unicode="&#x2c7;" horiz-adv-x="417" 
d="M429 687l-161 -125l-113 127l32 33l94 -83l125 83z" />
    <glyph glyph-name="breve" unicode="&#x2d8;" horiz-adv-x="410" 
d="M376 715h51q-11 -69 -52.5 -107t-105.5 -38q-66 0 -94.5 38t-14.5 107h51q-16 -83 65 -83q83 0 100 83z" />
    <glyph glyph-name="dotaccent" unicode="&#x2d9;" horiz-adv-x="242" 
d="M188 595q-25 0 -35.5 5.5t-10.5 19.5q0 10 5 28t11 25q11 11 43 11q45 0 45 -26q0 -10 -4.5 -28t-10.5 -24q-11 -11 -43 -11z" />
    <glyph glyph-name="ring" unicode="&#x2da;" horiz-adv-x="346" 
d="M230 547q-88 0 -88 67q0 44 29.5 76.5t89.5 32.5q88 0 88 -67q0 -44 -29.5 -76.5t-89.5 -32.5zM291 652q0 28 -38 28q-29 0 -41 -18t-12 -43q0 -29 37 -29q54 0 54 62z" />
    <glyph glyph-name="ogonek" unicode="&#x2db;" horiz-adv-x="306" 
d="M147 -116l9 -39q-37 -23 -83 -23q-74 0 -74 61q0 55 81 117h75q-39 -26 -62.5 -54.5t-23.5 -50.5q0 -24 27 -24q25 0 51 13z" />
    <glyph glyph-name="tilde" unicode="&#x2dc;" horiz-adv-x="473" 
d="M441 687l34 -26q-28 -44 -52 -62.5t-59 -18.5q-27 0 -49.5 14t-39.5 27.5t-32 13.5q-16 0 -29 -10.5t-37 -42.5l-34 26q28 45 51.5 63t58.5 18q27 0 49.5 -13.5t39.5 -27.5t32 -14q16 0 29 10.5t38 42.5z" />
    <glyph glyph-name="hungarumlaut" unicode="&#x2dd;" 
d="M510 677l-164 -117l-38 27l149 131zM328 683l-156 -126l-38 27l140 138z" />
    <glyph glyph-name="uni0312" unicode="&#x312;" horiz-adv-x="272" 
d="M138 597q0 38 35 72.5t102 45.5l9 -31q-35 -11 -55 -28.5t-20 -31.5q0 -3 2.5 -9t2.5 -15q0 -16 -11 -26t-31 -10q-34 0 -34 33z" />
    <glyph glyph-name="uni0315" unicode="&#x315;" horiz-adv-x="242" 
d="M263 736l-88 -171l-43 9l68 176z" />
    <glyph glyph-name="uni0326" unicode="&#x326;" horiz-adv-x="259" 
d="M87 -38q35 0 35 -31q0 -74 -120 -109l-10 30q58 25 58 50q0 2 -2 9t-2 16q0 16 10.5 25.5t30.5 9.5z" />
    <glyph glyph-name="Delta" unicode="&#x2206;" horiz-adv-x="524" 
d="M448 0h-472l11 56q125 286 302 619h103q48 -321 66 -619zM72 65h300q-11 237 -50 530h-2q-159 -318 -248 -530z" />
    <glyph glyph-name="Delta" unicode="&#x394;" horiz-adv-x="524" 
d="M448 0h-472l11 56q125 286 302 619h103q48 -321 66 -619zM72 65h300q-11 237 -50 530h-2q-159 -318 -248 -530z" />
    <glyph glyph-name="Omega" unicode="&#x2126;" horiz-adv-x="651" 
d="M572 0h-234l12 62q61 29 104.5 107t60 151t16.5 128q0 83 -28 127t-107 44q-56 0 -101 -31.5t-70 -77t-42 -101.5t-22.5 -100t-5.5 -78q0 -67 16 -106.5t51 -62.5l-12 -62h-231l11 59h153q-40 28 -57.5 71t-17.5 114q0 38 7 82t22.5 94.5t42.5 96.5t63 83.5t89.5 60
t116.5 22.5q110 0 160 -58t50 -170q0 -116 -50.5 -229.5t-142.5 -166.5h156z" />
    <glyph glyph-name="Omega" unicode="&#x3a9;" horiz-adv-x="651" 
d="M572 0h-234l12 62q61 29 104.5 107t60 151t16.5 128q0 83 -28 127t-107 44q-56 0 -101 -31.5t-70 -77t-42 -101.5t-22.5 -100t-5.5 -78q0 -67 16 -106.5t51 -62.5l-12 -62h-231l11 59h153q-40 28 -57.5 71t-17.5 114q0 38 7 82t22.5 94.5t42.5 96.5t63 83.5t89.5 60
t116.5 22.5q110 0 160 -58t50 -170q0 -116 -50.5 -229.5t-142.5 -166.5h156z" />
    <glyph glyph-name="pi" unicode="&#x3c0;" horiz-adv-x="607" 
d="M602 434h-125q-53 -267 -53 -331q0 -28 9 -39t31 -11q29 0 68 13l4 -48q-52 -26 -98 -26q-49 0 -71 20t-22 70q0 71 56 352h-186q-42 -212 -100 -434h-81q73 272 105 434h-89l11 62h553z" />
    <glyph glyph-name="uni1E02" unicode="&#x1e02;" horiz-adv-x="544" 
d="M201 -2q-32 0 -85.5 1t-73.5 1l131 675h82h96q86 0 127.5 -34.5t41.5 -92.5q0 -62 -38.5 -112.5t-101.5 -70.5q114 -22 114 -127q0 -41 -15.5 -81t-47.5 -77t-91.5 -59.5t-138.5 -22.5zM433 533q0 81 -105 81h-85l-45 -230h70q82 0 123.5 48t41.5 101zM405 228
q0 96 -137 96h-82l-50 -259q45 -5 82 -5q53 0 92 17.5t58.5 45t28 53.5t8.5 52zM349 738q-23 0 -32 6t-9 19q0 31 14 47q11 11 44 11q24 0 32.5 -5.5t8.5 -19.5q0 -33 -14 -47q-13 -11 -44 -11z" />
    <glyph glyph-name="uni1E03" unicode="&#x1e03;" horiz-adv-x="516" 
d="M184 -8q-32 0 -69 4t-58 8l-21 4l135 701h79l-46 -242q-3 -16 -11 -47t-10 -39q29 52 73.5 87.5t95.5 35.5q58 0 90 -45t32 -114q0 -44 -7.5 -88.5t-28 -93.5t-51.5 -86t-83.5 -61t-119.5 -24zM391 331q0 109 -68 109q-48 0 -99.5 -66.5t-70.5 -166.5l-28 -145
q36 -11 75 -11q53 0 93 30.5t60 77.5t29 90.5t9 81.5zM221 779q-25 0 -33.5 5t-8.5 18q0 33 14 49q11 10 44 10q25 0 34 -5.5t9 -17.5q0 -34 -15 -49q-10 -10 -44 -10z" />
    <glyph glyph-name="uni1E0A" unicode="&#x1e0a;" horiz-adv-x="580" 
d="M553 446q0 -78 -30.5 -180.5t-100.5 -171.5q-96 -96 -242 -96q-27 0 -74.5 1t-63.5 1l131 675q26 0 72.5 0.5t71.5 0.5q121 0 178.5 -63t57.5 -167zM464 440q0 172 -160 172q-41 0 -60 -1l-107 -545q33 -3 61 -3q94 0 157 63q59 59 84 152.5t25 161.5zM350 738
q-23 0 -32 6t-9 19q0 31 14 47q11 11 44 11q24 0 32.5 -5.5t8.5 -19.5q0 -33 -14 -47q-13 -11 -44 -11z" />
    <glyph glyph-name="uni1E0B" unicode="&#x1e0b;" horiz-adv-x="516" 
d="M382 0h-66l19 116q-31 -54 -77 -89t-97 -35q-59 0 -90.5 45t-31.5 113q0 44 7.5 88.5t27.5 93.5t51 86t83.5 61.5t119.5 24.5l72 -5l40 207h79zM122 165q0 -110 67 -110q49 0 100 66.5t70 167.5l28 145q-36 11 -75 11q-53 0 -93 -30.5t-59.5 -77.5t-28.5 -90.5t-9 -81.5z
M493 779q-25 0 -33.5 5t-8.5 18q0 33 14 49q11 10 44 10q25 0 34 -5.5t9 -17.5q0 -34 -15 -49q-10 -10 -44 -10z" />
    <glyph glyph-name="uni1E1E" unicode="&#x1e1e;" horiz-adv-x="451" 
d="M475 610h-232l-46 -236h211l-12 -64h-211l-60 -310h-83l131 675h314zM345 738q-23 0 -32 6t-9 19q0 31 14 47q11 11 44 11q24 0 32.5 -5.5t8.5 -19.5q0 -33 -14 -47q-13 -11 -44 -11z" />
    <glyph glyph-name="uni1E1F" unicode="&#x1e1f;" horiz-adv-x="295" 
d="M330 496l-11 -58h-110l-92 -474q-12 -67 -50 -104.5t-101 -37.5q-57 0 -101 29l21 46q36 -16 65 -16q71 0 87 83l92 474h-80l11 58h80l15 75q27 141 152 141q58 0 101 -28l-21 -46q-36 16 -65 16q-72 0 -88 -83l-15 -75h110zM309 779q-25 0 -33.5 5t-8.5 18q0 33 14 49
q11 10 44 10q25 0 34 -5.5t9 -17.5q0 -34 -15 -49q-10 -10 -44 -10z" />
    <glyph glyph-name="uni1E40" unicode="&#x1e40;" horiz-adv-x="840" 
d="M711 0h-87q57 340 74 574h-1l-301 -574h-65l-80 574h-1q-64 -219 -139 -574h-81q76 350 181 675h104l79 -539h1l285 539h108q-25 -364 -77 -675zM505 738q-23 0 -32 6t-9 19q0 31 14 47q11 11 44 11q24 0 32.5 -5.5t8.5 -19.5q0 -33 -14 -47q-13 -11 -44 -11z" />
    <glyph glyph-name="uni1E41" unicode="&#x1e41;" horiz-adv-x="814" 
d="M681 0h-79q14 74 33 163t26 127t7 64q0 85 -61 85q-47 0 -98 -66t-71 -166l-41 -207h-79l48 240q16 80 16 114q0 85 -60 85q-48 0 -98.5 -66t-69.5 -166l-41 -207h-79l96 496h66l-19 -117q32 54 77.5 89.5t95.5 35.5q105 0 111 -126q32 55 77.5 90.5t96.5 35.5
q113 0 113 -134q0 -34 -7.5 -77t-27 -133t-32.5 -160zM474 595q-25 0 -35.5 5.5t-10.5 19.5q0 10 5 28t11 25q11 11 43 11q45 0 45 -26q0 -10 -4.5 -28t-10.5 -24q-11 -11 -43 -11z" />
    <glyph glyph-name="uni1E56" unicode="&#x1e56;" horiz-adv-x="515" 
d="M532 519q0 -50 -16 -95.5t-50.5 -86t-97.5 -64.5t-148 -24h-48l-47 -249h-83l131 675q22 0 71.5 0.5t73.5 0.5q214 0 214 -157zM443 507q0 52 -32.5 79t-108.5 27h-59l-58 -300h52q59 0 101.5 19t64 49.5t31 61.5t9.5 64zM346 738q-23 0 -32 6t-9 19q0 31 14 47
q11 11 44 11q24 0 32.5 -5.5t8.5 -19.5q0 -33 -14 -47q-13 -11 -44 -11z" />
    <glyph glyph-name="uni1E57" unicode="&#x1e57;" horiz-adv-x="516" 
d="M474 345q0 -44 -7.5 -88.5t-28 -93.5t-51.5 -86t-83.5 -61t-119.5 -24l-72 5l-33 -170h-79l130 669h66l-19 -117q32 54 78 89.5t96 35.5q59 0 91 -45t32 -114zM391 331q0 109 -68 109q-48 0 -99 -66.5t-70 -166.5l-28 -145q35 -11 74 -11q53 0 93 30.5t60 77.5t29 90.5
t9 81.5zM327 595q-25 0 -35.5 5.5t-10.5 19.5q0 10 5 28t11 25q11 11 43 11q45 0 45 -26q0 -10 -4.5 -28t-10.5 -24q-11 -11 -43 -11z" />
    <glyph glyph-name="uni1E60" unicode="&#x1e60;" horiz-adv-x="495" 
d="M190 -8q-102 0 -179 56l27 46q81 -38 146 -38q74 0 119.5 38t45.5 100q0 36 -25 64t-61 47.5t-72.5 41t-61.5 56.5t-25 81q0 86 63 142.5t163 56.5q93 0 156 -46l-26 -46q-58 29 -125 29q-66 0 -104.5 -34.5t-38.5 -86.5q0 -36 26 -63.5t62.5 -47.5t73 -41.5t62.5 -57
t26 -82.5q0 -93 -70.5 -154t-181.5 -61zM334 741q-23 0 -32 6t-9 19q0 31 14 47q11 11 44 11q24 0 32.5 -5.5t8.5 -19.5q0 -33 -14 -47q-13 -11 -44 -11z" />
    <glyph glyph-name="uni1E61" unicode="&#x1e61;" horiz-adv-x="401" 
d="M136 -8q-82 0 -139 35l16 45q66 -21 117 -21q55 0 88.5 24.5t33.5 69.5q0 26 -19.5 44.5t-47.5 30.5t-55.5 26t-47 39.5t-19.5 62.5q0 66 49 111t135 45q65 0 117 -29l-18 -44q-48 15 -91 15q-48 0 -78 -22.5t-30 -63.5q0 -25 19.5 -42.5t48 -29.5t56.5 -26t47.5 -40.5
t19.5 -64.5q0 -73 -55.5 -119t-146.5 -46zM268 597q-25 0 -35.5 5.5t-10.5 19.5q0 10 5 28t11 25q11 11 43 11q45 0 45 -26q0 -10 -4.5 -28t-10.5 -24q-11 -11 -43 -11z" />
    <glyph glyph-name="uni1E6A" unicode="&#x1e6a;" horiz-adv-x="466" 
d="M518 609h-176l-118 -609h-83l118 609h-175l13 66h434zM324 738q-23 0 -32 6t-9 19q0 31 14 47q11 11 44 11q24 0 32.5 -5.5t8.5 -19.5q0 -33 -14 -47q-13 -11 -44 -11z" />
    <glyph glyph-name="uni1E6B" unicode="&#x1e6b;" horiz-adv-x="347" 
d="M272 69l4 -48q-61 -29 -113 -29q-51 0 -75 20t-24 64q0 27 6 59l60 303h-80l12 58h80q28 71 49 141h56l-27 -141h134l-11 -58h-135l-56 -287q-7 -36 -7 -56q0 -22 11 -32t37 -10q30 0 79 16zM237 701q-25 0 -35.5 5.5t-10.5 19.5q0 10 5 28t11 25q11 11 43 11
q45 0 45 -26q0 -10 -4.5 -28t-10.5 -24q-11 -11 -43 -11z" />
    <glyph glyph-name="Wgrave" unicode="&#x1e80;" horiz-adv-x="851" 
d="M826 675h84q-157 -373 -312 -675h-88l-29 439l-2 95h-1l-40 -98l-188 -436h-95q-41 308 -51 675h87q3 -190 35 -570h1l26 69l218 501h76l30 -491l2 -79h2q149 326 245 570zM579 765l-29 -37l-171 72l45 54z" />
    <glyph glyph-name="wgrave" unicode="&#x1e81;" horiz-adv-x="730" 
d="M665 496h81q-89 -238 -239 -496h-84l-32 333l-2 64h-1l-26 -65l-149 -332h-92l-51 496h84l28 -316l5 -92h2l31 78l146 330h86l31 -339l3 -69h2q108 211 177 408zM467 585l-42 -25l-126 125l63 35z" />
    <glyph glyph-name="Wacute" unicode="&#x1e82;" horiz-adv-x="851" 
d="M826 675h84q-157 -373 -312 -675h-88l-29 439l-2 95h-1l-40 -98l-188 -436h-95q-41 308 -51 675h87q3 -190 35 -570h1l26 69l218 501h76l30 -491l2 -79h2q149 326 245 570zM681 795l-191 -67l-20 40l181 86z" />
    <glyph glyph-name="wacute" unicode="&#x1e83;" horiz-adv-x="730" 
d="M665 496h81q-89 -238 -239 -496h-84l-32 333l-2 64h-1l-26 -65l-149 -332h-92l-51 496h84l28 -316l5 -92h2l31 78l146 330h86l31 -339l3 -69h2q108 211 177 408zM568 679l-168 -119l-37 28l150 132z" />
    <glyph glyph-name="Wdieresis" unicode="&#x1e84;" horiz-adv-x="851" 
d="M826 675h84q-157 -373 -312 -675h-88l-29 439l-2 95h-1l-40 -98l-188 -436h-95q-41 308 -51 675h87q3 -190 35 -570h1l26 69l218 501h76l30 -491l2 -79h2q149 326 245 570zM676 792q0 -31 -12 -43q-10 -11 -38 -11q-21 0 -30 6t-9 21q0 29 12 43q12 11 39 11
q21 0 29.5 -5.5t8.5 -21.5zM477 792q0 -31 -12 -43q-10 -11 -38 -11q-21 0 -29.5 5.5t-8.5 21.5q0 31 12 43q11 11 38 11q21 0 29.5 -5.5t8.5 -21.5z" />
    <glyph glyph-name="wdieresis" unicode="&#x1e85;" horiz-adv-x="730" 
d="M665 496h81q-89 -238 -239 -496h-84l-32 333l-2 64h-1l-26 -65l-149 -332h-92l-51 496h84l28 -316l5 -92h2l31 78l146 330h86l31 -339l3 -69h2q108 211 177 408zM574 654q0 -34 -14 -46q-11 -11 -37 -11q-39 0 -39 27q0 34 14 46q11 11 38 11q38 0 38 -27zM382 654
q0 -34 -14 -46q-11 -11 -37 -11q-39 0 -39 27q0 32 14 46q11 11 38 11q38 0 38 -27z" />
    <glyph glyph-name="Ygrave" unicode="&#x1ef2;" horiz-adv-x="483" 
d="M475 675h90q-156 -243 -275 -381l-57 -294h-83l57 294q-74 167 -127 381h90q47 -190 97 -307h1q93 114 207 307zM388 765l-29 -37l-171 72l45 54z" />
    <glyph glyph-name="ygrave" unicode="&#x1ef3;" horiz-adv-x="461" 
d="M393 496h87q-271 -673 -493 -673q-34 0 -64 14l9 48q13 -3 41 -3q61 0 108 47q45 45 45 106q0 46 -10 119l-51 342h83l40 -284q15 -98 0 -161h2q48 79 105.5 204.5t97.5 240.5zM332 585l-42 -25l-126 125l63 35z" />
    <glyph glyph-name="endash" unicode="&#x2013;" 
d="M456 267h-409l12 61h410z" />
    <glyph glyph-name="emdash" unicode="&#x2014;" horiz-adv-x="1000" 
d="M852 267h-701l11 61h701z" />
    <glyph glyph-name="uni2015" unicode="&#x2015;" horiz-adv-x="1000" 
d="M852 267h-701l11 61h701z" />
    <glyph glyph-name="quoteleft" unicode="&#x2018;" horiz-adv-x="270" 
d="M287 776l27 -35q-87 -54 -87 -99q0 -7 7 -17.5t7 -22.5q0 -38 -17 -55q-11 -11 -44 -11q-24 0 -33.5 8t-9.5 26q0 55 36 110.5t114 95.5z" />
    <glyph glyph-name="quoteright" unicode="&#x2019;" horiz-adv-x="278" 
d="M139 510l-27 35q87 54 87 99q0 7 -7 17.5t-7 22.5q0 36 17 55q12 11 45 11q24 0 33.5 -8t9.5 -26q0 -56 -36 -111t-115 -95z" />
    <glyph glyph-name="quotesinglbase" unicode="&#x201a;" horiz-adv-x="304" 
d="M12 -147l-27 36q88 53 88 99q0 7 -7 17t-7 22q0 36 17 55q14 12 45 12q43 0 43 -34q0 -56 -36.5 -111.5t-115.5 -95.5z" />
    <glyph glyph-name="quotedblleft" unicode="&#x201c;" horiz-adv-x="450" 
d="M287 775l24 -35q-88 -53 -88 -98q0 -7 6.5 -17t6.5 -22q0 -37 -16 -55q-13 -11 -41 -11q-23 0 -32.5 8t-9.5 26q0 55 36 110t114 94zM468 772l24 -35q-84 -51 -84 -95q0 -7 7 -17t7 -22q0 -38 -17 -55q-13 -11 -41 -11q-23 0 -32 8t-9 26q0 55 35 109t110 92z" />
    <glyph glyph-name="quotedblright" unicode="&#x201d;" horiz-adv-x="458" 
d="M320 511l-24 35q88 53 88 98q0 7 -7 17t-7 22q0 37 17 54q11 11 41 11q23 0 32.5 -7.5t9.5 -25.5q0 -55 -36 -110t-114 -94zM139 514l-24 35q84 51 84 95q0 7 -7 17t-7 22q0 37 17 54q11 11 41 11q23 0 32 -7.5t9 -25.5q0 -55 -35 -109.5t-110 -91.5z" />
    <glyph glyph-name="quotedblbase" unicode="&#x201e;" horiz-adv-x="484" 
d="M194 -146l-24 35q88 53 88 99q0 7 -7 16.5t-7 21.5q0 38 17 55q13 11 41 11q23 0 32 -8t9 -26q0 -55 -36 -109.5t-113 -94.5zM12 -143l-24 36q84 49 84 95q0 7 -6.5 16.5t-6.5 21.5q0 38 17 55q13 11 41 11q23 0 32 -8t9 -26q0 -55 -35.5 -109t-110.5 -92z" />
    <glyph glyph-name="dagger" unicode="&#x2020;" horiz-adv-x="374" 
d="M385 517h-110l-61 -311h-75l61 311h-111l11 55h110l27 137h76l-27 -137h110z" />
    <glyph glyph-name="daggerdbl" unicode="&#x2021;" horiz-adv-x="374" 
d="M313 145h-111l-27 -145h-75l27 145h-111l11 55h111l61 312h-111l11 55h111l27 142h75l-28 -142h111l-10 -55h-111l-61 -312h110z" />
    <glyph glyph-name="bullet" unicode="&#x2022;" 
d="M391 310q0 -58 -40.5 -97.5t-96.5 -39.5q-54 0 -91 37t-37 90q0 58 40.5 98t96.5 40q54 0 91 -37.5t37 -90.5z" />
    <glyph glyph-name="perthousand" unicode="&#x2030;" horiz-adv-x="1021" 
d="M220 369q-59 0 -85.5 25.5t-26.5 77.5q0 33 9 67.5t27.5 67.5t53 54.5t79.5 21.5q60 0 86.5 -25.5t26.5 -77.5q0 -33 -9 -67.5t-27.5 -67.5t-53.5 -54.5t-80 -21.5zM324 573q0 62 -55 62q-28 0 -48 -17.5t-29.5 -44.5t-13.5 -50.5t-4 -43.5q0 -62 55 -62q28 0 48 17.5
t29.5 44.5t13.5 50.5t4 43.5zM691 663l-617 -680l-40 29l617 680zM447 -8q-59 0 -85.5 25.5t-26.5 77.5q0 32 9 66.5t27.5 68t53 55t79.5 21.5q59 0 85.5 -25.5t26.5 -77.5q0 -33 -9 -67.5t-27.5 -67.5t-53 -54.5t-79.5 -21.5zM551 196q0 62 -55 62q-37 0 -60 -31.5
t-29.5 -63.5t-6.5 -61q0 -62 55 -62q28 0 48 17.5t30 44.5t14 50.5t4 43.5zM773 -8q-59 0 -85.5 25.5t-26.5 77.5q0 33 9 67.5t27.5 67.5t53 54.5t79.5 21.5q59 0 85.5 -25.5t26.5 -77.5q0 -26 -5 -53t-17.5 -56t-31.5 -51t-48.5 -36.5t-66.5 -14.5zM877 196q0 62 -55 62
q-28 0 -48 -17.5t-30 -44.5t-14 -50.5t-4 -43.5q0 -62 55 -62q37 0 60 31.5t29.5 63.5t6.5 61z" />
    <glyph glyph-name="guilsinglleft" unicode="&#x2039;" horiz-adv-x="303" 
d="M202 121l-55 -18l-88 194l159 190l51 -23l-126 -171z" />
    <glyph glyph-name="guilsinglright" unicode="&#x203a;" horiz-adv-x="304" 
d="M117 469l55 18l87 -194l-158 -190l-51 23l126 171z" />
    <glyph glyph-name="exclamdbl" unicode="&#x203c;" horiz-adv-x="650" 
d="M342 675l-118 -526h-67l88 526h97zM162 -7q-26 0 -36.5 7t-10.5 26q0 37 15 52q14 13 46 13q26 0 36.5 -7t10.5 -26q0 -37 -14 -51t-47 -14zM625 675l-118 -526h-67l88 526h97zM445 -7q-26 0 -36.5 7t-10.5 26q0 37 15 52q14 13 46 13q26 0 36.5 -7t10.5 -26
q0 -37 -14 -51t-47 -14z" />
    <glyph glyph-name="fraction" unicode="&#x2044;" horiz-adv-x="74" 
d="M439 703l-719 -772l-42 27l719 772z" />
    <glyph glyph-name="zero.superior" unicode="&#x2070;" horiz-adv-x="374" 
d="M393 620q0 -63 -20 -124.5t-53 -93.5q-46 -45 -117 -45q-56 0 -86.5 28.5t-30.5 81.5q0 63 19.5 124.5t52.5 92.5q48 46 118 46q56 0 86.5 -28.5t30.5 -81.5zM322 618q0 63 -56 63q-33 0 -56 -23q-26 -27 -40 -84.5t-14 -105.5q0 -63 56 -63q33 0 57 24q26 26 39.5 83.5
t13.5 105.5z" />
    <glyph glyph-name="four.superior" unicode="&#x2074;" horiz-adv-x="351" 
d="M365 442h-55l-16 -78h-67l15 78h-179l9 48q82 112 196 233h95l-43 -230h55zM252 493l38 187h-2q-61 -62 -158 -187h122z" />
    <glyph glyph-name="five.superior" unicode="&#x2075;" horiz-adv-x="346" 
d="M350 493q0 -21 -7.5 -42.5t-25 -43.5t-54 -36t-86.5 -14t-113 23l12 35q63 -11 97 -11q56 0 80 24t24 56q0 24 -16.5 36.5t-59.5 12.5q-39 0 -92 -8l54 198h203l-10 -53h-147l-27 -99q26 5 56 5q112 0 112 -83z" />
    <glyph glyph-name="six.superior" unicode="&#x2076;" horiz-adv-x="362" 
d="M370 498q0 -51 -40 -96t-117 -45q-118 0 -118 110q0 49 11.5 94t35 83.5t64 62t92.5 23.5q45 0 102 -20l-14 -36q-58 10 -85 10q-54 0 -83 -31t-43 -100q59 26 99 26q51 0 73.5 -23t22.5 -58zM302 492q0 44 -56 44q-33 0 -77 -19q-5 -25 -5 -53q0 -62 54 -62
q43 0 63.5 27t20.5 63z" />
    <glyph glyph-name="seven.superior" unicode="&#x2077;" horiz-adv-x="336" 
d="M386 673l-115 -152q-77 -102 -140 -165l-47 15l221 297h-190l10 55h270z" />
    <glyph glyph-name="eight.superior" unicode="&#x2078;" horiz-adv-x="362" 
d="M366 470q0 -50 -42.5 -82t-120.5 -32q-132 0 -132 79q0 69 107 109q-61 31 -61 79q0 45 40.5 76t112.5 31q59 0 90.5 -20t31.5 -53q0 -35 -24.5 -59t-73.5 -46q72 -31 72 -82zM323 650q0 37 -61 37q-37 0 -56 -14.5t-19 -39.5q0 -19 12 -32.5t45 -28.5q79 34 79 78z
M295 458q0 19 -15.5 33.5t-54.5 31.5q-40 -18 -61.5 -36.5t-21.5 -45.5q0 -42 69 -42q42 0 63 18t21 41z" />
    <glyph glyph-name="nine.superior" unicode="&#x2079;" horiz-adv-x="360" 
d="M105 588q0 53 40 97.5t118 44.5q118 0 118 -109q0 -49 -11.5 -94.5t-34.5 -84t-63 -62t-92 -23.5q-50 0 -110 21l12 36q55 -11 93 -11q54 0 83 32t42 99q-54 -26 -99 -26q-96 0 -96 80zM173 594q0 -43 57 -43q36 0 77 19q5 24 5 52q0 63 -56 63q-42 0 -62.5 -27.5
t-20.5 -63.5z" />
    <glyph glyph-name="uni207A" unicode="&#x207a;" horiz-adv-x="327" 
d="M339 517h-96l-19 -99h-59l19 99h-96l10 51h96l20 100h59l-20 -100h96z" />
    <glyph glyph-name="uni207B" unicode="&#x207b;" horiz-adv-x="327" 
d="M339 517h-251l10 52h251z" />
    <glyph glyph-name="uni207C" unicode="&#x207c;" horiz-adv-x="327" 
d="M348 573h-247l10 49h247zM327 464h-247l10 49h247z" />
    <glyph glyph-name="parenleft.superior" unicode="&#x207d;" horiz-adv-x="189" 
d="M179 293l-48 -12q-36 81 -36 176q0 91 35.5 188.5t102.5 175.5l45 -17q-116 -179 -116 -358q0 -88 17 -153z" />
    <glyph glyph-name="parenright.superior" unicode="&#x207e;" horiz-adv-x="188" 
d="M128 809l47 12q37 -80 37 -176q0 -92 -35.5 -189t-102.5 -175l-45 16q116 180 116 359q0 84 -17 153z" />
    <glyph glyph-name="nsuperior" unicode="&#x207f;" horiz-adv-x="377" 
d="M382 600q0 -31 -41 -236h-66q38 190 38 225q0 42 -37 42q-32 0 -62.5 -34.5t-42.5 -95.5l-27 -137h-66l60 310h54l-7 -66q48 72 119 72q40 0 59 -23.5t19 -56.5z" />
    <glyph glyph-name="zero.inferior" unicode="&#x2080;" horiz-adv-x="374" 
d="M311 198q0 -63 -20 -124.5t-53 -93.5q-46 -45 -117 -45q-56 0 -86.5 28.5t-30.5 81.5q0 63 19.5 124.5t52.5 92.5q48 46 118 46q56 0 86.5 -28.5t30.5 -81.5zM240 196q0 63 -56 63q-33 0 -56 -23q-26 -27 -40 -84.5t-14 -105.5q0 -63 56 -63q33 0 57 24q26 26 39.5 83.5
t13.5 105.5z" />
    <glyph glyph-name="one.inferior" unicode="&#x2081;" horiz-adv-x="336" 
d="M234 -58h-245l10 51h92l48 249l-86 -24l-3 40l118 45h53l-60 -310h83z" />
    <glyph glyph-name="two.inferior" unicode="&#x2082;" horiz-adv-x="343" 
d="M242 -58h-262l10 49q129 90 175.5 135t46.5 89q0 42 -62 42q-34 0 -95 -17l-5 42q76 26 125 26q52 0 81 -23t29 -61q0 -53 -53 -107.5t-161 -119.5v-1h181z" />
    <glyph glyph-name="three.inferior" unicode="&#x2083;" horiz-adv-x="344" 
d="M270 63q0 -20 -7.5 -40t-24.5 -41t-53.5 -34t-87.5 -13q-55 0 -118 21l13 38q62 -12 102 -12q56 0 79 22.5t23 53.5q0 48 -80 48h-51l9 46h52q46 0 68.5 18.5t22.5 45.5q0 44 -67 44q-36 0 -88 -13l-6 40q63 21 114 21q62 0 90.5 -22.5t28.5 -57.5q0 -34 -23 -59.5
t-63 -34.5q67 -14 67 -71z" />
    <glyph glyph-name="four.inferior" unicode="&#x2084;" horiz-adv-x="351" 
d="M283 20h-55l-16 -78h-67l15 78h-179l9 48q82 112 196 233h95l-43 -230h55zM170 71l38 187h-2q-61 -62 -158 -187h122z" />
    <glyph glyph-name="five.inferior" unicode="&#x2085;" horiz-adv-x="346" 
d="M268 71q0 -21 -7.5 -42.5t-25 -43.5t-54 -36t-86.5 -14t-113 23l12 35q63 -11 97 -11q56 0 80 24t24 56q0 24 -16.5 36.5t-59.5 12.5q-39 0 -92 -8l54 198h203l-10 -53h-147l-27 -99q26 5 56 5q112 0 112 -83z" />
    <glyph glyph-name="six.inferior" unicode="&#x2086;" horiz-adv-x="362" 
d="M288 76q0 -51 -40 -96t-117 -45q-118 0 -118 110q0 49 11.5 94t35 83.5t64 62t92.5 23.5q45 0 102 -20l-14 -36q-58 10 -85 10q-54 0 -83 -31t-43 -100q59 26 99 26q51 0 73.5 -23t22.5 -58zM220 70q0 44 -56 44q-33 0 -77 -19q-5 -25 -5 -53q0 -62 54 -62q43 0 63.5 27
t20.5 63z" />
    <glyph glyph-name="seven.inferior" unicode="&#x2087;" horiz-adv-x="336" 
d="M304 251l-115 -152q-77 -102 -140 -165l-47 15l221 297h-190l10 55h270z" />
    <glyph glyph-name="eight.inferior" unicode="&#x2088;" horiz-adv-x="366" 
d="M286 48q0 -50 -42.5 -82t-120.5 -32q-132 0 -132 79q0 69 107 109q-61 31 -61 79q0 45 40.5 76t112.5 31q59 0 90.5 -20t31.5 -53q0 -35 -24.5 -59t-73.5 -46q72 -31 72 -82zM243 228q0 37 -61 37q-37 0 -56 -14.5t-19 -39.5q0 -19 12 -32.5t45 -28.5q79 34 79 78z
M215 36q0 19 -15.5 33.5t-54.5 31.5q-40 -18 -61.5 -36.5t-21.5 -45.5q0 -42 69 -42q42 0 63 18t21 41z" />
    <glyph glyph-name="nine.inferior" unicode="&#x2089;" horiz-adv-x="360" 
d="M22 166q0 53 40 97.5t118 44.5q118 0 118 -109q0 -49 -11.5 -94.5t-34.5 -84t-63 -62t-92 -23.5q-50 0 -110 21l12 36q55 -11 93 -11q54 0 83 32t42 99q-54 -26 -99 -26q-96 0 -96 80zM90 172q0 -43 57 -43q36 0 77 19q5 24 5 52q0 63 -56 63q-42 0 -62.5 -27.5
t-20.5 -63.5z" />
    <glyph glyph-name="uni208A" unicode="&#x208a;" horiz-adv-x="327" 
d="M257 95h-96l-19 -99h-59l19 99h-96l10 51h96l20 100h59l-20 -100h96z" />
    <glyph glyph-name="uni208B" unicode="&#x208b;" horiz-adv-x="327" 
d="M257 95h-251l10 52h251z" />
    <glyph glyph-name="uni208C" unicode="&#x208c;" horiz-adv-x="327" 
d="M266 151h-247l10 49h247zM245 42h-247l10 49h247z" />
    <glyph glyph-name="parenleft.inferior" unicode="&#x208d;" horiz-adv-x="194" 
d="M97 -129l-48 -12q-36 81 -36 176q0 91 35.5 188.5t102.5 175.5l45 -17q-116 -179 -116 -358q0 -88 17 -153z" />
    <glyph glyph-name="parenright.inferior" unicode="&#x208e;" horiz-adv-x="194" 
d="M46 387l47 12q37 -80 37 -176q0 -92 -35.5 -189t-102.5 -175l-45 16q116 180 116 359q0 84 -17 153z" />
    <glyph glyph-name="Euro" unicode="&#x20ac;" 
d="M418 126l29 -40q-96 -94 -202 -94q-53 0 -91.5 20.5t-59 56.5t-29 79.5t-5.5 94.5h-59l9 53h56q4 32 18 87h-56l10 53h62q39 118 111.5 182.5t163.5 64.5q122 0 155 -105l-44 -34q-30 76 -111 76q-66 0 -117 -52t-76 -132h190l-10 -53h-195q-12 -43 -18 -87h195l-9 -53
h-190q-5 -45 2.5 -85t37.5 -71.5t80 -31.5q76 0 153 71z" />
    <glyph glyph-name="uni2117" unicode="&#x2117;" horiz-adv-x="774" 
d="M571 424q0 -71 -50 -108.5t-123 -37.5h-48l-25 -127h-64l72 367q14 0 54 0.5t59 0.5q125 0 125 -95zM503 419q0 30 -17.5 41t-51.5 11h-47l-28 -144h47q42 0 69.5 23t27.5 69zM356 -10q-133 0 -217 84.5t-84 213.5q0 101 51.5 192t142.5 147.5t198 56.5q133 0 217 -84.5
t84 -213.5q0 -101 -51.5 -192t-142.5 -147.5t-198 -56.5zM686 380q0 107 -67.5 180t-176.5 73q-135 0 -230 -103t-95 -236q0 -107 67.5 -180t176.5 -73q135 0 230 103t95 236z" />
    <glyph glyph-name="servicemark" unicode="&#x2120;" horiz-adv-x="425" 
d="M213 562q0 -24 -21.5 -40t-56.5 -16q-34 0 -57 13l11 24q17 -8 41 -8q34 0 34 22q0 8 -9.5 14.5t-21.5 11.5t-21.5 16t-9.5 27q0 22 19 37.5t48 15.5q31 0 53 -11l-10 -24q-19 7 -36 7q-28 0 -28 -20q0 -9 16 -16.5t32.5 -19.5t16.5 -33zM439 509h-41q17 97 19 118h-1
l-61 -118h-45l-14 118h-1q-20 -79 -27 -118h-39q22 92 46 166h53l14 -119h1l61 119h56q-8 -85 -21 -166z" />
    <glyph glyph-name="trademark" unicode="&#x2122;" horiz-adv-x="410" 
d="M413 509h-41q17 97 19 118h-1l-62 -118h-45l-13 118h-2q-24 -104 -27 -118h-38q25 104 46 166h53l14 -119h1l60 119h57q-5 -58 -21 -166zM214 642h-35l-26 -133h-43l26 133h-36l6 33h115z" />
    <glyph glyph-name="uni2139" unicode="&#x2139;" horiz-adv-x="360" 
d="M289 0h-318l11 58h126l50 258h-116l11 58h199l-61 -316h109zM226 454q-28 0 -40 6.5t-12 22.5q0 13 5.5 34t12.5 28q13 12 48 12q28 0 39.5 -6.5t11.5 -22.5q0 -13 -5.5 -33.5t-12.5 -27.5q-12 -13 -47 -13z" />
    <glyph glyph-name="onethird" unicode="&#x2153;" horiz-adv-x="744" 
d="M316 364h-245l10 51h92l48 249l-86 -24l-3 40l118 45h53l-60 -310h83zM775 703l-719 -772l-42 27l719 772zM670 63q0 -20 -7.5 -40t-24.5 -41t-53.5 -34t-87.5 -13q-55 0 -118 21l13 38q61 -12 102 -12q56 0 79 22.5t23 53.5q0 48 -80 48h-51l9 46h52q46 0 68.5 18.5
t22.5 45.5q0 44 -67 44q-36 0 -88 -13l-6 40q63 21 114 21q62 0 90.5 -22.5t28.5 -57.5q0 -34 -23 -59.5t-63 -34.5q67 -14 67 -71z" />
    <glyph glyph-name="twothirds" unicode="&#x2154;" horiz-adv-x="752" 
d="M324 364h-262l10 49q129 90 175.5 135t46.5 89q0 42 -62 42q-34 0 -95 -17l-5 42q76 26 125 26q52 0 81 -23t29 -61q0 -53 -53 -107.5t-161 -119.5v-1h181zM783 703l-719 -772l-42 27l719 772zM677 63q0 -20 -7.5 -40t-24.5 -41t-53.5 -34t-87.5 -13q-55 0 -118 21l13 38
q61 -12 102 -12q56 0 79 22.5t23 53.5q0 48 -80 48h-51l9 46h52q46 0 68.5 18.5t22.5 45.5q0 44 -67 44q-36 0 -88 -13l-6 40q63 21 114 21q62 0 90.5 -22.5t28.5 -57.5q0 -34 -23 -59.5t-63 -34.5q67 -14 67 -71z" />
    <glyph glyph-name="onefifth" unicode="&#x2155;" horiz-adv-x="739" 
d="M316 364h-245l10 51h92l48 249l-86 -24l-3 40l118 45h53l-60 -310h83zM775 703l-719 -772l-42 27l719 772zM653 71q0 -21 -7.5 -42.5t-25 -43.5t-54 -36t-86.5 -14t-113 23l12 35q63 -11 97 -11q56 0 80 24t24 56q0 24 -16.5 36.5t-59.5 12.5q-39 0 -92 -8l54 198h203
l-10 -53h-147l-27 -99q26 5 56 5q112 0 112 -83z" />
    <glyph glyph-name="twofifths" unicode="&#x2156;" horiz-adv-x="747" 
d="M324 364h-262l10 49q129 90 175.5 135t46.5 89q0 42 -62 42q-34 0 -95 -17l-5 42q76 26 125 26q52 0 81 -23t29 -61q0 -53 -53 -107.5t-161 -119.5v-1h181zM783 703l-719 -772l-42 27l719 772zM660 71q0 -21 -7.5 -42.5t-25 -43.5t-54 -36t-86.5 -14t-113 23l12 35
q63 -11 97 -11q56 0 80 24t24 56q0 24 -16.5 36.5t-59.5 12.5q-39 0 -92 -8l54 198h203l-10 -53h-147l-27 -99q26 5 56 5q112 0 112 -83z" />
    <glyph glyph-name="threefifths" unicode="&#x2157;" horiz-adv-x="749" 
d="M352 485q0 -20 -7.5 -40t-24.5 -41t-53.5 -34t-87.5 -13q-55 0 -118 21l13 38q62 -12 102 -12q56 0 79 22.5t23 53.5q0 48 -80 48h-51l9 46h52q46 0 68.5 18.5t22.5 45.5q0 44 -67 44q-36 0 -88 -13l-6 40q63 21 114 21q62 0 90.5 -22.5t28.5 -57.5q0 -34 -23 -59.5
t-63 -34.5q67 -14 67 -71zM785 703l-719 -772l-42 27l719 772zM663 71q0 -21 -7.5 -42.5t-25 -43.5t-54 -36t-86.5 -14t-113 23l12 35q63 -11 97 -11q56 0 80 24t24 56q0 24 -16.5 36.5t-59.5 12.5q-39 0 -92 -8l54 198h203l-10 -53h-147l-27 -99q26 5 56 5q112 0 112 -83z
" />
    <glyph glyph-name="fourfifths" unicode="&#x2158;" horiz-adv-x="739" 
d="M365 442h-55l-16 -78h-67l15 78h-179l9 48q82 112 196 233h95l-43 -230h55zM252 493l38 187h-2q-61 -62 -158 -187h122zM775 703l-719 -772l-42 27l719 772zM653 71q0 -21 -7.5 -42.5t-25 -43.5t-54 -36t-86.5 -14t-113 23l12 35q63 -11 97 -11q56 0 80 24t24 56
q0 24 -16.5 36.5t-59.5 12.5q-39 0 -92 -8l54 198h203l-10 -53h-147l-27 -99q26 5 56 5q112 0 112 -83z" />
    <glyph glyph-name="onesixth" unicode="&#x2159;" horiz-adv-x="755" 
d="M775 703l-719 -772l-42 27l719 772zM681 76q0 -51 -40 -96t-117 -45q-118 0 -118 110q0 49 11.5 94t35 83.5t64 62t92.5 23.5q45 0 102 -20l-14 -36q-58 10 -85 10q-54 0 -83 -31t-43 -100q59 26 99 26q51 0 73.5 -23t22.5 -58zM613 70q0 44 -56 44q-33 0 -77 -19
q-5 -25 -5 -53q0 -62 54 -62q43 0 63.5 27t20.5 63zM316 364h-245l10 51h92l48 249l-86 -24l-3 40l118 45h53l-60 -310h83z" />
    <glyph glyph-name="fivesixths" unicode="&#x215a;" horiz-adv-x="762" 
d="M782 703l-719 -772l-42 27l719 772zM688 76q0 -51 -40 -96t-117 -45q-118 0 -118 110q0 49 11.5 94t35 83.5t64 62t92.5 23.5q45 0 102 -20l-14 -36q-58 10 -85 10q-54 0 -83 -31t-43 -100q59 26 99 26q51 0 73.5 -23t22.5 -58zM620 70q0 44 -56 44q-33 0 -77 -19
q-5 -25 -5 -53q0 -62 54 -62q43 0 63.5 27t20.5 63zM350 493q0 -21 -7.5 -42.5t-25 -43.5t-54 -36t-86.5 -14t-113 23l12 35q63 -11 97 -11q56 0 80 24t24 56q0 24 -16.5 36.5t-59.5 12.5q-39 0 -92 -8l54 198h203l-10 -53h-147l-27 -99q26 5 56 5q112 0 112 -83z" />
    <glyph glyph-name="oneeighth" unicode="&#x215b;" horiz-adv-x="781" 
d="M775 703l-719 -772l-42 27l719 772zM705 48q0 -50 -42.5 -82t-120.5 -32q-132 0 -132 79q0 69 107 109q-61 31 -61 79q0 45 40.5 76t112.5 31q59 0 90.5 -20t31.5 -53q0 -35 -24.5 -59t-73.5 -46q72 -31 72 -82zM662 228q0 37 -61 37q-37 0 -56 -14.5t-19 -39.5
q0 -19 12 -32.5t45 -28.5q79 34 79 78zM634 36q0 19 -15.5 33.5t-54.5 31.5q-40 -18 -61.5 -36.5t-21.5 -45.5q0 -42 69 -42q42 0 63 18t21 41zM316 364h-245l10 51h92l48 249l-86 -24l-3 40l118 45h53l-60 -310h83z" />
    <glyph glyph-name="threeeighths" unicode="&#x215c;" horiz-adv-x="791" 
d="M352 485q0 -20 -7.5 -40t-24.5 -41t-53.5 -34t-87.5 -13q-55 0 -118 21l13 38q62 -12 102 -12q56 0 79 22.5t23 53.5q0 48 -80 48h-51l9 46h52q46 0 68.5 18.5t22.5 45.5q0 44 -67 44q-36 0 -88 -13l-6 40q63 21 114 21q62 0 90.5 -22.5t28.5 -57.5q0 -34 -23 -59.5
t-63 -34.5q67 -14 67 -71zM785 703l-719 -772l-42 27l719 772zM715 48q0 -50 -42.5 -82t-120.5 -32q-132 0 -132 79q0 69 107 109q-61 31 -61 79q0 45 40.5 76t112.5 31q59 0 90.5 -20t31.5 -53q0 -35 -24.5 -59t-73.5 -46q72 -31 72 -82zM672 228q0 37 -61 37
q-37 0 -56 -14.5t-19 -39.5q0 -19 12 -32.5t45 -28.5q79 34 79 78zM644 36q0 19 -15.5 33.5t-54.5 31.5q-40 -18 -61.5 -36.5t-21.5 -45.5q0 -42 69 -42q42 0 63 18t21 41z" />
    <glyph glyph-name="fiveeighths" unicode="&#x215d;" horiz-adv-x="788" 
d="M782 703l-719 -772l-42 27l719 772zM712 48q0 -50 -42.5 -82t-120.5 -32q-132 0 -132 79q0 69 107 109q-61 31 -61 79q0 45 40.5 76t112.5 31q59 0 90.5 -20t31.5 -53q0 -35 -24.5 -59t-73.5 -46q72 -31 72 -82zM669 228q0 37 -61 37q-37 0 -56 -14.5t-19 -39.5
q0 -19 12 -32.5t45 -28.5q79 34 79 78zM641 36q0 19 -15.5 33.5t-54.5 31.5q-40 -18 -61.5 -36.5t-21.5 -45.5q0 -42 69 -42q42 0 63 18t21 41zM350 493q0 -21 -7.5 -42.5t-25 -43.5t-54 -36t-86.5 -14t-113 23l12 35q63 -11 97 -11q56 0 80 24t24 56q0 24 -16.5 36.5
t-59.5 12.5q-39 0 -92 -8l54 198h203l-10 -53h-147l-27 -99q26 5 56 5q112 0 112 -83z" />
    <glyph glyph-name="seveneighths" unicode="&#x215e;" horiz-adv-x="744" 
d="M737 703l-719 -772l-42 27l719 772zM668 48q0 -50 -42.5 -82t-120.5 -32q-132 0 -132 79q0 69 107 109q-61 31 -61 79q0 45 40.5 76t112.5 31q59 0 90.5 -20t31.5 -53q0 -35 -24.5 -59t-73.5 -46q72 -31 72 -82zM625 228q0 37 -61 37q-37 0 -56 -14.5t-19 -39.5
q0 -19 12 -32.5t45 -28.5q79 34 79 78zM597 36q0 19 -15.5 33.5t-54.5 31.5q-40 -18 -61.5 -36.5t-21.5 -45.5q0 -42 69 -42q42 0 63 18t21 41zM433 673l-115 -152q-77 -102 -140 -165l-47 15l221 297h-190l10 55h270z" />
    <glyph glyph-name="uni2160" unicode="&#x2160;" horiz-adv-x="385" 
d="M279 0h-273l12 66h95l106 543h-95l13 66h273l-13 -66h-95l-106 -543h95z" />
    <glyph glyph-name="uni2161" unicode="&#x2161;" horiz-adv-x="770" 
d="M279 0h-273l12 66h95l106 543h-95l13 66h273l-13 -66h-95l-106 -543h95zM664 0h-273l12 66h95l106 543h-95l13 66h273l-13 -66h-95l-106 -543h95z" />
    <glyph glyph-name="uni2162" unicode="&#x2162;" horiz-adv-x="1155" 
d="M279 0h-273l12 66h95l106 543h-95l13 66h273l-13 -66h-95l-106 -543h95zM664 0h-273l12 66h95l106 543h-95l13 66h273l-13 -66h-95l-106 -543h95zM1049 0h-273l12 66h95l106 543h-95l13 66h273l-13 -66h-95l-106 -543h95z" />
    <glyph glyph-name="uni2163" unicode="&#x2163;" horiz-adv-x="909" 
d="M279 0h-273l12 66h95l106 543h-95l13 66h273l-13 -66h-95l-106 -543h95zM887 675h86q-158 -375 -327 -675h-97q-56 370 -66 675h88q6 -268 47 -588h2q140 274 267 588z" />
    <glyph glyph-name="uni2164" unicode="&#x2164;" horiz-adv-x="524" 
d="M502 675h86q-158 -375 -327 -675h-97q-56 370 -66 675h88q6 -268 47 -588h2q140 274 267 588z" />
    <glyph glyph-name="uni2165" unicode="&#x2165;" horiz-adv-x="909" 
d="M502 675h86q-158 -375 -327 -675h-97q-56 370 -66 675h88q6 -268 47 -588h2q140 274 267 588zM803 0h-273l12 66h95l106 543h-95l13 66h273l-13 -66h-95l-106 -543h95z" />
    <glyph glyph-name="uni2166" unicode="&#x2166;" horiz-adv-x="1294" 
d="M502 675h86q-158 -375 -327 -675h-97q-56 370 -66 675h88q6 -268 47 -588h2q140 274 267 588zM803 0h-273l12 66h95l106 543h-95l13 66h273l-13 -66h-95l-106 -543h95zM1188 0h-273l12 66h95l106 543h-95l13 66h273l-13 -66h-95l-106 -543h95z" />
    <glyph glyph-name="uni2167" unicode="&#x2167;" horiz-adv-x="1679" 
d="M502 675h86q-158 -375 -327 -675h-97q-56 370 -66 675h88q6 -268 47 -588h2q140 274 267 588zM803 0h-273l12 66h95l106 543h-95l13 66h273l-13 -66h-95l-106 -543h95zM1188 0h-273l12 66h95l106 543h-95l13 66h273l-13 -66h-95l-106 -543h95zM1573 0h-273l12 66h95
l106 543h-95l13 66h273l-13 -66h-95l-106 -543h95z" />
    <glyph glyph-name="uni2168" unicode="&#x2168;" horiz-adv-x="928" 
d="M279 0h-273l12 66h95l106 543h-95l13 66h273l-13 -66h-95l-106 -543h95zM850 0h-90q-46 163 -102 288h-2q-104 -125 -208 -288h-88q115 182 262 355q-68 157 -113 320h88q47 -165 88 -259h1q92 108 188 259h88q-101 -158 -239 -319q86 -201 127 -356z" />
    <glyph glyph-name="uni2169" unicode="&#x2169;" horiz-adv-x="543" 
d="M465 0h-90q-46 163 -102 288h-2q-104 -125 -208 -288h-88q115 182 262 355q-68 157 -113 320h88q47 -165 88 -259h1q92 108 188 259h88q-101 -158 -239 -319q86 -201 127 -356z" />
    <glyph glyph-name="uni216A" unicode="&#x216a;" horiz-adv-x="928" 
d="M465 0h-90q-46 163 -102 288h-2q-104 -125 -208 -288h-88q115 182 262 355q-68 157 -113 320h88q47 -165 88 -259h1q92 108 188 259h88q-101 -158 -239 -319q86 -201 127 -356zM822 0h-273l12 66h95l106 543h-95l13 66h273l-13 -66h-95l-106 -543h95z" />
    <glyph glyph-name="uni216B" unicode="&#x216b;" horiz-adv-x="1313" 
d="M465 0h-90q-46 163 -102 288h-2q-104 -125 -208 -288h-88q115 182 262 355q-68 157 -113 320h88q47 -165 88 -259h1q92 108 188 259h88q-101 -158 -239 -319q86 -201 127 -356zM822 0h-273l12 66h95l106 543h-95l13 66h273l-13 -66h-95l-106 -543h95zM1207 0h-273l12 66
h95l106 543h-95l13 66h273l-13 -66h-95l-106 -543h95z" />
    <glyph glyph-name="uni216C" unicode="&#x216c;" horiz-adv-x="421" 
d="M353 0h-311l131 675h83l-118 -608h228z" />
    <glyph glyph-name="uni216D" unicode="&#x216d;" horiz-adv-x="518" 
d="M421 134l31 -42q-92 -100 -209 -100q-91 0 -138.5 55.5t-47.5 162.5q0 74 19 153t55.5 152.5t100.5 120.5t145 47q120 0 157 -111l-46 -34q-34 78 -109 78q-73 0 -128.5 -66.5t-80.5 -154.5t-25 -174q0 -161 120 -161q78 0 156 74z" />
    <glyph glyph-name="uni216E" unicode="&#x216e;" horiz-adv-x="580" 
d="M553 446q0 -78 -30.5 -180.5t-100.5 -171.5q-96 -96 -242 -96q-27 0 -74.5 1t-63.5 1l131 675q26 0 72.5 0.5t71.5 0.5q121 0 178.5 -63t57.5 -167zM464 440q0 172 -160 172q-41 0 -60 -1l-107 -545q33 -3 61 -3q94 0 157 63q59 59 84 152.5t25 161.5z" />
    <glyph glyph-name="uni216F" unicode="&#x216f;" horiz-adv-x="840" 
d="M711 0h-87q57 340 74 574h-1l-301 -574h-65l-80 574h-1q-64 -219 -139 -574h-81q76 350 181 675h104l79 -539h1l285 539h108q-25 -364 -77 -675z" />
    <glyph glyph-name="arrowleft" unicode="&#x2190;" horiz-adv-x="1054" 
d="M70 338l365 365l38 -38q-149 -168 -277 -293l1 -1q320 6 638 6h135v-78h-135l-638 6l-1 -1q57 -56 126 -129t110 -119l41 -45l-38 -38z" />
    <glyph glyph-name="arrowup" unicode="&#x2191;" horiz-adv-x="870" 
d="M435 795l365 -365l-38 -38q-168 149 -293 277l-1 -1q6 -320 6 -638v-135h-78v135l6 638l-1 1q-56 -57 -129 -126t-118 -110l-46 -41l-38 38z" />
    <glyph glyph-name="arrowright" unicode="&#x2192;" horiz-adv-x="1054" 
d="M984 338l-365 -365l-38 38q149 168 277 293l-1 1q-320 -6 -638 -6h-135v78h135l638 -6l1 1q-57 56 -126 129t-110 119l-41 45l38 38z" />
    <glyph glyph-name="arrowdown" unicode="&#x2193;" horiz-adv-x="870" 
d="M435 -119l-365 365l38 38q168 -149 293 -277l1 1q-6 320 -6 638v135h78v-135l-6 -638l1 -1q56 57 129 126t118 110l46 41l38 -38z" />
    <glyph glyph-name="arrowboth" unicode="&#x2194;" horiz-adv-x="1250" 
d="M1180 338l-323 -323l-36 36q121 140 240 255l-1 1q-211 -4 -348 -4h-174l-348 4l-1 -1q53 -51 113 -115t94 -102l33 -38l-36 -36l-323 323l323 323l36 -36q-121 -140 -240 -255l1 -1q211 4 348 4h174l348 -4l1 1q-53 51 -113 115t-94 102l-33 38l36 36z" />
    <glyph glyph-name="arrowupdn" unicode="&#x2195;" horiz-adv-x="786" 
d="M393 -161l-323 323l36 36q140 -121 255 -240l1 1q-5 211 -5 348v62l5 348l-1 1q-51 -53 -115 -113t-102 -93l-38 -34l-36 36l323 323l323 -323l-36 -36q-140 121 -255 240l-1 -1q5 -211 5 -348v-62l-5 -348l1 -1q51 53 115 113t102 93l38 34l36 -36z" />
    <glyph glyph-name="arrownorthwest" unicode="&#x2196;" horiz-adv-x="846" 
d="M99 661h517v-54q-25 -1 -67.5 -3.5t-149.5 -5.5t-187 -2v-1q230 -221 456 -447l95 -96l-55 -55l-95 96q-100 100 -212 214t-174 178l-62 64l-1 -1q1 -79 -1.5 -180t-5.5 -162l-3 -61h-55v516z" />
    <glyph glyph-name="arrownortheast" unicode="&#x2197;" horiz-adv-x="846" 
d="M746 661v-516h-54q-1 25 -3.5 67.5t-5.5 149.5t-2 186l-1 1q-221 -230 -447 -456l-96 -96l-55 55l96 96q100 100 214 212t178 174l63 61v1q-79 -1 -180 2t-163 6l-61 3v54h517z" />
    <glyph glyph-name="arrowsoutheast" unicode="&#x2198;" horiz-adv-x="846" 
d="M746 15h-517v54q25 1 67.5 3.5t150 5.5t186.5 2v1q-229 221 -455 447l-96 96l55 55l96 -96q100 -100 212 -214t173 -178l62 -64l1 1q-1 79 2 180t6 162l3 61h54v-516z" />
    <glyph glyph-name="arrowsouthwest" unicode="&#x2199;" horiz-adv-x="846" 
d="M99 15v516h55q1 -25 3 -67.5t5 -149.5t2 -186l1 -1q222 230 448 456l95 96l55 -55l-95 -96q-100 -100 -214 -212t-178 -174l-64 -61v-1q80 1 181 -2t162 -6l61 -3v-54h-517z" />
    <glyph glyph-name="partialdiff" unicode="&#x2202;" horiz-adv-x="515" 
d="M36 167q0 54 14 107.5t44 105.5t87.5 84.5t134.5 32.5q45 0 71 -8q-25 98 -132 186l51 42q81 -58 125.5 -133.5t44.5 -186.5q0 -43 -7.5 -91.5t-27 -106t-49 -102.5t-79 -75t-111.5 -30q-84 0 -125 45.5t-41 129.5zM121 166q0 -112 94 -112q51 0 89.5 43.5t57 106.5
t26 121.5t4.5 100.5q-33 14 -90 14q-49 0 -86 -28t-56.5 -72t-29 -88.5t-9.5 -85.5z" />
    <glyph glyph-name="product" unicode="&#x220f;" horiz-adv-x="653" 
d="M698 609h-81l-118 -609h-83l118 609h-276l-118 -609h-83l118 609h-79l13 66h602z" />
    <glyph glyph-name="summation" unicode="&#x2211;" 
d="M404 0h-414l11 56l288 295l-166 266l11 58h388l-13 -65h-291l161 -261l-275 -282h313z" />
    <glyph glyph-name="minus" unicode="&#x2212;" 
d="M460 268h-415l12 60h415z" />
    <glyph glyph-name="uni2215" unicode="&#x2215;" horiz-adv-x="74" 
d="M439 703l-719 -772l-42 27l719 772z" />
    <glyph glyph-name="radical" unicode="&#x221a;" 
d="M484 675h81q-134 -338 -324 -675h-88l-25 438h-86l11 58h149l19 -406q154 300 263 585z" />
    <glyph glyph-name="infinity" unicode="&#x221e;" horiz-adv-x="1000" 
d="M961 345q0 -27 -6 -56t-22.5 -63.5t-41.5 -61.5t-68 -45t-97 -18q-48 0 -94 24t-80.5 60.5t-71 78.5t-66.5 78.5t-66.5 60.5t-72.5 24q-39 0 -68.5 -18.5t-43.5 -47t-20.5 -54.5t-6.5 -49q0 -91 91 -91q44 0 100.5 33.5t112.5 81.5t114.5 96t124 81.5t123.5 33.5
q78 0 118.5 -40t40.5 -108zM879 336q0 91 -91 91q-44 0 -100.5 -33.5t-113 -81.5t-114.5 -96t-124 -81.5t-123 -33.5q-79 0 -119.5 40t-40.5 108q0 27 6 56t22.5 63.5t41.5 61.5t68 45t97 18q48 0 94 -24t80.5 -60.5t71 -78.5t66.5 -78.5t66.5 -60.5t72.5 -24
q39 0 68.5 18.5t44 47t21 54.5t6.5 49z" />
    <glyph glyph-name="integral" unicode="&#x222b;" horiz-adv-x="400" 
d="M458 695l-22 -48q-31 11 -54 11q-37 0 -57.5 -21t-29.5 -67l-115 -595q-16 -80 -54.5 -116.5t-101.5 -36.5q-44 0 -88 22l23 48q31 -11 54 -11q37 0 57 21t29 67l116 596q31 152 156 152q45 0 87 -22z" />
    <glyph glyph-name="uni2236" unicode="&#x2236;" horiz-adv-x="332" 
d="M131 79q-24 0 -34 7t-10 24q0 37 16 53q13 13 45 13q24 0 34 -7t10 -25q0 -37 -16 -53q-12 -12 -45 -12zM209 478q-24 0 -34 7t-10 25q0 37 16 53q12 12 45 12q24 0 34 -7t10 -24q0 -37 -16 -53q-13 -13 -45 -13z" />
    <glyph glyph-name="approxequal" unicode="&#x2248;" 
d="M457 440l23 -44q-65 -59 -125 -59q-44 0 -92 28t-80 28q-35 0 -90 -45l-24 44q65 59 125 59q44 0 92 -28t80 -28q35 0 91 45zM419 247l24 -44q-66 -59 -125 -59q-44 0 -92 28t-81 28q-34 0 -90 -45l-23 44q65 59 125 59q43 0 91 -28t81 -28q34 0 90 45z" />
    <glyph glyph-name="notequal" unicode="&#x2260;" 
d="M437 176h-228l-113 -156l-54 27l96 129h-106l10 55h133l98 133h-204l11 55h230l114 156l53 -26l-96 -130h104l-11 -55h-130l-98 -133h202z" />
    <glyph glyph-name="lessequal" unicode="&#x2264;" 
d="M405 0h-412l11 57h411zM441 185l-36 -56l-352 183l10 53l423 183l14 -58l-363 -152z" />
    <glyph glyph-name="greaterequal" unicode="&#x2265;" 
d="M405 0h-412l11 57h411zM465 312l-423 -183l-14 58l363 152l-303 153l36 56l351 -183z" />
    <glyph glyph-name="filledbox" unicode="&#x25a0;" horiz-adv-x="1100" 
d="M914 -108h-871l173 892h871z" />
    <glyph glyph-name="uni25A1" unicode="&#x25a1;" horiz-adv-x="1100" 
d="M930 -117h-906l177 910h906zM874 -60l155 796h-773l-155 -796h773z" />
    <glyph glyph-name="uni25B2" unicode="&#x25b2;" horiz-adv-x="800" 
d="M400 701l278 -667h-556z" />
    <glyph glyph-name="uni25B3" unicode="&#x25b3;" horiz-adv-x="800" 
d="M689 27h-578l289 692zM590 93l-190 456l-190 -456h380z" />
    <glyph glyph-name="uni25B6" unicode="&#x25b6;" horiz-adv-x="823" 
d="M774 338l-666 -278v556z" />
    <glyph glyph-name="uni25B7" unicode="&#x25b7;" horiz-adv-x="823" 
d="M793 338l-692 -289v578zM166 528v-380l456 190z" />
    <glyph glyph-name="uni25BC" unicode="&#x25bc;" horiz-adv-x="800" 
d="M678 642l-278 -667l-278 667h556z" />
    <glyph glyph-name="uni25BD" unicode="&#x25bd;" horiz-adv-x="800" 
d="M689 649l-289 -692l-289 692h578zM210 583l190 -456l190 456h-380z" />
    <glyph glyph-name="uni25C0" unicode="&#x25c0;" horiz-adv-x="823" 
d="M715 616v-556l-666 278z" />
    <glyph glyph-name="uni25C1" unicode="&#x25c1;" horiz-adv-x="823" 
d="M722 627v-578l-692 289zM201 338l455 -190v380z" />
    <glyph glyph-name="lozenge" unicode="&#x25ca;" 
d="M489 340l-258 -340h-67l-123 335l258 340h67zM413 338l-98 257l-197 -258l97 -257z" />
    <glyph glyph-name="circle" unicode="&#x25cb;" horiz-adv-x="1100" 
d="M1057 471q0 -118 -41 -246.5t-130 -217.5q-153 -152 -414 -152q-206 0 -302.5 95t-96.5 255q0 118 41 246.5t130 217.5q153 152 414 152q206 0 302.5 -95t96.5 -255zM990 469q0 295 -343 295q-220 0 -353 -131q-84 -84 -119 -204.5t-35 -221.5q0 -295 343 -295
q220 0 353 131q84 84 119 204.5t35 221.5z" />
    <glyph glyph-name="uni25CF" unicode="&#x25cf;" horiz-adv-x="1100" 
d="M1044 468q0 -115 -40.5 -240t-127.5 -212q-149 -149 -400 -149q-200 0 -295.5 93t-95.5 249q0 115 40.5 240t127.5 212q148 148 400 148q200 0 295.5 -93t95.5 -248z" />
    <glyph glyph-name="uniE1C2" unicode="&#xe1c2;" horiz-adv-x="1100" 
d="M637 56h95l-188 304l276 263h-94l-253 -247h-1l49 247h-82l-110 -567h82l53 275h1zM1044 468q0 -115 -40.5 -240t-127.5 -212q-149 -149 -400 -149q-200 0 -295.5 93t-95.5 249q0 115 40.5 240t127.5 212q148 148 400 148q200 0 295.5 -93t95.5 -248z" />
    <glyph glyph-name="uniE1C3" unicode="&#xe1c3;" horiz-adv-x="1100" 
d="M1044 468q0 -115 -40.5 -240t-127.5 -212q-149 -149 -400 -149q-200 0 -295.5 93t-95.5 249q0 115 40.5 240t127.5 212q148 148 400 148q200 0 295.5 -93t95.5 -248zM350 72h317l11 59h-108l61 315h-200l-11 -58h117l-50 -257h-127zM604 526q35 0 48 13q8 8 13 28.5
t5 33.5q0 29 -52 29q-35 0 -47 -13q-8 -8 -13 -28.5t-5 -33.5q0 -29 51 -29z" />
    <glyph glyph-name="uniE1C4" unicode="&#xe1c4;" horiz-adv-x="1100" 
d="M729 56h-95l-172 275h-1l-53 -275h-82l110 567h82l-49 -247h1l253 247h94l-276 -263zM1057 471q0 -118 -41 -246.5t-130 -217.5q-153 -152 -414 -152q-206 0 -302.5 95t-96.5 255q0 118 41 246.5t130 217.5q153 152 414 152q206 0 302.5 -95t96.5 -255zM990 469
q0 295 -343 295q-220 0 -353 -131q-84 -84 -119 -204.5t-35 -221.5q0 -295 343 -295q220 0 353 131q84 84 119 204.5t35 221.5z" />
    <glyph glyph-name="apple" unicode="&#xf8ff;" horiz-adv-x="1000" 
d="M769 404q0 -111 -72 -185v-85l-18 -5l35 -81l-33 -10l33 -77l-35 -10l12 -27l-33 -75h-58q-3 -21 -31 -35t-68 -14q-41 0 -69 14t-31 35h-58l-57 136l34 10l-34 81l37 9l-20 50v85q-72 77 -72 184q0 112 78.5 190t191.5 78q111 0 189.5 -78t78.5 -190zM546 399
q-28 2 -43 2q-34 0 -49 -2l16 -153h61zM170 380l-125 -9q-2 33 0 65l125 -9q-2 -23 0 -47zM283 654q-20 -18 -33 -34l-95 82q22 25 46 46zM534 883l-10 -149q-24 2 -48 0l-10 149q20 2 34 2t34 -2zM845 702l-95 -82q-10 13 -33 34l82 94q25 -21 46 -46zM955 371l-125 9
q2 25 0 47l125 9q2 -33 0 -65zM708 404q0 86 -61 146.5t-146 60.5q-86 0 -147.5 -61t-61.5 -146q0 -96 73 -158h61l-17 145q-18 -4 -41 -13q-10 -3 -15 10t-2.5 29t9.5 18q69 22 141 22q69 0 142 -22q6 -2 8.5 -18t-2.5 -29t-15 -10q-32 11 -43 13l-16 -145h61q72 63 72 158
zM635 165v31h-270v-56l16 -40zM638 75l-17 40l-260 -67l17 -40zM639 -14l-16 39l-261 -67l27 -65h223l15 33l-7 13l-79 -20l-14 39zM489 425h2v1h-1l2 5h-1l-2 -5q-1 -1 0 -1zM496 427l1 2h-1l-1 -2h-1l1 2h-1l-1 -2q-1 -1 0 -2q1 1 3 2zM499 426l-1 2l2 1q-1 2 -2 0
q-2 -3 -1 -4q0 -1 2 1zM504 425l1 4q-4 1 -4 -3v-1q1 -1 3 2v-2zM509 429q-3 1 -3 0v-2q1 -1 1 -1.5t-2 -0.5q4 -1 2 2v1.5t2 0.5zM507 423q6 4 3 9q0 -4 -3 -9zM503 432q-6 -4 -3 -9q0 5 3 9zM504 429z" />
    <glyph glyph-name="s_t" unicode="&#xfb06;" horiz-adv-x="727" 
d="M653 69l4 -48q-63 -29 -113 -29q-100 0 -100 84q0 21 7 59l59 303h-79l11 58h79l6 29q13 67 -6.5 96.5t-71.5 29.5q-55 0 -87.5 -34t-32.5 -83q0 -40 35 -59l-19 -44q-47 15 -90 15q-48 0 -78 -22.5t-30 -63.5q0 -25 19.5 -42.5t48 -29.5t56.5 -26t47.5 -40.5t19.5 -64.5
q0 -73 -55.5 -119t-146.5 -46q-82 0 -139 35l16 45q66 -21 117 -21q55 0 88.5 24.5t33.5 69.5q0 26 -19.5 44.5t-47.5 30.5t-55.5 26t-47 39.5t-19.5 62.5q0 66 48.5 111t134.5 45l42 -4q-19 15 -19 50q0 62 51.5 110.5t141.5 48.5q179 0 144 -183l-6 -30h135l-12 -58h-134
l-56 -287q-7 -36 -7 -56q0 -22 11 -32t37 -10q30 0 79 16z" />
    <glyph glyph-name="uniFEFF" unicode="&#xfeff;" horiz-adv-x="0" 
 />
    <glyph glyph-name="u1F137" unicode="&#x1f137;" horiz-adv-x="1100" 
d="M722 56h-81l51 263h-272l-51 -263h-82l110 567h81l-46 -236h272l47 236h81zM930 -117h-906l177 910h906zM874 -60l155 796h-773l-155 -796h773z" />
    <glyph glyph-name="u1F13F" unicode="&#x1f13f;" horiz-adv-x="1100" 
d="M794 488q0 -38 -12 -74t-40 -72.5t-86 -59t-138 -22.5h-60l-39 -204h-80l109 567q22 0 71.5 0.5t82.5 0.5q104 0 148 -35t44 -101zM708 479q0 44 -26 64.5t-97 20.5h-67l-48 -244h58q44 0 77.5 11t52.5 27t31 38.5t15.5 42t3.5 40.5zM930 -117h-906l177 910h906zM874 -60
l155 796h-773l-155 -796h773z" />
    <glyph glyph-name="u1F177" unicode="&#x1f177;" horiz-adv-x="1100" 
d="M646 56h81l110 567h-81l-47 -236h-272l46 236h-81l-110 -567h82l51 263h272zM914 -108h-871l173 892h871z" />
    <glyph glyph-name="u1F17F" unicode="&#x1f17f;" horiz-adv-x="1100" 
d="M914 -108h-871l173 892h871zM810 488q0 66 -44.5 101t-148.5 35q-32 0 -82 -0.5t-71 -0.5l-110 -567h81l39 204h60q80 0 137.5 22.5t86 59t40.5 72.5t12 74zM724 479q0 -27 -7 -51.5t-25 -50.5t-56 -41.5t-92 -15.5h-58l47 244h68q70 0 96.5 -20.5t26.5 -64.5z" />
    <glyph glyph-name="U1F6C8" unicode="&#x1f6c8;" horiz-adv-x="1100" 
d="M1057 471q0 -118 -41 -246.5t-130 -217.5q-153 -152 -414 -152q-206 0 -302.5 95t-96.5 255q0 118 41 246.5t130 217.5q153 152 414 152q206 0 302.5 -95t96.5 -255zM990 469q0 295 -343 295q-220 0 -353 -131q-84 -84 -119 -204.5t-35 -221.5q0 -295 343 -295
q220 0 353 131q84 84 119 204.5t35 221.5zM670 72h-318l11 58h126l50 258h-116l11 58h199l-61 -316h109zM607 526q-28 0 -40 6.5t-12 22.5q0 13 5.5 34t12.5 28q13 12 48 12q28 0 39.5 -6.5t11.5 -22.5q0 -13 -5.5 -33.5t-12.5 -27.5q-12 -13 -47 -13z" />
    <glyph glyph-name="L_a_t_n_C_a_p_s" horiz-adv-x="918" 
d="M207 500h-155v337h41v-304h114v-33zM422 500h-30l-4 28q-39 -32 -78 -32q-72 0 -72 67q0 38 31 60.5t95 22.5h19v26q0 50 -56 50q-29 0 -70 -15l-6 26q46 18 87 18q84 0 84 -73v-178zM383 554v65h-23q-47 0 -64.5 -13.5t-17.5 -37.5q0 -43 43 -43q30 0 62 29zM617 535
l5 -24q-30 -15 -56 -15q-31 0 -44 15t-13 51v157h-40v28h40q6 28 11 71h29v-71h66v-28h-66v-147q0 -26 6 -36t23 -10q16 0 39 9zM863 500h-39q0 24 0.5 70.5t0.5 62.5q0 86 -48 86q-26 0 -60 -29v-190h-40v247h33l3 -28q40 33 78 33q74 0 74 -110q0 -15 -1 -65.5t-1 -76.5z
M198 67l18 -21q-39 -50 -98 -50q-57 0 -87.5 42.5t-30.5 124.5q0 83 33.5 130.5t89.5 47.5q59 0 87 -55l-21 -17q-23 39 -63 39q-41 0 -61.5 -39.5t-20.5 -96.5q0 -142 82 -142q38 0 72 37zM436 0h-30l-4 28q-39 -32 -78 -32q-72 0 -72 67q0 38 31 60.5t95 22.5h19v26
q0 50 -56 50q-29 0 -70 -15l-6 26q46 18 87 18q84 0 84 -73v-178zM397 54v65h-23q-47 0 -64.5 -13.5t-17.5 -37.5q0 -43 43 -43q30 0 62 29zM560 -87h-39v334h31l4 -27q39 32 72 32q38 0 61 -33t23 -86q0 -69 -33 -103t-87 -34q-21 0 -32 1v-84zM560 192v-161q18 -6 39 -6
q32 0 52 25.5t20 75.5q0 42 -14.5 68t-38.5 26q-27 0 -58 -28zM758 13l5 23q33 -11 60 -11q26 0 39.5 11.5t13.5 28.5q0 19 -18.5 31t-40 18t-40 23.5t-18.5 46.5q0 30 22.5 48.5t58.5 18.5q33 0 59 -13l-6 -23q-26 8 -46 8q-22 0 -34.5 -10t-12.5 -26q0 -19 18.5 -31
t40.5 -18t40.5 -23.5t18.5 -45.5q0 -33 -24 -53t-65 -20q-37 0 -71 17z" />
    <glyph glyph-name="IJ.alt1" horiz-adv-x="540" 
d="M125 0h-83l131 675h83zM530 675l-88 -448q-27 -142 -145 -237l-46 37q48 44 72.5 92t37.5 116l86 440h83z" />
    <glyph glyph-name="IJ.alt2" horiz-adv-x="540" 
d="M125 0h-83l131 675h83zM530 675l-118 -604q-11 -57 -27.5 -96.5t-46.5 -72.5t-77 -52.5t-115 -27.5l-3 52q91 18 129.5 61.5t56.5 137.5l118 602h83z" />
    <glyph glyph-name="J.alt1" horiz-adv-x="274" 
d="M264 675l-88 -448q-27 -142 -145 -237l-46 37q48 44 72.5 92t37.5 116l86 440h83z" />
    <glyph glyph-name="J.alt2" horiz-adv-x="274" 
d="M264 675l-118 -604q-11 -57 -27.5 -96.5t-46.5 -72.5t-77 -52.5t-115 -27.5l-3 52q91 18 129.5 61.5t56.5 137.5l118 602h83z" />
    <glyph glyph-name="Jcircumflex.alt2" horiz-adv-x="274" 
d="M264 675l-118 -604q-11 -57 -27.5 -96.5t-46.5 -72.5t-77 -52.5t-115 -27.5l-3 52q91 18 129.5 61.5t56.5 137.5l118 602h83zM254 854l129 -90l-29 -36l-109 61l-134 -61l-17 36z" />
    <glyph glyph-name="Jcircumflex.alt1" horiz-adv-x="274" 
d="M264 675l-88 -448q-27 -142 -145 -237l-46 37q48 44 72.5 92t37.5 116l86 440h83zM253 854l129 -90l-29 -36l-109 61l-134 -61l-17 36z" />
    <glyph glyph-name="L_a_t_n_L_o_w_e_r" horiz-adv-x="1189" 
d="M327 500h-155v337h41v-304h114v-33zM542 500h-30l-4 28q-39 -32 -78 -32q-72 0 -72 67q0 38 31 60.5t95 22.5h19v26q0 50 -56 50q-29 0 -70 -15l-6 26q46 18 87 18q84 0 84 -73v-178zM503 554v65h-23q-47 0 -64.5 -13.5t-17.5 -37.5q0 -43 43 -43q30 0 62 29zM737 535
l5 -24q-30 -15 -56 -15q-31 0 -44 15t-13 51v157h-39v28h40q5 31 10 71h29v-71h66v-28h-66v-147q0 -26 6 -36t23 -10q16 0 39 9zM983 500h-39q0 24 0.5 70.5t0.5 62.5q0 86 -47 86q-27 0 -61 -29v-190h-40v247h33l3 -28q40 33 78 33q74 0 74 -110q0 -15 -1 -65.5t-1 -76.5z
M156 0h-156v337h42v-304h114v-33zM395 128q0 -66 -29.5 -99t-80.5 -33q-99 0 -99 123q0 66 29 99.5t80 33.5q100 0 100 -124zM354 117q0 56 -15.5 80t-48.5 24q-64 0 -64 -91q0 -56 16 -80t48 -24q64 0 64 91zM727 247h40q-22 -120 -72 -247h-42l-49 166l-8 32l-6 -32
l-43 -166h-45l-73 247h43l44 -157l12 -44l8 37l42 164h42l50 -169l8 -31q36 113 49 200zM997 119h-149v-5q0 -87 69 -87q35 0 72 15l8 -24q-42 -22 -90 -22q-100 0 -100 121q0 64 27 99.5t75 35.5q96 0 88 -133zM848 146h110v1q0 76 -52 76q-26 0 -41 -21.5t-17 -55.5z
M1189 246l-4 -36q-15 3 -20 3q-20 0 -57 -45v-168h-39v247h32l5 -44q36 48 63 48q11 0 20 -5z" />
    <glyph glyph-name="c_h" horiz-adv-x="937" 
d="M803 0h-78q14 74 33 163t26 127t7 64q0 85 -65 85q-51 0 -102.5 -69t-71.5 -172l-39 -198h-79l127 653q-23 6 -58 6q-40 0 -68.5 -12t-42 -32t-19.5 -38t-6 -36q0 -44 44 -89l-35 -44q-35 35 -86 35q-43 0 -77 -30t-52.5 -75.5t-28 -90t-9.5 -82.5q0 -111 91 -111
q50 0 114 51l21 -42q-81 -71 -158 -71q-73 0 -112 42t-39 126q0 50 14 106.5t41.5 111t77.5 90t114 35.5q29 0 41 -10q-21 19 -21 59q0 28 11 54.5t34.5 52.5t71 42t111.5 16q24 0 53 -2.5t46 -4.5l17 -2l-47 -241q-10 -40 -22 -86q30 53 75 88t97 35q117 0 117 -134
q0 -34 -8 -77.5t-27 -132t-33 -160.5z" />
    <glyph glyph-name="c_k" horiz-adv-x="857" 
d="M790 0h-91l-133 259h-2l-50 -259h-79l126 653q-23 6 -58 6q-40 0 -68.5 -12t-42 -32t-19.5 -38t-6 -36q0 -44 44 -89l-35 -44q-35 35 -86 35q-43 0 -77 -30t-52.5 -75.5t-28 -90t-9.5 -82.5q0 -111 91 -111q50 0 114 51l21 -42q-81 -71 -158 -71q-73 0 -112 42t-39 126
q0 50 14 106.5t41.5 111t77.5 90t114 35.5q29 0 41 -10q-21 19 -21 59q0 28 11 54.5t34.5 52.5t71 42t111.5 16q24 0 53 -2.5t46 -4.5l17 -2l-82 -418h3l195 206h100l-225 -217z" />
    <glyph glyph-name="c_t" horiz-adv-x="763" 
d="M759 438h-134l-55 -287q-8 -42 -8 -56q0 -23 11 -32.5t37 -9.5q29 0 78 16l6 -48q-67 -29 -115 -29q-51 0 -74.5 20t-23.5 64q0 27 6 59l59 303h-79l11 58h80l5 29q13 67 -6 96.5t-72 29.5t-85.5 -32t-32.5 -80q0 -43 43 -86l-33 -45q-36 35 -85 35q-45 0 -80 -30.5
t-53 -76.5t-27 -90t-9 -81q0 -111 91 -111q62 0 125 53l23 -42q-81 -73 -169 -73q-153 0 -153 168q0 51 14 107.5t42 111t78.5 89.5t114.5 35q26 0 39 -9q-22 19 -22 55q0 67 53 113.5t144 46.5q173 0 140 -181l-6 -32h134z" />
    <glyph glyph-name="ccedilla_t" horiz-adv-x="763" 
d="M759 438h-134l-55 -287q-8 -42 -8 -56q0 -23 11 -32.5t37 -9.5q29 0 78 16l6 -48q-67 -29 -115 -29q-51 0 -74.5 20t-23.5 64q0 27 6 59l59 303h-79l11 58h80l5 29q13 67 -6 96.5t-72 29.5t-85.5 -32t-32.5 -80q0 -43 43 -86l-33 -45q-36 35 -85 35q-45 0 -80 -30.5
t-53 -76.5t-27 -90t-9 -81q0 -111 91 -111q62 0 125 53l23 -42q-81 -73 -169 -73q-153 0 -153 168q0 51 14 107.5t42 111t78.5 89.5t114.5 35q26 0 39 -9q-22 19 -22 55q0 67 53 113.5t144 46.5q173 0 140 -181l-6 -32h134zM138 -43h70q-3 -80 -93 -136l-41 25
q34 27 48 50.5t16 60.5z" />
    <glyph glyph-name="i.dotaccent" horiz-adv-x="248" 
d="M113 0h-79l96 496h79zM191 592q-46 0 -46 26q0 12 4.5 30t11.5 24q12 12 43 12q45 0 45 -26q0 -12 -4.5 -30t-10.5 -24q-14 -12 -43 -12z" />
    <glyph glyph-name="ij.alt1" horiz-adv-x="537" 
d="M499 496l-93 -480q-22 -111 -77.5 -152.5t-148.5 -41.5q-76 0 -149 30l17 46q82 -15 137 -15q61 0 93 25.5t45 87.5l7 34q12 52 21 84h-1q-28 -51 -73 -85.5t-97 -34.5q-117 0 -117 134q0 34 7 76.5t26.5 132t32.5 159.5h79q-12 -63 -26.5 -132t-21.5 -102t-12 -65
t-5 -53q0 -85 65 -85q51 0 102 67t70 165l40 205h79zM193 592q-46 0 -46 26q0 12 4.5 30t11.5 24q12 12 43 12q45 0 45 -26q0 -12 -4.5 -30t-11.5 -24q-12 -12 -42 -12zM478 592q-46 0 -46 26q0 12 4.5 30t11.5 24q12 12 43 12q45 0 45 -26q0 -12 -4.5 -30t-11.5 -24
q-12 -12 -42 -12z" />
    <glyph glyph-name="i_j" horiz-adv-x="537" 
d="M499 496l-93 -480q-22 -111 -77.5 -152.5t-148.5 -41.5q-76 0 -149 30l17 46q82 -15 137 -15q61 0 93 25.5t45 87.5l7 34q12 52 21 84h-1q-28 -51 -73 -85.5t-97 -34.5q-117 0 -117 134q0 34 7 76.5t26.5 132t32.5 159.5h79q-12 -63 -26.5 -132t-21.5 -102t-12 -65
t-5 -53q0 -85 65 -85q51 0 102 67t70 165l40 205h79zM193 592q-46 0 -46 26q0 12 4.5 30t11.5 24q12 12 43 12q45 0 45 -26q0 -12 -4.5 -30t-11.5 -24q-12 -12 -42 -12zM478 592q-46 0 -46 26q0 12 4.5 30t11.5 24q12 12 43 12q45 0 45 -26q0 -12 -4.5 -30t-11.5 -24
q-12 -12 -42 -12z" />
    <glyph glyph-name="scedilla_t" horiz-adv-x="727" 
d="M653 69l4 -48q-63 -29 -113 -29q-100 0 -100 84q0 21 7 59l59 303h-79l11 58h79l6 29q13 67 -6.5 96.5t-71.5 29.5q-55 0 -87.5 -34t-32.5 -83q0 -40 35 -59l-19 -44q-47 15 -90 15q-48 0 -78 -22.5t-30 -63.5q0 -25 19.5 -42.5t48 -29.5t56.5 -26t47.5 -40.5t19.5 -64.5
q0 -73 -55.5 -119t-146.5 -46q-82 0 -139 35l16 45q66 -21 117 -21q55 0 88.5 24.5t33.5 69.5q0 26 -19.5 44.5t-47.5 30.5t-55.5 26t-47 39.5t-19.5 62.5q0 66 48.5 111t134.5 45l42 -4q-19 15 -19 50q0 62 51.5 110.5t141.5 48.5q179 0 144 -183l-6 -30h135l-12 -58h-134
l-56 -287q-7 -36 -7 -56q0 -22 11 -32t37 -10q30 0 79 16zM95 -43h70q-3 -80 -93 -136l-41 25q34 27 48 50.5t16 60.5z" />
    <glyph glyph-name="scommaaccent_t" horiz-adv-x="727" 
d="M653 69l4 -48q-63 -29 -113 -29q-100 0 -100 84q0 21 7 59l59 303h-79l11 58h79l6 29q13 67 -6.5 96.5t-71.5 29.5q-55 0 -87.5 -34t-32.5 -83q0 -40 35 -59l-19 -44q-47 15 -90 15q-48 0 -78 -22.5t-30 -63.5q0 -25 19.5 -42.5t48 -29.5t56.5 -26t47.5 -40.5t19.5 -64.5
q0 -73 -55.5 -119t-146.5 -46q-82 0 -139 35l16 45q66 -21 117 -21q55 0 88.5 24.5t33.5 69.5q0 26 -19.5 44.5t-47.5 30.5t-55.5 26t-47 39.5t-19.5 62.5q0 66 48.5 111t134.5 45l42 -4q-19 15 -19 50q0 62 51.5 110.5t141.5 48.5q179 0 144 -183l-6 -30h135l-12 -58h-134
l-56 -287q-7 -36 -7 -56q0 -22 11 -32t37 -10q30 0 79 16zM133 -38q35 0 35 -31q0 -74 -120 -109l-10 30q58 25 58 50q0 2 -2 9t-2 16q0 16 10.5 25.5t30.5 9.5z" />
    <glyph glyph-name="grave.cap" horiz-adv-x="348" 
d="M375 765l-29 -37l-171 72l45 54z" />
    <glyph glyph-name="acute.cap" horiz-adv-x="348" 
d="M381 795l-191 -67l-20 40l181 86z" />
    <glyph glyph-name="circumflex.cap" horiz-adv-x="431" 
d="M329 854l129 -90l-29 -36l-109 61l-134 -61l-17 36z" />
    <glyph glyph-name="caron.cap" horiz-adv-x="431" 
d="M309 728l-130 90l29 36l109 -62l134 62l17 -38z" />
    <glyph glyph-name="uni0315.cap" horiz-adv-x="242" 
d="M263 735l-88 -170l-43 9l68 176z" />
    <glyph glyph-name="tilde.cap" horiz-adv-x="477" 
d="M473 839l36 -25q-28 -44 -52 -62.5t-60 -18.5q-35 0 -71 27.5t-51 27.5q-16 0 -29.5 -11t-37.5 -42l-35 25q27 44 51.5 62.5t60.5 18.5q27 0 49.5 -13.5t39.5 -27.5t32 -14q16 0 29.5 11t37.5 42z" />
    <glyph glyph-name="dieresis.cap" horiz-adv-x="428" 
d="M458 792q0 -31 -12 -43q-10 -11 -38 -11q-21 0 -30 6t-9 21q0 29 12 43q12 11 39 11q21 0 29.5 -5.5t8.5 -21.5zM259 792q0 -31 -12 -43q-10 -11 -38 -11q-21 0 -29.5 5.5t-8.5 21.5q0 31 12 43q11 11 38 11q21 0 29.5 -5.5t8.5 -21.5z" />
    <glyph glyph-name="dieresis.cap.narrow" horiz-adv-x="372" 
d="M403 792q0 -29 -12 -43q-11 -11 -37 -11q-21 0 -29 6t-8 21q0 31 12 43q11 11 37 11q21 0 29 -6t8 -21zM257 792q0 -31 -12 -43q-10 -11 -37 -11q-21 0 -29 6t-8 21q0 29 12 43q11 11 37 11q21 0 29 -6t8 -21z" />
    <glyph glyph-name="dieresis.narrow" horiz-adv-x="385" 
d="M390 654q0 -34 -14 -46q-11 -11 -37 -11q-38 0 -38 27q0 34 14 46q11 11 37 11q38 0 38 -27zM232 654q0 -34 -14 -46q-11 -11 -37 -11q-38 0 -38 27q0 34 14 46q11 11 37 11q38 0 38 -27z" />
    <glyph glyph-name="macron.cap" horiz-adv-x="413" 
d="M437 751h-270l10 56h270z" />
    <glyph glyph-name="breve.cap" horiz-adv-x="408" 
d="M402 854h51q-12 -62 -55 -97t-101 -35q-64 0 -93 36.5t-17 95.5h50q-7 -32 10.5 -53t56.5 -21t65.5 20.5t32.5 53.5z" />
    <glyph glyph-name="ring.cap" horiz-adv-x="341" 
d="M255 692q-85 0 -85 61q0 42 29.5 71.5t85.5 29.5q86 0 86 -61q0 -42 -30 -71.5t-86 -29.5zM315 789q0 26 -38 26q-52 0 -52 -57q0 -27 37 -27q53 0 53 58z" />
    <glyph glyph-name="ring.big" horiz-adv-x="294" 
d="M346 757q0 -46 -30 -76.5t-85 -30.5q-91 0 -91 68q0 46 31 76.5t85 30.5q90 0 90 -68zM288 753q0 29 -36 29q-55 0 -55 -59q0 -14 7.5 -21.5t29.5 -7.5q54 0 54 59z" />
    <glyph glyph-name="ringacute.cap" horiz-adv-x="340" 
d="M220 845l150 40l13 -38l-155 -28zM252 691q-86 0 -86 51q0 28 27 44t71 16q86 0 86 -51q0 -28 -27 -44t-71 -16zM296 748q0 25 -36 25q-41 0 -41 -28q0 -25 37 -25q40 0 40 28z" />
    <glyph glyph-name="ringacute" horiz-adv-x="360" 
d="M231 778l119 107l53 -37l-136 -94zM225 548q-84 0 -84 65q0 38 30 67.5t84 29.5q84 0 84 -65q0 -39 -29.5 -68t-84.5 -29zM285 641q0 30 -36 30q-28 0 -41 -16t-13 -38q0 -30 35 -30q29 0 42 16t13 38z" />
    <glyph glyph-name="hungarumlaut.cap" horiz-adv-x="534" 
d="M570 810l-190 -87l-26 29l178 104zM374 821l-179 -100l-29 27l164 115z" />
    <glyph glyph-name="dotaccent.cap" horiz-adv-x="241" 
d="M213 738q-23 0 -32 6t-9 19q0 31 14 47q11 11 44 11q24 0 32.5 -5.5t8.5 -19.5q0 -33 -14 -47q-13 -11 -44 -11z" />
    <glyph glyph-name="dotaccent.i" horiz-adv-x="242" 
d="M188 592q-46 0 -46 26q0 12 4.5 30t11.5 24q12 12 43 12q45 0 45 -26q0 -12 -4.5 -30t-11.5 -24q-12 -12 -42 -12z" />
    <glyph glyph-name="dotaccent.asc" horiz-adv-x="239" 
d="M220 779q-25 0 -33.5 5t-8.5 18q0 33 14 49q11 10 44 10q25 0 34 -5.5t9 -17.5q0 -34 -15 -49q-10 -10 -44 -10z" />
    <glyph glyph-name="exclamdown.cap" horiz-adv-x="367" 
d="M56 0l119 526h66l-87 -526h-98zM237 682q26 0 36.5 -7t10.5 -26q0 -35 -15 -52q-14 -13 -47 -13q-26 0 -36.5 7t-10.5 26q0 38 15 51q14 14 47 14z" />
    <glyph glyph-name="questiondown.cap" 
d="M46 120q0 46 20 84t50 65.5t61 53.5t57.5 60.5t34.5 73.5l15 69h67l-13 -81q-5 -40 -28 -76t-51.5 -62.5t-56 -52t-46.5 -55.5t-19 -62q0 -80 96 -80q62 0 131 21l10 -50q-93 -36 -166 -36q-81 0 -121.5 34.5t-40.5 93.5zM343 682q26 0 36.5 -7t10.5 -26q0 -37 -15 -52
q-14 -13 -47 -13q-26 0 -36.5 7t-10.5 26q0 38 15 51q14 14 47 14z" />
    <glyph glyph-name="guilsinglleft.cap" horiz-adv-x="303" 
d="M212 171l-55 -18l-88 194l159 190l51 -23l-126 -171z" />
    <glyph glyph-name="guilsinglright.cap" horiz-adv-x="304" 
d="M127 519l55 18l87 -194l-158 -190l-51 23l126 171z" />
    <glyph glyph-name="guillemotleft.cap" horiz-adv-x="504" 
d="M208 171l-54 -18l-88 193l159 191l50 -23l-126 -170zM402 177l-52 -17l-85 186l153 184l48 -21l-119 -165z" />
    <glyph glyph-name="guillemotright.cap" horiz-adv-x="504" 
d="M331 519l53 18l88 -193l-159 -191l-49 22l126 171zM136 513l53 17l85 -186l-154 -184l-49 21l121 165z" />
    <glyph glyph-name="bar.cap" horiz-adv-x="252" 
d="M87 -123h-72l180 926h72z" />
    <glyph glyph-name="brokenbar.cap" horiz-adv-x="252" 
d="M86 -123h-68l71 371h69zM191 416h-69l76 390h68z" />
    <glyph glyph-name="hyphen.cap" horiz-adv-x="233" 
d="M241 311h-200l13 62h200z" />
    <glyph glyph-name="endash.cap" 
d="M465 314h-409l12 61h410z" />
    <glyph glyph-name="emdash.cap" horiz-adv-x="1000" 
d="M861 314h-701l11 61h701z" />
    <glyph glyph-name="uni2015.cap" horiz-adv-x="1000" 
d="M861 314h-701l11 61h701z" />
    <glyph glyph-name="periodcentered.cap" horiz-adv-x="261" 
d="M140 296q-25 0 -35 6.5t-10 23.5q0 43 16 59q13 13 45 13q25 0 35.5 -7t10.5 -23q0 -43 -17 -60q-12 -12 -45 -12z" />
    <glyph glyph-name="parenleft.cap" horiz-adv-x="310" 
d="M191 -103l-56 -19q-59 129 -59 293q0 154 59.5 311.5t170.5 292.5l51 -22q-97 -135 -151.5 -291t-54.5 -308q0 -135 40 -257z" />
    <glyph glyph-name="parenright.cap" horiz-adv-x="310" 
d="M147 757l55 19q59 -126 59 -292q0 -152 -57 -308t-173 -297l-50 22q205 287 205 598q0 139 -39 258z" />
    <glyph glyph-name="bracketleft.cap" horiz-adv-x="354" 
d="M213 -123h-166l177 912h166l-10 -53h-96l-157 -806h96z" />
    <glyph glyph-name="bracketright.cap" horiz-adv-x="354" 
d="M159 -123h-167l10 53h96l157 806h-96l10 53h167z" />
    <glyph glyph-name="braceleft.cap" horiz-adv-x="388" 
d="M232 -123h-38q-65 0 -86 31.5t-9 93.5l41 211q20 95 -55 95h-23l12 60h22q74 0 92 92l40 205q23 124 147 124h35l-11 -50h-26q-29 0 -48.5 -19.5t-26.5 -54.5l-34 -177q-15 -73 -44 -108t-77 -41q88 -14 62 -152l-36 -186q-8 -42 2 -58t46 -16h25z" />
    <glyph glyph-name="braceright.cap" horiz-adv-x="388" 
d="M185 789h38q65 0 85.5 -32.5t8.5 -92.5l-39 -201q-18 -95 56 -95h22l-11 -60h-23q-74 0 -92 -92l-41 -215q-23 -124 -147 -124h-35l10 50h26q30 0 49 19.5t26 54.5l36 187q26 137 121 149q-88 14 -62 152l35 176q8 41 -2.5 57.5t-45.5 16.5h-25z" />
    <glyph glyph-name="at.cap" horiz-adv-x="1004" 
d="M938 523q0 -159 -97 -273.5t-261 -114.5h-42l28 106q-35 -49 -80 -81t-90 -32q-106 0 -106 119q0 55 17.5 109t51 100.5t91 75t129.5 28.5q79 0 144 -18l-106 -347q109 0 178 92.5t69 225.5q0 101 -56.5 152t-187.5 51q-111 0 -203 -45.5t-149.5 -120t-88.5 -165
t-31 -185.5q0 -126 62.5 -186.5t211.5 -60.5q126 0 257 54l11 -49q-139 -61 -282 -61q-334 0 -334 289q0 112 38.5 216.5t108 187t177.5 132t237 49.5q155 0 229 -66t74 -182zM374 257q0 -65 54 -65q43 0 94.5 58.5t77.5 142.5l31 98q-34 9 -71 9q-62 0 -106.5 -41t-62 -94
t-17.5 -108z" />
    <glyph glyph-name="Euro.fitted" horiz-adv-x="561" 
d="M449 127l28 -42q-95 -93 -209 -93q-101 0 -151.5 64t-41.5 187h-68l10 53h63q7 49 19 87h-65l11 53h70q38 115 115 181t171 66q127 0 162 -105l-42 -34q-16 39 -43.5 57.5t-76.5 18.5q-70 0 -123 -52.5t-78 -131.5h189l-11 -53h-195q-13 -46 -17 -87h195l-10 -53h-190
q-8 -91 24.5 -139.5t103.5 -48.5q82 0 160 72z" />
    <glyph glyph-name="dollar.slashed.oldstyle" horiz-adv-x="549" 
d="M535 608l-24 -45q-73 31 -158 31q-84 0 -124 -34t-40 -82q0 -33 30.5 -57.5t73.5 -41t86 -36t73.5 -54t30.5 -83.5q0 -87 -71 -144.5t-196 -57.5q-115 0 -201 55l27 47q31 -17 80.5 -29.5t95.5 -12.5q92 0 137.5 37t45.5 89q0 32 -30 56.5t-73.5 42t-86.5 37.5t-73 54.5
t-30 82.5q0 79 64 134t180 55q109 0 183 -44zM143 11l224 641l41 103h48l-33 -109l-224 -641l-43 -110h-48z" />
    <glyph glyph-name="cent.fitted" horiz-adv-x="455" 
d="M370 215l24 -41q-66 -55 -139 -65l-29 -111h-50l15 109q-68 7 -99.5 50t-31.5 109q0 36 7.5 73.5t24.5 76.5t42 70.5t63 54.5t84 29l27 107h50l-14 -108q61 -9 100 -57l-33 -40q-44 41 -95 41q-78 0 -125 -72.5t-47 -162.5q0 -112 96 -112q64 0 130 49z" />
    <glyph glyph-name="cent.slashed.oldstyle" horiz-adv-x="497" 
d="M412 212l18 -42q-95 -69 -199 -63l-42 -107h-48l34 113q-113 30 -113 158q0 124 74.5 211.5t199.5 88.5l40 104h48l-33 -111q64 -12 101 -53l-32 -40q-42 32 -89 39l-119 -342q80 -8 160 44zM141 282q0 -79 57 -104l116 333q-80 -8 -126.5 -74.5t-46.5 -154.5z" />
    <glyph glyph-name="sterling.fitted" horiz-adv-x="443" 
d="M366 0h-383l11 55q70 59 100 116.5t32 139.5h-91l10 57h81q0 2 -0.5 12t-1 26.5t-0.5 34.5q0 65 19.5 117.5t67.5 88t120 35.5q76 0 149 -38l-21 -46q-66 23 -114 23q-136 0 -136 -184q0 -20 1 -43t1 -26h154l-10 -57h-146q-1 -80 -29 -136.5t-93 -109.5h292z" />
    <glyph glyph-name="florin.fitted" horiz-adv-x="465" 
d="M506 652l-23 -46q-34 17 -65 17q-35 0 -57.5 -21.5t-36.5 -69.5l-48 -161h141l-10 -55h-145l-84 -280q-43 -147 -158 -147q-49 0 -93 30l21 46q30 -17 63 -17t54 22t36 70l82 276h-107l11 55h110l50 164q41 147 161 147q57 0 98 -30z" />
    <glyph glyph-name="yen.fitted" horiz-adv-x="480" 
d="M419 241h-143l-17 -85h143l-10 -56h-143l-19 -100h-80l19 100h-142l10 56h143l17 85h-143l11 56h142l5 21q-70 148 -130 357h88q44 -173 99 -293q87 101 203 293h89q-164 -237 -269 -357l-5 -21h142z" />
    <glyph glyph-name="H_a_n_g_T_a_b_P_r_o_p" horiz-adv-x="1639" 
d="M515 500h-41v159h-155v-159h-41v337h41v-142h155v142h41v-337zM766 500h-32l-3 28q-39 -32 -78 -32q-72 0 -72 67q0 38 31 60.5t94 22.5h20v26q0 50 -56 50q-29 0 -70 -15l-6 26q44 18 88 18q84 0 84 -73v-178zM726 554v65h-24q-81 0 -81 -51q0 -43 43 -43q30 0 62 29z
M1035 500h-39q0 24 0.5 70.5t0.5 62.5q0 47 -11.5 66.5t-35.5 19.5q-25 0 -61 -29v-190h-40v247h33l4 -28q38 33 78 33q73 0 73 -110q0 -15 -1 -65.5t-1 -76.5zM1294 744v-236q0 -55 -24.5 -76.5t-70.5 -21.5q-36 0 -78 16l4 23q42 -8 70 -8q31 0 45 13t14 44v36
q-37 -28 -69 -28q-37 0 -60 32.5t-23 82.5q0 65 34 98t86 33q32 0 72 -8zM1254 565v150q-17 7 -40 7q-31 0 -51 -25t-20 -68q0 -42 14.5 -67.5t39.5 -25.5q28 0 57 29zM217 304h-88v-304h-41v304h-88v33h217v-33zM397 0h-30l-4 28q-39 -32 -77 -32q-73 0 -73 67
q0 38 31 60.5t95 22.5h19v26q0 50 -56 50q-29 0 -70 -15l-6 26q46 18 87 18q84 0 84 -73v-178zM358 54v65h-23q-82 0 -82 -51q0 -43 43 -43q30 0 62 29zM482 4v350h39v-132q37 30 68 30q38 0 61.5 -33.5t23.5 -85.5q0 -70 -33.5 -103.5t-89.5 -33.5q-37 0 -69 8zM521 192
v-161q18 -6 39 -6q32 0 52 25.5t20 74.5q0 43 -14 69t-39 26q-27 0 -58 -28zM804 0h-41v337q9 0 33 0.5t43 0.5q122 0 122 -102q0 -51 -33 -81.5t-104 -30.5h-20v-124zM804 306v-150h28q85 0 85 75q0 37 -19.5 56t-64.5 19h-29zM1137 246l-4 -36q-15 3 -20 3q-20 0 -57 -45
v-168h-39v247h32l4 -44q38 48 64 48q10 0 20 -5zM1379 128q0 -66 -29.5 -99t-80.5 -33q-100 0 -100 123q0 66 29.5 99.5t80.5 33.5q100 0 100 -124zM1338 117q0 56 -15.5 80t-48.5 24q-64 0 -64 -91q0 -56 15.5 -80t48.5 -24q64 0 64 91zM1486 -87h-39v334h32l4 -27
q37 32 72 32q38 0 61 -33.5t23 -85.5q0 -69 -33 -103t-87 -34q-21 0 -33 1v-84zM1486 192v-161q18 -6 39 -6q32 0 52 25.5t20 75.5q0 43 -14 68.5t-39 25.5q-27 0 -58 -28z" />
    <glyph glyph-name="H_a_n_g_P_r_o_p" horiz-adv-x="1016" 
d="M237 500h-41v159h-154v-159h-42v337h42v-142h154v142h41v-337zM488 500h-31l-3 28q-39 -32 -79 -32q-35 0 -53.5 17.5t-18.5 49.5q0 38 31 60.5t95 22.5h20v26q0 50 -56 50q-31 0 -70 -15l-7 26q46 18 88 18q84 0 84 -73v-178zM449 554v65h-24q-46 0 -63.5 -13.5
t-17.5 -37.5q0 -43 43 -43q28 0 62 29zM758 500h-40q0 24 0.5 70.5t0.5 62.5q0 47 -11.5 66.5t-35.5 19.5q-25 0 -61 -29v-190h-39v247h32l4 -28q40 33 78 33q73 0 73 -110q0 -15 -0.5 -65.5t-0.5 -76.5zM1016 744v-236q0 -55 -24 -76.5t-70 -21.5q-37 0 -79 16l4 23
q42 -8 71 -8q31 0 45 13t14 44v36q-37 -28 -70 -28q-36 0 -59 32.5t-23 82.5q0 65 34 98t85 33q32 0 72 -8zM977 565v150q-17 7 -40 7q-31 0 -51 -25t-20 -68t14 -68t40 -25t57 29zM109 0h-41v337q9 0 33 0.5t43 0.5q122 0 122 -102q0 -51 -33 -81.5t-104 -30.5h-20v-124z
M109 306v-150h28q84 0 84 75q0 37 -19.5 56t-63.5 19h-29zM442 246l-5 -36q-14 3 -19 3q-20 0 -57 -45v-168h-39v247h32l4 -44q38 48 64 48q10 0 20 -5zM684 128q0 -66 -29.5 -99t-80.5 -33q-100 0 -100 123q0 66 29 99.5t81 33.5q100 0 100 -124zM643 117q0 56 -15.5 80
t-48.5 24q-64 0 -64 -91q0 -56 15.5 -80t48.5 -24q64 0 64 91zM791 -87h-39v334h32l3 -27q39 32 73 32q38 0 60.5 -33.5t22.5 -85.5q0 -69 -32.5 -103t-86.5 -34q-22 0 -33 1v-84zM791 192v-161q18 -6 39 -6q32 0 52 25.5t20 75.5q0 42 -14.5 68t-38.5 26q-27 0 -58 -28z
" />
    <glyph glyph-name="zero.oldstyle" horiz-adv-x="538" 
d="M502 403q0 -78 -30 -184.5t-86 -162.5q-64 -64 -167 -64q-173 0 -173 172q0 77 30.5 184t87.5 164q65 64 165 64q173 0 173 -173zM231 54q57 0 95 38q44 44 68 143.5t24 163.5q0 115 -101 115q-57 0 -95 -38q-44 -44 -68 -143t-24 -163q0 -116 101 -116z" />
    <glyph glyph-name="one.oldstyle" horiz-adv-x="331" 
d="M186 0h-82l94 483l-136 -45l-8 54l179 75h63z" />
    <glyph glyph-name="two.oldstyle" horiz-adv-x="442" 
d="M352 0h-375l12 60q215 163 275.5 228.5t60.5 140.5q0 80 -93 80q-58 0 -129 -24l-6 56q95 34 165 34t111 -33.5t41 -98.5q0 -88 -62.5 -161t-257.5 -214h272z" />
    <glyph glyph-name="three.oldstyle" horiz-adv-x="440" 
d="M109 -111q-75 0 -156 36l17 49q84 -21 134 -21t85.5 19t52 49t23 56.5t6.5 52.5q0 91 -108 91h-59l12 63h59q71 0 104.5 46.5t33.5 99.5q0 80 -94 80q-60 0 -120 -22l-5 54q79 33 152 33q154 0 154 -133q0 -58 -34.5 -113.5t-99.5 -70.5q44 -6 68 -38.5t24 -83.5
q0 -28 -5.5 -57t-22.5 -64.5t-43 -62.5t-72.5 -45t-105.5 -18z" />
    <glyph glyph-name="four.oldstyle" horiz-adv-x="502" 
d="M439 50h-96l-30 -154h-79l30 154h-282l12 65q168 246 332 452h117l-87 -449h96zM277 118l76 387h-2q-175 -223 -282 -387h208z" />
    <glyph glyph-name="five.oldstyle" horiz-adv-x="453" 
d="M126 -111q-71 0 -152 33l15 49q95 -19 131 -19q88 0 131.5 57t43.5 127q0 100 -114 100q-59 0 -124 -15l89 346h274l-13 -70h-210l-53 -204q28 7 80 7q75 0 115.5 -38t40.5 -109q0 -45 -14 -89.5t-42.5 -84.5t-79.5 -65t-118 -25z" />
    <glyph glyph-name="six.oldstyle" horiz-adv-x="501" 
d="M216 -8q-160 0 -160 178q0 93 37 234t107 211q68 68 169 68q68 0 145 -32l-17 -50q-75 20 -127 20q-82 0 -131 -64.5t-81 -210.5q52 26 85 37t73 11q65 0 101 -36.5t36 -100.5q0 -31 -7.5 -65t-25.5 -70t-44 -64.5t-68 -47t-92 -18.5zM371 243q0 88 -93 88
q-48 0 -128 -42q-15 -72 -15 -117q0 -119 91 -119q51 0 85.5 34t47 74.5t12.5 81.5z" />
    <glyph glyph-name="seven.oldstyle" horiz-adv-x="429" 
d="M452 506l-187 -298q-101 -162 -223 -319l-51 19l364 589h-285l13 70h381z" />
    <glyph glyph-name="eight.oldstyle" horiz-adv-x="507" 
d="M201 -8q-87 0 -132 36t-45 97q0 66 40.5 119t134.5 103q-90 57 -90 142q0 33 12.5 65.5t38 62t71.5 48t106 18.5q81 0 123 -35t42 -91q0 -64 -39 -112t-133 -95q60 -35 88.5 -71t28.5 -83q0 -81 -60 -142.5t-186 -61.5zM422 547q0 78 -102 78q-65 0 -98.5 -39.5
t-33.5 -85.5q0 -63 86 -115q85 43 116.5 78t31.5 84zM365 181q0 37 -28 68t-85 63q-85 -46 -115.5 -86t-30.5 -89q0 -41 28.5 -63.5t84.5 -22.5q64 0 105 38.5t41 91.5z" />
    <glyph glyph-name="nine.oldstyle" horiz-adv-x="501" 
d="M294 575q160 0 160 -178q0 -102 -37 -236.5t-104 -200.5q-73 -72 -177 -72q-70 0 -153 33l15 49q80 -20 137 -20q80 0 133 63t83 208q-50 -26 -83.5 -37t-73.5 -11q-65 0 -101 36.5t-36 100.5q0 31 7.5 65t25.5 70t44 64.5t67.5 47t92.5 18.5zM139 324q0 -88 93 -88
q50 0 129 42q14 75 14 117q0 119 -91 119q-39 0 -68.5 -19.5t-45.5 -50t-23.5 -61.5t-7.5 -59z" />
    <glyph glyph-name="H_a_n_g_T_a_b" horiz-adv-x="1016" 
d="M237 500h-41v159h-154v-159h-42v337h42v-142h154v142h41v-337zM488 500h-31l-3 28q-39 -32 -79 -32q-35 0 -53.5 17.5t-18.5 49.5q0 38 31 60.5t95 22.5h20v26q0 50 -56 50q-31 0 -70 -15l-7 26q46 18 88 18q84 0 84 -73v-178zM449 554v65h-24q-46 0 -63.5 -13.5
t-17.5 -37.5q0 -43 43 -43q28 0 62 29zM758 500h-40q0 24 0.5 70.5t0.5 62.5q0 47 -11.5 66.5t-35.5 19.5q-25 0 -61 -29v-190h-39v247h32l4 -28q40 33 78 33q73 0 73 -110q0 -15 -0.5 -65.5t-0.5 -76.5zM1016 744v-236q0 -55 -24 -76.5t-70 -21.5q-37 0 -79 16l4 23
q42 -8 71 -8q31 0 45 13t14 44v36q-37 -28 -70 -28q-36 0 -59 32.5t-23 82.5q0 65 34 98t85 33q32 0 72 -8zM977 565v150q-17 7 -40 7q-31 0 -51 -25t-20 -68t14 -68t40 -25t57 29zM360 304h-87v-304h-42v304h-88v33h217v-33zM541 0h-31l-4 28q-39 -32 -77 -32q-72 0 -72 67
q0 83 125 83h19v26q0 50 -56 50q-29 0 -70 -15l-6 26q46 18 88 18q84 0 84 -73v-178zM501 54v65h-23q-82 0 -82 -51q0 -43 43 -43q30 0 62 29zM625 4v350h39v-132q37 30 69 30q38 0 61 -33.5t23 -85.5q0 -70 -33.5 -103.5t-89.5 -33.5q-37 0 -69 8zM664 192v-161
q18 -6 39 -6q32 0 52 25.5t20 74.5q0 43 -14 69t-39 26q-27 0 -58 -28z" />
    <glyph glyph-name="zero.OnumTab" 
d="M476 406q0 -78 -31.5 -188.5t-86.5 -165.5q-59 -60 -159 -60q-85 0 -126.5 39t-41.5 130q0 76 32.5 187t87.5 167q60 60 159 60q84 0 125 -39t41 -130zM211 54q55 0 91 36q42 42 67 147t25 167q0 59 -23.5 84t-74.5 25q-55 0 -91 -37q-42 -42 -67 -146.5t-25 -166.5
q0 -59 24 -84t74 -25z" />
    <glyph glyph-name="one.OnumTab" 
d="M396 0h-373l12 68h153l81 417l-146 -48l-8 54l187 76h68l-98 -499h137z" />
    <glyph glyph-name="two.OnumTab" 
d="M395 0h-389l11 60q223 159 288.5 227t65.5 141q0 81 -101 81q-61 0 -147 -27l-4 55q103 38 179 38q75 0 118.5 -34t43.5 -101q0 -88 -66.5 -160.5t-266.5 -211.5h280z" />
    <glyph glyph-name="three.OnumTab" 
d="M143 -111q-84 0 -175 39l16 49q83 -23 153 -23q52 0 90 17t56.5 45.5t26.5 56t8 56.5q0 92 -119 92h-71l11 63h67q78 0 115.5 45.5t37.5 102.5q0 40 -24 59t-76 19q-73 0 -147 -24l-4 54q89 35 177 35q160 0 160 -127q0 -65 -37.5 -119t-100.5 -71q50 -7 74 -40.5
t24 -83.5q0 -39 -12 -78t-39.5 -78.5t-82 -64t-128.5 -24.5z" />
    <glyph glyph-name="four.OnumTab" 
d="M427 50h-81l-30 -154h-78l30 154h-282l14 68q160 234 330 449h117l-87 -449h81zM281 118l75 382h-2q-137 -175 -281 -382h208z" />
    <glyph glyph-name="five.OnumTab" 
d="M145 -111q-79 0 -175 39l17 49q77 -23 154 -23q51 0 88.5 17t57.5 45.5t29.5 59.5t9.5 64q0 50 -30.5 73t-96.5 23q-68 0 -141 -16l89 347h68h236l-13 -70h-240l-54 -205q42 8 94 8q173 0 173 -146q0 -45 -14 -89t-43 -85t-83 -66t-126 -25z" />
    <glyph glyph-name="six.OnumTab" 
d="M211 -8q-156 0 -156 178q0 97 36.5 236t106.5 209q68 68 169 68q68 0 146 -32l-17 -50q-76 20 -128 20q-79 0 -130 -64.5t-81 -208.5q91 46 153 46q67 0 103 -35t36 -98q0 -32 -7.5 -66.5t-26 -71t-45 -65.5t-68 -47.5t-91.5 -18.5zM367 249q0 82 -88 82q-53 0 -131 -41
q-15 -85 -15 -120q0 -61 21.5 -89t67.5 -28q39 0 68.5 20.5t45.5 52t23.5 63t7.5 60.5z" />
    <glyph glyph-name="seven.OnumTab" 
d="M508 506l-199 -302q-99 -150 -228 -315l-53 23l377 585h-315l13 70h417z" />
    <glyph glyph-name="eight.OnumTab" 
d="M196 -8q-86 0 -130 36t-44 97q0 67 40.5 119.5t133.5 102.5q-90 56 -90 140q0 34 12.5 66.5t38 62.5t71.5 48.5t106 18.5q82 0 122.5 -34.5t40.5 -91.5q0 -64 -38.5 -111.5t-131.5 -95.5q59 -34 87 -70t28 -81q0 -83 -62.5 -145t-183.5 -62zM417 548q0 77 -101 77
q-64 0 -97 -40t-33 -87q0 -63 85 -113q84 43 115 78t31 85zM360 181q0 38 -27 68.5t-84 62.5q-85 -47 -115.5 -87.5t-30.5 -88.5q0 -40 28.5 -62.5t83.5 -22.5q64 0 104.5 38.5t40.5 91.5z" />
    <glyph glyph-name="nine.OnumTab" 
d="M297 575q158 0 158 -177q0 -103 -37 -238.5t-106 -203.5t-169 -68q-75 0 -158 33l15 49q78 -20 141 -20q78 0 129.5 64t82.5 207q-94 -48 -157 -48q-67 0 -101.5 34.5t-34.5 97.5q0 37 12.5 79.5t37.5 87t74 74t113 29.5zM141 318q0 -82 93 -82q48 0 128 42q14 79 14 119
q0 117 -90 117q-39 0 -69.5 -22t-45.5 -54.5t-22.5 -63.5t-7.5 -56z" />
    <glyph glyph-name="L_i_n_P_r_o_p" horiz-adv-x="876" 
d="M331 500h-156v337h42v-304h114v-33zM426 819q0 -14 -4.5 -18.5t-19.5 -4.5t-20 4.5t-5 18.5t5 18.5t20 4.5t19.5 -4.5t4.5 -18.5zM421 500h-39v247h39v-247zM692 500h-40q0 24 1 70.5t1 62.5q0 86 -48 86q-25 0 -61 -29v-190h-39v247h32l4 -28q40 33 78 33q73 0 73 -110
q0 -15 -0.5 -65.5t-0.5 -76.5zM42 0h-42v337q9 0 33 0.5t43 0.5q122 0 122 -102q0 -51 -33 -81.5t-103 -30.5h-20v-124zM42 306v-150h27q85 0 85 75q0 37 -19.5 56t-64.5 19h-28zM374 246l-4 -36q-13 3 -19 3q-21 0 -58 -45v-168h-39v247h33l4 -44q36 48 63 48q11 0 20 -5z
M616 128q0 -66 -29.5 -99t-80.5 -33q-100 0 -100 123q0 66 29.5 99.5t80.5 33.5q100 0 100 -124zM575 117q0 56 -15.5 80t-48.5 24q-64 0 -64 -91q0 -56 16 -80t49 -24q63 0 63 91zM724 -87h-40v334h32l4 -27q37 32 72 32q38 0 61 -33t23 -86q0 -69 -33 -103t-87 -34
q-21 0 -32 1v-84zM724 192v-161q16 -6 38 -6q32 0 52.5 25.5t20.5 75.5q0 43 -14.5 68.5t-39.5 25.5q-28 0 -57 -28z" />
    <glyph glyph-name="zero.LinProp" horiz-adv-x="561" 
d="M365 683q87 0 134.5 -49t47.5 -142q0 -100 -35.5 -229.5t-104.5 -198.5q-70 -72 -180 -72q-183 0 -183 191q0 98 36 229t104 199q72 72 181 72zM460 489q0 66 -26 98.5t-82 32.5q-64 0 -110 -46q-50 -50 -81 -180.5t-31 -207.5q0 -131 109 -131q64 0 110 46
q51 50 81 179.5t30 208.5z" />
    <glyph glyph-name="one.LinProp" horiz-adv-x="332" 
d="M187 0h-83l114 590l-138 -54l-6 57l180 82h64z" />
    <glyph glyph-name="two.LinProp" horiz-adv-x="472" 
d="M366 0h-389l13 65q208 178 289 281.5t81 183.5q0 85 -96 85q-57 0 -145 -31l-4 58q107 41 177 41q75 0 117 -34.5t42 -101.5q0 -98 -87.5 -213.5t-277.5 -262.5h293z" />
    <glyph glyph-name="three.LinProp" horiz-adv-x="457" 
d="M394 238q0 -39 -12.5 -78t-40.5 -78.5t-82 -64.5t-127 -25q-78 0 -159 36l17 51q86 -21 137 -21q50 0 87 17t56.5 44.5t28.5 56.5t9 59q0 93 -113 93h-77l12 62h70q74 0 112 44.5t38 103.5q0 82 -103 82q-64 0 -132 -22l-4 53q84 32 161 32q79 0 122 -33.5t43 -98.5
q0 -62 -39 -116.5t-107 -70.5q48 -6 75.5 -38t27.5 -88z" />
    <glyph glyph-name="four.LinProp" horiz-adv-x="505" 
d="M463 159h-96l-31 -159h-78l30 159h-286l12 62q152 223 336 454h117l-87 -448h96zM301 227l75 387h-1q-176 -224 -286 -387h212z" />
    <glyph glyph-name="five.LinProp" horiz-adv-x="466" 
d="M412 263q0 -118 -75 -194t-193 -76q-73 0 -151 32l16 52q85 -19 127 -19q83 0 137 49.5t54 138.5q0 99 -117 99q-68 0 -132 -15l89 345h284l-13 -70h-220l-53 -203q44 7 84 7q81 0 122 -37.5t41 -108.5z" />
    <glyph glyph-name="six.LinProp" horiz-adv-x="503" 
d="M455 257q0 -41 -13.5 -84.5t-40.5 -85t-75 -68.5t-108 -27q-163 0 -163 178q0 92 38 233t108 211q68 69 168 69q68 0 145 -32l-17 -50q-75 20 -127 20q-80 0 -130.5 -64t-81.5 -211q94 48 158 48q65 0 102 -35.5t37 -101.5zM372 243q0 88 -94 88q-49 0 -129 -42
q-14 -69 -14 -118q0 -118 91 -118q51 0 86 34.5t47.5 75t12.5 80.5z" />
    <glyph glyph-name="seven.LinProp" horiz-adv-x="434" 
d="M479 614l-191 -299q-128 -198 -223 -323l-53 20l370 593h-291l13 70h386z" />
    <glyph glyph-name="eight.LinProp" horiz-adv-x="511" 
d="M203 -8q-87 0 -133.5 36.5t-46.5 96.5q0 66 40.5 119t134.5 103q-91 56 -91 140q0 74 58.5 135t172.5 61q83 0 126 -35t43 -91q0 -63 -39 -111.5t-133 -95.5q59 -35 87.5 -71t28.5 -83q0 -82 -63 -143t-185 -61zM424 547q0 78 -100 78q-67 0 -101 -39t-34 -87
q0 -63 86 -115q86 43 117.5 78.5t31.5 84.5zM368 180q0 39 -28 70t-84 63q-87 -46 -118.5 -87t-31.5 -89q0 -41 29.5 -63.5t85.5 -22.5q64 0 105.5 38t41.5 91z" />
    <glyph glyph-name="nine.LinProp" horiz-adv-x="503" 
d="M79 418q0 29 7.5 62t25.5 70t44.5 66t68.5 48t93 19q79 0 119.5 -40t40.5 -138q0 -102 -36 -235.5t-102 -199.5q-78 -78 -177 -78q-73 0 -159 34l18 50q77 -21 139 -21q75 0 131 67t84 206q-92 -47 -160 -47q-63 0 -100 35.5t-37 101.5zM162 432q0 -87 94 -87
q51 0 129 41q13 66 13 119q0 117 -90 117q-40 0 -70.5 -20.5t-46 -52.5t-22.5 -61.5t-7 -55.5z" />
    </font>
</defs>
</svg>
