<?xml version="1.0" standalone="no"?>
<!DOCTYPE svg PUBLIC "-//W3C//DTD SVG 1.1//EN" "http://www.w3.org/Graphics/SVG/1.1/DTD/svg11.dtd" >
<svg xmlns="http://www.w3.org/2000/svg" xmlns:xlink="http://www.w3.org/1999/xlink" version="1.1">
<metadata>
Created by FontForge 20170731 at Thu Oct 20 23:42:50 2016
 By Aleksey,,,
Copyright (c) Luc[as] de Groot, published by LucasFonts, 2002, 2004, 2007, 2009, 2016. All rights reserved.
</metadata>
<defs>
<font id="FHPSun-Regular" horiz-adv-x="500" >
  <font-face 
    font-family="FHP Sun"
    font-weight="400"
    font-stretch="normal"
    units-per-em="1000"
    panose-1="2 11 5 3 5 3 2 2 2 3"
    ascent="800"
    descent="-200"
    x-height="496"
    cap-height="675"
    bbox="-264 -200 1639 885"
    underline-thickness="62"
    underline-position="-269"
    unicode-range="U+000D-1F6C8"
  />
<missing-glyph horiz-adv-x="550" 
d="M300 150h-150v250h50v-200h100v-50zM500 50h-450v450h450v-450zM350 350h-100v50h150v-250h-50v100h-100v50h100v50zM100 100h350v350h-350v-350z" />
    <glyph glyph-name="f_f" unicode="ff" horiz-adv-x="576" 
d="M609 688l-16 -47q-39 17 -68 17q-37 0 -53 -20t-16 -62v-80h109v-58h-109v-438h-79v438h-202v-438h-79v438h-80v58h80v69q0 69 31 107t93 38q55 0 100 -25l-15 -48q-34 14 -63 14q-35 0 -51 -20t-16 -62v-73h202v76q0 69 31 107t95 38q58 0 106 -29z" />
    <glyph glyph-name="fi" unicode="fi" horiz-adv-x="540" 
d="M456 0h-79v438h-202v-438h-79v438h-80v58h80v76q0 145 124 145q55 0 95 -23l-15 -50q-32 14 -59 14q-66 0 -66 -82v-80h281v-496zM466 638q0 -28 -9.5 -37t-39.5 -9q-31 0 -40.5 9t-9.5 37t9.5 37t40.5 9q30 0 39.5 -9t9.5 -37z" />
    <glyph glyph-name="fl" unicode="fl" horiz-adv-x="558" 
d="M523 53l4 -50q-30 -10 -67 -10q-46 0 -65 20t-19 78v558q-49 9 -88 9q-62 0 -87.5 -26t-25.5 -89v-47h99v-58h-99v-438h-79v438h-80v58h80v43q0 86 37.5 132t137.5 46q53 0 109 -8h75v-587q0 -45 7 -58t31 -13q16 0 30 2z" />
    <glyph glyph-name="f_f_i" unicode="ffi" horiz-adv-x="821" 
d="M737 0h-79v438h-202v-438h-79v438h-202v-438h-79v438h-80v58h80v69q0 69 31 107t93 38q55 0 100 -25l-15 -48q-34 14 -63 14q-35 0 -51 -20t-16 -62v-73h202v76q0 145 124 145q55 0 95 -23l-15 -50q-32 14 -59 14q-66 0 -66 -82v-80h281v-496zM747 638q0 -28 -9.5 -37
t-39.5 -9q-31 0 -40.5 9t-9.5 37t9.5 37t40.5 9q30 0 39.5 -9t9.5 -37z" />
    <glyph glyph-name="f_f_l" unicode="ffl" horiz-adv-x="839" 
d="M804 53l4 -50q-28 -10 -67 -10q-46 0 -65 20t-19 78v558q-49 9 -88 9q-62 0 -87.5 -26t-25.5 -89v-47h99v-58h-99v-438h-79v438h-202v-438h-79v438h-80v58h80v69q0 69 31 107t93 38q55 0 100 -25l-16 -48q-34 14 -62 14q-35 0 -51 -20t-16 -62v-73h202v43q0 86 37.5 132
t137.5 46q53 0 109 -8h75v-587q0 -45 7 -58t31 -13q16 0 30 2z" />
    <glyph glyph-name="f_b" unicode="fb" horiz-adv-x="811" 
d="M456 709v-263q71 58 136 58q76 0 122 -67t46 -171q0 -139 -67 -206.5t-178 -67.5q-67 0 -138 16v641q-49 9 -89 9q-62 0 -87.5 -26t-25.5 -89v-47h99v-58h-99v-438h-79v438h-80v58h80v43q0 86 37.5 132t137.5 46q52 0 110 -8h75zM456 384v-321q31 -12 77 -12q65 0 105 51
t40 149q0 86 -28.5 138t-78.5 52q-54 0 -115 -57z" />
    <glyph glyph-name="f_f_b" unicode="ffb" horiz-adv-x="1092" 
d="M737 709v-263q71 58 136 58q76 0 122 -67t46 -171q0 -139 -67 -206.5t-178 -67.5q-65 0 -138 16v641q-49 9 -89 9q-62 0 -87.5 -26t-25.5 -89v-47h99v-58h-99v-438h-79v438h-202v-438h-79v438h-80v58h80v69q0 69 31 107t93 38q55 0 100 -25l-15 -48q-34 14 -63 14
q-35 0 -51 -20t-16 -62v-73h202v43q0 86 37.5 132t137.5 46q52 0 110 -8h75zM737 384v-321q31 -12 77 -12q65 0 105 51t40 149q0 87 -28 138.5t-79 51.5q-54 0 -115 -57z" />
    <glyph glyph-name="f_h" unicode="fh" horiz-adv-x="832" 
d="M456 709v-267q79 62 147 62q149 0 149 -220q0 -25 -2 -126t-2 -158h-78q0 51 1 145t1 121q0 93 -23 133.5t-68 40.5q-56 0 -125 -59v-381h-79v649q-49 9 -89 9q-62 0 -87.5 -26t-25.5 -89v-47h99v-58h-99v-438h-79v438h-80v58h80v43q0 86 37.5 132t137.5 46q52 0 110 -8
h75z" />
    <glyph glyph-name="f_f_h" unicode="ffh" horiz-adv-x="1113" 
d="M737 709v-267q79 62 147 62q149 0 149 -220q0 -25 -2 -126t-2 -158h-78q0 51 1 145t1 121q0 93 -23 133.5t-68 40.5q-56 0 -125 -59v-381h-79v649q-49 9 -89 9q-62 0 -87.5 -26t-25.5 -89v-47h99v-58h-99v-438h-79v438h-202v-438h-79v438h-80v58h80v69q0 69 31 107t93 38
q55 0 100 -25l-15 -48q-34 14 -63 14q-35 0 -51 -20t-16 -62v-73h202v43q0 86 37.5 132t137.5 46q52 0 110 -8h75z" />
    <glyph glyph-name="f_igrave" unicode="f&#xec;" horiz-adv-x="540" 
d="M456 0h-79v438h-202v-438h-79v438h-80v58h80v87q0 134 108 134q34 0 70 -14l-9 -51q-22 6 -38 6q-52 0 -52 -72v-90h281v-496zM381 725l75 -160l-47 -14l-97 151z" />
    <glyph glyph-name="f_iacute" unicode="f&#xed;" horiz-adv-x="540" 
d="M456 0h-79v438h-202v-438h-79v438h-80v58h80v76q0 145 124 145q55 0 95 -23l-15 -50q-32 14 -59 14q-66 0 -66 -82v-80h281v-496zM554 681l-146 -121l-41 26l128 134z" />
    <glyph glyph-name="f_icircumflex" unicode="f&#xee;" horiz-adv-x="540" 
d="M545 587l-31 -32l-98 91l-97 -91l-31 31l130 136zM456 0h-79v438h-202v-438h-79v438h-80v58h80v87q0 134 108 134q34 0 70 -14l-10 -51q-22 6 -37 6q-28 0 -40 -17.5t-12 -54.5v-90h281v-496z" />
    <glyph glyph-name="f_itilde" unicode="f&#x129;" horiz-adv-x="540" 
d="M515 655l33 -26q-20 -34 -41.5 -51t-53.5 -17q-30 0 -60.5 20.5t-41.5 20.5q-24 0 -54 -41l-33 26q20 34 41.5 51t53.5 17q30 0 60.5 -20.5t41.5 -20.5q24 0 54 41zM456 0h-79v438h-202v-438h-79v438h-80v58h80v87q0 134 106 134q38 0 70 -14l-9 -51q-18 6 -36 6
q-52 0 -52 -72v-90h281v-496z" />
    <glyph glyph-name="f_idieresis" unicode="f&#xef;" horiz-adv-x="540" 
d="M531 638q0 -24 -8 -32.5t-33 -8.5t-33 8t-8 33q0 26 8 34.5t33 8.5t33 -8.5t8 -34.5zM395 638q0 -25 -7.5 -33t-31.5 -8q-26 0 -34 8t-8 33q0 26 8 34.5t34 8.5q24 0 31.5 -8t7.5 -35zM456 0h-79v438h-202v-438h-79v438h-80v58h80v87q0 134 106 134q38 0 70 -14l-9 -51
q-18 6 -36 6q-52 0 -52 -72v-90h281v-496z" />
    <glyph glyph-name="f_imacron" unicode="f&#x12b;" horiz-adv-x="540" 
d="M537 603h-233v58h233v-58zM456 0h-79v438h-202v-438h-79v438h-80v58h80v87q0 134 106 134q38 0 70 -14l-9 -51q-18 6 -36 6q-52 0 -52 -72v-90h281v-496z" />
    <glyph glyph-name="f_ibreve" unicode="f&#x12d;" horiz-adv-x="540" 
d="M487 676h48q0 -62 -31 -95.5t-88 -33.5q-118 0 -118 129h47q0 -71 71 -71t71 71zM456 0h-79v438h-202v-438h-79v438h-80v58h80v87q0 134 106 134q38 0 70 -14l-9 -51q-18 6 -36 6q-52 0 -52 -72v-90h281v-496z" />
    <glyph glyph-name="f_iogonek" unicode="f&#x12f;" horiz-adv-x="540" 
d="M456 496v-496q-31 -18 -49 -44.5t-18 -50.5q0 -34 35 -34q22 0 47 14l14 -39q-35 -24 -82 -24q-82 0 -82 68q0 51 56 110v438h-202v-438h-79v438h-80v58h80v76q0 145 124 145q55 0 95 -23l-15 -50q-32 14 -59 14q-66 0 -66 -82v-80h281zM466 638q0 -27 -9.5 -36.5
t-39.5 -9.5q-31 0 -40.5 9t-9.5 37t9.5 37t40.5 9q30 0 39.5 -9t9.5 -37z" />
    <glyph glyph-name="f_dotlessi" unicode="f&#x131;" horiz-adv-x="540" 
d="M456 0h-79v438h-202v-438h-79v438h-80v58h80v76q0 145 124 145q55 0 95 -23l-15 -50q-32 14 -59 14q-66 0 -66 -82v-80h281v-496z" />
    <glyph glyph-name="f_f_igrave" unicode="ff&#xec;" horiz-adv-x="821" 
d="M737 565l-47 -14l-97 151l69 23zM737 0h-79v438h-202v-438h-79v438h-202v-438h-79v438h-80v58h80v69q0 69 31 107t93 38q55 0 100 -25l-15 -48q-34 14 -63 14q-35 0 -51 -20t-16 -62v-73h202v87q0 134 108 134q34 0 70 -14l-9 -51q-22 6 -38 6q-52 0 -52 -72v-90h281
v-496z" />
    <glyph glyph-name="f_f_iacute" unicode="ff&#xed;" horiz-adv-x="821" 
d="M737 0h-79v438h-202v-438h-79v438h-202v-438h-79v438h-80v58h80v69q0 69 31 107t93 38q55 0 100 -25l-15 -48q-34 14 -63 14q-35 0 -51 -20t-16 -62v-73h202v76q0 145 124 145q55 0 95 -23l-15 -50q-32 14 -59 14q-66 0 -66 -82v-80h281v-496zM835 681l-146 -121l-41 26
l128 134z" />
    <glyph glyph-name="f_f_icircumflex" unicode="ff&#xee;" horiz-adv-x="821" 
d="M826 587l-31 -32l-98 91l-97 -91l-31 31l130 136zM737 0h-79v438h-202v-438h-79v438h-202v-438h-79v438h-80v58h80v69q0 69 31 107t93 38q55 0 100 -25l-15 -48q-34 14 -63 14q-35 0 -51 -20t-16 -62v-73h202v87q0 134 108 134q34 0 70 -14l-10 -51q-22 6 -37 6
q-52 0 -52 -72v-90h281v-496z" />
    <glyph glyph-name="f_f_itilde" unicode="ff&#x129;" horiz-adv-x="821" 
d="M796 655l33 -26q-20 -34 -41.5 -51t-53.5 -17q-30 0 -60.5 20.5t-41.5 20.5q-24 0 -54 -41l-33 26q20 34 41.5 51t54.5 17q29 0 59 -20.5t42 -20.5q24 0 54 41zM737 0h-79v438h-202v-438h-79v438h-202v-438h-79v438h-80v58h80v69q0 69 31 107t93 38q54 0 100 -25l-15 -48
q-34 14 -63 14q-35 0 -51 -20t-16 -62v-73h202v87q0 134 107 134q38 0 69 -14l-9 -51q-18 6 -36 6q-52 0 -52 -72v-90h281v-496z" />
    <glyph glyph-name="f_f_idieresis" unicode="ff&#xef;" horiz-adv-x="821" 
d="M812 638q0 -24 -8 -32.5t-33 -8.5t-33 8t-8 33q0 26 8 34.5t33 8.5t33 -8.5t8 -34.5zM677 638q0 -24 -8 -32.5t-32 -8.5q-25 0 -33.5 8t-8.5 33q0 26 8.5 34.5t33.5 8.5t32.5 -8.5t7.5 -34.5zM737 0h-79v438h-202v-438h-79v438h-202v-438h-79v438h-80v58h80v69
q0 69 31 107t93 38q55 0 100 -25l-15 -48q-34 14 -63 14q-35 0 -51 -20t-16 -62v-73h202v87q0 134 107 134q38 0 69 -14l-9 -51q-18 6 -36 6q-52 0 -52 -72v-90h281v-496z" />
    <glyph glyph-name="f_f_imacron" unicode="ff&#x12b;" horiz-adv-x="821" 
d="M819 603h-234v58h234v-58zM737 0h-79v438h-202v-438h-79v438h-202v-438h-79v438h-80v58h80v69q0 69 31 107t93 38q55 0 100 -25l-15 -48q-34 14 -63 14q-35 0 -51 -20t-16 -62v-73h202v87q0 134 107 134q38 0 69 -14l-9 -51q-18 6 -36 6q-52 0 -52 -72v-90h281v-496z" />
    <glyph glyph-name="f_f_ibreve" unicode="ff&#x12d;" horiz-adv-x="821" 
d="M768 676h48q0 -62 -31 -95.5t-88 -33.5q-118 0 -118 129h47q0 -71 71 -71t71 71zM737 0h-79v438h-202v-438h-79v438h-202v-438h-79v438h-80v58h80v69q0 69 31 107t93 38q55 0 100 -25l-15 -48q-34 14 -63 14q-35 0 -51 -20t-16 -62v-73h202v87q0 134 107 134q38 0 69 -14
l-9 -51q-18 6 -36 6q-52 0 -52 -72v-90h281v-496z" />
    <glyph glyph-name="f_f_iogonek" unicode="ff&#x12f;" horiz-adv-x="821" 
d="M737 496v-496q-31 -18 -49 -44.5t-18 -50.5q0 -34 35 -34q23 0 47 14l14 -39q-35 -24 -82 -24q-82 0 -82 68q0 51 56 110v438h-202v-438h-79v438h-202v-438h-79v438h-80v58h80v69q0 69 31 107t93 38q55 0 100 -25l-15 -48q-34 14 -63 14q-35 0 -51 -20t-16 -62v-73h202
v76q0 145 124 145q55 0 95 -23l-15 -50q-32 14 -59 14q-66 0 -66 -82v-80h281zM747 638q0 -28 -9.5 -37t-39.5 -9q-31 0 -40.5 9t-9.5 37t9.5 37t40.5 9q30 0 39.5 -9t9.5 -37z" />
    <glyph glyph-name="f_f_dotlessi" unicode="ff&#x131;" horiz-adv-x="821" 
d="M737 0h-79v438h-202v-438h-79v438h-202v-438h-79v438h-80v58h80v69q0 69 31 107t93 38q55 0 100 -25l-15 -48q-34 14 -63 14q-35 0 -51 -20t-16 -62v-73h202v76q0 145 124 145q55 0 95 -23l-15 -50q-32 14 -59 14q-66 0 -66 -82v-80h281v-496z" />
    <glyph glyph-name="f_ij" unicode="f&#x133;" horiz-adv-x="832" 
d="M748 496v-480q0 -111 -49 -152.5t-142 -41.5q-74 0 -155 30l8 46q85 -15 140 -15q62 0 90.5 25.5t28.5 87.5v20q0 29 2 45q-83 -63 -150 -63q-148 0 -148 219q0 33 1 114t1 107h-200v-438h-79v438h-80v58h80v76q0 145 124 145q55 0 95 -23l-15 -50q-32 14 -59 14
q-66 0 -66 -82v-80h279q0 -48 -1 -139t-1 -123q0 -93 23 -133t68 -40q54 0 126 58v377h79zM468 638q0 -28 -9.5 -37t-39.5 -9q-31 0 -40.5 9t-9.5 37q0 27 10 36.5t40 9.5t39.5 -9t9.5 -37zM755 638q0 -28 -9.5 -37t-38.5 -9q-31 0 -41 9.5t-10 36.5t10 36.5t41 9.5
q30 0 39 -9t9 -37z" />
    <glyph glyph-name="f_j" unicode="fj" horiz-adv-x="540" 
d="M456 496v-457q0 -73 -22 -122.5t-76 -94.5l-48 27q67 72 67 169v420h-202v-438h-79v438h-80v58h80v76q0 145 124 145q55 0 95 -23l-15 -50q-32 14 -59 14q-66 0 -66 -82v-80h281zM466 638q0 -28 -9.5 -37t-39.5 -9q-31 0 -40.5 9t-9.5 37t9.5 37t40.5 9q30 0 39.5 -9
t9.5 -37z" />
    <glyph glyph-name="f_jcircumflex" unicode="f&#x135;" horiz-adv-x="540" 
d="M545 587l-31 -32l-98 91l-97 -91l-31 31l130 136zM456 496v-457q0 -73 -22 -122.5t-76 -94.5l-48 27q67 72 67 169v420h-202v-438h-79v438h-80v58h80v87q0 134 108 134q34 0 70 -14l-10 -51q-22 6 -37 6q-28 0 -40 -17.5t-12 -54.5v-90h281z" />
    <glyph glyph-name="f_f_j" unicode="ffj" horiz-adv-x="821" 
d="M737 496v-457q0 -73 -22 -122.5t-76 -94.5l-48 27q67 72 67 169v420h-202v-438h-79v438h-202v-438h-79v438h-80v58h80v69q0 69 31 107t93 38q55 0 100 -25l-15 -48q-34 14 -63 14q-35 0 -51 -20t-16 -62v-73h202v76q0 145 124 145q55 0 95 -23l-15 -50q-32 14 -59 14
q-66 0 -66 -82v-80h281zM747 638q0 -28 -9.5 -37t-39.5 -9q-31 0 -40.5 9t-9.5 37t9.5 37t40.5 9q30 0 39.5 -9t9.5 -37z" />
    <glyph glyph-name="f_k" unicode="fk" horiz-adv-x="749" 
d="M733 0h-95l-180 259h-2v-259h-79v649q-49 9 -89 9q-62 0 -87.5 -26t-25.5 -89v-47h99v-58h-99v-438h-79v438h-80v58h80v43q0 86 37.5 132t137.5 46q52 0 110 -8h75v-419h2l158 206h95l-180 -212z" />
    <glyph glyph-name="f_kcommaaccent" unicode="f&#x137;" horiz-adv-x="749" 
d="M733 0h-95l-180 259h-2v-259h-79v649q-49 9 -89 9q-62 0 -87.5 -26t-25.5 -89v-47h99v-58h-99v-438h-79v438h-80v58h80v43q0 86 37.5 132t137.5 46q52 0 110 -8h75v-419h2l158 206h95l-180 -212zM540 -38q38 0 38 -38q0 -40 -25.5 -64t-77.5 -38l-14 30q50 24 50 47
q0 5 -5 11.5t-5 18.5q0 33 39 33z" />
    <glyph glyph-name="f_f_k" unicode="ffk" horiz-adv-x="1030" 
d="M1014 0h-95l-180 259h-2v-259h-79v649q-49 9 -89 9q-62 0 -87.5 -26t-25.5 -89v-47h99v-58h-99v-438h-79v438h-202v-438h-79v438h-80v58h80v69q0 69 31 107t93 38q55 0 100 -25l-15 -48q-34 14 -63 14q-35 0 -51 -20t-16 -62v-73h202v43q0 86 37.5 132t137.5 46
q52 0 110 -8h75v-419h2l158 206h95l-180 -212z" />
    <glyph glyph-name="f_lacute" unicode="f&#x13a;" horiz-adv-x="558" 
d="M523 53l4 -50q-30 -10 -67 -10q-46 0 -65 20t-19 78v558q-49 9 -88 9q-62 0 -87.5 -26t-25.5 -89v-47h99v-58h-99v-438h-79v438h-80v58h80v43q0 86 37.5 132t137.5 46q53 0 109 -8h75v-587q0 -45 7 -58t31 -13q16 0 30 2zM368 775l168 88l38 -56l-181 -70z" />
    <glyph glyph-name="f_lcaron" unicode="f&#x13e;" horiz-adv-x="583" 
d="M523 53l4 -50q-30 -10 -67 -10q-46 0 -65 20t-19 78v558q-49 9 -88 9q-62 0 -87.5 -26t-25.5 -89v-47h99v-58h-99v-438h-79v438h-80v58h80v43q0 86 37.5 132t137.5 46q53 0 109 -8h75v-587q0 -45 7 -58t31 -13q16 0 30 2zM599 737l-56 -172l-44 8l35 177z" />
    <glyph glyph-name="f_lcommaaccent" unicode="f&#x13c;" horiz-adv-x="558" 
d="M523 53l4 -50q-30 -10 -67 -10q-46 0 -65 20t-19 78v558q-49 9 -88 9q-62 0 -87.5 -26t-25.5 -89v-47h99v-58h-99v-438h-79v438h-80v58h80v43q0 86 37.5 132t137.5 46q53 0 109 -8h75v-587q0 -45 7 -58t31 -13q16 0 30 2zM465 -38q38 0 38 -38q0 -40 -25.5 -64t-77.5 -38
l-14 30q50 24 50 47q0 5 -5 11.5t-5 18.5q0 33 39 33z" />
    <glyph glyph-name="f_lslash" unicode="f&#x142;" horiz-adv-x="559" 
d="M523 53l4 -50q-30 -10 -67 -10q-46 0 -65 20t-19 78v238l-74 -40v63l74 40v257q-49 9 -88 9q-62 0 -87.5 -26t-25.5 -89v-47h97v-58h-97v-438h-79v438h-80v58h80v43q0 86 37.5 132t137.5 46q53 0 109 -8h75v-274l73 40v-63l-73 -40v-250q0 -45 7 -58t31 -13q16 0 30 2z
" />
    <glyph glyph-name="f_thorn" unicode="f&#xfe;" horiz-adv-x="811" 
d="M760 267q0 -139 -66 -207t-173 -68q-41 0 -65 4v-169h-79v822q-49 9 -89 9q-62 0 -87.5 -26t-25.5 -89v-47h99v-58h-99v-438h-79v438h-80v58h80v43q0 86 37.5 132t137.5 46q52 0 110 -8h75v-263q72 58 136 58q76 0 122 -66.5t46 -170.5zM456 383v-320q28 -12 77 -12
q65 0 105 51t40 149q0 87 -28.5 138.5t-78.5 51.5q-53 0 -115 -58z" />
    <glyph glyph-name="f_f_thorn" unicode="ff&#xfe;" horiz-adv-x="1092" 
d="M1041 267q0 -139 -66 -207t-173 -68q-41 0 -65 4v-169h-79v822q-49 9 -89 9q-62 0 -87.5 -26t-25.5 -89v-47h99v-58h-99v-438h-79v438h-202v-438h-79v438h-80v58h80v69q0 69 31 107t93 38q55 0 100 -25l-15 -48q-34 14 -63 14q-35 0 -51 -20t-16 -62v-73h202v43
q0 86 37.5 132t137.5 46q52 0 110 -8h75v-263q72 58 136 58q76 0 122 -66.5t46 -170.5zM737 383v-320q29 -12 77 -12q65 0 105 51t40 149q0 87 -28.5 138.5t-78.5 51.5q-53 0 -115 -58z" />
    <glyph glyph-name=".notdef" horiz-adv-x="550" 
d="M300 150h-150v250h50v-200h100v-50zM500 50h-450v450h450v-450zM350 350h-100v50h150v-250h-50v100h-100v50h100v50zM100 100h350v350h-350v-350z" />
    <glyph glyph-name=".null" horiz-adv-x="0" 
 />
    <glyph glyph-name="nonmarkingreturn" horiz-adv-x="333" 
 />
    <glyph glyph-name="CR" unicode="&#xd;" horiz-adv-x="0" 
 />
    <glyph glyph-name="space" unicode=" " horiz-adv-x="240" 
 />
    <glyph glyph-name="exclam" unicode="!" horiz-adv-x="367" 
d="M245 149h-66l-15 526h97zM264 43q0 -29 -10.5 -39.5t-42.5 -10.5q-31 0 -42 10.5t-11 37.5q0 29 11 39.5t43 10.5q31 0 41.5 -10t10.5 -38z" />
    <glyph glyph-name="quotedbl" unicode="&#x22;" horiz-adv-x="436" 
d="M155 420h-60l-10 255h80zM337 420h-60l-10 255h80z" />
    <glyph glyph-name="numbersign" unicode="#" horiz-adv-x="506" 
d="M476 210h-115l-24 -210h-64l24 210h-122l-24 -210h-64l24 210h-81v53h87l22 180h-109v53h115l21 179h64l-21 -179h121l21 179h64l-21 -179h82v-53h-88l-21 -180h109v-53zM303 263l21 180h-121l-22 -180h122z" />
    <glyph glyph-name="dollar" unicode="$" 
d="M269 -105h-50l-6 106q-83 5 -157 52l25 45q64 -37 142 -37q66 0 103 29.5t37 79.5q0 40 -31 68.5t-75 47.5t-88.5 40.5t-75.5 60t-31 93.5q0 62 40.5 105.5t110.5 53.5l6 106h50l6 -104q75 -6 132 -42l-22 -44q-58 29 -127 29q-55 0 -84.5 -27.5t-29.5 -68.5t31.5 -69.5
t76 -47.5t89.5 -40.5t76.5 -60t31.5 -93.5q0 -69 -46.5 -116t-127.5 -58z" />
    <glyph glyph-name="percent" unicode="%" horiz-adv-x="694" 
d="M333 526q0 -70 -36.5 -113.5t-102.5 -43.5q-133 0 -133 155q0 72 37 115.5t103 43.5q132 0 132 -157zM267 523q0 112 -70 112t-70 -108q0 -110 70 -110t70 106zM633 149q0 -70 -36.5 -113.5t-103.5 -43.5q-132 0 -132 155q0 72 37 115.5t103 43.5q69 0 100.5 -43
t31.5 -114zM567 146q0 112 -71 112q-69 0 -69 -108q0 -110 70 -110t70 106zM611 664l-484 -681l-45 28l485 681z" />
    <glyph glyph-name="ampersand" unicode="&#x26;" horiz-adv-x="696" 
d="M653 52v-49q-24 -11 -57 -11q-43 0 -139 78q-90 -78 -208 -78q-96 0 -144.5 46t-48.5 122q0 66 32.5 112.5t90.5 88.5q-73 100 -73 167q0 69 46.5 112t129.5 43q73 0 113.5 -34t40.5 -89q0 -21 -5.5 -40.5t-11.5 -33.5t-22.5 -31.5t-24 -25.5t-32 -25t-31 -21.5
t-34.5 -22.5q62 -76 134 -146l48 -47q64 95 64 209h77q0 -61 -23.5 -129.5t-67.5 -124.5q81 -70 116 -70h30zM265 50q81 0 145 61q-18 16 -57 55q-85 83 -140 150q-79 -63 -79 -143q0 -59 34 -91t97 -32zM182 539q0 -52 60 -135q58 37 88.5 70t30.5 76q0 35 -21.5 57.5
t-66.5 22.5q-42 0 -66.5 -25.5t-24.5 -65.5z" />
    <glyph glyph-name="quotesingle" unicode="'" horiz-adv-x="320" 
d="M192 420h-57l-10 255h78z" />
    <glyph glyph-name="parenleft" unicode="(" horiz-adv-x="310" 
d="M260 -151l-53 -21q-60 91 -94.5 207.5t-34.5 235.5q0 127 35.5 244.5t93.5 209.5l53 -20q-106 -205 -106 -425q0 -223 106 -431z" />
    <glyph glyph-name="parenright" unicode=")" horiz-adv-x="310" 
d="M103 -171l-53 20q106 205 106 425q0 223 -106 431l53 21q60 -91 94.5 -207.5t34.5 -235.5q0 -127 -35.5 -244.5t-93.5 -209.5z" />
    <glyph glyph-name="asterisk" unicode="*" 
d="M437 457l-37 -66l-124 89l13 -152h-76l13 152l-124 -89l-37 66l137 65l-137 65l37 65l124 -88l-13 152h76l-13 -152l124 88l37 -65l-137 -65z" />
    <glyph glyph-name="plus" unicode="+" 
d="M456 268h-172v-189h-68v189h-174v59h174v185h68v-185h172v-59z" />
    <glyph glyph-name="comma" unicode="," horiz-adv-x="304" 
d="M88 -148l-32 35q71 50 71 92q0 13 -12.5 26t-12.5 35q0 33 10 44.5t43 11.5q30 0 40 -12t10 -42q0 -64 -27 -107t-90 -83z" />
    <glyph glyph-name="hyphen" unicode="&#xad;" horiz-adv-x="233" 
d="M232 261h-200v62h200v-62z" />
    <glyph glyph-name="hyphen" unicode="-" horiz-adv-x="233" 
d="M232 261h-200v62h200v-62z" />
    <glyph glyph-name="period" unicode="." horiz-adv-x="290" 
d="M205 45q0 -32 -10.5 -42.5t-41.5 -10.5t-41.5 10.5t-10.5 40.5q0 32 10.5 42.5t42.5 10.5q31 0 41 -10.5t10 -40.5z" />
    <glyph glyph-name="slash" unicode="/" 
d="M487 709l-414 -813h-73l414 813h73z" />
    <glyph glyph-name="zero" unicode="0" 
d="M458 290q0 -298 -214 -298q-103 0 -153 66t-50 218q0 299 215 299q102 0 152 -66t50 -219zM376 283q0 125 -30.5 177.5t-95.5 52.5t-96 -53.5t-31 -176.5q0 -124 31 -176.5t95 -52.5q65 0 96 53t31 176z" />
    <glyph glyph-name="one" unicode="1" 
d="M446 0h-373v68h152v417l-137 -47l-18 51l174 78h66v-499h136v-68z" />
    <glyph glyph-name="two" unicode="2" 
d="M445 0h-389v57q176 147 230.5 212.5t54.5 127.5q0 58 -33 85t-86 27q-58 0 -143 -27l-12 55q100 38 177 38q84 0 134.5 -42t50.5 -124q0 -80 -54.5 -146.5t-212.5 -194.5h283v-68z" />
    <glyph glyph-name="three" unicode="3" 
d="M32 -72l8 49q93 -23 159 -23q148 0 148 134q0 66 -33 99.5t-110 33.5h-69v63h66q126 0 126 122q0 104 -117 104q-65 0 -143 -24l-12 54q91 35 173 35q94 0 139 -43t45 -113q0 -64 -29.5 -105t-74.5 -54q126 -23 126 -167q0 -99 -59.5 -151.5t-165.5 -52.5q-78 0 -177 39z
" />
    <glyph glyph-name="four" unicode="4" 
d="M272 567h115v-449h81v-68h-81v-154h-78v154h-282v60q128 261 245 457zM309 118v382h-2q-96 -163 -206 -382h208z" />
    <glyph glyph-name="five" unicode="5" 
d="M391 497h-239l-14 -205q45 8 97 8q99 0 151 -49t52 -141q0 -105 -60 -163t-169 -58q-76 0 -175 39l8 49q93 -23 161 -23q151 0 151 148q0 134 -150 134q-65 0 -138 -16l21 347h304v-70z" />
    <glyph glyph-name="six" unicode="6" 
d="M437 651l-9 -49q-74 19 -133 19q-80 0 -116.5 -66t-37.5 -209q84 48 148 48q81 0 123 -46t42 -129q0 -108 -52.5 -167.5t-143.5 -59.5q-45 0 -78.5 14t-61.5 48.5t-43 99t-15 158.5q0 86 12 152t32.5 107t50.5 66.5t62.5 35.5t71.5 10q65 0 148 -32zM142 289v-4
q0 -122 29.5 -177t91.5 -55q111 0 111 155q0 123 -110 123q-51 0 -122 -42z" />
    <glyph glyph-name="seven" unicode="7" 
d="M460 506l-142 -299q-71 -152 -167 -318l-55 21l268 587h-320v70h416v-61z" />
    <glyph glyph-name="eight" unicode="8" 
d="M443 527q0 -60 -33 -99t-94 -74q67 -35 104 -76.5t37 -110.5q0 -78 -54 -126.5t-158 -48.5q-100 0 -151 44t-51 118q0 66 37 107.5t104 80.5q-60 34 -93.5 73.5t-33.5 100.5q0 75 52.5 121t146.5 46q97 0 142 -42.5t45 -113.5zM376 160q0 28 -10 50.5t-32 41.5t-41.5 31
t-52.5 30q-56 -32 -86 -65.5t-30 -82.5q0 -54 33.5 -84t97.5 -30q54 0 87.5 29.5t33.5 79.5zM137 525q0 -49 31 -80t90 -61q51 30 78 61t27 76q0 104 -114 104q-52 0 -82 -27.5t-30 -72.5z" />
    <glyph glyph-name="nine" unicode="9" 
d="M50 -79l8 49q83 -20 146 -20q79 0 116.5 65.5t39.5 205.5q-84 -48 -148 -48q-82 0 -123.5 46t-41.5 129q0 108 52.5 167.5t142.5 59.5q94 0 146.5 -70t52.5 -250q0 -106 -18 -180t-51 -113.5t-72 -56.5t-89 -17q-71 0 -161 33zM126 359q0 -123 110 -123q51 0 122 42v4
q0 122 -29 177t-92 55q-111 0 -111 -155z" />
    <glyph glyph-name="colon" unicode=":" horiz-adv-x="306" 
d="M216 447q0 -28 -11 -38.5t-39 -10.5t-39.5 10.5t-11.5 37.5q0 28 11.5 38.5t39.5 10.5t39 -10t11 -38zM216 48q0 -29 -11 -39t-39 -10t-39.5 10t-11.5 37q0 28 11.5 38.5t39.5 10.5t39 -10t11 -37z" />
    <glyph glyph-name="semicolon" unicode=";" horiz-adv-x="306" 
d="M215 447q0 -28 -11 -38.5t-39 -10.5t-39.5 10.5t-11.5 37.5q0 28 11.5 38.5t40.5 10.5q28 0 38.5 -10t10.5 -38zM98 -147l-31 31q74 50 74 97q0 12 -13.5 24.5t-13.5 34.5q0 29 11 40t41 11q27 0 38 -11.5t11 -38.5q0 -60 -27.5 -104t-89.5 -84z" />
    <glyph glyph-name="less" unicode="&#x3c;" 
d="M450 131l-28 -60l-384 199v55l384 199l28 -59l-330 -167z" />
    <glyph glyph-name="equal" unicode="=" 
d="M451 363h-402v59h402v-59zM451 173h-402v59h402v-59z" />
    <glyph glyph-name="greater" unicode="&#x3e;" 
d="M462 270l-384 -199l-28 59l330 167l-330 167l28 60l384 -199v-55z" />
    <glyph glyph-name="question" unicode="?" 
d="M430 532q0 -43 -16.5 -78t-39.5 -60t-47 -48.5t-41 -55.5t-18 -69l-1 -72h-66l-4 78q-2 36 12 70t35.5 60t44 50.5t38 53t15.5 57.5q0 45 -31 72.5t-86 27.5q-62 0 -125 -21l-19 50q85 36 164 36q92 0 138.5 -41.5t46.5 -109.5zM286 41q0 -28 -10.5 -38t-41.5 -10
q-32 0 -42.5 10t-10.5 38q0 29 11 39.5t43 10.5q31 0 41 -10t10 -40z" />
    <glyph glyph-name="at" unicode="@" horiz-adv-x="1010" 
d="M734 -55l13 -48q-131 -60 -282 -60q-194 0 -290 94.5t-96 274.5q0 141 55 254.5t167 182t263 68.5q169 0 251.5 -80.5t82.5 -222.5q0 -148 -75 -240.5t-220 -92.5h-38l2 97q-81 -104 -157 -104q-121 0 -121 162q0 127 64.5 198.5t180.5 71.5q68 0 136 -18l-39 -347
q96 0 144.5 70.5t48.5 182.5q0 130 -63 199t-210 69q-98 0 -176 -36.5t-125 -98.5t-71.5 -139t-24.5 -163q0 -165 75.5 -245.5t250.5 -80.5q57 0 130 15.5t124 36.5zM566 241l21 190q-36 9 -66 9q-75 0 -112.5 -53t-37.5 -142q0 -113 64 -113q53 0 131 109z" />
    <glyph glyph-name="A" unicode="A" horiz-adv-x="531" 
d="M514 0h-90q-14 61 -37 147h-254q-12 -50 -34 -147h-82q83 346 195 675h102q121 -356 200 -675zM147 211h226q-57 201 -116 384h-2q-61 -201 -108 -384z" />
    <glyph glyph-name="B" unicode="B" horiz-adv-x="544" 
d="M92 0v675h182q95 0 144 -43t49 -111q0 -58 -30 -97.5t-77 -56.5q63 -9 102.5 -51.5t39.5 -110.5q0 -93 -65.5 -150t-192.5 -57q-31 0 -81.5 1t-70.5 1zM174 614v-230h69q71 0 104.5 36.5t33.5 88.5q0 48 -30 76.5t-92 28.5h-85zM174 324v-259q47 -5 90 -5q75 0 112.5 37
t37.5 100q0 127 -159 127h-81z" />
    <glyph glyph-name="C" unicode="C" horiz-adv-x="518" 
d="M449 134l36 -42q-76 -100 -195 -100q-114 0 -174.5 84.5t-60.5 250.5t67 261t178 95q120 0 174 -110l-41 -35q-49 78 -126 78q-55 0 -93.5 -40t-55 -100t-16.5 -133q0 -283 165 -283q78 0 142 74z" />
    <glyph glyph-name="D" unicode="D" horiz-adv-x="580" 
d="M92 0v675q26 0 75.5 0.5t74.5 0.5q61 0 109.5 -17t81 -46t53.5 -70.5t30 -88t9 -100.5q0 -171 -75.5 -263.5t-226.5 -92.5q-26 0 -70.5 1t-60.5 1zM175 611v-545q31 -3 65 -3q198 0 198 280q0 269 -205 269q-39 0 -58 -1z" />
    <glyph glyph-name="E" unicode="E" horiz-adv-x="472" 
d="M416 0h-324v675h320v-66h-237v-226h195v-63h-195v-254h241v-66z" />
    <glyph glyph-name="F" unicode="F" horiz-adv-x="451" 
d="M406 610h-231v-236h211v-64h-211v-310h-83v675h314v-65z" />
    <glyph glyph-name="G" unicode="G" horiz-adv-x="572" 
d="M491 367v-299q-83 -76 -199 -76q-113 0 -175 83.5t-62 254.5q0 167 72 260t181 93q99 0 175 -82l-36 -38q-68 53 -133 53q-79 0 -125.5 -70.5t-46.5 -200.5q0 -285 162 -285q63 0 105 33v211h-98v63h180z" />
    <glyph glyph-name="H" unicode="H" horiz-adv-x="658" 
d="M566 0h-83v319h-308v-319h-83v675h83v-285h308v285h83v-675z" />
    <glyph glyph-name="I" unicode="I" horiz-adv-x="266" 
d="M175 0h-83v675h83v-675z" />
    <glyph glyph-name="J" unicode="J" horiz-adv-x="274" 
d="M182 675v-606q0 -84 -20.5 -141t-74.5 -102l-42 35q32 37 43 85t11 124v605h83z" />
    <glyph glyph-name="K" unicode="K" horiz-adv-x="522" 
d="M498 0h-99l-223 333h-1v-333h-83v675h83v-301h1l211 301h94l-230 -307z" />
    <glyph glyph-name="L" unicode="L" horiz-adv-x="421" 
d="M403 0h-311v675h83v-608h228v-67z" />
    <glyph glyph-name="M" unicode="M" horiz-adv-x="840" 
d="M761 0h-88q-6 318 -36 574h-2l-189 -574h-66l-191 574h-1q-22 -238 -27 -574h-81q8 350 50 675h108l182 -539h1l181 539h105q45 -348 54 -675z" />
    <glyph glyph-name="N" unicode="N" horiz-adv-x="651" 
d="M560 0h-81l-232 411l-87 161h-1q4 -89 4 -157v-415h-71v675h103l206 -366l90 -165h1q-4 95 -4 163v368h72v-675z" />
    <glyph glyph-name="O" unicode="O" horiz-adv-x="637" 
d="M582 349q0 -181 -73 -269t-198 -88q-256 0 -256 334q0 181 73 269t198 88q256 0 256 -334zM495 332q0 149 -45 218t-134 69q-174 0 -174 -276q0 -149 44.5 -217.5t134.5 -68.5q174 0 174 275z" />
    <glyph glyph-name="P" unicode="P" horiz-adv-x="515" 
d="M175 0h-83v675q19 0 67 0.5t84 0.5q244 0 244 -202q0 -101 -66.5 -163t-206.5 -62h-39v-249zM175 613v-300h55q85 0 127 40t42 111q0 74 -39 111.5t-129 37.5h-56z" />
    <glyph glyph-name="Q" unicode="Q" horiz-adv-x="637" 
d="M698 -117l-29 -36q-48 28 -116 30q-15 0 -41 -1.5t-39 -1.5q-48 0 -86.5 25t-74.5 93q-125 -2 -191 79.5t-66 254.5q0 181 73 269t198 88q256 0 256 -333q0 -161 -57 -248.5t-158 -103.5q49 -60 130 -60q12 0 35 1t35 1q77 0 131 -57zM495 332q0 149 -45 218t-134 69
q-174 0 -174 -275q0 -149 44.5 -218t134.5 -69q174 0 174 275z" />
    <glyph glyph-name="R" unicode="R" horiz-adv-x="541" 
d="M527 0h-98l-195 297h-59v-297h-83v675q96 2 172 2q113 0 169.5 -48t56.5 -130q0 -87 -50 -131t-124 -57zM175 613v-252h80q70 0 108.5 33.5t38.5 94.5q0 124 -152 124h-75z" />
    <glyph glyph-name="S" unicode="S" horiz-adv-x="496" 
d="M457 183q0 -84 -60 -137.5t-159 -53.5q-95 0 -187 56l21 46q87 -38 153 -38q65 0 103 30.5t38 86.5q0 44 -32 75.5t-77.5 52t-91.5 43.5t-78 64t-32 100q0 78 55.5 126.5t143.5 48.5q89 0 162 -46l-21 -46q-67 29 -129 29q-61 0 -92.5 -28t-31.5 -73t32.5 -76.5t79 -52.5
t92.5 -44t78.5 -64t32.5 -99z" />
    <glyph glyph-name="T" unicode="T" horiz-adv-x="466" 
d="M450 609h-176v-609h-83v609h-175v66h434v-66z" />
    <glyph glyph-name="U" unicode="U" horiz-adv-x="652" 
d="M562 675v-427q0 -131 -65 -193.5t-182 -62.5q-115 0 -170 58t-55 185v440h83v-429q0 -104 36.5 -147.5t118.5 -43.5q75 0 113.5 42.5t38.5 143.5v434h82z" />
    <glyph glyph-name="V" unicode="V" horiz-adv-x="524" 
d="M424 675h83q-85 -373 -196 -675h-97q-125 359 -197 675h91q60 -272 161 -588h2q86 267 153 588z" />
    <glyph glyph-name="W" unicode="W" horiz-adv-x="851" 
d="M747 675h82q-83 -370 -181 -675h-91l-113 439l-21 95h-1l-20 -98l-104 -436h-93q-103 313 -182 675h89q42 -197 145 -570h2l14 69l119 501h76l125 -491l18 -79h1q83 310 135 570z" />
    <glyph glyph-name="X" unicode="X" horiz-adv-x="543" 
d="M515 0h-94q-83 174 -157 288h-1q-92 -143 -153 -288h-85q73 164 193 352q-97 157 -175 323h92q78 -166 137 -259h2q86 131 138 259h84q-67 -155 -177 -317q119 -190 196 -358z" />
    <glyph glyph-name="Y" unicode="Y" horiz-adv-x="483" 
d="M397 675h87q-108 -240 -201 -381v-294h-83v294q-106 166 -201 381h93q86 -192 156 -307h1q74 121 148 307z" />
    <glyph glyph-name="Z" unicode="Z" horiz-adv-x="486" 
d="M446 0h-407v57l296 551h-281l2 67h378v-55l-295 -552h310z" />
    <glyph glyph-name="bracketleft" unicode="[" horiz-adv-x="354" 
d="M287 -173h-166v912h166v-53h-96v-806h96v-53z" />
    <glyph glyph-name="backslash" unicode="\" 
d="M500 -104h-74l-413 813h74z" />
    <glyph glyph-name="bracketright" unicode="]" horiz-adv-x="354" 
d="M233 -173h-167v53h96v806h-96v53h167v-912z" />
    <glyph glyph-name="asciicircum" unicode="^" 
d="M461 391l-62 -25l-149 277l-149 -277l-61 25l176 318h69z" />
    <glyph glyph-name="underscore" unicode="_" 
d="M500 -176h-500v62h500v-62z" />
    <glyph glyph-name="grave" unicode="`" horiz-adv-x="329" 
d="M258 586l-40 -26l-147 121l59 39z" />
    <glyph glyph-name="a" unicode="a" horiz-adv-x="493" 
d="M410 0h-62l-7 56q-77 -64 -156 -64q-65 0 -104.5 36.5t-39.5 99.5q0 163 248 163h42v52q0 52 -26.5 76.5t-85.5 24.5q-63 0 -140 -29l-13 51q92 38 175 38q87 0 128 -40t41 -109v-355zM331 108v130h-47q-92 0 -128 -26.5t-36 -74.5q0 -87 87 -87q58 0 124 58z" />
    <glyph glyph-name="b" unicode="b" horiz-adv-x="519" 
d="M84 8v701h79v-263q73 58 137 58q76 0 122 -67t46 -171q0 -139 -67 -206.5t-178 -67.5q-66 0 -139 16zM163 384v-321q33 -12 78 -12q64 0 104.5 51t40.5 149q0 86 -28.5 138t-78.5 52q-55 0 -116 -57z" />
    <glyph glyph-name="c" unicode="c" horiz-adv-x="427" 
d="M370 106l29 -41q-68 -73 -161 -73q-91 0 -139 63t-48 186q0 120 53 191.5t140 71.5t142 -61l-31 -41q-48 41 -101 41q-57 0 -88.5 -50.5t-31.5 -140.5q0 -198 121 -198q59 0 115 52z" />
    <glyph glyph-name="d" unicode="d" horiz-adv-x="519" 
d="M434 0h-64l-8 55q-77 -63 -146 -63q-74 0 -119.5 66t-45.5 171q0 140 66 207.5t169 67.5q1 0 69 -4v209h79v-709zM355 111v321q-41 13 -79 13q-64 0 -103.5 -51t-39.5 -150q0 -88 28.5 -139t78.5 -51t115 57z" />
    <glyph glyph-name="e" unicode="e" horiz-adv-x="490" 
d="M431 238h-298v-10q0 -91 34.5 -132.5t102.5 -41.5q70 0 145 31l15 -48q-87 -45 -179 -45q-200 0 -200 241q0 129 53.5 200t149.5 71q192 0 177 -266zM133 291h221v4q0 152 -105 152q-54 0 -83 -43t-33 -113z" />
    <glyph glyph-name="f" unicode="f" horiz-adv-x="295" 
d="M328 688l-16 -47q-39 17 -68 17q-37 0 -53 -20t-16 -62v-80h109v-58h-109v-438h-79v438h-80v58h80v76q0 69 31 107t95 38q58 0 106 -29z" />
    <glyph glyph-name="g" unicode="g" horiz-adv-x="519" 
d="M434 487v-471q0 -111 -48.5 -152.5t-141.5 -41.5q-74 0 -155 30l7 46q87 -15 141 -15q62 0 90 25.5t28 87.5v73q-74 -57 -139 -57q-73 0 -119 65t-46 164q0 131 67.5 197t170.5 66q60 0 145 -17zM355 129v302q-39 14 -81 14q-62 0 -101.5 -49.5t-39.5 -136.5
q0 -85 28 -135.5t79 -50.5q53 0 115 56z" />
    <glyph glyph-name="h" unicode="h" horiz-adv-x="540" 
d="M456 0h-78q0 51 1 145t1 121q0 93 -23 133.5t-68 40.5q-55 0 -126 -59v-381h-79v709h79v-267q81 62 147 62q72 0 110.5 -51.5t38.5 -168.5q0 -25 -1.5 -126t-1.5 -158z" />
    <glyph glyph-name="i" unicode="i" horiz-adv-x="248" 
d="M173 638q0 -28 -9.5 -37t-38.5 -9q-31 0 -41 9.5t-10 36.5t10 36.5t41 9.5q30 0 39 -9t9 -37zM163 0h-79v496h79v-496z" />
    <glyph glyph-name="j" unicode="j" horiz-adv-x="248" 
d="M163 496v-457q0 -73 -22 -122.5t-75 -94.5l-48 27q66 71 66 169v478h79zM173 638q0 -28 -9.5 -37t-38.5 -9q-31 0 -41 9.5t-10 36.5t10 36.5t41 9.5q30 0 39 -9t9 -37z" />
    <glyph glyph-name="k" unicode="k" horiz-adv-x="457" 
d="M441 0h-95l-180 259h-3v-259h-79v709h79v-419h3l157 206h96l-180 -212z" />
    <glyph glyph-name="l" unicode="l" horiz-adv-x="266" 
d="M232 53l4 -50q-30 -10 -68 -10q-46 0 -65 20t-19 78v618h79v-587q0 -45 7.5 -58t31.5 -13q14 0 30 2z" />
    <glyph glyph-name="m" unicode="m" horiz-adv-x="814" 
d="M731 0h-79q0 48 1.5 140.5t1.5 124.5q0 93 -21 134t-64 41q-55 0 -130 -66q8 -40 8 -88v-286h-79v265q0 93 -20.5 134t-63.5 41q-51 0 -122 -59v-381h-79v496h65l7 -59q83 67 152 67q82 0 117 -79q94 79 168 79q141 0 141 -220q0 -30 -1.5 -130t-1.5 -154z" />
    <glyph glyph-name="n" unicode="n" horiz-adv-x="540" 
d="M456 0h-78q0 48 1 140.5t1 125.5q0 93 -23 133.5t-68 40.5q-55 0 -126 -59v-381h-79v496h65l7 -59q83 67 154 67q73 0 111 -51.5t38 -168.5q0 -30 -1.5 -130t-1.5 -154z" />
    <glyph glyph-name="o" unicode="o" horiz-adv-x="522" 
d="M471 257q0 -132 -59 -198.5t-162 -66.5q-199 0 -199 247q0 132 58.5 198.5t161.5 66.5q200 0 200 -247zM389 236q0 111 -31.5 159t-97.5 48q-60 0 -93.5 -46t-33.5 -137q0 -112 31 -160t98 -48q59 0 93 46t34 138z" />
    <glyph glyph-name="p" unicode="p" horiz-adv-x="519" 
d="M163 -173h-79v669h64l8 -56q76 64 144 64q77 0 122.5 -66t45.5 -171q0 -138 -66 -206.5t-174 -68.5q-42 0 -65 3v-168zM163 384v-320q35 -13 78 -13q65 0 105 50.5t40 149.5q0 86 -28.5 138t-78.5 52q-53 0 -116 -57z" />
    <glyph glyph-name="q" unicode="q" horiz-adv-x="519" 
d="M434 -173h-79v223q-67 -58 -136 -58q-76 0 -122 66t-46 171q0 139 67 207t179 68q69 0 137 -17v-660zM355 111v321q-34 13 -78 13q-64 0 -104 -51.5t-40 -149.5q0 -87 28 -138.5t78 -51.5t116 57z" />
    <glyph glyph-name="r" unicode="r" horiz-adv-x="349" 
d="M325 493l-10 -74q-20 7 -38 7q-23 0 -48.5 -20t-65.5 -69v-337h-79v496h65l8 -90q43 54 71.5 75.5t55.5 21.5q20 0 41 -10z" />
    <glyph glyph-name="s" unicode="s" horiz-adv-x="401" 
d="M41 27l10 45q71 -21 120 -21q52 0 79 22t27 57q0 32 -24 53t-58.5 33.5t-69 27.5t-58.5 46t-24 77q0 60 44.5 98.5t117.5 38.5q61 0 118 -29l-12 -44q-49 15 -93 15q-45 0 -69 -20t-24 -51q0 -32 24.5 -53t59 -33.5t69 -27.5t59 -46t24.5 -78q0 -65 -48.5 -105
t-129.5 -40q-74 0 -142 35z" />
    <glyph glyph-name="t" unicode="t" horiz-adv-x="347" 
d="M311 69l10 -48q-61 -29 -112 -29q-63 0 -88.5 30t-25.5 103v313h-79v58h80q13 71 21 141h57v-141h134v-58h-134v-293q0 -52 12 -72t47 -20q32 0 78 16z" />
    <glyph glyph-name="u" unicode="u" horiz-adv-x="540" 
d="M455 0h-65l-7 58q-84 -66 -154 -66q-149 0 -149 220q0 30 2 130t2 154h78q0 -48 -1 -141t-1 -125q0 -92 22.5 -133t68.5 -41q55 0 125 58v382h79v-496z" />
    <glyph glyph-name="v" unicode="v" horiz-adv-x="461" 
d="M350 496h84q-56 -286 -163 -496h-89l-163 496h86l109 -329l22 -84h1q75 179 113 413z" />
    <glyph glyph-name="w" unicode="w" horiz-adv-x="730" 
d="M620 496h80q-42 -238 -143 -496h-86l-97 333l-14 64h-1l-13 -65l-85 -332h-90l-146 496h85l89 -316l23 -92h2l16 78l82 330h85l98 -339l16 -69h2q70 227 97 408z" />
    <glyph glyph-name="x" unicode="x" horiz-adv-x="469" 
d="M443 0h-93l-120 215h-2q-73 -133 -113 -215h-89l158 262l-133 234h91l96 -182h1q42 72 92 182h86l-134 -224z" />
    <glyph glyph-name="y" unicode="y" horiz-adv-x="461" 
d="M350 496h84q-35 -166 -75 -290.5t-76.5 -196t-77 -115t-73 -57.5t-67.5 -14q-24 0 -61 13v48q18 -2 42 -2q52 0 86 31q42 41 42 89q0 45 -38 152l-117 342h86l95 -284q33 -96 31 -161h2q33 79 66 204t51 241z" />
    <glyph glyph-name="z" unicode="z" horiz-adv-x="400" 
d="M356 62l-2 -62h-312v51l212 384h-203l3 61h291v-50l-212 -384h223z" />
    <glyph glyph-name="braceleft" unicode="{" horiz-adv-x="388" 
d="M306 -173h-38q-67 0 -93.5 30.5t-26.5 94.5v211q0 95 -73 95h-23v60h23q41 0 57 24t16 68v205q0 124 123 124h35v-50h-26q-29 0 -45 -19.5t-16 -54.5v-177q0 -136 -92 -149q92 -15 92 -152v-186q0 -41 13.5 -57.5t47.5 -16.5h26v-50z" />
    <glyph glyph-name="bar" unicode="|" horiz-adv-x="252" 
d="M161 -173h-72v926h72v-926z" />
    <glyph glyph-name="braceright" unicode="}" horiz-adv-x="388" 
d="M334 258h-22q-74 0 -74 -92v-215q0 -124 -122 -124h-35v50h26q29 0 45 19.5t16 54.5v187q0 136 91 149q-91 15 -91 152v176q0 40 -14 57t-48 17h-25v50h38q67 0 93 -30.5t26 -94.5v-201q0 -95 74 -95h22v-60z" />
    <glyph glyph-name="asciitilde" unicode="~" 
d="M463 600v-13q0 -61 -35.5 -100.5t-95.5 -39.5q-37 0 -65 16.5t-41.5 36t-32 36t-40.5 16.5q-63 0 -63 -91h-61v13q0 63 36 101.5t94 38.5q37 0 65 -16t41.5 -36t32.5 -36t41 -16q63 0 63 90h61z" />
    <glyph glyph-name="uni00A0" unicode="&#xa0;" horiz-adv-x="240" 
 />
    <glyph glyph-name="exclamdown" unicode="&#xa1;" horiz-adv-x="367" 
d="M122 422h67l15 -526h-98zM103 530q0 28 11 38t42 10q32 0 42.5 -10t10.5 -38q0 -29 -10.5 -39.5t-42.5 -10.5t-42.5 10t-10.5 40z" />
    <glyph glyph-name="cent" unicode="&#xa2;" 
d="M395 215l28 -41q-58 -55 -125 -64l-8 -112h-50l-6 108q-168 16 -168 225q0 100 45.5 161.5t122.5 75.5l6 109h50l7 -108q62 -6 113 -57l-30 -40q-52 41 -101 41q-58 0 -94 -45.5t-36 -123.5q0 -89 33.5 -133.5t93.5 -44.5q61 0 119 49z" />
    <glyph glyph-name="sterling" unicode="&#xa3;" 
d="M450 0h-407v55q57 57 75 114.5t7 141.5h-90v57h80q-20 87 -20 126q0 95 49 141.5t131 46.5q81 0 159 -38l-12 -46q-76 23 -128 23q-63 0 -88.5 -30.5t-25.5 -85.5q0 -35 20 -137h184v-57h-175q10 -80 -5.5 -137t-67.5 -109h314v-65z" />
    <glyph glyph-name="currency" unicode="&#xa4;" 
d="M465 54l-55 -37l-65 85q-46 -29 -104 -29q-56 0 -89 24l-61 -80l-55 37l70 74q-33 46 -33 125q0 87 39 137l-76 80l54 38l66 -86q44 30 102 30q54 0 91 -25l61 81l55 -38l-72 -75q34 -45 34 -123q0 -87 -39 -137zM354 258q0 77 -25 110t-79 33q-105 0 -105 -135
q0 -77 25.5 -110t79.5 -33q104 0 104 135z" />
    <glyph glyph-name="yen" unicode="&#xa5;" 
d="M432 297v-56h-142v-85h142v-56h-142v-100h-80v100h-142v56h142v85h-142v56h142v21q-97 147 -199 357h91q80 -177 156 -293q64 97 146 293h86q-121 -242 -200 -357v-21h142z" />
    <glyph glyph-name="brokenbar" unicode="&#xa6;" horiz-adv-x="252" 
d="M160 198v-371h-68v371h68zM92 366v390h68v-390h-68z" />
    <glyph glyph-name="section" unicode="&#xa7;" horiz-adv-x="503" 
d="M106 -145l18 47q44 -17 92 -17q85 0 85 85q0 33 -26 67t-63 66t-74 68.5t-63 88.5t-26 112q0 118 75.5 214t166.5 96q60 0 102 -26l-17 -47q-37 13 -84 13q-83 0 -83 -85q0 -33 26 -67t63 -66.5t74 -69t63 -89t26 -113.5q0 -116 -75.5 -212t-167.5 -96q-59 0 -112 31z
M392 118q0 57 -29 106t-67.5 83.5t-75 68.5t-53.5 74.5t-1 86.5q-47 -65 -47 -151q0 -41 15.5 -78.5t39 -64t52 -54t54 -49.5t45 -50.5t25 -56.5t-6.5 -67q49 70 49 152z" />
    <glyph glyph-name="dieresis" unicode="&#xa8;" horiz-adv-x="421" 
d="M350 638q0 -24 -8.5 -32.5t-34.5 -8.5t-34.5 8t-8.5 33q0 26 8.5 34.5t34.5 8.5t34.5 -8.5t8.5 -34.5zM157 638q0 -24 -8 -32.5t-34 -8.5t-35 8t-9 33q0 26 9 34.5t35 8.5t34 -8.5t8 -34.5z" />
    <glyph glyph-name="copyright" unicode="&#xa9;" horiz-adv-x="774" 
d="M729 343q0 -146 -98.5 -249.5t-247.5 -103.5q-144 0 -241.5 98.5t-97.5 242.5q0 145 99 249t249 104q143 0 240 -98.5t97 -242.5zM668 341q0 124 -81 208t-197 84q-122 0 -203 -87.5t-81 -212.5q0 -124 80.5 -208t197.5 -84q121 0 202.5 87.5t81.5 212.5zM486 237l26 -36
q-55 -52 -127 -52t-111.5 47.5t-39.5 137.5t45 143t118 53q60 0 105 -46l-28 -35q-33 28 -73 28q-42 0 -66.5 -37t-24.5 -97q0 -140 91 -140q44 0 85 34z" />
    <glyph glyph-name="ordfeminine" unicode="&#xaa;" horiz-adv-x="459" 
d="M354 339h-55l-5 44q-63 -51 -122 -51q-47 0 -76.5 30t-29.5 76q0 53 42.5 86.5t137.5 33.5h40v28q0 43 -17.5 60t-64.5 17q-53 0 -113 -20l-11 43q62 30 138 30q136 0 136 -121v-256zM286 425v87h-38q-64 0 -89 -17t-25 -50q0 -27 15 -44.5t42 -17.5q38 0 95 42zM361 211
h-290v51h290v-51z" />
    <glyph glyph-name="guillemotleft" unicode="&#xab;" horiz-adv-x="504" 
d="M224 123l-52 -20l-123 192l123 192l52 -21l-93 -171zM417 129l-51 -19l-119 185l119 185l51 -20l-88 -165z" />
    <glyph glyph-name="logicalnot" unicode="&#xac;" 
d="M443 133h-69v134h-333v61h402v-195z" />
    <glyph glyph-name="registered" unicode="&#xae;" horiz-adv-x="567" 
d="M510 488q0 -94 -65.5 -161.5t-164.5 -67.5q-96 0 -160.5 64t-64.5 157q0 95 66 162.5t165 67.5q96 0 160 -64t64 -158zM460 487q0 77 -51 128.5t-124 51.5q-77 0 -128.5 -54t-51.5 -131t51 -129t124 -52q77 0 128.5 54.5t51.5 131.5zM375 367h-55l-46 97h-20v-97h-46v239
q32 1 74 1t62.5 -18t20.5 -49q0 -51 -48 -69zM254 573v-75h26q39 0 39 39q0 36 -41 36h-24z" />
    <glyph glyph-name="macron" unicode="&#x2c9;" horiz-adv-x="404" 
d="M332 603h-261v58h261v-58z" />
    <glyph glyph-name="macron" unicode="&#xaf;" horiz-adv-x="404" 
d="M332 603h-261v58h261v-58z" />
    <glyph glyph-name="degree" unicode="&#xb0;" horiz-adv-x="450" 
d="M360 562q0 -58 -37.5 -95t-96.5 -37q-64 0 -99 33t-35 94q0 59 38 96t100 37t96 -33.5t34 -94.5zM293 560q0 79 -66 79q-34 0 -51.5 -21t-17.5 -58q0 -78 69 -78q33 0 49.5 21.5t16.5 56.5z" />
    <glyph glyph-name="plusminus" unicode="&#xb1;" 
d="M455 0h-412v57h412v-57zM455 311h-172v-178h-67v178h-173v57h173v175h67v-175h172v-57z" />
    <glyph glyph-name="twosuperior" unicode="&#xb2;" horiz-adv-x="343" 
d="M304 364h-262v49q109 89 144 129.5t35 79.5q0 57 -68 57q-30 0 -96 -17l-10 42q68 26 124 26q53 0 87.5 -25.5t34.5 -75.5q0 -47 -38.5 -95t-132.5 -116h182v-54z" />
    <glyph glyph-name="threesuperior" unicode="&#xb3;" horiz-adv-x="344" 
d="M38 378l6 38q65 -12 104 -12q90 0 90 62t-89 62h-54v46h54q76 0 76 57q0 51 -72 51q-41 0 -91 -13l-10 40q59 21 114 21q66 0 98 -25t32 -66q0 -62 -68 -83q40 -7 60.5 -30t20.5 -56q0 -55 -41 -84t-110 -29q-53 0 -120 21z" />
    <glyph glyph-name="acute" unicode="&#xb4;" horiz-adv-x="329" 
d="M258 681l-146 -121l-41 26l128 134z" />
    <glyph glyph-name="mu" unicode="&#x3bc;" horiz-adv-x="559" 
d="M476 -7q-71 0 -87 68q-75 -67 -146 -67q-64 0 -90 58q10 -174 11 -225h-80v669h79v-284q0 -79 20 -117.5t75 -38.5q50 0 122 58v382h78v-356q0 -48 11 -68t35 -20q20 0 39 7l9 -47q-41 -19 -76 -19z" />
    <glyph glyph-name="mu" unicode="&#xb5;" horiz-adv-x="559" 
d="M476 -7q-71 0 -87 68q-75 -67 -146 -67q-64 0 -90 58q10 -174 11 -225h-80v669h79v-284q0 -79 20 -117.5t75 -38.5q50 0 122 58v382h78v-356q0 -48 11 -68t35 -20q20 0 39 7l9 -47q-41 -19 -76 -19z" />
    <glyph glyph-name="paragraph" unicode="&#xb6;" horiz-adv-x="620" 
d="M529 -104h-66v724h-98v-724h-66v404q-97 -16 -163 37.5t-66 146.5q0 84 55 137.5t150 53.5h254v-779z" />
    <glyph glyph-name="periodcentered" unicode="&#x2219;" horiz-adv-x="261" 
d="M182 297q0 -31 -10 -41t-41 -10t-41 10t-10 40q0 31 10 41.5t42 10.5q30 0 40 -10.5t10 -40.5z" />
    <glyph glyph-name="periodcentered" unicode="&#xb7;" horiz-adv-x="261" 
d="M182 297q0 -31 -10 -41t-41 -10t-41 10t-10 40q0 31 10 41.5t42 10.5q30 0 40 -10.5t10 -40.5z" />
    <glyph glyph-name="cedilla" unicode="&#xb8;" horiz-adv-x="261" 
d="M118 -43h70q10 -80 -73 -136l-44 25q30 26 40 49.5t7 61.5z" />
    <glyph glyph-name="onesuperior" unicode="&#xb9;" horiz-adv-x="336" 
d="M296 364h-245v51h92v249l-81 -24l-12 40l109 45h54v-310h83v-51z" />
    <glyph glyph-name="ordmasculine" unicode="&#xba;" horiz-adv-x="435" 
d="M377 532q0 -98 -47.5 -148.5t-123.5 -50.5q-156 0 -156 187q0 97 47 146t120 49q72 0 116 -45t44 -138zM306 515q0 79 -23 113.5t-71 34.5q-44 0 -68 -33.5t-24 -94.5q0 -80 23.5 -115t71.5 -35q91 0 91 130zM358 211h-290v51h290v-51z" />
    <glyph glyph-name="guillemotright" unicode="&#xbb;" horiz-adv-x="504" 
d="M280 467l52 20l123 -192l-124 -192l-51 21l93 171zM87 461l50 19l119 -185l-119 -185l-50 19l87 166z" />
    <glyph glyph-name="onequarter" unicode="&#xbc;" horiz-adv-x="713" 
d="M296 364h-245v51h92v249l-81 -24l-12 40l109 45h54v-310h83v-51zM72 -43l571 773l46 -25l-571 -774zM691 20h-55v-78h-68v78h-179v48q67 123 151 233h96v-230h55v-51zM568 71v187h-1q-59 -75 -123 -187h124z" />
    <glyph glyph-name="onehalf" unicode="&#xbd;" horiz-adv-x="746" 
d="M296 364h-245v51h92v249l-81 -24l-12 40l109 45h54v-310h83v-51zM72 -43l571 773l46 -25l-571 -774zM707 -58h-262v49q109 89 144 129.5t35 79.5q0 57 -68 57q-30 0 -96 -17l-10 42q68 26 124 26q53 0 87.5 -25.5t34.5 -75.5q0 -47 -38.5 -95t-132.5 -116h182v-54z" />
    <glyph glyph-name="threequarters" unicode="&#xbe;" horiz-adv-x="723" 
d="M38 378l6 38q65 -12 104 -12q90 0 90 62t-89 62h-54v46h54q76 0 76 57q0 51 -72 51q-41 0 -91 -13l-10 40q59 21 114 21q66 0 98 -25t32 -66q0 -62 -68 -83q40 -7 60.5 -30t20.5 -56q0 -55 -41 -84t-110 -29q-53 0 -120 21zM82 -43l571 773l46 -25l-571 -774zM702 20h-55
v-78h-68v78h-179v48q67 123 151 233h96v-230h55v-51zM579 71v187h-1q-59 -75 -123 -187h124z" />
    <glyph glyph-name="questiondown" unicode="&#xbf;" 
d="M70 44q0 40 16.5 73.5t39.5 57.5t47 48t41 56.5t18 70.5l1 72h66l4 -78q2 -37 -12 -71.5t-35.5 -60.5t-44 -50t-38 -51t-15.5 -53q0 -49 30.5 -77t86.5 -28q62 0 125 21l19 -50q-85 -36 -164 -36q-92 0 -138.5 42.5t-46.5 113.5zM214 530q0 28 10.5 38t41.5 10
q32 0 42.5 -10t10.5 -38q0 -29 -11 -39.5t-43 -10.5q-31 0 -41 10t-10 40z" />
    <glyph glyph-name="Agrave" unicode="&#xc0;" horiz-adv-x="531" 
d="M514 0h-90q-14 61 -37 147h-254q-12 -50 -34 -147h-82q83 346 195 675h102q121 -356 200 -675zM147 211h226q-57 201 -116 384h-2q-61 -201 -108 -384zM312 766l-25 -38l-181 70l38 56z" />
    <glyph glyph-name="Aacute" unicode="&#xc1;" horiz-adv-x="531" 
d="M514 0h-90q-14 61 -37 147h-254q-12 -50 -34 -147h-82q83 346 195 675h102q121 -356 200 -675zM147 211h226q-57 201 -116 384h-2q-61 -201 -108 -384zM209 766l168 88l38 -56l-181 -70z" />
    <glyph glyph-name="Acircumflex" unicode="&#xc2;" horiz-adv-x="531" 
d="M514 0h-90q-14 61 -37 147h-254q-12 -50 -34 -147h-82q83 346 195 675h102q121 -356 200 -675zM147 211h226q-57 201 -116 384h-2q-61 -201 -108 -384zM265 854l143 -89l-22 -37l-123 61l-120 -61l-23 36z" />
    <glyph glyph-name="Atilde" unicode="&#xc3;" horiz-adv-x="531" 
d="M514 0h-90q-14 61 -37 147h-254q-12 -50 -34 -147h-82q83 346 195 675h102q121 -356 200 -675zM147 211h226q-57 201 -116 384h-2q-61 -201 -108 -384zM394 839l36 -25q-26 -44 -50 -62.5t-60 -18.5q-35 0 -72 27.5t-52 27.5q-16 0 -28.5 -11t-36.5 -42l-36 25
q26 44 50 62.5t60 18.5q35 0 72 -27.5t52 -27.5q16 0 28.5 11t36.5 42z" />
    <glyph glyph-name="Adieresis" unicode="&#xc4;" horiz-adv-x="531" 
d="M514 0h-90q-14 61 -37 147h-254q-12 -50 -34 -147h-82q83 346 195 675h102q121 -356 200 -675zM147 211h226q-57 201 -116 384h-2q-61 -201 -108 -384zM407 778q0 -23 -9 -31.5t-34 -8.5q-27 0 -35.5 8t-8.5 32t8.5 32.5t35.5 8.5q26 0 34.5 -8t8.5 -33zM208 778
q0 -24 -8.5 -32t-34.5 -8t-35 8t-9 32t9 32.5t35 8.5t34.5 -8t8.5 -33z" />
    <glyph glyph-name="Aring" unicode="&#xc5;" horiz-adv-x="531" 
d="M514 0h-90q-14 61 -37 147h-254q-12 -50 -34 -147h-82q83 346 195 675h102q121 -356 200 -675zM147 211h226q-57 201 -116 384h-2q-61 -201 -108 -384zM361 776q0 -39 -27.5 -61.5t-74.5 -22.5q-97 0 -97 79q0 37 28 60t75 23q96 0 96 -78zM305 772q0 23 -10 33t-33 10
q-44 0 -44 -43q0 -41 44 -41q43 0 43 41z" />
    <glyph glyph-name="AE" unicode="&#xc6;" horiz-adv-x="714" 
d="M658 0h-325v147h-204q-35 -87 -57 -147h-85q143 354 303 675h364v-66h-238v-226h196v-63h-196v-254h242v-66zM333 211v398h-1q-100 -208 -179 -398h180z" />
    <glyph glyph-name="Ccedilla" unicode="&#xc7;" horiz-adv-x="518" 
d="M449 134l36 -42q-76 -100 -195 -100q-114 0 -174.5 84.5t-60.5 250.5t67 261t178 95q120 0 174 -110l-41 -35q-49 78 -126 78q-55 0 -93.5 -40t-55 -100t-16.5 -133q0 -283 165 -283q78 0 142 74zM261 -43h70q10 -80 -73 -136l-44 25q30 26 40 49.5t7 61.5z" />
    <glyph glyph-name="Egrave" unicode="&#xc8;" horiz-adv-x="472" 
d="M416 0h-324v675h320v-66h-237v-226h195v-63h-195v-254h241v-66zM305 766l-25 -38l-181 70l38 56z" />
    <glyph glyph-name="Eacute" unicode="&#xc9;" horiz-adv-x="472" 
d="M416 0h-324v675h320v-66h-237v-226h195v-63h-195v-254h241v-66zM199 766l168 88l38 -56l-181 -70z" />
    <glyph glyph-name="Ecircumflex" unicode="&#xca;" horiz-adv-x="472" 
d="M416 0h-324v675h320v-66h-237v-226h195v-63h-195v-254h241v-66zM251 854l143 -89l-22 -37l-123 61l-120 -61l-23 36z" />
    <glyph glyph-name="Edieresis" unicode="&#xcb;" horiz-adv-x="472" 
d="M416 0h-324v675h320v-66h-237v-226h195v-63h-195v-254h241v-66zM394 778q0 -23 -9 -31.5t-34 -8.5q-27 0 -35.5 8t-8.5 32t8.5 32.5t35.5 8.5q26 0 34.5 -8t8.5 -33zM195 778q0 -24 -8.5 -32t-34.5 -8t-35 8t-9 32t9 32.5t35 8.5t34.5 -8t8.5 -33z" />
    <glyph glyph-name="Igrave" unicode="&#xcc;" horiz-adv-x="266" 
d="M175 0h-83v675h83v-675zM180 766l-25 -38l-181 70l38 56z" />
    <glyph glyph-name="Iacute" unicode="&#xcd;" horiz-adv-x="266" 
d="M175 0h-83v675h83v-675zM78 766l168 88l38 -56l-181 -70z" />
    <glyph glyph-name="Icircumflex" unicode="&#xce;" horiz-adv-x="266" 
d="M175 0h-83v675h83v-675zM134 854l143 -89l-22 -37l-123 61l-120 -61l-23 36z" />
    <glyph glyph-name="Idieresis" unicode="&#xcf;" horiz-adv-x="266" 
d="M175 0h-83v675h83v-675zM248 778q0 -23 -8.5 -31.5t-33.5 -8.5t-33.5 8t-8.5 32t8.5 32.5t33.5 8.5t33.5 -8t8.5 -33zM102 778q0 -24 -8 -32t-33 -8q-26 0 -34.5 8t-8.5 32t9 32.5t34 8.5t33 -8t8 -33z" />
    <glyph glyph-name="Eth" unicode="&#xd0;" horiz-adv-x="590" 
d="M102 383v292q26 0 76 0.5t77 0.5q75 0 130.5 -26t87.5 -71.5t47 -101.5t15 -123q0 -171 -75.5 -263.5t-226.5 -92.5q-22 0 -68 1t-63 1v320h-66v63h66zM185 611v-228h121v-63h-121v-254q32 -3 65 -3q198 0 198 280q0 269 -205 269q-39 0 -58 -1z" />
    <glyph glyph-name="Ntilde" unicode="&#xd1;" horiz-adv-x="651" 
d="M560 0h-81l-232 411l-87 161h-1q4 -89 4 -157v-415h-71v675h103l206 -366l90 -165h1q-4 95 -4 163v368h72v-675zM466 839l36 -25q-26 -44 -50 -62.5t-60 -18.5q-35 0 -72 27.5t-52 27.5q-16 0 -28.5 -11t-36.5 -42l-36 25q26 44 50 62.5t60 18.5q35 0 72 -27.5t52 -27.5
q16 0 28.5 11t36.5 42z" />
    <glyph glyph-name="Ograve" unicode="&#xd2;" horiz-adv-x="637" 
d="M582 349q0 -181 -73 -269t-198 -88q-256 0 -256 334q0 181 73 269t198 88q256 0 256 -334zM495 332q0 149 -45 218t-134 69q-174 0 -174 -276q0 -149 44.5 -217.5t134.5 -68.5q174 0 174 275zM355 766l-25 -38l-181 70l38 56z" />
    <glyph glyph-name="Oacute" unicode="&#xd3;" horiz-adv-x="637" 
d="M582 349q0 -181 -73 -269t-198 -88q-256 0 -256 334q0 181 73 269t198 88q256 0 256 -334zM495 332q0 149 -45 218t-134 69q-174 0 -174 -276q0 -149 44.5 -217.5t134.5 -68.5q174 0 174 275zM277 766l168 88l38 -56l-181 -70z" />
    <glyph glyph-name="Ocircumflex" unicode="&#xd4;" horiz-adv-x="637" 
d="M582 349q0 -181 -73 -269t-198 -88q-256 0 -256 334q0 181 73 269t198 88q256 0 256 -334zM495 332q0 149 -45 218t-134 69q-174 0 -174 -276q0 -149 44.5 -217.5t134.5 -68.5q174 0 174 275zM320 854l143 -89l-22 -37l-123 61l-120 -61l-23 36z" />
    <glyph glyph-name="Otilde" unicode="&#xd5;" horiz-adv-x="637" 
d="M582 349q0 -181 -73 -269t-198 -88q-256 0 -256 334q0 181 73 269t198 88q256 0 256 -334zM495 332q0 149 -45 218t-134 69q-174 0 -174 -276q0 -149 44.5 -217.5t134.5 -68.5q174 0 174 275zM451 839l36 -25q-26 -44 -50 -62.5t-60 -18.5q-35 0 -72 27.5t-52 27.5
q-16 0 -28.5 -11t-36.5 -42l-36 25q26 44 50 62.5t60 18.5q35 0 72 -27.5t52 -27.5q16 0 28.5 11t36.5 42z" />
    <glyph glyph-name="Odieresis" unicode="&#xd6;" horiz-adv-x="637" 
d="M582 349q0 -181 -73 -269t-198 -88q-256 0 -256 334q0 181 73 269t198 88q256 0 256 -334zM495 332q0 149 -45 218t-134 69q-174 0 -174 -276q0 -149 44.5 -217.5t134.5 -68.5q174 0 174 275zM461 778q0 -23 -9 -31.5t-34 -8.5q-27 0 -35.5 8t-8.5 32t8.5 32.5t35.5 8.5
q26 0 34.5 -8t8.5 -33zM262 778q0 -24 -8.5 -32t-34.5 -8t-35 8t-9 32t9 32.5t35 8.5t34.5 -8t8.5 -33z" />
    <glyph glyph-name="multiply" unicode="&#xd7;" 
d="M294 298l137 -137l-44 -44l-137 136l-136 -136l-44 43l137 137l-136 136l44 44l136 -136l136 136l43 -44z" />
    <glyph glyph-name="Oslash" unicode="&#xd8;" horiz-adv-x="637" 
d="M582 349q0 -181 -73 -269t-198 -88q-88 0 -143 41l-63 -106l-47 26l68 113q-71 82 -71 260q0 181 73 269t198 88q88 0 143 -41l63 106l47 -26l-68 -113q71 -82 71 -260zM498 332q0 129 -36 195l-256 -432q42 -41 115 -41q177 0 177 278zM316 622q-177 0 -177 -279
q0 -127 36 -195l256 432q-44 42 -115 42z" />
    <glyph glyph-name="Ugrave" unicode="&#xd9;" horiz-adv-x="652" 
d="M562 675v-427q0 -131 -65 -193.5t-182 -62.5q-115 0 -170 58t-55 185v440h83v-429q0 -104 36.5 -147.5t118.5 -43.5q75 0 113.5 42.5t38.5 143.5v434h82zM362 766l-25 -38l-181 70l38 56z" />
    <glyph glyph-name="Uacute" unicode="&#xda;" horiz-adv-x="652" 
d="M562 675v-427q0 -131 -65 -193.5t-182 -62.5q-115 0 -170 58t-55 185v440h83v-429q0 -104 36.5 -147.5t118.5 -43.5q75 0 113.5 42.5t38.5 143.5v434h82zM295 766l168 88l38 -56l-181 -70z" />
    <glyph glyph-name="Ucircumflex" unicode="&#xdb;" horiz-adv-x="652" 
d="M562 675v-427q0 -131 -65 -193.5t-182 -62.5q-115 0 -170 58t-55 185v440h83v-429q0 -104 36.5 -147.5t118.5 -43.5q75 0 113.5 42.5t38.5 143.5v434h82zM328 854l143 -89l-22 -37l-123 61l-120 -61l-23 36z" />
    <glyph glyph-name="Udieresis" unicode="&#xdc;" horiz-adv-x="652" 
d="M562 675v-427q0 -131 -65 -193.5t-182 -62.5q-115 0 -170 58t-55 185v440h83v-429q0 -104 36.5 -147.5t118.5 -43.5q75 0 113.5 42.5t38.5 143.5v434h82zM469 778q0 -23 -9 -31.5t-34 -8.5q-27 0 -35.5 8t-8.5 32t8.5 32.5t35.5 8.5q26 0 34.5 -8t8.5 -33zM270 778
q0 -24 -8.5 -32t-34.5 -8t-35 8t-9 32t9 32.5t35 8.5t34.5 -8t8.5 -33z" />
    <glyph glyph-name="Yacute" unicode="&#xdd;" horiz-adv-x="483" 
d="M397 675h87q-108 -240 -201 -381v-294h-83v294q-106 166 -201 381h93q86 -192 156 -307h1q74 121 148 307zM204 766l168 88l38 -56l-181 -70z" />
    <glyph glyph-name="Thorn" unicode="&#xde;" horiz-adv-x="515" 
d="M175 0h-83v675h83v-109q44 1 68 1q244 0 244 -203q0 -101 -66.5 -163t-206.5 -62h-39v-139zM175 503v-300h55q85 0 127 40t42 111q0 74 -39 111.5t-129 37.5h-56z" />
    <glyph glyph-name="germandbls" unicode="&#xdf;" horiz-adv-x="547" 
d="M163 0h-79v504q0 213 195 213q78 0 122 -35.5t44 -95.5q0 -40 -11.5 -68t-28.5 -43t-33.5 -27t-28 -29t-11.5 -41q0 -28 18 -49.5t44 -37.5t52 -34t44 -48.5t18 -70.5q0 -63 -40 -104t-110 -41q-64 0 -113 26l10 45q40 -14 87 -14q41 0 63 22t22 58q0 30 -18 52.5
t-43.5 38t-51 33t-43.5 46.5t-18 69q0 31 12 53.5t28.5 36t33.5 27.5t29 36t12 53q0 39 -25 61t-69 22q-61 0 -86 -37.5t-25 -111.5v-509z" />
    <glyph glyph-name="agrave" unicode="&#xe0;" horiz-adv-x="493" 
d="M410 0h-62l-7 56q-77 -64 -156 -64q-65 0 -104.5 36.5t-39.5 99.5q0 163 248 163h42v52q0 52 -26.5 76.5t-85.5 24.5q-63 0 -140 -29l-13 51q92 38 175 38q87 0 128 -40t41 -109v-355zM331 108v130h-47q-92 0 -128 -26.5t-36 -74.5q0 -87 87 -87q58 0 124 58zM284 586
l-40 -26l-147 121l59 39z" />
    <glyph glyph-name="aacute" unicode="&#xe1;" horiz-adv-x="493" 
d="M410 0h-62l-7 56q-77 -64 -156 -64q-65 0 -104.5 36.5t-39.5 99.5q0 163 248 163h42v52q0 52 -26.5 76.5t-85.5 24.5q-63 0 -140 -29l-13 51q92 38 175 38q87 0 128 -40t41 -109v-355zM331 108v130h-47q-92 0 -128 -26.5t-36 -74.5q0 -87 87 -87q58 0 124 58zM376 681
l-146 -121l-41 26l128 134z" />
    <glyph glyph-name="acircumflex" unicode="&#xe2;" horiz-adv-x="493" 
d="M410 0h-62l-7 56q-77 -64 -156 -64q-65 0 -104.5 36.5t-39.5 99.5q0 163 248 163h42v52q0 52 -26.5 76.5t-85.5 24.5q-63 0 -140 -29l-13 51q92 38 175 38q87 0 128 -40t41 -109v-355zM331 108v130h-47q-92 0 -128 -26.5t-36 -74.5q0 -87 87 -87q58 0 124 58zM376 596
l-28 -33l-110 83l-109 -83l-28 33l139 126z" />
    <glyph glyph-name="atilde" unicode="&#xe3;" horiz-adv-x="493" 
d="M410 0h-62l-7 56q-77 -64 -156 -64q-65 0 -104.5 36.5t-39.5 99.5q0 163 248 163h42v52q0 52 -26.5 76.5t-85.5 24.5q-63 0 -140 -29l-13 51q92 38 175 38q87 0 128 -40t41 -109v-355zM331 108v130h-47q-92 0 -128 -26.5t-36 -74.5q0 -87 87 -87q58 0 124 58zM363 687
l35 -26q-26 -44 -49 -62.5t-58 -18.5t-71.5 27.5t-51.5 27.5q-16 0 -28.5 -11t-36.5 -42l-35 26q27 44 50 62.5t58 18.5t71.5 -27.5t51.5 -27.5q16 0 28.5 11t35.5 42z" />
    <glyph glyph-name="adieresis" unicode="&#xe4;" horiz-adv-x="493" 
d="M410 0h-62l-7 56q-77 -64 -156 -64q-65 0 -104.5 36.5t-39.5 99.5q0 163 248 163h42v52q0 52 -26.5 76.5t-85.5 24.5q-63 0 -140 -29l-13 51q92 38 175 38q87 0 128 -40t41 -109v-355zM331 108v130h-47q-92 0 -128 -26.5t-36 -74.5q0 -87 87 -87q58 0 124 58zM380 638
q0 -24 -8.5 -32.5t-34.5 -8.5t-34.5 8t-8.5 33q0 26 8.5 34.5t34.5 8.5t34.5 -8.5t8.5 -34.5zM187 638q0 -24 -8 -32.5t-34 -8.5t-35 8t-9 33q0 26 9 34.5t35 8.5t34 -8.5t8 -34.5z" />
    <glyph glyph-name="aring" unicode="&#xe5;" horiz-adv-x="493" 
d="M410 0h-62l-7 56q-77 -64 -156 -64q-65 0 -104.5 36.5t-39.5 99.5q0 163 248 163h42v52q0 52 -26.5 76.5t-85.5 24.5q-63 0 -140 -29l-13 51q92 38 175 38q87 0 128 -40t41 -109v-355zM331 108v130h-47q-92 0 -128 -26.5t-36 -74.5q0 -87 87 -87q58 0 124 58zM337 638
q0 -42 -28.5 -66.5t-76.5 -24.5q-99 0 -99 86q0 41 29 65.5t76 24.5q99 0 99 -85zM279 634q0 46 -44 46t-44 -46q0 -44 44 -44t44 44z" />
    <glyph glyph-name="ae" unicode="&#xe6;" horiz-adv-x="766" 
d="M691 85l15 -48q-88 -45 -179 -45q-128 0 -170 99q-66 -99 -172 -99q-65 0 -104.5 36.5t-39.5 99.5q0 163 248 163h42v52q0 52 -26.5 76.5t-85.5 24.5q-63 0 -140 -29l-13 51q92 38 176 38q113 0 143 -80q51 80 146 80q191 0 176 -266h-298v-10q0 -91 34 -132.5t102 -41.5
q71 0 146 31zM331 238h-47q-92 0 -128 -26.5t-36 -74.5q0 -87 87 -87q80 0 124 86v102zM409 291h221v4q0 152 -106 152q-53 0 -82.5 -43t-32.5 -113z" />
    <glyph glyph-name="ccedilla" unicode="&#xe7;" horiz-adv-x="427" 
d="M370 106l29 -41q-68 -73 -161 -73q-91 0 -139 63t-48 186q0 120 53 191.5t140 71.5t142 -61l-31 -41q-48 41 -101 41q-57 0 -88.5 -50.5t-31.5 -140.5q0 -198 121 -198q59 0 115 52zM201 -43h70q10 -80 -73 -136l-44 25q30 26 40 49.5t7 61.5z" />
    <glyph glyph-name="egrave" unicode="&#xe8;" horiz-adv-x="490" 
d="M431 238h-298v-10q0 -91 34.5 -132.5t102.5 -41.5q70 0 145 31l15 -48q-87 -45 -179 -45q-200 0 -200 241q0 129 53.5 200t149.5 71q192 0 177 -266zM133 291h221v4q0 152 -105 152q-54 0 -83 -43t-33 -113zM299 586l-40 -26l-147 121l59 39z" />
    <glyph glyph-name="eacute" unicode="&#xe9;" horiz-adv-x="490" 
d="M431 238h-298v-10q0 -91 34.5 -132.5t102.5 -41.5q70 0 145 31l15 -48q-87 -45 -179 -45q-200 0 -200 241q0 129 53.5 200t149.5 71q192 0 177 -266zM133 291h221v4q0 152 -105 152q-54 0 -83 -43t-33 -113zM393 681l-146 -121l-41 26l128 134z" />
    <glyph glyph-name="ecircumflex" unicode="&#xea;" horiz-adv-x="490" 
d="M431 238h-298v-10q0 -91 34.5 -132.5t102.5 -41.5q70 0 145 31l15 -48q-87 -45 -179 -45q-200 0 -200 241q0 129 53.5 200t149.5 71q192 0 177 -266zM133 291h221v4q0 152 -105 152q-54 0 -83 -43t-33 -113zM386 596l-28 -33l-110 83l-109 -83l-28 33l139 126z" />
    <glyph glyph-name="edieresis" unicode="&#xeb;" horiz-adv-x="490" 
d="M431 238h-298v-10q0 -91 34.5 -132.5t102.5 -41.5q70 0 145 31l15 -48q-87 -45 -179 -45q-200 0 -200 241q0 129 53.5 200t149.5 71q192 0 177 -266zM133 291h221v4q0 152 -105 152q-54 0 -83 -43t-33 -113zM389 638q0 -24 -8.5 -32.5t-34.5 -8.5t-34.5 8t-8.5 33
q0 26 8.5 34.5t34.5 8.5t34.5 -8.5t8.5 -34.5zM196 638q0 -24 -8 -32.5t-34 -8.5t-35 8t-9 33q0 26 9 34.5t35 8.5t34 -8.5t8 -34.5z" />
    <glyph glyph-name="igrave" unicode="&#xec;" horiz-adv-x="248" 
d="M163 0h-79v496h79v-496zM178 586l-40 -26l-147 121l59 39z" />
    <glyph glyph-name="iacute" unicode="&#xed;" horiz-adv-x="248" 
d="M163 0h-79v496h79v-496zM262 681l-146 -121l-41 26l128 134z" />
    <glyph glyph-name="icircumflex" unicode="&#xee;" horiz-adv-x="248" 
d="M163 0h-79v496h79v-496zM262 596l-28 -33l-110 83l-109 -83l-28 33l139 126z" />
    <glyph glyph-name="idieresis" unicode="&#xef;" horiz-adv-x="248" 
d="M163 0h-79v496h79v-496zM245 638q0 -24 -8 -32.5t-34 -8.5t-34.5 8t-8.5 33q0 26 8.5 34.5t34.5 8.5t34 -8.5t8 -34.5zM87 638q0 -24 -8 -32.5t-33 -8.5q-27 0 -35.5 8t-8.5 33q0 26 8.5 34.5t35.5 8.5q25 0 33 -8.5t8 -34.5z" />
    <glyph glyph-name="eth" unicode="&#xf0;" horiz-adv-x="519" 
d="M439 660l-90 -48q111 -137 111 -312q0 -163 -59.5 -235.5t-155.5 -72.5q-100 0 -149.5 64t-49.5 177q0 127 60 196t163 69q50 0 68 -8q-23 50 -63 98l-101 -53l-33 41l98 52q-37 38 -89 81h103q34 -25 61 -56l92 48zM374 281q0 84 -18 146q-32 13 -90 13
q-61 0 -97.5 -47.5t-36.5 -141.5q0 -197 124 -197q54 0 86 48.5t32 178.5z" />
    <glyph glyph-name="ntilde" unicode="&#xf1;" horiz-adv-x="540" 
d="M456 0h-78q0 48 1 140.5t1 125.5q0 93 -23 133.5t-68 40.5q-55 0 -126 -59v-381h-79v496h65l7 -59q83 67 154 67q73 0 111 -51.5t38 -168.5q0 -30 -1.5 -130t-1.5 -154zM404 687l35 -26q-26 -44 -49 -62.5t-58 -18.5t-71.5 27.5t-51.5 27.5q-16 0 -28.5 -11t-36.5 -42
l-35 26q27 44 50 62.5t58 18.5t71.5 -27.5t51.5 -27.5q16 0 28.5 11t35.5 42z" />
    <glyph glyph-name="ograve" unicode="&#xf2;" horiz-adv-x="522" 
d="M471 257q0 -132 -59 -198.5t-162 -66.5q-199 0 -199 247q0 132 58.5 198.5t161.5 66.5q200 0 200 -247zM389 236q0 111 -31.5 159t-97.5 48q-60 0 -93.5 -46t-33.5 -137q0 -112 31 -160t98 -48q59 0 93 46t34 138zM307 586l-40 -26l-147 121l59 39z" />
    <glyph glyph-name="oacute" unicode="&#xf3;" horiz-adv-x="522" 
d="M471 257q0 -132 -59 -198.5t-162 -66.5q-199 0 -199 247q0 132 58.5 198.5t161.5 66.5q200 0 200 -247zM389 236q0 111 -31.5 159t-97.5 48q-60 0 -93.5 -46t-33.5 -137q0 -112 31 -160t98 -48q59 0 93 46t34 138zM404 681l-146 -121l-41 26l128 134z" />
    <glyph glyph-name="ocircumflex" unicode="&#xf4;" horiz-adv-x="522" 
d="M471 257q0 -132 -59 -198.5t-162 -66.5q-199 0 -199 247q0 132 58.5 198.5t161.5 66.5q200 0 200 -247zM389 236q0 111 -31.5 159t-97.5 48q-60 0 -93.5 -46t-33.5 -137q0 -112 31 -160t98 -48q59 0 93 46t34 138zM402 596l-28 -33l-110 83l-109 -83l-28 33l139 126z" />
    <glyph glyph-name="otilde" unicode="&#xf5;" horiz-adv-x="522" 
d="M471 257q0 -132 -59 -198.5t-162 -66.5q-199 0 -199 247q0 132 58.5 198.5t161.5 66.5q200 0 200 -247zM389 236q0 111 -31.5 159t-97.5 48q-60 0 -93.5 -46t-33.5 -137q0 -112 31 -160t98 -48q59 0 93 46t34 138zM390 687l35 -26q-26 -44 -49 -62.5t-58 -18.5
t-71.5 27.5t-51.5 27.5q-16 0 -28.5 -11t-36.5 -42l-35 26q27 44 50 62.5t58 18.5t71.5 -27.5t51.5 -27.5q16 0 28.5 11t35.5 42z" />
    <glyph glyph-name="odieresis" unicode="&#xf6;" horiz-adv-x="522" 
d="M471 257q0 -132 -59 -198.5t-162 -66.5q-199 0 -199 247q0 132 58.5 198.5t161.5 66.5q200 0 200 -247zM389 236q0 111 -31.5 159t-97.5 48q-60 0 -93.5 -46t-33.5 -137q0 -112 31 -160t98 -48q59 0 93 46t34 138zM402 638q0 -24 -8.5 -32.5t-34.5 -8.5t-34.5 8t-8.5 33
q0 26 8.5 34.5t34.5 8.5t34.5 -8.5t8.5 -34.5zM209 638q0 -24 -8 -32.5t-34 -8.5t-35 8t-9 33q0 26 9 34.5t35 8.5t34 -8.5t8 -34.5z" />
    <glyph glyph-name="divide" unicode="&#xf7;" 
d="M298 107q0 -29 -9.5 -38.5t-38.5 -9.5q-30 0 -40 9.5t-10 36.5q0 29 9.5 38.5t40.5 9.5q29 0 38.5 -9t9.5 -37zM457 268h-415v59h415v-59zM298 488q0 -27 -9.5 -36.5t-38.5 -9.5q-30 0 -40 9.5t-10 38.5q0 28 9.5 37t40.5 9q29 0 38.5 -9.5t9.5 -38.5z" />
    <glyph glyph-name="oslash" unicode="&#xf8;" horiz-adv-x="522" 
d="M464 543l-53 -91q60 -60 60 -195q0 -133 -58 -199t-161 -66q-57 0 -97 22l-51 -87l-46 26l52 91q-59 62 -59 195q0 132 58 198.5t161 66.5q60 0 97 -23l50 87zM366 380l-178 -310q27 -21 74 -21q61 0 96 46.5t35 139.5q0 100 -27 145zM155 114l178 312q-29 21 -74 21
q-61 0 -95.5 -47t-34.5 -140q0 -97 26 -146z" />
    <glyph glyph-name="ugrave" unicode="&#xf9;" horiz-adv-x="540" 
d="M455 0h-65l-7 58q-84 -66 -154 -66q-149 0 -149 220q0 30 2 130t2 154h78q0 -48 -1 -141t-1 -125q0 -92 22.5 -133t68.5 -41q55 0 125 58v382h79v-496zM320 586l-40 -26l-147 121l59 39z" />
    <glyph glyph-name="uacute" unicode="&#xfa;" horiz-adv-x="540" 
d="M455 0h-65l-7 58q-84 -66 -154 -66q-149 0 -149 220q0 30 2 130t2 154h78q0 -48 -1 -141t-1 -125q0 -92 22.5 -133t68.5 -41q55 0 125 58v382h79v-496zM415 681l-146 -121l-41 26l128 134z" />
    <glyph glyph-name="ucircumflex" unicode="&#xfb;" horiz-adv-x="540" 
d="M455 0h-65l-7 58q-84 -66 -154 -66q-149 0 -149 220q0 30 2 130t2 154h78q0 -48 -1 -141t-1 -125q0 -92 22.5 -133t68.5 -41q55 0 125 58v382h79v-496zM407 596l-28 -33l-110 83l-109 -83l-28 33l139 126z" />
    <glyph glyph-name="udieresis" unicode="&#xfc;" horiz-adv-x="540" 
d="M455 0h-65l-7 58q-84 -66 -154 -66q-149 0 -149 220q0 30 2 130t2 154h78q0 -48 -1 -141t-1 -125q0 -92 22.5 -133t68.5 -41q55 0 125 58v382h79v-496zM411 638q0 -24 -8.5 -32.5t-34.5 -8.5t-34.5 8t-8.5 33q0 26 8.5 34.5t34.5 8.5t34.5 -8.5t8.5 -34.5zM218 638
q0 -24 -8 -32.5t-34 -8.5t-35 8t-9 33q0 26 9 34.5t35 8.5t34 -8.5t8 -34.5z" />
    <glyph glyph-name="yacute" unicode="&#xfd;" horiz-adv-x="461" 
d="M350 496h84q-35 -166 -75 -290.5t-76.5 -196t-77 -115t-73 -57.5t-67.5 -14q-24 0 -61 13v48q18 -2 42 -2q52 0 86 31q42 41 42 89q0 45 -38 152l-117 342h86l95 -284q33 -96 31 -161h2q33 79 66 204t51 241zM383 681l-146 -121l-41 26l128 134z" />
    <glyph glyph-name="thorn" unicode="&#xfe;" horiz-adv-x="519" 
d="M163 -173h-79v882h79v-263q72 58 137 58q76 0 122 -66.5t46 -170.5q0 -139 -66 -207t-173 -68q-41 0 -66 4v-169zM163 383v-320q28 -12 78 -12q65 0 105 51t40 149q0 86 -28.5 138t-78.5 52q-52 0 -116 -58z" />
    <glyph glyph-name="ydieresis" unicode="&#xff;" horiz-adv-x="461" 
d="M350 496h84q-35 -166 -75 -290.5t-76.5 -196t-77 -115t-73 -57.5t-67.5 -14q-24 0 -61 13v48q18 -2 42 -2q52 0 86 31q42 41 42 89q0 45 -38 152l-117 342h86l95 -284q33 -96 31 -161h2q33 79 66 204t51 241zM370 638q0 -24 -8.5 -32.5t-34.5 -8.5t-34.5 8t-8.5 33
q0 26 8.5 34.5t34.5 8.5t34.5 -8.5t8.5 -34.5zM177 638q0 -24 -8 -32.5t-34 -8.5t-35 8t-9 33q0 26 9 34.5t35 8.5t34 -8.5t8 -34.5z" />
    <glyph glyph-name="Amacron" unicode="&#x100;" horiz-adv-x="531" 
d="M514 0h-90q-14 61 -37 147h-254q-12 -50 -34 -147h-82q83 346 195 675h102q121 -356 200 -675zM147 211h226q-57 201 -116 384h-2q-61 -201 -108 -384zM400 751h-270v56h270v-56z" />
    <glyph glyph-name="amacron" unicode="&#x101;" horiz-adv-x="493" 
d="M410 0h-62l-7 56q-77 -64 -156 -64q-65 0 -104.5 36.5t-39.5 99.5q0 163 248 163h42v52q0 52 -26.5 76.5t-85.5 24.5q-63 0 -140 -29l-13 51q92 38 175 38q87 0 128 -40t41 -109v-355zM331 108v130h-47q-92 0 -128 -26.5t-36 -74.5q0 -87 87 -87q58 0 124 58zM371 603
h-261v58h261v-58z" />
    <glyph glyph-name="Abreve" unicode="&#x102;" horiz-adv-x="531" 
d="M514 0h-90q-14 61 -37 147h-254q-12 -50 -34 -147h-82q83 346 195 675h102q121 -356 200 -675zM147 211h226q-57 201 -116 384h-2q-61 -201 -108 -384zM346 854h50q0 -56 -36 -94t-97 -38q-64 0 -98.5 37t-34.5 95h51q0 -30 20.5 -52t61.5 -22q40 0 61.5 22t21.5 52z" />
    <glyph glyph-name="abreve" unicode="&#x103;" horiz-adv-x="493" 
d="M410 0h-62l-7 56q-77 -64 -156 -64q-65 0 -104.5 36.5t-39.5 99.5q0 163 248 163h42v52q0 52 -26.5 76.5t-85.5 24.5q-63 0 -140 -29l-13 51q92 38 175 38q87 0 128 -40t41 -109v-355zM331 108v130h-47q-92 0 -128 -26.5t-36 -74.5q0 -87 87 -87q58 0 124 58zM321 715h51
q0 -70 -35 -107.5t-99 -37.5q-67 0 -100.5 37.5t-33.5 107.5h51q0 -83 83 -83t83 83z" />
    <glyph glyph-name="Aogonek" unicode="&#x104;" horiz-adv-x="531" 
d="M514 -115l13 -39q-34 -24 -81 -24q-83 0 -83 68q0 56 61 110q-14 61 -37 147h-254q-12 -50 -34 -147h-82q83 346 195 675h102q121 -356 200 -675q-82 -35 -82 -95q0 -34 35 -34q23 0 47 14zM147 211h226q-57 201 -116 384h-2q-61 -201 -108 -384z" />
    <glyph glyph-name="aogonek" unicode="&#x105;" horiz-adv-x="493" 
d="M428 -115l13 -39q-34 -24 -81 -24q-83 0 -83 68q0 63 69 116l-5 50q-77 -64 -156 -64q-67 0 -105.5 35t-38.5 98q0 78 61 122t187 44h42v52q0 52 -26.5 76.5t-85.5 24.5q-63 0 -140 -29l-13 51q92 38 175 38q87 0 128 -40t41 -109v-355q-65 -52 -65 -95q0 -34 36 -34
q23 0 47 14zM331 108v130h-47q-92 0 -128 -26.5t-36 -75.5q0 -86 87 -86q58 0 124 58z" />
    <glyph glyph-name="Cacute" unicode="&#x106;" horiz-adv-x="518" 
d="M449 134l36 -42q-76 -100 -195 -100q-114 0 -174.5 84.5t-60.5 250.5t67 261t178 95q120 0 174 -110l-41 -35q-49 78 -126 78q-55 0 -93.5 -40t-55 -100t-16.5 -133q0 -283 165 -283q78 0 142 74zM267 766l168 88l38 -56l-181 -70z" />
    <glyph glyph-name="cacute" unicode="&#x107;" horiz-adv-x="427" 
d="M370 106l29 -41q-68 -73 -161 -73q-91 0 -139 63t-48 186q0 120 53 191.5t140 71.5t142 -61l-31 -41q-48 41 -101 41q-57 0 -88.5 -50.5t-31.5 -140.5q0 -198 121 -198q59 0 115 52zM408 681l-146 -121l-41 26l128 134z" />
    <glyph glyph-name="Ccircumflex" unicode="&#x108;" horiz-adv-x="518" 
d="M449 134l36 -42q-76 -100 -195 -100q-114 0 -174.5 84.5t-60.5 250.5t67 261t178 95q120 0 174 -110l-41 -35q-49 78 -126 78q-55 0 -93.5 -40t-55 -100t-16.5 -133q0 -283 165 -283q78 0 142 74zM295 854l143 -89l-22 -37l-123 61l-120 -61l-23 36z" />
    <glyph glyph-name="ccircumflex" unicode="&#x109;" horiz-adv-x="427" 
d="M370 106l29 -41q-68 -73 -161 -73q-91 0 -139 63t-48 186q0 120 53 191.5t140 71.5t142 -61l-31 -41q-48 41 -101 41q-57 0 -88.5 -50.5t-31.5 -140.5q0 -198 121 -198q59 0 115 52zM381 596l-28 -33l-110 83l-109 -83l-28 33l139 126z" />
    <glyph glyph-name="Cdotaccent" unicode="&#x10a;" horiz-adv-x="518" 
d="M449 134l36 -42q-76 -100 -195 -100q-114 0 -174.5 84.5t-60.5 250.5t67 261t178 95q120 0 174 -110l-41 -35q-49 78 -126 78q-55 0 -93.5 -40t-55 -100t-16.5 -133q0 -283 165 -283q78 0 142 74zM341 781q0 -24 -9.5 -32.5t-37.5 -8.5q-30 0 -39 8t-9 33q0 26 9.5 34
t38.5 8t38 -8t9 -34z" />
    <glyph glyph-name="cdotaccent" unicode="&#x10b;" horiz-adv-x="427" 
d="M370 106l29 -41q-68 -73 -161 -73q-91 0 -139 63t-48 186q0 120 53 191.5t140 71.5t142 -61l-31 -41q-48 41 -101 41q-57 0 -88.5 -50.5t-31.5 -140.5q0 -198 121 -198q59 0 115 52zM287 641q0 -27 -9 -35.5t-39 -8.5q-31 0 -41 8.5t-10 35.5t10 36t41 9q30 0 39 -8.5
t9 -36.5z" />
    <glyph glyph-name="Ccaron" unicode="&#x10c;" horiz-adv-x="518" 
d="M449 134l36 -42q-76 -100 -195 -100q-114 0 -174.5 84.5t-60.5 250.5t67 261t178 95q120 0 174 -110l-41 -35q-49 78 -126 78q-55 0 -93.5 -40t-55 -100t-16.5 -133q0 -283 165 -283q78 0 142 74zM305 728l-144 89l23 37l122 -62l121 62l22 -36z" />
    <glyph glyph-name="ccaron" unicode="&#x10d;" horiz-adv-x="427" 
d="M370 106l29 -41q-68 -73 -161 -73q-91 0 -139 63t-48 186q0 120 53 191.5t140 71.5t142 -61l-31 -41q-48 41 -101 41q-57 0 -88.5 -50.5t-31.5 -140.5q0 -198 121 -198q59 0 115 52zM386 688l-139 -126l-136 126l29 34l109 -83l109 83z" />
    <glyph glyph-name="Dcaron" unicode="&#x10e;" horiz-adv-x="580" 
d="M92 0v675q26 0 75.5 0.5t74.5 0.5q61 0 109.5 -17t81 -46t53.5 -70.5t30 -88t9 -100.5q0 -171 -75.5 -263.5t-226.5 -92.5q-26 0 -70.5 1t-60.5 1zM175 611v-545q31 -3 65 -3q198 0 198 280q0 269 -205 269q-39 0 -58 -1zM273 728l-144 89l23 37l122 -62l121 62l22 -36z
" />
    <glyph glyph-name="dcaron" unicode="&#x10f;" horiz-adv-x="546" 
d="M434 0h-64l-8 55q-77 -63 -146 -63q-74 0 -119.5 66t-45.5 171q0 140 66 207.5t169 67.5q1 0 69 -4v209h79v-709zM355 111v321q-41 13 -79 13q-64 0 -103.5 -51t-39.5 -150q0 -88 28.5 -139t78.5 -51t115 57zM578 737l-56 -172l-44 8l35 177z" />
    <glyph glyph-name="Dcroat" unicode="&#x110;" horiz-adv-x="590" 
d="M102 383v292q26 0 76 0.5t77 0.5q75 0 130.5 -26t87.5 -71.5t47 -101.5t15 -123q0 -171 -75.5 -263.5t-226.5 -92.5q-22 0 -68 1t-63 1v320h-66v63h66zM185 611v-228h121v-63h-121v-254q32 -3 65 -3q198 0 198 280q0 269 -205 269q-39 0 -58 -1z" />
    <glyph glyph-name="dcroat" unicode="&#x111;" horiz-adv-x="519" 
d="M434 576v-576h-64l-8 55q-77 -63 -146 -63q-74 0 -119.5 66t-45.5 171q0 140 66 207.5t169 67.5q1 0 69 -4v76h-111v49h111v84h79v-84h81v-49h-81zM355 111v321q-41 13 -79 13q-64 0 -103.5 -51t-39.5 -150q0 -88 28.5 -139t78.5 -51t115 57z" />
    <glyph glyph-name="Emacron" unicode="&#x112;" horiz-adv-x="472" 
d="M416 0h-324v675h320v-66h-237v-226h195v-63h-195v-254h241v-66zM384 751h-270v56h270v-56z" />
    <glyph glyph-name="emacron" unicode="&#x113;" horiz-adv-x="490" 
d="M431 238h-298v-10q0 -91 34.5 -132.5t102.5 -41.5q70 0 145 31l15 -48q-87 -45 -179 -45q-200 0 -200 241q0 129 53.5 200t149.5 71q192 0 177 -266zM133 291h221v4q0 152 -105 152q-54 0 -83 -43t-33 -113zM376 603h-261v58h261v-58z" />
    <glyph glyph-name="Ebreve" unicode="&#x114;" horiz-adv-x="472" 
d="M416 0h-324v675h320v-66h-237v-226h195v-63h-195v-254h241v-66zM334 854h50q0 -56 -36 -94t-97 -38q-64 0 -98.5 37t-34.5 95h51q0 -30 20.5 -52t61.5 -22q40 0 61.5 22t21.5 52z" />
    <glyph glyph-name="ebreve" unicode="&#x115;" horiz-adv-x="490" 
d="M431 238h-298v-10q0 -91 34.5 -132.5t102.5 -41.5q70 0 145 31l15 -48q-87 -45 -179 -45q-200 0 -200 241q0 129 53.5 200t149.5 71q192 0 177 -266zM133 291h221v4q0 152 -105 152q-54 0 -83 -43t-33 -113zM331 715h51q0 -70 -35 -107.5t-99 -37.5q-67 0 -100.5 37.5
t-33.5 107.5h51q0 -83 83 -83t83 83z" />
    <glyph glyph-name="Edotaccent" unicode="&#x116;" horiz-adv-x="472" 
d="M416 0h-324v675h320v-66h-237v-226h195v-63h-195v-254h241v-66zM302 779q0 -24 -9.5 -32.5t-37.5 -8.5q-30 0 -39 8t-9 33q0 26 9.5 34t38.5 8t38 -8t9 -34z" />
    <glyph glyph-name="edotaccent" unicode="&#x117;" horiz-adv-x="490" 
d="M431 238h-298v-10q0 -91 34.5 -132.5t102.5 -41.5q70 0 145 31l15 -48q-87 -45 -179 -45q-200 0 -200 241q0 129 53.5 200t149.5 71q192 0 177 -266zM133 291h221v4q0 152 -105 152q-54 0 -83 -43t-33 -113zM298 641q0 -27 -9 -35.5t-39 -8.5q-31 0 -41 8.5t-10 35.5
t10 36t41 9q30 0 39 -8.5t9 -36.5z" />
    <glyph glyph-name="Eogonek" unicode="&#x118;" horiz-adv-x="472" 
d="M416 66v-66q-67 -48 -67 -95q0 -34 35 -34q22 0 47 14l14 -39q-35 -24 -82 -24q-82 0 -82 68q0 59 61 110h-250v675h320v-66h-237v-226h195v-63h-195v-254h241z" />
    <glyph glyph-name="eogonek" unicode="&#x119;" horiz-adv-x="490" 
d="M415 85l15 -48q-95 -80 -95 -132q0 -34 35 -34q22 0 48 14l13 -39q-35 -24 -82 -24q-82 0 -82 68q0 58 64 112q-37 -10 -80 -10q-200 0 -200 241q0 129 53.5 200t149.5 71q192 0 177 -266h-298v-10q0 -91 34.5 -132.5t102.5 -41.5q70 0 145 31zM133 291h221v4
q0 152 -105 152q-54 0 -83 -43.5t-33 -112.5z" />
    <glyph glyph-name="Ecaron" unicode="&#x11a;" horiz-adv-x="472" 
d="M416 0h-324v675h320v-66h-237v-226h195v-63h-195v-254h241v-66zM251 728l-144 89l23 37l122 -62l121 62l22 -36z" />
    <glyph glyph-name="ecaron" unicode="&#x11b;" horiz-adv-x="490" 
d="M431 238h-298v-10q0 -91 34.5 -132.5t102.5 -41.5q70 0 145 31l15 -48q-87 -45 -179 -45q-200 0 -200 241q0 129 53.5 200t149.5 71q192 0 177 -266zM133 291h221v4q0 152 -105 152q-54 0 -83 -43t-33 -113zM388 688l-139 -126l-136 126l29 34l109 -83l109 83z" />
    <glyph glyph-name="Gcircumflex" unicode="&#x11c;" horiz-adv-x="572" 
d="M491 367v-299q-83 -76 -199 -76q-113 0 -175 83.5t-62 254.5q0 167 72 260t181 93q99 0 175 -82l-36 -38q-68 53 -133 53q-79 0 -125.5 -70.5t-46.5 -200.5q0 -285 162 -285q63 0 105 33v211h-98v63h180zM307 854l143 -89l-22 -37l-123 61l-120 -61l-23 36z" />
    <glyph glyph-name="gcircumflex" unicode="&#x11d;" horiz-adv-x="519" 
d="M434 487v-471q0 -111 -48.5 -152.5t-141.5 -41.5q-74 0 -155 30l7 46q87 -15 141 -15q62 0 90 25.5t28 87.5v73q-74 -57 -139 -57q-73 0 -119 65t-46 164q0 131 67.5 197t170.5 66q60 0 145 -17zM355 129v302q-39 14 -81 14q-62 0 -101.5 -49.5t-39.5 -136.5
q0 -85 28 -135.5t79 -50.5q53 0 115 56zM397 596l-28 -33l-110 83l-109 -83l-28 33l139 126z" />
    <glyph glyph-name="Gbreve" unicode="&#x11e;" horiz-adv-x="572" 
d="M491 367v-299q-83 -76 -199 -76q-113 0 -175 83.5t-62 254.5q0 167 72 260t181 93q99 0 175 -82l-36 -38q-68 53 -133 53q-79 0 -125.5 -70.5t-46.5 -200.5q0 -285 162 -285q63 0 105 33v211h-98v63h180zM380 854h50q0 -56 -36 -94t-97 -38q-64 0 -98.5 37t-34.5 95h51
q0 -30 20.5 -52t61.5 -22q40 0 61.5 22t21.5 52z" />
    <glyph glyph-name="gbreve" unicode="&#x11f;" horiz-adv-x="519" 
d="M434 487v-471q0 -111 -48.5 -152.5t-141.5 -41.5q-74 0 -155 30l7 46q87 -15 141 -15q62 0 90 25.5t28 87.5v73q-74 -57 -139 -57q-73 0 -119 65t-46 164q0 131 67.5 197t170.5 66q60 0 145 -17zM355 129v302q-39 14 -81 14q-62 0 -101.5 -49.5t-39.5 -136.5
q0 -85 28 -135.5t79 -50.5q53 0 115 56zM350 715h51q0 -70 -35 -107.5t-99 -37.5q-67 0 -100.5 37.5t-33.5 107.5h51q0 -83 83 -83t83 83z" />
    <glyph glyph-name="Gdotaccent" unicode="&#x120;" horiz-adv-x="572" 
d="M491 367v-299q-83 -76 -199 -76q-113 0 -175 83.5t-62 254.5q0 167 72 260t181 93q99 0 175 -82l-36 -38q-68 53 -133 53q-79 0 -125.5 -70.5t-46.5 -200.5q0 -285 162 -285q63 0 105 33v211h-98v63h180zM353 781q0 -24 -9.5 -32.5t-37.5 -8.5q-30 0 -39 8t-9 33
q0 26 9.5 34t38.5 8t38 -8t9 -34z" />
    <glyph glyph-name="gdotaccent" unicode="&#x121;" horiz-adv-x="519" 
d="M434 487v-471q0 -111 -48.5 -152.5t-141.5 -41.5q-74 0 -155 30l7 46q87 -15 141 -15q62 0 90 25.5t28 87.5v73q-74 -57 -139 -57q-73 0 -119 65t-46 164q0 131 67.5 197t170.5 66q60 0 145 -17zM355 129v302q-39 14 -81 14q-62 0 -101.5 -49.5t-39.5 -136.5
q0 -85 28 -135.5t79 -50.5q53 0 115 56zM306 641q0 -27 -9 -35.5t-39 -8.5q-31 0 -41 8.5t-10 35.5t10 36t41 9q30 0 39 -8.5t9 -36.5z" />
    <glyph glyph-name="Gcommaaccent" unicode="&#x122;" horiz-adv-x="572" 
d="M491 367v-299q-83 -76 -199 -76q-113 0 -175 83.5t-62 254.5q0 167 72 260t181 93q99 0 175 -82l-36 -38q-68 53 -133 53q-79 0 -125.5 -70.5t-46.5 -200.5q0 -285 162 -285q63 0 105 33v211h-98v63h180zM294 -38q38 0 38 -38q0 -40 -25.5 -64t-77.5 -38l-14 30
q50 24 50 47q0 5 -5 11.5t-5 18.5q0 33 39 33z" />
    <glyph glyph-name="gcommaaccent" unicode="&#x123;" horiz-adv-x="519" 
d="M434 487v-471q0 -111 -48.5 -152.5t-141.5 -41.5q-74 0 -155 30l7 46q87 -15 141 -15q62 0 90 25.5t28 87.5v73q-74 -57 -139 -57q-73 0 -119 65t-46 164q0 131 67.5 197t170.5 66q60 0 145 -17zM355 129v302q-39 14 -81 14q-62 0 -101.5 -49.5t-39.5 -136.5
q0 -85 28 -135.5t79 -50.5q53 0 115 56zM373 715l11 -31q-30 -10 -46 -26t-16 -30q0 -6 5 -13t5 -18q0 -33 -39 -33q-38 0 -38 39q0 42 29.5 71.5t88.5 40.5z" />
    <glyph glyph-name="Hcircumflex" unicode="&#x124;" horiz-adv-x="658" 
d="M566 0h-83v319h-308v-319h-83v675h83v-285h308v285h83v-675zM330 854l143 -89l-22 -37l-123 61l-120 -61l-23 36z" />
    <glyph glyph-name="hcircumflex" unicode="&#x125;" horiz-adv-x="540" 
d="M456 0h-78q0 51 1 145t1 121q0 93 -23 133.5t-68 40.5q-55 0 -126 -59v-381h-79v709h79v-267q81 62 147 62q72 0 110.5 -51.5t38.5 -168.5q0 -25 -1.5 -126t-1.5 -158zM126 885l143 -89l-22 -37l-123 61l-120 -61l-23 36z" />
    <glyph glyph-name="Hbar" unicode="&#x126;" horiz-adv-x="678" 
d="M576 0h-83v296h-308v-296h-83v485h-83v61h83v129h83v-129h308v129h83v-129h82v-61h-82v-485zM185 364h308v121h-308v-121z" />
    <glyph glyph-name="hbar" unicode="&#x127;" horiz-adv-x="540" 
d="M456 0h-78q0 51 1 144.5t1 119.5q0 93 -23 133.5t-68 40.5q-56 0 -126 -58v-380h-79v579h-81v56h81v78h79v-78h144v-56h-144v-138q83 62 147 62q149 0 149 -220q0 -25 -1.5 -125.5t-1.5 -157.5z" />
    <glyph glyph-name="Itilde" unicode="&#x128;" horiz-adv-x="266" 
d="M175 0h-83v675h83v-675zM264 839l36 -25q-26 -44 -50 -62.5t-60 -18.5q-35 0 -72 27.5t-52 27.5q-16 0 -28.5 -11t-36.5 -42l-36 25q26 44 50 62.5t60 18.5q35 0 72 -27.5t52 -27.5q16 0 28.5 11t36.5 42z" />
    <glyph glyph-name="itilde" unicode="&#x129;" horiz-adv-x="248" 
d="M163 0h-79v496h79v-496zM253 687l35 -26q-26 -44 -49 -62.5t-58 -18.5t-71.5 27.5t-51.5 27.5q-16 0 -28.5 -11t-36.5 -42l-35 26q27 44 50 62.5t58 18.5t71.5 -27.5t51.5 -27.5q16 0 28.5 11t35.5 42z" />
    <glyph glyph-name="Imacron" unicode="&#x12a;" horiz-adv-x="266" 
d="M175 0h-83v675h83v-675zM268 751h-270v56h270v-56z" />
    <glyph glyph-name="imacron" unicode="&#x12b;" horiz-adv-x="248" 
d="M163 0h-79v496h79v-496zM255 603h-261v58h261v-58z" />
    <glyph glyph-name="Ibreve" unicode="&#x12c;" horiz-adv-x="266" 
d="M175 0h-83v675h83v-675zM216 854h50q0 -56 -36 -94t-97 -38q-64 0 -98.5 37t-34.5 95h51q0 -30 20.5 -52t61.5 -22q40 0 61.5 22t21.5 52z" />
    <glyph glyph-name="ibreve" unicode="&#x12d;" horiz-adv-x="248" 
d="M163 0h-79v496h79v-496zM207 715h51q0 -70 -35 -107.5t-99 -37.5q-67 0 -100.5 37.5t-33.5 107.5h51q0 -83 83 -83t83 83z" />
    <glyph glyph-name="Iogonek" unicode="&#x12e;" horiz-adv-x="266" 
d="M92 0v675h83v-675q-33 -19 -52 -45t-19 -50q0 -34 36 -34q22 0 47 14l13 -39q-34 -24 -81 -24q-83 0 -83 68q0 51 56 110z" />
    <glyph glyph-name="iogonek" unicode="&#x12f;" horiz-adv-x="248" 
d="M173 638q0 -27 -9 -36.5t-39 -9.5q-32 0 -41.5 9t-9.5 37q0 27 10 36.5t41 9.5q30 0 39 -9t9 -37zM84 0v496h79v-496q-30 -18 -48 -44.5t-18 -50.5q0 -34 35 -34q22 0 47 14l13 -39q-34 -24 -81 -24q-82 0 -82 68q0 50 55 110z" />
    <glyph glyph-name="Idotaccent" unicode="&#x130;" horiz-adv-x="266" 
d="M175 0h-83v675h83v-675zM180 779q0 -24 -9.5 -32.5t-37.5 -8.5q-30 0 -39 8t-9 33q0 26 9.5 34t38.5 8t38 -8t9 -34z" />
    <glyph glyph-name="dotlessi" unicode="&#x131;" horiz-adv-x="248" 
d="M163 0h-79v496h79v-496z" />
    <glyph glyph-name="IJ" unicode="&#x132;" horiz-adv-x="540" 
d="M175 0h-83v675h83v-675zM448 675v-606q0 -84 -20.5 -141t-74.5 -102l-42 35q32 37 43 85t11 124v605h83z" />
    <glyph glyph-name="ij" unicode="&#x133;" horiz-adv-x="495" 
d="M173 638q0 -28 -9.5 -37t-38.5 -9q-31 0 -41 9.5t-10 36.5t10 36.5t41 9.5q30 0 39 -9t9 -37zM163 0h-79v496h79v-496zM411 496v-457q0 -73 -22 -122.5t-75 -94.5l-48 27q66 71 66 169v478h79zM421 638q0 -28 -9.5 -37t-38.5 -9q-31 0 -41 9.5t-10 36.5t10 36.5t41 9.5
q30 0 39 -9t9 -37z" />
    <glyph glyph-name="Jcircumflex" unicode="&#x134;" horiz-adv-x="274" 
d="M182 675v-606q0 -84 -20.5 -141t-74.5 -102l-42 35q32 37 43 85t11 124v605h83zM141 854l143 -89l-22 -37l-123 61l-120 -61l-23 36z" />
    <glyph glyph-name="jcircumflex" unicode="&#x135;" horiz-adv-x="248" 
d="M163 496v-457q0 -73 -22 -122.5t-75 -94.5l-48 27q66 71 66 169v478h79zM261 596l-28 -33l-110 83l-109 -83l-28 33l139 126z" />
    <glyph glyph-name="Kcommaaccent" unicode="&#x136;" horiz-adv-x="522" 
d="M498 0h-99l-223 333h-1v-333h-83v675h83v-301h1l211 301h94l-230 -307zM278 -38q38 0 38 -38q0 -40 -25.5 -64t-77.5 -38l-14 30q50 24 50 47q0 5 -5 11.5t-5 18.5q0 33 39 33z" />
    <glyph glyph-name="kcommaaccent" unicode="&#x137;" horiz-adv-x="457" 
d="M441 0h-95l-180 259h-3v-259h-79v709h79v-419h3l157 206h96l-180 -212zM248 -38q38 0 38 -38q0 -40 -25.5 -64t-77.5 -38l-14 30q50 24 50 47q0 5 -5 11.5t-5 18.5q0 33 39 33z" />
    <glyph glyph-name="kgreenlandic" unicode="&#x138;" horiz-adv-x="457" 
d="M441 0h-95l-180 249h-3v-249h-79v496h79v-216h3l157 216h96l-180 -222z" />
    <glyph glyph-name="Lacute" unicode="&#x139;" horiz-adv-x="421" 
d="M403 0h-311v675h83v-608h228v-67zM119 766l168 88l38 -56l-181 -70z" />
    <glyph glyph-name="lacute" unicode="&#x13a;" horiz-adv-x="266" 
d="M232 53l4 -50q-30 -10 -68 -10q-46 0 -65 20t-19 78v618h79v-587q0 -45 7.5 -58t31.5 -13q14 0 30 2zM103 775l168 88l38 -56l-181 -70z" />
    <glyph glyph-name="Lcommaaccent" unicode="&#x13b;" horiz-adv-x="421" 
d="M403 0h-311v675h83v-608h228v-67zM244 -38q38 0 38 -38q0 -40 -25.5 -64t-77.5 -38l-14 30q50 24 50 47q0 5 -5 11.5t-5 18.5q0 33 39 33z" />
    <glyph glyph-name="lcommaaccent" unicode="&#x13c;" horiz-adv-x="266" 
d="M232 53l4 -50q-30 -10 -68 -10q-46 0 -65 20t-19 78v618h79v-587q0 -45 7.5 -58t31.5 -13q14 0 30 2zM173 -38q38 0 38 -38q0 -40 -25.5 -64t-77.5 -38l-14 30q50 24 50 47q0 5 -5 11.5t-5 18.5q0 33 39 33z" />
    <glyph glyph-name="Lcaron" unicode="&#x13d;" horiz-adv-x="421" 
d="M403 0h-311v675h83v-608h228v-67zM361 737l-56 -172l-44 8l35 177z" />
    <glyph glyph-name="lcaron" unicode="&#x13e;" horiz-adv-x="291" 
d="M232 53l4 -50q-30 -10 -68 -10q-46 0 -65 20t-19 78v618h79v-587q0 -45 7.5 -58t31.5 -13q14 0 30 2zM307 737l-56 -172l-44 8l35 177z" />
    <glyph glyph-name="Ldot" unicode="&#x13f;" horiz-adv-x="525" 
d="M403 0h-311v675h83v-608h228v-67zM478 337q0 -31 -10 -41t-41 -10t-41 10t-10 40q0 31 10 41.5t42 10.5q30 0 40 -10.5t10 -40.5z" />
    <glyph glyph-name="ldot" unicode="&#x140;" horiz-adv-x="470" 
d="M232 53l4 -50q-30 -10 -68 -10q-46 0 -65 20t-19 78v618h79v-587q0 -45 7.5 -58t31.5 -13q14 0 30 2zM410 297q0 -31 -10 -41t-41 -10t-41 10t-10 40q0 31 10 41.5t42 10.5q30 0 40 -10.5t10 -40.5z" />
    <glyph glyph-name="Lslash" unicode="&#x141;" horiz-adv-x="430" 
d="M183 454l123 67v-64l-123 -67v-323h229v-67h-312v347l-77 -41v63l77 42v264h83v-221z" />
    <glyph glyph-name="lslash" unicode="&#x142;" horiz-adv-x="277" 
d="M240 53l4 -50q-28 -10 -67 -10q-46 0 -65 20t-19 78v240l-73 -40v63l73 40v315h79v-272l73 40v-63l-73 -40v-252q0 -45 7.5 -58t30.5 -13q14 0 30 2z" />
    <glyph glyph-name="Nacute" unicode="&#x143;" horiz-adv-x="651" 
d="M560 0h-81l-232 411l-87 161h-1q4 -89 4 -157v-415h-71v675h103l206 -366l90 -165h1q-4 95 -4 163v368h72v-675zM295 766l168 88l38 -56l-181 -70z" />
    <glyph glyph-name="nacute" unicode="&#x144;" horiz-adv-x="540" 
d="M456 0h-78q0 48 1 140.5t1 125.5q0 93 -23 133.5t-68 40.5q-55 0 -126 -59v-381h-79v496h65l7 -59q83 67 154 67q73 0 111 -51.5t38 -168.5q0 -30 -1.5 -130t-1.5 -154zM418 681l-146 -121l-41 26l128 134z" />
    <glyph glyph-name="Ncommaaccent" unicode="&#x145;" horiz-adv-x="651" 
d="M560 0h-81l-232 411l-87 161h-1q4 -89 4 -157v-415h-71v675h103l206 -366l90 -165h1q-4 95 -4 163v368h72v-675zM317 -38q38 0 38 -38q0 -40 -25.5 -64t-77.5 -38l-14 30q50 24 50 47q0 5 -5 11.5t-5 18.5q0 33 39 33z" />
    <glyph glyph-name="ncommaaccent" unicode="&#x146;" horiz-adv-x="540" 
d="M456 0h-78q0 48 1 140.5t1 125.5q0 93 -23 133.5t-68 40.5q-55 0 -126 -59v-381h-79v496h65l7 -59q83 67 154 67q73 0 111 -51.5t38 -168.5q0 -30 -1.5 -130t-1.5 -154zM269 -38q38 0 38 -38q0 -40 -25.5 -64t-77.5 -38l-14 30q50 24 50 47q0 5 -5 11.5t-5 18.5
q0 33 39 33z" />
    <glyph glyph-name="Ncaron" unicode="&#x147;" horiz-adv-x="651" 
d="M560 0h-81l-232 411l-87 161h-1q4 -89 4 -157v-415h-71v675h103l206 -366l90 -165h1q-4 95 -4 163v368h72v-675zM339 728l-144 89l23 37l122 -62l121 62l22 -36z" />
    <glyph glyph-name="ncaron" unicode="&#x148;" horiz-adv-x="540" 
d="M456 0h-78q0 48 1 140.5t1 125.5q0 93 -23 133.5t-68 40.5q-55 0 -126 -59v-381h-79v496h65l7 -59q83 67 154 67q73 0 111 -51.5t38 -168.5q0 -30 -1.5 -130t-1.5 -154zM409 688l-139 -126l-136 126l29 34l109 -83l109 83z" />
    <glyph glyph-name="napostrophe" unicode="&#x149;" horiz-adv-x="595" 
d="M50 519l-27 31q66 47 66 86q0 12 -11 24t-11 32q0 29 8.5 39t38.5 10q26 0 35 -11t9 -37q0 -60 -25 -99t-83 -75zM511 0h-78q0 48 1 140.5t1 125.5q0 93 -23 133.5t-68 40.5q-55 0 -126 -59v-381h-79v496h65l7 -59q83 67 154 67q73 0 111 -51.5t38 -168.5
q0 -30 -1.5 -130t-1.5 -154z" />
    <glyph glyph-name="Eng" unicode="&#x14a;" horiz-adv-x="651" 
d="M560 675v-644q0 -72 -20.5 -121.5t-75.5 -87.5l-38 37q53 49 53 141h-7l-227 411l-85 161h-1q4 -79 4 -157v-415h-71v675h103l207 -373l89 -168h1q-4 90 -4 165v376h72z" />
    <glyph glyph-name="eng" unicode="&#x14b;" horiz-adv-x="540" 
d="M360 -178l-47 27q66 71 66 169l1 248q0 93 -23 133.5t-68 40.5q-55 0 -126 -59v-381h-79v496h65l7 -59q83 67 154 67q73 0 111 -51.5t38 -168.5l-1 -245q0 -73 -22 -122.5t-76 -94.5z" />
    <glyph glyph-name="Omacron" unicode="&#x14c;" horiz-adv-x="637" 
d="M582 349q0 -181 -73 -269t-198 -88q-256 0 -256 334q0 181 73 269t198 88q256 0 256 -334zM495 332q0 149 -45 218t-134 69q-174 0 -174 -276q0 -149 44.5 -217.5t134.5 -68.5q174 0 174 275zM453 751h-270v56h270v-56z" />
    <glyph glyph-name="omacron" unicode="&#x14d;" horiz-adv-x="522" 
d="M471 257q0 -132 -59 -198.5t-162 -66.5q-199 0 -199 247q0 132 58.5 198.5t161.5 66.5q200 0 200 -247zM389 236q0 111 -31.5 159t-97.5 48q-60 0 -93.5 -46t-33.5 -137q0 -112 31 -160t98 -48q59 0 93 46t34 138zM390 603h-261v58h261v-58z" />
    <glyph glyph-name="Obreve" unicode="&#x14e;" horiz-adv-x="637" 
d="M582 349q0 -181 -73 -269t-198 -88q-256 0 -256 334q0 181 73 269t198 88q256 0 256 -334zM495 332q0 149 -45 218t-134 69q-174 0 -174 -276q0 -149 44.5 -217.5t134.5 -68.5q174 0 174 275zM402 854h50q0 -56 -36 -94t-97 -38q-64 0 -98.5 37t-34.5 95h51
q0 -30 20.5 -52t61.5 -22q40 0 61.5 22t21.5 52z" />
    <glyph glyph-name="obreve" unicode="&#x14f;" horiz-adv-x="522" 
d="M471 257q0 -132 -59 -198.5t-162 -66.5q-199 0 -199 247q0 132 58.5 198.5t161.5 66.5q200 0 200 -247zM389 236q0 111 -31.5 159t-97.5 48q-60 0 -93.5 -46t-33.5 -137q0 -112 31 -160t98 -48q59 0 93 46t34 138zM343 715h51q0 -70 -35 -107.5t-99 -37.5
q-67 0 -100.5 37.5t-33.5 107.5h51q0 -83 83 -83t83 83z" />
    <glyph glyph-name="Ohungarumlaut" unicode="&#x150;" horiz-adv-x="637" 
d="M582 349q0 -181 -73 -269t-198 -88q-256 0 -256 334q0 181 73 269t198 88q256 0 256 -334zM495 332q0 149 -45 218t-134 69q-174 0 -174 -276q0 -149 44.5 -217.5t134.5 -68.5q174 0 174 275zM589 812l-175 -89l-29 28l159 105zM391 822l-161 -101l-33 25l145 116z" />
    <glyph glyph-name="ohungarumlaut" unicode="&#x151;" horiz-adv-x="522" 
d="M471 257q0 -132 -59 -198.5t-162 -66.5q-199 0 -199 247q0 132 58.5 198.5t161.5 66.5q200 0 200 -247zM389 236q0 111 -31.5 159t-97.5 48q-60 0 -93.5 -46t-33.5 -137q0 -112 31 -160t98 -48q59 0 93 46t34 138zM491 678l-145 -118l-39 27l126 131zM308 684l-135 -127
l-40 26l117 139z" />
    <glyph glyph-name="OE" unicode="&#x152;" horiz-adv-x="768" 
d="M712 0h-311q-39 -8 -90 -8q-256 0 -256 334q0 181 73 269t198 88q46 0 82 -8h300v-66h-237v-226h195v-63h-195v-254h241v-66zM388 65v540q-31 14 -72 14q-174 0 -174 -275q0 -149 44.5 -218t134.5 -69q37 0 67 8z" />
    <glyph glyph-name="oe" unicode="&#x153;" horiz-adv-x="826" 
d="M751 85l15 -48q-88 -45 -180 -45q-120 0 -163 99q-47 -99 -171 -99q-201 0 -201 247q0 133 58 199t160 66q120 0 164 -101q48 101 157 101q192 0 177 -266h-298v-10q0 -91 34 -132.5t102 -41.5q71 0 146 31zM469 291h221v4q0 152 -106 152q-53 0 -82.5 -43t-32.5 -113z
M389 235q0 112 -31 160t-99 48q-60 0 -93 -45.5t-33 -137.5q0 -112 31 -160t99 -48q59 0 92.5 46t33.5 137z" />
    <glyph glyph-name="Racute" unicode="&#x154;" horiz-adv-x="541" 
d="M527 0h-98l-195 297h-59v-297h-83v675q96 2 172 2q113 0 169.5 -48t56.5 -130q0 -87 -50 -131t-124 -57zM175 613v-252h80q70 0 108.5 33.5t38.5 94.5q0 124 -152 124h-75zM210 766l168 88l38 -56l-181 -70z" />
    <glyph glyph-name="racute" unicode="&#x155;" horiz-adv-x="349" 
d="M325 493l-10 -74q-20 7 -38 7q-23 0 -48.5 -20t-65.5 -69v-337h-79v496h65l8 -90q43 54 71.5 75.5t55.5 21.5q20 0 41 -10zM345 681l-146 -121l-41 26l128 134z" />
    <glyph glyph-name="Rcommaaccent" unicode="&#x156;" horiz-adv-x="541" 
d="M527 0h-98l-195 297h-59v-297h-83v675q96 2 172 2q113 0 169.5 -48t56.5 -130q0 -87 -50 -131t-124 -57zM175 613v-252h80q70 0 108.5 33.5t38.5 94.5q0 124 -152 124h-75zM282 -38q38 0 38 -38q0 -40 -25.5 -64t-77.5 -38l-14 30q50 24 50 47q0 5 -5 11.5t-5 18.5
q0 33 39 33z" />
    <glyph glyph-name="rcommaaccent" unicode="&#x157;" horiz-adv-x="349" 
d="M325 493l-10 -74q-20 7 -38 7q-23 0 -48.5 -20t-65.5 -69v-337h-79v496h65l8 -90q43 54 71.5 75.5t55.5 21.5q20 0 41 -10zM127 -38q38 0 38 -38q0 -40 -25.5 -64t-77.5 -38l-14 30q50 24 50 47q0 5 -5 11.5t-5 18.5q0 33 39 33z" />
    <glyph glyph-name="Rcaron" unicode="&#x158;" horiz-adv-x="541" 
d="M527 0h-98l-195 297h-59v-297h-83v675q96 2 172 2q113 0 169.5 -48t56.5 -130q0 -87 -50 -131t-124 -57zM175 613v-252h80q70 0 108.5 33.5t38.5 94.5q0 124 -152 124h-75zM266 728l-144 89l23 37l122 -62l121 62l22 -36z" />
    <glyph glyph-name="rcaron" unicode="&#x159;" horiz-adv-x="349" 
d="M325 493l-10 -74q-20 7 -38 7q-23 0 -48.5 -20t-65.5 -69v-337h-79v496h65l8 -90q43 54 71.5 75.5t55.5 21.5q20 0 41 -10zM341 688l-139 -126l-136 126l29 34l109 -83l109 83z" />
    <glyph glyph-name="Sacute" unicode="&#x15a;" horiz-adv-x="496" 
d="M457 183q0 -84 -60 -137.5t-159 -53.5q-95 0 -187 56l21 46q87 -38 153 -38q65 0 103 30.5t38 86.5q0 44 -32 75.5t-77.5 52t-91.5 43.5t-78 64t-32 100q0 78 55.5 126.5t143.5 48.5q89 0 162 -46l-21 -46q-67 29 -129 29q-61 0 -92.5 -28t-31.5 -73t32.5 -76.5t79 -52.5
t92.5 -44t78.5 -64t32.5 -99zM213 766l168 88l38 -56l-181 -70z" />
    <glyph glyph-name="sacute" unicode="&#x15b;" horiz-adv-x="401" 
d="M41 27l10 45q71 -21 120 -21q52 0 79 22t27 57q0 32 -24 53t-58.5 33.5t-69 27.5t-58.5 46t-24 77q0 60 44.5 98.5t117.5 38.5q61 0 118 -29l-12 -44q-49 15 -93 15q-45 0 -69 -20t-24 -51q0 -32 24.5 -53t59 -33.5t69 -27.5t59 -46t24.5 -78q0 -65 -48.5 -105
t-129.5 -40q-74 0 -142 35zM347 681l-146 -121l-41 26l128 134z" />
    <glyph glyph-name="Scircumflex" unicode="&#x15c;" horiz-adv-x="496" 
d="M457 183q0 -84 -60 -137.5t-159 -53.5q-95 0 -187 56l21 46q87 -38 153 -38q65 0 103 30.5t38 86.5q0 44 -32 75.5t-77.5 52t-91.5 43.5t-78 64t-32 100q0 78 55.5 126.5t143.5 48.5q89 0 162 -46l-21 -46q-67 29 -129 29q-61 0 -92.5 -28t-31.5 -73t32.5 -76.5t79 -52.5
t92.5 -44t78.5 -64t32.5 -99zM259 854l143 -89l-22 -37l-123 61l-120 -61l-23 36z" />
    <glyph glyph-name="scircumflex" unicode="&#x15d;" horiz-adv-x="401" 
d="M41 27l10 45q71 -21 120 -21q52 0 79 22t27 57q0 32 -24 53t-58.5 33.5t-69 27.5t-58.5 46t-24 77q0 60 44.5 98.5t117.5 38.5q61 0 118 -29l-12 -44q-49 15 -93 15q-45 0 -69 -20t-24 -51q0 -32 24.5 -53t59 -33.5t69 -27.5t59 -46t24.5 -78q0 -65 -48.5 -105
t-129.5 -40q-74 0 -142 35zM337 596l-28 -33l-110 83l-109 -83l-28 33l139 126z" />
    <glyph glyph-name="Scedilla" unicode="&#x15e;" horiz-adv-x="496" 
d="M457 183q0 -84 -60 -137.5t-159 -53.5q-95 0 -187 56l21 46q87 -38 153 -38q65 0 103 30.5t38 86.5q0 44 -32 75.5t-77.5 52t-91.5 43.5t-78 64t-32 100q0 78 55.5 126.5t143.5 48.5q89 0 162 -46l-21 -46q-67 29 -129 29q-61 0 -92.5 -28t-31.5 -73t32.5 -76.5t79 -52.5
t92.5 -44t78.5 -64t32.5 -99zM207 -43h70q10 -80 -73 -136l-44 25q30 26 40 49.5t7 61.5z" />
    <glyph glyph-name="scedilla" unicode="&#x15f;" horiz-adv-x="401" 
d="M41 27l10 45q71 -21 120 -21q52 0 79 22t27 57q0 32 -24 53t-58.5 33.5t-69 27.5t-58.5 46t-24 77q0 60 44.5 98.5t117.5 38.5q61 0 118 -29l-12 -44q-49 15 -93 15q-45 0 -69 -20t-24 -51q0 -32 24.5 -53t59 -33.5t69 -27.5t59 -46t24.5 -78q0 -65 -48.5 -105
t-129.5 -40q-74 0 -142 35zM155 -43h70q10 -80 -73 -136l-44 25q30 26 40 49.5t7 61.5z" />
    <glyph glyph-name="Scaron" unicode="&#x160;" horiz-adv-x="496" 
d="M457 183q0 -84 -60 -137.5t-159 -53.5q-95 0 -187 56l21 46q87 -38 153 -38q65 0 103 30.5t38 86.5q0 44 -32 75.5t-77.5 52t-91.5 43.5t-78 64t-32 100q0 78 55.5 126.5t143.5 48.5q89 0 162 -46l-21 -46q-67 29 -129 29q-61 0 -92.5 -28t-31.5 -73t32.5 -76.5t79 -52.5
t92.5 -44t78.5 -64t32.5 -99zM249 728l-144 89l23 37l122 -62l121 62l22 -36z" />
    <glyph glyph-name="scaron" unicode="&#x161;" horiz-adv-x="401" 
d="M41 27l10 45q71 -21 120 -21q52 0 79 22t27 57q0 32 -24 53t-58.5 33.5t-69 27.5t-58.5 46t-24 77q0 60 44.5 98.5t117.5 38.5q61 0 118 -29l-12 -44q-49 15 -93 15q-45 0 -69 -20t-24 -51q0 -32 24.5 -53t59 -33.5t69 -27.5t59 -46t24.5 -78q0 -65 -48.5 -105
t-129.5 -40q-74 0 -142 35zM338 688l-139 -126l-136 126l29 34l109 -83l109 83z" />
    <glyph glyph-name="uni0162" unicode="&#x162;" horiz-adv-x="466" 
d="M450 609h-176v-609h-83v609h-175v66h434v-66zM235 -38q38 0 38 -38q0 -40 -25.5 -64t-77.5 -38l-14 30q50 24 50 47q0 5 -5 11.5t-5 18.5q0 33 39 33z" />
    <glyph glyph-name="uni0163" unicode="&#x163;" horiz-adv-x="347" 
d="M311 69l10 -48q-61 -29 -112 -29q-63 0 -88.5 30t-25.5 103v313h-79v58h80q13 71 21 141h57v-141h134v-58h-134v-293q0 -52 12 -72t47 -20q32 0 78 16zM207 -38q38 0 38 -38q0 -40 -25.5 -64t-77.5 -38l-14 30q50 24 50 47q0 5 -5 11.5t-5 18.5q0 33 39 33z" />
    <glyph glyph-name="Tcaron" unicode="&#x164;" horiz-adv-x="466" 
d="M450 609h-176v-609h-83v609h-175v66h434v-66zM233 728l-144 89l23 37l122 -62l121 62l22 -36z" />
    <glyph glyph-name="tcaron" unicode="&#x165;" horiz-adv-x="364" 
d="M311 69l10 -48q-61 -29 -112 -29q-63 0 -88.5 30t-25.5 103v313h-79v58h80q13 71 21 141h57v-141h134v-58h-134v-293q0 -52 12 -72t47 -20q32 0 78 16zM335 737l-56 -172l-44 8l35 177z" />
    <glyph glyph-name="Tbar" unicode="&#x166;" horiz-adv-x="466" 
d="M450 609h-176v-245h118v-60h-118v-304h-83v304h-117v60h117v245h-175v66h434v-66z" />
    <glyph glyph-name="tbar" unicode="&#x167;" horiz-adv-x="347" 
d="M311 69l10 -48q-61 -29 -112 -29q-63 0 -88.5 30t-25.5 103v109h-63v57h63v147h-79v58h80q13 71 21 141h57v-141h134v-58h-134v-147h119v-57h-119v-89q0 -52 12 -72t47 -20q32 0 78 16z" />
    <glyph glyph-name="Utilde" unicode="&#x168;" horiz-adv-x="652" 
d="M562 675v-427q0 -131 -65 -193.5t-182 -62.5q-115 0 -170 58t-55 185v440h83v-429q0 -104 36.5 -147.5t118.5 -43.5q75 0 113.5 42.5t38.5 143.5v434h82zM457 839l36 -25q-26 -44 -50 -62.5t-60 -18.5q-35 0 -72 27.5t-52 27.5q-16 0 -28.5 -11t-36.5 -42l-36 25
q26 44 50 62.5t60 18.5q35 0 72 -27.5t52 -27.5q16 0 28.5 11t36.5 42z" />
    <glyph glyph-name="utilde" unicode="&#x169;" horiz-adv-x="540" 
d="M455 0h-65l-7 58q-84 -66 -154 -66q-149 0 -149 220q0 30 2 130t2 154h78q0 -48 -1 -141t-1 -125q0 -92 22.5 -133t68.5 -41q55 0 125 58v382h79v-496zM399 687l35 -26q-26 -44 -49 -62.5t-58 -18.5t-71.5 27.5t-51.5 27.5q-16 0 -28.5 -11t-36.5 -42l-35 26
q27 44 50 62.5t58 18.5t71.5 -27.5t51.5 -27.5q16 0 28.5 11t35.5 42z" />
    <glyph glyph-name="Umacron" unicode="&#x16a;" horiz-adv-x="652" 
d="M562 675v-427q0 -131 -65 -193.5t-182 -62.5q-115 0 -170 58t-55 185v440h83v-429q0 -104 36.5 -147.5t118.5 -43.5q75 0 113.5 42.5t38.5 143.5v434h82zM461 751h-270v56h270v-56z" />
    <glyph glyph-name="umacron" unicode="&#x16b;" horiz-adv-x="540" 
d="M455 0h-65l-7 58q-84 -66 -154 -66q-149 0 -149 220q0 30 2 130t2 154h78q0 -48 -1 -141t-1 -125q0 -92 22.5 -133t68.5 -41q55 0 125 58v382h79v-496zM402 603h-261v58h261v-58z" />
    <glyph glyph-name="Ubreve" unicode="&#x16c;" horiz-adv-x="652" 
d="M562 675v-427q0 -131 -65 -193.5t-182 -62.5q-115 0 -170 58t-55 185v440h83v-429q0 -104 36.5 -147.5t118.5 -43.5q75 0 113.5 42.5t38.5 143.5v434h82zM409 854h50q0 -56 -36 -94t-97 -38q-64 0 -98.5 37t-34.5 95h51q0 -30 20.5 -52t61.5 -22q40 0 61.5 22t21.5 52z
" />
    <glyph glyph-name="ubreve" unicode="&#x16d;" horiz-adv-x="540" 
d="M455 0h-65l-7 58q-84 -66 -154 -66q-149 0 -149 220q0 30 2 130t2 154h78q0 -48 -1 -141t-1 -125q0 -92 22.5 -133t68.5 -41q55 0 125 58v382h79v-496zM352 715h51q0 -70 -35 -107.5t-99 -37.5q-67 0 -100.5 37.5t-33.5 107.5h51q0 -83 83 -83t83 83z" />
    <glyph glyph-name="Uring" unicode="&#x16e;" horiz-adv-x="652" 
d="M562 675v-427q0 -131 -65 -193.5t-182 -62.5q-115 0 -170 58t-55 185v440h83v-429q0 -104 36.5 -147.5t118.5 -43.5q75 0 113.5 42.5t38.5 143.5v434h82zM425 776q0 -39 -27.5 -61.5t-74.5 -22.5q-97 0 -97 79q0 37 28 60t75 23q96 0 96 -78zM369 772q0 23 -10 33t-33 10
q-44 0 -44 -43q0 -41 44 -41q43 0 43 41z" />
    <glyph glyph-name="uring" unicode="&#x16f;" horiz-adv-x="540" 
d="M455 0h-65l-7 58q-84 -66 -154 -66q-149 0 -149 220q0 30 2 130t2 154h78q0 -48 -1 -141t-1 -125q0 -92 22.5 -133t68.5 -41q55 0 125 58v382h79v-496zM376 638q0 -42 -28.5 -66.5t-76.5 -24.5q-99 0 -99 86q0 41 29 65.5t76 24.5q99 0 99 -85zM318 634q0 46 -44 46
t-44 -46q0 -44 44 -44t44 44z" />
    <glyph glyph-name="Uhungarumlaut" unicode="&#x170;" horiz-adv-x="652" 
d="M562 675v-427q0 -131 -65 -193.5t-182 -62.5q-115 0 -170 58t-55 185v440h83v-429q0 -104 36.5 -147.5t118.5 -43.5q75 0 113.5 42.5t38.5 143.5v434h82zM591 812l-175 -89l-29 28l159 105zM393 822l-161 -101l-33 25l145 116z" />
    <glyph glyph-name="uhungarumlaut" unicode="&#x171;" horiz-adv-x="540" 
d="M455 0h-65l-7 58q-84 -66 -154 -66q-149 0 -149 220q0 30 2 130t2 154h78q0 -48 -1 -141t-1 -125q0 -92 22.5 -133t68.5 -41q55 0 125 58v382h79v-496zM506 678l-145 -118l-39 27l126 131zM323 684l-135 -127l-40 26l117 139z" />
    <glyph glyph-name="Uogonek" unicode="&#x172;" horiz-adv-x="652" 
d="M469 -115l13 -39q-35 -24 -81 -24q-83 0 -83 68q0 57 60 110q-28 -8 -63 -8q-116 0 -170.5 58t-54.5 185v440h83v-429q0 -104 36.5 -147.5t118.5 -43.5q75 0 113.5 42.5t38.5 143.5v434h82v-427q0 -128 -62 -190l-16 -16q-38 -37 -54 -55t-30 -40.5t-14 -41.5
q0 -34 35 -34q22 0 48 14z" />
    <glyph glyph-name="uogonek" unicode="&#x173;" horiz-adv-x="540" 
d="M455 496v-496q-64 -53 -64 -95q0 -34 35 -34q22 0 47 14l13 -39q-34 -24 -81 -24q-83 0 -83 68q0 60 68 115l-7 53q-84 -66 -154 -66q-149 0 -149 220q0 30 2 130t2 154h78q0 -48 -1 -141t-1 -125q0 -92 22.5 -133t68.5 -41q55 0 125 58v382h79z" />
    <glyph glyph-name="Wcircumflex" unicode="&#x174;" horiz-adv-x="851" 
d="M747 675h82q-83 -370 -181 -675h-91l-113 439l-21 95h-1l-20 -98l-104 -436h-93q-103 313 -182 675h89q42 -197 145 -570h2l14 69l119 501h76l125 -491l18 -79h1q83 310 135 570zM431 854l143 -89l-22 -37l-123 61l-120 -61l-23 36z" />
    <glyph glyph-name="wcircumflex" unicode="&#x175;" horiz-adv-x="730" 
d="M620 496h80q-42 -238 -143 -496h-86l-97 333l-14 64h-1l-13 -65l-85 -332h-90l-146 496h85l89 -316l23 -92h2l16 78l82 330h85l98 -339l16 -69h2q70 227 97 408zM504 596l-28 -33l-110 83l-109 -83l-28 33l139 126z" />
    <glyph glyph-name="Ycircumflex" unicode="&#x176;" horiz-adv-x="483" 
d="M397 675h87q-108 -240 -201 -381v-294h-83v294q-106 166 -201 381h93q86 -192 156 -307h1q74 121 148 307zM245 854l143 -89l-22 -37l-123 61l-120 -61l-23 36z" />
    <glyph glyph-name="ycircumflex" unicode="&#x177;" horiz-adv-x="461" 
d="M350 496h84q-35 -166 -75 -290.5t-76.5 -196t-77 -115t-73 -57.5t-67.5 -14q-24 0 -61 13v48q18 -2 42 -2q52 0 86 31q42 41 42 89q0 45 -38 152l-117 342h86l95 -284q33 -96 31 -161h2q33 79 66 204t51 241zM371 596l-28 -33l-110 83l-109 -83l-28 33l139 126z" />
    <glyph glyph-name="Ydieresis" unicode="&#x178;" horiz-adv-x="483" 
d="M397 675h87q-108 -240 -201 -381v-294h-83v294q-106 166 -201 381h93q86 -192 156 -307h1q74 121 148 307zM388 778q0 -23 -9 -31.5t-34 -8.5q-27 0 -35.5 8t-8.5 32t8.5 32.5t35.5 8.5q26 0 34.5 -8t8.5 -33zM189 778q0 -24 -8.5 -32t-34.5 -8t-35 8t-9 32t9 32.5
t35 8.5t34.5 -8t8.5 -33z" />
    <glyph glyph-name="Zacute" unicode="&#x179;" horiz-adv-x="486" 
d="M446 0h-407v57l296 551h-281l2 67h378v-55l-295 -552h310zM201 766l168 88l38 -56l-181 -70z" />
    <glyph glyph-name="zacute" unicode="&#x17a;" horiz-adv-x="400" 
d="M356 62l-2 -62h-312v51l212 384h-203l3 61h291v-50l-212 -384h223zM353 681l-146 -121l-41 26l128 134z" />
    <glyph glyph-name="Zdotaccent" unicode="&#x17b;" horiz-adv-x="486" 
d="M446 0h-407v57l296 551h-281l2 67h378v-55l-295 -552h310zM293 779q0 -24 -9.5 -32.5t-37.5 -8.5q-30 0 -39 8t-9 33q0 26 9.5 34t38.5 8t38 -8t9 -34z" />
    <glyph glyph-name="zdotaccent" unicode="&#x17c;" horiz-adv-x="400" 
d="M356 62l-2 -62h-312v51l212 384h-203l3 61h291v-50l-212 -384h223zM250 639q0 -27 -9 -35.5t-39 -8.5q-31 0 -41 8.5t-10 35.5t10 36t41 9q30 0 39 -8.5t9 -36.5z" />
    <glyph glyph-name="Zcaron" unicode="&#x17d;" horiz-adv-x="486" 
d="M446 0h-407v57l296 551h-281l2 67h378v-55l-295 -552h310zM246 728l-144 89l23 37l122 -62l121 62l22 -36z" />
    <glyph glyph-name="zcaron" unicode="&#x17e;" horiz-adv-x="400" 
d="M356 62l-2 -62h-312v51l212 384h-203l3 61h291v-50l-212 -384h223zM339 688l-139 -126l-136 126l29 34l109 -83l109 83z" />
    <glyph glyph-name="longs" unicode="&#x17f;" horiz-adv-x="260" 
d="M303 692l-14 -48q-35 14 -63 14q-63 0 -63 -83v-575h-79v572q0 69 29.5 107t89.5 38q56 0 100 -25z" />
    <glyph glyph-name="florin" unicode="&#x192;" 
d="M472 652l-16 -46q-38 17 -70 17q-39 0 -58 -20.5t-24 -66.5l-19 -165h153v-55h-158l-32 -280q-15 -147 -141 -147q-55 0 -107 30l16 46q38 -17 70 -17q38 0 58 21t25 66l32 281h-139v55h144l19 164q15 147 141 147q57 0 106 -30z" />
    <glyph glyph-name="Gcaron" unicode="&#x1e6;" horiz-adv-x="572" 
d="M491 367v-299q-83 -76 -199 -76q-113 0 -175 83.5t-62 254.5q0 167 72 260t181 93q99 0 175 -82l-36 -38q-68 53 -133 53q-79 0 -125.5 -70.5t-46.5 -200.5q0 -285 162 -285q63 0 105 33v211h-98v63h180zM304 728l-144 89l23 37l122 -62l121 62l22 -36z" />
    <glyph glyph-name="gcaron" unicode="&#x1e7;" horiz-adv-x="519" 
d="M434 487v-471q0 -111 -48.5 -152.5t-141.5 -41.5q-74 0 -155 30l7 46q87 -15 141 -15q62 0 90 25.5t28 87.5v73q-74 -57 -139 -57q-73 0 -119 65t-46 164q0 131 67.5 197t170.5 66q60 0 145 -17zM355 129v302q-39 14 -81 14q-62 0 -101.5 -49.5t-39.5 -136.5
q0 -85 28 -135.5t79 -50.5q53 0 115 56zM397 688l-139 -126l-136 126l29 34l109 -83l109 83z" />
    <glyph glyph-name="Aringacute" unicode="&#x1fa;" horiz-adv-x="531" 
d="M514 0h-90q-14 61 -37 147h-254q-12 -50 -34 -147h-82q83 346 195 675h102q121 -356 200 -675zM147 211h226q-57 201 -116 384h-2q-61 -201 -108 -384zM356 749q0 -25 -26 -41.5t-69 -16.5t-66 14t-23 39t26 41.5t69 16.5q89 0 89 -53zM303 748q0 25 -39 25
q-38 0 -38 -28q0 -25 38 -25q39 0 39 28zM208 845l142 40l20 -37l-151 -29z" />
    <glyph glyph-name="aringacute" unicode="&#x1fb;" horiz-adv-x="493" 
d="M410 0h-62l-7 56q-77 -64 -156 -64q-65 0 -104.5 36.5t-39.5 99.5q0 163 248 163h42v52q0 52 -26.5 76.5t-85.5 24.5q-63 0 -140 -29l-13 51q92 38 175 38q87 0 128 -40t41 -109v-355zM331 108v130h-47q-92 0 -128 -26.5t-36 -74.5q0 -87 87 -87q58 0 124 58zM338 632
q0 -39 -27 -61.5t-73 -22.5q-95 0 -95 79q0 37 27.5 60t73.5 23q94 0 94 -78zM283 628q0 23 -10 33t-33 10q-42 0 -42 -43q0 -21 9.5 -31t32.5 -10q43 0 43 41zM203 777l99 108l58 -35l-118 -96z" />
    <glyph glyph-name="AEacute" unicode="&#x1fc;" horiz-adv-x="714" 
d="M658 0h-325v147h-204q-35 -87 -57 -147h-85q143 354 303 675h364v-66h-238v-226h196v-63h-196v-254h242v-66zM333 211v398h-1q-100 -208 -179 -398h180zM413 766l168 88l38 -56l-181 -70z" />
    <glyph glyph-name="aeacute" unicode="&#x1fd;" horiz-adv-x="766" 
d="M691 85l15 -48q-88 -45 -179 -45q-128 0 -170 99q-66 -99 -172 -99q-65 0 -104.5 36.5t-39.5 99.5q0 163 248 163h42v52q0 52 -26.5 76.5t-85.5 24.5q-63 0 -140 -29l-13 51q92 38 176 38q113 0 143 -80q51 80 146 80q191 0 176 -266h-298v-10q0 -91 34 -132.5t102 -41.5
q71 0 146 31zM331 238h-47q-92 0 -128 -26.5t-36 -74.5q0 -87 87 -87q80 0 124 86v102zM409 291h221v4q0 152 -106 152q-53 0 -82.5 -43t-32.5 -113zM538 681l-146 -121l-41 26l128 134z" />
    <glyph glyph-name="Oslashacute" unicode="&#x1fe;" horiz-adv-x="637" 
d="M582 349q0 -181 -73 -269t-198 -88q-88 0 -143 41l-63 -106l-47 26l68 113q-71 82 -71 260q0 181 73 269t198 88q88 0 143 -41l63 106l47 -26l-68 -113q71 -82 71 -260zM498 332q0 129 -36 195l-256 -432q42 -41 115 -41q177 0 177 278zM316 622q-177 0 -177 -279
q0 -127 36 -195l256 432q-44 42 -115 42zM276 771l168 88l38 -56l-181 -70z" />
    <glyph glyph-name="oslashacute" unicode="&#x1ff;" horiz-adv-x="522" 
d="M464 543l-53 -91q60 -60 60 -195q0 -133 -58 -199t-161 -66q-57 0 -97 22l-51 -87l-46 26l52 91q-59 62 -59 195q0 132 58 198.5t161 66.5q60 0 97 -23l50 87zM366 380l-178 -310q27 -21 74 -21q61 0 96 46.5t35 139.5q0 100 -27 145zM155 114l178 312q-29 21 -74 21
q-61 0 -95.5 -47t-34.5 -140q0 -97 26 -146zM404 681l-146 -121l-41 26l128 134z" />
    <glyph glyph-name="Scommaaccent" unicode="&#x218;" horiz-adv-x="496" 
d="M457 183q0 -84 -60 -137.5t-159 -53.5q-95 0 -187 56l21 46q87 -38 153 -38q65 0 103 30.5t38 86.5q0 44 -32 75.5t-77.5 52t-91.5 43.5t-78 64t-32 100q0 78 55.5 126.5t143.5 48.5q89 0 162 -46l-21 -46q-67 29 -129 29q-61 0 -92.5 -28t-31.5 -73t32.5 -76.5t79 -52.5
t92.5 -44t78.5 -64t32.5 -99zM248 -38q38 0 38 -38q0 -40 -25.5 -64t-77.5 -38l-14 30q50 24 50 47q0 5 -5 11.5t-5 18.5q0 33 39 33z" />
    <glyph glyph-name="scommaaccent" unicode="&#x219;" horiz-adv-x="401" 
d="M41 27l10 45q71 -21 120 -21q52 0 79 22t27 57q0 32 -24 53t-58.5 33.5t-69 27.5t-58.5 46t-24 77q0 60 44.5 98.5t117.5 38.5q61 0 118 -29l-12 -44q-49 15 -93 15q-45 0 -69 -20t-24 -51q0 -32 24.5 -53t59 -33.5t69 -27.5t59 -46t24.5 -78q0 -65 -48.5 -105
t-129.5 -40q-74 0 -142 35zM195 -38q38 0 38 -38q0 -40 -25.5 -64t-77.5 -38l-14 30q50 24 50 47q0 5 -5 11.5t-5 18.5q0 33 39 33z" />
    <glyph glyph-name="Tcommaaccent" unicode="&#x21a;" horiz-adv-x="466" 
d="M450 609h-176v-609h-83v609h-175v66h434v-66zM235 -38q38 0 38 -38q0 -40 -25.5 -64t-77.5 -38l-14 30q50 24 50 47q0 5 -5 11.5t-5 18.5q0 33 39 33z" />
    <glyph glyph-name="tcommaaccent" unicode="&#x21b;" horiz-adv-x="347" 
d="M311 69l10 -48q-61 -29 -112 -29q-63 0 -88.5 30t-25.5 103v313h-79v58h80q13 71 21 141h57v-141h134v-58h-134v-293q0 -52 12 -72t47 -20q32 0 78 16zM207 -38q38 0 38 -38q0 -40 -25.5 -64t-77.5 -38l-14 30q50 24 50 47q0 5 -5 11.5t-5 18.5q0 33 39 33z" />
    <glyph glyph-name="dotlessj" unicode="&#x237;" horiz-adv-x="248" 
d="M163 496v-457q0 -73 -22 -122.5t-75 -94.5l-48 27q66 71 66 169v478h79z" />
    <glyph glyph-name="apostrophe" unicode="&#x2bc;" horiz-adv-x="221" 
d="M50 519l-27 31q66 47 66 86q0 12 -11 24t-11 32q0 29 8.5 39t38.5 10q26 0 35 -11t9 -37q0 -60 -25 -99t-83 -75z" />
    <glyph glyph-name="circumflex" unicode="&#x2c6;" horiz-adv-x="417" 
d="M346 596l-28 -33l-110 83l-109 -83l-28 33l139 126z" />
    <glyph glyph-name="caron" unicode="&#x2c7;" horiz-adv-x="417" 
d="M346 688l-139 -126l-136 126l29 34l109 -83l109 83z" />
    <glyph glyph-name="breve" unicode="&#x2d8;" horiz-adv-x="410" 
d="M288 715h51q0 -70 -35 -107.5t-99 -37.5q-67 0 -100.5 37.5t-33.5 107.5h51q0 -83 83 -83t83 83z" />
    <glyph glyph-name="dotaccent" unicode="&#x2d9;" horiz-adv-x="242" 
d="M170 639q0 -27 -9 -35.5t-39 -8.5q-31 0 -41 8.5t-10 35.5t10 36t41 9q30 0 39 -8.5t9 -36.5z" />
    <glyph glyph-name="ring" unicode="&#x2da;" horiz-adv-x="346" 
d="M275 638q0 -42 -28.5 -66.5t-76.5 -24.5q-99 0 -99 86q0 41 29 65.5t76 24.5q99 0 99 -85zM217 634q0 46 -44 46t-44 -46q0 -44 44 -44t44 44z" />
    <glyph glyph-name="ogonek" unicode="&#x2db;" horiz-adv-x="306" 
d="M222 -115l13 -39q-34 -24 -81 -24q-83 0 -83 68q0 58 61 110h71q-64 -52 -64 -95q0 -34 36 -34q23 0 47 14z" />
    <glyph glyph-name="tilde" unicode="&#x2dc;" horiz-adv-x="473" 
d="M366 687l35 -26q-26 -44 -49 -62.5t-58 -18.5t-71.5 27.5t-51.5 27.5q-16 0 -28.5 -11t-36.5 -42l-35 26q27 44 50 62.5t58 18.5t71.5 -27.5t51.5 -27.5q16 0 28.5 11t35.5 42z" />
    <glyph glyph-name="hungarumlaut" unicode="&#x2dd;" 
d="M429 678l-145 -118l-39 27l126 131zM246 684l-135 -127l-40 26l117 139z" />
    <glyph glyph-name="uni0312" unicode="&#x312;" horiz-adv-x="272" 
d="M189 715l11 -31q-30 -10 -46 -26t-16 -30q0 -6 5 -13t5 -18q0 -33 -39 -33q-38 0 -38 39q0 42 29.5 71.5t88.5 40.5z" />
    <glyph glyph-name="uni0315" unicode="&#x315;" horiz-adv-x="242" 
d="M171 737l-56 -172l-44 8l35 177z" />
    <glyph glyph-name="uni0326" unicode="&#x326;" horiz-adv-x="259" 
d="M150 -38q38 0 38 -38q0 -40 -25.5 -64t-77.5 -38l-14 30q50 24 50 47q0 5 -5 11.5t-5 18.5q0 33 39 33z" />
    <glyph glyph-name="Delta" unicode="&#x2206;" horiz-adv-x="524" 
d="M498 0h-472v56q76 304 182 619h103q113 -329 187 -619v-56zM108 65h299q-58 242 -153 530h-2q-103 -337 -144 -530z" />
    <glyph glyph-name="Delta" unicode="&#x394;" horiz-adv-x="524" 
d="M498 0h-472v56q76 304 182 619h103q113 -329 187 -619v-56zM108 65h299q-58 242 -153 530h-2q-103 -337 -144 -530z" />
    <glyph glyph-name="Omega" unicode="&#x2126;" horiz-adv-x="651" 
d="M622 0h-234v62q114 61 114 276q0 281 -178 281q-175 0 -175 -269q0 -230 111 -288v-62h-231v59h148q-58 34 -86.5 106.5t-28.5 166.5q0 170 70.5 260.5t200.5 90.5q256 0 256 -327q0 -103 -33 -180t-92 -117h158v-59z" />
    <glyph glyph-name="Omega" unicode="&#x3a9;" horiz-adv-x="651" 
d="M622 0h-234v62q114 61 114 276q0 281 -178 281q-175 0 -175 -269q0 -230 111 -288v-62h-231v59h148q-58 34 -86.5 106.5t-28.5 166.5q0 170 70.5 260.5t200.5 90.5q256 0 256 -327q0 -103 -33 -180t-92 -117h158v-59z" />
    <glyph glyph-name="pi" unicode="&#x3c0;" horiz-adv-x="607" 
d="M568 434h-125q0 -262 9.5 -321.5t54.5 -59.5q29 0 64 13l10 -48q-54 -26 -101 -26q-80 0 -96.5 68.5t-16.5 373.5h-186q0 -208 -16 -434h-81q21 281 21 434h-89v62h552v-62z" />
    <glyph glyph-name="uni1E02" unicode="&#x1e02;" horiz-adv-x="544" 
d="M92 0v675h182q95 0 144 -43t49 -111q0 -58 -30 -97.5t-77 -56.5q63 -9 102.5 -51.5t39.5 -110.5q0 -93 -65.5 -150t-192.5 -57q-31 0 -81.5 1t-70.5 1zM174 614v-230h69q71 0 104.5 36.5t33.5 88.5q0 48 -30 76.5t-92 28.5h-85zM174 324v-259q47 -5 90 -5q75 0 112.5 37
t37.5 100q0 127 -159 127h-81zM308 779q0 -24 -9.5 -32.5t-37.5 -8.5q-30 0 -39 8t-9 33q0 26 9.5 34t38.5 8t38 -8t9 -34z" />
    <glyph glyph-name="uni1E03" unicode="&#x1e03;" horiz-adv-x="519" 
d="M84 8v701h79v-263q73 58 137 58q76 0 122 -67t46 -171q0 -139 -67 -206.5t-178 -67.5q-66 0 -139 16zM163 384v-321q33 -12 78 -12q64 0 104.5 51t40.5 149q0 86 -28.5 138t-78.5 52q-55 0 -116 -57zM173 819q0 -24 -9 -32t-39 -8t-39.5 7.5t-9.5 32.5q0 26 9.5 34
t39.5 8t39 -8t9 -34z" />
    <glyph glyph-name="uni1E0A" unicode="&#x1e0a;" horiz-adv-x="580" 
d="M92 0v675q26 0 75.5 0.5t74.5 0.5q61 0 109.5 -17t81 -46t53.5 -70.5t30 -88t9 -100.5q0 -171 -75.5 -263.5t-226.5 -92.5q-26 0 -70.5 1t-60.5 1zM175 611v-545q31 -3 65 -3q198 0 198 280q0 269 -205 269q-39 0 -58 -1zM316 779q0 -24 -9.5 -32.5t-37.5 -8.5
q-30 0 -39 8t-9 33q0 26 9.5 34t38.5 8t38 -8t9 -34z" />
    <glyph glyph-name="uni1E0B" unicode="&#x1e0b;" horiz-adv-x="519" 
d="M434 0h-64l-8 55q-77 -63 -146 -63q-74 0 -119.5 66t-45.5 171q0 140 66 207.5t169 67.5q1 0 69 -4v205h79v-705zM355 111v321q-41 13 -79 13q-64 0 -103.5 -51t-39.5 -150q0 -88 28.5 -139t78.5 -51t115 57zM443 819q0 -24 -9 -32t-39 -8t-39.5 7.5t-9.5 32.5
q0 26 9.5 34t39.5 8t39 -8t9 -34z" />
    <glyph glyph-name="uni1E1E" unicode="&#x1e1e;" horiz-adv-x="451" 
d="M406 610h-231v-236h211v-64h-211v-310h-83v675h314v-65zM303 779q0 -24 -9.5 -32.5t-37.5 -8.5q-30 0 -39 8t-9 33q0 26 9.5 34t38.5 8t38 -8t9 -34z" />
    <glyph glyph-name="uni1E1F" unicode="&#x1e1f;" horiz-adv-x="295" 
d="M327 686l-15 -47q-39 17 -68 17q-37 0 -53 -20t-16 -62v-78h109v-58h-109v-438h-79v438h-80v58h80v71q0 69 31 107t95 38q55 0 105 -26zM256 819q0 -24 -9 -32t-39 -8t-39.5 7.5t-9.5 32.5q0 26 9.5 34t39.5 8t39 -8t9 -34z" />
    <glyph glyph-name="uni1E40" unicode="&#x1e40;" horiz-adv-x="840" 
d="M761 0h-88q-6 318 -36 574h-2l-189 -574h-66l-191 574h-1q-22 -238 -27 -574h-81q8 350 50 675h108l182 -539h1l181 539h105q45 -348 54 -675zM468 779q0 -24 -9.5 -32.5t-37.5 -8.5q-30 0 -39 8t-9 33q0 26 9.5 34t38.5 8t38 -8t9 -34z" />
    <glyph glyph-name="uni1E41" unicode="&#x1e41;" horiz-adv-x="814" 
d="M731 0h-79q0 48 1.5 140.5t1.5 124.5q0 93 -21 134t-64 41q-55 0 -130 -66q8 -40 8 -88v-286h-79v265q0 93 -20.5 134t-63.5 41q-51 0 -122 -59v-381h-79v496h65l7 -59q83 67 152 67q82 0 117 -79q94 79 168 79q141 0 141 -220q0 -30 -1.5 -130t-1.5 -154zM456 639
q0 -27 -9 -35.5t-39 -8.5q-31 0 -41 8.5t-10 35.5t10 36t41 9q30 0 39 -8.5t9 -36.5z" />
    <glyph glyph-name="uni1E56" unicode="&#x1e56;" horiz-adv-x="515" 
d="M175 0h-83v675q19 0 67 0.5t84 0.5q244 0 244 -202q0 -101 -66.5 -163t-206.5 -62h-39v-249zM175 613v-300h55q85 0 127 40t42 111q0 74 -39 111.5t-129 37.5h-56zM305 779q0 -24 -9.5 -32.5t-37.5 -8.5q-30 0 -39 8t-9 33q0 26 9.5 34t38.5 8t38 -8t9 -34z" />
    <glyph glyph-name="uni1E57" unicode="&#x1e57;" horiz-adv-x="519" 
d="M163 -173h-79v669h64l8 -56q76 64 144 64q77 0 122.5 -66t45.5 -171q0 -138 -66 -206.5t-174 -68.5q-42 0 -65 3v-168zM163 384v-320q35 -13 78 -13q65 0 105 50.5t40 149.5q0 86 -28.5 138t-78.5 52q-53 0 -116 -57zM309 639q0 -27 -9 -35.5t-39 -8.5q-31 0 -41 8.5
t-10 35.5t10 36t41 9q30 0 39 -8.5t9 -36.5z" />
    <glyph glyph-name="uni1E60" unicode="&#x1e60;" horiz-adv-x="496" 
d="M457 183q0 -84 -60 -137.5t-159 -53.5q-95 0 -187 56l21 46q87 -38 153 -38q65 0 103 30.5t38 86.5q0 44 -32 75.5t-77.5 52t-91.5 43.5t-78 64t-32 100q0 78 55.5 126.5t143.5 48.5q89 0 162 -46l-21 -46q-67 29 -129 29q-61 0 -92.5 -28t-31.5 -73t32.5 -76.5t79 -52.5
t92.5 -44t78.5 -64t32.5 -99zM296 782q0 -24 -9.5 -32.5t-37.5 -8.5q-30 0 -39 8t-9 33q0 26 9.5 34t38.5 8t38 -8t9 -34z" />
    <glyph glyph-name="uni1E61" unicode="&#x1e61;" horiz-adv-x="401" 
d="M41 27l10 45q71 -21 120 -21q52 0 79 22t27 57q0 32 -24 53t-58.5 33.5t-69 27.5t-58.5 46t-24 77q0 60 44.5 98.5t117.5 38.5q61 0 118 -29l-12 -44q-49 15 -93 15q-45 0 -69 -20t-24 -51q0 -32 24.5 -53t59 -33.5t69 -27.5t59 -46t24.5 -78q0 -65 -48.5 -105
t-129.5 -40q-74 0 -142 35zM249 641q0 -27 -9 -35.5t-39 -8.5q-31 0 -41 8.5t-10 35.5t10 36t41 9q30 0 39 -8.5t9 -36.5z" />
    <glyph glyph-name="uni1E6A" unicode="&#x1e6a;" horiz-adv-x="466" 
d="M450 609h-176v-609h-83v609h-175v66h434v-66zM281 779q0 -24 -9.5 -32.5t-37.5 -8.5q-30 0 -39 8t-9 33q0 26 9.5 34t38.5 8t38 -8t9 -34z" />
    <glyph glyph-name="uni1E6B" unicode="&#x1e6b;" horiz-adv-x="347" 
d="M311 69l10 -48q-61 -29 -112 -29q-63 0 -88.5 30t-25.5 103v313h-79v58h80q13 71 21 141h57v-141h134v-58h-134v-293q0 -52 12 -72t47 -20q32 0 78 16zM198 745q0 -27 -9 -35.5t-39 -8.5q-31 0 -41 8.5t-10 35.5t10 36t41 9q30 0 39 -8.5t9 -36.5z" />
    <glyph glyph-name="Wgrave" unicode="&#x1e80;" horiz-adv-x="851" 
d="M747 675h82q-83 -370 -181 -675h-91l-113 439l-21 95h-1l-20 -98l-104 -436h-93q-103 313 -182 675h89q42 -197 145 -570h2l14 69l119 501h76l125 -491l18 -79h1q83 310 135 570zM485 766l-25 -38l-181 70l38 56z" />
    <glyph glyph-name="wgrave" unicode="&#x1e81;" horiz-adv-x="730" 
d="M620 496h80q-42 -238 -143 -496h-86l-97 333l-14 64h-1l-13 -65l-85 -332h-90l-146 496h85l89 -316l23 -92h2l16 78l82 330h85l98 -339l16 -69h2q70 227 97 408zM418 586l-40 -26l-147 121l59 39z" />
    <glyph glyph-name="Wacute" unicode="&#x1e82;" horiz-adv-x="851" 
d="M747 675h82q-83 -370 -181 -675h-91l-113 439l-21 95h-1l-20 -98l-104 -436h-93q-103 313 -182 675h89q42 -197 145 -570h2l14 69l119 501h76l125 -491l18 -79h1q83 310 135 570zM373 766l168 88l38 -56l-181 -70z" />
    <glyph glyph-name="wacute" unicode="&#x1e83;" horiz-adv-x="730" 
d="M620 496h80q-42 -238 -143 -496h-86l-97 333l-14 64h-1l-13 -65l-85 -332h-90l-146 496h85l89 -316l23 -92h2l16 78l82 330h85l98 -339l16 -69h2q70 227 97 408zM493 681l-146 -121l-41 26l128 134z" />
    <glyph glyph-name="Wdieresis" unicode="&#x1e84;" horiz-adv-x="851" 
d="M747 675h82q-83 -370 -181 -675h-91l-113 439l-21 95h-1l-20 -98l-104 -436h-93q-103 313 -182 675h89q42 -197 145 -570h2l14 69l119 501h76l125 -491l18 -79h1q83 310 135 570zM574 778q0 -23 -9 -31.5t-34 -8.5q-27 0 -35.5 8t-8.5 32t8.5 32.5t35.5 8.5q26 0 34.5 -8
t8.5 -33zM375 778q0 -24 -8.5 -32t-34.5 -8t-35 8t-9 32t9 32.5t35 8.5t34.5 -8t8.5 -33z" />
    <glyph glyph-name="wdieresis" unicode="&#x1e85;" horiz-adv-x="730" 
d="M620 496h80q-42 -238 -143 -496h-86l-97 333l-14 64h-1l-13 -65l-85 -332h-90l-146 496h85l89 -316l23 -92h2l16 78l82 330h85l98 -339l16 -69h2q70 227 97 408zM505 638q0 -24 -8.5 -32.5t-34.5 -8.5t-34.5 8t-8.5 33q0 26 8.5 34.5t34.5 8.5t34.5 -8.5t8.5 -34.5z
M312 638q0 -24 -8 -32.5t-34 -8.5t-35 8t-9 33q0 26 9 34.5t35 8.5t34 -8.5t8 -34.5z" />
    <glyph glyph-name="Ygrave" unicode="&#x1ef2;" horiz-adv-x="483" 
d="M397 675h87q-108 -240 -201 -381v-294h-83v294q-106 166 -201 381h93q86 -192 156 -307h1q74 121 148 307zM298 766l-25 -38l-181 70l38 56z" />
    <glyph glyph-name="ygrave" unicode="&#x1ef3;" horiz-adv-x="461" 
d="M350 496h84q-35 -166 -75 -290.5t-76.5 -196t-77 -115t-73 -57.5t-67.5 -14q-24 0 -61 13v48q18 -2 42 -2q52 0 86 31q42 41 42 89q0 45 -38 152l-117 342h86l95 -284q33 -96 31 -161h2q33 79 66 204t51 241zM284 586l-40 -26l-147 121l59 39z" />
    <glyph glyph-name="endash" unicode="&#x2013;" 
d="M455 267h-410v61h410v-61z" />
    <glyph glyph-name="emdash" unicode="&#x2014;" horiz-adv-x="1000" 
d="M850 267h-701v61h701v-61z" />
    <glyph glyph-name="uni2015" unicode="&#x2015;" horiz-adv-x="1000" 
d="M850 267h-701v61h701v-61z" />
    <glyph glyph-name="quoteleft" unicode="&#x2018;" horiz-adv-x="270" 
d="M190 776l31 -34q-70 -49 -70 -91q0 -13 12.5 -26t12.5 -35q0 -32 -10 -43t-43 -11q-30 0 -39.5 11.5t-9.5 41.5q0 63 27 105.5t89 81.5z" />
    <glyph glyph-name="quoteright" unicode="&#x2019;" horiz-adv-x="278" 
d="M88 510l-31 34q70 49 70 91q0 13 -12.5 26t-12.5 35q0 32 10 43t43 11q29 0 39 -12t10 -41q0 -63 -27 -106t-89 -81z" />
    <glyph glyph-name="quotesinglbase" unicode="&#x201a;" horiz-adv-x="304" 
d="M89 -147l-32 35q70 49 70 91q0 13 -12 26t-12 34q0 33 9.5 44t42.5 11q30 0 39.5 -12t9.5 -42q0 -63 -26.5 -105.5t-88.5 -81.5z" />
    <glyph glyph-name="quotedblleft" unicode="&#x201c;" horiz-adv-x="450" 
d="M371 773l30 -33q-68 -49 -68 -90q0 -13 11.5 -26t11.5 -34q0 -31 -9.5 -42t-40.5 -11q-28 0 -37.5 11.5t-9.5 40.5q0 62 26 104t86 80zM189 775l29 -33q-71 -52 -71 -92q0 -13 12 -26t12 -34q0 -31 -9.5 -42t-41.5 -11q-28 0 -37 11.5t-9 40.5q0 62 26.5 104.5t88.5 81.5
z" />
    <glyph glyph-name="quotedblright" unicode="&#x201d;" horiz-adv-x="458" 
d="M269 510l-30 34q71 49 71 92q0 13 -11.5 25.5t-11.5 33.5q0 32 9.5 42.5t40.5 10.5q29 0 38 -11.5t9 -40.5q0 -62 -26.5 -104.5t-88.5 -81.5zM86 512l-29 34q68 47 68 90q0 13 -11.5 25.5t-11.5 33.5q0 32 9.5 42.5t40.5 10.5q28 0 37 -11.5t9 -40.5q0 -62 -26 -104
t-86 -80z" />
    <glyph glyph-name="quotedblbase" unicode="&#x201e;" horiz-adv-x="484" 
d="M270 -146l-30 33q71 51 71 92q0 13 -11.5 26t-11.5 34q0 31 9.5 42t40.5 11q28 0 37.5 -11.5t9.5 -40.5q0 -62 -26.5 -104t-88.5 -82zM87 -144l-30 34q69 48 69 89q0 13 -12 26t-12 34q0 31 9.5 42t41.5 11q28 0 37 -11.5t9 -40.5q0 -62 -26 -104t-86 -80z" />
    <glyph glyph-name="dagger" unicode="&#x2020;" horiz-adv-x="374" 
d="M335 517h-110v-311h-76v311h-110v55h110v137h76v-137h110v-55z" />
    <glyph glyph-name="daggerdbl" unicode="&#x2021;" horiz-adv-x="374" 
d="M335 145h-110v-145h-75v145h-111v55h111v312h-111v55h111v142h75v-142h110v-55h-110v-312h110v-55z" />
    <glyph glyph-name="bullet" unicode="&#x2022;" 
d="M383 305q0 -55 -39 -93.5t-94 -38.5t-94 38.5t-39 93.5t39 94t94 39t94 -39t39 -94z" />
    <glyph glyph-name="ellipsis" unicode="&#x2026;" horiz-adv-x="777" 
d="M656 43q0 -30 -9.5 -40t-40.5 -10t-41 10t-10 39q0 31 10.5 41t41.5 10q30 0 39.5 -10t9.5 -40zM430 43q0 -30 -9.5 -40t-40.5 -10t-41 10t-10 39q0 31 10.5 41t41.5 10q30 0 39.5 -10t9.5 -40zM204 43q0 -30 -9.5 -40t-40.5 -10t-41 10t-10 39q0 31 10 41t41 10
t40.5 -10t9.5 -40z" />
    <glyph glyph-name="perthousand" unicode="&#x2030;" horiz-adv-x="1021" 
d="M333 526q0 -70 -36.5 -113.5t-102.5 -43.5q-133 0 -133 155q0 72 37 115.5t103 43.5q132 0 132 -157zM267 523q0 112 -70 112t-70 -108q0 -110 70 -110t70 106zM611 664l-484 -681l-45 28l485 681zM633 149q0 -70 -36.5 -113.5t-103.5 -43.5q-132 0 -132 155
q0 72 37 115.5t103 43.5q69 0 100.5 -43t31.5 -114zM567 146q0 112 -71 112q-69 0 -69 -108q0 -110 70 -110t70 106zM960 149q0 -70 -36.5 -113.5t-103.5 -43.5q-132 0 -132 155q0 73 37 116t103 43q69 0 100.5 -43t31.5 -114zM894 146q0 112 -71 112q-70 0 -70 -108
q0 -110 71 -110q70 0 70 106z" />
    <glyph glyph-name="guilsinglleft" unicode="&#x2039;" horiz-adv-x="303" 
d="M228 123l-53 -20l-123 192l123 192l53 -21l-93 -171z" />
    <glyph glyph-name="guilsinglright" unicode="&#x203a;" horiz-adv-x="304" 
d="M76 467l52 20l124 -192l-124 -192l-52 21l92 171z" />
    <glyph glyph-name="exclamdbl" unicode="&#x203c;" horiz-adv-x="650" 
d="M245 149h-66l-15 526h97zM264 43q0 -29 -10.5 -39.5t-42.5 -10.5q-31 0 -42 10.5t-11 37.5q0 29 11 39.5t43 10.5q31 0 41.5 -10t10.5 -38zM528 149h-66l-15 526h97zM547 43q0 -29 -10.5 -39.5t-42.5 -10.5q-31 0 -42 10.5t-11 37.5q0 29 11 39.5t43 10.5q31 0 41.5 -10
t10.5 -38z" />
    <glyph glyph-name="fraction" unicode="&#x2044;" horiz-adv-x="74" 
d="M-264 -43l571 773l46 -25l-571 -774z" />
    <glyph glyph-name="zero.superior" unicode="&#x2070;" horiz-adv-x="374" 
d="M331 548q0 -96 -40 -143.5t-110 -47.5q-143 0 -143 182q0 96 39.5 143t110.5 48q69 0 106 -42t37 -140zM259 541q0 80 -18 110t-57 30t-56.5 -31t-17.5 -104q0 -79 18 -110t56 -31q40 0 57.5 31.5t17.5 104.5z" />
    <glyph glyph-name="four.superior" unicode="&#x2074;" horiz-adv-x="351" 
d="M329 442h-55v-78h-68v78h-179v48q67 123 151 233h96v-230h55v-51zM206 493v187h-1q-59 -75 -123 -187h124z" />
    <glyph glyph-name="five.superior" unicode="&#x2075;" horiz-adv-x="346" 
d="M277 670h-147l-8 -99q25 5 56 5q129 0 129 -99q0 -57 -40 -88.5t-106 -31.5q-55 0 -121 21l5 37q64 -11 102 -11q88 0 88 67q0 32 -21.5 47t-67.5 15q-36 0 -89 -8l16 198h204v-53z" />
    <glyph glyph-name="six.superior" unicode="&#x2076;" horiz-adv-x="363" 
d="M314 711l-7 -37q-62 10 -92 10q-51 0 -72.5 -28.5t-24.5 -102.5q52 26 98 26q55 0 83.5 -26t28.5 -72q0 -57 -39 -90.5t-99 -33.5q-68 0 -104 38.5t-36 135.5q0 199 157 199q49 0 107 -19zM258 474q0 62 -66 62q-32 0 -73 -19q0 -61 17 -88t56 -27q66 0 66 72z" />
    <glyph glyph-name="seven.superior" unicode="&#x2077;" horiz-adv-x="336" 
d="M305 673l-86 -152q-66 -114 -108 -165l-49 15l166 297h-193v55h270v-50z" />
    <glyph glyph-name="eight.superior" unicode="&#x2078;" horiz-adv-x="366" 
d="M38 447q0 58 84 95q-74 35 -74 93q0 43 36 69t103 26q64 0 98 -23.5t34 -61.5q0 -57 -80 -94q42 -17 65.5 -38.5t23.5 -57.5q0 -45 -38 -72t-113 -27q-69 0 -104 25t-35 66zM259 449q0 25 -22 40.5t-66 32.5q-64 -30 -64 -70q0 -53 79 -53q35 0 54 13.5t19 36.5zM117 639
q0 -41 71 -68q62 28 62 68q0 48 -69 48q-64 0 -64 -48z" />
    <glyph glyph-name="nine.superior" unicode="&#x2079;" horiz-adv-x="362" 
d="M44 377l8 37q57 -11 99 -11q51 0 72.5 28.5t24.5 102.5q-49 -26 -98 -26q-55 0 -83.5 26t-28.5 72q0 57 39 90.5t99 33.5q68 0 104 -39t36 -135q0 -199 -157 -199q-54 0 -115 20zM247 570q0 60 -17 87.5t-56 27.5q-66 0 -66 -72q0 -62 66 -62q35 0 73 19z" />
    <glyph glyph-name="uni207A" unicode="&#x207a;" horiz-adv-x="327" 
d="M289 517h-96v-99h-59v99h-96v51h96v100h59v-100h96v-51z" />
    <glyph glyph-name="uni207B" unicode="&#x207b;" horiz-adv-x="327" 
d="M289 517h-251v52h251v-52z" />
    <glyph glyph-name="uni207C" unicode="&#x207c;" horiz-adv-x="327" 
d="M287 573h-247v49h247v-49zM287 464h-247v49h247v-49z" />
    <glyph glyph-name="parenleft.superior" unicode="&#x207d;" horiz-adv-x="194" 
d="M172 294l-46 -13q-78 113 -78 267q0 156 78 273l46 -15q-56 -121 -56 -255q0 -129 56 -257z" />
    <glyph glyph-name="parenright.superior" unicode="&#x207e;" horiz-adv-x="194" 
d="M68 281l-46 13q56 121 56 255q0 131 -56 257l46 15q78 -115 78 -267q0 -158 -78 -273z" />
    <glyph glyph-name="nsuperior" unicode="&#x207f;" horiz-adv-x="377" 
d="M322 544q0 -20 -0.5 -83t-0.5 -97h-67q0 31 0.5 89.5t0.5 79.5q0 54 -13 76t-41 22q-39 0 -77 -32v-235h-67v310h55l5 -35q51 41 105 41q100 0 100 -136z" />
    <glyph glyph-name="zero.inferior" unicode="&#x2080;" horiz-adv-x="374" 
d="M331 126q0 -96 -40 -143.5t-110 -47.5q-143 0 -143 182q0 96 39.5 143t110.5 48q69 0 106 -42t37 -140zM259 119q0 80 -18 110t-57 30t-56.5 -31t-17.5 -104q0 -79 18 -110t56 -31q40 0 57.5 31.5t17.5 104.5z" />
    <glyph glyph-name="one.inferior" unicode="&#x2081;" horiz-adv-x="336" 
d="M296 -58h-245v51h92v249l-81 -24l-12 40l109 45h54v-310h83v-51z" />
    <glyph glyph-name="two.inferior" unicode="&#x2082;" horiz-adv-x="343" 
d="M304 -58h-262v49q109 89 144 129.5t35 79.5q0 57 -68 57q-30 0 -96 -17l-10 42q68 26 124 26q53 0 87.5 -25.5t34.5 -75.5q0 -47 -38.5 -95t-132.5 -116h182v-54z" />
    <glyph glyph-name="three.inferior" unicode="&#x2083;" horiz-adv-x="344" 
d="M38 -44l6 38q64 -12 104 -12q90 0 90 62t-89 62h-54v46h54q76 0 76 57q0 51 -72 51q-41 0 -91 -13l-10 40q59 21 114 21q66 0 98 -25t32 -66q0 -62 -68 -83q40 -7 60.5 -30t20.5 -56q0 -55 -41 -84t-110 -29q-53 0 -120 21z" />
    <glyph glyph-name="four.inferior" unicode="&#x2084;" horiz-adv-x="351" 
d="M329 20h-55v-78h-68v78h-179v48q67 123 151 233h96v-230h55v-51zM206 71v187h-1q-59 -75 -123 -187h124z" />
    <glyph glyph-name="five.inferior" unicode="&#x2085;" horiz-adv-x="346" 
d="M277 248h-147l-8 -99q25 5 56 5q129 0 129 -99q0 -57 -40 -88.5t-106 -31.5q-55 0 -121 21l5 37q64 -11 102 -11q88 0 88 67q0 32 -21.5 47t-67.5 15q-36 0 -89 -8l16 198h204v-53z" />
    <glyph glyph-name="six.inferior" unicode="&#x2086;" horiz-adv-x="363" 
d="M314 289l-7 -37q-62 10 -92 10q-51 0 -72.5 -28.5t-24.5 -102.5q52 26 98 26q55 0 83.5 -26t28.5 -72q0 -57 -39 -90.5t-99 -33.5q-68 0 -104 38.5t-36 135.5q0 199 157 199q49 0 107 -19zM258 52q0 62 -66 62q-32 0 -73 -19q0 -61 17 -88t56 -27q66 0 66 72z" />
    <glyph glyph-name="seven.inferior" unicode="&#x2087;" horiz-adv-x="336" 
d="M305 251l-86 -152q-66 -114 -108 -165l-49 15l166 297h-193v55h270v-50z" />
    <glyph glyph-name="eight.inferior" unicode="&#x2088;" horiz-adv-x="366" 
d="M38 25q0 58 84 95q-74 35 -74 93q0 43 36 69t103 26q64 0 98 -23.5t34 -61.5q0 -57 -80 -94q42 -17 65.5 -38.5t23.5 -57.5q0 -45 -38 -72t-113 -27q-69 0 -104 25t-35 66zM259 27q0 25 -22 40.5t-66 32.5q-64 -30 -64 -70q0 -53 79 -53q35 0 54 13.5t19 36.5zM117 217
q0 -41 71 -68q62 28 62 68q0 48 -69 48q-64 0 -64 -48z" />
    <glyph glyph-name="nine.inferior" unicode="&#x2089;" horiz-adv-x="362" 
d="M44 -45l8 37q57 -11 99 -11q51 0 72.5 28.5t24.5 102.5q-49 -26 -98 -26q-55 0 -83.5 26t-28.5 72q0 57 39 90.5t99 33.5q68 0 104 -39t36 -135q0 -199 -157 -199q-54 0 -115 20zM247 148q0 60 -17 87.5t-56 27.5q-66 0 -66 -72q0 -62 66 -62q35 0 73 19z" />
    <glyph glyph-name="uni208A" unicode="&#x208a;" horiz-adv-x="327" 
d="M289 95h-96v-99h-59v99h-96v51h96v100h59v-100h96v-51z" />
    <glyph glyph-name="uni208B" unicode="&#x208b;" horiz-adv-x="327" 
d="M289 95h-251v52h251v-52z" />
    <glyph glyph-name="uni208C" unicode="&#x208c;" horiz-adv-x="327" 
d="M287 151h-247v49h247v-49zM287 42h-247v49h247v-49z" />
    <glyph glyph-name="parenleft.inferior" unicode="&#x208d;" horiz-adv-x="194" 
d="M172 -128l-46 -13q-78 113 -78 267q0 156 78 273l46 -15q-56 -121 -56 -255q0 -129 56 -257z" />
    <glyph glyph-name="parenright.inferior" unicode="&#x208e;" horiz-adv-x="194" 
d="M68 -141l-46 13q56 121 56 255q0 131 -56 257l46 15q78 -115 78 -267q0 -158 -78 -273z" />
    <glyph glyph-name="Euro" unicode="&#x20ac;" 
d="M148 436h189v-53h-195q-2 -26 -2 -40q0 -31 2 -47h195v-53h-189q11 -92 51 -140t107 -48q76 0 139 71l34 -40q-78 -94 -189 -94q-96 0 -155.5 64t-72.5 187h-59v53h55q-1 11 -1 34q0 19 2 53h-56v53h62q17 115 80.5 181t152.5 66q118 0 170 -105l-37 -34q-47 76 -127 76
q-66 0 -106 -52t-50 -132z" />
    <glyph glyph-name="uni2117" unicode="&#x2117;" horiz-adv-x="774" 
d="M347 150h-65v367q15 0 57.5 0.5t55.5 0.5q148 0 148 -114q0 -64 -44.5 -95.5t-113.5 -31.5h-38v-127zM347 470v-144h43q86 0 86 72q0 39 -20.5 55.5t-65.5 16.5h-43zM729 343q0 -146 -98.5 -249.5t-247.5 -103.5q-144 0 -241.5 98.5t-97.5 242.5q0 145 99 249t249 104
q143 0 240 -98.5t97 -242.5zM668 341q0 124 -81 208t-197 84q-122 0 -203 -87.5t-81 -212.5q0 -124 80.5 -208t197.5 -84q121 0 202.5 87.5t81.5 212.5z" />
    <glyph glyph-name="servicemark" unicode="&#x2120;" horiz-adv-x="436" 
d="M390 509h-41q0 76 -3 118h-2l-38 -118h-45l-37 118h-1q-4 -86 -4 -118h-38q3 89 13 166h56l37 -119h1l37 119h54q9 -73 11 -166zM144 668l-8 -24q-16 7 -35 7q-27 0 -27 -17q0 -3 0.5 -5.5t2.5 -4l4 -3t6 -3t6.5 -2.5t8 -3t9.5 -3q13 -5 21 -9.5t15 -14.5t7 -25
q0 -24 -19.5 -39.5t-53.5 -15.5q-30 0 -56 13l9 24q19 -8 41 -8q32 0 32 20q0 7 -4.5 11t-18.5 8.5t-18 6.5q-18 8 -27 17.5t-9 28.5q0 25 17.5 38.5t47.5 13.5q25 0 49 -11z" />
    <glyph glyph-name="trademark" unicode="&#x2122;" horiz-adv-x="410" 
d="M364 509h-41q0 76 -4 118h-1l-38 -118h-45l-37 118h-1q-4 -86 -4 -118h-39q5 98 14 166h56l36 -119h1l38 119h54q7 -68 11 -166zM140 642h-36v-133h-42v133h-37v33h115v-33z" />
    <glyph glyph-name="uni2139" unicode="&#x2139;" horiz-adv-x="360" 
d="M241 506q0 -31 -10.5 -41.5t-44.5 -10.5q-35 0 -45.5 10t-10.5 42t10.5 41.5t45.5 9.5t45 -9.5t10 -41.5zM339 0h-318v58h126v258h-116v58h199v-316h109v-58z" />
    <glyph glyph-name="onethird" unicode="&#x2153;" horiz-adv-x="744" 
d="M296 364h-245v51h92v249l-81 -24l-12 40l109 45h54v-310h83v-51zM72 -43l571 773l46 -25l-571 -774zM438 -44l6 38q65 -12 104 -12q90 0 90 62t-89 62h-54v46h54q76 0 76 57q0 51 -72 51q-41 0 -91 -13l-10 40q59 21 114 21q66 0 98 -25t32 -66q0 -62 -68 -83
q40 -7 60.5 -30t20.5 -56q0 -55 -41 -84t-110 -29q-53 0 -120 21z" />
    <glyph glyph-name="twothirds" unicode="&#x2154;" horiz-adv-x="752" 
d="M304 364h-262v49q109 89 144 129.5t35 79.5q0 57 -68 57q-30 0 -96 -17l-10 42q68 26 124 26q53 0 87.5 -25.5t34.5 -75.5q0 -47 -38.5 -95t-132.5 -116h182v-54zM80 -43l571 773l46 -25l-571 -774zM445 -44l6 38q65 -12 104 -12q90 0 90 62t-89 62h-54v46h54q76 0 76 57
q0 51 -72 51q-41 0 -91 -13l-10 40q59 21 114 21q66 0 98 -25t32 -66q0 -62 -68 -83q40 -7 60.5 -30t20.5 -56q0 -55 -41 -84t-110 -29q-53 0 -120 21z" />
    <glyph glyph-name="onefifth" unicode="&#x2155;" horiz-adv-x="739" 
d="M296 364h-245v51h92v249l-81 -24l-12 40l109 45h54v-310h83v-51zM72 -43l571 773l46 -25l-571 -774zM670 248h-147l-8 -99q25 5 56 5q129 0 129 -99q0 -57 -40 -88.5t-106 -31.5q-55 0 -121 21l5 37q64 -11 102 -11q88 0 88 67q0 32 -21.5 47t-67.5 15q-36 0 -89 -8
l16 198h204v-53z" />
    <glyph glyph-name="twofifths" unicode="&#x2156;" horiz-adv-x="747" 
d="M304 364h-262v49q109 89 144 129.5t35 79.5q0 57 -68 57q-30 0 -96 -17l-10 42q68 26 124 26q53 0 87.5 -25.5t34.5 -75.5q0 -47 -38.5 -95t-132.5 -116h182v-54zM80 -43l571 773l46 -25l-571 -774zM678 248h-147l-8 -99q25 5 56 5q129 0 129 -99q0 -57 -40 -88.5
t-106 -31.5q-55 0 -121 21l5 37q64 -11 102 -11q88 0 88 67q0 32 -21.5 47t-67.5 15q-36 0 -89 -8l16 198h204v-53z" />
    <glyph glyph-name="threefifths" unicode="&#x2157;" horiz-adv-x="749" 
d="M38 378l6 38q65 -12 104 -12q90 0 90 62t-89 62h-54v46h54q76 0 76 57q0 51 -72 51q-41 0 -91 -13l-10 40q59 21 114 21q66 0 98 -25t32 -66q0 -62 -68 -83q40 -7 60.5 -30t20.5 -56q0 -55 -41 -84t-110 -29q-53 0 -120 21zM82 -43l571 773l46 -25l-571 -774zM680 248
h-147l-8 -99q25 5 56 5q129 0 129 -99q0 -57 -40 -88.5t-106 -31.5q-55 0 -121 21l5 37q64 -11 102 -11q88 0 88 67q0 32 -21.5 47t-67.5 15q-36 0 -89 -8l16 198h204v-53z" />
    <glyph glyph-name="fourfifths" unicode="&#x2158;" horiz-adv-x="739" 
d="M329 442h-55v-78h-68v78h-179v48q67 123 151 233h96v-230h55v-51zM206 493v187h-1q-59 -75 -123 -187h124zM72 -43l571 773l46 -25l-571 -774zM670 248h-147l-8 -99q25 5 56 5q129 0 129 -99q0 -57 -40 -88.5t-106 -31.5q-55 0 -121 21l5 37q64 -11 102 -11q88 0 88 67
q0 32 -21.5 47t-67.5 15q-36 0 -89 -8l16 198h204v-53z" />
    <glyph glyph-name="onesixth" unicode="&#x2159;" horiz-adv-x="755" 
d="M72 -43l571 773l46 -25l-571 -774zM707 289l-7 -37q-62 10 -92 10q-51 0 -72.5 -28.5t-24.5 -102.5q52 26 98 26q55 0 83.5 -26t28.5 -72q0 -57 -39 -90.5t-99 -33.5q-68 0 -104 38.5t-36 135.5q0 199 157 199q49 0 107 -19zM651 52q0 62 -66 62q-32 0 -73 -19
q0 -61 17 -88t56 -27q66 0 66 72zM296 364h-245v51h92v249l-81 -24l-12 40l109 45h54v-310h83v-51z" />
    <glyph glyph-name="fivesixths" unicode="&#x215a;" horiz-adv-x="762" 
d="M79 -43l571 773l46 -25l-571 -774zM714 289l-7 -37q-62 10 -92 10q-51 0 -72.5 -28.5t-24.5 -102.5q52 26 98 26q55 0 83.5 -26t28.5 -72q0 -57 -39 -90.5t-99 -33.5q-68 0 -104 38.5t-36 135.5q0 199 157 199q49 0 107 -19zM658 52q0 62 -66 62q-32 0 -73 -19
q0 -61 17 -88t56 -27q66 0 66 72zM277 670h-147l-8 -99q25 5 56 5q129 0 129 -99q0 -57 -40 -88.5t-106 -31.5q-55 0 -121 21l5 37q64 -11 102 -11q88 0 88 67q0 32 -21.5 47t-67.5 15q-36 0 -89 -8l16 198h204v-53z" />
    <glyph glyph-name="oneeighth" unicode="&#x215b;" horiz-adv-x="784" 
d="M72 -43l571 773l46 -25l-571 -774zM456 25q0 58 84 95q-74 35 -74 93q0 43 36 69t103 26q64 0 98 -23.5t34 -61.5q0 -57 -80 -94q42 -17 65.5 -38.5t23.5 -57.5q0 -45 -38 -72t-113 -27q-69 0 -104 25t-35 66zM677 27q0 25 -22 40.5t-66 32.5q-64 -30 -64 -70
q0 -53 79 -53q35 0 54 13.5t19 36.5zM535 217q0 -41 71 -68q62 28 62 68q0 48 -69 48q-64 0 -64 -48zM296 364h-245v51h92v249l-81 -24l-12 40l109 45h54v-310h83v-51z" />
    <glyph glyph-name="threeeighths" unicode="&#x215c;" horiz-adv-x="794" 
d="M38 378l6 38q65 -12 104 -12q90 0 90 62t-89 62h-54v46h54q76 0 76 57q0 51 -72 51q-41 0 -91 -13l-10 40q59 21 114 21q66 0 98 -25t32 -66q0 -62 -68 -83q40 -7 60.5 -30t20.5 -56q0 -55 -41 -84t-110 -29q-53 0 -120 21zM82 -43l571 773l46 -25l-571 -774zM466 25
q0 58 84 95q-74 35 -74 93q0 43 36 69t103 26q64 0 98 -23.5t34 -61.5q0 -57 -80 -94q42 -17 65.5 -38.5t23.5 -57.5q0 -45 -38 -72t-113 -27q-69 0 -104 25t-35 66zM687 27q0 25 -22 40.5t-66 32.5q-64 -30 -64 -70q0 -53 79 -53q35 0 54 13.5t19 36.5zM545 217
q0 -41 71 -68q62 28 62 68q0 48 -69 48q-64 0 -64 -48z" />
    <glyph glyph-name="fiveeighths" unicode="&#x215d;" horiz-adv-x="791" 
d="M79 -43l571 773l46 -25l-571 -774zM463 25q0 58 84 95q-74 35 -74 93q0 43 36 69t103 26q64 0 98 -23.5t34 -61.5q0 -57 -80 -94q42 -17 65.5 -38.5t23.5 -57.5q0 -45 -38 -72t-113 -27q-69 0 -104 25t-35 66zM684 27q0 25 -22 40.5t-66 32.5q-64 -30 -64 -70
q0 -53 79 -53q35 0 54 13.5t19 36.5zM542 217q0 -41 71 -68q62 28 62 68q0 48 -69 48q-64 0 -64 -48zM277 670h-147l-8 -99q25 5 56 5q129 0 129 -99q0 -57 -40 -88.5t-106 -31.5q-55 0 -121 21l5 37q64 -11 102 -11q88 0 88 67q0 32 -21.5 47t-67.5 15q-36 0 -89 -8l16 198
h204v-53z" />
    <glyph glyph-name="seveneighths" unicode="&#x215e;" horiz-adv-x="747" 
d="M35 -43l571 773l46 -25l-571 -774zM419 25q0 58 84 95q-74 35 -74 93q0 43 36 69t103 26q64 0 98 -23.5t34 -61.5q0 -57 -80 -94q42 -17 65.5 -38.5t23.5 -57.5q0 -45 -38 -72t-113 -27q-69 0 -104 25t-35 66zM640 27q0 25 -22 40.5t-66 32.5q-64 -30 -64 -70
q0 -53 79 -53q35 0 54 13.5t19 36.5zM498 217q0 -41 71 -68q62 28 62 68q0 48 -69 48q-64 0 -64 -48zM352 673l-86 -152q-66 -114 -108 -165l-49 15l166 297h-193v55h270v-50z" />
    <glyph glyph-name="uni2160" unicode="&#x2160;" horiz-adv-x="385" 
d="M329 0h-273v66h95v543h-95v66h273v-66h-95v-543h95v-66z" />
    <glyph glyph-name="uni2161" unicode="&#x2161;" horiz-adv-x="770" 
d="M329 0h-273v66h95v543h-95v66h273v-66h-95v-543h95v-66zM714 0h-273v66h95v543h-95v66h273v-66h-95v-543h95v-66z" />
    <glyph glyph-name="uni2162" unicode="&#x2162;" horiz-adv-x="1155" 
d="M329 0h-273v66h95v543h-95v66h273v-66h-95v-543h95v-66zM714 0h-273v66h95v543h-95v66h273v-66h-95v-543h95v-66zM1099 0h-273v66h95v543h-95v66h273v-66h-95v-543h95v-66z" />
    <glyph glyph-name="uni2163" unicode="&#x2163;" horiz-adv-x="909" 
d="M329 0h-273v66h95v543h-95v66h273v-66h-95v-543h95v-66zM809 675h83q-85 -373 -196 -675h-97q-125 359 -197 675h91q60 -272 161 -588h2q86 267 153 588z" />
    <glyph glyph-name="uni2164" unicode="&#x2164;" horiz-adv-x="524" 
d="M424 675h83q-85 -373 -196 -675h-97q-125 359 -197 675h91q60 -272 161 -588h2q86 267 153 588z" />
    <glyph glyph-name="uni2165" unicode="&#x2165;" horiz-adv-x="909" 
d="M424 675h83q-85 -373 -196 -675h-97q-125 359 -197 675h91q60 -272 161 -588h2q86 267 153 588zM853 0h-273v66h95v543h-95v66h273v-66h-95v-543h95v-66z" />
    <glyph glyph-name="uni2166" unicode="&#x2166;" horiz-adv-x="1294" 
d="M424 675h83q-85 -373 -196 -675h-97q-125 359 -197 675h91q60 -272 161 -588h2q86 267 153 588zM853 0h-273v66h95v543h-95v66h273v-66h-95v-543h95v-66zM1238 0h-273v66h95v543h-95v66h273v-66h-95v-543h95v-66z" />
    <glyph glyph-name="uni2167" unicode="&#x2167;" horiz-adv-x="1679" 
d="M424 675h83q-85 -373 -196 -675h-97q-125 359 -197 675h91q60 -272 161 -588h2q86 267 153 588zM853 0h-273v66h95v543h-95v66h273v-66h-95v-543h95v-66zM1238 0h-273v66h95v543h-95v66h273v-66h-95v-543h95v-66zM1623 0h-273v66h95v543h-95v66h273v-66h-95v-543h95v-66z
" />
    <glyph glyph-name="uni2168" unicode="&#x2168;" horiz-adv-x="928" 
d="M329 0h-273v66h95v543h-95v66h273v-66h-95v-543h95v-66zM900 0h-94q-83 174 -157 288h-1q-92 -143 -153 -288h-85q73 164 193 352q-97 157 -175 323h92q78 -166 137 -259h2q86 131 138 259h84q-67 -155 -177 -317q119 -190 196 -358z" />
    <glyph glyph-name="uni2169" unicode="&#x2169;" horiz-adv-x="543" 
d="M515 0h-94q-83 174 -157 288h-1q-92 -143 -153 -288h-85q73 164 193 352q-97 157 -175 323h92q78 -166 137 -259h2q86 131 138 259h84q-67 -155 -177 -317q119 -190 196 -358z" />
    <glyph glyph-name="uni216A" unicode="&#x216a;" horiz-adv-x="928" 
d="M515 0h-94q-83 174 -157 288h-1q-92 -143 -153 -288h-85q73 164 193 352q-97 157 -175 323h92q78 -166 137 -259h2q86 131 138 259h84q-67 -155 -177 -317q119 -190 196 -358zM872 0h-273v66h95v543h-95v66h273v-66h-95v-543h95v-66z" />
    <glyph glyph-name="uni216B" unicode="&#x216b;" horiz-adv-x="1313" 
d="M515 0h-94q-83 174 -157 288h-1q-92 -143 -153 -288h-85q73 164 193 352q-97 157 -175 323h92q78 -166 137 -259h2q86 131 138 259h84q-67 -155 -177 -317q119 -190 196 -358zM872 0h-273v66h95v543h-95v66h273v-66h-95v-543h95v-66zM1257 0h-273v66h95v543h-95v66h273
v-66h-95v-543h95v-66z" />
    <glyph glyph-name="uni216C" unicode="&#x216c;" horiz-adv-x="421" 
d="M403 0h-311v675h83v-608h228v-67z" />
    <glyph glyph-name="uni216D" unicode="&#x216d;" horiz-adv-x="518" 
d="M449 134l36 -42q-76 -100 -195 -100q-114 0 -174.5 84.5t-60.5 250.5t67 261t178 95q120 0 174 -110l-41 -35q-49 78 -126 78q-55 0 -93.5 -40t-55 -100t-16.5 -133q0 -283 165 -283q78 0 142 74z" />
    <glyph glyph-name="uni216E" unicode="&#x216e;" horiz-adv-x="580" 
d="M92 0v675q26 0 75.5 0.5t74.5 0.5q61 0 109.5 -17t81 -46t53.5 -70.5t30 -88t9 -100.5q0 -171 -75.5 -263.5t-226.5 -92.5q-26 0 -70.5 1t-60.5 1zM175 611v-545q31 -3 65 -3q198 0 198 280q0 269 -205 269q-39 0 -58 -1z" />
    <glyph glyph-name="uni216F" unicode="&#x216f;" horiz-adv-x="840" 
d="M761 0h-88q-6 318 -36 574h-2l-189 -574h-66l-191 574h-1q-22 -238 -27 -574h-81q8 350 50 675h108l182 -539h1l181 539h105q45 -348 54 -675z" />
    <glyph glyph-name="arrowleft" unicode="&#x2190;" horiz-adv-x="1054" 
d="M70 338l365 365l38 -38q-149 -168 -277 -293l1 -1q320 6 638 6h135v-78h-135l-638 6l-1 -1q57 -56 126 -129t110 -119l41 -45l-38 -38z" />
    <glyph glyph-name="arrowup" unicode="&#x2191;" horiz-adv-x="870" 
d="M435 795l365 -365l-38 -38q-168 149 -293 277l-1 -1q6 -320 6 -638v-135h-78v135l6 638l-1 1q-56 -57 -129 -126t-118 -110l-46 -41l-38 38z" />
    <glyph glyph-name="arrowright" unicode="&#x2192;" horiz-adv-x="1054" 
d="M984 338l-365 -365l-38 38q149 168 277 293l-1 1q-320 -6 -638 -6h-135v78h135l638 -6l1 1q-57 56 -126 129t-110 119l-41 45l38 38z" />
    <glyph glyph-name="arrowdown" unicode="&#x2193;" horiz-adv-x="870" 
d="M435 -119l-365 365l38 38q168 -149 293 -277l1 1q-6 320 -6 638v135h78v-135l-6 -638l1 -1q56 57 129 126t118 110l46 41l38 -38z" />
    <glyph glyph-name="arrowboth" unicode="&#x2194;" horiz-adv-x="1250" 
d="M1180 338l-323 -323l-36 36q121 140 240 255l-1 1q-211 -4 -348 -4h-174l-348 4l-1 -1q53 -51 113 -115t94 -102l33 -38l-36 -36l-323 323l323 323l36 -36q-121 -140 -240 -255l1 -1q211 4 348 4h174l348 -4l1 1q-53 51 -113 115t-94 102l-33 38l36 36z" />
    <glyph glyph-name="arrowupdn" unicode="&#x2195;" horiz-adv-x="786" 
d="M393 -161l-323 323l36 36q140 -121 255 -240l1 1q-5 211 -5 348v62l5 348l-1 1q-51 -53 -115 -113t-102 -93l-38 -34l-36 36l323 323l323 -323l-36 -36q-140 121 -255 240l-1 -1q5 -211 5 -348v-62l-5 -348l1 -1q51 53 115 113t102 93l38 34l36 -36z" />
    <glyph glyph-name="arrownorthwest" unicode="&#x2196;" horiz-adv-x="846" 
d="M99 661h517v-54q-25 -1 -67.5 -3.5t-149.5 -5.5t-187 -2v-1q230 -221 456 -447l95 -96l-55 -55l-95 96q-100 100 -212 214t-174 178l-62 64l-1 -1q1 -79 -1.5 -180t-5.5 -162l-3 -61h-55v516z" />
    <glyph glyph-name="arrownortheast" unicode="&#x2197;" horiz-adv-x="846" 
d="M746 661v-516h-54q-1 25 -3.5 67.5t-5.5 149.5t-2 186l-1 1q-221 -230 -447 -456l-96 -96l-55 55l96 96q100 100 214 212t178 174l63 61v1q-79 -1 -180 2t-163 6l-61 3v54h517z" />
    <glyph glyph-name="arrowsoutheast" unicode="&#x2198;" horiz-adv-x="846" 
d="M746 15h-517v54q25 1 67.5 3.5t150 5.5t186.5 2v1q-229 221 -455 447l-96 96l55 55l96 -96q100 -100 212 -214t173 -178l62 -64l1 1q-1 79 2 180t6 162l3 61h54v-516z" />
    <glyph glyph-name="arrowsouthwest" unicode="&#x2199;" horiz-adv-x="846" 
d="M99 15v516h55q1 -25 3 -67.5t5 -149.5t2 -186l1 -1q222 230 448 456l95 96l55 -55l-95 -96q-100 -100 -214 -212t-178 -174l-64 -61v-1q80 1 181 -2t162 -6l61 -3v-54h-517z" />
    <glyph glyph-name="partialdiff" unicode="&#x2202;" horiz-adv-x="515" 
d="M178 669l42 46q240 -132 240 -416q0 -157 -58.5 -232t-152.5 -75q-98 0 -150.5 65t-52.5 183q0 127 60.5 192t168.5 65q42 0 65 -7q-47 97 -162 179zM375 279q0 83 -16 147q-35 14 -93 14q-60 0 -97.5 -48t-37.5 -141q0 -197 126 -197q53 0 85.5 48.5t32.5 176.5z" />
    <glyph glyph-name="product" unicode="&#x220f;" horiz-adv-x="653" 
d="M630 609h-81v-609h-83v609h-276v-609h-83v609h-79v66h602v-66z" />
    <glyph glyph-name="summation" unicode="&#x2211;" 
d="M454 0h-414v54l231 295l-218 267v59h388v-65h-287l207 -255l-224 -288h317v-67z" />
    <glyph glyph-name="minus" unicode="&#x2212;" 
d="M458 268h-415v60h415v-60z" />
    <glyph glyph-name="uni2215" unicode="&#x2215;" horiz-adv-x="74" 
d="M-264 -43l571 773l46 -25l-571 -774z" />
    <glyph glyph-name="radical" unicode="&#x221a;" 
d="M406 675h78q-70 -341 -193 -675h-88l-109 438h-87v58h152l97 -406q96 305 150 585z" />
    <glyph glyph-name="infinity" unicode="&#x221e;" horiz-adv-x="1000" 
d="M949 305q0 -93 -50.5 -148.5t-145.5 -55.5q-65 0 -125.5 38t-131.5 106q-70 -68 -131 -106t-126 -38q-94 0 -141 53t-47 135q0 93 50.5 148.5t145.5 55.5q65 0 125.5 -38.5t130.5 -106.5q72 69 132 107t126 38q94 0 141 -53t47 -135zM868 297q0 57 -27.5 93.5t-85.5 36.5
q-47 0 -93 -32t-110 -95q44 -44 71.5 -67.5t65 -44.5t68.5 -21q57 0 84 36.5t27 93.5zM245 167q46 0 92.5 32t110.5 94q-66 66 -113 100t-92 34q-57 0 -84 -36.5t-27 -93.5t27.5 -93.5t85.5 -36.5z" />
    <glyph glyph-name="integral" unicode="&#x222b;" horiz-adv-x="400" 
d="M373 695l-13 -48q-31 11 -56 11q-37 0 -53 -21t-16 -67v-603q0 -145 -127 -145q-49 0 -91 22l13 48q31 -11 56 -11q37 0 53.5 21t16.5 67v603q0 69 31 107t95 38q49 0 91 -22z" />
    <glyph glyph-name="uni2236" unicode="&#x2236;" horiz-adv-x="332" 
d="M216 527q0 -28 -11 -38.5t-39 -10.5t-39.5 10.5t-11.5 37.5q0 28 11.5 38.5t39.5 10.5t39 -10t11 -38zM216 128q0 -29 -11 -39t-39 -10t-39.5 10t-11.5 37q0 28 11.5 38.5t39.5 10.5t39 -10t11 -37z" />
    <glyph glyph-name="approxequal" unicode="&#x2248;" 
d="M428 440l26 -44q-35 -32 -63 -45.5t-61 -13.5q-43 0 -92 28t-82 28q-35 0 -88 -45l-26 44q35 32 63 45.5t61 13.5q43 0 92 -28t82 -28q35 0 88 45zM428 247l26 -44q-35 -32 -63 -45.5t-61 -13.5q-43 0 -92 28t-82 28q-35 0 -88 -45l-26 44q35 32 63 45.5t61 13.5
q43 0 92 -28t82 -28q35 0 88 45z" />
    <glyph glyph-name="notequal" unicode="&#x2260;" 
d="M454 176h-232l-84 -156l-54 27l71 129h-107v55h134l72 133h-206v55h234l83 156l55 -26l-71 -130h105v-55h-132l-72 -133h204v-55z" />
    <glyph glyph-name="lessequal" unicode="&#x2264;" 
d="M455 0h-412v57h412v-57zM455 186l-25 -57l-387 183v53l387 183l25 -57l-333 -151z" />
    <glyph glyph-name="greaterequal" unicode="&#x2265;" 
d="M455 0h-412v57h412v-57zM455 312l-388 -183l-24 56l333 152l-333 153l24 58l388 -183v-53z" />
    <glyph glyph-name="filledbox" unicode="&#x25a0;" horiz-adv-x="1100" 
d="M986 -108h-872v892h872v-892z" />
    <glyph glyph-name="uni25A1" unicode="&#x25a1;" horiz-adv-x="1100" 
d="M1003 -117h-906v910h906v-910zM936 -60v796h-772v-796h772z" />
    <glyph glyph-name="uni25B2" unicode="&#x25b2;" horiz-adv-x="800" 
d="M400 701l278 -667h-556z" />
    <glyph glyph-name="uni25B3" unicode="&#x25b3;" horiz-adv-x="800" 
d="M689 27h-578l289 692zM590 93l-190 456l-190 -456h380z" />
    <glyph glyph-name="uni25B6" unicode="&#x25b6;" horiz-adv-x="823" 
d="M774 338l-666 -278v556z" />
    <glyph glyph-name="uni25B7" unicode="&#x25b7;" horiz-adv-x="823" 
d="M793 338l-692 -289v578zM166 528v-380l456 190z" />
    <glyph glyph-name="uni25BC" unicode="&#x25bc;" horiz-adv-x="800" 
d="M678 642l-278 -667l-278 667h556z" />
    <glyph glyph-name="uni25BD" unicode="&#x25bd;" horiz-adv-x="800" 
d="M689 649l-289 -692l-289 692h578zM210 583l190 -456l190 456h-380z" />
    <glyph glyph-name="uni25C0" unicode="&#x25c0;" horiz-adv-x="823" 
d="M715 616v-556l-666 278z" />
    <glyph glyph-name="uni25C1" unicode="&#x25c1;" horiz-adv-x="823" 
d="M722 627v-578l-692 289zM201 338l455 -190v380z" />
    <glyph glyph-name="lozenge" unicode="&#x25ca;" 
d="M473 340l-192 -340h-67l-188 335l192 340h67zM397 332l-151 263l-143 -251l151 -264z" />
    <glyph glyph-name="circle" unicode="&#x25cb;" horiz-adv-x="1100" 
d="M1030 338q0 -235 -123.5 -359t-356.5 -124t-356.5 124t-123.5 359t123.5 359t356.5 124q234 0 357 -124t123 -359zM962 338q0 426 -412 426t-412 -426t412 -426t412 426z" />
    <glyph glyph-name="uni25CF" unicode="&#x25cf;" horiz-adv-x="1100" 
d="M82 338q0 228 120.5 349.5t348.5 121.5q226 0 346 -121.5t120 -349.5t-120.5 -349.5t-345.5 -121.5q-228 0 -348.5 121.5t-120.5 349.5z" />
    <glyph glyph-name="uniE1C2" unicode="&#xe1c2;" horiz-adv-x="1100" 
d="M1017 338q0 -228 -120 -349.5t-345 -121.5q-228 0 -348.5 121.5t-120.5 349.5t120.5 349.5t348.5 121.5q226 0 345.5 -121.5t119.5 -349.5zM680 56h97l-246 308l225 259h-93l-206 -248h-1v248h-81v-567h81v274h1z" />
    <glyph glyph-name="uniE1C3" unicode="&#xe1c3;" horiz-adv-x="1100" 
d="M1017 338q0 -228 -120 -349.5t-345 -121.5q-228 0 -348.5 121.5t-120.5 349.5t120.5 349.5t348.5 121.5q226 0 345.5 -121.5t119.5 -349.5zM611 578q0 33 -10 42.5t-45 9.5q-34 0 -45 -10t-11 -42q0 -31 10.5 -41.5t45.5 -10.5q34 0 44.5 10t10.5 42zM392 72h317v59h-108
v315h-200v-58h117v-257h-126v-59z" />
    <glyph glyph-name="uniE1C4" unicode="&#xe1c4;" horiz-adv-x="1100" 
d="M777 56h-98l-222 274h-1v-274h-82v567h82v-248h1l206 248h92l-225 -259zM1030 338q0 -235 -123.5 -359t-356.5 -124t-356.5 124t-123.5 359t123.5 359t356.5 124q234 0 357 -124t123 -359zM962 338q0 426 -412 426t-412 -426t412 -426t412 426z" />
    <glyph glyph-name="apple" unicode="&#xf8ff;" horiz-adv-x="1000" 
d="M697 134l-18 -5l35 -81l-33 -10l33 -77l-35 -10l12 -27l-33 -75h-58q-3 -21 -31 -35t-68 -14q-41 0 -69 14t-31 35h-58l-57 136l34 10l-34 81l37 9l-20 50v85q-72 77 -72 184q0 112 78.5 190t191.5 78q111 0 189.5 -78t78.5 -190q0 -111 -72 -185v-85zM575 246h61
q72 63 72 158q0 86 -61 146.5t-146 60.5q-86 0 -147.5 -61t-61.5 -146q0 -96 73 -158h61l-17 145q-18 -4 -41 -13q-10 -3 -15 10t-2.5 29t9.5 18q69 22 141 22q69 0 142 -22q6 -2 8.5 -18t-2.5 -29t-15 -10q-32 11 -43 13zM639 -14l-16 39l-261 -67l27 -65h223l15 33l-7 13
l-79 -20l-14 39zM635 165v31h-270v-56l16 -40zM531 246l15 153q-28 2 -43 2q-34 0 -49 -2l16 -153h61zM638 75l-17 40l-260 -67l17 -40zM534 883l-10 -149q-24 2 -48 0l-10 149q20 2 34 2t34 -2zM250 620l-95 82q22 25 46 46l82 -94q-20 -18 -33 -34zM845 702l-95 -82
q-10 13 -33 34l82 94q25 -21 46 -46zM955 371l-125 9q2 25 0 47l125 9q2 -33 0 -65zM170 380l-125 -9q-2 33 0 65l125 -9q-2 -23 0 -47zM505 425v3q0 2 -3 1v-1q2 1 2 0q-2 0 -2 -2q0 -1 2 -1h1zM494 426v3h-1v-3h-1v3h-1v-3q0 -1 1.5 -1t1.5 1zM508 428v1q-4 0 -2 -3v-1
q5 0 2 3zM501 424q-1 3 0 7h-1q-1 -4 0 -7h1zM510 424q1 4 0 7h-1q1 -4 0 -7h1zM498 425v1v2v1h-2q-1 -3 2 -4zM490 425v1h-1v4h-1v-5h2zM503 426q0 1 1 1z" />
    <glyph glyph-name="s_t" unicode="&#xfb06;" horiz-adv-x="727" 
d="M692 69l10 -48q-61 -29 -112 -29q-63 0 -89 30t-26 103v313h-79v58h79v28q0 68 -25 97.5t-78 29.5q-44 0 -71.5 -25t-27.5 -69q0 -58 49 -82l-11 -44q-49 15 -93 15q-45 0 -69 -20t-24 -51q0 -32 24.5 -53t59 -33.5t69 -27.5t59 -46t24.5 -78q0 -65 -48.5 -105
t-129.5 -40q-74 0 -142 35l10 45q71 -21 120 -21q52 0 79 22t27 57q0 32 -24 53t-58.5 33.5t-69 27.5t-58.5 46t-24 77q0 60 44.5 98.5t117.5 38.5l37 -4q-32 19 -32 69q0 63 48.5 101.5t124.5 38.5q171 0 171 -177v-36h134v-58h-134v-293q0 -52 12.5 -72t47.5 -20
q32 0 78 16z" />
    <glyph glyph-name="uniFEFF" unicode="&#xfeff;" horiz-adv-x="0" 
 />
    <glyph glyph-name="u1F137" unicode="&#x1f137;" horiz-adv-x="1100" 
d="M767 56h-81v263h-272v-263h-82v567h82v-236h272v236h81v-567zM1003 -117h-906v910h906v-910zM936 -60v796h-772v-796h772z" />
    <glyph glyph-name="u1F13F" unicode="&#x1f13f;" horiz-adv-x="1100" 
d="M470 56h-81v567q21 0 75 0.5t86 0.5q216 0 216 -174q0 -84 -58 -137t-186 -53h-52v-204zM470 564v-244h66q144 0 144 123q0 63 -33 92t-112 29h-65zM1003 -117h-906v910h906v-910zM936 -60v796h-772v-796h772z" />
    <glyph glyph-name="u1F177" unicode="&#x1f177;" horiz-adv-x="1100" 
d="M986 -108h-872v892h872v-892zM686 56h82v567h-82v-236h-272v236h-82v-567h82v263h272v-263z" />
    <glyph glyph-name="u1F17F" unicode="&#x1f17f;" horiz-adv-x="1100" 
d="M986 -108h-872v892h872v-892zM382 56h81v204h52q128 0 186 53t58 137q0 174 -216 174q-33 0 -86.5 -0.5t-74.5 -0.5v-567zM463 320v244h65q79 0 112 -29t33 -92q0 -123 -144 -123h-66z" />
    <glyph glyph-name="U1F6C8" unicode="&#x1f6c8;" horiz-adv-x="1100" 
d="M1030 338q0 -235 -123.5 -359t-356.5 -124t-356.5 124t-123.5 359t123.5 359t356.5 124q234 0 357 -124t123 -359zM962 338q0 426 -412 426t-412 -426t412 -426t412 426zM609 578q0 -31 -10.5 -41.5t-44.5 -10.5q-35 0 -45.5 10t-10.5 42t10.5 41.5t45.5 9.5t45 -9.5
t10 -41.5zM707 72h-318v58h126v258h-116v58h199v-316h109v-58z" />
    <glyph glyph-name="L_a_t_n_C_a_p_s" horiz-adv-x="918" 
d="M207 500h-155v337h41v-304h114v-33zM422 500h-30l-4 28q-39 -32 -78 -32q-72 0 -72 67q0 38 31 60.5t95 22.5h19v26q0 50 -56 50q-29 0 -70 -15l-6 26q46 18 87 18q84 0 84 -73v-178zM383 554v65h-23q-47 0 -64.5 -13.5t-17.5 -37.5q0 -43 43 -43q30 0 62 29zM617 535
l5 -24q-30 -15 -56 -15q-31 0 -44 15t-13 51v157h-40v28h40q6 28 11 71h29v-71h66v-28h-66v-147q0 -26 6 -36t23 -10q16 0 39 9zM863 500h-39q0 24 0.5 70.5t0.5 62.5q0 86 -48 86q-26 0 -60 -29v-190h-40v247h33l3 -28q40 33 78 33q74 0 74 -110q0 -15 -1 -65.5t-1 -76.5z
M198 67l18 -21q-39 -50 -98 -50q-57 0 -87.5 42.5t-30.5 124.5q0 83 33.5 130.5t89.5 47.5q59 0 87 -55l-21 -17q-23 39 -63 39q-41 0 -61.5 -39.5t-20.5 -96.5q0 -142 82 -142q38 0 72 37zM436 0h-30l-4 28q-39 -32 -78 -32q-72 0 -72 67q0 38 31 60.5t95 22.5h19v26
q0 50 -56 50q-29 0 -70 -15l-6 26q46 18 87 18q84 0 84 -73v-178zM397 54v65h-23q-47 0 -64.5 -13.5t-17.5 -37.5q0 -43 43 -43q30 0 62 29zM560 -87h-39v334h31l4 -27q39 32 72 32q38 0 61 -33t23 -86q0 -69 -33 -103t-87 -34q-21 0 -32 1v-84zM560 192v-161q18 -6 39 -6
q32 0 52 25.5t20 75.5q0 42 -14.5 68t-38.5 26q-27 0 -58 -28zM758 13l5 23q33 -11 60 -11q26 0 39.5 11.5t13.5 28.5q0 19 -18.5 31t-40 18t-40 23.5t-18.5 46.5q0 30 22.5 48.5t58.5 18.5q33 0 59 -13l-6 -23q-26 8 -46 8q-22 0 -34.5 -10t-12.5 -26q0 -19 18.5 -31
t40.5 -18t40.5 -23.5t18.5 -45.5q0 -33 -24 -53t-65 -20q-37 0 -71 17z" />
    <glyph glyph-name="IJ.alt1" horiz-adv-x="540" 
d="M175 0h-83v675h83v-675zM449 675v-448q0 -75 -24.5 -131t-77.5 -106l-50 35q39 45 54 92.5t15 114.5v443h83z" />
    <glyph glyph-name="IJ.alt2" horiz-adv-x="540" 
d="M175 0h-83v675h83v-675zM449 675v-600q0 -118 -46 -178t-174 -75l-11 52q89 18 118.5 61t29.5 137v603h83z" />
    <glyph glyph-name="J.alt1" horiz-adv-x="274" 
d="M183 675v-448q0 -75 -24.5 -131t-77.5 -106l-50 35q39 45 54 92.5t15 114.5v443h83z" />
    <glyph glyph-name="J.alt2" horiz-adv-x="274" 
d="M183 675v-600q0 -118 -46 -178t-174 -75l-11 52q89 18 118.5 61t29.5 137v603h83z" />
    <glyph glyph-name="Jcircumflex.alt2" horiz-adv-x="274" 
d="M183 675v-600q0 -118 -46 -178t-174 -75l-11 52q89 18 118.5 61t29.5 137v603h83zM140 854l143 -89l-22 -37l-123 61l-120 -61l-23 36z" />
    <glyph glyph-name="Jcircumflex.alt1" horiz-adv-x="274" 
d="M183 675v-448q0 -75 -24.5 -131t-77.5 -106l-50 35q39 45 54 92.5t15 114.5v443h83zM142 854l143 -89l-22 -37l-123 61l-120 -61l-23 36z" />
    <glyph glyph-name="L_a_t_n_L_o_w_e_r" horiz-adv-x="1189" 
d="M395 128q0 -66 -29.5 -99t-80.5 -33q-99 0 -99 123q0 66 29 99.5t80 33.5q100 0 100 -124zM727 247h40q-22 -120 -72 -247h-42l-49 166l-8 32l-6 -32l-43 -166h-45l-73 247h43l44 -157l12 -44l8 37l42 164h42l50 -169l8 -31q36 113 49 200zM542 500h-30l-4 28
q-39 -32 -78 -32q-72 0 -72 67q0 38 31 60.5t95 22.5h19v26q0 50 -56 50q-29 0 -70 -15l-6 26q46 18 87 18q84 0 84 -73v-178zM997 119h-149v-5q0 -87 69 -87q35 0 72 15l8 -24q-42 -22 -90 -22q-100 0 -100 121q0 64 27 99.5t75 35.5q96 0 88 -133zM983 500h-39
q0 24 0.5 70.5t0.5 62.5q0 86 -47 86q-27 0 -61 -29v-190h-40v247h33l3 -28q40 33 78 33q74 0 74 -110q0 -15 -1 -65.5t-1 -76.5zM354 117q0 56 -15.5 80t-48.5 24q-64 0 -64 -91q0 -56 16 -80t48 -24q64 0 64 91zM156 0h-156v337h42v-304h114v-33zM327 500h-155v337h41
v-304h114v-33zM737 535l5 -24q-30 -15 -56 -15q-31 0 -44 15t-13 51v157h-39v28h40q5 31 10 71h29v-71h66v-28h-66v-147q0 -26 6 -36t23 -10q16 0 39 9zM1189 246l-4 -36q-15 3 -20 3q-20 0 -57 -45v-168h-39v247h32l5 -44q36 48 63 48q11 0 20 -5zM503 554v65h-23
q-47 0 -64.5 -13.5t-17.5 -37.5q0 -43 43 -43q30 0 62 29zM848 146h110v1q0 76 -52 76q-26 0 -41 -21.5t-17 -55.5z" />
    <glyph glyph-name="c_h" horiz-adv-x="940" 
d="M857 0h-79q0 51 1.5 144.5t1.5 119.5q0 95 -24 135.5t-72 40.5q-53 0 -121 -59v-381h-79v653q-25 6 -59 6q-56 0 -86 -25t-30 -70q0 -59 63 -112l-26 -44q-40 35 -95 35t-86.5 -50.5t-31.5 -140.5q0 -198 119 -198q54 0 108 51l26 -42q-68 -71 -151 -71q-90 0 -137.5 63
t-47.5 186q0 118 52 190t137 72q26 0 39 -8q-32 29 -32 79q0 65 54 104t152 39q24 0 51.5 -2.5t43.5 -4.5l16 -2v-266q73 62 149 62q147 0 147 -220q0 -25 -1.5 -126t-1.5 -158z" />
    <glyph glyph-name="c_k" horiz-adv-x="857" 
d="M842 0h-96l-179 259h-3v-259h-79v653q-25 6 -59 6q-56 0 -86 -25t-30 -70q0 -59 63 -112l-26 -44q-40 35 -95 35t-86.5 -50.5t-31.5 -140.5q0 -198 119 -198q54 0 108 51l26 -42q-68 -71 -151 -71q-90 0 -137.5 63t-47.5 186q0 118 52 190t137 72q26 0 39 -8
q-32 29 -32 79q0 65 54 104t152 39q24 0 51.5 -2.5t43.5 -4.5l16 -2v-418h3l157 206h96l-181 -212z" />
    <glyph glyph-name="c_t" horiz-adv-x="763" 
d="M725 438h-134v-293q0 -52 12 -72t47 -20q32 0 78 16l10 -48q-61 -29 -112 -29q-63 0 -88.5 30t-25.5 103v313h-79v58h79v28q0 68 -25 97.5t-78 29.5q-44 0 -71.5 -24t-27.5 -64q0 -58 63 -110l-25 -46q-44 36 -96 36q-55 0 -86.5 -50.5t-31.5 -140.5q0 -198 121 -198
q59 0 115 52l29 -41q-68 -73 -161 -73q-91 0 -139 63t-48 186q0 118 52 190t137 72q26 0 39 -8q-32 29 -32 79q0 60 49 97.5t126 37.5q85 0 127 -42.5t42 -134.5v-36h134v-58z" />
    <glyph glyph-name="ccedilla_t" horiz-adv-x="763" 
d="M725 438h-134v-293q0 -52 12 -72t47 -20q32 0 78 16l10 -48q-61 -29 -112 -29q-63 0 -88.5 30t-25.5 103v313h-79v58h79v28q0 68 -25 97.5t-78 29.5q-44 0 -71.5 -24t-27.5 -64q0 -58 63 -110l-25 -46q-44 36 -96 36q-55 0 -86.5 -50.5t-31.5 -140.5q0 -198 121 -198
q59 0 115 52l29 -41q-68 -73 -161 -73q-91 0 -139 63t-48 186q0 118 52 190t137 72q26 0 39 -8q-32 29 -32 79q0 60 49 97.5t126 37.5q85 0 127 -42.5t42 -134.5v-36h134v-58zM201 -43h70q10 -80 -73 -136l-44 25q30 26 40 49.5t7 61.5z" />
    <glyph glyph-name="i.dotaccent" horiz-adv-x="248" 
d="M173 638q0 -28 -9.5 -37t-38.5 -9q-31 0 -41 9.5t-10 36.5t10 36.5t41 9.5q30 0 39 -9t9 -37zM163 0h-79v496h79v-496z" />
    <glyph glyph-name="ij.alt1" horiz-adv-x="540" 
d="M455 496v-480q0 -111 -48.5 -152.5t-141.5 -41.5q-76 0 -155 30l7 46q87 -15 140 -15q62 0 90.5 25.5t28.5 87.5v20q0 10 1 26t1 19q-83 -63 -149 -63q-149 0 -149 219q0 29 2 127.5t2 151.5h78q0 -48 -1 -139t-1 -123q0 -93 22.5 -133t68.5 -40q55 0 125 58v377h79z
M175 638q0 -28 -9.5 -37t-38.5 -9q-31 0 -41 9.5t-10 36.5t10 36.5t41 9.5q30 0 39 -9t9 -37zM463 638q0 -28 -9.5 -37t-38.5 -9q-31 0 -41 9.5t-10 36.5t10 36.5t41 9.5q30 0 39 -9t9 -37z" />
    <glyph glyph-name="i_j" horiz-adv-x="540" 
d="M455 496v-480q0 -111 -48.5 -152.5t-141.5 -41.5q-76 0 -155 30l7 46q87 -15 140 -15q62 0 90.5 25.5t28.5 87.5v20q0 10 1 26t1 19q-83 -63 -149 -63q-149 0 -149 219q0 29 2 127.5t2 151.5h78q0 -48 -1 -139t-1 -123q0 -93 22.5 -133t68.5 -40q55 0 125 58v377h79z
M175 638q0 -28 -9.5 -37t-38.5 -9q-31 0 -41 9.5t-10 36.5t10 36.5t41 9.5q30 0 39 -9t9 -37zM463 638q0 -28 -9.5 -37t-38.5 -9q-31 0 -41 9.5t-10 36.5t10 36.5t41 9.5q30 0 39 -9t9 -37z" />
    <glyph glyph-name="scedilla_t" horiz-adv-x="727" 
d="M692 69l10 -48q-61 -29 -112 -29q-63 0 -89 30t-26 103v313h-79v58h79v28q0 68 -25 97.5t-78 29.5q-44 0 -71.5 -25t-27.5 -69q0 -58 49 -82l-11 -44q-49 15 -93 15q-45 0 -69 -20t-24 -51q0 -32 24.5 -53t59 -33.5t69 -27.5t59 -46t24.5 -78q0 -65 -48.5 -105
t-129.5 -40q-74 0 -142 35l10 45q71 -21 120 -21q52 0 79 22t27 57q0 32 -24 53t-58.5 33.5t-69 27.5t-58.5 46t-24 77q0 60 44.5 98.5t117.5 38.5l37 -4q-32 19 -32 69q0 63 48.5 101.5t124.5 38.5q171 0 171 -177v-36h134v-58h-134v-293q0 -52 12.5 -72t47.5 -20
q32 0 78 16zM155 -43h70q10 -80 -73 -136l-44 25q30 26 40 49.5t7 61.5z" />
    <glyph glyph-name="scommaaccent_t" horiz-adv-x="727" 
d="M692 69l10 -48q-61 -29 -112 -29q-63 0 -89 30t-26 103v313h-79v58h79v28q0 68 -25 97.5t-78 29.5q-44 0 -71.5 -25t-27.5 -69q0 -58 49 -82l-11 -44q-49 15 -93 15q-45 0 -69 -20t-24 -51q0 -32 24.5 -53t59 -33.5t69 -27.5t59 -46t24.5 -78q0 -65 -48.5 -105
t-129.5 -40q-74 0 -142 35l10 45q71 -21 120 -21q52 0 79 22t27 57q0 32 -24 53t-58.5 33.5t-69 27.5t-58.5 46t-24 77q0 60 44.5 98.5t117.5 38.5l37 -4q-32 19 -32 69q0 63 48.5 101.5t124.5 38.5q171 0 171 -177v-36h134v-58h-134v-293q0 -52 12.5 -72t47.5 -20
q32 0 78 16zM195 -38q38 0 38 -38q0 -40 -25.5 -64t-77.5 -38l-14 30q50 24 50 47q0 5 -5 11.5t-5 18.5q0 33 39 33z" />
    <glyph glyph-name="grave.cap" horiz-adv-x="348" 
d="M277 766l-25 -38l-181 70l38 56z" />
    <glyph glyph-name="acute.cap" horiz-adv-x="348" 
d="M71 766l168 88l38 -56l-181 -70z" />
    <glyph glyph-name="circumflex.cap" horiz-adv-x="431" 
d="M216 854l143 -89l-22 -37l-123 61l-120 -61l-23 36z" />
    <glyph glyph-name="caron.cap" horiz-adv-x="431" 
d="M215 728l-144 89l23 37l122 -62l121 62l22 -36z" />
    <glyph glyph-name="uni0315.cap" horiz-adv-x="242" 
d="M171 737l-56 -172l-44 8l35 177z" />
    <glyph glyph-name="tilde.cap" horiz-adv-x="477" 
d="M370 839l36 -25q-26 -44 -50 -62.5t-60 -18.5q-35 0 -72 27.5t-52 27.5q-16 0 -28.5 -11t-36.5 -42l-36 25q26 44 50 62.5t60 18.5q35 0 72 -27.5t52 -27.5q16 0 28.5 11t36.5 42z" />
    <glyph glyph-name="dieresis.cap" horiz-adv-x="428" 
d="M357 778q0 -23 -9 -31.5t-34 -8.5q-27 0 -35.5 8t-8.5 32t8.5 32.5t35.5 8.5q26 0 34.5 -8t8.5 -33zM158 778q0 -24 -8.5 -32t-34.5 -8t-35 8t-9 32t9 32.5t35 8.5t34.5 -8t8.5 -33z" />
    <glyph glyph-name="dieresis.cap.narrow" horiz-adv-x="372" 
d="M301 778q0 -23 -8.5 -31.5t-33.5 -8.5t-33.5 8t-8.5 32t8.5 32.5t33.5 8.5t33.5 -8t8.5 -33zM155 778q0 -24 -8.5 -32t-32.5 -8q-26 0 -34.5 8t-8.5 32t9 32.5t34 8.5t33 -8t8 -33z" />
    <glyph glyph-name="dieresis.narrow" horiz-adv-x="385" 
d="M314 638q0 -24 -8 -32.5t-34 -8.5t-34.5 8t-8.5 33q0 26 8.5 34.5t34.5 8.5t34 -8.5t8 -34.5zM156 638q0 -24 -8 -32.5t-33 -8.5q-27 0 -35.5 8t-8.5 33q0 26 8.5 34.5t35.5 8.5q25 0 33 -8.5t8 -34.5z" />
    <glyph glyph-name="macron.cap" horiz-adv-x="413" 
d="M341 751h-270v56h270v-56z" />
    <glyph glyph-name="breve.cap" horiz-adv-x="408" 
d="M287 854h50q0 -56 -36 -94t-97 -38q-64 0 -98.5 37t-34.5 95h51q0 -30 20.5 -52t61.5 -22q40 0 61.5 22t21.5 52z" />
    <glyph glyph-name="ring.cap" horiz-adv-x="341" 
d="M270 776q0 -39 -27.5 -61.5t-74.5 -22.5q-97 0 -97 79q0 37 28 60t75 23q96 0 96 -78zM214 772q0 23 -10 33t-33 10q-44 0 -44 -43q0 -41 44 -41q43 0 43 41z" />
    <glyph glyph-name="ring.big" horiz-adv-x="294" 
d="M251 740q0 -42 -27.5 -66t-75.5 -24q-100 0 -100 86q0 40 29 64.5t76 24.5q98 0 98 -85zM194 737q0 45 -44 45t-44 -45q0 -23 10 -33t34 -10q44 0 44 43z" />
    <glyph glyph-name="ringacute.cap" horiz-adv-x="340" 
d="M255 749q0 -25 -26 -41.5t-69 -16.5t-66 14t-23 39t26 41.5t69 16.5q89 0 89 -53zM202 748q0 25 -39 25q-38 0 -38 -28q0 -25 38 -25q39 0 39 28zM107 845l142 40l20 -37l-151 -29z" />
    <glyph glyph-name="ringacute" horiz-adv-x="360" 
d="M266 632q0 -39 -27 -61.5t-73 -22.5q-95 0 -95 79q0 37 27.5 60t73.5 23q94 0 94 -78zM211 628q0 23 -10 33t-33 10q-42 0 -42 -43q0 -21 9.5 -31t32.5 -10q43 0 43 41zM131 777l99 108l58 -35l-118 -96z" />
    <glyph glyph-name="hungarumlaut.cap" horiz-adv-x="534" 
d="M463 812l-175 -89l-29 28l159 105zM265 822l-161 -101l-33 25l145 116z" />
    <glyph glyph-name="dotaccent.cap" horiz-adv-x="241" 
d="M168 779q0 -24 -9.5 -32.5t-37.5 -8.5q-30 0 -39 8t-9 33q0 26 9.5 34t38.5 8t38 -8t9 -34z" />
    <glyph glyph-name="dotaccent.i" horiz-adv-x="242" 
d="M170 638q0 -28 -9 -37t-39 -9q-31 0 -41 9.5t-10 36.5t10 36.5t41 9.5q30 0 39 -9t9 -37z" />
    <glyph glyph-name="dotaccent.asc" horiz-adv-x="239" 
d="M168 819q0 -24 -9 -32t-39 -8t-39.5 7.5t-9.5 32.5q0 26 9.5 34t39.5 8t39 -8t9 -34z" />
    <glyph glyph-name="exclamdown.cap" horiz-adv-x="367" 
d="M122 526h67l15 -526h-98zM103 634q0 28 11 38t42 10q32 0 42.5 -10t10.5 -38q0 -29 -10.5 -39.5t-42.5 -10.5t-42.5 10t-10.5 40z" />
    <glyph glyph-name="questiondown.cap" 
d="M70 148q0 40 16.5 73.5t39.5 57.5t47 48t41 56.5t18 70.5l1 72h66l4 -78q2 -37 -12 -71.5t-35.5 -60.5t-44 -50t-38 -51t-15.5 -53q0 -49 30.5 -77t86.5 -28q62 0 125 21l19 -50q-85 -36 -164 -36q-92 0 -138.5 42.5t-46.5 113.5zM214 634q0 28 10.5 38t41.5 10
q32 0 42.5 -10t10.5 -38q0 -29 -11 -39.5t-43 -10.5q-31 0 -41 10t-10 40z" />
    <glyph glyph-name="guilsinglleft.cap" horiz-adv-x="303" 
d="M228 173l-53 -20l-123 192l123 192l53 -21l-93 -171z" />
    <glyph glyph-name="guilsinglright.cap" horiz-adv-x="304" 
d="M76 517l52 20l124 -192l-124 -192l-52 21l92 171z" />
    <glyph glyph-name="guillemotleft.cap" horiz-adv-x="504" 
d="M224 173l-52 -20l-123 192l123 192l52 -21l-93 -171zM417 179l-51 -19l-119 185l119 185l51 -20l-88 -165z" />
    <glyph glyph-name="guillemotright.cap" horiz-adv-x="504" 
d="M280 517l52 20l123 -192l-124 -192l-51 21l93 171zM87 511l50 19l119 -185l-119 -185l-50 19l87 166z" />
    <glyph glyph-name="bar.cap" horiz-adv-x="252" 
d="M161 -123h-72v926h72v-926z" />
    <glyph glyph-name="brokenbar.cap" horiz-adv-x="252" 
d="M160 248v-371h-68v371h68zM92 416v390h68v-390h-68z" />
    <glyph glyph-name="hyphen.cap" horiz-adv-x="233" 
d="M232 311h-200v62h200v-62z" />
    <glyph glyph-name="endash.cap" 
d="M455 314h-410v61h410v-61z" />
    <glyph glyph-name="emdash.cap" horiz-adv-x="1000" 
d="M850 314h-701v61h701v-61z" />
    <glyph glyph-name="uni2015.cap" horiz-adv-x="1000" 
d="M850 314h-701v61h701v-61z" />
    <glyph glyph-name="periodcentered.cap" horiz-adv-x="261" 
d="M182 347q0 -31 -10 -41t-41 -10t-41 10t-10 40q0 31 10 41.5t42 10.5q30 0 40 -10.5t10 -40.5z" />
    <glyph glyph-name="parenleft.cap" horiz-adv-x="310" 
d="M260 -101l-53 -21q-60 91 -94.5 207.5t-34.5 235.5q0 127 35.5 244.5t93.5 209.5l53 -20q-106 -205 -106 -425q0 -223 106 -431z" />
    <glyph glyph-name="parenright.cap" horiz-adv-x="310" 
d="M103 -121l-53 20q106 205 106 425q0 223 -106 431l53 21q60 -91 94.5 -207.5t34.5 -235.5q0 -127 -35.5 -244.5t-93.5 -209.5z" />
    <glyph glyph-name="bracketleft.cap" horiz-adv-x="354" 
d="M287 -123h-166v912h166v-53h-96v-806h96v-53z" />
    <glyph glyph-name="bracketright.cap" horiz-adv-x="354" 
d="M233 -123h-167v53h96v806h-96v53h167v-912z" />
    <glyph glyph-name="braceleft.cap" horiz-adv-x="388" 
d="M306 -123h-38q-67 0 -93.5 30.5t-26.5 94.5v211q0 95 -73 95h-23v60h23q41 0 57 24t16 68v205q0 124 123 124h35v-50h-26q-29 0 -45 -19.5t-16 -54.5v-177q0 -136 -92 -149q92 -15 92 -152v-186q0 -41 13.5 -57.5t47.5 -16.5h26v-50z" />
    <glyph glyph-name="braceright.cap" horiz-adv-x="388" 
d="M334 308h-22q-74 0 -74 -92v-215q0 -124 -122 -124h-35v50h26q29 0 45 19.5t16 54.5v187q0 136 91 149q-91 15 -91 152v176q0 40 -14 57t-48 17h-25v50h38q67 0 93 -30.5t26 -94.5v-201q0 -95 74 -95h22v-60z" />
    <glyph glyph-name="at.cap" horiz-adv-x="1010" 
d="M734 5l13 -48q-131 -60 -282 -60q-194 0 -290 94.5t-96 274.5q0 141 55 254.5t167 182t263 68.5q169 0 251.5 -80.5t82.5 -222.5q0 -148 -75 -240.5t-220 -92.5h-38l2 97q-81 -104 -157 -104q-121 0 -121 162q0 127 64.5 198.5t180.5 71.5q68 0 136 -18l-39 -347
q96 0 144.5 70.5t48.5 182.5q0 130 -63 199t-210 69q-98 0 -176 -36.5t-125 -98.5t-71.5 -139t-24.5 -163q0 -165 75.5 -245.5t250.5 -80.5q57 0 130 15.5t124 36.5zM566 301l21 190q-36 9 -66 9q-75 0 -112.5 -53t-37.5 -142q0 -113 64 -113q53 0 131 109z" />
    <glyph glyph-name="Euro.fitted" horiz-adv-x="561" 
d="M165 436h189v-53h-195q-1 -14 -1 -40q0 -31 1 -47h195v-53h-189q11 -92 53.5 -140t115.5 -48q79 0 143 72l33 -41q-76 -94 -194 -94q-100 0 -162.5 64t-75.5 187h-68v53h63q-1 12 -1 34q0 26 3 53h-65v53h72q16 114 82 180.5t160 66.5q124 0 178 -106l-38 -34
q-46 77 -137 77q-70 0 -111 -52t-51 -132z" />
    <glyph glyph-name="dollar.slashed.oldstyle" horiz-adv-x="549" 
d="M469 608l-19 -45q-59 23 -111 28l-34 -222q36 -13 56.5 -21.5t50.5 -25.5t46 -34.5t28 -44.5t12 -60q0 -82 -65 -130.5t-182 -48.5h-2l-22 -109h-48l12 114q-76 13 -138 50l22 47q56 -29 125 -39l37 240q-39 14 -64.5 27t-52.5 33.5t-40.5 49.5t-13.5 67q0 74 59.5 120.5
t165.5 47.5l21 103h47l-11 -107q70 -11 121 -40zM417 173q0 42 -32 67t-93 47l-34 -223q76 1 117.5 29t41.5 80zM145 494q0 -37 27 -61t78 -44l32 205q-68 -2 -102.5 -28.5t-34.5 -71.5z" />
    <glyph glyph-name="cent.fitted" horiz-adv-x="455" 
d="M381 215l29 -41q-60 -55 -126 -64l-7 -112h-50l-6 108q-168 16 -168 225q0 100 45.5 161.5t121.5 75.5l7 109h50l7 -108q62 -6 112 -57l-30 -40q-51 41 -101 41q-58 0 -94 -45.5t-36 -123.5q0 -88 34 -133t94 -45t118 49z" />
    <glyph glyph-name="cent.slashed.oldstyle" horiz-adv-x="497" 
d="M423 212l24 -41q-83 -70 -186 -64l-21 -107h-48l12 112q-151 39 -151 222q0 116 65 176t156 61l21 104h47l-10 -109q62 -10 111 -54l-25 -41q-48 32 -95 39l-53 -342q82 -9 153 44zM131 342q0 -128 83 -162l51 331q-63 -5 -98.5 -51.5t-35.5 -117.5z" />
    <glyph glyph-name="sterling.fitted" horiz-adv-x="443" 
d="M417 0h-384v55q57 57 75 114.5t7 141.5h-90v57h80q-20 87 -20 126q0 95 46 141.5t125 46.5q76 0 150 -38l-14 -46q-68 23 -118 23q-58 0 -81 -30.5t-23 -85.5q0 -35 20 -137h155v-57h-146q10 -80 -5.5 -137t-67.5 -109h291v-65z" />
    <glyph glyph-name="florin.fitted" horiz-adv-x="465" 
d="M434 652l-16 -46q-36 17 -66 17q-36 0 -54 -21t-23 -66l-20 -165h141v-55h-145l-32 -280q-17 -147 -133 -147q-51 0 -99 30l14 46q34 -17 63 -17q35 0 52.5 21t22.5 66l33 281h-107v55h111l19 164q16 147 136 147q56 0 103 -30z" />
    <glyph glyph-name="yen.fitted" horiz-adv-x="480" 
d="M422 241h-142v-85h142v-56h-142v-100h-80v100h-142v56h142v85h-142v56h142v21q-97 147 -199 357h91q80 -177 156 -293q64 97 146 293h86q-121 -242 -200 -357v-21h142v-56z" />
    <glyph glyph-name="H_a_n_g_T_a_b_P_r_o_p" horiz-adv-x="1639" 
d="M515 500h-41v159h-155v-159h-41v337h41v-142h155v142h41v-337zM766 500h-32l-3 28q-39 -32 -78 -32q-72 0 -72 67q0 38 31 60.5t94 22.5h20v26q0 50 -56 50q-29 0 -70 -15l-6 26q44 18 88 18q84 0 84 -73v-178zM726 554v65h-24q-81 0 -81 -51q0 -43 43 -43q30 0 62 29z
M1035 500h-39q0 24 0.5 70.5t0.5 62.5q0 47 -11.5 66.5t-35.5 19.5q-25 0 -61 -29v-190h-40v247h33l4 -28q38 33 78 33q73 0 73 -110q0 -15 -1 -65.5t-1 -76.5zM1294 744v-236q0 -55 -24.5 -76.5t-70.5 -21.5q-36 0 -78 16l4 23q42 -8 70 -8q31 0 45 13t14 44v36
q-37 -28 -69 -28q-37 0 -60 32.5t-23 82.5q0 65 34 98t86 33q32 0 72 -8zM1254 565v150q-17 7 -40 7q-31 0 -51 -25t-20 -68q0 -42 14.5 -67.5t39.5 -25.5q28 0 57 29zM217 304h-88v-304h-41v304h-88v33h217v-33zM397 0h-30l-4 28q-39 -32 -77 -32q-73 0 -73 67
q0 38 31 60.5t95 22.5h19v26q0 50 -56 50q-29 0 -70 -15l-6 26q46 18 87 18q84 0 84 -73v-178zM358 54v65h-23q-82 0 -82 -51q0 -43 43 -43q30 0 62 29zM482 4v350h39v-132q37 30 68 30q38 0 61.5 -33.5t23.5 -85.5q0 -70 -33.5 -103.5t-89.5 -33.5q-37 0 -69 8zM521 192
v-161q18 -6 39 -6q32 0 52 25.5t20 74.5q0 43 -14 69t-39 26q-27 0 -58 -28zM804 0h-41v337q9 0 33 0.5t43 0.5q122 0 122 -102q0 -51 -33 -81.5t-104 -30.5h-20v-124zM804 306v-150h28q85 0 85 75q0 37 -19.5 56t-64.5 19h-29zM1137 246l-4 -36q-15 3 -20 3q-20 0 -57 -45
v-168h-39v247h32l4 -44q38 48 64 48q10 0 20 -5zM1379 128q0 -66 -29.5 -99t-80.5 -33q-100 0 -100 123q0 66 29.5 99.5t80.5 33.5q100 0 100 -124zM1338 117q0 56 -15.5 80t-48.5 24q-64 0 -64 -91q0 -56 15.5 -80t48.5 -24q64 0 64 91zM1486 -87h-39v334h32l4 -27
q37 32 72 32q38 0 61 -33.5t23 -85.5q0 -69 -33 -103t-87 -34q-21 0 -33 1v-84zM1486 192v-161q18 -6 39 -6q32 0 52 25.5t20 75.5q0 43 -14 68.5t-39 25.5q-27 0 -58 -28z" />
    <glyph glyph-name="H_a_n_g_P_r_o_p" horiz-adv-x="1016" 
d="M237 500h-41v159h-154v-159h-42v337h42v-142h154v142h41v-337zM488 500h-31l-3 28q-39 -32 -79 -32q-35 0 -53.5 17.5t-18.5 49.5q0 38 31 60.5t95 22.5h20v26q0 50 -56 50q-31 0 -70 -15l-7 26q46 18 88 18q84 0 84 -73v-178zM449 554v65h-24q-46 0 -63.5 -13.5
t-17.5 -37.5q0 -43 43 -43q28 0 62 29zM758 500h-40q0 24 0.5 70.5t0.5 62.5q0 47 -11.5 66.5t-35.5 19.5q-25 0 -61 -29v-190h-39v247h32l4 -28q40 33 78 33q73 0 73 -110q0 -15 -0.5 -65.5t-0.5 -76.5zM1016 744v-236q0 -55 -24 -76.5t-70 -21.5q-37 0 -79 16l4 23
q42 -8 71 -8q31 0 45 13t14 44v36q-37 -28 -70 -28q-36 0 -59 32.5t-23 82.5q0 65 34 98t85 33q32 0 72 -8zM977 565v150q-17 7 -40 7q-31 0 -51 -25t-20 -68t14 -68t40 -25t57 29zM109 0h-41v337q9 0 33 0.5t43 0.5q122 0 122 -102q0 -51 -33 -81.5t-104 -30.5h-20v-124z
M109 306v-150h28q84 0 84 75q0 37 -19.5 56t-63.5 19h-29zM442 246l-5 -36q-14 3 -19 3q-20 0 -57 -45v-168h-39v247h32l4 -44q38 48 64 48q10 0 20 -5zM684 128q0 -66 -29.5 -99t-80.5 -33q-100 0 -100 123q0 66 29 99.5t81 33.5q100 0 100 -124zM643 117q0 56 -15.5 80
t-48.5 24q-64 0 -64 -91q0 -56 15.5 -80t48.5 -24q64 0 64 91zM791 -87h-39v334h32l3 -27q39 32 73 32q38 0 60.5 -33.5t22.5 -85.5q0 -69 -32.5 -103t-86.5 -34q-22 0 -33 1v-84zM791 192v-161q18 -6 39 -6q32 0 52 25.5t20 75.5q0 42 -14.5 68t-38.5 26q-27 0 -58 -28z
" />
    <glyph glyph-name="zero.oldstyle" horiz-adv-x="538" 
d="M484 284q0 -145 -55.5 -218.5t-162.5 -73.5q-112 0 -162 66t-50 219q0 299 221 299q105 0 157 -67t52 -225zM401 276q0 129 -33 183.5t-99 54.5t-98.5 -53t-32.5 -176q0 -126 31 -178.5t104 -52.5q128 0 128 222z" />
    <glyph glyph-name="one.oldstyle" horiz-adv-x="331" 
d="M236 0h-82v485l-126 -46l-19 51l164 77h63v-567z" />
    <glyph glyph-name="two.oldstyle" horiz-adv-x="442" 
d="M402 0h-375v60q168 146 217.5 209t49.5 127q0 59 -31 86t-81 27q-59 0 -125 -24l-12 56q87 34 167 34q76 0 123 -42t47 -124q0 -80 -52 -147t-203 -194h275v-68z" />
    <glyph glyph-name="three.oldstyle" horiz-adv-x="440" 
d="M18 -75l7 49q75 -21 133 -21q69 0 104.5 35t35.5 100q0 66 -29 99.5t-96 33.5h-62v63h59q111 0 111 122q0 104 -110 104q-62 0 -119 -22l-12 54q75 33 149 33q89 0 132.5 -42t43.5 -111t-28.5 -108.5t-69.5 -53.5q119 -25 119 -167q0 -94 -59 -149t-156 -55
q-77 0 -153 36z" />
    <glyph glyph-name="four.oldstyle" horiz-adv-x="502" 
d="M268 567h116v-449h96v-68h-96v-154h-79v154h-283v61q133 273 246 456zM305 118v385h-2q-89 -150 -208 -385h210z" />
    <glyph glyph-name="five.oldstyle" horiz-adv-x="453" 
d="M360 497h-209l-14 -205q40 8 83 8q90 0 136.5 -46.5t46.5 -137.5q0 -107 -59 -167t-163 -60q-73 0 -141 34l7 49q62 -19 123 -19q150 0 150 149q0 134 -136 134q-58 0 -119 -15l21 346h274v-70z" />
    <glyph glyph-name="six.oldstyle" horiz-adv-x="501" 
d="M439 651l-9 -49q-76 19 -133 19q-80 0 -116.5 -66t-37.5 -209q84 48 148 48q81 0 124 -46t43 -129q0 -108 -52 -167.5t-144 -59.5q-45 0 -79 14t-62.5 48.5t-43.5 99t-15 158.5q0 86 12 152t32.5 107t50.5 66.5t62.5 35.5t71.5 10q65 0 148 -32zM144 289v-4
q0 -122 30 -177t93 -55q55 0 83 41.5t28 113.5q0 123 -110 123q-53 0 -124 -42z" />
    <glyph glyph-name="seven.oldstyle" horiz-adv-x="429" 
d="M404 506l-132 -298q-85 -191 -158 -319l-55 20l253 588h-289v70h381v-61z" />
    <glyph glyph-name="eight.oldstyle" horiz-adv-x="507" 
d="M447 527q0 -59 -33 -98.5t-93 -74.5q66 -35 103 -77t37 -110q0 -78 -54.5 -126.5t-158.5 -48.5q-99 0 -150.5 44t-51.5 118q0 65 36.5 107.5t103.5 80.5q-60 34 -93 73.5t-33 100.5q0 75 52.5 121t146.5 46q98 0 143 -42.5t45 -113.5zM381 160q0 28 -10.5 50.5t-32 41
t-41.5 31t-53 29.5q-57 -32 -87.5 -65t-30.5 -82q0 -54 34 -84t99 -30q55 0 88.5 29.5t33.5 79.5zM139 525q0 -49 31.5 -80t90.5 -61q52 30 79.5 61t27.5 76q0 104 -115 104q-53 0 -83.5 -27.5t-30.5 -72.5z" />
    <glyph glyph-name="nine.oldstyle" horiz-adv-x="501" 
d="M48 -79l8 49q83 -20 149 -20q79 0 116 66t38 205q-84 -48 -148 -48q-81 0 -124 46t-43 129q0 108 52 167.5t143 59.5q45 0 79.5 -14t63 -48.5t43.5 -99t15 -158.5q0 -107 -18 -181.5t-51 -113.5t-71.5 -55.5t-88.5 -16.5q-73 0 -163 33zM358 278v4q0 122 -30 177t-93 55
q-56 0 -83.5 -41t-27.5 -114q0 -123 110 -123q51 0 124 42z" />
    <glyph glyph-name="H_a_n_g_T_a_b" horiz-adv-x="1016" 
d="M237 500h-41v159h-154v-159h-42v337h42v-142h154v142h41v-337zM488 500h-31l-3 28q-39 -32 -79 -32q-35 0 -53.5 17.5t-18.5 49.5q0 38 31 60.5t95 22.5h20v26q0 50 -56 50q-31 0 -70 -15l-7 26q46 18 88 18q84 0 84 -73v-178zM449 554v65h-24q-46 0 -63.5 -13.5
t-17.5 -37.5q0 -43 43 -43q28 0 62 29zM758 500h-40q0 24 0.5 70.5t0.5 62.5q0 47 -11.5 66.5t-35.5 19.5q-25 0 -61 -29v-190h-39v247h32l4 -28q40 33 78 33q73 0 73 -110q0 -15 -0.5 -65.5t-0.5 -76.5zM1016 744v-236q0 -55 -24 -76.5t-70 -21.5q-37 0 -79 16l4 23
q42 -8 71 -8q31 0 45 13t14 44v36q-37 -28 -70 -28q-36 0 -59 32.5t-23 82.5q0 65 34 98t85 33q32 0 72 -8zM977 565v150q-17 7 -40 7q-31 0 -51 -25t-20 -68t14 -68t40 -25t57 29zM360 304h-87v-304h-42v304h-88v33h217v-33zM541 0h-31l-4 28q-39 -32 -77 -32q-72 0 -72 67
q0 83 125 83h19v26q0 50 -56 50q-29 0 -70 -15l-6 26q46 18 88 18q84 0 84 -73v-178zM501 54v65h-23q-82 0 -82 -51q0 -43 43 -43q30 0 62 29zM625 4v350h39v-132q37 30 69 30q38 0 61 -33.5t23 -85.5q0 -70 -33.5 -103.5t-89.5 -33.5q-37 0 -69 8zM664 192v-161
q18 -6 39 -6q32 0 52 25.5t20 74.5q0 43 -14 69t-39 26q-27 0 -58 -28z" />
    <glyph glyph-name="zero.OnumTab" 
d="M458 290q0 -298 -214 -298q-103 0 -153 66t-50 218q0 299 215 299q102 0 152 -66t50 -219zM376 283q0 125 -30.5 177.5t-95.5 52.5t-96 -53.5t-31 -176.5q0 -124 31 -176.5t95 -52.5q65 0 96 53t31 176z" />
    <glyph glyph-name="one.OnumTab" 
d="M446 0h-373v68h152v417l-137 -47l-18 51l174 78h66v-499h136v-68z" />
    <glyph glyph-name="two.OnumTab" 
d="M445 0h-389v57q176 147 230.5 212.5t54.5 127.5q0 58 -33 85t-86 27q-58 0 -143 -27l-12 55q100 38 177 38q84 0 134.5 -42t50.5 -124q0 -80 -54.5 -146.5t-212.5 -194.5h283v-68z" />
    <glyph glyph-name="three.OnumTab" 
d="M32 -72l8 49q93 -23 159 -23q148 0 148 134q0 66 -33 99.5t-110 33.5h-69v63h66q126 0 126 122q0 104 -117 104q-65 0 -143 -24l-12 54q91 35 173 35q94 0 139 -43t45 -113q0 -64 -29.5 -105t-74.5 -54q126 -23 126 -167q0 -99 -59.5 -151.5t-165.5 -52.5q-78 0 -177 39z
" />
    <glyph glyph-name="four.OnumTab" 
d="M272 567h115v-449h81v-68h-81v-154h-78v154h-282v60q128 261 245 457zM309 118v382h-2q-96 -163 -206 -382h208z" />
    <glyph glyph-name="five.OnumTab" 
d="M391 497h-239l-14 -205q45 8 97 8q99 0 151 -49t52 -141q0 -105 -60 -163t-169 -58q-76 0 -175 39l8 49q93 -23 161 -23q151 0 151 148q0 134 -150 134q-65 0 -138 -16l21 347h304v-70z" />
    <glyph glyph-name="six.OnumTab" 
d="M437 651l-9 -49q-74 19 -133 19q-80 0 -116.5 -66t-37.5 -209q84 48 148 48q81 0 123 -46t42 -129q0 -108 -52.5 -167.5t-143.5 -59.5q-45 0 -78.5 14t-61.5 48.5t-43 99t-15 158.5q0 86 12 152t32.5 107t50.5 66.5t62.5 35.5t71.5 10q65 0 148 -32zM142 289v-4
q0 -122 29.5 -177t91.5 -55q111 0 111 155q0 123 -110 123q-51 0 -122 -42z" />
    <glyph glyph-name="seven.OnumTab" 
d="M460 506l-142 -299q-71 -152 -167 -318l-55 21l268 587h-320v70h416v-61z" />
    <glyph glyph-name="eight.OnumTab" 
d="M443 527q0 -60 -33 -99t-94 -74q67 -35 104 -76.5t37 -110.5q0 -78 -54 -126.5t-158 -48.5q-100 0 -151 44t-51 118q0 66 37 107.5t104 80.5q-60 34 -93.5 73.5t-33.5 100.5q0 75 52.5 121t146.5 46q97 0 142 -42.5t45 -113.5zM376 160q0 28 -10 50.5t-32 41.5t-41.5 31
t-52.5 30q-56 -32 -86 -65.5t-30 -82.5q0 -54 33.5 -84t97.5 -30q54 0 87.5 29.5t33.5 79.5zM137 525q0 -49 31 -80t90 -61q51 30 78 61t27 76q0 104 -114 104q-52 0 -82 -27.5t-30 -72.5z" />
    <glyph glyph-name="nine.OnumTab" 
d="M50 -79l8 49q83 -20 146 -20q79 0 116.5 65.5t39.5 205.5q-84 -48 -148 -48q-82 0 -123.5 46t-41.5 129q0 108 52.5 167.5t142.5 59.5q94 0 146.5 -70t52.5 -250q0 -106 -18 -180t-51 -113.5t-72 -56.5t-89 -17q-71 0 -161 33zM126 359q0 -123 110 -123q51 0 122 42v4
q0 122 -29 177t-92 55q-111 0 -111 -155z" />
    <glyph glyph-name="L_i_n_P_r_o_p" horiz-adv-x="876" 
d="M331 500h-156v337h42v-304h114v-33zM426 819q0 -14 -4.5 -18.5t-19.5 -4.5t-20 4.5t-5 18.5t5 18.5t20 4.5t19.5 -4.5t4.5 -18.5zM421 500h-39v247h39v-247zM692 500h-40q0 24 1 70.5t1 62.5q0 86 -48 86q-25 0 -61 -29v-190h-39v247h32l4 -28q40 33 78 33q73 0 73 -110
q0 -15 -0.5 -65.5t-0.5 -76.5zM42 0h-42v337q9 0 33 0.5t43 0.5q122 0 122 -102q0 -51 -33 -81.5t-103 -30.5h-20v-124zM42 306v-150h27q85 0 85 75q0 37 -19.5 56t-64.5 19h-28zM374 246l-4 -36q-13 3 -19 3q-21 0 -58 -45v-168h-39v247h33l4 -44q36 48 63 48q11 0 20 -5z
M616 128q0 -66 -29.5 -99t-80.5 -33q-100 0 -100 123q0 66 29.5 99.5t80.5 33.5q100 0 100 -124zM575 117q0 56 -15.5 80t-48.5 24q-64 0 -64 -91q0 -56 16 -80t49 -24q63 0 63 91zM724 -87h-40v334h32l4 -27q37 32 72 32q38 0 61 -33t23 -86q0 -69 -33 -103t-87 -34
q-21 0 -32 1v-84zM724 192v-161q16 -6 38 -6q32 0 52.5 25.5t20.5 75.5q0 43 -14.5 68.5t-39.5 25.5q-28 0 -57 -28z" />
    <glyph glyph-name="zero.LinProp" horiz-adv-x="561" 
d="M515 341q0 -349 -240 -349q-114 0 -171 78.5t-57 263.5q0 349 240 349q114 0 171 -79t57 -263zM429 334q0 155 -37.5 220.5t-110.5 65.5q-74 0 -111 -65t-37 -214q0 -155 37.5 -220.5t110.5 -65.5q74 0 111 65t37 214z" />
    <glyph glyph-name="one.LinProp" horiz-adv-x="332" 
d="M237 0h-83v590l-128 -52l-16 55l163 82h64v-675z" />
    <glyph glyph-name="two.LinProp" horiz-adv-x="472" 
d="M416 0h-389v65q159 164 220.5 258.5t61.5 165.5q0 126 -116 126q-55 0 -136 -30l-14 54q93 44 175 44q81 0 130.5 -43.5t49.5 -138.5q0 -87 -60 -182t-216 -248h294v-71z" />
    <glyph glyph-name="three.LinProp" horiz-adv-x="457" 
d="M18 27l7 52q86 -21 151 -21q139 0 139 138q0 65 -31 98.5t-104 33.5h-75v62h66q59 0 92.5 31.5t33.5 91.5q0 107 -118 107q-70 0 -130 -22l-12 53q73 32 161 32q92 0 137.5 -43.5t45.5 -110.5q0 -68 -30.5 -108t-76.5 -56q51 -9 89.5 -48t38.5 -118q0 -102 -56 -154.5
t-153 -52.5q-86 0 -175 35z" />
    <glyph glyph-name="four.LinProp" horiz-adv-x="505" 
d="M483 159h-97v-159h-78v159h-286v60q131 266 248 456h116v-448h97v-68zM308 227v384h-2q-98 -165 -211 -384h213z" />
    <glyph glyph-name="five.LinProp" horiz-adv-x="466" 
d="M370 605h-220l-13 -203q42 7 83 7q96 0 145.5 -49.5t49.5 -141.5q0 -108 -56 -167t-154 -59q-75 0 -167 33l8 52q90 -19 145 -19q140 0 140 149q0 138 -141 138q-62 0 -125 -15l21 345h284v-70z" />
    <glyph glyph-name="six.LinProp" horiz-adv-x="503" 
d="M438 651l-9 -49q-76 19 -133 19q-78 0 -115.5 -64.5t-38.5 -210.5q84 48 152 48q79 0 121.5 -46t42.5 -129q0 -108 -52 -167.5t-143 -59.5q-47 0 -81 14t-63 48.5t-43.5 99t-14.5 158.5q0 108 18 183.5t51 115t71 56t87 16.5q67 0 150 -32zM143 289v-4q0 -122 30 -177
t93 -55q55 0 84 40t29 109q0 129 -110 129q-53 0 -126 -42z" />
    <glyph glyph-name="seven.LinProp" horiz-adv-x="434" 
d="M409 614l-134 -301q-77 -170 -159 -321l-57 21l259 592h-295v70h386v-61z" />
    <glyph glyph-name="eight.LinProp" horiz-adv-x="511" 
d="M451 527q0 -59 -33.5 -98.5t-94.5 -75.5q68 -36 105.5 -77t37.5 -108q0 -79 -54.5 -127.5t-161.5 -48.5q-102 0 -153.5 44t-51.5 118q0 65 38 107t107 82q-62 34 -96 73t-34 100q0 75 53 121t149 46q99 0 144 -42.5t45 -113.5zM384 160q0 28 -10.5 50.5t-32 41t-41 31
t-52.5 29.5q-58 -32 -89.5 -65.5t-31.5 -81.5q0 -54 34 -84t100 -30q56 0 89.5 29.5t33.5 79.5zM140 524q0 -48 31.5 -79t91.5 -62q52 31 80 62.5t28 75.5q0 104 -116 104q-54 0 -84.5 -27.5t-30.5 -73.5z" />
    <glyph glyph-name="nine.LinProp" horiz-adv-x="503" 
d="M48 26l9 51q91 -22 153 -22q73 0 111.5 64.5t39.5 209.5q-84 -48 -153 -48q-79 0 -121.5 46t-42.5 129q0 108 52 167.5t144 59.5q46 0 80.5 -14t63 -48t43.5 -98.5t15 -158.5q0 -108 -18 -184t-51 -115.5t-71.5 -56t-87.5 -16.5q-71 0 -166 34zM360 386v4q0 122 -30 177
t-93 55q-56 0 -84.5 -40t-28.5 -109q0 -128 109 -128q56 0 127 41z" />
    <glyph glyph-name="L_i_n_T_a_b" horiz-adv-x="674" 
d="M226 500h-155v337h41v-304h114v-33zM322 819q0 -14 -5 -18.5t-20 -4.5t-20 4.5t-5 18.5t5 18.5t20 4.5t20 -4.5t5 -18.5zM317 500h-40v247h40v-247zM587 500h-39q0 24 0.5 70.5t0.5 62.5q0 47 -11.5 66.5t-35.5 19.5q-25 0 -61 -29v-190h-40v247h33l4 -28q38 33 78 33
q73 0 73 -110q0 -15 -1 -65.5t-1 -76.5zM217 304h-88v-304h-41v304h-88v33h217v-33zM397 0h-30l-4 28q-39 -32 -77 -32q-73 0 -73 67q0 38 31 60.5t95 22.5h19v26q0 50 -56 50q-29 0 -70 -15l-6 26q46 18 87 18q84 0 84 -73v-178zM358 54v65h-23q-82 0 -82 -51q0 -43 43 -43
q30 0 62 29zM482 4v350h39v-132q37 30 68 30q38 0 61.5 -33.5t23.5 -85.5q0 -70 -33.5 -103.5t-89.5 -33.5q-37 0 -69 8zM521 192v-161q18 -6 39 -6q32 0 52 25.5t20 74.5q0 43 -14 69t-39 26q-27 0 -58 -28z" />
    <glyph glyph-name="zero.LinTab" 
d="M450 348q0 -193 -52 -274.5t-154 -81.5q-101 0 -148.5 75.5t-47.5 262.5q0 189 51.5 271t155.5 82q100 0 147.5 -74t47.5 -261zM368 334q0 161 -27 224.5t-91 63.5t-92 -63t-28 -215q0 -163 27.5 -226.5t92.5 -63.5q62 0 90 64t28 216z" />
    <glyph glyph-name="one.LinTab" 
d="M310 71h136v-71h-373v71h152v521l-136 -54l-20 53l175 84h66v-604z" />
    <glyph glyph-name="two.LinTab" 
d="M440 0h-392v65q165 170 225.5 260t60.5 164q0 126 -120 126q-53 0 -141 -31l-14 55q99 44 181 44q80 0 131 -43t51 -139q0 -86 -61 -181t-218 -249h297v-71z" />
    <glyph glyph-name="three.LinTab" 
d="M35 29l8 52q93 -23 164 -23q69 0 106 35.5t37 101.5q0 64 -32.5 98t-107.5 34h-80v62h75q125 0 125 121q0 108 -119 108q-76 0 -141 -24l-12 54q84 35 171 35q95 0 140.5 -43.5t45.5 -113.5q0 -69 -30.5 -108t-73.5 -53q48 -7 87 -48t39 -115q0 -100 -60.5 -155
t-158.5 -55q-87 0 -183 37z" />
    <glyph glyph-name="four.LinTab" 
d="M273 675h114v-447h81v-71h-81v-157h-78v157h-282v62q121 247 246 456zM309 228v379h-2q-96 -165 -206 -379h208z" />
    <glyph glyph-name="five.LinTab" 
d="M391 675v-70h-239l-13 -205q49 7 95 7q204 0 204 -189q0 -107 -63 -166.5t-165 -59.5q-83 0 -175 35l8 54q97 -23 154 -23q75 0 116 37.5t41 110.5q0 68 -35.5 102.5t-114.5 34.5q-65 0 -138 -16l21 348h304z" />
    <glyph glyph-name="six.LinTab" 
d="M436 651l-9 -49q-73 19 -131 19q-80 0 -117.5 -64.5t-38.5 -210.5q84 48 151 48q79 0 120.5 -46t41.5 -129q0 -108 -52.5 -167.5t-142.5 -59.5q-45 0 -79 14t-62 48.5t-43 99t-15 158.5q0 108 18 183.5t51.5 115t73 56t89.5 16.5q79 0 145 -32zM141 289v-4
q0 -122 29.5 -177t92.5 -55q110 0 110 149q0 129 -107 129q-52 0 -125 -42z" />
    <glyph glyph-name="seven.LinTab" 
d="M462 614l-144 -305q-70 -151 -167 -317l-55 21l270 592h-322v70h418v-61z" />
    <glyph glyph-name="eight.LinTab" 
d="M441 527q0 -60 -33 -99t-92 -74q66 -35 103 -76t37 -110q0 -78 -53.5 -127t-157.5 -49q-100 0 -150.5 44t-50.5 120q0 65 36.5 107t102.5 80q-60 34 -92.5 73t-32.5 100q0 75 51.5 121t145.5 46q98 0 142 -42.5t44 -113.5zM376 160q0 28 -10 50.5t-31.5 41t-41 31
t-51.5 29.5q-57 -32 -87.5 -65t-30.5 -82q0 -54 33.5 -84t97.5 -30q54 0 87.5 29.5t33.5 79.5zM138 524q0 -48 30 -79t87 -61q52 31 79.5 61.5t27.5 73.5q0 106 -113 106q-52 0 -81.5 -27.5t-29.5 -73.5z" />
    <glyph glyph-name="nine.LinTab" 
d="M50 25l8 49q90 -20 150 -20q76 0 113.5 64.5t38.5 210.5q-84 -48 -151 -48q-80 0 -121 46t-41 129q0 108 52 167.5t142 59.5q45 0 79 -14t62.5 -48t43.5 -98.5t15 -158.5q0 -108 -18 -184t-51.5 -115.5t-71.5 -56t-87 -16.5q-84 0 -163 33zM358 386v4q0 122 -29 177
t-92 55q-111 0 -111 -149q0 -128 107 -128q55 0 125 41z" />
    <glyph glyph-name="S_u_p" horiz-adv-x="727" 
d="M204 592q0 -42 -30.5 -69t-79.5 -27q-50 0 -94 28l11 23q44 -19 77 -19q32 0 51 15t19 43q0 27 -24 45.5t-53.5 28.5t-53.5 33.5t-24 59.5q0 39 27.5 63.5t71.5 24.5q46 0 80 -23l-10 -23q-36 15 -64 15q-31 0 -46.5 -14.5t-15.5 -36.5t16.5 -38t39.5 -26t46 -21.5
t39.5 -32t16.5 -49.5zM451 500h-33l-4 29q-38 -33 -78 -33q-73 0 -73 110q0 14 1 64t1 77h39q0 -24 -0.5 -70t-0.5 -62q0 -87 47 -87q25 0 61 29v190h40v-247zM575 413h-40v334h32l4 -27q37 32 72 32q38 0 61 -33.5t23 -85.5q0 -69 -33 -103t-87 -34q-21 0 -32 1v-84z
M575 692v-161q17 -6 38 -6q32 0 52 25.5t20 75.5q0 43 -14 68.5t-39 25.5q-28 0 -57 -28z" />
    <glyph glyph-name="a.superior" horiz-adv-x="351" 
d="M296 364h-53l-5 36q-52 -41 -99 -41q-48 0 -77 25t-29 67q0 98 174 98h22v28q0 31 -16.5 45t-54.5 14q-42 0 -100 -18l-9 37q61 27 126 27q66 0 93.5 -25t27.5 -72v-221zM229 435v76h-27q-58 0 -80 -13.5t-22 -43.5q0 -23 15.5 -37.5t41.5 -14.5q35 0 72 33z" />
    <glyph glyph-name="b.superior" horiz-adv-x="367" 
d="M329 531q0 -88 -45 -131t-124 -43q-46 0 -103 11v437h67v-160q46 35 90 35q55 0 85 -41t30 -108zM260 521q0 51 -16.5 80.5t-48.5 29.5q-34 0 -71 -30v-191q25 -7 46 -7q47 0 68.5 28t21.5 90z" />
    <glyph glyph-name="c.superior" horiz-adv-x="305" 
d="M276 404q-46 -46 -112 -46q-128 0 -128 163q0 71 39.5 116t99.5 45q57 0 94 -40l-27 -34q-28 26 -60 26q-75 0 -75 -111q0 -115 76 -115q35 0 71 30z" />
    <glyph glyph-name="d.superior" horiz-adv-x="367" 
d="M310 364h-55l-5 36q-53 -41 -97 -41q-54 0 -84 42.5t-30 109.5q0 85 45 127t121 42q26 0 38 -2v129h67v-443zM243 439v191q-21 6 -45 6q-48 0 -69.5 -27.5t-21.5 -89.5q0 -51 16.5 -81t48.5 -30q34 0 71 31z" />
    <glyph glyph-name="e.superior" horiz-adv-x="342" 
d="M305 510h-199v-5q0 -53 20.5 -75.5t62.5 -22.5q45 0 105 20l10 -39q-60 -29 -124 -29q-73 0 -108.5 35t-35.5 121q0 78 39 122t104 44q138 0 126 -171zM242 549v1q0 89 -66 89q-33 0 -51 -24.5t-19 -65.5h136z" />
    <glyph glyph-name="f.superior" horiz-adv-x="203" 
d="M231 795l-12 -40q-27 11 -48 11q-37 0 -37 -45v-48h69v-45h-69v-264h-67v264h-50v45h50v46q0 95 89 95q37 0 75 -19z" />
    <glyph glyph-name="g.superior" horiz-adv-x="367" 
d="M310 373q0 -70 -35.5 -96.5t-100.5 -26.5q-53 0 -110 22l6 34q58 -10 99 -10q74 0 74 65v47q-45 -36 -90 -36q-54 0 -84 40.5t-30 104.5q0 81 45.5 122t120.5 41q47 0 105 -10v-297zM243 451v179q-21 6 -45 6q-47 0 -69 -26.5t-22 -84.5q0 -48 16.5 -77t48.5 -29
q35 0 71 32z" />
    <glyph glyph-name="h.superior" horiz-adv-x="377" 
d="M322 544q0 -20 -0.5 -83t-0.5 -97h-67q0 32 0.5 91.5t0.5 77.5q0 54 -13 76t-41 22q-39 0 -77 -32v-235h-67v443h67v-162q50 35 98 35q100 0 100 -136z" />
    <glyph glyph-name="i.superior" horiz-adv-x="183" 
d="M131 764q0 -18 -8.5 -25t-30.5 -7q-23 0 -31 7t-8 25q0 19 8.5 26t30.5 7q23 0 31 -7t8 -26zM126 364h-69v310h69v-310z" />
    <glyph glyph-name="j.superior" horiz-adv-x="183" 
d="M126 674v-283q0 -45 -16 -77t-54 -60l-42 19q43 46 43 104v297h69zM131 764q0 -18 -8.5 -25t-30.5 -7q-23 0 -31 7t-8 25q0 19 8.5 26t30.5 7q23 0 31 -7t8 -26z" />
    <glyph glyph-name="k.superior" horiz-adv-x="330" 
d="M317 364h-76l-113 159h-3v-159h-68v443h68v-255h3l96 122h76l-110 -128z" />
    <glyph glyph-name="l.superior" horiz-adv-x="191" 
d="M171 366q-22 -6 -47 -6q-35 0 -51 16t-16 56v375h68v-361q0 -25 5 -32.5t20 -7.5q11 0 18 1z" />
    <glyph glyph-name="m.superior" horiz-adv-x="559" 
d="M505 541q0 -18 -1 -80.5t-1 -96.5h-66q0 32 0.5 89.5t0.5 75.5q0 102 -54 102q-35 0 -75 -37q5 -18 5 -51v-179h-66v169q0 98 -52 98q-34 0 -72 -32v-235h-67v310h55l5 -35q51 41 103 41q53 0 78 -46q53 46 110 46q49 0 73 -32t24 -107z" />
    <glyph glyph-name="o.superior" horiz-adv-x="364" 
d="M329 525q0 -79 -41.5 -123t-112.5 -44q-140 0 -140 155q0 80 40.5 124.5t111.5 44.5q142 0 142 -157zM260 511q0 67 -19.5 95t-59.5 28q-36 0 -57 -27t-21 -81q0 -66 19 -93t60 -27q78 0 78 105z" />
    <glyph glyph-name="p.superior" horiz-adv-x="367" 
d="M329 531q0 -88 -44.5 -131t-121.5 -43q-21 0 -39 3v-104h-67v418h55l5 -35q51 41 97 41q55 0 85 -41t30 -108zM260 521q0 51 -16.5 80.5t-48.5 29.5q-34 0 -71 -30v-191q25 -7 46 -7q47 0 68.5 28t21.5 90z" />
    <glyph glyph-name="q.superior" horiz-adv-x="367" 
d="M310 256h-67v138q-49 -35 -90 -35q-54 0 -84 42.5t-30 109.5q0 85 45 127t121 42q47 0 105 -10v-414zM243 439v191q-21 6 -45 6q-48 0 -69.5 -27.5t-21.5 -89.5q0 -51 16.5 -81t48.5 -30q34 0 71 31z" />
    <glyph glyph-name="r.superior" horiz-adv-x="245" 
d="M233 673l-8 -56q-17 4 -28 4q-27 0 -73 -51v-206h-67v310h56l5 -54q51 60 85 60q15 0 30 -7z" />
    <glyph glyph-name="s.superior" horiz-adv-x="301" 
d="M266 453q0 -40 -35.5 -66.5t-93.5 -26.5q-57 0 -97 21l7 35q54 -12 79 -12q68 0 68 41q0 20 -12.5 31.5t-51.5 24.5q-49 17 -68 37t-19 56q0 39 32 62.5t81 23.5q46 0 86 -18l-9 -36q-36 11 -65 11q-56 0 -56 -37q0 -19 12.5 -30t50.5 -24q50 -17 70.5 -38t20.5 -55z" />
    <glyph glyph-name="t.superior" horiz-adv-x="238" 
d="M225 373q-36 -18 -80 -18q-41 0 -60.5 18.5t-19.5 60.5v194h-50v46h53q13 63 16 92h49v-92h83v-46h-83v-177q0 -28 7 -37.5t27 -9.5q24 0 50 9z" />
    <glyph glyph-name="u.superior" horiz-adv-x="377" 
d="M319 364h-54l-5 35q-55 -41 -105 -41q-101 0 -101 137q0 19 1 82t1 97h66q0 -31 -0.5 -89.5t-0.5 -79.5q0 -54 13.5 -76t41.5 -22q36 0 76 32v235h67v-310z" />
    <glyph glyph-name="v.superior" horiz-adv-x="316" 
d="M301 674q-32 -170 -103 -310h-84l-104 310h70l66 -190l15 -62h2q53 140 69 252h69z" />
    <glyph glyph-name="w.superior" horiz-adv-x="490" 
d="M476 674q-19 -131 -90 -310h-76l-61 205l-6 32h-2l-7 -34l-55 -203h-76l-93 310h70l54 -185l14 -56h2l11 51l50 190h70l61 -197l11 -44h2q40 129 57 241h64z" />
    <glyph glyph-name="x.superior" horiz-adv-x="320" 
d="M306 364h-76l-72 127h-1q-52 -82 -74 -127h-68l101 164l-88 146h75l60 -108h1q36 57 59 108h68l-87 -139z" />
    <glyph glyph-name="y.superior" horiz-adv-x="322" 
d="M307 674q-24 -122 -56 -209t-66 -132t-65.5 -64t-64.5 -19q-21 0 -45 11v38q21 -3 30 -3q31 0 52 21q27 27 27 50q0 16 -25 85l-78 222h70l59 -173q23 -65 22 -95h1q46 106 70 268h69z" />
    <glyph glyph-name="z.superior" horiz-adv-x="288" 
d="M257 413l-3 -49h-217v39l133 223h-128l2 48h204v-39l-134 -221z" />
    <glyph glyph-name="period.superior" horiz-adv-x="195" 
d="M138 398q0 -25 -8 -33t-33 -8q-26 0 -33 7.5t-7 33.5q0 25 7.5 33t33.5 8t33 -7.5t7 -33.5z" />
    <glyph glyph-name="comma.superior" horiz-adv-x="195" 
d="M50 251l-26 27q52 38 52 70q0 10 -9.5 20.5t-9.5 27.5q0 26 7.5 34.5t34.5 8.5q24 0 31.5 -9.5t7.5 -32.5q0 -49 -21 -83t-67 -63z" />
    <glyph glyph-name="I_n_f" horiz-adv-x="521" 
d="M42 0h-42v337h42v-337zM315 0h-39q0 24 0.5 70.5t0.5 62.5q0 47 -11.5 66.5t-35.5 19.5q-25 0 -61 -29v-190h-39v247h32l3 -28q40 33 78 33q74 0 74 -110q0 -15 -1 -65.5t-1 -76.5zM521 344l-9 -24q-16 8 -33 8q-35 0 -35 -41v-40h55v-28h-55v-219h-39v219h-40v28h40v38
q0 73 63 73q27 0 53 -14z" />
    <glyph glyph-name="period.inferior" horiz-adv-x="195" 
d="M138 -24q0 -25 -8 -33t-33 -8q-26 0 -33 7.5t-7 33.5q0 25 7.5 33t33.5 8t33 -7.5t7 -33.5z" />
    <glyph glyph-name="comma.inferior" horiz-adv-x="195" 
d="M50 -171l-26 27q52 38 52 70q0 10 -9.5 20.5t-9.5 27.5q0 26 7.5 34.5t34.5 8.5q24 0 31.5 -9.5t7.5 -32.5q0 -49 -21 -83t-67 -63z" />
    <glyph glyph-name="designer" horiz-adv-x="1000" 
d="M784 88q-6 -9 -21.5 -11.5t-19.5 -6.5q-36 -4 -43 -28q-3 -9 -10.5 -24.5t-11 -29.5t-1.5 -28q3 -12 21 -6q1 0 4.5 4t6.5 2q2 -3 1.5 -4t-2.5 -4t-3 -5q-17 -13 -30 -5q-15 18 -11 36q4 20 28 74q-7 5 -24.5 0.5t-25.5 -0.5q5 8 22 14q4 1 13.5 1t16 2.5t10.5 10.5t4 22
v24q-4 1 -4 12q-2 5 -5.5 9.5t-6 7.5t-7.5 5t-8 3t-9.5 2t-8 1t-9 0.5t-8.5 0.5q-17 -1 -33 -16.5t-23 -35.5q-10 -29 2 -65q-2 -13 9.5 -42.5t4.5 -49.5q-7 -7 -21 -1q-6 4 -9 11.5t-5 21.5t-3 17q4 4 5 17.5t4 17.5q5 18 -5 24q-5 -1 -19 -1.5t-23 -3t-16 -9.5
q4 -19 3 -44.5t-15 -37.5q-9 -3 -19 4q-4 4 -6 10.5t-2 10.5t0.5 13t0.5 12q1 4 4.5 12.5t5.5 13.5t5 11t7.5 10.5t9.5 6.5q8 -6 27 1l39 1q3 3 3.5 13t1.5 13q7 30 26 52t43 24q32 4 51 -8q1 -7 9 -13t9 -13q8 -16 1 -68q17 0 70 12zM459 68q-4 -4 -13 2t-14 2
q-8 -7 -11.5 -24.5t-7.5 -23.5q0 -8 -3 -25.5t-3 -26.5q-8 -5 -11 -4q-5 2 -3 18t2 18q4 6 4 22t3 22q-2 4 -2.5 14t-0.5 11q-2 1 -6 -2t-6 1q1 10 11 18q8 0 15 -18q3 1 8 8.5t8 9t10 -3.5zM352 113q0 -20 1.5 -73t0.5 -80t-11 -64.5t-31 -63.5q-53 -41 -116 -19
q-10 7 -10 14q4 29 18 34q-8 -23 -10 -33q22 -15 50 -12.5t51 17.5q14 6 21 17.5t13.5 34t8.5 27.5q7 57 5 146q2 7 0.5 24t-0.5 24q-1 5 -10 1q-4 -5 -8.5 -17t-8.5 -16q1 -10 -8.5 -20t-9.5 -18q-22 -30 -58 -94q-1 -2 -2 -5t-2 -5t-2.5 -4t-3.5 -2.5t-4 -0.5
q-6 5 -4 29.5t1 31.5q13 56 21 70q18 59 52 86q2 3 7 1.5t6.5 -1.5t6.5 -3t6 -4t5.5 -4.5t5.5 -4.5q6 9 10 24q9 -4 9 -20q-3 -2 -1 -8t1 -9zM611 331q-11 -2 -49.5 -16t-61.5 -12q-8 -9 -4 -30q3 -17 15 -12q1 1 3 10t6 11q6 -15 -6 -33q-4 -1 -12 -2t-14.5 12.5t-3.5 38.5
q-7 9 -4 14q5 5 7.5 12t3 18.5t1.5 15.5q-1 0 -2 2l-2 2q-10 -9 -21.5 -32t-16.5 -29q0 -9 -10 -23.5t-8 -25.5q-2 -2 -3 -15.5t-9 -14.5q-9 3 -11.5 10t-1 19.5t0.5 16.5q-2 13 0.5 35t1.5 33q-6 -4 -10.5 -16t-6.5 -15q-1 -2 -8.5 -17.5t-14 -21t-16.5 -2.5q-12 23 10 72
q2 2 7.5 11t8.5 12t10 7.5t12 -0.5q4 -3 8 0q12 34 16 90l8 8q6 -2 6 -6.5t-2.5 -11t-1.5 -10.5q-1 -10 -6.5 -49.5t-6.5 -60.5q0 -6 -2 -19.5t-2 -19t2 -19.5q3 5 21 40.5t32 51.5q10 18 26 30q4 -4 12 -14t12 -14v-40q7 2 36 9t45 13q7 -5 6 -13zM877 703q-6 77 -48 101
q4 7 8 8t8.5 -3t7 -7.5t7 -11t5.5 -8.5q46 -69 9 -182q-26 -78 -83 -108q26 24 38 48q35 43 39 80q13 26 9 83zM805 602q-6 -21 -19 -25q-7 3 -16 17l2 14q2 -1 3 -7.5t5 -8.5q6 -2 13 11q7 50 -12 87l-5 -3q-2 -3 -10.5 -12.5t-13 -16.5t-8.5 -16l-6 -4q-7 -8 -18.5 -28
t-18.5 -28q-6 -1 -8 3t-3 11.5t-2 10.5q2 10 -3 17q-3 1 -5 -4t-3 -6q-12 -15 -25 -16q-11 4 -12.5 12t1.5 22.5t3 21.5q4 19 27 50q2 0 8 3t9.5 3.5t8 -1t7.5 -7.5l4 -6q-4 -13 -9 -72q3 -10 6 -10q7 0 12 11t7 13q24 26 62 78q8 -3 9.5 -20.5t3.5 -21.5q4 -3 2 -8
q9 -24 4 -64zM696 798q-7 -16 -19 -14q-3 13 -9 6q-62 -60 -75 -108q-15 -115 27 -156q4 -4 10 -5.5t14.5 -1t11.5 0.5q4 3 9 9t8 8q1 -5 -1.5 -9t-8 -8t-7.5 -6q-26 -13 -49 12q-18 21 -22 46q-5 3 -3 11t-2 11q2 4 -0.5 14t0.5 16q0 93 91 182q2 0 5.5 1t6.5 1.5t6 0.5
t5 -3t2 -8zM550 620q-6 -17 -18.5 -29.5t-27.5 -12.5q-35 0 -51 32q-8 17 -4 50q1 5 6 14.5t5 15.5q24 24 52 12q1 -1 3 -2.5t3 -2t1.5 -2.5t0.5 -5q-2 -2 -3.5 -1t-4 3t-4.5 2q-22 7 -40 -16q-16 -33 -8 -55q17 -30 43 -34q1 1 13 3.5t17 10.5q3 2 5.5 8t5 9t6.5 0z
M427 592q-2 -5 -5 -15t-6 -18t-7 -15q-9 -5 -17 10q-13 36 -8 75q-1 1 0.5 24.5t-1.5 30.5q-5 -15 -6 -58t-16 -62q-2 -3 -8 -4t-14 9t-11 33q2 14 4 38t3 34q0 2 -2 14.5t3 13.5q6 3 11 -4q0 -15 -2 -40.5t-2 -44.5t5 -31q7 -6 10 -0.5t4 16t3 12.5q2 10 2.5 39.5t4.5 44.5
q1 2 2.5 6t2.5 6.5t3.5 5.5t4.5 2.5t6 -2.5q7 -26 5.5 -76t4.5 -76q1 -3 4 -4t5 3l2 9q3 8 7 16t8 8zM302 562q-12 -12 -67 -17q-57 -6 -102 -25q-5 -13 -22 -2q-1 7 5.5 13.5t7.5 10.5q9 24 15 48q-1 4 7 26q45 132 59 208q-2 15 3 21q3 1 4.5 0t3 -4.5t2.5 -4.5
q-8 -56 -40.5 -152.5t-41.5 -139.5l2 -2q11 2 36.5 8t44 9.5t37.5 3.5q25 -6 44 3zM591 -32q8 23 -8 54q-5 -8 -7 -27q5 -25 15 -27zM495 49l-11 -19q-6 -29 -1 -46q6 -8 14 1q9 8 4 22q10 38 -6 42zM324 116q-3 10 -12.5 13t-16.5 -2q-23 -25 -32 -40q-3 -12 -12.5 -37.5
t-14 -45.5t-2.5 -40q1 0 5 4q9 14 29.5 43.5t34.5 54t21 50.5zM505 330q9 21 -1 24l-4 -29q3 1 5 5zM396 332l-1 20q-10 3 -19 -14q-24 -40 -16 -63q5 -3 8 7q19 23 28 50zM688 697q-2 3 -5 -0.5t-4 -2.5q-32 -20 -30 -80q3 -1 9 4t10 4q2 5 10 19t9.5 21t-3.5 22q4 0 4 13z
" />
    <glyph glyph-name="FoFa" horiz-adv-x="960" 
d="M771 -58l-4 -4q-13 1 -47.5 -2.5t-49.5 -1.5q-31 1 -104 -3.5t-113 -0.5q-24 -4 -96 3q-13 1 -121 1q-68 0 -100 -8q-12 -2 -15 4q0 4 -1 19.5t0 26t4 19.5q1 10 1 37.5t2 42.5q-3 15 -1 44.5t0 44.5q0 25 3 71.5t4 59.5q2 26 1 71.5t0 71.5q3 6 13.5 6t12.5 1
q2 -4 18.5 -2.5t18.5 1.5q12 12 13 1q1 -1 0.5 -6t2.5 -6q-1 -37 -1 -54.5t3.5 -74t4.5 -72.5q22 7 59 28t57 28q3 1 9.5 5.5t11.5 6.5q8 4 10 3q3 -1 4 -3.5t0 -7.5t-1 -6q-10 -29 -5 -61q1 -2 3 -2.5t3.5 0t4 1t3.5 0.5q6 5 17.5 12t16.5 10q25 15 41 21q36 25 48 29
l20 16q1 4 6 7q3 0 11 -6q0 -9 3 -28t3 -29q1 -2 3.5 -2.5t2.5 -1.5q3 -4 -2 -20l2 -2q23 5 61 32t60 32q3 3 10.5 6t11.5 7q3 0 16 9.5t22 2.5q6 0 7 -4q-1 -3 4 -12q-1 -4 0 -14t-2 -13q0 -5 -0.5 -16t0.5 -18.5t5 -13.5q-1 -4 2.5 -12.5t-0.5 -10.5q2 -25 4 -27
q2 -14 -1 -18q1 -5 2.5 -21t4.5 -25v-16q0 -26 6 -74.5t6 -72.5l1 -4q1 -4 0 -5zM458 30q3 5 4.5 10t1.5 10.5t0.5 9.5t-0.5 11t-1.5 10t-2.5 11.5t-2 10.5q1 4 -4.5 7.5t-12.5 7t-8 4.5q-6 6 -8 -1q-11 1 -19 -4q-4 -2 -8 -8t-6 -7q-5 -3 -9 3q5 24 -3 74l-2 7h-8
q-4 -1 -6 -4.5t-2 -6.5v-7.5t-1 -6.5q-2 -11 -2 -34t-2 -34q1 -11 0 -32.5t0 -31.5q0 -5 -1.5 -17t-0.5 -19q9 -5 31 5q8 2 10.5 0.5t6.5 -7t7 -7.5q8 0 13 1q12 7 24 20.5t11 24.5zM452 664q-12 -13 -29 -8q-13 18 -14 24q-6 9 -16 16t-18 9t-23 5.5t-21 5.5l-31 2
q-2 -2 -6.5 -1.5t-6.5 -0.5q-33 -10 -55 -21q-1 -2 -13.5 -11.5t-13.5 -18.5q-9 -22 -11 -70q0 -3 10.5 -2.5t11.5 0.5q19 2 86 2q1 -1 1.5 -3.5t-0.5 -3.5q-5 -5 -15.5 -0.5t-15.5 2.5q-7 0 -21 -1t-20 0q-4 -1 -12 -1.5t-14 -1.5t-10 -4l-3 -4q-2 -25 1 -63v-14t4 -14
q19 -1 38 1t31 2q2 2 13 -1q1 -1 1 -2v-2l-4 -2q-12 4 -39 0.5t-46 -2.5q-37 -3 -46 -2q-45 -2 -64 3l-2 3q3 3 9 5q4 -2 39 -7q24 3 26 4q-1 19 4.5 49.5t6.5 43.5l-3 4q-6 0 -18.5 -0.5t-21 0.5t-16.5 5q-2 5 3 5q18 -5 56 -3l2 3q6 47 15 66v3q47 55 119 62q31 4 70 -13
q2 -1 9.5 -1.5t10.5 -2.5q43 -9 62 -35q2 -2 0 -9zM739 -10q-11 24 -18 32q-2 4 -8 12.5t-9.5 15.5t-4.5 15q-7 14 -6 17q5 6 17 13.5t16 12.5l-9 17q-7 -1 -18 -5.5t-13 -4.5q-1 -1 -4 -3t-5 -3.5t-5 -1t-5 2.5q2 53 1 78l-2 3q-6 0 -27 7q-5 -35 -3 -48q-2 -5 -0.5 -19.5
t-1.5 -19.5q1 -18 -1 -51.5t0 -51.5l-1 -7h24q1 0 6 -1.5t6 1.5q0 18 -1 28q0 3 -1 8t-1.5 8.5t1 7t6.5 4.5q4 -2 6 -7.5t3 -7.5q-1 -5 4 -12.5t6 -10.5q7 -4 15 -16.5t14 -16.5q2 0 6 -1.5t7 -0.5q6 0 6 6zM248 181q-12 2 -52 0q-18 -2 -27 -8q-1 -12 -3.5 -35.5
t-3.5 -29.5q2 -19 1.5 -54.5t0.5 -55.5q1 0 7 1t7 0q3 1 11.5 -0.5t11.5 0.5l2 63q2 5 16 12q2 1 8 0.5t7 2.5l-1 28q-3 4 -21 4q-4 -4 -7 -4q-3 1 -5 3.5t-2 5.5t-0.5 7t-1.5 6q-2 4 4 10q13 4 39 8l6 4q-1 7 1 17.5t2 14.5zM333 34q-4 12 -3 44t-7 41q-11 7 -23 12l-8 5
h-14t-19 -5q-6 -3 -8 -26q8 -3 15.5 -1t16.5 0.5t13 -8.5q0 -2 2 -6t-1 -6q-3 -6 1 -8q5 -7 -3 -9q-5 -2 -14.5 -2t-13.5 -1q-19 -7 -25 -37q-2 -3 -0.5 -10.5t-1.5 -10.5q0 -11 15 -17q5 5 8 2q5 -1 9.5 1.5t10.5 7.5t9 7q6 1 7 -2.5t-0.5 -9t2.5 -8.5q2 -2 8 0t8 2
q2 1 5 1.5t5.5 1.5t4.5 3zM447 559q3 -19 -7 -31q-4 -3 -12.5 -10t-15 -11t-14.5 -5q-4 1 -6.5 -3.5t-6.5 -1.5q-1 3 -12 2t-13 -1q-14 0 -21 3q-24 21 -18 36q7 21 24 30q32 16 47 13q45 -2 55 -21zM880 571q0 -4 -2 -4q-5 1 -42 -2q-67 -3 -90 -7q-6 -5 -7 -17t-3 -16
q0 -3 2 -8.5t2 -6.5q4 -5 14 -7q17 2 23 13q0 7 -7 12q-3 2 -10 2.5t-10 4.5q2 3 5 4t9 0t8 -1q10 -3 15 -16q-1 -15 -18 -27l-21 -5q-35 9 -45 24q-4 1 -1 22l4 22q-1 3 -3.5 3.5t-5.5 0t-6 0.5l-33 -1q0 1 -1 2t-1 2q2 2 8 3h6q5 -1 11.5 -1t14.5 0.5t12 0.5q5 4 5 17
q1 3 3 14.5t6 15.5q4 1 5.5 0.5t4.5 -3.5l4 -4q4 -5 3.5 -17t1.5 -19q0 -5 10.5 -4.5t11.5 0.5q4 0 43.5 1t69.5 5q3 -2 4 -3zM560 123q-24 -2 -30 -13q-2 -2 -3 -5.5t-2 -6t-3.5 -4.5t-6.5 -1q-2 7 -2 29q-2 2 -7 0t-8 0q-7 -4 -11 -13q0 -73 4 -111l3 -4q3 -3 11.5 -1.5
t11.5 0.5q-2 7 -0.5 21t-1.5 20q6 31 16 44q4 3 13 6t13 7q0 4 1.5 11t2 10.5t-0.5 10.5zM651 504l-3 -2q-35 0 -51 -5q-11 5 -13 8q6 37 1 56q-2 2 -14 -4q-39 -24 -41 -48q-10 -10 -19 -5q-4 3 -3 15t0 16l-1 31q-2 2 -8 1.5t-10 0.5q-1 1 -4 1t-5 0.5t-2 3.5q7 0 26 1.5
t26 -0.5q4 -3 3 -14.5t6 -12.5q8 4 25 14t27 14q2 -1 12 -1t12 -8t2 -23.5v-19.5q1 -1 1.5 -5.5t2.5 -6.5q9 -2 13 0q2 0 7.5 -1t9.5 -1q3 -3 0 -5zM610 15q0 13 -1 38.5t-1 37.5v26q-2 5 -13.5 2.5t-14.5 -2.5q-5 0 -5 -24v-26l-3 -26q1 -3 1 -19.5t5 -24.5q15 0 30 5
q2 4 2 13zM425 539q-7 31 -26 34q-1 -3 -3.5 -3.5t-6 0t-4.5 0.5q-15 7 -26 -6q-2 -3 -3.5 -6.5t-1.5 -7t-0.5 -6t1 -6.5t2 -6t3.5 -6.5t3.5 -6t3.5 -6t4 -5.5q1 -2 3 -2.5t4 0t5 -0.5h9t8 3l8 4q2 2 7 5.5t6.5 5.5t4 7t-0.5 9zM430 77q14 -30 -9 -55q-1 -1 -12 -7
q-6 1 -9.5 5t-4.5 7.5t-2 11t-2 9.5q1 2 2.5 14.5t5.5 17.5q3 2 9 10t12 8l3 -3q-2 -5 2.5 -10.5t4.5 -7.5zM608 179q-4 12 -12 15q-7 7 -10 0q-13 -18 -4 -30q3 -11 19 -4q9 6 7 19zM295 42q0 -11 -14 -23l-7 -3q-6 -3 -10 -1q-4 1 -5 3.5t1 8.5l2 6q0 6 9 10q6 0 10 4
q13 -3 14 -5z" />
    <glyph glyph-name="LuFo" horiz-adv-x="180" 
d="M180 -20v-180h-180v180h180zM160 -40h-140v-140h140v140zM40 -160v100h20v-80h40v-20h-60zM80 -60h60v-100h-20v40h-40v20h40v20h-40v20zM180 885v-180h-180v180h180zM160 865h-140v-140h140v140zM40 745v100h20v-80h40v-20h-60zM80 845h60v-100h-20v40h-40v20h40v20h-40
v20z" />
    </font>
</defs>
</svg>
