<?xml version="1.0" standalone="no"?>
<!DOCTYPE svg PUBLIC "-//W3C//DTD SVG 1.1//EN" "http://www.w3.org/Graphics/SVG/1.1/DTD/svg11.dtd" >
<svg xmlns="http://www.w3.org/2000/svg" xmlns:xlink="http://www.w3.org/1999/xlink" version="1.1">
<metadata>
Created by FontForge 20170731 at Wed Nov  9 19:20:13 2016
 By Aleksey,,,
Copyright (c) Luc[as] de Groot, published by LucasFonts, 2002, 2004, 2007, 2009, 2016. All rights reserved.
</metadata>
<defs>
<font id="FHPSun-Black" horiz-adv-x="500" >
  <font-face 
    font-family="FHP Sun Black"
    font-weight="900"
    font-stretch="normal"
    units-per-em="1000"
    panose-1="2 11 9 3 5 3 2 2 2 3"
    ascent="800"
    descent="-200"
    x-height="509"
    cap-height="675"
    bbox="-290 -200 1776 885"
    underline-thickness="142"
    underline-position="-397"
    unicode-range="U+000D-1F6C8"
  />
<missing-glyph horiz-adv-x="550" 
d="M300 150h-150v250h50v-200h100v-50zM500 50h-450v450h450v-450zM350 350h-100v50h150v-250h-50v100h-100v50h100v50zM100 100h350v350h-350v-350z" />
    <glyph glyph-name="f_f" unicode="ff" horiz-adv-x="617" 
d="M647 689l-23 -111q-25 5 -47 5q-17 0 -24 -8t-7 -26v-40h62v-137h-62v-372h-200v372h-99v-372h-200v372h-41v137h41v26q0 89 37 134t125 45q70 0 128 -29l-18 -116q-22 4 -41 4q-17 0 -24 -8t-7 -26v-30h99v36q0 89 37 134t125 45q74 0 139 -35z" />
    <glyph glyph-name="fi" unicode="fi" horiz-adv-x="584" 
d="M546 0h-200v372h-99v-372h-200v372h-41v137h41v37q0 89 36.5 133.5t124.5 44.5q59 0 110 -20l-17 -123q-14 2 -28 2q-15 0 -20.5 -7.5t-5.5 -25.5v-41h299v-509zM562 626q0 -54 -25 -76t-91 -22q-68 0 -92 21t-24 77q0 54 25 76t91 22q68 0 92 -21t24 -77z" />
    <glyph glyph-name="fl" unicode="fl" horiz-adv-x="593" 
d="M586 122l7 -114q-51 -19 -128 -19q-60 0 -91 24t-31 82v481q-26 8 -54 8q-24 0 -33 -9.5t-9 -32.5v-33h50v-137h-50v-372h-200v372h-41v137h41v24q0 100 41 145.5t152 45.5q55 0 119 -15h184v-534q0 -35 5.5 -44t21.5 -9h16z" />
    <glyph glyph-name="f_f_i" unicode="ffi" horiz-adv-x="883" 
d="M845 0h-200v372h-99v-372h-200v372h-99v-372h-200v372h-41v137h41v26q0 89 37 134t125 45q70 0 128 -29l-18 -116q-22 4 -41 4q-17 0 -24 -8t-7 -26v-30h99v37q0 89 36.5 133.5t124.5 44.5q59 0 110 -20l-17 -123q-14 2 -28 2q-15 0 -20.5 -7.5t-5.5 -25.5v-41h299v-509z
M861 626q0 -54 -25 -76t-91 -22q-68 0 -92 21t-24 77q0 54 25 76t91 22q68 0 92 -21t24 -77z" />
    <glyph glyph-name="f_f_l" unicode="ffl" horiz-adv-x="892" 
d="M885 122l7 -114q-51 -19 -128 -19q-60 0 -91 24t-31 82v481q-26 8 -54 8q-24 0 -33 -9.5t-9 -32.5v-33h50v-137h-50v-372h-200v372h-99v-372h-200v372h-41v137h41v26q0 89 37 134t125 45q70 0 128 -29l-23 -115q-16 3 -36 3q-17 0 -24 -8t-7 -26v-30h99v24
q0 100 41 145.5t152 45.5q55 0 119 -15h184v-534q0 -35 5.5 -44t21.5 -9h16z" />
    <glyph glyph-name="f_b" unicode="fb" horiz-adv-x="864" 
d="M546 709v-226q49 41 109 41q51 0 89.5 -20.5t60 -56t31.5 -78t10 -92.5q0 -292 -289 -292q-99 0 -211 27v564q-27 8 -57 8q-24 0 -33 -9.5t-9 -32.5v-33h50v-137h-50v-372h-200v372h-41v137h41v24q0 100 41 145.5t152 45.5q56 0 122 -15h184zM546 352v-222q14 -6 34 -6
q63 0 63 131q0 117 -47 117q-22 0 -50 -20z" />
    <glyph glyph-name="f_f_b" unicode="ffb" horiz-adv-x="1163" 
d="M845 709v-226q49 41 109 41q51 0 89.5 -20.5t60 -56t31.5 -78t10 -92.5q0 -292 -289 -292q-99 0 -211 27v564q-27 8 -57 8q-24 0 -33 -9.5t-9 -32.5v-33h50v-137h-50v-372h-200v372h-99v-372h-200v372h-41v137h41v26q0 89 37 134t125 45q70 0 128 -29l-18 -116
q-22 4 -41 4q-17 0 -24 -8t-7 -26v-30h99v24q0 100 41 145.5t152 45.5q56 0 122 -15h184zM845 352v-222q14 -6 34 -6q63 0 63 131q0 117 -47 117q-22 0 -50 -20z" />
    <glyph glyph-name="f_h" unicode="fh" horiz-adv-x="864" 
d="M546 709v-228q50 43 121 43q86 0 124.5 -56t38.5 -181q0 -22 -2 -120t-2 -167h-201q0 64 2 153t2 106q0 51 -3.5 74t-9 27.5t-19.5 4.5q-19 0 -51 -16v-349h-200v576q-27 8 -57 8q-24 0 -33 -9.5t-9 -32.5v-33h50v-137h-50v-372h-200v372h-41v137h41v24q0 100 41 145.5
t152 45.5q56 0 122 -15h184z" />
    <glyph glyph-name="f_f_h" unicode="ffh" horiz-adv-x="1163" 
d="M845 709v-228q50 43 121 43q86 0 124.5 -56t38.5 -181q0 -22 -2 -120t-2 -167h-201q0 64 2 153t2 106q0 51 -3.5 74t-9 27.5t-19.5 4.5q-19 0 -51 -16v-349h-200v576q-27 8 -57 8q-24 0 -33 -9.5t-9 -32.5v-33h50v-137h-50v-372h-200v372h-99v-372h-200v372h-41v137h41
v26q0 89 37 134t125 45q70 0 128 -29l-18 -116q-22 4 -41 4q-17 0 -24 -8t-7 -26v-30h99v24q0 100 41 145.5t152 45.5q56 0 122 -15h184z" />
    <glyph glyph-name="f_igrave" unicode="f&#xec;" horiz-adv-x="584" 
d="M546 0h-200v372h-99v-372h-200v372h-41v137h41v40q0 87 33.5 131t114.5 44q54 0 101 -20l-9 -123q-10 2 -21 2q-19 0 -19 -27v-47h299v-509zM471 731l75 -163l-111 -26l-117 153z" />
    <glyph glyph-name="f_iacute" unicode="f&#xed;" horiz-adv-x="584" 
d="M546 0h-200v372h-99v-372h-200v372h-41v137h41v37q0 89 36.5 133.5t124.5 44.5q59 0 110 -20l-17 -123q-14 2 -28 2q-15 0 -20.5 -7.5t-5.5 -25.5v-41h299v-509zM613 668l-171 -121l-100 48l135 138z" />
    <glyph glyph-name="f_icircumflex" unicode="f&#xee;" horiz-adv-x="584" 
d="M595 612l-61 -72l-89 63l-91 -63l-59 71l154 132zM546 0h-200v372h-99v-372h-200v372h-41v137h41v40q0 87 33.5 131t114.5 44q54 0 101 -20l-14 -123q-8 2 -18 2q-17 0 -17 -27v-47h299v-509z" />
    <glyph glyph-name="f_itilde" unicode="f&#x129;" horiz-adv-x="584" 
d="M538 696l65 -55q-38 -97 -119 -97q-34 0 -60.5 18.5t-32.5 18.5q-10 0 -17.5 -8t-19.5 -29l-65 55q38 97 119 97q34 0 60.5 -18.5t32.5 -18.5q10 0 17.5 8t19.5 29zM546 0h-200v372h-99v-372h-200v372h-41v137h41v40q0 87 32.5 131t109.5 44q56 0 98 -18l-9 -124
q-7 1 -12 1q-19 0 -19 -27v-47h299v-509z" />
    <glyph glyph-name="f_idieresis" unicode="f&#xef;" horiz-adv-x="584" 
d="M630 628q0 -44 -18 -63.5t-62 -19.5q-45 0 -62.5 18.5t-17.5 64.5q0 45 18 64.5t62 19.5t62 -19t18 -65zM456 628q0 -44 -18 -63.5t-62 -19.5t-62 18.5t-18 64.5q0 45 18 64.5t62 19.5q45 0 62.5 -18.5t17.5 -65.5zM546 0h-200v372h-99v-372h-200v372h-41v137h41v40
q0 87 32.5 131t109.5 44q56 0 98 -18l-9 -124q-7 1 -12 1q-19 0 -19 -27v-47h299v-509z" />
    <glyph glyph-name="f_imacron" unicode="f&#x12b;" horiz-adv-x="584" 
d="M589 565h-286v135h286v-135zM546 0h-200v372h-99v-372h-200v372h-41v137h41v40q0 87 32.5 131t109.5 44q56 0 98 -18l-9 -124q-7 1 -12 1q-19 0 -19 -27v-47h299v-509z" />
    <glyph glyph-name="f_ibreve" unicode="f&#x12d;" horiz-adv-x="584" 
d="M494 707h105q0 -83 -39.5 -126t-108.5 -43q-145 0 -145 169h105q-1 -34 8.5 -46t31.5 -12q23 0 33 12t10 46zM546 0h-200v372h-99v-372h-200v372h-41v137h41v40q0 87 32.5 131t109.5 44q56 0 98 -18l-9 -124q-7 1 -12 1q-19 0 -19 -27v-47h299v-509z" />
    <glyph glyph-name="f_iogonek" unicode="f&#x12f;" horiz-adv-x="584" 
d="M546 509v-509q-50 0 -74 -21t-24 -49q0 -17 24 -17q20 0 36 9l23 -82q-56 -28 -118 -28q-119 0 -119 81q0 57 52 107v372h-99v-372h-200v372h-41v137h41v37q0 89 36.5 133.5t124.5 44.5q59 0 110 -20l-17 -123q-14 2 -28 2q-15 0 -20.5 -7.5t-5.5 -25.5v-41h299zM562 627
q0 -53 -24.5 -76t-91.5 -23q-68 0 -92 21.5t-24 77.5q0 52 25 74.5t91 22.5q68 0 92 -20.5t24 -76.5z" />
    <glyph glyph-name="f_dotlessi" unicode="f&#x131;" horiz-adv-x="584" 
d="M546 0h-200v372h-99v-372h-200v372h-41v137h41v37q0 89 36.5 133.5t124.5 44.5q59 0 110 -20l-17 -123q-14 2 -28 2q-15 0 -20.5 -7.5t-5.5 -25.5v-41h299v-509z" />
    <glyph glyph-name="f_f_igrave" unicode="ff&#xec;" horiz-adv-x="883" 
d="M845 568l-111 -26l-117 153l153 36zM845 0h-200v372h-99v-372h-200v372h-99v-372h-200v372h-41v137h41v26q0 89 37 134t125 45q70 0 128 -29l-18 -116q-22 4 -41 4q-17 0 -24 -8t-7 -26v-30h99v40q0 87 33.5 131t114.5 44q54 0 101 -20l-9 -123q-10 2 -21 2
q-19 0 -19 -27v-47h299v-509z" />
    <glyph glyph-name="f_f_iacute" unicode="ff&#xed;" horiz-adv-x="883" 
d="M845 0h-200v372h-99v-372h-200v372h-99v-372h-200v372h-41v137h41v26q0 89 37 134t125 45q70 0 128 -29l-18 -116q-22 4 -41 4q-17 0 -24 -8t-7 -26v-30h99v37q0 89 36.5 133.5t124.5 44.5q59 0 110 -20l-17 -123q-14 2 -28 2q-15 0 -20.5 -7.5t-5.5 -25.5v-41h299v-509z
M912 668l-171 -121l-100 48l135 138z" />
    <glyph glyph-name="f_f_icircumflex" unicode="ff&#xee;" horiz-adv-x="883" 
d="M894 612l-61 -72l-89 63l-91 -63l-59 71l154 132zM845 0h-200v372h-99v-372h-200v372h-99v-372h-200v372h-41v137h41v26q0 89 37 134t125 45q70 0 128 -29l-18 -116q-22 4 -41 4q-17 0 -24 -8t-7 -26v-30h99v40q0 87 33.5 131t114.5 44q54 0 101 -20l-14 -123q-8 2 -18 2
q-17 0 -17 -27v-47h299v-509z" />
    <glyph glyph-name="f_f_itilde" unicode="ff&#x129;" horiz-adv-x="883" 
d="M837 696l65 -55q-38 -97 -119 -97q-34 0 -60.5 18.5t-32.5 18.5q-10 0 -17.5 -8t-19.5 -29l-65 55q38 97 119 97q34 0 60.5 -18.5t32.5 -18.5q10 0 17.5 8t19.5 29zM845 0h-200v372h-99v-372h-200v372h-99v-372h-200v372h-41v137h41v26q0 88 37 133.5t125 45.5
q71 0 128 -29l-18 -116q-22 4 -41 4q-17 0 -24 -8t-7 -26v-30h99v40q0 87 32.5 131t109.5 44q56 0 98 -18l-9 -124q-7 1 -12 1q-19 0 -19 -27v-47h299v-509z" />
    <glyph glyph-name="f_f_idieresis" unicode="ff&#xef;" horiz-adv-x="883" 
d="M929 628q0 -44 -18 -63.5t-62 -19.5q-45 0 -62.5 18.5t-17.5 64.5q0 45 18 64.5t62 19.5t62 -19t18 -65zM755 628q0 -44 -18 -63.5t-62 -19.5t-62 18.5t-18 64.5q0 45 18 64.5t62 19.5q45 0 62.5 -18.5t17.5 -65.5zM845 0h-200v372h-99v-372h-200v372h-99v-372h-200v372
h-41v137h41v26q0 89 37 134t125 45q70 0 128 -29l-18 -116q-22 4 -41 4q-17 0 -24 -8t-7 -26v-30h99v40q0 87 32.5 131t109.5 44q56 0 98 -18l-9 -124q-7 1 -12 1q-19 0 -19 -27v-47h299v-509z" />
    <glyph glyph-name="f_f_imacron" unicode="ff&#x12b;" horiz-adv-x="883" 
d="M888 565h-286v135h286v-135zM845 0h-200v372h-99v-372h-200v372h-99v-372h-200v372h-41v137h41v26q0 89 37 134t125 45q70 0 128 -29l-18 -116q-22 4 -41 4q-17 0 -24 -8t-7 -26v-30h99v40q0 87 32.5 131t109.5 44q56 0 98 -18l-9 -124q-7 1 -12 1q-19 0 -19 -27v-47h299
v-509z" />
    <glyph glyph-name="f_f_ibreve" unicode="ff&#x12d;" horiz-adv-x="883" 
d="M793 707h105q0 -83 -39.5 -126t-108.5 -43q-145 0 -145 169h105q-1 -34 8.5 -46t31.5 -12q23 0 33 12t10 46zM845 0h-200v372h-99v-372h-200v372h-99v-372h-200v372h-41v137h41v26q0 89 37 134t125 45q70 0 128 -29l-18 -116q-22 4 -41 4q-17 0 -24 -8t-7 -26v-30h99v40
q0 87 32.5 131t109.5 44q56 0 98 -18l-9 -124q-7 1 -12 1q-19 0 -19 -27v-47h299v-509z" />
    <glyph glyph-name="f_f_iogonek" unicode="ff&#x12f;" horiz-adv-x="883" 
d="M845 509v-509q-50 0 -74 -21t-24 -49q0 -17 24 -17q20 0 36 9l23 -82q-56 -28 -118 -28q-119 0 -119 81q0 57 52 107v372h-99v-372h-200v372h-99v-372h-200v372h-41v137h41v26q0 89 37 134t125 45q70 0 128 -29l-18 -116q-22 4 -41 4q-17 0 -24 -8t-7 -26v-30h99v37
q0 89 36.5 133.5t124.5 44.5q59 0 110 -20l-17 -123q-14 2 -28 2q-15 0 -20.5 -7.5t-5.5 -25.5v-41h299zM861 626q0 -54 -25 -76t-91 -22q-68 0 -92 21t-24 77q0 54 25 76t91 22q68 0 92 -21t24 -77z" />
    <glyph glyph-name="f_f_dotlessi" unicode="ff&#x131;" horiz-adv-x="883" 
d="M845 0h-200v372h-99v-372h-200v372h-99v-372h-200v372h-41v137h41v26q0 89 37 134t125 45q70 0 128 -29l-18 -116q-22 4 -41 4q-17 0 -24 -8t-7 -26v-30h99v37q0 89 36.5 133.5t124.5 44.5q59 0 110 -20l-17 -123q-14 2 -28 2q-15 0 -20.5 -7.5t-5.5 -25.5v-41h299v-509z
" />
    <glyph glyph-name="f_ij" unicode="f&#x133;" horiz-adv-x="861" 
d="M823 509v-485q0 -115 -69 -163.5t-178 -48.5q-90 0 -210 56l13 107q114 -18 173 -18q39 0 55 10t16 35v7q0 19 5 31q-49 -43 -126 -43q-88 0 -125.5 55t-37.5 176q0 21 1 72t1 72h-94v-372h-200v372h-41v137h41v37q0 89 36.5 133.5t124.5 44.5q59 0 110 -20l-17 -123
q-14 2 -28 2q-15 0 -20.5 -7.5t-5.5 -25.5v-41h297q0 -68 -2 -156t-2 -100q0 -50 3.5 -73t9 -27.5t19.5 -4.5q19 0 51 16v345h200zM562 626q0 -54 -25 -76t-91 -22q-68 0 -92 21t-24 77q0 54 25 76t91 22q68 0 92 -21t24 -77zM836 626q0 -54 -25 -76t-91 -22q-68 0 -92 21
t-24 77q0 54 25 76t91 22q68 0 92 -21t24 -77z" />
    <glyph glyph-name="f_j" unicode="fj" horiz-adv-x="584" 
d="M546 509v-455q0 -73 -30 -130t-96 -112l-136 54q62 84 62 158v348h-99v-372h-200v372h-41v137h41v37q0 89 36.5 133.5t124.5 44.5q59 0 110 -20l-17 -123q-14 2 -28 2q-15 0 -20.5 -7.5t-5.5 -25.5v-41h299zM562 626q0 -54 -25 -76t-91 -22q-68 0 -92 21t-24 77
q0 54 25 76t91 22q68 0 92 -21t24 -77z" />
    <glyph glyph-name="f_jcircumflex" unicode="f&#x135;" horiz-adv-x="584" 
d="M595 612l-61 -72l-89 63l-91 -63l-59 71l154 132zM546 509v-455q0 -73 -30 -130t-96 -112l-136 54q62 84 62 158v348h-99v-372h-200v372h-41v137h41v40q0 87 33.5 131t114.5 44q54 0 101 -20l-14 -123q-8 2 -18 2q-17 0 -17 -27v-47h299z" />
    <glyph glyph-name="f_f_j" unicode="ffj" horiz-adv-x="883" 
d="M845 509v-455q0 -73 -30 -130t-96 -112l-136 54q62 84 62 158v348h-99v-372h-200v372h-99v-372h-200v372h-41v137h41v26q0 89 37 134t125 45q70 0 128 -29l-18 -116q-22 4 -41 4q-17 0 -24 -8t-7 -26v-30h99v37q0 89 36.5 133.5t124.5 44.5q59 0 110 -20l-17 -123
q-14 2 -28 2q-15 0 -20.5 -7.5t-5.5 -25.5v-41h299zM861 626q0 -54 -25 -76t-91 -22q-68 0 -92 21t-24 77q0 54 25 76t91 22q68 0 92 -21t24 -77z" />
    <glyph glyph-name="f_k" unicode="fk" horiz-adv-x="846" 
d="M846 0h-229l-64 229h-7v-229h-200v576q-27 8 -57 8q-24 0 -33 -9.5t-9 -32.5v-33h50v-137h-50v-372h-200v372h-41v137h41v24q0 100 41 145.5t152 45.5q56 0 122 -15h184v-397h7l62 197h224l-105 -218z" />
    <glyph glyph-name="f_kcommaaccent" unicode="f&#x137;" horiz-adv-x="846" 
d="M846 0h-229l-64 229h-7v-229h-200v576q-27 8 -57 8q-24 0 -33 -9.5t-9 -32.5v-33h50v-137h-50v-372h-200v372h-41v137h41v24q0 100 41 145.5t152 45.5q56 0 122 -15h184v-397h7l62 197h224l-105 -218zM576 -28q34 0 54 -19t20 -50q0 -52 -49 -75t-145 -13l-18 59
q65 2 65 26q0 2 -1.5 8t-1.5 13q0 21 20.5 36t55.5 15z" />
    <glyph glyph-name="f_f_k" unicode="ffk" horiz-adv-x="1145" 
d="M1145 0h-229l-64 229h-7v-229h-200v576q-27 8 -57 8q-24 0 -33 -9.5t-9 -32.5v-33h50v-137h-50v-372h-200v372h-99v-372h-200v372h-41v137h41v26q0 89 37 134t125 45q70 0 128 -29l-18 -116q-22 4 -41 4q-17 0 -24 -8t-7 -26v-30h99v24q0 100 41 145.5t152 45.5
q56 0 122 -15h184v-397h7l62 197h224l-105 -218z" />
    <glyph glyph-name="f_lacute" unicode="f&#x13a;" horiz-adv-x="593" 
d="M586 122l7 -114q-51 -19 -128 -19q-60 0 -91 24t-31 82v481q-26 8 -54 8q-24 0 -33 -9.5t-9 -32.5v-33h50v-137h-50v-372h-200v372h-41v137h41v24q0 100 41 145.5t152 45.5q55 0 119 -15h184v-534q0 -35 5.5 -44t21.5 -9h16zM346 807l199 78l87 -110l-226 -49z" />
    <glyph glyph-name="f_lcaron" unicode="f&#x13e;" horiz-adv-x="691" 
d="M586 122l7 -114q-51 -19 -128 -19q-60 0 -91 24t-31 82v481q-26 8 -54 8q-24 0 -33 -9.5t-9 -32.5v-33h50v-137h-50v-372h-200v372h-41v137h41v24q0 100 41 145.5t152 45.5q55 0 119 -15h184v-534q0 -35 5.5 -44t21.5 -9h16zM720 745l-67 -202l-95 15l31 212z" />
    <glyph glyph-name="f_lcommaaccent" unicode="f&#x13c;" horiz-adv-x="593" 
d="M586 122l7 -114q-51 -19 -128 -19q-60 0 -91 24t-31 82v481q-26 8 -54 8q-24 0 -33 -9.5t-9 -32.5v-33h50v-137h-50v-372h-200v372h-41v137h41v24q0 100 41 145.5t152 45.5q55 0 119 -15h184v-534q0 -35 5.5 -44t21.5 -9h16zM488 -28q34 0 54 -19t20 -50q0 -52 -49 -75
t-145 -13l-18 59q65 2 65 26q0 2 -1.5 8t-1.5 13q0 21 20.5 36t55.5 15z" />
    <glyph glyph-name="f_lslash" unicode="f&#x142;" horiz-adv-x="593" 
d="M586 122l7 -114q-51 -19 -128 -19q-60 0 -91 24t-31 82v159l-42 -23v137l42 23v185q-26 8 -54 8q-24 0 -33 -9.5t-9 -32.5v-33h44v-137h-44v-372h-200v372h-41v137h41v24q0 100 41 145.5t152 45.5q55 0 119 -15h184v-210l42 23v-137l-42 -23v-187q0 -35 5.5 -44t21.5 -9
h16z" />
    <glyph glyph-name="f_thorn" unicode="f&#xfe;" horiz-adv-x="864" 
d="M846 277q0 -149 -70 -220.5t-193 -71.5q-25 0 -37 2v-160h-200v749q-27 8 -57 8q-24 0 -33 -9.5t-9 -32.5v-33h50v-137h-50v-372h-200v372h-41v137h41v24q0 100 41 145.5t152 45.5q56 0 122 -15h184v-226q49 41 109 41q51 0 89.5 -20.5t60 -56t31.5 -78t10 -92.5z
M546 348v-218q14 -6 34 -6q63 0 63 131q0 117 -47 117q-23 0 -50 -24z" />
    <glyph glyph-name="f_f_thorn" unicode="ff&#xfe;" horiz-adv-x="1163" 
d="M1145 277q0 -149 -70 -220.5t-193 -71.5q-25 0 -37 2v-160h-200v749q-27 8 -57 8q-24 0 -33 -9.5t-9 -32.5v-33h50v-137h-50v-372h-200v372h-99v-372h-200v372h-41v137h41v26q0 89 37 134t125 45q70 0 128 -29l-18 -116q-22 4 -41 4q-17 0 -24 -8t-7 -26v-30h99v24
q0 100 41 145.5t152 45.5q56 0 122 -15h184v-226q49 41 109 41q51 0 89.5 -20.5t60 -56t31.5 -78t10 -92.5zM845 348v-218q14 -6 34 -6q63 0 63 131q0 117 -47 117q-23 0 -50 -24z" />
    <glyph glyph-name=".notdef" horiz-adv-x="550" 
d="M300 150h-150v250h50v-200h100v-50zM500 50h-450v450h450v-450zM350 350h-100v50h150v-250h-50v100h-100v50h100v50zM100 100h350v350h-350v-350z" />
    <glyph glyph-name=".null" horiz-adv-x="0" 
 />
    <glyph glyph-name="nonmarkingreturn" horiz-adv-x="333" 
 />
    <glyph glyph-name="CR" unicode="&#xd;" horiz-adv-x="0" 
 />
    <glyph glyph-name="space" unicode=" " horiz-adv-x="240" 
 />
    <glyph glyph-name="exclam" unicode="!" horiz-adv-x="348" 
d="M273 218h-181l-32 457h243zM300 87q0 -55 -25 -76.5t-92 -21.5q-66 0 -90.5 21.5t-24.5 76.5q0 54 24.5 75.5t90.5 21.5q68 0 92.5 -21t24.5 -76z" />
    <glyph glyph-name="quotedbl" unicode="&#x22;" horiz-adv-x="510" 
d="M216 405h-153l-18 270h188zM448 405h-153l-18 270h188z" />
    <glyph glyph-name="numbersign" unicode="#" horiz-adv-x="525" 
d="M505 188h-77l-21 -188h-141l21 188h-81l-21 -188h-141l21 188h-45v116h57l10 91h-67v114h80l18 166h141l-18 -166h81l18 166h141l-18 -166h42v-114h-55l-10 -91h65v-116zM299 304l10 91h-81l-10 -91h81z" />
    <glyph glyph-name="dollar" unicode="$" 
d="M297 -109h-112l-11 114q-101 11 -164 66l52 102q69 -31 134 -31q66 0 66 48q0 18 -17.5 32.5t-44.5 25t-57.5 27t-57.5 37t-44.5 58.5t-17.5 87q0 72 39 120.5t112 66.5l11 107h112l12 -101q89 -10 148 -67l-55 -97q-55 32 -116 32q-27 0 -42 -13.5t-15 -32.5
q0 -21 18.5 -37t46.5 -26t61 -27t61 -36.5t46.5 -56.5t18.5 -86q0 -73 -44 -127t-128 -68z" />
    <glyph glyph-name="percent" unicode="%" horiz-adv-x="720" 
d="M366 525q0 -78 -45.5 -120.5t-130.5 -42.5q-88 0 -126 40.5t-38 124.5q0 78 45.5 120.5t130.5 42.5q88 0 126 -40.5t38 -124.5zM227 527q0 38 -7.5 51.5t-23.5 13.5t-23.5 -13.5t-7.5 -53.5q0 -38 7.5 -51.5t23.5 -13.5t23.5 13.5t7.5 53.5zM694 148q0 -78 -45.5 -120.5
t-130.5 -42.5q-88 0 -126 40.5t-38 124.5q0 78 45.5 120.5t130.5 42.5q88 0 126 -40.5t38 -124.5zM555 150q0 38 -7.5 51.5t-23.5 13.5t-23.5 -13.5t-7.5 -53.5q0 -38 7.5 -51.5t23.5 -13.5t23.5 13.5t7.5 53.5zM669 649l-520 -677l-98 54l520 677z" />
    <glyph glyph-name="ampersand" unicode="&#x26;" horiz-adv-x="659" 
d="M639 126v-122q-41 -18 -89 -18q-40 0 -104 42q-82 -41 -190 -41q-127 0 -184 55t-57 140q0 59 28 99t77 74q-62 88 -62 156q0 82 57.5 129.5t170.5 47.5q92 0 145.5 -35.5t53.5 -107.5q0 -68 -34 -111t-95 -81q33 -37 80 -84q14 53 12 126h186q2 -148 -63 -252
q25 -17 40 -17h28zM279 122q27 0 47 7q-8 6 -14 14q-67 67 -97 99q-12 -21 -12 -48q0 -35 22 -53.5t54 -18.5zM243 529q0 -27 28 -71q34 36 34 81q0 33 -30 33q-32 0 -32 -43z" />
    <glyph glyph-name="quotesingle" unicode="'" horiz-adv-x="320" 
d="M238 405h-145l-17 270h179z" />
    <glyph glyph-name="parenleft" unicode="(" horiz-adv-x="310" 
d="M301 -137l-135 -39q-142 210 -142 450q0 243 142 456l135 -41q-102 -169 -102 -412q0 -238 102 -414z" />
    <glyph glyph-name="parenright" unicode=")" horiz-adv-x="310" 
d="M144 -176l-135 41q102 169 102 412q0 238 -102 414l135 39q142 -210 142 -450q0 -243 -142 -456z" />
    <glyph glyph-name="asterisk" unicode="*" 
d="M489 467l-87 -151l-94 89l30 -126h-174l30 126l-94 -89l-87 151l124 37l-124 37l87 151l94 -89l-30 126h174l-30 -126l94 89l87 -151l-124 -37z" />
    <glyph glyph-name="plus" unicode="+" 
d="M470 233h-137v-157h-166v157h-137v138h137v153h166v-153h137v-138z" />
    <glyph glyph-name="comma" unicode="," horiz-adv-x="300" 
d="M87 -186l-77 71q72 66 72 100q0 12 -11 23.5t-22.5 30.5t-11.5 50q0 69 21.5 92.5t91.5 23.5q64 0 84.5 -25t20.5 -92q0 -154 -168 -274z" />
    <glyph glyph-name="hyphen" unicode="&#xad;" horiz-adv-x="242" 
d="M241 207h-224v144h224v-144z" />
    <glyph glyph-name="hyphen" unicode="-" horiz-adv-x="242" 
d="M241 207h-224v144h224v-144z" />
    <glyph glyph-name="period" unicode="." horiz-adv-x="290" 
d="M255 94q0 -64 -21.5 -86.5t-87.5 -22.5q-67 0 -89 22.5t-22 86.5q0 66 22 88.5t89 22.5q66 0 87.5 -23t21.5 -88z" />
    <glyph glyph-name="slash" unicode="/" 
d="M500 709l-330 -813h-170l330 813h170z" />
    <glyph glyph-name="zero" unicode="0" 
d="M490 297q0 -312 -247 -312q-126 0 -179.5 69t-53.5 229q0 312 247 312q126 0 179.5 -69t53.5 -229zM290 290q0 96 -7.5 126.5t-31.5 30.5t-32.5 -29.5t-8.5 -127.5q0 -96 7.5 -126.5t31.5 -30.5t32.5 29.5t8.5 127.5z" />
    <glyph glyph-name="one" unicode="1" 
d="M476 0h-431v168h112v218l-94 -29l-49 129l196 94h167v-412h99v-168z" />
    <glyph glyph-name="two" unicode="2" 
d="M479 0h-455v144q135 100 179 148.5t44 90.5q0 24 -14 36t-50 12q-47 0 -142 -28l-22 133q127 58 226 58q117 0 170.5 -50t53.5 -135q0 -65 -41 -122t-129 -118h180v-169z" />
    <glyph glyph-name="three" unicode="3" 
d="M8 -60l11 113q67 -12 134 -12q63 0 87 18.5t24 51.5t-20.5 48t-73.5 15h-81v151h79q46 0 66.5 14.5t20.5 45.5q0 50 -69 50q-62 0 -138 -27l-24 131q120 55 220 55q112 0 166.5 -46.5t54.5 -127.5q0 -108 -91 -158q108 -34 108 -153q0 -110 -79 -167t-194 -57
q-108 0 -201 55z" />
    <glyph glyph-name="four" unicode="4" 
d="M157 580h291v-382h45v-164h-45v-138h-199v138h-241v152q53 185 149 394zM249 198l1 214h-4q-47 -119 -70 -214h73z" />
    <glyph glyph-name="five" unicode="5" 
d="M434 411h-215l-5 -91q22 4 55 4q215 0 215 -201q0 -112 -75 -175t-207 -63q-102 0 -194 56l11 112q67 -12 139 -12q121 0 121 69q0 30 -21 43.5t-72 13.5q-70 0 -154 -18l24 431h378v-169z" />
    <glyph glyph-name="six" unicode="6" 
d="M460 635l-17 -109q-80 15 -129 15q-58 0 -80 -29t-27 -106q63 35 116 35q165 0 165 -178q0 -132 -64 -204t-176 -72q-40 0 -70.5 6.5t-62.5 28t-53 58t-34.5 101.5t-13.5 153q0 183 70.5 269t189.5 86q97 0 186 -54zM213 279v-6q0 -57 6.5 -89.5t16 -42.5t23.5 -10
q12 0 19.5 6.5t13 31.5t5.5 69q0 30 -8 40t-28 10q-23 0 -48 -9z" />
    <glyph glyph-name="seven" unicode="7" 
d="M483 422l-111 -236q-72 -154 -182 -300l-138 49l194 476h-227v169h464v-158z" />
    <glyph glyph-name="eight" unicode="8" 
d="M483 508q0 -93 -81 -146q89 -54 89 -170q0 -96 -61 -151.5t-192 -55.5q-229 0 -229 191q0 91 84 152q-76 58 -76 169q0 87 60.5 140t177.5 53q116 0 172 -44.5t56 -137.5zM297 181q0 47 -67 78q-27 -30 -27 -73q0 -63 47 -63t47 58zM207 507q0 -50 50 -80q36 33 36 76
q0 53 -43 53t-43 -49z" />
    <glyph glyph-name="nine" unicode="9" 
d="M24 -64l12 106q95 -13 149 -13q55 0 80 32t29 115q-63 -35 -116 -35q-165 0 -165 178q0 132 64 204t176 72q40 0 70.5 -6.5t62.5 -28t53 -58t34.5 -101.5t13.5 -153q0 -184 -71 -275.5t-189 -91.5q-111 0 -203 55zM204 344q0 -30 8 -40t28 -10q22 0 48 9v6
q0 57 -6.5 89.5t-16 42.5t-23.5 10q-12 0 -19.5 -6.5t-13 -31.5t-5.5 -69z" />
    <glyph glyph-name="colon" unicode=":" horiz-adv-x="306" 
d="M271 422q0 -53 -25.5 -75t-80.5 -22q-54 0 -79.5 22t-25.5 75q0 52 26 74.5t79 22.5q56 0 81 -22t25 -75zM271 88q0 -53 -25.5 -74.5t-80.5 -21.5q-54 0 -79.5 21.5t-25.5 74.5q0 52 26 74.5t79 22.5q56 0 81 -22t25 -75z" />
    <glyph glyph-name="semicolon" unicode=";" horiz-adv-x="306" 
d="M267 422q0 -53 -25.5 -75t-79.5 -22t-80 22t-26 75q0 52 26 74.5t80 22.5t79.5 -22t25.5 -75zM98 -184l-76 57q86 69 86 118q0 10 -8 18t-18 14t-18 22.5t-8 40.5q0 54 26 76t81 22t79.5 -21t24.5 -78q0 -63 -42 -134t-127 -135z" />
    <glyph glyph-name="less" unicode="&#x3c;" 
d="M469 192l-56 -147l-382 191v132l382 191l56 -143l-244 -112z" />
    <glyph glyph-name="equal" unicode="=" 
d="M462 329h-424v133h424v-133zM462 142h-424v133h424v-133z" />
    <glyph glyph-name="greater" unicode="&#x3e;" 
d="M469 236l-382 -191l-56 143l244 112l-244 112l56 147l382 -191v-132z" />
    <glyph glyph-name="question" unicode="?" 
d="M470 507q0 -43 -14 -74.5t-34 -50t-40.5 -34.5t-35.5 -37.5t-17 -48.5l-3 -44h-179l-3 34q-4 49 4.5 82t23.5 49t31 28.5t28 30t12 43.5q0 43 -55 43q-44 0 -98 -24l-59 119q101 65 224 65q105 0 160 -45.5t55 -135.5zM352 87q0 -55 -24.5 -76.5t-92.5 -21.5
q-65 0 -90 21.5t-25 76.5q0 53 25.5 75t91.5 22q68 0 91.5 -21t23.5 -76z" />
    <glyph glyph-name="at" unicode="@" horiz-adv-x="1042" 
d="M765 -12l31 -110q-143 -66 -314 -66q-213 0 -334 105.5t-121 314.5q0 225 154.5 358.5t413.5 133.5q215 0 316.5 -86t101.5 -232q0 -161 -95.5 -257.5t-255.5 -96.5h-87l-14 61q-67 -71 -138 -71q-74 0 -110.5 52.5t-36.5 143.5q0 145 82 213.5t214 68.5q109 0 191 -31
l-34 -295q43 0 75.5 49t32.5 135q0 51 -11.5 88t-39.5 67.5t-81.5 46t-131.5 15.5q-185 0 -277.5 -92t-92.5 -247q0 -172 73.5 -243t234.5 -71q126 0 254 46zM544 234l18 142q-7 1 -18 1q-27 0 -47 -25t-20 -87q0 -40 4.5 -54t14.5 -14q23 0 48 37z" />
    <glyph glyph-name="A" unicode="A" horiz-adv-x="618" 
d="M619 0h-225q-18 107 -19 113h-159q-10 -52 -19 -113h-198q85 414 167 675h285q91 -291 168 -675zM245 266h101q-19 99 -48 234h-4q-24 -104 -49 -234z" />
    <glyph glyph-name="B" unicode="B" horiz-adv-x="599" 
d="M49 0v675h277q116 0 173.5 -44.5t57.5 -123.5q0 -94 -72 -133q51 -14 78.5 -55.5t27.5 -92.5q0 -99 -76.5 -163.5t-235.5 -64.5q-21 0 -101 1t-129 1zM256 533v-115h25q63 0 63 57q0 58 -54 58h-34zM256 280v-137q18 -2 37 -2q41 0 58.5 18.5t17.5 54.5q0 28 -18.5 47
t-61.5 19h-33z" />
    <glyph glyph-name="C" unicode="C" horiz-adv-x="512" 
d="M431 203l84 -109q-33 -52 -92 -80.5t-122 -28.5q-145 0 -212.5 82t-67.5 256q0 181 73 274t206 93q66 0 119.5 -28t83.5 -81l-92 -96q-37 39 -79 39q-92 0 -92 -178q0 -111 23 -152.5t72 -41.5q50 0 96 51z" />
    <glyph glyph-name="D" unicode="D" horiz-adv-x="618" 
d="M49 0v675q48 0 128 1t114 1q162 0 234 -82t72 -236q0 -364 -338 -364q-36 0 -107 2.5t-103 2.5zM259 523v-369q8 -1 21 -1q97 0 97 186q0 105 -24.5 145t-66.5 40q-18 0 -27 -1z" />
    <glyph glyph-name="E" unicode="E" horiz-adv-x="478" 
d="M445 0h-396v675h392v-157h-182v-100h153v-150h-153v-109h186v-159z" />
    <glyph glyph-name="F" unicode="F" horiz-adv-x="458" 
d="M437 518h-178v-114h157v-154h-157v-250h-210v675h388v-157z" />
    <glyph glyph-name="G" unicode="G" horiz-adv-x="581" 
d="M549 418v-349q-112 -84 -253 -84q-143 0 -209 84t-66 248q0 187 81 280t231 93q70 0 125.5 -34.5t90.5 -94.5l-93 -81q-61 46 -115 46q-53 0 -77.5 -39.5t-24.5 -138.5q0 -110 18 -154t54 -44q13 0 33 6v112h-55v150h260z" />
    <glyph glyph-name="H" unicode="H" horiz-adv-x="658" 
d="M609 0h-210v262h-140v-262h-210v675h210v-239h140v239h210v-675z" />
    <glyph glyph-name="I" unicode="I" horiz-adv-x="308" 
d="M259 0h-210v675h210v-675z" />
    <glyph glyph-name="J" unicode="J" horiz-adv-x="308" 
d="M259 675v-600q0 -165 -170 -252l-100 82q37 46 48.5 88.5t11.5 107.5v574h210z" />
    <glyph glyph-name="K" unicode="K" horiz-adv-x="584" 
d="M584 0h-232l-90 284h-3v-284h-210v675h210v-267h3l91 267h219l-128 -294z" />
    <glyph glyph-name="L" unicode="L" horiz-adv-x="421" 
d="M408 0h-359v675h210v-515h149v-160z" />
    <glyph glyph-name="M" unicode="M" horiz-adv-x="859" 
d="M829 0h-220q-2 276 -9 420h-2l-91 -420h-183l-88 420h-2q-7 -126 -9 -420h-193q9 346 46 675h277l80 -354h1l84 354h261q31 -308 48 -675z" />
    <glyph glyph-name="N" unicode="N" horiz-adv-x="649" 
d="M600 0h-231l-121 294l-37 115h-2q10 -129 10 -169v-240h-170v675h248l104 -252q7 -17 16.5 -45.5t14.5 -49.5l6 -20h2q-10 129 -10 169v198h170v-675z" />
    <glyph glyph-name="O" unicode="O" horiz-adv-x="646" 
d="M625 352q0 -185 -79.5 -276t-228.5 -91q-155 0 -225.5 78.5t-70.5 259.5q0 185 79.5 276t228.5 91q155 0 225.5 -78.5t70.5 -259.5zM405 323q0 67 -6 110t-18.5 64t-26.5 28t-35 7q-25 0 -40 -11t-26.5 -52.5t-11.5 -116.5q0 -67 6 -110t18.5 -63.5t26.5 -27.5t35 -7
q38 0 58 35.5t20 143.5z" />
    <glyph glyph-name="P" unicode="P" horiz-adv-x="578" 
d="M259 0h-210v675q46 0 135.5 1t124.5 1q260 0 260 -224q0 -256 -298 -256h-12v-197zM259 527v-180h19q72 0 72 90q0 47 -17 68.5t-55 21.5h-19z" />
    <glyph glyph-name="Q" unicode="Q" horiz-adv-x="646" 
d="M705 -110l-63 -78q-33 20 -103 20q-16 0 -35.5 -1t-31.5 -1q-128 0 -173 156q-144 0 -211 80.5t-67 258.5q0 184 79.5 274.5t229.5 90.5q154 0 224.5 -78t70.5 -258q0 -298 -200 -354q34 -37 88 -37q11 0 26 0.5t26 0.5q75 0 140 -74zM405 325q0 67 -6 109.5t-18.5 63
t-26.5 27.5t-35 7q-25 0 -40 -11t-26.5 -51.5t-11.5 -114.5q0 -89 11.5 -137t28.5 -61t46 -13q25 0 40 11t26.5 53t11.5 117z" />
    <glyph glyph-name="R" unicode="R" horiz-adv-x="608" 
d="M593 0h-232l-75 242h-27v-242h-210v675q186 4 268 4q133 0 195 -56.5t62 -150.5q0 -125 -95 -184zM259 529v-137h27q37 0 53.5 17t16.5 52q0 68 -65 68h-32z" />
    <glyph glyph-name="S" unicode="S" horiz-adv-x="496" 
d="M490 204q0 -94 -66.5 -156t-195.5 -62q-125 0 -226 78l47 105q87 -32 138 -32q69 0 69 44q0 20 -17.5 37.5t-44.5 30.5t-57.5 32.5t-57.5 42t-44.5 62t-17.5 89.5q0 98 67 155.5t174 57.5q109 0 207 -67l-47 -105q-67 24 -119 24q-61 0 -61 -42q0 -21 18.5 -39
t46.5 -31.5t61 -33.5t61 -42.5t46.5 -61t18.5 -86.5z" />
    <glyph glyph-name="T" unicode="T" horiz-adv-x="467" 
d="M454 516h-117v-516h-210v516h-115v159h442v-159z" />
    <glyph glyph-name="U" unicode="U" horiz-adv-x="652" 
d="M604 675v-438q0 -252 -289 -252q-135 0 -201 54t-66 180v456h210v-437q0 -57 15.5 -80t51.5 -23q38 0 55.5 20t17.5 71v449h206z" />
    <glyph glyph-name="V" unicode="V" horiz-adv-x="580" 
d="M378 675h202q-52 -382 -157 -675h-262q-104 310 -161 675h229q20 -238 77 -468h3q50 195 69 468z" />
    <glyph glyph-name="W" unicode="W" horiz-adv-x="876" 
d="M681 675h191q-49 -345 -130 -675h-231l-54 254l-21 122h-2l-20 -119l-50 -257h-228q-76 296 -132 675h224q3 -54 19 -195t23 -217h3l19 122l60 290h211l61 -301l19 -111h3q25 226 35 412z" />
    <glyph glyph-name="X" unicode="X" horiz-adv-x="558" 
d="M564 0h-227q-35 111 -72 193h-3q-28 -68 -67 -193h-201q73 214 149 358q-77 150 -134 317h222q30 -109 56 -169h3q27 59 62 169h196q-65 -190 -136 -314q87 -162 152 -361z" />
    <glyph glyph-name="Y" unicode="Y" horiz-adv-x="499" 
d="M308 675h201q-64 -246 -156 -410v-265h-210v265q-101 192 -153 410h225q15 -110 46 -215h3q19 61 44 215z" />
    <glyph glyph-name="Z" unicode="Z" horiz-adv-x="496" 
d="M474 0h-454v142l196 370h-189l4 163h438v-141l-196 -370h205z" />
    <glyph glyph-name="bracketleft" unicode="[" horiz-adv-x="370" 
d="M318 -173h-250v912h250v-114h-84v-684h84v-114z" />
    <glyph glyph-name="backslash" unicode="\" 
d="M500 -104h-170l-330 813h170z" />
    <glyph glyph-name="bracketright" unicode="]" horiz-adv-x="370" 
d="M302 -173h-250v114h84v684h-84v114h250v-912z" />
    <glyph glyph-name="asciicircum" unicode="^" 
d="M496 406l-155 -50l-91 191l-93 -191l-151 51l170 302h151z" />
    <glyph glyph-name="underscore" unicode="_" 
d="M500 -183h-500v141h500v-141z" />
    <glyph glyph-name="grave" unicode="`" horiz-adv-x="303" 
d="M287 595l-100 -48l-171 121l136 65z" />
    <glyph glyph-name="a" unicode="a" horiz-adv-x="534" 
d="M497 0h-153l-12 43q-63 -58 -148 -58q-78 0 -125.5 44.5t-47.5 121.5q0 174 270 174h18v17q0 41 -66 41q-78 0 -169 -31l-23 118q122 53 239 53q103 0 160 -43t57 -122v-358zM299 146v63h-24q-71 0 -71 -44q0 -42 41 -42q29 0 54 23z" />
    <glyph glyph-name="b" unicode="b" horiz-adv-x="556" 
d="M38 12v697h200v-226q49 41 109 41q51 0 89.5 -20.5t60 -56t31.5 -78t10 -92.5q0 -292 -289 -292q-99 0 -211 27zM238 352v-222q14 -6 34 -6q63 0 63 131q0 117 -47 117q-22 0 -50 -20z" />
    <glyph glyph-name="c" unicode="c" horiz-adv-x="418" 
d="M363 162l55 -103q-74 -72 -183 -72q-111 0 -164 64.5t-53 196.5q0 120 62 198t170 78q102 0 161 -65l-66 -103q-30 22 -62 22q-58 0 -58 -118q0 -73 13 -99.5t42 -26.5q38 0 83 28z" />
    <glyph glyph-name="d" unicode="d" horiz-adv-x="556" 
d="M518 0h-163l-13 45q-60 -60 -133 -60q-51 0 -89.5 20.5t-60 56t-31.5 78t-10 92.5q0 149 70 220.5t193 71.5q25 0 37 -2v187h200v-709zM318 157v222q-14 6 -34 6q-63 0 -63 -131q0 -117 47 -117q22 0 50 20z" />
    <glyph glyph-name="e" unicode="e" horiz-adv-x="535" 
d="M512 207h-291v-3q0 -33 20.5 -51t56.5 -18q80 0 186 26l24 -111q-124 -65 -246 -65q-118 0 -181 59.5t-63 198.5q0 138 69.5 209.5t191.5 71.5q58 0 101 -15t76 -49.5t47.5 -98t8.5 -154.5zM222 325h99v1q0 40 -11.5 54.5t-35.5 14.5q-48 0 -52 -70z" />
    <glyph glyph-name="f" unicode="f" horiz-adv-x="318" 
d="M348 689l-23 -111q-25 5 -47 5q-17 0 -24 -8t-7 -26v-40h62v-137h-62v-372h-200v372h-41v137h41v36q0 89 37 134t125 45q74 0 139 -35z" />
    <glyph glyph-name="g" unicode="g" horiz-adv-x="556" 
d="M518 497v-473q0 -115 -69 -163.5t-178 -48.5q-90 0 -210 56l13 107q114 -18 173 -18q39 0 55 10t16 35v39q-55 -41 -109 -41q-97 0 -144 68.5t-47 171.5q0 144 74.5 214t214.5 70q99 0 211 -27zM318 168v211q-14 6 -34 6q-63 0 -63 -125q0 -112 47 -112q22 0 50 20z" />
    <glyph glyph-name="h" unicode="h" horiz-adv-x="556" 
d="M518 0h-201q0 64 2 153t2 106q0 51 -3.5 74t-9 27.5t-19.5 4.5q-19 0 -51 -16v-349h-200v709h200v-228q50 43 121 43q86 0 124.5 -56t38.5 -181q0 -22 -2 -120t-2 -167z" />
    <glyph glyph-name="i" unicode="i" horiz-adv-x="276" 
d="M254 626q0 -54 -25 -76t-91 -22q-68 0 -92 21t-24 77q0 54 25 76t91 22q68 0 92 -21t24 -77zM238 0h-200v509h200v-509z" />
    <glyph glyph-name="j" unicode="j" horiz-adv-x="276" 
d="M238 509v-455q0 -73 -30 -130t-96 -112l-136 54q62 84 62 158v485h200zM254 626q0 -54 -25 -76t-91 -22q-68 0 -92 21t-24 77q0 54 25 76t91 22q68 0 92 -21t24 -77z" />
    <glyph glyph-name="k" unicode="k" horiz-adv-x="538" 
d="M538 0h-229l-64 229h-7v-229h-200v709h200v-397h7l62 197h224l-105 -218z" />
    <glyph glyph-name="l" unicode="l" horiz-adv-x="288" 
d="M281 122l7 -114q-51 -19 -129 -19q-60 0 -90.5 24t-30.5 82v614h200v-534q0 -35 5.5 -44t21.5 -9h16z" />
    <glyph glyph-name="m" unicode="m" horiz-adv-x="832" 
d="M794 0h-201q0 68 2 157t2 101q0 74 -5.5 90.5t-25.5 16.5q-17 0 -51 -16q1 -11 1 -56v-293h-199v258q0 52 -3 75t-8 27.5t-18 4.5q-18 0 -50 -16v-349h-200v509h163l13 -45q62 60 143 60q93 0 128 -63q68 63 150 63q87 0 125 -56t38 -180q0 -18 -2 -116.5t-2 -171.5z" />
    <glyph glyph-name="n" unicode="n" horiz-adv-x="556" 
d="M518 0h-201q0 68 2 157.5t2 101.5q0 51 -3.5 74t-9 27.5t-19.5 4.5q-19 0 -51 -16v-349h-200v509h163l13 -45q62 60 145 60q88 0 125.5 -56.5t37.5 -180.5q0 -18 -2 -116t-2 -171z" />
    <glyph glyph-name="o" unicode="o" horiz-adv-x="562" 
d="M544 265q0 -140 -70.5 -210t-201.5 -70q-129 0 -191.5 60t-62.5 199q0 140 70.5 210t201.5 70q129 0 191.5 -60t62.5 -199zM340 243q0 60 -9 91.5t-20 38.5t-30 7q-28 0 -43.5 -23.5t-15.5 -90.5q0 -60 9 -91.5t20 -38.5t30 -7q28 0 43.5 23.5t15.5 90.5z" />
    <glyph glyph-name="p" unicode="p" horiz-adv-x="556" 
d="M238 -173h-200v682h163l13 -45q60 60 133 60q51 0 89.5 -20.5t60 -56t31.5 -78t10 -92.5q0 -149 -70 -220.5t-193 -71.5q-25 0 -37 2v-160zM238 352v-222q14 -6 34 -6q63 0 63 131q0 117 -47 117q-22 0 -50 -20z" />
    <glyph glyph-name="q" unicode="q" horiz-adv-x="556" 
d="M518 -173h-200v199q-49 -41 -109 -41q-51 0 -89.5 20.5t-60 56t-31.5 78t-10 92.5q0 292 289 292q99 0 211 -27v-670zM318 157v222q-14 6 -34 6q-63 0 -63 -131q0 -117 47 -117q22 0 50 20z" />
    <glyph glyph-name="r" unicode="r" horiz-adv-x="388" 
d="M388 510l-24 -169q-35 8 -53 8q-17 0 -32.5 -11.5t-40.5 -45.5v-292h-200v509h163l15 -64q30 44 55.5 61t56.5 17t60 -13z" />
    <glyph glyph-name="s" unicode="s" horiz-adv-x="437" 
d="M10 38l12 97q78 -12 130 -12q64 0 64 27q0 14 -21 24t-51 20t-60 25.5t-51 50t-21 84.5q0 77 58.5 123t154.5 46q82 0 171 -49l-16 -97q-71 14 -110 14q-49 0 -49 -23q0 -14 21.5 -24t51.5 -20t60.5 -25.5t52 -50t21.5 -84.5q0 -78 -63 -128t-175 -50q-86 0 -180 52z" />
    <glyph glyph-name="t" unicode="t" horiz-adv-x="351" 
d="M327 138l12 -113q-75 -39 -147 -39q-79 0 -112 29.5t-33 100.5v256h-41v137h50q24 66 44 152h147v-152h78v-137h-78v-208q0 -31 25 -31q24 0 55 5z" />
    <glyph glyph-name="u" unicode="u" horiz-adv-x="556" 
d="M518 0h-163l-13 45q-62 -60 -145 -60q-88 0 -125.5 56.5t-37.5 180.5q0 18 2 116t2 171h201q0 -68 -2 -157t-2 -102q0 -70 5.5 -88t26.5 -18q19 0 51 16v349h200v-509z" />
    <glyph glyph-name="v" unicode="v" horiz-adv-x="514" 
d="M310 509h204q-23 -248 -118 -509h-283l-113 509h215l39 -216l16 -124h3q40 160 37 340z" />
    <glyph glyph-name="w" unicode="w" horiz-adv-x="803" 
d="M610 509h190q-15 -224 -104 -509h-248l-34 208l-12 93h-3l-10 -93l-30 -208h-248l-108 509h213l29 -221l10 -101h3l11 104l27 218h239l35 -222l14 -100h3q29 209 23 322z" />
    <glyph glyph-name="x" unicode="x" horiz-adv-x="501" 
d="M507 0h-225l-44 153h-3q-23 -87 -35 -153h-206l115 263l-104 246h220l36 -140h3q25 72 32 140h196l-106 -228z" />
    <glyph glyph-name="y" unicode="y" horiz-adv-x="510" 
d="M306 509h204q-9 -166 -47 -300.5t-94 -218t-123 -128t-138 -44.5q-44 0 -97 31v113q29 -5 63 -5q37 0 50 8q12 7 12 20q0 10 -34 139l-102 385h213l41 -215q12 -63 17 -133h3q20 72 29.5 172.5t2.5 175.5z" />
    <glyph glyph-name="z" unicode="z" horiz-adv-x="400" 
d="M390 148l-5 -148h-374v126l135 237h-129l6 146h350v-124l-135 -237h152z" />
    <glyph glyph-name="braceleft" unicode="{" horiz-adv-x="388" 
d="M334 -173h-76q-82 0 -122 40.5t-40 114.5v197q0 23 -6.5 31t-24.5 8h-36v140h36q17 0 24 8.5t7 30.5v188q0 154 163 154h75v-114h-38q-20 0 -27 -9.5t-7 -34.5v-177q0 -81 -64 -116q64 -35 64 -117v-186q0 -27 6.5 -35.5t27.5 -8.5h38v-114z" />
    <glyph glyph-name="bar" unicode="|" horiz-adv-x="256" 
d="M214 -173h-171v926h171v-926z" />
    <glyph glyph-name="braceright" unicode="}" horiz-adv-x="388" 
d="M359 218h-36q-17 0 -24 -8.5t-7 -30.5v-198q0 -154 -163 -154h-75v114h38q20 0 27 9.5t7 34.5v187q0 81 64 116q-64 35 -64 117v176q0 27 -6.5 35.5t-27.5 8.5h-38v114h76q82 0 122 -40.5t40 -114.5v-187q0 -23 6.5 -31t24.5 -8h36v-140z" />
    <glyph glyph-name="asciitilde" unicode="~" 
d="M488 622v-37q0 -88 -46 -139t-129 -51q-40 0 -69.5 17t-41.5 37t-19.5 37t-10.5 17q-4 0 -5.5 -1.5t-3 -9t-2 -23.5t-0.5 -44h-151v36q0 89 45.5 139.5t127.5 50.5q33 0 58.5 -11t39 -26.5t22.5 -31.5t14.5 -27t8.5 -11t5 1.5t3 9.5t1.5 23t0.5 44h152z" />
    <glyph glyph-name="uni00A0" unicode="&#xa0;" horiz-adv-x="240" 
 />
    <glyph glyph-name="exclamdown" unicode="&#xa1;" horiz-adv-x="348" 
d="M75 353h181l32 -457h-243zM48 484q0 55 25 76.5t92 21.5q66 0 90.5 -21.5t24.5 -76.5q0 -54 -24.5 -75.5t-90.5 -21.5q-68 0 -92.5 21t-24.5 76z" />
    <glyph glyph-name="cent" unicode="&#xa2;" 
d="M415 269l54 -103q-53 -39 -108 -54l-14 -120h-117l-13 109q-90 13 -138 67t-48 164q0 92 50.5 155t134.5 85l14 109h117l13 -109q55 -15 99 -51l-65 -101q-38 23 -72 23q-14 0 -26.5 -3.5t-27 -12t-23 -29t-8.5 -49.5q0 -38 7.5 -63t21.5 -34.5t24.5 -12.5t24.5 -3
q54 0 100 33z" />
    <glyph glyph-name="sterling" unicode="&#xa3;" 
d="M478 0h-445v127q63 70 62 150h-72v127h51q-13 37 -13 84q0 197 227 197q106 0 180 -45l-14 -105q-60 6 -97 6q-55 0 -71 -12t-16 -49q0 -34 13 -76h125v-127h-109q1 -83 -29 -121h208v-156z" />
    <glyph glyph-name="currency" unicode="&#xa4;" 
d="M491 67l-127 -69l-53 76q-35 -5 -69 -5q-21 0 -53 2l-52 -73l-126 69l58 67q-30 44 -30 120q0 82 36 130l-64 74l125 69l55 -75q25 4 64 4q30 0 57 -3l54 74l125 -69l-61 -70q32 -43 32 -115q0 -78 -37 -129zM295 252q0 63 -12 81.5t-34 18.5q-23 0 -35 -16.5t-12 -63.5
q0 -63 12.5 -81.5t35.5 -18.5q21 0 33 16.5t12 63.5z" />
    <glyph glyph-name="yen" unicode="&#xa5;" 
d="M460 355v-123h-112v-52h112v-123h-112v-57h-196v57h-112v123h112v52h-112v123h112v6q-87 143 -146 314h214q16 -97 42 -160q21 45 41 160h194q-66 -192 -149 -314v-6h112z" />
    <glyph glyph-name="brokenbar" unicode="&#xa6;" horiz-adv-x="256" 
d="M214 205v-378h-171v378h171zM43 359v397h171v-397h-171z" />
    <glyph glyph-name="section" unicode="&#xa7;" horiz-adv-x="510" 
d="M56 -128l37 106q55 -16 97 -16q28 0 37.5 6.5t9.5 21.5q0 20 -23.5 43t-56.5 48t-66.5 56.5t-57 82.5t-23.5 113q0 84 45 166.5t115 134.5t139 52q68 0 130 -46l-35 -108q-52 15 -93 15q-23 0 -31.5 -7t-8.5 -21q0 -20 23.5 -43t56.5 -48t66.5 -57t57 -83t23.5 -114
q0 -83 -44 -165t-115 -134t-144 -52q-71 0 -139 49zM343 151q0 30 -16.5 57.5t-40.5 48.5t-49 40t-45 41.5t-24 45.5q-3 -10 -3 -27q0 -37 24.5 -69.5t54.5 -53.5t59.5 -52t37.5 -62q2 22 2 31z" />
    <glyph glyph-name="dieresis" unicode="&#xa8;" horiz-adv-x="419" 
d="M403 628q0 -44 -20.5 -63.5t-68.5 -19.5t-68.5 19t-20.5 64t20.5 64.5t68.5 19.5t68.5 -19t20.5 -65zM194 628q0 -44 -20.5 -63.5t-68.5 -19.5t-68.5 19t-20.5 64t20.5 64.5t68.5 19.5t68.5 -19t20.5 -65z" />
    <glyph glyph-name="copyright" unicode="&#xa9;" horiz-adv-x="778" 
d="M754 347q0 -154 -106.5 -260.5t-262.5 -106.5q-158 0 -259.5 100t-101.5 247q0 154 106.5 260.5t262.5 106.5q158 0 259.5 -100t101.5 -247zM617 341q0 99 -65 168.5t-159 69.5q-96 0 -164 -70.5t-68 -175.5q0 -99 65 -168.5t159 -69.5q96 0 164 70.5t68 175.5zM492 267
l47 -82q-63 -55 -154 -55q-93 0 -140.5 53t-47.5 149q0 93 54 153.5t146 60.5q85 0 136 -51l-57 -79q-23 17 -51 17q-50 0 -50 -89q0 -57 12.5 -78t37.5 -21q31 0 67 22z" />
    <glyph glyph-name="ordfeminine" unicode="&#xaa;" horiz-adv-x="459" 
d="M405 339h-123l-9 29q-52 -37 -117 -37q-57 0 -88 31t-31 85q0 124 187 124h24v4q0 27 -37 27q-65 0 -138 -18l-18 95q97 38 186 38q164 0 164 -139v-239zM248 444v42h-19q-44 0 -44 -28q0 -26 28 -26q15 0 35 12zM404 191h-338v102h338v-102z" />
    <glyph glyph-name="guillemotleft" unicode="&#xab;" horiz-adv-x="514" 
d="M290 109l-133 -41l-145 221l146 221l132 -43l-94 -178zM490 124l-129 -39l-130 204l131 204l128 -40l-77 -164z" />
    <glyph glyph-name="logicalnot" unicode="&#xac;" 
d="M462 100h-157v133h-275v138h432v-271z" />
    <glyph glyph-name="registered" unicode="&#xae;" horiz-adv-x="567" 
d="M538 492q0 -105 -74 -178t-183 -73q-110 0 -180.5 68.5t-70.5 168.5q0 105 74 178t183 73q110 0 180.5 -68.5t70.5 -168.5zM435 488q0 65 -43 110.5t-105 45.5q-64 0 -109 -46t-45 -116q0 -65 43 -110.5t105 -45.5q64 0 109 46t45 116zM392 382h-92l-18 75h-13v-75h-83
v217q20 0 38.5 0.5t30 1t23.5 0.5q59 0 85 -16.5t26 -54.5q0 -39 -31 -60zM269 548v-41h14q23 0 23 21q0 20 -27 20h-10z" />
    <glyph glyph-name="macron" unicode="&#x2c9;" horiz-adv-x="338" 
d="M322 565h-306v135h306v-135z" />
    <glyph glyph-name="macron" unicode="&#xaf;" horiz-adv-x="338" 
d="M322 565h-306v135h306v-135z" />
    <glyph glyph-name="degree" unicode="&#xb0;" horiz-adv-x="451" 
d="M418 556q0 -78 -52.5 -122t-139.5 -44q-190 0 -190 162q0 78 53 121t139 43q190 0 190 -160zM277 555q0 53 -50 53t-50 -53q0 -56 50 -56t50 56z" />
    <glyph glyph-name="plusminus" unicode="&#xb1;" 
d="M465 0h-430v130h430v-130zM465 309h-135v-145h-160v145h-135v130h135v141h160v-141h135v-130z" />
    <glyph glyph-name="twosuperior" unicode="&#xb2;" horiz-adv-x="383" 
d="M362 338h-333v116q93 72 119.5 99t26.5 45q0 21 -33 21q-14 0 -30.5 -2.5t-27.5 -5.5t-24.5 -7t-16.5 -5l-21 97q83 36 168 36q68 0 115.5 -27.5t47.5 -82.5q0 -42 -31.5 -82t-112.5 -83h153v-119z" />
    <glyph glyph-name="threesuperior" unicode="&#xb3;" horiz-adv-x="375" 
d="M11 356l10 81q64 -10 102 -10q57 0 57 29q0 14 -11 19.5t-42 5.5h-61v103h69q38 0 38 23q0 22 -37 22q-40 0 -93 -17l-22 90q81 30 154 30q85 0 127.5 -28.5t42.5 -76.5q0 -61 -65 -88q74 -15 74 -84q0 -64 -54.5 -97t-133.5 -33q-85 0 -155 31z" />
    <glyph glyph-name="acute" unicode="&#xb4;" horiz-adv-x="303" 
d="M287 668l-171 -121l-100 48l135 138z" />
    <glyph glyph-name="mu" unicode="&#x3bc;" horiz-adv-x="566" 
d="M454 -14q-51 0 -75 14.5t-36 44.5q-49 -51 -95 -51q-19 0 -31 3q14 -90 20 -170h-199v682h199v-269q0 -65 6 -80.5t25 -15.5t51 16v349h200v-343q0 -20 6 -26.5t21 -6.5q11 0 23 3l12 -117q-63 -33 -127 -33z" />
    <glyph glyph-name="mu" unicode="&#xb5;" horiz-adv-x="566" 
d="M454 -14q-51 0 -75 14.5t-36 44.5q-49 -51 -95 -51q-19 0 -31 3q14 -90 20 -170h-199v682h199v-269q0 -65 6 -80.5t25 -15.5t51 16v349h200v-343q0 -20 6 -26.5t21 -6.5q11 0 23 3l12 -117q-63 -33 -127 -33z" />
    <glyph glyph-name="paragraph" unicode="&#xb6;" horiz-adv-x="679" 
d="M606 -105h-148v663h-89v-663h-148v357q-91 -1 -147 55.5t-56 153.5q0 102 58 158t166 56h364v-780z" />
    <glyph glyph-name="periodcentered" unicode="&#x2219;" horiz-adv-x="293" 
d="M254 301q0 -63 -21 -84.5t-85 -21.5q-66 0 -87 21.5t-21 84.5q0 64 21 86t87 22q64 0 85 -22t21 -86z" />
    <glyph glyph-name="periodcentered" unicode="&#xb7;" horiz-adv-x="293" 
d="M254 301q0 -63 -21 -84.5t-85 -21.5q-66 0 -87 21.5t-21 84.5q0 64 21 86t87 22q64 0 85 -22t21 -86z" />
    <glyph glyph-name="cedilla" unicode="&#xb8;" horiz-adv-x="250" 
d="M63 -41h167q20 -90 -97 -148l-117 36q40 35 50 61t-3 51z" />
    <glyph glyph-name="onesuperior" unicode="&#xb9;" horiz-adv-x="355" 
d="M337 338h-302v113h71v139l-60 -16l-20 94l119 53h129v-270h63v-113z" />
    <glyph glyph-name="ordmasculine" unicode="&#xba;" horiz-adv-x="435" 
d="M408 531q0 -94 -55 -146.5t-143 -52.5q-186 0 -186 184q0 95 54.5 147.5t141.5 52.5t137.5 -46.5t50.5 -138.5zM251 511q0 43 -5.5 65.5t-12 27t-16.5 4.5q-18 0 -27.5 -15t-9.5 -59q0 -42 6 -64t13 -26t18 -4q16 0 25 13.5t9 57.5zM391 191h-339v102h339v-102z" />
    <glyph glyph-name="guillemotright" unicode="&#xbb;" horiz-adv-x="514" 
d="M224 469l133 41l145 -221l-146 -221l-132 43l94 178zM24 454l129 39l130 -204l-131 -204l-128 40l77 164z" />
    <glyph glyph-name="onequarter" unicode="&#xbc;" horiz-adv-x="766" 
d="M337 338h-302v113h71v139l-60 -16l-20 94l119 53h129v-270h63v-113zM67 -44l577 778l98 -54l-577 -778zM752 -15h-29v-58h-162v58h-165v113q31 93 97 210h230v-210h29v-113zM561 98v117h-1q-34 -56 -51 -117h52z" />
    <glyph glyph-name="onehalf" unicode="&#xbd;" horiz-adv-x="823" 
d="M337 338h-302v113h71v139l-60 -16l-20 94l119 53h129v-270h63v-113zM67 -44l577 778l98 -54l-577 -778zM802 -73h-333v116q93 72 119.5 99t26.5 45q0 21 -33 21q-14 0 -30.5 -2.5t-27.5 -5.5t-24.5 -7t-16.5 -5l-21 97q83 36 168 36q68 0 115.5 -27.5t47.5 -82.5
q0 -42 -31.5 -82t-112.5 -83h153v-119z" />
    <glyph glyph-name="threequarters" unicode="&#xbe;" horiz-adv-x="748" 
d="M11 356l10 81q64 -10 102 -10q57 0 57 29q0 14 -11 19.5t-42 5.5h-61v103h69q38 0 38 23q0 22 -37 22q-40 0 -93 -17l-22 90q81 30 154 30q85 0 127.5 -28.5t42.5 -76.5q0 -61 -65 -88q74 -15 74 -84q0 -64 -54.5 -97t-133.5 -33q-85 0 -155 31zM49 -44l577 778l98 -54
l-577 -778zM734 -15h-29v-58h-162v58h-165v113q31 93 97 210h230v-210h29v-113zM543 98v117h-1q-34 -56 -51 -117h52z" />
    <glyph glyph-name="questiondown" unicode="&#xbf;" 
d="M30 64q0 43 14 74.5t34 50t40.5 34.5t35.5 37.5t17 48.5l3 44h179l3 -34q4 -49 -4.5 -82t-23.5 -49t-31 -28.5t-28 -30t-12 -43.5q0 -43 55 -43q44 0 98 24l59 -119q-101 -65 -224 -65q-105 0 -160 45.5t-55 135.5zM148 484q0 55 24.5 76.5t92.5 21.5q65 0 90 -21.5
t25 -76.5q0 -53 -25.5 -75t-91.5 -22q-68 0 -91.5 21t-23.5 76z" />
    <glyph glyph-name="Agrave" unicode="&#xc0;" horiz-adv-x="618" 
d="M619 0h-225q-18 107 -19 113h-159q-10 -52 -19 -113h-198q85 414 167 675h285q91 -291 168 -675zM245 266h101q-19 99 -48 234h-4q-24 -104 -49 -234zM421 787l-60 -81l-226 49l87 110z" />
    <glyph glyph-name="Aacute" unicode="&#xc1;" horiz-adv-x="618" 
d="M619 0h-225q-18 107 -19 113h-159q-10 -52 -19 -113h-198q85 414 167 675h285q91 -291 168 -675zM245 266h101q-19 99 -48 234h-4q-24 -104 -49 -234zM209 787l199 78l87 -110l-226 -49z" />
    <glyph glyph-name="Acircumflex" unicode="&#xc2;" horiz-adv-x="618" 
d="M619 0h-225q-18 107 -19 113h-159q-10 -52 -19 -113h-198q85 414 167 675h285q91 -291 168 -675zM245 266h101q-19 99 -48 234h-4q-24 -104 -49 -234zM310 865l164 -81l-49 -78l-117 39l-117 -39l-47 75z" />
    <glyph glyph-name="Atilde" unicode="&#xc3;" horiz-adv-x="618" 
d="M619 0h-225q-18 107 -19 113h-159q-10 -52 -19 -113h-198q85 414 167 675h285q91 -291 168 -675zM245 266h101q-19 99 -48 234h-4q-24 -104 -49 -234zM418 865l77 -52q-45 -104 -141 -104q-40 0 -71.5 19.5t-38.5 19.5q-12 0 -20.5 -8t-23.5 -31l-77 52q45 104 141 104
q30 0 52 -10t35.5 -20t22.5 -10q12 0 20.5 8.5t23.5 31.5z" />
    <glyph glyph-name="Adieresis" unicode="&#xc4;" horiz-adv-x="618" 
d="M619 0h-225q-18 107 -19 113h-159q-10 -52 -19 -113h-198q85 414 167 675h285q91 -291 168 -675zM245 266h101q-19 99 -48 234h-4q-24 -104 -49 -234zM506 787q0 -41 -20.5 -59.5t-67.5 -18.5q-48 0 -68.5 17.5t-20.5 60.5q0 41 20.5 59.5t68.5 18.5t68 -17.5t20 -60.5z
M291 787q0 -41 -20.5 -59.5t-67.5 -18.5q-48 0 -68.5 17.5t-20.5 60.5q0 41 20.5 59.5t68.5 18.5t68 -17.5t20 -60.5z" />
    <glyph glyph-name="Aring" unicode="&#xc5;" horiz-adv-x="618" 
d="M619 0h-225q-18 107 -19 113h-159q-10 -52 -19 -113h-198q85 414 167 675h285q91 -291 168 -675zM245 266h101q-19 99 -48 234h-4q-24 -104 -49 -234zM448 778q0 -42 -37.5 -66t-103.5 -24q-137 0 -137 87q0 42 37.5 66t103.5 24q137 0 137 -87zM342 776q0 29 -32 29
q-34 0 -34 -29q0 -28 34 -28q32 0 32 28z" />
    <glyph glyph-name="AE" unicode="&#xc6;" horiz-adv-x="766" 
d="M733 0h-396v113h-138q-19 -66 -31 -113h-201q113 355 248 675h514v-157h-182v-100h153v-150h-153v-109h186v-159zM337 266v252h-2q-59 -156 -88 -252h90z" />
    <glyph glyph-name="Ccedilla" unicode="&#xc7;" horiz-adv-x="512" 
d="M431 203l84 -109q-33 -52 -92 -80.5t-122 -28.5q-145 0 -212.5 82t-67.5 256q0 181 73 274t206 93q66 0 119.5 -28t83.5 -81l-92 -96q-37 39 -79 39q-92 0 -92 -178q0 -111 23 -152.5t72 -41.5q50 0 96 51zM207 -41h167q20 -90 -97 -148l-117 36q40 35 50 61t-3 51z" />
    <glyph glyph-name="Egrave" unicode="&#xc8;" horiz-adv-x="478" 
d="M445 0h-396v675h392v-157h-182v-100h153v-150h-153v-109h186v-159zM339 787l-60 -81l-226 49l87 110z" />
    <glyph glyph-name="Eacute" unicode="&#xc9;" horiz-adv-x="478" 
d="M445 0h-396v675h392v-157h-182v-100h153v-150h-153v-109h186v-159zM151 787l199 78l87 -110l-226 -49z" />
    <glyph glyph-name="Ecircumflex" unicode="&#xca;" horiz-adv-x="478" 
d="M445 0h-396v675h392v-157h-182v-100h153v-150h-153v-109h186v-159zM246 865l164 -81l-49 -78l-117 39l-117 -39l-47 75z" />
    <glyph glyph-name="Edieresis" unicode="&#xcb;" horiz-adv-x="478" 
d="M445 0h-396v675h392v-157h-182v-100h153v-150h-153v-109h186v-159zM441 787q0 -41 -20.5 -59.5t-67.5 -18.5q-48 0 -68.5 17.5t-20.5 60.5q0 41 20.5 59.5t68.5 18.5t68 -17.5t20 -60.5zM226 787q0 -41 -20.5 -59.5t-67.5 -18.5q-48 0 -68.5 17.5t-20.5 60.5
q0 41 20.5 59.5t68.5 18.5t68 -17.5t20 -60.5z" />
    <glyph glyph-name="Igrave" unicode="&#xcc;" horiz-adv-x="308" 
d="M259 0h-210v675h210v-675zM256 787l-60 -81l-226 49l87 110z" />
    <glyph glyph-name="Iacute" unicode="&#xcd;" horiz-adv-x="308" 
d="M259 0h-210v675h210v-675zM41 787l199 78l87 -110l-226 -49z" />
    <glyph glyph-name="Icircumflex" unicode="&#xce;" horiz-adv-x="308" 
d="M259 0h-210v675h210v-675zM154 865l164 -81l-49 -78l-117 39l-117 -39l-47 75z" />
    <glyph glyph-name="Idieresis" unicode="&#xcf;" horiz-adv-x="308" 
d="M259 0h-210v675h210v-675zM327 787q0 -41 -19 -59.5t-62 -18.5q-44 0 -63 17.5t-19 60.5q0 41 19 59.5t63 18.5t62.5 -17.5t18.5 -60.5zM144 787q0 -41 -19 -59.5t-62 -18.5q-44 0 -63 17.5t-19 60.5q0 41 19 59.5t63 18.5t62.5 -17.5t18.5 -60.5z" />
    <glyph glyph-name="Eth" unicode="&#xd0;" horiz-adv-x="628" 
d="M59 418v257q48 0 128 1t114 1q162 0 234 -82t72 -236q0 -364 -338 -364q-37 0 -107.5 2.5t-102.5 2.5v268h-39v150h39zM269 523v-105h62v-150h-62v-114q8 -1 21 -1q97 0 97 186q0 105 -24.5 145t-66.5 40q-18 0 -27 -1z" />
    <glyph glyph-name="Ntilde" unicode="&#xd1;" horiz-adv-x="649" 
d="M600 0h-231l-121 294l-37 115h-2q10 -129 10 -169v-240h-170v675h248l104 -252q7 -17 16.5 -45.5t14.5 -49.5l6 -20h2q-10 129 -10 169v198h170v-675zM443 865l77 -52q-45 -104 -141 -104q-40 0 -71.5 19.5t-38.5 19.5q-12 0 -20.5 -8t-23.5 -31l-77 52q45 104 141 104
q30 0 52 -10t35.5 -20t22.5 -10q12 0 20.5 8.5t23.5 31.5z" />
    <glyph glyph-name="Ograve" unicode="&#xd2;" horiz-adv-x="646" 
d="M625 352q0 -185 -79.5 -276t-228.5 -91q-155 0 -225.5 78.5t-70.5 259.5q0 185 79.5 276t228.5 91q155 0 225.5 -78.5t70.5 -259.5zM405 323q0 67 -6 110t-18.5 64t-26.5 28t-35 7q-25 0 -40 -11t-26.5 -52.5t-11.5 -116.5q0 -67 6 -110t18.5 -63.5t26.5 -27.5t35 -7
q38 0 58 35.5t20 143.5zM386 787l-60 -81l-226 49l87 110z" />
    <glyph glyph-name="Oacute" unicode="&#xd3;" horiz-adv-x="646" 
d="M625 352q0 -185 -79.5 -276t-228.5 -91q-155 0 -225.5 78.5t-70.5 259.5q0 185 79.5 276t228.5 91q155 0 225.5 -78.5t70.5 -259.5zM405 323q0 67 -6 110t-18.5 64t-26.5 28t-35 7q-25 0 -40 -11t-26.5 -52.5t-11.5 -116.5q0 -67 6 -110t18.5 -63.5t26.5 -27.5t35 -7
q38 0 58 35.5t20 143.5zM230 787l199 78l87 -110l-226 -49z" />
    <glyph glyph-name="Ocircumflex" unicode="&#xd4;" horiz-adv-x="646" 
d="M625 352q0 -185 -79.5 -276t-228.5 -91q-155 0 -225.5 78.5t-70.5 259.5q0 185 79.5 276t228.5 91q155 0 225.5 -78.5t70.5 -259.5zM405 323q0 67 -6 110t-18.5 64t-26.5 28t-35 7q-25 0 -40 -11t-26.5 -52.5t-11.5 -116.5q0 -67 6 -110t18.5 -63.5t26.5 -27.5t35 -7
q38 0 58 35.5t20 143.5zM324 865l164 -81l-49 -78l-117 39l-117 -39l-47 75z" />
    <glyph glyph-name="Otilde" unicode="&#xd5;" horiz-adv-x="646" 
d="M625 352q0 -185 -79.5 -276t-228.5 -91q-155 0 -225.5 78.5t-70.5 259.5q0 185 79.5 276t228.5 91q155 0 225.5 -78.5t70.5 -259.5zM405 323q0 67 -6 110t-18.5 64t-26.5 28t-35 7q-25 0 -40 -11t-26.5 -52.5t-11.5 -116.5q0 -67 6 -110t18.5 -63.5t26.5 -27.5t35 -7
q38 0 58 35.5t20 143.5zM432 865l77 -52q-45 -104 -141 -104q-40 0 -71.5 19.5t-38.5 19.5q-12 0 -20.5 -8t-23.5 -31l-77 52q45 104 141 104q30 0 52 -10t35.5 -20t22.5 -10q12 0 20.5 8.5t23.5 31.5z" />
    <glyph glyph-name="Odieresis" unicode="&#xd6;" horiz-adv-x="646" 
d="M625 352q0 -185 -79.5 -276t-228.5 -91q-155 0 -225.5 78.5t-70.5 259.5q0 185 79.5 276t228.5 91q155 0 225.5 -78.5t70.5 -259.5zM405 323q0 67 -6 110t-18.5 64t-26.5 28t-35 7q-25 0 -40 -11t-26.5 -52.5t-11.5 -116.5q0 -67 6 -110t18.5 -63.5t26.5 -27.5t35 -7
q38 0 58 35.5t20 143.5zM518 787q0 -41 -20.5 -59.5t-67.5 -18.5q-48 0 -68.5 17.5t-20.5 60.5q0 41 20.5 59.5t68.5 18.5t68 -17.5t20 -60.5zM303 787q0 -41 -20.5 -59.5t-67.5 -18.5q-48 0 -68.5 17.5t-20.5 60.5q0 41 20.5 59.5t68.5 18.5t68 -17.5t20 -60.5z" />
    <glyph glyph-name="multiply" unicode="&#xd7;" 
d="M355 302l118 -118l-104 -104l-118 118l-118 -118l-104 104l118 118l-118 118l104 104l118 -118l118 118l104 -104z" />
    <glyph glyph-name="Oslash" unicode="&#xd8;" horiz-adv-x="646" 
d="M625 352q0 -185 -79.5 -276t-228.5 -91q-79 0 -132 18l-56 -92l-101 53l61 101q-68 80 -68 258q0 185 79.5 276t228.5 91q77 0 132 -18l56 92l101 -53l-62 -100q69 -79 69 -259zM420 322q0 54 10 82l-157 -257q19 -15 55 -15q29 0 47 11.5t31.5 55.5t13.5 123zM318 544
q-22 0 -36.5 -6.5t-28 -25.5t-20.5 -58.5t-7 -100.5q0 -57 -9 -80l156 256q-20 15 -55 15z" />
    <glyph glyph-name="Ugrave" unicode="&#xd9;" horiz-adv-x="652" 
d="M604 675v-438q0 -252 -289 -252q-135 0 -201 54t-66 180v456h210v-437q0 -57 15.5 -80t51.5 -23q38 0 55.5 20t17.5 71v449h206zM396 787l-60 -81l-226 49l87 110z" />
    <glyph glyph-name="Uacute" unicode="&#xda;" horiz-adv-x="652" 
d="M604 675v-438q0 -252 -289 -252q-135 0 -201 54t-66 180v456h210v-437q0 -57 15.5 -80t51.5 -23q38 0 55.5 20t17.5 71v449h206zM250 787l199 78l87 -110l-226 -49z" />
    <glyph glyph-name="Ucircumflex" unicode="&#xdb;" horiz-adv-x="652" 
d="M604 675v-438q0 -252 -289 -252q-135 0 -201 54t-66 180v456h210v-437q0 -57 15.5 -80t51.5 -23q38 0 55.5 20t17.5 71v449h206zM327 865l164 -81l-49 -78l-117 39l-117 -39l-47 75z" />
    <glyph glyph-name="Udieresis" unicode="&#xdc;" horiz-adv-x="652" 
d="M604 675v-438q0 -252 -289 -252q-135 0 -201 54t-66 180v456h210v-437q0 -57 15.5 -80t51.5 -23q38 0 55.5 20t17.5 71v449h206zM522 787q0 -41 -20.5 -59.5t-67.5 -18.5q-48 0 -68.5 17.5t-20.5 60.5q0 41 20.5 59.5t68.5 18.5t68 -17.5t20 -60.5zM307 787
q0 -41 -20.5 -59.5t-67.5 -18.5q-48 0 -68.5 17.5t-20.5 60.5q0 41 20.5 59.5t68.5 18.5t68 -17.5t20 -60.5z" />
    <glyph glyph-name="Yacute" unicode="&#xdd;" horiz-adv-x="499" 
d="M308 675h201q-64 -246 -156 -410v-265h-210v265q-101 192 -153 410h225q15 -110 46 -215h3q19 61 44 215zM180 787l199 78l87 -110l-226 -49z" />
    <glyph glyph-name="Thorn" unicode="&#xde;" horiz-adv-x="578" 
d="M259 0h-210v675h210v-95h50q260 0 260 -224q0 -256 -298 -256h-12v-100zM259 430v-180h19q72 0 72 90q0 47 -17 68.5t-55 21.5h-19z" />
    <glyph glyph-name="germandbls" unicode="&#xdf;" horiz-adv-x="593" 
d="M238 0h-200v488q0 112 70 174t189 62q123 0 180.5 -44.5t57.5 -121.5q0 -37 -8 -64t-19.5 -40.5t-23 -23.5t-19.5 -21t-8 -25q0 -12 13.5 -26t33 -30t39 -36.5t33 -52.5t13.5 -70q0 -78 -45 -128.5t-135 -50.5q-81 0 -146 42l12 95q42 -5 73 -5q39 0 39 27
q0 16 -13.5 30.5t-32.5 29t-37.5 32.5t-32 47.5t-13.5 67.5q0 33 14 61.5t30.5 44t30.5 34.5t14 36q0 52 -51 52q-32 0 -45 -20.5t-13 -70.5v-493z" />
    <glyph glyph-name="agrave" unicode="&#xe0;" horiz-adv-x="534" 
d="M497 0h-153l-12 43q-63 -58 -148 -58q-78 0 -125.5 44.5t-47.5 121.5q0 174 270 174h18v17q0 41 -66 41q-78 0 -169 -31l-23 118q122 53 239 53q103 0 160 -43t57 -122v-358zM299 146v63h-24q-71 0 -71 -44q0 -42 41 -42q29 0 54 23zM356 595l-100 -48l-171 121l136 65z
" />
    <glyph glyph-name="aacute" unicode="&#xe1;" horiz-adv-x="534" 
d="M497 0h-153l-12 43q-63 -58 -148 -58q-78 0 -125.5 44.5t-47.5 121.5q0 174 270 174h18v17q0 41 -66 41q-78 0 -169 -31l-23 118q122 53 239 53q103 0 160 -43t57 -122v-358zM299 146v63h-24q-71 0 -71 -44q0 -42 41 -42q29 0 54 23zM449 668l-171 -121l-100 48l135 138z
" />
    <glyph glyph-name="acircumflex" unicode="&#xe2;" horiz-adv-x="534" 
d="M497 0h-153l-12 43q-63 -58 -148 -58q-78 0 -125.5 44.5t-47.5 121.5q0 174 270 174h18v17q0 41 -66 41q-78 0 -169 -31l-23 118q122 53 239 53q103 0 160 -43t57 -122v-358zM299 146v63h-24q-71 0 -71 -44q0 -42 41 -42q29 0 54 23zM430 624l-56 -77l-103 56l-105 -56
l-54 75l163 121z" />
    <glyph glyph-name="atilde" unicode="&#xe3;" horiz-adv-x="534" 
d="M497 0h-153l-12 43q-63 -58 -148 -58q-78 0 -125.5 44.5t-47.5 121.5q0 174 270 174h18v17q0 41 -66 41q-78 0 -169 -31l-23 118q122 53 239 53q103 0 160 -43t57 -122v-358zM299 146v63h-24q-71 0 -71 -44q0 -42 41 -42q29 0 54 23zM367 712l73 -53q-43 -105 -134 -105
q-38 0 -68 20t-37 20q-11 0 -19.5 -8.5t-22.5 -31.5l-73 53q43 105 134 105q38 0 68 -20t37 -20q11 0 19.5 8.5t22.5 31.5z" />
    <glyph glyph-name="adieresis" unicode="&#xe4;" horiz-adv-x="534" 
d="M497 0h-153l-12 43q-63 -58 -148 -58q-78 0 -125.5 44.5t-47.5 121.5q0 174 270 174h18v17q0 41 -66 41q-78 0 -169 -31l-23 118q122 53 239 53q103 0 160 -43t57 -122v-358zM299 146v63h-24q-71 0 -71 -44q0 -42 41 -42q29 0 54 23zM465 628q0 -44 -20.5 -63.5
t-68.5 -19.5t-68.5 19t-20.5 64t20.5 64.5t68.5 19.5t68.5 -19t20.5 -65zM256 628q0 -44 -20.5 -63.5t-68.5 -19.5t-68.5 19t-20.5 64t20.5 64.5t68.5 19.5t68.5 -19t20.5 -65z" />
    <glyph glyph-name="aring" unicode="&#xe5;" horiz-adv-x="534" 
d="M497 0h-153l-12 43q-63 -58 -148 -58q-78 0 -125.5 44.5t-47.5 121.5q0 174 270 174h18v17q0 41 -66 41q-78 0 -169 -31l-23 118q122 53 239 53q103 0 160 -43t57 -122v-358zM299 146v63h-24q-71 0 -71 -44q0 -42 41 -42q29 0 54 23zM419 658q0 -56 -40 -88t-110 -32
q-146 0 -146 116q0 56 40 88t110 32q146 0 146 -116zM306 656q0 38 -35 38t-35 -38t35 -38t35 38z" />
    <glyph glyph-name="ae" unicode="&#xe6;" horiz-adv-x="807" 
d="M756 161l24 -111q-124 -65 -246 -65q-126 0 -180 69q-82 -69 -170 -69q-78 0 -125.5 44.5t-47.5 121.5q0 174 270 174h18v17q0 41 -66 41q-78 0 -169 -31l-23 118q122 53 237 53q85 0 138 -34q65 35 137 35q57 0 99.5 -15t76 -49.5t47.5 -98t8 -154.5h-291v-3
q0 -33 20.5 -51t56.5 -18q80 0 186 26zM299 209h-24q-71 0 -71 -44q0 -42 41 -42q27 0 54 23v63zM494 325h99v1q0 40 -11.5 54.5t-35.5 14.5q-48 0 -52 -70z" />
    <glyph glyph-name="ccedilla" unicode="&#xe7;" horiz-adv-x="418" 
d="M363 162l55 -103q-74 -72 -183 -72q-111 0 -164 64.5t-53 196.5q0 120 62 198t170 78q102 0 161 -65l-66 -103q-30 22 -62 22q-58 0 -58 -118q0 -73 13 -99.5t42 -26.5q38 0 83 28zM145 -41h167q20 -90 -97 -148l-117 36q40 35 50 61t-3 51z" />
    <glyph glyph-name="egrave" unicode="&#xe8;" horiz-adv-x="535" 
d="M512 207h-291v-3q0 -33 20.5 -51t56.5 -18q80 0 186 26l24 -111q-124 -65 -246 -65q-118 0 -181 59.5t-63 198.5q0 138 69.5 209.5t191.5 71.5q58 0 101 -15t76 -49.5t47.5 -98t8.5 -154.5zM222 325h99v1q0 40 -11.5 54.5t-35.5 14.5q-48 0 -52 -70zM360 595l-100 -48
l-171 121l136 65z" />
    <glyph glyph-name="eacute" unicode="&#xe9;" horiz-adv-x="535" 
d="M512 207h-291v-3q0 -33 20.5 -51t56.5 -18q80 0 186 26l24 -111q-124 -65 -246 -65q-118 0 -181 59.5t-63 198.5q0 138 69.5 209.5t191.5 71.5q58 0 101 -15t76 -49.5t47.5 -98t8.5 -154.5zM222 325h99v1q0 40 -11.5 54.5t-35.5 14.5q-48 0 -52 -70zM447 668l-171 -121
l-100 48l135 138z" />
    <glyph glyph-name="ecircumflex" unicode="&#xea;" horiz-adv-x="535" 
d="M512 207h-291v-3q0 -33 20.5 -51t56.5 -18q80 0 186 26l24 -111q-124 -65 -246 -65q-118 0 -181 59.5t-63 198.5q0 138 69.5 209.5t191.5 71.5q58 0 101 -15t76 -49.5t47.5 -98t8.5 -154.5zM222 325h99v1q0 40 -11.5 54.5t-35.5 14.5q-48 0 -52 -70zM435 624l-56 -77
l-103 56l-105 -56l-54 75l163 121z" />
    <glyph glyph-name="edieresis" unicode="&#xeb;" horiz-adv-x="535" 
d="M512 207h-291v-3q0 -33 20.5 -51t56.5 -18q80 0 186 26l24 -111q-124 -65 -246 -65q-118 0 -181 59.5t-63 198.5q0 138 69.5 209.5t191.5 71.5q58 0 101 -15t76 -49.5t47.5 -98t8.5 -154.5zM222 325h99v1q0 40 -11.5 54.5t-35.5 14.5q-48 0 -52 -70zM470 628
q0 -44 -20.5 -63.5t-68.5 -19.5t-68.5 19t-20.5 64t20.5 64.5t68.5 19.5t68.5 -19t20.5 -65zM261 628q0 -44 -20.5 -63.5t-68.5 -19.5t-68.5 19t-20.5 64t20.5 64.5t68.5 19.5t68.5 -19t20.5 -65z" />
    <glyph glyph-name="igrave" unicode="&#xec;" horiz-adv-x="276" 
d="M238 0h-200v509h200v-509zM253 595l-100 -48l-171 121l136 65z" />
    <glyph glyph-name="iacute" unicode="&#xed;" horiz-adv-x="276" 
d="M238 0h-200v509h200v-509zM305 668l-171 -121l-100 48l135 138z" />
    <glyph glyph-name="icircumflex" unicode="&#xee;" horiz-adv-x="276" 
d="M238 0h-200v509h200v-509zM296 624l-56 -77l-103 56l-105 -56l-54 75l163 121z" />
    <glyph glyph-name="idieresis" unicode="&#xef;" horiz-adv-x="276" 
d="M238 0h-200v509h200v-509zM320 628q0 -44 -19.5 -63.5t-66.5 -19.5q-48 0 -67 18.5t-19 64.5q0 45 19.5 64.5t66.5 19.5q48 0 67 -18.5t19 -65.5zM129 628q0 -44 -19.5 -63.5t-66.5 -19.5q-48 0 -67 18.5t-19 64.5q0 45 19.5 64.5t66.5 19.5q48 0 67 -18.5t19 -65.5z" />
    <glyph glyph-name="eth" unicode="&#xf0;" horiz-adv-x="553" 
d="M520 601l-72 -12q93 -128 93 -273q0 -173 -73 -251t-212 -78q-119 0 -181.5 61t-62.5 178q0 127 65 208t187 81q10 0 18 -2q-13 19 -33 43l-81 -14l-74 87l80 13q-44 43 -82 67h238q21 -11 43 -33l73 12zM323 269q0 64 -12 112q-6 1 -18 1q-36 0 -50.5 -32t-14.5 -96
q0 -116 48 -116q28 0 37.5 23t9.5 108z" />
    <glyph glyph-name="ntilde" unicode="&#xf1;" horiz-adv-x="556" 
d="M518 0h-201q0 68 2 157.5t2 101.5q0 51 -3.5 74t-9 27.5t-19.5 4.5q-19 0 -51 -16v-349h-200v509h163l13 -45q62 60 145 60q88 0 125.5 -56.5t37.5 -180.5q0 -18 -2 -116t-2 -171zM385 712l73 -53q-43 -105 -134 -105q-38 0 -68 20t-37 20q-11 0 -19.5 -8.5t-22.5 -31.5
l-73 53q43 105 134 105q38 0 68 -20t37 -20q11 0 19.5 8.5t22.5 31.5z" />
    <glyph glyph-name="ograve" unicode="&#xf2;" horiz-adv-x="562" 
d="M544 265q0 -140 -70.5 -210t-201.5 -70q-129 0 -191.5 60t-62.5 199q0 140 70.5 210t201.5 70q129 0 191.5 -60t62.5 -199zM340 243q0 60 -9 91.5t-20 38.5t-30 7q-28 0 -43.5 -23.5t-15.5 -90.5q0 -60 9 -91.5t20 -38.5t30 -7q28 0 43.5 23.5t15.5 90.5zM369 595
l-100 -48l-171 121l136 65z" />
    <glyph glyph-name="oacute" unicode="&#xf3;" horiz-adv-x="562" 
d="M544 265q0 -140 -70.5 -210t-201.5 -70q-129 0 -191.5 60t-62.5 199q0 140 70.5 210t201.5 70q129 0 191.5 -60t62.5 -199zM340 243q0 60 -9 91.5t-20 38.5t-30 7q-28 0 -43.5 -23.5t-15.5 -90.5q0 -60 9 -91.5t20 -38.5t30 -7q28 0 43.5 23.5t15.5 90.5zM446 668
l-171 -121l-100 48l135 138z" />
    <glyph glyph-name="ocircumflex" unicode="&#xf4;" horiz-adv-x="562" 
d="M544 265q0 -140 -70.5 -210t-201.5 -70q-129 0 -191.5 60t-62.5 199q0 140 70.5 210t201.5 70q129 0 191.5 -60t62.5 -199zM340 243q0 60 -9 91.5t-20 38.5t-30 7q-28 0 -43.5 -23.5t-15.5 -90.5q0 -60 9 -91.5t20 -38.5t30 -7q28 0 43.5 23.5t15.5 90.5zM442 624
l-56 -77l-103 56l-105 -56l-54 75l163 121z" />
    <glyph glyph-name="otilde" unicode="&#xf5;" horiz-adv-x="562" 
d="M544 265q0 -140 -70.5 -210t-201.5 -70q-129 0 -191.5 60t-62.5 199q0 140 70.5 210t201.5 70q129 0 191.5 -60t62.5 -199zM340 243q0 60 -9 91.5t-20 38.5t-30 7q-28 0 -43.5 -23.5t-15.5 -90.5q0 -60 9 -91.5t20 -38.5t30 -7q28 0 43.5 23.5t15.5 90.5zM387 712l73 -53
q-43 -105 -134 -105q-38 0 -68 20t-37 20q-11 0 -19.5 -8.5t-22.5 -31.5l-73 53q43 105 134 105q38 0 68 -20t37 -20q11 0 19.5 8.5t22.5 31.5z" />
    <glyph glyph-name="odieresis" unicode="&#xf6;" horiz-adv-x="562" 
d="M544 265q0 -140 -70.5 -210t-201.5 -70q-129 0 -191.5 60t-62.5 199q0 140 70.5 210t201.5 70q129 0 191.5 -60t62.5 -199zM340 243q0 60 -9 91.5t-20 38.5t-30 7q-28 0 -43.5 -23.5t-15.5 -90.5q0 -60 9 -91.5t20 -38.5t30 -7q28 0 43.5 23.5t15.5 90.5zM478 628
q0 -44 -20.5 -63.5t-68.5 -19.5t-68.5 19t-20.5 64t20.5 64.5t68.5 19.5t68.5 -19t20.5 -65zM269 628q0 -44 -20.5 -63.5t-68.5 -19.5t-68.5 19t-20.5 64t20.5 64.5t68.5 19.5t68.5 -19t20.5 -65z" />
    <glyph glyph-name="divide" unicode="&#xf7;" 
d="M349 108q0 -54 -19.5 -73t-78.5 -19q-60 0 -80 19t-20 73q0 56 19.5 75t80.5 19q59 0 78.5 -19t19.5 -75zM470 233h-440v138h440v-138zM349 494q0 -54 -19.5 -73t-78.5 -19q-60 0 -80 19t-20 73q0 56 19.5 75t80.5 19q59 0 78.5 -19t19.5 -75z" />
    <glyph glyph-name="oslash" unicode="&#xf8;" horiz-adv-x="562" 
d="M537 544l-54 -82q61 -61 61 -197q0 -140 -70.5 -210t-201.5 -70q-51 0 -93 9l-53 -81l-101 53l53 82q-60 62 -60 196q0 140 70.5 210t201.5 70q58 0 93 -9l53 81zM367 287l-110 -168q8 -2 24 -2q35 0 55.5 26t20.5 99q0 24 10 45zM195 222l110 168q-10 2 -24 2
q-35 0 -55.5 -26t-20.5 -99q0 -22 -10 -45z" />
    <glyph glyph-name="ugrave" unicode="&#xf9;" horiz-adv-x="556" 
d="M518 0h-163l-13 45q-62 -60 -145 -60q-88 0 -125.5 56.5t-37.5 180.5q0 18 2 116t2 171h201q0 -68 -2 -157t-2 -102q0 -70 5.5 -88t26.5 -18q19 0 51 16v349h200v-509zM377 595l-100 -48l-171 121l136 65z" />
    <glyph glyph-name="uacute" unicode="&#xfa;" horiz-adv-x="556" 
d="M518 0h-163l-13 45q-62 -60 -145 -60q-88 0 -125.5 56.5t-37.5 180.5q0 18 2 116t2 171h201q0 -68 -2 -157t-2 -102q0 -70 5.5 -88t26.5 -18q19 0 51 16v349h200v-509zM445 668l-171 -121l-100 48l135 138z" />
    <glyph glyph-name="ucircumflex" unicode="&#xfb;" horiz-adv-x="556" 
d="M518 0h-163l-13 45q-62 -60 -145 -60q-88 0 -125.5 56.5t-37.5 180.5q0 18 2 116t2 171h201q0 -68 -2 -157t-2 -102q0 -70 5.5 -88t26.5 -18q19 0 51 16v349h200v-509zM438 624l-56 -77l-103 56l-105 -56l-54 75l163 121z" />
    <glyph glyph-name="udieresis" unicode="&#xfc;" horiz-adv-x="556" 
d="M518 0h-163l-13 45q-62 -60 -145 -60q-88 0 -125.5 56.5t-37.5 180.5q0 18 2 116t2 171h201q0 -68 -2 -157t-2 -102q0 -70 5.5 -88t26.5 -18q19 0 51 16v349h200v-509zM471 628q0 -44 -20.5 -63.5t-68.5 -19.5t-68.5 19t-20.5 64t20.5 64.5t68.5 19.5t68.5 -19t20.5 -65z
M262 628q0 -44 -20.5 -63.5t-68.5 -19.5t-68.5 19t-20.5 64t20.5 64.5t68.5 19.5t68.5 -19t20.5 -65z" />
    <glyph glyph-name="yacute" unicode="&#xfd;" horiz-adv-x="510" 
d="M306 509h204q-9 -166 -47 -300.5t-94 -218t-123 -128t-138 -44.5q-44 0 -97 31v113q29 -5 63 -5q37 0 50 8q12 7 12 20q0 10 -34 139l-102 385h213l41 -215q12 -63 17 -133h3q20 72 29.5 172.5t2.5 175.5zM440 668l-171 -121l-100 48l135 138z" />
    <glyph glyph-name="thorn" unicode="&#xfe;" horiz-adv-x="556" 
d="M238 -173h-200v882h200v-226q49 41 109 41q51 0 89.5 -20.5t60 -56t31.5 -78t10 -92.5q0 -149 -70 -220.5t-193 -71.5q-25 0 -37 2v-160zM238 348v-218q14 -6 34 -6q63 0 63 131q0 117 -47 117q-23 0 -50 -24z" />
    <glyph glyph-name="ydieresis" unicode="&#xff;" horiz-adv-x="510" 
d="M306 509h204q-9 -166 -47 -300.5t-94 -218t-123 -128t-138 -44.5q-44 0 -97 31v113q29 -5 63 -5q37 0 50 8q12 7 12 20q0 10 -34 139l-102 385h213l41 -215q12 -63 17 -133h3q20 72 29.5 172.5t2.5 175.5zM453 628q0 -44 -20.5 -63.5t-68.5 -19.5t-68.5 19t-20.5 64
t20.5 64.5t68.5 19.5t68.5 -19t20.5 -65zM244 628q0 -44 -20.5 -63.5t-68.5 -19.5t-68.5 19t-20.5 64t20.5 64.5t68.5 19.5t68.5 -19t20.5 -65z" />
    <glyph glyph-name="Amacron" unicode="&#x100;" horiz-adv-x="618" 
d="M619 0h-225q-18 107 -19 113h-159q-10 -52 -19 -113h-198q85 414 167 675h285q91 -291 168 -675zM245 266h101q-19 99 -48 234h-4q-24 -104 -49 -234zM462 728h-306v125h306v-125z" />
    <glyph glyph-name="amacron" unicode="&#x101;" horiz-adv-x="534" 
d="M497 0h-153l-12 43q-63 -58 -148 -58q-78 0 -125.5 44.5t-47.5 121.5q0 174 270 174h18v17q0 41 -66 41q-78 0 -169 -31l-23 118q122 53 239 53q103 0 160 -43t57 -122v-358zM299 146v63h-24q-71 0 -71 -44q0 -42 41 -42q29 0 54 23zM423 565h-306v135h306v-135z" />
    <glyph glyph-name="Abreve" unicode="&#x102;" horiz-adv-x="618" 
d="M619 0h-225q-18 107 -19 113h-159q-10 -52 -19 -113h-198q85 414 167 675h285q91 -291 168 -675zM245 266h101q-19 99 -48 234h-4q-24 -104 -49 -234zM356 875h116q0 -84 -43.5 -128t-121.5 -44q-162 0 -162 172h116q0 -52 47 -52q48 0 48 52z" />
    <glyph glyph-name="abreve" unicode="&#x103;" horiz-adv-x="534" 
d="M497 0h-153l-12 43q-63 -58 -148 -58q-78 0 -125.5 44.5t-47.5 121.5q0 174 270 174h18v17q0 41 -66 41q-78 0 -169 -31l-23 118q122 53 239 53q103 0 160 -43t57 -122v-358zM299 146v63h-24q-71 0 -71 -44q0 -42 41 -42q29 0 54 23zM320 732h119q0 -95 -44.5 -143.5
t-123.5 -48.5q-165 0 -165 192h119q-1 -39 10 -52.5t36 -13.5q26 0 37.5 14t11.5 52z" />
    <glyph glyph-name="Aogonek" unicode="&#x104;" horiz-adv-x="618" 
d="M558 -78l23 -82q-56 -28 -118 -28q-119 0 -119 81q0 55 50 107q-18 107 -19 113h-159q-10 -52 -19 -113h-198q85 414 167 675h285q91 -291 168 -675q-68 0 -94.5 -21.5t-26.5 -48.5q0 -17 24 -17q20 0 36 9zM245 266h101q-19 99 -48 234h-4q-24 -104 -49 -234z" />
    <glyph glyph-name="aogonek" unicode="&#x105;" horiz-adv-x="534" 
d="M498 -78l23 -82q-56 -28 -118 -28q-119 0 -119 81q0 62 58 114l-10 36q-63 -58 -148 -58q-173 0 -173 156q0 85 70 134.5t200 49.5h18v17q0 41 -66 41q-78 0 -169 -31l-23 118q122 53 239 53q103 0 160 -43t57 -122v-358q-59 -26 -59 -70q0 -17 24 -17q20 0 36 9z
M299 146v63h-24q-71 0 -71 -47q0 -39 40 -39q28 0 55 23z" />
    <glyph glyph-name="Cacute" unicode="&#x106;" horiz-adv-x="512" 
d="M431 203l84 -109q-33 -52 -92 -80.5t-122 -28.5q-145 0 -212.5 82t-67.5 256q0 181 73 274t206 93q66 0 119.5 -28t83.5 -81l-92 -96q-37 39 -79 39q-92 0 -92 -178q0 -111 23 -152.5t72 -41.5q50 0 96 51zM202 787l199 78l87 -110l-226 -49z" />
    <glyph glyph-name="cacute" unicode="&#x107;" horiz-adv-x="418" 
d="M363 162l55 -103q-74 -72 -183 -72q-111 0 -164 64.5t-53 196.5q0 120 62 198t170 78q102 0 161 -65l-66 -103q-30 22 -62 22q-58 0 -58 -118q0 -73 13 -99.5t42 -26.5q38 0 83 28zM433 668l-171 -121l-100 48l135 138z" />
    <glyph glyph-name="Ccircumflex" unicode="&#x108;" horiz-adv-x="512" 
d="M431 203l84 -109q-33 -52 -92 -80.5t-122 -28.5q-145 0 -212.5 82t-67.5 256q0 181 73 274t206 93q66 0 119.5 -28t83.5 -81l-92 -96q-37 39 -79 39q-92 0 -92 -178q0 -111 23 -152.5t72 -41.5q50 0 96 51zM300 865l164 -81l-49 -78l-117 39l-117 -39l-47 75z" />
    <glyph glyph-name="ccircumflex" unicode="&#x109;" horiz-adv-x="418" 
d="M363 162l55 -103q-74 -72 -183 -72q-111 0 -164 64.5t-53 196.5q0 120 62 198t170 78q102 0 161 -65l-66 -103q-30 22 -62 22q-58 0 -58 -118q0 -73 13 -99.5t42 -26.5q38 0 83 28zM405 624l-56 -77l-103 56l-105 -56l-54 75l163 121z" />
    <glyph glyph-name="Cdotaccent" unicode="&#x10a;" horiz-adv-x="512" 
d="M431 203l84 -109q-33 -52 -92 -80.5t-122 -28.5q-145 0 -212.5 82t-67.5 256q0 181 73 274t206 93q66 0 119.5 -28t83.5 -81l-92 -96q-37 39 -79 39q-92 0 -92 -178q0 -111 23 -152.5t72 -41.5q50 0 96 51zM401 798q0 -45 -23.5 -63.5t-82.5 -18.5q-61 0 -82.5 17
t-21.5 65q0 45 23 63.5t82 18.5q61 0 83 -17.5t22 -64.5z" />
    <glyph glyph-name="cdotaccent" unicode="&#x10b;" horiz-adv-x="418" 
d="M363 162l55 -103q-74 -72 -183 -72q-111 0 -164 64.5t-53 196.5q0 120 62 198t170 78q102 0 161 -65l-66 -103q-30 22 -62 22q-58 0 -58 -118q0 -73 13 -99.5t42 -26.5q38 0 83 28zM359 637q0 -51 -25 -72t-91 -21q-68 0 -92 20t-24 73q0 51 25 72t91 21q68 0 92 -20
t24 -73z" />
    <glyph glyph-name="Ccaron" unicode="&#x10c;" horiz-adv-x="512" 
d="M431 203l84 -109q-33 -52 -92 -80.5t-122 -28.5q-145 0 -212.5 82t-67.5 256q0 181 73 274t206 93q66 0 119.5 -28t83.5 -81l-92 -96q-37 39 -79 39q-92 0 -92 -178q0 -111 23 -152.5t72 -41.5q50 0 96 51zM295 706l-164 81l49 78l117 -39l117 39l47 -75z" />
    <glyph glyph-name="ccaron" unicode="&#x10d;" horiz-adv-x="418" 
d="M363 162l55 -103q-74 -72 -183 -72q-111 0 -164 64.5t-53 196.5q0 120 62 198t170 78q102 0 161 -65l-66 -103q-30 22 -62 22q-58 0 -58 -118q0 -73 13 -99.5t42 -26.5q38 0 83 28zM399 666l-163 -121l-155 119l56 77l103 -56l105 56z" />
    <glyph glyph-name="Dcaron" unicode="&#x10e;" horiz-adv-x="618" 
d="M49 0v675q48 0 128 1t114 1q162 0 234 -82t72 -236q0 -364 -338 -364q-36 0 -107 2.5t-103 2.5zM259 523v-369q8 -1 21 -1q97 0 97 186q0 105 -24.5 145t-66.5 40q-18 0 -27 -1zM293 706l-164 81l49 78l117 -39l117 39l47 -75z" />
    <glyph glyph-name="dcaron" unicode="&#x10f;" horiz-adv-x="665" 
d="M518 0h-163l-13 45q-60 -60 -133 -60q-51 0 -89.5 20.5t-60 56t-31.5 78t-10 92.5q0 149 70 220.5t193 71.5q25 0 37 -2v187h200v-709zM318 157v222q-14 6 -34 6q-63 0 -63 -131q0 -117 47 -117q22 0 50 20zM695 745l-67 -202l-95 15l31 212z" />
    <glyph glyph-name="Dcroat" unicode="&#x110;" horiz-adv-x="628" 
d="M59 418v257q48 0 128 1t114 1q162 0 234 -82t72 -236q0 -364 -338 -364q-37 0 -107.5 2.5t-102.5 2.5v268h-39v150h39zM269 523v-105h62v-150h-62v-114q8 -1 21 -1q97 0 97 186q0 105 -24.5 145t-66.5 40q-18 0 -27 -1z" />
    <glyph glyph-name="dcroat" unicode="&#x111;" horiz-adv-x="556" 
d="M518 546v-546h-163l-13 45q-60 -60 -133 -60q-51 0 -89.5 20.5t-60 56t-31.5 78t-10 92.5q0 149 70 220.5t193 71.5q25 0 37 -2v24h-70v104h70v59h200v-59h46v-104h-46zM318 157v222q-14 6 -34 6q-63 0 -63 -131q0 -117 47 -117q22 0 50 20z" />
    <glyph glyph-name="Emacron" unicode="&#x112;" horiz-adv-x="478" 
d="M445 0h-396v675h392v-157h-182v-100h153v-150h-153v-109h186v-159zM398 728h-306v125h306v-125z" />
    <glyph glyph-name="emacron" unicode="&#x113;" horiz-adv-x="535" 
d="M512 207h-291v-3q0 -33 20.5 -51t56.5 -18q80 0 186 26l24 -111q-124 -65 -246 -65q-118 0 -181 59.5t-63 198.5q0 138 69.5 209.5t191.5 71.5q58 0 101 -15t76 -49.5t47.5 -98t8.5 -154.5zM222 325h99v1q0 40 -11.5 54.5t-35.5 14.5q-48 0 -52 -70zM426 565h-306v135
h306v-135z" />
    <glyph glyph-name="Ebreve" unicode="&#x114;" horiz-adv-x="478" 
d="M445 0h-396v675h392v-157h-182v-100h153v-150h-153v-109h186v-159zM288 875h116q0 -84 -43.5 -128t-121.5 -44q-162 0 -162 172h116q0 -52 47 -52q48 0 48 52z" />
    <glyph glyph-name="ebreve" unicode="&#x115;" horiz-adv-x="535" 
d="M512 207h-291v-3q0 -33 20.5 -51t56.5 -18q80 0 186 26l24 -111q-124 -65 -246 -65q-118 0 -181 59.5t-63 198.5q0 138 69.5 209.5t191.5 71.5q58 0 101 -15t76 -49.5t47.5 -98t8.5 -154.5zM222 325h99v1q0 40 -11.5 54.5t-35.5 14.5q-48 0 -52 -70zM320 732h119
q0 -95 -44.5 -143.5t-123.5 -48.5q-165 0 -165 192h119q-1 -39 10 -52.5t36 -13.5q26 0 37.5 14t11.5 52z" />
    <glyph glyph-name="Edotaccent" unicode="&#x116;" horiz-adv-x="478" 
d="M445 0h-396v675h392v-157h-182v-100h153v-150h-153v-109h186v-159zM350 792q0 -45 -23.5 -63.5t-82.5 -18.5q-61 0 -82.5 17t-21.5 65q0 45 23 63.5t82 18.5q61 0 83 -17.5t22 -64.5z" />
    <glyph glyph-name="edotaccent" unicode="&#x117;" horiz-adv-x="535" 
d="M512 207h-291v-3q0 -33 20.5 -51t56.5 -18q80 0 186 26l24 -111q-124 -65 -246 -65q-118 0 -181 59.5t-63 198.5q0 138 69.5 209.5t191.5 71.5q58 0 101 -15t76 -49.5t47.5 -98t8.5 -154.5zM222 325h99v1q0 40 -11.5 54.5t-35.5 14.5q-48 0 -52 -70zM389 637
q0 -51 -25 -72t-91 -21q-68 0 -92 20t-24 73q0 51 25 72t91 21q68 0 92 -20t24 -73z" />
    <glyph glyph-name="Eogonek" unicode="&#x118;" horiz-adv-x="478" 
d="M445 159v-159q-35 -9 -52.5 -28t-17.5 -42q0 -17 24 -17q20 0 36 9l23 -82q-56 -28 -118 -28q-119 0 -119 81q0 55 50 107h-222v675h392v-157h-182v-100h153v-150h-153v-109h186z" />
    <glyph glyph-name="eogonek" unicode="&#x119;" horiz-adv-x="535" 
d="M484 161l24 -111q-26 -20 -53.5 -57.5t-27.5 -62.5q0 -17 24 -17q20 0 36 9l23 -82q-56 -28 -118 -28q-119 0 -119 81q0 52 42 96q-30 -4 -53 -4q-118 0 -181 59.5t-63 198.5q0 138 69.5 209.5t191.5 71.5q58 0 101 -15t76 -49.5t47.5 -98t8.5 -154.5h-291v-3
q0 -33 20.5 -51t56.5 -18q80 0 186 26zM222 325h99v1q0 40 -11.5 54.5t-35.5 14.5q-48 0 -52 -70z" />
    <glyph glyph-name="Ecaron" unicode="&#x11a;" horiz-adv-x="478" 
d="M445 0h-396v675h392v-157h-182v-100h153v-150h-153v-109h186v-159zM239 706l-164 81l49 78l117 -39l117 39l47 -75z" />
    <glyph glyph-name="ecaron" unicode="&#x11b;" horiz-adv-x="535" 
d="M512 207h-291v-3q0 -33 20.5 -51t56.5 -18q80 0 186 26l24 -111q-124 -65 -246 -65q-118 0 -181 59.5t-63 198.5q0 138 69.5 209.5t191.5 71.5q58 0 101 -15t76 -49.5t47.5 -98t8.5 -154.5zM222 325h99v1q0 40 -11.5 54.5t-35.5 14.5q-48 0 -52 -70zM434 666l-163 -121
l-155 119l56 77l103 -56l105 56z" />
    <glyph glyph-name="Gcircumflex" unicode="&#x11c;" horiz-adv-x="581" 
d="M549 418v-349q-112 -84 -253 -84q-143 0 -209 84t-66 248q0 187 81 280t231 93q70 0 125.5 -34.5t90.5 -94.5l-93 -81q-61 46 -115 46q-53 0 -77.5 -39.5t-24.5 -138.5q0 -110 18 -154t54 -44q13 0 33 6v112h-55v150h260zM325 865l164 -81l-49 -78l-117 39l-117 -39
l-47 75z" />
    <glyph glyph-name="gcircumflex" unicode="&#x11d;" horiz-adv-x="556" 
d="M518 497v-473q0 -115 -69 -163.5t-178 -48.5q-90 0 -210 56l13 107q114 -18 173 -18q39 0 55 10t16 35v39q-55 -41 -109 -41q-97 0 -144 68.5t-47 171.5q0 144 74.5 214t214.5 70q99 0 211 -27zM318 168v211q-14 6 -34 6q-63 0 -63 -125q0 -112 47 -112q22 0 50 20z
M437 624l-56 -77l-103 56l-105 -56l-54 75l163 121z" />
    <glyph glyph-name="Gbreve" unicode="&#x11e;" horiz-adv-x="581" 
d="M549 418v-349q-112 -84 -253 -84q-143 0 -209 84t-66 248q0 187 81 280t231 93q70 0 125.5 -34.5t90.5 -94.5l-93 -81q-61 46 -115 46q-53 0 -77.5 -39.5t-24.5 -138.5q0 -110 18 -154t54 -44q13 0 33 6v112h-55v150h260zM351 875h116q0 -84 -43.5 -128t-121.5 -44
q-162 0 -162 172h116q0 -52 47 -52q48 0 48 52z" />
    <glyph glyph-name="gbreve" unicode="&#x11f;" horiz-adv-x="556" 
d="M518 497v-473q0 -115 -69 -163.5t-178 -48.5q-90 0 -210 56l13 107q114 -18 173 -18q39 0 55 10t16 35v39q-55 -41 -109 -41q-97 0 -144 68.5t-47 171.5q0 144 74.5 214t214.5 70q99 0 211 -27zM318 168v211q-14 6 -34 6q-63 0 -63 -125q0 -112 47 -112q22 0 50 20z
M338 732h119q0 -95 -44.5 -143.5t-123.5 -48.5q-165 0 -165 192h119q-1 -39 10 -52.5t36 -13.5q26 0 37.5 14t11.5 52z" />
    <glyph glyph-name="Gdotaccent" unicode="&#x120;" horiz-adv-x="581" 
d="M549 418v-349q-112 -84 -253 -84q-143 0 -209 84t-66 248q0 187 81 280t231 93q70 0 125.5 -34.5t90.5 -94.5l-93 -81q-61 46 -115 46q-53 0 -77.5 -39.5t-24.5 -138.5q0 -110 18 -154t54 -44q13 0 33 6v112h-55v150h260zM420 798q0 -45 -23.5 -63.5t-82.5 -18.5
q-61 0 -82.5 17t-21.5 65q0 45 23 63.5t82 18.5q61 0 83 -17.5t22 -64.5z" />
    <glyph glyph-name="gdotaccent" unicode="&#x121;" horiz-adv-x="556" 
d="M518 497v-473q0 -115 -69 -163.5t-178 -48.5q-90 0 -210 56l13 107q114 -18 173 -18q39 0 55 10t16 35v39q-55 -41 -109 -41q-97 0 -144 68.5t-47 171.5q0 144 74.5 214t214.5 70q99 0 211 -27zM318 168v211q-14 6 -34 6q-63 0 -63 -125q0 -112 47 -112q22 0 50 20z
M394 637q0 -51 -25 -72t-91 -21q-68 0 -92 20t-24 73q0 51 25 72t91 21q68 0 92 -20t24 -73z" />
    <glyph glyph-name="Gcommaaccent" unicode="&#x122;" horiz-adv-x="581" 
d="M549 418v-349q-112 -84 -253 -84q-143 0 -209 84t-66 248q0 187 81 280t231 93q70 0 125.5 -34.5t90.5 -94.5l-93 -81q-61 46 -115 46q-53 0 -77.5 -39.5t-24.5 -138.5q0 -110 18 -154t54 -44q13 0 33 6v112h-55v150h260zM307 -28q34 0 54 -19t20 -50q0 -52 -49 -75
t-145 -13l-18 59q65 2 65 26q0 2 -1.5 8t-1.5 13q0 21 20.5 36t55.5 15z" />
    <glyph glyph-name="gcommaaccent" unicode="&#x123;" horiz-adv-x="556" 
d="M518 497v-473q0 -115 -69 -163.5t-178 -48.5q-90 0 -210 56l13 107q114 -18 173 -18q39 0 55 10t16 35v39q-55 -41 -109 -41q-97 0 -144 68.5t-47 171.5q0 144 74.5 214t214.5 70q99 0 211 -27zM318 168v211q-14 6 -34 6q-63 0 -63 -125q0 -112 47 -112q22 0 50 20z
M429 720l18 -61q-65 -2 -65 -28q0 -2 1.5 -8.5t1.5 -13.5q0 -22 -20.5 -37.5t-55.5 -15.5q-34 0 -54 19.5t-20 52.5q0 54 49.5 78t144.5 14z" />
    <glyph glyph-name="Hcircumflex" unicode="&#x124;" horiz-adv-x="658" 
d="M609 0h-210v262h-140v-262h-210v675h210v-239h140v239h210v-675zM330 865l164 -81l-49 -78l-117 39l-117 -39l-47 75z" />
    <glyph glyph-name="hcircumflex" unicode="&#x125;" horiz-adv-x="556" 
d="M518 0h-201q0 64 2 153t2 106q0 51 -3.5 74t-9 27.5t-19.5 4.5q-19 0 -51 -16v-349h-200v709h200v-228q50 43 121 43q86 0 124.5 -56t38.5 -181q0 -22 -2 -120t-2 -167zM142 885l164 -81l-49 -78l-117 39l-117 -39l-47 75z" />
    <glyph glyph-name="Hbar" unicode="&#x126;" horiz-adv-x="678" 
d="M619 0h-210v240h-140v-240h-210v474h-50v144h50v57h210v-57h140v57h210v-57h50v-144h-50v-474zM269 404h140v70h-140v-70z" />
    <glyph glyph-name="hbar" unicode="&#x127;" horiz-adv-x="556" 
d="M518 0h-201q0 64 2 151t2 103q0 51 -3.5 74t-9 27.5t-19.5 4.5q-19 0 -51 -16v-344h-200v547h-51v133h51v44h200v-44h116v-133h-116v-71q50 43 121 43q86 0 124.5 -56t38.5 -181q0 -22 -2 -117.5t-2 -164.5z" />
    <glyph glyph-name="Itilde" unicode="&#x128;" horiz-adv-x="308" 
d="M259 0h-210v675h210v-675zM263 865l77 -52q-45 -104 -141 -104q-40 0 -71.5 19.5t-38.5 19.5q-12 0 -20.5 -8t-23.5 -31l-77 52q45 104 141 104q30 0 52 -10t35.5 -20t22.5 -10q12 0 20.5 8.5t23.5 31.5z" />
    <glyph glyph-name="itilde" unicode="&#x129;" horiz-adv-x="276" 
d="M238 0h-200v509h200v-509zM242 712l73 -53q-43 -105 -134 -105q-38 0 -68 20t-37 20q-11 0 -19.5 -8.5t-22.5 -31.5l-73 53q43 105 134 105q38 0 68 -20t37 -20q11 0 19.5 8.5t22.5 31.5z" />
    <glyph glyph-name="Imacron" unicode="&#x12a;" horiz-adv-x="308" 
d="M259 0h-210v675h210v-675zM307 728h-306v125h306v-125z" />
    <glyph glyph-name="imacron" unicode="&#x12b;" horiz-adv-x="276" 
d="M238 0h-200v509h200v-509zM291 565h-306v135h306v-135z" />
    <glyph glyph-name="Ibreve" unicode="&#x12c;" horiz-adv-x="308" 
d="M259 0h-210v675h210v-675zM202 875h116q0 -84 -43.5 -128t-121.5 -44q-162 0 -162 172h116q0 -52 47 -52q48 0 48 52z" />
    <glyph glyph-name="ibreve" unicode="&#x12d;" horiz-adv-x="276" 
d="M238 0h-200v509h200v-509zM186 732h119q0 -95 -44.5 -143.5t-123.5 -48.5q-165 0 -165 192h119q-1 -39 10 -52.5t36 -13.5q26 0 37.5 14t11.5 52z" />
    <glyph glyph-name="Iogonek" unicode="&#x12e;" horiz-adv-x="308" 
d="M49 0v675h210v-675q-55 0 -80.5 -21t-25.5 -49q0 -17 24 -17q20 0 36 9l23 -82q-56 -28 -118 -28q-119 0 -119 81q0 55 50 107z" />
    <glyph glyph-name="iogonek" unicode="&#x12f;" horiz-adv-x="276" 
d="M254 627q0 -53 -24.5 -76t-91.5 -23q-68 0 -92 21.5t-24 77.5q0 52 25 74.5t91 22.5q68 0 92 -20.5t24 -76.5zM38 0v509h200v-509q-50 0 -74 -21t-24 -49q0 -17 24 -17q20 0 36 9l23 -82q-56 -28 -118 -28q-119 0 -119 81q0 57 52 107z" />
    <glyph glyph-name="Idotaccent" unicode="&#x130;" horiz-adv-x="308" 
d="M259 0h-210v675h210v-675zM257 792q0 -45 -23.5 -63.5t-82.5 -18.5q-61 0 -82.5 17t-21.5 65q0 45 23 63.5t82 18.5q61 0 83 -17.5t22 -64.5z" />
    <glyph glyph-name="dotlessi" unicode="&#x131;" horiz-adv-x="276" 
d="M238 0h-200v509h200v-509z" />
    <glyph glyph-name="IJ" unicode="&#x132;" horiz-adv-x="616" 
d="M259 0h-210v675h210v-675zM567 675v-600q0 -165 -170 -252l-100 82q37 46 48.5 88.5t11.5 107.5v574h210z" />
    <glyph glyph-name="ij" unicode="&#x133;" horiz-adv-x="552" 
d="M254 626q0 -54 -25 -76t-91 -22q-68 0 -92 21t-24 77q0 54 25 76t91 22q68 0 92 -21t24 -77zM238 0h-200v509h200v-509zM514 509v-455q0 -73 -30 -130t-96 -112l-136 54q62 84 62 158v485h200zM530 626q0 -54 -25 -76t-91 -22q-68 0 -92 21t-24 77q0 54 25 76t91 22
q68 0 92 -21t24 -77z" />
    <glyph glyph-name="Jcircumflex" unicode="&#x134;" horiz-adv-x="308" 
d="M259 675v-600q0 -165 -170 -252l-100 82q37 46 48.5 88.5t11.5 107.5v574h210zM155 865l164 -81l-49 -78l-117 39l-117 -39l-47 75z" />
    <glyph glyph-name="jcircumflex" unicode="&#x135;" horiz-adv-x="276" 
d="M238 509v-455q0 -73 -30 -130t-96 -112l-136 54q62 84 62 158v485h200zM297 624l-56 -77l-103 56l-105 -56l-54 75l163 121z" />
    <glyph glyph-name="Kcommaaccent" unicode="&#x136;" horiz-adv-x="584" 
d="M584 0h-232l-90 284h-3v-284h-210v675h210v-267h3l91 267h219l-128 -294zM302 -28q34 0 54 -19t20 -50q0 -52 -49 -75t-145 -13l-18 59q65 2 65 26q0 2 -1.5 8t-1.5 13q0 21 20.5 36t55.5 15z" />
    <glyph glyph-name="kcommaaccent" unicode="&#x137;" horiz-adv-x="538" 
d="M538 0h-229l-64 229h-7v-229h-200v709h200v-397h7l62 197h224l-105 -218zM268 -28q34 0 54 -19t20 -50q0 -52 -49 -75t-145 -13l-18 59q65 2 65 26q0 2 -1.5 8t-1.5 13q0 21 20.5 36t55.5 15z" />
    <glyph glyph-name="kgreenlandic" unicode="&#x138;" horiz-adv-x="538" 
d="M538 0h-229l-64 219h-7v-219h-200v509h200v-207h7l62 207h224l-105 -228z" />
    <glyph glyph-name="Lacute" unicode="&#x139;" horiz-adv-x="421" 
d="M408 0h-359v675h210v-515h149v-160zM95 787l199 78l87 -110l-226 -49z" />
    <glyph glyph-name="lacute" unicode="&#x13a;" horiz-adv-x="288" 
d="M281 122l7 -114q-51 -19 -129 -19q-60 0 -90.5 24t-30.5 82v614h200v-534q0 -35 5.5 -44t21.5 -9h16zM61 807l199 78l87 -110l-226 -49z" />
    <glyph glyph-name="Lcommaaccent" unicode="&#x13b;" horiz-adv-x="421" 
d="M408 0h-359v675h210v-515h149v-160zM227 -28q34 0 54 -19t20 -50q0 -52 -49 -75t-145 -13l-18 59q65 2 65 26q0 2 -1.5 8t-1.5 13q0 21 20.5 36t55.5 15z" />
    <glyph glyph-name="lcommaaccent" unicode="&#x13c;" horiz-adv-x="288" 
d="M281 122l7 -114q-51 -19 -129 -19q-60 0 -90.5 24t-30.5 82v614h200v-534q0 -35 5.5 -44t21.5 -9h16zM183 -28q34 0 54 -19t20 -50q0 -52 -49 -75t-145 -13l-18 59q65 2 65 26q0 2 -1.5 8t-1.5 13q0 21 20.5 36t55.5 15z" />
    <glyph glyph-name="Lcaron" unicode="&#x13d;" horiz-adv-x="421" 
d="M408 0h-359v675h210v-515h149v-160zM446 745l-67 -202l-95 15l31 212z" />
    <glyph glyph-name="lcaron" unicode="&#x13e;" horiz-adv-x="386" 
d="M281 122l7 -114q-51 -19 -129 -19q-60 0 -90.5 24t-30.5 82v614h200v-534q0 -35 5.5 -44t21.5 -9h16zM415 745l-67 -202l-95 15l31 212z" />
    <glyph glyph-name="Ldot" unicode="&#x13f;" horiz-adv-x="514" 
d="M408 0h-359v675h210v-515h149v-160zM517 341q0 -63 -21 -84.5t-85 -21.5q-66 0 -87 21.5t-21 84.5q0 64 21 86t87 22q64 0 85 -22t21 -86z" />
    <glyph glyph-name="ldot" unicode="&#x140;" horiz-adv-x="524" 
d="M281 122l7 -114q-51 -19 -129 -19q-60 0 -90.5 24t-30.5 82v614h200v-534q0 -35 5.5 -44t21.5 -9h16zM507 301q0 -63 -21 -84.5t-85 -21.5q-66 0 -87 21.5t-21 84.5q0 64 21 86t87 22q64 0 85 -22t21 -86z" />
    <glyph glyph-name="Lslash" unicode="&#x141;" horiz-adv-x="426" 
d="M264 497l69 35v-136l-69 -34v-202h149v-160h-359v257l-39 -20v136l39 19v283h210v-178z" />
    <glyph glyph-name="lslash" unicode="&#x142;" horiz-adv-x="293" 
d="M286 122l7 -114q-51 -19 -129 -19q-60 0 -90.5 24t-30.5 82v169l-42 -23v137l42 23v308h200v-200l42 23v-137l-42 -23v-197q0 -35 5.5 -44t21.5 -9h16z" />
    <glyph glyph-name="Nacute" unicode="&#x143;" horiz-adv-x="649" 
d="M600 0h-231l-121 294l-37 115h-2q10 -129 10 -169v-240h-170v675h248l104 -252q7 -17 16.5 -45.5t14.5 -49.5l6 -20h2q-10 129 -10 169v198h170v-675zM250 787l199 78l87 -110l-226 -49z" />
    <glyph glyph-name="nacute" unicode="&#x144;" horiz-adv-x="556" 
d="M518 0h-201q0 68 2 157.5t2 101.5q0 51 -3.5 74t-9 27.5t-19.5 4.5q-19 0 -51 -16v-349h-200v509h163l13 -45q62 60 145 60q88 0 125.5 -56.5t37.5 -180.5q0 -18 -2 -116t-2 -171zM457 668l-171 -121l-100 48l135 138z" />
    <glyph glyph-name="Ncommaaccent" unicode="&#x145;" horiz-adv-x="649" 
d="M600 0h-231l-121 294l-37 115h-2q10 -129 10 -169v-240h-170v675h248l104 -252q7 -17 16.5 -45.5t14.5 -49.5l6 -20h2q-10 129 -10 169v198h170v-675zM317 -28q34 0 54 -19t20 -50q0 -52 -49 -75t-145 -13l-18 59q65 2 65 26q0 2 -1.5 8t-1.5 13q0 21 20.5 36t55.5 15z
" />
    <glyph glyph-name="ncommaaccent" unicode="&#x146;" horiz-adv-x="556" 
d="M518 0h-201q0 68 2 157.5t2 101.5q0 51 -3.5 74t-9 27.5t-19.5 4.5q-19 0 -51 -16v-349h-200v509h163l13 -45q62 60 145 60q88 0 125.5 -56.5t37.5 -180.5q0 -18 -2 -116t-2 -171zM277 -28q34 0 54 -19t20 -50q0 -52 -49 -75t-145 -13l-18 59q65 2 65 26q0 2 -1.5 8
t-1.5 13q0 21 20.5 36t55.5 15z" />
    <glyph glyph-name="Ncaron" unicode="&#x147;" horiz-adv-x="649" 
d="M600 0h-231l-121 294l-37 115h-2q10 -129 10 -169v-240h-170v675h248l104 -252q7 -17 16.5 -45.5t14.5 -49.5l6 -20h2q-10 129 -10 169v198h170v-675zM343 706l-164 81l49 78l117 -39l117 39l47 -75z" />
    <glyph glyph-name="ncaron" unicode="&#x148;" horiz-adv-x="556" 
d="M518 0h-201q0 68 2 157.5t2 101.5q0 51 -3.5 74t-9 27.5t-19.5 4.5q-19 0 -51 -16v-349h-200v509h163l13 -45q62 60 145 60q88 0 125.5 -56.5t37.5 -180.5q0 -18 -2 -116t-2 -171zM440 666l-163 -121l-155 119l56 77l103 -56l105 56z" />
    <glyph glyph-name="napostrophe" unicode="&#x149;" horiz-adv-x="626" 
d="M57 495l-61 56q56 51 56 77q0 9 -17.5 29t-17.5 52q0 52 17.5 71t71.5 19q50 0 66 -19.5t16 -71.5q0 -120 -131 -213zM588 0h-201q0 68 2 157.5t2 101.5q0 51 -3.5 74t-9 27.5t-19.5 4.5q-19 0 -51 -16v-349h-200v509h163l13 -45q62 60 145 60q88 0 125.5 -56.5
t37.5 -180.5q0 -18 -2 -116t-2 -171z" />
    <glyph glyph-name="Eng" unicode="&#x14a;" horiz-adv-x="649" 
d="M600 675v-611q0 -165 -170 -252l-92 82q26 22 41 53.5t15 52.5h-27l-121 294q-10 25 -19 53.5t-13 44.5l-3 17h-2q10 -89 10 -169v-240h-170v675h250l104 -252q10 -24 19 -53t12 -46l4 -16h2q-10 89 -10 169v198h170z" />
    <glyph glyph-name="eng" unicode="&#x14b;" horiz-adv-x="556" 
d="M394 -188l-136 54q62 84 62 158v235q0 51 -3.5 74t-9 27.5t-18.5 4.5q-19 0 -51 -16v-349h-200v509h163l13 -45q62 60 145 60q87 0 124 -56t37 -181v-233q0 -73 -30 -130t-96 -112z" />
    <glyph glyph-name="Omacron" unicode="&#x14c;" horiz-adv-x="646" 
d="M625 352q0 -185 -79.5 -276t-228.5 -91q-155 0 -225.5 78.5t-70.5 259.5q0 185 79.5 276t228.5 91q155 0 225.5 -78.5t70.5 -259.5zM405 323q0 67 -6 110t-18.5 64t-26.5 28t-35 7q-25 0 -40 -11t-26.5 -52.5t-11.5 -116.5q0 -67 6 -110t18.5 -63.5t26.5 -27.5t35 -7
q38 0 58 35.5t20 143.5zM476 728h-306v125h306v-125z" />
    <glyph glyph-name="omacron" unicode="&#x14d;" horiz-adv-x="562" 
d="M544 265q0 -140 -70.5 -210t-201.5 -70q-129 0 -191.5 60t-62.5 199q0 140 70.5 210t201.5 70q129 0 191.5 -60t62.5 -199zM340 243q0 60 -9 91.5t-20 38.5t-30 7q-28 0 -43.5 -23.5t-15.5 -90.5q0 -60 9 -91.5t20 -38.5t30 -7q28 0 43.5 23.5t15.5 90.5zM435 565h-306
v135h306v-135z" />
    <glyph glyph-name="Obreve" unicode="&#x14e;" horiz-adv-x="646" 
d="M625 352q0 -185 -79.5 -276t-228.5 -91q-155 0 -225.5 78.5t-70.5 259.5q0 185 79.5 276t228.5 91q155 0 225.5 -78.5t70.5 -259.5zM405 323q0 67 -6 110t-18.5 64t-26.5 28t-35 7q-25 0 -40 -11t-26.5 -52.5t-11.5 -116.5q0 -67 6 -110t18.5 -63.5t26.5 -27.5t35 -7
q38 0 58 35.5t20 143.5zM371 875h116q0 -84 -43.5 -128t-121.5 -44q-162 0 -162 172h116q0 -52 47 -52q48 0 48 52z" />
    <glyph glyph-name="obreve" unicode="&#x14f;" horiz-adv-x="562" 
d="M544 265q0 -140 -70.5 -210t-201.5 -70q-129 0 -191.5 60t-62.5 199q0 140 70.5 210t201.5 70q129 0 191.5 -60t62.5 -199zM340 243q0 60 -9 91.5t-20 38.5t-30 7q-28 0 -43.5 -23.5t-15.5 -90.5q0 -60 9 -91.5t20 -38.5t30 -7q28 0 43.5 23.5t15.5 90.5zM328 732h119
q0 -95 -44.5 -143.5t-123.5 -48.5q-165 0 -165 192h119q-1 -39 10 -52.5t36 -13.5q26 0 37.5 14t11.5 52z" />
    <glyph glyph-name="Ohungarumlaut" unicode="&#x150;" horiz-adv-x="646" 
d="M625 352q0 -185 -79.5 -276t-228.5 -91q-155 0 -225.5 78.5t-70.5 259.5q0 185 79.5 276t228.5 91q155 0 225.5 -78.5t70.5 -259.5zM405 323q0 67 -6 110t-18.5 64t-26.5 28t-35 7q-25 0 -40 -11t-26.5 -52.5t-11.5 -116.5q0 -67 6 -110t18.5 -63.5t26.5 -27.5t35 -7
q38 0 58 35.5t20 143.5zM681 796l-224 -97l-85 60l194 116zM405 806l-186 -107l-89 47l153 129z" />
    <glyph glyph-name="ohungarumlaut" unicode="&#x151;" horiz-adv-x="562" 
d="M544 265q0 -140 -70.5 -210t-201.5 -70q-129 0 -191.5 60t-62.5 199q0 140 70.5 210t201.5 70q129 0 191.5 -60t62.5 -199zM340 243q0 60 -9 91.5t-20 38.5t-30 7q-28 0 -43.5 -23.5t-15.5 -90.5q0 -60 9 -91.5t20 -38.5t30 -7q28 0 43.5 23.5t15.5 90.5zM585 660
l-169 -113l-100 48l133 130zM349 668l-156 -121l-96 48l120 138z" />
    <glyph glyph-name="OE" unicode="&#x152;" horiz-adv-x="801" 
d="M768 0h-342q-48 -15 -109 -15q-154 0 -225 76.5t-71 263.5q0 184 79.5 274.5t229.5 90.5q70 0 122 -15h312v-157h-182v-100h153v-150h-153v-109h186v-159zM372 157v358q-18 17 -53 17q-25 0 -40 -11t-26.5 -51.5t-11.5 -114.5q0 -89 11.5 -137t28.5 -61t46 -13t45 13z
" />
    <glyph glyph-name="oe" unicode="&#x153;" horiz-adv-x="852" 
d="M801 161l24 -111q-124 -65 -246 -65q-93 0 -150 41q-55 -41 -157 -41q-129 0 -191.5 60.5t-62.5 199.5t70 209t199 70q108 0 164 -43q54 43 145 43q58 0 101 -15t76 -49.5t47.5 -98t8.5 -154.5h-291v-3q0 -33 20.5 -51t56.5 -18q80 0 186 26zM539 325h99v1
q0 40 -11.5 54.5t-35.5 14.5q-48 0 -52 -70zM340 242q0 45 -4.5 74.5t-13.5 42.5t-17.5 17t-21.5 4q-30 0 -45.5 -23t-15.5 -90q0 -46 4.5 -75t14 -42t18.5 -17t23 -4q27 0 42.5 24t15.5 89z" />
    <glyph glyph-name="Racute" unicode="&#x154;" horiz-adv-x="608" 
d="M593 0h-232l-75 242h-27v-242h-210v675q186 4 268 4q133 0 195 -56.5t62 -150.5q0 -125 -95 -184zM259 529v-137h27q37 0 53.5 17t16.5 52q0 68 -65 68h-32zM190 787l199 78l87 -110l-226 -49z" />
    <glyph glyph-name="racute" unicode="&#x155;" horiz-adv-x="388" 
d="M388 510l-24 -169q-35 8 -53 8q-17 0 -32.5 -11.5t-40.5 -45.5v-292h-200v509h163l15 -64q30 44 55.5 61t56.5 17t60 -13zM381 668l-171 -121l-100 48l135 138z" />
    <glyph glyph-name="Rcommaaccent" unicode="&#x156;" horiz-adv-x="608" 
d="M593 0h-232l-75 242h-27v-242h-210v675q186 4 268 4q133 0 195 -56.5t62 -150.5q0 -125 -95 -184zM259 529v-137h27q37 0 53.5 17t16.5 52q0 68 -65 68h-32zM303 -28q34 0 54 -19t20 -50q0 -52 -49 -75t-145 -13l-18 59q65 2 65 26q0 2 -1.5 8t-1.5 13q0 21 20.5 36
t55.5 15z" />
    <glyph glyph-name="rcommaaccent" unicode="&#x157;" horiz-adv-x="388" 
d="M388 510l-24 -169q-35 8 -53 8q-17 0 -32.5 -11.5t-40.5 -45.5v-292h-200v509h163l15 -64q30 44 55.5 61t56.5 17t60 -13zM142 -28q34 0 54 -19t20 -50q0 -52 -49 -75t-145 -13l-18 59q65 2 65 26q0 2 -1.5 8t-1.5 13q0 21 20.5 36t55.5 15z" />
    <glyph glyph-name="Rcaron" unicode="&#x158;" horiz-adv-x="608" 
d="M593 0h-232l-75 242h-27v-242h-210v675q186 4 268 4q133 0 195 -56.5t62 -150.5q0 -125 -95 -184zM259 529v-137h27q37 0 53.5 17t16.5 52q0 68 -65 68h-32zM283 706l-164 81l49 78l117 -39l117 39l47 -75z" />
    <glyph glyph-name="rcaron" unicode="&#x159;" horiz-adv-x="388" 
d="M388 510l-24 -169q-35 8 -53 8q-17 0 -32.5 -11.5t-40.5 -45.5v-292h-200v509h163l15 -64q30 44 55.5 61t56.5 17t60 -13zM374 666l-163 -121l-155 119l56 77l103 -56l105 56z" />
    <glyph glyph-name="Sacute" unicode="&#x15a;" horiz-adv-x="496" 
d="M490 204q0 -94 -66.5 -156t-195.5 -62q-125 0 -226 78l47 105q87 -32 138 -32q69 0 69 44q0 20 -17.5 37.5t-44.5 30.5t-57.5 32.5t-57.5 42t-44.5 62t-17.5 89.5q0 98 67 155.5t174 57.5q109 0 207 -67l-47 -105q-67 24 -119 24q-61 0 -61 -42q0 -21 18.5 -39
t46.5 -31.5t61 -33.5t61 -42.5t46.5 -61t18.5 -86.5zM163 787l199 78l87 -110l-226 -49z" />
    <glyph glyph-name="sacute" unicode="&#x15b;" horiz-adv-x="437" 
d="M10 38l12 97q78 -12 130 -12q64 0 64 27q0 14 -21 24t-51 20t-60 25.5t-51 50t-21 84.5q0 77 58.5 123t154.5 46q82 0 171 -49l-16 -97q-71 14 -110 14q-49 0 -49 -23q0 -14 21.5 -24t51.5 -20t60.5 -25.5t52 -50t21.5 -84.5q0 -78 -63 -128t-175 -50q-86 0 -180 52z
M383 668l-171 -121l-100 48l135 138z" />
    <glyph glyph-name="Scircumflex" unicode="&#x15c;" horiz-adv-x="496" 
d="M490 204q0 -94 -66.5 -156t-195.5 -62q-125 0 -226 78l47 105q87 -32 138 -32q69 0 69 44q0 20 -17.5 37.5t-44.5 30.5t-57.5 32.5t-57.5 42t-44.5 62t-17.5 89.5q0 98 67 155.5t174 57.5q109 0 207 -67l-47 -105q-67 24 -119 24q-61 0 -61 -42q0 -21 18.5 -39
t46.5 -31.5t61 -33.5t61 -42.5t46.5 -61t18.5 -86.5zM259 865l164 -81l-49 -78l-117 39l-117 -39l-47 75z" />
    <glyph glyph-name="scircumflex" unicode="&#x15d;" horiz-adv-x="437" 
d="M10 38l12 97q78 -12 130 -12q64 0 64 27q0 14 -21 24t-51 20t-60 25.5t-51 50t-21 84.5q0 77 58.5 123t154.5 46q82 0 171 -49l-16 -97q-71 14 -110 14q-49 0 -49 -23q0 -14 21.5 -24t51.5 -20t60.5 -25.5t52 -50t21.5 -84.5q0 -78 -63 -128t-175 -50q-86 0 -180 52z
M377 624l-56 -77l-103 56l-105 -56l-54 75l163 121z" />
    <glyph glyph-name="Scedilla" unicode="&#x15e;" horiz-adv-x="496" 
d="M490 204q0 -94 -66.5 -156t-195.5 -62q-125 0 -226 78l47 105q87 -32 138 -32q69 0 69 44q0 20 -17.5 37.5t-44.5 30.5t-57.5 32.5t-57.5 42t-44.5 62t-17.5 89.5q0 98 67 155.5t174 57.5q109 0 207 -67l-47 -105q-67 24 -119 24q-61 0 -61 -42q0 -21 18.5 -39
t46.5 -31.5t61 -33.5t61 -42.5t46.5 -61t18.5 -86.5zM151 -41h167q20 -90 -97 -148l-117 36q40 35 50 61t-3 51z" />
    <glyph glyph-name="scedilla" unicode="&#x15f;" horiz-adv-x="437" 
d="M10 38l12 97q78 -12 130 -12q64 0 64 27q0 14 -21 24t-51 20t-60 25.5t-51 50t-21 84.5q0 77 58.5 123t154.5 46q82 0 171 -49l-16 -97q-71 14 -110 14q-49 0 -49 -23q0 -14 21.5 -24t51.5 -20t60.5 -25.5t52 -50t21.5 -84.5q0 -78 -63 -128t-175 -50q-86 0 -180 52z
M116 -41h167q20 -90 -97 -148l-117 36q40 35 50 61t-3 51z" />
    <glyph glyph-name="Scaron" unicode="&#x160;" horiz-adv-x="496" 
d="M490 204q0 -94 -66.5 -156t-195.5 -62q-125 0 -226 78l47 105q87 -32 138 -32q69 0 69 44q0 20 -17.5 37.5t-44.5 30.5t-57.5 32.5t-57.5 42t-44.5 62t-17.5 89.5q0 98 67 155.5t174 57.5q109 0 207 -67l-47 -105q-67 24 -119 24q-61 0 -61 -42q0 -21 18.5 -39
t46.5 -31.5t61 -33.5t61 -42.5t46.5 -61t18.5 -86.5zM245 706l-164 81l49 78l117 -39l117 39l47 -75z" />
    <glyph glyph-name="scaron" unicode="&#x161;" horiz-adv-x="437" 
d="M10 38l12 97q78 -12 130 -12q64 0 64 27q0 14 -21 24t-51 20t-60 25.5t-51 50t-21 84.5q0 77 58.5 123t154.5 46q82 0 171 -49l-16 -97q-71 14 -110 14q-49 0 -49 -23q0 -14 21.5 -24t51.5 -20t60.5 -25.5t52 -50t21.5 -84.5q0 -78 -63 -128t-175 -50q-86 0 -180 52z
M379 666l-163 -121l-155 119l56 77l103 -56l105 56z" />
    <glyph glyph-name="uni0162" unicode="&#x162;" horiz-adv-x="467" 
d="M454 516h-117v-516h-210v516h-115v159h442v-159zM235 -28q34 0 54 -19t20 -50q0 -52 -49 -75t-145 -13l-18 59q65 2 65 26q0 2 -1.5 8t-1.5 13q0 21 20.5 36t55.5 15z" />
    <glyph glyph-name="uni0163" unicode="&#x163;" horiz-adv-x="351" 
d="M327 138l12 -113q-75 -39 -147 -39q-79 0 -112 29.5t-33 100.5v256h-41v137h50q24 66 44 152h147v-152h78v-137h-78v-208q0 -31 25 -31q24 0 55 5zM204 -28q34 0 54 -19t20 -50q0 -52 -49 -75t-145 -13l-18 59q65 2 65 26q0 2 -1.5 8t-1.5 13q0 21 20.5 36t55.5 15z" />
    <glyph glyph-name="Tcaron" unicode="&#x164;" horiz-adv-x="467" 
d="M454 516h-117v-516h-210v516h-115v159h442v-159zM232 706l-164 81l49 78l117 -39l117 39l47 -75z" />
    <glyph glyph-name="tcaron" unicode="&#x165;" horiz-adv-x="401" 
d="M327 138l12 -113q-75 -39 -147 -39q-79 0 -112 29.5t-33 100.5v256h-41v137h50q24 66 44 152h147v-152h78v-137h-78v-208q0 -31 25 -31q24 0 55 5zM429 745l-67 -202l-95 15l31 212z" />
    <glyph glyph-name="Tbar" unicode="&#x166;" horiz-adv-x="467" 
d="M454 516h-117v-152h72v-136h-72v-228h-210v228h-70v136h70v152h-115v159h442v-159z" />
    <glyph glyph-name="tbar" unicode="&#x167;" horiz-adv-x="351" 
d="M327 138l12 -113q-75 -39 -147 -39q-79 0 -112 29.5t-33 100.5v74h-36v135h36v47h-41v137h50q24 66 44 152h147v-152h78v-137h-78v-47h70v-135h-70v-26q0 -31 25 -31q24 0 55 5z" />
    <glyph glyph-name="Utilde" unicode="&#x168;" horiz-adv-x="652" 
d="M604 675v-438q0 -252 -289 -252q-135 0 -201 54t-66 180v456h210v-437q0 -57 15.5 -80t51.5 -23q38 0 55.5 20t17.5 71v449h206zM435 865l77 -52q-45 -104 -141 -104q-40 0 -71.5 19.5t-38.5 19.5q-12 0 -20.5 -8t-23.5 -31l-77 52q45 104 141 104q30 0 52 -10t35.5 -20
t22.5 -10q12 0 20.5 8.5t23.5 31.5z" />
    <glyph glyph-name="utilde" unicode="&#x169;" horiz-adv-x="556" 
d="M518 0h-163l-13 45q-62 -60 -145 -60q-88 0 -125.5 56.5t-37.5 180.5q0 18 2 116t2 171h201q0 -68 -2 -157t-2 -102q0 -70 5.5 -88t26.5 -18q19 0 51 16v349h200v-509zM382 712l73 -53q-43 -105 -134 -105q-38 0 -68 20t-37 20q-11 0 -19.5 -8.5t-22.5 -31.5l-73 53
q43 105 134 105q38 0 68 -20t37 -20q11 0 19.5 8.5t22.5 31.5z" />
    <glyph glyph-name="Umacron" unicode="&#x16a;" horiz-adv-x="652" 
d="M604 675v-438q0 -252 -289 -252q-135 0 -201 54t-66 180v456h210v-437q0 -57 15.5 -80t51.5 -23q38 0 55.5 20t17.5 71v449h206zM479 728h-306v125h306v-125z" />
    <glyph glyph-name="umacron" unicode="&#x16b;" horiz-adv-x="556" 
d="M518 0h-163l-13 45q-62 -60 -145 -60q-88 0 -125.5 56.5t-37.5 180.5q0 18 2 116t2 171h201q0 -68 -2 -157t-2 -102q0 -70 5.5 -88t26.5 -18q19 0 51 16v349h200v-509zM430 565h-306v135h306v-135z" />
    <glyph glyph-name="Ubreve" unicode="&#x16c;" horiz-adv-x="652" 
d="M604 675v-438q0 -252 -289 -252q-135 0 -201 54t-66 180v456h210v-437q0 -57 15.5 -80t51.5 -23q38 0 55.5 20t17.5 71v449h206zM374 875h116q0 -84 -43.5 -128t-121.5 -44q-162 0 -162 172h116q0 -52 47 -52q48 0 48 52z" />
    <glyph glyph-name="ubreve" unicode="&#x16d;" horiz-adv-x="556" 
d="M518 0h-163l-13 45q-62 -60 -145 -60q-88 0 -125.5 56.5t-37.5 180.5q0 18 2 116t2 171h201q0 -68 -2 -157t-2 -102q0 -70 5.5 -88t26.5 -18q19 0 51 16v349h200v-509zM325 732h119q0 -95 -44.5 -143.5t-123.5 -48.5q-165 0 -165 192h119q-1 -39 10 -52.5t36 -13.5
q26 0 37.5 14t11.5 52z" />
    <glyph glyph-name="Uring" unicode="&#x16e;" horiz-adv-x="652" 
d="M604 675v-438q0 -252 -289 -252q-135 0 -201 54t-66 180v456h210v-437q0 -57 15.5 -80t51.5 -23q38 0 55.5 20t17.5 71v449h206zM468 778q0 -42 -37.5 -66t-103.5 -24q-137 0 -137 87q0 42 37.5 66t103.5 24q137 0 137 -87zM362 776q0 29 -32 29q-34 0 -34 -29
q0 -28 34 -28q32 0 32 28z" />
    <glyph glyph-name="uring" unicode="&#x16f;" horiz-adv-x="556" 
d="M518 0h-163l-13 45q-62 -60 -145 -60q-88 0 -125.5 56.5t-37.5 180.5q0 18 2 116t2 171h201q0 -68 -2 -157t-2 -102q0 -70 5.5 -88t26.5 -18q19 0 51 16v349h200v-509zM426 658q0 -56 -40 -88t-110 -32q-146 0 -146 116q0 56 40 88t110 32q146 0 146 -116zM313 656
q0 38 -35 38t-35 -38t35 -38t35 38z" />
    <glyph glyph-name="Uhungarumlaut" unicode="&#x170;" horiz-adv-x="652" 
d="M604 675v-438q0 -252 -289 -252q-135 0 -201 54t-66 180v456h210v-437q0 -57 15.5 -80t51.5 -23q38 0 55.5 20t17.5 71v449h206zM678 796l-224 -97l-85 60l194 116zM402 806l-186 -107l-89 47l153 129z" />
    <glyph glyph-name="uhungarumlaut" unicode="&#x171;" horiz-adv-x="556" 
d="M518 0h-163l-13 45q-62 -60 -145 -60q-88 0 -125.5 56.5t-37.5 180.5q0 18 2 116t2 171h201q0 -68 -2 -157t-2 -102q0 -70 5.5 -88t26.5 -18q19 0 51 16v349h200v-509zM561 660l-169 -113l-100 48l133 130zM325 668l-156 -121l-96 48l120 138z" />
    <glyph glyph-name="Uogonek" unicode="&#x172;" horiz-adv-x="652" 
d="M497 -78l23 -82q-56 -28 -118 -28q-119 0 -119 81q0 48 38 92h-6q-139 0 -203 54.5t-64 179.5v456h210v-437q0 -57 15.5 -80t51.5 -23q38 0 55.5 20t17.5 71v449h206v-438q0 -116 -62 -178q-16 -16 -42 -40t-35.5 -34.5t-18.5 -25.5t-9 -29q0 -17 24 -17q20 0 36 9z" />
    <glyph glyph-name="uogonek" unicode="&#x173;" horiz-adv-x="556" 
d="M518 509v-509q-61 -27 -61 -70q0 -17 24 -17q20 0 36 9l23 -82q-56 -28 -118 -28q-119 0 -119 81q0 55 51 108l-12 44q-62 -60 -145 -60q-88 0 -125.5 56.5t-37.5 180.5q0 18 2 116t2 171h201q0 -68 -2 -157t-2 -102q0 -70 5.5 -88t26.5 -18q19 0 51 16v349h200z" />
    <glyph glyph-name="Wcircumflex" unicode="&#x174;" horiz-adv-x="876" 
d="M681 675h191q-49 -345 -130 -675h-231l-54 254l-21 122h-2l-20 -119l-50 -257h-228q-76 296 -132 675h224q3 -54 19 -195t23 -217h3l19 122l60 290h211l61 -301l19 -111h3q25 226 35 412zM458 865l164 -81l-49 -78l-117 39l-117 -39l-47 75z" />
    <glyph glyph-name="wcircumflex" unicode="&#x175;" horiz-adv-x="803" 
d="M610 509h190q-15 -224 -104 -509h-248l-34 208l-12 93h-3l-10 -93l-30 -208h-248l-108 509h213l29 -221l10 -101h3l11 104l27 218h239l35 -222l14 -100h3q29 209 23 322zM573 624l-56 -77l-103 56l-105 -56l-54 75l163 121z" />
    <glyph glyph-name="Ycircumflex" unicode="&#x176;" horiz-adv-x="499" 
d="M308 675h201q-64 -246 -156 -410v-265h-210v265q-101 192 -153 410h225q15 -110 46 -215h3q19 61 44 215zM257 865l164 -81l-49 -78l-117 39l-117 -39l-47 75z" />
    <glyph glyph-name="ycircumflex" unicode="&#x177;" horiz-adv-x="510" 
d="M306 509h204q-9 -166 -47 -300.5t-94 -218t-123 -128t-138 -44.5q-44 0 -97 31v113q29 -5 63 -5q37 0 50 8q12 7 12 20q0 10 -34 139l-102 385h213l41 -215q12 -63 17 -133h3q20 72 29.5 172.5t2.5 175.5zM425 624l-56 -77l-103 56l-105 -56l-54 75l163 121z" />
    <glyph glyph-name="Ydieresis" unicode="&#x178;" horiz-adv-x="499" 
d="M308 675h201q-64 -246 -156 -410v-265h-210v265q-101 192 -153 410h225q15 -110 46 -215h3q19 61 44 215zM454 787q0 -41 -20.5 -59.5t-67.5 -18.5q-48 0 -68.5 17.5t-20.5 60.5q0 41 20.5 59.5t68.5 18.5t68 -17.5t20 -60.5zM239 787q0 -41 -20.5 -59.5t-67.5 -18.5
q-48 0 -68.5 17.5t-20.5 60.5q0 41 20.5 59.5t68.5 18.5t68 -17.5t20 -60.5z" />
    <glyph glyph-name="Zacute" unicode="&#x179;" horiz-adv-x="496" 
d="M474 0h-454v142l196 370h-189l4 163h438v-141l-196 -370h205zM174 787l199 78l87 -110l-226 -49z" />
    <glyph glyph-name="zacute" unicode="&#x17a;" horiz-adv-x="400" 
d="M390 148l-5 -148h-374v126l135 237h-129l6 146h350v-124l-135 -237h152zM395 668l-171 -121l-100 48l135 138z" />
    <glyph glyph-name="Zdotaccent" unicode="&#x17b;" horiz-adv-x="496" 
d="M474 0h-454v142l196 370h-189l4 163h438v-141l-196 -370h205zM356 792q0 -45 -23.5 -63.5t-82.5 -18.5q-61 0 -82.5 17t-21.5 65q0 45 23 63.5t82 18.5q61 0 83 -17.5t22 -64.5z" />
    <glyph glyph-name="zdotaccent" unicode="&#x17c;" horiz-adv-x="400" 
d="M390 148l-5 -148h-374v126l135 237h-129l6 146h350v-124l-135 -237h152zM321 631q0 -51 -25 -72t-91 -21q-68 0 -92 20t-24 73q0 51 25 72t91 21q68 0 92 -20t24 -73z" />
    <glyph glyph-name="Zcaron" unicode="&#x17d;" horiz-adv-x="496" 
d="M474 0h-454v142l196 370h-189l4 163h438v-141l-196 -370h205zM253 706l-164 81l49 78l117 -39l117 39l47 -75z" />
    <glyph glyph-name="zcaron" unicode="&#x17e;" horiz-adv-x="400" 
d="M390 148l-5 -148h-374v126l135 237h-129l6 146h350v-124l-135 -237h152zM361 666l-163 -121l-155 119l56 77l103 -56l105 56z" />
    <glyph glyph-name="longs" unicode="&#x17f;" horiz-adv-x="287" 
d="M319 694l-19 -116q-20 5 -37 5q-25 0 -25 -34v-549h-200v545q0 89 34 134t117 45q68 0 130 -30z" />
    <glyph glyph-name="florin" unicode="&#x192;" 
d="M483 646l-24 -107q-30 8 -62 8q-25 0 -35.5 -12t-12.5 -43l-6 -91h110v-129h-119l-14 -200q-12 -184 -185 -184q-77 0 -148 38l24 107q30 -8 62 -8q25 0 35.5 12t12.5 43l13 192h-103v129h112l7 99q12 184 185 184q77 0 148 -38z" />
    <glyph glyph-name="Gcaron" unicode="&#x1e6;" horiz-adv-x="581" 
d="M549 418v-349q-112 -84 -253 -84q-143 0 -209 84t-66 248q0 187 81 280t231 93q70 0 125.5 -34.5t90.5 -94.5l-93 -81q-61 46 -115 46q-53 0 -77.5 -39.5t-24.5 -138.5q0 -110 18 -154t54 -44q13 0 33 6v112h-55v150h260zM318 706l-164 81l49 78l117 -39l117 39l47 -75z
" />
    <glyph glyph-name="gcaron" unicode="&#x1e7;" horiz-adv-x="556" 
d="M518 497v-473q0 -115 -69 -163.5t-178 -48.5q-90 0 -210 56l13 107q114 -18 173 -18q39 0 55 10t16 35v39q-55 -41 -109 -41q-97 0 -144 68.5t-47 171.5q0 144 74.5 214t214.5 70q99 0 211 -27zM318 168v211q-14 6 -34 6q-63 0 -63 -125q0 -112 47 -112q22 0 50 20z
M437 666l-163 -121l-155 119l56 77l103 -56l105 56z" />
    <glyph glyph-name="Aringacute" unicode="&#x1fa;" horiz-adv-x="618" 
d="M619 0h-225q-18 107 -19 113h-159q-10 -52 -19 -113h-198q85 414 167 675h285q91 -291 168 -675zM245 266h101q-19 99 -48 234h-4q-24 -104 -49 -234zM439 743q0 -29 -35.5 -45.5t-96.5 -16.5q-128 0 -128 57q0 29 35.5 45.5t96.5 16.5q128 0 128 -57zM337 741
q0 20 -28 20t-28 -21q0 -20 28 -20t28 21zM220 847l183 38l36 -56l-198 -23z" />
    <glyph glyph-name="aringacute" unicode="&#x1fb;" horiz-adv-x="534" 
d="M497 0h-153l-12 43q-63 -58 -148 -58q-78 0 -125.5 44.5t-47.5 121.5q0 174 270 174h18v17q0 41 -66 41q-78 0 -169 -31l-23 118q122 53 239 53q103 0 160 -43t57 -122v-358zM299 146v63h-24q-71 0 -71 -44q0 -42 41 -42q29 0 54 23zM404 633q0 -41 -35.5 -65t-96.5 -24
q-129 0 -129 87q0 41 35.5 65t96.5 24q129 0 129 -87zM304 632q0 28 -31 28q-30 0 -30 -28t30 -28q31 0 31 28zM206 770l107 115l133 -53l-143 -98z" />
    <glyph glyph-name="AEacute" unicode="&#x1fc;" horiz-adv-x="766" 
d="M733 0h-396v113h-138q-19 -66 -31 -113h-201q113 355 248 675h514v-157h-182v-100h153v-150h-153v-109h186v-159zM337 266v252h-2q-59 -156 -88 -252h90zM387 787l199 78l87 -110l-226 -49z" />
    <glyph glyph-name="aeacute" unicode="&#x1fd;" horiz-adv-x="807" 
d="M756 161l24 -111q-124 -65 -246 -65q-126 0 -180 69q-82 -69 -170 -69q-78 0 -125.5 44.5t-47.5 121.5q0 174 270 174h18v17q0 41 -66 41q-78 0 -169 -31l-23 118q122 53 237 53q85 0 138 -34q65 35 137 35q57 0 99.5 -15t76 -49.5t47.5 -98t8 -154.5h-291v-3
q0 -33 20.5 -51t56.5 -18q80 0 186 26zM299 209h-24q-71 0 -71 -44q0 -42 41 -42q27 0 54 23v63zM494 325h99v1q0 40 -11.5 54.5t-35.5 14.5q-48 0 -52 -70zM589 668l-171 -121l-100 48l135 138z" />
    <glyph glyph-name="Oslashacute" unicode="&#x1fe;" horiz-adv-x="646" 
d="M625 352q0 -185 -79.5 -276t-228.5 -91q-79 0 -132 18l-56 -92l-101 53l61 101q-68 80 -68 258q0 185 79.5 276t228.5 91q77 0 132 -18l56 92l101 -53l-62 -100q69 -79 69 -259zM420 322q0 54 10 82l-157 -257q19 -15 55 -15q29 0 47 11.5t31.5 55.5t13.5 123zM318 544
q-22 0 -36.5 -6.5t-28 -25.5t-20.5 -58.5t-7 -100.5q0 -57 -9 -80l156 256q-20 15 -55 15zM240 807l199 78l87 -110l-226 -49z" />
    <glyph glyph-name="oslashacute" unicode="&#x1ff;" horiz-adv-x="562" 
d="M537 544l-54 -82q61 -61 61 -197q0 -140 -70.5 -210t-201.5 -70q-51 0 -93 9l-53 -81l-101 53l53 82q-60 62 -60 196q0 140 70.5 210t201.5 70q58 0 93 -9l53 81zM367 287l-110 -168q8 -2 24 -2q35 0 55.5 26t20.5 99q0 24 10 45zM195 222l110 168q-10 2 -24 2
q-35 0 -55.5 -26t-20.5 -99q0 -22 -10 -45zM466 668l-171 -121l-100 48l135 138z" />
    <glyph glyph-name="Scommaaccent" unicode="&#x218;" horiz-adv-x="496" 
d="M490 204q0 -94 -66.5 -156t-195.5 -62q-125 0 -226 78l47 105q87 -32 138 -32q69 0 69 44q0 20 -17.5 37.5t-44.5 30.5t-57.5 32.5t-57.5 42t-44.5 62t-17.5 89.5q0 98 67 155.5t174 57.5q109 0 207 -67l-47 -105q-67 24 -119 24q-61 0 -61 -42q0 -21 18.5 -39
t46.5 -31.5t61 -33.5t61 -42.5t46.5 -61t18.5 -86.5zM255 -28q34 0 54 -19t20 -50q0 -52 -49 -75t-145 -13l-18 59q65 2 65 26q0 2 -1.5 8t-1.5 13q0 21 20.5 36t55.5 15z" />
    <glyph glyph-name="scommaaccent" unicode="&#x219;" horiz-adv-x="437" 
d="M10 38l12 97q78 -12 130 -12q64 0 64 27q0 14 -21 24t-51 20t-60 25.5t-51 50t-21 84.5q0 77 58.5 123t154.5 46q82 0 171 -49l-16 -97q-71 14 -110 14q-49 0 -49 -23q0 -14 21.5 -24t51.5 -20t60.5 -25.5t52 -50t21.5 -84.5q0 -78 -63 -128t-175 -50q-86 0 -180 52z
M217 -28q34 0 54 -19t20 -50q0 -52 -49 -75t-145 -13l-18 59q65 2 65 26q0 2 -1.5 8t-1.5 13q0 21 20.5 36t55.5 15z" />
    <glyph glyph-name="Tcommaaccent" unicode="&#x21a;" horiz-adv-x="467" 
d="M454 516h-117v-516h-210v516h-115v159h442v-159zM235 -28q34 0 54 -19t20 -50q0 -52 -49 -75t-145 -13l-18 59q65 2 65 26q0 2 -1.5 8t-1.5 13q0 21 20.5 36t55.5 15z" />
    <glyph glyph-name="tcommaaccent" unicode="&#x21b;" horiz-adv-x="351" 
d="M327 138l12 -113q-75 -39 -147 -39q-79 0 -112 29.5t-33 100.5v256h-41v137h50q24 66 44 152h147v-152h78v-137h-78v-208q0 -31 25 -31q24 0 55 5zM204 -28q34 0 54 -19t20 -50q0 -52 -49 -75t-145 -13l-18 59q65 2 65 26q0 2 -1.5 8t-1.5 13q0 21 20.5 36t55.5 15z" />
    <glyph glyph-name="dotlessj" unicode="&#x237;" horiz-adv-x="276" 
d="M238 509v-455q0 -73 -30 -130t-96 -112l-136 54q62 84 62 158v485h200z" />
    <glyph glyph-name="apostrophe" unicode="&#x2bc;" horiz-adv-x="209" 
d="M57 495l-61 56q56 51 56 77q0 9 -17.5 29t-17.5 52q0 52 17.5 71t71.5 19q50 0 66 -19.5t16 -71.5q0 -120 -131 -213z" />
    <glyph glyph-name="circumflex" unicode="&#x2c6;" horiz-adv-x="350" 
d="M334 624l-56 -77l-103 56l-105 -56l-54 75l163 121z" />
    <glyph glyph-name="caron" unicode="&#x2c7;" horiz-adv-x="350" 
d="M334 666l-163 -121l-155 119l56 77l103 -56l105 56z" />
    <glyph glyph-name="breve" unicode="&#x2d8;" horiz-adv-x="365" 
d="M230 732h119q0 -95 -44.5 -143.5t-123.5 -48.5q-165 0 -165 192h119q-1 -39 10 -52.5t36 -13.5q26 0 37.5 14t11.5 52z" />
    <glyph glyph-name="dotaccent" unicode="&#x2d9;" horiz-adv-x="264" 
d="M248 631q0 -51 -25 -72t-91 -21q-68 0 -92 20t-24 73q0 51 25 72t91 21q68 0 92 -20t24 -73z" />
    <glyph glyph-name="ring" unicode="&#x2da;" horiz-adv-x="328" 
d="M312 658q0 -56 -40 -88t-110 -32q-146 0 -146 116q0 56 40 88t110 32q146 0 146 -116zM199 656q0 38 -35 38t-35 -38t35 -38t35 38z" />
    <glyph glyph-name="ogonek" unicode="&#x2db;" horiz-adv-x="269" 
d="M230 -78l23 -82q-56 -28 -118 -28q-119 0 -119 81q0 55 50 107h159q-55 -32 -55 -70q0 -17 24 -17q20 0 36 9z" />
    <glyph glyph-name="tilde" unicode="&#x2dc;" horiz-adv-x="386" 
d="M297 712l73 -53q-43 -105 -134 -105q-38 0 -68 20t-37 20q-11 0 -19.5 -8.5t-22.5 -31.5l-73 53q43 105 134 105q38 0 68 -20t37 -20q11 0 19.5 8.5t22.5 31.5z" />
    <glyph glyph-name="hungarumlaut" unicode="&#x2dd;" horiz-adv-x="520" 
d="M504 660l-169 -113l-100 48l133 130zM268 668l-156 -121l-96 48l120 138z" />
    <glyph glyph-name="uni0312" unicode="&#x312;" horiz-adv-x="244" 
d="M210 720l18 -61q-65 -2 -65 -28q0 -2 1.5 -8.5t1.5 -13.5q0 -22 -20.5 -37.5t-55.5 -15.5q-34 0 -54 19.5t-20 52.5q0 54 49.5 78t144.5 14z" />
    <glyph glyph-name="uni0315" unicode="&#x315;" horiz-adv-x="194" 
d="M178 745l-67 -202l-95 15l31 212z" />
    <glyph glyph-name="uni0326" unicode="&#x326;" horiz-adv-x="244" 
d="M154 -28q34 0 54 -19t20 -50q0 -52 -49 -75t-145 -13l-18 59q65 2 65 26q0 2 -1.5 8t-1.5 13q0 21 20.5 36t55.5 15z" />
    <glyph glyph-name="Delta" unicode="&#x2206;" horiz-adv-x="592" 
d="M576 0h-560v143q66 305 137 532h285q66 -199 138 -532v-143zM210 153h141q-31 213 -66 347h-4q-38 -148 -71 -347z" />
    <glyph glyph-name="Delta" unicode="&#x394;" horiz-adv-x="592" 
d="M576 0h-560v143q66 305 137 532h285q66 -199 138 -532v-143zM210 153h141q-31 213 -66 347h-4q-38 -148 -71 -347z" />
    <glyph glyph-name="Omega" unicode="&#x2126;" horiz-adv-x="654" 
d="M629 0h-276v117q30 32 43 78t13 152q0 57 -6.5 95.5t-18.5 57t-26 25.5t-33 7q-40 0 -60 -34t-20 -120q0 -125 13 -177.5t43 -83.5v-117h-276v129h81q-81 83 -81 218q0 49 8 94t29.5 91.5t55 80.5t89 55.5t127.5 21.5q84 0 143.5 -24t91.5 -68.5t46 -97.5t14 -122
q0 -78 -24 -145t-69 -104h93v-129z" />
    <glyph glyph-name="Omega" unicode="&#x3a9;" horiz-adv-x="654" 
d="M629 0h-276v117q30 32 43 78t13 152q0 57 -6.5 95.5t-18.5 57t-26 25.5t-33 7q-40 0 -60 -34t-20 -120q0 -125 13 -177.5t43 -83.5v-117h-276v129h81q-81 83 -81 218q0 49 8 94t29.5 91.5t55 80.5t89 55.5t127.5 21.5q84 0 143.5 -24t91.5 -68.5t46 -97.5t14 -122
q0 -78 -24 -145t-69 -104h93v-129z" />
    <glyph glyph-name="pi" unicode="&#x3c0;" horiz-adv-x="618" 
d="M592 362h-70q0 -85 0.5 -125.5t4.5 -66.5t9 -31.5t16 -5.5q19 0 42 4l12 -114q-70 -37 -138 -37q-36 0 -56.5 3t-38.5 19.5t-25.5 36.5t-13 69t-6.5 101t-1 147h-74q0 -219 -11 -362h-204q20 260 20 362h-52v147h586v-147z" />
    <glyph glyph-name="uni1E02" unicode="&#x1e02;" horiz-adv-x="599" 
d="M49 0v675h277q116 0 173.5 -44.5t57.5 -123.5q0 -94 -72 -133q51 -14 78.5 -55.5t27.5 -92.5q0 -99 -76.5 -163.5t-235.5 -64.5q-21 0 -101 1t-129 1zM256 533v-115h25q63 0 63 57q0 58 -54 58h-34zM256 280v-137q18 -2 37 -2q41 0 58.5 18.5t17.5 54.5q0 28 -18.5 47
t-61.5 19h-33zM389 792q0 -45 -23.5 -63.5t-82.5 -18.5q-61 0 -82.5 17t-21.5 65q0 45 23 63.5t82 18.5q61 0 83 -17.5t22 -64.5z" />
    <glyph glyph-name="uni1E03" unicode="&#x1e03;" horiz-adv-x="556" 
d="M38 12v697h200v-226q49 41 109 41q51 0 89.5 -20.5t60 -56t31.5 -78t10 -92.5q0 -292 -289 -292q-99 0 -211 27zM238 352v-222q14 -6 34 -6q63 0 63 131q0 117 -47 117q-22 0 -50 -20zM247 803q0 -45 -24 -63t-86 -18q-63 0 -85 16.5t-22 64.5q0 46 23.5 64t84.5 18
q63 0 86 -17.5t23 -64.5z" />
    <glyph glyph-name="uni1E0A" unicode="&#x1e0a;" horiz-adv-x="618" 
d="M49 0v675q48 0 128 1t114 1q162 0 234 -82t72 -236q0 -364 -338 -364q-36 0 -107 2.5t-103 2.5zM259 523v-369q8 -1 21 -1q97 0 97 186q0 105 -24.5 145t-66.5 40q-18 0 -27 -1zM389 792q0 -45 -23.5 -63.5t-82.5 -18.5q-61 0 -82.5 17t-21.5 65q0 45 23 63.5t82 18.5
q61 0 83 -17.5t22 -64.5z" />
    <glyph glyph-name="uni1E0B" unicode="&#x1e0b;" horiz-adv-x="556" 
d="M518 0h-163l-13 45q-60 -60 -133 -60q-51 0 -89.5 20.5t-60 56t-31.5 78t-10 92.5q0 149 70 220.5t193 71.5q25 0 37 -2v172h200v-694zM318 157v222q-14 6 -34 6q-63 0 -63 -131q0 -117 47 -117q22 0 50 20zM527 803q0 -45 -24 -63t-86 -18q-63 0 -85 16.5t-22 64.5
q0 46 23.5 64t84.5 18q63 0 86 -17.5t23 -64.5z" />
    <glyph glyph-name="uni1E1E" unicode="&#x1e1e;" horiz-adv-x="458" 
d="M437 518h-178v-114h157v-154h-157v-250h-210v675h388v-157zM353 792q0 -45 -23.5 -63.5t-82.5 -18.5q-61 0 -82.5 17t-21.5 65q0 45 23 63.5t82 18.5q61 0 83 -17.5t22 -64.5z" />
    <glyph glyph-name="uni1E1F" unicode="&#x1e1f;" horiz-adv-x="318" 
d="M346 680l-21 -110q-25 5 -47 5q-17 0 -24 -8t-7 -26v-32h62v-137h-62v-372h-200v372h-41v137h41v16q0 89 37 134t125 45q74 0 137 -24zM295 803q0 -45 -24 -63t-86 -18q-63 0 -85 16.5t-22 64.5q0 46 23.5 64t84.5 18q63 0 86 -17.5t23 -64.5z" />
    <glyph glyph-name="uni1E40" unicode="&#x1e40;" horiz-adv-x="859" 
d="M829 0h-220q-2 276 -9 420h-2l-91 -420h-183l-88 420h-2q-7 -126 -9 -420h-193q9 346 46 675h277l80 -354h1l84 354h261q31 -308 48 -675zM534 792q0 -45 -23.5 -63.5t-82.5 -18.5q-61 0 -82.5 17t-21.5 65q0 45 23 63.5t82 18.5q61 0 83 -17.5t22 -64.5z" />
    <glyph glyph-name="uni1E41" unicode="&#x1e41;" horiz-adv-x="832" 
d="M794 0h-201q0 68 2 157t2 101q0 74 -5.5 90.5t-25.5 16.5q-17 0 -51 -16q1 -11 1 -56v-293h-199v258q0 52 -3 75t-8 27.5t-18 4.5q-18 0 -50 -16v-349h-200v509h163l13 -45q62 60 143 60q93 0 128 -63q68 63 150 63q87 0 125 -56t38 -180q0 -18 -2 -116.5t-2 -171.5z
M532 631q0 -51 -25 -72t-91 -21q-68 0 -92 20t-24 73q0 51 25 72t91 21q68 0 92 -20t24 -73z" />
    <glyph glyph-name="uni1E56" unicode="&#x1e56;" horiz-adv-x="578" 
d="M259 0h-210v675q46 0 135.5 1t124.5 1q260 0 260 -224q0 -256 -298 -256h-12v-197zM259 527v-180h19q72 0 72 90q0 47 -17 68.5t-55 21.5h-19zM394 792q0 -45 -23.5 -63.5t-82.5 -18.5q-61 0 -82.5 17t-21.5 65q0 45 23 63.5t82 18.5q61 0 83 -17.5t22 -64.5z" />
    <glyph glyph-name="uni1E57" unicode="&#x1e57;" horiz-adv-x="556" 
d="M238 -173h-200v682h163l13 -45q60 60 133 60q51 0 89.5 -20.5t60 -56t31.5 -78t10 -92.5q0 -149 -70 -220.5t-193 -71.5q-25 0 -37 2v-160zM238 352v-222q14 -6 34 -6q63 0 63 131q0 117 -47 117q-22 0 -50 -20zM394 631q0 -51 -25 -72t-91 -21q-68 0 -92 20t-24 73
q0 51 25 72t91 21q68 0 92 -20t24 -73z" />
    <glyph glyph-name="uni1E60" unicode="&#x1e60;" horiz-adv-x="496" 
d="M490 204q0 -94 -66.5 -156t-195.5 -62q-125 0 -226 78l47 105q87 -32 138 -32q69 0 69 44q0 20 -17.5 37.5t-44.5 30.5t-57.5 32.5t-57.5 42t-44.5 62t-17.5 89.5q0 98 67 155.5t174 57.5q109 0 207 -67l-47 -105q-67 24 -119 24q-61 0 -61 -42q0 -21 18.5 -39
t46.5 -31.5t61 -33.5t61 -42.5t46.5 -61t18.5 -86.5zM353 802q0 -45 -23.5 -63.5t-82.5 -18.5q-61 0 -82.5 17t-21.5 65q0 45 23 63.5t82 18.5q61 0 83 -17.5t22 -64.5z" />
    <glyph glyph-name="uni1E61" unicode="&#x1e61;" horiz-adv-x="437" 
d="M10 38l12 97q78 -12 130 -12q64 0 64 27q0 14 -21 24t-51 20t-60 25.5t-51 50t-21 84.5q0 77 58.5 123t154.5 46q82 0 171 -49l-16 -97q-71 14 -110 14q-49 0 -49 -23q0 -14 21.5 -24t51.5 -20t60.5 -25.5t52 -50t21.5 -84.5q0 -78 -63 -128t-175 -50q-86 0 -180 52z
M334 637q0 -51 -25 -72t-91 -21q-68 0 -92 20t-24 73q0 51 25 72t91 21q68 0 92 -20t24 -73z" />
    <glyph glyph-name="uni1E6A" unicode="&#x1e6a;" horiz-adv-x="467" 
d="M454 516h-117v-516h-210v516h-115v159h442v-159zM338 792q0 -45 -23.5 -63.5t-82.5 -18.5q-61 0 -82.5 17t-21.5 65q0 45 23 63.5t82 18.5q61 0 83 -17.5t22 -64.5z" />
    <glyph glyph-name="uni1E6B" unicode="&#x1e6b;" horiz-adv-x="351" 
d="M327 138l12 -113q-75 -39 -147 -39q-79 0 -112 29.5t-33 100.5v256h-41v137h50q24 66 44 152h147v-152h78v-137h-78v-208q0 -31 25 -31q24 0 55 5zM292 785q0 -51 -25 -72t-91 -21q-68 0 -92 20t-24 73q0 51 25 72t91 21q68 0 92 -20t24 -73z" />
    <glyph glyph-name="Wgrave" unicode="&#x1e80;" horiz-adv-x="876" 
d="M681 675h191q-49 -345 -130 -675h-231l-54 254l-21 122h-2l-20 -119l-50 -257h-228q-76 296 -132 675h224q3 -54 19 -195t23 -217h3l19 122l60 290h211l61 -301l19 -111h3q25 226 35 412zM588 787l-60 -81l-226 49l87 110z" />
    <glyph glyph-name="wgrave" unicode="&#x1e81;" horiz-adv-x="803" 
d="M610 509h190q-15 -224 -104 -509h-248l-34 208l-12 93h-3l-10 -93l-30 -208h-248l-108 509h213l29 -221l10 -101h3l11 104l27 218h239l35 -222l14 -100h3q29 209 23 322zM527 595l-100 -48l-171 121l136 65z" />
    <glyph glyph-name="Wacute" unicode="&#x1e82;" horiz-adv-x="876" 
d="M681 675h191q-49 -345 -130 -675h-231l-54 254l-21 122h-2l-20 -119l-50 -257h-228q-76 296 -132 675h224q3 -54 19 -195t23 -217h3l19 122l60 290h211l61 -301l19 -111h3q25 226 35 412zM322 787l199 78l87 -110l-226 -49z" />
    <glyph glyph-name="wacute" unicode="&#x1e83;" horiz-adv-x="803" 
d="M610 509h190q-15 -224 -104 -509h-248l-34 208l-12 93h-3l-10 -93l-30 -208h-248l-108 509h213l29 -221l10 -101h3l11 104l27 218h239l35 -222l14 -100h3q29 209 23 322zM557 668l-171 -121l-100 48l135 138z" />
    <glyph glyph-name="Wdieresis" unicode="&#x1e84;" horiz-adv-x="876" 
d="M681 675h191q-49 -345 -130 -675h-231l-54 254l-21 122h-2l-20 -119l-50 -257h-228q-76 296 -132 675h224q3 -54 19 -195t23 -217h3l19 122l60 290h211l61 -301l19 -111h3q25 226 35 412zM654 787q0 -41 -20.5 -59.5t-67.5 -18.5q-48 0 -68.5 17.5t-20.5 60.5
q0 41 20.5 59.5t68.5 18.5t68 -17.5t20 -60.5zM439 787q0 -41 -20.5 -59.5t-67.5 -18.5q-48 0 -68.5 17.5t-20.5 60.5q0 41 20.5 59.5t68.5 18.5t68 -17.5t20 -60.5z" />
    <glyph glyph-name="wdieresis" unicode="&#x1e85;" horiz-adv-x="803" 
d="M610 509h190q-15 -224 -104 -509h-248l-34 208l-12 93h-3l-10 -93l-30 -208h-248l-108 509h213l29 -221l10 -101h3l11 104l27 218h239l35 -222l14 -100h3q29 209 23 322zM610 628q0 -44 -20.5 -63.5t-68.5 -19.5t-68.5 19t-20.5 64t20.5 64.5t68.5 19.5t68.5 -19
t20.5 -65zM401 628q0 -44 -20.5 -63.5t-68.5 -19.5t-68.5 19t-20.5 64t20.5 64.5t68.5 19.5t68.5 -19t20.5 -65z" />
    <glyph glyph-name="Ygrave" unicode="&#x1ef2;" horiz-adv-x="499" 
d="M308 675h201q-64 -246 -156 -410v-265h-210v265q-101 192 -153 410h225q15 -110 46 -215h3q19 61 44 215zM350 787l-60 -81l-226 49l87 110z" />
    <glyph glyph-name="ygrave" unicode="&#x1ef3;" horiz-adv-x="510" 
d="M306 509h204q-9 -166 -47 -300.5t-94 -218t-123 -128t-138 -44.5q-44 0 -97 31v113q29 -5 63 -5q37 0 50 8q12 7 12 20q0 10 -34 139l-102 385h213l41 -215q12 -63 17 -133h3q20 72 29.5 172.5t2.5 175.5zM380 595l-100 -48l-171 121l136 65z" />
    <glyph glyph-name="endash" unicode="&#x2013;" 
d="M457 233h-413v138h413v-138z" />
    <glyph glyph-name="emdash" unicode="&#x2014;" horiz-adv-x="1000" 
d="M901 233h-801v138h801v-138z" />
    <glyph glyph-name="uni2015" unicode="&#x2015;" horiz-adv-x="1000" 
d="M901 233h-801v138h801v-138z" />
    <glyph glyph-name="quoteleft" unicode="&#x2018;" horiz-adv-x="297" 
d="M204 821l76 -69q-70 -64 -70 -96q0 -12 11 -23t22 -29.5t11 -48.5q0 -65 -22 -88.5t-89 -23.5q-62 0 -82 24t-20 89q0 151 163 265z" />
    <glyph glyph-name="quoteright" unicode="&#x2019;" horiz-adv-x="297" 
d="M93 408l-76 69q70 64 70 96q0 12 -11 23t-22 29.5t-11 48.5q0 65 22 88.5t89 23.5q62 0 82 -24t20 -89q0 -151 -163 -265z" />
    <glyph glyph-name="quotesinglbase" unicode="&#x201a;" horiz-adv-x="298" 
d="M90 -182l-76 69q70 64 70 96q0 12 -11 23t-22 29.5t-11 48.5q0 65 22 88.5t89 23.5q62 0 82 -24t20 -89q0 -151 -163 -265z" />
    <glyph glyph-name="quotedblleft" unicode="&#x201c;" horiz-adv-x="504" 
d="M417 809l70 -65q-64 -60 -64 -92q0 -10 6.5 -18.5t13.5 -15.5t13.5 -23.5t6.5 -38.5q0 -61 -20.5 -84t-81.5 -23q-56 0 -74 23t-18 85q0 143 148 252zM199 817l70 -65q-74 -68 -74 -100q0 -10 6.5 -18.5t13.5 -15.5t13.5 -23.5t6.5 -38.5q0 -61 -20.5 -84t-81.5 -23
q-56 0 -74 23t-18 85q0 143 158 260z" />
    <glyph glyph-name="quotedblright" unicode="&#x201d;" horiz-adv-x="504" 
d="M305 411l-70 65q74 68 74 100q0 12 -10 22t-20 28t-10 46q0 61 20.5 84t81.5 23q56 0 74 -23t18 -85q0 -143 -158 -260zM87 419l-70 65q64 60 64 92q0 12 -10 22t-20 28t-10 46q0 61 20.5 84t81.5 23q56 0 74 -23t18 -85q0 -143 -148 -252z" />
    <glyph glyph-name="quotedblbase" unicode="&#x201e;" horiz-adv-x="505" 
d="M302 -179l-70 65q74 68 74 100q0 11 -20 34.5t-20 61.5q0 61 20.5 84t81.5 23q56 0 74 -23t18 -85q0 -143 -158 -260zM84 -171l-70 65q64 60 64 92q0 11 -20 34.5t-20 61.5q0 61 20.5 84t81.5 23q56 0 74 -23t18 -85q0 -143 -148 -252z" />
    <glyph glyph-name="dagger" unicode="&#x2020;" horiz-adv-x="405" 
d="M386 478h-91v-297h-186v297h-91v122h91v109h186v-109h91v-122z" />
    <glyph glyph-name="daggerdbl" unicode="&#x2021;" horiz-adv-x="405" 
d="M386 122h-92v-122h-183v122h-93v122h93v215h-93v122h93v128h183v-128h92v-122h-92v-215h92v-122z" />
    <glyph glyph-name="bullet" unicode="&#x2022;" 
d="M482 300q0 -96 -68 -164t-164 -68t-164 68t-68 164t68 164t164 68t164 -68t68 -164z" />
    <glyph glyph-name="ellipsis" unicode="&#x2026;" horiz-adv-x="777" 
d="M739 89q0 -60 -20.5 -81.5t-83.5 -21.5t-84 21.5t-21 81.5q0 63 20.5 84.5t84.5 21.5q63 0 83.5 -22t20.5 -84zM495 89q0 -60 -20.5 -81.5t-83.5 -21.5t-84 21.5t-21 81.5q0 63 20.5 84.5t84.5 21.5q63 0 83.5 -22t20.5 -84zM251 89q0 -60 -20.5 -81.5t-83.5 -21.5
t-84 21.5t-21 81.5q0 63 20.5 84.5t84.5 21.5q63 0 83.5 -22t20.5 -84z" />
    <glyph glyph-name="perthousand" unicode="&#x2030;" horiz-adv-x="1079" 
d="M366 525q0 -78 -45.5 -120.5t-130.5 -42.5q-88 0 -126 40.5t-38 124.5q0 78 45.5 120.5t130.5 42.5q88 0 126 -40.5t38 -124.5zM227 527q0 38 -7.5 51.5t-23.5 13.5t-23.5 -13.5t-7.5 -53.5q0 -38 7.5 -51.5t23.5 -13.5t23.5 13.5t7.5 53.5zM669 649l-520 -677l-98 54
l520 677zM694 148q0 -78 -45.5 -120.5t-130.5 -42.5q-88 0 -126 40.5t-38 124.5q0 78 45.5 120.5t130.5 42.5q88 0 126 -40.5t38 -124.5zM555 150q0 38 -7.5 51.5t-23.5 13.5t-23.5 -13.5t-7.5 -53.5q0 -38 7.5 -51.5t23.5 -13.5t23.5 13.5t7.5 53.5zM1053 148
q0 -78 -45.5 -120.5t-130.5 -42.5q-88 0 -126 40.5t-38 124.5q0 78 45.5 120.5t130.5 42.5q88 0 126 -40.5t38 -124.5zM914 150q0 38 -7.5 51.5t-23.5 13.5t-23.5 -13.5t-7.5 -53.5q0 -38 7.5 -51.5t23.5 -13.5t23.5 13.5t7.5 53.5z" />
    <glyph glyph-name="guilsinglleft" unicode="&#x2039;" horiz-adv-x="313" 
d="M294 109l-137 -41l-145 221l146 221l136 -43l-94 -178z" />
    <glyph glyph-name="guilsinglright" unicode="&#x203a;" horiz-adv-x="313" 
d="M19 469l137 41l145 -221l-146 -221l-136 43l94 178z" />
    <glyph glyph-name="exclamdbl" unicode="&#x203c;" horiz-adv-x="638" 
d="M273 218h-181l-32 457h243zM300 87q0 -55 -25 -76.5t-92 -21.5q-66 0 -90.5 21.5t-24.5 76.5q0 54 24.5 75.5t90.5 21.5q68 0 92.5 -21t24.5 -76zM563 218h-181l-32 457h243zM590 87q0 -55 -25 -76.5t-92 -21.5q-66 0 -90.5 21.5t-24.5 76.5q0 54 24.5 75.5t90.5 21.5
q68 0 92.5 -21t24.5 -76z" />
    <glyph glyph-name="fraction" unicode="&#x2044;" horiz-adv-x="109" 
d="M-290 -44l577 778l98 -54l-577 -778z" />
    <glyph glyph-name="zero.superior" unicode="&#x2070;" horiz-adv-x="436" 
d="M418 534q0 -105 -54 -157t-149 -52q-101 0 -149 49.5t-48 152.5q0 100 53.5 152t150.5 53q101 1 148.5 -46t47.5 -152zM245 529q0 63 -5.5 80t-21.5 17t-21.5 -18.5t-5.5 -79.5q0 -57 6 -77t21 -20q16 0 21.5 20t5.5 78z" />
    <glyph glyph-name="four.superior" unicode="&#x2074;" horiz-adv-x="376" 
d="M362 396h-29v-58h-162v58h-165v113q31 93 97 210h230v-210h29v-113zM171 509v117h-1q-34 -56 -51 -117h52z" />
    <glyph glyph-name="five.superior" unicode="&#x2075;" horiz-adv-x="372" 
d="M324 604h-135l-3 -37q32 2 37 2q70 0 102.5 -25.5t32.5 -81.5q0 -67 -48 -102t-127 -35q-87 0 -165 29l10 81q51 -9 101 -9q54 0 54 28q0 25 -51 25q-41 0 -98 -6l16 246h274v-115z" />
    <glyph glyph-name="six.superior" unicode="&#x2076;" horiz-adv-x="428" 
d="M386 703l-16 -78q-59 8 -107 8q-43 0 -59 -14.5t-18 -51.5q47 21 89 21q76 0 106.5 -28.5t30.5 -82.5q0 -69 -53 -110.5t-144 -41.5q-98 0 -145.5 42t-47.5 152q0 213 210 213q84 0 154 -29zM248 468q0 32 -29 32q-17 0 -33 -6q0 -74 33 -74q29 0 29 48z" />
    <glyph glyph-name="seven.superior" unicode="&#x2077;" horiz-adv-x="340" 
d="M333 604l-69 -118q-65 -109 -119 -162l-125 35l123 238h-136v122h326v-115z" />
    <glyph glyph-name="eight.superior" unicode="&#x2078;" horiz-adv-x="446" 
d="M19 430q0 58 69 90q-61 33 -61 91q0 57 49.5 90t149.5 33q92 0 142 -28t50 -77q0 -55 -57 -87q66 -30 66 -93q0 -126 -213 -126q-195 0 -195 107zM260 434q0 24 -55 43q-20 -15 -20 -39q0 -29 39 -29q36 0 36 25zM189 621q0 -28 46 -43q21 16 21 38q0 32 -35 32
q-32 0 -32 -27z" />
    <glyph glyph-name="nine.superior" unicode="&#x2079;" horiz-adv-x="428" 
d="M34 355l15 79q70 -10 116 -10q43 0 59 14.5t18 51.5q-47 -21 -89 -21q-76 0 -106.5 28.5t-30.5 82.5q0 69 53 110.5t144 41.5q98 0 145.5 -42t47.5 -152q0 -213 -210 -213q-81 0 -162 30zM242 563q0 74 -33 74q-29 0 -29 -48q0 -32 29 -32q17 0 33 6z" />
    <glyph glyph-name="uni207A" unicode="&#x207a;" horiz-adv-x="337" 
d="M314 469h-76v-78h-139v78h-76v119h76v79h139v-79h76v-119z" />
    <glyph glyph-name="uni207B" unicode="&#x207b;" horiz-adv-x="337" 
d="M314 469h-291v119h291v-119z" />
    <glyph glyph-name="uni207C" unicode="&#x207c;" horiz-adv-x="337" 
d="M311 546h-285v105h285v-105zM311 406h-285v105h285v-105z" />
    <glyph glyph-name="parenleft.superior" unicode="&#x207d;" horiz-adv-x="255" 
d="M242 293l-117 -25q-98 112 -98 270q0 161 98 273l117 -31q-50 -126 -50 -242q0 -107 50 -245z" />
    <glyph glyph-name="parenright.superior" unicode="&#x207e;" horiz-adv-x="255" 
d="M130 268l-117 25q50 126 50 242q0 107 -50 245l117 31q98 -112 98 -270q0 -161 -98 -273z" />
    <glyph glyph-name="nsuperior" unicode="&#x207f;" horiz-adv-x="402" 
d="M385 525q0 -10 -1.5 -73t-1.5 -113h-162q0 46 0.5 107.5t0.5 76.5q0 27 -3 35.5t-12 8.5q-11 0 -22 -8v-220h-164v333h132l11 -35q47 42 103 42q66 0 92.5 -35.5t26.5 -118.5z" />
    <glyph glyph-name="zero.inferior" unicode="&#x2080;" horiz-adv-x="436" 
d="M418 123q0 -105 -54 -157t-149 -52q-101 0 -149 49.5t-48 152.5q0 100 53.5 152t150.5 53q101 1 148.5 -46t47.5 -152zM245 118q0 63 -5.5 80t-21.5 17t-21.5 -18.5t-5.5 -79.5q0 -57 6 -77t21 -20q16 0 21.5 20t5.5 78z" />
    <glyph glyph-name="one.inferior" unicode="&#x2081;" horiz-adv-x="355" 
d="M337 -73h-302v113h71v139l-60 -16l-20 94l119 53h129v-270h63v-113z" />
    <glyph glyph-name="two.inferior" unicode="&#x2082;" horiz-adv-x="383" 
d="M362 -73h-333v116q93 72 119.5 99t26.5 45q0 21 -33 21q-14 0 -30.5 -2.5t-27.5 -5.5t-24.5 -7t-16.5 -5l-21 97q83 36 168 36q68 0 115.5 -27.5t47.5 -82.5q0 -42 -31.5 -82t-112.5 -83h153v-119z" />
    <glyph glyph-name="three.inferior" unicode="&#x2083;" horiz-adv-x="375" 
d="M11 -55l10 81q64 -10 102 -10q57 0 57 29q0 14 -11 19.5t-42 5.5h-61v103h69q38 0 38 23q0 22 -37 22q-40 0 -93 -17l-22 90q81 30 154 30q85 0 127.5 -28.5t42.5 -76.5q0 -61 -65 -88q74 -15 74 -84q0 -64 -54.5 -97t-133.5 -33q-85 0 -155 31z" />
    <glyph glyph-name="four.inferior" unicode="&#x2084;" horiz-adv-x="376" 
d="M362 -15h-29v-58h-162v58h-165v113q31 93 97 210h230v-210h29v-113zM171 98v117h-1q-34 -56 -51 -117h52z" />
    <glyph glyph-name="five.inferior" unicode="&#x2085;" horiz-adv-x="372" 
d="M324 193h-135l-3 -37q32 2 37 2q70 0 102.5 -25.5t32.5 -81.5q0 -67 -48 -102t-127 -35q-87 0 -165 29l10 81q51 -9 101 -9q54 0 54 28q0 25 -51 25q-41 0 -98 -6l16 246h274v-115z" />
    <glyph glyph-name="six.inferior" unicode="&#x2086;" horiz-adv-x="428" 
d="M386 292l-16 -78q-59 8 -107 8q-43 0 -59 -14.5t-18 -51.5q47 21 89 21q76 0 106.5 -28.5t30.5 -82.5q0 -69 -53 -110.5t-144 -41.5q-98 0 -145.5 42t-47.5 152q0 213 210 213q84 0 154 -29zM248 57q0 32 -29 32q-17 0 -33 -6q0 -74 33 -74q29 0 29 48z" />
    <glyph glyph-name="seven.inferior" unicode="&#x2087;" horiz-adv-x="340" 
d="M333 193l-69 -118q-65 -109 -119 -162l-125 35l123 238h-136v122h326v-115z" />
    <glyph glyph-name="eight.inferior" unicode="&#x2088;" horiz-adv-x="446" 
d="M19 19q0 58 69 90q-61 33 -61 91q0 57 49.5 90t149.5 33q92 0 142 -28t50 -77q0 -55 -57 -87q66 -30 66 -93q0 -126 -213 -126q-195 0 -195 107zM260 23q0 24 -55 43q-20 -15 -20 -39q0 -29 39 -29q36 0 36 25zM189 210q0 -28 46 -43q21 16 21 38q0 32 -35 32
q-32 0 -32 -27z" />
    <glyph glyph-name="nine.inferior" unicode="&#x2089;" horiz-adv-x="428" 
d="M34 -56l15 79q70 -10 116 -10q43 0 59 14.5t18 51.5q-47 -21 -89 -21q-76 0 -106.5 28.5t-30.5 82.5q0 69 53 110.5t144 41.5q98 0 145.5 -42t47.5 -152q0 -213 -210 -213q-81 0 -162 30zM242 152q0 74 -33 74q-29 0 -29 -48q0 -32 29 -32q17 0 33 6z" />
    <glyph glyph-name="uni208A" unicode="&#x208a;" horiz-adv-x="337" 
d="M314 58h-76v-78h-139v78h-76v119h76v79h139v-79h76v-119z" />
    <glyph glyph-name="uni208B" unicode="&#x208b;" horiz-adv-x="337" 
d="M314 58h-291v119h291v-119z" />
    <glyph glyph-name="uni208C" unicode="&#x208c;" horiz-adv-x="337" 
d="M311 135h-285v105h285v-105zM311 -5h-285v105h285v-105z" />
    <glyph glyph-name="parenleft.inferior" unicode="&#x208d;" horiz-adv-x="255" 
d="M242 -118l-117 -25q-98 112 -98 270q0 161 98 273l117 -31q-50 -126 -50 -242q0 -108 50 -245z" />
    <glyph glyph-name="parenright.inferior" unicode="&#x208e;" horiz-adv-x="255" 
d="M130 -143l-117 25q50 126 50 242q0 108 -50 245l117 31q98 -112 98 -270q0 -161 -98 -273z" />
    <glyph glyph-name="Euro" unicode="&#x20ac;" 
d="M265 485h92v-122h-109q-1 -8 -1 -19q0 -18 1 -29h109v-122h-92q12 -54 68 -54q49 0 81 32l75 -99q-70 -87 -188 -87q-213 0 -244 208h-57v122h46v48h-46v122h59q23 99 87.5 152t158.5 53q54 0 101 -23.5t75 -68.5l-78 -89q-30 30 -70 30q-51 0 -68 -54z" />
    <glyph glyph-name="uni2117" unicode="&#x2117;" horiz-adv-x="778" 
d="M387 166h-139v343q28 0 83.5 0.5t76.5 0.5q160 0 160 -126q0 -68 -44 -106t-133 -38h-4v-74zM387 416v-82h7q30 0 30 40q0 42 -30 42h-7zM754 347q0 -154 -106.5 -260.5t-262.5 -106.5q-158 0 -259.5 100t-101.5 247q0 154 106.5 260.5t262.5 106.5q158 0 259.5 -100
t101.5 -247zM617 341q0 99 -65 168.5t-159 69.5q-96 0 -164 -70.5t-68 -175.5q0 -99 65 -168.5t159 -69.5q96 0 164 70.5t68 175.5z" />
    <glyph glyph-name="servicemark" unicode="&#x2120;" horiz-adv-x="464" 
d="M442 505h-72q1 26 1 70h-2l-19 -70h-72l-20 70h-2q0 -44 1 -70h-69q0 83 6 170h103l21 -77h1l18 77h96q8 -90 9 -170zM169 665l-11 -37q-21 7 -39 7q-14 0 -14 -5q0 -3 3.5 -5t13 -4.5t14.5 -4.5q40 -17 40 -55q0 -26 -21.5 -44t-66.5 -18q-43 0 -78 20l12 36
q23 -10 46 -10q14 0 14 7q0 3 -4.5 5t-14 4.5t-16.5 5.5q-32 14 -32 52q0 29 21.5 45.5t60.5 16.5q40 0 72 -16z" />
    <glyph glyph-name="trademark" unicode="&#x2122;" horiz-adv-x="434" 
d="M412 505h-72q1 26 1 70h-2l-19 -70h-72l-20 70h-2q0 -44 1 -70h-69q0 83 6 170h103l21 -77h1l18 77h96q8 -90 9 -170zM151 613h-28v-108h-77v108h-31v62h136v-62z" />
    <glyph glyph-name="uni2139" unicode="&#x2139;" horiz-adv-x="424" 
d="M334 535q0 -56 -26 -79t-96 -23q-71 0 -96 22t-25 80q0 57 26 80t95 23q72 0 97 -22t25 -81zM403 0h-382v133h92v137h-86v133h295v-270h81v-133z" />
    <glyph glyph-name="onethird" unicode="&#x2153;" horiz-adv-x="818" 
d="M337 338h-302v113h71v139l-60 -16l-20 94l119 53h129v-270h63v-113zM67 -44l577 778l98 -54l-577 -778zM454 -55l10 81q64 -10 102 -10q57 0 57 29q0 14 -11 19.5t-42 5.5h-61v103h69q38 0 38 23q0 22 -37 22q-40 0 -93 -17l-22 90q81 30 154 30q85 0 127.5 -28.5
t42.5 -76.5q0 -61 -65 -88q74 -15 74 -84q0 -64 -54.5 -97t-133.5 -33q-85 0 -155 31z" />
    <glyph glyph-name="twothirds" unicode="&#x2154;" horiz-adv-x="843" 
d="M362 338h-333v116q93 72 119.5 99t26.5 45q0 21 -33 21q-14 0 -30.5 -2.5t-27.5 -5.5t-24.5 -7t-16.5 -5l-21 97q83 36 168 36q68 0 115.5 -27.5t47.5 -82.5q0 -42 -31.5 -82t-112.5 -83h153v-119zM92 -44l577 778l98 -54l-577 -778zM479 -55l10 81q64 -10 102 -10
q57 0 57 29q0 14 -11 19.5t-42 5.5h-61v103h69q38 0 38 23q0 22 -37 22q-40 0 -93 -17l-22 90q81 30 154 30q85 0 127.5 -28.5t42.5 -76.5q0 -61 -65 -88q74 -15 74 -84q0 -64 -54.5 -97t-133.5 -33q-85 0 -155 31z" />
    <glyph glyph-name="onefifth" unicode="&#x2155;" horiz-adv-x="800" 
d="M337 338h-302v113h71v139l-60 -16l-20 94l119 53h129v-270h63v-113zM67 -44l577 778l98 -54l-577 -778zM752 193h-135l-3 -37q32 2 37 2q70 0 102.5 -25.5t32.5 -81.5q0 -67 -48 -102t-127 -35q-87 0 -165 29l10 81q51 -9 101 -9q54 0 54 28q0 25 -51 25q-41 0 -98 -6
l16 246h274v-115z" />
    <glyph glyph-name="twofifths" unicode="&#x2156;" horiz-adv-x="825" 
d="M362 338h-333v116q93 72 119.5 99t26.5 45q0 21 -33 21q-14 0 -30.5 -2.5t-27.5 -5.5t-24.5 -7t-16.5 -5l-21 97q83 36 168 36q68 0 115.5 -27.5t47.5 -82.5q0 -42 -31.5 -82t-112.5 -83h153v-119zM92 -44l577 778l98 -54l-577 -778zM777 193h-135l-3 -37q32 2 37 2
q70 0 102.5 -25.5t32.5 -81.5q0 -67 -48 -102t-127 -35q-87 0 -165 29l10 81q51 -9 101 -9q54 0 54 28q0 25 -51 25q-41 0 -98 -6l16 246h274v-115z" />
    <glyph glyph-name="threefifths" unicode="&#x2157;" horiz-adv-x="782" 
d="M11 356l10 81q64 -10 102 -10q57 0 57 29q0 14 -11 19.5t-42 5.5h-61v103h69q38 0 38 23q0 22 -37 22q-40 0 -93 -17l-22 90q81 30 154 30q85 0 127.5 -28.5t42.5 -76.5q0 -61 -65 -88q74 -15 74 -84q0 -64 -54.5 -97t-133.5 -33q-85 0 -155 31zM49 -44l577 778l98 -54
l-577 -778zM734 193h-135l-3 -37q32 2 37 2q70 0 102.5 -25.5t32.5 -81.5q0 -67 -48 -102t-127 -35q-87 0 -165 29l10 81q51 -9 101 -9q54 0 54 28q0 25 -51 25q-41 0 -98 -6l16 246h274v-115z" />
    <glyph glyph-name="fourfifths" unicode="&#x2158;" horiz-adv-x="798" 
d="M362 396h-29v-58h-162v58h-165v113q31 93 97 210h230v-210h29v-113zM171 509v117h-1q-34 -56 -51 -117h52zM65 -44l577 778l98 -54l-577 -778zM750 193h-135l-3 -37q32 2 37 2q70 0 102.5 -25.5t32.5 -81.5q0 -67 -48 -102t-127 -35q-87 0 -165 29l10 81q51 -9 101 -9
q54 0 54 28q0 25 -51 25q-41 0 -98 -6l16 246h274v-115z" />
    <glyph glyph-name="onesixth" unicode="&#x2159;" horiz-adv-x="825" 
d="M67 -44l577 778l98 -54l-577 -778zM787 292l-16 -78q-59 8 -107 8q-43 0 -59 -14.5t-18 -51.5q47 21 89 21q76 0 106.5 -28.5t30.5 -82.5q0 -69 -53 -110.5t-144 -41.5q-98 0 -145.5 42t-47.5 152q0 213 210 213q84 0 154 -29zM649 57q0 32 -29 32q-17 0 -33 -6
q0 -74 33 -74q29 0 29 48zM337 338h-302v113h71v139l-60 -16l-20 94l119 53h129v-270h63v-113z" />
    <glyph glyph-name="fivesixths" unicode="&#x215a;" horiz-adv-x="810" 
d="M52 -44l577 778l98 -54l-577 -778zM772 292l-16 -78q-59 8 -107 8q-43 0 -59 -14.5t-18 -51.5q47 21 89 21q76 0 106.5 -28.5t30.5 -82.5q0 -69 -53 -110.5t-144 -41.5q-98 0 -145.5 42t-47.5 152q0 213 210 213q84 0 154 -29zM634 57q0 32 -29 32q-17 0 -33 -6
q0 -74 33 -74q29 0 29 48zM324 604h-135l-3 -37q32 2 37 2q70 0 102.5 -25.5t32.5 -81.5q0 -67 -48 -102t-127 -35q-87 0 -165 29l10 81q51 -9 101 -9q54 0 54 28q0 25 -51 25q-41 0 -98 -6l16 246h274v-115z" />
    <glyph glyph-name="oneeighth" unicode="&#x215b;" horiz-adv-x="867" 
d="M67 -44l577 778l98 -54l-577 -778zM440 19q0 58 69 90q-61 33 -61 91q0 57 49.5 90t149.5 33q92 0 142 -28t50 -77q0 -55 -57 -87q66 -30 66 -93q0 -126 -213 -126q-195 0 -195 107zM681 23q0 24 -55 43q-20 -15 -20 -39q0 -29 39 -29q36 0 36 25zM610 210q0 -28 46 -43
q21 16 21 38q0 32 -35 32q-32 0 -32 -27zM337 338h-302v113h71v139l-60 -16l-20 94l119 53h129v-270h63v-113z" />
    <glyph glyph-name="threeeighths" unicode="&#x215c;" horiz-adv-x="849" 
d="M11 356l10 81q64 -10 102 -10q57 0 57 29q0 14 -11 19.5t-42 5.5h-61v103h69q38 0 38 23q0 22 -37 22q-40 0 -93 -17l-22 90q81 30 154 30q85 0 127.5 -28.5t42.5 -76.5q0 -61 -65 -88q74 -15 74 -84q0 -64 -54.5 -97t-133.5 -33q-85 0 -155 31zM49 -44l577 778l98 -54
l-577 -778zM422 19q0 58 69 90q-61 33 -61 91q0 57 49.5 90t149.5 33q92 0 142 -28t50 -77q0 -55 -57 -87q66 -30 66 -93q0 -126 -213 -126q-195 0 -195 107zM663 23q0 24 -55 43q-20 -15 -20 -39q0 -29 39 -29q36 0 36 25zM592 210q0 -28 46 -43q21 16 21 38q0 32 -35 32
q-32 0 -32 -27z" />
    <glyph glyph-name="fiveeighths" unicode="&#x215d;" horiz-adv-x="852" 
d="M52 -44l577 778l98 -54l-577 -778zM425 19q0 58 69 90q-61 33 -61 91q0 57 49.5 90t149.5 33q92 0 142 -28t50 -77q0 -55 -57 -87q66 -30 66 -93q0 -126 -213 -126q-195 0 -195 107zM666 23q0 24 -55 43q-20 -15 -20 -39q0 -29 39 -29q36 0 36 25zM595 210q0 -28 46 -43
q21 16 21 38q0 32 -35 32q-32 0 -32 -27zM324 604h-135l-3 -37q32 2 37 2q70 0 102.5 -25.5t32.5 -81.5q0 -67 -48 -102t-127 -35q-87 0 -165 29l10 81q51 -9 101 -9q54 0 54 28q0 25 -51 25q-41 0 -98 -6l16 246h274v-115z" />
    <glyph glyph-name="seveneighths" unicode="&#x215e;" horiz-adv-x="807" 
d="M7 -44l577 778l98 -54l-577 -778zM380 19q0 58 69 90q-61 33 -61 91q0 57 49.5 90t149.5 33q92 0 142 -28t50 -77q0 -55 -57 -87q66 -30 66 -93q0 -126 -213 -126q-195 0 -195 107zM621 23q0 24 -55 43q-20 -15 -20 -39q0 -29 39 -29q36 0 36 25zM550 210q0 -28 46 -43
q21 16 21 38q0 32 -35 32q-32 0 -32 -27zM373 604l-69 -118q-65 -109 -119 -162l-125 35l123 238h-136v122h326v-115z" />
    <glyph glyph-name="uni2160" unicode="&#x2160;" horiz-adv-x="400" 
d="M367 0h-334v159h62v359h-62v157h334v-157h-62v-359h62v-159z" />
    <glyph glyph-name="uni2161" unicode="&#x2161;" horiz-adv-x="800" 
d="M367 0h-334v159h62v359h-62v157h334v-157h-62v-359h62v-159zM767 0h-334v159h62v359h-62v157h334v-157h-62v-359h62v-159z" />
    <glyph glyph-name="uni2162" unicode="&#x2162;" horiz-adv-x="1200" 
d="M367 0h-334v159h62v359h-62v157h334v-157h-62v-359h62v-159zM767 0h-334v159h62v359h-62v157h334v-157h-62v-359h62v-159zM1167 0h-334v159h62v359h-62v157h334v-157h-62v-359h62v-159z" />
    <glyph glyph-name="uni2163" unicode="&#x2163;" horiz-adv-x="980" 
d="M367 0h-334v159h62v359h-62v157h334v-157h-62v-359h62v-159zM778 675h202q-52 -382 -157 -675h-262q-104 310 -161 675h229q20 -238 77 -468h3q50 195 69 468z" />
    <glyph glyph-name="uni2164" unicode="&#x2164;" horiz-adv-x="580" 
d="M378 675h202q-52 -382 -157 -675h-262q-104 310 -161 675h229q20 -238 77 -468h3q50 195 69 468z" />
    <glyph glyph-name="uni2165" unicode="&#x2165;" horiz-adv-x="980" 
d="M378 675h202q-52 -382 -157 -675h-262q-104 310 -161 675h229q20 -238 77 -468h3q50 195 69 468zM947 0h-334v159h62v359h-62v157h334v-157h-62v-359h62v-159z" />
    <glyph glyph-name="uni2166" unicode="&#x2166;" horiz-adv-x="1380" 
d="M378 675h202q-52 -382 -157 -675h-262q-104 310 -161 675h229q20 -238 77 -468h3q50 195 69 468zM947 0h-334v159h62v359h-62v157h334v-157h-62v-359h62v-159zM1347 0h-334v159h62v359h-62v157h334v-157h-62v-359h62v-159z" />
    <glyph glyph-name="uni2167" unicode="&#x2167;" horiz-adv-x="1780" 
d="M378 675h202q-52 -382 -157 -675h-262q-104 310 -161 675h229q20 -238 77 -468h3q50 195 69 468zM947 0h-334v159h62v359h-62v157h334v-157h-62v-359h62v-159zM1347 0h-334v159h62v359h-62v157h334v-157h-62v-359h62v-159zM1747 0h-334v159h62v359h-62v157h334v-157h-62
v-359h62v-159z" />
    <glyph glyph-name="uni2168" unicode="&#x2168;" horiz-adv-x="958" 
d="M367 0h-334v159h62v359h-62v157h334v-157h-62v-359h62v-159zM964 0h-227q-35 111 -72 193h-3q-28 -68 -67 -193h-201q73 214 149 358q-77 150 -134 317h222q30 -109 56 -169h3q27 59 62 169h196q-65 -190 -136 -314q87 -162 152 -361z" />
    <glyph glyph-name="uni2169" unicode="&#x2169;" horiz-adv-x="558" 
d="M564 0h-227q-35 111 -72 193h-3q-28 -68 -67 -193h-201q73 214 149 358q-77 150 -134 317h222q30 -109 56 -169h3q27 59 62 169h196q-65 -190 -136 -314q87 -162 152 -361z" />
    <glyph glyph-name="uni216A" unicode="&#x216a;" horiz-adv-x="958" 
d="M564 0h-227q-35 111 -72 193h-3q-28 -68 -67 -193h-201q73 214 149 358q-77 150 -134 317h222q30 -109 56 -169h3q27 59 62 169h196q-65 -190 -136 -314q87 -162 152 -361zM925 0h-334v159h62v359h-62v157h334v-157h-62v-359h62v-159z" />
    <glyph glyph-name="uni216B" unicode="&#x216b;" horiz-adv-x="1358" 
d="M564 0h-227q-35 111 -72 193h-3q-28 -68 -67 -193h-201q73 214 149 358q-77 150 -134 317h222q30 -109 56 -169h3q27 59 62 169h196q-65 -190 -136 -314q87 -162 152 -361zM925 0h-334v159h62v359h-62v157h334v-157h-62v-359h62v-159zM1325 0h-334v159h62v359h-62v157
h334v-157h-62v-359h62v-159z" />
    <glyph glyph-name="uni216C" unicode="&#x216c;" horiz-adv-x="421" 
d="M408 0h-359v675h210v-515h149v-160z" />
    <glyph glyph-name="uni216D" unicode="&#x216d;" horiz-adv-x="512" 
d="M431 203l84 -109q-33 -52 -92 -80.5t-122 -28.5q-145 0 -212.5 82t-67.5 256q0 181 73 274t206 93q66 0 119.5 -28t83.5 -81l-92 -96q-37 39 -79 39q-92 0 -92 -178q0 -111 23 -152.5t72 -41.5q50 0 96 51z" />
    <glyph glyph-name="uni216E" unicode="&#x216e;" horiz-adv-x="618" 
d="M49 0v675q48 0 128 1t114 1q162 0 234 -82t72 -236q0 -364 -338 -364q-36 0 -107 2.5t-103 2.5zM259 523v-369q8 -1 21 -1q97 0 97 186q0 105 -24.5 145t-66.5 40q-18 0 -27 -1z" />
    <glyph glyph-name="uni216F" unicode="&#x216f;" horiz-adv-x="859" 
d="M829 0h-220q-2 276 -9 420h-2l-91 -420h-183l-88 420h-2q-7 -126 -9 -420h-193q9 346 46 675h277l80 -354h1l84 354h261q31 -308 48 -675z" />
    <glyph glyph-name="arrowleft" unicode="&#x2190;" horiz-adv-x="1054" 
d="M31 338l404 404l95 -95q-84 -117 -188 -223l2 -3q236 17 501 17h142v-200h-142q-118 0 -243.5 4t-191.5 8l-66 5l-2 -3q46 -47 93 -103t71 -88l24 -32l-95 -95z" />
    <glyph glyph-name="arrowup" unicode="&#x2191;" horiz-adv-x="870" 
d="M435 834l404 -404l-95 -95q-117 84 -223 188l-3 -2q17 -236 17 -501v-142h-200v142q0 118 4.5 243.5t8.5 191.5l4 66l-3 2q-47 -46 -103 -93t-88 -71l-32 -24l-95 95z" />
    <glyph glyph-name="arrowright" unicode="&#x2192;" horiz-adv-x="1054" 
d="M1023 338l-404 -404l-95 95q84 117 188 223l-2 3q-236 -17 -501 -17h-142v200h142q118 0 243.5 -4t191.5 -8l66 -5l2 3q-46 47 -93 103t-71 88l-24 32l95 95z" />
    <glyph glyph-name="arrowdown" unicode="&#x2193;" horiz-adv-x="870" 
d="M435 -158l-404 404l95 95q117 -84 223 -188l3 2q-17 236 -17 501v142h200v-142q0 -118 -4.5 -243.5t-8.5 -191.5l-4 -66l3 -2q47 46 103 93t88 71l32 24l95 -95z" />
    <glyph glyph-name="arrowboth" unicode="&#x2194;" horiz-adv-x="1250" 
d="M1219 338l-362 -362l-88 88q69 97 164 195l-2 3q-166 -11 -241 -11h-130q-33 0 -93.5 2.5t-104.5 5.5l-43 3l-2 -3q42 -44 83 -92.5t61 -75.5l20 -27l-88 -88l-362 362l362 362l88 -88q-69 -97 -164 -195l2 -3q166 11 241 11h130q33 0 93.5 -2.5t104.5 -5.5l43 -3l2 3
q-42 44 -83 92.5t-61 75.5l-20 27l88 88z" />
    <glyph glyph-name="arrowupdn" unicode="&#x2195;" horiz-adv-x="786" 
d="M393 -200l-362 362l88 88q97 -69 195 -164l3 2q-12 166 -12 241v18q0 33 3 93.5t6 103.5l3 44l-3 2q-44 -42 -92.5 -83t-75.5 -61l-27 -20l-88 88l362 362l362 -362l-88 -88q-97 69 -195 164l-3 -2q12 -166 12 -241v-18q0 -33 -3 -93.5t-6 -103.5l-3 -44l3 -2
q44 42 92.5 83t75.5 61l27 20l88 -88z" />
    <glyph glyph-name="arrownorthwest" unicode="&#x2196;" horiz-adv-x="846" 
d="M71 689h572v-135q-143 -23 -291 -24l-1 -4q178 -154 366 -342l101 -101l-141 -141l-101 101q-84 84 -169.5 175.5t-128.5 141.5l-44 49l-4 -1q0 -66 -6 -138.5t-12 -112.5l-6 -40h-135v572z" />
    <glyph glyph-name="arrownortheast" unicode="&#x2197;" horiz-adv-x="846" 
d="M773 689v-572h-135q-23 143 -24 291l-4 1q-154 -178 -342 -366l-101 -101l-141 141l101 101q84 84 175.5 169.5t141.5 128.5l49 44l-1 4q-66 0 -138.5 6t-112.5 12l-40 6v135h572z" />
    <glyph glyph-name="arrowsoutheast" unicode="&#x2198;" horiz-adv-x="846" 
d="M773 -13h-572v135q143 23 291 24l1 4q-178 154 -366 342l-101 101l141 141l101 -101q84 -84 169.5 -175.5t128.5 -141.5l44 -49l4 1q0 66 6 138.5t12 112.5l6 40h135v-572z" />
    <glyph glyph-name="arrowsouthwest" unicode="&#x2199;" horiz-adv-x="846" 
d="M71 -13v572h135q23 -143 24 -291l4 -1q154 178 342 366l101 101l141 -141l-101 -101q-84 -84 -175.5 -169.5t-141.5 -128.5l-49 -44l1 -4q66 0 138.5 -6t112.5 -12l40 -6v-135h-572z" />
    <glyph glyph-name="partialdiff" unicode="&#x2202;" horiz-adv-x="561" 
d="M126 623l110 99q161 -45 233 -142t72 -267q0 -152 -71.5 -239t-205.5 -87q-252 0 -252 263q0 124 67.5 193.5t207.5 69.5q2 0 4 -1q-23 39 -61.5 64t-103.5 47zM328 263q0 74 -5 114q-10 5 -29 5q-32 0 -50 -34t-18 -94q0 -116 56 -116q23 0 34.5 24.5t11.5 100.5z" />
    <glyph glyph-name="product" unicode="&#x220f;" horiz-adv-x="653" 
d="M641 516h-40v-516h-210v516h-130v-516h-210v516h-40v159h630v-159z" />
    <glyph glyph-name="summation" unicode="&#x2211;" 
d="M473 0h-434v144l174 202l-168 185v144h410v-157h-175l153 -166l-162 -192h202v-160z" />
    <glyph glyph-name="minus" unicode="&#x2212;" 
d="M470 233h-440v138h440v-138z" />
    <glyph glyph-name="uni2215" unicode="&#x2215;" horiz-adv-x="109" 
d="M-290 -44l577 778l98 -54l-577 -778z" />
    <glyph glyph-name="radical" unicode="&#x221a;" 
d="M328 675h183q-57 -367 -170 -675h-217l-85 382h-33v127h192l51 -291q55 226 79 457z" />
    <glyph glyph-name="infinity" unicode="&#x221e;" horiz-adv-x="1000" 
d="M982 303q0 -99 -65 -159t-183 -60q-115 0 -244 98q-135 -98 -243 -98q-120 0 -174.5 59t-54.5 148q0 99 65 159t183 60q115 0 244 -98q133 98 243 98q120 0 174.5 -59t54.5 -148zM256 239q37 0 105 53q-74 63 -105 63q-44 0 -44 -59q0 -57 44 -57zM788 298q0 57 -44 57
q-37 0 -105 -53q70 -63 105 -63q44 0 44 59z" />
    <glyph glyph-name="integral" unicode="&#x222b;" horiz-adv-x="400" 
d="M399 689l-23 -111q-25 5 -47 5q-18 0 -24.5 -9.5t-6.5 -33.5v-549q0 -89 -37 -134t-125 -45q-74 0 -139 35l23 111q25 -5 47 -5q18 0 24.5 9.5t6.5 33.5v549q0 89 37 134t125 45q74 0 139 -35z" />
    <glyph glyph-name="uni2236" unicode="&#x2236;" horiz-adv-x="331" 
d="M271 486q0 -53 -25.5 -75t-80.5 -22q-54 0 -79.5 22t-25.5 75q0 52 26 74.5t79 22.5q56 0 81 -22t25 -75zM271 152q0 -53 -25.5 -74.5t-80.5 -21.5q-54 0 -79.5 21.5t-25.5 74.5q0 52 26 74.5t79 22.5q56 0 81 -22t25 -75z" />
    <glyph glyph-name="approxequal" unicode="&#x2248;" 
d="M432 485l47 -110q-72 -63 -145 -63q-52 0 -104 25t-75 25q-36 0 -85 -44l-47 110q72 63 145 63q52 0 104 -25t75 -25q36 0 85 44zM432 286l47 -110q-72 -63 -145 -63q-52 0 -104 25t-75 25q-36 0 -85 -44l-47 110q72 63 145 63q52 0 104 -25t75 -25q36 0 85 44z" />
    <glyph glyph-name="notequal" unicode="&#x2260;" 
d="M471 151h-220l-76 -147l-127 63l44 84h-63v124h127l28 54h-155v124h220l76 147l127 -63l-44 -84h63v-124h-127l-28 -54h155v-124z" />
    <glyph glyph-name="lessequal" unicode="&#x2264;" 
d="M465 0h-430v130h430v-130zM467 285l-50 -137l-382 161v132l382 161l50 -133l-254 -92z" />
    <glyph glyph-name="greaterequal" unicode="&#x2265;" 
d="M465 0h-430v130h430v-130zM465 309l-382 -161l-50 133l254 92l-254 92l50 137l382 -161v-132z" />
    <glyph glyph-name="filledbox" unicode="&#x25a0;" horiz-adv-x="1100" 
d="M1032 -146h-964v968h964v-968z" />
    <glyph glyph-name="uni25A1" unicode="&#x25a1;" horiz-adv-x="1100" 
d="M1050 -165h-1000v1006h1000v-1006zM899 -37v750h-698v-750h698z" />
    <glyph glyph-name="uni25B2" unicode="&#x25b2;" horiz-adv-x="800" 
d="M400 747l318 -756h-636z" />
    <glyph glyph-name="uni25B3" unicode="&#x25b3;" horiz-adv-x="800" 
d="M737 -22h-674l337 801zM488 143l-88 210l-88 -210h176z" />
    <glyph glyph-name="uni25B6" unicode="&#x25b6;" horiz-adv-x="890" 
d="M854 338l-756 -318v636z" />
    <glyph glyph-name="uni25B7" unicode="&#x25b7;" horiz-adv-x="890" 
d="M886 338l-801 -337v674zM250 426v-176l210 88z" />
    <glyph glyph-name="uni25BC" unicode="&#x25bc;" horiz-adv-x="800" 
d="M718 685l-318 -756l-318 756h636z" />
    <glyph glyph-name="uni25BD" unicode="&#x25bd;" horiz-adv-x="800" 
d="M737 698l-337 -801l-337 801h674zM312 533l88 -210l88 210h-176z" />
    <glyph glyph-name="uni25C0" unicode="&#x25c0;" horiz-adv-x="890" 
d="M792 656v-636l-756 318z" />
    <glyph glyph-name="uni25C1" unicode="&#x25c1;" horiz-adv-x="890" 
d="M805 675v-674l-801 337zM430 338l210 -88v176z" />
    <glyph glyph-name="lozenge" unicode="&#x25ca;" 
d="M494 335l-173 -335h-139l-176 341l174 334h138zM321 322l-78 139l-61 -107l77 -140z" />
    <glyph glyph-name="circle" unicode="&#x25cb;" horiz-adv-x="1100" 
d="M1076 338q0 -252 -137.5 -386t-387.5 -134t-388.5 134t-138.5 386t138.5 386t388.5 134t387.5 -134t137.5 -386zM921 338q0 198 -92 295t-278 97q-372 0 -372 -392t372 -392q186 0 278 97t92 295z" />
    <glyph glyph-name="uni25CF" unicode="&#x25cf;" horiz-adv-x="1100" 
d="M52 338q0 241 130 371t366 130q234 0 364 -130.5t130 -370.5q0 -237 -130 -366.5t-364 -129.5q-236 0 -366 129t-130 367z" />
    <glyph glyph-name="uniE1C2" unicode="&#xe1c2;" horiz-adv-x="1100" 
d="M1045 338q0 -237 -130 -366.5t-364 -129.5q-236 0 -366 129t-130 367q0 241 130 371t366 130q234 0 364 -130.5t130 -370.5zM605 50h227l-136 324l124 256h-215l-88 -215h-1v215h-207v-580h207v229h1z" />
    <glyph glyph-name="uniE1C3" unicode="&#xe1c3;" horiz-adv-x="1100" 
d="M1045 338q0 -237 -130 -366.5t-364 -129.5q-236 0 -366 129t-130 367q0 241 130 371t366 130q234 0 364 -130.5t130 -370.5zM674 585q0 59 -25 81t-97 22q-69 0 -95 -23t-26 -80q0 -58 25 -80t96 -22q70 0 96 23t26 79zM361 50h382v133h-81v270h-295v-133h86v-137h-92
v-133z" />
    <glyph glyph-name="uniE1C4" unicode="&#xe1c4;" horiz-adv-x="1100" 
d="M822 50h-227l-88 229h-1v-229h-207v580h207v-215h1l88 215h215l-124 -256zM1076 338q0 -252 -137.5 -386t-387.5 -134t-388.5 134t-138.5 386t138.5 386t388.5 134t387.5 -134t137.5 -386zM921 338q0 198 -92 295t-278 97q-372 0 -372 -392t372 -392q186 0 278 97t92 295
z" />
    <glyph glyph-name="apple" unicode="&#xf8ff;" horiz-adv-x="1000" 
d="M711 137l-18 -5l35 -80l-34 -10l34 -77l-36 -10l10 -24l-32 -78h-65q-4 -23 -33 -38t-72 -15t-72.5 15t-32.5 38h-64l-60 143l34 9l-34 81l36 9l-19 47v82q-67 80 -67 181q0 116 81.5 196.5t197.5 80.5q115 0 197 -80.5t82 -196.5q0 -105 -68 -183v-85zM582 257h47
q67 60 67 148q0 82 -57.5 139t-138.5 57t-138.5 -57t-57.5 -139q0 -91 68 -148h46l-16 130q-18 -4 -41 -14q-11 -4 -16 15q-9 32 2 54q3 5 7 6q74 23 146 23q70 0 148 -23q13 -4 11 -41q-2 -35 -17 -34l-3 1q-21 8 -42 13zM626 -4l-12 28l-241 -62l23 -56h208l10 26l-4 8
l-69 -18l-18 49zM549 881l-18 -169q-31 3 -62 0l-18 169q23 3 48 3q27 0 50 -3zM625 175v17h-251v-45l14 -33zM951 358l-144 16q3 31 0 62l144 16q6 -47 0 -94zM193 374l-144 -16q-6 47 0 94l144 -16q-3 -31 0 -62zM852 691l-113 -91q-20 24 -44 44l91 113q38 -28 66 -66z
M261 600l-113 91q28 38 66 66l91 -113q-24 -20 -44 -44zM523 257l14 139q-15 2 -37 2q-23 0 -38 -2l15 -139h46zM625 85l-12 27l-241 -60l13 -28zM505 425v3q0 2 -3 1v-1q2 1 2 0q-2 0 -2 -2q0 -1 2 -1h1zM494 426v3h-1v-3h-1v3h-1v-3q1 -1 3 0zM498 425v1v2v1h-2
q-1 -3 2 -4zM508 428v1q-4 0 -2 -3v-1q5 0 2 3zM501 424q-1 3 0 7h-1q-1 -4 0 -7h1zM510 424q1 4 0 7h-1q1 -4 0 -7h1zM490 425v1h-1v4h-1v-5h2zM504 427l-1 -1z" />
    <glyph glyph-name="s_t" unicode="&#xfb06;" horiz-adv-x="775" 
d="M751 138l12 -113q-75 -39 -147 -39q-79 0 -112 29.5t-33 100.5v256h-41v137h41v6q0 60 -47 60q-20 0 -33 -14t-13 -36q0 -28 18 -46l-16 -102q-71 14 -110 14q-49 0 -49 -23q0 -14 21.5 -24t51.5 -20t60.5 -25.5t52 -50t21.5 -84.5q0 -78 -63 -128t-175 -50
q-86 0 -180 52l12 97q78 -12 130 -12q64 0 64 27q0 14 -21 24t-51 20t-60 25.5t-51 50t-21 84.5q0 77 58.5 123t154.5 46q15 0 39 -4q-29 17 -29 57q0 64 59.5 98.5t147.5 34.5q122 0 175.5 -46t53.5 -135v-19h78v-137h-78v-208q0 -31 25 -31q24 0 55 5z" />
    <glyph glyph-name="uniFEFF" unicode="&#xfeff;" horiz-adv-x="0" 
 />
    <glyph glyph-name="u1F137" unicode="&#x1f137;" horiz-adv-x="1100" 
d="M817 50h-207v217h-120v-217h-207v580h207v-197h120v197h207v-580zM1050 -165h-1000v1006h1000v-1006zM899 -37v750h-698v-750h698z" />
    <glyph glyph-name="u1F13F" unicode="&#x1f13f;" horiz-adv-x="1100" 
d="M526 50h-203v580q52 0 147.5 1t109.5 1q237 0 237 -191q0 -221 -275 -221h-16v-170zM526 492v-132h26q24 0 36.5 17.5t12.5 47.5q0 34 -11 50.5t-43 16.5h-21zM1050 -165h-1000v1006h1000v-1006zM899 -37v750h-698v-750h698z" />
    <glyph glyph-name="u1F177" unicode="&#x1f177;" horiz-adv-x="1100" 
d="M1032 -146h-964v968h964v-968zM610 50h207v580h-207v-197h-120v197h-207v-580h207v217h120v-217z" />
    <glyph glyph-name="u1F17F" unicode="&#x1f17f;" horiz-adv-x="1100" 
d="M1032 -146h-964v968h964v-968zM323 50h203v170h16q275 0 275 221q0 191 -237 191q-14 0 -109.5 -1t-147.5 -1v-580zM526 360v132h21q32 0 43 -16.5t11 -50.5q0 -30 -12.5 -47.5t-36.5 -17.5h-26z" />
    <glyph glyph-name="U1F6C8" unicode="&#x1f6c8;" horiz-adv-x="1100" 
d="M1076 338q0 -252 -137.5 -386t-387.5 -134t-388.5 134t-138.5 386t138.5 386t388.5 134t387.5 -134t137.5 -386zM921 338q0 198 -92 295t-278 97q-372 0 -372 -392t372 -392q186 0 278 97t92 295zM678 585q0 -56 -26 -79t-96 -23q-71 0 -96 22t-25 80q0 57 26 80t95 23
q72 0 97 -22t25 -81zM747 50h-382v133h92v137h-86v133h295v-270h81v-133z" />
    <glyph glyph-name="L_a_t_n_C_a_p_s" horiz-adv-x="1004" 
d="M231 500h-180v337h105v-257h75v-80zM491 500h-77l-6 21q-31 -29 -74 -29q-86 0 -86 78q0 43 35 67.5t100 24.5h9v9q0 20 -33 20q-38 0 -85 -15l-11 59q60 26 119 26q51 0 80 -21.5t29 -60.5v-179zM392 573v31h-12q-36 0 -36 -23q0 -20 20 -20q14 0 28 12zM673 569l6 -57
q-37 -19 -74 -19q-39 0 -55.5 14.5t-16.5 50.5v128h-21v68h25q11 30 22 76h74v-76h39v-68h-39v-104q0 -16 12 -16q9 0 28 3zM944 500h-101q0 34 1 78.5t1 50.5q0 37 -3 45t-13 8q-9 0 -25 -8v-174h-100v254h81l7 -22q30 30 72 30q44 0 63 -28.5t19 -90.5q0 -9 -1 -58t-1 -85
zM205 101l42 -54q-17 -26 -46.5 -40.5t-60.5 -14.5q-73 0 -106.5 41t-33.5 128q0 91 36.5 137.5t102.5 46.5q70 0 102 -55l-46 -48q-20 20 -40 20q-46 0 -46 -89q0 -56 12 -76.5t36 -20.5q25 0 48 25zM494 0h-77l-6 21q-31 -29 -74 -29q-86 0 -86 78q0 43 35 67.5t100 24.5
h9v9q0 20 -33 20q-38 0 -85 -15l-11 59q60 26 119 26q51 0 80 -21.5t29 -60.5v-179zM395 73v31h-12q-36 0 -36 -23q0 -20 20 -20q14 0 28 12zM631 -87h-100v341h82l6 -22q32 30 67 30q50 0 72.5 -35t22.5 -89q0 -74 -35 -110t-96 -36q-5 0 -11.5 0.5t-7.5 0.5v-80zM631 176
v-111q6 -3 17 -3q32 0 32 65q0 59 -24 59q-10 0 -25 -10zM795 19l6 48q40 -6 65 -6q32 0 32 14q0 8 -16 14.5t-35 12.5t-35 25t-16 50q0 39 29.5 61.5t77.5 22.5q41 0 85 -24l-8 -49q-33 7 -55 7q-24 0 -24 -11q0 -8 16 -14.5t35.5 -12.5t35.5 -25t16 -50q0 -39 -31.5 -64
t-87.5 -25q-44 0 -90 26z" />
    <glyph glyph-name="IJ.alt1" horiz-adv-x="616" 
d="M259 0h-210v675h210v-675zM569 675v-435q0 -173 -130 -251l-130 82q32 34 41 63.5t9 93.5v447h210z" />
    <glyph glyph-name="IJ.alt2" horiz-adv-x="618" 
d="M259 0h-210v675h210v-675zM569 675v-577q0 -129 -70 -202t-226 -84l-32 125q67 21 92.5 59.5t25.5 107.5v571h210z" />
    <glyph glyph-name="J.alt1" horiz-adv-x="310" 
d="M261 675v-435q0 -173 -130 -251l-130 82q32 34 41 63.5t9 93.5v447h210z" />
    <glyph glyph-name="J.alt2" horiz-adv-x="310" 
d="M261 675v-577q0 -129 -70 -202t-226 -84l-32 125q67 21 92.5 59.5t25.5 107.5v571h210z" />
    <glyph glyph-name="Jcircumflex.alt2" horiz-adv-x="310" 
d="M261 675v-577q0 -129 -70 -202t-226 -84l-32 125q67 21 92.5 59.5t25.5 107.5v571h210zM158 865l164 -81l-49 -78l-117 39l-117 -39l-47 75z" />
    <glyph glyph-name="Jcircumflex.alt1" horiz-adv-x="310" 
d="M261 675v-435q0 -173 -130 -251l-130 82q32 34 41 63.5t9 93.5v447h210zM157 865l164 -81l-49 -78l-117 39l-117 -39l-47 75z" />
    <glyph glyph-name="L_a_t_n_L_o_w_e_r" horiz-adv-x="1320" 
d="M762 254h95q-8 -110 -52 -254h-124l-17 104l-7 46h-1l-5 -46l-15 -104h-124l-54 254h107l14 -110l5 -41h1l5 42l15 109h119l19 -111l6 -39q16 107 13 150zM453 132q0 -70 -35.5 -105t-100.5 -35q-64 0 -95.5 30t-31.5 100t35 105t101 35q64 0 95.5 -30t31.5 -100z
M650 500h-77l-6 21q-31 -29 -74 -29q-86 0 -86 78q0 43 35 67.5t100 24.5h9v9q0 20 -33 20q-38 0 -85 -15l-11 59q60 26 119 26q51 0 80 -21.5t29 -60.5v-179zM1103 500h-101q0 34 1 78.5t1 50.5q0 37 -3 45t-13 8q-9 0 -25 -8v-174h-100v254h81l7 -22q30 30 72 30
q44 0 63 -28.5t19 -90.5q0 -9 -1 -58t-1 -85zM1114 103h-145v-1q0 -35 38 -35t93 13l12 -55q-63 -33 -123 -33q-122 0 -122 129q0 69 35 105t96 36q60 0 91 -35.5t25 -123.5zM390 500h-180v337h105v-257h75v-80zM179 0h-179v337h105v-257h74v-80zM832 569l6 -57
q-37 -19 -74 -19q-39 0 -55.5 14.5t-16.5 50.5v128h-21v68h25q11 30 22 76h74v-76h39v-68h-39v-104q0 -16 12 -16q8 0 28 3zM1320 255l-12 -85q-17 4 -27 4q-14 0 -36 -28v-146h-100v254h81l8 -32q26 39 56 39q15 0 30 -6zM351 121q0 43 -7.5 56t-22.5 13q-29 0 -29 -57
q0 -30 4.5 -46t10 -19.5t14.5 -3.5q30 0 30 57zM551 573v31h-12q-36 0 -36 -23q0 -20 20 -20q14 0 28 12zM969 162h50v1q0 34 -24 34q-23 0 -26 -35z" />
    <glyph glyph-name="c_h" horiz-adv-x="953" 
d="M915 0h-201q0 64 2 153t2 106q0 51 -3.5 74t-9 27.5t-19.5 4.5q-19 0 -51 -16v-349h-200v584q-9 3 -21 3q-46 0 -46 -52q0 -32 27 -61l-56 -112q-22 16 -56 16q-58 0 -58 -118q0 -73 13 -99.5t41 -26.5q42 0 78 24l43 -108q-69 -63 -165 -63q-111 0 -164 64.5t-53 196.5
q0 113 59 193.5t167 80.5l7 -1q-26 13 -26 55q0 68 67 108t185 40q36 0 75.5 -4t61.5 -8l21 -3v-228q50 43 121 43q86 0 124.5 -56t38.5 -181q0 -22 -2 -120t-2 -167z" />
    <glyph glyph-name="c_k" horiz-adv-x="935" 
d="M935 0h-229l-64 229h-7v-229h-200v584q-9 3 -21 3q-46 0 -46 -52q0 -32 27 -61l-56 -112q-22 16 -56 16q-58 0 -58 -118q0 -73 13 -99.5t41 -26.5q42 0 78 24l43 -108q-69 -63 -165 -63q-111 0 -164 64.5t-53 196.5q0 113 59 193.5t167 80.5l7 -1q-26 13 -26 55
q0 68 67 108t185 40q36 0 75.5 -4t61.5 -8l21 -3v-397h7l62 197h224l-105 -218z" />
    <glyph glyph-name="c_t" horiz-adv-x="759" 
d="M733 372h-78v-208q0 -31 25 -31q24 0 55 5l12 -113q-75 -39 -147 -39q-79 0 -112 29.5t-33 100.5v256h-41v137h41v6q0 60 -44 60q-43 0 -43 -45q0 -28 24 -54l-51 -115q-31 17 -58 17q-58 0 -58 -118q0 -73 13 -99.5t42 -26.5q38 0 83 28l55 -103q-74 -72 -183 -72
q-111 0 -164 64.5t-53 196.5q0 115 59 194.5t167 79.5l7 -1q-26 13 -26 55q0 64 59 98.5t151 34.5q119 0 169.5 -42t50.5 -139v-19h78v-137z" />
    <glyph glyph-name="ccedilla_t" horiz-adv-x="759" 
d="M733 372h-78v-208q0 -31 25 -31q24 0 55 5l12 -113q-75 -39 -147 -39q-79 0 -112 29.5t-33 100.5v256h-41v137h41v6q0 60 -44 60q-43 0 -43 -45q0 -28 24 -54l-51 -115q-31 17 -58 17q-58 0 -58 -118q0 -73 13 -99.5t42 -26.5q38 0 83 28l55 -103q-74 -72 -183 -72
q-111 0 -164 64.5t-53 196.5q0 115 59 194.5t167 79.5l7 -1q-26 13 -26 55q0 64 59 98.5t151 34.5q119 0 169.5 -42t50.5 -139v-19h78v-137zM145 -41h167q20 -90 -97 -148l-117 36q40 35 50 61t-3 51z" />
    <glyph glyph-name="i.dotaccent" horiz-adv-x="276" 
d="M254 626q0 -54 -25 -76t-91 -22q-68 0 -92 21t-24 77q0 54 25 76t91 22q68 0 92 -21t24 -77zM238 0h-200v509h200v-509z" />
    <glyph glyph-name="ij.alt1" horiz-adv-x="556" 
d="M518 509v-485q0 -115 -69 -163.5t-178 -48.5q-90 0 -210 56l13 107q114 -18 173 -18q39 0 55 10t16 35v7q0 19 5 31q-49 -43 -126 -43q-88 0 -125.5 55t-37.5 176q0 18 2 114t2 167h201q0 -68 -2 -156t-2 -100q0 -50 3.5 -73t9 -27.5t19.5 -4.5q19 0 51 16v345h200z
M257 626q0 -54 -25 -76t-91 -22q-68 0 -92 21t-24 77q0 54 25 76t91 22q68 0 92 -21t24 -77zM531 626q0 -54 -25 -76t-91 -22q-68 0 -92 21t-24 77q0 54 25 76t91 22q68 0 92 -21t24 -77z" />
    <glyph glyph-name="i_j" horiz-adv-x="556" 
d="M518 509v-485q0 -115 -69 -163.5t-178 -48.5q-90 0 -210 56l13 107q114 -18 173 -18q39 0 55 10t16 35v7q0 19 5 31q-49 -43 -126 -43q-88 0 -125.5 55t-37.5 176q0 18 2 114t2 167h201q0 -68 -2 -156t-2 -100q0 -50 3.5 -73t9 -27.5t19.5 -4.5q19 0 51 16v345h200z
M257 626q0 -54 -25 -76t-91 -22q-68 0 -92 21t-24 77q0 54 25 76t91 22q68 0 92 -21t24 -77zM531 626q0 -54 -25 -76t-91 -22q-68 0 -92 21t-24 77q0 54 25 76t91 22q68 0 92 -21t24 -77z" />
    <glyph glyph-name="scedilla_t" horiz-adv-x="775" 
d="M751 138l12 -113q-75 -39 -147 -39q-79 0 -112 29.5t-33 100.5v256h-41v137h41v6q0 60 -47 60q-20 0 -33 -14t-13 -36q0 -28 18 -46l-16 -102q-71 14 -110 14q-49 0 -49 -23q0 -14 21.5 -24t51.5 -20t60.5 -25.5t52 -50t21.5 -84.5q0 -78 -63 -128t-175 -50
q-86 0 -180 52l12 97q78 -12 130 -12q64 0 64 27q0 14 -21 24t-51 20t-60 25.5t-51 50t-21 84.5q0 77 58.5 123t154.5 46q15 0 39 -4q-29 17 -29 57q0 64 59.5 98.5t147.5 34.5q122 0 175.5 -46t53.5 -135v-19h78v-137h-78v-208q0 -31 25 -31q24 0 55 5zM116 -41h167
q20 -90 -97 -148l-117 36q40 35 50 61t-3 51z" />
    <glyph glyph-name="scommaaccent_t" horiz-adv-x="775" 
d="M751 138l12 -113q-75 -39 -147 -39q-79 0 -112 29.5t-33 100.5v256h-41v137h41v6q0 60 -47 60q-20 0 -33 -14t-13 -36q0 -28 18 -46l-16 -102q-71 14 -110 14q-49 0 -49 -23q0 -14 21.5 -24t51.5 -20t60.5 -25.5t52 -50t21.5 -84.5q0 -78 -63 -128t-175 -50
q-86 0 -180 52l12 97q78 -12 130 -12q64 0 64 27q0 14 -21 24t-51 20t-60 25.5t-51 50t-21 84.5q0 77 58.5 123t154.5 46q15 0 39 -4q-29 17 -29 57q0 64 59.5 98.5t147.5 34.5q122 0 175.5 -46t53.5 -135v-19h78v-137h-78v-208q0 -31 25 -31q24 0 55 5zM217 -28
q34 0 54 -19t20 -50q0 -52 -49 -75t-145 -13l-18 59q65 2 65 26q0 2 -1.5 8t-1.5 13q0 21 20.5 36t55.5 15z" />
    <glyph glyph-name="grave.cap" horiz-adv-x="318" 
d="M302 787l-60 -81l-226 49l87 110z" />
    <glyph glyph-name="acute.cap" horiz-adv-x="318" 
d="M16 787l199 78l87 -110l-226 -49z" />
    <glyph glyph-name="circumflex.cap" horiz-adv-x="362" 
d="M182 865l164 -81l-49 -78l-117 39l-117 -39l-47 75z" />
    <glyph glyph-name="caron.cap" horiz-adv-x="362" 
d="M180 706l-164 81l49 78l117 -39l117 39l47 -75z" />
    <glyph glyph-name="uni0315.cap" horiz-adv-x="194" 
d="M178 745l-67 -202l-95 15l31 212z" />
    <glyph glyph-name="tilde.cap" horiz-adv-x="404" 
d="M311 865l77 -52q-45 -104 -141 -104q-40 0 -71.5 19.5t-38.5 19.5q-12 0 -20.5 -8t-23.5 -31l-77 52q45 104 141 104q30 0 52 -10t35.5 -20t22.5 -10q12 0 20.5 8.5t23.5 31.5z" />
    <glyph glyph-name="dieresis.cap" horiz-adv-x="424" 
d="M408 787q0 -41 -20.5 -59.5t-67.5 -18.5q-48 0 -68.5 17.5t-20.5 60.5q0 41 20.5 59.5t68.5 18.5t68 -17.5t20 -60.5zM193 787q0 -41 -20.5 -59.5t-67.5 -18.5q-48 0 -68.5 17.5t-20.5 60.5q0 41 20.5 59.5t68.5 18.5t68 -17.5t20 -60.5z" />
    <glyph glyph-name="dieresis.cap.narrow" horiz-adv-x="378" 
d="M362 787q0 -41 -19 -59.5t-62 -18.5q-44 0 -63 17.5t-19 60.5q0 41 19 59.5t63 18.5t62.5 -17.5t18.5 -60.5zM179 787q0 -41 -19 -59.5t-62 -18.5q-44 0 -63 17.5t-19 60.5q0 41 19 59.5t63 18.5t62.5 -17.5t18.5 -60.5z" />
    <glyph glyph-name="dieresis.narrow" horiz-adv-x="395" 
d="M379 628q0 -44 -19.5 -63.5t-66.5 -19.5q-48 0 -67 18.5t-19 64.5q0 45 19.5 64.5t66.5 19.5q48 0 67 -18.5t19 -65.5zM188 628q0 -44 -19.5 -63.5t-66.5 -19.5q-48 0 -67 18.5t-19 64.5q0 45 19.5 64.5t66.5 19.5q48 0 67 -18.5t19 -65.5z" />
    <glyph glyph-name="macron.cap" horiz-adv-x="338" 
d="M322 728h-306v125h306v-125z" />
    <glyph glyph-name="breve.cap" horiz-adv-x="359" 
d="M227 875h116q0 -84 -43.5 -128t-121.5 -44q-162 0 -162 172h116q0 -52 47 -52q48 0 48 52z" />
    <glyph glyph-name="ring.cap" horiz-adv-x="310" 
d="M294 778q0 -42 -37.5 -66t-103.5 -24q-137 0 -137 87q0 42 37.5 66t103.5 24q137 0 137 -87zM188 776q0 29 -32 29q-34 0 -34 -29q0 -28 34 -28q32 0 32 28z" />
    <glyph glyph-name="ring.big" horiz-adv-x="296" 
d="M296 759q0 -57 -38.5 -88.5t-107.5 -31.5q-71 0 -109.5 30t-39.5 89q0 53 41 85t107 32q147 0 147 -116zM184 757q0 38 -35 38t-35 -38t35 -38t35 38z" />
    <glyph glyph-name="ringacute.cap" horiz-adv-x="292" 
d="M276 743q0 -29 -35.5 -45.5t-96.5 -16.5q-128 0 -128 57q0 29 35.5 45.5t96.5 16.5q128 0 128 -57zM174 741q0 20 -28 20t-28 -21q0 -20 28 -20t28 21zM57 847l183 38l36 -56l-198 -23z" />
    <glyph glyph-name="ringacute" horiz-adv-x="335" 
d="M277 633q0 -41 -35.5 -65t-96.5 -24q-129 0 -129 87q0 41 35.5 65t96.5 24q129 0 129 -87zM177 632q0 28 -31 28q-30 0 -30 -28t30 -28q31 0 31 28zM79 770l107 115l133 -53l-143 -98z" />
    <glyph glyph-name="hungarumlaut.cap" horiz-adv-x="583" 
d="M567 796l-224 -97l-85 60l194 116zM291 806l-186 -107l-89 47l153 129z" />
    <glyph glyph-name="dotaccent.cap" horiz-adv-x="254" 
d="M232 792q0 -45 -23.5 -63.5t-82.5 -18.5q-61 0 -82.5 17t-21.5 65q0 45 23 63.5t82 18.5q61 0 83 -17.5t22 -64.5z" />
    <glyph glyph-name="dotaccent.i" horiz-adv-x="264" 
d="M248 626q0 -54 -25 -76t-91 -22q-68 0 -92 21t-24 77q0 54 25 76t91 22q68 0 92 -21t24 -77z" />
    <glyph glyph-name="dotaccent.asc" horiz-adv-x="249" 
d="M233 803q0 -45 -24 -63t-86 -18q-63 0 -85 16.5t-22 64.5q0 46 23.5 64t84.5 18q63 0 86 -17.5t23 -64.5z" />
    <glyph glyph-name="exclamdown.cap" horiz-adv-x="348" 
d="M75 457h181l32 -457h-243zM48 588q0 55 25 76.5t92 21.5q66 0 90.5 -21.5t24.5 -76.5q0 -54 -24.5 -75.5t-90.5 -21.5q-68 0 -92.5 21t-24.5 76z" />
    <glyph glyph-name="questiondown.cap" 
d="M30 168q0 43 14 74.5t34 50t40.5 34.5t35.5 37.5t17 48.5l3 44h179l3 -34q4 -49 -4.5 -82t-23.5 -49t-31 -28.5t-28 -30t-12 -43.5q0 -43 55 -43q44 0 98 24l59 -119q-101 -65 -224 -65q-105 0 -160 45.5t-55 135.5zM148 588q0 55 24.5 76.5t92.5 21.5q65 0 90 -21.5
t25 -76.5q0 -53 -25.5 -75t-91.5 -22q-68 0 -91.5 21t-23.5 76z" />
    <glyph glyph-name="guilsinglleft.cap" horiz-adv-x="313" 
d="M294 159l-137 -41l-145 221l146 221l136 -43l-94 -178z" />
    <glyph glyph-name="guilsinglright.cap" horiz-adv-x="313" 
d="M19 519l137 41l145 -221l-146 -221l-136 43l94 178z" />
    <glyph glyph-name="guillemotleft.cap" horiz-adv-x="514" 
d="M290 159l-133 -41l-145 221l146 221l132 -43l-94 -178zM490 174l-129 -39l-130 204l131 204l128 -40l-77 -164z" />
    <glyph glyph-name="guillemotright.cap" horiz-adv-x="514" 
d="M224 519l133 41l145 -221l-146 -221l-132 43l94 178zM24 504l129 39l130 -204l-131 -204l-128 40l77 164z" />
    <glyph glyph-name="bar.cap" horiz-adv-x="256" 
d="M214 -123h-171v926h171v-926z" />
    <glyph glyph-name="brokenbar.cap" horiz-adv-x="256" 
d="M214 255v-378h-171v378h171zM43 409v397h171v-397h-171z" />
    <glyph glyph-name="hyphen.cap" horiz-adv-x="242" 
d="M241 257h-224v144h224v-144z" />
    <glyph glyph-name="endash.cap" 
d="M457 273h-413v138h413v-138z" />
    <glyph glyph-name="emdash.cap" horiz-adv-x="1000" 
d="M901 273h-801v138h801v-138z" />
    <glyph glyph-name="uni2015.cap" horiz-adv-x="1000" 
d="M901 273h-801v138h801v-138z" />
    <glyph glyph-name="periodcentered.cap" horiz-adv-x="293" 
d="M254 351q0 -63 -21 -84.5t-85 -21.5q-66 0 -87 21.5t-21 84.5q0 64 21 86t87 22q64 0 85 -22t21 -86z" />
    <glyph glyph-name="parenleft.cap" horiz-adv-x="310" 
d="M301 -87l-135 -39q-142 210 -142 450q0 243 142 456l135 -41q-102 -169 -102 -412q0 -238 102 -414z" />
    <glyph glyph-name="parenright.cap" horiz-adv-x="310" 
d="M144 -126l-135 41q102 169 102 412q0 238 -102 414l135 39q142 -210 142 -450q0 -243 -142 -456z" />
    <glyph glyph-name="bracketleft.cap" horiz-adv-x="370" 
d="M318 -123h-250v912h250v-114h-84v-684h84v-114z" />
    <glyph glyph-name="bracketright.cap" horiz-adv-x="370" 
d="M302 -123h-250v114h84v684h-84v114h250v-912z" />
    <glyph glyph-name="braceleft.cap" horiz-adv-x="388" 
d="M334 -123h-76q-82 0 -122 40.5t-40 114.5v197q0 23 -6.5 31t-24.5 8h-36v140h36q17 0 24 8.5t7 30.5v188q0 154 163 154h75v-114h-38q-20 0 -27 -9.5t-7 -34.5v-177q0 -81 -64 -116q64 -35 64 -117v-186q0 -27 6.5 -35.5t27.5 -8.5h38v-114z" />
    <glyph glyph-name="braceright.cap" horiz-adv-x="388" 
d="M359 268h-36q-17 0 -24 -8.5t-7 -30.5v-198q0 -154 -163 -154h-75v114h38q20 0 27 9.5t7 34.5v187q0 81 64 116q-64 35 -64 117v176q0 27 -6.5 35.5t-27.5 8.5h-38v114h76q82 0 122 -40.5t40 -114.5v-187q0 -23 6.5 -31t24.5 -8h36v-140z" />
    <glyph glyph-name="at.cap" horiz-adv-x="1042" 
d="M765 48l31 -110q-143 -66 -314 -66q-213 0 -334 105.5t-121 314.5q0 225 154.5 358.5t413.5 133.5q215 0 316.5 -86t101.5 -232q0 -161 -95.5 -257.5t-255.5 -96.5h-87l-14 61q-67 -71 -138 -71q-74 0 -110.5 52.5t-36.5 143.5q0 145 82 213.5t214 68.5q109 0 191 -31
l-34 -295q43 0 75.5 49t32.5 135q0 51 -11.5 88t-39.5 67.5t-81.5 46t-131.5 15.5q-185 0 -277.5 -92t-92.5 -247q0 -172 73.5 -243t234.5 -71q126 0 254 46zM544 294l18 142q-7 1 -18 1q-27 0 -47 -25t-20 -87q0 -40 4.5 -54t14.5 -14q23 0 48 37z" />
    <glyph glyph-name="Euro.fitted" horiz-adv-x="533" 
d="M275 485h92v-122h-109q-1 -10 -1 -19q0 -16 1 -29h109v-122h-92q5 -24 27 -39t51 -15q49 0 81 32l75 -99q-70 -87 -188 -87q-109 0 -176.5 53t-85.5 155h-59v122h47q-1 12 -1 24q0 13 1 24h-47v122h67q22 94 93.5 149.5t164.5 55.5q54 0 101 -23.5t75 -68.5l-78 -89
q-30 30 -80 30q-53 0 -68 -54z" />
    <glyph glyph-name="dollar.slashed.oldstyle" horiz-adv-x="634" 
d="M200 11q-102 14 -190 68l49 105q50 -26 161 -40l17 107q-45 7 -78 18t-66.5 32t-51.5 58t-18 88q0 88 71 144t205 60l26 100h106l-5 -110v-1q77 -15 148 -54l-38 -101q-62 21 -130 28l-16 -103q47 -7 81.5 -17.5t69.5 -31t54 -57.5t19 -89q0 -90 -70 -146t-216 -63
l-28 -115h-106zM418 190q0 30 -55 43l-14 -89q69 10 69 46zM215 472q0 -30 49 -43l13 85q-62 -8 -62 -42z" />
    <glyph glyph-name="cent.fitted" horiz-adv-x="472" 
d="M403 269l54 -103q-53 -39 -108 -54l-14 -120h-117l-13 109q-90 13 -138 67t-48 164q0 92 50.5 155t134.5 85l14 109h117l13 -109q55 -15 99 -51l-65 -101q-38 23 -72 23q-14 0 -26.5 -3.5t-27 -12t-23 -29t-8.5 -49.5q0 -38 7.5 -63t21.5 -34.5t24.5 -12.5t24.5 -3
q53 0 100 33z" />
    <glyph glyph-name="cent.slashed.oldstyle" horiz-adv-x="522" 
d="M454 264l47 -103q-67 -46 -159 -61l-25 -100h-106l5 102q-96 15 -146.5 70t-50.5 160q0 110 75.5 177t195.5 72l24 94h106l-5 -110q44 -15 84 -44l-50 -103q-28 11 -54 17l-31 -197q47 5 90 26zM207 341q0 -57 32 -82l27 174q-59 -22 -59 -92z" />
    <glyph glyph-name="sterling.fitted" horiz-adv-x="462" 
d="M435 0h-412v127q63 70 62 150h-72v127h51q-13 37 -13 84q0 197 207 197q98 0 165 -45l-24 -106q-39 6 -73 6q-42 0 -54 -11.5t-12 -48.5q0 -34 13 -76h98v-127h-82q1 -83 -29 -121h175v-156z" />
    <glyph glyph-name="florin.fitted" horiz-adv-x="465" 
d="M451 646l-23 -107q-28 8 -57 8q-23 0 -32.5 -12t-11.5 -43l-6 -91h94v-129h-103l-14 -200q-13 -184 -173 -184q-71 0 -139 38l22 107q24 -8 51 -8q21 0 29.5 12t10.5 43l13 192h-89v129h98l7 99q13 184 179 184q75 0 144 -38z" />
    <glyph glyph-name="yen.fitted" horiz-adv-x="480" 
d="M450 232h-112v-52h112v-123h-112v-57h-196v57h-112v123h112v52h-112v123h112v6q-87 143 -146 314h214q16 -97 42 -160q21 45 41 160h194q-66 -192 -149 -314v-6h112v-123z" />
    <glyph glyph-name="H_a_n_g_T_a_b_P_r_o_p" horiz-adv-x="1776" 
d="M580 500h-105v131h-70v-131h-105v337h105v-119h70v119h105v-337zM853 500h-76l-6 21q-32 -29 -74 -29q-87 0 -87 78q0 43 35 67.5t100 24.5h9v9q0 20 -33 20q-37 0 -84 -15l-12 59q60 26 120 26q51 0 79.5 -21.5t28.5 -60.5v-179zM754 573v31h-12q-35 0 -35 -23
q0 -20 20 -20q15 0 27 12zM1131 500h-101q0 34 1 78.5t1 50.5q0 37 -3 45t-13 8q-9 0 -25 -8v-174h-100v254h81l7 -22q30 30 72 30q44 0 63 -28.5t19 -90.5q0 -9 -1 -58t-1 -85zM1409 748v-236q0 -106 -124 -106q-45 0 -105 28l7 53q63 -9 86 -9q36 0 36 23v19
q-28 -20 -55 -20q-48 0 -71.5 34.5t-23.5 85.5q0 142 144 142q48 0 106 -14zM1309 584v105q-6 3 -17 3q-32 0 -32 -62q0 -56 24 -56q12 0 25 10zM221 258h-58v-258h-105v258h-58v79h221v-79zM449 0h-76l-6 21q-32 -29 -74 -29q-87 0 -87 78q0 43 35 67.5t100 24.5h9v9
q0 20 -33 20q-37 0 -84 -15l-12 59q60 26 120 26q51 0 79.5 -21.5t28.5 -60.5v-179zM350 73v31h-12q-35 0 -35 -23q0 -20 20 -20q15 0 27 12zM487 6v348h100v-113q25 21 54 21q50 0 73 -35.5t23 -88.5q0 -146 -145 -146q-47 0 -105 14zM587 176v-111q5 -3 17 -3q31 0 31 65
q0 59 -23 59q-10 0 -25 -10zM879 0h-105v337q23 0 67.5 0.5t62.5 0.5q130 0 130 -112q0 -128 -149 -128h-6v-98zM879 263v-90h9q36 0 36 45t-36 45h-9zM1232 255l-12 -85q-17 4 -26 4q-15 0 -37 -28v-146h-100v254h82l7 -32q26 39 56 39q15 0 30 -6zM1498 132
q0 -70 -35 -105t-101 -35q-64 0 -95.5 30t-31.5 100t35.5 105t100.5 35q64 0 95.5 -30t31.5 -100zM1396 121q0 30 -4.5 46t-10 19.5t-14.5 3.5q-30 0 -30 -57q0 -43 7.5 -56t22.5 -13q29 0 29 57zM1626 -87h-100v341h82l6 -22q32 30 67 30q50 0 72.5 -35t22.5 -89
q0 -74 -35 -110t-96 -36q-5 0 -11.5 0.5t-7.5 0.5v-80zM1626 176v-111q6 -3 17 -3q32 0 32 65q0 59 -24 59q-10 0 -25 -10z" />
    <glyph glyph-name="H_a_n_g_P_r_o_p" horiz-adv-x="1109" 
d="M280 500h-105v131h-70v-131h-105v337h105v-119h70v119h105v-337zM553 500h-76l-6 21q-32 -29 -74 -29q-87 0 -87 78q0 43 35 67.5t100 24.5h9v9q0 20 -33 20q-37 0 -84 -15l-12 59q60 26 120 26q51 0 79.5 -21.5t28.5 -60.5v-179zM454 573v31h-12q-35 0 -35 -23
q0 -20 20 -20q15 0 27 12zM831 500h-101q0 34 1 78.5t1 50.5q0 37 -3 45t-13 8q-9 0 -25 -8v-174h-100v254h81l7 -22q30 30 72 30q44 0 63 -28.5t19 -90.5q0 -9 -1 -58t-1 -85zM1109 748v-236q0 -106 -124 -106q-45 0 -105 28l7 53q63 -9 86 -9q36 0 36 23v19
q-28 -20 -55 -20q-48 0 -71.5 34.5t-23.5 85.5q0 142 144 142q48 0 106 -14zM1009 584v105q-6 3 -17 3q-32 0 -32 -62q0 -56 24 -56q12 0 25 10zM154 0h-105v337q23 0 67.5 0.5t62.5 0.5q130 0 130 -112q0 -128 -149 -128h-6v-98zM154 263v-90h9q36 0 36 45t-36 45h-9z
M507 255l-12 -85q-17 4 -26 4q-15 0 -37 -28v-146h-100v254h82l7 -32q26 39 56 39q15 0 30 -6zM773 132q0 -70 -35.5 -105t-100.5 -35q-64 0 -95.5 30t-31.5 100t35 105t101 35q64 0 95.5 -30t31.5 -100zM671 121q0 30 -4.5 46t-10 19.5t-14.5 3.5q-30 0 -30 -57
q0 -43 7.5 -56t22.5 -13q29 0 29 57zM901 -87h-100v341h82l6 -22q32 30 67 30q50 0 72.5 -35t22.5 -89q0 -74 -35 -110t-96 -36q-5 0 -11.5 0.5t-7.5 0.5v-80zM901 176v-111q6 -3 17 -3q32 0 32 65q0 59 -24 59q-10 0 -25 -10z" />
    <glyph glyph-name="zero.oldstyle" horiz-adv-x="572" 
d="M552 300q0 -315 -273 -315q-138 0 -198.5 69t-60.5 228q0 313 273 313q137 0 198 -66.5t61 -228.5zM346 294q0 91 -15.5 123t-43.5 32q-19 0 -30.5 -8.5t-21 -44.5t-9.5 -103q0 -66 8 -102t20 -46t31 -10q17 0 29 9.5t22 47t10 102.5z" />
    <glyph glyph-name="one.oldstyle" horiz-adv-x="356" 
d="M307 0h-209v386l-54 -24l-49 129l156 89h156v-580z" />
    <glyph glyph-name="two.oldstyle" horiz-adv-x="456" 
d="M435 0h-425v156q121 94 157 139t36 84q0 27 -12 39.5t-46 12.5q-48 0 -111 -19l-22 133q105 49 205 49q208 0 208 -185q0 -65 -39.5 -122t-125.5 -118h175v-169z" />
    <glyph glyph-name="three.oldstyle" horiz-adv-x="441" 
d="M-7 -67l11 115q45 -9 109 -9q52 0 73.5 19t21.5 55q0 31 -16.5 46t-56.5 15h-71v151h69q67 0 67 59q0 51 -62 51q-53 0 -105 -18l-24 132q90 45 186 45q108 0 161.5 -46t53.5 -128q0 -113 -91 -158q108 -33 108 -153q0 -102 -72.5 -163t-176.5 -61q-116 0 -185 48z" />
    <glyph glyph-name="four.oldstyle" horiz-adv-x="507" 
d="M160 580h293v-382h47v-164h-47v-138h-199v138h-247v156q63 209 153 390zM254 198v224h-3q-42 -98 -76 -224h79z" />
    <glyph glyph-name="five.oldstyle" horiz-adv-x="459" 
d="M400 411h-183l-5 -90q17 3 41 3q96 0 142 -46t46 -146q0 -110 -73.5 -178.5t-189.5 -68.5q-94 0 -163 48l11 115q45 -9 98 -9q112 0 112 72q0 56 -90 56q-60 0 -115 -14l23 427h346v-169z" />
    <glyph glyph-name="six.oldstyle" horiz-adv-x="517" 
d="M468 635l-17 -109q-82 15 -129 15q-58 0 -80 -29t-27 -106q63 35 116 35q86 0 129.5 -47t43.5 -131q0 -131 -62 -203.5t-179 -72.5q-42 0 -73.5 6.5t-64.5 28t-54.5 58.5t-35 101.5t-13.5 152.5q0 183 70 269t189 86q97 0 187 -54zM221 279v-6q0 -142 52 -142
q40 0 40 107q0 30 -8 40t-28 10q-25 0 -56 -9z" />
    <glyph glyph-name="seven.oldstyle" horiz-adv-x="426" 
d="M419 422l-97 -230q-81 -190 -168 -306l-136 44l178 481h-189v169h412v-158z" />
    <glyph glyph-name="eight.oldstyle" horiz-adv-x="528" 
d="M501 508q0 -92 -78 -147q86 -56 86 -169q0 -95 -62.5 -151t-194.5 -56q-233 0 -233 191q0 92 81 152q-73 57 -73 169q0 86 62.5 139.5t179.5 53.5q232 0 232 -182zM315 181q0 28 -18 45t-52 32q-32 -30 -32 -72q0 -63 51 -63q25 0 38 16t13 42zM217 507q0 -51 54 -80
q40 33 40 76q0 53 -47 53q-21 0 -34 -13t-13 -36z" />
    <glyph glyph-name="nine.oldstyle" horiz-adv-x="517" 
d="M29 -64l12 106q95 -13 157 -13q53 0 77 32t28 115q-63 -35 -116 -35q-86 0 -129.5 47t-43.5 131q0 131 62 203.5t179 72.5q42 0 73.5 -6.5t64.5 -28t54.5 -58.5t35 -101.5t13.5 -152.5q0 -190 -70.5 -278.5t-189.5 -88.5q-115 0 -207 55zM297 303v6q0 142 -52 142
q-40 0 -40 -107q0 -30 8 -40t28 -10q25 0 56 9z" />
    <glyph glyph-name="H_a_n_g_T_a_b" horiz-adv-x="1109" 
d="M280 500h-105v131h-70v-131h-105v337h105v-119h70v119h105v-337zM553 500h-76l-6 21q-32 -29 -74 -29q-87 0 -87 78q0 43 35 67.5t100 24.5h9v9q0 20 -33 20q-37 0 -84 -15l-12 59q60 26 120 26q51 0 79.5 -21.5t28.5 -60.5v-179zM454 573v31h-12q-35 0 -35 -23
q0 -20 20 -20q15 0 27 12zM831 500h-101q0 34 1 78.5t1 50.5q0 37 -3 45t-13 8q-9 0 -25 -8v-174h-100v254h81l7 -22q30 30 72 30q44 0 63 -28.5t19 -90.5q0 -9 -1 -58t-1 -85zM1109 748v-236q0 -106 -124 -106q-45 0 -105 28l7 53q63 -9 86 -9q36 0 36 23v19
q-28 -20 -55 -20q-48 0 -71.5 34.5t-23.5 85.5q0 142 144 142q48 0 106 -14zM1009 584v105q-6 3 -17 3q-32 0 -32 -62q0 -56 24 -56q12 0 25 10zM409 258h-58v-258h-105v258h-58v79h221v-79zM637 0h-76l-6 21q-32 -29 -74 -29q-87 0 -87 78q0 43 35 67.5t100 24.5h9v9
q0 20 -33 20q-37 0 -84 -15l-12 59q60 26 120 26q51 0 79.5 -21.5t28.5 -60.5v-179zM538 73v31h-12q-35 0 -35 -23q0 -20 20 -20q15 0 27 12zM675 6v348h100v-113q25 21 54 21q50 0 73 -35.5t23 -88.5q0 -146 -145 -146q-47 0 -105 14zM775 176v-111q5 -3 17 -3q31 0 31 65
q0 59 -23 59q-10 0 -25 -10z" />
    <glyph glyph-name="zero.OnumTab" 
d="M490 297q0 -312 -247 -312q-126 0 -179.5 69t-53.5 229q0 312 247 312q126 0 179.5 -69t53.5 -229zM290 290q0 96 -7.5 126.5t-31.5 30.5t-32.5 -29.5t-8.5 -127.5q0 -96 7.5 -126.5t31.5 -30.5t32.5 29.5t8.5 127.5z" />
    <glyph glyph-name="one.OnumTab" 
d="M476 0h-431v168h112v218l-94 -29l-49 129l196 94h167v-412h99v-168z" />
    <glyph glyph-name="two.OnumTab" 
d="M479 0h-455v144q135 100 179 148.5t44 90.5q0 24 -14 36t-50 12q-47 0 -142 -28l-22 133q127 58 226 58q117 0 170.5 -50t53.5 -135q0 -65 -41 -122t-129 -118h180v-169z" />
    <glyph glyph-name="three.OnumTab" 
d="M8 -60l11 113q67 -12 134 -12q63 0 87 18.5t24 51.5t-20.5 48t-73.5 15h-81v151h79q46 0 66.5 14.5t20.5 45.5q0 50 -69 50q-62 0 -138 -27l-24 131q120 55 220 55q112 0 166.5 -46.5t54.5 -127.5q0 -108 -91 -158q108 -34 108 -153q0 -110 -79 -167t-194 -57
q-108 0 -201 55z" />
    <glyph glyph-name="four.OnumTab" 
d="M157 580h291v-382h45v-164h-45v-138h-199v138h-241v152q53 185 149 394zM249 198l1 214h-4q-47 -119 -70 -214h73z" />
    <glyph glyph-name="five.OnumTab" 
d="M434 411h-215l-5 -91q22 4 55 4q215 0 215 -201q0 -112 -75 -175t-207 -63q-102 0 -194 56l11 112q67 -12 139 -12q121 0 121 69q0 30 -21 43.5t-72 13.5q-70 0 -154 -18l24 431h378v-169z" />
    <glyph glyph-name="six.OnumTab" 
d="M460 635l-17 -109q-80 15 -129 15q-58 0 -80 -29t-27 -106q63 35 116 35q165 0 165 -178q0 -132 -64 -204t-176 -72q-40 0 -70.5 6.5t-62.5 28t-53 58t-34.5 101.5t-13.5 153q0 183 70.5 269t189.5 86q97 0 186 -54zM213 279v-6q0 -57 6.5 -89.5t16 -42.5t23.5 -10
q12 0 19.5 6.5t13 31.5t5.5 69q0 30 -8 40t-28 10q-23 0 -48 -9z" />
    <glyph glyph-name="seven.OnumTab" 
d="M483 422l-111 -236q-72 -154 -182 -300l-138 49l194 476h-227v169h464v-158z" />
    <glyph glyph-name="eight.OnumTab" 
d="M483 508q0 -93 -81 -146q89 -54 89 -170q0 -96 -61 -151.5t-192 -55.5q-229 0 -229 191q0 91 84 152q-76 58 -76 169q0 87 60.5 140t177.5 53q116 0 172 -44.5t56 -137.5zM297 181q0 47 -67 78q-27 -30 -27 -73q0 -63 47 -63t47 58zM207 507q0 -50 50 -80q36 33 36 76
q0 53 -43 53t-43 -49z" />
    <glyph glyph-name="nine.OnumTab" 
d="M24 -64l12 106q95 -13 149 -13q55 0 80 32t29 115q-63 -35 -116 -35q-165 0 -165 178q0 132 64 204t176 72q40 0 70.5 -6.5t62.5 -28t53 -58t34.5 -101.5t13.5 -153q0 -184 -71 -275.5t-189 -91.5q-111 0 -203 55zM204 344q0 -30 8 -40t28 -10q22 0 48 9v6
q0 57 -6.5 89.5t-16 42.5t-23.5 10q-12 0 -19.5 -6.5t-13 -31.5t-5.5 -69z" />
    <glyph glyph-name="L_i_n_P_r_o_p" horiz-adv-x="1002" 
d="M380 500h-180v337h105v-257h75v-80zM513 813q0 -27 -12.5 -38t-45.5 -11q-34 0 -46 10.5t-12 38.5q0 27 12.5 38t45.5 11q34 0 46 -10.5t12 -38.5zM505 500h-100v254h100v-254zM783 500h-100q0 34 1 78.5t1 50.5q0 25 -2 37t-4.5 14t-9.5 2q-10 0 -26 -8v-174h-100v254
h82l6 -22q32 30 73 30q44 0 62.5 -28.5t18.5 -90.5q0 -9 -1 -58t-1 -85zM105 0h-105v337q23 0 67.5 0.5t62.5 0.5q130 0 130 -112q0 -128 -149 -128h-6v-98zM105 263v-90h9q36 0 36 45t-36 45h-9zM458 255l-12 -85q-17 4 -26 4q-15 0 -37 -28v-146h-100v254h82l7 -32
q26 39 56 39q15 0 30 -6zM724 132q0 -70 -35 -105t-101 -35q-64 0 -95.5 30t-31.5 100t35.5 105t100.5 35q64 0 95.5 -30t31.5 -100zM622 121q0 30 -4.5 46t-10 19.5t-14.5 3.5q-30 0 -30 -57q0 -43 7.5 -56t22.5 -13q29 0 29 57zM852 -87h-100v341h82l6 -22q32 30 67 30
q50 0 72.5 -35t22.5 -89q0 -74 -35 -110t-96 -36q-5 0 -11.5 0.5t-7.5 0.5v-80zM852 176v-111q6 -3 17 -3q32 0 32 65q0 59 -24 59q-10 0 -25 -10z" />
    <glyph glyph-name="zero.LinProp" horiz-adv-x="604" 
d="M584 347q0 -361 -289 -361q-144 0 -209.5 79t-65.5 263q0 361 289 361q144 0 209.5 -79t65.5 -263zM368 338q0 113 -16 156t-49 43q-34 0 -50.5 -41.5t-16.5 -158.5q0 -113 16 -156t49 -43q34 0 50.5 41.5t16.5 158.5z" />
    <glyph glyph-name="one.LinProp" horiz-adv-x="361" 
d="M312 0h-214v470l-68 -28l-35 144l156 89h161v-675z" />
    <glyph glyph-name="two.LinProp" horiz-adv-x="483" 
d="M466 0h-456v176q142 153 181.5 203.5t39.5 86.5q0 50 -63 50q-57 0 -125 -26l-36 136q108 63 237 63q98 0 155 -47.5t57 -141.5q0 -76 -42.5 -142t-164.5 -177h217v-181z" />
    <glyph glyph-name="three.LinProp" horiz-adv-x="461" 
d="M-7 30l12 127q57 -11 120 -11q103 0 103 72q0 30 -19 44t-71 14h-96v148h95q44 0 63 14t19 44q0 54 -82 54q-55 0 -116 -17l-24 125q90 45 201 45q118 0 174.5 -45t56.5 -126q0 -109 -110 -158q59 -12 93 -50t34 -102q0 -109 -70.5 -165.5t-181.5 -56.5q-136 0 -201 44z
" />
    <glyph glyph-name="four.LinProp" horiz-adv-x="518" 
d="M511 129h-47v-129h-199v129h-258v156q59 178 164 390h293v-382h47v-164zM265 293v224h-3q-46 -105 -87 -224h90z" />
    <glyph glyph-name="five.LinProp" horiz-adv-x="479" 
d="M410 506h-194l-4 -80q21 3 39 3q210 0 210 -198q0 -115 -73.5 -180t-186.5 -65q-123 0 -188 44l12 127q57 -11 120 -11q110 0 110 72q0 30 -23 44t-79 14q-59 0 -122 -18l23 417h356v-169z" />
    <glyph glyph-name="six.LinProp" horiz-adv-x="525" 
d="M467 635l-17 -109q-82 15 -129 15q-58 0 -80 -29t-27 -106q60 35 122 35q86 0 129.5 -47t43.5 -131q0 -130 -64 -203t-179 -73q-44 0 -76 6.5t-65.5 28t-55 58.5t-35 101t-13.5 153q0 183 70 269t189 86q97 0 187 -54zM220 279v-6q0 -82 14 -112t38 -30q22 0 34 28.5
t12 77.5q0 30 -10.5 40.5t-34.5 10.5q-25 0 -53 -9z" />
    <glyph glyph-name="seven.LinProp" horiz-adv-x="446" 
d="M439 517l-106 -226q-88 -187 -172 -306l-143 44l198 477h-209v169h432v-158z" />
    <glyph glyph-name="eight.LinProp" horiz-adv-x="544" 
d="M517 508q0 -92 -85 -149q95 -56 95 -164q0 -210 -268 -210q-132 0 -187 49.5t-55 141.5q0 90 94 152q-84 56 -84 169q0 87 63 140t188 53q124 0 181.5 -44t57.5 -138zM328 181q0 28 -18 46t-54 34q-40 -33 -40 -75q0 -31 12.5 -47t44.5 -16q55 0 55 58zM221 502
q0 -48 56 -77q46 35 46 77q0 54 -52 54q-50 0 -50 -54z" />
    <glyph glyph-name="nine.LinProp" horiz-adv-x="525" 
d="M27 44l18 114q99 -22 169 -22q42 0 67 28.5t30 105.5q-60 -35 -122 -35q-86 0 -129.5 47t-43.5 131q0 130 64 203t179 73q44 0 76 -6.5t65.5 -28t55 -58.5t35 -101t13.5 -153q0 -183 -70.5 -269.5t-189.5 -86.5q-118 0 -217 58zM305 397v6q0 82 -14 112t-38 30
q-22 0 -34 -28.5t-12 -77.5q0 -30 10.5 -40.5t34.5 -10.5t53 9z" />
    <glyph glyph-name="L_i_n_T_a_b" horiz-adv-x="737" 
d="M250 500h-180v337h105v-257h75v-80zM383 813q0 -27 -12.5 -38t-45.5 -11q-34 0 -46 10.5t-12 38.5q0 27 12.5 38t45.5 11q34 0 46 -10.5t12 -38.5zM375 500h-100v254h100v-254zM653 500h-100q0 34 1 78.5t1 50.5q0 25 -2 37t-4.5 14t-9.5 2q-10 0 -26 -8v-174h-100v254
h82l6 -22q32 30 73 30q44 0 62.5 -28.5t18.5 -90.5q0 -9 -1 -58t-1 -85zM221 258h-58v-258h-105v258h-58v79h221v-79zM449 0h-76l-6 21q-32 -29 -74 -29q-87 0 -87 78q0 43 35 67.5t100 24.5h9v9q0 20 -33 20q-37 0 -84 -15l-12 59q60 26 120 26q51 0 79.5 -21.5t28.5 -60.5
v-179zM350 73v31h-12q-35 0 -35 -23q0 -20 20 -20q15 0 27 12zM487 6v348h100v-113q25 21 54 21q50 0 73 -35.5t23 -88.5q0 -146 -145 -146q-47 0 -105 14zM587 176v-111q5 -3 17 -3q31 0 31 65q0 59 -23 59q-10 0 -25 -10z" />
    <glyph glyph-name="zero.LinTab" 
d="M490 344q0 -194 -61.5 -276.5t-183.5 -82.5q-130 0 -182.5 78t-52.5 269q0 190 59 274t185 84q128 0 182 -76t54 -270zM290 341q0 119 -8 161t-31 42q-24 0 -32.5 -40.5t-8.5 -163.5q0 -124 8 -164.5t33 -40.5q22 0 30.5 42.5t8.5 163.5z" />
    <glyph glyph-name="one.LinTab" 
d="M377 181h99v-181h-431v181h112v294l-94 -29l-49 135l196 94h167v-494z" />
    <glyph glyph-name="two.LinTab" 
d="M485 0h-468v176q149 161 187.5 209.5t38.5 80.5q0 51 -68 51q-57 0 -136 -29l-36 136q118 66 247 66q97 0 157.5 -46.5t60.5 -143.5q0 -73 -43 -139t-169 -180h229v-181z" />
    <glyph glyph-name="three.LinTab" 
d="M8 32l12 125q67 -12 138 -12q106 0 106 70q0 57 -84 57h-91v150h85q47 0 64 13t17 43q0 53 -77 53q-54 0 -130 -27l-24 131q116 55 220 55q113 0 167 -48t54 -130q0 -57 -23 -92.5t-68 -59.5q52 -14 80 -53t28 -89q0 -115 -78.5 -174t-194.5 -59q-115 0 -201 47z" />
    <glyph glyph-name="four.LinTab" 
d="M159 675h289v-363h45v-174h-45v-138h-199v138h-241v162q54 180 151 375zM249 312v194h-3q-44 -106 -70 -194h73z" />
    <glyph glyph-name="five.LinTab" 
d="M434 675v-169h-215l-5 -81q33 4 53 4q109 0 163 -45.5t54 -155.5q0 -116 -76.5 -179.5t-198.5 -63.5q-115 0 -201 47l12 125q67 -12 134 -12q68 0 97 16t29 54q0 29 -20 43t-72 14q-77 0 -156 -18l24 421h378z" />
    <glyph glyph-name="six.LinTab" 
d="M460 635l-17 -109q-80 15 -129 15q-58 0 -80 -29t-27 -106q63 35 116 35q165 0 165 -178q0 -132 -64 -204t-176 -72q-40 0 -70.5 6.5t-62.5 28t-53 58t-34.5 101.5t-13.5 153q0 183 70.5 269t189.5 86q97 0 186 -54zM213 279v-6q0 -57 6.5 -89.5t16 -42.5t23.5 -10
q12 0 19.5 6.5t13 31.5t5.5 69q0 30 -8 40t-28 10q-23 0 -48 -9z" />
    <glyph glyph-name="seven.LinTab" 
d="M483 517l-111 -236q-75 -161 -182 -296l-138 49l194 472h-227v169h464v-158z" />
    <glyph glyph-name="eight.LinTab" 
d="M477 508q0 -91 -71 -148q82 -52 82 -165q0 -210 -250 -210q-122 0 -174.5 50.5t-52.5 145.5q0 90 82 149q-72 58 -72 167q0 87 58.5 140t174.5 53q115 0 169 -44.5t54 -137.5zM297 181q0 48 -62 77q-33 -30 -33 -72q0 -63 48 -63q47 0 47 58zM212 502q0 -48 41 -74
q35 30 35 67q0 33 -9 47t-30 14q-37 0 -37 -54z" />
    <glyph glyph-name="nine.LinTab" 
d="M24 40l12 107q88 -12 161 -12q49 0 71 29.5t26 105.5q-63 -35 -116 -35q-165 0 -165 178q0 132 64 204t176 72q40 0 70.5 -6.5t62.5 -28t53 -58t34.5 -101.5t13.5 -153q0 -183 -70.5 -269t-189.5 -86q-114 0 -203 53zM288 397v6q0 57 -6.5 89.5t-16 42.5t-23.5 10
q-12 0 -19.5 -6.5t-13 -31.5t-5.5 -69q0 -30 8 -40t28 -10q22 0 48 9z" />
    <glyph glyph-name="S_u_p" horiz-adv-x="794" 
d="M244 602q0 -47 -33.5 -78t-97.5 -31t-113 39l23 52q44 -16 69 -16q35 0 35 22q0 12 -12.5 21.5t-30 19t-35 21.5t-30 34t-12.5 51q0 49 33.5 78t87.5 29t103 -34l-23 -52q-36 12 -60 12q-30 0 -30 -21q0 -14 19.5 -27.5t43.5 -24.5t43.5 -35.5t19.5 -59.5zM506 500h-82
l-6 22q-32 -30 -73 -30q-44 0 -62.5 28.5t-18.5 90.5q0 9 1 58t1 85h100q0 -34 -1 -78.5t-1 -50.5q0 -25 2 -37t4.5 -14t9.5 -2q10 0 26 8v174h100v-254zM644 413h-100v341h81l7 -22q30 30 66 30q50 0 73 -35.5t23 -88.5q0 -74 -35 -110t-97 -36q-5 0 -11 0.5t-7 0.5v-80z
M644 676v-111q4 -3 17 -3q31 0 31 65q0 59 -23 59q-10 0 -25 -10z" />
    <glyph glyph-name="a.superior" horiz-adv-x="399" 
d="M380 339h-132l-11 35q-47 -42 -99 -42q-61 0 -97 28.5t-36 82.5q0 107 206 107h5v5q0 14 -9 20t-33 6q-70 0 -136 -18l-17 85q91 36 186 36q93 0 133 -27.5t40 -89.5v-228zM216 432v46h-13q-40 0 -40 -29q0 -28 29 -28q13 0 24 11z" />
    <glyph glyph-name="b.superior" horiz-adv-x="399" 
d="M395 521q0 -102 -53.5 -148.5t-157.5 -46.5q-66 0 -164 20v455h164v-147q33 25 73 25q74 0 106 -44t32 -114zM231 499q0 69 -26 69q-9 0 -21 -4v-134q6 -2 17 -2q30 0 30 71z" />
    <glyph glyph-name="c.superior" horiz-adv-x="298" 
d="M298 374q-51 -47 -135 -47q-82 0 -120 43t-38 132q0 78 45 130.5t124 52.5t121 -44l-55 -80q-20 12 -33 12q-34 0 -34 -60q0 -43 8.5 -57t27.5 -14q21 0 45 14z" />
    <glyph glyph-name="d.superior" horiz-adv-x="401" 
d="M380 339h-133l-11 34q-43 -41 -93 -41t-82.5 26t-44 62t-11.5 81q0 91 54 134.5t147 43.5h10v122h164v-462zM216 447v134q-6 2 -17 2q-30 0 -30 -71q0 -69 26 -69q9 0 21 4z" />
    <glyph glyph-name="e.superior" horiz-adv-x="388" 
d="M377 472h-208q0 -34 42 -34q43 0 144 18l17 -83q-84 -42 -172 -42q-102 0 -148.5 36.5t-46.5 130.5q0 92 51.5 137.5t141.5 45.5q47 0 78.5 -8t58 -29.5t37 -64t5.5 -107.5zM229 546q0 28 -7.5 39t-23.5 11q-29 0 -29 -50h60z" />
    <glyph glyph-name="f.superior" horiz-adv-x="231" 
d="M256 789l-15 -86q-15 3 -32 3q-10 0 -12 -3t-2 -11v-23h34v-100h-34v-230h-164v230h-24v100h24v20q0 62 27.5 93.5t98.5 31.5q45 0 99 -25z" />
    <glyph glyph-name="g.superior" horiz-adv-x="401" 
d="M380 358q0 -140 -186 -140q-63 0 -157 41l11 76q70 -17 130 -17q38 0 38 25v27q-36 -25 -73 -25q-74 0 -106 44t-32 112q0 91 54 134.5t147 43.5q83 0 174 -19v-302zM216 454v127q-8 2 -17 2q-30 0 -30 -71q0 -64 25 -64q13 0 22 6z" />
    <glyph glyph-name="h.superior" horiz-adv-x="402" 
d="M385 525q0 -10 -1.5 -73t-1.5 -113h-162q0 48 0.5 113.5t0.5 70.5q0 27 -3 35.5t-12 8.5q-11 0 -22 -8v-220h-164v462h164v-147q40 25 82 25q66 0 92.5 -35.5t26.5 -118.5z" />
    <glyph glyph-name="i.superior" horiz-adv-x="206" 
d="M191 755q0 -36 -18.5 -51t-68.5 -15q-53 0 -70.5 14t-17.5 52q0 36 19 51t69 15q51 0 69 -14.5t18 -51.5zM187 339h-167v333h167v-333z" />
    <glyph glyph-name="j.superior" horiz-adv-x="206" 
d="M187 672v-289q0 -91 -97 -163l-112 41q42 61 42 101v310h167zM191 755q0 -36 -18.5 -51t-68.5 -15q-53 0 -70.5 14t-17.5 52q0 36 19 51t69 15q51 0 69 -14.5t18 -51.5z" />
    <glyph glyph-name="k.superior" horiz-adv-x="412" 
d="M407 339h-179l-34 139h-7v-139h-167v462h167v-245h7l35 116h178l-59 -139z" />
    <glyph glyph-name="l.superior" horiz-adv-x="224" 
d="M220 344q-45 -12 -94 -12q-58 0 -82 20.5t-24 78.5v370h167v-340q0 -20 3.5 -25t15.5 -5h8z" />
    <glyph glyph-name="m.superior" horiz-adv-x="599" 
d="M582 525q0 -10 -2 -73t-2 -113h-162q0 48 1 105t1 62q0 38 -3.5 49.5t-12.5 11.5q-11 0 -22 -8v-220h-160v184q0 27 -2.5 35.5t-11.5 8.5q-11 0 -22 -8v-220h-164v333h132l11 -35q47 42 103 42q40 0 60 -9t37 -30q42 39 99 39q65 0 92.5 -36t27.5 -118z" />
    <glyph glyph-name="o.superior" horiz-adv-x="404" 
d="M398 512q0 -184 -204 -184q-97 0 -143 39t-46 133q0 183 201 183q98 0 145 -38.5t47 -132.5zM234 498q0 36 -6 55t-11.5 21.5t-14.5 2.5q-33 0 -33 -64q0 -36 6 -54.5t11.5 -21.5t15.5 -3q32 0 32 64z" />
    <glyph glyph-name="p.superior" horiz-adv-x="400" 
d="M395 521q0 -195 -198 -195h-13v-101h-164v447h132l11 -35q47 42 94 42q74 0 106 -44t32 -114zM231 499q0 69 -26 69q-9 0 -21 -4v-134q6 -2 17 -2q30 0 30 71z" />
    <glyph glyph-name="q.superior" horiz-adv-x="400" 
d="M380 225h-164v132q-39 -25 -73 -25q-50 0 -82.5 26t-44 62t-11.5 81q0 91 54 134.5t147 43.5q83 0 174 -19v-435zM216 447v134q-8 2 -17 2q-30 0 -30 -71q0 -69 26 -69q9 0 21 4z" />
    <glyph glyph-name="r.superior" horiz-adv-x="292" 
d="M288 673l-17 -126q-24 6 -40 6q-12 0 -20.5 -5.5t-26.5 -24.5v-184h-164v333h132l14 -45q43 52 80 52q20 0 42 -6z" />
    <glyph glyph-name="s.superior" horiz-adv-x="332" 
d="M328 452q0 -53 -47.5 -86.5t-131.5 -33.5q-89 0 -138 32l11 71q69 -10 94 -10q35 0 35 15q0 11 -41 21q-49 14 -71.5 38.5t-22.5 69.5q0 53 42.5 81.5t115.5 28.5q81 0 134 -29l-15 -73q-55 13 -82 13q-21 0 -21 -10q0 -4 1.5 -6.5t8.5 -6t22 -8.5q57 -17 81.5 -42.5
t24.5 -64.5z" />
    <glyph glyph-name="t.superior" horiz-adv-x="253" 
d="M247 354q-53 -27 -110 -27q-60 0 -84.5 18.5t-24.5 66.5v158h-27v102h35q28 76 34 104h124v-104h42v-102h-42v-124q0 -4 2 -6t4 -2h2q20 0 34 3z" />
    <glyph glyph-name="u.superior" horiz-adv-x="402" 
d="M382 339h-132l-11 35q-47 -42 -103 -42q-66 0 -92.5 35.5t-26.5 118.5q0 10 1.5 73t1.5 113h162q0 -46 -0.5 -107.5t-0.5 -76.5q0 -27 3 -35.5t12 -8.5q11 0 22 8v220h164v-333z" />
    <glyph glyph-name="v.superior" horiz-adv-x="383" 
d="M378 672q-4 -95 -21.5 -168.5t-51.5 -164.5h-240l-70 333h174l17 -116l9 -91h3q24 122 18 207h162z" />
    <glyph glyph-name="w.superior" horiz-adv-x="589" 
d="M584 672q-4 -141 -64 -333h-203l-17 105l-10 71h-3l-10 -73l-18 -103h-194l-70 333h163l19 -123l8 -64h3l10 68l18 119h174l23 -120l12 -67h3q15 88 15 187h141z" />
    <glyph glyph-name="x.superior" horiz-adv-x="378" 
d="M380 339h-174l-26 85h-2q-14 -33 -27 -85h-152l71 170l-70 163h172l22 -82h2q23 51 28 82h149l-69 -149z" />
    <glyph glyph-name="y.superior" horiz-adv-x="383" 
d="M377 672q1 -200 -87.5 -328t-205.5 -128q-30 0 -77 25v88q25 -5 49 -5q19 0 24 5q5 3 5 10q0 12 -17 68l-73 265h174l22 -133q8 -48 8 -84h3q10 43 14.5 108t-1.5 109h162z" />
    <glyph glyph-name="z.superior" horiz-adv-x="300" 
d="M295 448l-7 -109h-276v98l78 127h-74l4 108h263v-95l-84 -129h96z" />
    <glyph glyph-name="period.superior" horiz-adv-x="238" 
d="M208 415q0 -52 -18 -71t-72 -19q-55 0 -71.5 17t-16.5 71q0 52 18 71t72 19q55 0 71.5 -17t16.5 -71z" />
    <glyph glyph-name="comma.superior" horiz-adv-x="238" 
d="M81 211l-65 53q52 44 52 71q0 9 -18 28.5t-18 50.5q0 53 17.5 71t73.5 18q52 0 68.5 -19.5t16.5 -70.5q0 -119 -127 -202z" />
    <glyph glyph-name="I_n_f" horiz-adv-x="582" 
d="M105 0h-105v337h105v-337zM389 0h-101q0 34 1 78.5t1 50.5q0 37 -3 45t-13 8q-9 0 -25 -8v-174h-100v254h81l7 -22q30 30 72 30q44 0 63 -28.5t19 -90.5q0 -9 -1 -58t-1 -85zM582 344l-12 -55q-10 2 -23 2q-16 0 -16 -17v-20h31v-68h-31v-186h-100v186h-20v68h20v18
q0 44 18.5 67t62.5 23q36 0 70 -18z" />
    <glyph glyph-name="period.inferior" horiz-adv-x="238" 
d="M208 4q0 -52 -18 -71t-72 -19q-55 0 -71.5 17t-16.5 71q0 52 18 71t72 19q55 0 71.5 -17t16.5 -71z" />
    <glyph glyph-name="comma.inferior" horiz-adv-x="238" 
d="M81 -200l-65 53q52 44 52 71q0 9 -18 28.5t-18 50.5q0 53 17.5 71t73.5 18q52 0 68.5 -19.5t16.5 -70.5q0 -119 -127 -202z" />
    <glyph glyph-name="designer" horiz-adv-x="1000" 
d="M784 88q-6 -9 -21.5 -11.5t-19.5 -6.5q-36 -4 -43 -28q-3 -9 -10.5 -24.5t-11 -29.5t-1.5 -28q3 -12 21 -6q1 0 4.5 4t6.5 2q2 -3 1.5 -4t-2.5 -4t-3 -5q-17 -13 -30 -5q-15 18 -11 36q4 20 28 74q-7 5 -24.5 0.5t-25.5 -0.5q5 8 22 14q4 1 13.5 1t16 2.5t10.5 10.5t4 22
v24q-4 1 -4 12q-2 5 -5.5 9.5t-6 7.5t-7.5 5t-8 3t-9.5 2t-8 1t-9 0.5t-8.5 0.5q-17 -1 -33 -16.5t-23 -35.5q-10 -29 2 -65q-2 -13 9.5 -42.5t4.5 -49.5q-7 -7 -21 -1q-6 4 -9 11.5t-5 21.5t-3 17q4 4 5 17.5t4 17.5q5 18 -5 24q-5 -1 -19 -1.5t-23 -3t-16 -9.5
q4 -19 3 -44.5t-15 -37.5q-9 -3 -19 4q-4 4 -6 10.5t-2 10.5t0.5 13t0.5 12q1 4 4.5 12.5t5.5 13.5t5 11t7.5 10.5t9.5 6.5q8 -6 27 1l39 1q3 3 3.5 13t1.5 13q7 30 26 52t43 24q32 4 51 -8q1 -7 9 -13t9 -13q8 -16 1 -68q17 0 70 12zM459 68q-4 -4 -13 2t-14 2
q-8 -7 -11.5 -24.5t-7.5 -23.5q0 -8 -3 -25.5t-3 -26.5q-8 -5 -11 -4q-5 2 -3 18t2 18q4 6 4 22t3 22q-2 4 -2.5 14t-0.5 11q-2 1 -6 -2t-6 1q1 10 11 18q8 0 15 -18q3 1 8 8.5t8 9t10 -3.5zM352 113q0 -20 1.5 -73t0.5 -80t-11 -64.5t-31 -63.5q-53 -41 -116 -19
q-10 7 -10 14q4 29 18 34q-8 -23 -10 -33q22 -15 50 -12.5t51 17.5q14 6 21 17.5t13.5 34t8.5 27.5q7 57 5 146q2 7 0.5 24t-0.5 24q-1 5 -10 1q-4 -5 -8.5 -17t-8.5 -16q1 -10 -8.5 -20t-9.5 -18q-22 -30 -58 -94q-1 -2 -2 -5t-2 -5t-2.5 -4t-3.5 -2.5t-4 -0.5
q-6 5 -4 29.5t1 31.5q13 56 21 70q18 59 52 86q2 3 7 1.5t6.5 -1.5t6.5 -3t6 -4t5.5 -4.5t5.5 -4.5q6 9 10 24q9 -4 9 -20q-3 -2 -1 -8t1 -9zM611 331q-11 -2 -49.5 -16t-61.5 -12q-8 -9 -4 -30q3 -17 15 -12q1 1 3 10t6 11q6 -15 -6 -33q-4 -1 -12 -2t-14.5 12.5t-3.5 38.5
q-7 9 -4 14q5 5 7.5 12t3 18.5t1.5 15.5q-1 0 -2 2l-2 2q-10 -9 -21.5 -32t-16.5 -29q0 -9 -10 -23.5t-8 -25.5q-2 -2 -3 -15.5t-9 -14.5q-9 3 -11.5 10t-1 19.5t0.5 16.5q-2 13 0.5 35t1.5 33q-6 -4 -10.5 -16t-6.5 -15q-1 -2 -8.5 -17.5t-14 -21t-16.5 -2.5q-12 23 10 72
q2 2 7.5 11t8.5 12t10 7.5t12 -0.5q4 -3 8 0q12 34 16 90l8 8q6 -2 6 -6.5t-2.5 -11t-1.5 -10.5q-1 -10 -6.5 -49.5t-6.5 -60.5q0 -6 -2 -19.5t-2 -19t2 -19.5q3 5 21 40.5t32 51.5q10 18 26 30q4 -4 12 -14t12 -14v-40q7 2 36 9t45 13q7 -5 6 -13zM877 703q-6 77 -48 101
q4 7 8 8t8.5 -3t7 -7.5t7 -11t5.5 -8.5q46 -69 9 -182q-26 -78 -83 -108q26 24 38 48q35 43 39 80q13 26 9 83zM805 602q-6 -21 -19 -25q-7 3 -16 17l2 14q2 -1 3 -7.5t5 -8.5q6 -2 13 11q7 50 -12 87l-5 -3q-2 -3 -10.5 -12.5t-13 -16.5t-8.5 -16l-6 -4q-7 -8 -18.5 -28
t-18.5 -28q-6 -1 -8 3t-3 11.5t-2 10.5q2 10 -3 17q-3 1 -5 -4t-3 -6q-12 -15 -25 -16q-11 4 -12.5 12t1.5 22.5t3 21.5q4 19 27 50q2 0 8 3t9.5 3.5t8 -1t7.5 -7.5l4 -6q-4 -13 -9 -72q3 -10 6 -10q7 0 12 11t7 13q24 26 62 78q8 -3 9.5 -20.5t3.5 -21.5q4 -3 2 -8
q9 -24 4 -64zM696 798q-7 -16 -19 -14q-3 13 -9 6q-62 -60 -75 -108q-15 -115 27 -156q4 -4 10 -5.5t14.5 -1t11.5 0.5q4 3 9 9t8 8q1 -5 -1.5 -9t-8 -8t-7.5 -6q-26 -13 -49 12q-18 21 -22 46q-5 3 -3 11t-2 11q2 4 -0.5 14t0.5 16q0 93 91 182q2 0 5.5 1t6.5 1.5t6 0.5
t5 -3t2 -8zM550 620q-6 -17 -18.5 -29.5t-27.5 -12.5q-35 0 -51 32q-8 17 -4 50q1 5 6 14.5t5 15.5q24 24 52 12q1 -1 3 -2.5t3 -2t1.5 -2.5t0.5 -5q-2 -2 -3.5 -1t-4 3t-4.5 2q-22 7 -40 -16q-16 -33 -8 -55q17 -30 43 -34q1 1 13 3.5t17 10.5q3 2 5.5 8t5 9t6.5 0z
M427 592q-2 -5 -5 -15t-6 -18t-7 -15q-9 -5 -17 10q-13 36 -8 75q-1 1 0.5 24.5t-1.5 30.5q-5 -15 -6 -58t-16 -62q-2 -3 -8 -4t-14 9t-11 33q2 14 4 38t3 34q0 2 -2 14.5t3 13.5q6 3 11 -4q0 -15 -2 -40.5t-2 -44.5t5 -31q7 -6 10 -0.5t4 16t3 12.5q2 10 2.5 39.5t4.5 44.5
q1 2 2.5 6t2.5 6.5t3.5 5.5t4.5 2.5t6 -2.5q7 -26 5.5 -76t4.5 -76q1 -3 4 -4t5 3l2 9q3 8 7 16t8 8zM302 562q-12 -12 -67 -17q-57 -6 -102 -25q-5 -13 -22 -2q-1 7 5.5 13.5t7.5 10.5q9 24 15 48q-1 4 7 26q45 132 59 208q-2 15 3 21q3 1 4.5 0t3 -4.5t2.5 -4.5
q-8 -56 -40.5 -152.5t-41.5 -139.5l2 -2q11 2 36.5 8t44 9.5t37.5 3.5q25 -6 44 3zM591 -32q8 23 -8 54q-5 -8 -7 -27q5 -25 15 -27zM495 49l-11 -19q-6 -29 -1 -46q6 -8 14 1q9 8 4 22q10 38 -6 42zM324 116q-3 10 -12.5 13t-16.5 -2q-23 -25 -32 -40q-3 -12 -12.5 -37.5
t-14 -45.5t-2.5 -40q1 0 5 4q9 14 29.5 43.5t34.5 54t21 50.5zM505 330q9 21 -1 24l-4 -29q3 1 5 5zM396 332l-1 20q-10 3 -19 -14q-24 -40 -16 -63q5 -3 8 7q19 23 28 50zM688 697q-2 3 -5 -0.5t-4 -2.5q-32 -20 -30 -80q3 -1 9 4t10 4q2 5 10 19t9.5 21t-3.5 22q4 0 4 13z
" />
    <glyph glyph-name="FoFa" horiz-adv-x="960" 
d="M771 -58l-4 -4q-13 1 -47.5 -2.5t-49.5 -1.5q-31 1 -104 -3.5t-113 -0.5q-24 -4 -96 3q-13 1 -121 1q-68 0 -100 -8q-12 -2 -15 4q0 4 -1 19.5t0 26t4 19.5q1 10 1 37.5t2 42.5q-3 15 -1 44.5t0 44.5q0 25 3 71.5t4 59.5q2 26 1 71.5t0 71.5q3 6 13.5 6t12.5 1
q2 -4 18.5 -2.5t18.5 1.5q12 12 13 1q1 -1 0.5 -6t2.5 -6q-1 -37 -1 -54.5t3.5 -74t4.5 -72.5q22 7 59 28t57 28q3 1 9.5 5.5t11.5 6.5q8 4 10 3q3 -1 4 -3.5t0 -7.5t-1 -6q-10 -29 -5 -61q1 -2 3 -2.5t3.5 0t4 1t3.5 0.5q6 5 17.5 12t16.5 10q25 15 41 21q36 25 48 29
l20 16q1 4 6 7q3 0 11 -6q0 -9 3 -28t3 -29q1 -2 3.5 -2.5t2.5 -1.5q3 -4 -2 -20l2 -2q23 5 61 32t60 32q3 3 10.5 6t11.5 7q3 0 16 9.5t22 2.5q6 0 7 -4q-1 -3 4 -12q-1 -4 0 -14t-2 -13q0 -5 -0.5 -16t0.5 -18.5t5 -13.5q-1 -4 2.5 -12.5t-0.5 -10.5q2 -25 4 -27
q2 -14 -1 -18q1 -5 2.5 -21t4.5 -25v-16q0 -26 6 -74.5t6 -72.5l1 -4q1 -4 0 -5zM458 30q3 5 4.5 10t1.5 10.5t0.5 9.5t-0.5 11t-1.5 10t-2.5 11.5t-2 10.5q1 4 -4.5 7.5t-12.5 7t-8 4.5q-6 6 -8 -1q-11 1 -19 -4q-4 -2 -8 -8t-6 -7q-5 -3 -9 3q5 24 -3 74l-2 7h-8
q-4 -1 -6 -4.5t-2 -6.5v-7.5t-1 -6.5q-2 -11 -2 -34t-2 -34q1 -11 0 -32.5t0 -31.5q0 -5 -1.5 -17t-0.5 -19q9 -5 31 5q8 2 10.5 0.5t6.5 -7t7 -7.5q8 0 13 1q12 7 24 20.5t11 24.5zM452 664q-12 -13 -29 -8q-13 18 -14 24q-6 9 -16 16t-18 9t-23 5.5t-21 5.5l-31 2
q-2 -2 -6.5 -1.5t-6.5 -0.5q-33 -10 -55 -21q-1 -2 -13.5 -11.5t-13.5 -18.5q-9 -22 -11 -70q0 -3 10.5 -2.5t11.5 0.5q19 2 86 2q1 -1 1.5 -3.5t-0.5 -3.5q-5 -5 -15.5 -0.5t-15.5 2.5q-7 0 -21 -1t-20 0q-4 -1 -12 -1.5t-14 -1.5t-10 -4l-3 -4q-2 -25 1 -63v-14t4 -14
q19 -1 38 1t31 2q2 2 13 -1q1 -1 1 -2v-2l-4 -2q-12 4 -39 0.5t-46 -2.5q-37 -3 -46 -2q-45 -2 -64 3l-2 3q3 3 9 5q4 -2 39 -7q24 3 26 4q-1 19 4.5 49.5t6.5 43.5l-3 4q-6 0 -18.5 -0.5t-21 0.5t-16.5 5q-2 5 3 5q18 -5 56 -3l2 3q6 47 15 66v3q47 55 119 62q31 4 70 -13
q2 -1 9.5 -1.5t10.5 -2.5q43 -9 62 -35q2 -2 0 -9zM739 -10q-11 24 -18 32q-2 4 -8 12.5t-9.5 15.5t-4.5 15q-7 14 -6 17q5 6 17 13.5t16 12.5l-9 17q-7 -1 -18 -5.5t-13 -4.5q-1 -1 -4 -3t-5 -3.5t-5 -1t-5 2.5q2 53 1 78l-2 3q-6 0 -27 7q-5 -35 -3 -48q-2 -5 -0.5 -19.5
t-1.5 -19.5q1 -18 -1 -51.5t0 -51.5l-1 -7h24q1 0 6 -1.5t6 1.5q0 18 -1 28q0 3 -1 8t-1.5 8.5t1 7t6.5 4.5q4 -2 6 -7.5t3 -7.5q-1 -5 4 -12.5t6 -10.5q7 -4 15 -16.5t14 -16.5q2 0 6 -1.5t7 -0.5q6 0 6 6zM248 181q-12 2 -52 0q-18 -2 -27 -8q-1 -12 -3.5 -35.5
t-3.5 -29.5q2 -19 1.5 -54.5t0.5 -55.5q1 0 7 1t7 0q3 1 11.5 -0.5t11.5 0.5l2 63q2 5 16 12q2 1 8 0.5t7 2.5l-1 28q-3 4 -21 4q-4 -4 -7 -4q-3 1 -5 3.5t-2 5.5t-0.5 7t-1.5 6q-2 4 4 10q13 4 39 8l6 4q-1 7 1 17.5t2 14.5zM333 34q-4 12 -3 44t-7 41q-11 7 -23 12l-8 5
h-14t-19 -5q-6 -3 -8 -26q8 -3 15.5 -1t16.5 0.5t13 -8.5q0 -2 2 -6t-1 -6q-3 -6 1 -8q5 -7 -3 -9q-5 -2 -14.5 -2t-13.5 -1q-19 -7 -25 -37q-2 -3 -0.5 -10.5t-1.5 -10.5q0 -11 15 -17q5 5 8 2q5 -1 9.5 1.5t10.5 7.5t9 7q6 1 7 -2.5t-0.5 -9t2.5 -8.5q2 -2 8 0t8 2
q2 1 5 1.5t5.5 1.5t4.5 3zM447 559q3 -19 -7 -31q-4 -3 -12.5 -10t-15 -11t-14.5 -5q-4 1 -6.5 -3.5t-6.5 -1.5q-1 3 -12 2t-13 -1q-14 0 -21 3q-24 21 -18 36q7 21 24 30q32 16 47 13q45 -2 55 -21zM880 571q0 -4 -2 -4q-5 1 -42 -2q-67 -3 -90 -7q-6 -5 -7 -17t-3 -16
q0 -3 2 -8.5t2 -6.5q4 -5 14 -7q17 2 23 13q0 7 -7 12q-3 2 -10 2.5t-10 4.5q2 3 5 4t9 0t8 -1q10 -3 15 -16q-1 -15 -18 -27l-21 -5q-35 9 -45 24q-4 1 -1 22l4 22q-1 3 -3.5 3.5t-5.5 0t-6 0.5l-33 -1q0 1 -1 2t-1 2q2 2 8 3h6q5 -1 11.5 -1t14.5 0.5t12 0.5q5 4 5 17
q1 3 3 14.5t6 15.5q4 1 5.5 0.5t4.5 -3.5l4 -4q4 -5 3.5 -17t1.5 -19q0 -5 10.5 -4.5t11.5 0.5q4 0 43.5 1t69.5 5q3 -2 4 -3zM560 123q-24 -2 -30 -13q-2 -2 -3 -5.5t-2 -6t-3.5 -4.5t-6.5 -1q-2 7 -2 29q-2 2 -7 0t-8 0q-7 -4 -11 -13q0 -73 4 -111l3 -4q3 -3 11.5 -1.5
t11.5 0.5q-2 7 -0.5 21t-1.5 20q6 31 16 44q4 3 13 6t13 7q0 4 1.5 11t2 10.5t-0.5 10.5zM651 504l-3 -2q-35 0 -51 -5q-11 5 -13 8q6 37 1 56q-2 2 -14 -4q-39 -24 -41 -48q-10 -10 -19 -5q-4 3 -3 15t0 16l-1 31q-2 2 -8 1.5t-10 0.5q-1 1 -4 1t-5 0.5t-2 3.5q7 0 26 1.5
t26 -0.5q4 -3 3 -14.5t6 -12.5q8 4 25 14t27 14q2 -1 12 -1t12 -8t2 -23.5v-19.5q1 -1 1.5 -5.5t2.5 -6.5q9 -2 13 0q2 0 7.5 -1t9.5 -1q3 -3 0 -5zM610 15q0 13 -1 38.5t-1 37.5v26q-2 5 -13.5 2.5t-14.5 -2.5q-5 0 -5 -24v-26l-3 -26q1 -3 1 -19.5t5 -24.5q15 0 30 5
q2 4 2 13zM425 539q-7 31 -26 34q-1 -3 -3.5 -3.5t-6 0t-4.5 0.5q-15 7 -26 -6q-2 -3 -3.5 -6.5t-1.5 -7t-0.5 -6t1 -6.5t2 -6t3.5 -6.5t3.5 -6t3.5 -6t4 -5.5q1 -2 3 -2.5t4 0t5 -0.5h9t8 3l8 4q2 2 7 5.5t6.5 5.5t4 7t-0.5 9zM430 77q14 -30 -9 -55q-1 -1 -12 -7
q-6 1 -9.5 5t-4.5 7.5t-2 11t-2 9.5q1 2 2.5 14.5t5.5 17.5q3 2 9 10t12 8l3 -3q-2 -5 2.5 -10.5t4.5 -7.5zM608 179q-4 12 -12 15q-7 7 -10 0q-13 -18 -4 -30q3 -11 19 -4q9 6 7 19zM295 42q0 -11 -14 -23l-7 -3q-6 -3 -10 -1q-4 1 -5 3.5t1 8.5l2 6q0 6 9 10q6 0 10 4
q13 -3 14 -5z" />
    <glyph glyph-name="LuFo" horiz-adv-x="180" 
d="M180 -20v-180h-180v180h180zM160 -40h-140v-140h140v140zM40 -160v100h20v-80h40v-20h-60zM80 -60h60v-100h-20v40h-40v20h40v20h-40v20zM180 885v-180h-180v180h180zM160 865h-140v-140h140v140zM40 745v100h20v-80h40v-20h-60zM80 845h60v-100h-20v40h-40v20h40v20h-40
v20z" />
    </font>
</defs>
</svg>
