<?xml version="1.0" standalone="no"?>
<!DOCTYPE svg PUBLIC "-//W3C//DTD SVG 1.1//EN" "http://www.w3.org/Graphics/SVG/1.1/DTD/svg11.dtd" >
<svg xmlns="http://www.w3.org/2000/svg" xmlns:xlink="http://www.w3.org/1999/xlink" version="1.1">
<metadata>
Created by FontForge 20170731 at Wed Nov  9 19:20:57 2016
 By Aleksey,,,
Copyright (c) Luc[as] de Groot, published by LucasFonts, 2002, 2004, 2007, 2009, 2016. All rights reserved.
</metadata>
<defs>
<font id="FHPSun-Light" horiz-adv-x="500" >
  <font-face 
    font-family="FHP Sun Light"
    font-weight="300"
    font-stretch="normal"
    units-per-em="1000"
    panose-1="2 11 3 3 5 3 2 2 2 3"
    ascent="800"
    descent="-200"
    x-height="493"
    cap-height="675"
    bbox="-259 -200 1615 885"
    underline-thickness="48"
    underline-position="-247"
    unicode-range="U+000D-1F6C8"
  />
<missing-glyph horiz-adv-x="550" 
d="M300 150h-150v250h50v-200h100v-50zM500 50h-450v450h450v-450zM350 350h-100v50h150v-250h-50v100h-100v50h100v50zM100 100h350v350h-350v-350z" />
    <glyph glyph-name="f_f" unicode="ff" horiz-adv-x="569" 
d="M602 688l-15 -36q-38 19 -71 19q-76 0 -76 -90v-88h118v-43h-118v-450h-58v450h-220v-450h-58v450h-87v43h87v77q0 66 30 103t88 37q51 0 95 -25l-15 -36q-34 15 -66 15q-39 0 -56.5 -22t-17.5 -68v-81h220v84q0 65 30.5 102t89.5 37q54 0 100 -28z" />
    <glyph glyph-name="fi" unicode="fi" horiz-adv-x="532" 
d="M440 0h-58v450h-220v-450h-58v450h-87v43h87v84q0 65 30 102t88 37q48 0 92 -23l-14 -38q-34 16 -65 16q-73 0 -73 -90v-88h278v-493zM449 640q0 -23 -6.5 -30t-30.5 -7t-31.5 7t-7.5 30t7 30t32 7q24 0 30.5 -7t6.5 -30z" />
    <glyph glyph-name="fl" unicode="fl" horiz-adv-x="552" 
d="M512 41l4 -39q-30 -8 -57 -8q-43 0 -60 19.5t-17 77.5v571q-52 9 -95 9q-68 0 -96.5 -29t-28.5 -99v-50h108v-43h-108v-450h-58v450h-87v43h87v47q0 84 37 130t135 46q61 0 108 -7h56v-596q0 -47 7.5 -60.5t32.5 -13.5q16 0 32 2z" />
    <glyph glyph-name="f_f_i" unicode="ffi" horiz-adv-x="810" 
d="M718 0h-58v450h-220v-450h-58v450h-220v-450h-58v450h-87v43h87v77q0 66 30 103t88 37q51 0 95 -25l-15 -36q-34 15 -66 15q-39 0 -56.5 -22t-17.5 -68v-81h220v84q0 65 30 102t88 37q48 0 92 -23l-14 -38q-34 16 -65 16q-73 0 -73 -90v-88h278v-493zM727 640
q0 -23 -6.5 -30t-30.5 -7t-31.5 7t-7.5 30t7 30t32 7q24 0 30.5 -7t6.5 -30z" />
    <glyph glyph-name="f_f_l" unicode="ffl" horiz-adv-x="830" 
d="M790 41l4 -39q-30 -8 -57 -8q-43 0 -60 19.5t-17 77.5v571q-52 9 -95 9q-68 0 -96.5 -29t-28.5 -99v-50h108v-43h-108v-450h-58v450h-220v-450h-58v450h-87v43h87v77q0 66 30 103t88 37q51 0 95 -25l-15 -36q-34 15 -66 15q-39 0 -56.5 -22t-17.5 -68v-81h220v47
q0 84 37 130t135 46q61 0 108 -7h56v-596q0 -47 7.5 -60.5t32.5 -13.5q16 0 32 2z" />
    <glyph glyph-name="f_b" unicode="fb" horiz-adv-x="802" 
d="M440 709v-270q75 61 141 61q73 0 118.5 -66t45.5 -170q0 -137 -65.5 -204t-171.5 -67q-60 0 -126 14v655q-50 9 -95 9q-68 0 -96.5 -29t-28.5 -99v-50h108v-43h-108v-450h-58v450h-87v43h87v47q0 84 37 130t135 46q61 0 108 -7h56zM440 390v-339q37 -13 85 -13
q70 0 114.5 54.5t44.5 157.5q0 91 -31 147t-86 56q-58 0 -127 -63z" />
    <glyph glyph-name="f_f_b" unicode="ffb" horiz-adv-x="1080" 
d="M718 709v-270q75 61 141 61q73 0 118.5 -66t45.5 -170q0 -137 -65.5 -204t-171.5 -67q-60 0 -126 14v655q-50 9 -95 9q-68 0 -96.5 -29t-28.5 -99v-50h108v-43h-108v-450h-58v450h-220v-450h-58v450h-87v43h87v77q0 66 30 103t88 37q51 0 95 -25l-15 -36q-34 15 -66 15
q-39 0 -56.5 -22t-17.5 -68v-81h220v47q0 84 37 130t135 46q61 0 108 -7h56zM718 390v-339q37 -13 85 -13q70 0 114.5 54.5t44.5 157.5q0 91 -31 147t-86 56q-58 0 -127 -63z" />
    <glyph glyph-name="f_h" unicode="fh" horiz-adv-x="826" 
d="M440 709v-274q86 65 152 65q146 0 146 -217q0 -25 -1.5 -126.5t-1.5 -156.5h-57q0 49 1 143.5t1 123.5q0 186 -101 186q-63 0 -139 -66v-387h-58v662q-50 9 -95 9q-68 0 -96.5 -29t-28.5 -99v-50h108v-43h-108v-450h-58v450h-87v43h87v47q0 84 37 130t135 46q61 0 108 -7
h56z" />
    <glyph glyph-name="f_f_h" unicode="ffh" horiz-adv-x="1104" 
d="M718 709v-274q86 65 152 65q146 0 146 -217q0 -25 -1.5 -126.5t-1.5 -156.5h-57q0 49 1 143.5t1 123.5q0 186 -101 186q-63 0 -139 -66v-387h-58v662q-50 9 -95 9q-68 0 -96.5 -29t-28.5 -99v-50h108v-43h-108v-450h-58v450h-220v-450h-58v450h-87v43h87v77q0 66 30 103
t88 37q51 0 95 -25l-15 -36q-34 15 -66 15q-39 0 -56.5 -22t-17.5 -68v-81h220v47q0 84 37 130t135 46q61 0 108 -7h56z" />
    <glyph glyph-name="f_igrave" unicode="f&#xec;" horiz-adv-x="532" 
d="M440 0h-58v450h-220v-450h-58v450h-87v43h87v96q0 60 25.5 93.5t76.5 33.5q29 0 65 -14l-9 -38q-21 7 -42 7q-58 0 -58 -80v-98h278v-493zM365 724l75 -160l-36 -11l-93 151z" />
    <glyph glyph-name="f_iacute" unicode="f&#xed;" horiz-adv-x="532" 
d="M440 0h-58v450h-220v-450h-58v450h-87v43h87v84q0 65 30 102t88 37q48 0 92 -23l-14 -38q-34 16 -65 16q-73 0 -73 -90v-88h278v-493zM544 684l-142 -121l-30 21l126 133z" />
    <glyph glyph-name="f_icircumflex" unicode="f&#xee;" horiz-adv-x="532" 
d="M536 582l-26 -24l-99 95l-98 -95l-26 24l126 136zM440 0h-58v450h-220v-450h-58v450h-87v43h87v96q0 60 25.5 93.5t76.5 33.5q29 0 65 -14l-10 -38q-21 7 -41 7q-58 0 -58 -80v-98h278v-493z" />
    <glyph glyph-name="f_itilde" unicode="f&#x129;" horiz-adv-x="532" 
d="M511 648l27 -21q-20 -33 -39.5 -48t-51.5 -15q-30 0 -60.5 21t-41.5 21q-16 0 -28 -9.5t-30 -32.5l-27 21q20 33 39.5 48t51.5 15q29 0 60 -21t43 -21q15 0 27 9.5t30 32.5zM440 0h-58v450h-220v-450h-58v450h-87v43h87v96q0 60 25.5 93.5t75.5 33.5q34 0 64 -14l-9 -38
q-20 7 -40 7q-58 0 -58 -80v-98h278v-493z" />
    <glyph glyph-name="f_idieresis" unicode="f&#xef;" horiz-adv-x="532" 
d="M513 640q0 -21 -6 -27.5t-27 -6.5q-22 0 -28.5 6.5t-6.5 27.5q0 22 6.5 28.5t28.5 6.5t27.5 -6t5.5 -29zM385 640q0 -21 -6 -27.5t-27 -6.5q-22 0 -28.5 6.5t-6.5 27.5q0 22 6.5 28.5t28.5 6.5t27.5 -6t5.5 -29zM440 0h-58v450h-220v-450h-58v450h-87v43h87v96
q0 60 25.5 93.5t75.5 33.5q34 0 64 -14l-9 -38q-20 7 -40 7q-58 0 -58 -80v-98h278v-493z" />
    <glyph glyph-name="f_imacron" unicode="f&#x12b;" horiz-adv-x="532" 
d="M529 610h-225v44h225v-44zM440 0h-58v450h-220v-450h-58v450h-87v43h87v96q0 60 25.5 93.5t75.5 33.5q34 0 64 -14l-9 -38q-20 7 -40 7q-58 0 -58 -80v-98h278v-493z" />
    <glyph glyph-name="f_ibreve" unicode="f&#x12d;" horiz-adv-x="532" 
d="M486 671h38q0 -58 -29.5 -90t-84.5 -32q-57 0 -85.5 32t-28.5 90h38q0 -74 76 -74t76 74zM440 0h-58v450h-220v-450h-58v450h-87v43h87v96q0 60 25.5 93.5t75.5 33.5q34 0 64 -14l-9 -38q-20 7 -40 7q-58 0 -58 -80v-98h278v-493z" />
    <glyph glyph-name="f_iogonek" unicode="f&#x12f;" horiz-adv-x="532" 
d="M440 493v-493q-61 -51 -61 -99q0 -37 37 -37q23 0 49 14l12 -31q-33 -24 -75 -24q-76 0 -76 66q0 52 56 111v450h-220v-450h-58v450h-87v43h87v84q0 65 30 102t88 37q48 0 92 -23l-14 -38q-34 16 -65 16q-73 0 -73 -90v-88h278zM449 640q0 -22 -7 -29.5t-30 -7.5
q-25 0 -32 7t-7 30t7.5 30t31.5 7t30.5 -7t6.5 -30z" />
    <glyph glyph-name="f_dotlessi" unicode="f&#x131;" horiz-adv-x="532" 
d="M440 0h-58v450h-220v-450h-58v450h-87v43h87v84q0 65 30 102t88 37q48 0 92 -23l-14 -38q-34 16 -65 16q-73 0 -73 -90v-88h278v-493z" />
    <glyph glyph-name="f_f_igrave" unicode="ff&#xec;" horiz-adv-x="810" 
d="M718 564l-36 -11l-93 151l54 20zM718 0h-58v450h-220v-450h-58v450h-220v-450h-58v450h-87v43h87v77q0 66 30 103t88 37q51 0 95 -25l-15 -36q-34 15 -66 15q-39 0 -56.5 -22t-17.5 -68v-81h220v96q0 60 25.5 93.5t75.5 33.5q30 0 66 -14l-9 -38q-21 7 -42 7
q-58 0 -58 -80v-98h278v-493z" />
    <glyph glyph-name="f_f_iacute" unicode="ff&#xed;" horiz-adv-x="810" 
d="M718 0h-58v450h-220v-450h-58v450h-220v-450h-58v450h-87v43h87v77q0 66 30 103t88 37q51 0 95 -25l-15 -36q-34 15 -66 15q-39 0 -56.5 -22t-17.5 -68v-81h220v84q0 65 30 102t88 37q48 0 92 -23l-14 -38q-34 16 -65 16q-73 0 -73 -90v-88h278v-493zM822 684l-142 -121
l-30 21l126 133z" />
    <glyph glyph-name="f_f_icircumflex" unicode="ff&#xee;" horiz-adv-x="810" 
d="M814 582l-26 -24l-99 95l-98 -95l-26 24l126 136zM718 0h-58v450h-220v-450h-58v450h-220v-450h-58v450h-87v43h87v77q0 66 30 103t88 37q51 0 95 -25l-15 -36q-34 15 -66 15q-39 0 -56.5 -22t-17.5 -68v-81h220v96q0 60 25.5 93.5t75.5 33.5q30 0 66 -14l-10 -38
q-21 7 -41 7q-58 0 -58 -80v-98h278v-493z" />
    <glyph glyph-name="f_f_itilde" unicode="ff&#x129;" horiz-adv-x="810" 
d="M789 648l27 -21q-20 -33 -39.5 -48t-51.5 -15q-29 0 -60 21t-42 21q-16 0 -28 -9.5t-30 -32.5l-27 21q20 33 39.5 48t51.5 15q29 0 60 -21t43 -21q15 0 27 9.5t30 32.5zM718 0h-58v450h-220v-450h-58v450h-220v-450h-58v450h-87v43h87v77q0 66 30 103t88 37q51 0 95 -25
l-15 -36q-34 15 -66 15q-39 0 -56.5 -22t-17.5 -68v-81h220v96q0 60 25.5 93.5t75.5 33.5q34 0 64 -14l-9 -38q-20 7 -40 7q-58 0 -58 -80v-98h278v-493z" />
    <glyph glyph-name="f_f_idieresis" unicode="ff&#xef;" horiz-adv-x="810" 
d="M791 640q0 -21 -6 -27.5t-27 -6.5q-22 0 -28.5 6.5t-6.5 27.5q0 22 6.5 28.5t28.5 6.5t27.5 -6t5.5 -29zM663 640q0 -21 -6 -27.5t-27 -6.5q-22 0 -28.5 6.5t-6.5 27.5q0 22 6.5 28.5t28.5 6.5t27.5 -6t5.5 -29zM718 0h-58v450h-220v-450h-58v450h-220v-450h-58v450h-87
v43h87v77q0 66 30 103t88 37q51 0 95 -25l-15 -36q-34 15 -66 15q-39 0 -56.5 -22t-17.5 -68v-81h220v96q0 60 25.5 93.5t75.5 33.5q34 0 64 -14l-9 -38q-20 7 -40 7q-58 0 -58 -80v-98h278v-493z" />
    <glyph glyph-name="f_f_imacron" unicode="ff&#x12b;" horiz-adv-x="810" 
d="M807 610h-225v44h225v-44zM718 0h-58v450h-220v-450h-58v450h-220v-450h-58v450h-87v43h87v77q0 66 30 103t88 37q51 0 95 -25l-15 -36q-34 15 -66 15q-39 0 -56.5 -22t-17.5 -68v-81h220v96q0 60 25.5 93.5t75.5 33.5q34 0 64 -14l-9 -38q-20 7 -40 7q-58 0 -58 -80v-98
h278v-493z" />
    <glyph glyph-name="f_f_ibreve" unicode="ff&#x12d;" horiz-adv-x="810" 
d="M764 671h38q0 -58 -29.5 -90t-84.5 -32q-57 0 -85.5 32t-28.5 90h38q0 -74 76 -74t76 74zM718 0h-58v450h-220v-450h-58v450h-220v-450h-58v450h-87v43h87v77q0 66 30 103t88 37q51 0 95 -25l-15 -36q-34 15 -66 15q-39 0 -56.5 -22t-17.5 -68v-81h220v96q0 60 25.5 93.5
t75.5 33.5q34 0 64 -14l-9 -38q-20 7 -40 7q-58 0 -58 -80v-98h278v-493z" />
    <glyph glyph-name="f_f_iogonek" unicode="ff&#x12f;" horiz-adv-x="810" 
d="M718 493v-493q-61 -51 -61 -99q0 -37 37 -37q23 0 49 14l12 -31q-33 -24 -75 -24q-76 0 -76 66q0 52 56 111v450h-220v-450h-58v450h-220v-450h-58v450h-87v43h87v77q0 66 30 103t88 37q51 0 95 -25l-15 -36q-34 15 -66 15q-39 0 -56.5 -22t-17.5 -68v-81h220v84
q0 65 30 102t88 37q48 0 92 -23l-14 -38q-34 16 -65 16q-73 0 -73 -90v-88h278zM727 640q0 -23 -6.5 -30t-30.5 -7t-31.5 7t-7.5 30t7 30t32 7q24 0 30.5 -7t6.5 -30z" />
    <glyph glyph-name="f_f_dotlessi" unicode="ff&#x131;" horiz-adv-x="810" 
d="M718 0h-58v450h-220v-450h-58v450h-220v-450h-58v450h-87v43h87v77q0 66 30 103t88 37q51 0 95 -25l-15 -36q-34 15 -66 15q-39 0 -56.5 -22t-17.5 -68v-81h220v84q0 65 30 102t88 37q48 0 92 -23l-14 -38q-34 16 -65 16q-73 0 -73 -90v-88h278v-493z" />
    <glyph glyph-name="f_ij" unicode="f&#x133;" horiz-adv-x="827" 
d="M735 493v-479q0 -109 -45.5 -150t-135.5 -41q-68 0 -146 26l7 36q85 -15 134 -15q66 0 96.5 28t30.5 97v22q0 11 1 28t1 20q-85 -66 -153 -66q-147 0 -147 216q0 35 1.5 121.5t1.5 113.5h-219v-450h-58v450h-87v43h87v84q0 65 30 102t88 37q48 0 92 -23l-14 -38
q-34 16 -65 16q-73 0 -73 -90v-88h277q0 -43 -1 -134.5t-1 -127.5q0 -185 101 -185q61 0 138 65v382h59zM452 640q0 -23 -7 -30t-31 -7t-31 7t-7 30q0 24 7 30.5t31 6.5t31 -6.5t7 -30.5zM741 640q0 -23 -6.5 -30t-30.5 -7t-31.5 7t-7.5 30t7 30t32 7q24 0 30.5 -6.5
t6.5 -30.5z" />
    <glyph glyph-name="f_j" unicode="fj" horiz-adv-x="532" 
d="M440 493v-457q0 -73 -20.5 -121.5t-72.5 -90.5l-32 22q67 69 67 171v433h-220v-450h-58v450h-87v43h87v84q0 65 30 102t88 37q48 0 92 -23l-14 -38q-34 16 -65 16q-73 0 -73 -90v-88h278zM449 640q0 -23 -6.5 -30t-30.5 -7t-31.5 7t-7.5 30t7 30t32 7q24 0 30.5 -7
t6.5 -30z" />
    <glyph glyph-name="f_jcircumflex" unicode="f&#x135;" horiz-adv-x="532" 
d="M536 582l-26 -24l-99 95l-98 -95l-26 24l126 136zM440 493v-457q0 -73 -20.5 -121.5t-72.5 -90.5l-32 22q67 69 67 171v433h-220v-450h-58v450h-87v43h87v96q0 60 25.5 93.5t76.5 33.5q29 0 65 -14l-10 -38q-21 7 -41 7q-58 0 -58 -80v-98h278z" />
    <glyph glyph-name="f_f_j" unicode="ffj" horiz-adv-x="810" 
d="M718 493v-457q0 -73 -20.5 -121.5t-72.5 -90.5l-32 22q67 69 67 171v433h-220v-450h-58v450h-220v-450h-58v450h-87v43h87v77q0 66 30 103t88 37q51 0 95 -25l-15 -36q-34 15 -66 15q-39 0 -56.5 -22t-17.5 -68v-81h220v84q0 65 30 102t88 37q48 0 92 -23l-14 -38
q-34 16 -65 16q-73 0 -73 -90v-88h278zM727 640q0 -23 -6.5 -30t-30.5 -7t-31.5 7t-7.5 30t7 30t32 7q24 0 30.5 -7t6.5 -30z" />
    <glyph glyph-name="f_k" unicode="fk" horiz-adv-x="732" 
d="M714 0h-72l-200 264h-2v-264h-58v662q-50 9 -95 9q-68 0 -96.5 -29t-28.5 -99v-50h108v-43h-108v-450h-58v450h-87v43h87v47q0 84 37 130t135 46q61 0 108 -7h56v-423h2l174 207h73l-193 -211z" />
    <glyph glyph-name="f_kcommaaccent" unicode="f&#x137;" horiz-adv-x="732" 
d="M714 0h-72l-200 264h-2v-264h-58v662q-50 9 -95 9q-68 0 -96.5 -29t-28.5 -99v-50h108v-43h-108v-450h-58v450h-87v43h87v47q0 84 37 130t135 46q61 0 108 -7h56v-423h2l174 207h73l-193 -211zM533 -40q32 0 32 -32q0 -38 -21.5 -62t-65.5 -42l-13 24q46 27 46 50
q0 6 -5 13t-5 20q0 29 32 29z" />
    <glyph glyph-name="f_f_k" unicode="ffk" horiz-adv-x="1010" 
d="M992 0h-72l-200 264h-2v-264h-58v662q-50 9 -95 9q-68 0 -96.5 -29t-28.5 -99v-50h108v-43h-108v-450h-58v450h-220v-450h-58v450h-87v43h87v77q0 66 30 103t88 37q51 0 95 -25l-15 -36q-34 15 -66 15q-39 0 -56.5 -22t-17.5 -68v-81h220v47q0 84 37 130t135 46
q61 0 108 -7h56v-423h2l174 207h73l-193 -211z" />
    <glyph glyph-name="f_lacute" unicode="f&#x13a;" horiz-adv-x="552" 
d="M512 41l4 -39q-30 -8 -57 -8q-43 0 -60 19.5t-17 77.5v571q-52 9 -95 9q-68 0 -96.5 -29t-28.5 -99v-50h108v-43h-108v-450h-58v450h-87v43h87v47q0 84 37 130t135 46q61 0 108 -7h56v-596q0 -47 7.5 -60.5t32.5 -13.5q16 0 32 2zM372 769l162 90l29 -47l-172 -74z" />
    <glyph glyph-name="f_lcaron" unicode="f&#x13e;" horiz-adv-x="564" 
d="M512 41l4 -39q-30 -8 -57 -8q-43 0 -60 19.5t-17 77.5v571q-52 9 -95 9q-68 0 -96.5 -29t-28.5 -99v-50h108v-43h-108v-450h-58v450h-87v43h87v47q0 84 37 130t135 46q61 0 108 -7h56v-596q0 -47 7.5 -60.5t32.5 -13.5q16 0 32 2zM577 735l-54 -167l-34 8l35 170z" />
    <glyph glyph-name="f_lcommaaccent" unicode="f&#x13c;" horiz-adv-x="552" 
d="M512 41l4 -39q-30 -8 -57 -8q-43 0 -60 19.5t-17 77.5v571q-52 9 -95 9q-68 0 -96.5 -29t-28.5 -99v-50h108v-43h-108v-450h-58v450h-87v43h87v47q0 84 37 130t135 46q61 0 108 -7h56v-596q0 -47 7.5 -60.5t32.5 -13.5q16 0 32 2zM460 -40q32 0 32 -32q0 -38 -21.5 -62
t-65.5 -42l-13 24q46 27 46 50q0 6 -5 13t-5 20q0 29 32 29z" />
    <glyph glyph-name="f_lslash" unicode="f&#x142;" horiz-adv-x="554" 
d="M512 41l4 -39q-30 -8 -57 -8q-43 0 -60 19.5t-17 77.5v251l-79 -44v51l79 43v270q-52 9 -95 9q-68 0 -96.5 -29t-28.5 -99v-50h107v-43h-107v-450h-58v450h-87v43h87v47q0 84 37 130t135 46q61 0 108 -7h56v-285l78 43v-50l-78 -44v-260q0 -47 7.5 -60.5t32.5 -13.5
q16 0 32 2z" />
    <glyph glyph-name="f_thorn" unicode="f&#xfe;" horiz-adv-x="802" 
d="M745 265q0 -137 -65.5 -204.5t-169.5 -67.5q-44 0 -70 5v-171h-58v835q-50 9 -95 9q-68 0 -96.5 -29t-28.5 -99v-50h108v-43h-108v-450h-58v450h-87v43h87v47q0 84 37 130t135 46q61 0 108 -7h56v-270q74 61 141 61q73 0 118.5 -65.5t45.5 -169.5zM440 389v-338
q34 -13 85 -13q71 0 115 54.5t44 157.5q0 91 -31 147t-86 56q-57 0 -127 -64z" />
    <glyph glyph-name="f_f_thorn" unicode="ff&#xfe;" horiz-adv-x="1080" 
d="M1023 265q0 -137 -65.5 -204.5t-169.5 -67.5q-44 0 -70 5v-171h-58v835q-50 9 -95 9q-68 0 -96.5 -29t-28.5 -99v-50h108v-43h-108v-450h-58v450h-220v-450h-58v450h-87v43h87v77q0 66 30 103t88 37q51 0 95 -25l-15 -36q-34 15 -66 15q-39 0 -56.5 -22t-17.5 -68v-81
h220v47q0 84 37 130t135 46q61 0 108 -7h56v-270q74 61 141 61q73 0 118.5 -65.5t45.5 -169.5zM718 389v-338q34 -13 85 -13q71 0 115 54.5t44 157.5q0 91 -31 147t-86 56q-57 0 -127 -64z" />
    <glyph glyph-name=".notdef" horiz-adv-x="550" 
d="M300 150h-150v250h50v-200h100v-50zM500 50h-450v450h450v-450zM350 350h-100v50h150v-250h-50v100h-100v50h100v50zM100 100h350v350h-350v-350z" />
    <glyph glyph-name=".null" horiz-adv-x="0" 
 />
    <glyph glyph-name="nonmarkingreturn" horiz-adv-x="333" 
 />
    <glyph glyph-name="CR" unicode="&#xd;" horiz-adv-x="0" 
 />
    <glyph glyph-name="space" unicode=" " horiz-adv-x="240" 
 />
    <glyph glyph-name="exclam" unicode="!" horiz-adv-x="371" 
d="M241 137h-47l-12 538h72zM258 35q0 -24 -8.5 -32.5t-33.5 -8.5t-33.5 8t-8.5 32t8.5 32t34.5 8q25 0 33 -8t8 -31z" />
    <glyph glyph-name="quotedbl" unicode="&#x22;" horiz-adv-x="423" 
d="M144 423h-43l-10 252h62zM317 423h-43l-9 252h62z" />
    <glyph glyph-name="numbersign" unicode="#" horiz-adv-x="503" 
d="M471 213h-122l-24 -213h-51l24 213h-128l-24 -213h-51l24 213h-87v43h92l23 195h-115v42h121l21 182h51l-22 -182h129l21 182h51l-22 -182h89v-42h-94l-23 -195h117v-43zM303 256l24 195h-129l-23 -195h128z" />
    <glyph glyph-name="dollar" unicode="$" 
d="M264 -105h-39l-5 106q-78 3 -157 49l21 35q64 -38 144 -38q70 0 111 32t41 87q0 37 -23 65t-57.5 44t-75 35.5t-75 38.5t-57.5 54t-23 81q0 61 40.5 103.5t110.5 50.5l5 106h39l6 -105q71 -4 128 -37l-16 -35q-58 28 -129 28q-60 0 -92 -29.5t-32 -74.5q0 -44 32.5 -75
t78.5 -50.5t92 -41t78.5 -59.5t32.5 -93q0 -68 -47 -113.5t-126 -56.5z" />
    <glyph glyph-name="percent" unicode="%" horiz-adv-x="689" 
d="M327 526q0 -68 -34.5 -112t-98.5 -44q-127 0 -127 153q0 72 35.5 115.5t98.5 43.5q66 0 96 -43.5t30 -112.5zM274 522q0 120 -77 120t-77 -114q0 -118 78 -118q76 0 76 112zM622 149q0 -68 -34.5 -112t-98.5 -44q-127 0 -127 153q0 72 35.5 115.5t98.5 43.5
q66 0 96 -43.5t30 -112.5zM569 145q0 120 -77 120t-77 -114q0 -118 77 -118t77 112zM602 667l-479 -682l-35 23l479 682z" />
    <glyph glyph-name="ampersand" unicode="&#x26;" horiz-adv-x="702" 
d="M656 39v-36q-22 -10 -52 -10q-43 0 -146 86q-91 -86 -211 -86q-90 0 -137 44t-47 119q0 68 33.5 116.5t92.5 90.5q-75 104 -75 168q0 67 44.5 109t122.5 42q70 0 108.5 -33.5t38.5 -85.5q0 -27 -10 -52t-20.5 -41.5t-37 -38.5t-39 -30.5t-47.5 -31.5q-8 -5 -12 -8
q58 -73 140 -153l58 -57q74 103 74 221h58q0 -58 -25.5 -126.5t-71.5 -126.5q93 -80 130 -80h31zM262 38q88 0 161 71q-33 30 -63 61q-82 81 -145 159q-93 -72 -93 -160q0 -63 36 -97t104 -34zM172 540q0 -54 64 -145q38 25 52.5 36t39 33t34 42.5t9.5 45.5q0 38 -24.5 62.5
t-74.5 24.5q-47 0 -73.5 -27.5t-26.5 -71.5z" />
    <glyph glyph-name="quotesingle" unicode="'" horiz-adv-x="320" 
d="M185 423h-43l-9 252h61z" />
    <glyph glyph-name="parenleft" unicode="(" horiz-adv-x="310" 
d="M253 -154l-39 -17q-59 91 -93 208t-34 233q0 127 35.5 245t91.5 209l39 -17q-107 -210 -107 -426q0 -221 107 -435z" />
    <glyph glyph-name="parenright" unicode=")" horiz-adv-x="310" 
d="M96 -170l-39 17q107 210 107 426q0 221 -107 435l39 17q59 -91 93 -208t34 -233q0 -127 -35.5 -245t-91.5 -209z" />
    <glyph glyph-name="asterisk" unicode="*" 
d="M429 456l-30 -52l-129 89l10 -156h-59l11 156l-129 -89l-30 52l140 69l-140 69l30 52l129 -89l-11 156h59l-10 -156l129 89l30 -52l-140 -69z" />
    <glyph glyph-name="plus" unicode="+" 
d="M453 274h-178v-194h-51v194h-180v45h180v191h51v-191h178v-45z" />
    <glyph glyph-name="comma" unicode="," horiz-adv-x="305" 
d="M88 -141l-24 29q71 46 71 90q0 13 -11 24.5t-11 29.5q0 27 7.5 36t35.5 9q24 0 32 -10t8 -33q0 -62 -25 -101t-83 -74z" />
    <glyph glyph-name="hyphen" unicode="&#xad;" horiz-adv-x="231" 
d="M230 270h-195v48h195v-48z" />
    <glyph glyph-name="hyphen" unicode="-" horiz-adv-x="231" 
d="M230 270h-195v48h195v-48z" />
    <glyph glyph-name="period" unicode="." horiz-adv-x="290" 
d="M196 36q0 -26 -8 -34t-33 -8t-33.5 8t-8.5 32q0 26 8.5 34.5t34.5 8.5q25 0 32.5 -8t7.5 -33z" />
    <glyph glyph-name="slash" unicode="/" 
d="M484 709l-428 -813h-56l428 813h56z" />
    <glyph glyph-name="zero" unicode="0" 
d="M452 289q0 -296 -208 -296q-99 0 -148 65t-49 217q0 296 208 296q99 0 148 -65t49 -217zM391 282q0 129 -35 185.5t-106 56.5q-72 0 -107 -57t-35 -185q0 -129 35 -185.5t106 -56.5t106.5 57.5t35.5 184.5z" />
    <glyph glyph-name="one" unicode="1" 
d="M441 0h-364v51h160v451l-144 -50l-13 38l170 74h48v-513h143v-51z" />
    <glyph glyph-name="two" unicode="2" 
d="M439 0h-377v42q183 155 239 223.5t56 134.5q0 64 -36 93t-92 29q-60 0 -143 -26l-11 42q95 33 168 33q80 0 129.5 -40t49.5 -122t-56.5 -150.5t-226.5 -207.5h300v-51z" />
    <glyph glyph-name="three" unicode="3" 
d="M36 -74l8 38q93 -25 163 -25q154 0 154 145q0 72 -35 108.5t-116 36.5h-68v48h65q133 0 133 133q0 113 -126 113q-69 0 -143 -24l-10 41q87 31 165 31q91 0 134 -42t43 -111q0 -65 -30.5 -106t-76.5 -53q130 -20 130 -168q0 -99 -56.5 -150.5t-160.5 -51.5q-74 0 -173 37
z" />
    <glyph glyph-name="four" unicode="4" 
d="M292 564h85v-460h87v-51h-87v-157h-58v157h-288v44q136 266 261 467zM319 104v411h-1q-118 -192 -230 -411h231z" />
    <glyph glyph-name="five" unicode="5" 
d="M384 512h-244l-15 -225q56 9 104 9q98 0 149.5 -49t51.5 -139q0 -104 -57 -161.5t-162 -57.5q-73 0 -172 37l7 38q95 -25 165 -25q156 0 156 161q0 148 -160 148q-66 0 -136 -16l22 332h291v-52z" />
    <glyph glyph-name="six" unicode="6" 
d="M433 654l-8 -39q-76 20 -133 20q-84 0 -123 -72.5t-40 -226.5q88 50 154 50q80 0 122.5 -46t42.5 -129q0 -104 -50.5 -161t-137.5 -57q-44 0 -77 14.5t-60 48.5t-41.5 97.5t-14.5 154.5q0 109 17.5 185.5t50.5 116t70.5 56t86.5 16.5q54 0 141 -28zM130 291v-4
q0 -129 32.5 -188t101.5 -59q123 0 123 163q0 135 -122 135q-56 0 -135 -47z" />
    <glyph glyph-name="seven" unicode="7" 
d="M456 520l-147 -309q-88 -185 -165 -321l-40 16l280 606h-336v52h408v-44z" />
    <glyph glyph-name="eight" unicode="8" 
d="M436 531q0 -61 -35 -101t-100 -77q72 -38 111 -79.5t39 -110.5q0 -75 -53 -122.5t-152 -47.5q-96 0 -146.5 43t-50.5 115q0 68 39.5 110.5t112.5 83.5q-66 36 -101.5 75.5t-35.5 99.5q0 72 51 117t141 45q95 0 137.5 -42t42.5 -109zM390 156q0 30 -11 54.5t-34.5 45.5
t-44.5 34t-56 32q-66 -37 -100 -72t-34 -89q0 -58 37.5 -90t108.5 -32q60 0 97 31.5t37 85.5zM125 528q0 -52 33 -85t98 -67q58 33 88.5 66.5t30.5 81.5q0 113 -126 113q-58 0 -91 -30t-33 -79z" />
    <glyph glyph-name="nine" unicode="9" 
d="M55 -82l6 39q84 -21 147 -21q83 0 122.5 71.5t40.5 221.5q-88 -50 -154 -50q-80 0 -122.5 45.5t-42.5 128.5q0 104 50.5 161t137.5 57q92 0 142.5 -69.5t50.5 -244.5q0 -108 -17.5 -183t-50.5 -114t-70.5 -55t-85.5 -16q-63 0 -154 29zM113 362q0 -135 123 -135
q57 0 134 46v4q0 129 -32.5 188.5t-101.5 59.5q-123 0 -123 -163z" />
    <glyph glyph-name="colon" unicode=":" horiz-adv-x="306" 
d="M207 452q0 -24 -8.5 -32.5t-32.5 -8.5t-32.5 8t-8.5 31q0 24 9 32.5t33 8.5q23 0 31.5 -8t8.5 -31zM207 41q0 -24 -8.5 -32.5t-32.5 -8.5t-32.5 8t-8.5 31q0 24 9 32.5t33 8.5q23 0 31.5 -8t8.5 -31z" />
    <glyph glyph-name="semicolon" unicode=";" horiz-adv-x="306" 
d="M207 452q0 -24 -8.5 -32.5t-32.5 -8.5t-33 8t-9 31q0 24 9 32.5t33 8.5t32.5 -8t8.5 -31zM98 -141l-23 27q72 48 72 93q0 12 -11.5 23t-11.5 30q0 25 8 33.5t35 8.5q23 0 31.5 -9.5t8.5 -31.5q0 -59 -25.5 -98.5t-83.5 -75.5z" />
    <glyph glyph-name="less" unicode="&#x3c;" 
d="M446 121l-22 -45l-384 199v43l384 200l22 -44l-344 -177z" />
    <glyph glyph-name="equal" unicode="=" 
d="M449 369h-398v47h398v-47zM449 178h-398v46h398v-46z" />
    <glyph glyph-name="greater" unicode="&#x3e;" 
d="M460 275l-384 -199l-22 44l344 176l-344 176l22 46l384 -200v-43z" />
    <glyph glyph-name="question" unicode="?" 
d="M423 537q0 -43 -16.5 -79t-40.5 -62t-48.5 -51t-41.5 -58.5t-18 -72.5l-1 -77h-47l-4 85q-2 35 13.5 68.5t38 61.5t45.5 54.5t39.5 57t16.5 60.5q0 50 -34 80t-93 30q-61 0 -130 -21l-12 38q80 31 153 31q90 0 135 -40.5t45 -104.5zM275 34q0 -24 -8 -32t-33 -8
q-26 0 -34.5 8t-8.5 32t8.5 32t34.5 8q25 0 33 -8t8 -32z" />
    <glyph glyph-name="at" unicode="@" horiz-adv-x="1004" 
d="M728 -62l11 -37q-54 -26 -130.5 -42.5t-146.5 -16.5q-374 0 -374 359q0 104 31 195.5t89 161.5t148 110.5t202 40.5q161 0 240.5 -80t79.5 -220q0 -146 -71.5 -238t-213.5 -92h-29l4 103q-82 -109 -160 -109q-116 0 -116 155q0 125 60.5 196.5t174.5 71.5q66 0 126 -16
l-39 -355q105 0 156.5 74t51.5 191q0 134 -64.5 205t-210.5 71q-99 0 -178 -38.5t-126.5 -103t-72 -144t-24.5 -167.5q0 -165 76 -246.5t253 -81.5q57 0 131 16t122 37zM569 242l23 199q-45 10 -75 10q-83 0 -123.5 -57.5t-40.5 -152.5q0 -120 72 -120q31 0 64.5 29t79.5 92
z" />
    <glyph glyph-name="A" unicode="A" horiz-adv-x="516" 
d="M495 0h-66q-21 86 -40 153h-270q-28 -111 -37 -153h-62q87 348 199 675h72q129 -375 204 -675zM130 202h248q-67 227 -128 409h-2q-83 -273 -118 -409z" />
    <glyph glyph-name="B" unicode="B" horiz-adv-x="534" 
d="M99 0v675h166q91 0 138.5 -42.5t47.5 -108.5q0 -60 -31.5 -101t-80.5 -58q64 -8 106 -50.5t42 -113.5q0 -91 -63.5 -147t-185.5 -56q-33 0 -78 1t-61 1zM160 628v-249h76q78 0 115 39.5t37 95.5q0 52 -33 83t-101 31h-94zM160 332v-281q50 -5 99 -5q81 0 122 40.5
t41 107.5q0 65 -42 101.5t-130 36.5h-90z" />
    <glyph glyph-name="C" unicode="C" horiz-adv-x="519" 
d="M452 122l28 -31q-78 -98 -192 -98q-108 0 -168 85.5t-60 249.5t66 259t174 95q116 0 169 -111l-33 -24q-50 85 -134 85q-59 0 -100.5 -43.5t-59 -107t-17.5 -139.5q0 -148 45.5 -223t131.5 -75q82 0 150 78z" />
    <glyph glyph-name="D" unicode="D" horiz-adv-x="573" 
d="M99 0v675q22 0 66.5 0.5t68.5 0.5q75 0 130.5 -26t87 -72t46.5 -102t15 -123q0 -170 -74.5 -262t-221.5 -92q-25 0 -65.5 0.5t-52.5 0.5zM160 626v-575q36 -3 73 -3q215 0 215 295q0 284 -224 284q-43 0 -64 -1z" />
    <glyph glyph-name="E" unicode="E" horiz-adv-x="471" 
d="M411 0h-312v675h308v-50h-247v-248h203v-49h-203v-278h251v-50z" />
    <glyph glyph-name="F" unicode="F" horiz-adv-x="449" 
d="M401 626h-241v-257h221v-49h-221v-320h-61v675h302v-49z" />
    <glyph glyph-name="G" unicode="G" horiz-adv-x="570" 
d="M481 358v-290q-79 -75 -189 -75q-108 0 -170 83.5t-62 255.5q0 163 71 256.5t172 93.5q89 0 169 -74l-27 -31q-67 55 -136 55q-83 0 -133.5 -76t-50.5 -212q0 -153 47 -226.5t131 -73.5q72 0 117 38v228h-105v48h166z" />
    <glyph glyph-name="H" unicode="H" horiz-adv-x="658" 
d="M559 0h-61v329h-338v-329h-61v675h61v-293h338v293h61v-675z" />
    <glyph glyph-name="I" unicode="I" horiz-adv-x="259" 
d="M160 0h-61v675h61v-675z" />
    <glyph glyph-name="J" unicode="J" horiz-adv-x="268" 
d="M169 675v-607q0 -87 -17 -141.5t-66 -99.5l-31 26q31 36 42 85.5t11 126.5v610h61z" />
    <glyph glyph-name="K" unicode="K" horiz-adv-x="511" 
d="M483 0h-76l-246 341h-1v-341h-61v675h61v-306h1l232 306h72l-248 -310z" />
    <glyph glyph-name="L" unicode="L" horiz-adv-x="421" 
d="M402 0h-303v675h61v-625h242v-50z" />
    <glyph glyph-name="M" unicode="M" horiz-adv-x="837" 
d="M749 0h-65q-8 350 -41 600h-1l-207 -600h-45l-209 600h-1q-25 -253 -30 -600h-62q8 341 50 675h80l199 -570h1l198 570h78q47 -351 55 -675z" />
    <glyph glyph-name="N" unicode="N" horiz-adv-x="652" 
d="M553 0h-55l-251 432l-96 168h-1q3 -82 3 -155v-445h-54v675h78l224 -385l99 -174h1q-3 89 -3 161v398h55v-675z" />
    <glyph glyph-name="O" unicode="O" horiz-adv-x="635" 
d="M575 348q0 -181 -71.5 -268t-193.5 -87q-119 0 -184.5 81t-65.5 253q0 181 72 268t193 87q119 0 184.5 -81t65.5 -253zM510 334q0 300 -195 300q-90 0 -140 -71.5t-50 -221.5q0 -299 195 -299q190 0 190 292z" />
    <glyph glyph-name="P" unicode="P" horiz-adv-x="504" 
d="M160 0h-61v675q15 0 55.5 0.5t77.5 0.5q241 0 241 -198q0 -98 -66 -159.5t-203 -61.5h-44v-257zM160 628v-321h62q94 0 140 43t46 119q0 78 -43 118.5t-142 40.5h-63z" />
    <glyph glyph-name="Q" unicode="Q" horiz-adv-x="635" 
d="M696 -119l-22 -28q-53 30 -118 32q-16 0 -43 -1.5t-39 -1.5q-48 0 -85 23t-75 88q-121 -2 -187.5 80t-66.5 254q0 181 72 268t194 87q118 0 183.5 -81t65.5 -252q0 -161 -57.5 -248.5t-159.5 -103.5q50 -63 137 -63q12 0 36 1t37 1q77 0 128 -55zM510 334q0 300 -195 300
q-90 0 -140 -71.5t-50 -220.5q0 -300 195 -300q190 0 190 292z" />
    <glyph glyph-name="R" unicode="R" horiz-adv-x="529" 
d="M516 0h-75l-216 307h-65v-307h-61v675q16 0 66.5 0.5t89.5 0.5q109 0 164.5 -46t55.5 -126q0 -48 -16.5 -84t-45 -57t-59 -32t-66.5 -16zM160 627v-272h90q75 0 117.5 36.5t42.5 101.5q0 66 -39.5 100t-127.5 34h-83z" />
    <glyph glyph-name="S" unicode="S" horiz-adv-x="496" 
d="M451 179q0 -83 -59 -134.5t-153 -51.5q-91 0 -180 52l17 36q88 -39 156 -39q70 0 111.5 33.5t41.5 95.5q0 48 -33.5 81.5t-80.5 54.5t-94.5 43.5t-81 63.5t-33.5 100q0 74 53.5 121t137.5 47q86 0 154 -43l-16 -35q-70 30 -131 30q-66 0 -100 -31t-34 -80
q0 -48 33.5 -81.5t81 -55t95.5 -44.5t81.5 -64t33.5 -99z" />
    <glyph glyph-name="T" unicode="T" horiz-adv-x="466" 
d="M450 625h-187v-625h-61v625h-186v50h434v-50z" />
    <glyph glyph-name="U" unicode="U" horiz-adv-x="652" 
d="M555 675v-425q0 -130 -63 -193.5t-177 -63.5q-111 0 -164.5 58.5t-53.5 186.5v437h61v-427q0 -113 40.5 -160t130.5 -47q81 0 123 46.5t42 156.5v431h61z" />
    <glyph glyph-name="V" unicode="V" horiz-adv-x="514" 
d="M431 675h63q-88 -365 -202 -675h-69q-127 366 -203 675h67q59 -256 176 -608h1q101 308 167 608z" />
    <glyph glyph-name="W" unicode="W" horiz-adv-x="847" 
d="M759 675h62q-86 -364 -189 -675h-67l-123 470l-21 91h-1l-20 -94l-114 -467h-69q-108 319 -191 675h66q58 -258 163 -597h1l13 59l130 538h53l136 -524l17 -73h2q94 321 152 597z" />
    <glyph glyph-name="X" unicode="X" horiz-adv-x="540" 
d="M507 0h-71q-93 186 -172 304h-1q-104 -156 -168 -304h-65q69 152 201 351q-103 161 -183 324h70q76 -156 151 -275h2q95 140 151 275h65q-66 -146 -184 -318q125 -195 204 -357z" />
    <glyph glyph-name="Y" unicode="Y" horiz-adv-x="480" 
d="M412 675h68q-46 -92 -67 -133.5t-62.5 -114.5t-79.5 -128v-299h-61v299q-106 160 -209 376h70q94 -197 174 -323h1q84 128 166 323z" />
    <glyph glyph-name="Z" unicode="Z" horiz-adv-x="485" 
d="M442 0h-399v42l312 583h-296l2 50h367v-40l-313 -583h329z" />
    <glyph glyph-name="bracketleft" unicode="[" horiz-adv-x="351" 
d="M282 -173h-152v912h152v-42h-98v-828h98v-42z" />
    <glyph glyph-name="backslash" unicode="\" 
d="M500 -104h-57l-427 813h57z" />
    <glyph glyph-name="bracketright" unicode="]" horiz-adv-x="351" 
d="M221 -173h-152v42h98v828h-98v42h152v-912z" />
    <glyph glyph-name="asciicircum" unicode="^" 
d="M455 388l-47 -21l-158 293l-159 -293l-46 22l177 320h56z" />
    <glyph glyph-name="underscore" unicode="_" 
d="M500 -174h-500v47h500v-47z" />
    <glyph glyph-name="grave" unicode="`" horiz-adv-x="334" 
d="M253 584l-30 -21l-142 121l46 33z" />
    <glyph glyph-name="a" unicode="a" horiz-adv-x="486" 
d="M395 0h-47l-5 59q-80 -66 -158 -66q-62 0 -100.5 35.5t-38.5 95.5q0 162 245 162h46v58q0 57 -28.5 84t-92.5 27q-58 0 -134 -29l-11 39q80 35 163 35q161 0 161 -146v-354zM337 101v142h-51q-102 0 -141 -29t-39 -82q0 -95 94 -95q64 0 137 64z" />
    <glyph glyph-name="b" unicode="b" horiz-adv-x="512" 
d="M92 7v702h58v-270q75 61 142 61q72 0 118 -66t46 -170q0 -137 -66 -204t-172 -67q-60 0 -126 14zM150 390v-339q39 -13 85 -13q70 0 115 54.5t45 157.5q0 91 -31 147t-87 56q-24 0 -59 -16.5t-68 -46.5z" />
    <glyph glyph-name="c" unicode="c" horiz-adv-x="429" 
d="M371 96l24 -30q-66 -73 -156 -73q-88 0 -135 62.5t-47 183.5t51 191t135 70t138 -60l-24 -31q-51 45 -108 45q-62 0 -96.5 -54.5t-34.5 -149.5q0 -210 133 -210q61 0 120 56z" />
    <glyph glyph-name="d" unicode="d" horiz-adv-x="512" 
d="M420 0h-47l-7 57q-82 -64 -148 -64q-71 0 -116 65t-45 170q0 139 65.5 205.5t164.5 66.5q37 0 75 -4v213h58v-709zM362 103v338q-45 14 -88 14q-70 0 -113 -54t-43 -158q0 -93 31 -148t86 -55t127 63z" />
    <glyph glyph-name="e" unicode="e" horiz-adv-x="482" 
d="M417 243h-299v-11q0 -101 36.5 -146.5t110.5 -45.5q68 0 138 32l14 -38q-82 -41 -168 -41q-192 0 -192 239q0 128 50.5 198t142.5 70q181 0 167 -257zM118 286h242v3q0 79 -29 123t-87 44t-90 -47.5t-36 -122.5z" />
    <glyph glyph-name="f" unicode="f" horiz-adv-x="291" 
d="M324 688l-15 -36q-38 19 -71 19q-76 0 -76 -90v-88h118v-43h-118v-450h-58v450h-87v43h87v84q0 65 30.5 102t89.5 37q54 0 100 -28z" />
    <glyph glyph-name="g" unicode="g" horiz-adv-x="512" 
d="M420 486v-472q0 -109 -45.5 -150t-135.5 -41q-68 0 -146 26l7 36q85 -15 135 -15q66 0 96.5 28t30.5 97v78q-79 -59 -145 -59q-69 0 -114.5 64.5t-45.5 163.5q0 127 66.5 192.5t162.5 65.5q60 0 134 -14zM362 122v318q-42 15 -89 15q-68 0 -111.5 -53t-43.5 -143
t31 -144.5t87 -54.5t126 62z" />
    <glyph glyph-name="h" unicode="h" horiz-adv-x="537" 
d="M445 0h-57q0 49 1 143.5t1 123.5q0 186 -101 186q-61 0 -139 -66v-387h-58v709h58v-274q86 65 152 65q146 0 146 -217q0 -25 -1.5 -126.5t-1.5 -156.5z" />
    <glyph glyph-name="i" unicode="i" horiz-adv-x="243" 
d="M159 640q0 -23 -6.5 -30t-30.5 -7t-31.5 7t-7.5 30t7 30t32 7q24 0 30.5 -6.5t6.5 -30.5zM150 0h-58v493h58v-493z" />
    <glyph glyph-name="j" unicode="j" horiz-adv-x="243" 
d="M150 493v-457q0 -73 -20.5 -121.5t-71.5 -90.5l-33 22q67 69 67 171v476h58zM159 640q0 -23 -6.5 -30t-30.5 -7t-31.5 7t-7.5 30t7 30t32 7q24 0 30.5 -6.5t6.5 -30.5z" />
    <glyph glyph-name="k" unicode="k" horiz-adv-x="443" 
d="M424 0h-72l-200 264h-2v-264h-58v709h58v-423h2l174 207h74l-194 -211z" />
    <glyph glyph-name="l" unicode="l" horiz-adv-x="263" 
d="M223 41l4 -39q-32 -8 -57 -8q-43 0 -60.5 19.5t-17.5 77.5v618h58v-596q0 -46 7.5 -60t33.5 -14q16 0 32 2z" />
    <glyph glyph-name="m" unicode="m" horiz-adv-x="811" 
d="M720 0h-58q0 44 1 137.5t1 129.5q0 186 -94 186q-58 0 -143 -74q9 -40 9 -95v-284h-58v267q0 186 -94 186q-56 0 -134 -66v-387h-58v493h49l6 -61q85 68 153 68q81 0 115 -81q98 81 171 81q62 0 99.5 -51.5t37.5 -164.5q0 -32 -1.5 -133t-1.5 -151z" />
    <glyph glyph-name="n" unicode="n" horiz-adv-x="537" 
d="M445 0h-57q0 44 1 137.5t1 129.5q0 186 -101 186q-61 0 -139 -66v-387h-58v493h49l6 -61q85 68 155 68q146 0 146 -217q0 -31 -1.5 -132t-1.5 -151z" />
    <glyph glyph-name="o" unicode="o" horiz-adv-x="515" 
d="M458 255q0 -131 -56.5 -196.5t-154.5 -65.5q-91 0 -140.5 61t-49.5 184q0 131 56.5 196.5t154.5 65.5q91 0 140.5 -60.5t49.5 -184.5zM397 234q0 116 -34 168t-107 52q-64 0 -101 -50t-37 -145q0 -116 33.5 -168t106.5 -52q65 0 102 49.5t37 145.5z" />
    <glyph glyph-name="p" unicode="p" horiz-adv-x="512" 
d="M150 -173h-58v666h47l8 -57q76 64 145 64q73 0 118.5 -65.5t45.5 -169.5q0 -136 -65.5 -204t-170.5 -68q-44 0 -70 4v-170zM150 390v-338q38 -14 86 -14q70 0 114.5 54.5t44.5 158.5q0 90 -31.5 146t-86.5 56q-57 0 -127 -63z" />
    <glyph glyph-name="q" unicode="q" horiz-adv-x="512" 
d="M420 -173h-58v227q-74 -61 -142 -61q-72 0 -117.5 65t-45.5 170q0 137 65.5 204.5t173.5 67.5q59 0 124 -14v-659zM362 104v337q-37 14 -86 14q-71 0 -114.5 -54.5t-43.5 -157.5q0 -91 31 -147t85 -56q57 0 128 64z" />
    <glyph glyph-name="r" unicode="r" horiz-adv-x="342" 
d="M314 490l-7 -57q-19 6 -36 6q-44 0 -121 -94v-345h-58v493h49l6 -94q81 100 129 100q20 0 38 -9z" />
    <glyph glyph-name="s" unicode="s" horiz-adv-x="395" 
d="M46 25l10 36q65 -22 119 -22t83 24.5t29 62.5q0 35 -24.5 58t-59.5 36t-70.5 28t-60 45.5t-24.5 76.5q0 56 42.5 93t110.5 37q58 0 109 -24l-11 -36q-45 16 -89 16q-48 0 -74.5 -22.5t-26.5 -57.5t24.5 -58t60 -36t71 -28t60 -45.5t24.5 -76.5q0 -62 -45.5 -100.5
t-121.5 -38.5q-69 0 -136 32z" />
    <glyph glyph-name="t" unicode="t" horiz-adv-x="346" 
d="M309 57l9 -36q-58 -28 -106 -28q-60 0 -84.5 30.5t-24.5 103.5v323h-86v43h86q12 75 17 140h41v-140h144v-43h-144v-309q0 -58 13 -80t52 -22q33 0 83 18z" />
    <glyph glyph-name="u" unicode="u" horiz-adv-x="537" 
d="M444 0h-48l-6 61q-89 -68 -155 -68q-147 0 -147 217q0 32 1.5 133t1.5 150h58q0 -43 -1 -137t-1 -130q0 -185 101 -185q62 0 138 66v386h58v-493z" />
    <glyph glyph-name="v" unicode="v" horiz-adv-x="452" 
d="M357 493h63q-68 -301 -170 -493h-56l-171 493h63l122 -348l22 -77h1q81 183 126 425z" />
    <glyph glyph-name="w" unicode="w" horiz-adv-x="717" 
d="M622 493h61q-51 -249 -150 -493h-58l-107 354l-15 59h-1l-14 -60l-94 -353h-63l-153 493h64l100 -331l24 -91h2l17 74l92 348h58l109 -358l16 -64h2q73 215 110 422z" />
    <glyph glyph-name="x" unicode="x" horiz-adv-x="463" 
d="M432 0h-70l-134 226h-1q-67 -115 -127 -226h-68l165 262l-138 231h69l106 -189h1q51 84 102 189h67l-139 -223z" />
    <glyph glyph-name="y" unicode="y" horiz-adv-x="453" 
d="M358 493h63q-39 -171 -81.5 -297.5t-78.5 -196t-75.5 -111t-68 -53t-59.5 -11.5q-21 0 -55 10v37q12 -2 38 -2q55 0 93 36q47 46 47 100q0 48 -39 154l-120 334h64l105 -295q35 -100 33 -166h2q35 79 72 208t60 253z" />
    <glyph glyph-name="z" unicode="z" horiz-adv-x="400" 
d="M351 47l-3 -47h-300v38l224 409h-215l3 46h280v-36l-225 -410h236z" />
    <glyph glyph-name="braceleft" unicode="{" horiz-adv-x="388" 
d="M301 -173h-32q-65 0 -88.5 28.5t-23.5 91.5v213q0 105 -81 105h-20v46h20q81 0 81 101v208q0 119 116 119h28v-39h-24q-31 0 -48.5 -21t-17.5 -58v-178q0 -147 -96 -154q96 -8 96 -157v-187q0 -43 15 -61t52 -18h23v-39z" />
    <glyph glyph-name="bar" unicode="|" horiz-adv-x="251" 
d="M152 -173h-55v926h55v-926z" />
    <glyph glyph-name="braceright" unicode="}" horiz-adv-x="388" 
d="M330 265h-20q-81 0 -81 -101v-218q0 -119 -116 -119h-27v39h24q30 0 47.5 21t17.5 58v188q0 147 96 154q-96 9 -96 157v177q0 43 -15 61t-51 18h-23v39h31q65 0 88.5 -28.5t23.5 -91.5v-203q0 -105 81 -105h20v-46z" />
    <glyph glyph-name="asciitilde" unicode="~" 
d="M458 597v-9q0 -57 -33 -95t-89 -38q-30 0 -53.5 11t-38.5 26t-28 30.5t-29.5 26.5t-37.5 11q-34 0 -52.5 -25.5t-18.5 -67.5h-45v9q0 58 34.5 95t87.5 37q30 0 53.5 -10.5t38.5 -26t28 -31t29.5 -26t37.5 -10.5q36 0 53.5 26.5t17.5 66.5h45z" />
    <glyph glyph-name="uni00A0" unicode="&#xa0;" horiz-adv-x="240" 
 />
    <glyph glyph-name="exclamdown" unicode="&#xa1;" horiz-adv-x="371" 
d="M130 434h47l12 -538h-72zM113 537q0 24 8 32t33 8q26 0 34.5 -8t8.5 -32t-8.5 -32.5t-34.5 -8.5q-25 0 -33 8.5t-8 32.5z" />
    <glyph glyph-name="cent" unicode="&#xa2;" 
d="M391 206l25 -30q-61 -59 -129 -67l-7 -110h-38l-5 108q-165 13 -165 224q0 101 45 162.5t120 74.5l5 108h38l6 -108q63 -3 115 -58l-24 -30q-55 45 -106 45q-62 0 -99.5 -50t-37.5 -132q0 -92 35 -140.5t100 -48.5q64 0 122 52z" />
    <glyph glyph-name="sterling" unicode="&#xa3;" 
d="M446 0h-401v42q61 61 79.5 122.5t5.5 152.5h-93v45h85q-21 98 -21 133q0 94 47.5 140t124.5 46q75 0 155 -37l-12 -35q-79 26 -133 26q-119 0 -119 -126q0 -23 3 -45t10 -57.5t9 -44.5h194v-45h-187q11 -86 -6 -148.5t-75 -119.5h334v-49z" />
    <glyph glyph-name="currency" unicode="&#xa4;" 
d="M460 52l-43 -32l-67 87q-46 -34 -109 -34q-59 0 -96 29l-62 -82l-43 32l73 75q-34 45 -34 125q0 90 40 139l-79 81l43 32l67 -87q46 34 109 34q59 0 96 -29l63 82l42 -32l-73 -75q34 -45 34 -125q0 -88 -40 -139zM364 259q0 79 -27.5 115t-86.5 36q-55 0 -85 -36.5
t-30 -108.5q0 -79 28 -115t87 -36q55 0 84.5 36.5t29.5 108.5z" />
    <glyph glyph-name="yen" unicode="&#xa5;" 
d="M428 287v-44h-148v-91h148v-44h-148v-108h-60v108h-148v44h148v91h-148v44h148v24q-101 151 -208 364h70q88 -184 175 -316q76 111 164 316h67q-129 -249 -208 -364v-24h148z" />
    <glyph glyph-name="brokenbar" unicode="&#xa6;" horiz-adv-x="251" 
d="M151 196v-369h-51v369h51zM100 368v388h51v-388h-51z" />
    <glyph glyph-name="section" unicode="&#xa7;" horiz-adv-x="501" 
d="M115 -148l14 37q42 -17 92 -17q91 0 91 94q0 36 -26.5 72t-64 69t-75 70t-64 89.5t-26.5 112.5q0 116 72 209.5t160 93.5q56 0 98 -23l-14 -37q-36 13 -83 13q-91 0 -91 -95q0 -36 26.5 -72t64 -69t75.5 -70.5t64.5 -90.5t26.5 -113q0 -115 -72 -207.5t-161 -92.5
q-59 0 -107 27zM400 112q0 45 -16.5 86t-42 70t-56 59t-57.5 53.5t-47 53.5t-25 59.5t9 70.5q-54 -75 -54 -173q0 -44 16.5 -84.5t42 -69t56 -58.5t57.5 -53t47 -53.5t24.5 -60.5t-10.5 -72q28 39 42 77.5t14 94.5z" />
    <glyph glyph-name="dieresis" unicode="&#xa8;" horiz-adv-x="422" 
d="M341 640q0 -21 -6.5 -27.5t-28.5 -6.5t-28.5 6.5t-6.5 27.5q0 22 6.5 28.5t28.5 6.5t28.5 -6.5t6.5 -28.5zM151 640q0 -21 -6 -27.5t-28 -6.5t-29 6.5t-7 27.5q0 22 7 28.5t29 6.5t28 -6.5t6 -28.5z" />
    <glyph glyph-name="copyright" unicode="&#xa9;" horiz-adv-x="773" 
d="M725 342q0 -144 -97.5 -247.5t-245.5 -103.5q-141 0 -237.5 98.5t-96.5 242.5t97.5 247.5t245.5 103.5q142 0 238 -98.5t96 -242.5zM677 341q0 128 -83.5 214.5t-204.5 86.5q-126 0 -209.5 -90.5t-83.5 -218.5t83.5 -214.5t203.5 -86.5q127 0 210.5 90.5t83.5 218.5z
M485 232l22 -28q-54 -51 -122 -51q-69 0 -106.5 46.5t-37.5 135.5t43 140.5t113 51.5q55 0 100 -45l-24 -27q-37 30 -76 30q-45 0 -71.5 -39.5t-26.5 -102.5q0 -70 25 -108.5t73 -38.5q45 0 88 36z" />
    <glyph glyph-name="ordfeminine" unicode="&#xaa;" horiz-adv-x="459" 
d="M345 339h-43l-4 47q-64 -53 -124 -53q-45 0 -74 29t-29 74q0 52 41.5 85.5t137.5 33.5h43v33q0 47 -19.5 66t-70.5 19q-52 0 -109 -20l-10 35q58 27 130 27q131 0 131 -117v-259zM293 421v96h-41q-72 0 -99.5 -19t-27.5 -56q0 -29 16.5 -48t45.5 -19q44 0 106 46z
M354 215h-282v41h282v-41z" />
    <glyph glyph-name="guillemotleft" unicode="&#xab;" horiz-adv-x="502" 
d="M212 126l-37 -17l-120 187l120 187l37 -17l-92 -170zM404 130l-37 -16l-117 182l117 182l37 -16l-89 -166z" />
    <glyph glyph-name="logicalnot" unicode="&#xac;" 
d="M439 139h-53v134h-343v47h396v-181z" />
    <glyph glyph-name="registered" unicode="&#xae;" horiz-adv-x="567" 
d="M506 488q0 -93 -64.5 -159.5t-162.5 -66.5q-93 0 -156.5 63.5t-63.5 155.5t64 158.5t162 66.5q94 0 157.5 -63t63.5 -155zM465 486q0 79 -52.5 132t-128.5 53q-79 0 -131.5 -55.5t-52.5 -133.5q0 -79 52 -132t128 -53q80 0 132.5 55t52.5 134zM372 364h-48l-52 102h-21
v-102h-39v244h70q39 0 59 -18.5t20 -47.5q0 -53 -51 -71zM251 577v-81h28q42 0 42 43q0 38 -44 38h-26z" />
    <glyph glyph-name="macron" unicode="&#x2c9;" horiz-adv-x="415" 
d="M334 610h-253v44h253v-44z" />
    <glyph glyph-name="macron" unicode="&#xaf;" horiz-adv-x="415" 
d="M334 610h-253v44h253v-44z" />
    <glyph glyph-name="degree" unicode="&#xb0;" horiz-adv-x="450" 
d="M350 563q0 -56 -34.5 -91t-89.5 -35q-60 0 -92 32t-32 89q0 56 35 91.5t94 35.5q57 0 88 -32.5t31 -89.5zM296 561q0 83 -69 83q-36 0 -54 -22.5t-18 -60.5q0 -82 72 -82q34 0 51.5 22.5t17.5 59.5z" />
    <glyph glyph-name="plusminus" unicode="&#xb1;" 
d="M453 0h-408v44h408v-44zM453 312h-178v-185h-51v185h-179v44h179v180h51v-180h178v-44z" />
    <glyph glyph-name="twosuperior" unicode="&#xb2;" horiz-adv-x="337" 
d="M294 369h-249v38q111 92 147 135t36 85q0 63 -73 63q-36 0 -95 -18l-8 33q65 24 115 24q51 0 83.5 -24.5t32.5 -74.5q0 -48 -40 -97t-136 -122h187v-42z" />
    <glyph glyph-name="threesuperior" unicode="&#xb3;" horiz-adv-x="339" 
d="M43 382l5 30q61 -11 105 -11q94 0 94 66q0 69 -95 69h-52v36h52q39 0 60.5 16.5t21.5 46.5q0 56 -78 56q-44 0 -90 -13l-9 32q57 19 107 19q63 0 93.5 -24t30.5 -63q0 -62 -69 -83q82 -15 82 -87q0 -53 -39 -81t-106 -28q-52 0 -113 19z" />
    <glyph glyph-name="acute" unicode="&#xb4;" horiz-adv-x="334" 
d="M253 684l-142 -121l-30 21l126 133z" />
    <glyph glyph-name="mu" unicode="&#x3bc;" horiz-adv-x="558" 
d="M479 -6q-68 0 -82 70q-80 -70 -155 -70q-73 0 -100 67q9 -213 9 -234h-59v666h58v-286q0 -81 22.5 -123.5t83.5 -42.5q58 0 134 66v386h58v-358q0 -53 11.5 -75t37.5 -22q23 0 41 8l9 -35q-37 -17 -68 -17z" />
    <glyph glyph-name="mu" unicode="&#xb5;" horiz-adv-x="558" 
d="M479 -6q-68 0 -82 70q-80 -70 -155 -70q-73 0 -100 67q9 -213 9 -234h-59v666h58v-286q0 -81 22.5 -123.5t83.5 -42.5q58 0 134 66v386h58v-358q0 -53 11.5 -75t37.5 -22q23 0 41 8l9 -35q-37 -17 -68 -17z" />
    <glyph glyph-name="paragraph" unicode="&#xb6;" horiz-adv-x="610" 
d="M516 -104h-52v735h-100v-735h-52v412q-97 -18 -165 35t-68 145q0 81 55 134t147 53h235v-779z" />
    <glyph glyph-name="periodcentered" unicode="&#x2219;" horiz-adv-x="255" 
d="M169 297q0 -25 -8 -33.5t-33 -8.5t-33.5 8t-8.5 32q0 26 8.5 34t34.5 8q24 0 32 -8t8 -32z" />
    <glyph glyph-name="periodcentered" unicode="&#xb7;" horiz-adv-x="255" 
d="M169 297q0 -25 -8 -33.5t-33 -8.5t-33.5 8t-8.5 32q0 26 8.5 34t34.5 8q24 0 32 -8t8 -32z" />
    <glyph glyph-name="cedilla" unicode="&#xb8;" horiz-adv-x="263" 
d="M128 -44h53q7 -78 -69 -133l-31 22q28 26 38 49t9 62z" />
    <glyph glyph-name="onesuperior" unicode="&#xb9;" horiz-adv-x="332" 
d="M289 369h-235v40h95v268l-85 -26l-10 31l108 43h40v-316h87v-40z" />
    <glyph glyph-name="ordmasculine" unicode="&#xba;" horiz-adv-x="435" 
d="M371 533q0 -99 -45.5 -149.5t-119.5 -50.5q-151 0 -151 187q0 97 45.5 146t115.5 49q69 0 112 -44.5t43 -137.5zM316 515q0 158 -105 158q-48 0 -74.5 -36.5t-26.5 -100.5q0 -85 25.5 -123t78.5 -38q49 0 75.5 35.5t26.5 104.5zM352 215h-282v41h282v-41z" />
    <glyph glyph-name="guillemotright" unicode="&#xbb;" horiz-adv-x="502" 
d="M290 466l37 17l120 -187l-120 -187l-37 17l92 170zM98 462l37 16l116 -182l-117 -182l-36 16l89 166z" />
    <glyph glyph-name="onequarter" unicode="&#xbc;" horiz-adv-x="704" 
d="M289 369h-235v40h95v268l-85 -26l-10 31l108 43h40v-316h87v-40zM73 -43l570 773l36 -21l-570 -773zM681 26h-59v-81h-52v81h-181v37q73 127 160 236h73v-233h59v-40zM570 66v199h-1q-58 -72 -136 -199h137z" />
    <glyph glyph-name="onehalf" unicode="&#xbd;" horiz-adv-x="733" 
d="M289 369h-235v40h95v268l-85 -26l-10 31l108 43h40v-316h87v-40zM73 -43l570 773l36 -21l-570 -773zM690 -55h-249v38q111 92 147 135t36 85q0 63 -73 63q-36 0 -95 -18l-8 33q65 24 115 24q51 0 83.5 -24.5t32.5 -74.5q0 -48 -40 -97t-136 -122h187v-42z" />
    <glyph glyph-name="threequarters" unicode="&#xbe;" horiz-adv-x="719" 
d="M43 382l5 30q61 -11 105 -11q94 0 94 66q0 69 -95 69h-52v36h52q39 0 60.5 16.5t21.5 46.5q0 56 -78 56q-44 0 -90 -13l-9 32q57 19 107 19q63 0 93.5 -24t30.5 -63q0 -62 -69 -83q82 -15 82 -87q0 -53 -39 -81t-106 -28q-52 0 -113 19zM89 -43l570 773l36 -21l-570 -773
zM696 26h-59v-81h-52v81h-181v37q73 127 160 236h73v-233h59v-40zM585 66v199h-1q-58 -72 -136 -199h137z" />
    <glyph glyph-name="questiondown" unicode="&#xbf;" 
d="M77 40q0 40 16.5 73.5t40.5 59t48.5 51t41.5 59.5t18 74l1 77h47l4 -85q2 -36 -13.5 -70.5t-38 -62.5t-45.5 -54t-39.5 -54t-16.5 -54q0 -55 33.5 -86t93.5 -31q61 0 130 21l12 -38q-80 -31 -153 -31q-91 0 -135.5 41.5t-44.5 109.5zM225 537q0 24 8 32t33 8
q26 0 34.5 -8t8.5 -32t-8.5 -32.5t-34.5 -8.5q-25 0 -33 8.5t-8 32.5z" />
    <glyph glyph-name="Agrave" unicode="&#xc0;" horiz-adv-x="516" 
d="M495 0h-66q-21 86 -40 153h-270q-28 -111 -37 -153h-62q87 348 199 675h72q129 -375 204 -675zM130 202h248q-67 227 -128 409h-2q-83 -273 -118 -409zM293 762l-19 -31l-172 74l29 47z" />
    <glyph glyph-name="Aacute" unicode="&#xc1;" horiz-adv-x="516" 
d="M495 0h-66q-21 86 -40 153h-270q-28 -111 -37 -153h-62q87 348 199 675h72q129 -375 204 -675zM130 202h248q-67 227 -128 409h-2q-83 -273 -118 -409zM209 762l162 90l29 -47l-172 -74z" />
    <glyph glyph-name="Acircumflex" unicode="&#xc2;" horiz-adv-x="516" 
d="M495 0h-66q-21 86 -40 153h-270q-28 -111 -37 -153h-62q87 348 199 675h72q129 -375 204 -675zM130 202h248q-67 227 -128 409h-2q-83 -273 -118 -409zM256 852l141 -91l-19 -30l-123 66l-121 -66l-18 30z" />
    <glyph glyph-name="Atilde" unicode="&#xc3;" horiz-adv-x="516" 
d="M495 0h-66q-21 86 -40 153h-270q-28 -111 -37 -153h-62q87 348 199 675h72q129 -375 204 -675zM130 202h248q-67 227 -128 409h-2q-83 -273 -118 -409zM390 834l29 -20q-27 -44 -49 -60.5t-55 -16.5q-27 0 -50.5 14.5t-42 28.5t-34.5 14q-17 0 -30 -11t-38 -43l-29 20
q27 44 49 60.5t55 16.5q27 0 50.5 -14.5t42 -29t34.5 -14.5t29 11t39 44z" />
    <glyph glyph-name="Adieresis" unicode="&#xc4;" horiz-adv-x="516" 
d="M495 0h-66q-21 86 -40 153h-270q-28 -111 -37 -153h-62q87 348 199 675h72q129 -375 204 -675zM130 202h248q-67 227 -128 409h-2q-83 -273 -118 -409zM390 776q0 -20 -7 -26.5t-28 -6.5q-23 0 -29.5 6t-6.5 27q0 22 6.5 28.5t29.5 6.5q22 0 28.5 -6.5t6.5 -28.5z
M194 776q0 -20 -6.5 -26.5t-28.5 -6.5t-29 6.5t-7 26.5q0 22 7 28.5t29 6.5t28.5 -6.5t6.5 -28.5z" />
    <glyph glyph-name="Aring" unicode="&#xc5;" horiz-adv-x="516" 
d="M495 0h-66q-21 86 -40 153h-270q-28 -111 -37 -153h-62q87 348 199 675h72q129 -375 204 -675zM130 202h248q-67 227 -128 409h-2q-83 -273 -118 -409zM346 775q0 -38 -26 -60t-69 -22q-90 0 -90 78q0 36 26.5 58.5t69.5 22.5q89 0 89 -77zM299 772q0 24 -10.5 34.5
t-34.5 10.5q-46 0 -46 -45q0 -24 10.5 -34t35.5 -10q45 0 45 44z" />
    <glyph glyph-name="AE" unicode="&#xc6;" horiz-adv-x="705" 
d="M645 0h-312v153h-216q-43 -102 -61 -153h-65q146 353 312 675h338v-50h-247v-248h203v-49h-203v-278h251v-50zM333 202v423h-2q-114 -232 -194 -423h196z" />
    <glyph glyph-name="Ccedilla" unicode="&#xc7;" horiz-adv-x="519" 
d="M452 122l28 -31q-78 -98 -192 -98q-108 0 -168 85.5t-60 249.5t66 259t174 95q116 0 169 -111l-33 -24q-50 85 -134 85q-59 0 -100.5 -43.5t-59 -107t-17.5 -139.5q0 -148 45.5 -223t131.5 -75q82 0 150 78zM271 -44h53q7 -78 -69 -133l-31 22q28 26 38 49t9 62z" />
    <glyph glyph-name="Egrave" unicode="&#xc8;" horiz-adv-x="471" 
d="M411 0h-312v675h308v-50h-247v-248h203v-49h-203v-278h251v-50zM298 762l-19 -31l-172 74l29 47z" />
    <glyph glyph-name="Eacute" unicode="&#xc9;" horiz-adv-x="471" 
d="M411 0h-312v675h308v-50h-247v-248h203v-49h-203v-278h251v-50zM208 762l162 90l29 -47l-172 -74z" />
    <glyph glyph-name="Ecircumflex" unicode="&#xca;" horiz-adv-x="471" 
d="M411 0h-312v675h308v-50h-247v-248h203v-49h-203v-278h251v-50zM251 852l141 -91l-19 -30l-123 66l-121 -66l-18 30z" />
    <glyph glyph-name="Edieresis" unicode="&#xcb;" horiz-adv-x="471" 
d="M411 0h-312v675h308v-50h-247v-248h203v-49h-203v-278h251v-50zM385 776q0 -20 -7 -26.5t-28 -6.5q-23 0 -29.5 6t-6.5 27q0 22 6.5 28.5t29.5 6.5q22 0 28.5 -6.5t6.5 -28.5zM189 776q0 -20 -6.5 -26.5t-28.5 -6.5t-29 6.5t-7 26.5q0 22 7 28.5t29 6.5t28.5 -6.5
t6.5 -28.5z" />
    <glyph glyph-name="Igrave" unicode="&#xcc;" horiz-adv-x="259" 
d="M160 0h-61v675h61v-675zM166 762l-19 -31l-172 74l29 47z" />
    <glyph glyph-name="Iacute" unicode="&#xcd;" horiz-adv-x="259" 
d="M160 0h-61v675h61v-675zM85 762l162 90l29 -47l-172 -74z" />
    <glyph glyph-name="Icircumflex" unicode="&#xce;" horiz-adv-x="259" 
d="M160 0h-61v675h61v-675zM130 852l141 -91l-19 -30l-123 66l-121 -66l-18 30z" />
    <glyph glyph-name="Idieresis" unicode="&#xcf;" horiz-adv-x="259" 
d="M160 0h-61v675h61v-675zM234 776q0 -20 -6.5 -26.5t-27.5 -6.5q-22 0 -29 6.5t-7 26.5q0 22 7 28.5t29 6.5q21 0 27.5 -6.5t6.5 -28.5zM95 776q0 -20 -7 -26.5t-28 -6.5q-22 0 -28.5 6.5t-6.5 26.5q0 22 6.5 28.5t28.5 6.5t28.5 -6.5t6.5 -28.5z" />
    <glyph glyph-name="Eth" unicode="&#xd0;" horiz-adv-x="583" 
d="M109 377v298q22 0 67 0.5t72 0.5q73 0 128 -26.5t86 -73t46 -102t15 -121.5q0 -170 -74.5 -262t-221.5 -92q-20 0 -62.5 0.5t-55.5 0.5v328h-70v49h70zM170 626v-249h132v-49h-132v-277q36 -3 73 -3q215 0 215 295q0 284 -224 284q-43 0 -64 -1z" />
    <glyph glyph-name="Ntilde" unicode="&#xd1;" horiz-adv-x="652" 
d="M553 0h-55l-251 432l-96 168h-1q3 -82 3 -155v-445h-54v675h78l224 -385l99 -174h1q-3 89 -3 161v398h55v-675zM470 834l29 -20q-27 -44 -49 -60.5t-55 -16.5q-27 0 -50.5 14.5t-42 28.5t-34.5 14q-17 0 -30 -11t-38 -43l-29 20q27 44 49 60.5t55 16.5q27 0 50.5 -14.5
t42 -29t34.5 -14.5t29 11t39 44z" />
    <glyph glyph-name="Ograve" unicode="&#xd2;" horiz-adv-x="635" 
d="M575 348q0 -181 -71.5 -268t-193.5 -87q-119 0 -184.5 81t-65.5 253q0 181 72 268t193 87q119 0 184.5 -81t65.5 -253zM510 334q0 300 -195 300q-90 0 -140 -71.5t-50 -221.5q0 -299 195 -299q190 0 190 292zM349 762l-19 -31l-172 74l29 47z" />
    <glyph glyph-name="Oacute" unicode="&#xd3;" horiz-adv-x="635" 
d="M575 348q0 -181 -71.5 -268t-193.5 -87q-119 0 -184.5 81t-65.5 253q0 181 72 268t193 87q119 0 184.5 -81t65.5 -253zM510 334q0 300 -195 300q-90 0 -140 -71.5t-50 -221.5q0 -299 195 -299q190 0 190 292zM285 762l162 90l29 -47l-172 -74z" />
    <glyph glyph-name="Ocircumflex" unicode="&#xd4;" horiz-adv-x="635" 
d="M575 348q0 -181 -71.5 -268t-193.5 -87q-119 0 -184.5 81t-65.5 253q0 181 72 268t193 87q119 0 184.5 -81t65.5 -253zM510 334q0 300 -195 300q-90 0 -140 -71.5t-50 -221.5q0 -299 195 -299q190 0 190 292zM318 852l141 -91l-19 -30l-123 66l-121 -66l-18 30z" />
    <glyph glyph-name="Otilde" unicode="&#xd5;" horiz-adv-x="635" 
d="M575 348q0 -181 -71.5 -268t-193.5 -87q-119 0 -184.5 81t-65.5 253q0 181 72 268t193 87q119 0 184.5 -81t65.5 -253zM510 334q0 300 -195 300q-90 0 -140 -71.5t-50 -221.5q0 -299 195 -299q190 0 190 292zM454 834l29 -20q-27 -44 -49 -60.5t-55 -16.5
q-27 0 -50.5 14.5t-42 28.5t-34.5 14q-17 0 -30 -11t-38 -43l-29 20q27 44 49 60.5t55 16.5q27 0 50.5 -14.5t42 -29t34.5 -14.5t29 11t39 44z" />
    <glyph glyph-name="Odieresis" unicode="&#xd6;" horiz-adv-x="635" 
d="M575 348q0 -181 -71.5 -268t-193.5 -87q-119 0 -184.5 81t-65.5 253q0 181 72 268t193 87q119 0 184.5 -81t65.5 -253zM510 334q0 300 -195 300q-90 0 -140 -71.5t-50 -221.5q0 -299 195 -299q190 0 190 292zM451 776q0 -20 -7 -26.5t-28 -6.5q-23 0 -29.5 6t-6.5 27
q0 22 6.5 28.5t29.5 6.5q22 0 28.5 -6.5t6.5 -28.5zM255 776q0 -20 -6.5 -26.5t-28.5 -6.5t-29 6.5t-7 26.5q0 22 7 28.5t29 6.5t28.5 -6.5t6.5 -28.5z" />
    <glyph glyph-name="multiply" unicode="&#xd7;" 
d="M284 297l140 -140l-34 -34l-140 140l-140 -140l-33 33l140 140l-139 139l34 34l139 -139l139 139l33 -33z" />
    <glyph glyph-name="Oslash" unicode="&#xd8;" horiz-adv-x="635" 
d="M575 348q0 -181 -71.5 -268t-193.5 -87q-87 0 -145 45l-64 -109l-38 22l69 116q-72 83 -72 260q0 181 72 268t193 87q88 0 146 -45l64 109l37 -22l-69 -116q72 -82 72 -260zM512 333q0 142 -44 216l-274 -462q47 -47 126 -47q192 0 192 293zM315 635q-191 0 -191 -293
q0 -143 44 -215l273 462q-48 46 -126 46z" />
    <glyph glyph-name="Ugrave" unicode="&#xd9;" horiz-adv-x="652" 
d="M555 675v-425q0 -130 -63 -193.5t-177 -63.5q-111 0 -164.5 58.5t-53.5 186.5v437h61v-427q0 -113 40.5 -160t130.5 -47q81 0 123 46.5t42 156.5v431h61zM355 762l-19 -31l-172 74l29 47z" />
    <glyph glyph-name="Uacute" unicode="&#xda;" horiz-adv-x="652" 
d="M555 675v-425q0 -130 -63 -193.5t-177 -63.5q-111 0 -164.5 58.5t-53.5 186.5v437h61v-427q0 -113 40.5 -160t130.5 -47q81 0 123 46.5t42 156.5v431h61zM304 762l162 90l29 -47l-172 -74z" />
    <glyph glyph-name="Ucircumflex" unicode="&#xdb;" horiz-adv-x="652" 
d="M555 675v-425q0 -130 -63 -193.5t-177 -63.5q-111 0 -164.5 58.5t-53.5 186.5v437h61v-427q0 -113 40.5 -160t130.5 -47q81 0 123 46.5t42 156.5v431h61zM327 852l141 -91l-19 -30l-123 66l-121 -66l-18 30z" />
    <glyph glyph-name="Udieresis" unicode="&#xdc;" horiz-adv-x="652" 
d="M555 675v-425q0 -130 -63 -193.5t-177 -63.5q-111 0 -164.5 58.5t-53.5 186.5v437h61v-427q0 -113 40.5 -160t130.5 -47q81 0 123 46.5t42 156.5v431h61zM459 776q0 -20 -7 -26.5t-28 -6.5q-23 0 -29.5 6t-6.5 27q0 22 6.5 28.5t29.5 6.5q22 0 28.5 -6.5t6.5 -28.5z
M263 776q0 -20 -6.5 -26.5t-28.5 -6.5t-29 6.5t-7 26.5q0 22 7 28.5t29 6.5t28.5 -6.5t6.5 -28.5z" />
    <glyph glyph-name="Yacute" unicode="&#xdd;" horiz-adv-x="480" 
d="M412 675h68q-46 -92 -67 -133.5t-62.5 -114.5t-79.5 -128v-299h-61v299q-106 160 -209 376h70q94 -197 174 -323h1q84 128 166 323zM208 762l162 90l29 -47l-172 -74z" />
    <glyph glyph-name="Thorn" unicode="&#xde;" horiz-adv-x="504" 
d="M160 0h-61v675h62v-112q49 1 71 1q241 0 241 -198q0 -98 -65.5 -159t-203.5 -61h-44v-146zM160 516v-321h62q94 0 140 43t46 119q0 78 -43 118.5t-142 40.5h-63z" />
    <glyph glyph-name="germandbls" unicode="&#xdf;" horiz-adv-x="540" 
d="M150 0h-58v507q0 208 184 208q71 0 112 -33.5t41 -90.5q0 -40 -12.5 -68.5t-30 -43.5t-34.5 -28t-29.5 -31t-12.5 -43q0 -31 19 -54t46 -39t54 -33.5t46 -47t19 -70.5q0 -61 -39 -100t-106 -39q-61 0 -107 23l9 36q40 -15 90 -15q44 0 68.5 24.5t24.5 63.5q0 33 -18.5 57
t-45.5 40t-54 33t-45.5 46t-18.5 69q0 32 12.5 54t30 35.5t35 27.5t30 37.5t12.5 56.5q0 42 -27.5 65.5t-74.5 23.5q-66 0 -93 -40.5t-27 -118.5v-512z" />
    <glyph glyph-name="agrave" unicode="&#xe0;" horiz-adv-x="486" 
d="M395 0h-47l-5 59q-80 -66 -158 -66q-62 0 -100.5 35.5t-38.5 95.5q0 162 245 162h46v58q0 57 -28.5 84t-92.5 27q-58 0 -134 -29l-11 39q80 35 163 35q161 0 161 -146v-354zM337 101v142h-51q-102 0 -141 -29t-39 -82q0 -95 94 -95q64 0 137 64zM271 584l-30 -21
l-142 121l46 33z" />
    <glyph glyph-name="aacute" unicode="&#xe1;" horiz-adv-x="486" 
d="M395 0h-47l-5 59q-80 -66 -158 -66q-62 0 -100.5 35.5t-38.5 95.5q0 162 245 162h46v58q0 57 -28.5 84t-92.5 27q-58 0 -134 -29l-11 39q80 35 163 35q161 0 161 -146v-354zM337 101v142h-51q-102 0 -141 -29t-39 -82q0 -95 94 -95q64 0 137 64zM363 684l-142 -121
l-30 21l126 133z" />
    <glyph glyph-name="acircumflex" unicode="&#xe2;" horiz-adv-x="486" 
d="M395 0h-47l-5 59q-80 -66 -158 -66q-62 0 -100.5 35.5t-38.5 95.5q0 162 245 162h46v58q0 57 -28.5 84t-92.5 27q-58 0 -134 -29l-11 39q80 35 163 35q161 0 161 -146v-354zM337 101v142h-51q-102 0 -141 -29t-39 -82q0 -95 94 -95q64 0 137 64zM367 592l-24 -27l-110 88
l-110 -88l-23 26l135 127z" />
    <glyph glyph-name="atilde" unicode="&#xe3;" horiz-adv-x="486" 
d="M395 0h-47l-5 59q-80 -66 -158 -66q-62 0 -100.5 35.5t-38.5 95.5q0 162 245 162h46v58q0 57 -28.5 84t-92.5 27q-58 0 -134 -29l-11 39q80 35 163 35q161 0 161 -146v-354zM337 101v142h-51q-102 0 -141 -29t-39 -82q0 -95 94 -95q64 0 137 64zM362 682l29 -20
q-27 -44 -49 -60.5t-55 -16.5q-34 0 -71.5 28.5t-54.5 28.5q-16 0 -29.5 -11.5t-38.5 -43.5l-28 21q27 44 48.5 60.5t54.5 16.5q27 0 50 -14.5t41.5 -29t34.5 -14.5t29 11t39 44z" />
    <glyph glyph-name="adieresis" unicode="&#xe4;" horiz-adv-x="486" 
d="M395 0h-47l-5 59q-80 -66 -158 -66q-62 0 -100.5 35.5t-38.5 95.5q0 162 245 162h46v58q0 57 -28.5 84t-92.5 27q-58 0 -134 -29l-11 39q80 35 163 35q161 0 161 -146v-354zM337 101v142h-51q-102 0 -141 -29t-39 -82q0 -95 94 -95q64 0 137 64zM365 640
q0 -21 -6.5 -27.5t-28.5 -6.5t-28.5 6.5t-6.5 27.5q0 22 6.5 28.5t28.5 6.5t28.5 -6.5t6.5 -28.5zM175 640q0 -21 -6 -27.5t-28 -6.5t-29 6.5t-7 27.5q0 22 7 28.5t29 6.5t28 -6.5t6 -28.5z" />
    <glyph glyph-name="aring" unicode="&#xe5;" horiz-adv-x="486" 
d="M395 0h-47l-5 59q-80 -66 -158 -66q-62 0 -100.5 35.5t-38.5 95.5q0 162 245 162h46v58q0 57 -28.5 84t-92.5 27q-58 0 -134 -29l-11 39q80 35 163 35q161 0 161 -146v-354zM337 101v142h-51q-102 0 -141 -29t-39 -82q0 -95 94 -95q64 0 137 64zM322 634q0 -40 -26 -62.5
t-70 -22.5q-91 0 -91 80q0 38 26.5 61.5t70.5 23.5q90 0 90 -80zM274 631q0 46 -45 46q-46 0 -46 -46q0 -24 10.5 -34.5t35.5 -10.5q45 0 45 45z" />
    <glyph glyph-name="ae" unicode="&#xe6;" horiz-adv-x="759" 
d="M680 72l13 -38q-82 -41 -168 -41q-128 0 -167 105q-66 -105 -173 -105q-62 0 -100.5 35.5t-38.5 95.5q0 162 245 162h46v58q0 57 -28.5 84t-92.5 27q-58 0 -134 -29l-11 39q80 35 165 35q118 0 143 -87q48 87 148 87q181 0 167 -257h-300v-11q0 -101 37 -146.5t110 -45.5
q69 0 139 32zM337 243h-51q-102 0 -141 -29t-39 -82q0 -95 94 -95q88 0 137 98v108zM394 286h242v3q0 167 -115 167q-59 0 -91 -47.5t-36 -122.5z" />
    <glyph glyph-name="ccedilla" unicode="&#xe7;" horiz-adv-x="429" 
d="M371 96l24 -30q-66 -73 -156 -73q-88 0 -135 62.5t-47 183.5t51 191t135 70t138 -60l-24 -31q-51 45 -108 45q-62 0 -96.5 -54.5t-34.5 -149.5q0 -210 133 -210q61 0 120 56zM212 -44h53q7 -78 -69 -133l-31 22q28 26 38 49t9 62z" />
    <glyph glyph-name="egrave" unicode="&#xe8;" horiz-adv-x="482" 
d="M417 243h-299v-11q0 -101 36.5 -146.5t110.5 -45.5q68 0 138 32l14 -38q-82 -41 -168 -41q-192 0 -192 239q0 128 50.5 198t142.5 70q181 0 167 -257zM118 286h242v3q0 79 -29 123t-87 44t-90 -47.5t-36 -122.5zM288 584l-30 -21l-142 121l46 33z" />
    <glyph glyph-name="eacute" unicode="&#xe9;" horiz-adv-x="482" 
d="M417 243h-299v-11q0 -101 36.5 -146.5t110.5 -45.5q68 0 138 32l14 -38q-82 -41 -168 -41q-192 0 -192 239q0 128 50.5 198t142.5 70q181 0 167 -257zM118 286h242v3q0 79 -29 123t-87 44t-90 -47.5t-36 -122.5zM384 684l-142 -121l-30 21l126 133z" />
    <glyph glyph-name="ecircumflex" unicode="&#xea;" horiz-adv-x="482" 
d="M417 243h-299v-11q0 -101 36.5 -146.5t110.5 -45.5q68 0 138 32l14 -38q-82 -41 -168 -41q-192 0 -192 239q0 128 50.5 198t142.5 70q181 0 167 -257zM118 286h242v3q0 79 -29 123t-87 44t-90 -47.5t-36 -122.5zM378 592l-24 -27l-110 88l-110 -88l-23 26l135 127z" />
    <glyph glyph-name="edieresis" unicode="&#xeb;" horiz-adv-x="482" 
d="M417 243h-299v-11q0 -101 36.5 -146.5t110.5 -45.5q68 0 138 32l14 -38q-82 -41 -168 -41q-192 0 -192 239q0 128 50.5 198t142.5 70q181 0 167 -257zM118 286h242v3q0 79 -29 123t-87 44t-90 -47.5t-36 -122.5zM375 640q0 -21 -6.5 -27.5t-28.5 -6.5t-28.5 6.5
t-6.5 27.5q0 22 6.5 28.5t28.5 6.5t28.5 -6.5t6.5 -28.5zM185 640q0 -21 -6 -27.5t-28 -6.5t-29 6.5t-7 27.5q0 22 7 28.5t29 6.5t28 -6.5t6 -28.5z" />
    <glyph glyph-name="igrave" unicode="&#xec;" horiz-adv-x="243" 
d="M150 0h-58v493h58v-493zM166 584l-30 -21l-142 121l46 33z" />
    <glyph glyph-name="iacute" unicode="&#xed;" horiz-adv-x="243" 
d="M150 0h-58v493h58v-493zM254 684l-142 -121l-30 21l126 133z" />
    <glyph glyph-name="icircumflex" unicode="&#xee;" horiz-adv-x="243" 
d="M150 0h-58v493h58v-493zM256 592l-24 -27l-110 88l-110 -88l-23 26l135 127z" />
    <glyph glyph-name="idieresis" unicode="&#xef;" horiz-adv-x="243" 
d="M150 0h-58v493h58v-493zM233 640q0 -21 -6.5 -27.5t-28.5 -6.5t-28.5 6.5t-6.5 27.5q0 22 6.5 28.5t28.5 6.5t28.5 -6.5t6.5 -28.5zM80 640q0 -21 -6 -27.5t-27 -6.5q-23 0 -29.5 6.5t-6.5 27.5q0 22 6.5 28.5t29.5 6.5q22 0 27.5 -6t5.5 -29z" />
    <glyph glyph-name="eth" unicode="&#xf0;" horiz-adv-x="514" 
d="M425 670l-94 -54q115 -139 115 -319q0 -161 -57.5 -232.5t-145.5 -71.5q-97 0 -144 64.5t-47 177.5q0 127 59 193.5t159 66.5q54 0 77 -9q-24 54 -69 108l-104 -61l-27 34l102 58q-36 40 -90 84h80q43 -37 64 -60l95 55zM383 283q0 86 -19 151q-40 16 -103 16
q-66 0 -106 -50t-40 -150q0 -210 137 -210q59 0 95 52.5t36 190.5z" />
    <glyph glyph-name="ntilde" unicode="&#xf1;" horiz-adv-x="537" 
d="M445 0h-57q0 44 1 137.5t1 129.5q0 186 -101 186q-61 0 -139 -66v-387h-58v493h49l6 -61q85 68 155 68q146 0 146 -217q0 -31 -1.5 -132t-1.5 -151zM407 682l29 -20q-27 -44 -49 -60.5t-55 -16.5q-34 0 -71.5 28.5t-54.5 28.5q-16 0 -29.5 -11.5t-38.5 -43.5l-28 21
q27 44 48.5 60.5t54.5 16.5q35 0 72 -29t54 -29q16 0 29 11t39 44z" />
    <glyph glyph-name="ograve" unicode="&#xf2;" horiz-adv-x="515" 
d="M458 255q0 -131 -56.5 -196.5t-154.5 -65.5q-91 0 -140.5 61t-49.5 184q0 131 56.5 196.5t154.5 65.5q91 0 140.5 -60.5t49.5 -184.5zM397 234q0 116 -34 168t-107 52q-64 0 -101 -50t-37 -145q0 -116 33.5 -168t106.5 -52q65 0 102 49.5t37 145.5zM296 584l-30 -21
l-142 121l46 33z" />
    <glyph glyph-name="oacute" unicode="&#xf3;" horiz-adv-x="515" 
d="M458 255q0 -131 -56.5 -196.5t-154.5 -65.5q-91 0 -140.5 61t-49.5 184q0 131 56.5 196.5t154.5 65.5q91 0 140.5 -60.5t49.5 -184.5zM397 234q0 116 -34 168t-107 52q-64 0 -101 -50t-37 -145q0 -116 33.5 -168t106.5 -52q65 0 102 49.5t37 145.5zM397 684l-142 -121
l-30 21l126 133z" />
    <glyph glyph-name="ocircumflex" unicode="&#xf4;" horiz-adv-x="515" 
d="M458 255q0 -131 -56.5 -196.5t-154.5 -65.5q-91 0 -140.5 61t-49.5 184q0 131 56.5 196.5t154.5 65.5q91 0 140.5 -60.5t49.5 -184.5zM397 234q0 116 -34 168t-107 52q-64 0 -101 -50t-37 -145q0 -116 33.5 -168t106.5 -52q65 0 102 49.5t37 145.5zM395 592l-24 -27
l-110 88l-110 -88l-23 26l135 127z" />
    <glyph glyph-name="otilde" unicode="&#xf5;" horiz-adv-x="515" 
d="M458 255q0 -131 -56.5 -196.5t-154.5 -65.5q-91 0 -140.5 61t-49.5 184q0 131 56.5 196.5t154.5 65.5q91 0 140.5 -60.5t49.5 -184.5zM397 234q0 116 -34 168t-107 52q-64 0 -101 -50t-37 -145q0 -116 33.5 -168t106.5 -52q65 0 102 49.5t37 145.5zM391 682l29 -20
q-27 -44 -49 -60.5t-55 -16.5q-34 0 -71.5 28.5t-54.5 28.5q-16 0 -29.5 -11.5t-38.5 -43.5l-28 21q27 44 48.5 60.5t54.5 16.5q35 0 72 -29t54 -29q16 0 29 11t39 44z" />
    <glyph glyph-name="odieresis" unicode="&#xf6;" horiz-adv-x="515" 
d="M458 255q0 -131 -56.5 -196.5t-154.5 -65.5q-91 0 -140.5 61t-49.5 184q0 131 56.5 196.5t154.5 65.5q91 0 140.5 -60.5t49.5 -184.5zM397 234q0 116 -34 168t-107 52q-64 0 -101 -50t-37 -145q0 -116 33.5 -168t106.5 -52q65 0 102 49.5t37 145.5zM389 640
q0 -21 -6.5 -27.5t-28.5 -6.5t-28.5 6.5t-6.5 27.5q0 22 6.5 28.5t28.5 6.5t28.5 -6.5t6.5 -28.5zM199 640q0 -21 -6 -27.5t-28 -6.5t-29 6.5t-7 27.5q0 22 7 28.5t29 6.5t28 -6.5t6 -28.5z" />
    <glyph glyph-name="divide" unicode="&#xf7;" 
d="M289 106q0 -24 -7.5 -32t-32.5 -8q-24 0 -32 7.5t-8 30.5q0 25 8 33t33 8q24 0 31.5 -8t7.5 -31zM454 274h-410v45h410v-45zM289 487q0 -23 -7.5 -31t-31.5 -8q-25 0 -33 8t-8 33q0 23 7.5 31t32.5 8t32.5 -8t7.5 -33z" />
    <glyph glyph-name="oslash" unicode="&#xf8;" horiz-adv-x="515" 
d="M451 542l-52 -91q59 -62 59 -196q0 -131 -55.5 -196.5t-154.5 -65.5q-57 0 -97 25l-50 -88l-37 21l52 92q-59 61 -59 195q0 131 55.5 196.5t153.5 65.5q60 0 98 -24l50 88zM366 396l-190 -335q31 -24 83 -24q66 0 103 50.5t37 146.5q0 112 -33 162zM149 96l189 336
q-32 24 -82 24q-66 0 -103 -50t-37 -147q0 -110 33 -163z" />
    <glyph glyph-name="ugrave" unicode="&#xf9;" horiz-adv-x="537" 
d="M444 0h-48l-6 61q-89 -68 -155 -68q-147 0 -147 217q0 32 1.5 133t1.5 150h58q0 -43 -1 -137t-1 -130q0 -185 101 -185q62 0 138 66v386h58v-493zM311 584l-30 -21l-142 121l46 33z" />
    <glyph glyph-name="uacute" unicode="&#xfa;" horiz-adv-x="537" 
d="M444 0h-48l-6 61q-89 -68 -155 -68q-147 0 -147 217q0 32 1.5 133t1.5 150h58q0 -43 -1 -137t-1 -130q0 -185 101 -185q62 0 138 66v386h58v-493zM410 684l-142 -121l-30 21l126 133z" />
    <glyph glyph-name="ucircumflex" unicode="&#xfb;" horiz-adv-x="537" 
d="M444 0h-48l-6 61q-89 -68 -155 -68q-147 0 -147 217q0 32 1.5 133t1.5 150h58q0 -43 -1 -137t-1 -130q0 -185 101 -185q62 0 138 66v386h58v-493zM402 592l-24 -27l-110 88l-110 -88l-23 26l135 127z" />
    <glyph glyph-name="udieresis" unicode="&#xfc;" horiz-adv-x="537" 
d="M444 0h-48l-6 61q-89 -68 -155 -68q-147 0 -147 217q0 32 1.5 133t1.5 150h58q0 -43 -1 -137t-1 -130q0 -185 101 -185q62 0 138 66v386h58v-493zM400 640q0 -21 -6.5 -27.5t-28.5 -6.5t-28.5 6.5t-6.5 27.5q0 22 6.5 28.5t28.5 6.5q23 0 29 -6.5t6 -28.5zM210 640
q0 -21 -6 -27.5t-28 -6.5t-29 6.5t-7 27.5q0 22 7 28.5t29 6.5t28 -6.5t6 -28.5z" />
    <glyph glyph-name="yacute" unicode="&#xfd;" horiz-adv-x="453" 
d="M358 493h63q-39 -171 -81.5 -297.5t-78.5 -196t-75.5 -111t-68 -53t-59.5 -11.5q-21 0 -55 10v37q12 -2 38 -2q55 0 93 36q47 46 47 100q0 48 -39 154l-120 334h64l105 -295q35 -100 33 -166h2q35 79 72 208t60 253zM374 684l-142 -121l-30 21l126 133z" />
    <glyph glyph-name="thorn" unicode="&#xfe;" horiz-adv-x="512" 
d="M150 -173h-58v882h58v-270q74 61 142 61q72 0 118 -66t46 -169q0 -137 -65.5 -204.5t-169.5 -67.5q-45 0 -71 5v-171zM150 389v-338q34 -13 85 -13q71 0 115.5 54.5t44.5 157.5q0 91 -31.5 147t-86.5 56q-57 0 -127 -64z" />
    <glyph glyph-name="ydieresis" unicode="&#xff;" horiz-adv-x="453" 
d="M358 493h63q-39 -171 -81.5 -297.5t-78.5 -196t-75.5 -111t-68 -53t-59.5 -11.5q-21 0 -55 10v37q12 -2 38 -2q55 0 93 36q47 46 47 100q0 48 -39 154l-120 334h64l105 -295q35 -100 33 -166h2q35 79 72 208t60 253zM356 640q0 -21 -6.5 -27.5t-28.5 -6.5t-28.5 6.5
t-6.5 27.5q0 22 6.5 28.5t28.5 6.5q23 0 29 -6.5t6 -28.5zM166 640q0 -21 -6 -27.5t-28 -6.5t-29 6.5t-7 27.5q0 22 7 28.5t29 6.5t28 -6.5t6 -28.5z" />
    <glyph glyph-name="Amacron" unicode="&#x100;" horiz-adv-x="516" 
d="M495 0h-66q-21 86 -40 153h-270q-28 -111 -37 -153h-62q87 348 199 675h72q129 -375 204 -675zM130 202h248q-67 227 -128 409h-2q-83 -273 -118 -409zM390 755h-264v44h264v-44z" />
    <glyph glyph-name="amacron" unicode="&#x101;" horiz-adv-x="486" 
d="M395 0h-47l-5 59q-80 -66 -158 -66q-62 0 -100.5 35.5t-38.5 95.5q0 162 245 162h46v58q0 57 -28.5 84t-92.5 27q-58 0 -134 -29l-11 39q80 35 163 35q161 0 161 -146v-354zM337 101v142h-51q-102 0 -141 -29t-39 -82q0 -95 94 -95q64 0 137 64zM362 610h-253v44h253v-44
z" />
    <glyph glyph-name="Abreve" unicode="&#x102;" horiz-adv-x="516" 
d="M495 0h-66q-21 86 -40 153h-270q-28 -111 -37 -153h-62q87 348 199 675h72q129 -375 204 -675zM130 202h248q-67 227 -128 409h-2q-83 -273 -118 -409zM344 850h39q0 -51 -34.5 -87.5t-92.5 -36.5q-61 0 -94.5 35.5t-33.5 88.5h39q0 -31 22.5 -54.5t66.5 -23.5
q43 0 65.5 23t22.5 55z" />
    <glyph glyph-name="abreve" unicode="&#x103;" horiz-adv-x="486" 
d="M395 0h-47l-5 59q-80 -66 -158 -66q-62 0 -100.5 35.5t-38.5 95.5q0 162 245 162h46v58q0 57 -28.5 84t-92.5 27q-58 0 -134 -29l-11 39q80 35 163 35q161 0 161 -146v-354zM337 101v142h-51q-102 0 -141 -29t-39 -82q0 -95 94 -95q64 0 137 64zM320 712h40
q0 -65 -33.5 -101t-94.5 -36q-64 0 -96 36t-32 101h39q0 -86 89 -86q88 0 88 86z" />
    <glyph glyph-name="Aogonek" unicode="&#x104;" horiz-adv-x="516" 
d="M506 -122l12 -31q-33 -24 -75 -24q-76 0 -76 66q0 58 62 111q-21 86 -40 153h-270q-28 -111 -37 -153h-62q87 348 199 675h72q129 -375 204 -675q-75 -45 -75 -99q0 -37 37 -37q23 0 49 14zM130 202h248q-67 227 -128 409h-2q-83 -273 -118 -409z" />
    <glyph glyph-name="aogonek" unicode="&#x105;" horiz-adv-x="486" 
d="M416 -122l11 -31q-31 -24 -75 -24q-76 0 -76 66q0 64 71 117l-4 53q-80 -66 -158 -66q-63 0 -101 34.5t-38 95.5q0 76 59.5 119.5t185.5 43.5h46v58q0 57 -28.5 84t-92.5 27q-58 0 -134 -29l-11 39q80 35 163 35q161 0 161 -146v-354q-66 -55 -66 -99q0 -37 38 -37
q23 0 49 14zM337 101v142h-51q-102 0 -141 -29.5t-39 -82.5q0 -94 94 -94q64 0 137 64z" />
    <glyph glyph-name="Cacute" unicode="&#x106;" horiz-adv-x="519" 
d="M452 122l28 -31q-78 -98 -192 -98q-108 0 -168 85.5t-60 249.5t66 259t174 95q116 0 169 -111l-33 -24q-50 85 -134 85q-59 0 -100.5 -43.5t-59 -107t-17.5 -139.5q0 -148 45.5 -223t131.5 -75q82 0 150 78zM279 762l162 90l29 -47l-172 -74z" />
    <glyph glyph-name="cacute" unicode="&#x107;" horiz-adv-x="429" 
d="M371 96l24 -30q-66 -73 -156 -73q-88 0 -135 62.5t-47 183.5t51 191t135 70t138 -60l-24 -31q-51 45 -108 45q-62 0 -96.5 -54.5t-34.5 -149.5q0 -210 133 -210q61 0 120 56zM403 684l-142 -121l-30 21l126 133z" />
    <glyph glyph-name="Ccircumflex" unicode="&#x108;" horiz-adv-x="519" 
d="M452 122l28 -31q-78 -98 -192 -98q-108 0 -168 85.5t-60 249.5t66 259t174 95q116 0 169 -111l-33 -24q-50 85 -134 85q-59 0 -100.5 -43.5t-59 -107t-17.5 -139.5q0 -148 45.5 -223t131.5 -75q82 0 150 78zM293 852l141 -91l-19 -30l-123 66l-121 -66l-18 30z" />
    <glyph glyph-name="ccircumflex" unicode="&#x109;" horiz-adv-x="429" 
d="M371 96l24 -30q-66 -73 -156 -73q-88 0 -135 62.5t-47 183.5t51 191t135 70t138 -60l-24 -31q-51 45 -108 45q-62 0 -96.5 -54.5t-34.5 -149.5q0 -210 133 -210q61 0 120 56zM377 592l-24 -27l-110 88l-110 -88l-23 26l135 127z" />
    <glyph glyph-name="Cdotaccent" unicode="&#x10a;" horiz-adv-x="519" 
d="M452 122l28 -31q-78 -98 -192 -98q-108 0 -168 85.5t-60 249.5t66 259t174 95q116 0 169 -111l-33 -24q-50 85 -134 85q-59 0 -100.5 -43.5t-59 -107t-17.5 -139.5q0 -148 45.5 -223t131.5 -75q82 0 150 78zM330 778q0 -21 -7 -27.5t-30 -6.5q-24 0 -31 6.5t-7 27.5
q0 22 7 28.5t31 6.5t30.5 -6t6.5 -29z" />
    <glyph glyph-name="cdotaccent" unicode="&#x10b;" horiz-adv-x="429" 
d="M371 96l24 -30q-66 -73 -156 -73q-88 0 -135 62.5t-47 183.5t51 191t135 70t138 -60l-24 -31q-51 45 -108 45q-62 0 -96.5 -54.5t-34.5 -149.5q0 -210 133 -210q61 0 120 56zM275 642q0 -23 -6.5 -29.5t-30.5 -6.5q-25 0 -32 6.5t-7 29.5t7 29.5t32 6.5q24 0 30.5 -6.5
t6.5 -29.5z" />
    <glyph glyph-name="Ccaron" unicode="&#x10c;" horiz-adv-x="519" 
d="M452 122l28 -31q-78 -98 -192 -98q-108 0 -168 85.5t-60 249.5t66 259t174 95q116 0 169 -111l-33 -24q-50 85 -134 85q-59 0 -100.5 -43.5t-59 -107t-17.5 -139.5q0 -148 45.5 -223t131.5 -75q82 0 150 78zM307 731l-140 91l18 30l123 -65l122 65l18 -30z" />
    <glyph glyph-name="ccaron" unicode="&#x10d;" horiz-adv-x="429" 
d="M371 96l24 -30q-66 -73 -156 -73q-88 0 -135 62.5t-47 183.5t51 191t135 70t138 -60l-24 -31q-51 45 -108 45q-62 0 -96.5 -54.5t-34.5 -149.5q0 -210 133 -210q61 0 120 56zM383 692l-135 -127l-132 127l23 26l111 -87l110 87z" />
    <glyph glyph-name="Dcaron" unicode="&#x10e;" horiz-adv-x="573" 
d="M99 0v675q22 0 66.5 0.5t68.5 0.5q75 0 130.5 -26t87 -72t46.5 -102t15 -123q0 -170 -74.5 -262t-221.5 -92q-25 0 -65.5 0.5t-52.5 0.5zM160 626v-575q36 -3 73 -3q215 0 215 295q0 284 -224 284q-43 0 -64 -1zM269 731l-140 91l18 30l123 -65l122 65l18 -30z" />
    <glyph glyph-name="dcaron" unicode="&#x10f;" horiz-adv-x="526" 
d="M420 0h-47l-7 57q-82 -64 -148 -64q-71 0 -116 65t-45 170q0 139 65.5 205.5t164.5 66.5q37 0 75 -4v213h58v-709zM362 103v338q-45 14 -88 14q-70 0 -113 -54t-43 -158q0 -93 31 -148t86 -55t127 63zM557 735l-54 -167l-34 8l35 170z" />
    <glyph glyph-name="Dcroat" unicode="&#x110;" horiz-adv-x="583" 
d="M109 377v298q22 0 67 0.5t72 0.5q73 0 128 -26.5t86 -73t46 -102t15 -121.5q0 -170 -74.5 -262t-221.5 -92q-20 0 -62.5 0.5t-55.5 0.5v328h-70v49h70zM170 626v-249h132v-49h-132v-277q36 -3 73 -3q215 0 215 295q0 284 -224 284q-43 0 -64 -1z" />
    <glyph glyph-name="dcroat" unicode="&#x111;" horiz-adv-x="512" 
d="M420 581v-581h-47l-7 57q-82 -64 -148 -64q-71 0 -116 65t-45 170q0 139 65.5 205.5t164.5 66.5q37 0 75 -4v85h-119v39h119v89h58v-89h87v-39h-87zM362 103v338q-45 14 -88 14q-70 0 -113 -54t-43 -158q0 -93 31 -148t86 -55t127 63z" />
    <glyph glyph-name="Emacron" unicode="&#x112;" horiz-adv-x="471" 
d="M411 0h-312v675h308v-50h-247v-248h203v-49h-203v-278h251v-50zM382 755h-264v44h264v-44z" />
    <glyph glyph-name="emacron" unicode="&#x113;" horiz-adv-x="482" 
d="M417 243h-299v-11q0 -101 36.5 -146.5t110.5 -45.5q68 0 138 32l14 -38q-82 -41 -168 -41q-192 0 -192 239q0 128 50.5 198t142.5 70q181 0 167 -257zM118 286h242v3q0 79 -29 123t-87 44t-90 -47.5t-36 -122.5zM368 610h-253v44h253v-44z" />
    <glyph glyph-name="Ebreve" unicode="&#x114;" horiz-adv-x="471" 
d="M411 0h-312v675h308v-50h-247v-248h203v-49h-203v-278h251v-50zM341 850h39q0 -51 -34.5 -87.5t-92.5 -36.5q-61 0 -94.5 35.5t-33.5 88.5h39q0 -31 22.5 -54.5t66.5 -23.5q43 0 65.5 23t22.5 55z" />
    <glyph glyph-name="ebreve" unicode="&#x115;" horiz-adv-x="482" 
d="M417 243h-299v-11q0 -101 36.5 -146.5t110.5 -45.5q68 0 138 32l14 -38q-82 -41 -168 -41q-192 0 -192 239q0 128 50.5 198t142.5 70q181 0 167 -257zM118 286h242v3q0 79 -29 123t-87 44t-90 -47.5t-36 -122.5zM332 712h40q0 -65 -33.5 -101t-94.5 -36q-64 0 -96 36
t-32 101h39q0 -86 89 -86q88 0 88 86z" />
    <glyph glyph-name="Edotaccent" unicode="&#x116;" horiz-adv-x="471" 
d="M411 0h-312v675h308v-50h-247v-248h203v-49h-203v-278h251v-50zM294 777q0 -21 -7 -27.5t-30 -6.5q-24 0 -31 6.5t-7 27.5q0 22 7 28.5t31 6.5t30.5 -6t6.5 -29z" />
    <glyph glyph-name="edotaccent" unicode="&#x117;" horiz-adv-x="482" 
d="M417 243h-299v-11q0 -101 36.5 -146.5t110.5 -45.5q68 0 138 32l14 -38q-82 -41 -168 -41q-192 0 -192 239q0 128 50.5 198t142.5 70q181 0 167 -257zM118 286h242v3q0 79 -29 123t-87 44t-90 -47.5t-36 -122.5zM282 642q0 -23 -6.5 -29.5t-30.5 -6.5q-25 0 -32 6.5
t-7 29.5t7 29.5t32 6.5q24 0 30.5 -6.5t6.5 -29.5z" />
    <glyph glyph-name="Eogonek" unicode="&#x118;" horiz-adv-x="471" 
d="M411 50v-50q-67 -54 -67 -99q0 -37 37 -37q22 0 50 14l11 -31q-31 -24 -75 -24q-76 0 -76 66q0 61 63 111h-255v675h308v-50h-247v-248h203v-49h-203v-278h251z" />
    <glyph glyph-name="eogonek" unicode="&#x119;" horiz-adv-x="482" 
d="M403 72l14 -38q-98 -81 -98 -133q0 -37 37 -37q22 0 50 14l11 -31q-33 -24 -75 -24q-76 0 -76 66q0 58 68 116q-42 -12 -85 -12q-192 0 -192 239q0 128 50.5 198t142.5 70q181 0 167 -257h-299v-11q0 -101 36.5 -146.5t110.5 -45.5q68 0 138 32zM118 286h242v3
q0 79 -29 123t-87 44q-59 0 -90.5 -48t-35.5 -122z" />
    <glyph glyph-name="Ecaron" unicode="&#x11a;" horiz-adv-x="471" 
d="M411 0h-312v675h308v-50h-247v-248h203v-49h-203v-278h251v-50zM253 731l-140 91l18 30l123 -65l122 65l18 -30z" />
    <glyph glyph-name="ecaron" unicode="&#x11b;" horiz-adv-x="482" 
d="M417 243h-299v-11q0 -101 36.5 -146.5t110.5 -45.5q68 0 138 32l14 -38q-82 -41 -168 -41q-192 0 -192 239q0 128 50.5 198t142.5 70q181 0 167 -257zM118 286h242v3q0 79 -29 123t-87 44t-90 -47.5t-36 -122.5zM380 692l-135 -127l-132 127l23 26l111 -87l110 87z" />
    <glyph glyph-name="Gcircumflex" unicode="&#x11c;" horiz-adv-x="570" 
d="M481 358v-290q-79 -75 -189 -75q-108 0 -170 83.5t-62 255.5q0 163 71 256.5t172 93.5q89 0 169 -74l-27 -31q-67 55 -136 55q-83 0 -133.5 -76t-50.5 -212q0 -153 47 -226.5t131 -73.5q72 0 117 38v228h-105v48h166zM303 852l141 -91l-19 -30l-123 66l-121 -66l-18 30z
" />
    <glyph glyph-name="gcircumflex" unicode="&#x11d;" horiz-adv-x="512" 
d="M420 486v-472q0 -109 -45.5 -150t-135.5 -41q-68 0 -146 26l7 36q85 -15 135 -15q66 0 96.5 28t30.5 97v78q-79 -59 -145 -59q-69 0 -114.5 64.5t-45.5 163.5q0 127 66.5 192.5t162.5 65.5q60 0 134 -14zM362 122v318q-42 15 -89 15q-68 0 -111.5 -53t-43.5 -143
t31 -144.5t87 -54.5t126 62zM390 592l-24 -27l-110 88l-110 -88l-23 26l135 127z" />
    <glyph glyph-name="Gbreve" unicode="&#x11e;" horiz-adv-x="570" 
d="M481 358v-290q-79 -75 -189 -75q-108 0 -170 83.5t-62 255.5q0 163 71 256.5t172 93.5q89 0 169 -74l-27 -31q-67 55 -136 55q-83 0 -133.5 -76t-50.5 -212q0 -153 47 -226.5t131 -73.5q72 0 117 38v228h-105v48h166zM384 850h39q0 -51 -34.5 -87.5t-92.5 -36.5
q-61 0 -94.5 35.5t-33.5 88.5h39q0 -31 22.5 -54.5t66.5 -23.5q43 0 65.5 23t22.5 55z" />
    <glyph glyph-name="gbreve" unicode="&#x11f;" horiz-adv-x="512" 
d="M420 486v-472q0 -109 -45.5 -150t-135.5 -41q-68 0 -146 26l7 36q85 -15 135 -15q66 0 96.5 28t30.5 97v78q-79 -59 -145 -59q-69 0 -114.5 64.5t-45.5 163.5q0 127 66.5 192.5t162.5 65.5q60 0 134 -14zM362 122v318q-42 15 -89 15q-68 0 -111.5 -53t-43.5 -143
t31 -144.5t87 -54.5t126 62zM352 712h40q0 -65 -33.5 -101t-94.5 -36q-64 0 -96 36t-32 101h39q0 -86 89 -86q88 0 88 86z" />
    <glyph glyph-name="Gdotaccent" unicode="&#x120;" horiz-adv-x="570" 
d="M481 358v-290q-79 -75 -189 -75q-108 0 -170 83.5t-62 255.5q0 163 71 256.5t172 93.5q89 0 169 -74l-27 -31q-67 55 -136 55q-83 0 -133.5 -76t-50.5 -212q0 -153 47 -226.5t131 -73.5q72 0 117 38v228h-105v48h166zM341 778q0 -21 -7 -27.5t-30 -6.5q-24 0 -31 6.5
t-7 27.5q0 22 7 28.5t31 6.5t30.5 -6t6.5 -29z" />
    <glyph glyph-name="gdotaccent" unicode="&#x121;" horiz-adv-x="512" 
d="M420 486v-472q0 -109 -45.5 -150t-135.5 -41q-68 0 -146 26l7 36q85 -15 135 -15q66 0 96.5 28t30.5 97v78q-79 -59 -145 -59q-69 0 -114.5 64.5t-45.5 163.5q0 127 66.5 192.5t162.5 65.5q60 0 134 -14zM362 122v318q-42 15 -89 15q-68 0 -111.5 -53t-43.5 -143
t31 -144.5t87 -54.5t126 62zM292 642q0 -23 -6.5 -29.5t-30.5 -6.5q-25 0 -32 6.5t-7 29.5t7 29.5t32 6.5q24 0 30.5 -6.5t6.5 -29.5z" />
    <glyph glyph-name="Gcommaaccent" unicode="&#x122;" horiz-adv-x="570" 
d="M481 358v-290q-79 -75 -189 -75q-108 0 -170 83.5t-62 255.5q0 163 71 256.5t172 93.5q89 0 169 -74l-27 -31q-67 55 -136 55q-83 0 -133.5 -76t-50.5 -212q0 -153 47 -226.5t131 -73.5q72 0 117 38v228h-105v48h166zM291 -40q32 0 32 -32q0 -38 -21.5 -62t-65.5 -42
l-13 24q46 27 46 50q0 6 -5 13t-5 20q0 29 32 29z" />
    <glyph glyph-name="gcommaaccent" unicode="&#x123;" horiz-adv-x="512" 
d="M420 486v-472q0 -109 -45.5 -150t-135.5 -41q-68 0 -146 26l7 36q85 -15 135 -15q66 0 96.5 28t30.5 97v78q-79 -59 -145 -59q-69 0 -114.5 64.5t-45.5 163.5q0 127 66.5 192.5t162.5 65.5q60 0 134 -14zM362 122v318q-42 15 -89 15q-68 0 -111.5 -53t-43.5 -143
t31 -144.5t87 -54.5t126 62zM363 714l11 -26q-31 -11 -46.5 -28.5t-15.5 -32.5q0 -5 5.5 -12t5.5 -20q0 -29 -32 -29t-32 32q0 87 104 116z" />
    <glyph glyph-name="Hcircumflex" unicode="&#x124;" horiz-adv-x="658" 
d="M559 0h-61v329h-338v-329h-61v675h61v-293h338v293h61v-675zM329 852l141 -91l-19 -30l-123 66l-121 -66l-18 30z" />
    <glyph glyph-name="hcircumflex" unicode="&#x125;" horiz-adv-x="537" 
d="M445 0h-57q0 49 1 143.5t1 123.5q0 186 -101 186q-61 0 -139 -66v-387h-58v709h58v-274q86 65 152 65q146 0 146 -217q0 -25 -1.5 -126.5t-1.5 -156.5zM123 885l140 -91l-18 -29l-123 65l-122 -65l-18 29z" />
    <glyph glyph-name="Hbar" unicode="&#x126;" horiz-adv-x="678" 
d="M569 0h-61v306h-338v-306h-61v487h-88v47h88v141h61v-141h338v141h61v-141h87v-47h-87v-487zM170 358h338v129h-338v-129z" />
    <glyph glyph-name="hbar" unicode="&#x127;" horiz-adv-x="537" 
d="M445 0h-57q0 49 1 143t1 123q0 186 -101 186q-61 0 -139 -66v-386h-58v585h-87v42h87v84h58v-84h149v-42h-149v-150q86 65 152 65q146 0 146 -217q0 -26 -1.5 -127t-1.5 -156z" />
    <glyph glyph-name="Itilde" unicode="&#x128;" horiz-adv-x="259" 
d="M160 0h-61v675h61v-675zM265 834l29 -20q-27 -44 -49 -60.5t-55 -16.5q-34 0 -72 28.5t-55 28.5t-30 -11t-38 -43l-29 20q27 44 49 60.5t55 16.5q34 0 72 -29t55 -29q16 0 29 11t39 44z" />
    <glyph glyph-name="itilde" unicode="&#x129;" horiz-adv-x="243" 
d="M150 0h-58v493h58v-493zM256 682l29 -20q-27 -44 -49 -60.5t-55 -16.5q-34 0 -71.5 28.5t-54.5 28.5q-16 0 -29.5 -11.5t-38.5 -43.5l-28 21q27 44 48.5 60.5t54.5 16.5q27 0 50 -14.5t41.5 -29t34.5 -14.5t29 11t39 44z" />
    <glyph glyph-name="Imacron" unicode="&#x12a;" horiz-adv-x="259" 
d="M160 0h-61v675h61v-675zM262 755h-264v44h264v-44z" />
    <glyph glyph-name="imacron" unicode="&#x12b;" horiz-adv-x="243" 
d="M150 0h-58v493h58v-493zM249 610h-253v44h253v-44z" />
    <glyph glyph-name="Ibreve" unicode="&#x12c;" horiz-adv-x="259" 
d="M160 0h-61v675h61v-675zM219 850h39q0 -51 -34.5 -87.5t-92.5 -36.5q-61 0 -94.5 35.5t-33.5 88.5h39q0 -31 22.5 -54.5t66.5 -23.5q43 0 65.5 23t22.5 55z" />
    <glyph glyph-name="ibreve" unicode="&#x12d;" horiz-adv-x="243" 
d="M150 0h-58v493h58v-493zM210 712h40q0 -65 -33.5 -101t-94.5 -36q-64 0 -96 36t-32 101h39q0 -86 89 -86q88 0 88 86z" />
    <glyph glyph-name="Iogonek" unicode="&#x12e;" horiz-adv-x="259" 
d="M99 0v675h61v-675q-64 -52 -64 -99q0 -37 37 -37q23 0 49 14l12 -31q-33 -24 -75 -24q-76 0 -76 66q0 52 56 111z" />
    <glyph glyph-name="iogonek" unicode="&#x12f;" horiz-adv-x="243" 
d="M159 640q0 -23 -6.5 -30t-30.5 -7t-31.5 7t-7.5 30t7.5 30t31.5 7t30.5 -6.5t6.5 -30.5zM92 0v493h58v-493q-61 -51 -61 -99q0 -37 37 -37q23 0 49 14l12 -31q-33 -24 -75 -24q-76 0 -76 66q0 52 56 111z" />
    <glyph glyph-name="Idotaccent" unicode="&#x130;" horiz-adv-x="259" 
d="M160 0h-61v675h61v-675zM167 777q0 -21 -7 -27.5t-30 -6.5q-24 0 -31 6.5t-7 27.5q0 22 7 28.5t31 6.5t30.5 -6t6.5 -29z" />
    <glyph glyph-name="dotlessi" unicode="&#x131;" horiz-adv-x="243" 
d="M150 0h-58v493h58v-493z" />
    <glyph glyph-name="IJ" unicode="&#x132;" horiz-adv-x="527" 
d="M160 0h-61v675h61v-675zM428 675v-607q0 -87 -17 -141.5t-66 -99.5l-31 26q31 36 42 85.5t11 126.5v610h61z" />
    <glyph glyph-name="ij" unicode="&#x133;" horiz-adv-x="485" 
d="M159 640q0 -23 -6.5 -30t-30.5 -7t-31.5 7t-7.5 30t7 30t32 7q24 0 30.5 -6.5t6.5 -30.5zM150 0h-58v493h58v-493zM393 493v-457q0 -73 -20.5 -121.5t-71.5 -90.5l-33 22q67 69 67 171v476h58zM402 640q0 -23 -6.5 -30t-30.5 -7t-31.5 7t-7.5 30t7 30t32 7
q24 0 30.5 -6.5t6.5 -30.5z" />
    <glyph glyph-name="Jcircumflex" unicode="&#x134;" horiz-adv-x="268" 
d="M169 675v-607q0 -87 -17 -141.5t-66 -99.5l-31 26q31 36 42 85.5t11 126.5v610h61zM138 852l141 -91l-19 -30l-123 66l-121 -66l-18 30z" />
    <glyph glyph-name="jcircumflex" unicode="&#x135;" horiz-adv-x="243" 
d="M150 493v-457q0 -73 -20.5 -121.5t-71.5 -90.5l-33 22q67 69 67 171v476h58zM255 592l-24 -27l-110 88l-110 -88l-23 26l135 127z" />
    <glyph glyph-name="Kcommaaccent" unicode="&#x136;" horiz-adv-x="511" 
d="M483 0h-76l-246 341h-1v-341h-61v675h61v-306h1l232 306h72l-248 -310zM273 -40q32 0 32 -32q0 -38 -21.5 -62t-65.5 -42l-13 24q46 27 46 50q0 6 -5 13t-5 20q0 29 32 29z" />
    <glyph glyph-name="kcommaaccent" unicode="&#x137;" horiz-adv-x="443" 
d="M424 0h-72l-200 264h-2v-264h-58v709h58v-423h2l174 207h74l-194 -211zM244 -40q32 0 32 -32q0 -38 -21.5 -62t-65.5 -42l-13 24q46 27 46 50q0 6 -5 13t-5 20q0 29 32 29z" />
    <glyph glyph-name="kgreenlandic" unicode="&#x138;" horiz-adv-x="443" 
d="M424 0h-72l-200 254h-2v-254h-58v493h58v-217h2l174 217h74l-194 -221z" />
    <glyph glyph-name="Lacute" unicode="&#x139;" horiz-adv-x="421" 
d="M402 0h-303v675h61v-625h242v-50zM123 762l162 90l29 -47l-172 -74z" />
    <glyph glyph-name="lacute" unicode="&#x13a;" horiz-adv-x="263" 
d="M223 41l4 -39q-32 -8 -57 -8q-43 0 -60.5 19.5t-17.5 77.5v618h58v-596q0 -46 7.5 -60t33.5 -14q16 0 32 2zM110 769l162 90l29 -47l-172 -74z" />
    <glyph glyph-name="Lcommaaccent" unicode="&#x13b;" horiz-adv-x="421" 
d="M402 0h-303v675h61v-625h242v-50zM247 -40q32 0 32 -32q0 -38 -21.5 -62t-65.5 -42l-13 24q46 27 46 50q0 6 -5 13t-5 20q0 29 32 29z" />
    <glyph glyph-name="lcommaaccent" unicode="&#x13c;" horiz-adv-x="263" 
d="M223 41l4 -39q-32 -8 -57 -8q-43 0 -60.5 19.5t-17.5 77.5v618h58v-596q0 -46 7.5 -60t33.5 -14q16 0 32 2zM171 -40q32 0 32 -32q0 -38 -21.5 -62t-65.5 -42l-13 24q46 27 46 50q0 6 -5 13t-5 20q0 29 32 29z" />
    <glyph glyph-name="Lcaron" unicode="&#x13d;" horiz-adv-x="421" 
d="M402 0h-303v675h61v-625h242v-50zM346 735l-54 -167l-34 8l35 170z" />
    <glyph glyph-name="lcaron" unicode="&#x13e;" horiz-adv-x="275" 
d="M223 41l4 -39q-32 -8 -57 -8q-43 0 -60.5 19.5t-17.5 77.5v618h58v-596q0 -46 7.5 -60t33.5 -14q16 0 32 2zM288 735l-54 -167l-34 8l35 170z" />
    <glyph glyph-name="Ldot" unicode="&#x13f;" horiz-adv-x="527" 
d="M402 0h-303v675h61v-625h242v-50zM471 337q0 -25 -8 -33.5t-33 -8.5t-33.5 8t-8.5 32q0 26 8.5 34t34.5 8q24 0 32 -8t8 -32z" />
    <glyph glyph-name="ldot" unicode="&#x140;" horiz-adv-x="461" 
d="M223 41l4 -39q-32 -8 -57 -8q-43 0 -60.5 19.5t-17.5 77.5v618h58v-596q0 -46 7.5 -60t33.5 -14q16 0 32 2zM393 297q0 -25 -8 -33.5t-33 -8.5t-33.5 8t-8.5 32q0 26 8.5 34t34.5 8q24 0 32 -8t8 -32z" />
    <glyph glyph-name="Lslash" unicode="&#x141;" horiz-adv-x="430" 
d="M169 446l132 73v-51l-132 -73v-345h242v-50h-303v363l-83 -45v51l83 45v261h61v-229z" />
    <glyph glyph-name="lslash" unicode="&#x142;" horiz-adv-x="274" 
d="M233 41l3 -39q-30 -8 -57 -8q-43 0 -60 19.5t-17 77.5v252l-79 -43v50l79 43v316h58v-284l79 43v-50l-79 -43v-262q0 -47 7.5 -60.5t32.5 -13.5q15 0 33 2z" />
    <glyph glyph-name="Nacute" unicode="&#x143;" horiz-adv-x="652" 
d="M553 0h-55l-251 432l-96 168h-1q3 -82 3 -155v-445h-54v675h78l224 -385l99 -174h1q-3 89 -3 161v398h55v-675zM304 762l162 90l29 -47l-172 -74z" />
    <glyph glyph-name="nacute" unicode="&#x144;" horiz-adv-x="537" 
d="M445 0h-57q0 44 1 137.5t1 129.5q0 186 -101 186q-61 0 -139 -66v-387h-58v493h49l6 -61q85 68 155 68q146 0 146 -217q0 -31 -1.5 -132t-1.5 -151zM411 684l-142 -121l-30 21l126 133z" />
    <glyph glyph-name="Ncommaaccent" unicode="&#x145;" horiz-adv-x="652" 
d="M553 0h-55l-251 432l-96 168h-1q3 -82 3 -155v-445h-54v675h78l224 -385l99 -174h1q-3 89 -3 161v398h55v-675zM317 -40q32 0 32 -32q0 -38 -21.5 -62t-65.5 -42l-13 24q46 27 46 50q0 6 -5 13t-5 20q0 29 32 29z" />
    <glyph glyph-name="ncommaaccent" unicode="&#x146;" horiz-adv-x="537" 
d="M445 0h-57q0 44 1 137.5t1 129.5q0 186 -101 186q-61 0 -139 -66v-387h-58v493h49l6 -61q85 68 155 68q146 0 146 -217q0 -31 -1.5 -132t-1.5 -151zM267 -40q32 0 32 -32q0 -38 -21.5 -62t-65.5 -42l-13 24q46 27 46 50q0 6 -5 13t-5 20q0 29 32 29z" />
    <glyph glyph-name="Ncaron" unicode="&#x147;" horiz-adv-x="652" 
d="M553 0h-55l-251 432l-96 168h-1q3 -82 3 -155v-445h-54v675h78l224 -385l99 -174h1q-3 89 -3 161v398h55v-675zM338 731l-140 91l18 30l123 -65l122 65l18 -30z" />
    <glyph glyph-name="ncaron" unicode="&#x148;" horiz-adv-x="537" 
d="M445 0h-57q0 44 1 137.5t1 129.5q0 186 -101 186q-61 0 -139 -66v-387h-58v493h49l6 -61q85 68 155 68q146 0 146 -217q0 -31 -1.5 -132t-1.5 -151zM404 692l-135 -127l-132 127l23 26l111 -87l110 87z" />
    <glyph glyph-name="napostrophe" unicode="&#x149;" horiz-adv-x="589" 
d="M49 523l-21 27q68 46 68 88q0 12 -10 23t-10 28q0 25 7 33.5t33 8.5q22 0 29.5 -9.5t7.5 -31.5q0 -59 -24 -96t-80 -71zM497 0h-57q0 44 1 137.5t1 129.5q0 186 -101 186q-61 0 -139 -66v-387h-58v493h49l6 -61q85 68 155 68q146 0 146 -217q0 -31 -1.5 -132t-1.5 -151z
" />
    <glyph glyph-name="Eng" unicode="&#x14a;" horiz-adv-x="652" 
d="M553 675v-650q0 -72 -17 -118t-66 -84l-29 30q53 49 53 147h-3l-246 431l-94 169h-1q3 -77 3 -155v-445h-54v675h78l225 -394l98 -177h1q-3 90 -3 165v406h55z" />
    <glyph glyph-name="eng" unicode="&#x14b;" horiz-adv-x="537" 
d="M355 -176l-33 22q67 69 67 171l1 250q0 186 -101 186q-61 0 -139 -66v-387h-58v493h49l6 -61q85 68 155 68q146 0 146 -217l-1 -247q0 -73 -20.5 -121.5t-71.5 -90.5z" />
    <glyph glyph-name="Omacron" unicode="&#x14c;" horiz-adv-x="635" 
d="M575 348q0 -181 -71.5 -268t-193.5 -87q-119 0 -184.5 81t-65.5 253q0 181 72 268t193 87q119 0 184.5 -81t65.5 -253zM510 334q0 300 -195 300q-90 0 -140 -71.5t-50 -221.5q0 -299 195 -299q190 0 190 292zM450 755h-264v44h264v-44z" />
    <glyph glyph-name="omacron" unicode="&#x14d;" horiz-adv-x="515" 
d="M458 255q0 -131 -56.5 -196.5t-154.5 -65.5q-91 0 -140.5 61t-49.5 184q0 131 56.5 196.5t154.5 65.5q91 0 140.5 -60.5t49.5 -184.5zM397 234q0 116 -34 168t-107 52q-64 0 -101 -50t-37 -145q0 -116 33.5 -168t106.5 -52q65 0 102 49.5t37 145.5zM383 610h-253v44h253
v-44z" />
    <glyph glyph-name="Obreve" unicode="&#x14e;" horiz-adv-x="635" 
d="M575 348q0 -181 -71.5 -268t-193.5 -87q-119 0 -184.5 81t-65.5 253q0 181 72 268t193 87q119 0 184.5 -81t65.5 -253zM510 334q0 300 -195 300q-90 0 -140 -71.5t-50 -221.5q0 -299 195 -299q190 0 190 292zM407 850h39q0 -51 -34.5 -87.5t-92.5 -36.5q-61 0 -94.5 35.5
t-33.5 88.5h39q0 -31 22.5 -54.5t66.5 -23.5q43 0 65.5 23t22.5 55z" />
    <glyph glyph-name="obreve" unicode="&#x14f;" horiz-adv-x="515" 
d="M458 255q0 -131 -56.5 -196.5t-154.5 -65.5q-91 0 -140.5 61t-49.5 184q0 131 56.5 196.5t154.5 65.5q91 0 140.5 -60.5t49.5 -184.5zM397 234q0 116 -34 168t-107 52q-64 0 -101 -50t-37 -145q0 -116 33.5 -168t106.5 -52q65 0 102 49.5t37 145.5zM345 712h40
q0 -65 -33.5 -101t-94.5 -36q-64 0 -96 36t-32 101h39q0 -86 89 -86q88 0 88 86z" />
    <glyph glyph-name="Ohungarumlaut" unicode="&#x150;" horiz-adv-x="635" 
d="M575 348q0 -181 -71.5 -268t-193.5 -87q-119 0 -184.5 81t-65.5 253q0 181 72 268t193 87q119 0 184.5 -81t65.5 -253zM510 334q0 300 -195 300q-90 0 -140 -71.5t-50 -221.5q0 -299 195 -299q190 0 190 292zM573 814l-166 -87l-20 22l153 103zM388 824l-156 -99l-23 21
l143 114z" />
    <glyph glyph-name="ohungarumlaut" unicode="&#x151;" horiz-adv-x="515" 
d="M458 255q0 -131 -56.5 -196.5t-154.5 -65.5q-91 0 -140.5 61t-49.5 184q0 131 56.5 196.5t154.5 65.5q91 0 140.5 -60.5t49.5 -184.5zM397 234q0 116 -34 168t-107 52q-64 0 -101 -50t-37 -145q0 -116 33.5 -168t106.5 -52q65 0 102 49.5t37 145.5zM475 681l-141 -118
l-29 22l126 131zM301 686l-131 -127l-30 22l115 139z" />
    <glyph glyph-name="OE" unicode="&#x152;" horiz-adv-x="762" 
d="M702 0h-305q-41 -7 -87 -7q-250 0 -250 334q0 181 72 268t194 87q45 0 74 -7h298v-50h-247v-248h203v-49h-203v-278h251v-50zM390 49v572q-34 13 -75 13q-90 0 -140 -71.5t-50 -220.5q0 -300 195 -300q37 0 70 7z" />
    <glyph glyph-name="oe" unicode="&#x153;" horiz-adv-x="821" 
d="M742 72l14 -38q-82 -41 -168 -41q-126 0 -166 109q-46 -109 -174 -109q-88 0 -139.5 59.5t-51.5 185.5q0 131 55.5 196.5t153.5 65.5q122 0 164 -111q45 111 159 111q181 0 167 -257h-299v-11q0 -101 36.5 -146.5t110.5 -45.5q68 0 138 32zM457 286h241v3q0 167 -115 167
q-59 0 -91 -48t-35 -122zM397 234q0 116 -33.5 168t-108.5 52q-65 0 -101 -49.5t-36 -145.5q0 -116 33.5 -168t108.5 -52q65 0 101 49.5t36 145.5z" />
    <glyph glyph-name="Racute" unicode="&#x154;" horiz-adv-x="529" 
d="M516 0h-75l-216 307h-65v-307h-61v675q16 0 66.5 0.5t89.5 0.5q109 0 164.5 -46t55.5 -126q0 -48 -16.5 -84t-45 -57t-59 -32t-66.5 -16zM160 627v-272h90q75 0 117.5 36.5t42.5 101.5q0 66 -39.5 100t-127.5 34h-83zM214 762l162 90l29 -47l-172 -74z" />
    <glyph glyph-name="racute" unicode="&#x155;" horiz-adv-x="342" 
d="M314 490l-7 -57q-19 6 -36 6q-44 0 -121 -94v-345h-58v493h49l6 -94q81 100 129 100q20 0 38 -9zM338 684l-142 -121l-30 21l126 133z" />
    <glyph glyph-name="Rcommaaccent" unicode="&#x156;" horiz-adv-x="529" 
d="M516 0h-75l-216 307h-65v-307h-61v675q16 0 66.5 0.5t89.5 0.5q109 0 164.5 -46t55.5 -126q0 -48 -16.5 -84t-45 -57t-59 -32t-66.5 -16zM160 627v-272h90q75 0 117.5 36.5t42.5 101.5q0 66 -39.5 100t-127.5 34h-83zM278 -40q32 0 32 -32q0 -38 -21.5 -62t-65.5 -42
l-13 24q46 27 46 50q0 6 -5 13t-5 20q0 29 32 29z" />
    <glyph glyph-name="rcommaaccent" unicode="&#x157;" horiz-adv-x="342" 
d="M314 490l-7 -57q-19 6 -36 6q-44 0 -121 -94v-345h-58v493h49l6 -94q81 100 129 100q20 0 38 -9zM124 -40q32 0 32 -32q0 -38 -21.5 -62t-65.5 -42l-13 24q46 27 46 50q0 6 -5 13t-5 20q0 29 32 29z" />
    <glyph glyph-name="Rcaron" unicode="&#x158;" horiz-adv-x="529" 
d="M516 0h-75l-216 307h-65v-307h-61v675q16 0 66.5 0.5t89.5 0.5q109 0 164.5 -46t55.5 -126q0 -48 -16.5 -84t-45 -57t-59 -32t-66.5 -16zM160 627v-272h90q75 0 117.5 36.5t42.5 101.5q0 66 -39.5 100t-127.5 34h-83zM263 731l-140 91l18 30l123 -65l122 65l18 -30z" />
    <glyph glyph-name="rcaron" unicode="&#x159;" horiz-adv-x="342" 
d="M314 490l-7 -57q-19 6 -36 6q-44 0 -121 -94v-345h-58v493h49l6 -94q81 100 129 100q20 0 38 -9zM335 692l-135 -127l-132 127l23 26l111 -87l110 87z" />
    <glyph glyph-name="Sacute" unicode="&#x15a;" horiz-adv-x="496" 
d="M451 179q0 -83 -59 -134.5t-153 -51.5q-91 0 -180 52l17 36q88 -39 156 -39q70 0 111.5 33.5t41.5 95.5q0 48 -33.5 81.5t-80.5 54.5t-94.5 43.5t-81 63.5t-33.5 100q0 74 53.5 121t137.5 47q86 0 154 -43l-16 -35q-70 30 -131 30q-66 0 -100 -31t-34 -80
q0 -48 33.5 -81.5t81 -55t95.5 -44.5t81.5 -64t33.5 -99zM222 762l162 90l29 -47l-172 -74z" />
    <glyph glyph-name="sacute" unicode="&#x15b;" horiz-adv-x="395" 
d="M46 25l10 36q65 -22 119 -22t83 24.5t29 62.5q0 35 -24.5 58t-59.5 36t-70.5 28t-60 45.5t-24.5 76.5q0 56 42.5 93t110.5 37q58 0 109 -24l-11 -36q-45 16 -89 16q-48 0 -74.5 -22.5t-26.5 -57.5t24.5 -58t60 -36t71 -28t60 -45.5t24.5 -76.5q0 -62 -45.5 -100.5
t-121.5 -38.5q-69 0 -136 32zM340 684l-142 -121l-30 21l126 133z" />
    <glyph glyph-name="Scircumflex" unicode="&#x15c;" horiz-adv-x="496" 
d="M451 179q0 -83 -59 -134.5t-153 -51.5q-91 0 -180 52l17 36q88 -39 156 -39q70 0 111.5 33.5t41.5 95.5q0 48 -33.5 81.5t-80.5 54.5t-94.5 43.5t-81 63.5t-33.5 100q0 74 53.5 121t137.5 47q86 0 154 -43l-16 -35q-70 30 -131 30q-66 0 -100 -31t-34 -80
q0 -48 33.5 -81.5t81 -55t95.5 -44.5t81.5 -64t33.5 -99zM258 852l141 -91l-19 -30l-123 66l-121 -66l-18 30z" />
    <glyph glyph-name="scircumflex" unicode="&#x15d;" horiz-adv-x="395" 
d="M46 25l10 36q65 -22 119 -22t83 24.5t29 62.5q0 35 -24.5 58t-59.5 36t-70.5 28t-60 45.5t-24.5 76.5q0 56 42.5 93t110.5 37q58 0 109 -24l-11 -36q-45 16 -89 16q-48 0 -74.5 -22.5t-26.5 -57.5t24.5 -58t60 -36t71 -28t60 -45.5t24.5 -76.5q0 -62 -45.5 -100.5
t-121.5 -38.5q-69 0 -136 32zM331 592l-24 -27l-110 88l-110 -88l-23 26l135 127z" />
    <glyph glyph-name="Scedilla" unicode="&#x15e;" horiz-adv-x="496" 
d="M451 179q0 -83 -59 -134.5t-153 -51.5q-91 0 -180 52l17 36q88 -39 156 -39q70 0 111.5 33.5t41.5 95.5q0 48 -33.5 81.5t-80.5 54.5t-94.5 43.5t-81 63.5t-33.5 100q0 74 53.5 121t137.5 47q86 0 154 -43l-16 -35q-70 30 -131 30q-66 0 -100 -31t-34 -80
q0 -48 33.5 -81.5t81 -55t95.5 -44.5t81.5 -64t33.5 -99zM217 -44h53q7 -78 -69 -133l-31 22q28 26 38 49t9 62z" />
    <glyph glyph-name="scedilla" unicode="&#x15f;" horiz-adv-x="395" 
d="M46 25l10 36q65 -22 119 -22t83 24.5t29 62.5q0 35 -24.5 58t-59.5 36t-70.5 28t-60 45.5t-24.5 76.5q0 56 42.5 93t110.5 37q58 0 109 -24l-11 -36q-45 16 -89 16q-48 0 -74.5 -22.5t-26.5 -57.5t24.5 -58t60 -36t71 -28t60 -45.5t24.5 -76.5q0 -62 -45.5 -100.5
t-121.5 -38.5q-69 0 -136 32zM162 -44h53q7 -78 -69 -133l-31 22q28 26 38 49t9 62z" />
    <glyph glyph-name="Scaron" unicode="&#x160;" horiz-adv-x="496" 
d="M451 179q0 -83 -59 -134.5t-153 -51.5q-91 0 -180 52l17 36q88 -39 156 -39q70 0 111.5 33.5t41.5 95.5q0 48 -33.5 81.5t-80.5 54.5t-94.5 43.5t-81 63.5t-33.5 100q0 74 53.5 121t137.5 47q86 0 154 -43l-16 -35q-70 30 -131 30q-66 0 -100 -31t-34 -80
q0 -48 33.5 -81.5t81 -55t95.5 -44.5t81.5 -64t33.5 -99zM249 731l-140 91l18 30l123 -65l122 65l18 -30z" />
    <glyph glyph-name="scaron" unicode="&#x161;" horiz-adv-x="395" 
d="M46 25l10 36q65 -22 119 -22t83 24.5t29 62.5q0 35 -24.5 58t-59.5 36t-70.5 28t-60 45.5t-24.5 76.5q0 56 42.5 93t110.5 37q58 0 109 -24l-11 -36q-45 16 -89 16q-48 0 -74.5 -22.5t-26.5 -57.5t24.5 -58t60 -36t71 -28t60 -45.5t24.5 -76.5q0 -62 -45.5 -100.5
t-121.5 -38.5q-69 0 -136 32zM331 692l-135 -127l-132 127l23 26l111 -87l110 87z" />
    <glyph glyph-name="uni0162" unicode="&#x162;" horiz-adv-x="466" 
d="M450 625h-187v-625h-61v625h-186v50h434v-50zM234 -40q32 0 32 -32q0 -38 -21.5 -62t-65.5 -42l-13 24q46 27 46 50q0 6 -5 13t-5 20q0 29 32 29z" />
    <glyph glyph-name="uni0163" unicode="&#x163;" horiz-adv-x="346" 
d="M309 57l9 -36q-58 -28 -106 -28q-60 0 -84.5 30.5t-24.5 103.5v323h-86v43h86q12 75 17 140h41v-140h144v-43h-144v-309q0 -58 13 -80t52 -22q33 0 83 18zM207 -40q32 0 32 -32q0 -38 -21.5 -62t-65.5 -42l-13 24q46 27 46 50q0 6 -5 13t-5 20q0 29 32 29z" />
    <glyph glyph-name="Tcaron" unicode="&#x164;" horiz-adv-x="466" 
d="M450 625h-187v-625h-61v625h-186v50h434v-50zM234 731l-140 91l18 30l123 -65l122 65l18 -30z" />
    <glyph glyph-name="tcaron" unicode="&#x165;" horiz-adv-x="358" 
d="M309 57l9 -36q-58 -28 -106 -28q-60 0 -84.5 30.5t-24.5 103.5v323h-86v43h86q12 75 17 140h41v-140h144v-43h-144v-309q0 -58 13 -80t52 -22q33 0 83 18zM318 735l-54 -167l-34 8l35 170z" />
    <glyph glyph-name="Tbar" unicode="&#x166;" horiz-adv-x="466" 
d="M450 625h-187v-261h126v-47h-126v-317h-61v317h-125v47h125v261h-186v50h434v-50z" />
    <glyph glyph-name="tbar" unicode="&#x167;" horiz-adv-x="346" 
d="M309 57l9 -36q-58 -28 -106 -28q-60 0 -84.5 30.5t-24.5 103.5v115h-67v43h67v165h-86v43h86q12 75 17 140h41v-140h144v-43h-144v-165h128v-43h-128v-101q0 -58 13 -80t52 -22q33 0 83 18z" />
    <glyph glyph-name="Utilde" unicode="&#x168;" horiz-adv-x="652" 
d="M555 675v-425q0 -130 -63 -193.5t-177 -63.5q-111 0 -164.5 58.5t-53.5 186.5v437h61v-427q0 -113 40.5 -160t130.5 -47q81 0 123 46.5t42 156.5v431h61zM461 834l29 -20q-27 -44 -49 -60.5t-55 -16.5q-34 0 -72 28.5t-55 28.5t-30 -11t-38 -43l-29 20q27 44 49 60.5
t55 16.5q34 0 72 -29t55 -29q16 0 29 11t39 44z" />
    <glyph glyph-name="utilde" unicode="&#x169;" horiz-adv-x="537" 
d="M444 0h-48l-6 61q-89 -68 -155 -68q-147 0 -147 217q0 32 1.5 133t1.5 150h58q0 -43 -1 -137t-1 -130q0 -185 101 -185q62 0 138 66v386h58v-493zM403 682l29 -20q-27 -44 -49 -60.5t-55 -16.5q-34 0 -71.5 28.5t-54.5 28.5q-16 0 -29.5 -11.5t-38.5 -43.5l-28 21
q27 44 48.5 60.5t54.5 16.5q35 0 72 -29t54 -29q16 0 29 11t39 44z" />
    <glyph glyph-name="Umacron" unicode="&#x16a;" horiz-adv-x="652" 
d="M555 675v-425q0 -130 -63 -193.5t-177 -63.5q-111 0 -164.5 58.5t-53.5 186.5v437h61v-427q0 -113 40.5 -160t130.5 -47q81 0 123 46.5t42 156.5v431h61zM458 755h-264v44h264v-44z" />
    <glyph glyph-name="umacron" unicode="&#x16b;" horiz-adv-x="537" 
d="M444 0h-48l-6 61q-89 -68 -155 -68q-147 0 -147 217q0 32 1.5 133t1.5 150h58q0 -43 -1 -137t-1 -130q0 -185 101 -185q62 0 138 66v386h58v-493zM397 610h-253v44h253v-44z" />
    <glyph glyph-name="Ubreve" unicode="&#x16c;" horiz-adv-x="652" 
d="M555 675v-425q0 -130 -63 -193.5t-177 -63.5q-111 0 -164.5 58.5t-53.5 186.5v437h61v-427q0 -113 40.5 -160t130.5 -47q81 0 123 46.5t42 156.5v431h61zM415 850h39q0 -51 -34.5 -87.5t-92.5 -36.5q-61 0 -94.5 35.5t-33.5 88.5h39q0 -31 22.5 -54.5t66.5 -23.5
q43 0 65.5 23t22.5 55z" />
    <glyph glyph-name="ubreve" unicode="&#x16d;" horiz-adv-x="537" 
d="M444 0h-48l-6 61q-89 -68 -155 -68q-147 0 -147 217q0 32 1.5 133t1.5 150h58q0 -43 -1 -137t-1 -130q0 -185 101 -185q62 0 138 66v386h58v-493zM356 712h40q0 -65 -33.5 -101t-94.5 -36q-64 0 -96 36t-32 101h39q0 -86 89 -86q88 0 88 86z" />
    <glyph glyph-name="Uring" unicode="&#x16e;" horiz-adv-x="652" 
d="M555 675v-425q0 -130 -63 -193.5t-177 -63.5q-111 0 -164.5 58.5t-53.5 186.5v437h61v-427q0 -113 40.5 -160t130.5 -47q81 0 123 46.5t42 156.5v431h61zM418 775q0 -38 -26 -60t-69 -22q-90 0 -90 78q0 36 26.5 58.5t69.5 22.5q89 0 89 -77zM371 772q0 24 -10.5 34.5
t-34.5 10.5q-46 0 -46 -45q0 -24 10.5 -34t35.5 -10q45 0 45 44z" />
    <glyph glyph-name="uring" unicode="&#x16f;" horiz-adv-x="537" 
d="M444 0h-48l-6 61q-89 -68 -155 -68q-147 0 -147 217q0 32 1.5 133t1.5 150h58q0 -43 -1 -137t-1 -130q0 -185 101 -185q62 0 138 66v386h58v-493zM367 634q0 -40 -26 -62.5t-70 -22.5q-91 0 -91 80q0 38 26.5 61.5t70.5 23.5q90 0 90 -80zM319 631q0 46 -45 46
q-46 0 -46 -46q0 -24 10.5 -34.5t35.5 -10.5q45 0 45 45z" />
    <glyph glyph-name="Uhungarumlaut" unicode="&#x170;" horiz-adv-x="652" 
d="M555 675v-425q0 -130 -63 -193.5t-177 -63.5q-111 0 -164.5 58.5t-53.5 186.5v437h61v-427q0 -113 40.5 -160t130.5 -47q81 0 123 46.5t42 156.5v431h61zM576 814l-166 -87l-20 22l153 103zM391 824l-156 -99l-23 21l143 114z" />
    <glyph glyph-name="uhungarumlaut" unicode="&#x171;" horiz-adv-x="537" 
d="M444 0h-48l-6 61q-89 -68 -155 -68q-147 0 -147 217q0 32 1.5 133t1.5 150h58q0 -43 -1 -137t-1 -130q0 -185 101 -185q62 0 138 66v386h58v-493zM497 681l-141 -118l-29 22l126 131zM323 686l-131 -127l-30 22l115 139z" />
    <glyph glyph-name="Uogonek" unicode="&#x172;" horiz-adv-x="652" 
d="M464 -122l11 -31q-31 -24 -75 -24q-37 0 -56.5 17.5t-19.5 48.5q0 59 64 114q-34 -10 -73 -10q-112 0 -165 59t-53 186v437h61v-427q0 -113 40.5 -160t130.5 -47q81 0 123 46.5t42 156.5v431h61v-425q0 -131 -62 -193l-16 -16q-38 -38 -55 -56t-31 -41.5t-14 -42.5
q0 -37 38 -37q23 0 49 14z" />
    <glyph glyph-name="uogonek" unicode="&#x173;" horiz-adv-x="537" 
d="M444 493v-493q-65 -55 -65 -99q0 -37 37 -37q23 0 49 14l12 -31q-33 -24 -75 -24q-76 0 -76 66q0 64 70 116l-6 56q-89 -68 -155 -68q-147 0 -147 217q0 32 1.5 133t1.5 150h58q0 -43 -1 -137t-1 -130q0 -185 101 -185q62 0 138 66v386h58z" />
    <glyph glyph-name="Wcircumflex" unicode="&#x174;" horiz-adv-x="847" 
d="M759 675h62q-86 -364 -189 -675h-67l-123 470l-21 91h-1l-20 -94l-114 -467h-69q-108 319 -191 675h66q58 -258 163 -597h1l13 59l130 538h53l136 -524l17 -73h2q94 321 152 597zM425 852l141 -91l-19 -30l-123 66l-121 -66l-18 30z" />
    <glyph glyph-name="wcircumflex" unicode="&#x175;" horiz-adv-x="717" 
d="M622 493h61q-51 -249 -150 -493h-58l-107 354l-15 59h-1l-14 -60l-94 -353h-63l-153 493h64l100 -331l24 -91h2l17 74l92 348h58l109 -358l16 -64h2q73 215 110 422zM492 592l-24 -27l-110 88l-110 -88l-23 26l135 127z" />
    <glyph glyph-name="Ycircumflex" unicode="&#x176;" horiz-adv-x="480" 
d="M412 675h68q-46 -92 -67 -133.5t-62.5 -114.5t-79.5 -128v-299h-61v299q-106 160 -209 376h70q94 -197 174 -323h1q84 128 166 323zM242 852l141 -91l-19 -30l-123 66l-121 -66l-18 30z" />
    <glyph glyph-name="ycircumflex" unicode="&#x177;" horiz-adv-x="453" 
d="M358 493h63q-39 -171 -81.5 -297.5t-78.5 -196t-75.5 -111t-68 -53t-59.5 -11.5q-21 0 -55 10v37q12 -2 38 -2q55 0 93 36q47 46 47 100q0 48 -39 154l-120 334h64l105 -295q35 -100 33 -166h2q35 79 72 208t60 253zM362 592l-24 -27l-110 88l-110 -88l-23 26l135 127z
" />
    <glyph glyph-name="Ydieresis" unicode="&#x178;" horiz-adv-x="480" 
d="M412 675h68q-46 -92 -67 -133.5t-62.5 -114.5t-79.5 -128v-299h-61v299q-106 160 -209 376h70q94 -197 174 -323h1q84 128 166 323zM376 776q0 -20 -7 -26.5t-28 -6.5q-23 0 -29.5 6t-6.5 27q0 22 6.5 28.5t29.5 6.5q22 0 28.5 -6.5t6.5 -28.5zM180 776q0 -20 -6.5 -26.5
t-28.5 -6.5t-29 6.5t-7 26.5q0 22 7 28.5t29 6.5t28.5 -6.5t6.5 -28.5z" />
    <glyph glyph-name="Zacute" unicode="&#x179;" horiz-adv-x="485" 
d="M442 0h-399v42l312 583h-296l2 50h367v-40l-313 -583h329zM206 762l162 90l29 -47l-172 -74z" />
    <glyph glyph-name="zacute" unicode="&#x17a;" horiz-adv-x="400" 
d="M351 47l-3 -47h-300v38l224 409h-215l3 46h280v-36l-225 -410h236zM346 684l-142 -121l-30 21l126 133z" />
    <glyph glyph-name="Zdotaccent" unicode="&#x17b;" horiz-adv-x="485" 
d="M442 0h-399v42l312 583h-296l2 50h367v-40l-313 -583h329zM282 777q0 -21 -7 -27.5t-30 -6.5q-24 0 -31 6.5t-7 27.5q0 22 7 28.5t31 6.5t30.5 -6t6.5 -29z" />
    <glyph glyph-name="zdotaccent" unicode="&#x17c;" horiz-adv-x="400" 
d="M351 47l-3 -47h-300v38l224 409h-215l3 46h280v-36l-225 -410h236zM239 641q0 -23 -6.5 -29.5t-30.5 -6.5q-25 0 -32 6.5t-7 29.5t7 29.5t32 6.5q24 0 30.5 -6.5t6.5 -29.5z" />
    <glyph glyph-name="Zcaron" unicode="&#x17d;" horiz-adv-x="485" 
d="M442 0h-399v42l312 583h-296l2 50h367v-40l-313 -583h329zM245 731l-140 91l18 30l123 -65l122 65l18 -30z" />
    <glyph glyph-name="zcaron" unicode="&#x17e;" horiz-adv-x="400" 
d="M351 47l-3 -47h-300v38l224 409h-215l3 46h280v-36l-225 -410h236zM336 692l-135 -127l-132 127l23 26l111 -87l110 87z" />
    <glyph glyph-name="longs" unicode="&#x17f;" horiz-adv-x="255" 
d="M301 691l-14 -35q-39 15 -67 15q-70 0 -70 -91v-580h-58v577q0 65 29 102t85 37q53 0 95 -25z" />
    <glyph glyph-name="florin" unicode="&#x192;" 
d="M470 653l-15 -35q-38 18 -71 18q-41 0 -61.5 -22t-26.5 -70l-21 -178h160v-42h-164l-35 -294q-8 -66 -41.5 -103t-92.5 -37q-53 0 -99 28l14 35q38 -18 72 -18q41 0 62 22.5t26 69.5l36 297h-145v42h149l21 175q7 66 40.5 103t92.5 37q53 0 99 -28z" />
    <glyph glyph-name="Gcaron" unicode="&#x1e6;" horiz-adv-x="570" 
d="M481 358v-290q-79 -75 -189 -75q-108 0 -170 83.5t-62 255.5q0 163 71 256.5t172 93.5q89 0 169 -74l-27 -31q-67 55 -136 55q-83 0 -133.5 -76t-50.5 -212q0 -153 47 -226.5t131 -73.5q72 0 117 38v228h-105v48h166zM301 731l-140 91l18 30l123 -65l122 65l18 -30z" />
    <glyph glyph-name="gcaron" unicode="&#x1e7;" horiz-adv-x="512" 
d="M420 486v-472q0 -109 -45.5 -150t-135.5 -41q-68 0 -146 26l7 36q85 -15 135 -15q66 0 96.5 28t30.5 97v78q-79 -59 -145 -59q-69 0 -114.5 64.5t-45.5 163.5q0 127 66.5 192.5t162.5 65.5q60 0 134 -14zM362 122v318q-42 15 -89 15q-68 0 -111.5 -53t-43.5 -143
t31 -144.5t87 -54.5t126 62zM390 692l-135 -127l-132 127l23 26l111 -87l110 87z" />
    <glyph glyph-name="Aringacute" unicode="&#x1fa;" horiz-adv-x="516" 
d="M495 0h-66q-21 86 -40 153h-270q-28 -111 -37 -153h-62q87 348 199 675h72q129 -375 204 -675zM130 202h248q-67 227 -128 409h-2q-83 -273 -118 -409zM341 750q0 -24 -24.5 -41t-63.5 -17q-40 0 -61 14.5t-21 38.5t24.5 41t63.5 17q40 0 61 -14.5t21 -38.5zM296 749
q0 26 -40 26t-40 -29q0 -26 40 -26t40 29zM206 844l135 41l16 -34l-142 -30z" />
    <glyph glyph-name="aringacute" unicode="&#x1fb;" horiz-adv-x="486" 
d="M395 0h-47l-5 59q-80 -66 -158 -66q-62 0 -100.5 35.5t-38.5 95.5q0 162 245 162h46v58q0 57 -28.5 84t-92.5 27q-58 0 -134 -29l-11 39q80 35 163 35q161 0 161 -146v-354zM337 101v142h-51q-102 0 -141 -29t-39 -82q0 -95 94 -95q64 0 137 64zM326 631q0 -38 -26 -60
t-68 -22q-89 0 -89 78q0 36 26 58.5t69 22.5q88 0 88 -77zM279 628q0 24 -10 34.5t-35 10.5q-45 0 -45 -45q0 -24 10.5 -34t34.5 -10q45 0 45 44zM201 778l99 107l45 -32l-114 -95z" />
    <glyph glyph-name="AEacute" unicode="&#x1fc;" horiz-adv-x="705" 
d="M645 0h-312v153h-216q-43 -102 -61 -153h-65q146 353 312 675h338v-50h-247v-248h203v-49h-203v-278h251v-50zM333 202v423h-2q-114 -232 -194 -423h196zM418 762l162 90l29 -47l-172 -74z" />
    <glyph glyph-name="aeacute" unicode="&#x1fd;" horiz-adv-x="759" 
d="M680 72l13 -38q-82 -41 -168 -41q-128 0 -167 105q-66 -105 -173 -105q-62 0 -100.5 35.5t-38.5 95.5q0 162 245 162h46v58q0 57 -28.5 84t-92.5 27q-58 0 -134 -29l-11 39q80 35 165 35q118 0 143 -87q48 87 148 87q181 0 167 -257h-300v-11q0 -101 37 -146.5t110 -45.5
q69 0 139 32zM337 243h-51q-102 0 -141 -29t-39 -82q0 -95 94 -95q88 0 137 98v108zM394 286h242v3q0 167 -115 167q-59 0 -91 -47.5t-36 -122.5zM530 684l-142 -121l-30 21l126 133z" />
    <glyph glyph-name="Oslashacute" unicode="&#x1fe;" horiz-adv-x="635" 
d="M575 348q0 -181 -71.5 -268t-193.5 -87q-87 0 -145 45l-64 -109l-38 22l69 116q-72 83 -72 260q0 181 72 268t193 87q88 0 146 -45l64 109l37 -22l-69 -116q72 -82 72 -260zM512 333q0 142 -44 216l-274 -462q47 -47 126 -47q192 0 192 293zM315 635q-191 0 -191 -293
q0 -143 44 -215l273 462q-48 46 -126 46zM283 764l162 90l29 -47l-172 -74z" />
    <glyph glyph-name="oslashacute" unicode="&#x1ff;" horiz-adv-x="515" 
d="M451 542l-52 -91q59 -62 59 -196q0 -131 -55.5 -196.5t-154.5 -65.5q-57 0 -97 25l-50 -88l-37 21l52 92q-59 61 -59 195q0 131 55.5 196.5t153.5 65.5q60 0 98 -24l50 88zM366 396l-190 -335q31 -24 83 -24q66 0 103 50.5t37 146.5q0 112 -33 162zM149 96l189 336
q-32 24 -82 24q-66 0 -103 -50t-37 -147q0 -110 33 -163zM393 684l-142 -121l-30 21l126 133z" />
    <glyph glyph-name="Scommaaccent" unicode="&#x218;" horiz-adv-x="496" 
d="M451 179q0 -83 -59 -134.5t-153 -51.5q-91 0 -180 52l17 36q88 -39 156 -39q70 0 111.5 33.5t41.5 95.5q0 48 -33.5 81.5t-80.5 54.5t-94.5 43.5t-81 63.5t-33.5 100q0 74 53.5 121t137.5 47q86 0 154 -43l-16 -35q-70 30 -131 30q-66 0 -100 -31t-34 -80
q0 -48 33.5 -81.5t81 -55t95.5 -44.5t81.5 -64t33.5 -99zM246 -40q32 0 32 -32q0 -38 -21.5 -62t-65.5 -42l-13 24q46 27 46 50q0 6 -5 13t-5 20q0 29 32 29z" />
    <glyph glyph-name="scommaaccent" unicode="&#x219;" horiz-adv-x="395" 
d="M46 25l10 36q65 -22 119 -22t83 24.5t29 62.5q0 35 -24.5 58t-59.5 36t-70.5 28t-60 45.5t-24.5 76.5q0 56 42.5 93t110.5 37q58 0 109 -24l-11 -36q-45 16 -89 16q-48 0 -74.5 -22.5t-26.5 -57.5t24.5 -58t60 -36t71 -28t60 -45.5t24.5 -76.5q0 -62 -45.5 -100.5
t-121.5 -38.5q-69 0 -136 32zM191 -40q32 0 32 -32q0 -38 -21.5 -62t-65.5 -42l-13 24q46 27 46 50q0 6 -5 13t-5 20q0 29 32 29z" />
    <glyph glyph-name="Tcommaaccent" unicode="&#x21a;" horiz-adv-x="466" 
d="M450 625h-187v-625h-61v625h-186v50h434v-50zM234 -40q32 0 32 -32q0 -38 -21.5 -62t-65.5 -42l-13 24q46 27 46 50q0 6 -5 13t-5 20q0 29 32 29z" />
    <glyph glyph-name="tcommaaccent" unicode="&#x21b;" horiz-adv-x="346" 
d="M309 57l9 -36q-58 -28 -106 -28q-60 0 -84.5 30.5t-24.5 103.5v323h-86v43h86q12 75 17 140h41v-140h144v-43h-144v-309q0 -58 13 -80t52 -22q33 0 83 18zM207 -40q32 0 32 -32q0 -38 -21.5 -62t-65.5 -42l-13 24q46 27 46 50q0 6 -5 13t-5 20q0 29 32 29z" />
    <glyph glyph-name="dotlessj" unicode="&#x237;" horiz-adv-x="243" 
d="M150 493v-457q0 -73 -20.5 -121.5t-71.5 -90.5l-33 22q67 69 67 171v476h58z" />
    <glyph glyph-name="apostrophe" unicode="&#x2bc;" horiz-adv-x="223" 
d="M49 523l-21 27q68 46 68 88q0 12 -10 23t-10 28q0 25 7 33.5t33 8.5q22 0 29.5 -9.5t7.5 -31.5q0 -59 -24 -96t-80 -71z" />
    <glyph glyph-name="circumflex" unicode="&#x2c6;" horiz-adv-x="429" 
d="M348 592l-24 -27l-110 88l-110 -88l-23 26l135 127z" />
    <glyph glyph-name="caron" unicode="&#x2c7;" horiz-adv-x="429" 
d="M348 692l-135 -127l-132 127l23 26l111 -87l110 87z" />
    <glyph glyph-name="breve" unicode="&#x2d8;" horiz-adv-x="418" 
d="M297 712h40q0 -65 -33.5 -101t-94.5 -36q-64 0 -96 36t-32 101h39q0 -86 89 -86q88 0 88 86z" />
    <glyph glyph-name="dotaccent" unicode="&#x2d9;" horiz-adv-x="238" 
d="M157 641q0 -23 -6.5 -29.5t-30.5 -6.5q-25 0 -32 6.5t-7 29.5t7 29.5t32 6.5q24 0 30.5 -6.5t6.5 -29.5z" />
    <glyph glyph-name="ring" unicode="&#x2da;" horiz-adv-x="349" 
d="M268 634q0 -40 -26 -62.5t-70 -22.5q-91 0 -91 80q0 38 26.5 61.5t70.5 23.5q90 0 90 -80zM220 631q0 46 -45 46q-46 0 -46 -46q0 -24 10.5 -34.5t35.5 -10.5q45 0 45 45z" />
    <glyph glyph-name="ogonek" unicode="&#x2db;" horiz-adv-x="313" 
d="M220 -122l12 -31q-33 -24 -75 -24q-76 0 -76 66q0 61 63 111h55q-65 -56 -65 -99q0 -37 37 -37q23 0 49 14z" />
    <glyph glyph-name="tilde" unicode="&#x2dc;" horiz-adv-x="488" 
d="M378 682l29 -20q-27 -44 -49 -60.5t-55 -16.5q-34 0 -71.5 28.5t-54.5 28.5q-16 0 -29.5 -11.5t-38.5 -43.5l-28 21q27 44 48.5 60.5t54.5 16.5q27 0 50 -14.5t41.5 -29t34.5 -14.5t29 11t39 44z" />
    <glyph glyph-name="hungarumlaut" unicode="&#x2dd;" horiz-adv-x="496" 
d="M416 681l-141 -118l-29 22l126 131zM242 686l-131 -127l-30 22l115 139z" />
    <glyph glyph-name="uni0312" unicode="&#x312;" horiz-adv-x="276" 
d="M185 714l11 -26q-31 -11 -46.5 -28.5t-15.5 -32.5q0 -5 5.5 -12t5.5 -20q0 -29 -32 -29t-32 32q0 87 104 116z" />
    <glyph glyph-name="uni0315" unicode="&#x315;" horiz-adv-x="250" 
d="M169 735l-54 -167l-34 8l35 170z" />
    <glyph glyph-name="uni0326" unicode="&#x326;" horiz-adv-x="262" 
d="M149 -40q32 0 32 -32q0 -38 -21.5 -62t-65.5 -42l-13 24q46 27 46 50q0 6 -5 13t-5 20q0 29 32 29z" />
    <glyph glyph-name="Delta" unicode="&#x2206;" horiz-adv-x="512" 
d="M484 0h-456v41q78 306 190 634h71q123 -353 195 -634v-41zM90 50h327q-62 248 -169 561h-1q-109 -345 -157 -561z" />
    <glyph glyph-name="Delta" unicode="&#x394;" horiz-adv-x="512" 
d="M484 0h-456v41q78 306 190 634h71q123 -353 195 -634v-41zM90 50h327q-62 248 -169 561h-1q-109 -345 -157 -561z" />
    <glyph glyph-name="Omega" unicode="&#x2126;" horiz-adv-x="650" 
d="M620 0h-226v52q58 29 91 103.5t33 180.5q0 298 -195 298q-91 0 -140.5 -71.5t-49.5 -217.5q0 -111 31 -188t89 -105v-52h-223v47h159q-61 33 -91 109t-30 173q0 176 70.5 264.5t194.5 88.5q119 0 184.5 -81.5t65.5 -248.5q0 -107 -35 -186t-96 -119h168v-47z" />
    <glyph glyph-name="Omega" unicode="&#x3a9;" horiz-adv-x="650" 
d="M620 0h-226v52q58 29 91 103.5t33 180.5q0 298 -195 298q-91 0 -140.5 -71.5t-49.5 -217.5q0 -111 31 -188t89 -105v-52h-223v47h159q-61 33 -91 109t-30 173q0 176 70.5 264.5t194.5 88.5q119 0 184.5 -81.5t65.5 -248.5q0 -107 -35 -186t-96 -119h168v-47z" />
    <glyph glyph-name="pi" unicode="&#x3c0;" horiz-adv-x="605" 
d="M564 447h-135q0 -153 1.5 -222.5t9.5 -118t20.5 -58t38.5 -9.5q31 0 68 15l9 -37q-50 -24 -94 -24q-77 0 -93 70.5t-16 383.5h-205q0 -218 -16 -447h-60q21 284 21 447h-96v46h547v-46z" />
    <glyph glyph-name="uni1E02" unicode="&#x1e02;" horiz-adv-x="534" 
d="M99 0v675h166q91 0 138.5 -42.5t47.5 -108.5q0 -60 -31.5 -101t-80.5 -58q64 -8 106 -50.5t42 -113.5q0 -91 -63.5 -147t-185.5 -56q-33 0 -78 1t-61 1zM160 628v-249h76q78 0 115 39.5t37 95.5q0 52 -33 83t-101 31h-94zM160 332v-281q50 -5 99 -5q81 0 122 40.5
t41 107.5q0 65 -42 101.5t-130 36.5h-90zM294 777q0 -21 -7 -27.5t-30 -6.5q-24 0 -31 6.5t-7 27.5q0 22 7 28.5t31 6.5t30.5 -6t6.5 -29z" />
    <glyph glyph-name="uni1E03" unicode="&#x1e03;" horiz-adv-x="512" 
d="M92 7v702h58v-270q75 61 142 61q72 0 118 -66t46 -170q0 -137 -66 -204t-172 -67q-60 0 -126 14zM150 390v-339q39 -13 85 -13q70 0 115 54.5t45 157.5q0 91 -31 147t-87 56q-24 0 -59 -16.5t-68 -46.5zM160 822q0 -21 -7 -27t-31 -6t-31 6t-7 27q0 22 7.5 28.5t31.5 6.5
t30.5 -6t6.5 -29z" />
    <glyph glyph-name="uni1E0A" unicode="&#x1e0a;" horiz-adv-x="573" 
d="M99 0v675q22 0 66.5 0.5t68.5 0.5q75 0 130.5 -26t87 -72t46.5 -102t15 -123q0 -170 -74.5 -262t-221.5 -92q-25 0 -65.5 0.5t-52.5 0.5zM160 626v-575q36 -3 73 -3q215 0 215 295q0 284 -224 284q-43 0 -64 -1zM303 777q0 -21 -7 -27.5t-30 -6.5q-24 0 -31 6.5t-7 27.5
q0 22 7 28.5t31 6.5t30.5 -6t6.5 -29z" />
    <glyph glyph-name="uni1E0B" unicode="&#x1e0b;" horiz-adv-x="512" 
d="M420 0h-47l-7 57q-82 -64 -148 -64q-71 0 -116 65t-45 170q0 139 65.5 205.5t164.5 66.5q37 0 75 -4v211h58v-707zM362 103v338q-45 14 -88 14q-70 0 -113 -54t-43 -158q0 -93 31 -148t86 -55t127 63zM429 822q0 -21 -7 -27t-31 -6t-31 6t-7 27q0 22 7.5 28.5t31.5 6.5
t30.5 -6t6.5 -29z" />
    <glyph glyph-name="uni1E1E" unicode="&#x1e1e;" horiz-adv-x="449" 
d="M401 626h-241v-257h221v-49h-221v-320h-61v675h302v-49zM295 777q0 -21 -7 -27.5t-30 -6.5q-24 0 -31 6.5t-7 27.5q0 22 7 28.5t31 6.5t30.5 -6t6.5 -29z" />
    <glyph glyph-name="uni1E1F" unicode="&#x1e1f;" horiz-adv-x="291" 
d="M324 687l-15 -36q-38 19 -71 19q-76 0 -76 -90v-87h118v-43h-118v-450h-58v450h-87v43h87v81q0 66 30.5 103t89.5 37q52 0 100 -27zM250 822q0 -21 -7 -27t-31 -6t-31 6t-7 27q0 22 7.5 28.5t31.5 6.5t30.5 -6t6.5 -29z" />
    <glyph glyph-name="uni1E40" unicode="&#x1e40;" horiz-adv-x="837" 
d="M749 0h-65q-8 350 -41 600h-1l-207 -600h-45l-209 600h-1q-25 -253 -30 -600h-62q8 341 50 675h80l199 -570h1l198 570h78q47 -351 55 -675zM456 777q0 -21 -7 -27.5t-30 -6.5q-24 0 -31 6.5t-7 27.5q0 22 7 28.5t31 6.5t30.5 -6t6.5 -29z" />
    <glyph glyph-name="uni1E41" unicode="&#x1e41;" horiz-adv-x="811" 
d="M720 0h-58q0 44 1 137.5t1 129.5q0 186 -94 186q-58 0 -143 -74q9 -40 9 -95v-284h-58v267q0 186 -94 186q-56 0 -134 -66v-387h-58v493h49l6 -61q85 68 153 68q81 0 115 -81q98 81 171 81q62 0 99.5 -51.5t37.5 -164.5q0 -32 -1.5 -133t-1.5 -151zM444 641
q0 -23 -6.5 -29.5t-30.5 -6.5q-25 0 -32 6.5t-7 29.5t7 29.5t32 6.5q24 0 30.5 -6.5t6.5 -29.5z" />
    <glyph glyph-name="uni1E56" unicode="&#x1e56;" horiz-adv-x="504" 
d="M160 0h-61v675q15 0 55.5 0.5t77.5 0.5q241 0 241 -198q0 -98 -66 -159.5t-203 -61.5h-44v-257zM160 628v-321h62q94 0 140 43t46 119q0 78 -43 118.5t-142 40.5h-63zM290 777q0 -21 -7 -27.5t-30 -6.5q-24 0 -31 6.5t-7 27.5q0 22 7 28.5t31 6.5t30.5 -6t6.5 -29z" />
    <glyph glyph-name="uni1E57" unicode="&#x1e57;" horiz-adv-x="512" 
d="M150 -173h-58v666h47l8 -57q76 64 145 64q73 0 118.5 -65.5t45.5 -169.5q0 -136 -65.5 -204t-170.5 -68q-44 0 -70 4v-170zM150 390v-338q38 -14 86 -14q70 0 114.5 54.5t44.5 158.5q0 90 -31.5 146t-86.5 56q-57 0 -127 -63zM294 641q0 -23 -6.5 -29.5t-30.5 -6.5
q-25 0 -32 6.5t-7 29.5t7 29.5t32 6.5q24 0 30.5 -6.5t6.5 -29.5z" />
    <glyph glyph-name="uni1E60" unicode="&#x1e60;" horiz-adv-x="496" 
d="M451 179q0 -83 -59 -134.5t-153 -51.5q-91 0 -180 52l17 36q88 -39 156 -39q70 0 111.5 33.5t41.5 95.5q0 48 -33.5 81.5t-80.5 54.5t-94.5 43.5t-81 63.5t-33.5 100q0 74 53.5 121t137.5 47q86 0 154 -43l-16 -35q-70 30 -131 30q-66 0 -100 -31t-34 -80
q0 -48 33.5 -81.5t81 -55t95.5 -44.5t81.5 -64t33.5 -99zM286 778q0 -21 -7 -27.5t-30 -6.5q-24 0 -31 6.5t-7 27.5q0 22 7 28.5t31 6.5t30.5 -6t6.5 -29z" />
    <glyph glyph-name="uni1E61" unicode="&#x1e61;" horiz-adv-x="395" 
d="M46 25l10 36q65 -22 119 -22t83 24.5t29 62.5q0 35 -24.5 58t-59.5 36t-70.5 28t-60 45.5t-24.5 76.5q0 56 42.5 93t110.5 37q58 0 109 -24l-11 -36q-45 16 -89 16q-48 0 -74.5 -22.5t-26.5 -57.5t24.5 -58t60 -36t71 -28t60 -45.5t24.5 -76.5q0 -62 -45.5 -100.5
t-121.5 -38.5q-69 0 -136 32zM235 642q0 -23 -6.5 -29.5t-30.5 -6.5q-25 0 -32 6.5t-7 29.5t7 29.5t32 6.5q24 0 30.5 -6.5t6.5 -29.5z" />
    <glyph glyph-name="uni1E6A" unicode="&#x1e6a;" horiz-adv-x="466" 
d="M450 625h-187v-625h-61v625h-186v50h434v-50zM271 777q0 -21 -7 -27.5t-30 -6.5q-24 0 -31 6.5t-7 27.5q0 22 7 28.5t31 6.5t30.5 -6t6.5 -29z" />
    <glyph glyph-name="uni1E6B" unicode="&#x1e6b;" horiz-adv-x="346" 
d="M309 57l9 -36q-58 -28 -106 -28q-60 0 -84.5 30.5t-24.5 103.5v323h-86v43h86q12 75 17 140h41v-140h144v-43h-144v-309q0 -58 13 -80t52 -22q33 0 83 18zM182 739q0 -23 -6.5 -29.5t-30.5 -6.5q-25 0 -32 6.5t-7 29.5t7 29.5t32 6.5q24 0 30.5 -6.5t6.5 -29.5z" />
    <glyph glyph-name="Wgrave" unicode="&#x1e80;" horiz-adv-x="847" 
d="M759 675h62q-86 -364 -189 -675h-67l-123 470l-21 91h-1l-20 -94l-114 -467h-69q-108 319 -191 675h66q58 -258 163 -597h1l13 59l130 538h53l136 -524l17 -73h2q94 321 152 597zM467 762l-19 -31l-172 74l29 47z" />
    <glyph glyph-name="wgrave" unicode="&#x1e81;" horiz-adv-x="717" 
d="M622 493h61q-51 -249 -150 -493h-58l-107 354l-15 59h-1l-14 -60l-94 -353h-63l-153 493h64l100 -331l24 -91h2l17 74l92 348h58l109 -358l16 -64h2q73 215 110 422zM399 584l-30 -21l-142 121l46 33z" />
    <glyph glyph-name="Wacute" unicode="&#x1e82;" horiz-adv-x="847" 
d="M759 675h62q-86 -364 -189 -675h-67l-123 470l-21 91h-1l-20 -94l-114 -467h-69q-108 319 -191 675h66q58 -258 163 -597h1l13 59l130 538h53l136 -524l17 -73h2q94 321 152 597zM382 762l162 90l29 -47l-172 -74z" />
    <glyph glyph-name="wacute" unicode="&#x1e83;" horiz-adv-x="717" 
d="M622 493h61q-51 -249 -150 -493h-58l-107 354l-15 59h-1l-14 -60l-94 -353h-63l-153 493h64l100 -331l24 -91h2l17 74l92 348h58l109 -358l16 -64h2q73 215 110 422zM482 684l-142 -121l-30 21l126 133z" />
    <glyph glyph-name="Wdieresis" unicode="&#x1e84;" horiz-adv-x="847" 
d="M759 675h62q-86 -364 -189 -675h-67l-123 470l-21 91h-1l-20 -94l-114 -467h-69q-108 319 -191 675h66q58 -258 163 -597h1l13 59l130 538h53l136 -524l17 -73h2q94 321 152 597zM560 776q0 -20 -7 -26.5t-28 -6.5q-23 0 -29.5 6t-6.5 27q0 22 6.5 28.5t29.5 6.5
q22 0 28.5 -6.5t6.5 -28.5zM364 776q0 -20 -6.5 -26.5t-28.5 -6.5t-29 6.5t-7 26.5q0 22 7 28.5t29 6.5t28.5 -6.5t6.5 -28.5z" />
    <glyph glyph-name="wdieresis" unicode="&#x1e85;" horiz-adv-x="717" 
d="M622 493h61q-51 -249 -150 -493h-58l-107 354l-15 59h-1l-14 -60l-94 -353h-63l-153 493h64l100 -331l24 -91h2l17 74l92 348h58l109 -358l16 -64h2q73 215 110 422zM488 640q0 -21 -6.5 -27.5t-28.5 -6.5t-28.5 6.5t-6.5 27.5q0 22 6.5 28.5t28.5 6.5q23 0 29 -6.5
t6 -28.5zM298 640q0 -21 -6 -27.5t-28 -6.5t-29 6.5t-7 27.5q0 22 7 28.5t29 6.5t28 -6.5t6 -28.5z" />
    <glyph glyph-name="Ygrave" unicode="&#x1ef2;" horiz-adv-x="480" 
d="M412 675h68q-46 -92 -67 -133.5t-62.5 -114.5t-79.5 -128v-299h-61v299q-106 160 -209 376h70q94 -197 174 -323h1q84 128 166 323zM288 762l-19 -31l-172 74l29 47z" />
    <glyph glyph-name="ygrave" unicode="&#x1ef3;" horiz-adv-x="453" 
d="M358 493h63q-39 -171 -81.5 -297.5t-78.5 -196t-75.5 -111t-68 -53t-59.5 -11.5q-21 0 -55 10v37q12 -2 38 -2q55 0 93 36q47 46 47 100q0 48 -39 154l-120 334h64l105 -295q35 -100 33 -166h2q35 79 72 208t60 253zM267 584l-30 -21l-142 121l46 33z" />
    <glyph glyph-name="endash" unicode="&#x2013;" 
d="M454 273h-408v47h408v-47z" />
    <glyph glyph-name="emdash" unicode="&#x2014;" horiz-adv-x="1000" 
d="M841 273h-683v47h683v-47z" />
    <glyph glyph-name="uni2015" unicode="&#x2015;" horiz-adv-x="1000" 
d="M841 273h-683v47h683v-47z" />
    <glyph glyph-name="quoteleft" unicode="&#x2018;" horiz-adv-x="265" 
d="M187 768l24 -28q-70 -47 -70 -90q0 -13 10.5 -24.5t10.5 -29.5q0 -27 -7.5 -35.5t-35.5 -8.5q-24 0 -31.5 9.5t-7.5 33.5q0 61 24.5 99.5t82.5 73.5z" />
    <glyph glyph-name="quoteright" unicode="&#x2019;" horiz-adv-x="274" 
d="M87 527l-24 29q70 47 70 90q0 12 -10.5 23t-10.5 30q0 27 8 36t35 9q24 0 32 -9.5t8 -33.5q0 -61 -25 -99.5t-83 -74.5z" />
    <glyph glyph-name="quotesinglbase" unicode="&#x201a;" horiz-adv-x="305" 
d="M88 -141l-23 29q70 47 70 90q0 12 -10.5 23t-10.5 30q0 27 7.5 36t34.5 9q24 0 32 -9.5t8 -33.5q0 -62 -24.5 -100.5t-83.5 -73.5z" />
    <glyph glyph-name="quotedblleft" unicode="&#x201c;" horiz-adv-x="441" 
d="M364 767l22 -28q-69 -47 -69 -90q0 -13 10.5 -24t10.5 -29q0 -26 -7.5 -35t-34.5 -9q-23 0 -30.5 10t-7.5 33q0 61 24.5 99.5t81.5 72.5zM187 768l22 -28q-70 -48 -70 -91q0 -13 10.5 -24t10.5 -29q0 -26 -7.5 -35t-34.5 -9q-23 0 -30.5 10t-7.5 33q0 61 24.5 99t82.5 74
z" />
    <glyph glyph-name="quotedblright" unicode="&#x201d;" horiz-adv-x="450" 
d="M263 528l-23 28q71 46 71 90q0 13 -10.5 24t-10.5 29q0 27 7.5 35.5t34.5 8.5q23 0 30.5 -9.5t7.5 -32.5q0 -61 -24.5 -99.5t-82.5 -73.5zM86 528l-23 29q70 45 70 89q0 13 -10.5 24t-10.5 29q0 27 7.5 35.5t34.5 8.5q23 0 30.5 -9.5t7.5 -32.5q0 -61 -24.5 -99
t-81.5 -74z" />
    <glyph glyph-name="quotedblbase" unicode="&#x201e;" horiz-adv-x="480" 
d="M264 -140l-22 28q70 47 70 90q0 13 -10.5 24t-10.5 29q0 27 7.5 35.5t34.5 8.5q23 0 31 -9.5t8 -32.5q0 -61 -25 -99.5t-83 -73.5zM88 -139l-23 28q69 46 69 89q0 13 -10.5 24t-10.5 29q0 27 7.5 35.5t34.5 8.5q23 0 30.5 -9.5t7.5 -32.5q0 -61 -24 -99t-81 -73z" />
    <glyph glyph-name="dagger" unicode="&#x2020;" horiz-adv-x="369" 
d="M326 524h-113v-313h-57v313h-113v43h113v142h57v-142h113v-43z" />
    <glyph glyph-name="daggerdbl" unicode="&#x2021;" horiz-adv-x="369" 
d="M326 149h-113v-149h-56v149h-114v43h114v329h-114v43h114v145h56v-145h113v-43h-113v-329h113v-43z" />
    <glyph glyph-name="bullet" unicode="&#x2022;" 
d="M365 306q0 -48 -33.5 -81.5t-81.5 -33.5t-81.5 33.5t-33.5 81.5t33.5 82t81.5 34t81.5 -34t33.5 -82z" />
    <glyph glyph-name="ellipsis" unicode="&#x2026;" horiz-adv-x="777" 
d="M642 36q0 -25 -8 -33.5t-33 -8.5t-33 8t-8 32q0 26 8 34t34 8q24 0 32 -8t8 -32zM419 36q0 -25 -8 -33.5t-33 -8.5t-33 8t-8 32q0 26 8 34t34 8q24 0 32 -8t8 -32zM196 36q0 -25 -8 -33.5t-33 -8.5t-33 8t-8 32q0 26 8 34t34 8q24 0 32 -8t8 -32z" />
    <glyph glyph-name="perthousand" unicode="&#x2030;" horiz-adv-x="1011" 
d="M327 526q0 -68 -34.5 -112t-98.5 -44q-127 0 -127 153q0 72 35.5 115.5t98.5 43.5q66 0 96 -43.5t30 -112.5zM274 522q0 120 -77 120t-77 -114q0 -118 78 -118q76 0 76 112zM602 667l-479 -682l-35 23l479 682zM622 149q0 -68 -34.5 -112t-98.5 -44q-127 0 -127 153
q0 72 35.5 115.5t98.5 43.5q66 0 96 -43.5t30 -112.5zM569 145q0 120 -77 120t-77 -114q0 -118 77 -118t77 112zM943 149q0 -68 -34.5 -112t-98.5 -44q-127 0 -127 153q0 72 35.5 115.5t98.5 43.5q66 0 96 -43.5t30 -112.5zM890 145q0 120 -77 120t-77 -114q0 -118 78 -118
q76 0 76 112z" />
    <glyph glyph-name="guilsinglleft" unicode="&#x2039;" horiz-adv-x="302" 
d="M216 126l-38 -17l-120 187l120 187l38 -17l-92 -170z" />
    <glyph glyph-name="guilsinglright" unicode="&#x203a;" horiz-adv-x="302" 
d="M86 466l38 17l119 -187l-120 -187l-37 17l92 170z" />
    <glyph glyph-name="exclamdbl" unicode="&#x203c;" horiz-adv-x="652" 
d="M241 137h-47l-12 538h72zM258 35q0 -24 -8.5 -32.5t-33.5 -8.5t-33.5 8t-8.5 32t8.5 32t34.5 8q25 0 33 -8t8 -31zM522 137h-47l-12 538h72zM539 35q0 -24 -8.5 -32.5t-33.5 -8.5t-33.5 8t-8.5 32t8.5 32t34.5 8q25 0 33 -8t8 -31z" />
    <glyph glyph-name="fraction" unicode="&#x2044;" horiz-adv-x="68" 
d="M-259 -43l570 773l36 -21l-570 -773z" />
    <glyph glyph-name="zero.superior" unicode="&#x2070;" horiz-adv-x="363" 
d="M316 551q0 -95 -37.5 -141.5t-103.5 -46.5q-133 0 -133 179q0 94 37 140.5t104 46.5q133 0 133 -178zM262 543q0 84 -21 116t-62 32q-44 0 -63.5 -33.5t-19.5 -108.5q0 -84 20.5 -116t62.5 -32q43 0 63 33.5t20 108.5z" />
    <glyph glyph-name="four.superior" unicode="&#x2074;" horiz-adv-x="346" 
d="M323 450h-59v-81h-52v81h-181v37q73 127 160 236h73v-233h59v-40zM212 490v199h-1q-58 -72 -136 -199h137z" />
    <glyph glyph-name="five.superior" unicode="&#x2075;" horiz-adv-x="341" 
d="M269 682h-149l-9 -110q30 6 59 6q128 0 128 -99q0 -55 -39 -85.5t-102 -30.5q-50 0 -114 20l5 29q62 -12 102 -12q94 0 94 74q0 36 -23 52t-72 16q-37 0 -88 -8l16 189h192v-41z" />
    <glyph glyph-name="six.superior" unicode="&#x2076;" horiz-adv-x="352" 
d="M301 712l-5 -29q-54 9 -89 9q-52 0 -74.5 -30.5t-26.5 -111.5q52 27 100 27q52 0 79.5 -25.5t27.5 -70.5q0 -55 -36.5 -86.5t-90.5 -31.5q-63 0 -97.5 38t-34.5 132q0 196 149 196q44 0 98 -17zM260 475q0 67 -73 67q-35 0 -80 -21q0 -63 18.5 -92.5t61.5 -29.5
q73 0 73 76z" />
    <glyph glyph-name="seven.superior" unicode="&#x2077;" horiz-adv-x="336" 
d="M301 685l-90 -158q-70 -120 -105 -165l-37 12l174 306h-203v43h261v-38z" />
    <glyph glyph-name="eight.superior" unicode="&#x2078;" horiz-adv-x="352" 
d="M41 450q0 33 23 55t64 41q-76 37 -76 94q0 39 33.5 64t94.5 25q60 0 90.5 -22.5t30.5 -58.5q0 -33 -21.5 -54.5t-60.5 -40.5q43 -18 67.5 -40t24.5 -57q0 -42 -36 -68t-104 -26q-63 0 -96.5 25t-33.5 63zM258 452q0 19 -15 34.5t-29.5 22.5t-46.5 21q-36 -17 -54.5 -33.5
t-18.5 -41.5q0 -58 85 -58q38 0 58.5 14.5t20.5 40.5zM104 643q0 -26 19.5 -42.5t55.5 -31.5q70 32 70 74q0 51 -75 51q-70 0 -70 -51z" />
    <glyph glyph-name="nine.superior" unicode="&#x2079;" horiz-adv-x="350" 
d="M46 381l7 29q62 -11 95 -11q52 0 74.5 31t26.5 112q-51 -28 -100 -28q-52 0 -79.5 26t-27.5 71q0 54 36.5 86t90.5 32q63 0 97.5 -38t34.5 -132q0 -196 -149 -196q-49 0 -106 18zM248 571q0 63 -18.5 92.5t-61.5 29.5q-73 0 -73 -76q0 -67 73 -67q38 0 80 21z" />
    <glyph glyph-name="uni207A" unicode="&#x207a;" horiz-adv-x="326" 
d="M285 526h-100v-104h-45v104h-99v39h99v104h45v-104h100v-39z" />
    <glyph glyph-name="uni207B" unicode="&#x207b;" horiz-adv-x="326" 
d="M285 525h-244v41h244v-41z" />
    <glyph glyph-name="uni207C" unicode="&#x207c;" horiz-adv-x="326" 
d="M283 577h-240v40h240v-40zM283 474h-240v39h240v-39z" />
    <glyph glyph-name="parenleft.superior" unicode="&#x207d;" horiz-adv-x="183" 
d="M160 295l-34 -11q-74 113 -74 265q0 158 74 273l34 -11q-57 -123 -57 -257q0 -137 57 -259z" />
    <glyph glyph-name="parenright.superior" unicode="&#x207e;" horiz-adv-x="183" 
d="M57 284l-33 11q57 121 57 257q0 131 -57 259l33 11q75 -112 75 -265q0 -156 -75 -273z" />
    <glyph glyph-name="nsuperior" unicode="&#x207f;" horiz-adv-x="372" 
d="M311 547q0 -21 -0.5 -84t-0.5 -94h-50q0 29 0.5 86.5t0.5 79.5q0 59 -15 83t-46 24q-44 0 -86 -36v-237h-50v306h41l4 -35q57 41 105 41q97 0 97 -134z" />
    <glyph glyph-name="zero.inferior" unicode="&#x2080;" horiz-adv-x="363" 
d="M316 127q0 -95 -37.5 -141.5t-103.5 -46.5q-133 0 -133 179q0 94 37 140.5t104 46.5q133 0 133 -178zM262 119q0 84 -21 116t-62 32q-44 0 -63.5 -33.5t-19.5 -108.5q0 -84 20.5 -116t62.5 -32q43 0 63 33.5t20 108.5z" />
    <glyph glyph-name="one.inferior" unicode="&#x2081;" horiz-adv-x="332" 
d="M289 -55h-235v40h95v268l-85 -26l-10 31l108 43h40v-316h87v-40z" />
    <glyph glyph-name="two.inferior" unicode="&#x2082;" horiz-adv-x="337" 
d="M294 -55h-249v38q111 92 147 135t36 85q0 63 -73 63q-36 0 -95 -18l-8 33q65 24 115 24q51 0 83.5 -24.5t32.5 -74.5q0 -48 -40 -97t-136 -122h187v-42z" />
    <glyph glyph-name="three.inferior" unicode="&#x2083;" horiz-adv-x="339" 
d="M43 -42l5 30q60 -11 105 -11q94 0 94 66q0 69 -95 69h-52v36h52q39 0 60.5 16.5t21.5 46.5q0 56 -78 56q-44 0 -90 -13l-9 32q57 19 107 19q63 0 93.5 -24t30.5 -63q0 -62 -69 -83q82 -15 82 -87q0 -53 -39 -81t-106 -28q-52 0 -113 19z" />
    <glyph glyph-name="four.inferior" unicode="&#x2084;" horiz-adv-x="346" 
d="M323 26h-59v-81h-52v81h-181v37q73 127 160 236h73v-233h59v-40zM212 66v199h-1q-58 -72 -136 -199h137z" />
    <glyph glyph-name="five.inferior" unicode="&#x2085;" horiz-adv-x="341" 
d="M269 258h-149l-9 -110q30 6 59 6q128 0 128 -99q0 -55 -39 -85.5t-102 -30.5q-50 0 -114 20l5 29q62 -12 102 -12q94 0 94 74q0 36 -23 52t-72 16q-37 0 -88 -8l16 189h192v-41z" />
    <glyph glyph-name="six.inferior" unicode="&#x2086;" horiz-adv-x="352" 
d="M301 288l-5 -29q-54 9 -89 9q-52 0 -74.5 -30.5t-26.5 -111.5q52 27 100 27q52 0 79.5 -25.5t27.5 -70.5q0 -55 -36.5 -86.5t-90.5 -31.5q-63 0 -97.5 38t-34.5 132q0 196 149 196q44 0 98 -17zM260 51q0 67 -73 67q-35 0 -80 -21q0 -63 18.5 -92.5t61.5 -29.5
q73 0 73 76z" />
    <glyph glyph-name="seven.inferior" unicode="&#x2087;" horiz-adv-x="336" 
d="M301 261l-90 -158q-70 -120 -105 -165l-37 12l174 306h-203v43h261v-38z" />
    <glyph glyph-name="eight.inferior" unicode="&#x2088;" horiz-adv-x="352" 
d="M41 26q0 33 23 55t64 41q-76 37 -76 94q0 39 33.5 64t94.5 25q60 0 90.5 -22.5t30.5 -58.5q0 -33 -21.5 -54.5t-60.5 -40.5q43 -18 67.5 -40t24.5 -57q0 -42 -36 -68t-104 -26q-63 0 -96.5 25t-33.5 63zM258 28q0 19 -15 34.5t-29.5 22.5t-46.5 21q-36 -17 -54.5 -33.5
t-18.5 -41.5q0 -58 85 -58q38 0 58.5 14.5t20.5 40.5zM104 219q0 -26 19.5 -42.5t55.5 -31.5q70 32 70 74q0 51 -75 51q-70 0 -70 -51z" />
    <glyph glyph-name="nine.inferior" unicode="&#x2089;" horiz-adv-x="350" 
d="M46 -43l7 29q62 -11 95 -11q52 0 74.5 31t26.5 112q-51 -28 -100 -28q-52 0 -79.5 26t-27.5 71q0 54 36.5 86t90.5 32q63 0 97.5 -38t34.5 -132q0 -196 -149 -196q-49 0 -106 18zM248 147q0 63 -18.5 92.5t-61.5 29.5q-73 0 -73 -76q0 -67 73 -67q38 0 80 21z" />
    <glyph glyph-name="uni208A" unicode="&#x208a;" horiz-adv-x="326" 
d="M285 102h-100v-104h-45v104h-99v39h99v104h45v-104h100v-39z" />
    <glyph glyph-name="uni208B" unicode="&#x208b;" horiz-adv-x="326" 
d="M285 101h-244v41h244v-41z" />
    <glyph glyph-name="uni208C" unicode="&#x208c;" horiz-adv-x="326" 
d="M283 153h-240v40h240v-40zM283 50h-240v39h240v-39z" />
    <glyph glyph-name="parenleft.inferior" unicode="&#x208d;" horiz-adv-x="183" 
d="M160 -129l-34 -11q-74 113 -74 265q0 158 74 273l34 -11q-57 -123 -57 -257q0 -137 57 -259z" />
    <glyph glyph-name="parenright.inferior" unicode="&#x208e;" horiz-adv-x="183" 
d="M57 -140l-33 11q57 121 57 257q0 131 -57 259l33 11q75 -112 75 -265q0 -156 -75 -273z" />
    <glyph glyph-name="Euro" unicode="&#x20ac;" 
d="M127 428h206v-41h-209q-2 -28 -2 -45q0 -33 2 -49h209v-41h-206q11 -103 55.5 -157t118.5 -54q82 0 149 77l27 -29q-79 -96 -189 -96q-94 0 -153 66.5t-72 192.5h-59v41h56q-1 11 -1 35q0 30 3 59h-58v41h62q16 117 79 185.5t152 68.5q116 0 169 -108l-31 -24
q-48 84 -136 84q-73 0 -117 -58.5t-55 -147.5z" />
    <glyph glyph-name="uni2117" unicode="&#x2117;" horiz-adv-x="773" 
d="M340 147h-52v372q13 0 53 0.5t52 0.5q146 0 146 -112q0 -65 -44.5 -94.5t-110.5 -29.5h-44v-137zM340 479v-155h50q95 0 95 78q0 41 -22.5 59t-72.5 18h-50zM725 342q0 -144 -97.5 -247.5t-245.5 -103.5q-141 0 -237.5 98.5t-96.5 242.5t97.5 247.5t245.5 103.5
q142 0 238 -98.5t96 -242.5zM677 341q0 128 -83.5 214.5t-204.5 86.5q-126 0 -209.5 -90.5t-83.5 -218.5t83.5 -214.5t203.5 -86.5q127 0 210.5 90.5t83.5 218.5z" />
    <glyph glyph-name="servicemark" unicode="&#x2120;" horiz-adv-x="432" 
d="M382 510h-37q2 72 -4 126h-1l-42 -126h-40l-39 125h-2q-5 -108 -5 -125h-33q6 102 15 165h48l39 -126h1l41 126h47q8 -64 12 -165zM140 669l-7 -22q-18 6 -35 6q-29 0 -29 -19q0 -3 0.5 -5.5t2.5 -4.5t4 -3t5.5 -3t6.5 -3t8.5 -3t9.5 -3q14 -5 22.5 -9.5t15.5 -14.5
t7 -24q0 -25 -19.5 -39.5t-51.5 -14.5q-30 0 -52 12l8 22q19 -8 40 -8q36 0 36 23q0 6 -4.5 10t-9 6.5t-14.5 6t-15 5.5q-36 13 -36 45q0 24 16.5 36.5t44.5 12.5q24 0 46 -9z" />
    <glyph glyph-name="trademark" unicode="&#x2122;" horiz-adv-x="406" 
d="M356 510h-36q0 79 -4 126h-2l-41 -126h-41l-39 125h-1q-5 -78 -5 -125h-33q3 80 14 165h48l40 -126h1l40 126h47q8 -64 12 -165zM138 647h-37v-137h-37v137h-37v28h111v-28z" />
    <glyph glyph-name="uni2139" unicode="&#x2139;" horiz-adv-x="349" 
d="M224 501q0 -27 -7.5 -35t-35.5 -8q-29 0 -36.5 8t-7.5 35t8 34.5t36 7.5q29 0 36 -7t7 -35zM328 0h-307v45h132v278h-122v46h183v-324h114v-45z" />
    <glyph glyph-name="onethird" unicode="&#x2153;" horiz-adv-x="731" 
d="M289 369h-235v40h95v268l-85 -26l-10 31l108 43h40v-316h87v-40zM73 -43l570 773l36 -21l-570 -773zM435 -42l5 30q60 -11 105 -11q94 0 94 66q0 69 -95 69h-52v36h52q39 0 60.5 16.5t21.5 46.5q0 56 -78 56q-44 0 -90 -13l-9 32q57 19 107 19q63 0 93.5 -24t30.5 -63
q0 -62 -69 -83q82 -15 82 -87q0 -53 -39 -81t-106 -28q-52 0 -113 19z" />
    <glyph glyph-name="twothirds" unicode="&#x2154;" horiz-adv-x="736" 
d="M294 369h-249v38q111 92 147 135t36 85q0 63 -73 63q-36 0 -95 -18l-8 33q65 24 115 24q51 0 83.5 -24.5t32.5 -74.5q0 -48 -40 -97t-136 -122h187v-42zM78 -43l570 773l36 -21l-570 -773zM440 -42l5 30q61 -11 105 -11q94 0 94 66q0 69 -95 69h-52v36h52q39 0 60.5 16.5
t21.5 46.5q0 56 -78 56q-44 0 -90 -13l-9 32q57 19 107 19q63 0 93.5 -24t30.5 -63q0 -62 -69 -83q82 -15 82 -87q0 -53 -39 -81t-106 -28q-52 0 -113 19z" />
    <glyph glyph-name="onefifth" unicode="&#x2155;" horiz-adv-x="728" 
d="M289 369h-235v40h95v268l-85 -26l-10 31l108 43h40v-316h87v-40zM73 -43l570 773l36 -21l-570 -773zM656 258h-149l-9 -110q30 6 59 6q128 0 128 -99q0 -55 -39 -85.5t-102 -30.5q-50 0 -114 20l5 29q61 -12 102 -12q94 0 94 74q0 36 -23 52t-72 16q-37 0 -88 -8l16 189
h192v-41z" />
    <glyph glyph-name="twofifths" unicode="&#x2156;" horiz-adv-x="733" 
d="M294 369h-249v38q111 92 147 135t36 85q0 63 -73 63q-36 0 -95 -18l-8 33q65 24 115 24q51 0 83.5 -24.5t32.5 -74.5q0 -48 -40 -97t-136 -122h187v-42zM78 -43l570 773l36 -21l-570 -773zM661 258h-149l-9 -110q30 6 59 6q128 0 128 -99q0 -55 -39 -85.5t-102 -30.5
q-50 0 -114 20l5 29q62 -12 102 -12q94 0 94 74q0 36 -23 52t-72 16q-37 0 -88 -8l16 189h192v-41z" />
    <glyph glyph-name="threefifths" unicode="&#x2157;" horiz-adv-x="743" 
d="M43 382l5 30q61 -11 105 -11q94 0 94 66q0 69 -95 69h-52v36h52q39 0 60.5 16.5t21.5 46.5q0 56 -78 56q-44 0 -90 -13l-9 32q57 19 107 19q63 0 93.5 -24t30.5 -63q0 -62 -69 -83q82 -15 82 -87q0 -53 -39 -81t-106 -28q-52 0 -113 19zM89 -43l570 773l36 -21l-570 -773
zM671 258h-149l-9 -110q30 6 59 6q128 0 128 -99q0 -55 -39 -85.5t-102 -30.5q-50 0 -114 20l5 29q62 -12 102 -12q94 0 94 74q0 36 -23 52t-72 16q-37 0 -88 -8l16 189h192v-41z" />
    <glyph glyph-name="fourfifths" unicode="&#x2158;" horiz-adv-x="729" 
d="M323 450h-59v-81h-52v81h-181v37q73 127 160 236h73v-233h59v-40zM212 490v199h-1q-58 -72 -136 -199h137zM74 -43l570 773l36 -21l-570 -773zM656 258h-149l-9 -110q30 6 59 6q128 0 128 -99q0 -55 -39 -85.5t-102 -30.5q-50 0 -114 20l5 29q61 -12 102 -12q94 0 94 74
q0 36 -23 52t-72 16q-37 0 -88 -8l16 189h192v-41z" />
    <glyph glyph-name="onesixth" unicode="&#x2159;" horiz-adv-x="743" 
d="M73 -43l570 773l36 -21l-570 -773zM692 288l-5 -29q-54 9 -89 9q-52 0 -74.5 -30.5t-26.5 -111.5q52 27 100 27q52 0 79.5 -25.5t27.5 -70.5q0 -55 -36.5 -86.5t-90.5 -31.5q-63 0 -97.5 38t-34.5 132q0 196 149 196q44 0 98 -17zM651 51q0 67 -73 67q-35 0 -80 -21
q0 -63 18.5 -92.5t61.5 -29.5q73 0 73 76zM289 369h-235v40h95v268l-85 -26l-10 31l108 43h40v-316h87v-40z" />
    <glyph glyph-name="fivesixths" unicode="&#x215a;" horiz-adv-x="754" 
d="M85 -43l570 773l36 -21l-570 -773zM704 288l-5 -29q-54 9 -89 9q-52 0 -74.5 -30.5t-26.5 -111.5q52 27 100 27q52 0 79.5 -25.5t27.5 -70.5q0 -55 -36.5 -86.5t-90.5 -31.5q-63 0 -97.5 38t-34.5 132q0 196 149 196q44 0 98 -17zM663 51q0 67 -73 67q-35 0 -80 -21
q0 -63 18.5 -92.5t61.5 -29.5q73 0 73 76zM269 682h-149l-9 -110q30 6 59 6q128 0 128 -99q0 -55 -39 -85.5t-102 -30.5q-50 0 -114 20l5 29q62 -12 102 -12q94 0 94 74q0 36 -23 52t-72 16q-37 0 -88 -8l16 189h192v-41z" />
    <glyph glyph-name="oneeighth" unicode="&#x215b;" horiz-adv-x="770" 
d="M73 -43l570 773l36 -21l-570 -773zM458 26q0 33 23 55t64 41q-76 37 -76 94q0 39 33.5 64t94.5 25q60 0 90.5 -22.5t30.5 -58.5q0 -33 -21.5 -54.5t-60.5 -40.5q43 -18 67.5 -40t24.5 -57q0 -42 -36 -68t-104 -26q-63 0 -96.5 25t-33.5 63zM675 28q0 19 -15 34.5
t-29.5 22.5t-46.5 21q-36 -17 -54.5 -33.5t-18.5 -41.5q0 -58 85 -58q38 0 58.5 14.5t20.5 40.5zM521 219q0 -26 19.5 -42.5t55.5 -31.5q70 32 70 74q0 51 -75 51q-70 0 -70 -51zM289 369h-235v40h95v268l-85 -26l-10 31l108 43h40v-316h87v-40z" />
    <glyph glyph-name="threeeighths" unicode="&#x215c;" horiz-adv-x="785" 
d="M43 382l5 30q61 -11 105 -11q94 0 94 66q0 69 -95 69h-52v36h52q39 0 60.5 16.5t21.5 46.5q0 56 -78 56q-44 0 -90 -13l-9 32q57 19 107 19q63 0 93.5 -24t30.5 -63q0 -62 -69 -83q82 -15 82 -87q0 -53 -39 -81t-106 -28q-52 0 -113 19zM89 -43l570 773l36 -21l-570 -773
zM474 26q0 33 23 55t64 41q-76 37 -76 94q0 39 33.5 64t94.5 25q60 0 90.5 -22.5t30.5 -58.5q0 -33 -21.5 -54.5t-60.5 -40.5q43 -18 67.5 -40t24.5 -57q0 -42 -36 -68t-104 -26q-63 0 -96.5 25t-33.5 63zM691 28q0 19 -15 34.5t-29.5 22.5t-46.5 21q-36 -17 -54.5 -33.5
t-18.5 -41.5q0 -58 85 -58q38 0 58.5 14.5t20.5 40.5zM537 219q0 -26 19.5 -42.5t55.5 -31.5q70 32 70 74q0 51 -75 51q-70 0 -70 -51z" />
    <glyph glyph-name="fiveeighths" unicode="&#x215d;" horiz-adv-x="781" 
d="M85 -43l570 773l36 -21l-570 -773zM470 26q0 33 23 55t64 41q-76 37 -76 94q0 39 33.5 64t94.5 25q60 0 90.5 -22.5t30.5 -58.5q0 -33 -21.5 -54.5t-60.5 -40.5q43 -18 67.5 -40t24.5 -57q0 -42 -36 -68t-104 -26q-63 0 -96.5 25t-33.5 63zM687 28q0 19 -15 34.5
t-29.5 22.5t-46.5 21q-36 -17 -54.5 -33.5t-18.5 -41.5q0 -58 85 -58q38 0 58.5 14.5t20.5 40.5zM533 219q0 -26 19.5 -42.5t55.5 -31.5q70 32 70 74q0 51 -75 51q-70 0 -70 -51zM269 682h-149l-9 -110q30 6 59 6q128 0 128 -99q0 -55 -39 -85.5t-102 -30.5q-50 0 -114 20
l5 29q62 -12 102 -12q94 0 94 74q0 36 -23 52t-72 16q-37 0 -88 -8l16 189h192v-41z" />
    <glyph glyph-name="seveneighths" unicode="&#x215e;" horiz-adv-x="737" 
d="M41 -43l570 773l36 -21l-570 -773zM426 26q0 33 23 55t64 41q-76 37 -76 94q0 39 33.5 64t94.5 25q60 0 90.5 -22.5t30.5 -58.5q0 -33 -21.5 -54.5t-60.5 -40.5q43 -18 67.5 -40t24.5 -57q0 -42 -36 -68t-104 -26q-63 0 -96.5 25t-33.5 63zM643 28q0 19 -15 34.5
t-29.5 22.5t-46.5 21q-36 -17 -54.5 -33.5t-18.5 -41.5q0 -58 85 -58q38 0 58.5 14.5t20.5 40.5zM489 219q0 -26 19.5 -42.5t55.5 -31.5q70 32 70 74q0 51 -75 51q-70 0 -70 -51zM350 685l-90 -158q-70 -120 -105 -165l-37 12l174 306h-203v43h261v-38z" />
    <glyph glyph-name="uni2160" unicode="&#x2160;" horiz-adv-x="382" 
d="M322 0h-262v50h101v575h-101v50h262v-50h-100v-575h100v-50z" />
    <glyph glyph-name="uni2161" unicode="&#x2161;" horiz-adv-x="765" 
d="M322 0h-262v50h101v575h-101v50h262v-50h-100v-575h100v-50zM704 0h-262v50h101v575h-101v50h262v-50h-100v-575h100v-50z" />
    <glyph glyph-name="uni2162" unicode="&#x2162;" horiz-adv-x="1147" 
d="M322 0h-262v50h101v575h-101v50h262v-50h-100v-575h100v-50zM704 0h-262v50h101v575h-101v50h262v-50h-100v-575h100v-50zM1087 0h-262v50h101v575h-101v50h262v-50h-100v-575h100v-50z" />
    <glyph glyph-name="uni2163" unicode="&#x2163;" horiz-adv-x="897" 
d="M322 0h-262v50h101v575h-101v50h262v-50h-100v-575h100v-50zM813 675h63q-88 -365 -202 -675h-69q-127 366 -203 675h67q59 -256 176 -608h1q101 308 167 608z" />
    <glyph glyph-name="uni2164" unicode="&#x2164;" horiz-adv-x="514" 
d="M431 675h63q-88 -365 -202 -675h-69q-127 366 -203 675h67q59 -256 176 -608h1q101 308 167 608z" />
    <glyph glyph-name="uni2165" unicode="&#x2165;" horiz-adv-x="897" 
d="M431 675h63q-88 -365 -202 -675h-69q-127 366 -203 675h67q59 -256 176 -608h1q101 308 167 608zM836 0h-262v50h101v575h-101v50h262v-50h-100v-575h100v-50z" />
    <glyph glyph-name="uni2166" unicode="&#x2166;" horiz-adv-x="1279" 
d="M431 675h63q-88 -365 -202 -675h-69q-127 366 -203 675h67q59 -256 176 -608h1q101 308 167 608zM836 0h-262v50h101v575h-101v50h262v-50h-100v-575h100v-50zM1219 0h-262v50h101v575h-101v50h262v-50h-100v-575h100v-50z" />
    <glyph glyph-name="uni2167" unicode="&#x2167;" horiz-adv-x="1662" 
d="M431 675h63q-88 -365 -202 -675h-69q-127 366 -203 675h67q59 -256 176 -608h1q101 308 167 608zM836 0h-262v50h101v575h-101v50h262v-50h-100v-575h100v-50zM1219 0h-262v50h101v575h-101v50h262v-50h-100v-575h100v-50zM1601 0h-262v50h101v575h-101v50h262v-50h-100
v-575h100v-50z" />
    <glyph glyph-name="uni2168" unicode="&#x2168;" horiz-adv-x="923" 
d="M322 0h-262v50h101v575h-101v50h262v-50h-100v-575h100v-50zM889 0h-71q-93 186 -172 304h-1q-104 -156 -168 -304h-65q69 152 201 351q-103 161 -183 324h70q76 -156 151 -275h2q95 140 151 275h65q-66 -146 -184 -318q125 -195 204 -357z" />
    <glyph glyph-name="uni2169" unicode="&#x2169;" horiz-adv-x="540" 
d="M507 0h-71q-93 186 -172 304h-1q-104 -156 -168 -304h-65q69 152 201 351q-103 161 -183 324h70q76 -156 151 -275h2q95 140 151 275h65q-66 -146 -184 -318q125 -195 204 -357z" />
    <glyph glyph-name="uni216A" unicode="&#x216a;" horiz-adv-x="923" 
d="M507 0h-71q-93 186 -172 304h-1q-104 -156 -168 -304h-65q69 152 201 351q-103 161 -183 324h70q76 -156 151 -275h2q95 140 151 275h65q-66 -146 -184 -318q125 -195 204 -357zM862 0h-262v50h101v575h-101v50h262v-50h-100v-575h100v-50z" />
    <glyph glyph-name="uni216B" unicode="&#x216b;" horiz-adv-x="1305" 
d="M507 0h-71q-93 186 -172 304h-1q-104 -156 -168 -304h-65q69 152 201 351q-103 161 -183 324h70q76 -156 151 -275h2q95 140 151 275h65q-66 -146 -184 -318q125 -195 204 -357zM862 0h-262v50h101v575h-101v50h262v-50h-100v-575h100v-50zM1245 0h-262v50h101v575h-101
v50h262v-50h-100v-575h100v-50z" />
    <glyph glyph-name="uni216C" unicode="&#x216c;" horiz-adv-x="421" 
d="M402 0h-303v675h61v-625h242v-50z" />
    <glyph glyph-name="uni216D" unicode="&#x216d;" horiz-adv-x="519" 
d="M452 122l28 -31q-78 -98 -192 -98q-108 0 -168 85.5t-60 249.5t66 259t174 95q116 0 169 -111l-33 -24q-50 85 -134 85q-59 0 -100.5 -43.5t-59 -107t-17.5 -139.5q0 -148 45.5 -223t131.5 -75q82 0 150 78z" />
    <glyph glyph-name="uni216E" unicode="&#x216e;" horiz-adv-x="573" 
d="M99 0v675q22 0 66.5 0.5t68.5 0.5q75 0 130.5 -26t87 -72t46.5 -102t15 -123q0 -170 -74.5 -262t-221.5 -92q-25 0 -65.5 0.5t-52.5 0.5zM160 626v-575q36 -3 73 -3q215 0 215 295q0 284 -224 284q-43 0 -64 -1z" />
    <glyph glyph-name="uni216F" unicode="&#x216f;" horiz-adv-x="837" 
d="M749 0h-65q-8 350 -41 600h-1l-207 -600h-45l-209 600h-1q-25 -253 -30 -600h-62q8 341 50 675h80l199 -570h1l198 570h78q47 -351 55 -675z" />
    <glyph glyph-name="arrowleft" unicode="&#x2190;" horiz-adv-x="1054" 
d="M77 338l358 358l28 -28q-160 -177 -292 -305v-1q335 5 663 5h133v-58h-133l-663 5v-1q59 -57 132 -133t117 -124l43 -48l-28 -28z" />
    <glyph glyph-name="arrowup" unicode="&#x2191;" horiz-adv-x="870" 
d="M435 788l358 -358l-28 -28q-177 160 -305 292h-1q5 -335 5 -663v-133h-58v133l5 663h-1q-57 -59 -133 -132t-124 -116l-48 -44l-28 28z" />
    <glyph glyph-name="arrowright" unicode="&#x2192;" horiz-adv-x="1054" 
d="M977 338l-358 -358l-28 28q160 177 292 305v1q-335 -5 -663 -5h-133v58h133l663 -5v1q-59 57 -132 133t-117 124l-43 48l28 28z" />
    <glyph glyph-name="arrowdown" unicode="&#x2193;" horiz-adv-x="870" 
d="M435 -112l-358 358l28 28q177 -160 305 -292h1q-5 335 -5 663v133h58v-133l-5 -663h1q57 59 133 132t124 116l48 44l28 -28z" />
    <glyph glyph-name="arrowboth" unicode="&#x2194;" horiz-adv-x="1250" 
d="M1173 338l-316 -316l-28 27q131 147 254 265v1q-220 -4 -367 -4h-182l-367 4v-1q55 -52 118.5 -118.5t99.5 -106.5l36 -40l-28 -27l-316 316l316 316l28 -27q-131 -147 -254 -265v-1q220 4 367 4h182l367 -4v1q-55 52 -118.5 118.5t-99.5 106.5l-36 40l28 27z" />
    <glyph glyph-name="arrowupdn" unicode="&#x2195;" horiz-adv-x="786" 
d="M393 -154l-316 316l27 28q147 -131 265 -254h1q-4 220 -4 367v70l4 367h-1q-52 -55 -118.5 -118.5t-106.5 -99.5l-40 -36l-27 28l316 316l316 -316l-27 -28q-147 131 -265 254h-1q4 -220 4 -367v-70l-4 -367h1q52 55 118.5 118.5t106.5 99.5l40 36l27 -28z" />
    <glyph glyph-name="arrownorthwest" unicode="&#x2196;" horiz-adv-x="846" 
d="M104 657h507v-41q-27 -1 -71.5 -3t-157 -4t-194.5 -1v-1q239 -232 471 -465l95 -95l-40 -40l-95 95q-104 103 -220.5 221t-180.5 184l-65 66q1 -82 -1 -188t-4 -171l-3 -65h-41v508z" />
    <glyph glyph-name="arrownortheast" unicode="&#x2197;" horiz-adv-x="846" 
d="M741 657v-508h-40q-1 27 -3 72t-4 157.5t-1 194.5h-1q-232 -239 -465 -471l-95 -95l-40 40l95 95q103 104 221 220t184 180l66 65v1q-82 -1 -188 1t-171 5l-65 2v41h507z" />
    <glyph glyph-name="arrowsoutheast" unicode="&#x2198;" horiz-adv-x="846" 
d="M741 19h-507v41q27 1 72 3t157.5 4t194.5 1v1q-239 232 -471 465l-95 95l40 40l95 -95q104 -103 220 -221t181 -184l64 -66h1q-1 82 1 188t4 171l3 65h40v-508z" />
    <glyph glyph-name="arrowsouthwest" unicode="&#x2199;" horiz-adv-x="846" 
d="M104 19v508h41q1 -27 2.5 -72t4 -157.5t1.5 -194.5q233 239 466 471l95 95l40 -40l-95 -95q-103 -104 -221 -220t-184 -180l-66 -65v-1q82 1 187.5 -1t170.5 -5l65 -2v-41h-507z" />
    <glyph glyph-name="partialdiff" unicode="&#x2202;" horiz-adv-x="508" 
d="M187 677l31 37q47 -30 83.5 -64.5t71.5 -84.5t54 -118.5t19 -150.5q0 -158 -56 -230.5t-144 -72.5q-94 0 -144 65.5t-50 179.5q0 127 59.5 192t161.5 65q43 0 75 -9q-49 104 -161 191zM383 282q0 88 -18 152q-39 16 -103 16q-66 0 -106.5 -50t-40.5 -150
q0 -110 34.5 -160t103.5 -50q130 0 130 242z" />
    <glyph glyph-name="product" unicode="&#x220f;" horiz-adv-x="653" 
d="M628 625h-87v-625h-62v625h-301v-625h-61v625h-86v50h597v-50z" />
    <glyph glyph-name="summation" unicode="&#x2211;" 
d="M450 0h-409v39l239 311l-225 281v44h383v-49h-306l217 -270l-235 -305h336v-51z" />
    <glyph glyph-name="minus" unicode="&#x2212;" 
d="M456 274h-410v47h410v-47z" />
    <glyph glyph-name="uni2215" unicode="&#x2215;" horiz-adv-x="68" 
d="M-259 -43l570 773l36 -21l-570 -773z" />
    <glyph glyph-name="radical" unicode="&#x221a;" 
d="M419 675h60q-73 -341 -197 -675h-65l-114 448h-95v45h144l106 -425q102 314 161 607z" />
    <glyph glyph-name="infinity" unicode="&#x221e;" horiz-adv-x="1000" 
d="M943 306q0 -92 -47.5 -147t-139.5 -55q-65 0 -125.5 40.5t-133.5 113.5q-74 -74 -134 -114t-126 -40q-89 0 -134.5 51.5t-45.5 132.5q0 92 47.5 147t139.5 55q65 0 125 -40.5t134 -114.5q75 75 134.5 115t125.5 40q89 0 134.5 -51.5t45.5 -132.5zM243 154q51 0 101 35.5
t118 104.5q-47 48 -76 74t-70 49t-76 23q-62 0 -92 -41t-30 -102q0 -62 30 -102.5t95 -40.5zM882 297q0 62 -30 102.5t-95 40.5q-51 0 -101 -35.5t-118 -104.5q47 -48 76 -74t70 -49t76 -23q62 0 92 41t30 102z" />
    <glyph glyph-name="integral" unicode="&#x222b;" horiz-adv-x="400" 
d="M368 696l-10 -37q-34 12 -59 12q-40 0 -57.5 -23t-17.5 -73v-612q0 -66 -30.5 -103t-89.5 -37q-41 0 -83 20l10 37q31 -11 59 -11q40 0 57.5 22.5t17.5 72.5v613q0 65 30.5 102t89.5 37q41 0 83 -20z" />
    <glyph glyph-name="uni2236" unicode="&#x2236;" horiz-adv-x="332" 
d="M207 534q0 -24 -8.5 -32.5t-32.5 -8.5t-32.5 8t-8.5 31q0 24 9 32.5t33 8.5q23 0 31.5 -8t8.5 -31zM207 123q0 -24 -8.5 -32.5t-32.5 -8.5t-32.5 8t-8.5 31q0 24 9 32.5t33 8.5q23 0 31.5 -8t8.5 -31z" />
    <glyph glyph-name="approxequal" unicode="&#x2248;" 
d="M428 432l21 -32q-34 -32 -60.5 -45.5t-58.5 -13.5q-42 0 -90.5 28.5t-82.5 28.5q-35 0 -90 -45l-21 33q34 32 60.5 45.5t58.5 13.5q42 0 90.5 -28.5t82.5 -28.5q37 0 90 44zM428 240l21 -32q-34 -32 -60.5 -45.5t-58.5 -13.5q-42 0 -90.5 28.5t-82.5 28.5q-35 0 -90 -45
l-21 33q34 32 60.5 45.5t58.5 13.5q42 0 90.5 -28.5t82.5 -28.5q37 0 90 44z" />
    <glyph glyph-name="notequal" unicode="&#x2260;" 
d="M451 180h-234l-85 -158l-42 21l76 137h-114v43h135l79 147h-214v44h236l84 157l42 -20l-75 -137h112v-44h-133l-80 -147h213v-43z" />
    <glyph glyph-name="lessequal" unicode="&#x2264;" 
d="M453 0h-408v44h408v-44zM453 169l-20 -44l-388 188v39l388 187l20 -44l-347 -162z" />
    <glyph glyph-name="greaterequal" unicode="&#x2265;" 
d="M453 0h-408v44h408v-44zM453 313l-388 -188l-21 44l347 162l-347 164l21 44l388 -187v-39z" />
    <glyph glyph-name="filledbox" unicode="&#x25a0;" horiz-adv-x="1100" 
d="M978 -101h-856v878h856v-878z" />
    <glyph glyph-name="uni25A1" unicode="&#x25a1;" horiz-adv-x="1100" 
d="M995 -109h-890v894h890v-894zM943 -64v804h-786v-804h786z" />
    <glyph glyph-name="uni25B2" unicode="&#x25b2;" horiz-adv-x="800" 
d="M400 693l272 -651h-544z" />
    <glyph glyph-name="uni25B3" unicode="&#x25b3;" horiz-adv-x="800" 
d="M681 36h-562l281 673zM608 84l-208 499l-208 -499h416z" />
    <glyph glyph-name="uni25B6" unicode="&#x25b6;" horiz-adv-x="811" 
d="M760 338l-651 -272v544z" />
    <glyph glyph-name="uni25B7" unicode="&#x25b7;" horiz-adv-x="811" 
d="M776 338l-673 -281v562zM152 546v-416l498 208z" />
    <glyph glyph-name="uni25BC" unicode="&#x25bc;" horiz-adv-x="800" 
d="M672 634l-272 -651l-272 651h544z" />
    <glyph glyph-name="uni25BD" unicode="&#x25bd;" horiz-adv-x="800" 
d="M681 640l-281 -673l-281 673h562zM192 592l208 -499l208 499h-416z" />
    <glyph glyph-name="uni25C0" unicode="&#x25c0;" horiz-adv-x="811" 
d="M702 610v-544l-651 272z" />
    <glyph glyph-name="uni25C1" unicode="&#x25c1;" horiz-adv-x="811" 
d="M708 619v-562l-673 281zM161 338l498 -208v416z" />
    <glyph glyph-name="lozenge" unicode="&#x25ca;" 
d="M469 341l-194 -341h-55l-190 334l195 341h54zM410 333l-163 286l-158 -277l164 -286z" />
    <glyph glyph-name="circle" unicode="&#x25cb;" horiz-adv-x="1100" 
d="M1022 338q0 -231 -121 -354t-351 -123q-229 0 -350.5 123t-121.5 354t121.5 354t350.5 123q231 0 351.5 -122.5t120.5 -354.5zM969 338q0 432 -419 432t-419 -432t419 -432t419 432z" />
    <glyph glyph-name="uni25CF" unicode="&#x25cf;" horiz-adv-x="1100" 
d="M87 338q0 226 119 346t346 120q224 0 342 -120t118 -346t-118.5 -346t-341.5 -120q-227 0 -346 120t-119 346z" />
    <glyph glyph-name="uniE1C2" unicode="&#xe1c2;" horiz-adv-x="1100" 
d="M1013 338q0 -226 -119 -346t-342 -120q-227 0 -346 120t-119 346t119 346t346 120q224 0 342.5 -120t118.5 -346zM693 57h75l-266 305l243 259h-72l-226 -253h-1v253h-60v-564h60v282h1z" />
    <glyph glyph-name="uniE1C3" unicode="&#xe1c3;" horiz-adv-x="1100" 
d="M1013 338q0 -226 -119 -346t-342 -120q-227 0 -346 120t-119 346t119 346t346 120q224 0 342.5 -120t118.5 -346zM600 577q0 28 -7 35.5t-36 7.5t-37 -8t-8 -35t8 -35t37 -8q28 0 35.5 8t7.5 35zM397 76h307v46h-114v323h-183v-45h122v-278h-132v-46z" />
    <glyph glyph-name="uniE1C4" unicode="&#xe1c4;" horiz-adv-x="1100" 
d="M769 57h-76l-246 282h-1v-282h-59v564h59v-253h1l227 253h71l-242 -259zM1022 338q0 -231 -121 -354t-351 -123q-229 0 -350.5 123t-121.5 354t121.5 354t350.5 123q231 0 351.5 -122.5t120.5 -354.5zM969 338q0 432 -419 432t-419 -432t419 -432t419 432z" />
    <glyph glyph-name="apple" unicode="&#xf8ff;" horiz-adv-x="1000" 
d="M694 133l-18 -5l35 -81l-33 -9l33 -78l-34 -9l12 -28l-33 -74h-57q-3 -22 -31 -35.5t-67 -13.5q-40 0 -68 14t-31 35h-57l-56 134l34 10l-34 82l37 9l-20 50v85q-74 77 -74 184q0 111 78.5 189.5t190.5 78.5q110 0 188.5 -78.5t78.5 -189.5q0 -109 -74 -185v-85zM573 244
h64q73 62 73 159q0 87 -61.5 148.5t-147.5 61.5q-87 0 -149 -61.5t-62 -148.5q0 -98 74 -159h64l-18 148q-14 -3 -41 -13q-10 -3 -15 9.5t-2.5 27t9.5 16.5q69 22 140 22q68 0 141 -22q6 -2 8 -16.5t-2.5 -27t-14.5 -9.5q-32 11 -43 13zM641 -15l-16 40l-265 -68l27 -67h227
l15 35l-7 14l-81 -21l-14 38zM637 163v34h-274v-59l17 -41zM533 244l15 156q-28 2 -44 2q-37 0 -52 -2l16 -156h65zM641 73l-18 43l-264 -68l18 -42zM531 884l-9 -147q-22 3 -44 0l-9 147q4 0 14.5 0.5t16.5 0.5q22 0 31 -1zM166 381l-121 -8q-3 31 0 61l121 -9v-13.5v-16.5
v-14zM955 373l-121 8q2 24 0 44l121 9q3 -31 0 -61zM843 704l-91 -80q-13 15 -32 31l81 91q23 -19 42 -42zM248 624l-91 80q21 24 42 42l81 -91q-18 -14 -32 -31zM505 425v3q0 2 -3 1v-1q2 1 2 0q-2 0 -2 -2q0 -1 2 -1h1zM494 426v3h-1v-3h-1v3h-1v-3q0 -1 1.5 -1t1.5 1z
M508 428v1q-4 0 -2 -3v-1q5 0 2 3zM501 424q-1 3 0 7h-1q-1 -4 0 -7h1zM510 424q1 4 0 7h-1q1 -4 0 -7h1zM498 425v1v2v1h-2q-1 -3 2 -4zM490 425v1h-1v4h-1v-5h2zM503 426q0 1 1 1z" />
    <glyph glyph-name="s_t" unicode="&#xfb06;" horiz-adv-x="719" 
d="M682 57l9 -36q-58 -28 -106 -28q-60 0 -84.5 30.5t-24.5 103.5v323h-85v43h85v33q0 74 -27.5 106t-85.5 32q-49 0 -79 -27t-30 -74q0 -63 55 -88l-10 -35q-45 16 -89 16q-48 0 -74.5 -22.5t-26.5 -57.5t24.5 -58t60 -36t71 -28t60 -45.5t24.5 -76.5q0 -62 -45.5 -100.5
t-121.5 -38.5q-69 0 -136 32l10 36q65 -22 119 -22t83 24.5t29 62.5q0 35 -24.5 58t-59.5 36t-70.5 28t-60 45.5t-24.5 76.5q0 56 42.5 93t110.5 37l36 -4q-32 22 -32 72q0 63 46.5 102t121.5 39q161 0 161 -176v-40h144v-43h-144v-309q0 -58 13.5 -80t52.5 -22q32 0 82 18z
" />
    <glyph glyph-name="uniFEFF" unicode="&#xfeff;" horiz-adv-x="0" 
 />
    <glyph glyph-name="u1F137" unicode="&#x1f137;" horiz-adv-x="1100" 
d="M759 57h-60v270h-298v-270h-60v564h60v-242h298v242h60v-564zM995 -109h-890v894h890v-894zM943 -64v804h-786v-804h786z" />
    <glyph glyph-name="u1F13F" unicode="&#x1f13f;" horiz-adv-x="1100" 
d="M459 57h-59v564q16 0 62 0.5t82 0.5q213 0 213 -170q0 -81 -57 -133.5t-182 -52.5h-59v-209zM459 576v-263h74q160 0 160 133q0 68 -36.5 99t-124.5 31h-73zM995 -109h-890v894h890v-894zM943 -64v804h-786v-804h786z" />
    <glyph glyph-name="u1F177" unicode="&#x1f177;" horiz-adv-x="1100" 
d="M978 -101h-856v878h856v-878zM699 57h60v564h-60v-242h-298v242h-60v-564h60v270h298v-270z" />
    <glyph glyph-name="u1F17F" unicode="&#x1f17f;" horiz-adv-x="1100" 
d="M978 -101h-856v878h856v-878zM392 57h60v209h58q125 0 182 52.5t57 133.5q0 170 -213 170q-35 0 -81.5 -0.5t-62.5 -0.5v-564zM452 313v263h72q88 0 124.5 -31t36.5 -99q0 -133 -160 -133h-73z" />
    <glyph glyph-name="U1F6C8" unicode="&#x1f6c8;" horiz-adv-x="1100" 
d="M1022 338q0 -231 -121 -354t-351 -123q-229 0 -350.5 123t-121.5 354t121.5 354t350.5 123q231 0 351.5 -122.5t120.5 -354.5zM969 338q0 432 -419 432t-419 -432t419 -432t419 432zM596 577q0 -27 -7.5 -35t-35.5 -8q-29 0 -36.5 8t-7.5 35t8 34.5t36 7.5q29 0 36 -7
t7 -35zM700 76h-307v45h132v278h-122v46h183v-324h114v-45z" />
    <glyph glyph-name="L_a_t_n_C_a_p_s" horiz-adv-x="903" 
d="M203 500h-151v337h30v-312h121v-25zM410 500h-22l-4 29q-40 -33 -78 -33q-69 0 -69 65q0 82 123 82h21v29q0 55 -60 55q-27 0 -67 -14l-5 19q40 18 81 18q80 0 80 -73v-177zM381 550v72h-25q-51 0 -70.5 -15t-19.5 -41q0 -22 12.5 -34.5t34.5 -12.5q34 0 68 31zM607 529
l5 -19q-26 -13 -53 -13q-30 0 -42 14.5t-12 51.5v162h-43v21h43q6 44 8 70h21v-70h71v-21h-71v-154q0 -30 6 -40.5t26 -10.5t41 9zM849 500h-29q0 22 0.5 68.5t0.5 64.5q0 93 -52 93q-29 0 -67 -33v-193h-30v246h25l2 -30q41 34 79 34q73 0 73 -109q0 -16 -1 -66.5t-1 -74.5
zM196 61l14 -16q-39 -49 -96 -49q-54 0 -84 43t-30 125t33 129.5t87 47.5q57 0 84 -55l-16 -12q-24 41 -67 41q-44 0 -66 -42.5t-22 -101.5q0 -149 88 -149q40 0 75 39zM427 0h-23l-4 29q-40 -33 -78 -33q-33 0 -51 17.5t-18 47.5q0 82 123 82h22v29q0 55 -61 55
q-27 0 -67 -14l-5 19q40 18 81 18q81 0 81 -73v-177zM398 50v72h-26q-90 0 -90 -56q0 -22 12.5 -34.5t34.5 -12.5q34 0 69 31zM548 -87h-29v333h23l3 -28q40 32 74 32q36 0 58.5 -33t22.5 -85q0 -68 -32.5 -102t-84.5 -34q-11 0 -35 2v-85zM548 194v-168q18 -7 42 -7
q35 0 57 27t22 79q0 45 -15.5 73t-42.5 28q-30 0 -63 -32zM751 12l5 18q36 -11 60 -11q27 0 41.5 12t14.5 32q0 21 -19 34.5t-41 19t-41 23t-19 45.5t21.5 46.5t55.5 18.5q28 0 55 -12l-6 -18q-20 7 -45 7q-24 0 -37 -11t-13 -28q0 -21 18.5 -34.5t41.5 -19.5t41.5 -23
t18.5 -45q0 -31 -22.5 -50t-61.5 -19q-33 0 -68 15z" />
    <glyph glyph-name="IJ.alt1" horiz-adv-x="527" 
d="M160 0h-61v675h61v-675zM428 675v-450q0 -74 -23 -129t-74 -105l-36 27q72 81 72 214v443h61z" />
    <glyph glyph-name="IJ.alt2" horiz-adv-x="527" 
d="M160 0h-61v675h61v-675zM428 675v-604q0 -58 -8 -96.5t-30 -71.5t-63.5 -52.5t-105.5 -27.5l-7 40q93 17 123 61t30 142v609h61z" />
    <glyph glyph-name="J.alt1" horiz-adv-x="268" 
d="M169 675v-450q0 -74 -23 -129t-74 -105l-36 27q72 81 72 214v443h61z" />
    <glyph glyph-name="J.alt2" horiz-adv-x="268" 
d="M169 675v-604q0 -58 -8 -96.5t-30 -71.5t-63.5 -52.5t-105.5 -27.5l-7 40q93 17 123 61t30 142v609h61z" />
    <glyph glyph-name="Jcircumflex.alt2" horiz-adv-x="268" 
d="M169 675v-604q0 -58 -8 -96.5t-30 -71.5t-63.5 -52.5t-105.5 -27.5l-7 40q93 17 123 61t30 142v609h61zM137 852l141 -91l-19 -30l-123 66l-121 -66l-18 30z" />
    <glyph glyph-name="Jcircumflex.alt1" horiz-adv-x="268" 
d="M169 675v-450q0 -74 -23 -129t-74 -105l-36 27q72 81 72 214v443h61zM138 852l141 -91l-19 -30l-123 66l-121 -66l-18 30z" />
    <glyph glyph-name="L_a_t_n_L_o_w_e_r" horiz-adv-x="1167" 
d="M386 128q0 -66 -28.5 -99t-78.5 -33q-94 0 -94 122q0 66 28 99t77 33q45 0 70.5 -30.5t25.5 -91.5zM524 500h-23l-3 29q-42 -33 -79 -33q-33 0 -51 17.5t-18 47.5q0 82 124 82h21v29q0 55 -60 55q-26 0 -68 -14l-5 19q40 18 82 18q80 0 80 -73v-177zM977 121h-150v-5
q0 -96 74 -96q33 0 69 15l7 -18q-40 -21 -84 -21q-96 0 -96 120q0 64 25.5 99t71.5 35q90 0 83 -129zM721 246h30q-27 -128 -75 -246h-28l-54 177l-8 29l-7 -29l-47 -177h-31l-77 246h31l50 -165l13 -45l9 36l46 174h29l55 -179l9 -30q39 115 55 209zM355 117q0 58 -17 84
t-54 26q-32 0 -50.5 -25t-18.5 -73q0 -58 17 -84t53 -26q32 0 51 25t19 73zM962 500h-28q0 22 0.5 68.5t0.5 64.5q0 93 -53 93q-29 0 -67 -33v-193h-29v246h24l3 -30q39 34 79 34q72 0 72 -109q0 -16 -1 -66.5t-1 -74.5zM152 0h-152v337h31v-312h121v-25zM316 500h-151v337
h31v-312h120v-25zM721 529l5 -19q-27 -13 -53 -13q-31 0 -43 14.5t-12 51.5v162h-42v21h42q3 14 9 70h20v-70h72v-21h-72v-154q0 -29 6.5 -40t26.5 -11t41 9zM495 550v72h-25q-91 0 -91 -56q0 -47 48 -47q33 0 68 31zM1167 244l-4 -28q-11 4 -18 4q-22 0 -60 -48v-172h-29
v246h24l3 -46q41 50 65 50q7 0 19 -6zM827 143h121v2q0 83 -57 83q-29 0 -45.5 -23.5t-18.5 -61.5z" />
    <glyph glyph-name="c_h" horiz-adv-x="938" 
d="M847 0h-58q0 49 1.5 142.5t1.5 122.5q0 99 -27 143.5t-80 44.5q-58 0 -133 -66v-387h-58v665q-28 6 -66 6q-62 0 -94.5 -27t-32.5 -75q0 -63 69 -120l-21 -34q-46 39 -103 39q-60 0 -94 -54.5t-34 -149.5q0 -210 130 -210q56 0 113 56l23 -31q-67 -72 -148 -72
q-85 0 -132 62.5t-47 183.5q0 119 51 190t132 71q25 0 45 -10q-34 28 -34 83q0 65 51.5 104t146.5 39q21 0 47 -2t41 -4l15 -3v-272q76 65 153 65q145 0 145 -217q0 -25 -1.5 -126.5t-1.5 -156.5z" />
    <glyph glyph-name="c_k" horiz-adv-x="844" 
d="M825 0h-72l-199 264h-2v-264h-58v665q-28 6 -66 6q-62 0 -94.5 -27t-32.5 -75q0 -63 69 -120l-21 -34q-46 39 -103 39q-60 0 -94 -54.5t-34 -149.5q0 -210 130 -210q56 0 113 56l23 -31q-67 -72 -148 -72q-85 0 -132 62.5t-47 183.5q0 119 51 190t132 71q25 0 45 -10
q-34 28 -34 83q0 65 51.5 104t146.5 39q21 0 47 -2t41 -4l15 -3v-421h2l174 207h73l-193 -211z" />
    <glyph glyph-name="c_t" horiz-adv-x="764" 
d="M723 450h-143v-309q0 -58 13 -80t52 -22q32 0 82 18l9 -36q-56 -28 -105 -28q-60 0 -84.5 30.5t-24.5 103.5v323h-86v43h86v33q0 74 -28 106t-86 32q-48 0 -77.5 -26t-29.5 -69q0 -64 68 -120l-20 -34q-46 39 -103 39q-60 0 -94 -54.5t-34 -149.5q0 -210 133 -210
q61 0 120 56l24 -30q-66 -73 -156 -73q-87 0 -134.5 62.5t-47.5 183.5q0 120 51 190.5t132 70.5q25 0 45 -10q-34 28 -34 83q0 60 46.5 98t121.5 38q161 0 161 -176v-40h143v-43z" />
    <glyph glyph-name="ccedilla_t" horiz-adv-x="764" 
d="M723 450h-143v-309q0 -58 13 -80t52 -22q32 0 82 18l9 -36q-56 -28 -105 -28q-60 0 -84.5 30.5t-24.5 103.5v323h-86v43h86v33q0 74 -28 106t-86 32q-48 0 -77.5 -26t-29.5 -69q0 -64 68 -120l-20 -34q-46 39 -103 39q-60 0 -94 -54.5t-34 -149.5q0 -210 133 -210
q61 0 120 56l24 -30q-66 -73 -156 -73q-87 0 -134.5 62.5t-47.5 183.5q0 120 51 190.5t132 70.5q25 0 45 -10q-34 28 -34 83q0 60 46.5 98t121.5 38q161 0 161 -176v-40h143v-43zM212 -44h53q7 -78 -69 -133l-31 22q28 26 38 49t9 62z" />
    <glyph glyph-name="i.dotaccent" horiz-adv-x="243" 
d="M159 640q0 -23 -6.5 -30t-30.5 -7t-31.5 7t-7.5 30t7 30t32 7q24 0 30.5 -6.5t6.5 -30.5zM150 0h-58v493h58v-493z" />
    <glyph glyph-name="ij.alt1" horiz-adv-x="537" 
d="M444 493v-479q0 -109 -45 -150t-135 -41q-68 0 -146 26l7 36q85 -15 134 -15q66 0 96.5 28t30.5 97v22q0 32 2 48q-85 -66 -153 -66q-147 0 -147 216q0 32 1.5 130.5t1.5 147.5h58q0 -43 -1 -134.5t-1 -127.5q0 -185 101 -185q61 0 138 65v382h58zM162 640
q0 -23 -6.5 -30t-30.5 -7q-25 0 -32 7t-7 30t7 30t32 7q24 0 30.5 -7t6.5 -30zM451 640q0 -23 -6.5 -30t-30.5 -7q-25 0 -32 7t-7 30t7 30t32 7q24 0 30.5 -7t6.5 -30z" />
    <glyph glyph-name="i_j" horiz-adv-x="537" 
d="M444 493v-479q0 -109 -45 -150t-135 -41q-68 0 -146 26l7 36q85 -15 134 -15q66 0 96.5 28t30.5 97v22q0 32 2 48q-85 -66 -153 -66q-147 0 -147 216q0 32 1.5 130.5t1.5 147.5h58q0 -43 -1 -134.5t-1 -127.5q0 -185 101 -185q61 0 138 65v382h58zM162 640
q0 -23 -6.5 -30t-30.5 -7q-25 0 -32 7t-7 30t7 30t32 7q24 0 30.5 -7t6.5 -30zM451 640q0 -23 -6.5 -30t-30.5 -7q-25 0 -32 7t-7 30t7 30t32 7q24 0 30.5 -7t6.5 -30z" />
    <glyph glyph-name="scedilla_t" horiz-adv-x="719" 
d="M682 57l9 -36q-58 -28 -106 -28q-60 0 -84.5 30.5t-24.5 103.5v323h-85v43h85v33q0 74 -27.5 106t-85.5 32q-49 0 -79 -27t-30 -74q0 -63 55 -88l-10 -35q-45 16 -89 16q-48 0 -74.5 -22.5t-26.5 -57.5t24.5 -58t60 -36t71 -28t60 -45.5t24.5 -76.5q0 -62 -45.5 -100.5
t-121.5 -38.5q-69 0 -136 32l10 36q65 -22 119 -22t83 24.5t29 62.5q0 35 -24.5 58t-59.5 36t-70.5 28t-60 45.5t-24.5 76.5q0 56 42.5 93t110.5 37l36 -4q-32 22 -32 72q0 63 46.5 102t121.5 39q161 0 161 -176v-40h144v-43h-144v-309q0 -58 13.5 -80t52.5 -22q32 0 82 18z
M162 -44h53q7 -78 -69 -133l-31 22q28 26 38 49t9 62z" />
    <glyph glyph-name="scommaaccent_t" horiz-adv-x="719" 
d="M682 57l9 -36q-58 -28 -106 -28q-60 0 -84.5 30.5t-24.5 103.5v323h-85v43h85v33q0 74 -27.5 106t-85.5 32q-49 0 -79 -27t-30 -74q0 -63 55 -88l-10 -35q-45 16 -89 16q-48 0 -74.5 -22.5t-26.5 -57.5t24.5 -58t60 -36t71 -28t60 -45.5t24.5 -76.5q0 -62 -45.5 -100.5
t-121.5 -38.5q-69 0 -136 32l10 36q65 -22 119 -22t83 24.5t29 62.5q0 35 -24.5 58t-59.5 36t-70.5 28t-60 45.5t-24.5 76.5q0 56 42.5 93t110.5 37l36 -4q-32 22 -32 72q0 63 46.5 102t121.5 39q161 0 161 -176v-40h144v-43h-144v-309q0 -58 13.5 -80t52.5 -22q32 0 82 18z
M191 -40q32 0 32 -32q0 -38 -21.5 -62t-65.5 -42l-13 24q46 27 46 50q0 6 -5 13t-5 20q0 29 32 29z" />
    <glyph glyph-name="grave.cap" horiz-adv-x="353" 
d="M272 762l-19 -31l-172 74l29 47z" />
    <glyph glyph-name="acute.cap" horiz-adv-x="353" 
d="M81 762l162 90l29 -47l-172 -74z" />
    <glyph glyph-name="circumflex.cap" horiz-adv-x="443" 
d="M221 852l141 -91l-19 -30l-123 66l-121 -66l-18 30z" />
    <glyph glyph-name="caron.cap" horiz-adv-x="443" 
d="M221 731l-140 91l18 30l123 -65l122 65l18 -30z" />
    <glyph glyph-name="uni0315.cap" horiz-adv-x="250" 
d="M169 735l-54 -167l-34 8l35 170z" />
    <glyph glyph-name="tilde.cap" horiz-adv-x="490" 
d="M380 834l29 -20q-27 -44 -49 -60.5t-55 -16.5q-27 0 -50.5 14.5t-42 28.5t-34.5 14q-17 0 -30 -11t-38 -43l-29 20q27 44 49 60.5t55 16.5q27 0 50.5 -14.5t42 -29t34.5 -14.5t29 11t39 44z" />
    <glyph glyph-name="dieresis.cap" horiz-adv-x="429" 
d="M348 776q0 -20 -7 -26.5t-28 -6.5q-23 0 -29.5 6t-6.5 27q0 22 6.5 28.5t29.5 6.5q22 0 28.5 -6.5t6.5 -28.5zM152 776q0 -20 -6.5 -26.5t-28.5 -6.5t-29 6.5t-7 26.5q0 22 7 28.5t29 6.5t28.5 -6.5t6.5 -28.5z" />
    <glyph glyph-name="dieresis.cap.narrow" horiz-adv-x="371" 
d="M290 776q0 -20 -6.5 -26.5t-27.5 -6.5q-22 0 -29 6.5t-7 26.5q0 22 7 28.5t29 6.5q21 0 27.5 -6.5t6.5 -28.5zM151 776q0 -20 -7 -26.5t-28 -6.5q-22 0 -28.5 6.5t-6.5 26.5q0 22 6.5 28.5t28.5 6.5t28.5 -6.5t6.5 -28.5z" />
    <glyph glyph-name="dieresis.narrow" horiz-adv-x="384" 
d="M303 640q0 -21 -6.5 -27.5t-28.5 -6.5t-28.5 6.5t-6.5 27.5q0 22 6.5 28.5t28.5 6.5t28.5 -6.5t6.5 -28.5zM150 640q0 -21 -6 -27.5t-27 -6.5q-23 0 -29.5 6.5t-6.5 27.5q0 22 6.5 28.5t29.5 6.5q22 0 27.5 -6t5.5 -29z" />
    <glyph glyph-name="macron.cap" horiz-adv-x="426" 
d="M345 755h-264v44h264v-44z" />
    <glyph glyph-name="breve.cap" horiz-adv-x="417" 
d="M297 850h39q0 -51 -34.5 -87.5t-92.5 -36.5q-61 0 -94.5 35.5t-33.5 88.5h39q0 -31 22.5 -54.5t66.5 -23.5q43 0 65.5 23t22.5 55z" />
    <glyph glyph-name="ring.cap" horiz-adv-x="347" 
d="M266 775q0 -38 -26 -60t-69 -22q-90 0 -90 78q0 36 26.5 58.5t69.5 22.5q89 0 89 -77zM219 772q0 24 -10.5 34.5t-34.5 10.5q-46 0 -46 -45q0 -24 10.5 -34t35.5 -10q45 0 45 44z" />
    <glyph glyph-name="ring.big" horiz-adv-x="293" 
d="M243 737q0 -40 -26 -62.5t-70 -22.5q-91 0 -91 81q0 37 26.5 60t70.5 23q90 0 90 -79zM195 733q0 25 -10.5 35.5t-34.5 10.5q-25 0 -35.5 -11t-10.5 -35t10.5 -34t35.5 -10q45 0 45 44z" />
    <glyph glyph-name="ringacute.cap" horiz-adv-x="348" 
d="M251 750q0 -24 -24.5 -41t-63.5 -17q-40 0 -61 14.5t-21 38.5t24.5 41t63.5 17q40 0 61 -14.5t21 -38.5zM206 749q0 26 -40 26t-40 -29q0 -26 40 -26t40 29zM116 844l135 41l16 -34l-142 -30z" />
    <glyph glyph-name="ringacute" horiz-adv-x="364" 
d="M264 631q0 -38 -26 -60t-68 -22q-89 0 -89 78q0 36 26 58.5t69 22.5q88 0 88 -77zM217 628q0 24 -10 34.5t-35 10.5q-45 0 -45 -45q0 -24 10.5 -34t34.5 -10q45 0 45 44zM139 778l99 107l45 -32l-114 -95z" />
    <glyph glyph-name="hungarumlaut.cap" horiz-adv-x="526" 
d="M445 814l-166 -87l-20 22l153 103zM260 824l-156 -99l-23 21l143 114z" />
    <glyph glyph-name="dotaccent.cap" horiz-adv-x="238" 
d="M157 777q0 -21 -7 -27.5t-30 -6.5q-24 0 -31 6.5t-7 27.5q0 22 7 28.5t31 6.5t30.5 -6t6.5 -29z" />
    <glyph glyph-name="dotaccent.i" horiz-adv-x="238" 
d="M157 640q0 -23 -6.5 -30t-30.5 -7q-25 0 -32 7t-7 30t7 30t32 7q24 0 30.5 -7t6.5 -30z" />
    <glyph glyph-name="dotaccent.asc" horiz-adv-x="238" 
d="M157 822q0 -21 -7 -27t-31 -6t-31 6t-7 27q0 22 7.5 28.5t31.5 6.5t30.5 -6t6.5 -29z" />
    <glyph glyph-name="exclamdown.cap" horiz-adv-x="371" 
d="M130 538h47l12 -538h-72zM113 641q0 24 8 32t33 8q26 0 34.5 -8t8.5 -32t-8.5 -32.5t-34.5 -8.5q-25 0 -33 8.5t-8 32.5z" />
    <glyph glyph-name="questiondown.cap" 
d="M77 144q0 40 16.5 73.5t40.5 59t48.5 51t41.5 59.5t18 74l1 77h47l4 -85q2 -36 -13.5 -70.5t-38 -62.5t-45.5 -54t-39.5 -54t-16.5 -54q0 -55 33.5 -86t93.5 -31q61 0 130 21l12 -38q-80 -31 -153 -31q-91 0 -135.5 41.5t-44.5 109.5zM225 641q0 24 8 32t33 8
q26 0 34.5 -8t8.5 -32t-8.5 -32.5t-34.5 -8.5q-25 0 -33 8.5t-8 32.5z" />
    <glyph glyph-name="guilsinglleft.cap" horiz-adv-x="302" 
d="M216 176l-38 -17l-120 187l120 187l38 -17l-92 -170z" />
    <glyph glyph-name="guilsinglright.cap" horiz-adv-x="302" 
d="M86 516l38 17l119 -187l-120 -187l-37 17l92 170z" />
    <glyph glyph-name="guillemotleft.cap" horiz-adv-x="502" 
d="M212 176l-37 -17l-120 187l120 187l37 -17l-92 -170zM404 180l-37 -16l-117 182l117 182l37 -16l-89 -166z" />
    <glyph glyph-name="guillemotright.cap" horiz-adv-x="502" 
d="M290 516l37 17l120 -187l-120 -187l-37 17l92 170zM98 512l37 16l116 -182l-117 -182l-36 16l89 166z" />
    <glyph glyph-name="bar.cap" horiz-adv-x="251" 
d="M152 -123h-55v926h55v-926z" />
    <glyph glyph-name="brokenbar.cap" horiz-adv-x="251" 
d="M151 246v-369h-51v369h51zM100 418v388h51v-388h-51z" />
    <glyph glyph-name="hyphen.cap" horiz-adv-x="231" 
d="M230 320h-195v48h195v-48z" />
    <glyph glyph-name="endash.cap" 
d="M454 322h-408v47h408v-47z" />
    <glyph glyph-name="emdash.cap" horiz-adv-x="1000" 
d="M841 322h-683v47h683v-47z" />
    <glyph glyph-name="uni2015.cap" horiz-adv-x="1000" 
d="M841 322h-683v47h683v-47z" />
    <glyph glyph-name="periodcentered.cap" horiz-adv-x="255" 
d="M169 347q0 -25 -8 -33.5t-33 -8.5t-33.5 8t-8.5 32q0 26 8.5 34t34.5 8q24 0 32 -8t8 -32z" />
    <glyph glyph-name="parenleft.cap" horiz-adv-x="310" 
d="M253 -104l-39 -17q-59 91 -93 208t-34 233q0 127 35.5 245t91.5 209l39 -17q-107 -210 -107 -426q0 -221 107 -435z" />
    <glyph glyph-name="parenright.cap" horiz-adv-x="310" 
d="M96 -120l-39 17q107 210 107 426q0 221 -107 435l39 17q59 -91 93 -208t34 -233q0 -127 -35.5 -245t-91.5 -209z" />
    <glyph glyph-name="bracketleft.cap" horiz-adv-x="351" 
d="M282 -123h-152v912h152v-42h-98v-828h98v-42z" />
    <glyph glyph-name="bracketright.cap" horiz-adv-x="351" 
d="M221 -123h-152v42h98v828h-98v42h152v-912z" />
    <glyph glyph-name="braceleft.cap" horiz-adv-x="388" 
d="M301 -123h-32q-65 0 -88.5 28.5t-23.5 91.5v213q0 105 -81 105h-20v46h20q81 0 81 101v208q0 119 116 119h28v-39h-24q-31 0 -48.5 -21t-17.5 -58v-178q0 -147 -96 -154q96 -8 96 -157v-187q0 -43 15 -61t52 -18h23v-39z" />
    <glyph glyph-name="braceright.cap" horiz-adv-x="388" 
d="M330 315h-20q-81 0 -81 -101v-218q0 -119 -116 -119h-27v39h24q30 0 47.5 21t17.5 58v188q0 147 96 154q-96 9 -96 157v177q0 43 -15 61t-51 18h-23v39h31q65 0 88.5 -28.5t23.5 -91.5v-203q0 -105 81 -105h20v-46z" />
    <glyph glyph-name="at.cap" horiz-adv-x="1004" 
d="M728 -2l11 -37q-54 -26 -130.5 -42.5t-146.5 -16.5q-374 0 -374 359q0 104 31 195.5t89 161.5t148 110.5t202 40.5q161 0 240.5 -80t79.5 -220q0 -146 -71.5 -238t-213.5 -92h-29l4 103q-82 -109 -160 -109q-116 0 -116 155q0 125 60.5 196.5t174.5 71.5q66 0 126 -16
l-39 -355q105 0 156.5 74t51.5 191q0 134 -64.5 205t-210.5 71q-99 0 -178 -38.5t-126.5 -103t-72 -144t-24.5 -167.5q0 -165 76 -246.5t253 -81.5q57 0 131 16t122 37zM569 302l23 199q-45 10 -75 10q-83 0 -123.5 -57.5t-40.5 -152.5q0 -120 72 -120q31 0 64.5 29t79.5 92
z" />
    <glyph glyph-name="Euro.fitted" horiz-adv-x="566" 
d="M146 428h206v-41h-210q-2 -30 -2 -45q0 -32 2 -49h210v-41h-206q23 -211 184 -211q87 0 154 78l27 -30q-79 -96 -196 -96q-99 0 -160 66t-74 193h-69v41h66q-1 11 -1 35q0 21 2 59h-67v41h73q16 117 80.5 185.5t158.5 68.5q125 0 178 -109l-31 -24q-50 85 -146 85
q-78 0 -123 -58.5t-56 -147.5z" />
    <glyph glyph-name="dollar.slashed.oldstyle" horiz-adv-x="534" 
d="M189 9q-71 12 -129 46l17 38q54 -28 119 -38l41 263q-38 15 -62.5 28t-50 33.5t-38.5 48.5t-13 63q0 71 57.5 116.5t157.5 45.5h1l20 103h38l-12 -106q62 -8 115 -39l-15 -35q-55 23 -107 28l-38 -243q36 -14 55.5 -22.5t49 -26t44.5 -34.5t27 -43.5t12 -57.5
q0 -79 -62.5 -126t-170.5 -47h-10l-21 -109h-38zM417 170q0 47 -35 75t-101 55l-39 -249h4q81 0 126 31t45 88zM133 498q0 -42 29 -68.5t84 -50.5l36 228q-72 -1 -110.5 -30.5t-38.5 -78.5z" />
    <glyph glyph-name="cent.fitted" horiz-adv-x="452" 
d="M378 206l24 -30q-59 -59 -129 -67l-6 -110h-38l-6 108q-165 13 -165 224q0 101 45 162.5t120 74.5l6 108h38l6 -108q62 -3 114 -58l-23 -30q-55 45 -107 45q-62 0 -99.5 -50t-37.5 -132q0 -92 35 -140.5t101 -48.5q63 0 122 52z" />
    <glyph glyph-name="cent.slashed.oldstyle" horiz-adv-x="493" 
d="M418 204l20 -32q-85 -75 -191 -63l-20 -109h-38l13 114q-144 40 -144 221q0 116 63.5 175t150.5 60l19 105h38l-11 -109q67 -11 115 -56l-21 -30q-52 36 -101 43l-57 -367q88 -11 164 48zM118 342q0 -140 91 -176l56 358q-69 -4 -108 -54t-39 -128z" />
    <glyph glyph-name="sterling.fitted" horiz-adv-x="440" 
d="M414 0h-379v42q61 61 79.5 122.5t5.5 152.5h-93v45h85q-21 98 -21 133q0 94 44.5 140t119.5 46q74 0 148 -37l-13 -35q-72 26 -125 26q-111 0 -111 -126q0 -23 3 -45t10 -57.5t9 -44.5h164v-45h-157q11 -86 -6 -148.5t-75 -119.5h312v-49z" />
    <glyph glyph-name="florin.fitted" horiz-adv-x="465" 
d="M431 653l-14 -35q-38 18 -68 18q-39 0 -58.5 -22t-24.5 -70l-22 -178h148v-42h-152l-35 -294q-16 -140 -126 -140q-48 0 -92 28l13 35q34 -18 65 -18q38 0 57 22.5t24 69.5l36 297h-110v42h114l21 175q16 140 128 140q52 0 96 -28z" />
    <glyph glyph-name="yen.fitted" horiz-adv-x="480" 
d="M418 243h-148v-91h148v-44h-148v-108h-60v108h-148v44h148v91h-148v44h148v24q-101 151 -208 364h70q88 -184 175 -316q76 111 164 316h67q-129 -249 -208 -364v-24h148v-44z" />
    <glyph glyph-name="H_a_n_g_T_a_b_P_r_o_p" horiz-adv-x="1615" 
d="M504 500h-31v164h-169v-164h-30v337h30v-146h169v146h31v-337zM751 500h-24l-2 29q-42 -33 -80 -33q-33 0 -51 17.5t-18 47.5q0 82 123 82h23v29q0 55 -61 55q-27 0 -67 -14l-6 19q40 18 83 18q80 0 80 -73v-177zM722 550v72h-26q-90 0 -90 -56q0 -47 47 -47q32 0 69 31z
M1019 500h-29q0 22 0.5 68.5t0.5 64.5q0 93 -53 93q-27 0 -67 -33v-193h-29v246h24l3 -30q41 34 80 34q71 0 71 -109q0 -16 -0.5 -66.5t-0.5 -74.5zM1274 743v-236q0 -55 -22.5 -75.5t-67.5 -20.5q-30 0 -73 13l3 18q36 -7 68 -7q33 0 48 14t15 48v40q-39 -30 -72 -30
q-35 0 -58 32t-23 82q0 63 34 96t82 33q24 0 66 -7zM1245 561v159q-20 7 -44 7q-35 0 -56.5 -26t-21.5 -72q0 -45 15.5 -72.5t43.5 -27.5q27 0 63 32zM217 312h-93v-312h-31v312h-93v25h217v-25zM389 0h-23l-3 29q-42 -33 -79 -33q-33 0 -51 17.5t-18 47.5q0 82 123 82h22
v29q0 28 -14.5 41.5t-46.5 13.5q-25 0 -67 -14l-5 19q40 18 82 18q80 0 80 -73v-177zM360 50v72h-26q-90 0 -90 -56q0 -22 12.5 -34.5t34.5 -12.5q34 0 69 31zM481 3v351h29v-135q38 31 71 31q36 0 59 -33t23 -85q0 -69 -33 -102.5t-86 -33.5q-32 0 -63 7zM510 194v-168
q18 -7 42 -7q35 0 57 27t22 78q0 46 -15 74t-43 28q-30 0 -63 -32zM791 0h-30v337q7 0 27.5 0.5t39.5 0.5q120 0 120 -100q0 -49 -32 -79t-102 -30h-23v-129zM791 314v-161h31q93 0 93 81q0 80 -92 80h-32zM1121 244l-3 -28q-12 4 -19 4q-22 0 -60 -48v-172h-29v246h24
l3 -46q41 50 65 50q7 0 19 -6zM1359 128q0 -66 -28.5 -99t-78.5 -33q-94 0 -94 122q0 66 28 99t77 33q96 0 96 -122zM1328 117q0 58 -17 84t-54 26q-32 0 -50.5 -25t-18.5 -73q0 -58 17 -84t53 -26q33 0 51.5 25t18.5 73zM1462 -87h-29v333h23l4 -28q39 32 73 32
q36 0 59 -33t23 -85q0 -68 -32.5 -102t-85.5 -34q-9 0 -35 2v-85zM1462 194v-168q18 -7 43 -7q35 0 57 27t22 79q0 45 -15.5 73t-42.5 28q-31 0 -64 -32z" />
    <glyph glyph-name="H_a_n_g_P_r_o_p" horiz-adv-x="1000" 
d="M230 500h-30v164h-169v-164h-31v337h31v-146h169v146h30v-337zM477 500h-24l-2 29q-42 -33 -79 -33q-33 0 -51.5 17.5t-18.5 47.5q0 38 30.5 60t93.5 22h22v29q0 55 -60 55q-28 0 -68 -14l-6 19q40 18 83 18q80 0 80 -73v-177zM448 550v72h-26q-51 0 -70 -15t-19 -41
q0 -47 47 -47q31 0 68 31zM745 500h-29q0 22 0.5 68.5t0.5 64.5q0 93 -53 93q-27 0 -67 -33v-193h-29v246h24l4 -30q39 34 79 34q71 0 71 -109q0 -16 -0.5 -66.5t-0.5 -74.5zM1000 743v-236q0 -55 -22.5 -75.5t-66.5 -20.5q-31 0 -74 13l4 18q35 -7 67 -7q33 0 48 14t15 48
v40q-39 -30 -72 -30q-35 0 -57.5 32t-22.5 82q0 63 33.5 96t81.5 33q24 0 66 -7zM971 561v159q-18 7 -44 7q-34 0 -55.5 -26.5t-21.5 -71.5t15.5 -72.5t43.5 -27.5t62 32zM101 0h-30v337q7 0 27.5 0.5t39.5 0.5q120 0 120 -100q0 -49 -32 -79t-102 -30h-23v-129zM101 314
v-161h31q93 0 93 81q0 80 -92 80h-32zM431 244l-3 -28q-12 4 -19 4q-22 0 -60 -48v-172h-29v246h24l3 -46q41 50 65 50q7 0 19 -6zM669 128q0 -66 -28.5 -99t-77.5 -33q-95 0 -95 122q0 66 28 99t77 33q96 0 96 -122zM638 117q0 58 -17 84t-53 26q-33 0 -51.5 -25t-18.5 -73
q0 -58 17 -84t53 -26q33 0 51.5 25t18.5 73zM772 -87h-29v333h23l4 -28q39 32 73 32q36 0 59 -33t23 -85q0 -68 -32.5 -102t-85.5 -34q-9 0 -35 2v-85zM772 194v-168q18 -7 43 -7q35 0 57 27t22 79q0 45 -15.5 73t-42.5 28q-31 0 -64 -32z" />
    <glyph glyph-name="zero.oldstyle" horiz-adv-x="533" 
d="M472 282q0 -142 -53 -215.5t-156 -73.5q-107 0 -155 66t-48 217q0 296 212 296q100 0 150 -66.5t50 -223.5zM410 273q0 135 -36 193.5t-108 58.5t-107.5 -57t-35.5 -185q0 -131 34 -187t114 -56q139 0 139 233z" />
    <glyph glyph-name="one.oldstyle" horiz-adv-x="326" 
d="M224 0h-60v502l-139 -50l-13 38l165 74h47v-564z" />
    <glyph glyph-name="two.oldstyle" horiz-adv-x="439" 
d="M396 0h-366v44q177 157 228.5 222t51.5 133q0 65 -34 94t-87 29q-61 0 -128 -24l-10 42q81 31 160 31q71 0 117 -40.5t46 -121.5q0 -83 -53.5 -152t-216.5 -206h292v-51z" />
    <glyph glyph-name="three.oldstyle" horiz-adv-x="440" 
d="M22 -77l7 38q79 -23 137 -23q72 0 110 38t38 108q0 71 -31 108t-103 37h-61v48h58q118 0 118 132q0 114 -118 114q-63 0 -121 -23l-10 41q69 30 142 30q86 0 127.5 -41t41.5 -107q0 -71 -29.5 -111t-69.5 -53q50 -8 85.5 -47.5t35.5 -120.5q0 -93 -57 -147.5t-152 -54.5
q-70 0 -148 34z" />
    <glyph glyph-name="four.oldstyle" horiz-adv-x="501" 
d="M286 564h86v-460h104v-51h-104v-157h-58v157h-289v44q142 280 261 467zM314 104v413h-2q-114 -187 -231 -413h233z" />
    <glyph glyph-name="five.oldstyle" horiz-adv-x="452" 
d="M354 512h-215l-15 -225q47 9 90 9q89 0 135.5 -47t46.5 -136q0 -106 -56.5 -165t-157.5 -59q-69 0 -138 32l7 38q67 -21 127 -21q156 0 156 162q0 148 -143 148q-58 0 -121 -15l22 331h262v-52z" />
    <glyph glyph-name="six.oldstyle" horiz-adv-x="498" 
d="M434 654l-8 -39q-76 20 -133 20q-84 0 -123 -72.5t-40 -226.5q88 50 154 50q80 0 123 -46t43 -129q0 -103 -50.5 -160.5t-137.5 -57.5q-44 0 -77.5 14.5t-60.5 49t-41.5 97.5t-14.5 154q0 109 17.5 185.5t50.5 116t70.5 56t85.5 16.5q55 0 142 -28zM131 291v-4
q0 -129 32.5 -188t102.5 -59q61 0 92 43t31 120q0 135 -123 135q-56 0 -135 -47z" />
    <glyph glyph-name="seven.oldstyle" horiz-adv-x="430" 
d="M401 520l-138 -309q-80 -181 -155 -321l-42 15l266 607h-306v52h375v-44z" />
    <glyph glyph-name="eight.oldstyle" horiz-adv-x="503" 
d="M438 531q0 -61 -35.5 -101t-99.5 -77q72 -38 111 -79.5t39 -110.5q0 -75 -53 -122.5t-152 -47.5q-96 0 -146.5 43t-50.5 115q0 68 39.5 111t111.5 83q-65 36 -100.5 75t-35.5 100q0 72 51 117t141 45q94 0 137 -42.5t43 -108.5zM392 156q0 30 -11 54.5t-35 45t-44.5 33.5
t-55.5 32q-66 -37 -100.5 -72t-34.5 -88q0 -58 37.5 -90t109.5 -32q60 0 97 31.5t37 85.5zM126 528q0 -52 33.5 -85t98.5 -67q58 33 89 66.5t31 81.5q0 113 -127 113q-58 0 -91.5 -30t-33.5 -79z" />
    <glyph glyph-name="nine.oldstyle" horiz-adv-x="498" 
d="M52 -82l7 39q82 -21 147 -21q83 0 122.5 72t40.5 221q-88 -50 -154 -50q-80 0 -123 45.5t-43 128.5q0 104 50.5 161t137.5 57q44 0 77.5 -14.5t60.5 -48.5t41 -97t14 -154q0 -87 -12 -153t-32 -106.5t-50 -65.5t-61 -34t-69 -9q-63 0 -154 29zM368 273v4q0 128 -33 188
t-102 60q-62 0 -92.5 -43t-30.5 -120q0 -135 122 -135q59 0 136 46z" />
    <glyph glyph-name="H_a_n_g_T_a_b" horiz-adv-x="1000" 
d="M230 500h-30v164h-169v-164h-31v337h31v-146h169v146h30v-337zM477 500h-24l-2 29q-42 -33 -79 -33q-33 0 -51.5 17.5t-18.5 47.5q0 38 30.5 60t93.5 22h22v29q0 55 -60 55q-28 0 -68 -14l-6 19q40 18 83 18q80 0 80 -73v-177zM448 550v72h-26q-51 0 -70 -15t-19 -41
q0 -47 47 -47q31 0 68 31zM745 500h-29q0 22 0.5 68.5t0.5 64.5q0 93 -53 93q-27 0 -67 -33v-193h-29v246h24l4 -30q39 34 79 34q71 0 71 -109q0 -16 -0.5 -66.5t-0.5 -74.5zM1000 743v-236q0 -55 -22.5 -75.5t-66.5 -20.5q-31 0 -74 13l4 18q35 -7 67 -7q33 0 48 14t15 48
v40q-39 -30 -72 -30q-35 0 -57.5 32t-22.5 82q0 63 33.5 96t81.5 33q24 0 66 -7zM971 561v159q-18 7 -44 7q-34 0 -55.5 -26.5t-21.5 -71.5t15.5 -72.5t43.5 -27.5t62 32zM352 312h-93v-312h-31v312h-93v25h217v-25zM524 0h-23l-3 29q-40 -33 -78 -33q-34 0 -52 17t-18 48
q0 82 124 82h21v29q0 55 -60 55q-27 0 -67 -14l-5 19q38 18 81 18q80 0 80 -73v-177zM495 50v72h-25q-51 0 -70.5 -15t-19.5 -41q0 -47 47 -47q34 0 68 31zM616 3v351h29v-135q39 31 71 31q36 0 59 -33t23 -85q0 -69 -33 -102.5t-86 -33.5q-30 0 -63 7zM645 194v-168
q17 -7 43 -7q35 0 57 27t22 78q0 45 -15.5 73.5t-42.5 28.5q-31 0 -64 -32z" />
    <glyph glyph-name="zero.OnumTab" 
d="M452 289q0 -296 -208 -296q-99 0 -148 65t-49 217q0 296 208 296q99 0 148 -65t49 -217zM391 282q0 129 -35 185.5t-106 56.5q-72 0 -107 -57t-35 -185q0 -129 35 -185.5t106 -56.5t106.5 57.5t35.5 184.5z" />
    <glyph glyph-name="one.OnumTab" 
d="M441 0h-364v51h160v451l-144 -50l-13 38l170 74h48v-513h143v-51z" />
    <glyph glyph-name="two.OnumTab" 
d="M439 0h-377v42q183 155 239 223.5t56 134.5q0 64 -36 93t-92 29q-60 0 -143 -26l-11 42q95 33 168 33q80 0 129.5 -40t49.5 -122t-56.5 -150.5t-226.5 -207.5h300v-51z" />
    <glyph glyph-name="three.OnumTab" 
d="M36 -74l8 38q93 -25 163 -25q154 0 154 145q0 72 -35 108.5t-116 36.5h-68v48h65q133 0 133 133q0 113 -126 113q-69 0 -143 -24l-10 41q87 31 165 31q91 0 134 -42t43 -111q0 -65 -30.5 -106t-76.5 -53q130 -20 130 -168q0 -99 -56.5 -150.5t-160.5 -51.5q-74 0 -173 37
z" />
    <glyph glyph-name="four.OnumTab" 
d="M292 564h85v-460h87v-51h-87v-157h-58v157h-288v44q136 266 261 467zM319 104v411h-1q-118 -192 -230 -411h231z" />
    <glyph glyph-name="five.OnumTab" 
d="M384 512h-244l-15 -225q56 9 104 9q98 0 149.5 -49t51.5 -139q0 -104 -57 -161.5t-162 -57.5q-73 0 -172 37l7 38q95 -25 165 -25q156 0 156 161q0 148 -160 148q-66 0 -136 -16l22 332h291v-52z" />
    <glyph glyph-name="six.OnumTab" 
d="M433 654l-8 -39q-76 20 -133 20q-84 0 -123 -72.5t-40 -226.5q88 50 154 50q80 0 122.5 -46t42.5 -129q0 -104 -50.5 -161t-137.5 -57q-44 0 -77 14.5t-60 48.5t-41.5 97.5t-14.5 154.5q0 109 17.5 185.5t50.5 116t70.5 56t86.5 16.5q54 0 141 -28zM130 291v-4
q0 -129 32.5 -188t101.5 -59q123 0 123 163q0 135 -122 135q-56 0 -135 -47z" />
    <glyph glyph-name="seven.OnumTab" 
d="M456 520l-147 -309q-88 -185 -165 -321l-40 16l280 606h-336v52h408v-44z" />
    <glyph glyph-name="eight.OnumTab" 
d="M436 531q0 -61 -35 -101t-100 -77q72 -38 111 -79.5t39 -110.5q0 -75 -53 -122.5t-152 -47.5q-96 0 -146.5 43t-50.5 115q0 68 39.5 110.5t112.5 83.5q-66 36 -101.5 75.5t-35.5 99.5q0 72 51 117t141 45q95 0 137.5 -42t42.5 -109zM390 156q0 30 -11 54.5t-34.5 45.5
t-44.5 34t-56 32q-66 -37 -100 -72t-34 -89q0 -58 37.5 -90t108.5 -32q60 0 97 31.5t37 85.5zM125 528q0 -52 33 -85t98 -67q58 33 88.5 66.5t30.5 81.5q0 113 -126 113q-58 0 -91 -30t-33 -79z" />
    <glyph glyph-name="nine.OnumTab" 
d="M55 -82l6 39q84 -21 147 -21q83 0 122.5 71.5t40.5 221.5q-88 -50 -154 -50q-80 0 -122.5 45.5t-42.5 128.5q0 104 50.5 161t137.5 57q92 0 142.5 -69.5t50.5 -244.5q0 -108 -17.5 -183t-50.5 -114t-70.5 -55t-85.5 -16q-63 0 -154 29zM113 362q0 -135 123 -135
q57 0 134 46v4q0 129 -32.5 188.5t-101.5 59.5q-123 0 -123 -163z" />
    <glyph glyph-name="L_i_n_P_r_o_p" horiz-adv-x="854" 
d="M322 500h-151v337h31v-312h120v-25zM411 820q0 -11 -3 -14.5t-15 -3.5t-16 3.5t-4 14.5t4 14.5t16 3.5t15 -3.5t3 -14.5zM407 500h-29v246h29v-246zM676 500h-29q0 22 0.5 68.5t0.5 64.5q0 93 -53 93q-27 0 -67 -33v-193h-29v246h24l4 -30q39 34 79 34q71 0 71 -109
q0 -16 -0.5 -66.5t-0.5 -74.5zM31 0h-31v337q8 0 28 0.5t39 0.5q120 0 120 -100q0 -49 -32 -79t-102 -30h-22v-129zM31 314v-161h30q93 0 93 81q0 80 -92 80h-31zM360 244l-3 -28q-12 4 -18 4q-23 0 -61 -48v-172h-29v246h24l4 -46q39 50 64 50q9 0 19 -6zM598 128
q0 -66 -28.5 -99t-77.5 -33q-95 0 -95 122q0 66 28 99t77 33q96 0 96 -122zM567 117q0 58 -17 84t-53 26q-33 0 -51.5 -25t-18.5 -73q0 -58 17.5 -84t53.5 -26q32 0 50.5 25t18.5 73zM701 -87h-29v333h24l3 -28q39 32 73 32q36 0 59 -33t23 -85q0 -68 -32.5 -102t-85.5 -34
q-9 0 -35 2v-85zM701 194v-168q18 -7 43 -7q35 0 57 27t22 79q0 45 -15.5 73t-42.5 28q-31 0 -64 -32z" />
    <glyph glyph-name="zero.LinProp" horiz-adv-x="554" 
d="M503 340q0 -347 -232 -347q-109 0 -164 78.5t-55 263.5q0 347 231 347q109 0 164.5 -79t55.5 -263zM439 333q0 162 -41 231.5t-121 69.5t-121 -68.5t-41 -223.5q0 -162 41 -231.5t121 -69.5q81 0 121.5 68.5t40.5 223.5z" />
    <glyph glyph-name="one.LinProp" horiz-adv-x="327" 
d="M224 0h-60v611l-138 -57l-13 40l164 81h47v-675z" />
    <glyph glyph-name="two.LinProp" horiz-adv-x="470" 
d="M407 0h-377v46q163 167 228 268.5t65 178.5q0 139 -126 139q-54 0 -137 -31l-11 41q91 40 164 40q79 0 127 -42.5t48 -137.5q0 -90 -63 -189.5t-225 -260.5h307v-52z" />
    <glyph glyph-name="three.LinProp" horiz-adv-x="456" 
d="M22 26l7 40q87 -23 156 -23q73 0 109 36t36 113q0 71 -33 107.5t-110 36.5h-71v48h61q61 0 97 35t36 99q0 116 -124 116q-70 0 -132 -22l-10 40q72 30 154 30q88 0 131.5 -43t43.5 -108q0 -70 -31.5 -111t-75.5 -54q50 -8 89 -47t39 -122q0 -100 -53.5 -152t-147.5 -52
q-81 0 -171 33z" />
    <glyph glyph-name="four.LinProp" horiz-adv-x="502" 
d="M478 164h-105v-164h-58v164h-290v44q138 271 263 467h85v-460h105v-51zM315 215v412h-1q-102 -164 -233 -412h234z" />
    <glyph glyph-name="five.LinProp" horiz-adv-x="463" 
d="M364 623h-225l-15 -225q36 7 91 7q95 0 144 -49.5t49 -139.5q0 -107 -53 -165t-150 -58q-70 0 -162 31l7 39q95 -20 148 -20q146 0 146 162q0 152 -148 152q-63 0 -126 -15l22 333h272v-52z" />
    <glyph glyph-name="six.LinProp" horiz-adv-x="499" 
d="M433 654l-8 -39q-76 20 -134 20q-81 0 -121 -71t-41 -228q89 50 158 50q78 0 120 -46t42 -129q0 -103 -50 -160.5t-137 -57.5q-45 0 -78.5 14.5t-61 49t-41.5 97.5t-14 154q0 89 12.5 156.5t32.5 108t49.5 66t60.5 34.5t68 9q56 0 143 -28zM130 291v-4q0 -129 32.5 -188
t102.5 -59q61 0 92.5 42t31.5 114q0 142 -120 142q-60 0 -139 -47z" />
    <glyph glyph-name="seven.LinProp" horiz-adv-x="432" 
d="M404 631l-139 -315q-79 -174 -157 -322l-42 16l269 613h-309v52h378v-44z" />
    <glyph glyph-name="eight.LinProp" horiz-adv-x="505" 
d="M440 531q0 -61 -35.5 -101t-100.5 -77q72 -38 111.5 -80t39.5 -110q0 -75 -53 -122.5t-154 -47.5q-97 0 -147.5 43t-50.5 115q0 68 40 110.5t114 83.5q-66 36 -102 75t-36 100q0 72 51 117t142 45q95 0 138 -42t43 -109zM394 156q0 56 -37 91.5t-109 73.5
q-66 -37 -101 -72t-35 -88q0 -58 37.5 -90t109.5 -32q61 0 98 31.5t37 85.5zM126 527q0 -51 33.5 -84t99.5 -67q58 33 89 66.5t31 81.5q0 113 -127 113q-59 0 -92.5 -30t-33.5 -80z" />
    <glyph glyph-name="nine.LinProp" horiz-adv-x="499" 
d="M52 23l7 40q91 -22 150 -22q79 0 119.5 70.5t41.5 227.5q-91 -50 -158 -50q-78 0 -120.5 46.5t-42.5 128.5q0 104 50 161t137 57q45 0 79 -14.5t61 -49t41 -97.5t14 -154q0 -111 -17.5 -187.5t-50.5 -115.5t-70 -55t-84 -16q-67 0 -157 30zM369 384v4q0 129 -32.5 188
t-102.5 59q-62 0 -93 -42t-31 -114q0 -142 120 -142q59 0 139 47z" />
    <glyph glyph-name="L_i_n_T_a_b" horiz-adv-x="663" 
d="M222 500h-151v337h30v-312h121v-25zM311 820q0 -11 -3 -14.5t-15 -3.5q-13 0 -16.5 3.5t-3.5 14.5t3.5 14.5t16.5 3.5q12 0 15 -3.5t3 -14.5zM307 500h-29v246h29v-246zM576 500h-29q0 22 0.5 68.5t0.5 64.5q0 93 -53 93q-27 0 -67 -33v-193h-29v246h24l4 -30
q39 34 79 34q71 0 71 -109q0 -16 -0.5 -66.5t-0.5 -74.5zM217 312h-93v-312h-31v312h-93v25h217v-25zM389 0h-23l-3 29q-42 -33 -79 -33q-33 0 -51 17.5t-18 47.5q0 82 123 82h22v29q0 28 -14.5 41.5t-46.5 13.5q-25 0 -67 -14l-5 19q40 18 82 18q80 0 80 -73v-177zM360 50
v72h-26q-90 0 -90 -56q0 -22 12.5 -34.5t34.5 -12.5q34 0 69 31zM481 3v351h29v-135q38 31 71 31q36 0 59 -33t23 -85q0 -69 -33 -102.5t-86 -33.5q-32 0 -63 7zM510 194v-168q18 -7 42 -7q35 0 57 27t22 78q0 46 -15 74t-43 28q-30 0 -63 -32z" />
    <glyph glyph-name="zero.LinTab" 
d="M444 348q0 -192 -51 -273.5t-150 -81.5q-96 0 -142 74.5t-46 261.5q0 190 50 271.5t150 81.5q96 0 142.5 -74t46.5 -260zM382 332q0 169 -31 236t-102 67q-70 0 -101.5 -67t-31.5 -223q0 -169 31 -237t102 -68q70 0 101.5 67.5t31.5 224.5z" />
    <glyph glyph-name="one.LinTab" 
d="M298 52h143v-52h-364v52h160v560l-143 -58l-15 38l171 83h48v-623z" />
    <glyph glyph-name="two.LinTab" 
d="M432 0h-378v46q169 173 232.5 269.5t63.5 177.5q0 139 -129 139q-54 0 -142 -31l-10 41q98 40 169 40q78 0 127.5 -42.5t49.5 -137.5q0 -89 -64 -189t-227 -261h308v-52z" />
    <glyph glyph-name="three.LinTab" 
d="M40 28l7 40q100 -25 168 -25q71 0 110.5 38t39.5 110q0 71 -35 108t-115 37h-78v47h74q132 0 132 133q0 117 -126 117q-79 0 -143 -23l-10 41q80 31 162 31q91 0 135.5 -43t44.5 -110q0 -72 -31.5 -111.5t-74.5 -51.5q48 -7 88.5 -47.5t40.5 -119.5q0 -97 -57.5 -151.5
t-151.5 -54.5q-82 0 -180 35z" />
    <glyph glyph-name="four.LinTab" 
d="M293 675h84v-462h87v-52h-87v-161h-58v161h-288v44q130 257 262 470zM319 213v411h-1q-116 -191 -230 -411h231z" />
    <glyph glyph-name="five.LinTab" 
d="M384 675v-52h-244l-14 -228q61 9 102 9q99 0 150.5 -48.5t51.5 -139.5q0 -105 -60.5 -164t-158.5 -59q-78 0 -171 33l7 42q102 -25 158 -25q76 0 119 41.5t43 119.5q0 75 -38 113t-122 38q-64 0 -136 -15l22 335h291z" />
    <glyph glyph-name="six.LinTab" 
d="M432 654l-7 -39q-75 20 -132 20q-84 0 -124 -70.5t-41 -228.5q88 50 157 50q79 0 120.5 -46t41.5 -129q0 -104 -50 -161t-137 -57q-93 0 -143 69.5t-50 245.5q0 111 18 187.5t51 115.5t71 55t87 16q74 0 138 -28zM129 291v-4q0 -129 32.5 -188t101.5 -59q61 0 92 41
t31 115q0 142 -119 142q-59 0 -138 -47z" />
    <glyph glyph-name="seven.LinTab" 
d="M458 631l-149 -318q-85 -179 -165 -320l-40 16l283 614h-339v52h410v-44z" />
    <glyph glyph-name="eight.LinTab" 
d="M435 531q0 -61 -35.5 -101t-99.5 -77q71 -37 110.5 -79t39.5 -111q0 -75 -52.5 -122.5t-151.5 -47.5q-96 0 -146 43t-50 115q0 68 39 111t111 84q-64 35 -99.5 74.5t-35.5 99.5q0 72 50.5 117t140.5 45q94 0 136.5 -42t42.5 -109zM390 156q0 30 -11 55t-35 45.5t-44.5 34
t-55.5 31.5q-65 -36 -99.5 -71.5t-34.5 -89.5q0 -58 37.5 -90t108.5 -32q60 0 97 31.5t37 85.5zM125 527q0 -51 33 -84t97 -66q59 33 89.5 65.5t30.5 80.5q0 114 -126 114q-57 0 -90.5 -30t-33.5 -80z" />
    <glyph glyph-name="nine.LinTab" 
d="M55 22l6 39q91 -21 149 -21q80 0 120 71t41 228q-88 -50 -157 -50q-78 0 -120 46t-42 129q0 104 50 161t137 57q93 0 143.5 -69.5t50.5 -245.5q0 -89 -12.5 -156t-32.5 -108t-49.5 -66.5t-60.5 -34.5t-68 -9q-76 0 -155 29zM370 384v4q0 129 -32.5 188t-101.5 59
q-61 0 -92 -41t-31 -115q0 -142 119 -142q59 0 138 47z" />
    <glyph glyph-name="S_u_p" horiz-adv-x="715" 
d="M197 590q0 -42 -29.5 -67.5t-77.5 -25.5q-47 0 -90 25l9 18q46 -19 78 -19q35 0 55.5 17t20.5 48q0 29 -25 48.5t-55.5 29.5t-55.5 33t-25 59q0 38 26 61t69 23q44 0 77 -20l-8 -18q-34 14 -65 14q-34 0 -50.5 -15t-16.5 -40q0 -29 25.5 -49t56 -30t56 -33.5t25.5 -58.5z
M441 500h-24l-3 30q-41 -34 -80 -34q-71 0 -71 109q0 16 0.5 66.5t0.5 74.5h29q0 -22 -0.5 -68t-0.5 -65q0 -93 53 -93q27 0 67 33v193h29v-246zM563 413h-30v333h24l3 -28q39 32 73 32q36 0 59 -33t23 -85q0 -68 -32.5 -102t-85.5 -34q-10 0 -34 2v-85zM563 694v-168
q17 -7 42 -7q35 0 57 27t22 79q0 45 -15.5 73t-42.5 28q-30 0 -63 -32z" />
    <glyph glyph-name="a.superior" horiz-adv-x="343" 
d="M282 369h-40l-4 36q-52 -41 -98 -41t-74 24.5t-28 64.5q0 96 169 96h25v32q0 34 -18 49t-59 15q-38 0 -93 -17l-9 29q59 24 116 24q113 0 113 -93v-219zM232 436v81h-31q-65 0 -88.5 -14.5t-23.5 -47.5q0 -24 16.5 -40t45.5 -16q37 0 81 37z" />
    <glyph glyph-name="b.superior" horiz-adv-x="361" 
d="M317 533q0 -86 -43.5 -128t-117.5 -42q-42 0 -92 9v433h50v-162q47 38 92 38q52 0 81.5 -40.5t29.5 -107.5zM265 524q0 53 -18.5 85.5t-52.5 32.5q-39 0 -80 -35v-201q26 -7 50 -7q53 0 77 29.5t24 95.5z" />
    <glyph glyph-name="c.superior" horiz-adv-x="307" 
d="M272 409q-48 -46 -107 -46q-123 0 -123 162q0 69 38.5 112.5t95.5 43.5q52 0 88 -39l-21 -26q-30 28 -65 28q-83 0 -83 -119q0 -123 83 -123q38 0 76 33z" />
    <glyph glyph-name="d.superior" horiz-adv-x="362" 
d="M298 369h-41l-4 36q-53 -41 -98 -41q-51 0 -81 41t-30 107q0 85 44 127t116 42q23 0 44 -3v130h50v-439zM248 437v201q-28 7 -51 7q-53 0 -77 -29.5t-24 -95.5q0 -54 18.5 -86t53.5 -32q39 0 80 35z" />
    <glyph glyph-name="e.superior" horiz-adv-x="335" 
d="M293 517h-198v-6q0 -59 22 -84.5t68 -25.5q44 0 98 21l9 -31q-58 -28 -116 -28q-67 0 -100.5 35.5t-33.5 119.5q0 75 36.5 119t97.5 44q128 0 117 -164zM244 550v1q0 95 -72 95q-36 0 -56 -26.5t-21 -69.5h149z" />
    <glyph glyph-name="f.superior" horiz-adv-x="198" 
d="M227 796l-11 -33q-28 13 -52 13q-41 0 -41 -50v-52h75v-36h-75v-269h-50v269h-55v36h55v50q0 90 83 90q35 0 71 -18z" />
    <glyph glyph-name="g.superior" horiz-adv-x="362" 
d="M298 376q0 -69 -32.5 -94.5t-95.5 -25.5q-53 0 -101 19l4 26q51 -9 94 -9q41 0 61 16.5t20 55.5v51q-46 -38 -93 -38q-51 0 -81 39.5t-30 102.5q0 80 44 121t116 41q40 0 94 -10v-295zM248 450v188q-28 7 -51 7q-53 0 -77 -28.5t-24 -89.5q0 -50 18.5 -81.5t53.5 -31.5
q40 0 80 36z" />
    <glyph glyph-name="h.superior" horiz-adv-x="372" 
d="M311 547q0 -21 -0.5 -84t-0.5 -94h-50q0 29 0.5 87t0.5 79q0 59 -15 83t-46 24q-44 0 -86 -36v-237h-50v439h50v-165q53 38 100 38q97 0 97 -134z" />
    <glyph glyph-name="i.superior" horiz-adv-x="179" 
d="M121 766q0 -27 -31 -27q-18 0 -24.5 5.5t-6.5 21.5t7 21.5t24 5.5t24 -5.5t7 -21.5zM115 369h-51v306h51v-306z" />
    <glyph glyph-name="j.superior" horiz-adv-x="179" 
d="M115 675v-282q0 -85 -64 -134l-31 16q44 44 44 105v295h51zM121 766q0 -27 -31 -27q-18 0 -24.5 5.5t-6.5 21.5t7 21.5t24 5.5t24 -5.5t7 -21.5z" />
    <glyph glyph-name="k.superior" horiz-adv-x="316" 
d="M302 369h-59l-127 162h-2v-162h-50v439h50v-256h2l107 123h59l-119 -127z" />
    <glyph glyph-name="l.superior" horiz-adv-x="185" 
d="M163 370q-22 -5 -40 -5q-30 0 -44.5 15.5t-14.5 52.5v375h50v-365q0 -25 5 -33t21 -8q12 0 21 1z" />
    <glyph glyph-name="m.superior" horiz-adv-x="553" 
d="M492 543q0 -18 -1 -80t-1 -94h-49q0 29 0.5 86t0.5 78q0 109 -61 109q-39 0 -84 -42q5 -18 5 -55v-176h-50v166q0 107 -58 107q-38 0 -80 -36v-237h-50v306h41l4 -35q57 41 104 41q49 0 74 -48q57 48 112 48q93 0 93 -138z" />
    <glyph glyph-name="o.superior" horiz-adv-x="357" 
d="M317 528q0 -77 -39.5 -121t-105.5 -44q-132 0 -132 153q0 77 38.5 121t105.5 44q133 0 133 -153zM265 514q0 69 -21.5 99.5t-66.5 30.5q-40 0 -62.5 -29t-22.5 -86q0 -69 20.5 -98.5t65.5 -29.5q40 0 63.5 28.5t23.5 84.5z" />
    <glyph glyph-name="p.superior" horiz-adv-x="361" 
d="M317 533q0 -85 -43 -127.5t-116 -42.5q-15 0 -29 1t-15 1v-104h-50v414h41l4 -35q57 41 97 41q52 0 81.5 -40.5t29.5 -107.5zM265 524q0 54 -18.5 86t-52.5 32q-39 0 -80 -35v-201q26 -7 50 -7q53 0 77 29.5t24 95.5z" />
    <glyph glyph-name="q.superior" horiz-adv-x="361" 
d="M298 261h-50v140q-52 -37 -93 -37q-51 0 -81 41t-30 107q0 85 44 127t116 42q40 0 94 -10v-410zM248 437v201q-28 7 -51 7q-53 0 -77 -29.5t-24 -95.5q0 -54 18.5 -86t53.5 -32q39 0 80 35z" />
    <glyph glyph-name="r.superior" horiz-adv-x="237" 
d="M223 673l-6 -44q-16 4 -25 4q-31 0 -78 -55v-209h-50v306h42l4 -57q52 63 86 63q12 0 27 -8z" />
    <glyph glyph-name="s.superior" horiz-adv-x="295" 
d="M255 453q0 -39 -33 -64t-87 -25q-52 0 -90 20l7 29q48 -13 76 -13q74 0 74 46q0 22 -14 35t-54 27q-49 18 -67.5 36.5t-18.5 53.5q0 36 30 59t75 23q39 0 78 -16l-8 -30q-31 11 -62 11q-62 0 -62 -41q0 -22 14 -34t54 -26q49 -17 68.5 -37t19.5 -54z" />
    <glyph glyph-name="t.superior" horiz-adv-x="235" 
d="M222 377q-33 -18 -75 -18q-75 0 -75 78v201h-54v37h56q7 39 13 89h35v-89h90v-37h-90v-186q0 -32 8 -43t31 -11q25 0 52 10z" />
    <glyph glyph-name="u.superior" horiz-adv-x="372" 
d="M308 369h-40l-4 35q-55 -41 -106 -41q-97 0 -97 134q0 21 0.5 84t0.5 94h50q0 -29 -0.5 -87t-0.5 -80q0 -58 15 -82.5t46 -24.5q42 0 86 36v238h50v-306z" />
    <glyph glyph-name="v.superior" horiz-adv-x="304" 
d="M288 675q-37 -171 -108 -306h-58l-109 306h52l74 -203l17 -57h1q57 136 78 260h53z" />
    <glyph glyph-name="w.superior" horiz-adv-x="473" 
d="M457 675q-20 -125 -94 -306h-55l-68 221l-5 26h-2l-6 -27l-62 -220h-55l-97 306h53l60 -196l15 -55h2l12 48l55 203h52l68 -211l10 -39h2q47 140 65 250h50z" />
    <glyph glyph-name="x.superior" horiz-adv-x="311" 
d="M293 369h-59l-79 134h-2q-56 -86 -82 -134h-54l107 163l-92 143h59l66 -113h1q40 58 65 113h54l-90 -138z" />
    <glyph glyph-name="y.superior" horiz-adv-x="312" 
d="M295 675q-95 -420 -245 -420q-21 0 -39 10v29q12 -2 26 -2q34 0 57 23q30 30 30 56q0 20 -25 89l-79 215h52l66 -181q24 -71 23 -96h2q49 105 79 277h53z" />
    <glyph glyph-name="z.superior" horiz-adv-x="286" 
d="M250 407l-2 -38h-207v29l143 239h-137l1 38h194v-30l-143 -237z" />
    <glyph glyph-name="period.superior" horiz-adv-x="187" 
d="M126 396q0 -20 -6 -26.5t-27 -6.5q-20 0 -25.5 5.5t-5.5 26.5t5.5 27t26.5 6q20 0 26 -5.5t6 -26.5z" />
    <glyph glyph-name="comma.superior" horiz-adv-x="187" 
d="M44 258l-18 23q52 35 52 70q0 10 -8 19t-8 23q0 22 5.5 28.5t27.5 6.5q19 0 25 -8t6 -26q0 -48 -19 -78.5t-63 -57.5z" />
    <glyph glyph-name="I_n_f" horiz-adv-x="510" 
d="M31 0h-31v337h31v-337zM302 0h-28q0 22 0.5 68.5t0.5 64.5q0 93 -53 93q-27 0 -67 -33v-193h-29v246h24l3 -30q39 34 79 34q72 0 72 -109q0 -16 -1 -66.5t-1 -74.5zM510 344l-7 -18q-20 9 -36 9q-38 0 -38 -45v-44h59v-21h-59v-225h-29v225h-43v21h43v42q0 70 60 70
q24 0 50 -14z" />
    <glyph glyph-name="period.inferior" horiz-adv-x="187" 
d="M126 -28q0 -20 -6 -26.5t-27 -6.5q-20 0 -25.5 5.5t-5.5 26.5t5.5 27t26.5 6q20 0 26 -5.5t6 -26.5z" />
    <glyph glyph-name="comma.inferior" horiz-adv-x="187" 
d="M44 -166l-18 23q52 35 52 70q0 10 -8 19t-8 23q0 22 5.5 28.5t27.5 6.5q19 0 25 -8t6 -26q0 -48 -19 -78.5t-63 -57.5z" />
    <glyph glyph-name="designer" horiz-adv-x="1000" 
d="M784 88q-6 -9 -21.5 -11.5t-19.5 -6.5q-36 -4 -43 -28q-3 -9 -10.5 -24.5t-11 -29.5t-1.5 -28q3 -12 21 -6q1 0 4.5 4t6.5 2q2 -3 1.5 -4t-2.5 -4t-3 -5q-17 -13 -30 -5q-15 18 -11 36q4 20 28 74q-7 5 -24.5 0.5t-25.5 -0.5q5 8 22 14q4 1 13.5 1t16 2.5t10.5 10.5t4 22
v24q-4 1 -4 12q-2 5 -5.5 9.5t-6 7.5t-7.5 5t-8 3t-9.5 2t-8 1t-9 0.5t-8.5 0.5q-17 -1 -33 -16.5t-23 -35.5q-10 -29 2 -65q-2 -13 9.5 -42.5t4.5 -49.5q-7 -7 -21 -1q-6 4 -9 11.5t-5 21.5t-3 17q4 4 5 17.5t4 17.5q5 18 -5 24q-5 -1 -19 -1.5t-23 -3t-16 -9.5
q4 -19 3 -44.5t-15 -37.5q-9 -3 -19 4q-4 4 -6 10.5t-2 10.5t0.5 13t0.5 12q1 4 4.5 12.5t5.5 13.5t5 11t7.5 10.5t9.5 6.5q8 -6 27 1l39 1q3 3 3.5 13t1.5 13q7 30 26 52t43 24q32 4 51 -8q1 -7 9 -13t9 -13q8 -16 1 -68q17 0 70 12zM459 68q-4 -4 -13 2t-14 2
q-8 -7 -11.5 -24.5t-7.5 -23.5q0 -8 -3 -25.5t-3 -26.5q-8 -5 -11 -4q-5 2 -3 18t2 18q4 6 4 22t3 22q-2 4 -2.5 14t-0.5 11q-2 1 -6 -2t-6 1q1 10 11 18q8 0 15 -18q3 1 8 8.5t8 9t10 -3.5zM352 113q0 -20 1.5 -73t0.5 -80t-11 -64.5t-31 -63.5q-53 -41 -116 -19
q-10 7 -10 14q4 29 18 34q-8 -23 -10 -33q22 -15 50 -12.5t51 17.5q14 6 21 17.5t13.5 34t8.5 27.5q7 57 5 146q2 7 0.5 24t-0.5 24q-1 5 -10 1q-4 -5 -8.5 -17t-8.5 -16q1 -10 -8.5 -20t-9.5 -18q-22 -30 -58 -94q-1 -2 -2 -5t-2 -5t-2.5 -4t-3.5 -2.5t-4 -0.5
q-6 5 -4 29.5t1 31.5q13 56 21 70q18 59 52 86q2 3 7 1.5t6.5 -1.5t6.5 -3t6 -4t5.5 -4.5t5.5 -4.5q6 9 10 24q9 -4 9 -20q-3 -2 -1 -8t1 -9zM611 331q-11 -2 -49.5 -16t-61.5 -12q-8 -9 -4 -30q3 -17 15 -12q1 1 3 10t6 11q6 -15 -6 -33q-4 -1 -12 -2t-14.5 12.5t-3.5 38.5
q-7 9 -4 14q5 5 7.5 12t3 18.5t1.5 15.5q-1 0 -2 2l-2 2q-10 -9 -21.5 -32t-16.5 -29q0 -9 -10 -23.5t-8 -25.5q-2 -2 -3 -15.5t-9 -14.5q-9 3 -11.5 10t-1 19.5t0.5 16.5q-2 13 0.5 35t1.5 33q-6 -4 -10.5 -16t-6.5 -15q-1 -2 -8.5 -17.5t-14 -21t-16.5 -2.5q-12 23 10 72
q2 2 7.5 11t8.5 12t10 7.5t12 -0.5q4 -3 8 0q12 34 16 90l8 8q6 -2 6 -6.5t-2.5 -11t-1.5 -10.5q-1 -10 -6.5 -49.5t-6.5 -60.5q0 -6 -2 -19.5t-2 -19t2 -19.5q3 5 21 40.5t32 51.5q10 18 26 30q4 -4 12 -14t12 -14v-40q7 2 36 9t45 13q7 -5 6 -13zM877 703q-6 77 -48 101
q4 7 8 8t8.5 -3t7 -7.5t7 -11t5.5 -8.5q46 -69 9 -182q-26 -78 -83 -108q26 24 38 48q35 43 39 80q13 26 9 83zM805 602q-6 -21 -19 -25q-7 3 -16 17l2 14q2 -1 3 -7.5t5 -8.5q6 -2 13 11q7 50 -12 87l-5 -3q-2 -3 -10.5 -12.5t-13 -16.5t-8.5 -16l-6 -4q-7 -8 -18.5 -28
t-18.5 -28q-6 -1 -8 3t-3 11.5t-2 10.5q2 10 -3 17q-3 1 -5 -4t-3 -6q-12 -15 -25 -16q-11 4 -12.5 12t1.5 22.5t3 21.5q4 19 27 50q2 0 8 3t9.5 3.5t8 -1t7.5 -7.5l4 -6q-4 -13 -9 -72q3 -10 6 -10q7 0 12 11t7 13q24 26 62 78q8 -3 9.5 -20.5t3.5 -21.5q4 -3 2 -8
q9 -24 4 -64zM696 798q-7 -16 -19 -14q-3 13 -9 6q-62 -60 -75 -108q-15 -115 27 -156q4 -4 10 -5.5t14.5 -1t11.5 0.5q4 3 9 9t8 8q1 -5 -1.5 -9t-8 -8t-7.5 -6q-26 -13 -49 12q-18 21 -22 46q-5 3 -3 11t-2 11q2 4 -0.5 14t0.5 16q0 93 91 182q2 0 5.5 1t6.5 1.5t6 0.5
t5 -3t2 -8zM550 620q-6 -17 -18.5 -29.5t-27.5 -12.5q-35 0 -51 32q-8 17 -4 50q1 5 6 14.5t5 15.5q24 24 52 12q1 -1 3 -2.5t3 -2t1.5 -2.5t0.5 -5q-2 -2 -3.5 -1t-4 3t-4.5 2q-22 7 -40 -16q-16 -33 -8 -55q17 -30 43 -34q1 1 13 3.5t17 10.5q3 2 5.5 8t5 9t6.5 0z
M427 592q-2 -5 -5 -15t-6 -18t-7 -15q-9 -5 -17 10q-13 36 -8 75q-1 1 0.5 24.5t-1.5 30.5q-5 -15 -6 -58t-16 -62q-2 -3 -8 -4t-14 9t-11 33q2 14 4 38t3 34q0 2 -2 14.5t3 13.5q6 3 11 -4q0 -15 -2 -40.5t-2 -44.5t5 -31q7 -6 10 -0.5t4 16t3 12.5q2 10 2.5 39.5t4.5 44.5
q1 2 2.5 6t2.5 6.5t3.5 5.5t4.5 2.5t6 -2.5q7 -26 5.5 -76t4.5 -76q1 -3 4 -4t5 3l2 9q3 8 7 16t8 8zM302 562q-12 -12 -67 -17q-57 -6 -102 -25q-5 -13 -22 -2q-1 7 5.5 13.5t7.5 10.5q9 24 15 48q-1 4 7 26q45 132 59 208q-2 15 3 21q3 1 4.5 0t3 -4.5t2.5 -4.5
q-8 -56 -40.5 -152.5t-41.5 -139.5l2 -2q11 2 36.5 8t44 9.5t37.5 3.5q25 -6 44 3zM591 -32q8 23 -8 54q-5 -8 -7 -27q5 -25 15 -27zM495 49l-11 -19q-6 -29 -1 -46q6 -8 14 1q9 8 4 22q10 38 -6 42zM324 116q-3 10 -12.5 13t-16.5 -2q-23 -25 -32 -40q-3 -12 -12.5 -37.5
t-14 -45.5t-2.5 -40q1 0 5 4q9 14 29.5 43.5t34.5 54t21 50.5zM505 330q9 21 -1 24l-4 -29q3 1 5 5zM396 332l-1 20q-10 3 -19 -14q-24 -40 -16 -63q5 -3 8 7q19 23 28 50zM688 697q-2 3 -5 -0.5t-4 -2.5q-32 -20 -30 -80q3 -1 9 4t10 4q2 5 10 19t9.5 21t-3.5 22q4 0 4 13z
" />
    <glyph glyph-name="FoFa" horiz-adv-x="960" 
d="M771 -58l-4 -4q-13 1 -47.5 -2.5t-49.5 -1.5q-31 1 -104 -3.5t-113 -0.5q-24 -4 -96 3q-13 1 -121 1q-68 0 -100 -8q-12 -2 -15 4q0 4 -1 19.5t0 26t4 19.5q1 10 1 37.5t2 42.5q-3 15 -1 44.5t0 44.5q0 25 3 71.5t4 59.5q2 26 1 71.5t0 71.5q3 6 13.5 6t12.5 1
q2 -4 18.5 -2.5t18.5 1.5q12 12 13 1q1 -1 0.5 -6t2.5 -6q-1 -37 -1 -54.5t3.5 -74t4.5 -72.5q22 7 59 28t57 28q3 1 9.5 5.5t11.5 6.5q8 4 10 3q3 -1 4 -3.5t0 -7.5t-1 -6q-10 -29 -5 -61q1 -2 3 -2.5t3.5 0t4 1t3.5 0.5q6 5 17.5 12t16.5 10q25 15 41 21q36 25 48 29
l20 16q1 4 6 7q3 0 11 -6q0 -9 3 -28t3 -29q1 -2 3.5 -2.5t2.5 -1.5q3 -4 -2 -20l2 -2q23 5 61 32t60 32q3 3 10.5 6t11.5 7q3 0 16 9.5t22 2.5q6 0 7 -4q-1 -3 4 -12q-1 -4 0 -14t-2 -13q0 -5 -0.5 -16t0.5 -18.5t5 -13.5q-1 -4 2.5 -12.5t-0.5 -10.5q2 -25 4 -27
q2 -14 -1 -18q1 -5 2.5 -21t4.5 -25v-16q0 -26 6 -74.5t6 -72.5l1 -4q1 -4 0 -5zM458 30q3 5 4.5 10t1.5 10.5t0.5 9.5t-0.5 11t-1.5 10t-2.5 11.5t-2 10.5q1 4 -4.5 7.5t-12.5 7t-8 4.5q-6 6 -8 -1q-11 1 -19 -4q-4 -2 -8 -8t-6 -7q-5 -3 -9 3q5 24 -3 74l-2 7h-8
q-4 -1 -6 -4.5t-2 -6.5v-7.5t-1 -6.5q-2 -11 -2 -34t-2 -34q1 -11 0 -32.5t0 -31.5q0 -5 -1.5 -17t-0.5 -19q9 -5 31 5q8 2 10.5 0.5t6.5 -7t7 -7.5q8 0 13 1q12 7 24 20.5t11 24.5zM452 664q-12 -13 -29 -8q-13 18 -14 24q-6 9 -16 16t-18 9t-23 5.5t-21 5.5l-31 2
q-2 -2 -6.5 -1.5t-6.5 -0.5q-33 -10 -55 -21q-1 -2 -13.5 -11.5t-13.5 -18.5q-9 -22 -11 -70q0 -3 10.5 -2.5t11.5 0.5q19 2 86 2q1 -1 1.5 -3.5t-0.5 -3.5q-5 -5 -15.5 -0.5t-15.5 2.5q-7 0 -21 -1t-20 0q-4 -1 -12 -1.5t-14 -1.5t-10 -4l-3 -4q-2 -25 1 -63v-14t4 -14
q19 -1 38 1t31 2q2 2 13 -1q1 -1 1 -2v-2l-4 -2q-12 4 -39 0.5t-46 -2.5q-37 -3 -46 -2q-45 -2 -64 3l-2 3q3 3 9 5q4 -2 39 -7q24 3 26 4q-1 19 4.5 49.5t6.5 43.5l-3 4q-6 0 -18.5 -0.5t-21 0.5t-16.5 5q-2 5 3 5q18 -5 56 -3l2 3q6 47 15 66v3q47 55 119 62q31 4 70 -13
q2 -1 9.5 -1.5t10.5 -2.5q43 -9 62 -35q2 -2 0 -9zM739 -10q-11 24 -18 32q-2 4 -8 12.5t-9.5 15.5t-4.5 15q-7 14 -6 17q5 6 17 13.5t16 12.5l-9 17q-7 -1 -18 -5.5t-13 -4.5q-1 -1 -4 -3t-5 -3.5t-5 -1t-5 2.5q2 53 1 78l-2 3q-6 0 -27 7q-5 -35 -3 -48q-2 -5 -0.5 -19.5
t-1.5 -19.5q1 -18 -1 -51.5t0 -51.5l-1 -7h24q1 0 6 -1.5t6 1.5q0 18 -1 28q0 3 -1 8t-1.5 8.5t1 7t6.5 4.5q4 -2 6 -7.5t3 -7.5q-1 -5 4 -12.5t6 -10.5q7 -4 15 -16.5t14 -16.5q2 0 6 -1.5t7 -0.5q6 0 6 6zM248 181q-12 2 -52 0q-18 -2 -27 -8q-1 -12 -3.5 -35.5
t-3.5 -29.5q2 -19 1.5 -54.5t0.5 -55.5q1 0 7 1t7 0q3 1 11.5 -0.5t11.5 0.5l2 63q2 5 16 12q2 1 8 0.5t7 2.5l-1 28q-3 4 -21 4q-4 -4 -7 -4q-3 1 -5 3.5t-2 5.5t-0.5 7t-1.5 6q-2 4 4 10q13 4 39 8l6 4q-1 7 1 17.5t2 14.5zM333 34q-4 12 -3 44t-7 41q-11 7 -23 12l-8 5
h-14t-19 -5q-6 -3 -8 -26q8 -3 15.5 -1t16.5 0.5t13 -8.5q0 -2 2 -6t-1 -6q-3 -6 1 -8q5 -7 -3 -9q-5 -2 -14.5 -2t-13.5 -1q-19 -7 -25 -37q-2 -3 -0.5 -10.5t-1.5 -10.5q0 -11 15 -17q5 5 8 2q5 -1 9.5 1.5t10.5 7.5t9 7q6 1 7 -2.5t-0.5 -9t2.5 -8.5q2 -2 8 0t8 2
q2 1 5 1.5t5.5 1.5t4.5 3zM447 559q3 -19 -7 -31q-4 -3 -12.5 -10t-15 -11t-14.5 -5q-4 1 -6.5 -3.5t-6.5 -1.5q-1 3 -12 2t-13 -1q-14 0 -21 3q-24 21 -18 36q7 21 24 30q32 16 47 13q45 -2 55 -21zM880 571q0 -4 -2 -4q-5 1 -42 -2q-67 -3 -90 -7q-6 -5 -7 -17t-3 -16
q0 -3 2 -8.5t2 -6.5q4 -5 14 -7q17 2 23 13q0 7 -7 12q-3 2 -10 2.5t-10 4.5q2 3 5 4t9 0t8 -1q10 -3 15 -16q-1 -15 -18 -27l-21 -5q-35 9 -45 24q-4 1 -1 22l4 22q-1 3 -3.5 3.5t-5.5 0t-6 0.5l-33 -1q0 1 -1 2t-1 2q2 2 8 3h6q5 -1 11.5 -1t14.5 0.5t12 0.5q5 4 5 17
q1 3 3 14.5t6 15.5q4 1 5.5 0.5t4.5 -3.5l4 -4q4 -5 3.5 -17t1.5 -19q0 -5 10.5 -4.5t11.5 0.5q4 0 43.5 1t69.5 5q3 -2 4 -3zM560 123q-24 -2 -30 -13q-2 -2 -3 -5.5t-2 -6t-3.5 -4.5t-6.5 -1q-2 7 -2 29q-2 2 -7 0t-8 0q-7 -4 -11 -13q0 -73 4 -111l3 -4q3 -3 11.5 -1.5
t11.5 0.5q-2 7 -0.5 21t-1.5 20q6 31 16 44q4 3 13 6t13 7q0 4 1.5 11t2 10.5t-0.5 10.5zM651 504l-3 -2q-35 0 -51 -5q-11 5 -13 8q6 37 1 56q-2 2 -14 -4q-39 -24 -41 -48q-10 -10 -19 -5q-4 3 -3 15t0 16l-1 31q-2 2 -8 1.5t-10 0.5q-1 1 -4 1t-5 0.5t-2 3.5q7 0 26 1.5
t26 -0.5q4 -3 3 -14.5t6 -12.5q8 4 25 14t27 14q2 -1 12 -1t12 -8t2 -23.5v-19.5q1 -1 1.5 -5.5t2.5 -6.5q9 -2 13 0q2 0 7.5 -1t9.5 -1q3 -3 0 -5zM610 15q0 13 -1 38.5t-1 37.5v26q-2 5 -13.5 2.5t-14.5 -2.5q-5 0 -5 -24v-26l-3 -26q1 -3 1 -19.5t5 -24.5q15 0 30 5
q2 4 2 13zM425 539q-7 31 -26 34q-1 -3 -3.5 -3.5t-6 0t-4.5 0.5q-15 7 -26 -6q-2 -3 -3.5 -6.5t-1.5 -7t-0.5 -6t1 -6.5t2 -6t3.5 -6.5t3.5 -6t3.5 -6t4 -5.5q1 -2 3 -2.5t4 0t5 -0.5h9t8 3l8 4q2 2 7 5.5t6.5 5.5t4 7t-0.5 9zM430 77q14 -30 -9 -55q-1 -1 -12 -7
q-6 1 -9.5 5t-4.5 7.5t-2 11t-2 9.5q1 2 2.5 14.5t5.5 17.5q3 2 9 10t12 8l3 -3q-2 -5 2.5 -10.5t4.5 -7.5zM608 179q-4 12 -12 15q-7 7 -10 0q-13 -18 -4 -30q3 -11 19 -4q9 6 7 19zM295 42q0 -11 -14 -23l-7 -3q-6 -3 -10 -1q-4 1 -5 3.5t1 8.5l2 6q0 6 9 10q6 0 10 4
q13 -3 14 -5z" />
    <glyph glyph-name="LuFo" horiz-adv-x="180" 
d="M180 -20v-180h-180v180h180zM160 -40h-140v-140h140v140zM40 -160v100h20v-80h40v-20h-60zM80 -60h60v-100h-20v40h-40v20h40v20h-40v20zM180 885v-180h-180v180h180zM160 865h-140v-140h140v140zM40 745v100h20v-80h40v-20h-60zM80 845h60v-100h-20v40h-40v20h40v20h-40
v20z" />
    </font>
</defs>
</svg>
