<?xml version="1.0" standalone="no"?>
<!DOCTYPE svg PUBLIC "-//W3C//DTD SVG 1.1//EN" "http://www.w3.org/Graphics/SVG/1.1/DTD/svg11.dtd" >
<svg xmlns="http://www.w3.org/2000/svg" xmlns:xlink="http://www.w3.org/1999/xlink" version="1.1">
<metadata>
Created by FontForge 20170731 at Wed Nov  9 19:20:35 2016
 By Aleksey,,,
Copyright (c) Luc[as] de Groot, published by LucasFonts, 2002, 2004, 2007, 2009, 2016. All rights reserved.
</metadata>
<defs>
<font id="FHPSun-ExtraBoldItalic" horiz-adv-x="500" >
  <font-face 
    font-family="FHP Sun ExtraBold"
    font-weight="800"
    font-style="italic"
    font-stretch="normal"
    units-per-em="1000"
    panose-1="2 11 8 3 5 3 2 9 2 3"
    ascent="800"
    descent="-200"
    x-height="505"
    cap-height="675"
    bbox="-339 -209 1787 885"
    underline-thickness="116"
    underline-position="-356"
    slope="-11"
    unicode-range="U+000D-1F6C8"
  />
<missing-glyph horiz-adv-x="550" 
d="M300 150h-150v250h50v-200h100v-50zM500 50h-450v450h450v-450zM350 350h-100v50h150v-250h-50v100h-100v50h100v50zM100 100h350v350h-350v-350z" />
    <glyph glyph-name="ellipsis" unicode="&#x2e;&#x2e;&#x2e;" horiz-adv-x="777" 
d="M101 -12q-43 0 -60.5 11.5t-17.5 40.5q0 27 8.5 58t20.5 43q20 20 72 20q43 0 60.5 -11.5t17.5 -40.5q0 -27 -8.5 -58t-20.5 -43q-20 -20 -72 -20zM340 -12q-43 0 -60.5 11.5t-17.5 40.5q0 27 8.5 58t20.5 43q20 20 72 20q43 0 60.5 -11.5t17.5 -40.5q0 -27 -8.5 -58
t-20.5 -43q-20 -20 -72 -20zM578 -12q-43 0 -60 11.5t-17 40.5q0 27 8.5 58t20.5 43q20 20 72 20q43 0 60.5 -11.5t17.5 -40.5q0 -27 -8.5 -58t-20.5 -43q-20 -20 -73 -20z" />
    <glyph glyph-name="f_f" unicode="ff" horiz-adv-x="603" 
d="M715 689l-33 -90q-32 9 -52 9q-25 0 -37.5 -12t-18.5 -42l-10 -49h78l-22 -111h-78l-78 -403q-16 -82 -57.5 -124.5t-119.5 -42.5q-69 0 -118 28l33 93q33 -7 46 -7q25 0 37.5 12t18.5 42l78 402h-133l-80 -412q-16 -82 -57.5 -124.5t-121.5 -42.5q-68 0 -121 33l32 90
q30 -9 52 -9q25 0 38 12t18 42l80 411h-53l21 111h54l7 41q17 82 58 124.5t119 42.5q68 0 119 -28l-34 -93q-33 7 -46 7q-24 0 -37 -12.5t-19 -41.5l-8 -40h134l10 50q16 82 57.5 124.5t121.5 42.5q67 0 122 -33z" />
    <glyph glyph-name="fi" unicode="fi" horiz-adv-x="569" 
d="M9 -17l80 411h-54l21 111h54l10 50q16 82 58 124.5t122 42.5q53 0 101 -22l-33 -98q-17 6 -34 6q-23 0 -35.5 -12t-18.5 -42l-10 -49h294l-97 -505h-160l76 394h-134l-80 -412q-16 -82 -58 -124.5t-122 -42.5q-68 0 -121 33l33 90q29 -9 51 -9q25 0 38.5 12t18.5 42z
M496 549q-46 0 -66 12t-20 40q0 20 8 47.5t19 38.5q24 24 82 24q47 0 66.5 -12t19.5 -40q0 -20 -7.5 -47.5t-18.5 -38.5q-24 -24 -83 -24z" />
    <glyph glyph-name="fl" unicode="fl" horiz-adv-x="582" 
d="M9 -17l80 411h-54l21 111h54l8 40q18 91 68.5 134t153.5 43q60 0 109 -13h153l-106 -547q-6 -25 -6 -41q0 -14 5.5 -18t18.5 -4h20l-11 -93q-48 -16 -107 -16q-48 0 -71 19t-23 63q0 25 7 59l92 469q-32 8 -63 8q-34 0 -53.5 -14t-26.5 -49l-8 -40h67l-21 -111h-67
l-80 -412q-16 -82 -58 -124.5t-122 -42.5q-68 0 -121 33l33 90q29 -9 51 -9q25 0 38.5 12t18.5 42z" />
    <glyph glyph-name="f_f_i" unicode="ffi" horiz-adv-x="862" 
d="M857 505l-98 -505h-160l76 394h-133l-78 -403q-16 -82 -57.5 -124.5t-119.5 -42.5q-69 0 -118 28l33 93q33 -7 46 -7q25 0 37.5 12t18.5 42l78 402h-133l-80 -412q-16 -82 -57.5 -124.5t-121.5 -42.5q-68 0 -121 33l32 90q30 -9 52 -9q25 0 38 12t18 42l80 411h-53
l21 111h54l7 41q17 82 58 124.5t119 42.5q68 0 119 -28l-34 -93q-33 7 -46 7q-24 0 -37 -12.5t-19 -41.5l-8 -40h133l12 58q16 81 57 120t120 39q54 0 102 -22l-33 -98q-17 6 -34 6q-22 0 -34.5 -12t-18.5 -42l-10 -49h293zM789 549q-46 0 -66 12t-20 40q0 20 8 47.5
t19 38.5q24 24 82 24q47 0 66.5 -12t19.5 -40q0 -20 -7.5 -47.5t-18.5 -38.5q-24 -24 -83 -24z" />
    <glyph glyph-name="f_f_l" unicode="ffl" horiz-adv-x="874" 
d="M895 709l-107 -547q-5 -26 -5 -41q0 -14 5.5 -18t18.5 -4h21l-12 -93q-46 -16 -107 -16q-48 0 -71 19t-23 63q0 25 7 59l91 466q-30 11 -62 11q-66 0 -79 -63l-8 -40h66l-21 -111h-67l-78 -403q-16 -82 -57.5 -124.5t-119.5 -42.5q-69 0 -118 28l33 93q33 -7 46 -7
q25 0 37.5 12t18.5 42l78 402h-133l-80 -412q-16 -82 -57.5 -124.5t-121.5 -42.5q-68 0 -121 33l32 90q30 -9 52 -9q25 0 38 12t18 42l80 411h-53l21 111h54l7 41q17 82 58 124.5t119 42.5q68 0 119 -28l-34 -93q-33 7 -46 7q-24 0 -37 -12.5t-19 -41.5l-8 -40h134l8 40
q17 90 69 133.5t152 43.5q60 0 109 -13h153z" />
    <glyph glyph-name="f_b" unicode="fb" horiz-adv-x="845" 
d="M824 346q0 -32 -3.5 -63t-13 -67.5t-24.5 -68t-40 -61.5t-57 -51.5t-77.5 -34.5t-100.5 -13q-46 0 -96.5 6t-77.5 12l-27 6l115 589q-32 8 -64 8q-34 0 -53.5 -14t-25.5 -49l-8 -40h66l-21 -111h-67l-80 -412q-16 -82 -57.5 -124.5t-121.5 -42.5q-68 0 -121 33l32 90
q30 -9 52 -9q25 0 38 12t18 42l80 411h-54l21 111h55l8 39q18 91 68.5 134.5t152.5 43.5q60 0 109 -13h154l-39 -203q-4 -14 -11.5 -41t-7.5 -28q25 34 63.5 57t79.5 23q69 0 102.5 -48.5t33.5 -122.5zM661 326q0 67 -35 67q-33 0 -68 -47.5t-52 -135.5l-20 -102
q21 -8 47 -8q34 0 61 26t40.5 64t20 73.5t6.5 62.5z" />
    <glyph glyph-name="f_f_b" unicode="ffb" horiz-adv-x="1138" 
d="M896 709l-39 -203q-4 -14 -11.5 -41t-7.5 -28q25 34 63.5 57t79.5 23q69 0 102.5 -48.5t33.5 -122.5q0 -32 -3.5 -63t-13 -67.5t-24.5 -68t-40 -61.5t-57 -51.5t-77.5 -34.5t-100.5 -13q-46 0 -96.5 6t-77.5 12l-27 6l115 589q-32 8 -64 8q-34 0 -53 -14t-26 -49l-8 -40
h66l-21 -111h-67l-78 -403q-16 -82 -57.5 -124.5t-119.5 -42.5q-69 0 -118 28l33 93q33 -7 46 -7q25 0 37.5 12t18.5 42l78 402h-133l-80 -412q-16 -82 -57.5 -124.5t-121.5 -42.5q-68 0 -121 33l32 90q30 -9 52 -9q25 0 38 12t18 42l80 411h-53l21 111h54l7 41
q17 82 58 124.5t119 42.5q68 0 119 -28l-34 -93q-33 7 -46 7q-24 0 -37 -12.5t-19 -41.5l-8 -40h134l8 39q18 91 68.5 134.5t152.5 43.5q60 0 109 -13h154zM954 326q0 67 -35 67q-33 0 -68 -47.5t-52 -135.5l-20 -102q21 -8 47 -8q34 0 61 26t40.5 64t20 73.5t6.5 62.5z" />
    <glyph glyph-name="f_h" unicode="fh" horiz-adv-x="852" 
d="M603 709l-39 -203q-4 -14 -11.5 -41t-7.5 -28q25 34 63.5 57t79.5 23q129 0 129 -140q0 -39 -8 -83.5t-27 -132.5t-33 -161h-161q15 76 34 164t26 124.5t7 59.5q0 42 -32 42q-34 0 -68.5 -55t-52.5 -150l-37 -185h-160l117 600q-32 8 -64 8q-34 0 -53.5 -14t-25.5 -49
l-8 -40h66l-21 -111h-67l-80 -412q-16 -82 -57.5 -124.5t-121.5 -42.5q-68 0 -121 33l32 90q30 -9 52 -9q25 0 38 12t18 42l80 411h-54l21 111h55l8 39q18 91 68.5 134.5t152.5 43.5q60 0 109 -13h154z" />
    <glyph glyph-name="f_f_h" unicode="ffh" horiz-adv-x="1145" 
d="M896 709l-39 -203q-4 -14 -11.5 -41t-7.5 -28q25 34 63.5 57t79.5 23q129 0 129 -140q0 -39 -8 -83.5t-27 -132.5t-33 -161h-161q15 76 34 164t26 124.5t7 59.5q0 42 -32 42q-34 0 -68.5 -55t-52.5 -150l-37 -185h-160l117 600q-32 8 -64 8q-34 0 -53 -14t-26 -49l-8 -40
h66l-21 -111h-67l-78 -403q-16 -82 -57.5 -124.5t-119.5 -42.5q-69 0 -118 28l33 93q33 -7 46 -7q25 0 37.5 12t18.5 42l78 402h-133l-80 -412q-16 -82 -57.5 -124.5t-121.5 -42.5q-68 0 -121 33l32 90q30 -9 52 -9q25 0 38 12t18 42l80 411h-53l21 111h54l7 41
q17 82 58 124.5t119 42.5q68 0 119 -28l-34 -93q-33 7 -46 7q-24 0 -37 -12.5t-19 -41.5l-8 -40h134l8 39q18 91 68.5 134.5t152.5 43.5q60 0 109 -13h154z" />
    <glyph glyph-name="f_igrave" unicode="f&#xec;" horiz-adv-x="569" 
d="M529 729l47 -163l-92 -21l-82 155zM9 -17l80 411h-54l21 111h54l12 61q16 81 53 118.5t110 37.5q47 0 90 -18l-28 -100q-16 4 -26 4q-30 0 -37 -42l-13 -61h292l-97 -505h-160l76 394h-133l-80 -412q-16 -82 -57.5 -124.5t-121.5 -42.5q-68 0 -121 33l32 90q30 -9 52 -9
q25 0 38 12t18 42z" />
    <glyph glyph-name="f_iacute" unicode="f&#xed;" horiz-adv-x="569" 
d="M9 -17l80 411h-54l21 111h54l12 58q17 81 57.5 120t120.5 39q52 0 102 -22l-33 -97q-16 5 -33 5q-25 0 -37.5 -12t-17.5 -42l-10 -49h292l-97 -505h-160l76 394h-133l-80 -412q-16 -82 -57.5 -124.5t-121.5 -42.5q-68 0 -121 33l32 90q30 -9 52 -9q25 0 38 12t18 42z
M673 669l-182 -118l-76 44l155 134z" />
    <glyph glyph-name="f_icircumflex" unicode="f&#xee;" horiz-adv-x="569" 
d="M645 602l-61 -57l-77 72l-108 -72l-40 60l171 131zM9 -17l80 411h-54l21 111h54l13 63q16 81 53.5 117.5t108.5 36.5q49 0 90 -18l-32 -100q-13 4 -23 4q-29 0 -36 -42l-13 -61h292l-97 -505h-160l76 394h-133l-80 -412q-16 -82 -57.5 -124.5t-121.5 -42.5q-68 0 -121 33
l32 90q30 -9 52 -9q25 0 38 12t18 42z" />
    <glyph glyph-name="f_itilde" unicode="f&#x129;" horiz-adv-x="569" 
d="M610 686l46 -50q-49 -89 -111 -89q-26 0 -54.5 19.5t-42.5 19.5q-20 0 -51 -39l-46 50q26 47 52 68t60 21q25 0 54 -19.5t43 -19.5q20 0 50 39zM9 -17l80 411h-54l22 111h54l11 57q16 82 52.5 121t106.5 39q46 0 88 -17l-28 -100q-11 3 -21 3q-29 0 -36 -42l-13 -61h292
l-97 -505h-160l76 394h-133l-80 -412q-16 -82 -57.5 -124.5t-121.5 -42.5q-68 0 -121 33l32 90q30 -9 52 -9q25 0 38 12t18 42z" />
    <glyph glyph-name="f_idieresis" unicode="f&#xef;" horiz-adv-x="569" 
d="M672 654q0 -18 -6.5 -40.5t-17.5 -33.5q-18 -18 -59 -18q-32 0 -44 10.5t-12 37.5q0 18 7 41t18 33q18 18 58 18q32 0 44 -10.5t12 -37.5zM511 654q0 -18 -6.5 -40.5t-17.5 -33.5q-18 -18 -59 -18q-32 0 -44 10.5t-12 37.5q0 18 6.5 40.5t17.5 33.5q20 18 59 18
q32 0 44 -10.5t12 -37.5zM9 -17l80 411h-54l22 111h54l11 57q16 82 52.5 121t106.5 39q46 0 88 -17l-28 -100q-11 3 -21 3q-29 0 -36 -42l-13 -61h292l-97 -505h-160l76 394h-133l-80 -412q-16 -82 -57.5 -124.5t-121.5 -42.5q-68 0 -121 33l32 90q30 -9 52 -9q25 0 38 12
t18 42z" />
    <glyph glyph-name="f_imacron" unicode="f&#x12b;" horiz-adv-x="569" 
d="M633 578h-268l22 109h268zM9 -17l80 411h-54l22 111h54l11 57q16 82 52.5 121t106.5 39q46 0 88 -17l-28 -100q-11 3 -21 3q-29 0 -36 -42l-13 -61h292l-97 -505h-160l76 394h-133l-80 -412q-16 -82 -57.5 -124.5t-121.5 -42.5q-68 0 -121 33l32 90q30 -9 52 -9
q25 0 38 12t18 42z" />
    <glyph glyph-name="f_ibreve" unicode="f&#x12d;" horiz-adv-x="569" 
d="M575 697h88q-29 -156 -164 -156q-141 0 -111 156h85q-12 -63 36 -63q30 0 44 15t22 48zM9 -17l80 411h-54l22 111h54l11 57q16 82 52.5 121t106.5 39q46 0 88 -17l-28 -100q-11 3 -21 3q-29 0 -36 -42l-13 -61h292l-97 -505h-160l76 394h-133l-80 -412
q-16 -82 -57.5 -124.5t-121.5 -42.5q-68 0 -121 33l32 90q30 -9 52 -9q25 0 38 12t18 42z" />
    <glyph glyph-name="f_iogonek" unicode="f&#x12f;" horiz-adv-x="569" 
d="M564 505l-98 -505q-44 -3 -73 -31t-29 -54q0 -16 22 -16q20 0 44 11l6 -68q-52 -27 -111 -27q-42 0 -66.5 15.5t-24.5 43.5q0 60 72 126l76 394h-133l-80 -412q-16 -82 -57.5 -124.5t-121.5 -42.5q-68 0 -121 33l32 90q30 -9 52 -9q25 0 38 12t18 42l80 411h-54l21 111
h54l12 58q16 81 57 120t120 39q54 0 102 -22l-33 -98q-17 6 -34 6q-23 0 -35.5 -12t-17.5 -42l-10 -49h293zM496 549q-46 0 -66 12t-20 40q0 20 8 47.5t19 38.5q24 24 82 24q47 0 66.5 -12t19.5 -40q0 -20 -7.5 -47.5t-18.5 -38.5q-24 -24 -83 -24z" />
    <glyph glyph-name="f_dotlessi" unicode="f&#x131;" horiz-adv-x="569" 
d="M9 -17l80 411h-54l21 111h54l12 58q17 81 57.5 120t120.5 39q52 0 102 -22l-33 -97q-16 5 -33 5q-25 0 -37.5 -12t-17.5 -42l-10 -49h292l-97 -505h-160l76 394h-133l-80 -412q-16 -82 -57.5 -124.5t-121.5 -42.5q-68 0 -121 33l32 90q30 -9 52 -9q25 0 38 12t18 42z" />
    <glyph glyph-name="f_f_igrave" unicode="ff&#xec;" horiz-adv-x="862" 
d="M822 729l47 -163l-92 -21l-82 155zM759 0h-160l76 394h-133l-78 -403q-16 -82 -57.5 -124.5t-119.5 -42.5q-69 0 -118 28l33 93q33 -7 46 -7q25 0 37.5 12t18.5 42l78 402h-133l-80 -412q-16 -82 -57.5 -124.5t-121.5 -42.5q-68 0 -121 33l32 90q30 -9 52 -9q25 0 38 12
t18 42l80 411h-54l22 111h54l9 46q16 82 57 122t121 40q69 0 115 -29l-35 -93q-22 8 -44 8q-24 0 -36.5 -12t-18.5 -42l-8 -40h132l12 61q16 81 53 118.5t110 37.5q47 0 90 -18l-28 -100q-16 4 -26 4q-29 0 -37 -42l-13 -61h292z" />
    <glyph glyph-name="f_f_iacute" unicode="ff&#xed;" horiz-adv-x="862" 
d="M856 505l-97 -505h-160l76 394h-133l-78 -403q-16 -82 -57.5 -124.5t-119.5 -42.5q-69 0 -118 28l33 93q33 -7 46 -7q25 0 37.5 12t18.5 42l78 402h-133l-80 -412q-16 -82 -57.5 -124.5t-121.5 -42.5q-68 0 -121 33l32 90q30 -9 52 -9q25 0 38 12t18 42l80 411h-53
l21 111h54l7 41q17 82 58 124.5t119 42.5q68 0 119 -28l-34 -93q-33 7 -46 7q-24 0 -37 -12.5t-19 -41.5l-8 -40h134l10 50q16 82 57.5 124.5t121.5 42.5q54 0 102 -22l-33 -97q-25 5 -33 5q-24 0 -36.5 -12t-18.5 -42l-10 -49h292zM967 669l-182 -118l-76 44l155 134z" />
    <glyph glyph-name="f_f_icircumflex" unicode="ff&#xee;" horiz-adv-x="862" 
d="M759 0h-160l76 394h-133l-78 -403q-16 -82 -57.5 -124.5t-119.5 -42.5q-69 0 -118 28l33 93q33 -7 46 -7q25 0 37.5 12t18.5 42l78 402h-133l-80 -412q-16 -82 -57.5 -124.5t-121.5 -42.5q-68 0 -121 33l32 90q30 -9 52 -9q25 0 38 12t18 42l80 411h-54l22 111h54l9 46
q16 82 57 122t121 40q69 0 115 -29l-35 -93q-22 8 -44 8q-24 0 -36.5 -12t-18.5 -42l-8 -40h132l12 61q16 81 53 118.5t110 37.5q47 0 90 -18l-32 -100q-12 4 -22 4q-29 0 -37 -42l-13 -61h292zM938 602l-61 -57l-77 72l-108 -72l-40 60l171 131z" />
    <glyph glyph-name="f_f_itilde" unicode="ff&#x129;" horiz-adv-x="862" 
d="M759 0h-160l76 394h-133l-78 -403q-16 -82 -57.5 -124.5t-119.5 -42.5q-69 0 -118 28l33 93q33 -7 46 -7q25 0 37.5 12t18.5 42l78 402h-133l-80 -412q-16 -82 -57.5 -124.5t-121.5 -42.5q-68 0 -121 33l32 90q30 -9 52 -9q25 0 38 12t18 42l80 411h-54l22 111h54l9 46
q16 82 57 122t121 40q69 0 115 -29l-35 -93q-22 8 -44 8q-24 0 -36.5 -12t-18.5 -42l-8 -40h132l12 61q16 81 52.5 118.5t106.5 37.5q46 0 88 -17l-28 -100q-11 3 -21 3q-28 0 -36 -42l-13 -61h292zM903 686l46 -50q-49 -89 -111 -89q-26 0 -54.5 19.5t-42.5 19.5
q-21 0 -50 -39l-47 50q49 89 112 89q25 0 54 -19.5t43 -19.5q20 0 50 39z" />
    <glyph glyph-name="f_f_idieresis" unicode="ff&#xef;" horiz-adv-x="862" 
d="M759 0h-160l76 394h-133l-78 -403q-16 -82 -57.5 -124.5t-119.5 -42.5q-69 0 -118 28l33 93q33 -7 46 -7q25 0 37.5 12t18.5 42l78 402h-133l-80 -412q-16 -82 -57.5 -124.5t-121.5 -42.5q-68 0 -121 33l32 90q30 -9 52 -9q25 0 38 12t18 42l80 411h-54l22 111h54l9 46
q16 82 57 122t121 40q69 0 115 -29l-35 -93q-22 8 -44 8q-24 0 -36.5 -12t-18.5 -42l-8 -40h132l12 61q16 81 52.5 118.5t106.5 37.5q46 0 88 -17l-28 -100q-11 3 -21 3q-28 0 -36 -42l-13 -61h292zM965 654q0 -18 -6.5 -40.5t-17.5 -33.5q-18 -18 -58 -18q-33 0 -45 10.5
t-12 37.5q0 18 7 41t18 33q18 18 58 18q32 0 44 -10.5t12 -37.5zM804 654q0 -18 -6.5 -40.5t-17.5 -33.5q-18 -18 -59 -18q-32 0 -44 10.5t-12 37.5q0 18 7 41t18 33q18 18 58 18q32 0 44 -10.5t12 -37.5z" />
    <glyph glyph-name="f_f_imacron" unicode="ff&#x12b;" horiz-adv-x="862" 
d="M948 687l-22 -109h-268l22 109h268zM759 0h-160l76 394h-133l-78 -403q-16 -82 -57.5 -124.5t-119.5 -42.5q-69 0 -118 28l33 93q33 -7 46 -7q25 0 37.5 12t18.5 42l78 402h-133l-80 -412q-16 -82 -57.5 -124.5t-121.5 -42.5q-68 0 -121 33l32 90q30 -9 52 -9q25 0 38 12
t18 42l80 411h-54l22 111h54l9 46q16 82 57 122t121 40q69 0 115 -29l-35 -93q-22 8 -44 8q-24 0 -36.5 -12t-18.5 -42l-8 -40h132l12 61q16 81 52.5 118.5t106.5 37.5q46 0 88 -17l-28 -100q-11 3 -21 3q-28 0 -36 -42l-13 -61h292z" />
    <glyph glyph-name="f_f_ibreve" unicode="ff&#x12d;" horiz-adv-x="862" 
d="M759 0h-160l76 394h-133l-78 -403q-16 -82 -57.5 -124.5t-119.5 -42.5q-69 0 -118 28l33 93q33 -7 46 -7q25 0 37.5 12t18.5 42l78 402h-133l-80 -412q-16 -82 -57.5 -124.5t-121.5 -42.5q-68 0 -121 33l32 90q30 -9 52 -9q25 0 38 12t18 42l80 411h-54l22 111h54l9 46
q16 82 57 122t121 40q69 0 115 -29l-35 -93q-22 8 -44 8q-24 0 -36.5 -12t-18.5 -42l-8 -40h132l12 61q16 81 52.5 118.5t106.5 37.5q46 0 88 -17l-28 -100q-11 3 -21 3q-28 0 -36 -42l-13 -61h292zM868 697h88q-29 -156 -164 -156q-141 0 -111 156h85q-12 -63 36 -63
q30 0 44 15t22 48z" />
    <glyph glyph-name="f_f_iogonek" unicode="ff&#x12f;" horiz-adv-x="862" 
d="M857 505l-98 -505q-51 -13 -77.5 -38t-26.5 -46q0 -17 20 -17q21 0 43 10l12 -68q-52 -26 -106 -26q-100 0 -100 73q0 49 75 112l76 394h-133l-78 -403q-16 -82 -57.5 -124.5t-119.5 -42.5q-69 0 -118 28l33 93q33 -7 46 -7q25 0 37.5 12t18.5 42l78 402h-133l-80 -412
q-16 -82 -57.5 -124.5t-121.5 -42.5q-68 0 -121 33l32 90q30 -9 52 -9q25 0 38 12t18 42l80 411h-53l21 111h54l7 41q17 82 58 124.5t119 42.5q68 0 119 -28l-34 -93q-33 7 -46 7q-24 0 -37 -12.5t-19 -41.5l-8 -40h133l12 58q16 81 57 120t120 39q54 0 102 -22l-33 -98
q-17 6 -34 6q-22 0 -34.5 -12t-18.5 -42l-10 -49h293zM789 549q-46 0 -66 12t-20 40q0 20 8 47.5t19 38.5q24 24 82 24q47 0 66.5 -12t19.5 -40q0 -20 -7.5 -47.5t-18.5 -38.5q-24 -24 -83 -24z" />
    <glyph glyph-name="f_f_dotlessi" unicode="ff&#x131;" horiz-adv-x="862" 
d="M856 505l-97 -505h-160l76 394h-133l-78 -403q-16 -82 -57.5 -124.5t-119.5 -42.5q-69 0 -118 28l33 93q33 -7 46 -7q25 0 37.5 12t18.5 42l78 402h-133l-80 -412q-16 -82 -57.5 -124.5t-121.5 -42.5q-68 0 -121 33l32 90q30 -9 52 -9q25 0 38 12t18 42l80 411h-53
l21 111h54l7 41q17 82 58 124.5t119 42.5q68 0 119 -28l-34 -93q-33 7 -46 7q-24 0 -37 -12.5t-19 -41.5l-8 -40h134l10 50q16 82 57.5 124.5t121.5 42.5q54 0 102 -22l-33 -97q-25 5 -33 5q-24 0 -36.5 -12t-18.5 -42l-10 -49h292z" />
    <glyph glyph-name="f_ij" unicode="f&#x133;" horiz-adv-x="849" 
d="M844 505l-94 -482q-40 -208 -267 -208q-84 0 -183 48l29 87q100 -17 158 -17q46 0 69 15t30 52l4 17q10 39 15 49h-1q-23 -29 -62.5 -50t-78.5 -21q-129 0 -129 140q0 24 4 54.5t7.5 49t15.5 75t17 80.5h-129l-80 -412q-16 -82 -57.5 -124.5t-121.5 -42.5q-68 0 -121 33
l32 90q30 -9 52 -9q25 0 38 12t18 42l80 411h-54l21 111h54l12 58q16 81 57 120t120 39q54 0 102 -22l-33 -98q-17 6 -34 6q-23 0 -35.5 -12t-17.5 -42l-10 -49h290q-13 -64 -27 -131.5t-21 -100t-12 -62t-5 -47.5q0 -42 32 -42q33 0 67 50t50 130l39 203h160zM496 549
q-47 0 -66.5 12t-19.5 40q0 20 7.5 47.5t18.5 38.5q24 24 83 24q47 0 66.5 -12t19.5 -40q0 -20 -8 -47.5t-19 -38.5q-24 -24 -82 -24zM774 549q-47 0 -66.5 12t-19.5 40q0 20 7.5 47.5t18.5 38.5q24 24 83 24q47 0 66.5 -12t19.5 -40q0 -20 -8 -47.5t-19 -38.5
q-24 -24 -82 -24z" />
    <glyph glyph-name="f_j" unicode="fj" horiz-adv-x="569" 
d="M9 -17l80 411h-54l21 111h54l12 58q17 81 57 120t120 39q54 0 102 -22l-33 -98q-17 6 -34 6q-23 0 -35.5 -12t-17.5 -42l-10 -49h293l-89 -456q-14 -74 -50.5 -129t-107.5 -105l-102 51q81 81 98 167l69 361h-133l-80 -412q-16 -82 -57.5 -124.5t-121.5 -42.5
q-68 0 -121 33l32 90q30 -9 52 -9q25 0 38 12t18 42zM497 549q-46 0 -66 12t-20 40q0 20 8 47.5t19 38.5q24 24 82 24q47 0 66.5 -12t19.5 -40q0 -20 -7.5 -47.5t-18.5 -38.5q-24 -24 -83 -24z" />
    <glyph glyph-name="f_jcircumflex" unicode="f&#x135;" horiz-adv-x="569" 
d="M563 505l-88 -456q-14 -74 -51 -128.5t-108 -105.5l-101 51q80 82 97 167l70 361h-133l-80 -412q-16 -82 -57.5 -124.5t-121.5 -42.5q-68 0 -121 33l32 90q30 -9 52 -9q25 0 38 12t18 42l80 411h-54l21 111h54l13 63q16 81 53.5 117.5t108.5 36.5q49 0 90 -18l-32 -100
q-13 4 -23 4q-29 0 -36 -42l-13 -61h292zM645 602l-61 -57l-77 72l-108 -72l-40 60l171 131z" />
    <glyph glyph-name="f_f_j" unicode="ffj" horiz-adv-x="862" 
d="M676 394h-134l-78 -403q-16 -82 -57.5 -124.5t-119.5 -42.5q-69 0 -118 28l33 93q33 -7 46 -7q25 0 37.5 12t18.5 42l78 402h-133l-80 -412q-16 -82 -57.5 -124.5t-121.5 -42.5q-68 0 -121 33l32 90q30 -9 52 -9q25 0 38 12t18 42l80 411h-53l21 111h54l7 41
q17 82 58 124.5t119 42.5q68 0 119 -28l-34 -93q-33 7 -46 7q-24 0 -37 -12.5t-19 -41.5l-8 -40h133l12 58q16 81 57 120t120 39q54 0 102 -22l-33 -98q-17 6 -34 6q-22 0 -34.5 -12t-18.5 -42l-10 -49h293l-89 -456q-14 -74 -50.5 -129t-107.5 -105l-102 51q81 81 98 167z
M789 549q-46 0 -66 12t-20 40q0 20 8 47.5t19 38.5q24 24 82 24q47 0 66.5 -12t19.5 -40q0 -20 -7.5 -47.5t-18.5 -38.5q-24 -24 -83 -24z" />
    <glyph glyph-name="f_k" unicode="fk" horiz-adv-x="813" 
d="M305 0l117 600q-32 8 -64 8q-34 0 -53.5 -14t-25.5 -49l-8 -40h66l-21 -111h-67l-80 -412q-16 -82 -57.5 -124.5t-121.5 -42.5q-68 0 -121 33l32 90q30 -9 52 -9q25 0 38 12t18 42l80 411h-54l21 111h55l8 39q18 91 68.5 134.5t152.5 43.5q60 0 109 -13h154l-79 -404h5
l129 200h188l-175 -223l85 -282h-179l-60 239h-6l-46 -239h-160z" />
    <glyph glyph-name="f_kcommaaccent" unicode="f&#x137;" horiz-adv-x="813" 
d="M305 0l117 600q-32 8 -64 8q-34 0 -53.5 -14t-25.5 -49l-8 -40h66l-21 -111h-67l-80 -412q-16 -82 -57.5 -124.5t-121.5 -42.5q-68 0 -121 33l32 90q30 -9 52 -9q25 0 38 12t18 42l80 411h-54l21 111h55l8 39q18 91 68.5 134.5t152.5 43.5q60 0 109 -13h154l-79 -404h5
l129 200h188l-175 -223l85 -282h-179l-60 239h-6l-46 -239h-160zM502 -31q27 0 42 -13t15 -34q0 -52 -47 -79.5t-132 -25.5l-9 50q66 8 66 34q0 3 -1 8t-1 9q0 20 18 35.5t49 15.5z" />
    <glyph glyph-name="f_f_k" unicode="ffk" horiz-adv-x="1106" 
d="M1139 505l-175 -223l85 -282h-179l-60 239h-6l-46 -239h-160l117 600q-32 8 -64 8q-34 0 -53 -14t-26 -49l-8 -40h66l-21 -111h-67l-78 -403q-16 -82 -57.5 -124.5t-119.5 -42.5q-69 0 -118 28l33 93q33 -7 46 -7q25 0 37.5 12t18.5 42l78 402h-133l-80 -412
q-16 -82 -57.5 -124.5t-121.5 -42.5q-68 0 -121 33l32 90q30 -9 52 -9q25 0 38 12t18 42l80 411h-53l21 111h54l7 41q17 82 58 124.5t119 42.5q68 0 119 -28l-34 -93q-33 7 -46 7q-24 0 -37 -12.5t-19 -41.5l-8 -40h134l8 39q18 91 68.5 134.5t152.5 43.5q60 0 110 -13h153
l-79 -404h5l129 200h188z" />
    <glyph glyph-name="f_lacute" unicode="f&#x13a;" horiz-adv-x="581" 
d="M9 -17l80 411h-54l21 111h54l8 40q18 91 68.5 134t153.5 43q60 0 109 -13h153l-106 -547q-6 -25 -6 -41q0 -14 5.5 -18t18.5 -4h20l-11 -93q-48 -16 -107 -16q-48 0 -71 19t-23 63q0 25 7 59l92 469q-32 8 -63 8q-34 0 -53.5 -14t-26.5 -49l-8 -40h67l-21 -111h-67
l-80 -412q-16 -82 -58 -124.5t-122 -42.5q-68 0 -121 33l33 90q29 -9 51 -9q25 0 38.5 12t18.5 42zM714 782l-217 -53l-40 70l201 78z" />
    <glyph glyph-name="f_lcaron" unicode="f&#x13e;" horiz-adv-x="655" 
d="M9 -17l80 411h-54l21 111h54l8 40q18 91 68.5 134t153.5 43q60 0 109 -13h153l-106 -547q-6 -25 -6 -41q0 -14 5.5 -18t18.5 -4h20l-11 -93q-48 -16 -107 -16q-48 0 -71 19t-23 63q0 25 7 59l92 469q-32 8 -63 8q-34 0 -53.5 -14t-26.5 -49l-8 -40h67l-21 -111h-67
l-80 -412q-16 -82 -58 -124.5t-122 -42.5q-68 0 -121 33l33 90q29 -9 51 -9q25 0 38.5 12t18.5 42zM772 741l-99 -191l-77 15l70 198z" />
    <glyph glyph-name="f_lcommaaccent" unicode="f&#x13c;" horiz-adv-x="581" 
d="M9 -17l80 411h-54l21 111h54l8 40q18 91 68.5 134t153.5 43q60 0 109 -13h153l-106 -547q-6 -25 -6 -41q0 -14 5.5 -18t18.5 -4h20l-11 -93q-48 -16 -107 -16q-48 0 -71 19t-23 63q0 25 7 59l92 469q-32 8 -63 8q-34 0 -53.5 -14t-26.5 -49l-8 -40h67l-21 -111h-67
l-80 -412q-16 -82 -58 -124.5t-122 -42.5q-68 0 -121 33l33 90q29 -9 51 -9q25 0 38.5 12t18.5 42zM416 -31q27 0 42 -13t15 -34q0 -52 -47 -79.5t-132 -25.5l-9 50q66 8 66 34q0 3 -1 8t-1 9q0 20 18 35.5t49 15.5z" />
    <glyph glyph-name="f_lslash" unicode="f&#x142;" horiz-adv-x="582" 
d="M9 -17l80 411h-54l21 111h55l8 39q18 91 68.5 134.5t152.5 43.5q49 0 101 -13h161l-46 -234l47 24v-108l-70 -35l-37 -194q-6 -30 -6 -41q0 -14 5.5 -18t18.5 -4h21l-12 -93q-46 -16 -107 -16q-46 0 -70 18.5t-24 63.5q0 15 7 59l27 137l-47 -23v108l70 34l42 213
q-32 8 -63 8q-34 0 -53 -13.5t-26 -49.5l-8 -40h61l-21 -111h-62l-80 -412q-16 -82 -57.5 -124.5t-121.5 -42.5q-68 0 -121 33l32 90q30 -9 52 -9q25 0 38 12t18 42z" />
    <glyph glyph-name="f_thorn" unicode="f&#xfe;" horiz-adv-x="846" 
d="M604 709l-40 -203q-2 -11 -18 -69q24 34 62 57t80 23q69 0 103 -48.5t34 -122.5q0 -32 -3.5 -63t-13 -67.5t-24.5 -68t-40 -61.5t-57 -51.5t-77.5 -34.5t-100.5 -13l-45 3l-32 -163h-160l151 773q-32 8 -65 8q-34 0 -53.5 -14t-25.5 -49l-8 -40h66l-21 -111h-67l-80 -412
q-16 -82 -57.5 -124.5t-121.5 -42.5q-68 0 -121 33l32 90q30 -9 52 -9q25 0 38 12t18 42l80 411h-54l21 111h55l8 39q18 91 68.5 134.5t152.5 43.5q60 0 109 -13h155zM662 326q0 67 -35 67q-33 0 -68 -47t-52 -136l-20 -102q20 -8 47 -8q34 0 61 26t40.5 64t20 73.5
t6.5 62.5z" />
    <glyph glyph-name="f_f_thorn" unicode="ff&#xfe;" horiz-adv-x="1139" 
d="M565 -173l151 773q-32 8 -65 8q-34 0 -53 -14t-26 -49l-8 -40h66l-21 -111h-67l-78 -403q-16 -82 -57.5 -124.5t-119.5 -42.5q-69 0 -118 28l33 93q33 -7 46 -7q25 0 37.5 12t18.5 42l78 402h-133l-80 -412q-16 -82 -57.5 -124.5t-121.5 -42.5q-68 0 -121 33l32 90
q30 -9 52 -9q25 0 38 12t18 42l80 411h-53l21 111h54l7 41q17 82 58 124.5t119 42.5q68 0 119 -28l-34 -93q-33 7 -46 7q-24 0 -37 -12.5t-19 -41.5l-8 -40h134l8 39q18 91 68.5 134.5t152.5 43.5q60 0 110 -13h154l-40 -203q-2 -11 -18 -69q24 34 62 57t80 23
q69 0 103 -48.5t34 -122.5q0 -32 -3.5 -63t-13 -67.5t-24.5 -68t-40 -61.5t-57 -51.5t-77.5 -34.5t-100.5 -13l-45 3l-32 -163h-160zM955 326q0 67 -35 67q-33 0 -68 -47.5t-52 -135.5l-20 -102q20 -8 47 -8q34 0 61 26t40.5 64t20 73.5t6.5 62.5z" />
    <glyph glyph-name=".notdef" horiz-adv-x="550" 
d="M300 150h-150v250h50v-200h100v-50zM500 50h-450v450h450v-450zM350 350h-100v50h150v-250h-50v100h-100v50h100v50zM100 100h350v350h-350v-350z" />
    <glyph glyph-name=".null" horiz-adv-x="0" 
 />
    <glyph glyph-name="nonmarkingreturn" horiz-adv-x="333" 
 />
    <glyph glyph-name="CR" unicode="&#xd;" horiz-adv-x="0" 
 />
    <glyph glyph-name="space" unicode=" " horiz-adv-x="240" 
 />
    <glyph glyph-name="exclam" unicode="!" horiz-adv-x="354" 
d="M370 675l-119 -480h-143l67 480h195zM147 -10q-48 0 -67.5 13.5t-19.5 45.5q0 57 24 81q23 23 83 23q49 0 68 -13t19 -45q0 -57 -24 -81t-83 -24z" />
    <glyph glyph-name="quotedbl" unicode="&#x22;" horiz-adv-x="486" 
d="M292 675l-67 -265h-122l36 265h153zM507 675l-67 -265h-122l37 265h152z" />
    <glyph glyph-name="numbersign" unicode="#" horiz-adv-x="519" 
d="M483 195h-90l-59 -195h-116l60 195h-94l-60 -195h-116l60 195h-57l19 95h67l37 121h-81l18 94h92l52 170h115l-52 -170h95l52 170h115l-52 -170h55l-18 -94h-66l-37 -121h80zM307 290l37 121h-94l-38 -121h95z" />
    <glyph glyph-name="dollar" unicode="$" 
d="M248 4l-32 -112h-91l12 112q-94 14 -146 61l54 83q62 -33 128 -33q52 0 80 21t28 55q0 19 -15 36t-38 29.5t-49.5 30.5t-49.5 37t-38 50.5t-15 69.5q0 70 44.5 127t141.5 74l29 104h91l-9 -102q82 -12 129 -59l-54 -79q-49 31 -112 31q-40 0 -66.5 -19.5t-26.5 -52.5
q0 -24 22 -43.5t53.5 -36.5t63.5 -37t54 -54.5t22 -78.5q0 -81 -56.5 -140.5t-153.5 -73.5z" />
    <glyph glyph-name="percent" unicode="%" horiz-adv-x="711" 
d="M217 364q-71 0 -101.5 26.5t-30.5 84.5q0 39 10.5 75t32 68t60 51t88.5 19q71 0 101.5 -26.5t30.5 -84.5q0 -39 -10.5 -75t-32 -68t-60 -51t-88.5 -19zM295 564q0 42 -33 42q-32 0 -48 -40t-16 -78q0 -42 33 -42q32 0 48 40t16 78zM727 653l-637 -677l-75 47l639 676z
M466 -13q-71 0 -101.5 26.5t-30.5 84.5q0 50 17.5 96t62.5 81.5t111 35.5q71 0 101.5 -26.5t30.5 -84.5q0 -39 -10.5 -75t-32 -68t-60 -51t-88.5 -19zM544 187q0 42 -33 42q-32 0 -48 -40t-16 -78q0 -42 33 -42q32 0 48 40t16 78z" />
    <glyph glyph-name="ampersand" unicode="&#x26;" horiz-adv-x="671" 
d="M613 102l-19 -98q-34 -16 -70 -16q-43 0 -108 53q-91 -52 -206 -52q-104 0 -152 45t-48 110q0 76 40.5 126.5t111.5 92.5q-39 74 -39 126q0 27 5.5 52t21.5 52t41 47t68 33t99 13q81 0 124 -32t43 -81q0 -42 -14 -76.5t-42.5 -61t-54.5 -44t-66 -39.5q32 -49 85 -113
l6 -8q45 75 58 158h150q-29 -151 -120 -257q34 -30 54 -30h32zM243 98q48 0 91 24q-3 3 -7.5 9t-8.5 11l-8 10q-52 64 -91 120q-55 -47 -55 -107q0 -30 20.5 -48.5t58.5 -18.5zM274 518q0 -32 23 -79q82 53 82 117q0 35 -40 35q-30 0 -47.5 -22.5t-17.5 -50.5z" />
    <glyph glyph-name="quotesingle" unicode="'" horiz-adv-x="320" 
d="M319 675l-67 -265h-116l37 265h146z" />
    <glyph glyph-name="parenleft" unicode="(" horiz-adv-x="310" 
d="M210 -145l-112 -30q-67 142 -67 306q0 144 56.5 298t179.5 299l105 -37q-97 -127 -149.5 -285.5t-52.5 -305.5q0 -138 40 -245z" />
    <glyph glyph-name="parenright" unicode=")" horiz-adv-x="310" 
d="M108 699l111 30q67 -142 67 -306q0 -318 -236 -597l-104 37q98 128 149.5 285.5t51.5 305.5q0 136 -39 245z" />
    <glyph glyph-name="asterisk" unicode="*" 
d="M515 464l-89 -123l-91 89l5 -135h-141l43 135l-116 -89l-53 123l135 46l-122 46l88 123l91 -89l-5 135h141l-43 -135l117 89l52 -123l-134 -46z" />
    <glyph glyph-name="plus" unicode="+" 
d="M463 245h-149l-33 -168h-134l33 168h-149l22 111h149l31 164h134l-31 -164h148z" />
    <glyph glyph-name="comma" unicode="," horiz-adv-x="301" 
d="M8 -173l-55 63q90 61 90 103q0 9 -11 25t-11 37q0 23 8.5 51.5t21.5 41.5q21 21 81 21q42 0 58 -14.5t16 -47.5q0 -76 -49 -150.5t-149 -129.5z" />
    <glyph glyph-name="hyphen" unicode="&#xad;" horiz-adv-x="239" 
d="M231 225h-216l23 117h216z" />
    <glyph glyph-name="hyphen" unicode="-" horiz-adv-x="239" 
d="M231 225h-216l23 117h216z" />
    <glyph glyph-name="period" unicode="." horiz-adv-x="290" 
d="M101 -13q-45 0 -63.5 12t-18.5 43q0 29 9.5 61t21.5 44q22 22 76 22q45 0 63 -12t18 -43q0 -28 -9 -60t-21 -45q-22 -22 -76 -22z" />
    <glyph glyph-name="slash" unicode="/" 
d="M583 709l-507 -813h-146l506 813h147z" />
    <glyph glyph-name="zero" unicode="0" 
d="M499 409q0 -80 -33 -192t-86 -165q-64 -65 -178 -65q-97 0 -143.5 41t-46.5 138q0 80 33 192t87 166q64 64 179 64q97 0 142.5 -42t45.5 -137zM220 107q30 0 49 18q25 26 48 131t23 155q0 58 -51 58q-28 0 -49 -20q-24 -25 -46.5 -129t-22.5 -155q0 -58 49 -58z" />
    <glyph glyph-name="one" unicode="1" 
d="M416 0h-412l26 135h125l56 284l-115 -36l-19 107l203 86h136l-86 -441h112z" />
    <glyph glyph-name="two" unicode="2" 
d="M418 0h-433l23 123q184 124 240.5 177.5t56.5 104.5q0 52 -72 52q-61 0 -145 -28l-1 107q119 52 214 52q93 0 139.5 -39.5t46.5 -108.5q0 -77 -55.5 -144t-200.5 -160h213z" />
    <glyph glyph-name="three" unicode="3" 
d="M146 -114q-106 0 -192 50l27 92q76 -16 138 -16q80 0 112.5 34.5t32.5 82.5q0 61 -90 61h-83l23 121h77q60 0 87.5 30t27.5 66q0 53 -73 53q-61 0 -144 -26l-2 105q113 49 207 49t140 -38t46 -106q0 -62 -32.5 -111.5t-96.5 -75.5q87 -20 87 -119q0 -33 -8 -65.5t-29 -67
t-53 -60.5t-84 -42.5t-118 -16.5z" />
    <glyph glyph-name="four" unicode="4" 
d="M442 39h-57l-28 -143h-159l28 143h-255l26 133q106 187 257 404h235l-78 -404h57zM252 172l53 269h-3q-89 -133 -168 -269h118z" />
    <glyph glyph-name="five" unicode="5" 
d="M147 -114q-94 0 -193 51l28 91q68 -16 142 -16q80 0 116 33.5t36 83.5q0 33 -25.5 47t-78.5 14q-73 0 -146 -18l102 404h353l-26 -137h-224l-32 -128q38 5 64 5q181 0 181 -155q0 -49 -15 -94.5t-47.5 -87.5t-93 -67.5t-141.5 -25.5z" />
    <glyph glyph-name="six" unicode="6" 
d="M208 -11q-87 0 -133.5 44.5t-46.5 153.5q0 59 11.5 131.5t45 159t82.5 134.5q74 75 187 75q95 0 172 -47l-31 -89q-78 16 -126 16q-62 0 -98.5 -39t-61.5 -141q73 38 129 38q70 0 104.5 -36t34.5 -101q0 -36 -9 -75t-29.5 -79.5t-50.5 -72t-77 -52t-103 -20.5zM318 255
q0 47 -50 47q-32 0 -74 -19q-13 -71 -13 -106q0 -72 49 -72q29 0 50 28t29.5 61t8.5 61z" />
    <glyph glyph-name="seven" unicode="7" 
d="M513 450l-170 -259q-104 -160 -234 -304l-107 42l311 510h-251l26 137h449z" />
    <glyph glyph-name="eight" unicode="8" 
d="M195 -13q-98 0 -145.5 39.5t-47.5 108.5q0 133 138 207q-63 48 -63 126q0 38 11.5 73.5t38.5 70t80 55.5t126 21q92 0 140.5 -37t48.5 -103q0 -126 -132 -199q78 -48 78 -125q0 -45 -13.5 -84.5t-43 -75t-85 -56.5t-131.5 -21zM367 531q0 48 -57 48q-39 0 -58.5 -27
t-19.5 -61q0 -44 52 -77q45 28 64 55t19 62zM309 186q0 29 -18 50t-54 41q-78 -53 -78 -122q0 -56 62 -56q39 0 63.5 26.5t24.5 60.5z" />
    <glyph glyph-name="nine" unicode="9" 
d="M303 588q181 0 181 -195q0 -111 -35.5 -237t-105.5 -195q-81 -78 -188 -78q-103 0 -185 48l26 87q82 -15 144 -15q63 0 100.5 42.5t62.5 145.5q-75 -39 -130 -39q-138 0 -138 137q0 35 8.5 73.5t29 79t50 73t76.5 53t104 20.5zM193 322q0 -47 52 -47q29 0 73 20
q13 71 13 105q0 72 -50 72q-29 0 -50 -28.5t-29.5 -61.5t-8.5 -60z" />
    <glyph glyph-name="colon" unicode=":" horiz-adv-x="306" 
d="M115 -6q-40 0 -57 12.5t-17 43.5q0 59 26 85q21 21 77 21q40 0 57.5 -12.5t17.5 -43.5q0 -23 -7.5 -48t-19.5 -37q-21 -21 -77 -21zM185 349q-40 0 -57.5 12.5t-17.5 43.5q0 58 27 85q20 21 77 21q40 0 57 -12.5t17 -43.5q0 -59 -26 -85q-22 -21 -77 -21z" />
    <glyph glyph-name="semicolon" unicode=";" horiz-adv-x="306" 
d="M25 -173l-53 59q86 59 86 99q0 9 -10.5 24.5t-10.5 34.5q0 22 8 48.5t20 40.5q20 20 78 20q40 0 55.5 -13.5t15.5 -45.5q0 -73 -47 -144t-142 -123zM182 349q-40 0 -57 12.5t-17 43.5q0 59 26 85q21 21 77 21q40 0 57.5 -12.5t17.5 -43.5q0 -23 -7.5 -48t-19.5 -37
q-21 -21 -77 -21z" />
    <glyph glyph-name="less" unicode="&#x3c;" 
d="M443 169l-67 -115l-345 193l21 107l420 193l22 -118l-298 -130z" />
    <glyph glyph-name="equal" unicode="=" 
d="M474 340h-417l21 109h417zM437 152h-416l21 109h417z" />
    <glyph glyph-name="greater" unicode="&#x3e;" 
d="M464 247l-420 -193l-22 118l298 130l-247 130l67 115l345 -193z" />
    <glyph glyph-name="question" unicode="?" 
d="M509 544q0 -49 -18 -87t-45 -62.5t-55.5 -45.5t-53 -49t-32.5 -61l-11 -44h-142l7 50q6 45 25 80.5t42 57t45 40t37 40t15 46.5q0 49 -63 49q-51 0 -113 -23l-28 97q103 54 208 54q88 0 135 -37.5t47 -104.5zM192 -10q-48 0 -67.5 13.5t-19.5 45.5q0 58 25 81
q22 23 83 23q48 0 67 -13t19 -45q0 -57 -24 -81t-83 -24z" />
    <glyph glyph-name="at" unicode="@" horiz-adv-x="1031" 
d="M1002 452q0 -74 -25.5 -143t-73 -125t-124 -90t-170.5 -34h-76l14 80q-36 -43 -79 -66t-79 -23q-58 0 -87 36t-29 101q0 136 82.5 230.5t238.5 94.5q105 0 183 -26l-97 -313q72 0 125.5 77t53.5 189q0 87 -54 131t-183 44q-90 0 -165.5 -26t-126.5 -70t-86.5 -103
t-52 -123t-16.5 -132q0 -123 61 -179t203 -56q115 0 255 52l20 -91q-151 -67 -307 -67q-179 0 -277.5 77.5t-98.5 241.5q0 91 25.5 176t78 158.5t125.5 128.5t174.5 86.5t219.5 31.5q348 0 348 -268zM437 212q0 -36 27 -36q25 0 55.5 36.5t49.5 95.5l28 86q-20 4 -36 4
q-57 0 -90.5 -58.5t-33.5 -127.5z" />
    <glyph glyph-name="A" unicode="A" horiz-adv-x="589" 
d="M534 0h-175q0 7 -1 56t-2 68h-189q-29 -74 -47 -124h-165q156 382 307 675h225q39 -303 47 -675zM215 248h142q-3 136 -15 283h-3q-43 -93 -124 -283z" />
    <glyph glyph-name="B" unicode="B" horiz-adv-x="581" 
d="M228 -2q-26 0 -101 1t-114 1l131 675h229q206 0 206 -136q0 -55 -29 -101t-86 -70q44 -11 68 -42.5t24 -76.5q0 -44 -17.5 -85.5t-53.5 -80t-102.5 -62t-154.5 -23.5zM376 230q0 65 -91 65h-49l-35 -178q36 -3 52 -3q65 0 94 36t29 80zM403 506q0 54 -65 54h-51l-29 -153
h39q53 0 79.5 31t26.5 68z" />
    <glyph glyph-name="C" unicode="C" horiz-adv-x="514" 
d="M415 180l58 -87q-86 -106 -222 -106q-217 0 -217 223q0 42 6.5 89.5t21 103t41 105t62 91t90 65.5t119.5 24q134 0 181 -111l-88 -75q-35 52 -83 52q-41 0 -75 -31.5t-54 -80t-31 -102t-11 -102.5q0 -65 21.5 -90.5t60.5 -25.5q62 0 120 58z" />
    <glyph glyph-name="D" unicode="D" horiz-adv-x="605" 
d="M603 449q0 -79 -30.5 -180.5t-100.5 -171.5q-101 -101 -258 -101q-41 0 -114 2t-87 2l131 675q41 0 107 1t97 1q130 0 192.5 -60.5t62.5 -167.5zM423 439q0 61 -24 87.5t-73 26.5q-26 0 -38 -1l-83 -427q24 -2 34 -2q53 0 95 40q46 46 67.5 130t21.5 146z" />
    <glyph glyph-name="E" unicode="E" horiz-adv-x="476" 
d="M385 0h-372l131 675h368l-25 -127h-200l-27 -142h167l-24 -121h-167l-30 -157h203z" />
    <glyph glyph-name="F" unicode="F" horiz-adv-x="456" 
d="M483 548h-196l-30 -154h175l-24 -124h-175l-52 -270h-168l131 675h364z" />
    <glyph glyph-name="G" unicode="G" horiz-adv-x="578" 
d="M558 401l-66 -334q-117 -80 -252 -80q-102 0 -154 57.5t-52 167.5q0 113 36.5 217t101.5 169q88 90 216 90q75 0 125.5 -30t72.5 -84l-80 -67q-55 49 -116 49q-51 0 -86 -37q-46 -46 -70.5 -132t-24.5 -167q0 -100 72 -100q30 0 60 15l29 145h-69l23 121h234z" />
    <glyph glyph-name="H" unicode="H" horiz-adv-x="658" 
d="M545 0h-168l54 281h-196l-54 -281h-168l131 675h168l-50 -254h196l50 254h168z" />
    <glyph glyph-name="I" unicode="I" horiz-adv-x="294" 
d="M181 0h-168l131 675h168z" />
    <glyph glyph-name="J" unicode="J" horiz-adv-x="297" 
d="M315 675l-115 -592q-18 -89 -64 -152.5t-128 -106.5l-72 70q43 42 63.5 86t33.5 111l114 584h168z" />
    <glyph glyph-name="K" unicode="K" horiz-adv-x="563" 
d="M505 0h-183l-80 300h-3l-58 -300h-168l131 675h168l-54 -278h2l183 278h180l-223 -310z" />
    <glyph glyph-name="L" unicode="L" horiz-adv-x="421" 
d="M356 0h-343l131 675h168l-106 -546h175z" />
    <glyph glyph-name="M" unicode="M" horiz-adv-x="853" 
d="M757 0h-175q42 236 72 471h-1l-215 -471h-144l-32 471h-1q-45 -169 -106 -471h-157q74 340 178 675h215l36 -415h1l194 415h216q-30 -344 -81 -675z" />
    <glyph glyph-name="N" unicode="N" horiz-adv-x="641" 
d="M528 0h-173l-93 333q-7 24 -14 56.5t-10 52.5l-4 21h-2q-14 -116 -24 -165l-58 -298h-137l131 675h192l81 -290q7 -22 14 -55t11 -54l4 -22h1q15 118 25 167l50 254h137z" />
    <glyph glyph-name="O" unicode="O" horiz-adv-x="643" 
d="M276 -13q-122 0 -182 54t-60 170q0 85 21.5 166.5t63 152.5t114 114.5t164.5 43.5q122 0 182 -54t60 -170q0 -69 -12.5 -135t-41 -128.5t-69.5 -109.5t-103 -75.5t-137 -28.5zM462 457q0 59 -20 81.5t-65 22.5q-47 0 -82 -42t-52 -103t-24.5 -112t-7.5 -85
q0 -59 20 -81.5t65 -22.5q47 0 82 42t52 103t24.5 111.5t7.5 85.5z" />
    <glyph glyph-name="P" unicode="P" horiz-adv-x="557" 
d="M584 508q0 -41 -7.5 -78.5t-30 -78.5t-57.5 -70t-96 -48t-140 -19h-31l-41 -214h-168l131 675q38 0 111.5 1t104.5 1q114 0 169 -44.5t55 -124.5zM406 483q0 72 -85 72h-32l-43 -219h30q69 0 99.5 44.5t30.5 102.5z" />
    <glyph glyph-name="Q" unicode="Q" horiz-adv-x="643" 
d="M631 -112l-65 -64q-24 16 -57 20.5t-63 2t-62.5 0t-57.5 12.5t-45.5 42.5t-29.5 86.5q-105 5 -161 57.5t-56 165.5q0 85 21.5 166.5t63 152.5t114 114.5t164.5 43.5q122 0 182 -54t60 -170q0 -113 -31.5 -210.5t-96.5 -167t-154 -89.5q18 -27 44.5 -36t54.5 -7.5t57 2
t60.5 -15.5t57.5 -52zM462 457q0 59 -20 81.5t-65 22.5q-47 0 -82 -42t-52 -103t-24.5 -112t-7.5 -85q0 -59 20 -81.5t65 -22.5q47 0 82 42t52 103t24.5 111.5t7.5 85.5z" />
    <glyph glyph-name="R" unicode="R" horiz-adv-x="586" 
d="M521 0h-188l-64 260h-37l-51 -260h-168l131 675q118 3 216 3q124 0 178.5 -41.5t54.5 -123.5q0 -70 -41 -134t-120 -88zM415 497q0 60 -81 60h-45l-34 -175h45q60 0 87.5 35.5t27.5 79.5z" />
    <glyph glyph-name="S" unicode="S" horiz-adv-x="492" 
d="M187 -12q-124 0 -205 71l49 85q78 -34 136 -34q51 0 78.5 22t27.5 61q0 26 -20.5 48t-49.5 40.5t-58.5 40t-50 57t-20.5 81.5q0 98 69 162t188 64q107 0 182 -60l-49 -85q-57 25 -114 25q-48 0 -72.5 -21t-24.5 -55q0 -22 15.5 -41.5t39 -33.5t51 -32.5t51 -38t39 -51.5
t15.5 -71q0 -102 -73.5 -168t-203.5 -66z" />
    <glyph glyph-name="T" unicode="T" horiz-adv-x="467" 
d="M509 547h-137l-106 -547h-168l106 547h-135l25 128h440z" />
    <glyph glyph-name="U" unicode="U" horiz-adv-x="652" 
d="M671 675l-86 -443q-26 -132 -106 -188.5t-207 -56.5q-223 0 -223 175q0 34 10 82l84 431h168l-83 -426q-8 -41 -8 -66q0 -40 18.5 -57t58.5 -17q50 0 79.5 27t42.5 95l87 444h165z" />
    <glyph glyph-name="V" unicode="V" horiz-adv-x="561" 
d="M469 675h168q-134 -375 -301 -675h-207q-49 327 -42 675h178q-14 -256 6 -508h3q101 215 195 508z" />
    <glyph glyph-name="W" unicode="W" horiz-adv-x="868" 
d="M780 675h159q-124 -341 -278 -675h-182l-13 315l2 113h-2l-43 -112l-128 -316h-186q-26 301 -18 675h176q-5 -76 -8 -234t-6 -230h2l37 104l150 360h167l11 -364l-1 -100h3q117 335 158 464z" />
    <glyph glyph-name="X" unicode="X" horiz-adv-x="553" 
d="M498 0h-177q-24 124 -57 224h-2q-58 -80 -139 -224h-169q128 221 233 360q-52 147 -86 315h173q22 -124 45 -199h2q54 72 125 199h166q-104 -183 -212 -318q65 -170 98 -357z" />
    <glyph glyph-name="Y" unicode="Y" horiz-adv-x="494" 
d="M413 675h169q-124 -247 -248 -400l-54 -275h-168l54 275q-67 178 -92 400h176q11 -139 36 -245h3q53 81 124 245z" />
    <glyph glyph-name="Z" unicode="Z" horiz-adv-x="493" 
d="M415 0h-439l22 114l308 430h-215l29 131h418l-22 -113l-308 -430h235z" />
    <glyph glyph-name="bracketleft" unicode="[" horiz-adv-x="365" 
d="M224 -173h-222l177 912h222l-18 -94h-88l-141 -724h88z" />
    <glyph glyph-name="backslash" unicode="\" 
d="M429 -104h-130l-208 813h131z" />
    <glyph glyph-name="bracketright" unicode="]" horiz-adv-x="365" 
d="M195 -173h-222l18 94h88l141 724h-88l18 94h222z" />
    <glyph glyph-name="asciicircum" unicode="^" 
d="M512 401l-129 -42l-68 220l-154 -220l-116 43l231 307h124z" />
    <glyph glyph-name="underscore" unicode="_" 
d="M414 -181h-499l22 115h499z" />
    <glyph glyph-name="grave" unicode="`" horiz-adv-x="312" 
d="M342 590l-84 -39l-144 125l117 53z" />
    <glyph glyph-name="a" unicode="a" horiz-adv-x="543" 
d="M19 159q0 46 7 90t28.5 94.5t55 87.5t91.5 61.5t133 24.5q46 0 96.5 -6t77.5 -11l27 -6l-95 -494h-132l6 83q-29 -46 -71.5 -71t-85.5 -25q-70 0 -104 48.5t-34 123.5zM182 178q0 -67 35 -67q33 0 67.5 47t51.5 136l20 103q-20 8 -47 8q-34 0 -60.5 -26t-40 -64.5
t-20 -74t-6.5 -62.5z" />
    <glyph glyph-name="b" unicode="b" horiz-adv-x="543" 
d="M206 -13q-46 0 -96.5 6t-77.5 12l-27 6l135 698h160l-38 -203q-1 -3 -19 -69q25 34 63 57t79 23q69 0 103 -48.5t34 -122.5q0 -32 -3.5 -63t-13 -67.5t-24.5 -68t-40 -61.5t-57 -51.5t-77.5 -34.5t-100.5 -13zM359 326q0 67 -35 67q-33 0 -68 -47.5t-52 -135.5l-20 -102
q21 -8 47 -8q34 0 61 26t40.5 64t20 73.5t6.5 62.5z" />
    <glyph glyph-name="c" unicode="c" horiz-adv-x="421" 
d="M340 144l36 -83q-85 -72 -184 -72q-85 0 -129 45t-44 133q0 53 14.5 109.5t44 112.5t85 92t128.5 36q103 0 147 -63l-65 -83q-30 28 -71 28q-32 0 -56.5 -26t-36.5 -64.5t-18 -72.5t-6 -60q0 -68 58 -68q52 0 97 36z" />
    <glyph glyph-name="d" unicode="d" horiz-adv-x="543" 
d="M440 0h-132l6 74q-31 -40 -73 -63.5t-84 -23.5q-70 0 -104 48.5t-34 123.5q0 46 7 90t28.5 94t55 87.5t92 62t133.5 24.5l44 -3l38 195h160zM182 178q0 -67 35 -67q33 0 67.5 47t51.5 136l20 103q-20 8 -47 8q-34 0 -60.5 -26t-40 -64.5t-20 -74t-6.5 -62.5z" />
    <glyph glyph-name="e" unicode="e" horiz-adv-x="505" 
d="M420 136l8 -92q-104 -57 -215 -57q-194 0 -194 181q0 24 4 53t13.5 71.5t31 80t52 71t80.5 53.5t113 20q82 0 132 -35t50 -99q0 -167 -312 -167q-4 -26 -4 -39q0 -69 76 -69q75 0 165 28zM345 374q0 38 -49 38q-67 0 -93 -100q83 0 112.5 15.5t29.5 46.5z" />
    <glyph glyph-name="f" unicode="f" horiz-adv-x="310" 
d="M348 505l-21 -111h-78l-80 -412q-16 -82 -58 -124.5t-122 -42.5q-68 0 -121 33l33 90q29 -9 51 -9q25 0 38.5 12t18.5 42l80 411h-54l21 111h54l10 50q16 82 58 124.5t122 42.5q67 0 122 -33l-33 -90q-32 9 -52 9q-25 0 -38 -12t-19 -42l-10 -49h78z" />
    <glyph glyph-name="g" unicode="g" horiz-adv-x="543" 
d="M536 494l-96 -494q-36 -185 -256 -185q-89 0 -189 48l23 87q105 -17 163 -17q48 0 69.5 15t28.5 51l7 31q3 19 16 58q-23 -34 -63 -59t-78 -25q-71 0 -106 46.5t-35 122.5q0 41 7 83t28.5 90.5t55 85t91.5 61t133 24.5q46 0 96.5 -6t77.5 -11zM184 187q0 -59 36 -59
q32 0 67.5 46t50.5 124l19 99q-21 8 -47 8q-32 0 -58 -23t-40 -58.5t-21 -71t-7 -65.5z" />
    <glyph glyph-name="h" unicode="h" horiz-adv-x="550" 
d="M447 0h-161q15 77 34 164t26 123.5t7 59.5q0 42 -32 42q-33 0 -67 -49.5t-50 -129.5l-41 -210h-160l138 709h160l-39 -203q-9 -43 -19 -69q25 34 63.5 57t79.5 23q129 0 129 -140q0 -39 -8 -83.5t-27 -132.5t-33 -161z" />
    <glyph glyph-name="i" unicode="i" horiz-adv-x="267" 
d="M163 0h-160l98 505h160zM194 549q-47 0 -66.5 12t-19.5 40q0 20 7.5 47.5t18.5 38.5q24 24 83 24q46 0 66 -12t20 -40q0 -20 -8 -47.5t-19 -38.5q-24 -24 -82 -24z" />
    <glyph glyph-name="j" unicode="j" horiz-adv-x="267" 
d="M261 505l-89 -456q-14 -74 -50.5 -129t-107.5 -105l-101 51q79 80 96 168l92 471h160zM194 549q-47 0 -66.5 12t-19.5 40q0 20 7.5 47.5t18.5 38.5q24 24 83 24q46 0 66 -12t20 -40q0 -20 -8 -47.5t-19 -38.5q-24 -24 -82 -24z" />
    <glyph glyph-name="k" unicode="k" horiz-adv-x="511" 
d="M455 0h-180l-60 239h-6l-46 -239h-160l138 709h160l-79 -404h5l132 200h183l-174 -226z" />
    <glyph glyph-name="l" unicode="l" horiz-adv-x="281" 
d="M233 99l-11 -93q-48 -16 -107 -16q-48 0 -71 19t-23 63q0 25 7 59l112 578h160l-105 -547q-6 -31 -6 -41q0 -14 5.5 -18t18.5 -4h20z" />
    <glyph glyph-name="m" unicode="m" horiz-adv-x="826" 
d="M723 0h-160q15 78 33.5 164t25.5 123t7 60q0 42 -29 42q-32 0 -65.5 -46t-50.5 -133l-41 -210h-160l46 227q18 91 18 120q0 42 -29 42q-32 0 -64.5 -46t-49.5 -133l-41 -210h-160l98 505h132l-6 -74q67 86 156 86q102 0 121 -90q68 90 160 90q128 0 128 -140
q0 -38 -8 -83.5t-27.5 -132t-33.5 -161.5z" />
    <glyph glyph-name="n" unicode="n" horiz-adv-x="550" 
d="M321 389q-33 0 -67 -49.5t-50 -129.5l-41 -210h-160l98 505h132l-6 -74q67 86 159 86q129 0 129 -140q0 -39 -8 -83.5t-27 -132.5t-33 -161h-161q15 77 34 164t26 123.5t7 59.5q0 42 -32 42z" />
    <glyph glyph-name="o" unicode="o" horiz-adv-x="549" 
d="M224 -13q-204 0 -204 179q0 42 6.5 83.5t26.5 91.5t51.5 87.5t88 63t130.5 25.5q204 0 204 -178q0 -42 -6.5 -83.5t-26.5 -92t-51.5 -88t-88 -63t-130.5 -25.5zM365 332q0 38 -14.5 53.5t-47.5 15.5q-34 0 -59.5 -27.5t-38 -68t-18 -74.5t-5.5 -58q0 -38 14.5 -53.5
t46.5 -15.5q34 0 60 27.5t38.5 68t18 74.5t5.5 58z" />
    <glyph glyph-name="p" unicode="p" horiz-adv-x="543" 
d="M522 346q0 -32 -3.5 -63t-13 -67.5t-24.5 -68t-40 -61.5t-57 -51.5t-77.5 -34.5t-100.5 -13l-44 3l-33 -163h-160l132 678h132l-6 -74q31 40 73 63t84 23q70 0 104 -48.5t34 -122.5zM359 326q0 67 -35 67q-33 0 -68 -47.5t-52 -135.5l-20 -102q21 -8 47 -8q34 0 61 26
t40.5 64t20 73.5t6.5 62.5z" />
    <glyph glyph-name="q" unicode="q" horiz-adv-x="543" 
d="M335 517q46 0 96.5 -6t77.5 -11l27 -6l-130 -667h-160l33 171l19 70q-25 -35 -63 -58t-80 -23q-69 0 -102.5 48.5t-33.5 123.5q0 46 7 90t28.5 94t55 87.5t92 62t133.5 24.5zM182 178q0 -67 35 -67q33 0 68 47.5t52 135.5l20 103q-21 8 -47 8q-34 0 -61 -26t-40.5 -64.5
t-20 -74t-6.5 -62.5z" />
    <glyph glyph-name="r" unicode="r" horiz-adv-x="375" 
d="M412 504l-41 -138q-22 8 -49 8q-38 0 -70 -40t-48 -124l-41 -210h-160l98 505h129l-6 -88q25 46 61 72.5t77 26.5q29 0 50 -12z" />
    <glyph glyph-name="s" unicode="s" horiz-adv-x="425" 
d="M147 -12q-94 0 -169 46l24 80q79 -15 125 -15q87 0 87 54q0 18 -18 30.5t-43.5 22.5t-51 23.5t-43.5 40t-18 65.5q0 73 53 127.5t165 54.5q85 0 154 -43l-27 -79q-61 14 -103 14q-33 0 -52 -13t-19 -36q0 -16 18 -28t44.5 -22.5t52.5 -24.5t44 -41.5t18 -65.5
q0 -85 -65 -137.5t-176 -52.5z" />
    <glyph glyph-name="t" unicode="t" horiz-adv-x="350" 
d="M290 115l1 -91q-75 -36 -137 -36q-121 0 -121 95q0 22 6 54l50 257h-54l22 111h60q35 69 65 148h117l-28 -148h96l-21 -111h-97l-45 -228q-4 -19 -4 -33q0 -26 32 -26q26 0 58 8z" />
    <glyph glyph-name="u" unicode="u" horiz-adv-x="550" 
d="M544 505l-97 -505h-132l6 74q-66 -87 -159 -87q-129 0 -129 141q0 38 7.5 82t27 134t32.5 161h161q-13 -64 -27.5 -133t-21.5 -102t-12 -64t-5 -49q0 -43 32 -43t66.5 50.5t50.5 129.5l40 211h160z" />
    <glyph glyph-name="v" unicode="v" horiz-adv-x="496" 
d="M366 505h169q-79 -251 -230 -505h-219l-32 505h168l13 -254l-4 -110h2q83 160 133 364z" />
    <glyph glyph-name="w" unicode="w" horiz-adv-x="779" 
d="M658 505h156q-62 -217 -214 -505h-192l-6 249l3 84h-2l-28 -84l-96 -249h-198l-24 505h169v-253l-5 -98h3l31 96l94 255h189l5 -261l-3 -90h3q86 216 115 351z" />
    <glyph glyph-name="x" unicode="x" horiz-adv-x="490" 
d="M436 0h-177l-36 174h-3q-67 -119 -93 -174h-172l180 267l-67 238h172l26 -154h3q36 55 81 154h164l-159 -231z" />
    <glyph glyph-name="y" unicode="y" horiz-adv-x="494" 
d="M364 505h169q-55 -180 -122 -316t-135 -214.5t-133 -116.5t-127 -38q-46 0 -87 25l17 92q22 -5 58 -5q46 0 72 24q21 23 21 56q0 36 -8 122l-35 371h166l14 -238q4 -78 -7 -142h3q39 73 77 182t57 198z" />
    <glyph glyph-name="z" unicode="z" horiz-adv-x="400" 
d="M351 120l-26 -120h-354l19 101l209 286h-146l28 118h330l-19 -100l-210 -285h169z" />
    <glyph glyph-name="braceleft" unicode="{" horiz-adv-x="388" 
d="M241 -173h-64q-147 0 -119 145l39 202q6 30 -1 43.5t-33 13.5h-32l23 114h31q26 0 38.5 14t17.5 42l38 194q28 144 178 144h62l-19 -93h-34q-24 0 -36 -13t-17 -41l-34 -177q-19 -97 -98 -127q66 -30 47 -128l-36 -186q-6 -31 0.5 -42.5t33.5 -11.5h33z" />
    <glyph glyph-name="bar" unicode="|" horiz-adv-x="255" 
d="M112 -173h-138l180 926h138z" />
    <glyph glyph-name="braceright" unicode="}" horiz-adv-x="388" 
d="M157 739h63q148 0 120 -145l-38 -192q-5 -30 2.5 -43.5t32.5 -13.5h31l-22 -114h-32q-26 0 -38 -14t-18 -42l-40 -204q-27 -144 -177 -144h-62l19 93h33q25 0 37 13t17 41l36 186q18 98 98 128q-67 30 -48 128l34 176q7 28 0 41t-32 13h-35z" />
    <glyph glyph-name="asciitilde" unicode="~" 
d="M549 615l-6 -29q-15 -80 -63 -127t-122 -47q-32 0 -55 11t-34.5 27t-19 31.5t-14 26.5t-15.5 11q-32 0 -48 -82h-121l5 28q16 81 63.5 127.5t120.5 46.5q40 0 65.5 -16.5t34.5 -36.5t18.5 -36.5t20.5 -16.5q17 0 27.5 17.5t19.5 64.5h123z" />
    <glyph glyph-name="uni00A0" unicode="&#xa0;" horiz-adv-x="240" 
 />
    <glyph glyph-name="exclamdown" unicode="&#xa1;" horiz-adv-x="354" 
d="M-6 -104l119 480h143l-67 -480h-195zM219 581q48 0 67 -13.5t19 -45.5q0 -57 -24 -81q-23 -23 -83 -23q-49 0 -68 13t-19 45q0 58 25 81q23 24 83 24z" />
    <glyph glyph-name="cent" unicode="&#xa2;" 
d="M403 251l36 -84q-60 -43 -127 -57l-35 -116h-95l11 110q-67 9 -104 51.5t-37 115.5q0 49 14 97.5t41 91.5t73 74t104 40l31 106h95l-10 -109q55 -13 91 -52l-63 -82q-36 29 -81 29q-60 0 -94.5 -53t-34.5 -122q0 -78 71 -78q58 0 114 38z" />
    <glyph glyph-name="sterling" unicode="&#xa3;" 
d="M419 0h-433l21 103q51 45 75 87.5t31 97.5h-80l20 104h63q-2 20 -2 38q0 36 4.5 67t20.5 67t41.5 61t71 42t106.5 17q106 0 173 -43l-29 -84q-61 10 -110 10q-62 0 -86.5 -30t-24.5 -104q0 -28 1 -41h145l-21 -104h-131q-13 -107 -75 -162h243z" />
    <glyph glyph-name="currency" unicode="&#xa4;" 
d="M444 60l-109 -56l-42 79q-41 -13 -84 -13q-34 0 -62 10l-70 -76l-95 62l76 70q-14 30 -14 66q0 51 19 103t50 84l-53 76l108 56l43 -79q35 13 80 13q35 0 65 -11l71 77l94 -62l-79 -72q16 -29 16 -67q0 -109 -68 -182zM321 312q0 31 -12 43.5t-39 12.5t-46.5 -17.5
t-28.5 -44.5t-12.5 -50.5t-3.5 -43.5q0 -30 12 -43t40 -13q26 0 45 16.5t28 43t13 50.5t4 46z" />
    <glyph glyph-name="yen" unicode="&#xa5;" 
d="M466 336l-20 -101h-122l-13 -63h122l-18 -101h-123l-13 -71h-158l14 71h-122l19 101h122l13 63h-122l19 101h122l3 11q-65 148 -100 328h169q13 -127 40 -204q51 68 115 204h163q-118 -199 -230 -328l-2 -11h122z" />
    <glyph glyph-name="brokenbar" unicode="&#xa6;" horiz-adv-x="255" 
d="M112 -173h-137l73 376h137zM216 361h-137l76 395h137z" />
    <glyph glyph-name="section" unicode="&#xa7;" horiz-adv-x="508" 
d="M471 205q0 -89 -55.5 -179.5t-135.5 -146.5t-151 -56q-72 0 -129 43l41 87q49 -16 93 -16q36 0 54.5 17.5t18.5 48.5q0 20 -17.5 42.5t-42.5 46t-49.5 51.5t-42 69.5t-17.5 90.5q0 67 33.5 137.5t83.5 123.5t110 87t111 34q70 0 120 -40l-40 -88q-43 15 -87 15
q-33 0 -51 -19t-18 -47q0 -20 17.5 -42.5t43 -46t50.5 -51.5t42.5 -70t17.5 -91zM339 171q0 29 -15 57t-36 50t-42 43t-36 44.5t-15 46.5q0 10 7 23q-34 -44 -34 -96q0 -30 15 -58t36 -50.5t42.5 -44t36.5 -46t15 -48.5q0 -9 -8 -23q34 51 34 102z" />
    <glyph glyph-name="dieresis" unicode="&#xa8;" horiz-adv-x="420" 
d="M460 654q0 -18 -7 -41t-18 -33q-18 -18 -60 -18q-67 0 -67 48q0 18 7 41t18 33q18 18 61 18q66 0 66 -48zM257 654q0 -18 -7 -40.5t-18 -33.5q-18 -18 -61 -18q-67 0 -67 48q0 18 7.5 40.5t18.5 33.5q18 18 60 18q67 0 67 -48z" />
    <glyph glyph-name="copyright" unicode="&#xa9;" horiz-adv-x="777" 
d="M489 257l27 -68q-69 -53 -151 -53q-145 0 -145 151q0 103 59 178.5t162 75.5q81 0 126 -50l-56 -64q-24 21 -57 21q-42 0 -66 -51.5t-24 -105.5q0 -60 47 -60q36 0 78 26zM357 -17q-145 0 -230.5 87t-85.5 215q0 103 53 196t147.5 151.5t206.5 58.5q145 0 231 -87
t86 -215q0 -103 -53 -196t-148 -151.5t-207 -58.5zM651 375q0 92 -58 157t-154 65q-117 0 -201 -90t-84 -208q0 -92 58 -157t154 -65q117 0 201 90t84 208z" />
    <glyph glyph-name="ordfeminine" unicode="&#xaa;" horiz-adv-x="468" 
d="M386 198h-330l17 85h329zM412 339h-105l8 60q-54 -70 -122 -70q-54 0 -81.5 33t-27.5 94q0 48 13.5 92.5t40.5 83.5t76 62t113 23q68 0 155 -17zM328 567l12 62q-18 5 -34 5q-26 0 -45.5 -19t-29.5 -47t-14.5 -53t-4.5 -45q0 -49 25 -49q23 0 50.5 37.5t40.5 108.5z" />
    <glyph glyph-name="guillemotleft" unicode="&#xab;" horiz-adv-x="511" 
d="M240 110l-109 -30l-100 213l175 209l103 -39l-128 -174zM440 122l-105 -29l-92 200l162 196l99 -37l-112 -163z" />
    <glyph glyph-name="logicalnot" unicode="&#xac;" 
d="M427 111h-128l26 133h-294l22 113h422z" />
    <glyph glyph-name="registered" unicode="&#xae;" horiz-adv-x="567" 
d="M574 513q0 -102 -76.5 -184t-193.5 -82q-100 0 -162.5 60t-62.5 150q0 102 76.5 184t193.5 82q100 0 162.5 -60.5t62.5 -149.5zM487 504q0 62 -40 105t-102 43q-72 0 -125.5 -54t-53.5 -132q0 -63 40 -105.5t102 -42.5q72 0 125.5 53.5t53.5 132.5zM436 544
q0 -50 -51 -77l24 -90h-76l-14 82h-16l-16 -82h-71l44 224q20 0 51 1t42 1q38 0 60.5 -15t22.5 -44zM364 540q0 16 -24 16h-18l-10 -52h18q15 0 24.5 9.5t9.5 26.5z" />
    <glyph glyph-name="macron" unicode="&#x2c9;" horiz-adv-x="360" 
d="M387 578h-291l21 109h291z" />
    <glyph glyph-name="macron" unicode="&#xaf;" horiz-adv-x="360" 
d="M387 578h-291l21 109h291z" />
    <glyph glyph-name="degree" unicode="&#xb0;" horiz-adv-x="451" 
d="M460 591q0 -80 -48.5 -134t-150.5 -54q-152 0 -152 117q0 80 48.5 133.5t150.5 53.5q152 0 152 -116zM342 577q0 41 -47 41q-68 0 -68 -84q0 -41 48 -41q67 0 67 84z" />
    <glyph glyph-name="plusminus" unicode="&#xb1;" 
d="M412 0h-424l20 106h424zM472 310h-148l-31 -156h-129l31 156h-147l20 106h148l29 152h129l-29 -152h147z" />
    <glyph glyph-name="twosuperior" unicode="&#xb2;" horiz-adv-x="370" 
d="M360 347h-310l19 94q119 81 156 113.5t37 58.5t-42 26q-34 0 -99 -19l-7 79q89 33 159 33q65 0 99.5 -26.5t34.5 -69.5q0 -50 -47.5 -95t-141.5 -94v-3h161z" />
    <glyph glyph-name="threesuperior" unicode="&#xb3;" horiz-adv-x="365" 
d="M380 476q0 -21 -7.5 -42t-27 -45t-61.5 -38.5t-103 -14.5q-78 0 -140 28l21 66q57 -10 98 -10q79 0 79 46q0 16 -14.5 23.5t-54.5 7.5h-48l16 84h58q66 0 66 40q0 26 -44 26q-40 0 -94 -16l-8 74q81 27 144 27q143 0 143 -89q0 -38 -24 -62.5t-61 -35.5q62 -15 62 -69z
" />
    <glyph glyph-name="acute" unicode="&#xb4;" horiz-adv-x="312" 
d="M357 669l-182 -118l-76 44l155 134z" />
    <glyph glyph-name="mu" unicode="&#x3bc;" horiz-adv-x="564" 
d="M409 -12q-52 0 -70.5 21t-17.5 59q-63 -74 -125 -74q-36 0 -48 23q-10 -120 -19 -190h-160l132 678h160l-54 -274q-10 -55 -10 -74q0 -42 33 -42t67 50t49 130l40 210h160l-58 -303q-8 -42 -9 -63t4 -27t18 -6t30 5l-7 -94q-50 -29 -115 -29z" />
    <glyph glyph-name="mu" unicode="&#xb5;" horiz-adv-x="564" 
d="M409 -12q-52 0 -70.5 21t-17.5 59q-63 -74 -125 -74q-36 0 -48 23q-10 -120 -19 -190h-160l132 678h160l-54 -274q-10 -55 -10 -74q0 -42 33 -42t67 50t49 130l40 210h160l-58 -303q-8 -42 -9 -63t4 -27t18 -6t30 5l-7 -94q-50 -29 -115 -29z" />
    <glyph glyph-name="paragraph" unicode="&#xb6;" horiz-adv-x="659" 
d="M511 -104h-121l132 683h-92l-132 -683h-121l72 372q-7 -1 -19 -1q-70 0 -113 44.5t-43 112.5q0 108 66 179.5t193 71.5h329z" />
    <glyph glyph-name="periodcentered" unicode="&#x2219;" horiz-adv-x="282" 
d="M137 212q-44 0 -62 12t-18 42q0 27 9 58t20 43q22 22 76 22q44 0 62.5 -12t18.5 -42q0 -28 -9 -58.5t-22 -43.5q-21 -21 -75 -21z" />
    <glyph glyph-name="periodcentered" unicode="&#xb7;" horiz-adv-x="282" 
d="M137 212q-44 0 -62 12t-18 42q0 27 9 58t20 43q22 22 76 22q44 0 62.5 -12t18.5 -42q0 -28 -9 -58.5t-22 -43.5q-21 -21 -75 -21z" />
    <glyph glyph-name="cedilla" unicode="&#xb8;" horiz-adv-x="254" 
d="M22 -42h135q3 -88 -107 -144l-90 33q40 31 52.5 55.5t9.5 55.5z" />
    <glyph glyph-name="onesuperior" unicode="&#xb9;" horiz-adv-x="349" 
d="M340 347h-283l18 92h78l34 176l-70 -19l-3 76l126 51h104l-55 -284h69z" />
    <glyph glyph-name="ordmasculine" unicode="&#xba;" horiz-adv-x="435" 
d="M233 332q-71 0 -112.5 35.5t-41.5 105.5q0 36 10.5 74.5t33.5 78t68.5 65t107.5 25.5q70 0 112.5 -37t42.5 -107q0 -28 -6 -58.5t-22 -63.5t-40 -58.5t-63.5 -42.5t-89.5 -17zM368 198h-323l17 85h323zM327 575q0 51 -40 51q-30 0 -49.5 -31.5t-25 -63t-5.5 -58.5
q0 -29 10 -40t33 -11q38 0 57.5 53t19.5 100z" />
    <glyph glyph-name="guillemotright" unicode="&#xbb;" horiz-adv-x="511" 
d="M284 472l108 30l101 -213l-176 -209l-102 38l128 175zM83 460l105 29l93 -200l-162 -196l-100 37l113 163z" />
    <glyph glyph-name="onequarter" unicode="&#xbc;" horiz-adv-x="748" 
d="M340 347h-283l18 92h78l34 176l-70 -19l-3 76l126 51h104l-55 -284h69zM808 686l-724 -774l-73 46l723 775zM681 -3h-37l-14 -65h-129l13 65h-171l17 91q59 95 157 218h186l-41 -217h37zM532 89l29 142h-3q-50 -58 -101 -142h75z" />
    <glyph glyph-name="onehalf" unicode="&#xbd;" horiz-adv-x="798" 
d="M340 347h-283l18 92h78l34 176l-70 -19l-3 76l126 51h104l-55 -284h69zM808 686l-724 -774l-73 46l723 775zM707 -68h-310l19 94q119 81 156 113.5t37 58.5t-42 26q-34 0 -99 -19l-7 79q89 33 159 33q65 0 99.5 -26.5t34.5 -69.5q0 -50 -47.5 -95t-141.5 -94v-3h161z" />
    <glyph glyph-name="threequarters" unicode="&#xbe;" horiz-adv-x="740" 
d="M380 476q0 -21 -7.5 -42t-27 -45t-61.5 -38.5t-103 -14.5q-78 0 -140 28l21 66q57 -10 98 -10q79 0 79 46q0 16 -14.5 23.5t-54.5 7.5h-48l16 84h58q66 0 66 40q0 26 -44 26q-40 0 -94 -16l-8 74q81 27 144 27q143 0 143 -89q0 -38 -24 -62.5t-61 -35.5q62 -15 62 -69z
M799 686l-724 -774l-73 46l723 775zM672 -3h-37l-14 -65h-129l13 65h-171l17 91q59 95 157 218h186l-41 -217h37zM523 89l29 142h-3q-50 -58 -101 -142h75z" />
    <glyph glyph-name="questiondown" unicode="&#xbf;" 
d="M2 27q0 49 18 87t45 62.5t55.5 45.5t53 49t32.5 61l11 44h142l-7 -50q-6 -45 -25 -80.5t-42 -57t-45 -40t-37 -40t-15 -46.5q0 -49 63 -49q51 0 113 23l28 -97q-104 -54 -208 -54q-88 0 -135 37.5t-47 104.5zM319 581q48 0 67.5 -13.5t19.5 -45.5q0 -58 -25 -81
q-22 -23 -83 -23q-48 0 -67 13t-19 45q0 57 24 81t83 24z" />
    <glyph glyph-name="Agrave" unicode="&#xc0;" horiz-adv-x="589" 
d="M534 0h-175q0 7 -1 56t-2 68h-189q-29 -74 -47 -124h-165q156 382 307 675h225q39 -303 47 -675zM215 248h142q-3 136 -15 283h-3q-43 -93 -124 -283zM481 778l-55 -65l-206 60l81 88z" />
    <glyph glyph-name="Aacute" unicode="&#xc1;" horiz-adv-x="589" 
d="M534 0h-175q0 7 -1 56t-2 68h-189q-29 -74 -47 -124h-165q156 382 307 675h225q39 -303 47 -675zM215 248h142q-3 136 -15 283h-3q-43 -93 -124 -283zM561 766l-217 -53l-40 70l201 78z" />
    <glyph glyph-name="Acircumflex" unicode="&#xc2;" horiz-adv-x="589" 
d="M534 0h-175q0 7 -1 56t-2 68h-189q-29 -74 -47 -124h-165q156 382 307 675h225q39 -303 47 -675zM215 248h142q-3 136 -15 283h-3q-43 -93 -124 -283zM406 861l144 -84l-50 -64l-108 47l-129 -47l-30 63z" />
    <glyph glyph-name="Atilde" unicode="&#xc3;" horiz-adv-x="589" 
d="M534 0h-175q0 7 -1 56t-2 68h-189q-29 -74 -47 -124h-165q156 382 307 675h225q39 -303 47 -675zM215 248h142q-3 136 -15 283h-3q-43 -93 -124 -283zM511 856l62 -43q-47 -96 -132 -96q-38 0 -71 22t-43 22q-13 0 -23 -8.5t-28 -34.5l-63 43q50 96 132 96
q38 0 70.5 -22.5t42.5 -22.5q13 0 24 9.5t29 34.5z" />
    <glyph glyph-name="Adieresis" unicode="&#xc4;" horiz-adv-x="589" 
d="M534 0h-175q0 7 -1 56t-2 68h-189q-29 -74 -47 -124h-165q156 382 307 675h225q39 -303 47 -675zM215 248h142q-3 136 -15 283h-3q-43 -93 -124 -283zM576 803q0 -46 -20 -66q-17 -18 -63 -18q-37 0 -52 10.5t-15 36.5q0 45 20 65q19 19 64 19q37 0 51.5 -10.5
t14.5 -36.5zM366 803q0 -46 -20 -66q-18 -18 -64 -18q-37 0 -51.5 10.5t-14.5 36.5q0 45 20 65q19 19 64 19q37 0 51.5 -10.5t14.5 -36.5z" />
    <glyph glyph-name="Aring" unicode="&#xc5;" horiz-adv-x="589" 
d="M534 0h-175q0 7 -1 56t-2 68h-189q-29 -74 -47 -124h-165q156 382 307 675h225q39 -303 47 -675zM215 248h142q-3 136 -15 283h-3q-43 -93 -124 -283zM378 689q-113 0 -113 69q0 45 36.5 74t104.5 29q113 0 113 -68q0 -45 -36.5 -74.5t-104.5 -29.5zM430 786q0 22 -32 22
q-44 0 -44 -43q0 -23 31 -23q23 0 34 12.5t11 31.5z" />
    <glyph glyph-name="AE" unicode="&#xc6;" horiz-adv-x="749" 
d="M658 0h-372l23 124h-156q-39 -72 -64 -124h-165q182 339 396 675h465l-25 -127h-200l-27 -142h167l-24 -121h-167l-31 -157h204zM333 248l59 300h-2q-68 -113 -173 -300h116z" />
    <glyph glyph-name="Ccedilla" unicode="&#xc7;" horiz-adv-x="514" 
d="M415 180l58 -87q-86 -106 -222 -106q-217 0 -217 223q0 42 6.5 89.5t21 103t41 105t62 91t90 65.5t119.5 24q134 0 181 -111l-88 -75q-35 52 -83 52q-41 0 -75 -31.5t-54 -80t-31 -102t-11 -102.5q0 -65 21.5 -90.5t60.5 -25.5q62 0 120 58zM165 -42h135q3 -88 -107 -144
l-90 33q40 31 52.5 55.5t9.5 55.5z" />
    <glyph glyph-name="Egrave" unicode="&#xc8;" horiz-adv-x="476" 
d="M385 0h-372l131 675h368l-25 -127h-200l-27 -142h167l-24 -121h-167l-30 -157h203zM428 778l-55 -65l-206 60l81 88z" />
    <glyph glyph-name="Eacute" unicode="&#xc9;" horiz-adv-x="476" 
d="M385 0h-372l131 675h368l-25 -127h-200l-27 -142h167l-24 -121h-167l-30 -157h203zM520 766l-217 -53l-40 70l201 78z" />
    <glyph glyph-name="Ecircumflex" unicode="&#xca;" horiz-adv-x="476" 
d="M385 0h-372l131 675h368l-25 -127h-200l-27 -142h167l-24 -121h-167l-30 -157h203zM358 861l144 -84l-50 -64l-108 47l-129 -47l-30 63z" />
    <glyph glyph-name="Edieresis" unicode="&#xcb;" horiz-adv-x="476" 
d="M385 0h-372l131 675h368l-25 -127h-200l-27 -142h167l-24 -121h-167l-30 -157h203zM526 803q0 -46 -20 -66q-17 -18 -63 -18q-37 0 -52 10.5t-15 36.5q0 45 20 65q19 19 64 19q37 0 51.5 -10.5t14.5 -36.5zM316 803q0 -46 -20 -66q-18 -18 -64 -18q-37 0 -51.5 10.5
t-14.5 36.5q0 45 20 65q19 19 64 19q37 0 51.5 -10.5t14.5 -36.5z" />
    <glyph glyph-name="Igrave" unicode="&#xcc;" horiz-adv-x="294" 
d="M181 0h-168l131 675h168zM327 778l-55 -65l-206 60l81 88z" />
    <glyph glyph-name="Iacute" unicode="&#xcd;" horiz-adv-x="294" 
d="M181 0h-168l131 675h168zM405 766l-217 -53l-40 70l201 78z" />
    <glyph glyph-name="Icircumflex" unicode="&#xce;" horiz-adv-x="294" 
d="M181 0h-168l131 675h168zM259 861l144 -84l-50 -64l-108 47l-129 -47l-30 63z" />
    <glyph glyph-name="Idieresis" unicode="&#xcf;" horiz-adv-x="294" 
d="M181 0h-168l131 675h168zM404 803q0 -45 -19 -66q-17 -18 -59 -18q-35 0 -48.5 10.5t-13.5 36.5q0 44 19 65q18 19 59 19q35 0 48.5 -10.5t13.5 -36.5zM233 803q0 -47 -19 -66q-17 -18 -59 -18q-35 0 -48.5 10.5t-13.5 36.5q0 45 20 65q16 19 59 19q34 0 47.5 -10.5
t13.5 -36.5z" />
    <glyph glyph-name="Eth" unicode="&#xd0;" horiz-adv-x="615" 
d="M613 449q0 -79 -30.5 -180.5t-100.5 -171.5q-101 -101 -258 -101q-41 0 -114 2t-87 2l55 285h-47l23 121h48l52 269q41 0 107 1t97 1q130 0 192.5 -60.5t62.5 -167.5zM433 439q0 61 -24 87.5t-73 26.5q-26 0 -38 -1l-28 -146h82l-24 -121h-82l-31 -160q24 -2 34 -2
q53 0 95 40q46 46 67.5 130t21.5 146z" />
    <glyph glyph-name="Ntilde" unicode="&#xd1;" horiz-adv-x="641" 
d="M528 0h-173l-93 333q-7 24 -14 56.5t-10 52.5l-4 21h-2q-14 -116 -24 -165l-58 -298h-137l131 675h192l81 -290q7 -22 14 -55t11 -54l4 -22h1q15 118 25 167l50 254h137zM548 856l62 -43q-47 -96 -132 -96q-38 0 -71 22t-43 22q-13 0 -23 -8.5t-28 -34.5l-63 43
q50 96 132 96q38 0 70.5 -22.5t42.5 -22.5q13 0 24 9.5t29 34.5z" />
    <glyph glyph-name="Ograve" unicode="&#xd2;" horiz-adv-x="643" 
d="M276 -13q-122 0 -182 54t-60 170q0 85 21.5 166.5t63 152.5t114 114.5t164.5 43.5q122 0 182 -54t60 -170q0 -69 -12.5 -135t-41 -128.5t-69.5 -109.5t-103 -75.5t-137 -28.5zM462 457q0 59 -20 81.5t-65 22.5q-47 0 -82 -42t-52 -103t-24.5 -112t-7.5 -85
q0 -59 20 -81.5t65 -22.5q47 0 82 42t52 103t24.5 111.5t7.5 85.5zM474 778l-55 -65l-206 60l81 88z" />
    <glyph glyph-name="Oacute" unicode="&#xd3;" horiz-adv-x="643" 
d="M276 -13q-122 0 -182 54t-60 170q0 85 21.5 166.5t63 152.5t114 114.5t164.5 43.5q122 0 182 -54t60 -170q0 -69 -12.5 -135t-41 -128.5t-69.5 -109.5t-103 -75.5t-137 -28.5zM462 457q0 59 -20 81.5t-65 22.5q-47 0 -82 -42t-52 -103t-24.5 -112t-7.5 -85
q0 -59 20 -81.5t65 -22.5q47 0 82 42t52 103t24.5 111.5t7.5 85.5zM598 766l-217 -53l-40 70l201 78z" />
    <glyph glyph-name="Ocircumflex" unicode="&#xd4;" horiz-adv-x="643" 
d="M276 -13q-122 0 -182 54t-60 170q0 85 21.5 166.5t63 152.5t114 114.5t164.5 43.5q122 0 182 -54t60 -170q0 -69 -12.5 -135t-41 -128.5t-69.5 -109.5t-103 -75.5t-137 -28.5zM462 457q0 59 -20 81.5t-65 22.5q-47 0 -82 -42t-52 -103t-24.5 -112t-7.5 -85
q0 -59 20 -81.5t65 -22.5q47 0 82 42t52 103t24.5 111.5t7.5 85.5zM432 861l144 -84l-50 -64l-108 47l-129 -47l-30 63z" />
    <glyph glyph-name="Otilde" unicode="&#xd5;" horiz-adv-x="643" 
d="M276 -13q-122 0 -182 54t-60 170q0 85 21.5 166.5t63 152.5t114 114.5t164.5 43.5q122 0 182 -54t60 -170q0 -69 -12.5 -135t-41 -128.5t-69.5 -109.5t-103 -75.5t-137 -28.5zM462 457q0 59 -20 81.5t-65 22.5q-47 0 -82 -42t-52 -103t-24.5 -112t-7.5 -85
q0 -59 20 -81.5t65 -22.5q47 0 82 42t52 103t24.5 111.5t7.5 85.5zM542 856l62 -43q-47 -96 -132 -96q-38 0 -71 22t-43 22q-13 0 -23 -8.5t-28 -34.5l-63 43q50 96 132 96q38 0 70.5 -22.5t42.5 -22.5q13 0 24 9.5t29 34.5z" />
    <glyph glyph-name="Odieresis" unicode="&#xd6;" horiz-adv-x="643" 
d="M276 -13q-122 0 -182 54t-60 170q0 85 21.5 166.5t63 152.5t114 114.5t164.5 43.5q122 0 182 -54t60 -170q0 -69 -12.5 -135t-41 -128.5t-69.5 -109.5t-103 -75.5t-137 -28.5zM462 457q0 59 -20 81.5t-65 22.5q-47 0 -82 -42t-52 -103t-24.5 -112t-7.5 -85
q0 -59 20 -81.5t65 -22.5q47 0 82 42t52 103t24.5 111.5t7.5 85.5zM602 803q0 -46 -20 -66q-17 -18 -63 -18q-37 0 -52 10.5t-15 36.5q0 45 20 65q19 19 64 19q37 0 51.5 -10.5t14.5 -36.5zM392 803q0 -46 -20 -66q-18 -18 -64 -18q-37 0 -51.5 10.5t-14.5 36.5q0 45 20 65
q19 19 64 19q37 0 51.5 -10.5t14.5 -36.5z" />
    <glyph glyph-name="multiply" unicode="&#xd7;" 
d="M344 297l100 -124l-98 -81l-100 124l-148 -124l-71 87l148 125l-99 123l97 81l100 -123l148 123l71 -87z" />
    <glyph glyph-name="Oslash" unicode="&#xd8;" horiz-adv-x="643" 
d="M276 -13q-87 0 -139 29l-79 -100l-78 47l87 110q-33 52 -33 138q0 85 21.5 166.5t63 152.5t114 114.5t164.5 43.5q87 0 139 -29l79 100l78 -47l-87 -110q33 -52 33 -138q0 -87 -21 -168t-62.5 -151t-114 -113t-165.5 -45zM377 570q-40 0 -73 -26.5t-52.5 -64.5t-33 -82.5
t-18.5 -78t-5 -53.5q0 -23 4 -31l248 312q-24 24 -70 24zM296 105q40 0 73 26.5t52.5 64.5t33 82.5t18.5 78t5 53.5q0 23 -4 31l-248 -312q24 -24 70 -24z" />
    <glyph glyph-name="Ugrave" unicode="&#xd9;" horiz-adv-x="652" 
d="M671 675l-86 -443q-26 -132 -106 -188.5t-207 -56.5q-223 0 -223 175q0 34 10 82l84 431h168l-83 -426q-8 -41 -8 -66q0 -40 18.5 -57t58.5 -17q50 0 79.5 27t42.5 95l87 444h165zM479 778l-55 -65l-206 60l81 88z" />
    <glyph glyph-name="Uacute" unicode="&#xda;" horiz-adv-x="652" 
d="M671 675l-86 -443q-26 -132 -106 -188.5t-207 -56.5q-223 0 -223 175q0 34 10 82l84 431h168l-83 -426q-8 -41 -8 -66q0 -40 18.5 -57t58.5 -17q50 0 79.5 27t42.5 95l87 444h165zM618 766l-217 -53l-40 70l201 78z" />
    <glyph glyph-name="Ucircumflex" unicode="&#xdb;" horiz-adv-x="652" 
d="M671 675l-86 -443q-26 -132 -106 -188.5t-207 -56.5q-223 0 -223 175q0 34 10 82l84 431h168l-83 -426q-8 -41 -8 -66q0 -40 18.5 -57t58.5 -17q50 0 79.5 27t42.5 95l87 444h165zM438 861l144 -84l-50 -64l-108 47l-129 -47l-30 63z" />
    <glyph glyph-name="Udieresis" unicode="&#xdc;" horiz-adv-x="652" 
d="M671 675l-86 -443q-26 -132 -106 -188.5t-207 -56.5q-223 0 -223 175q0 34 10 82l84 431h168l-83 -426q-8 -41 -8 -66q0 -40 18.5 -57t58.5 -17q50 0 79.5 27t42.5 95l87 444h165zM606 803q0 -46 -20 -66q-17 -18 -63 -18q-37 0 -52 10.5t-15 36.5q0 45 20 65
q19 19 64 19q37 0 51.5 -10.5t14.5 -36.5zM396 803q0 -46 -20 -66q-18 -18 -64 -18q-37 0 -51.5 10.5t-14.5 36.5q0 45 20 65q19 19 64 19q37 0 51.5 -10.5t14.5 -36.5z" />
    <glyph glyph-name="Yacute" unicode="&#xdd;" horiz-adv-x="494" 
d="M413 675h169q-124 -247 -248 -400l-54 -275h-168l54 275q-67 178 -92 400h176q11 -139 36 -245h3q53 81 124 245zM537 766l-217 -53l-40 70l201 78z" />
    <glyph glyph-name="Thorn" unicode="&#xde;" horiz-adv-x="557" 
d="M564 406q0 -41 -7.5 -78.5t-30 -78t-57.5 -69.5t-96 -48t-140 -19h-30l-22 -113h-168l131 675h168l-19 -100q4 0 20 0.5t27 0.5q224 0 224 -170zM387 382q0 72 -86 72h-32l-43 -220h30q69 0 100 45t31 103z" />
    <glyph glyph-name="germandbls" unicode="&#xdf;" horiz-adv-x="578" 
d="M0 -17l99 509q44 230 278 230q89 0 139 -37.5t50 -99.5q0 -40 -13.5 -71.5t-32 -50t-37.5 -33t-32.5 -30.5t-13.5 -33q0 -19 16.5 -39t37 -36t37 -46t16.5 -66q0 -76 -51 -132.5t-147 -56.5q-77 0 -133 36l25 79q48 -8 77 -8q28 0 46.5 16t18.5 40q0 22 -16.5 42
t-36.5 34.5t-36.5 42t-16.5 61.5q0 38 14 67t34.5 47t41 34t34.5 36.5t14 46.5q0 43 -52 43q-45 0 -67 -27t-33 -85l-100 -513q-17 -83 -58.5 -125.5t-121.5 -42.5q-68 0 -121 33l33 90q28 -9 51 -9q25 0 38 12t19 42z" />
    <glyph glyph-name="agrave" unicode="&#xe0;" horiz-adv-x="543" 
d="M19 159q0 46 7 90t28.5 94.5t55 87.5t91.5 61.5t133 24.5q46 0 96.5 -6t77.5 -11l27 -6l-95 -494h-132l6 83q-29 -46 -71.5 -71t-85.5 -25q-70 0 -104 48.5t-34 123.5zM182 178q0 -67 35 -67q33 0 67.5 47t51.5 136l20 103q-20 8 -47 8q-34 0 -60.5 -26t-40 -64.5
t-20 -74t-6.5 -62.5zM416 590l-84 -39l-144 125l117 53z" />
    <glyph glyph-name="aacute" unicode="&#xe1;" horiz-adv-x="543" 
d="M19 159q0 46 7 90t28.5 94.5t55 87.5t91.5 61.5t133 24.5q46 0 96.5 -6t77.5 -11l27 -6l-95 -494h-132l6 83q-29 -46 -71.5 -71t-85.5 -25q-70 0 -104 48.5t-34 123.5zM182 178q0 -67 35 -67q33 0 67.5 47t51.5 136l20 103q-20 8 -47 8q-34 0 -60.5 -26t-40 -64.5
t-20 -74t-6.5 -62.5zM522 669l-182 -118l-76 44l155 134z" />
    <glyph glyph-name="acircumflex" unicode="&#xe2;" horiz-adv-x="543" 
d="M19 159q0 46 7 90t28.5 94.5t55 87.5t91.5 61.5t133 24.5q46 0 96.5 -6t77.5 -11l27 -6l-95 -494h-132l6 83q-29 -46 -71.5 -71t-85.5 -25q-70 0 -104 48.5t-34 123.5zM182 178q0 -67 35 -67q33 0 67.5 47t51.5 136l20 103q-20 8 -47 8q-34 0 -60.5 -26t-40 -64.5
t-20 -74t-6.5 -62.5zM495 613l-56 -61l-92 65l-120 -65l-36 62l176 122z" />
    <glyph glyph-name="atilde" unicode="&#xe3;" horiz-adv-x="543" 
d="M19 159q0 46 7 90t28.5 94.5t55 87.5t91.5 61.5t133 24.5q46 0 96.5 -6t77.5 -11l27 -6l-95 -494h-132l6 83q-29 -46 -71.5 -71t-85.5 -25q-70 0 -104 48.5t-34 123.5zM182 178q0 -67 35 -67q33 0 67.5 47t51.5 136l20 103q-20 8 -47 8q-34 0 -60.5 -26t-40 -64.5
t-20 -74t-6.5 -62.5zM457 704l59 -44q-48 -97 -128 -97q-28 0 -49.5 11.5t-35.5 22.5t-25 11q-13 0 -22.5 -9t-27.5 -36l-60 44q49 97 128 97q37 0 69 -22.5t42 -22.5q12 0 22 9t28 36z" />
    <glyph glyph-name="adieresis" unicode="&#xe4;" horiz-adv-x="543" 
d="M19 159q0 46 7 90t28.5 94.5t55 87.5t91.5 61.5t133 24.5q46 0 96.5 -6t77.5 -11l27 -6l-95 -494h-132l6 83q-29 -46 -71.5 -71t-85.5 -25q-70 0 -104 48.5t-34 123.5zM182 178q0 -67 35 -67q33 0 67.5 47t51.5 136l20 103q-20 8 -47 8q-34 0 -60.5 -26t-40 -64.5
t-20 -74t-6.5 -62.5zM522 654q0 -18 -7 -41t-18 -33q-18 -18 -60 -18q-67 0 -67 48q0 18 7 41t18 33q18 18 61 18q66 0 66 -48zM319 654q0 -18 -7 -40.5t-18 -33.5q-18 -18 -61 -18q-67 0 -67 48q0 18 7.5 40.5t18.5 33.5q18 18 60 18q67 0 67 -48z" />
    <glyph glyph-name="aring" unicode="&#xe5;" horiz-adv-x="543" 
d="M19 159q0 46 7 90t28.5 94.5t55 87.5t91.5 61.5t133 24.5q46 0 96.5 -6t77.5 -11l27 -6l-95 -494h-132l6 83q-29 -46 -71.5 -71t-85.5 -25q-70 0 -104 48.5t-34 123.5zM182 178q0 -67 35 -67q33 0 67.5 47t51.5 136l20 103q-20 8 -47 8q-34 0 -60.5 -26t-40 -64.5
t-20 -74t-6.5 -62.5zM325 541q-118 0 -118 87q0 52 35.5 90.5t113.5 38.5q118 0 118 -87q0 -52 -35.5 -90.5t-113.5 -38.5zM380 663q0 26 -32 26q-25 0 -36 -16.5t-11 -36.5q0 -27 31 -27q26 0 37 16.5t11 37.5z" />
    <glyph glyph-name="ae" unicode="&#xe6;" horiz-adv-x="779" 
d="M694 136l8 -92q-104 -57 -215 -57q-134 0 -169 92q-73 -92 -178 -92q-68 0 -105.5 38t-37.5 94q0 39 13.5 71t44.5 61.5t91.5 46t146.5 16.5h27l6 28q5 32 -10 46.5t-57 14.5q-72 0 -166 -30l-5 96q121 48 222 48q96 0 128 -49q59 49 149 49q82 0 132 -35t50 -99
q0 -167 -312 -167q-4 -26 -4 -39q0 -69 76 -69q75 0 165 28zM619 374q0 38 -49 38q-67 0 -93 -100q83 0 112.5 15.5t29.5 46.5zM302 219h-33q-115 0 -115 -83q0 -37 40 -37q37 0 67 32.5t39 78.5z" />
    <glyph glyph-name="ccedilla" unicode="&#xe7;" horiz-adv-x="421" 
d="M340 144l36 -83q-85 -72 -184 -72q-85 0 -129 45t-44 133q0 53 14.5 109.5t44 112.5t85 92t128.5 36q103 0 147 -63l-65 -83q-30 28 -71 28q-32 0 -56.5 -26t-36.5 -64.5t-18 -72.5t-6 -60q0 -68 58 -68q52 0 97 36zM104 -42h135q3 -88 -107 -144l-90 33q40 31 52.5 55.5
t9.5 55.5z" />
    <glyph glyph-name="egrave" unicode="&#xe8;" horiz-adv-x="505" 
d="M420 136l8 -92q-104 -57 -215 -57q-194 0 -194 181q0 24 4 53t13.5 71.5t31 80t52 71t80.5 53.5t113 20q82 0 132 -35t50 -99q0 -167 -312 -167q-4 -26 -4 -39q0 -69 76 -69q75 0 165 28zM345 374q0 38 -49 38q-67 0 -93 -100q83 0 112.5 15.5t29.5 46.5zM397 590
l-84 -39l-144 125l117 53z" />
    <glyph glyph-name="eacute" unicode="&#xe9;" horiz-adv-x="505" 
d="M420 136l8 -92q-104 -57 -215 -57q-194 0 -194 181q0 24 4 53t13.5 71.5t31 80t52 71t80.5 53.5t113 20q82 0 132 -35t50 -99q0 -167 -312 -167q-4 -26 -4 -39q0 -69 76 -69q75 0 165 28zM345 374q0 38 -49 38q-67 0 -93 -100q83 0 112.5 15.5t29.5 46.5zM490 669
l-182 -118l-76 44l155 134z" />
    <glyph glyph-name="ecircumflex" unicode="&#xea;" horiz-adv-x="505" 
d="M420 136l8 -92q-104 -57 -215 -57q-194 0 -194 181q0 24 4 53t13.5 71.5t31 80t52 71t80.5 53.5t113 20q82 0 132 -35t50 -99q0 -167 -312 -167q-4 -26 -4 -39q0 -69 76 -69q75 0 165 28zM345 374q0 38 -49 38q-67 0 -93 -100q83 0 112.5 15.5t29.5 46.5zM470 613
l-56 -61l-92 65l-120 -65l-36 62l176 122z" />
    <glyph glyph-name="edieresis" unicode="&#xeb;" horiz-adv-x="505" 
d="M420 136l8 -92q-104 -57 -215 -57q-194 0 -194 181q0 24 4 53t13.5 71.5t31 80t52 71t80.5 53.5t113 20q82 0 132 -35t50 -99q0 -167 -312 -167q-4 -26 -4 -39q0 -69 76 -69q75 0 165 28zM345 374q0 38 -49 38q-67 0 -93 -100q83 0 112.5 15.5t29.5 46.5zM505 654
q0 -18 -7 -41t-18 -33q-18 -18 -60 -18q-67 0 -67 48q0 18 7 41t18 33q18 18 61 18q66 0 66 -48zM302 654q0 -18 -7 -40.5t-18 -33.5q-18 -18 -61 -18q-67 0 -67 48q0 18 7.5 40.5t18.5 33.5q18 18 60 18q67 0 67 -48z" />
    <glyph glyph-name="igrave" unicode="&#xec;" horiz-adv-x="267" 
d="M163 0h-160l98 505h160zM292 590l-84 -39l-144 125l117 53z" />
    <glyph glyph-name="iacute" unicode="&#xed;" horiz-adv-x="267" 
d="M163 0h-160l98 505h160zM370 669l-182 -118l-76 44l155 134z" />
    <glyph glyph-name="icircumflex" unicode="&#xee;" horiz-adv-x="267" 
d="M163 0h-160l98 505h160zM350 613l-56 -61l-92 65l-120 -65l-36 62l176 122z" />
    <glyph glyph-name="idieresis" unicode="&#xef;" horiz-adv-x="267" 
d="M163 0h-160l98 505h160zM371 654q0 -18 -7 -41t-18 -33q-18 -18 -59 -18q-65 0 -65 48q0 18 7 41t18 33q18 18 59 18q65 0 65 -48zM191 654q0 -18 -7 -41t-18 -33q-18 -18 -59 -18q-65 0 -65 48q0 18 7 41t18 33q18 18 59 18q65 0 65 -48z" />
    <glyph glyph-name="eth" unicode="&#xf0;" horiz-adv-x="542" 
d="M530 403q0 -55 -8.5 -108t-30.5 -110t-56 -99t-90 -69.5t-127 -27.5q-205 0 -205 178q0 142 79.5 242t215.5 100q29 0 41 -4q-9 30 -30 60l-94 -26l-49 75l94 26q-31 39 -67 69h189q24 -20 38 -38l86 24l48 -76l-87 -24q53 -92 53 -192zM353 376v20q-15 5 -43 5
q-34 0 -60 -25.5t-38.5 -63t-18.5 -70.5t-6 -59q0 -73 53 -73q31 0 55 31.5t35.5 78t17 86.5t5.5 70z" />
    <glyph glyph-name="ntilde" unicode="&#xf1;" horiz-adv-x="550" 
d="M321 389q-33 0 -67 -49.5t-50 -129.5l-41 -210h-160l98 505h132l-6 -74q67 86 159 86q129 0 129 -140q0 -39 -8 -83.5t-27 -132.5t-33 -161h-161q15 77 34 164t26 123.5t7 59.5q0 42 -32 42zM461 704l59 -44q-48 -97 -128 -97q-28 0 -49.5 11.5t-35.5 22.5t-25 11
q-13 0 -22.5 -9t-27.5 -36l-60 44q49 97 128 97q37 0 69 -22.5t42 -22.5q12 0 22 9t28 36z" />
    <glyph glyph-name="ograve" unicode="&#xf2;" horiz-adv-x="549" 
d="M224 -13q-204 0 -204 179q0 42 6.5 83.5t26.5 91.5t51.5 87.5t88 63t130.5 25.5q204 0 204 -178q0 -42 -6.5 -83.5t-26.5 -92t-51.5 -88t-88 -63t-130.5 -25.5zM365 332q0 38 -14.5 53.5t-47.5 15.5q-34 0 -59.5 -27.5t-38 -68t-18 -74.5t-5.5 -58q0 -38 14.5 -53.5
t46.5 -15.5q34 0 60 27.5t38.5 68t18 74.5t5.5 58zM406 590l-84 -39l-144 125l117 53z" />
    <glyph glyph-name="oacute" unicode="&#xf3;" horiz-adv-x="549" 
d="M224 -13q-204 0 -204 179q0 42 6.5 83.5t26.5 91.5t51.5 87.5t88 63t130.5 25.5q204 0 204 -178q0 -42 -6.5 -83.5t-26.5 -92t-51.5 -88t-88 -63t-130.5 -25.5zM365 332q0 38 -14.5 53.5t-47.5 15.5q-34 0 -59.5 -27.5t-38 -68t-18 -74.5t-5.5 -58q0 -38 14.5 -53.5
t46.5 -15.5q34 0 60 27.5t38.5 68t18 74.5t5.5 58zM511 669l-182 -118l-76 44l155 134z" />
    <glyph glyph-name="ocircumflex" unicode="&#xf4;" horiz-adv-x="549" 
d="M224 -13q-204 0 -204 179q0 42 6.5 83.5t26.5 91.5t51.5 87.5t88 63t130.5 25.5q204 0 204 -178q0 -42 -6.5 -83.5t-26.5 -92t-51.5 -88t-88 -63t-130.5 -25.5zM365 332q0 38 -14.5 53.5t-47.5 15.5q-34 0 -59.5 -27.5t-38 -68t-18 -74.5t-5.5 -58q0 -38 14.5 -53.5
t46.5 -15.5q34 0 60 27.5t38.5 68t18 74.5t5.5 58zM495 613l-56 -61l-92 65l-120 -65l-36 62l176 122z" />
    <glyph glyph-name="otilde" unicode="&#xf5;" horiz-adv-x="549" 
d="M224 -13q-204 0 -204 179q0 42 6.5 83.5t26.5 91.5t51.5 87.5t88 63t130.5 25.5q204 0 204 -178q0 -42 -6.5 -83.5t-26.5 -92t-51.5 -88t-88 -63t-130.5 -25.5zM365 332q0 38 -14.5 53.5t-47.5 15.5q-34 0 -59.5 -27.5t-38 -68t-18 -74.5t-5.5 -58q0 -38 14.5 -53.5
t46.5 -15.5q34 0 60 27.5t38.5 68t18 74.5t5.5 58zM460 704l59 -44q-48 -97 -128 -97q-28 0 -49.5 11.5t-35.5 22.5t-25 11q-13 0 -22.5 -9t-27.5 -36l-60 44q49 97 128 97q37 0 69 -22.5t42 -22.5q12 0 22 9t28 36z" />
    <glyph glyph-name="odieresis" unicode="&#xf6;" horiz-adv-x="549" 
d="M224 -13q-204 0 -204 179q0 42 6.5 83.5t26.5 91.5t51.5 87.5t88 63t130.5 25.5q204 0 204 -178q0 -42 -6.5 -83.5t-26.5 -92t-51.5 -88t-88 -63t-130.5 -25.5zM365 332q0 38 -14.5 53.5t-47.5 15.5q-34 0 -59.5 -27.5t-38 -68t-18 -74.5t-5.5 -58q0 -38 14.5 -53.5
t46.5 -15.5q34 0 60 27.5t38.5 68t18 74.5t5.5 58zM526 654q0 -18 -7 -41t-18 -33q-18 -18 -60 -18q-67 0 -67 48q0 18 7 41t18 33q18 18 61 18q66 0 66 -48zM323 654q0 -18 -7 -40.5t-18 -33.5q-18 -18 -61 -18q-67 0 -67 48q0 18 7.5 40.5t18.5 33.5q18 18 60 18
q67 0 67 -48z" />
    <glyph glyph-name="divide" unicode="&#xf7;" 
d="M209 30q-41 0 -58 10.5t-17 36.5q0 24 8.5 52t18.5 38q19 19 71 19q41 0 58 -10.5t17 -36.5q0 -24 -9 -51.5t-20 -38.5q-18 -19 -69 -19zM285 415q-41 0 -58 10.5t-17 36.5q0 24 8.5 52t18.5 38q18 19 70 19q41 0 58 -10.5t17 -36.5q0 -23 -9 -51.5t-19 -38.5
q-19 -19 -69 -19zM463 245h-432l22 111h432z" />
    <glyph glyph-name="oslash" unicode="&#xf8;" horiz-adv-x="549" 
d="M527 339q0 -42 -6.5 -83.5t-26.5 -92t-51.5 -88t-88 -63t-130.5 -25.5q-56 0 -98 15l-70 -85l-73 48l70 86q-33 40 -33 115q0 42 6.5 83.5t26.5 91.5t51.5 87.5t88 63t130.5 25.5q58 0 101 -16l71 86l73 -48l-72 -88q31 -40 31 -112zM371 279q0 9 -4 21l-159 -199
q12 -6 38 -6q43 0 73.5 37t41 76.5t10.5 70.5zM175 219q0 -9 4 -21l163 203q-15 9 -41 9q-35 0 -61.5 -23t-39.5 -56.5t-19 -62t-6 -49.5z" />
    <glyph glyph-name="ugrave" unicode="&#xf9;" horiz-adv-x="550" 
d="M544 505l-97 -505h-132l6 74q-66 -87 -159 -87q-129 0 -129 141q0 38 7.5 82t27 134t32.5 161h161q-13 -64 -27.5 -133t-21.5 -102t-12 -64t-5 -49q0 -43 32 -43t66.5 50.5t50.5 129.5l40 211h160zM418 590l-84 -39l-144 125l117 53z" />
    <glyph glyph-name="uacute" unicode="&#xfa;" horiz-adv-x="550" 
d="M544 505l-97 -505h-132l6 74q-66 -87 -159 -87q-129 0 -129 141q0 38 7.5 82t27 134t32.5 161h161q-13 -64 -27.5 -133t-21.5 -102t-12 -64t-5 -49q0 -43 32 -43t66.5 50.5t50.5 129.5l40 211h160zM510 669l-182 -118l-76 44l155 134z" />
    <glyph glyph-name="ucircumflex" unicode="&#xfb;" horiz-adv-x="550" 
d="M544 505l-97 -505h-132l6 74q-66 -87 -159 -87q-129 0 -129 141q0 38 7.5 82t27 134t32.5 161h161q-13 -64 -27.5 -133t-21.5 -102t-12 -64t-5 -49q0 -43 32 -43t66.5 50.5t50.5 129.5l40 211h160zM491 613l-56 -61l-92 65l-120 -65l-36 62l176 122z" />
    <glyph glyph-name="udieresis" unicode="&#xfc;" horiz-adv-x="550" 
d="M544 505l-97 -505h-132l6 74q-66 -87 -159 -87q-129 0 -129 141q0 38 7.5 82t27 134t32.5 161h161q-13 -64 -27.5 -133t-21.5 -102t-12 -64t-5 -49q0 -43 32 -43t66.5 50.5t50.5 129.5l40 211h160zM522 654q0 -18 -7 -41t-18 -33q-18 -18 -60 -18q-67 0 -67 48q0 18 7 41
t18 33q18 18 61 18q66 0 66 -48zM319 654q0 -18 -7 -40.5t-18 -33.5q-18 -18 -61 -18q-67 0 -67 48q0 18 7.5 40.5t18.5 33.5q18 18 60 18q67 0 67 -48z" />
    <glyph glyph-name="yacute" unicode="&#xfd;" horiz-adv-x="494" 
d="M364 505h169q-55 -180 -122 -316t-135 -214.5t-133 -116.5t-127 -38q-46 0 -87 25l17 92q22 -5 58 -5q46 0 72 24q21 23 21 56q0 36 -8 122l-35 371h166l14 -238q4 -78 -7 -142h3q39 73 77 182t57 198zM490 669l-182 -118l-76 44l155 134z" />
    <glyph glyph-name="thorn" unicode="&#xfe;" horiz-adv-x="543" 
d="M206 -13l-44 3l-33 -163h-160l172 882h160l-39 -203q-1 -3 -19 -69q25 34 63 57t79 23q69 0 103 -48.5t34 -122.5q0 -32 -3.5 -63t-13 -67.5t-24.5 -68t-40 -61.5t-57 -51.5t-77.5 -34.5t-100.5 -13zM359 326q0 67 -35 67q-33 0 -68 -47.5t-52 -135.5l-20 -102
q21 -8 47 -8q34 0 61 26t40.5 64t20 73.5t6.5 62.5z" />
    <glyph glyph-name="ydieresis" unicode="&#xff;" horiz-adv-x="494" 
d="M364 505h169q-55 -180 -122 -316t-135 -214.5t-133 -116.5t-127 -38q-46 0 -87 25l17 92q22 -5 58 -5q46 0 72 24q21 23 21 56q0 36 -8 122l-35 371h166l14 -238q4 -78 -7 -142h3q39 73 77 182t57 198zM493 654q0 -18 -7 -41t-18 -33q-18 -18 -60 -18q-67 0 -67 48
q0 18 7 41t18 33q18 18 61 18q66 0 66 -48zM290 654q0 -18 -7 -40.5t-18 -33.5q-18 -18 -61 -18q-67 0 -67 48q0 18 7.5 40.5t18.5 33.5q18 18 60 18q67 0 67 -48z" />
    <glyph glyph-name="Amacron" unicode="&#x100;" horiz-adv-x="589" 
d="M534 0h-175q0 7 -1 56t-2 68h-189q-29 -74 -47 -124h-165q156 382 307 675h225q39 -303 47 -675zM215 248h142q-3 136 -15 283h-3q-43 -93 -124 -283zM534 736h-294l19 102h294z" />
    <glyph glyph-name="amacron" unicode="&#x101;" horiz-adv-x="543" 
d="M19 159q0 46 7 90t28.5 94.5t55 87.5t91.5 61.5t133 24.5q46 0 96.5 -6t77.5 -11l27 -6l-95 -494h-132l6 83q-29 -46 -71.5 -71t-85.5 -25q-70 0 -104 48.5t-34 123.5zM182 178q0 -67 35 -67q33 0 67.5 47t51.5 136l20 103q-20 8 -47 8q-34 0 -60.5 -26t-40 -64.5
t-20 -74t-6.5 -62.5zM478 578h-291l21 109h291z" />
    <glyph glyph-name="Abreve" unicode="&#x102;" horiz-adv-x="589" 
d="M534 0h-175q0 7 -1 56t-2 68h-189q-29 -74 -47 -124h-165q156 382 307 675h225q39 -303 47 -675zM215 248h142q-3 136 -15 283h-3q-43 -93 -124 -283zM471 868h95q-13 -79 -62.5 -119t-119.5 -40q-74 0 -108 40.5t-17 118.5h94q-6 -27 5.5 -43t40.5 -16t48 16t24 43z" />
    <glyph glyph-name="abreve" unicode="&#x103;" horiz-adv-x="543" 
d="M19 159q0 46 7 90t28.5 94.5t55 87.5t91.5 61.5t133 24.5q46 0 96.5 -6t77.5 -11l27 -6l-95 -494h-132l6 83q-29 -46 -71.5 -71t-85.5 -25q-70 0 -104 48.5t-34 123.5zM182 178q0 -67 35 -67q33 0 67.5 47t51.5 136l20 103q-20 8 -47 8q-34 0 -60.5 -26t-40 -64.5
t-20 -74t-6.5 -62.5zM417 726h96q-14 -86 -62 -131t-122 -45t-108.5 44t-18.5 132h97q-8 -39 2.5 -55t40.5 -16q31 0 49 16t26 55z" />
    <glyph glyph-name="Aogonek" unicode="&#x104;" horiz-adv-x="589" 
d="M479 -91l12 -68q-51 -26 -106 -26q-99 0 -99 73q0 53 73 112q0 7 -1 56t-2 68h-189q-29 -74 -47 -124h-165q156 382 307 675h225q39 -303 47 -675q-56 -6 -87 -33.5t-31 -50.5q0 -17 21 -17q22 0 42 10zM215 248h142q-3 136 -15 283h-3q-43 -93 -124 -283z" />
    <glyph glyph-name="aogonek" unicode="&#x105;" horiz-adv-x="543" 
d="M19 159q0 46 7 90t28.5 94.5t55 87.5t91.5 61.5t133 24.5q46 0 96.5 -6t77.5 -11l27 -6l-95 -494q-30 -3 -52.5 -32.5t-22.5 -52.5q0 -16 22 -16q21 0 43 11l6 -68q-52 -27 -111 -27q-45 0 -68 16t-23 43q0 63 74 126l6 83q-29 -46 -71.5 -71t-85.5 -25q-70 0 -104 48.5
t-34 123.5zM182 178q0 -67 35 -67q33 0 67.5 47t51.5 136l20 103q-20 8 -47 8q-34 0 -60.5 -26t-40 -64.5t-20 -74t-6.5 -62.5z" />
    <glyph glyph-name="Cacute" unicode="&#x106;" horiz-adv-x="514" 
d="M415 180l58 -87q-86 -106 -222 -106q-217 0 -217 223q0 42 6.5 89.5t21 103t41 105t62 91t90 65.5t119.5 24q134 0 181 -111l-88 -75q-35 52 -83 52q-41 0 -75 -31.5t-54 -80t-31 -102t-11 -102.5q0 -65 21.5 -90.5t60.5 -25.5q62 0 120 58zM578 766l-217 -53l-40 70
l201 78z" />
    <glyph glyph-name="cacute" unicode="&#x107;" horiz-adv-x="421" 
d="M340 144l36 -83q-85 -72 -184 -72q-85 0 -129 45t-44 133q0 53 14.5 109.5t44 112.5t85 92t128.5 36q103 0 147 -63l-65 -83q-30 28 -71 28q-32 0 -56.5 -26t-36.5 -64.5t-18 -72.5t-6 -60q0 -68 58 -68q52 0 97 36zM498 669l-182 -118l-76 44l155 134z" />
    <glyph glyph-name="Ccircumflex" unicode="&#x108;" horiz-adv-x="514" 
d="M415 180l58 -87q-86 -106 -222 -106q-217 0 -217 223q0 42 6.5 89.5t21 103t41 105t62 91t90 65.5t119.5 24q134 0 181 -111l-88 -75q-35 52 -83 52q-41 0 -75 -31.5t-54 -80t-31 -102t-11 -102.5q0 -65 21.5 -90.5t60.5 -25.5q62 0 120 58zM410 861l144 -84l-50 -64
l-108 47l-129 -47l-30 63z" />
    <glyph glyph-name="ccircumflex" unicode="&#x109;" horiz-adv-x="421" 
d="M340 144l36 -83q-85 -72 -184 -72q-85 0 -129 45t-44 133q0 53 14.5 109.5t44 112.5t85 92t128.5 36q103 0 147 -63l-65 -83q-30 28 -71 28q-32 0 -56.5 -26t-36.5 -64.5t-18 -72.5t-6 -60q0 -68 58 -68q52 0 97 36zM458 613l-56 -61l-92 65l-120 -65l-36 62l176 122z
" />
    <glyph glyph-name="Cdotaccent" unicode="&#x10a;" horiz-adv-x="514" 
d="M415 180l58 -87q-86 -106 -222 -106q-217 0 -217 223q0 42 6.5 89.5t21 103t41 105t62 91t90 65.5t119.5 24q134 0 181 -111l-88 -75q-35 52 -83 52q-41 0 -75 -31.5t-54 -80t-31 -102t-11 -102.5q0 -65 21.5 -90.5t60.5 -25.5q62 0 120 58zM381 724q-41 0 -57 10.5
t-16 35.5q0 47 22 69t82 22q41 0 57.5 -10.5t16.5 -34.5q0 -46 -23 -69t-82 -23z" />
    <glyph glyph-name="cdotaccent" unicode="&#x10b;" horiz-adv-x="421" 
d="M340 144l36 -83q-85 -72 -184 -72q-85 0 -129 45t-44 133q0 53 14.5 109.5t44 112.5t85 92t128.5 36q103 0 147 -63l-65 -83q-30 28 -71 28q-32 0 -56.5 -26t-36.5 -64.5t-18 -72.5t-6 -60q0 -68 58 -68q52 0 97 36zM303 562q-46 0 -66 11.5t-20 38.5q0 17 8 43.5
t19 37.5q23 23 82 23q47 0 66.5 -11.5t19.5 -39.5q0 -17 -7.5 -43t-18.5 -37q-23 -23 -83 -23z" />
    <glyph glyph-name="Ccaron" unicode="&#x10c;" horiz-adv-x="514" 
d="M415 180l58 -87q-86 -106 -222 -106q-217 0 -217 223q0 42 6.5 89.5t21 103t41 105t62 91t90 65.5t119.5 24q134 0 181 -111l-88 -75q-35 52 -83 52q-41 0 -75 -31.5t-54 -80t-31 -102t-11 -102.5q0 -65 21.5 -90.5t60.5 -25.5q62 0 120 58zM387 713l-147 86l51 62
l109 -46l128 46l29 -64z" />
    <glyph glyph-name="ccaron" unicode="&#x10d;" horiz-adv-x="421" 
d="M340 144l36 -83q-85 -72 -184 -72q-85 0 -129 45t-44 133q0 53 14.5 109.5t44 112.5t85 92t128.5 36q103 0 147 -63l-65 -83q-30 28 -71 28q-32 0 -56.5 -26t-36.5 -64.5t-18 -72.5t-6 -60q0 -68 58 -68q52 0 97 36zM468 671l-175 -120l-128 123l55 61l93 -65l119 65z
" />
    <glyph glyph-name="Dcaron" unicode="&#x10e;" horiz-adv-x="605" 
d="M603 449q0 -79 -30.5 -180.5t-100.5 -171.5q-101 -101 -258 -101q-41 0 -114 2t-87 2l131 675q41 0 107 1t97 1q130 0 192.5 -60.5t62.5 -167.5zM423 439q0 61 -24 87.5t-73 26.5q-26 0 -38 -1l-83 -427q24 -2 34 -2q53 0 95 40q46 46 67.5 130t21.5 146zM375 713
l-147 86l51 62l109 -46l128 46l29 -64z" />
    <glyph glyph-name="dcaron" unicode="&#x10f;" horiz-adv-x="625" 
d="M440 0h-132l6 74q-31 -40 -73 -63.5t-84 -23.5q-70 0 -104 48.5t-34 123.5q0 46 7 90t28.5 94t55 87.5t92 62t133.5 24.5l44 -3l38 195h160zM182 178q0 -67 35 -67q33 0 67.5 47t51.5 136l20 103q-20 8 -47 8q-34 0 -60.5 -26t-40 -64.5t-20 -74t-6.5 -62.5zM749 741
l-99 -191l-77 15l70 198z" />
    <glyph glyph-name="Dcroat" unicode="&#x110;" horiz-adv-x="615" 
d="M613 449q0 -79 -30.5 -180.5t-100.5 -171.5q-101 -101 -258 -101q-41 0 -114 2t-87 2l55 285h-47l23 121h48l52 269q41 0 107 1t97 1q130 0 192.5 -60.5t62.5 -167.5zM433 439q0 61 -24 87.5t-73 26.5q-26 0 -38 -1l-28 -146h82l-24 -121h-82l-31 -160q24 -2 34 -2
q53 0 95 40q46 46 67.5 130t21.5 146z" />
    <glyph glyph-name="dcroat" unicode="&#x111;" horiz-adv-x="543" 
d="M440 0h-132l6 74q-31 -40 -73 -63.5t-84 -23.5q-70 0 -104 48.5t-34 123.5q0 46 7 90t28.5 94t55 87.5t92 62t133.5 24.5l44 -3l9 42h-84l17 86h83l13 67h160l-13 -67h57l-16 -86h-57zM182 178q0 -67 35 -67q33 0 67.5 47t51.5 136l20 103q-20 8 -47 8q-34 0 -60.5 -26
t-40 -64.5t-20 -74t-6.5 -62.5z" />
    <glyph glyph-name="Emacron" unicode="&#x112;" horiz-adv-x="476" 
d="M385 0h-372l131 675h368l-25 -127h-200l-27 -142h167l-24 -121h-167l-30 -157h203zM486 736h-294l19 102h294z" />
    <glyph glyph-name="emacron" unicode="&#x113;" horiz-adv-x="505" 
d="M420 136l8 -92q-104 -57 -215 -57q-194 0 -194 181q0 24 4 53t13.5 71.5t31 80t52 71t80.5 53.5t113 20q82 0 132 -35t50 -99q0 -167 -312 -167q-4 -26 -4 -39q0 -69 76 -69q75 0 165 28zM345 374q0 38 -49 38q-67 0 -93 -100q83 0 112.5 15.5t29.5 46.5zM458 578h-291
l21 109h291z" />
    <glyph glyph-name="Ebreve" unicode="&#x114;" horiz-adv-x="476" 
d="M385 0h-372l131 675h368l-25 -127h-200l-27 -142h167l-24 -121h-167l-30 -157h203zM418 868h95q-13 -79 -62.5 -119t-119.5 -40q-74 0 -108 40.5t-17 118.5h94q-6 -27 5.5 -43t40.5 -16t48 16t24 43z" />
    <glyph glyph-name="ebreve" unicode="&#x115;" horiz-adv-x="505" 
d="M420 136l8 -92q-104 -57 -215 -57q-194 0 -194 181q0 24 4 53t13.5 71.5t31 80t52 71t80.5 53.5t113 20q82 0 132 -35t50 -99q0 -167 -312 -167q-4 -26 -4 -39q0 -69 76 -69q75 0 165 28zM345 374q0 38 -49 38q-67 0 -93 -100q83 0 112.5 15.5t29.5 46.5zM400 726h96
q-14 -86 -62 -131t-122 -45t-108.5 44t-18.5 132h97q-8 -39 2.5 -55t40.5 -16q31 0 49 16t26 55z" />
    <glyph glyph-name="Edotaccent" unicode="&#x116;" horiz-adv-x="476" 
d="M385 0h-372l131 675h368l-25 -127h-200l-27 -142h167l-24 -121h-167l-30 -157h203zM332 719q-41 0 -57 10.5t-16 35.5q0 47 22 69t82 22q41 0 57.5 -10.5t16.5 -34.5q0 -46 -23 -69t-82 -23z" />
    <glyph glyph-name="edotaccent" unicode="&#x117;" horiz-adv-x="505" 
d="M420 136l8 -92q-104 -57 -215 -57q-194 0 -194 181q0 24 4 53t13.5 71.5t31 80t52 71t80.5 53.5t113 20q82 0 132 -35t50 -99q0 -167 -312 -167q-4 -26 -4 -39q0 -69 76 -69q75 0 165 28zM345 374q0 38 -49 38q-67 0 -93 -100q83 0 112.5 15.5t29.5 46.5zM314 562
q-46 0 -66 11.5t-20 38.5q0 17 8 43.5t19 37.5q23 23 82 23q47 0 66.5 -11.5t19.5 -39.5q0 -17 -7.5 -43t-18.5 -37q-23 -23 -83 -23z" />
    <glyph glyph-name="Eogonek" unicode="&#x118;" horiz-adv-x="476" 
d="M409 128l-24 -128q-43 -20 -64 -43.5t-21 -40.5t20 -17q23 0 43 10l12 -68q-52 -26 -106 -26q-99 0 -99 73q0 53 74 112h-231l131 675h368l-25 -127h-200l-27 -142h167l-24 -121h-167l-30 -157h203z" />
    <glyph glyph-name="eogonek" unicode="&#x119;" horiz-adv-x="505" 
d="M420 136l8 -92q-118 -87 -118 -128q0 -17 20 -17q21 0 43 10l12 -68q-52 -26 -106 -26q-100 0 -100 73q0 23 17.5 51t47.5 51q-15 -3 -31 -3q-194 0 -194 181q0 24 4 53t13.5 71.5t31 80t52 71t80.5 53.5t113 20q82 0 132 -35t50 -99q0 -167 -312 -167q-4 -26 -4 -39
q0 -69 76 -69q75 0 165 28zM345 374q0 38 -49 38q-67 0 -93 -100q83 0 112.5 15.5t29.5 46.5z" />
    <glyph glyph-name="Ecaron" unicode="&#x11a;" horiz-adv-x="476" 
d="M385 0h-372l131 675h368l-25 -127h-200l-27 -142h167l-24 -121h-167l-30 -157h203zM334 713l-147 86l51 62l109 -46l128 46l29 -64z" />
    <glyph glyph-name="ecaron" unicode="&#x11b;" horiz-adv-x="505" 
d="M420 136l8 -92q-104 -57 -215 -57q-194 0 -194 181q0 24 4 53t13.5 71.5t31 80t52 71t80.5 53.5t113 20q82 0 132 -35t50 -99q0 -167 -312 -167q-4 -26 -4 -39q0 -69 76 -69q75 0 165 28zM345 374q0 38 -49 38q-67 0 -93 -100q83 0 112.5 15.5t29.5 46.5zM480 671
l-175 -120l-128 123l55 61l93 -65l119 65z" />
    <glyph glyph-name="Gcircumflex" unicode="&#x11c;" horiz-adv-x="578" 
d="M558 401l-66 -334q-117 -80 -252 -80q-102 0 -154 57.5t-52 167.5q0 113 36.5 217t101.5 169q88 90 216 90q75 0 125.5 -30t72.5 -84l-80 -67q-55 49 -116 49q-51 0 -86 -37q-46 -46 -70.5 -132t-24.5 -167q0 -100 72 -100q30 0 60 15l29 145h-69l23 121h234zM425 861
l144 -84l-50 -64l-108 47l-129 -47l-30 63z" />
    <glyph glyph-name="gcircumflex" unicode="&#x11d;" horiz-adv-x="543" 
d="M536 494l-96 -494q-36 -185 -256 -185q-89 0 -189 48l23 87q105 -17 163 -17q48 0 69.5 15t28.5 51l7 31q3 19 16 58q-23 -34 -63 -59t-78 -25q-71 0 -106 46.5t-35 122.5q0 41 7 83t28.5 90.5t55 85t91.5 61t133 24.5q46 0 96.5 -6t77.5 -11zM184 187q0 -59 36 -59
q32 0 67.5 46t50.5 124l19 99q-21 8 -47 8q-32 0 -58 -23t-40 -58.5t-21 -71t-7 -65.5zM486 613l-56 -61l-92 65l-120 -65l-36 62l176 122z" />
    <glyph glyph-name="Gbreve" unicode="&#x11e;" horiz-adv-x="578" 
d="M558 401l-66 -334q-117 -80 -252 -80q-102 0 -154 57.5t-52 167.5q0 113 36.5 217t101.5 169q88 90 216 90q75 0 125.5 -30t72.5 -84l-80 -67q-55 49 -116 49q-51 0 -86 -37q-46 -46 -70.5 -132t-24.5 -167q0 -100 72 -100q30 0 60 15l29 145h-69l23 121h234zM477 871h95
q-13 -79 -62.5 -119t-119.5 -40q-74 0 -108 40.5t-17 118.5h94q-6 -27 5.5 -43t40.5 -16t48 16t24 43z" />
    <glyph glyph-name="gbreve" unicode="&#x11f;" horiz-adv-x="543" 
d="M536 494l-96 -494q-36 -185 -256 -185q-89 0 -189 48l23 87q105 -17 163 -17q48 0 69.5 15t28.5 51l7 31q3 19 16 58q-23 -34 -63 -59t-78 -25q-71 0 -106 46.5t-35 122.5q0 41 7 83t28.5 90.5t55 85t91.5 61t133 24.5q46 0 96.5 -6t77.5 -11zM184 187q0 -59 36 -59
q32 0 67.5 46t50.5 124l19 99q-21 8 -47 8q-32 0 -58 -23t-40 -58.5t-21 -71t-7 -65.5zM422 726h96q-14 -86 -62 -131t-122 -45t-108.5 44t-18.5 132h97q-8 -39 2.5 -55t40.5 -16q31 0 49 16t26 55z" />
    <glyph glyph-name="Gdotaccent" unicode="&#x120;" horiz-adv-x="578" 
d="M558 401l-66 -334q-117 -80 -252 -80q-102 0 -154 57.5t-52 167.5q0 113 36.5 217t101.5 169q88 90 216 90q75 0 125.5 -30t72.5 -84l-80 -67q-55 49 -116 49q-51 0 -86 -37q-46 -46 -70.5 -132t-24.5 -167q0 -100 72 -100q30 0 60 15l29 145h-69l23 121h234zM398 724
q-41 0 -57 10.5t-16 35.5q0 47 22 69t82 22q41 0 57.5 -10.5t16.5 -34.5q0 -46 -23 -69t-82 -23z" />
    <glyph glyph-name="gdotaccent" unicode="&#x121;" horiz-adv-x="543" 
d="M536 494l-96 -494q-36 -185 -256 -185q-89 0 -189 48l23 87q105 -17 163 -17q48 0 69.5 15t28.5 51l7 31q3 19 16 58q-23 -34 -63 -59t-78 -25q-71 0 -106 46.5t-35 122.5q0 41 7 83t28.5 90.5t55 85t91.5 61t133 24.5q46 0 96.5 -6t77.5 -11zM184 187q0 -59 36 -59
q32 0 67.5 46t50.5 124l19 99q-21 8 -47 8q-32 0 -58 -23t-40 -58.5t-21 -71t-7 -65.5zM332 562q-46 0 -66 11.5t-20 38.5q0 17 8 43.5t19 37.5q23 23 82 23q47 0 66.5 -11.5t19.5 -39.5q0 -17 -7.5 -43t-18.5 -37q-23 -23 -83 -23z" />
    <glyph glyph-name="Gcommaaccent" unicode="&#x122;" horiz-adv-x="578" 
d="M558 401l-66 -334q-117 -80 -252 -80q-102 0 -154 57.5t-52 167.5q0 113 36.5 217t101.5 169q88 90 216 90q75 0 125.5 -30t72.5 -84l-80 -67q-55 49 -116 49q-51 0 -86 -37q-46 -46 -70.5 -132t-24.5 -167q0 -100 72 -100q30 0 60 15l29 145h-69l23 121h234zM239 -31
q27 0 42 -13t15 -34q0 -52 -47 -79.5t-132 -25.5l-9 50q66 8 66 34q0 3 -1 8t-1 9q0 20 18 35.5t49 15.5z" />
    <glyph glyph-name="gcommaaccent" unicode="&#x123;" horiz-adv-x="543" 
d="M536 494l-96 -494q-36 -185 -256 -185q-89 0 -189 48l23 87q105 -17 163 -17q48 0 69.5 15t28.5 51l7 31q3 19 16 58q-23 -34 -63 -59t-78 -25q-71 0 -106 46.5t-35 122.5q0 41 7 83t28.5 90.5t55 85t91.5 61t133 24.5q46 0 96.5 -6t77.5 -11zM184 187q0 -59 36 -59
q32 0 67.5 46t50.5 124l19 99q-21 8 -47 8q-32 0 -58 -23t-40 -58.5t-21 -71t-7 -65.5zM303 607q0 49 44.5 82.5t141.5 28.5l8 -51q-32 -4 -52 -15.5t-20 -23.5q0 -3 1 -8t1 -9q0 -21 -17.5 -37t-50.5 -16q-56 0 -56 49z" />
    <glyph glyph-name="Hcircumflex" unicode="&#x124;" horiz-adv-x="658" 
d="M545 0h-168l54 281h-196l-54 -281h-168l131 675h168l-50 -254h196l50 254h168zM441 861l144 -84l-50 -64l-108 47l-129 -47l-30 63z" />
    <glyph glyph-name="hcircumflex" unicode="&#x125;" horiz-adv-x="550" 
d="M447 0h-161q15 77 34 164t26 123.5t7 59.5q0 42 -32 42q-33 0 -67.5 -50t-49.5 -129l-41 -210h-160l138 709h160l-39 -203q-9 -43 -19 -69q25 34 63.5 57t79.5 23q129 0 129 -140q0 -39 -8 -83.5t-27 -132.5t-33 -161zM252 885l143 -84l-48 -64l-111 46l-126 -46l-32 62z
" />
    <glyph glyph-name="Hbar" unicode="&#x126;" horiz-adv-x="678" 
d="M555 0h-168l50 259h-195l-51 -259h-167l92 478h-61l23 116h60l16 81h168l-16 -81h196l16 81h168l-16 -81h61l-23 -116h-60zM267 391h195l18 87h-196z" />
    <glyph glyph-name="hbar" unicode="&#x127;" horiz-adv-x="550" 
d="M447 0h-161q15 77 34 163t25.5 121.5t6.5 58.5q0 43 -32 43t-66.5 -50t-50.5 -129l-40 -207h-160l109 558h-54l21 107h54l11 55h160l-11 -55h124l-21 -107h-124l-11 -55q-9 -46 -19 -70q25 35 63 58t80 23q130 0 130 -141q0 -38 -8 -82t-27 -130.5t-33 -160.5z" />
    <glyph glyph-name="Itilde" unicode="&#x128;" horiz-adv-x="294" 
d="M181 0h-168l131 675h168zM368 856l62 -43q-47 -96 -132 -96q-38 0 -71 22t-43 22q-13 0 -23 -8.5t-28 -34.5l-63 43q50 96 132 96q38 0 70.5 -22.5t42.5 -22.5q13 0 24 9.5t29 34.5z" />
    <glyph glyph-name="itilde" unicode="&#x129;" horiz-adv-x="267" 
d="M163 0h-160l98 505h160zM320 704l59 -44q-48 -97 -128 -97q-28 0 -49.5 11.5t-35.5 22.5t-25 11q-13 0 -22.5 -9t-27.5 -36l-60 44q49 97 128 97q37 0 69 -22.5t42 -22.5q12 0 22 9t28 36z" />
    <glyph glyph-name="Imacron" unicode="&#x12a;" horiz-adv-x="294" 
d="M181 0h-168l131 675h168zM387 736h-294l19 102h294z" />
    <glyph glyph-name="imacron" unicode="&#x12b;" horiz-adv-x="267" 
d="M163 0h-160l98 505h160zM341 578h-291l21 109h291z" />
    <glyph glyph-name="Ibreve" unicode="&#x12c;" horiz-adv-x="294" 
d="M181 0h-168l131 675h168zM323 868h95q-13 -79 -62.5 -119t-119.5 -40q-74 0 -108 40.5t-17 118.5h94q-6 -27 5.5 -43t40.5 -16t48 16t24 43z" />
    <glyph glyph-name="ibreve" unicode="&#x12d;" horiz-adv-x="267" 
d="M163 0h-160l98 505h160zM281 726h96q-14 -86 -62 -131t-122 -45t-108.5 44t-18.5 132h97q-8 -39 2.5 -55t40.5 -16q31 0 49 16t26 55z" />
    <glyph glyph-name="Iogonek" unicode="&#x12e;" horiz-adv-x="294" 
d="M13 0l131 675h168l-131 -675q-50 -6 -80 -32.5t-30 -51.5q0 -17 20 -17q21 0 43 10l12 -68q-52 -26 -106 -26q-99 0 -99 73q0 49 72 112z" />
    <glyph glyph-name="iogonek" unicode="&#x12f;" horiz-adv-x="267" 
d="M261 505l-98 -505q-46 -6 -75.5 -32.5t-29.5 -52.5q0 -16 23 -16q20 0 42 11l6 -68q-52 -27 -109 -27q-92 0 -92 60q0 58 75 125l98 505h160zM194 549q-47 0 -66.5 12t-19.5 40q0 20 7.5 47.5t18.5 38.5q24 24 83 24q46 0 66 -12t20 -40q0 -20 -8 -47.5t-19 -38.5
q-24 -24 -82 -24z" />
    <glyph glyph-name="Idotaccent" unicode="&#x130;" horiz-adv-x="294" 
d="M181 0h-168l131 675h168zM233 719q-41 0 -57 10.5t-16 35.5q0 47 22 69t82 22q41 0 57.5 -10.5t16.5 -34.5q0 -46 -23 -69t-82 -23z" />
    <glyph glyph-name="dotlessi" unicode="&#x131;" horiz-adv-x="267" 
d="M163 0h-160l98 505h160z" />
    <glyph glyph-name="IJ" unicode="&#x132;" horiz-adv-x="591" 
d="M181 0h-168l131 675h168zM609 675l-115 -592q-18 -89 -64 -152.5t-128 -106.5l-72 70q43 42 63.5 86t33.5 111l114 584h168z" />
    <glyph glyph-name="ij" unicode="&#x133;" horiz-adv-x="533" 
d="M163 0h-160l98 505h160zM194 549q-47 0 -66.5 12t-19.5 40q0 20 7.5 47.5t18.5 38.5q24 24 83 24q46 0 66 -12t20 -40q0 -20 -8 -47.5t-19 -38.5q-24 -24 -82 -24zM528 505l-89 -456q-14 -74 -50.5 -129t-107.5 -105l-101 51q79 80 96 168l92 471h160zM461 549
q-47 0 -66.5 12t-19.5 40q0 20 7.5 47.5t18.5 38.5q24 24 83 24q46 0 66 -12t20 -40q0 -20 -8 -47.5t-19 -38.5q-24 -24 -82 -24z" />
    <glyph glyph-name="Jcircumflex" unicode="&#x134;" horiz-adv-x="297" 
d="M315 675l-115 -592q-18 -89 -64 -152.5t-128 -106.5l-72 70q43 42 63.5 86t33.5 111l114 584h168zM260 861l144 -84l-50 -64l-108 47l-129 -47l-30 63z" />
    <glyph glyph-name="jcircumflex" unicode="&#x135;" horiz-adv-x="267" 
d="M261 505l-89 -456q-14 -74 -50.5 -129t-107.5 -105l-101 51q79 80 96 168l92 471h160zM350 613l-56 -61l-92 65l-120 -65l-36 62l176 122z" />
    <glyph glyph-name="Kcommaaccent" unicode="&#x136;" horiz-adv-x="563" 
d="M505 0h-183l-80 300h-3l-58 -300h-168l131 675h168l-54 -278h2l183 278h180l-223 -310zM230 -31q27 0 42 -13t15 -34q0 -52 -47 -79.5t-132 -25.5l-9 50q66 8 66 34q0 3 -1 8t-1 9q0 20 18 35.5t49 15.5z" />
    <glyph glyph-name="kcommaaccent" unicode="&#x137;" horiz-adv-x="511" 
d="M455 0h-180l-60 239h-6l-46 -239h-160l138 709h160l-79 -404h5l132 200h183l-174 -226zM199 -31q27 0 42 -13t15 -34q0 -52 -47 -79.5t-132 -25.5l-9 50q66 8 66 34q0 3 -1 8t-1 9q0 20 18 35.5t49 15.5z" />
    <glyph glyph-name="kgreenlandic" unicode="&#x138;" horiz-adv-x="511" 
d="M452 0h-178l-61 229h-6l-44 -229h-160l98 505h160l-41 -210h5l135 210h185l-180 -237z" />
    <glyph glyph-name="Lacute" unicode="&#x139;" horiz-adv-x="421" 
d="M356 0h-343l131 675h168l-106 -546h175zM458 766l-217 -53l-40 70l201 78z" />
    <glyph glyph-name="lacute" unicode="&#x13a;" horiz-adv-x="281" 
d="M233 99l-11 -93q-48 -16 -107 -16q-48 0 -71 19t-23 63q0 25 7 59l112 578h160l-105 -547q-6 -31 -6 -41q0 -14 5.5 -18t18.5 -4h20zM433 782l-217 -53l-40 70l201 78z" />
    <glyph glyph-name="Lcommaaccent" unicode="&#x13b;" horiz-adv-x="421" 
d="M356 0h-343l131 675h168l-106 -546h175zM169 -31q27 0 42 -13t15 -34q0 -52 -47 -79.5t-132 -25.5l-9 50q66 8 66 34q0 3 -1 8t-1 9q0 20 18 35.5t49 15.5z" />
    <glyph glyph-name="lcommaaccent" unicode="&#x13c;" horiz-adv-x="281" 
d="M233 99l-11 -93q-48 -16 -107 -16q-48 0 -71 19t-23 63q0 25 7 59l112 578h160l-105 -547q-6 -31 -6 -41q0 -14 5.5 -18t18.5 -4h20zM116 -31q27 0 42 -13t15 -34q0 -52 -47 -79.5t-132 -25.5l-9 50q66 8 66 34q0 3 -1 8t-1 9q0 20 18 35.5t49 15.5z" />
    <glyph glyph-name="Lcaron" unicode="&#x13d;" horiz-adv-x="421" 
d="M356 0h-343l131 675h168l-106 -546h175zM511 740l-99 -190l-77 15l70 198z" />
    <glyph glyph-name="lcaron" unicode="&#x13e;" horiz-adv-x="355" 
d="M233 99l-11 -93q-48 -16 -107 -16q-48 0 -71 19t-23 63q0 25 7 59l112 578h160l-105 -547q-6 -31 -6 -41q0 -14 5.5 -18t18.5 -4h20zM473 741l-99 -191l-77 15l70 198z" />
    <glyph glyph-name="Ldot" unicode="&#x13f;" horiz-adv-x="518" 
d="M356 0h-343l131 675h168l-106 -546h175zM418 252q-44 0 -62 12t-18 42q0 27 9 58t20 43q22 22 76 22q44 0 62.5 -12t18.5 -42q0 -28 -9 -58.5t-22 -43.5q-21 -21 -75 -21z" />
    <glyph glyph-name="ldot" unicode="&#x140;" horiz-adv-x="506" 
d="M233 99l-11 -93q-48 -16 -107 -16q-48 0 -71 19t-23 63q0 25 7 59l112 578h160l-105 -547q-6 -31 -6 -41q0 -14 5.5 -18t18.5 -4h20zM381 212q-44 0 -62 12t-18 42q0 27 9 58t20 43q22 22 76 22q44 0 62.5 -12t18.5 -42q0 -28 -9 -58.5t-22 -43.5q-21 -21 -75 -21z" />
    <glyph glyph-name="Lslash" unicode="&#x141;" horiz-adv-x="427" 
d="M281 483l95 45l-22 -112l-95 -45l-47 -242h175l-24 -129h-344l55 287l-56 -27l21 112l58 26l53 277h168z" />
    <glyph glyph-name="lslash" unicode="&#x142;" horiz-adv-x="288" 
d="M240 99l-11 -93q-48 -16 -107 -16q-48 0 -71 19t-23 63q0 25 7 59l31 156l-60 -29l23 116l60 30l58 305h160l-42 -219l57 28l-23 -117l-57 -28l-40 -211q-6 -31 -6 -41q0 -14 5.5 -18t18.5 -4h20z" />
    <glyph glyph-name="Nacute" unicode="&#x143;" horiz-adv-x="641" 
d="M528 0h-173l-93 333q-7 24 -14 56.5t-10 52.5l-4 21h-2q-14 -116 -24 -165l-58 -298h-137l131 675h192l81 -290q7 -22 14 -55t11 -54l4 -22h1q15 118 25 167l50 254h137zM615 766l-217 -53l-40 70l201 78z" />
    <glyph glyph-name="nacute" unicode="&#x144;" horiz-adv-x="550" 
d="M321 389q-33 0 -67 -49.5t-50 -129.5l-41 -210h-160l98 505h132l-6 -74q67 86 159 86q129 0 129 -140q0 -39 -8 -83.5t-27 -132.5t-33 -161h-161q15 77 34 164t26 123.5t7 59.5q0 42 -32 42zM521 669l-182 -118l-76 44l155 134z" />
    <glyph glyph-name="Ncommaaccent" unicode="&#x145;" horiz-adv-x="641" 
d="M528 0h-173l-93 333q-7 24 -14 56.5t-10 52.5l-4 21h-2q-14 -116 -24 -165l-58 -298h-137l131 675h192l81 -290q7 -22 14 -55t11 -54l4 -22h1q15 118 25 167l50 254h137zM254 -31q27 0 42 -13t15 -34q0 -52 -47 -79.5t-132 -25.5l-9 50q66 8 66 34q0 3 -1 8t-1 9
q0 20 18 35.5t49 15.5z" />
    <glyph glyph-name="ncommaaccent" unicode="&#x146;" horiz-adv-x="550" 
d="M321 389q-33 0 -67 -49.5t-50 -129.5l-41 -210h-160l98 505h132l-6 -74q67 86 159 86q129 0 129 -140q0 -39 -8 -83.5t-27 -132.5t-33 -161h-161q15 77 34 164t26 123.5t7 59.5q0 42 -32 42zM210 -31q27 0 42 -13t15 -34q0 -52 -47 -79.5t-132 -25.5l-9 50q66 8 66 34
q0 3 -1 8t-1 9q0 20 18 35.5t49 15.5z" />
    <glyph glyph-name="Ncaron" unicode="&#x147;" horiz-adv-x="641" 
d="M528 0h-173l-93 333q-7 24 -14 56.5t-10 52.5l-4 21h-2q-14 -116 -24 -165l-58 -298h-137l131 675h192l81 -290q7 -22 14 -55t11 -54l4 -22h1q15 118 25 167l50 254h137zM427 713l-147 86l51 62l109 -46l128 46l29 -64z" />
    <glyph glyph-name="ncaron" unicode="&#x148;" horiz-adv-x="550" 
d="M321 389q-33 0 -67 -49.5t-50 -129.5l-41 -210h-160l98 505h132l-6 -74q67 86 159 86q129 0 129 -140q0 -39 -8 -83.5t-27 -132.5t-33 -161h-161q15 77 34 164t26 123.5t7 59.5q0 42 -32 42zM503 671l-175 -120l-128 123l55 61l93 -65l119 65z" />
    <glyph glyph-name="napostrophe" unicode="&#x149;" horiz-adv-x="615" 
d="M386 389q-33 0 -67 -49.5t-50 -129.5l-41 -210h-160l98 505h132l-6 -74q67 86 159 86q129 0 129 -140q0 -39 -8 -83.5t-27 -132.5t-33 -161h-161q15 77 34 164t26 123.5t7 59.5q0 42 -32 42zM205 780q34 0 47 -12t13 -38q0 -61 -40 -121.5t-121 -105.5l-44 50
q74 51 74 86q0 7 -8.5 20t-8.5 30q0 51 23 74q17 17 65 17z" />
    <glyph glyph-name="Eng" unicode="&#x14a;" horiz-adv-x="641" 
d="M528 0h-5q-43 -116 -176 -185l-61 67q31 24 51.5 57t26.5 61h-13l-91 333q-19 67 -26 128v2h-2q-7 -78 -22 -153l-2 -12l-58 -298h-137l131 675h193l82 -292q10 -40 17 -78l10 -51h1q3 24 7 53l3 22q10 71 15 92l50 254h137z" />
    <glyph glyph-name="eng" unicode="&#x14b;" horiz-adv-x="550" 
d="M295 35q58 284 58 312q0 42 -32 42q-33 0 -67 -49.5t-50 -129.5l-41 -210h-160l98 505h132l-6 -74q67 86 159 86q129 0 129 -140q0 -55 -57 -328q-17 -77 -52.5 -130t-105.5 -104l-102 51q78 80 97 169z" />
    <glyph glyph-name="Omacron" unicode="&#x14c;" horiz-adv-x="643" 
d="M276 -13q-122 0 -182 54t-60 170q0 85 21.5 166.5t63 152.5t114 114.5t164.5 43.5q122 0 182 -54t60 -170q0 -69 -12.5 -135t-41 -128.5t-69.5 -109.5t-103 -75.5t-137 -28.5zM462 457q0 59 -20 81.5t-65 22.5q-47 0 -82 -42t-52 -103t-24.5 -112t-7.5 -85
q0 -59 20 -81.5t65 -22.5q47 0 82 42t52 103t24.5 111.5t7.5 85.5zM561 736h-294l19 102h294z" />
    <glyph glyph-name="omacron" unicode="&#x14d;" horiz-adv-x="549" 
d="M224 -13q-204 0 -204 179q0 42 6.5 83.5t26.5 91.5t51.5 87.5t88 63t130.5 25.5q204 0 204 -178q0 -42 -6.5 -83.5t-26.5 -92t-51.5 -88t-88 -63t-130.5 -25.5zM365 332q0 38 -14.5 53.5t-47.5 15.5q-34 0 -59.5 -27.5t-38 -68t-18 -74.5t-5.5 -58q0 -38 14.5 -53.5
t46.5 -15.5q34 0 60 27.5t38.5 68t18 74.5t5.5 58zM481 578h-291l21 109h291z" />
    <glyph glyph-name="Obreve" unicode="&#x14e;" horiz-adv-x="643" 
d="M276 -13q-122 0 -182 54t-60 170q0 85 21.5 166.5t63 152.5t114 114.5t164.5 43.5q122 0 182 -54t60 -170q0 -69 -12.5 -135t-41 -128.5t-69.5 -109.5t-103 -75.5t-137 -28.5zM462 457q0 59 -20 81.5t-65 22.5q-47 0 -82 -42t-52 -103t-24.5 -112t-7.5 -85
q0 -59 20 -81.5t65 -22.5q47 0 82 42t52 103t24.5 111.5t7.5 85.5zM499 868h95q-13 -79 -62.5 -119t-119.5 -40q-74 0 -108 40.5t-17 118.5h94q-6 -27 5.5 -43t40.5 -16t48 16t24 43z" />
    <glyph glyph-name="obreve" unicode="&#x14f;" horiz-adv-x="549" 
d="M224 -13q-204 0 -204 179q0 42 6.5 83.5t26.5 91.5t51.5 87.5t88 63t130.5 25.5q204 0 204 -178q0 -42 -6.5 -83.5t-26.5 -92t-51.5 -88t-88 -63t-130.5 -25.5zM365 332q0 38 -14.5 53.5t-47.5 15.5q-34 0 -59.5 -27.5t-38 -68t-18 -74.5t-5.5 -58q0 -38 14.5 -53.5
t46.5 -15.5q34 0 60 27.5t38.5 68t18 74.5t5.5 58zM418 726h96q-14 -86 -62 -131t-122 -45t-108.5 44t-18.5 132h97q-8 -39 2.5 -55t40.5 -16q31 0 49 16t26 55z" />
    <glyph glyph-name="Ohungarumlaut" unicode="&#x150;" horiz-adv-x="643" 
d="M276 -13q-122 0 -182 54t-60 170q0 85 21.5 166.5t63 152.5t114 114.5t164.5 43.5q122 0 182 -54t60 -170q0 -69 -12.5 -135t-41 -128.5t-69.5 -109.5t-103 -75.5t-137 -28.5zM462 457q0 59 -20 81.5t-65 22.5q-47 0 -82 -42t-52 -103t-24.5 -112t-7.5 -85
q0 -59 20 -81.5t65 -22.5q47 0 82 42t52 103t24.5 111.5t7.5 85.5zM749 799l-223 -92l-60 50l202 112zM500 811l-197 -105l-63 43l168 123z" />
    <glyph glyph-name="ohungarumlaut" unicode="&#x151;" horiz-adv-x="549" 
d="M224 -13q-204 0 -204 179q0 42 6.5 83.5t26.5 91.5t51.5 87.5t88 63t130.5 25.5q204 0 204 -178q0 -42 -6.5 -83.5t-26.5 -92t-51.5 -88t-88 -63t-130.5 -25.5zM365 332q0 38 -14.5 53.5t-47.5 15.5q-34 0 -59.5 -27.5t-38 -68t-18 -74.5t-5.5 -58q0 -38 14.5 -53.5
t46.5 -15.5q34 0 60 27.5t38.5 68t18 74.5t5.5 58zM626 664l-177 -113l-78 41l151 131zM409 673l-168 -123l-74 43l140 136z" />
    <glyph glyph-name="OE" unicode="&#x152;" horiz-adv-x="790" 
d="M826 675l-25 -127h-200l-27 -142h167l-24 -121h-167l-31 -157h205l-25 -128h-321q-48 -13 -102 -13q-122 0 -182 54t-60 170q0 85 21.5 166.5t63 152.5t114 114.5t164.5 43.5q64 0 109 -13h320zM351 127l82 418q-20 16 -56 16q-47 0 -82 -42t-52 -103t-24.5 -112
t-7.5 -85q0 -59 20 -81.5t65 -22.5q28 0 55 12z" />
    <glyph glyph-name="oe" unicode="&#x153;" horiz-adv-x="828" 
d="M818 383q0 -167 -312 -167q-4 -26 -4 -39q0 -69 76 -69q75 0 165 28l8 -92q-104 -57 -215 -57q-101 0 -139 60q-71 -60 -173 -60q-204 0 -204 179q0 42 6.5 83.5t26.5 91.5t51.5 87.5t88 63t130.5 25.5q109 0 148 -61q67 61 165 61q82 0 132 -35t50 -99zM669 374
q0 38 -50 38q-68 0 -92 -100q83 0 112.5 16t29.5 46zM365 332q0 38 -14.5 53.5t-47.5 15.5q-34 0 -59.5 -27.5t-38 -68t-18 -74.5t-5.5 -58q0 -38 14.5 -53.5t46.5 -15.5q34 0 60 27.5t38.5 68t18 74.5t5.5 58z" />
    <glyph glyph-name="Racute" unicode="&#x154;" horiz-adv-x="586" 
d="M521 0h-188l-64 260h-37l-51 -260h-168l131 675q118 3 216 3q124 0 178.5 -41.5t54.5 -123.5q0 -70 -41 -134t-120 -88zM415 497q0 60 -81 60h-45l-34 -175h45q60 0 87.5 35.5t27.5 79.5zM553 766l-217 -53l-40 70l201 78z" />
    <glyph glyph-name="racute" unicode="&#x155;" horiz-adv-x="375" 
d="M412 504l-41 -138q-22 8 -49 8q-38 0 -70 -40t-48 -124l-41 -210h-160l98 505h129l-6 -88q25 46 61 72.5t77 26.5q29 0 50 -12zM443 669l-182 -118l-76 44l155 134z" />
    <glyph glyph-name="Rcommaaccent" unicode="&#x156;" horiz-adv-x="586" 
d="M521 0h-188l-64 260h-37l-51 -260h-168l131 675q118 3 216 3q124 0 178.5 -41.5t54.5 -123.5q0 -70 -41 -134t-120 -88zM415 497q0 60 -81 60h-45l-34 -175h45q60 0 87.5 35.5t27.5 79.5zM233 -31q27 0 42 -13t15 -34q0 -52 -47 -79.5t-132 -25.5l-9 50q66 8 66 34
q0 3 -1 8t-1 9q0 20 18 35.5t49 15.5z" />
    <glyph glyph-name="rcommaaccent" unicode="&#x157;" horiz-adv-x="375" 
d="M412 504l-41 -138q-22 8 -49 8q-38 0 -70 -40t-48 -124l-41 -210h-160l98 505h129l-6 -88q25 46 61 72.5t77 26.5q29 0 50 -12zM75 -31q27 0 42 -13t15 -34q0 -52 -47 -79.5t-132 -25.5l-9 50q66 8 66 34q0 3 -1 8t-1 9q0 20 18 35.5t49 15.5z" />
    <glyph glyph-name="Rcaron" unicode="&#x158;" horiz-adv-x="586" 
d="M521 0h-188l-64 260h-37l-51 -260h-168l131 675q118 3 216 3q124 0 178.5 -41.5t54.5 -123.5q0 -70 -41 -134t-120 -88zM415 497q0 60 -81 60h-45l-34 -175h45q60 0 87.5 35.5t27.5 79.5zM363 713l-147 86l51 62l109 -46l128 46l29 -64z" />
    <glyph glyph-name="rcaron" unicode="&#x159;" horiz-adv-x="375" 
d="M412 504l-41 -138q-22 8 -49 8q-38 0 -70 -40t-48 -124l-41 -210h-160l98 505h129l-6 -88q25 46 61 72.5t77 26.5q29 0 50 -12zM439 671l-175 -120l-128 123l55 61l93 -65l119 65z" />
    <glyph glyph-name="Sacute" unicode="&#x15a;" horiz-adv-x="492" 
d="M187 -12q-124 0 -205 71l49 85q78 -34 136 -34q51 0 78.5 22t27.5 61q0 26 -20.5 48t-49.5 40.5t-58.5 40t-50 57t-20.5 81.5q0 98 69 162t188 64q107 0 182 -60l-49 -85q-57 25 -114 25q-48 0 -72.5 -21t-24.5 -55q0 -22 15.5 -41.5t39 -33.5t51 -32.5t51 -38t39 -51.5
t15.5 -71q0 -102 -73.5 -168t-203.5 -66zM532 766l-217 -53l-40 70l201 78z" />
    <glyph glyph-name="sacute" unicode="&#x15b;" horiz-adv-x="425" 
d="M147 -12q-94 0 -169 46l24 80q79 -15 125 -15q87 0 87 54q0 18 -18 30.5t-43.5 22.5t-51 23.5t-43.5 40t-18 65.5q0 73 53 127.5t165 54.5q85 0 154 -43l-27 -79q-61 14 -103 14q-33 0 -52 -13t-19 -36q0 -16 18 -28t44.5 -22.5t52.5 -24.5t44 -41.5t18 -65.5
q0 -85 -65 -137.5t-176 -52.5zM448 669l-182 -118l-76 44l155 134z" />
    <glyph glyph-name="Scircumflex" unicode="&#x15c;" horiz-adv-x="492" 
d="M187 -12q-124 0 -205 71l49 85q78 -34 136 -34q51 0 78.5 22t27.5 61q0 26 -20.5 48t-49.5 40.5t-58.5 40t-50 57t-20.5 81.5q0 98 69 162t188 64q107 0 182 -60l-49 -85q-57 25 -114 25q-48 0 -72.5 -21t-24.5 -55q0 -22 15.5 -41.5t39 -33.5t51 -32.5t51 -38t39 -51.5
t15.5 -71q0 -102 -73.5 -168t-203.5 -66zM364 861l144 -84l-50 -64l-108 47l-129 -47l-30 63z" />
    <glyph glyph-name="scircumflex" unicode="&#x15d;" horiz-adv-x="425" 
d="M147 -12q-94 0 -169 46l24 80q79 -15 125 -15q87 0 87 54q0 18 -18 30.5t-43.5 22.5t-51 23.5t-43.5 40t-18 65.5q0 73 53 127.5t165 54.5q85 0 154 -43l-27 -79q-61 14 -103 14q-33 0 -52 -13t-19 -36q0 -16 18 -28t44.5 -22.5t52.5 -24.5t44 -41.5t18 -65.5
q0 -85 -65 -137.5t-176 -52.5zM429 613l-56 -61l-92 65l-120 -65l-36 62l176 122z" />
    <glyph glyph-name="Scedilla" unicode="&#x15e;" horiz-adv-x="492" 
d="M187 -12q-124 0 -205 71l49 85q78 -34 136 -34q51 0 78.5 22t27.5 61q0 26 -20.5 48t-49.5 40.5t-58.5 40t-50 57t-20.5 81.5q0 98 69 162t188 64q107 0 182 -60l-49 -85q-57 25 -114 25q-48 0 -72.5 -21t-24.5 -55q0 -22 15.5 -41.5t39 -33.5t51 -32.5t51 -38t39 -51.5
t15.5 -71q0 -102 -73.5 -168t-203.5 -66zM109 -42h135q3 -88 -107 -144l-90 33q40 31 52.5 55.5t9.5 55.5z" />
    <glyph glyph-name="scedilla" unicode="&#x15f;" horiz-adv-x="425" 
d="M147 -12q-94 0 -169 46l24 80q79 -15 125 -15q87 0 87 54q0 18 -18 30.5t-43.5 22.5t-51 23.5t-43.5 40t-18 65.5q0 73 53 127.5t165 54.5q85 0 154 -43l-27 -79q-61 14 -103 14q-33 0 -52 -13t-19 -36q0 -16 18 -28t44.5 -22.5t52.5 -24.5t44 -41.5t18 -65.5
q0 -85 -65 -137.5t-176 -52.5zM69 -42h135q3 -88 -107 -144l-90 33q40 31 52.5 55.5t9.5 55.5z" />
    <glyph glyph-name="Scaron" unicode="&#x160;" horiz-adv-x="492" 
d="M187 -12q-124 0 -205 71l49 85q78 -34 136 -34q51 0 78.5 22t27.5 61q0 26 -20.5 48t-49.5 40.5t-58.5 40t-50 57t-20.5 81.5q0 98 69 162t188 64q107 0 182 -60l-49 -85q-57 25 -114 25q-48 0 -72.5 -21t-24.5 -55q0 -22 15.5 -41.5t39 -33.5t51 -32.5t51 -38t39 -51.5
t15.5 -71q0 -102 -73.5 -168t-203.5 -66zM331 713l-147 86l51 62l109 -46l128 46l29 -64z" />
    <glyph glyph-name="scaron" unicode="&#x161;" horiz-adv-x="425" 
d="M147 -12q-94 0 -169 46l24 80q79 -15 125 -15q87 0 87 54q0 18 -18 30.5t-43.5 22.5t-51 23.5t-43.5 40t-18 65.5q0 73 53 127.5t165 54.5q85 0 154 -43l-27 -79q-61 14 -103 14q-33 0 -52 -13t-19 -36q0 -16 18 -28t44.5 -22.5t52.5 -24.5t44 -41.5t18 -65.5
q0 -85 -65 -137.5t-176 -52.5zM442 671l-175 -120l-128 123l55 61l93 -65l119 65z" />
    <glyph glyph-name="uni0162" unicode="&#x162;" horiz-adv-x="467" 
d="M509 547h-137l-106 -547h-168l106 547h-135l25 128h440zM172 -31q27 0 42 -13t15 -34q0 -52 -47 -79.5t-132 -25.5l-9 50q66 8 66 34q0 3 -1 8t-1 9q0 20 18 35.5t49 15.5z" />
    <glyph glyph-name="uni0163" unicode="&#x163;" horiz-adv-x="350" 
d="M290 115l1 -91q-75 -36 -137 -36q-121 0 -121 95q0 22 6 54l50 257h-54l22 111h60q35 69 65 148h117l-28 -148h96l-21 -111h-97l-45 -228q-4 -19 -4 -33q0 -26 32 -26q26 0 58 8zM142 -31q27 0 42 -13t15 -34q0 -52 -47 -79.5t-132 -25.5l-9 50q66 8 66 34q0 3 -1 8t-1 9
q0 20 18 35.5t49 15.5z" />
    <glyph glyph-name="Tcaron" unicode="&#x164;" horiz-adv-x="467" 
d="M509 547h-137l-106 -547h-168l106 547h-135l25 128h440zM320 713l-147 86l51 62l109 -46l128 46l29 -64z" />
    <glyph glyph-name="tcaron" unicode="&#x165;" horiz-adv-x="389" 
d="M290 115l1 -91q-75 -36 -137 -36q-121 0 -121 95q0 22 6 54l50 257h-54l22 111h60q35 69 65 148h117l-28 -148h96l-21 -111h-97l-45 -228q-4 -19 -4 -33q0 -26 32 -26q26 0 58 8zM490 741l-99 -191l-77 15l70 198z" />
    <glyph glyph-name="Tbar" unicode="&#x166;" horiz-adv-x="467" 
d="M509 547h-137l-36 -183h87l-21 -111h-87l-49 -253h-168l49 253h-85l21 111h85l36 183h-135l25 128h440z" />
    <glyph glyph-name="tbar" unicode="&#x167;" horiz-adv-x="350" 
d="M290 115l1 -91q-75 -36 -137 -36q-121 0 -121 95q0 22 6 54l14 68h-45l20 109h46l15 80h-54l22 111h60q35 69 65 148h117l-28 -148h96l-21 -111h-97l-15 -80h86l-21 -109h-87l-8 -39q-4 -19 -4 -33q0 -26 32 -26q26 0 58 8z" />
    <glyph glyph-name="Utilde" unicode="&#x168;" horiz-adv-x="652" 
d="M671 675l-86 -443q-26 -132 -106 -188.5t-207 -56.5q-223 0 -223 175q0 34 10 82l84 431h168l-83 -426q-8 -41 -8 -66q0 -40 18.5 -57t58.5 -17q50 0 79.5 27t42.5 95l87 444h165zM547 856l62 -43q-47 -96 -132 -96q-38 0 -71 22t-43 22q-13 0 -23 -8.5t-28 -34.5l-63 43
q50 96 132 96q38 0 70.5 -22.5t42.5 -22.5q13 0 24 9.5t29 34.5z" />
    <glyph glyph-name="utilde" unicode="&#x169;" horiz-adv-x="550" 
d="M544 505l-97 -505h-132l6 74q-66 -87 -159 -87q-129 0 -129 141q0 38 7.5 82t27 134t32.5 161h161q-13 -64 -27.5 -133t-21.5 -102t-12 -64t-5 -49q0 -43 32 -43t66.5 50.5t50.5 129.5l40 211h160zM459 704l59 -44q-48 -97 -128 -97q-28 0 -49.5 11.5t-35.5 22.5t-25 11
q-13 0 -22.5 -9t-27.5 -36l-60 44q49 97 128 97q37 0 69 -22.5t42 -22.5q12 0 22 9t28 36z" />
    <glyph glyph-name="Umacron" unicode="&#x16a;" horiz-adv-x="652" 
d="M671 675l-86 -443q-26 -132 -106 -188.5t-207 -56.5q-223 0 -223 175q0 34 10 82l84 431h168l-83 -426q-8 -41 -8 -66q0 -40 18.5 -57t58.5 -17q50 0 79.5 27t42.5 95l87 444h165zM566 736h-294l19 102h294z" />
    <glyph glyph-name="umacron" unicode="&#x16b;" horiz-adv-x="550" 
d="M544 505l-97 -505h-132l6 74q-66 -87 -159 -87q-129 0 -129 141q0 38 7.5 82t27 134t32.5 161h161q-13 -64 -27.5 -133t-21.5 -102t-12 -64t-5 -49q0 -43 32 -43t66.5 50.5t50.5 129.5l40 211h160zM479 578h-291l21 109h291z" />
    <glyph glyph-name="Ubreve" unicode="&#x16c;" horiz-adv-x="652" 
d="M671 675l-86 -443q-26 -132 -106 -188.5t-207 -56.5q-223 0 -223 175q0 34 10 82l84 431h168l-83 -426q-8 -41 -8 -66q0 -40 18.5 -57t58.5 -17q50 0 79.5 27t42.5 95l87 444h165zM502 868h95q-13 -79 -62.5 -119t-119.5 -40q-74 0 -108 40.5t-17 118.5h94
q-6 -27 5.5 -43t40.5 -16t48 16t24 43z" />
    <glyph glyph-name="ubreve" unicode="&#x16d;" horiz-adv-x="550" 
d="M544 505l-97 -505h-132l6 74q-66 -87 -159 -87q-129 0 -129 141q0 38 7.5 82t27 134t32.5 161h161q-13 -64 -27.5 -133t-21.5 -102t-12 -64t-5 -49q0 -43 32 -43t66.5 50.5t50.5 129.5l40 211h160zM417 726h96q-14 -86 -62 -131t-122 -45t-108.5 44t-18.5 132h97
q-8 -39 2.5 -55t40.5 -16q31 0 49 16t26 55z" />
    <glyph glyph-name="Uring" unicode="&#x16e;" horiz-adv-x="652" 
d="M671 675l-86 -443q-26 -132 -106 -188.5t-207 -56.5q-223 0 -223 175q0 34 10 82l84 431h168l-83 -426q-8 -41 -8 -66q0 -40 18.5 -57t58.5 -17q50 0 79.5 27t42.5 95l87 444h165zM414 689q-113 0 -113 69q0 45 36.5 74t104.5 29q113 0 113 -68q0 -45 -36.5 -74.5
t-104.5 -29.5zM466 786q0 22 -32 22q-44 0 -44 -43q0 -23 31 -23q23 0 34 12.5t11 31.5z" />
    <glyph glyph-name="uring" unicode="&#x16f;" horiz-adv-x="550" 
d="M544 505l-97 -505h-132l6 74q-66 -87 -159 -87q-129 0 -129 141q0 38 7.5 82t27 134t32.5 161h161q-13 -64 -27.5 -133t-21.5 -102t-12 -64t-5 -49q0 -43 32 -43t66.5 50.5t50.5 129.5l40 211h160zM334 541q-118 0 -118 87q0 52 35.5 90.5t113.5 38.5q118 0 118 -87
q0 -52 -35.5 -90.5t-113.5 -38.5zM389 663q0 26 -32 26q-25 0 -36 -16.5t-11 -36.5q0 -27 31 -27q26 0 37 16.5t11 37.5z" />
    <glyph glyph-name="Uhungarumlaut" unicode="&#x170;" horiz-adv-x="652" 
d="M671 675l-86 -443q-26 -132 -106 -188.5t-207 -56.5q-223 0 -223 175q0 34 10 82l84 431h168l-83 -426q-8 -41 -8 -66q0 -40 18.5 -57t58.5 -17q50 0 79.5 27t42.5 95l87 444h165zM751 799l-223 -92l-60 50l202 112zM502 811l-197 -105l-63 43l168 123z" />
    <glyph glyph-name="uhungarumlaut" unicode="&#x171;" horiz-adv-x="550" 
d="M544 505l-97 -505h-132l6 74q-66 -87 -159 -87q-129 0 -129 141q0 38 7.5 82t27 134t32.5 161h161q-13 -64 -27.5 -133t-21.5 -102t-12 -64t-5 -49q0 -43 32 -43t66.5 50.5t50.5 129.5l40 211h160zM615 664l-177 -113l-78 41l151 131zM398 673l-168 -123l-74 43l140 136z
" />
    <glyph glyph-name="Uogonek" unicode="&#x172;" horiz-adv-x="652" 
d="M671 675l-86 -443q-20 -106 -79 -166q-24 -24 -68 -57t-60 -48q-24 -25 -24 -45q0 -17 20 -17q23 0 43 10l12 -68q-51 -26 -106 -26q-99 0 -99 73q0 54 68 101q-14 -2 -20 -2q-223 0 -223 175q0 34 10 82l84 431h168l-83 -426q-8 -41 -8 -66q0 -40 18.5 -57t58.5 -17
q50 0 79.5 27.5t42.5 94.5l87 444h165z" />
    <glyph glyph-name="uogonek" unicode="&#x173;" horiz-adv-x="550" 
d="M544 505l-97 -505q-79 -43 -79 -84q0 -17 20 -17q23 0 43 10l12 -68q-51 -26 -106 -26q-99 0 -99 73q0 49 77 118l6 68q-66 -87 -159 -87q-129 0 -129 141q0 38 7.5 82t27 134t32.5 161h161q-13 -64 -27.5 -133t-21.5 -102t-12 -64t-5 -49q0 -43 32 -43t66.5 50.5
t50.5 129.5l40 211h160z" />
    <glyph glyph-name="Wcircumflex" unicode="&#x174;" horiz-adv-x="868" 
d="M780 675h159q-124 -341 -278 -675h-182l-13 315l2 113h-2l-43 -112l-128 -316h-186q-26 301 -18 675h176q-5 -76 -8 -234t-6 -230h2l37 104l150 360h167l11 -364l-1 -100h3q117 335 158 464zM556 861l144 -84l-50 -64l-108 47l-129 -47l-30 63z" />
    <glyph glyph-name="wcircumflex" unicode="&#x175;" horiz-adv-x="779" 
d="M658 505h156q-62 -217 -214 -505h-192l-6 249l3 84h-2l-28 -84l-96 -249h-198l-24 505h169v-253l-5 -98h3l31 96l94 255h189l5 -261l-3 -90h3q86 216 115 351zM608 613l-56 -61l-92 65l-120 -65l-36 62l176 122z" />
    <glyph glyph-name="Ycircumflex" unicode="&#x176;" horiz-adv-x="494" 
d="M413 675h169q-124 -247 -248 -400l-54 -275h-168l54 275q-67 178 -92 400h176q11 -139 36 -245h3q53 81 124 245zM360 861l144 -84l-50 -64l-108 47l-129 -47l-30 63z" />
    <glyph glyph-name="ycircumflex" unicode="&#x177;" horiz-adv-x="494" 
d="M364 505h169q-55 -180 -122 -316t-135 -214.5t-133 -116.5t-127 -38q-46 0 -87 25l17 92q22 -5 58 -5q46 0 72 24q21 23 21 56q0 36 -8 122l-35 371h166l14 -238q4 -78 -7 -142h3q39 73 77 182t57 198zM466 613l-56 -61l-92 65l-120 -65l-36 62l176 122z" />
    <glyph glyph-name="Ydieresis" unicode="&#x178;" horiz-adv-x="494" 
d="M413 675h169q-124 -247 -248 -400l-54 -275h-168l54 275q-67 178 -92 400h176q11 -139 36 -245h3q53 81 124 245zM531 803q0 -46 -20 -66q-17 -18 -63 -18q-37 0 -52 10.5t-15 36.5q0 45 20 65q19 19 64 19q37 0 51.5 -10.5t14.5 -36.5zM321 803q0 -46 -20 -66
q-18 -18 -64 -18q-37 0 -51.5 10.5t-14.5 36.5q0 45 20 65q19 19 64 19q37 0 51.5 -10.5t14.5 -36.5z" />
    <glyph glyph-name="Zacute" unicode="&#x179;" horiz-adv-x="493" 
d="M415 0h-439l22 114l308 430h-215l29 131h418l-22 -113l-308 -430h235zM540 766l-217 -53l-40 70l201 78z" />
    <glyph glyph-name="zacute" unicode="&#x17a;" horiz-adv-x="400" 
d="M351 120l-26 -120h-354l19 101l209 286h-146l28 118h330l-19 -100l-210 -285h169zM459 669l-182 -118l-76 44l155 134z" />
    <glyph glyph-name="Zdotaccent" unicode="&#x17b;" horiz-adv-x="493" 
d="M415 0h-439l22 114l308 430h-215l29 131h418l-22 -113l-308 -430h235zM335 719q-41 0 -57 10.5t-16 35.5q0 47 22 69t82 22q41 0 57.5 -10.5t16.5 -34.5q0 -46 -23 -69t-82 -23z" />
    <glyph glyph-name="zdotaccent" unicode="&#x17c;" horiz-adv-x="400" 
d="M351 120l-26 -120h-354l19 101l209 286h-146l28 118h330l-19 -100l-210 -285h169zM260 557q-46 0 -66 11.5t-20 38.5q0 17 8 43.5t19 37.5q23 23 82 23q47 0 66.5 -11.5t19.5 -39.5q0 -17 -7.5 -43t-18.5 -37q-23 -23 -83 -23z" />
    <glyph glyph-name="Zcaron" unicode="&#x17d;" horiz-adv-x="493" 
d="M415 0h-439l22 114l308 430h-215l29 131h418l-22 -113l-308 -430h235zM339 713l-147 86l51 62l109 -46l128 46l29 -64z" />
    <glyph glyph-name="zcaron" unicode="&#x17e;" horiz-adv-x="400" 
d="M351 120l-26 -120h-354l19 101l209 286h-146l28 118h330l-19 -100l-210 -285h169zM430 671l-175 -120l-128 123l55 61l93 -65l119 65z" />
    <glyph glyph-name="longs" unicode="&#x17f;" horiz-adv-x="278" 
d="M271 558l-111 -575q-17 -83 -58.5 -125.5t-121.5 -42.5q-68 0 -121 33l33 90q28 -9 51 -9q25 0 38 12t19 42l110 572q17 84 55.5 125.5t113.5 41.5q67 0 118 -28l-34 -94q-22 8 -43 8q-39 0 -49 -50z" />
    <glyph glyph-name="florin" unicode="&#x192;" 
d="M535 649l-27 -87q-38 10 -72 10q-50 0 -65 -61l-28 -120h129l-20 -104h-132l-53 -232q-20 -85 -65 -126t-122 -41q-76 0 -132 34l26 87q43 -9 69 -9q52 0 66 63l52 224h-115l20 104h118l29 126q17 78 62 122t129 44q72 0 131 -34z" />
    <glyph glyph-name="Gcaron" unicode="&#x1e6;" horiz-adv-x="578" 
d="M558 401l-66 -334q-117 -80 -252 -80q-102 0 -154 57.5t-52 167.5q0 113 36.5 217t101.5 169q88 90 216 90q75 0 125.5 -30t72.5 -84l-80 -67q-55 49 -116 49q-51 0 -86 -37q-46 -46 -70.5 -132t-24.5 -167q0 -100 72 -100q30 0 60 15l29 145h-69l23 121h234zM399 713
l-147 86l51 62l109 -46l128 46l29 -64z" />
    <glyph glyph-name="gcaron" unicode="&#x1e7;" horiz-adv-x="543" 
d="M536 494l-96 -494q-36 -185 -256 -185q-89 0 -189 48l23 87q105 -17 163 -17q48 0 69.5 15t28.5 51l7 31q3 19 16 58q-23 -34 -63 -59t-78 -25q-71 0 -106 46.5t-35 122.5q0 41 7 83t28.5 90.5t55 85t91.5 61t133 24.5q46 0 96.5 -6t77.5 -11zM184 187q0 -59 36 -59
q32 0 67.5 46t50.5 124l19 99q-21 8 -47 8q-32 0 -58 -23t-40 -58.5t-21 -71t-7 -65.5zM496 671l-175 -120l-128 123l55 61l93 -65l119 65z" />
    <glyph glyph-name="Aringacute" unicode="&#x1fa;" horiz-adv-x="589" 
d="M534 0h-175q0 7 -1 56t-2 68h-189q-29 -74 -47 -124h-165q156 382 307 675h225q39 -303 47 -675zM215 248h142q-3 136 -15 283h-3q-43 -93 -124 -283zM328 847l176 38l23 -51l-186 -24zM382 684q-113 0 -113 55q0 30 33 46t89 16q113 0 113 -55q0 -30 -33 -46t-89 -16z
M418 743q0 22 -30 22q-33 0 -33 -23q0 -22 30 -22q33 0 33 23z" />
    <glyph glyph-name="aringacute" unicode="&#x1fb;" horiz-adv-x="543" 
d="M19 159q0 46 7 90t28.5 94.5t55 87.5t91.5 61.5t133 24.5q46 0 96.5 -6t77.5 -11l27 -6l-95 -494h-132l6 83q-29 -46 -71.5 -71t-85.5 -25q-70 0 -104 48.5t-34 123.5zM182 178q0 -67 35 -67q33 0 67.5 47t51.5 136l20 103q-20 8 -47 8q-34 0 -60.5 -26t-40 -64.5
t-20 -74t-6.5 -62.5zM314 775l123 110l102 -50l-151 -94zM331 545q-109 0 -109 71q0 40 32.5 70.5t102.5 30.5q109 0 109 -70q0 -41 -32.5 -71.5t-102.5 -30.5zM380 640q0 24 -30 24q-42 0 -42 -42q0 -24 29 -24q23 0 33 13t10 29z" />
    <glyph glyph-name="AEacute" unicode="&#x1fc;" horiz-adv-x="749" 
d="M658 0h-372l23 124h-156q-39 -72 -64 -124h-165q182 339 396 675h465l-25 -127h-200l-27 -142h167l-24 -121h-167l-31 -157h204zM333 248l59 300h-2q-68 -113 -173 -300h116zM751 766l-217 -53l-40 70l201 78z" />
    <glyph glyph-name="aeacute" unicode="&#x1fd;" horiz-adv-x="779" 
d="M694 136l8 -92q-104 -57 -215 -57q-134 0 -169 92q-73 -92 -178 -92q-68 0 -105.5 38t-37.5 94q0 39 13.5 71t44.5 61.5t91.5 46t146.5 16.5h27l6 28q5 32 -10 46.5t-57 14.5q-72 0 -166 -30l-5 96q121 48 222 48q96 0 128 -49q59 49 149 49q82 0 132 -35t50 -99
q0 -167 -312 -167q-4 -26 -4 -39q0 -69 76 -69q75 0 165 28zM619 374q0 38 -49 38q-67 0 -93 -100q83 0 112.5 15.5t29.5 46.5zM302 219h-33q-115 0 -115 -83q0 -37 40 -37q37 0 67 32.5t39 78.5zM635 669l-182 -118l-76 44l155 134z" />
    <glyph glyph-name="Oslashacute" unicode="&#x1fe;" horiz-adv-x="643" 
d="M276 -13q-87 0 -139 29l-79 -100l-78 47l87 110q-33 52 -33 138q0 85 21.5 166.5t63 152.5t114 114.5t164.5 43.5q87 0 139 -29l79 100l78 -47l-87 -110q33 -52 33 -138q0 -87 -21 -168t-62.5 -151t-114 -113t-165.5 -45zM377 570q-40 0 -73 -26.5t-52.5 -64.5t-33 -82.5
t-18.5 -78t-5 -53.5q0 -23 4 -31l248 312q-24 24 -70 24zM296 105q40 0 73 26.5t52.5 64.5t33 82.5t18.5 78t5 53.5q0 23 -4 31l-248 -312q24 -24 70 -24zM603 781l-217 -53l-40 70l201 78z" />
    <glyph glyph-name="oslashacute" unicode="&#x1ff;" horiz-adv-x="549" 
d="M527 339q0 -42 -6.5 -83.5t-26.5 -92t-51.5 -88t-88 -63t-130.5 -25.5q-56 0 -98 15l-70 -85l-73 48l70 86q-33 40 -33 115q0 42 6.5 83.5t26.5 91.5t51.5 87.5t88 63t130.5 25.5q58 0 101 -16l71 86l73 -48l-72 -88q31 -40 31 -112zM371 279q0 9 -4 21l-159 -199
q12 -6 38 -6q43 0 73.5 37t41 76.5t10.5 70.5zM175 219q0 -9 4 -21l163 203q-15 9 -41 9q-35 0 -61.5 -23t-39.5 -56.5t-19 -62t-6 -49.5zM519 669l-182 -118l-76 44l155 134z" />
    <glyph glyph-name="Scommaaccent" unicode="&#x218;" horiz-adv-x="492" 
d="M187 -12q-124 0 -205 71l49 85q78 -34 136 -34q51 0 78.5 22t27.5 61q0 26 -20.5 48t-49.5 40.5t-58.5 40t-50 57t-20.5 81.5q0 98 69 162t188 64q107 0 182 -60l-49 -85q-57 25 -114 25q-48 0 -72.5 -21t-24.5 -55q0 -22 15.5 -41.5t39 -33.5t51 -32.5t51 -38t39 -51.5
t15.5 -71q0 -102 -73.5 -168t-203.5 -66zM188 -31q27 0 42 -13t15 -34q0 -52 -47 -79.5t-132 -25.5l-9 50q66 8 66 34q0 3 -1 8t-1 9q0 20 18 35.5t49 15.5z" />
    <glyph glyph-name="scommaaccent" unicode="&#x219;" horiz-adv-x="425" 
d="M147 -12q-94 0 -169 46l24 80q79 -15 125 -15q87 0 87 54q0 18 -18 30.5t-43.5 22.5t-51 23.5t-43.5 40t-18 65.5q0 73 53 127.5t165 54.5q85 0 154 -43l-27 -79q-61 14 -103 14q-33 0 -52 -13t-19 -36q0 -16 18 -28t44.5 -22.5t52.5 -24.5t44 -41.5t18 -65.5
q0 -85 -65 -137.5t-176 -52.5zM147 -31q27 0 42 -13t15 -34q0 -52 -47 -79.5t-132 -25.5l-9 50q66 8 66 34q0 3 -1 8t-1 9q0 20 18 35.5t49 15.5z" />
    <glyph glyph-name="Tcommaaccent" unicode="&#x21a;" horiz-adv-x="467" 
d="M509 547h-137l-106 -547h-168l106 547h-135l25 128h440zM172 -31q27 0 42 -13t15 -34q0 -52 -47 -79.5t-132 -25.5l-9 50q66 8 66 34q0 3 -1 8t-1 9q0 20 18 35.5t49 15.5z" />
    <glyph glyph-name="tcommaaccent" unicode="&#x21b;" horiz-adv-x="350" 
d="M290 115l1 -91q-75 -36 -137 -36q-121 0 -121 95q0 22 6 54l50 257h-54l22 111h60q35 69 65 148h117l-28 -148h96l-21 -111h-97l-45 -228q-4 -19 -4 -33q0 -26 32 -26q26 0 58 8zM142 -31q27 0 42 -13t15 -34q0 -52 -47 -79.5t-132 -25.5l-9 50q66 8 66 34q0 3 -1 8t-1 9
q0 20 18 35.5t49 15.5z" />
    <glyph glyph-name="dotlessj" unicode="&#x237;" horiz-adv-x="267" 
d="M261 505l-89 -456q-14 -74 -50.5 -129t-107.5 -105l-101 51q79 80 96 168l92 471h160z" />
    <glyph glyph-name="apostrophe" unicode="&#x2bc;" horiz-adv-x="213" 
d="M206 780q34 0 47 -12t13 -38q0 -61 -40 -121.5t-121 -105.5l-44 50q74 51 74 86q0 7 -8.5 20t-8.5 30q0 51 23 74q17 17 65 17z" />
    <glyph glyph-name="circumflex" unicode="&#x2c6;" horiz-adv-x="372" 
d="M407 613l-56 -61l-92 65l-120 -65l-36 62l176 122z" />
    <glyph glyph-name="caron" unicode="&#x2c7;" horiz-adv-x="372" 
d="M418 671l-175 -120l-128 123l55 61l93 -65l119 65z" />
    <glyph glyph-name="breve" unicode="&#x2d8;" horiz-adv-x="380" 
d="M340 726h96q-14 -86 -62 -131t-122 -45t-108.5 44t-18.5 132h97q-8 -39 2.5 -55t40.5 -16q31 0 49 16t26 55z" />
    <glyph glyph-name="dotaccent" unicode="&#x2d9;" horiz-adv-x="257" 
d="M189 557q-46 0 -66 11.5t-20 38.5q0 17 8 43.5t19 37.5q23 23 82 23q47 0 66.5 -11.5t19.5 -39.5q0 -17 -7.5 -43t-18.5 -37q-23 -23 -83 -23z" />
    <glyph glyph-name="ring" unicode="&#x2da;" horiz-adv-x="334" 
d="M227 541q-118 0 -118 87q0 52 35.5 90.5t113.5 38.5q118 0 118 -87q0 -52 -35.5 -90.5t-113.5 -38.5zM282 663q0 26 -32 26q-25 0 -36 -16.5t-11 -36.5q0 -27 31 -27q26 0 37 16.5t11 37.5z" />
    <glyph glyph-name="ogonek" unicode="&#x2db;" horiz-adv-x="281" 
d="M156 -91l12 -68q-51 -26 -106 -26q-99 0 -99 73q0 49 71 112h137q-38 -20 -58 -43.5t-20 -40.5t20 -17q23 0 43 10z" />
    <glyph glyph-name="tilde" unicode="&#x2dc;" horiz-adv-x="415" 
d="M395 704l59 -44q-48 -97 -128 -97q-28 0 -49.5 11.5t-35.5 22.5t-25 11q-13 0 -22.5 -9t-27.5 -36l-60 44q49 97 128 97q37 0 69 -22.5t42 -22.5q12 0 22 9t28 36z" />
    <glyph glyph-name="hungarumlaut" unicode="&#x2dd;" horiz-adv-x="513" 
d="M558 664l-177 -113l-78 41l151 131zM341 673l-168 -123l-74 43l140 136z" />
    <glyph glyph-name="uni0312" unicode="&#x312;" horiz-adv-x="253" 
d="M104 607q0 49 44.5 82.5t141.5 28.5l8 -51q-32 -4 -52 -15.5t-20 -23.5q0 -3 1 -8t1 -9q0 -21 -17.5 -37t-50.5 -16q-56 0 -56 49z" />
    <glyph glyph-name="uni0315" unicode="&#x315;" horiz-adv-x="210" 
d="M269 741l-99 -191l-77 15l70 198z" />
    <glyph glyph-name="uni0326" unicode="&#x326;" horiz-adv-x="249" 
d="M90 -31q27 0 42 -13t15 -34q0 -52 -47 -79.5t-132 -25.5l-9 50q66 8 66 34q0 3 -1 8t-1 9q0 20 18 35.5t49 15.5z" />
    <glyph glyph-name="Delta" unicode="&#x2206;" horiz-adv-x="570" 
d="M500 0h-531l22 114q125 296 261 561h225q33 -235 45 -561zM154 124h194q2 229 -15 407h-4q-97 -206 -175 -407z" />
    <glyph glyph-name="Delta" unicode="&#x394;" horiz-adv-x="570" 
d="M500 0h-531l22 114q125 296 261 561h225q33 -235 45 -561zM154 124h194q2 229 -15 407h-4q-97 -206 -175 -407z" />
    <glyph glyph-name="Omega" unicode="&#x2126;" horiz-adv-x="653" 
d="M577 0h-262l18 99q46 24 79 101t45 144t12 109q0 59 -18 83.5t-66 24.5t-83.5 -40.5t-52 -100.5t-24 -109.5t-7.5 -86.5q0 -90 39 -125l-20 -99h-261l21 106h111q-61 55 -61 163q0 58 13 115.5t41.5 112.5t69.5 97.5t101.5 68t132.5 25.5q124 0 182.5 -55.5t58.5 -171.5
q0 -107 -41 -203.5t-119 -151.5h111z" />
    <glyph glyph-name="Omega" unicode="&#x3a9;" horiz-adv-x="653" 
d="M577 0h-262l18 99q46 24 79 101t45 144t12 109q0 59 -18 83.5t-66 24.5t-83.5 -40.5t-52 -100.5t-24 -109.5t-7.5 -86.5q0 -90 39 -125l-20 -99h-261l21 106h111q-61 55 -61 163q0 58 13 115.5t41.5 112.5t69.5 97.5t101.5 68t132.5 25.5q124 0 182.5 -55.5t58.5 -171.5
q0 -107 -41 -203.5t-119 -151.5h111z" />
    <glyph glyph-name="pi" unicode="&#x3c0;" horiz-adv-x="614" 
d="M609 386h-88q-41 -199 -41 -247q0 -19 5.5 -25.5t19.5 -6.5q23 0 50 7v-93q-57 -32 -122 -32q-61 0 -87.5 22t-26.5 77q0 73 46 298h-111q-44 -220 -87 -386h-164q69 250 95 386h-64l22 119h575z" />
    <glyph glyph-name="uni1E02" unicode="&#x1e02;" horiz-adv-x="581" 
d="M228 -2q-26 0 -101 1t-114 1l131 675h229q206 0 206 -136q0 -55 -29 -101t-86 -70q44 -11 68 -42.5t24 -76.5q0 -44 -17.5 -85.5t-53.5 -80t-102.5 -62t-154.5 -23.5zM376 230q0 65 -91 65h-49l-35 -178q36 -3 52 -3q65 0 94 36t29 80zM403 506q0 54 -65 54h-51l-29 -153
h39q53 0 79.5 31t26.5 68zM361 719q-41 0 -57 10.5t-16 35.5q0 47 22 69t82 22q41 0 57.5 -10.5t16.5 -34.5q0 -46 -23 -69t-82 -23z" />
    <glyph glyph-name="uni1E03" unicode="&#x1e03;" horiz-adv-x="543" 
d="M206 -13q-46 0 -96.5 6t-77.5 12l-27 6l135 698h160l-38 -203q-1 -3 -19 -69q25 34 63 57t79 23q69 0 103 -48.5t34 -122.5q0 -32 -3.5 -63t-13 -67.5t-24.5 -68t-40 -61.5t-57 -51.5t-77.5 -34.5t-100.5 -13zM359 326q0 67 -35 67q-33 0 -68 -47.5t-52 -135.5l-20 -102
q21 -8 47 -8q34 0 61 26t40.5 64t20 73.5t6.5 62.5zM221 741q-44 0 -60.5 9.5t-16.5 32.5q0 48 23 73q23 21 82 21q45 0 61.5 -9.5t16.5 -32.5q0 -18 -7 -40.5t-17 -32.5q-21 -21 -82 -21z" />
    <glyph glyph-name="uni1E0A" unicode="&#x1e0a;" horiz-adv-x="605" 
d="M603 449q0 -79 -30.5 -180.5t-100.5 -171.5q-101 -101 -258 -101q-41 0 -114 2t-87 2l131 675q41 0 107 1t97 1q130 0 192.5 -60.5t62.5 -167.5zM423 439q0 61 -24 87.5t-73 26.5q-26 0 -38 -1l-83 -427q24 -2 34 -2q53 0 95 40q46 46 67.5 130t21.5 146zM362 719
q-41 0 -57 10.5t-16 35.5q0 47 22 69t82 22q41 0 57.5 -10.5t16.5 -34.5q0 -46 -23 -69t-82 -23z" />
    <glyph glyph-name="uni1E0B" unicode="&#x1e0b;" horiz-adv-x="543" 
d="M440 0h-132l6 74q-31 -40 -73 -63.5t-84 -23.5q-70 0 -104 48.5t-34 123.5q0 46 7 90t28.5 94t55 87.5t92 62t133.5 24.5l44 -3l36 187h160zM182 178q0 -67 35 -67q33 0 67.5 47t51.5 136l20 103q-20 8 -47 8q-34 0 -60.5 -26t-40 -64.5t-20 -74t-6.5 -62.5zM502 741
q-44 0 -60.5 9.5t-16.5 32.5q0 48 23 73q23 21 82 21q45 0 61.5 -9.5t16.5 -32.5q0 -18 -7 -40.5t-17 -32.5q-21 -21 -82 -21z" />
    <glyph glyph-name="uni1E1E" unicode="&#x1e1e;" horiz-adv-x="456" 
d="M483 548h-196l-30 -154h175l-24 -124h-175l-52 -270h-168l131 675h364zM337 719q-41 0 -57 10.5t-16 35.5q0 47 22 69t82 22q41 0 57.5 -10.5t16.5 -34.5q0 -46 -23 -69t-82 -23z" />
    <glyph glyph-name="uni1E1F" unicode="&#x1e1f;" horiz-adv-x="310" 
d="M348 505l-21 -111h-78l-80 -412q-16 -82 -58 -124.5t-122 -42.5q-68 0 -121 33l33 90q29 -9 51 -9q25 0 38.5 12t18.5 42l80 411h-54l21 111h54l7 35q16 82 58 124.5t122 42.5q76 0 123 -30l-33 -89q-29 8 -52 8q-48 0 -57 -53l-8 -38h78zM286 741q-44 0 -60.5 9.5
t-16.5 32.5q0 48 23 73q23 21 82 21q45 0 61.5 -9.5t16.5 -32.5q0 -18 -7 -40.5t-17 -32.5q-21 -21 -82 -21z" />
    <glyph glyph-name="uni1E40" unicode="&#x1e40;" horiz-adv-x="853" 
d="M757 0h-175q42 236 72 471h-1l-215 -471h-144l-32 471h-1q-45 -169 -106 -471h-157q74 340 178 675h215l36 -415h1l194 415h216q-30 -344 -81 -675zM509 719q-41 0 -57 10.5t-16 35.5q0 47 22 69t82 22q41 0 57.5 -10.5t16.5 -34.5q0 -46 -23 -69t-82 -23z" />
    <glyph glyph-name="uni1E41" unicode="&#x1e41;" horiz-adv-x="826" 
d="M723 0h-160q15 78 33.5 164t25.5 123t7 60q0 42 -29 42q-32 0 -65.5 -46t-50.5 -133l-41 -210h-160l46 227q18 91 18 120q0 42 -29 42q-32 0 -64.5 -46t-49.5 -133l-41 -210h-160l98 505h132l-6 -74q67 86 156 86q102 0 121 -90q68 90 160 90q128 0 128 -140
q0 -38 -8 -83.5t-27.5 -132t-33.5 -161.5zM474 557q-46 0 -66 11.5t-20 38.5q0 17 8 43.5t19 37.5q23 23 82 23q47 0 66.5 -11.5t19.5 -39.5q0 -17 -7.5 -43t-18.5 -37q-23 -23 -83 -23z" />
    <glyph glyph-name="uni1E56" unicode="&#x1e56;" horiz-adv-x="557" 
d="M584 508q0 -41 -7.5 -78.5t-30 -78.5t-57.5 -70t-96 -48t-140 -19h-31l-41 -214h-168l131 675q38 0 111.5 1t104.5 1q114 0 169 -44.5t55 -124.5zM406 483q0 72 -85 72h-32l-43 -219h30q69 0 99.5 44.5t30.5 102.5zM363 719q-41 0 -57 10.5t-16 35.5q0 47 22 69t82 22
q41 0 57.5 -10.5t16.5 -34.5q0 -46 -23 -69t-82 -23z" />
    <glyph glyph-name="uni1E57" unicode="&#x1e57;" horiz-adv-x="543" 
d="M522 346q0 -32 -3.5 -63t-13 -67.5t-24.5 -68t-40 -61.5t-57 -51.5t-77.5 -34.5t-100.5 -13l-44 3l-33 -163h-160l132 678h132l-6 -74q31 40 73 63t84 23q70 0 104 -48.5t34 -122.5zM359 326q0 67 -35 67q-33 0 -68 -47.5t-52 -135.5l-20 -102q21 -8 47 -8q34 0 61 26
t40.5 64t20 73.5t6.5 62.5zM333 557q-46 0 -66 11.5t-20 38.5q0 17 8 43.5t19 37.5q23 23 82 23q47 0 66.5 -11.5t19.5 -39.5q0 -17 -7.5 -43t-18.5 -37q-23 -23 -83 -23z" />
    <glyph glyph-name="uni1E60" unicode="&#x1e60;" horiz-adv-x="492" 
d="M187 -12q-124 0 -205 71l49 85q78 -34 136 -34q51 0 78.5 22t27.5 61q0 26 -20.5 48t-49.5 40.5t-58.5 40t-50 57t-20.5 81.5q0 98 69 162t188 64q107 0 182 -60l-49 -85q-57 25 -114 25q-48 0 -72.5 -21t-24.5 -55q0 -22 15.5 -41.5t39 -33.5t51 -32.5t51 -38t39 -51.5
t15.5 -71q0 -102 -73.5 -168t-203.5 -66zM332 727q-41 0 -57 10.5t-16 35.5q0 47 22 69t82 22q41 0 57.5 -10.5t16.5 -34.5q0 -46 -23 -69t-82 -23z" />
    <glyph glyph-name="uni1E61" unicode="&#x1e61;" horiz-adv-x="425" 
d="M147 -12q-94 0 -169 46l24 80q79 -15 125 -15q87 0 87 54q0 18 -18 30.5t-43.5 22.5t-51 23.5t-43.5 40t-18 65.5q0 73 53 127.5t165 54.5q85 0 154 -43l-27 -79q-61 14 -103 14q-33 0 -52 -13t-19 -36q0 -16 18 -28t44.5 -22.5t52.5 -24.5t44 -41.5t18 -65.5
q0 -85 -65 -137.5t-176 -52.5zM273 562q-46 0 -66 11.5t-20 38.5q0 17 8 43.5t19 37.5q23 23 82 23q47 0 66.5 -11.5t19.5 -39.5q0 -17 -7.5 -43t-18.5 -37q-23 -23 -83 -23z" />
    <glyph glyph-name="uni1E6A" unicode="&#x1e6a;" horiz-adv-x="467" 
d="M509 547h-137l-106 -547h-168l106 547h-135l25 128h440zM318 719q-41 0 -57 10.5t-16 35.5q0 47 22 69t82 22q41 0 57.5 -10.5t16.5 -34.5q0 -46 -23 -69t-82 -23z" />
    <glyph glyph-name="uni1E6B" unicode="&#x1e6b;" horiz-adv-x="350" 
d="M290 115l1 -91q-75 -36 -137 -36q-121 0 -121 95q0 22 6 54l50 257h-54l22 111h60q35 69 65 148h117l-28 -148h96l-21 -111h-97l-45 -228q-4 -19 -4 -33q0 -26 32 -26q26 0 58 8zM255 695q-46 0 -66 11.5t-20 38.5q0 17 8 43.5t19 37.5q23 23 82 23q47 0 66.5 -11.5
t19.5 -39.5q0 -17 -7.5 -43t-18.5 -37q-23 -23 -83 -23z" />
    <glyph glyph-name="Wgrave" unicode="&#x1e80;" horiz-adv-x="868" 
d="M780 675h159q-124 -341 -278 -675h-182l-13 315l2 113h-2l-43 -112l-128 -316h-186q-26 301 -18 675h176q-5 -76 -8 -234t-6 -230h2l37 104l150 360h167l11 -364l-1 -100h3q117 335 158 464zM649 778l-55 -65l-206 60l81 88z" />
    <glyph glyph-name="wgrave" unicode="&#x1e81;" horiz-adv-x="779" 
d="M658 505h156q-62 -217 -214 -505h-192l-6 249l3 84h-2l-28 -84l-96 -249h-198l-24 505h169v-253l-5 -98h3l31 96l94 255h189l5 -261l-3 -90h3q86 216 115 351zM536 590l-84 -39l-144 125l117 53z" />
    <glyph glyph-name="Wacute" unicode="&#x1e82;" horiz-adv-x="868" 
d="M780 675h159q-124 -341 -278 -675h-182l-13 315l2 113h-2l-43 -112l-128 -316h-186q-26 301 -18 675h176q-5 -76 -8 -234t-6 -230h2l37 104l150 360h167l11 -364l-1 -100h3q117 335 158 464zM695 766l-217 -53l-40 70l201 78z" />
    <glyph glyph-name="wacute" unicode="&#x1e83;" horiz-adv-x="779" 
d="M658 505h156q-62 -217 -214 -505h-192l-6 249l3 84h-2l-28 -84l-96 -249h-198l-24 505h169v-253l-5 -98h3l31 96l94 255h189l5 -261l-3 -90h3q86 216 115 351zM610 669l-182 -118l-76 44l155 134z" />
    <glyph glyph-name="Wdieresis" unicode="&#x1e84;" horiz-adv-x="868" 
d="M780 675h159q-124 -341 -278 -675h-182l-13 315l2 113h-2l-43 -112l-128 -316h-186q-26 301 -18 675h176q-5 -76 -8 -234t-6 -230h2l37 104l150 360h167l11 -364l-1 -100h3q117 335 158 464zM729 803q0 -46 -20 -66q-17 -18 -63 -18q-37 0 -52 10.5t-15 36.5q0 45 20 65
q19 19 64 19q37 0 51.5 -10.5t14.5 -36.5zM519 803q0 -46 -20 -66q-18 -18 -64 -18q-37 0 -51.5 10.5t-14.5 36.5q0 45 20 65q19 19 64 19q37 0 51.5 -10.5t14.5 -36.5z" />
    <glyph glyph-name="wdieresis" unicode="&#x1e85;" horiz-adv-x="779" 
d="M658 505h156q-62 -217 -214 -505h-192l-6 249l3 84h-2l-28 -84l-96 -249h-198l-24 505h169v-253l-5 -98h3l31 96l94 255h189l5 -261l-3 -90h3q86 216 115 351zM640 654q0 -18 -7 -41t-18 -33q-18 -18 -60 -18q-67 0 -67 48q0 18 7 41t18 33q18 18 61 18q66 0 66 -48z
M437 654q0 -18 -7 -40.5t-18 -33.5q-18 -18 -61 -18q-67 0 -67 48q0 18 7.5 40.5t18.5 33.5q18 18 60 18q67 0 67 -48z" />
    <glyph glyph-name="Ygrave" unicode="&#x1ef2;" horiz-adv-x="494" 
d="M413 675h169q-124 -247 -248 -400l-54 -275h-168l54 275q-67 178 -92 400h176q11 -139 36 -245h3q53 81 124 245zM425 778l-55 -65l-206 60l81 88z" />
    <glyph glyph-name="ygrave" unicode="&#x1ef3;" horiz-adv-x="494" 
d="M364 505h169q-55 -180 -122 -316t-135 -214.5t-133 -116.5t-127 -38q-46 0 -87 25l17 92q22 -5 58 -5q46 0 72 24q21 23 21 56q0 36 -8 122l-35 371h166l14 -238q4 -78 -7 -142h3q39 73 77 182t57 198zM394 590l-84 -39l-144 125l117 53z" />
    <glyph glyph-name="endash" unicode="&#x2013;" 
d="M453 244h-411l22 113h412z" />
    <glyph glyph-name="emdash" unicode="&#x2014;" horiz-adv-x="1000" 
d="M881 244h-767l21 113h768z" />
    <glyph glyph-name="uni2015" unicode="&#x2015;" horiz-adv-x="1000" 
d="M881 244h-767l21 113h768z" />
    <glyph glyph-name="quoteleft" unicode="&#x2018;" horiz-adv-x="288" 
d="M302 806l53 -60q-87 -60 -87 -101q0 -9 10.5 -25t10.5 -36q0 -23 -7.5 -50t-20.5 -40q-21 -20 -79 -20q-41 0 -57 14t-16 46q0 74 48 146t145 126z" />
    <glyph glyph-name="quoteright" unicode="&#x2019;" horiz-adv-x="291" 
d="M130 442l-53 60q87 60 87 101q0 9 -10.5 25t-10.5 36q0 22 7.5 49.5t20.5 40.5q21 20 79 20q42 0 57.5 -14t15.5 -46q0 -74 -48 -146t-145 -126z" />
    <glyph glyph-name="quotesinglbase" unicode="&#x201a;" horiz-adv-x="300" 
d="M10 -170l-53 61q87 59 87 100q0 9 -11 25t-11 36q0 22 8 49.5t21 40.5q21 20 79 20q41 0 57 -13.5t16 -45.5q0 -75 -48 -147t-145 -126z" />
    <glyph glyph-name="quotedblleft" unicode="&#x201c;" horiz-adv-x="486" 
d="M296 803l44 -59q-86 -58 -86 -99q0 -9 10.5 -24t10.5 -35q0 -22 -7.5 -48.5t-20.5 -39.5q-22 -20 -69 -20q-39 0 -53.5 13.5t-14.5 44.5q0 73 46 144t140 123zM504 797l44 -59q-80 -53 -80 -93q0 -9 10.5 -24t10.5 -35q0 -22 -7.5 -48.5t-20.5 -39.5q-22 -20 -69 -20
q-39 0 -53.5 13.5t-14.5 44.5q0 73 45 142.5t135 118.5z" />
    <glyph glyph-name="quotedblright" unicode="&#x201d;" horiz-adv-x="489" 
d="M335 445l-44 59q85 58 85 99q0 8 -10.5 23t-10.5 35q0 23 8 49t21 39q22 20 68 20q39 0 53.5 -13.5t14.5 -44.5q0 -73 -45.5 -143.5t-139.5 -122.5zM126 450l-44 60q80 52 80 93q0 8 -10.5 23t-10.5 35q0 22 8 48.5t21 39.5q22 20 68 20q39 0 53.5 -13.5t14.5 -44.5
q0 -73 -45 -143t-135 -118z" />
    <glyph glyph-name="quotedblbase" unicode="&#x201e;" horiz-adv-x="498" 
d="M214 -167l-44 59q85 57 85 99q0 8 -10 23t-10 35q0 22 7.5 48.5t20.5 39.5q22 20 68 20q40 0 54 -13.5t14 -44.5q0 -73 -45.5 -143.5t-139.5 -122.5zM5 -162l-44 60q80 51 80 93q0 8 -10 23t-10 35q0 22 7.5 48.5t20.5 39.5q22 20 69 20q39 0 53 -13.5t14 -44.5
q0 -73 -45 -143t-135 -118z" />
    <glyph glyph-name="dagger" unicode="&#x2020;" horiz-adv-x="395" 
d="M414 491h-98l-58 -302h-149l58 302h-97l19 100h98l23 118h149l-23 -118h97z" />
    <glyph glyph-name="daggerdbl" unicode="&#x2021;" horiz-adv-x="395" 
d="M344 130h-98l-25 -130h-147l24 130h-99l20 99h99l48 248h-99l19 99h99l26 133h147l-26 -133h98l-18 -99h-99l-48 -248h98z" />
    <glyph glyph-name="bullet" unicode="&#x2022;" 
d="M457 310q0 -87 -61 -147t-145 -60q-80 0 -136 55.5t-56 134.5q0 88 61 148t145 60q80 0 136 -55.5t56 -135.5z" />
    <glyph glyph-name="perthousand" unicode="&#x2030;" horiz-adv-x="1060" 
d="M217 364q-71 0 -101.5 26.5t-30.5 84.5q0 39 10.5 75t32.5 68t60 51t88 19q72 0 102.5 -26t30.5 -85q0 -39 -10.5 -75t-32.5 -68t-60.5 -51t-88.5 -19zM295 564q0 42 -33 42q-32 0 -47.5 -40t-15.5 -78q0 -42 33 -42q32 0 47.5 40t15.5 78zM727 652l-638 -676l-74 47
l639 676zM464 -13q-71 0 -101.5 26.5t-30.5 84.5q0 49 17.5 95.5t63 82t110.5 35.5q71 0 101.5 -26.5t30.5 -84.5q0 -39 -10.5 -75t-32 -68t-60 -51t-88.5 -19zM542 187q0 42 -33 42q-32 0 -47.5 -40t-15.5 -78q0 -42 32 -42t48 40t16 78zM813 -13q-71 0 -101.5 26.5
t-30.5 84.5q0 39 10.5 75t32 68t60 51t88.5 19q71 0 101.5 -26.5t30.5 -84.5q0 -39 -10.5 -75t-32 -68t-60 -51t-88.5 -19zM891 187q0 42 -33 42q-32 0 -48 -40t-16 -78q0 -42 33 -42q32 0 48 40t16 78z" />
    <glyph glyph-name="guilsinglleft" unicode="&#x2039;" horiz-adv-x="310" 
d="M244 110l-112 -30l-100 215l175 207l106 -39l-128 -176z" />
    <glyph glyph-name="guilsinglright" unicode="&#x203a;" horiz-adv-x="310" 
d="M79 472l112 30l100 -215l-175 -207l-106 39l128 176z" />
    <glyph glyph-name="exclamdbl" unicode="&#x203c;" horiz-adv-x="642" 
d="M370 675l-119 -480h-143l67 480h195zM147 -10q-48 0 -67.5 13.5t-19.5 45.5q0 57 24 81q23 23 83 23q49 0 68 -13t19 -45q0 -57 -24 -81t-83 -24zM658 675l-119 -480h-143l67 480h195zM435 -10q-48 0 -67.5 13.5t-19.5 45.5q0 57 24 81q23 23 83 23q49 0 68 -13t19 -45
q0 -57 -24 -81t-83 -24z" />
    <glyph glyph-name="fraction" unicode="&#x2044;" horiz-adv-x="97" 
d="M458 686l-724 -774l-73 46l723 775z" />
    <glyph glyph-name="zero.superior" unicode="&#x2070;" horiz-adv-x="416" 
d="M448 608q0 -58 -21 -123t-54 -97q-54 -52 -150 -52q-72 0 -111 31.5t-39 91.5q0 58 21 123t54 97q53 53 150 53q72 0 111 -31.5t39 -92.5zM312 607q0 38 -30 38q-17 0 -30 -13q-17 -17 -30 -78t-13 -94q0 -37 30 -37q18 0 30 12q17 17 30 78t13 94z" />
    <glyph glyph-name="four.superior" unicode="&#x2074;" horiz-adv-x="368" 
d="M381 412h-37l-14 -65h-129l13 65h-171l17 91q59 95 157 218h186l-41 -217h37zM232 504l29 142h-3q-50 -58 -101 -142h75z" />
    <glyph glyph-name="five.superior" unicode="&#x2075;" horiz-adv-x="363" 
d="M384 487q0 -25 -9 -49t-29.5 -48.5t-61 -39t-96.5 -14.5q-70 0 -141 32l20 61q56 -10 97 -10q39 0 58 14t19 35q0 29 -58 29q-41 0 -95 -6l59 230h251l-18 -95h-139l-16 -58q19 3 43 3q116 0 116 -84z" />
    <glyph glyph-name="six.superior" unicode="&#x2076;" horiz-adv-x="403" 
d="M423 495q0 -56 -50.5 -107.5t-145.5 -51.5q-152 0 -152 127q0 117 60.5 193t178.5 76q72 0 131 -29l-23 -61q-68 8 -96 8q-47 0 -69.5 -19t-33.5 -68q46 22 89 22q61 0 86 -23.5t25 -66.5zM294 484q0 28 -38 28q-19 0 -44 -10q-5 -21 -5 -47q0 -41 31 -41q27 0 41.5 22
t14.5 48z" />
    <glyph glyph-name="seven.superior" unicode="&#x2077;" horiz-adv-x="339" 
d="M396 627l-97 -130q-73 -96 -148 -162l-97 28l186 258h-153l19 100h307z" />
    <glyph glyph-name="eight.superior" unicode="&#x2078;" horiz-adv-x="408" 
d="M428 466q0 -62 -54 -97t-153 -35q-170 0 -170 90q0 72 100 103q-55 28 -55 80q0 57 52.5 91.5t141.5 34.5q80 0 121.5 -24.5t41.5 -64.5q0 -60 -88 -98q63 -27 63 -80zM321 634q0 27 -39 27q-52 0 -52 -38q0 -25 44 -46q47 27 47 57zM289 446q0 14 -11.5 23.5t-42.5 22.5
q-46 -24 -46 -56q0 -30 45 -30q27 0 41 11t14 29z" />
    <glyph glyph-name="nine.superior" unicode="&#x2079;" horiz-adv-x="401" 
d="M89 572q0 58 48.5 109t150.5 51q78 0 113.5 -30.5t35.5 -92.5q0 -120 -60.5 -196.5t-177.5 -76.5q-73 0 -138 30l22 62q62 -11 103 -11q48 0 70.5 20t32.5 68q-48 -23 -89 -23q-111 0 -111 90zM218 584q0 -29 38 -29q21 0 45 11q5 28 5 46q0 41 -33 41q-26 0 -40.5 -22
t-14.5 -47z" />
    <glyph glyph-name="uni207A" unicode="&#x207a;" horiz-adv-x="334" 
d="M350 485h-83l-16 -85h-112l16 85h-83l19 97h83l16 86h113l-17 -86h83z" />
    <glyph glyph-name="uni207B" unicode="&#x207b;" horiz-adv-x="334" 
d="M350 485h-278l19 97h278z" />
    <glyph glyph-name="uni207C" unicode="&#x207c;" horiz-adv-x="334" 
d="M361 555h-272l16 87h273zM336 426h-272l16 86h273z" />
    <glyph glyph-name="parenleft.superior" unicode="&#x207d;" horiz-adv-x="220" 
d="M226 291l-95 -18q-49 85 -49 194q0 85 35.5 178t113.5 170l91 -29q-111 -182 -111 -346q0 -77 15 -149z" />
    <glyph glyph-name="parenright.superior" unicode="&#x207e;" horiz-adv-x="219" 
d="M120 796l95 19q49 -86 49 -195q0 -85 -35.5 -178t-113.5 -169l-91 28q111 182 111 346q0 71 -15 149z" />
    <glyph glyph-name="nsuperior" unicode="&#x207f;" horiz-adv-x="394" 
d="M423 591q0 -30 -45 -244h-130q40 202 40 219q0 22 -17 22t-35.5 -27t-28.5 -79l-26 -135h-132l64 326h106l1 -49q46 55 115 55q88 0 88 -88z" />
    <glyph glyph-name="zero.inferior" unicode="&#x2080;" horiz-adv-x="416" 
d="M367 193q0 -58 -21 -123t-54 -97q-54 -52 -150 -52q-72 0 -111 31.5t-39 91.5q0 58 21 123t54 97q53 53 150 53q72 0 111 -31.5t39 -92.5zM231 192q0 38 -30 38q-17 0 -30 -13q-17 -17 -30 -78t-13 -94q0 -37 30 -37q18 0 30 12q17 17 30 78t13 94z" />
    <glyph glyph-name="one.inferior" unicode="&#x2081;" horiz-adv-x="349" 
d="M259 -68h-283l18 92h78l34 176l-70 -19l-3 76l126 51h104l-55 -284h69z" />
    <glyph glyph-name="two.inferior" unicode="&#x2082;" horiz-adv-x="370" 
d="M279 -68h-310l19 94q119 81 156 113.5t37 58.5t-42 26q-34 0 -99 -19l-7 79q89 33 159 33q65 0 99.5 -26.5t34.5 -69.5q0 -50 -47.5 -95t-141.5 -94v-3h161z" />
    <glyph glyph-name="three.inferior" unicode="&#x2083;" horiz-adv-x="365" 
d="M299 61q0 -21 -7.5 -42t-27 -45t-61.5 -38.5t-103 -14.5q-78 0 -140 28l21 66q57 -10 98 -10q79 0 79 46q0 16 -14.5 23.5t-54.5 7.5h-48l16 84h58q66 0 66 40q0 26 -44 26q-40 0 -94 -16l-8 74q81 27 144 27q143 0 143 -89q0 -38 -24 -62.5t-61 -35.5q62 -15 62 -69z
" />
    <glyph glyph-name="four.inferior" unicode="&#x2084;" horiz-adv-x="368" 
d="M300 -3h-37l-14 -65h-129l13 65h-171l17 91q59 95 157 218h186l-41 -217h37zM151 89l29 142h-3q-50 -58 -101 -142h75z" />
    <glyph glyph-name="five.inferior" unicode="&#x2085;" horiz-adv-x="363" 
d="M303 72q0 -25 -9 -49t-29.5 -48.5t-61 -39t-96.5 -14.5q-70 0 -141 32l20 61q56 -10 97 -10q39 0 58 14t19 35q0 29 -58 29q-41 0 -95 -6l59 230h251l-18 -95h-139l-16 -58q19 3 43 3q116 0 116 -84z" />
    <glyph glyph-name="six.inferior" unicode="&#x2086;" horiz-adv-x="403" 
d="M342 80q0 -56 -50.5 -107.5t-145.5 -51.5q-152 0 -152 127q0 117 60.5 193t178.5 76q72 0 131 -29l-23 -61q-68 8 -96 8q-47 0 -69.5 -19t-33.5 -68q46 22 89 22q61 0 86 -23.5t25 -66.5zM213 69q0 28 -38 28q-19 0 -44 -10q-5 -21 -5 -47q0 -41 31 -41q27 0 41.5 22
t14.5 48z" />
    <glyph glyph-name="seven.inferior" unicode="&#x2087;" horiz-adv-x="339" 
d="M315 212l-97 -130q-73 -96 -148 -162l-97 28l186 258h-153l19 100h307z" />
    <glyph glyph-name="eight.inferior" unicode="&#x2088;" horiz-adv-x="420" 
d="M353 51q0 -62 -54 -97t-153 -35q-170 0 -170 90q0 72 100 103q-55 28 -55 80q0 57 52.5 91.5t141.5 34.5q80 0 121.5 -24.5t41.5 -64.5q0 -60 -88 -98q63 -27 63 -80zM246 219q0 27 -39 27q-52 0 -52 -38q0 -25 44 -46q47 27 47 57zM214 31q0 14 -11.5 23.5t-42.5 22.5
q-46 -24 -46 -56q0 -30 45 -30q27 0 41 11t14 29z" />
    <glyph glyph-name="nine.inferior" unicode="&#x2089;" horiz-adv-x="401" 
d="M6 157q0 58 48.5 109t150.5 51q78 0 113.5 -30.5t35.5 -92.5q0 -120 -60.5 -196.5t-177.5 -76.5q-73 0 -138 30l22 62q62 -11 103 -11q48 0 70.5 20t32.5 68q-48 -23 -89 -23q-111 0 -111 90zM135 169q0 -29 38 -29q21 0 45 11q5 28 5 46q0 41 -33 41q-26 0 -40.5 -22
t-14.5 -47z" />
    <glyph glyph-name="uni208A" unicode="&#x208a;" horiz-adv-x="334" 
d="M269 70h-83l-16 -85h-112l16 85h-83l19 97h83l16 86h113l-17 -86h83z" />
    <glyph glyph-name="uni208B" unicode="&#x208b;" horiz-adv-x="334" 
d="M269 70h-278l19 97h278z" />
    <glyph glyph-name="uni208C" unicode="&#x208c;" horiz-adv-x="334" 
d="M280 140h-272l16 87h273zM255 11h-272l16 86h273z" />
    <glyph glyph-name="parenleft.inferior" unicode="&#x208d;" horiz-adv-x="235" 
d="M145 -124l-95 -18q-49 85 -49 194q0 85 35.5 178t113.5 170l91 -29q-111 -182 -111 -346q0 -77 15 -149z" />
    <glyph glyph-name="parenright.inferior" unicode="&#x208e;" horiz-adv-x="235" 
d="M39 381l95 19q49 -86 49 -195q0 -85 -35.5 -178t-113.5 -169l-91 28q111 182 111 346q0 71 -15 149z" />
    <glyph glyph-name="Euro" unicode="&#x20ac;" 
d="M401 156l52 -79q-90 -90 -199 -90q-103 0 -154.5 59t-49.5 164h-58l19 99h50q2 21 12 61h-50l19 99h60q41 108 111.5 163.5t164.5 55.5q127 0 163 -95l-80 -72q-27 45 -79 45q-80 0 -117 -97h126l-18 -99h-138q-9 -32 -12 -61h137l-18 -99h-125q-3 -40 16 -69.5t59 -29.5
q59 0 109 45z" />
    <glyph glyph-name="uni2117" unicode="&#x2117;" horiz-adv-x="777" 
d="M586 417q0 -84 -53 -123t-140 -39h-21l-18 -91h-114l68 351q24 0 73 0.5t70 0.5q135 0 135 -99zM466 404q0 33 -39 33h-20l-20 -103h20q25 0 42 18t17 52zM357 -17q-145 0 -230.5 87t-85.5 215q0 103 53 196t147.5 151.5t206.5 58.5q145 0 231 -87t86 -215
q0 -103 -53 -196t-148 -151.5t-207 -58.5zM651 375q0 92 -58 157t-154 65q-117 0 -201 -90t-84 -208q0 -92 58 -157t154 -65q117 0 201 90t84 208z" />
    <glyph glyph-name="servicemark" unicode="&#x2120;" horiz-adv-x="451" 
d="M228 565q0 -27 -23 -45.5t-68 -18.5q-44 0 -70 18l16 32q18 -9 43 -9q21 0 21 13q0 6 -14 11.5t-28 18t-14 34.5q0 27 21.5 44t60.5 17q41 0 66 -14l-15 -33q-19 7 -37 7q-20 0 -20 -10q0 -6 15 -12.5t30.5 -19t15.5 -33.5zM473 506h-62q11 50 16 86h-2l-41 -86h-63
l-10 86h-1q-12 -56 -17 -86h-59q16 87 41 169h84l8 -91h1l43 91h85q-9 -89 -23 -169z" />
    <glyph glyph-name="trademark" unicode="&#x2122;" horiz-adv-x="426" 
d="M444 506h-61q14 71 15 86h-1l-42 -86h-63l-9 86h-2q-12 -56 -17 -86h-59q21 103 41 169h84l9 -91h1l42 91h85q-9 -89 -23 -169zM218 623h-30l-23 -117h-66l23 117h-33l10 52h129z" />
    <glyph glyph-name="uni2139" unicode="&#x2139;" horiz-adv-x="403" 
d="M332 0h-361l20 108h104l34 177h-96l21 108h264l-56 -285h90zM243 440q-50 0 -71 12t-21 42q0 22 8 51t21 42q24 24 87 24q49 0 70 -12t21 -42q0 -22 -8 -51t-21 -42q-24 -24 -86 -24z" />
    <glyph glyph-name="onethird" unicode="&#x2153;" horiz-adv-x="794" 
d="M340 347h-283l18 92h78l34 176l-70 -19l-3 76l126 51h104l-55 -284h69zM808 686l-724 -774l-73 46l723 775zM728 61q0 -21 -7.5 -42t-27 -45t-61.5 -38.5t-103 -14.5q-78 0 -140 28l21 66q57 -10 98 -10q79 0 79 46q0 16 -14.5 23.5t-54.5 7.5h-48l16 84h58q66 0 66 40
q0 26 -44 26q-40 0 -94 -16l-8 74q81 27 144 27q143 0 143 -89q0 -38 -24 -62.5t-61 -35.5q62 -15 62 -69z" />
    <glyph glyph-name="twothirds" unicode="&#x2154;" horiz-adv-x="813" 
d="M360 347h-310l19 94q119 81 156 113.5t37 58.5t-42 26q-34 0 -99 -19l-7 79q89 33 159 33q65 0 99.5 -26.5t34.5 -69.5q0 -50 -47.5 -95t-141.5 -94v-3h161zM827 686l-724 -774l-73 46l723 775zM747 61q0 -21 -7.5 -42t-27 -45t-61.5 -38.5t-103 -14.5q-78 0 -140 28
l21 66q57 -10 98 -10q79 0 79 46q0 16 -14.5 23.5t-54.5 7.5h-48l16 84h58q66 0 66 40q0 26 -44 26q-40 0 -94 -16l-8 74q81 27 144 27q143 0 143 -89q0 -38 -24 -62.5t-61 -35.5q62 -15 62 -69z" />
    <glyph glyph-name="onefifth" unicode="&#x2155;" horiz-adv-x="780" 
d="M340 347h-283l18 92h78l34 176l-70 -19l-3 76l126 51h104l-55 -284h69zM808 686l-724 -774l-73 46l723 775zM717 72q0 -25 -9 -49t-29.5 -48.5t-61 -39t-96.5 -14.5q-70 0 -141 32l20 61q56 -10 97 -10q39 0 58 14t19 35q0 29 -58 29q-41 0 -95 -6l59 230h251l-18 -95
h-139l-16 -58q19 3 43 3q116 0 116 -84z" />
    <glyph glyph-name="twofifths" unicode="&#x2156;" horiz-adv-x="799" 
d="M360 347h-310l19 94q119 81 156 113.5t37 58.5t-42 26q-34 0 -99 -19l-7 79q89 33 159 33q65 0 99.5 -26.5t34.5 -69.5q0 -50 -47.5 -95t-141.5 -94v-3h161zM827 686l-724 -774l-73 46l723 775zM736 72q0 -25 -9 -49t-29.5 -48.5t-61 -39t-96.5 -14.5q-70 0 -141 32
l20 61q56 -10 97 -10q39 0 58 14t19 35q0 29 -58 29q-41 0 -95 -6l59 230h251l-18 -95h-139l-16 -58q19 3 43 3q116 0 116 -84z" />
    <glyph glyph-name="threefifths" unicode="&#x2157;" horiz-adv-x="771" 
d="M380 476q0 -21 -7.5 -42t-27 -45t-61.5 -38.5t-103 -14.5q-78 0 -140 28l21 66q57 -10 98 -10q79 0 79 46q0 16 -14.5 23.5t-54.5 7.5h-48l16 84h58q66 0 66 40q0 26 -44 26q-40 0 -94 -16l-8 74q81 27 144 27q143 0 143 -89q0 -38 -24 -62.5t-61 -35.5q62 -15 62 -69z
M799 686l-724 -774l-73 46l723 775zM708 72q0 -25 -9 -49t-29.5 -48.5t-61 -39t-96.5 -14.5q-70 0 -141 32l20 61q56 -10 97 -10q39 0 58 14t19 35q0 29 -58 29q-41 0 -95 -6l59 230h251l-18 -95h-139l-16 -58q19 3 43 3q116 0 116 -84z" />
    <glyph glyph-name="fourfifths" unicode="&#x2158;" horiz-adv-x="778" 
d="M381 412h-37l-14 -65h-129l13 65h-171l17 91q59 95 157 218h186l-41 -217h37zM232 504l29 142h-3q-50 -58 -101 -142h75zM807 686l-724 -774l-73 46l723 775zM715 72q0 -25 -9 -49t-29.5 -48.5t-61 -39t-96.5 -14.5q-70 0 -141 32l20 61q56 -10 97 -10q39 0 58 14t19 35
q0 29 -58 29q-41 0 -95 -6l59 230h251l-18 -95h-139l-16 -58q19 3 43 3q116 0 116 -84z" />
    <glyph glyph-name="onesixth" unicode="&#x2159;" horiz-adv-x="802" 
d="M808 686l-724 -774l-73 46l723 775zM740 80q0 -56 -50.5 -107.5t-145.5 -51.5q-152 0 -152 127q0 117 60.5 193t178.5 76q72 0 131 -29l-23 -61q-68 8 -96 8q-47 0 -69.5 -19t-33.5 -68q46 22 89 22q61 0 86 -23.5t25 -66.5zM611 69q0 28 -38 28q-19 0 -44 -10
q-5 -21 -5 -47q0 -41 31 -41q27 0 41.5 22t14.5 48zM340 347h-283l18 92h78l34 176l-70 -19l-3 76l126 51h104l-55 -284h69z" />
    <glyph glyph-name="fivesixths" unicode="&#x215a;" horiz-adv-x="794" 
d="M800 686l-724 -774l-73 46l723 775zM733 80q0 -56 -50.5 -107.5t-145.5 -51.5q-152 0 -152 127q0 117 60.5 193t178.5 76q72 0 131 -29l-23 -61q-68 8 -96 8q-47 0 -69.5 -19t-33.5 -68q46 22 89 22q61 0 86 -23.5t25 -66.5zM604 69q0 28 -38 28q-19 0 -44 -10
q-5 -21 -5 -47q0 -41 31 -41q27 0 41.5 22t14.5 48zM384 487q0 -25 -9 -49t-29.5 -48.5t-61 -39t-96.5 -14.5q-70 0 -141 32l20 61q56 -10 97 -10q39 0 58 14t19 35q0 29 -58 29q-41 0 -95 -6l59 230h251l-18 -95h-139l-16 -58q19 3 43 3q116 0 116 -84z" />
    <glyph glyph-name="oneeighth" unicode="&#x215b;" horiz-adv-x="830" 
d="M808 686l-724 -774l-73 46l723 775zM775 51q0 -62 -54 -97t-153 -35q-170 0 -170 90q0 72 100 103q-55 28 -55 80q0 57 52.5 91.5t141.5 34.5q80 0 121.5 -24.5t41.5 -64.5q0 -60 -88 -98q63 -27 63 -80zM668 219q0 27 -39 27q-52 0 -52 -38q0 -25 44 -46q47 27 47 57z
M636 31q0 14 -11.5 23.5t-42.5 22.5q-46 -24 -46 -56q0 -30 45 -30q27 0 41 11t14 29zM340 347h-283l18 92h78l34 176l-70 -19l-3 76l126 51h104l-55 -284h69z" />
    <glyph glyph-name="threeeighths" unicode="&#x215c;" horiz-adv-x="821" 
d="M380 476q0 -21 -7.5 -42t-27 -45t-61.5 -38.5t-103 -14.5q-78 0 -140 28l21 66q57 -10 98 -10q79 0 79 46q0 16 -14.5 23.5t-54.5 7.5h-48l16 84h58q66 0 66 40q0 26 -44 26q-40 0 -94 -16l-8 74q81 27 144 27q143 0 143 -89q0 -38 -24 -62.5t-61 -35.5q62 -15 62 -69z
M799 686l-724 -774l-73 46l723 775zM767 51q0 -62 -54 -97t-153 -35q-170 0 -170 90q0 72 100 103q-55 28 -55 80q0 57 52.5 91.5t141.5 34.5q80 0 121.5 -24.5t41.5 -64.5q0 -60 -88 -98q63 -27 63 -80zM660 219q0 27 -39 27q-52 0 -52 -38q0 -25 44 -46q47 27 47 57z
M628 31q0 14 -11.5 23.5t-42.5 22.5q-46 -24 -46 -56q0 -30 45 -30q27 0 41 11t14 29z" />
    <glyph glyph-name="fiveeighths" unicode="&#x215d;" horiz-adv-x="822" 
d="M800 686l-724 -774l-73 46l723 775zM768 51q0 -62 -54 -97t-153 -35q-170 0 -170 90q0 72 100 103q-55 28 -55 80q0 57 52.5 91.5t141.5 34.5q80 0 121.5 -24.5t41.5 -64.5q0 -60 -88 -98q63 -27 63 -80zM661 219q0 27 -39 27q-52 0 -52 -38q0 -25 44 -46q47 27 47 57z
M629 31q0 14 -11.5 23.5t-42.5 22.5q-46 -24 -46 -56q0 -30 45 -30q27 0 41 11t14 29zM384 487q0 -25 -9 -49t-29.5 -48.5t-61 -39t-96.5 -14.5q-70 0 -141 32l20 61q56 -10 97 -10q39 0 58 14t19 35q0 29 -58 29q-41 0 -95 -6l59 230h251l-18 -95h-139l-16 -58q19 3 43 3
q116 0 116 -84z" />
    <glyph glyph-name="seveneighths" unicode="&#x215e;" horiz-adv-x="777" 
d="M755 686l-724 -774l-73 46l723 775zM723 51q0 -62 -54 -97t-153 -35q-170 0 -170 90q0 72 100 103q-55 28 -55 80q0 57 52.5 91.5t141.5 34.5q80 0 121.5 -24.5t41.5 -64.5q0 -60 -88 -98q63 -27 63 -80zM616 219q0 27 -39 27q-52 0 -52 -38q0 -25 44 -46q47 27 47 57z
M584 31q0 14 -11.5 23.5t-42.5 22.5q-46 -24 -46 -56q0 -30 45 -30q27 0 41 11t14 29zM437 627l-97 -130q-73 -96 -148 -162l-97 28l186 258h-153l19 100h307z" />
    <glyph glyph-name="uni2160" unicode="&#x2160;" horiz-adv-x="395" 
d="M304 0h-313l24 128h73l81 420h-72l25 127h313l-25 -127h-73l-81 -420h72z" />
    <glyph glyph-name="uni2161" unicode="&#x2161;" horiz-adv-x="790" 
d="M304 0h-313l24 128h73l81 420h-72l25 127h313l-25 -127h-73l-81 -420h72zM699 0h-313l24 128h73l81 420h-72l25 127h313l-25 -127h-73l-81 -420h72z" />
    <glyph glyph-name="uni2162" unicode="&#x2162;" horiz-adv-x="1185" 
d="M304 0h-313l24 128h73l81 420h-72l25 127h313l-25 -127h-73l-81 -420h72zM699 0h-313l24 128h73l81 420h-72l25 127h313l-25 -127h-73l-81 -420h72zM1094 0h-313l24 128h73l81 420h-72l25 127h313l-25 -127h-73l-81 -420h72z" />
    <glyph glyph-name="uni2163" unicode="&#x2163;" horiz-adv-x="957" 
d="M304 0h-313l24 128h73l81 420h-72l25 127h313l-25 -127h-73l-81 -420h72zM864 675h168q-134 -375 -301 -675h-207q-49 327 -42 675h178q-14 -256 6 -508h3q101 215 195 508z" />
    <glyph glyph-name="uni2164" unicode="&#x2164;" horiz-adv-x="561" 
d="M469 675h168q-134 -375 -301 -675h-207q-49 327 -42 675h178q-14 -256 6 -508h3q101 215 195 508z" />
    <glyph glyph-name="uni2165" unicode="&#x2165;" horiz-adv-x="957" 
d="M469 675h168q-134 -375 -301 -675h-207q-49 327 -42 675h178q-14 -256 6 -508h3q101 215 195 508zM865 0h-313l24 128h73l81 420h-72l25 127h313l-25 -127h-73l-81 -420h72z" />
    <glyph glyph-name="uni2166" unicode="&#x2166;" horiz-adv-x="1352" 
d="M469 675h168q-134 -375 -301 -675h-207q-49 327 -42 675h178q-14 -256 6 -508h3q101 215 195 508zM865 0h-313l24 128h73l81 420h-72l25 127h313l-25 -127h-73l-81 -420h72zM1261 0h-313l24 128h73l81 420h-72l25 127h313l-25 -127h-73l-81 -420h72z" />
    <glyph glyph-name="uni2167" unicode="&#x2167;" horiz-adv-x="1747" 
d="M469 675h168q-134 -375 -301 -675h-207q-49 327 -42 675h178q-14 -256 6 -508h3q101 215 195 508zM865 0h-313l24 128h73l81 420h-72l25 127h313l-25 -127h-73l-81 -420h72zM1261 0h-313l24 128h73l81 420h-72l25 127h313l-25 -127h-73l-81 -420h72zM1656 0h-313l24 128
h73l81 420h-72l25 127h313l-25 -127h-73l-81 -420h72z" />
    <glyph glyph-name="uni2168" unicode="&#x2168;" horiz-adv-x="948" 
d="M304 0h-313l24 128h73l81 420h-72l25 127h313l-25 -127h-73l-81 -420h72zM893 0h-177q-24 124 -57 224h-2q-58 -80 -139 -224h-169q128 221 233 360q-52 147 -86 315h173q22 -124 45 -199h2q54 72 125 199h166q-104 -183 -212 -318q65 -170 98 -357z" />
    <glyph glyph-name="uni2169" unicode="&#x2169;" horiz-adv-x="553" 
d="M498 0h-177q-24 124 -57 224h-2q-58 -80 -139 -224h-169q128 221 233 360q-52 147 -86 315h173q22 -124 45 -199h2q54 72 125 199h166q-104 -183 -212 -318q65 -170 98 -357z" />
    <glyph glyph-name="uni216A" unicode="&#x216a;" horiz-adv-x="948" 
d="M498 0h-177q-24 124 -57 224h-2q-58 -80 -139 -224h-169q128 221 233 360q-52 147 -86 315h173q22 -124 45 -199h2q54 72 125 199h166q-104 -183 -212 -318q65 -170 98 -357zM857 0h-313l24 128h73l81 420h-72l25 127h313l-25 -127h-73l-81 -420h72z" />
    <glyph glyph-name="uni216B" unicode="&#x216b;" horiz-adv-x="1343" 
d="M498 0h-177q-24 124 -57 224h-2q-58 -80 -139 -224h-169q128 221 233 360q-52 147 -86 315h173q22 -124 45 -199h2q54 72 125 199h166q-104 -183 -212 -318q65 -170 98 -357zM857 0h-313l24 128h73l81 420h-72l25 127h313l-25 -127h-73l-81 -420h72zM1252 0h-313l24 128
h73l81 420h-72l25 127h313l-25 -127h-73l-81 -420h72z" />
    <glyph glyph-name="uni216C" unicode="&#x216c;" horiz-adv-x="421" 
d="M356 0h-343l131 675h168l-106 -546h175z" />
    <glyph glyph-name="uni216D" unicode="&#x216d;" horiz-adv-x="514" 
d="M415 180l58 -87q-86 -106 -222 -106q-217 0 -217 223q0 42 6.5 89.5t21 103t41 105t62 91t90 65.5t119.5 24q134 0 181 -111l-88 -75q-35 52 -83 52q-41 0 -75 -31.5t-54 -80t-31 -102t-11 -102.5q0 -65 21.5 -90.5t60.5 -25.5q62 0 120 58z" />
    <glyph glyph-name="uni216E" unicode="&#x216e;" horiz-adv-x="605" 
d="M603 449q0 -79 -30.5 -180.5t-100.5 -171.5q-101 -101 -258 -101q-41 0 -114 2t-87 2l131 675q41 0 107 1t97 1q130 0 192.5 -60.5t62.5 -167.5zM423 439q0 61 -24 87.5t-73 26.5q-26 0 -38 -1l-83 -427q24 -2 34 -2q53 0 95 40q46 46 67.5 130t21.5 146z" />
    <glyph glyph-name="uni216F" unicode="&#x216f;" horiz-adv-x="853" 
d="M757 0h-175q42 236 72 471h-1l-215 -471h-144l-32 471h-1q-45 -169 -106 -471h-157q74 340 178 675h215l36 -415h1l194 415h216q-30 -344 -81 -675z" />
    <glyph glyph-name="arrowleft" unicode="&#x2190;" horiz-adv-x="1054" 
d="M44 338l391 391l76 -76q-105 -134 -217 -246l1 -3q264 14 547 14h139v-160h-139q-126 0 -263 3.5t-211 6.5l-73 4l-1 -3q50 -50 104 -111.5t84 -97.5l29 -37l-76 -76z" />
    <glyph glyph-name="arrowup" unicode="&#x2191;" horiz-adv-x="870" 
d="M435 821l391 -391l-76 -76q-134 105 -246 217l-3 -1q14 -264 14 -547v-139h-160v139q0 126 3.5 263t7.5 210l3 74l-3 1q-50 -50 -111.5 -104t-98.5 -83l-36 -30l-76 76z" />
    <glyph glyph-name="arrowright" unicode="&#x2192;" horiz-adv-x="1054" 
d="M1010 338l-391 -391l-76 76q105 134 217 246l-1 3q-264 -14 -547 -14h-139v160h139q126 0 263 -3.5t211 -6.5l73 -4l1 3q-50 50 -104 111.5t-84 97.5l-29 37l76 76z" />
    <glyph glyph-name="arrowdown" unicode="&#x2193;" horiz-adv-x="870" 
d="M435 -145l-391 391l76 76q134 -105 246 -217l3 1q-14 264 -14 547v139h160v-139q0 -126 -3.5 -263t-7.5 -210l-3 -74l3 -1q50 50 111.5 104t98.5 83l36 30l76 -76z" />
    <glyph glyph-name="arrowboth" unicode="&#x2194;" horiz-adv-x="1250" 
d="M1206 338l-349 -349l-71 71q86 111 189 215l-1 2q-181 -9 -277 -9h-144l-277 9l-1 -2q46 -46 93 -100t72 -85l24 -30l-71 -71l-349 349l349 349l71 -71q-86 -111 -189 -215l1 -2q181 9 277 9h144l277 -9l1 2q-46 46 -93 100t-72 85l-24 30l71 71z" />
    <glyph glyph-name="arrowupdn" unicode="&#x2195;" horiz-adv-x="786" 
d="M393 -187l-349 349l71 71q111 -86 215 -189l2 1q-10 181 -10 277v32q0 43 2.5 112t5.5 117l2 48l-2 1q-46 -46 -100 -93t-84 -71l-31 -25l-71 71l349 349l349 -349l-71 -71q-111 86 -215 189l-2 -1q10 -181 10 -277v-32q0 -43 -2.5 -112t-5.5 -117l-2 -48l2 -1
q46 46 100 93t84 71l31 25l71 -71z" />
    <glyph glyph-name="arrownorthwest" unicode="&#x2196;" horiz-adv-x="846" 
d="M80 680h554v-108q-170 -20 -328 -20l-1 -3q195 -176 396 -377l99 -99l-113 -113l-99 100q-89 89 -183 187.5t-144 152.5l-50 55l-3 -1q0 -70 -5 -152t-9 -129l-5 -47h-109v554z" />
    <glyph glyph-name="arrownortheast" unicode="&#x2197;" horiz-adv-x="846" 
d="M764 680v-554h-108q-20 170 -20 328l-3 1q-176 -195 -377 -395l-99 -100l-112 113l99 99q89 89 187.5 183.5t152.5 144.5l55 49v3q-70 0 -152.5 5t-129.5 10l-47 5v108h554z" />
    <glyph glyph-name="arrowsoutheast" unicode="&#x2198;" horiz-adv-x="846" 
d="M764 -4h-554v108q171 20 329 20v3q-195 176 -395 377l-99 99l112 113l99 -100q89 -89 183.5 -187.5t144.5 -152.5l49 -55l3 1q0 70 5 152t10 129l5 47h108v-554z" />
    <glyph glyph-name="arrowsouthwest" unicode="&#x2199;" horiz-adv-x="846" 
d="M80 -4v554h109q19 -170 19 -328l3 -1q177 195 377 395l99 100l113 -113l-99 -99q-89 -89 -188 -183.5t-153 -144.5l-55 -49l1 -3q70 0 152 -5t129 -10l47 -5v-108h-554z" />
    <glyph glyph-name="partialdiff" unicode="&#x2202;" horiz-adv-x="546" 
d="M15 182q0 60 16 114.5t50 103.5t96.5 78.5t145.5 29.5q23 0 37 -4q-27 80 -139 136l92 80q110 -42 165 -117t55 -193q0 -73 -17 -143t-52.5 -134.5t-99.5 -104t-149 -39.5q-200 0 -200 193zM186 184q0 -74 51 -74q43 0 73.5 57.5t41.5 120t9 105.5q-15 8 -48 8
q-42 0 -72.5 -38.5t-42.5 -86t-12 -92.5z" />
    <glyph glyph-name="product" unicode="&#x220f;" horiz-adv-x="653" 
d="M693 547h-53l-106 -547h-168l106 547h-179l-105 -547h-168l105 547h-52l25 128h620z" />
    <glyph glyph-name="summation" unicode="&#x2211;" 
d="M417 0h-428l23 118l238 233l-143 212l22 112h402l-25 -127h-216l137 -200l-221 -219h236z" />
    <glyph glyph-name="minus" unicode="&#x2212;" 
d="M463 245h-431l22 112h431z" />
    <glyph glyph-name="uni2215" unicode="&#x2215;" horiz-adv-x="97" 
d="M458 686l-724 -774l-73 46l723 775z" />
    <glyph glyph-name="radical" unicode="&#x221a;" 
d="M431 675h152q-129 -354 -309 -675h-174l-16 401h-50l20 104h175l3 -329q118 251 199 499z" />
    <glyph glyph-name="infinity" unicode="&#x221e;" horiz-adv-x="1000" 
d="M982 341q0 -28 -6.5 -58.5t-24.5 -66t-46.5 -62.5t-77.5 -45.5t-112 -18.5q-113 0 -229 112q-157 -112 -266 -112q-91 0 -139.5 43.5t-48.5 119.5q0 28 6.5 58.5t25 66t46.5 62.5t77.5 45.5t111.5 18.5q114 0 230 -112q155 112 266 112q91 0 139 -43.5t48 -119.5z
M244 215q50 0 155 79q-41 43 -69 64t-55 21q-31 0 -51.5 -21t-27 -44t-6.5 -44q0 -55 54 -55zM825 324q0 55 -54 55q-50 0 -155 -79q78 -85 124 -85q44 0 64.5 36.5t20.5 72.5z" />
    <glyph glyph-name="integral" unicode="&#x222b;" horiz-adv-x="400" 
d="M475 691l-38 -90q-30 7 -48 7q-25 0 -37 -13t-18 -45l-106 -542q-21 -105 -66.5 -149t-120.5 -44q-63 0 -118 31l38 90q30 -7 49 -7q24 0 36 13t18 45l107 546q37 189 187 189q55 0 117 -31z" />
    <glyph glyph-name="uni2236" unicode="&#x2236;" horiz-adv-x="331" 
d="M128 63q-40 0 -57 12.5t-17 43.5q0 59 26 85q21 21 77 21q40 0 57.5 -12.5t17.5 -43.5q0 -23 -7.5 -48t-19.5 -37q-21 -21 -77 -21zM198 418q-40 0 -57.5 12.5t-17.5 43.5q0 58 27 85q20 21 77 21q40 0 57 -12.5t17 -43.5q0 -59 -26 -85q-22 -21 -77 -21z" />
    <glyph glyph-name="approxequal" unicode="&#x2248;" 
d="M460 470l38 -88q-71 -62 -139 -62q-49 0 -100 26t-77 26q-36 0 -86 -44l-39 88q71 62 139 62q49 0 100 -26t77 -26q35 0 87 44zM422 273l38 -88q-71 -62 -139 -62q-49 0 -99.5 26t-77.5 26q-37 0 -87 -44l-38 88q71 62 139 62q49 0 99.5 -26t76.5 -26q36 0 88 44z" />
    <glyph glyph-name="notequal" unicode="&#x2260;" 
d="M446 159h-218l-105 -150l-102 51l71 99h-76l19 101h127l57 81h-168l20 101h218l106 150l101 -51l-71 -99h76l-20 -101h-125l-58 -81h167z" />
    <glyph glyph-name="lessequal" unicode="&#x2264;" 
d="M412 0h-424l20 106h424zM462 250l-63 -108l-351 168l20 106l417 168l20 -110l-302 -112z" />
    <glyph glyph-name="greaterequal" unicode="&#x2265;" 
d="M412 0h-424l20 106h424zM472 310l-417 -168l-20 110l302 112l-259 112l63 108l351 -168z" />
    <glyph glyph-name="filledbox" unicode="&#x25a0;" horiz-adv-x="1100" 
d="M940 -133h-933l183 942h933z" />
    <glyph glyph-name="uni25A1" unicode="&#x25a1;" horiz-adv-x="1100" 
d="M955 -149h-969l190 974h968zM852 -45l149 766h-723l-149 -766h723z" />
    <glyph glyph-name="uni25B2" unicode="&#x25b2;" horiz-adv-x="800" 
d="M400 732l305 -727h-610z" />
    <glyph glyph-name="uni25B3" unicode="&#x25b3;" horiz-adv-x="800" 
d="M721 -6h-642l321 765zM522 126l-122 292l-122 -292h244z" />
    <glyph glyph-name="uni25B6" unicode="&#x25b6;" horiz-adv-x="868" 
d="M828 338l-727 -305v610z" />
    <glyph glyph-name="uni25B7" unicode="&#x25b7;" horiz-adv-x="868" 
d="M855 338l-765 -321v642zM222 460v-244l292 122z" />
    <glyph glyph-name="uni25BC" unicode="&#x25bc;" horiz-adv-x="800" 
d="M705 671l-305 -727l-305 727h610z" />
    <glyph glyph-name="uni25BD" unicode="&#x25bd;" horiz-adv-x="800" 
d="M721 682l-321 -765l-321 765h642zM278 550l122 -292l122 292h-244z" />
    <glyph glyph-name="uni25C0" unicode="&#x25c0;" horiz-adv-x="868" 
d="M767 643v-610l-727 305z" />
    <glyph glyph-name="uni25C1" unicode="&#x25c1;" horiz-adv-x="868" 
d="M778 659v-642l-765 321zM354 338l291 -122v244z" />
    <glyph glyph-name="lozenge" unicode="&#x25ca;" 
d="M502 337l-244 -337h-115l-115 339l246 336h114zM361 334l-64 171l-125 -163l62 -172z" />
    <glyph glyph-name="circle" unicode="&#x25cb;" horiz-adv-x="1100" 
d="M1088 471q0 -123 -43 -254.5t-134 -222.5q-164 -164 -442 -164q-217 0 -322 102.5t-105 272.5q0 123 43 254.5t134 222.5q164 164 442 164q217 0 322 -102.5t105 -272.5zM962 468q0 273 -321 273q-203 0 -326 -121q-44 -44 -75 -103t-45.5 -118t-20.5 -105t-6 -86
q0 -273 321 -273q203 0 326 121q44 44 75 103t45.5 118t20.5 105t6 86z" />
    <glyph glyph-name="uni25CF" unicode="&#x25cf;" horiz-adv-x="1100" 
d="M1061 468q0 -117 -42 -245t-129 -215q-158 -158 -419 -158q-106 0 -185 27t-126.5 77t-70.5 114.5t-23 143.5q0 117 41.5 244.5t128.5 215.5q158 157 419 157q206 0 306 -99t100 -262z" />
    <glyph glyph-name="uniE1C2" unicode="&#xe1c2;" horiz-adv-x="1100" 
d="M586 52h180l-113 311l209 265h-177l-168 -223h-1l44 223h-166l-111 -576h165l48 248h1zM1061 468q0 -117 -42 -245t-129 -215q-158 -158 -419 -158q-106 0 -185 27t-126.5 77t-70.5 114.5t-23 143.5q0 117 41.5 244.5t128.5 215.5q158 157 419 157q206 0 306 -99
t100 -262z" />
    <glyph glyph-name="uniE1C3" unicode="&#xe1c3;" horiz-adv-x="1100" 
d="M1061 468q0 -117 -42 -245t-129 -215q-158 -158 -419 -158q-106 0 -185 27t-126.5 77t-70.5 114.5t-23 143.5q0 117 41.5 244.5t128.5 215.5q158 157 419 157q206 0 306 -99t100 -262zM329 57h361l20 109h-90l56 285h-264l-21 -109h96l-34 -176h-104zM601 497q62 0 86 25
q12 12 20.5 41.5t8.5 50.5q0 30 -21 42.5t-70 12.5q-63 0 -87 -25q-12 -12 -20.5 -41.5t-8.5 -50.5q0 -30 21 -42.5t71 -12.5z" />
    <glyph glyph-name="uniE1C4" unicode="&#xe1c4;" horiz-adv-x="1100" 
d="M763 52h-180l-89 248h-1l-48 -248h-165l111 576h166l-44 -223h1l168 223h177l-209 -265zM1088 471q0 -123 -43 -254.5t-134 -222.5q-164 -164 -442 -164q-217 0 -322 102.5t-105 272.5q0 123 43 254.5t134 222.5q164 164 442 164q217 0 322 -102.5t105 -272.5zM962 468
q0 273 -321 273q-203 0 -326 -121q-44 -44 -75 -103t-45.5 -118t-20.5 -105t-6 -86q0 -273 321 -273q203 0 326 121q44 44 75 103t45.5 118t20.5 105t6 86z" />
    <glyph glyph-name="apple" unicode="&#xf8ff;" horiz-adv-x="1000" 
d="M776 405q0 -107 -70 -184v-85l-18 -5l35 -80l-33 -10l33 -77l-35 -10l10 -25l-32 -77h-63q-3 -23 -32 -37.5t-71 -14.5t-71 15t-32 37h-62l-59 140l34 10l-34 81l36 9l-19 48v83q-69 79 -69 182q0 114 81 194t195 80t195 -80t81 -194zM700 405q0 82 -58.5 140.5
t-141.5 58.5t-141.5 -58.5t-58.5 -140.5q0 -93 70 -152h51l-17 135q-15 -3 -41 -13q-12 -5 -17 16q-7 31 4 48q3 4 6 5q71 22 144 22t146 -22q13 -4 11 -39q-3 -33 -18 -31q-1 1 -2 1q-25 10 -42 13l-15 -135h51q69 60 69 152zM630 -7l-13 31l-248 -63l25 -59h213l11 28
l-5 10l-72 -19l-17 46zM628 172v21h-257v-48l15 -36zM544 882l-15 -163q-29 3 -58 0l-15 163q26 2 43 2q19 0 45 -2zM850 695l-107 -88q-20 24 -41 40l88 107q32 -24 60 -59zM298 647q-21 -16 -41 -40l-107 88q28 35 60 59zM185 376l-137 -14q-5 42 0 85l137 -14
q-2 -29 0 -57zM952 362l-137 14q2 29 0 57l137 14q5 -43 0 -85zM540 397q-15 2 -39 2q-27 0 -42 -2l16 -144h51zM629 82l-13 31l-248 -62l15 -32zM503 425l1 4q-1 -1 -2 -3q0 -2 1 -1zM495 427l1 2h-1l-1 -2h-1l1 2h-1l-1 -2q-1 -1 0 -2q1 1 3 2zM488 425h2v1h-1l2 5h-1
l-2 -5q-1 -1 0 -1zM498 426l-1 2l2 1q-1 2 -2 0q-2 -3 -1 -4q0 -1 2 1zM508 429q-3 1 -3 0v-2q1 -1 1 -1.5t-2 -0.5q4 -1 2 2v1.5t2 0.5zM506 423q6 4 3 9q0 -4 -3 -9zM502 432q-6 -4 -3 -9q0 5 3 9z" />
    <glyph glyph-name="s_t" unicode="&#xfb06;" horiz-adv-x="759" 
d="M700 115l1 -91q-75 -36 -138 -36q-120 0 -120 95q0 22 6 54l50 257h-54l22 111h53l3 16q15 79 -50 79q-36 0 -57 -24.5t-21 -58.5q0 -23 19 -39l-30 -83q-60 14 -102 14q-33 0 -52 -13t-19 -36q0 -16 18 -28t44.5 -22.5t52.5 -24.5t44 -41.5t18 -65.5q0 -85 -65 -137.5
t-176 -52.5q-94 0 -169 46l24 80q79 -15 125 -15q87 0 87 54q0 18 -18 30.5t-43.5 22.5t-51 23.5t-43.5 40t-18 65.5q0 73 53 127.5t165 54.5l51 -4q-21 15 -21 49q0 59 54 103t160 44q218 0 181 -188l-3 -16h97l-22 -111h-96l-45 -228q-4 -19 -4 -33q0 -26 32 -26
q26 0 58 8z" />
    <glyph glyph-name="uniFEFF" unicode="&#xfeff;" horiz-adv-x="0" 
 />
    <glyph glyph-name="u1F137" unicode="&#x1f137;" horiz-adv-x="1100" 
d="M755 52h-166l45 232h-170l-45 -232h-165l111 576h165l-40 -210h170l41 210h165zM955 -149h-969l190 974h968zM852 -45l149 766h-723l-149 -766h723z" />
    <glyph glyph-name="u1F13F" unicode="&#x1f13f;" horiz-adv-x="1100" 
d="M828 483q0 -33 -6.5 -64t-26 -66t-50.5 -60.5t-86 -42.5t-126 -17h-41l-35 -181h-162l111 576q42 0 117 0.5t96 0.5q209 0 209 -146zM653 464q0 27 -15 39.5t-54 12.5h-37l-33 -169h34q54 0 79.5 33t25.5 84zM955 -149h-969l190 974h968zM852 -45l149 766h-723l-149 -766
h723z" />
    <glyph glyph-name="u1F177" unicode="&#x1f177;" horiz-adv-x="1100" 
d="M594 52h166l111 576h-165l-41 -210h-170l40 210h-165l-111 -576h165l45 232h170zM940 -133h-933l183 942h933z" />
    <glyph glyph-name="u1F17F" unicode="&#x1f17f;" horiz-adv-x="1100" 
d="M940 -133h-933l183 942h933zM845 483q0 146 -210 146q-21 0 -96 -0.5t-116 -0.5l-112 -576h163l35 181h40q71 0 126 17t86 42.5t51 60.5t26.5 66t6.5 64zM670 464q0 -51 -26 -84t-79 -33h-34l32 169h38q39 0 54 -12.5t15 -39.5z" />
    <glyph glyph-name="U1F6C8" unicode="&#x1f6c8;" horiz-adv-x="1100" 
d="M1088 471q0 -123 -43 -254.5t-134 -222.5q-164 -164 -442 -164q-217 0 -322 102.5t-105 272.5q0 123 43 254.5t134 222.5q164 164 442 164q217 0 322 -102.5t105 -272.5zM962 468q0 273 -321 273q-203 0 -326 -121q-44 -44 -75 -103t-45.5 -118t-20.5 -105t-6 -86
q0 -273 321 -273q203 0 326 121q44 44 75 103t45.5 118t20.5 105t6 86zM689 57h-361l20 108h104l34 177h-96l21 108h264l-56 -285h90zM600 497q-50 0 -71 12t-21 42q0 22 8 51t21 42q24 24 87 24q49 0 70 -12t21 -42q0 -22 -8 -51t-21 -42q-24 -24 -86 -24z" />
    <glyph glyph-name="L_a_t_n_C_a_p_s" horiz-adv-x="976" 
d="M223 500h-172v337h84v-273h88v-64zM468 500h-61l-6 23q-33 -30 -75 -30q-81 0 -81 75q0 41 34 65t98 24h12v14q0 30 -41 30q-38 0 -80 -15l-9 48q54 24 108 24q49 0 75 -21t26 -58v-179zM389 567v42h-16q-51 0 -51 -32q0 -28 28 -28q19 0 39 18zM654 558l6 -46
q-33 -18 -68 -18q-37 0 -52 14.5t-15 50.5v138h-27v55h30q8 28 18 74h59v-74h48v-55h-48v-118q0 -26 18 -26q13 0 31 5zM917 500h-80q0 31 0.5 76t0.5 54q0 40 -5.5 52t-20.5 12q-14 0 -37 -15v-179h-80v252h65l6 -24q33 31 74 31t60 -28t19 -88q0 -11 -1 -61t-1 -82z
M203 90l34 -43q-37 -54 -104 -54q-68 0 -100.5 41.5t-32.5 127.5q0 88 35.5 135t98.5 47q66 0 97 -55l-38 -38q-19 26 -48 26q-57 0 -57 -104q0 -62 14.5 -87t44.5 -25q29 0 56 29zM475 0h-62l-5 23q-33 -30 -75 -30q-82 0 -82 75q0 41 34 65t98 24h13v14q0 30 -41 30
q-38 0 -80 -15l-9 48q53 24 108 24q49 0 75 -21t26 -58v-179zM396 67v42h-16q-51 0 -51 -32q0 -28 27 -28q20 0 40 18zM608 -87h-80v339h65l5 -24q34 31 69 31q46 0 68.5 -34.5t22.5 -88.5q0 -73 -34 -108t-93 -35q-4 0 -12.5 0.5t-10.5 0.5v-81zM608 181v-127q8 -4 24 -4
q45 0 45 77q0 70 -34 70q-18 0 -35 -16zM783 17l5 40q40 -8 64 -8q39 0 39 23q0 12 -16.5 20t-37 14t-37 24.5t-16.5 48.5q0 36 27 57.5t71 21.5q39 0 77 -21l-8 -40q-28 7 -52 7q-31 0 -31 -19q0 -12 17 -20t37 -14t37 -24.5t17 -48.5q0 -38 -29.5 -61t-80.5 -23
q-43 0 -83 23z" />
    <glyph glyph-name="IJ.alt1" horiz-adv-x="591" 
d="M181 0h-168l131 675h168zM610 675l-86 -439q-30 -162 -162 -247l-96 71q40 36 59 74t32 104l85 437h168z" />
    <glyph glyph-name="IJ.alt2" horiz-adv-x="592" 
d="M181 0h-168l131 675h168zM610 675l-114 -586q-24 -125 -98 -193.5t-222 -80.5l-10 102q78 20 113.5 60.5t50.5 119.5l112 578h168z" />
    <glyph glyph-name="J.alt1" horiz-adv-x="298" 
d="M316 675l-86 -439q-30 -162 -162 -247l-96 71q40 36 59 74t32 104l85 437h168z" />
    <glyph glyph-name="J.alt2" horiz-adv-x="298" 
d="M316 675l-114 -586q-24 -125 -98 -193.5t-222 -80.5l-10 102q78 20 113.5 60.5t50.5 119.5l112 578h168z" />
    <glyph glyph-name="Jcircumflex.alt2" horiz-adv-x="298" 
d="M316 675l-114 -586q-24 -125 -98 -193.5t-222 -80.5l-10 102q78 20 113.5 60.5t50.5 119.5l112 578h168zM263 861l144 -84l-50 -64l-108 47l-129 -47l-30 63z" />
    <glyph glyph-name="Jcircumflex.alt1" horiz-adv-x="298" 
d="M316 675l-86 -439q-30 -162 -162 -247l-96 71q40 36 59 74t32 104l85 437h168zM262 861l144 -84l-50 -64l-108 47l-129 -47l-30 63z" />
    <glyph glyph-name="L_a_t_n_L_o_w_e_r" horiz-adv-x="1277" 
d="M750 252h77q-11 -112 -58 -252h-97l-28 125l-7 41h-1l-5 -41l-24 -125h-98l-61 252h86l24 -126l7 -42h1l6 40l24 128h94l29 -130l7 -37q23 121 24 167zM434 131q0 -69 -33.5 -103.5t-94.5 -34.5q-59 0 -88 30t-29 98q0 69 33 103.5t94 34.5q59 0 88.5 -30.5t29.5 -97.5z
M614 500h-61l-6 23q-33 -30 -75 -30q-81 0 -81 75q0 41 34 65t98 24h12v14q0 30 -40 30q-38 0 -81 -15l-9 48q54 24 109 24q48 0 74 -21t26 -58v-179zM1075 108h-146v-2q0 -52 48 -52q36 0 86 13l11 -44q-57 -30 -112 -30q-115 0 -115 127q0 67 32.5 103t89.5 36
q117 0 106 -151zM1063 500h-80q0 31 0.5 76t0.5 54q0 40 -5.5 52t-20.5 12q-14 0 -37 -15v-179h-80v252h65l6 -24q33 31 74 31t60 -27.5t19 -88.5q0 -11 -1 -61t-1 -82zM369 500h-172v337h84v-273h88v-64zM171 0h-171v337h84v-273h87v-64zM801 558l5 -46q-33 -18 -68 -18
q-36 0 -51.5 14.5t-15.5 50.5v138h-27v55h30q10 30 18 74h59v-74h48v-55h-48v-118q0 -26 18 -26q13 0 32 5zM1277 252l-10 -69q-16 4 -24 4q-17 0 -43 -34v-153h-80v252h65l7 -36q29 42 58 42q14 0 27 -6zM352 120q0 48 -10 64t-31 16q-41 0 -41 -68q0 -47 10.5 -64
t30.5 -17q41 0 41 69zM535 567v42h-16q-51 0 -51 -32q0 -28 28 -28q19 0 39 18zM929 157h70v1q0 48 -33 48q-34 0 -37 -49z" />
    <glyph glyph-name="c_h" horiz-adv-x="947" 
d="M844 0h-160q15 78 33.5 164.5t25.5 123.5t7 60q0 22 -7 32t-25 10q-33 0 -67.5 -55t-53.5 -150l-36 -185h-160l118 607q-13 4 -33 4q-45 0 -64.5 -27t-19.5 -58q0 -29 26 -59l-63 -90q-25 22 -62 22q-38 0 -66 -39.5t-40 -88.5t-12 -95q0 -68 58 -68q41 0 90 32l25 -86
q-81 -65 -168 -65q-84 0 -127.5 45.5t-43.5 132.5q0 53 14.5 110t43.5 112.5t83.5 91t125.5 35.5q19 0 25 -4q-18 13 -18 48q0 26 10.5 50.5t36 51.5t80 43.5t130.5 16.5q32 0 69 -3t59 -7l21 -3l-40 -203q-8 -35 -19 -69q25 34 63.5 57t79.5 23q129 0 129 -140
q0 -39 -8 -83.5t-27 -132.5t-33 -161z" />
    <glyph glyph-name="c_k" horiz-adv-x="909" 
d="M852 0h-179l-61 239h-5l-46 -239h-160l118 607q-13 4 -33 4q-45 0 -64.5 -27t-19.5 -58q0 -29 26 -59l-63 -90q-25 22 -62 22q-38 0 -66 -39.5t-40 -88.5t-12 -95q0 -68 58 -68q41 0 90 32l25 -86q-81 -65 -168 -65q-84 0 -127.5 45.5t-43.5 132.5q0 53 14.5 110
t43.5 112.5t83.5 91t125.5 35.5q19 0 25 -4q-18 13 -18 48q0 26 10.5 50.5t36 51.5t80 43.5t130.5 16.5q32 0 69 -3t59 -7l21 -3l-80 -404h6l129 200h187l-175 -223z" />
    <glyph glyph-name="c_t" horiz-adv-x="760" 
d="M756 394h-96l-44 -228q-4 -19 -4 -33q0 -26 31 -26q26 0 58 8l2 -91q-77 -36 -139 -36q-120 0 -120 95q0 22 6 54l50 257h-54l21 111h54l3 15q17 80 -48 80q-34 0 -54 -21.5t-20 -55.5q0 -26 24 -55l-60 -91q-28 22 -61 22q-39 0 -68 -40t-40.5 -89t-11.5 -94
q0 -68 58 -68q52 0 97 36l36 -83q-85 -72 -184 -72q-85 0 -129 45t-44 133q0 42 8.5 87t29 92.5t50.5 84.5t77.5 61t105.5 24q9 0 17 -4q-14 16 -14 48q0 58 51.5 103.5t165.5 45.5q211 0 175 -184l-4 -20h97z" />
    <glyph glyph-name="ccedilla_t" horiz-adv-x="760" 
d="M756 394h-96l-44 -228q-4 -19 -4 -33q0 -26 31 -26q26 0 58 8l2 -91q-77 -36 -139 -36q-120 0 -120 95q0 22 6 54l50 257h-54l21 111h54l3 15q17 80 -48 80q-34 0 -54 -21.5t-20 -55.5q0 -26 24 -55l-60 -91q-28 22 -61 22q-39 0 -68 -40t-40.5 -89t-11.5 -94
q0 -68 58 -68q52 0 97 36l36 -83q-85 -72 -184 -72q-85 0 -129 45t-44 133q0 42 8.5 87t29 92.5t50.5 84.5t77.5 61t105.5 24q9 0 17 -4q-14 16 -14 48q0 58 51.5 103.5t165.5 45.5q211 0 175 -184l-4 -20h97zM103 -42h135q3 -88 -107 -144l-90 33q40 31 52.5 55.5t9.5 55.5
z" />
    <glyph glyph-name="i.dotaccent" horiz-adv-x="267" 
d="M163 0h-160l98 505h160zM194 549q-47 0 -66.5 12t-19.5 40q0 20 7.5 47.5t18.5 38.5q24 24 83 24q46 0 66 -12t20 -40q0 -20 -8 -47.5t-19 -38.5q-24 -24 -82 -24z" />
    <glyph glyph-name="ij.alt1" horiz-adv-x="550" 
d="M544 505l-93 -482q-40 -208 -268 -208q-85 0 -182 48l28 87q100 -17 159 -17q46 0 68.5 15t30.5 52l4 17q5 26 14 49h-1q-23 -29 -62.5 -50t-78.5 -21q-129 0 -129 140q0 39 7 81.5t26 129.5t33 159h161q-12 -63 -26.5 -131.5t-21.5 -100t-11.5 -61.5t-4.5 -48
q0 -22 7 -32t25 -10q32 0 66.5 50.5t49.5 129.5l39 203h160zM197 549q-47 0 -66.5 12t-19.5 40q0 20 7.5 47.5t18.5 38.5q24 24 83 24q46 0 66 -12t20 -40q0 -20 -8 -47.5t-19 -38.5q-24 -24 -82 -24zM474 549q-47 0 -66.5 12t-19.5 40q0 20 7.5 47.5t18.5 38.5q24 24 83 24
q46 0 66 -12t20 -40q0 -20 -8 -47.5t-19 -38.5q-24 -24 -82 -24z" />
    <glyph glyph-name="i_j" horiz-adv-x="550" 
d="M544 505l-93 -482q-40 -208 -268 -208q-85 0 -182 48l28 87q100 -17 159 -17q46 0 68.5 15t30.5 52l4 17q5 26 14 49h-1q-23 -29 -62.5 -50t-78.5 -21q-129 0 -129 140q0 39 7 81.5t26 129.5t33 159h161q-12 -63 -26.5 -131.5t-21.5 -100t-11.5 -61.5t-4.5 -48
q0 -22 7 -32t25 -10q32 0 66.5 50.5t49.5 129.5l39 203h160zM197 549q-47 0 -66.5 12t-19.5 40q0 20 7.5 47.5t18.5 38.5q24 24 83 24q46 0 66 -12t20 -40q0 -20 -8 -47.5t-19 -38.5q-24 -24 -82 -24zM474 549q-47 0 -66.5 12t-19.5 40q0 20 7.5 47.5t18.5 38.5q24 24 83 24
q46 0 66 -12t20 -40q0 -20 -8 -47.5t-19 -38.5q-24 -24 -82 -24z" />
    <glyph glyph-name="scedilla_t" horiz-adv-x="759" 
d="M700 115l1 -91q-75 -36 -138 -36q-120 0 -120 95q0 22 6 54l50 257h-54l22 111h53l3 16q15 79 -50 79q-36 0 -57 -24.5t-21 -58.5q0 -23 19 -39l-30 -83q-60 14 -102 14q-33 0 -52 -13t-19 -36q0 -16 18 -28t44.5 -22.5t52.5 -24.5t44 -41.5t18 -65.5q0 -85 -65 -137.5
t-176 -52.5q-94 0 -169 46l24 80q79 -15 125 -15q87 0 87 54q0 18 -18 30.5t-43.5 22.5t-51 23.5t-43.5 40t-18 65.5q0 73 53 127.5t165 54.5l51 -4q-21 15 -21 49q0 59 54 103t160 44q218 0 181 -188l-3 -16h97l-22 -111h-96l-45 -228q-4 -19 -4 -33q0 -26 32 -26
q26 0 58 8zM69 -42h135q3 -88 -107 -144l-90 33q40 31 52.5 55.5t9.5 55.5z" />
    <glyph glyph-name="scommaaccent_t" horiz-adv-x="759" 
d="M700 115l1 -91q-75 -36 -138 -36q-120 0 -120 95q0 22 6 54l50 257h-54l22 111h53l3 16q15 79 -50 79q-36 0 -57 -24.5t-21 -58.5q0 -23 19 -39l-30 -83q-60 14 -102 14q-33 0 -52 -13t-19 -36q0 -16 18 -28t44.5 -22.5t52.5 -24.5t44 -41.5t18 -65.5q0 -85 -65 -137.5
t-176 -52.5q-94 0 -169 46l24 80q79 -15 125 -15q87 0 87 54q0 18 -18 30.5t-43.5 22.5t-51 23.5t-43.5 40t-18 65.5q0 73 53 127.5t165 54.5l51 -4q-21 15 -21 49q0 59 54 103t160 44q218 0 181 -188l-3 -16h97l-22 -111h-96l-45 -228q-4 -19 -4 -33q0 -26 32 -26
q26 0 58 8zM147 -31q27 0 42 -13t15 -34q0 -52 -47 -79.5t-132 -25.5l-9 50q66 8 66 34q0 3 -1 8t-1 9q0 20 18 35.5t49 15.5z" />
    <glyph glyph-name="grave.cap" horiz-adv-x="328" 
d="M394 778l-55 -65l-206 60l81 88z" />
    <glyph glyph-name="acute.cap" horiz-adv-x="328" 
d="M392 766l-217 -53l-40 70l201 78z" />
    <glyph glyph-name="circumflex.cap" horiz-adv-x="385" 
d="M307 861l144 -84l-50 -64l-108 47l-129 -47l-30 63z" />
    <glyph glyph-name="caron.cap" horiz-adv-x="385" 
d="M285 713l-147 86l51 62l109 -46l128 46l29 -64z" />
    <glyph glyph-name="uni0315.cap" horiz-adv-x="210" 
d="M269 740l-99 -190l-77 15l70 198z" />
    <glyph glyph-name="tilde.cap" horiz-adv-x="428" 
d="M434 856l62 -43q-47 -96 -132 -96q-38 0 -71 22t-43 22q-13 0 -23 -8.5t-28 -34.5l-63 43q50 96 132 96q38 0 70.5 -22.5t42.5 -22.5q13 0 24 9.5t29 34.5z" />
    <glyph glyph-name="dieresis.cap" horiz-adv-x="425" 
d="M494 803q0 -46 -20 -66q-17 -18 -63 -18q-37 0 -52 10.5t-15 36.5q0 45 20 65q19 19 64 19q37 0 51.5 -10.5t14.5 -36.5zM284 803q0 -46 -20 -66q-18 -18 -64 -18q-37 0 -51.5 10.5t-14.5 36.5q0 45 20 65q19 19 64 19q37 0 51.5 -10.5t14.5 -36.5z" />
    <glyph glyph-name="dieresis.cap.narrow" horiz-adv-x="376" 
d="M445 803q0 -45 -19 -66q-17 -18 -59 -18q-35 0 -48.5 10.5t-13.5 36.5q0 44 19 65q18 19 59 19q35 0 48.5 -10.5t13.5 -36.5zM274 803q0 -47 -19 -66q-17 -18 -59 -18q-35 0 -48.5 10.5t-13.5 36.5q0 45 20 65q16 19 59 19q34 0 47.5 -10.5t13.5 -36.5z" />
    <glyph glyph-name="dieresis.narrow" horiz-adv-x="392" 
d="M433 654q0 -18 -7 -41t-18 -33q-18 -18 -59 -18q-65 0 -65 48q0 18 7 41t18 33q18 18 59 18q65 0 65 -48zM253 654q0 -18 -7 -41t-18 -33q-18 -18 -59 -18q-65 0 -65 48q0 18 7 41t18 33q18 18 59 18q65 0 65 -48z" />
    <glyph glyph-name="macron.cap" horiz-adv-x="363" 
d="M421 736h-294l19 102h294z" />
    <glyph glyph-name="breve.cap" horiz-adv-x="375" 
d="M365 868h95q-13 -79 -62.5 -119t-119.5 -40q-74 0 -108 40.5t-17 118.5h94q-6 -27 5.5 -43t40.5 -16t48 16t24 43z" />
    <glyph glyph-name="ring.cap" horiz-adv-x="320" 
d="M246 689q-113 0 -113 69q0 45 36.5 74t104.5 29q113 0 113 -68q0 -45 -36.5 -74.5t-104.5 -29.5zM298 786q0 22 -32 22q-44 0 -44 -43q0 -23 31 -23q23 0 34 12.5t11 31.5z" />
    <glyph glyph-name="ring.big" horiz-adv-x="295" 
d="M379 772q0 -58 -39 -93.5t-108 -35.5q-63 0 -92 24.5t-29 63.5q0 59 43 93t105 34q120 0 120 -86zM284 762q0 29 -31 29q-47 0 -47 -53q0 -27 31 -27q24 0 35.5 15.5t11.5 35.5z" />
    <glyph glyph-name="ringacute.cap" horiz-adv-x="308" 
d="M187 847l176 38l23 -51l-186 -24zM241 684q-113 0 -113 55q0 30 33 46t89 16q113 0 113 -55q0 -30 -33 -46t-89 -16zM277 743q0 22 -30 22q-33 0 -33 -23q0 -22 30 -22q33 0 33 23z" />
    <glyph glyph-name="ringacute" horiz-adv-x="343" 
d="M196 775l123 110l102 -50l-151 -94zM213 545q-109 0 -109 71q0 40 32.5 70.5t102.5 30.5q109 0 109 -70q0 -41 -32.5 -71.5t-102.5 -30.5zM262 640q0 24 -30 24q-42 0 -42 -42q0 -24 29 -24q23 0 33 13t10 29z" />
    <glyph glyph-name="hungarumlaut.cap" horiz-adv-x="567" 
d="M638 799l-223 -92l-60 50l202 112zM389 811l-197 -105l-63 43l168 123z" />
    <glyph glyph-name="dotaccent.cap" horiz-adv-x="250" 
d="M212 719q-41 0 -57 10.5t-16 35.5q0 47 22 69t82 22q41 0 57.5 -10.5t16.5 -34.5q0 -46 -23 -69t-82 -23z" />
    <glyph glyph-name="dotaccent.i" horiz-adv-x="257" 
d="M189 549q-47 0 -66.5 12t-19.5 40q0 20 7.5 47.5t18.5 38.5q24 24 83 24q46 0 66 -12t20 -40q0 -20 -8 -47.5t-19 -38.5q-24 -24 -82 -24z" />
    <glyph glyph-name="dotaccent.asc" horiz-adv-x="246" 
d="M215 741q-44 0 -60.5 9.5t-16.5 32.5q0 48 23 73q23 21 82 21q45 0 61.5 -9.5t16.5 -32.5q0 -18 -7 -40.5t-17 -32.5q-21 -21 -82 -21z" />
    <glyph glyph-name="exclamdown.cap" horiz-adv-x="354" 
d="M15 0l119 480h143l-67 -480h-195zM240 685q48 0 67 -13.5t19 -45.5q0 -57 -24 -81q-23 -23 -83 -23q-49 0 -68 13t-19 45q0 58 25 81q23 24 83 24z" />
    <glyph glyph-name="questiondown.cap" 
d="M21 131q0 49 18 87t45 62.5t55.5 45.5t53 49t32.5 61l11 44h142l-7 -50q-6 -45 -25 -80.5t-42 -57t-45 -40t-37 -40t-15 -46.5q0 -49 63 -49q51 0 113 23l28 -97q-103 -54 -208 -54q-88 0 -135 37.5t-47 104.5zM338 685q48 0 67.5 -13.5t19.5 -45.5q0 -58 -25 -81
q-22 -23 -83 -23q-48 0 -67 13t-19 45q0 57 24 81t83 24z" />
    <glyph glyph-name="guilsinglleft.cap" horiz-adv-x="310" 
d="M254 160l-112 -30l-100 215l175 207l106 -39l-128 -176z" />
    <glyph glyph-name="guilsinglright.cap" horiz-adv-x="310" 
d="M89 522l112 30l100 -215l-175 -207l-106 39l128 176z" />
    <glyph glyph-name="guillemotleft.cap" horiz-adv-x="511" 
d="M250 160l-109 -30l-100 213l175 209l103 -39l-128 -174zM450 172l-105 -29l-92 200l162 196l99 -37l-112 -163z" />
    <glyph glyph-name="guillemotright.cap" horiz-adv-x="511" 
d="M294 522l108 30l101 -213l-176 -209l-102 38l128 175zM93 510l105 29l93 -200l-162 -196l-100 37l113 163z" />
    <glyph glyph-name="bar.cap" horiz-adv-x="255" 
d="M122 -123h-138l180 926h138z" />
    <glyph glyph-name="brokenbar.cap" horiz-adv-x="255" 
d="M122 -123h-137l73 376h137zM226 411h-137l76 395h137z" />
    <glyph glyph-name="hyphen.cap" horiz-adv-x="239" 
d="M240 275h-216l23 117h216z" />
    <glyph glyph-name="endash.cap" 
d="M461 286h-411l22 113h412z" />
    <glyph glyph-name="emdash.cap" horiz-adv-x="1000" 
d="M889 286h-767l21 113h768z" />
    <glyph glyph-name="uni2015.cap" horiz-adv-x="1000" 
d="M889 286h-767l21 113h768z" />
    <glyph glyph-name="periodcentered.cap" horiz-adv-x="282" 
d="M147 262q-44 0 -62 12t-18 42q0 27 9 58t20 43q22 22 76 22q44 0 62.5 -12t18.5 -42q0 -28 -9 -58.5t-22 -43.5q-21 -21 -75 -21z" />
    <glyph glyph-name="parenleft.cap" horiz-adv-x="310" 
d="M220 -95l-112 -30q-67 142 -67 306q0 144 56.5 298t179.5 299l105 -37q-97 -127 -149.5 -285.5t-52.5 -305.5q0 -138 40 -245z" />
    <glyph glyph-name="parenright.cap" horiz-adv-x="310" 
d="M118 749l111 30q67 -142 67 -306q0 -318 -236 -597l-104 37q98 128 149.5 285.5t51.5 305.5q0 136 -39 245z" />
    <glyph glyph-name="bracketleft.cap" horiz-adv-x="365" 
d="M234 -123h-222l177 912h222l-18 -94h-88l-141 -724h88z" />
    <glyph glyph-name="bracketright.cap" horiz-adv-x="365" 
d="M205 -123h-222l18 94h88l141 724h-88l18 94h222z" />
    <glyph glyph-name="braceleft.cap" horiz-adv-x="388" 
d="M251 -123h-64q-147 0 -119 145l39 202q6 30 -1 43.5t-33 13.5h-32l23 114h31q26 0 38.5 14t17.5 42l38 194q28 144 178 144h62l-19 -93h-34q-24 0 -36 -13t-17 -41l-34 -177q-19 -97 -98 -127q66 -30 47 -128l-36 -186q-6 -31 0.5 -42.5t33.5 -11.5h33z" />
    <glyph glyph-name="braceright.cap" horiz-adv-x="388" 
d="M167 789h63q148 0 120 -145l-38 -192q-5 -30 2.5 -43.5t32.5 -13.5h31l-22 -114h-32q-26 0 -38 -14t-18 -42l-40 -204q-27 -144 -177 -144h-62l19 93h33q25 0 37 13t17 41l36 186q18 98 98 128q-67 30 -48 128l34 176q7 28 0 41t-32 13h-35z" />
    <glyph glyph-name="at.cap" horiz-adv-x="1014" 
d="M1012 512q0 -74 -25.5 -143t-73 -125t-124 -90t-170.5 -34h-76l14 80q-36 -43 -79 -66t-79 -23q-58 0 -87 36t-29 101q0 136 82.5 230.5t238.5 94.5q105 0 183 -26l-97 -313q72 0 125.5 77t53.5 189q0 87 -54 131t-183 44q-90 0 -165.5 -26t-126.5 -70t-86.5 -103
t-52 -123t-16.5 -132q0 -123 61 -179t203 -56q115 0 255 52l20 -91q-151 -67 -307 -67q-179 0 -277.5 77.5t-98.5 241.5q0 91 25.5 176t78 158.5t125.5 128.5t174.5 86.5t219.5 31.5q348 0 348 -268zM447 272q0 -36 27 -36q25 0 55.5 36.5t49.5 95.5l28 86q-20 4 -36 4
q-57 0 -90.5 -58.5t-33.5 -127.5z" />
    <glyph glyph-name="Euro.fitted" horiz-adv-x="542" 
d="M425 156l49 -82q-87 -87 -204 -87q-107 0 -162 57t-52 166h-62l19 99h52q5 33 13 61h-53l19 99h65q40 103 118 161t169 58q126 0 170 -93l-75 -74q-28 45 -89 45q-40 0 -72.5 -27t-49.5 -70h124l-20 -99h-137q-9 -31 -12 -61h137l-19 -99h-128q-4 -46 20 -72.5t67 -26.5
q62 0 113 45z" />
    <glyph glyph-name="dollar.slashed.oldstyle" horiz-adv-x="606" 
d="M601 594l-42 -83q-60 22 -121 27l-51 -145q38 -10 65.5 -21t55.5 -29.5t42.5 -47t14.5 -66.5q0 -94 -76.5 -159t-235.5 -65h-1l-48 -113h-87l33 121q-95 16 -160 59l51 86q47 -27 146 -38l52 150q-35 10 -61 22t-51 31t-38.5 47.5t-13.5 64.5q0 95 75.5 155.5t211.5 60.5
h10l44 101h87l-29 -111v-1q71 -13 127 -46zM404 193q0 17 -17.5 28.5t-51.5 21.5l-43 -125q112 10 112 75zM233 468q0 -30 58 -50l42 122q-100 -10 -100 -72z" />
    <glyph glyph-name="cent.fitted" horiz-adv-x="466" 
d="M391 251l36 -84q-62 -43 -128 -57l-35 -116h-95l11 110q-68 9 -104.5 52t-36.5 115q0 67 23.5 129t78.5 112t131 62l31 106h94l-9 -109q53 -13 90 -52l-62 -82q-36 29 -80 29q-61 0 -95.5 -53t-34.5 -122q0 -78 71 -78q57 0 114 38z" />
    <glyph glyph-name="cent.slashed.oldstyle" horiz-adv-x="514" 
d="M439 247l26 -83q-81 -53 -180 -62l-44 -102h-87l28 107q-142 27 -142 169q0 133 87 217t220 85l42 97h87l-29 -112q50 -15 84 -45l-58 -82q-30 19 -63 24l-86 -245q56 0 115 32zM193 299q0 -52 32 -70l80 230q-58 -14 -85 -62t-27 -98z" />
    <glyph glyph-name="sterling.fitted" horiz-adv-x="456" 
d="M379 0h-403l21 103q51 45 75 87.5t29 97.5h-79l20 104h63q0 1 -2 24.5t-2 40.5q0 98 55 162.5t174 64.5q94 0 161 -43l-37 -86q-42 12 -83 12q-58 0 -80 -31t-22 -91q0 -16 1 -33t1 -20h117l-20 -104h-103q-3 -54 -22 -91.5t-60 -70.5h220z" />
    <glyph glyph-name="florin.fitted" horiz-adv-x="465" 
d="M508 648l-33 -87q-27 11 -59 11q-27 0 -42 -15t-24 -52l-29 -114h113l-20 -104h-116l-56 -227q-42 -172 -185 -172q-64 0 -119 36l31 87q24 -11 53 -11q25 0 39 15t23 52l55 220h-97l20 104h100l31 121q40 171 190 171q70 0 125 -35z" />
    <glyph glyph-name="yen.fitted" horiz-adv-x="480" 
d="M436 235h-122l-13 -63h122l-18 -101h-123l-13 -71h-158l14 71h-122l19 101h122l13 63h-122l19 101h122l3 11q-65 148 -100 328h169q13 -127 40 -204q51 68 115 204h163q-122 -205 -230 -328l-2 -11h122z" />
    <glyph glyph-name="H_a_n_g_T_a_b_P_r_o_p" horiz-adv-x="1731" 
d="M559 500h-84v140h-98v-140h-84v337h84v-127h98v127h84v-337zM824 500h-61l-5 23q-35 -30 -76 -30q-82 0 -82 75q0 41 34 65t98 24h13v14q0 30 -41 30q-37 0 -79 -15l-10 48q53 24 109 24q49 0 74.5 -21t25.5 -58v-179zM745 567v42h-16q-50 0 -50 -32q0 -28 27 -28
q21 0 39 18zM1099 500h-80q0 31 0.5 76t0.5 54q0 40 -5.5 52t-20.5 12q-14 0 -37 -15v-179h-80v252h65l6 -24q33 31 74 31t60 -28t19 -88q0 -11 -1 -61t-1 -82zM1371 747v-236q0 -104 -114 -104q-40 0 -97 24l6 43q56 -8 81 -8q24 0 34 7.5t10 26.5v25q-31 -23 -60 -23
q-44 0 -67.5 33.5t-23.5 84.5q0 70 36 104.5t100 34.5q43 0 95 -12zM1291 578v120q-9 4 -25 4q-45 0 -45 -72q0 -69 34 -69q16 0 36 17zM220 273h-68v-273h-84v273h-68v64h220v-64zM432 0h-61l-5 23q-35 -30 -75 -30q-83 0 -83 75q0 41 34 65t98 24h13v14q0 30 -41 30
q-37 0 -79 -15l-10 48q53 24 109 24q49 0 74.5 -21t25.5 -58v-179zM353 67v42h-16q-51 0 -51 -32q0 -28 28 -28q21 0 39 18zM485 5v349h80v-119q30 24 59 24q46 0 69 -34.5t23 -88.5q0 -143 -138 -143q-41 0 -93 12zM565 181v-127q7 -4 24 -4q45 0 45 76q0 71 -33 71
q-17 0 -36 -16zM854 0h-84v337q18 0 56 0.5t57 0.5q127 0 127 -109q0 -122 -145 -122h-11v-107zM854 277v-110h15q53 0 53 55q0 28 -12 41.5t-40 13.5h-16zM1201 252l-10 -69q-16 4 -24 4q-17 0 -43 -34v-153h-80v252h65l6 -36q31 42 59 42q12 0 27 -6zM1459 131
q0 -69 -33.5 -103.5t-94.5 -34.5q-59 0 -88.5 30t-29.5 98q0 69 33.5 103.5t94.5 34.5q59 0 88.5 -30.5t29.5 -97.5zM1377 120q0 48 -10 64t-31 16q-41 0 -41 -68q0 -48 10 -64.5t31 -16.5q41 0 41 69zM1580 -87h-80v339h65l6 -24q34 31 68 31q46 0 69 -34.5t23 -88.5
q0 -73 -34.5 -108t-93.5 -35q-4 0 -12 0.5t-11 0.5v-81zM1580 181v-127q8 -4 24 -4q45 0 45 77q0 70 -33 70q-17 0 -36 -16z" />
    <glyph glyph-name="H_a_n_g_P_r_o_p" horiz-adv-x="1078" 
d="M266 500h-84v140h-98v-140h-84v337h84v-127h98v127h84v-337zM532 500h-62l-5 23q-35 -30 -75 -30q-82 0 -82 75q0 41 34 65t98 24h12v14q0 30 -40 30q-38 0 -80 -15l-10 48q54 24 109 24q49 0 75 -21t26 -58v-179zM452 567v42h-16q-50 0 -50 -32q0 -28 28 -28q20 0 38 18
zM807 500h-81q0 31 1 76t1 54q0 40 -6 52t-21 12q-14 0 -36 -15v-179h-80v252h65l6 -24q33 31 74 31t60 -28t19 -88q0 -11 -1 -61t-1 -82zM1078 747v-236q0 -104 -114 -104q-40 0 -96 24l6 43q54 -8 81 -8q23 0 33 7.5t10 26.5v25q-31 -23 -60 -23q-44 0 -67 33.5t-23 84.5
q0 70 36 104.5t99 34.5q43 0 95 -12zM998 578v120q-8 4 -24 4q-45 0 -45 -72q0 -69 34 -69q16 0 35 17zM139 0h-84v337q19 0 56.5 0.5t55.5 0.5q128 0 128 -109q0 -122 -145 -122h-11v-107zM139 277v-110h15q52 0 52 55t-51 55h-16zM486 252l-10 -69q-16 4 -24 4
q-17 0 -43 -34v-153h-80v252h65l6 -36q31 42 59 42q12 0 27 -6zM744 131q0 -69 -33.5 -103.5t-94.5 -34.5q-59 0 -88.5 30t-29.5 98t33.5 103t93.5 35q59 0 89 -30.5t30 -97.5zM662 120q0 47 -10.5 63.5t-30.5 16.5q-41 0 -41 -68q0 -48 10 -64.5t31 -16.5q41 0 41 69z
M865 -87h-80v339h65l5 -24q36 31 69 31q46 0 68.5 -34.5t22.5 -88.5q0 -73 -34 -108t-93 -35q-4 0 -12.5 0.5t-10.5 0.5v-81zM865 181v-127q8 -4 24 -4q45 0 45 77q0 70 -33 70q-17 0 -36 -16z" />
    <glyph glyph-name="zero.oldstyle" horiz-adv-x="561" 
d="M548 400q0 -80 -30.5 -182t-87.5 -159q-72 -72 -197 -72q-104 0 -155.5 44.5t-51.5 144.5q0 80 31 182t88 159q71 72 195 72q104 0 156 -44.5t52 -144.5zM252 108q33 0 58 24q30 30 51.5 119t21.5 143q0 43 -15.5 59.5t-45.5 16.5q-35 0 -59 -23q-30 -31 -51 -119.5
t-21 -142.5q0 -43 15.5 -60t45.5 -17z" />
    <glyph glyph-name="one.oldstyle" horiz-adv-x="348" 
d="M234 0h-167l80 415l-84 -31l-18 107l175 85h126z" />
    <glyph glyph-name="two.oldstyle" horiz-adv-x="451" 
d="M374 0h-408l24 124q170 127 221 180.5t51 103.5q0 49 -66 49q-51 0 -118 -21l-2 108q109 44 195 44q84 0 128.5 -40t44.5 -107q0 -81 -55 -146.5t-193 -158.5h205z" />
    <glyph glyph-name="three.oldstyle" horiz-adv-x="441" 
d="M106 -114q-101 0 -168 44l28 94q47 -13 106 -13q77 0 108 36.5t31 82.5q0 60 -85 60h-60l24 121h58q54 0 80 28.5t26 69.5q0 51 -70 51q-57 0 -108 -20l-1 107q93 41 180 41t131 -38t44 -107q0 -60 -34 -111t-95 -72q42 -10 64.5 -41t22.5 -78q0 -41 -14.5 -82.5
t-45.5 -81.5t-88.5 -65.5t-133.5 -25.5z" />
    <glyph glyph-name="four.oldstyle" horiz-adv-x="505" 
d="M450 39h-63l-28 -143h-159l28 143h-258l24 126q109 196 262 411h235l-78 -404h63zM254 172l55 284h-2q-98 -142 -175 -284h122z" />
    <glyph glyph-name="five.oldstyle" horiz-adv-x="457" 
d="M127 -114q-95 0 -168 43l28 94q58 -13 106 -13q71 0 107.5 33t36.5 82q0 34 -21 49.5t-70 15.5q-58 0 -120 -15l101 401h322l-27 -137h-192l-32 -127q19 4 53 4q157 0 157 -146q0 -113 -73.5 -198.5t-207.5 -85.5z" />
    <glyph glyph-name="six.oldstyle" horiz-adv-x="512" 
d="M219 -11q-89 0 -138 44.5t-49 149.5q0 52 11.5 124.5t45.5 163.5t83 140q76 76 188 76q95 0 172 -47l-31 -89q-78 16 -126 16q-66 0 -100.5 -40t-60.5 -141q76 39 133 39q143 0 143 -139q0 -44 -14.5 -92t-44 -95.5t-85 -78.5t-127.5 -31zM332 250q0 28 -13 40t-42 12
q-31 0 -77 -20q-13 -67 -13 -101q0 -76 51 -76q30 0 52.5 25.5t32 57.5t9.5 62z" />
    <glyph glyph-name="seven.oldstyle" horiz-adv-x="427" 
d="M451 450l-153 -253q-99 -164 -230 -310l-102 36l299 516h-217l26 137h402z" />
    <glyph glyph-name="eight.oldstyle" horiz-adv-x="521" 
d="M210 -13q-99 0 -150 40t-51 108q0 131 142 207q-67 49 -67 130q0 36 13.5 71t41.5 69t81 55t123 21q94 0 143 -37t49 -103q0 -127 -135 -200q82 -52 82 -134q0 -42 -13 -79t-42 -72t-85 -55.5t-132 -20.5zM381 528q0 51 -60 51q-41 0 -62 -25.5t-21 -58.5q0 -48 55 -81
q48 28 68 54.5t20 59.5zM323 186q0 52 -76 90q-81 -50 -81 -120q0 -57 67 -57q40 0 65 25.5t25 61.5z" />
    <glyph glyph-name="nine.oldstyle" horiz-adv-x="512" 
d="M304 588q89 0 138 -44.5t49 -149.5q0 -109 -36.5 -236t-105.5 -195q-81 -80 -195 -80q-98 0 -182 48l27 87q87 -15 147 -15q65 0 101 42t62 146q-75 -39 -132 -39q-143 0 -143 139q0 34 8 71.5t28.5 78.5t50 73t77.5 53t106 21zM192 328q0 -28 13 -40.5t42 -12.5
q34 0 77 20q12 55 12 100q0 77 -51 77q-29 0 -51.5 -26.5t-32 -58.5t-9.5 -59z" />
    <glyph glyph-name="H_a_n_g_T_a_b" horiz-adv-x="1078" 
d="M266 500h-84v140h-98v-140h-84v337h84v-127h98v127h84v-337zM532 500h-62l-5 23q-35 -30 -75 -30q-82 0 -82 75q0 41 34 65t98 24h12v14q0 30 -40 30q-38 0 -80 -15l-10 48q54 24 109 24q49 0 75 -21t26 -58v-179zM452 567v42h-16q-50 0 -50 -32q0 -28 28 -28q20 0 38 18
zM807 500h-81q0 31 1 76t1 54q0 40 -6 52t-21 12q-14 0 -36 -15v-179h-80v252h65l6 -24q33 31 74 31t60 -28t19 -88q0 -11 -1 -61t-1 -82zM1078 747v-236q0 -104 -114 -104q-40 0 -96 24l6 43q54 -8 81 -8q23 0 33 7.5t10 26.5v25q-31 -23 -60 -23q-44 0 -67 33.5t-23 84.5
q0 70 36 104.5t99 34.5q43 0 95 -12zM998 578v120q-8 4 -24 4q-45 0 -45 -72q0 -69 34 -69q16 0 35 17zM393 273h-68v-273h-84v273h-68v64h220v-64zM605 0h-61l-5 23q-35 -30 -75 -30q-82 0 -82 75q0 41 33.5 65t97.5 24h13v14q0 30 -41 30q-37 0 -79 -15l-10 48
q53 24 109 24q49 0 74.5 -21t25.5 -58v-179zM526 67v42h-16q-50 0 -50 -32q0 -28 27 -28q21 0 39 18zM658 5v349h80v-119q32 24 59 24q46 0 69 -34.5t23 -88.5q0 -143 -137 -143q-42 0 -94 12zM738 181v-127q7 -4 25 -4q44 0 44 76q0 71 -33 71q-17 0 -36 -16z" />
    <glyph glyph-name="zero.OnumTab" 
d="M499 409q0 -80 -33 -192t-86 -165q-64 -65 -178 -65q-97 0 -143.5 41t-46.5 138q0 80 33 192t87 166q64 64 179 64q97 0 142.5 -42t45.5 -137zM220 107q30 0 49 18q25 26 48 131t23 155q0 58 -51 58q-28 0 -49 -20q-24 -25 -46.5 -129t-22.5 -155q0 -58 49 -58z" />
    <glyph glyph-name="one.OnumTab" 
d="M416 0h-412l26 135h125l56 284l-115 -36l-19 107l203 86h136l-86 -441h112z" />
    <glyph glyph-name="two.OnumTab" 
d="M418 0h-433l23 123q184 124 240.5 177.5t56.5 104.5q0 52 -72 52q-61 0 -145 -28l-1 107q119 52 214 52q93 0 139.5 -39.5t46.5 -108.5q0 -77 -55.5 -144t-200.5 -160h213z" />
    <glyph glyph-name="three.OnumTab" 
d="M146 -114q-106 0 -192 50l27 92q76 -16 138 -16q80 0 112.5 34.5t32.5 82.5q0 61 -90 61h-83l23 121h77q60 0 87.5 30t27.5 66q0 53 -73 53q-61 0 -144 -26l-2 105q113 49 207 49t140 -38t46 -106q0 -62 -32.5 -111.5t-96.5 -75.5q87 -20 87 -119q0 -33 -8 -65.5t-29 -67
t-53 -60.5t-84 -42.5t-118 -16.5z" />
    <glyph glyph-name="four.OnumTab" 
d="M442 39h-57l-28 -143h-159l28 143h-255l26 133q106 187 257 404h235l-78 -404h57zM252 172l53 269h-3q-89 -133 -168 -269h118z" />
    <glyph glyph-name="five.OnumTab" 
d="M147 -114q-94 0 -193 51l28 91q68 -16 142 -16q80 0 116 33.5t36 83.5q0 33 -25.5 47t-78.5 14q-73 0 -146 -18l102 404h353l-26 -137h-224l-32 -128q38 5 64 5q181 0 181 -155q0 -49 -15 -94.5t-47.5 -87.5t-93 -67.5t-141.5 -25.5z" />
    <glyph glyph-name="six.OnumTab" 
d="M208 -11q-87 0 -133.5 44.5t-46.5 153.5q0 59 11.5 131.5t45 159t82.5 134.5q74 75 187 75q95 0 172 -47l-31 -89q-78 16 -126 16q-62 0 -98.5 -39t-61.5 -141q73 38 129 38q70 0 104.5 -36t34.5 -101q0 -36 -9 -75t-29.5 -79.5t-50.5 -72t-77 -52t-103 -20.5zM318 255
q0 47 -50 47q-32 0 -74 -19q-13 -71 -13 -106q0 -72 49 -72q29 0 50 28t29.5 61t8.5 61z" />
    <glyph glyph-name="seven.OnumTab" 
d="M513 450l-170 -259q-104 -160 -234 -304l-107 42l311 510h-251l26 137h449z" />
    <glyph glyph-name="eight.OnumTab" 
d="M195 -13q-98 0 -145.5 39.5t-47.5 108.5q0 133 138 207q-63 48 -63 126q0 38 11.5 73.5t38.5 70t80 55.5t126 21q92 0 140.5 -37t48.5 -103q0 -126 -132 -199q78 -48 78 -125q0 -45 -13.5 -84.5t-43 -75t-85 -56.5t-131.5 -21zM367 531q0 48 -57 48q-39 0 -58.5 -27
t-19.5 -61q0 -44 52 -77q45 28 64 55t19 62zM309 186q0 29 -18 50t-54 41q-78 -53 -78 -122q0 -56 62 -56q39 0 63.5 26.5t24.5 60.5z" />
    <glyph glyph-name="nine.OnumTab" 
d="M303 588q181 0 181 -195q0 -111 -35.5 -237t-105.5 -195q-81 -78 -188 -78q-103 0 -185 48l26 87q82 -15 144 -15q63 0 100.5 42.5t62.5 145.5q-75 -39 -130 -39q-138 0 -138 137q0 35 8.5 73.5t29 79t50 73t76.5 53t104 20.5zM193 322q0 -47 52 -47q29 0 73 20
q13 71 13 105q0 72 -50 72q-29 0 -50 -28.5t-29.5 -61.5t-8.5 -60z" />
    <glyph glyph-name="L_i_n_P_r_o_p" horiz-adv-x="960" 
d="M364 500h-172v337h84v-273h88v-64zM484 815q0 -22 -10 -31t-37 -9q-28 0 -37.5 8.5t-9.5 31.5q0 22 10 31t37 9q28 0 37.5 -8.5t9.5 -31.5zM477 500h-80v252h80v-252zM753 500h-80q0 31 1 76t1 54q0 40 -6 52t-21 12t-37 -15v-179h-80v252h65l6 -24q34 31 74 31
q41 0 60 -27.5t19 -88.5q0 -11 -1 -61t-1 -82zM84 0h-84v337q19 0 56.5 0.5t55.5 0.5q127 0 127 -109q0 -122 -144 -122h-11v-107zM84 277v-110h15q52 0 52 55q0 28 -12 41.5t-40 13.5h-15zM430 252l-9 -69q-16 4 -24 4q-17 0 -44 -34v-153h-80v252h66l6 -36q31 42 59 42
q13 0 26 -6zM688 131q0 -68 -33.5 -103t-93.5 -35q-59 0 -88.5 30t-29.5 98t33.5 103t93.5 35q59 0 88.5 -30.5t29.5 -97.5zM606 120q0 47 -10 63.5t-30 16.5q-41 0 -41 -68q0 -48 10 -64.5t31 -16.5q40 0 40 69zM810 -87h-80v339h65l5 -24q34 31 69 31q46 0 68.5 -34.5
t22.5 -88.5q0 -73 -34 -108t-93 -35q-4 0 -12.5 0.5t-10.5 0.5v-81zM810 181v-127q8 -4 24 -4q45 0 45 77q0 70 -34 70q-18 0 -35 -16z" />
    <glyph glyph-name="zero.LinProp" horiz-adv-x="590" 
d="M376 687q104 0 161 -51t57 -153q0 -101 -37.5 -225t-103.5 -190q-78 -80 -209 -80q-218 0 -218 204q0 101 37.5 225t103.5 190q78 80 209 80zM421 480q0 45 -16.5 64.5t-48.5 19.5q-41 0 -68 -27q-37 -37 -63.5 -158t-26.5 -184q0 -84 66 -84q41 0 68 27q37 37 63 157.5
t26 184.5z" />
    <glyph glyph-name="one.LinProp" horiz-adv-x="351" 
d="M237 0h-170l97 508l-90 -35l-13 116l178 86h129z" />
    <glyph glyph-name="two.LinProp" horiz-adv-x="479" 
d="M399 0h-433l27 139q179 155 244 229t65 127q0 30 -17.5 42t-51.5 12q-55 0 -139 -30l-1 115q119 53 210 53q94 0 140 -39.5t46 -111.5q0 -96 -81 -192t-225 -199h244z" />
    <glyph glyph-name="three.LinProp" horiz-adv-x="460" 
d="M424 234q0 -33 -10 -66.5t-33.5 -66.5t-56.5 -58t-83 -40.5t-110 -15.5q-106 0 -173 44l29 100q54 -14 115 -14q74 0 111 34.5t37 81.5q0 60 -90 60h-91l23 120h86q55 0 84.5 27t29.5 67q0 57 -84 57q-65 0 -122 -19l-1 101q97 41 188 41q94 0 144.5 -36t50.5 -103
q0 -65 -41 -115.5t-105 -71.5q46 -8 74 -39.5t28 -87.5z" />
    <glyph glyph-name="four.LinProp" horiz-adv-x="514" 
d="M478 139h-63l-27 -139h-159l27 139h-267l24 125q75 134 271 411h235l-79 -404h63zM281 271l56 285h-2q-141 -210 -184 -285h130z" />
    <glyph glyph-name="five.LinProp" horiz-adv-x="475" 
d="M445 276q0 -125 -83 -206.5t-211 -81.5q-102 0 -175 40l30 103q66 -14 117 -14q65 0 108 28.5t43 87.5q0 35 -22 50.5t-72 15.5q-70 0 -133 -17l99 393h332l-27 -136h-202l-31 -121q28 4 56 4q171 0 171 -146z" />
    <glyph glyph-name="six.LinProp" horiz-adv-x="518" 
d="M496 286q0 -45 -16.5 -95t-47.5 -96.5t-85.5 -76.5t-121.5 -30q-193 0 -193 195q0 90 35.5 222.5t106.5 203.5q78 78 186 78q94 0 171 -47l-31 -89q-70 16 -126 16q-61 0 -98.5 -38.5t-61.5 -142.5q76 39 135 39q68 0 107.5 -37t39.5 -102zM335 248q0 54 -59 54
q-33 0 -77 -20q-14 -56 -14 -103q0 -74 52 -74q45 0 71.5 48.5t26.5 94.5z" />
    <glyph glyph-name="seven.LinProp" horiz-adv-x="442" 
d="M486 549l-164 -250q-136 -206 -228 -312l-108 36l314 516h-233l26 136h417z" />
    <glyph glyph-name="eight.LinProp" horiz-adv-x="533" 
d="M211 -13q-99 0 -152.5 40.5t-53.5 107.5q0 131 141 207q-66 50 -66 126q0 37 13.5 73t42 70.5t83 55.5t126.5 21q95 0 149.5 -37.5t54.5 -102.5q0 -127 -136 -200q82 -52 82 -134q0 -41 -15.5 -79.5t-47 -72.5t-88.5 -54.5t-133 -20.5zM389 526q0 53 -63 53
q-41 0 -63 -26t-22 -61q0 -46 57 -81q91 52 91 115zM331 185q0 56 -74 94q-89 -51 -89 -121q0 -28 19 -43.5t51 -15.5q41 0 67 24.5t26 61.5z" />
    </font>
</defs>
</svg>
