<?xml version="1.0" standalone="no"?>
<!DOCTYPE svg PUBLIC "-//W3C//DTD SVG 1.1//EN" "http://www.w3.org/Graphics/SVG/1.1/DTD/svg11.dtd" >
<svg xmlns="http://www.w3.org/2000/svg" xmlns:xlink="http://www.w3.org/1999/xlink" version="1.1">
<metadata>
Created by FontForge 20170731 at Wed Nov  9 19:21:11 2016
 By Aleksey,,,
Copyright (c) Luc[as] de Groot, published by LucasFonts, 2002, 2004, 2007, 2009, 2016. All rights reserved.
</metadata>
<defs>
<font id="FHPSun-SemiBold" horiz-adv-x="500" >
  <font-face 
    font-family="FHP Sun SemiBold"
    font-weight="600"
    font-stretch="normal"
    units-per-em="1000"
    panose-1="2 11 6 3 5 3 2 2 2 3"
    ascent="800"
    descent="-200"
    x-height="498"
    cap-height="675"
    bbox="-269 -200 1666 885"
    underline-thickness="78"
    underline-position="-295"
    unicode-range="U+000D-1F6C8"
  />
<missing-glyph horiz-adv-x="550" 
d="M300 150h-150v250h50v-200h100v-50zM500 50h-450v450h450v-450zM350 350h-100v50h150v-250h-50v100h-100v50h100v50zM100 100h350v350h-350v-350z" />
    <glyph glyph-name="f_f" unicode="ff" horiz-adv-x="584" 
d="M616 688l-17 -59q-39 14 -64 14q-62 0 -62 -72v-73h101v-73h-101v-425h-102v425h-182v-425h-103v425h-72v73h72v61q0 152 132 152q56 0 105 -26l-15 -61q-29 11 -59 11q-32 0 -46 -17.5t-14 -54.5v-65h182v69q0 152 133 152q60 0 112 -31z" />
    <glyph glyph-name="fi" unicode="fi" horiz-adv-x="549" 
d="M473 0h-102v425h-182v-425h-103v425h-72v73h72v69q0 152 132 152q52 0 98 -23l-16 -64q-26 11 -53 11q-31 0 -44.5 -17.5t-13.5 -54.5v-73h284v-498zM485 636q0 -33 -12.5 -44.5t-49.5 -11.5q-39 0 -51.5 11.5t-12.5 44.5t13 44.5t51 11.5t50 -11.5t12 -44.5z" />
    <glyph glyph-name="fl" unicode="fl" horiz-adv-x="565" 
d="M536 66l4 -62q-31 -11 -79 -11q-49 0 -70.5 20.5t-21.5 78.5v543q-38 8 -81 8q-55 0 -77 -22.5t-22 -77.5v-45h89v-73h-89v-425h-103v425h-72v73h72v40q0 89 38.5 135t140.5 46q53 0 111 -10h96v-577q0 -43 7 -55t29 -12q5 0 15 0.5t13 0.5z" />
    <glyph glyph-name="f_f_i" unicode="ffi" horiz-adv-x="833" 
d="M758 0h-103v425h-182v-425h-102v425h-182v-425h-103v425h-72v73h72v61q0 152 132 152q56 0 105 -26l-15 -61q-29 11 -59 11q-32 0 -46 -17.5t-14 -54.5v-65h182v69q0 152 131 152q52 0 98 -23l-15 -64q-26 11 -53 11q-31 0 -45 -17.5t-14 -54.5v-73h285v-498zM769 636
q0 -33 -12 -44.5t-50 -11.5t-50.5 11.5t-12.5 44.5t12.5 44.5t50.5 11.5t50 -11.5t12 -44.5z" />
    <glyph glyph-name="f_f_l" unicode="ffl" horiz-adv-x="849" 
d="M820 66l5 -62q-33 -11 -80 -11q-49 0 -70 20.5t-21 78.5v543q-38 8 -82 8q-54 0 -76.5 -22.5t-22.5 -77.5v-45h90v-73h-90v-425h-102v425h-182v-425h-103v425h-72v73h72v61q0 152 132 152q56 0 105 -26l-17 -61q-29 11 -57 11q-32 0 -46 -17.5t-14 -54.5v-65h182v40
q0 89 38 135t140 46q53 0 111 -10h97v-577q0 -43 7 -55t29 -12q6 0 15.5 0.5t11.5 0.5z" />
    <glyph glyph-name="f_b" unicode="fb" horiz-adv-x="821" 
d="M473 709v-256q69 55 132 55q80 0 126 -67.5t46 -172.5q0 -142 -68.5 -210t-185.5 -68q-64 0 -152 18v627q-40 8 -83 8q-55 0 -77 -22.5t-22 -77.5v-45h89v-73h-89v-425h-103v425h-72v73h72v40q0 89 38.5 135t140.5 46q52 0 112 -10h96zM473 378v-302q29 -11 69 -11
q58 0 93.5 47t35.5 139q0 83 -25 130t-70 47t-103 -50z" />
    <glyph glyph-name="f_f_b" unicode="ffb" horiz-adv-x="1106" 
d="M758 709v-256q69 55 131 55q81 0 127 -67.5t46 -172.5q0 -142 -68.5 -210t-185.5 -68q-65 0 -153 18v627q-40 8 -83 8q-54 0 -76.5 -22.5t-22.5 -77.5v-45h90v-73h-90v-425h-102v425h-182v-425h-103v425h-72v73h72v61q0 152 132 152q56 0 105 -26l-15 -61q-29 11 -59 11
q-32 0 -46 -17.5t-14 -54.5v-65h182v40q0 89 38 135t140 46q53 0 113 -10h96zM758 378v-302q29 -11 69 -11q58 0 93.5 47.5t35.5 138.5q0 83 -25 130t-70 47q-47 0 -103 -50z" />
    <glyph glyph-name="f_h" unicode="fh" horiz-adv-x="838" 
d="M473 709v-259q75 58 142 58q75 0 113.5 -52.5t38.5 -170.5q0 -25 -1.5 -125.5t-1.5 -159.5h-103q0 54 1.5 146.5t1.5 117.5q0 89 -19.5 125t-60.5 36q-48 0 -111 -50v-375h-102v635q-40 8 -83 8q-55 0 -77 -22.5t-22 -77.5v-45h89v-73h-89v-425h-103v425h-72v73h72v40
q0 89 38.5 135t140.5 46q52 0 112 -10h96z" />
    <glyph glyph-name="f_f_h" unicode="ffh" horiz-adv-x="1123" 
d="M758 709v-259q75 58 142 58q74 0 113 -52.5t39 -170.5q0 -25 -2 -125.5t-2 -159.5h-102q0 54 1 146.5t1 117.5q0 89 -19.5 125t-59.5 36q-49 0 -111 -50v-375h-103v635q-40 8 -83 8q-54 0 -76.5 -22.5t-22.5 -77.5v-45h90v-73h-90v-425h-102v425h-182v-425h-103v425h-72
v73h72v61q0 152 132 152q56 0 105 -26l-15 -61q-29 11 -59 11q-32 0 -46 -17.5t-14 -54.5v-65h182v40q0 89 38 135t140 46q53 0 113 -10h96z" />
    <glyph glyph-name="f_igrave" unicode="f&#xec;" horiz-adv-x="549" 
d="M473 0h-102v425h-182v-425h-103v425h-72v73h72v79q0 142 116 142q39 0 77 -16l-9 -65q-17 5 -35 5q-46 0 -46 -63v-82h284v-498zM398 726l75 -160l-59 -17l-101 152z" />
    <glyph glyph-name="f_iacute" unicode="f&#xed;" horiz-adv-x="549" 
d="M473 0h-102v425h-182v-425h-103v425h-72v73h72v69q0 152 132 152q52 0 98 -23l-16 -64q-26 11 -53 11q-31 0 -44.5 -17.5t-13.5 -54.5v-73h284v-498zM566 679l-152 -121l-52 30l129 134z" />
    <glyph glyph-name="f_icircumflex" unicode="f&#xee;" horiz-adv-x="549" 
d="M555 592l-37 -40l-96 85l-96 -85l-36 39l134 135zM473 0h-102v425h-182v-425h-103v425h-72v73h72v79q0 142 116 142q39 0 77 -16l-11 -65q-17 5 -34 5q-24 0 -34.5 -15t-10.5 -48v-82h284v-498z" />
    <glyph glyph-name="f_itilde" unicode="f&#x129;" horiz-adv-x="549" 
d="M519 663l40 -32q-39 -73 -100 -73q-31 0 -60.5 20t-39.5 20q-23 0 -51 -40l-39 31q19 37 42 55.5t58 18.5q30 0 60 -20t40 -20q22 0 50 40zM473 0h-102v425h-182v-425h-103v425h-72v73h72v79q0 142 114 142q34 0 75 -15l-9 -66q-16 5 -31 5q-46 0 -46 -63v-82h284v-498z
" />
    <glyph glyph-name="f_idieresis" unicode="f&#xef;" horiz-adv-x="549" 
d="M550 636q0 -28 -9.5 -38.5t-38.5 -10.5t-39 10t-10 39q0 30 10 40.5t39 10.5t38.5 -10.5t9.5 -40.5zM407 636q0 -28 -9.5 -38.5t-37.5 -10.5q-29 0 -39.5 10t-10.5 39t10.5 40t39.5 11q28 0 37.5 -10.5t9.5 -40.5zM473 0h-102v425h-182v-425h-103v425h-72v73h72v79
q0 142 114 142q34 0 75 -15l-9 -66q-16 5 -31 5q-46 0 -46 -63v-82h284v-498z" />
    <glyph glyph-name="f_imacron" unicode="f&#x12b;" horiz-adv-x="549" 
d="M548 596h-244v73h244v-73zM473 0h-102v425h-182v-425h-103v425h-72v73h72v79q0 142 114 142q34 0 75 -15l-9 -66q-16 5 -31 5q-46 0 -46 -63v-82h284v-498z" />
    <glyph glyph-name="f_ibreve" unicode="f&#x12d;" horiz-adv-x="549" 
d="M489 682h58q0 -66 -32.5 -101.5t-91.5 -35.5q-61 0 -92.5 35t-31.5 102h59q0 -68 65 -68q66 0 66 68zM473 0h-102v425h-182v-425h-103v425h-72v73h72v79q0 142 114 142q34 0 75 -15l-9 -66q-16 5 -31 5q-46 0 -46 -63v-82h284v-498z" />
    <glyph glyph-name="f_iogonek" unicode="f&#x12f;" horiz-adv-x="549" 
d="M473 498v-498q-34 -14 -53 -39.5t-19 -50.5q0 -31 33 -31q19 0 45 13l15 -47q-39 -25 -89 -25q-89 0 -89 71q0 52 55 109v425h-182v-425h-103v425h-72v73h72v69q0 152 132 152q52 0 98 -23l-16 -64q-26 11 -53 11q-31 0 -44.5 -17.5t-13.5 -54.5v-73h284zM485 636
q0 -32 -12.5 -44t-49.5 -12q-39 0 -51.5 11.5t-12.5 44.5q0 32 13 44t51 12t50 -11.5t12 -44.5z" />
    <glyph glyph-name="f_dotlessi" unicode="f&#x131;" horiz-adv-x="549" 
d="M473 0h-102v425h-182v-425h-103v425h-72v73h72v69q0 152 132 152q52 0 98 -23l-16 -64q-26 11 -53 11q-31 0 -44.5 -17.5t-13.5 -54.5v-73h284v-498z" />
    <glyph glyph-name="f_f_igrave" unicode="ff&#xec;" horiz-adv-x="833" 
d="M758 566l-59 -17l-101 152l85 25zM758 0h-103v425h-182v-425h-102v425h-182v-425h-103v425h-72v73h72v61q0 152 132 152q56 0 105 -26l-15 -61q-29 11 -59 11q-32 0 -46 -17.5t-14 -54.5v-65h182v79q0 142 116 142q40 0 76 -16l-9 -65q-17 5 -35 5q-46 0 -46 -63v-82h285
v-498z" />
    <glyph glyph-name="f_f_iacute" unicode="ff&#xed;" horiz-adv-x="833" 
d="M758 0h-103v425h-182v-425h-102v425h-182v-425h-103v425h-72v73h72v61q0 152 132 152q56 0 105 -26l-15 -61q-29 11 -59 11q-32 0 -46 -17.5t-14 -54.5v-65h182v69q0 152 131 152q52 0 98 -23l-15 -64q-26 11 -53 11q-31 0 -45 -17.5t-14 -54.5v-73h285v-498zM851 679
l-152 -121l-52 30l129 134z" />
    <glyph glyph-name="f_f_icircumflex" unicode="ff&#xee;" horiz-adv-x="833" 
d="M839 592l-37 -40l-96 85l-96 -85l-36 39l135 135zM758 0h-103v425h-182v-425h-102v425h-182v-425h-103v425h-72v73h72v61q0 152 132 152q56 0 105 -26l-15 -61q-29 11 -59 11q-32 0 -46 -17.5t-14 -54.5v-65h182v79q0 142 116 142q40 0 76 -16l-11 -65q-15 5 -33 5
q-46 0 -46 -63v-82h285v-498z" />
    <glyph glyph-name="f_f_itilde" unicode="ff&#x129;" horiz-adv-x="833" 
d="M804 663l39 -32q-37 -73 -100 -73q-30 0 -59.5 20t-39.5 20q-23 0 -51 -40l-39 31q37 74 100 74q30 0 59.5 -20t39.5 -20q23 0 51 40zM758 0h-103v425h-182v-425h-102v425h-182v-425h-103v425h-72v73h72v61q0 152 132 152q56 0 105 -26l-15 -61q-29 11 -59 11
q-32 0 -46 -17.5t-14 -54.5v-65h182v79q0 142 113 142q35 0 76 -15l-9 -66q-16 5 -32 5q-46 0 -46 -63v-82h285v-498z" />
    <glyph glyph-name="f_f_idieresis" unicode="ff&#xef;" horiz-adv-x="833" 
d="M835 636q0 -28 -10 -38.5t-38 -10.5q-29 0 -39 10t-10 39q0 30 10 40.5t39 10.5q28 0 38 -10.5t10 -40.5zM692 636q0 -28 -9.5 -38.5t-38.5 -10.5t-39 10t-10 39q0 30 10 40.5t39 10.5t38.5 -10.5t9.5 -40.5zM758 0h-103v425h-182v-425h-102v425h-182v-425h-103v425h-72
v73h72v61q0 152 132 152q56 0 105 -26l-15 -61q-29 11 -59 11q-32 0 -46 -17.5t-14 -54.5v-65h182v79q0 142 113 142q35 0 76 -15l-9 -66q-16 5 -32 5q-46 0 -46 -63v-82h285v-498z" />
    <glyph glyph-name="f_f_imacron" unicode="ff&#x12b;" horiz-adv-x="833" 
d="M832 596h-244v73h244v-73zM758 0h-103v425h-182v-425h-102v425h-182v-425h-103v425h-72v73h72v61q0 152 132 152q56 0 105 -26l-15 -61q-29 11 -59 11q-32 0 -46 -17.5t-14 -54.5v-65h182v79q0 142 113 142q35 0 76 -15l-9 -66q-16 5 -32 5q-46 0 -46 -63v-82h285v-498z
" />
    <glyph glyph-name="f_f_ibreve" unicode="ff&#x12d;" horiz-adv-x="833" 
d="M773 682h59q0 -66 -33 -101.5t-92 -35.5q-60 0 -91.5 35t-31.5 102h59q-1 -68 64 -68q66 0 66 68zM758 0h-103v425h-182v-425h-102v425h-182v-425h-103v425h-72v73h72v61q0 152 132 152q56 0 105 -26l-15 -61q-29 11 -59 11q-32 0 -46 -17.5t-14 -54.5v-65h182v79
q0 142 113 142q35 0 76 -15l-9 -66q-16 5 -32 5q-46 0 -46 -63v-82h285v-498z" />
    <glyph glyph-name="f_f_iogonek" unicode="ff&#x12f;" horiz-adv-x="833" 
d="M758 498v-498q-34 -14 -53.5 -39.5t-19.5 -50.5q0 -31 33 -31q21 0 45 13l15 -47q-38 -25 -88 -25q-90 0 -90 71q0 51 55 109v425h-182v-425h-102v425h-182v-425h-103v425h-72v73h72v61q0 152 132 152q56 0 105 -26l-15 -61q-29 11 -59 11q-32 0 -46 -17.5t-14 -54.5v-65
h182v69q0 152 131 152q52 0 98 -23l-15 -64q-26 11 -53 11q-31 0 -45 -17.5t-14 -54.5v-73h285zM769 636q0 -33 -12 -44.5t-50 -11.5t-50.5 11.5t-12.5 44.5t12.5 44.5t50.5 11.5t50 -11.5t12 -44.5z" />
    <glyph glyph-name="f_f_dotlessi" unicode="ff&#x131;" horiz-adv-x="833" 
d="M758 0h-103v425h-182v-425h-102v425h-182v-425h-103v425h-72v73h72v61q0 152 132 152q56 0 105 -26l-15 -61q-29 11 -59 11q-32 0 -46 -17.5t-14 -54.5v-65h182v69q0 152 131 152q52 0 98 -23l-15 -64q-26 11 -53 11q-31 0 -45 -17.5t-14 -54.5v-73h285v-498z" />
    <glyph glyph-name="f_ij" unicode="f&#x133;" horiz-adv-x="838" 
d="M762 498v-481q0 -111 -52.5 -154t-148.5 -43q-78 0 -166 35l9 58q87 -15 146 -15q58 0 84 22t26 77v17q0 27 2 43q-75 -59 -144 -59q-152 0 -152 221q0 31 1.5 106t1.5 100h-180v-425h-103v425h-72v73h72v69q0 152 132 152q52 0 98 -23l-16 -64q-26 11 -53 11
q-31 0 -44.5 -17.5t-13.5 -54.5v-73h283q0 -51 -1.5 -141t-1.5 -119q0 -89 19.5 -124.5t60.5 -35.5q48 0 111 50v370h102zM486 636q0 -33 -12 -44.5t-50 -11.5t-50.5 11.5t-12.5 44.5t12.5 44.5t50.5 11.5t50 -11t12 -45zM771 636q0 -33 -12 -44.5t-50 -11.5t-50.5 11.5
t-12.5 44.5t12.5 44.5t50.5 11.5t50 -11.5t12 -44.5z" />
    <glyph glyph-name="f_j" unicode="fj" horiz-adv-x="549" 
d="M473 498v-456q0 -73 -23.5 -124.5t-79.5 -97.5l-65 32q66 76 66 167v406h-182v-425h-103v425h-72v73h72v69q0 152 132 152q52 0 98 -23l-16 -64q-26 11 -53 11q-31 0 -44.5 -17.5t-13.5 -54.5v-73h284zM485 636q0 -33 -12.5 -44.5t-49.5 -11.5q-39 0 -51.5 11.5
t-12.5 44.5t13 44.5t51 11.5t50 -11.5t12 -44.5z" />
    <glyph glyph-name="f_jcircumflex" unicode="f&#x135;" horiz-adv-x="549" 
d="M555 592l-37 -40l-96 85l-96 -85l-36 39l134 135zM473 498v-456q0 -73 -23.5 -124.5t-79.5 -97.5l-65 32q66 76 66 167v406h-182v-425h-103v425h-72v73h72v79q0 142 116 142q39 0 77 -16l-11 -65q-17 5 -34 5q-24 0 -34.5 -15t-10.5 -48v-82h284z" />
    <glyph glyph-name="f_f_j" unicode="ffj" horiz-adv-x="833" 
d="M758 498v-456q0 -73 -24 -124.5t-79 -97.5l-65 32q65 75 65 167v406h-182v-425h-102v425h-182v-425h-103v425h-72v73h72v61q0 152 132 152q56 0 105 -26l-15 -61q-29 11 -59 11q-32 0 -46 -17.5t-14 -54.5v-65h182v69q0 152 131 152q52 0 98 -23l-15 -64q-26 11 -53 11
q-31 0 -45 -17.5t-14 -54.5v-73h285zM769 636q0 -33 -12 -44.5t-50 -11.5t-50.5 11.5t-12.5 44.5t12.5 44.5t50.5 11.5t50 -11.5t12 -44.5z" />
    <glyph glyph-name="f_k" unicode="fk" horiz-adv-x="768" 
d="M755 0h-121l-157 253h-4v-253h-102v635q-40 8 -83 8q-55 0 -77 -22.5t-22 -77.5v-45h89v-73h-89v-425h-103v425h-72v73h72v40q0 89 38.5 135t140.5 46q52 0 112 -10h96v-415h4l139 204h120l-165 -213z" />
    <glyph glyph-name="f_kcommaaccent" unicode="f&#x137;" horiz-adv-x="768" 
d="M755 0h-121l-157 253h-4v-253h-102v635q-40 8 -83 8q-55 0 -77 -22.5t-22 -77.5v-45h89v-73h-89v-425h-103v425h-72v73h72v40q0 89 38.5 135t140.5 46q52 0 112 -10h96v-415h4l139 204h120l-165 -213zM546 -36q46 0 46 -44q0 -80 -121 -99l-15 35q53 20 53 43
q0 4 -4.5 11t-4.5 18q0 16 12 26t34 10z" />
    <glyph glyph-name="f_f_k" unicode="ffk" horiz-adv-x="1053" 
d="M1040 0h-122l-157 253h-3v-253h-103v635q-40 8 -83 8q-54 0 -76.5 -22.5t-22.5 -77.5v-45h90v-73h-90v-425h-102v425h-182v-425h-103v425h-72v73h72v61q0 152 132 152q56 0 105 -26l-15 -61q-29 11 -59 11q-32 0 -46 -17.5t-14 -54.5v-65h182v40q0 89 38 135t140 46
q53 0 113 -10h96v-415h3l139 204h121l-166 -213z" />
    <glyph glyph-name="f_lacute" unicode="f&#x13a;" horiz-adv-x="565" 
d="M536 66l4 -62q-31 -11 -79 -11q-49 0 -70.5 20.5t-21.5 78.5v543q-38 8 -81 8q-55 0 -77 -22.5t-22 -77.5v-45h89v-73h-89v-425h-103v425h-72v73h72v40q0 89 38.5 135t140.5 46q53 0 111 -10h96v-577q0 -43 7 -55t29 -12q5 0 15 0.5t13 0.5zM364 781l174 86l48 -67
l-190 -66z" />
    <glyph glyph-name="f_lcaron" unicode="f&#x13e;" horiz-adv-x="604" 
d="M536 66l4 -62q-31 -11 -79 -11q-49 0 -70.5 20.5t-21.5 78.5v543q-38 8 -81 8q-55 0 -77 -22.5t-22 -77.5v-45h89v-73h-89v-425h-103v425h-72v73h72v40q0 89 38.5 135t140.5 46q53 0 111 -10h96v-577q0 -43 7 -55t29 -12q5 0 15 0.5t13 0.5zM622 738l-58 -178l-54 10
l34 184z" />
    <glyph glyph-name="f_lcommaaccent" unicode="f&#x13c;" horiz-adv-x="565" 
d="M536 66l4 -62q-31 -11 -79 -11q-49 0 -70.5 20.5t-21.5 78.5v543q-38 8 -81 8q-55 0 -77 -22.5t-22 -77.5v-45h89v-73h-89v-425h-103v425h-72v73h72v40q0 89 38.5 135t140.5 46q53 0 111 -10h96v-577q0 -43 7 -55t29 -12q5 0 15 0.5t13 0.5zM468 -36q46 0 46 -44
q0 -80 -121 -99l-15 35q53 20 53 43q0 4 -4.5 11t-4.5 18q0 16 12 26t34 10z" />
    <glyph glyph-name="f_lslash" unicode="f&#x142;" horiz-adv-x="566" 
d="M536 66l4 -62q-31 -11 -79 -11q-49 0 -70.5 20.5t-21.5 78.5v222l-67 -37v78l67 37v243q-38 8 -81 8q-55 0 -77 -22.5t-22 -77.5v-45h87v-73h-87v-425h-103v425h-72v73h72v40q0 89 38.5 135t140.5 46q53 0 111 -10h96v-262l67 37v-77l-67 -37v-238q0 -43 7 -55t29 -12
q5 0 15 0.5t13 0.5z" />
    <glyph glyph-name="f_thorn" unicode="f&#xfe;" horiz-adv-x="821" 
d="M777 269q0 -141 -66.5 -210t-177.5 -69q-37 0 -60 4v-167h-102v808q-40 8 -83 8q-55 0 -77 -22.5t-22 -77.5v-45h89v-73h-89v-425h-103v425h-72v73h72v40q0 89 38.5 135t140.5 46q52 0 112 -10h96v-256q69 55 132 55q80 0 126 -67.5t46 -171.5zM473 376v-300
q27 -11 69 -11q58 0 93.5 47t35.5 139q0 83 -25 130t-70 47q-47 0 -103 -52z" />
    <glyph glyph-name="f_f_thorn" unicode="ff&#xfe;" horiz-adv-x="1106" 
d="M1062 269q0 -141 -67 -210t-177 -69q-39 0 -60 4v-167h-103v808q-40 8 -83 8q-54 0 -76.5 -22.5t-22.5 -77.5v-45h90v-73h-90v-425h-102v425h-182v-425h-103v425h-72v73h72v61q0 152 132 152q56 0 105 -26l-15 -61q-29 11 -59 11q-32 0 -46 -17.5t-14 -54.5v-65h182v40
q0 89 38 135t140 46q53 0 113 -10h96v-256q67 55 131 55q81 0 127 -67.5t46 -171.5zM758 376v-300q27 -11 69 -11q58 0 93.5 47t35.5 139q0 82 -25.5 129.5t-69.5 47.5q-47 0 -103 -52z" />
    <glyph glyph-name=".notdef" horiz-adv-x="550" 
d="M300 150h-150v250h50v-200h100v-50zM500 50h-450v450h450v-450zM350 350h-100v50h150v-250h-50v100h-100v50h100v50zM100 100h350v350h-350v-350z" />
    <glyph glyph-name=".null" horiz-adv-x="0" 
 />
    <glyph glyph-name="nonmarkingreturn" horiz-adv-x="333" 
 />
    <glyph glyph-name="CR" unicode="&#xd;" horiz-adv-x="0" 
 />
    <glyph glyph-name="space" unicode=" " horiz-adv-x="240" 
 />
    <glyph glyph-name="exclam" unicode="!" horiz-adv-x="364" 
d="M251 162h-89l-19 513h126zM271 52q0 -34 -13 -46.5t-52 -12.5q-38 0 -51.5 12t-13.5 45q0 34 13 46.5t52 12.5q38 0 51.5 -12t13.5 -45z" />
    <glyph glyph-name="quotedbl" unicode="&#x22;" horiz-adv-x="451" 
d="M167 417h-78l-12 258h101zM359 417h-78l-12 258h101z" />
    <glyph glyph-name="numbersign" unicode="#" horiz-adv-x="510" 
d="M482 205h-108l-23 -205h-80l24 205h-114l-23 -205h-79l23 205h-74v66h81l19 162h-100v65h108l20 177h80l-21 -177h114l20 177h79l-20 -177h74v-65h-82l-19 -162h101v-66zM302 271l19 162h-113l-19 -162h113z" />
    <glyph glyph-name="dollar" unicode="$" 
d="M274 -106h-61l-8 108q-86 5 -158 55l30 56q67 -36 141 -36q60 0 92.5 26.5t32.5 70.5q0 36 -30 62t-72.5 44.5t-84.5 40t-72 60.5t-30 95q0 64 40.5 108.5t110.5 55.5l8 106h61l8 -103q76 -6 135 -47l-29 -54q-60 29 -125 29q-49 0 -75.5 -24.5t-26.5 -61.5
q0 -32 22 -56.5t54.5 -38.5t70.5 -33t70.5 -38t54.5 -54.5t22 -82.5q0 -69 -46 -117.5t-127 -60.5z" />
    <glyph glyph-name="percent" unicode="%" horiz-adv-x="699" 
d="M340 526q0 -72 -38.5 -115.5t-108.5 -43.5q-75 0 -107 41t-32 117q0 73 39 116.5t108 43.5q139 0 139 -159zM259 523q0 103 -62 103q-63 0 -63 -99q0 -101 63 -101q62 0 62 97zM645 149q0 -72 -38.5 -115.5t-108.5 -43.5q-75 0 -107 41t-32 117q0 73 39 116.5t109 43.5
q138 0 138 -159zM565 146q0 103 -63 103q-62 0 -62 -99q0 -101 62 -101q63 0 63 97zM623 661l-492 -680l-55 33l492 680z" />
    <glyph glyph-name="ampersand" unicode="&#x26;" horiz-adv-x="688" 
d="M650 67v-64q-26 -12 -63 -12q-43 0 -131 70q-88 -70 -206 -70q-102 0 -152 47.5t-50 125.5q0 65 31.5 111t87.5 85q-71 97 -71 165q0 71 48.5 115t137.5 44q77 0 120.5 -34.5t43.5 -92.5q0 -36 -12 -65t-39 -55t-46 -40t-58 -39q52 -63 127 -136l12 -12l14 -14l11 -11
q54 91 52 194h98q0 -141 -85 -253q70 -59 101 -59h29zM268 64q70 0 127 49q-32 30 -50 49q-76 75 -133 141q-64 -57 -64 -126q0 -54 31.5 -83.5t88.5 -29.5zM194 537q0 -48 54 -123q50 33 76 63.5t26 70.5q0 31 -19 50.5t-58 19.5q-37 0 -58 -22.5t-21 -58.5z" />
    <glyph glyph-name="quotesingle" unicode="'" horiz-adv-x="320" 
d="M201 417h-74l-12 258h98z" />
    <glyph glyph-name="parenleft" unicode="(" horiz-adv-x="310" 
d="M268 -148l-69 -24q-132 199 -132 444q0 248 132 454l69 -24q-105 -198 -105 -423q0 -227 105 -427z" />
    <glyph glyph-name="parenright" unicode=")" horiz-adv-x="310" 
d="M111 -172l-69 24q105 198 105 423q0 227 -105 427l69 24q132 -199 132 -444q0 -248 -132 -454z" />
    <glyph glyph-name="asterisk" unicode="*" 
d="M448 459l-48 -82l-118 88l16 -146h-95l17 146l-118 -88l-48 82l135 59l-135 60l48 82l118 -88l-17 146h95l-16 -146l118 88l48 -82l-135 -60z" />
    <glyph glyph-name="plus" unicode="+" 
d="M459 261h-166v-183h-87v183h-166v75h166v178h87v-178h166v-75z" />
    <glyph glyph-name="comma" unicode="," horiz-adv-x="304" 
d="M88 -155l-41 42q71 53 71 93q0 12 -14.5 28t-14.5 42q0 40 12 53.5t53 13.5q37 0 49 -14.5t12 -51.5q0 -66 -30 -114t-97 -92z" />
    <glyph glyph-name="hyphen" unicode="&#xad;" horiz-adv-x="235" 
d="M234 250h-205v78h205v-78z" />
    <glyph glyph-name="hyphen" unicode="-" horiz-adv-x="235" 
d="M234 250h-205v78h205v-78z" />
    <glyph glyph-name="period" unicode="." horiz-adv-x="290" 
d="M215 54q0 -37 -12.5 -50t-50.5 -13t-51 12.5t-13 49.5q0 39 13 51.5t52 12.5q37 0 49.5 -12.5t12.5 -50.5z" />
    <glyph glyph-name="slash" unicode="/" 
d="M489 709l-397 -813h-92l397 813h92z" />
    <glyph glyph-name="zero" unicode="0" 
d="M464 292q0 -302 -220 -302q-107 0 -158 67t-51 221q0 301 221 301q107 0 157.5 -66.5t50.5 -220.5zM359 285q0 118 -26 166.5t-83 48.5t-83.5 -49t-26.5 -166q0 -119 26 -167.5t83 -48.5t83.5 49t26.5 167z" />
    <glyph glyph-name="one" unicode="1" 
d="M452 0h-385v88h145v377l-129 -43l-24 66l179 81h85v-481h129v-88z" />
    <glyph glyph-name="two" unicode="2" 
d="M451 0h-401v74q168 138 220.5 200t52.5 120q0 99 -109 99q-58 0 -142 -26l-15 70q107 41 187 41q91 0 142 -43t51 -126q0 -77 -52 -142t-196 -179h262v-88z" />
    <glyph glyph-name="three" unicode="3" 
d="M27 -70l9 62q85 -21 154 -21q141 0 141 121q0 60 -30.5 90t-102.5 30h-72v80h68q119 0 119 110q0 93 -108 93q-66 0 -141 -25l-15 70q94 38 182 38q98 0 144.5 -43t46.5 -116q0 -62 -28.5 -103t-72.5 -56q123 -24 123 -164q0 -101 -64 -154.5t-171 -53.5q-84 0 -182 42z
" />
    <glyph glyph-name="four" unicode="4" 
d="M249 569h150v-435h74v-87h-74v-151h-102v151h-273v78q108 240 225 444zM297 134v349h-2q-87 -154 -180 -349h182z" />
    <glyph glyph-name="five" unicode="5" 
d="M400 480h-235l-12 -183q40 8 88 8q101 0 153.5 -49t52.5 -143q0 -106 -62.5 -165.5t-176.5 -59.5q-82 0 -179 43l9 61q85 -21 156 -21q145 0 145 132q0 119 -139 119q-70 0 -141 -16l22 363h319v-89z" />
    <glyph glyph-name="six" unicode="6" 
d="M441 648l-10 -61q-79 18 -132 18q-75 0 -109 -58.5t-36 -188.5q81 45 141 45q83 0 124 -45.5t41 -129.5q0 -113 -54.5 -175t-149.5 -62q-46 0 -80 14t-64 48t-45.5 100t-15.5 163q0 368 235 368q71 0 155 -36zM156 287v-4q0 -114 26 -164t81 -50q96 0 96 145
q0 108 -96 108q-46 0 -107 -35z" />
    <glyph glyph-name="seven" unicode="7" 
d="M464 489l-135 -286q-78 -165 -170 -315l-72 27l254 565h-302v89h425v-80z" />
    <glyph glyph-name="eight" unicode="8" 
d="M451 524q0 -59 -31 -98t-87 -71q61 -32 95.5 -73.5t34.5 -109.5q0 -81 -55 -131.5t-165 -50.5q-104 0 -155 45.5t-51 123.5q0 63 33.5 104t94.5 77q-55 31 -85.5 71t-30.5 102q0 77 54.5 124.5t152.5 47.5q100 0 147.5 -43t47.5 -118zM361 164q0 47 -31.5 77.5
t-93.5 61.5q-97 -57 -97 -134q0 -49 29 -76.5t86 -27.5q49 0 78 27t29 72zM151 521q0 -45 27.5 -73.5t80.5 -55.5q43 27 66.5 56t23.5 69q0 94 -100 94q-46 0 -72 -24.5t-26 -65.5z" />
    <glyph glyph-name="nine" unicode="9" 
d="M45 -76l8 60q92 -19 148 -19q74 0 109 59t37 188q-81 -45 -142 -45q-83 0 -124 45.5t-41 129.5q0 113 55 175t149 62q46 0 80.5 -14t64.5 -48t45.5 -100t15.5 -163q0 -368 -236 -368q-80 0 -169 38zM142 356q0 -108 95 -108q48 0 107 35v4q0 114 -26 164t-80 50
q-96 0 -96 -145z" />
    <glyph glyph-name="colon" unicode=":" horiz-adv-x="306" 
d="M227 442q0 -33 -13.5 -45.5t-47.5 -12.5t-48 12.5t-14 44.5q0 33 14 46t48 13t47.5 -12.5t13.5 -45.5zM227 56q0 -34 -13.5 -46.5t-47.5 -12.5t-48 12.5t-14 44.5q0 33 14 46t48 13t47.5 -12.5t13.5 -44.5z" />
    <glyph glyph-name="semicolon" unicode=";" horiz-adv-x="306" 
d="M226 442q0 -33 -14 -45.5t-48 -12.5q-33 0 -47 12.5t-14 44.5q0 33 14 46t48 13q33 0 47 -12.5t14 -45.5zM98 -155l-40 37q76 53 76 101q0 12 -15.5 26t-15.5 40q0 34 13.5 47t48.5 13q33 0 47 -13t14 -46q0 -61 -30.5 -110.5t-97.5 -94.5z" />
    <glyph glyph-name="less" unicode="&#x3c;" 
d="M453 143l-33 -77l-383 197v71l383 197l33 -75l-312 -157z" />
    <glyph glyph-name="equal" unicode="=" 
d="M453 357h-406v73h406v-73zM453 167h-406v73h406v-73z" />
    <glyph glyph-name="greater" unicode="&#x3e;" 
d="M463 263l-383 -197l-33 75l312 157l-312 155l33 78l383 -197v-71z" />
    <glyph glyph-name="question" unicode="?" 
d="M438 527q0 -43 -16 -77.5t-38.5 -58t-45.5 -46t-40 -52t-18 -64.5l-1 -67h-89l-3 70q-3 39 10 72.5t33.5 57.5t41 46t35.5 48.5t15 54.5q0 40 -27 65t-77 25q-60 0 -120 -23l-27 64q89 42 176 42q95 0 143 -42t48 -115zM299 50q0 -34 -13 -45.5t-52 -11.5t-52 12t-13 45
q0 34 13.5 46.5t52.5 12.5q38 0 51 -12.5t13 -46.5z" />
    <glyph glyph-name="at" unicode="@" horiz-adv-x="1016" 
d="M740 -46l17 -60q-131 -62 -289 -62q-198 0 -298.5 96.5t-100.5 282.5q0 219 134.5 361t366.5 142q178 0 264.5 -82t86.5 -224q0 -150 -79.5 -243.5t-226.5 -93.5h-48l-1 89q-79 -97 -153 -97q-126 0 -126 168q0 130 68 201.5t186 71.5q79 0 147 -21l-38 -336
q85 0 131 66.5t46 172.5q0 125 -62 191.5t-210 66.5q-98 0 -174.5 -34t-122.5 -93t-70 -132.5t-24 -157.5q0 -167 75 -245.5t247 -78.5q58 0 130.5 15t123.5 36zM561 239l21 181q-25 7 -57 7q-65 0 -99 -47t-34 -131q0 -54 12.5 -79t42.5 -25q47 0 114 94z" />
    <glyph glyph-name="A" unicode="A" horiz-adv-x="548" 
d="M534 0h-116l-33 141h-236l-31 -141h-105q89 375 190 675h138q111 -331 193 -675zM166 222h202q-49 180 -103 354h-2q-59 -200 -97 -354z" />
    <glyph glyph-name="B" unicode="B" horiz-adv-x="555" 
d="M83 0v675h201q99 0 149.5 -43.5t50.5 -113.5q0 -56 -27 -94.5t-72 -55.5q60 -10 97.5 -52.5t37.5 -106.5q0 -93 -67.5 -152t-201.5 -59q-29 0 -85.5 1t-82.5 1zM190 598v-207h60q64 0 94 32t30 79q0 44 -26.5 70t-82.5 26h-75zM190 315v-235q34 -4 80 -4q68 0 101.5 33
t33.5 91q0 115 -143 115h-72z" />
    <glyph glyph-name="C" unicode="C" horiz-adv-x="517" 
d="M445 148l46 -56q-75 -102 -199 -102q-119 0 -181.5 85t-62.5 252q0 169 68 263.5t184 94.5q123 0 180 -111l-52 -46q-45 70 -116 70q-74 0 -112.5 -72.5t-38.5 -181.5q0 -266 151 -266q73 0 133 70z" />
    <glyph glyph-name="D" unicode="D" horiz-adv-x="587" 
d="M83 0v675q31 0 86 0.5t83 0.5q77 0 134 -24.5t89.5 -69.5t48 -101t15.5 -126q0 -173 -77 -265.5t-232 -92.5q-27 0 -77 1.5t-70 1.5zM191 594v-511q38 -2 57 -2q178 0 178 261q0 253 -183 253q-34 0 -52 -1z" />
    <glyph glyph-name="E" unicode="E" horiz-adv-x="473" 
d="M422 0h-339v675h335v-84h-227v-201h187v-81h-187v-224h231v-85z" />
    <glyph glyph-name="F" unicode="F" horiz-adv-x="452" 
d="M412 592h-221v-212h201v-82h-201v-298h-108v675h329v-83z" />
    <glyph glyph-name="G" unicode="G" horiz-adv-x="574" 
d="M502 377v-309q-89 -78 -209 -78q-119 0 -182 83.5t-63 253.5q0 171 74 264.5t191 93.5q108 0 183 -92l-47 -46q-68 52 -130 52q-74 0 -116 -65t-42 -188q0 -269 145 -269q55 0 90 29v191h-89v80h195z" />
    <glyph glyph-name="H" unicode="H" horiz-adv-x="658" 
d="M575 0h-108v308h-276v-308h-108v675h108v-276h276v276h108v-675z" />
    <glyph glyph-name="I" unicode="I" horiz-adv-x="274" 
d="M191 0h-108v675h108v-675z" />
    <glyph glyph-name="J" unicode="J" horiz-adv-x="280" 
d="M197 675v-605q0 -83 -24.5 -141.5t-85.5 -103.5l-53 45q33 39 44 85.5t11 120.5v599h108z" />
    <glyph glyph-name="K" unicode="K" horiz-adv-x="534" 
d="M515 0h-125l-197 323h-2v-323h-108v675h108v-294h2l188 294h118l-210 -305z" />
    <glyph glyph-name="L" unicode="L" horiz-adv-x="421" 
d="M404 0h-321v675h108v-590h213v-85z" />
    <glyph glyph-name="M" unicode="M" horiz-adv-x="844" 
d="M774 0h-113q-6 305 -32 544h-1l-170 -544h-89l-171 544h-1q-19 -218 -24 -544h-103q10 355 49 675h142l162 -502h1l162 502h136q44 -369 52 -675z" />
    <glyph glyph-name="N" unicode="N" horiz-adv-x="651" 
d="M568 0h-111l-210 388l-77 152h-1q5 -97 5 -160v-380h-91v675h132l186 -343l80 -155h1q-5 101 -5 163v335h91v-675z" />
    <glyph glyph-name="O" unicode="O" horiz-adv-x="639" 
d="M591 350q0 -183 -74.5 -271.5t-204.5 -88.5t-197 80t-67 255q0 183 74 271.5t205 88.5q130 0 197 -80t67 -255zM477 330q0 145 -39.5 208.5t-120.5 63.5q-155 0 -155 -257q0 -145 39.5 -208t120.5 -63q155 0 155 256z" />
    <glyph glyph-name="P" unicode="P" horiz-adv-x="528" 
d="M191 0h-108v675q25 0 81 0.5t92 0.5q247 0 247 -206q0 -106 -67 -169t-211 -63h-34v-238zM191 596v-277h49q75 0 112.5 36.5t37.5 103.5q0 68 -35 102.5t-115 34.5h-49z" />
    <glyph glyph-name="Q" unicode="Q" horiz-adv-x="639" 
d="M699 -116l-35 -44q-44 26 -114 28q-16 0 -40 -1.5t-37 -1.5q-51 0 -90.5 27.5t-73.5 98.5q-128 -1 -194.5 80t-66.5 255q0 182 74 270.5t205 88.5q130 0 197 -80t67 -255q0 -159 -56.5 -246t-155.5 -106q46 -55 121 -55q12 0 33.5 1t33.5 1q76 0 132 -61zM477 331
q0 144 -39.5 207.5t-120.5 63.5q-155 0 -155 -256q0 -146 39.5 -209t120.5 -63q155 0 155 257z" />
    <glyph glyph-name="R" unicode="R" horiz-adv-x="554" 
d="M540 0h-124l-172 286h-53v-286h-108v675q114 2 191 2q117 0 174.5 -49.5t57.5 -133.5q0 -150 -158 -187zM191 596v-229h70q64 0 98 30t34 86q0 113 -135 113h-67z" />
    <glyph glyph-name="S" unicode="S" horiz-adv-x="496" 
d="M464 187q0 -86 -61.5 -141t-166.5 -55q-102 0 -195 60l27 58q88 -37 150 -37q58 0 92 26.5t34 75.5q0 40 -30.5 69.5t-74 49.5t-87 43t-74 64.5t-30.5 100.5q0 82 57.5 132.5t148.5 50.5q94 0 171 -50l-26 -58q-66 28 -126 28q-55 0 -83.5 -25t-28.5 -64
q0 -30 16.5 -53.5t43.5 -40t59 -31.5t64.5 -32.5t59.5 -39t43.5 -55t16.5 -76.5z" />
    <glyph glyph-name="T" unicode="T" horiz-adv-x="466" 
d="M451 590h-164v-590h-108v590h-164v85h436v-85z" />
    <glyph glyph-name="U" unicode="U" horiz-adv-x="652" 
d="M570 675v-429q0 -131 -67.5 -193.5t-187.5 -62.5q-118 0 -175.5 57.5t-57.5 184.5v443h108v-430q0 -95 32 -134.5t105 -39.5q68 0 102.5 38t34.5 129v437h106z" />
    <glyph glyph-name="V" unicode="V" horiz-adv-x="535" 
d="M415 675h106q-75 -368 -188 -675h-129q-120 345 -190 675h118q53 -270 145 -564h1q77 247 137 564z" />
    <glyph glyph-name="W" unicode="W" horiz-adv-x="856" 
d="M734 675h103q-77 -368 -171 -675h-118l-101 402l-21 101h-2l-20 -102l-93 -401h-120q-97 314 -172 675h116q23 -119 125 -539h2l14 79l108 460h103l112 -454l18 -85h2q73 307 115 539z" />
    <glyph glyph-name="X" unicode="X" horiz-adv-x="546" 
d="M525 0h-120q-83 175 -141 269h-1q-81 -133 -136 -269h-108q74 177 185 353q-91 151 -168 322h118q69 -155 121 -242h2q71 112 123 242h106q-65 -155 -168 -316q106 -175 187 -359z" />
    <glyph glyph-name="Y" unicode="Y" horiz-adv-x="486" 
d="M379 675h110q-96 -239 -192 -387v-288h-108v288q-103 165 -192 387h120q71 -178 133 -289h2q62 107 127 289z" />
    <glyph glyph-name="Z" unicode="Z" horiz-adv-x="488" 
d="M452 0h-416v74l275 515h-262l2 86h390v-72l-276 -516h290z" />
    <glyph glyph-name="bracketleft" unicode="[" horiz-adv-x="357" 
d="M293 -173h-182v912h182v-65h-93v-782h93v-65z" />
    <glyph glyph-name="backslash" unicode="\" 
d="M500 -104h-93l-396 813h92z" />
    <glyph glyph-name="bracketright" unicode="]" horiz-adv-x="357" 
d="M246 -173h-183v65h94v782h-94v65h183v-912z" />
    <glyph glyph-name="asciicircum" unicode="^" 
d="M468 394l-81 -30l-137 260l-138 -260l-79 30l175 315h85z" />
    <glyph glyph-name="underscore" unicode="_" 
d="M500 -177h-500v77h500v-77z" />
    <glyph glyph-name="grave" unicode="`" horiz-adv-x="324" 
d="M264 588l-52 -30l-152 121l75 43z" />
    <glyph glyph-name="a" unicode="a" horiz-adv-x="501" 
d="M427 0h-80l-8 54q-74 -64 -154 -64q-67 0 -108.5 38.5t-41.5 103.5q0 166 253 166h37v45q0 45 -24.5 67t-78.5 22q-67 0 -146 -29l-15 63q93 41 188 41q90 0 134 -40t44 -111v-356zM325 115v117h-43q-81 0 -113 -23t-32 -67q0 -78 77 -78q54 0 111 51z" />
    <glyph glyph-name="b" unicode="b" horiz-adv-x="526" 
d="M75 8v701h103v-256q69 55 131 55q81 0 127 -67.5t46 -172.5q0 -142 -68.5 -210t-185.5 -68q-65 0 -153 18zM178 378v-302q29 -11 69 -11q58 0 93.5 47.5t35.5 138.5q0 83 -25 130t-70 47q-47 0 -103 -50z" />
    <glyph glyph-name="c" unicode="c" horiz-adv-x="425" 
d="M368 117l34 -53q-68 -73 -165 -73q-94 0 -143.5 63.5t-49.5 187.5q0 120 55 193t146 73q90 0 146 -62l-38 -53q-44 37 -93 37q-51 0 -79.5 -46t-28.5 -131q0 -183 108 -183q55 0 108 47z" />
    <glyph glyph-name="d" unicode="d" horiz-adv-x="526" 
d="M451 0h-84l-9 53q-75 -63 -143 -63q-80 0 -125.5 67t-45.5 173q0 142 67 210t174 68q33 0 63 -4v205h103v-709zM348 120v302q-35 11 -71 11q-58 0 -92.5 -47t-34.5 -140q0 -83 25.5 -129.5t69.5 -46.5q45 0 103 50z" />
    <glyph glyph-name="e" unicode="e" horiz-adv-x="499" 
d="M447 232h-297v-9q0 -153 125 -153q71 0 154 30l17 -61q-98 -49 -193 -49q-209 0 -209 245q0 131 57 202t158 71q204 0 188 -276zM151 298h196v3q0 136 -93 136q-48 0 -74 -38t-29 -101z" />
    <glyph glyph-name="f" unicode="f" horiz-adv-x="299" 
d="M332 688l-18 -59q-38 14 -64 14q-61 0 -61 -72v-73h100v-73h-100v-425h-103v425h-72v73h72v69q0 152 133 152q59 0 113 -31z" />
    <glyph glyph-name="g" unicode="g" horiz-adv-x="526" 
d="M451 489v-472q0 -111 -53 -154t-149 -43q-78 0 -166 35l9 58q88 -15 147 -15q58 0 83.5 22t25.5 77v66q-69 -53 -134 -53q-78 0 -124 66t-46 165q0 133 69.5 200t179.5 67q65 0 158 -19zM348 137v284q-32 12 -72 12q-56 0 -91 -46t-35 -128q0 -81 25 -126.5t71 -45.5
q45 0 102 50z" />
    <glyph glyph-name="h" unicode="h" horiz-adv-x="543" 
d="M468 0h-102q0 54 1 146.5t1 117.5q0 89 -19.5 125t-59.5 36q-49 0 -111 -50v-375h-103v709h103v-259q75 58 142 58q74 0 113 -52.5t39 -170.5q0 -25 -2 -125.5t-2 -159.5z" />
    <glyph glyph-name="i" unicode="i" horiz-adv-x="253" 
d="M189 636q0 -33 -12 -44.5t-50 -11.5t-50.5 11.5t-12.5 44.5t12.5 44.5t50.5 11.5t50 -11.5t12 -44.5zM178 0h-103v498h103v-498z" />
    <glyph glyph-name="j" unicode="j" horiz-adv-x="253" 
d="M178 498v-456q0 -73 -24 -124.5t-79 -97.5l-65 32q65 75 65 167v479h103zM189 636q0 -33 -12 -44.5t-50 -11.5t-50.5 11.5t-12.5 44.5t12.5 44.5t50.5 11.5t50 -11.5t12 -44.5z" />
    <glyph glyph-name="k" unicode="k" horiz-adv-x="473" 
d="M460 0h-122l-157 253h-3v-253h-103v709h103v-415h3l139 204h121l-166 -213z" />
    <glyph glyph-name="l" unicode="l" horiz-adv-x="271" 
d="M241 66l5 -62q-33 -11 -80 -11q-49 0 -70 20.5t-21 78.5v617h103v-577q0 -43 7 -55t29 -12q5 0 14.5 0.5t12.5 0.5z" />
    <glyph glyph-name="m" unicode="m" horiz-adv-x="818" 
d="M743 0h-103q0 51 1.5 143.5t1.5 120.5q0 89 -17.5 125t-56.5 36q-47 0 -114 -56q6 -36 6 -82v-287h-102v264q0 89 -17.5 125t-55.5 36q-46 0 -108 -50v-375h-103v498h85l8 -56q78 66 150 66q84 0 119 -76q88 76 164 76q145 0 145 -223q0 -28 -1.5 -128t-1.5 -157z" />
    <glyph glyph-name="n" unicode="n" horiz-adv-x="543" 
d="M468 0h-102q0 51 1 143.5t1 120.5q0 89 -19.5 125t-59.5 36q-49 0 -111 -50v-375h-103v498h85l8 -56q78 66 152 66q75 0 113.5 -52.5t38.5 -170.5q0 -28 -2 -128t-2 -157z" />
    <glyph glyph-name="o" unicode="o" horiz-adv-x="530" 
d="M485 258q0 -134 -61 -201t-169 -67q-211 0 -211 250q0 134 61 201t170 67q210 0 210 -250zM379 237q0 107 -28 150.5t-87 43.5q-113 0 -113 -170q0 -107 27.5 -150.5t86.5 -43.5q53 0 83.5 41.5t30.5 128.5z" />
    <glyph glyph-name="p" unicode="p" horiz-adv-x="526" 
d="M178 -173h-103v671h83l10 -53q73 63 141 63q82 0 127.5 -67t45.5 -172q0 -141 -67 -210t-178 -69q-34 0 -59 4v-167zM178 378v-301q30 -12 69 -12q58 0 93.5 47.5t35.5 139.5q0 82 -25.5 129t-69.5 47q-45 0 -103 -50z" />
    <glyph glyph-name="q" unicode="q" horiz-adv-x="526" 
d="M451 -173h-103v218q-67 -55 -131 -55q-81 0 -127 67.5t-46 172.5q0 141 68.5 209.5t186.5 68.5q71 0 152 -19v-662zM348 120v302q-28 11 -69 11q-59 0 -94 -47.5t-35 -139.5q0 -82 25.5 -129t69.5 -47q46 0 103 50z" />
    <glyph glyph-name="r" unicode="r" horiz-adv-x="357" 
d="M337 496l-12 -92q-27 7 -42 7q-22 0 -45 -18.5t-60 -64.5v-328h-103v498h85l9 -84q40 51 68.5 72t55.5 21q22 0 44 -11z" />
    <glyph glyph-name="s" unicode="s" horiz-adv-x="408" 
d="M35 29l10 55q75 -19 123 -19t72.5 19.5t24.5 49.5q0 28 -23.5 46.5t-57 31t-67 27.5t-57 47t-23.5 79q0 63 47.5 102.5t124.5 39.5q67 0 128 -32l-12 -55q-52 15 -96 15q-41 0 -63 -17.5t-22 -44.5q0 -28 23.5 -46.5t57.5 -31t68 -27.5t57.5 -47t23.5 -79q0 -67 -51 -109
t-138 -42q-76 0 -150 38z" />
    <glyph glyph-name="t" unicode="t" horiz-adv-x="347" 
d="M314 83l11 -61q-62 -31 -119 -31q-66 0 -93.5 30t-27.5 102v302h-71v73h74q14 63 26 144h74v-144h123v-73h-123v-277q0 -45 11.5 -62t41.5 -17t73 14z" />
    <glyph glyph-name="u" unicode="u" horiz-adv-x="543" 
d="M468 0h-85l-8 56q-78 -66 -152 -66t-113 53t-39 171q0 27 2 127t2 157h102q0 -51 -1.5 -143t-1.5 -121q0 -88 19.5 -124.5t60.5 -36.5q45 0 111 50v375h103v-498z" />
    <glyph glyph-name="v" unicode="v" horiz-adv-x="471" 
d="M342 498h108q-49 -276 -154 -498h-127l-153 498h111l95 -306l20 -92h2q68 172 98 398z" />
    <glyph glyph-name="w" unicode="w" horiz-adv-x="744" 
d="M618 498h102q-37 -237 -136 -498h-117l-85 308l-14 70h-1l-13 -70l-74 -308h-121l-139 498h111l77 -296l21 -94h1l16 83l71 307h115l86 -315l16 -75h1q63 220 83 390z" />
    <glyph glyph-name="x" unicode="x" horiz-adv-x="475" 
d="M455 0h-118l-106 203h-1q-61 -118 -98 -203h-112l150 262l-128 236h116l84 -173h2q40 72 80 173h107l-128 -224z" />
    <glyph glyph-name="y" unicode="y" horiz-adv-x="471" 
d="M341 498h108q-125 -676 -375 -676q-31 0 -68 17v61q17 -3 45 -3q49 0 80 27q36 33 36 75q0 38 -37 149l-115 350h111l85 -270q28 -89 28 -155h2q30 77 58.5 197.5t41.5 227.5z" />
    <glyph glyph-name="z" unicode="z" horiz-adv-x="400" 
d="M363 79l-3 -79h-324v65l196 356h-187l3 77h302v-64l-196 -355h209z" />
    <glyph glyph-name="braceleft" unicode="{" horiz-adv-x="388" 
d="M311 -173h-45q-71 0 -99.5 32.5t-28.5 98.5v208q0 84 -65 84h-25v76h25q36 0 50.5 21t14.5 60v202q0 130 131 130h42v-62h-28q-56 0 -56 -68v-178q0 -124 -86 -142q86 -20 86 -145v-187q0 -37 12.5 -52.5t43.5 -15.5h28v-62z" />
    <glyph glyph-name="bar" unicode="|" horiz-adv-x="252" 
d="M171 -173h-91v926h91v-926z" />
    <glyph glyph-name="braceright" unicode="}" horiz-adv-x="388" 
d="M339 250h-25q-36 0 -50.5 -21t-14.5 -60v-212q0 -130 -131 -130h-42v62h28q56 0 56 68v188q0 124 86 142q-86 20 -86 145v177q0 38 -13 53t-44 15h-27v62h45q71 0 99.5 -32.5t28.5 -98.5v-198q0 -84 65 -84h25v-76z" />
    <glyph glyph-name="asciitilde" unicode="~" 
d="M468 605v-18q0 -67 -37.5 -109t-101.5 -42q-38 0 -66.5 16.5t-41.5 36.5t-30 36.5t-35 16.5q-52 0 -52 -88h-78v17q0 68 37.5 109.5t100.5 41.5q38 0 66 -16.5t41 -36.5t30.5 -36.5t35.5 -16.5q52 0 52 89h79z" />
    <glyph glyph-name="uni00A0" unicode="&#xa0;" horiz-adv-x="240" 
 />
    <glyph glyph-name="exclamdown" unicode="&#xa1;" horiz-adv-x="364" 
d="M113 409h89l18 -513h-126zM92 521q0 33 13.5 45t52.5 12t52 -12t13 -45q0 -34 -13 -46.5t-52 -12.5t-52.5 12.5t-13.5 46.5z" />
    <glyph glyph-name="cent" unicode="&#xa2;" 
d="M399 226l33 -53q-56 -52 -122 -63l-9 -113h-63l-7 108q-172 18 -172 226q0 98 46.5 160t124.5 78l8 108h63l9 -107q62 -9 109 -56l-36 -53q-48 38 -96 38q-53 0 -87 -40.5t-34 -113.5q0 -84 32 -124.5t86 -40.5q60 0 115 46z" />
    <glyph glyph-name="sterling" unicode="&#xa3;" 
d="M456 0h-415v69q53 54 70 107t8 129h-86v70h74q-18 79 -18 118q0 96 50.5 143t138.5 47q87 0 162 -40l-12 -57q-68 19 -122 19q-61 0 -85 -26.5t-24 -78.5q0 -25 19 -125h173v-70h-163q8 -74 -5.5 -125t-58.5 -97h294v-83z" />
    <glyph glyph-name="currency" unicode="&#xa4;" 
d="M470 57l-69 -44l-63 84q-44 -25 -97 -25q-50 0 -82 20l-59 -79l-69 44l68 72q-32 45 -32 124q0 87 38 136l-74 79l68 43l64 -83q41 24 94 24q50 0 84 -20l60 79l69 -43l-69 -74q33 -44 33 -122q0 -85 -39 -135zM342 257q0 74 -22.5 104.5t-69.5 30.5q-94 0 -94 -125
q0 -74 23 -104.5t71 -30.5q92 0 92 125z" />
    <glyph glyph-name="yen" unicode="&#xa5;" 
d="M438 308v-69h-137v-78h137v-69h-137v-92h-102v92h-137v69h137v78h-137v69h137v19q-97 146 -189 348h115q68 -163 133 -267q60 93 126 267h107q-102 -220 -190 -348v-19h137z" />
    <glyph glyph-name="brokenbar" unicode="&#xa6;" horiz-adv-x="252" 
d="M171 199v-372h-89v372h89zM82 365v391h89v-391h-89z" />
    <glyph glyph-name="section" unicode="&#xa7;" horiz-adv-x="504" 
d="M96 -142l22 59q45 -17 93 -17q78 0 78 74q0 31 -25.5 62.5t-62 62.5t-73 66t-62 87t-25.5 112q0 120 79.5 219.5t174.5 99.5q60 0 107 -30l-20 -59q-42 13 -86 13q-75 0 -75 -74q0 -31 25.5 -62.5t62 -62.5t73 -66.5t62 -88t25.5 -113.5q0 -119 -79.5 -217.5
t-175.5 -98.5q-63 0 -118 34zM382 125q0 51 -26.5 96t-62 77t-70 63t-52 68t-5.5 78q-38 -55 -38 -127q0 -37 14 -71t36 -58.5t48 -49.5t50 -45.5t42.5 -46.5t25.5 -51.5t-1 -61.5q39 62 39 129z" />
    <glyph glyph-name="dieresis" unicode="&#xa8;" horiz-adv-x="421" 
d="M360 636q0 -28 -10.5 -38.5t-40.5 -10.5q-31 0 -42 10.5t-11 38.5q0 29 11 40t42 11q30 0 40.5 -10.5t10.5 -40.5zM165 636q0 -28 -11 -38.5t-41 -10.5q-31 0 -42 10.5t-11 38.5q0 29 11 40t42 11q30 0 41 -10.5t11 -40.5z" />
    <glyph glyph-name="copyright" unicode="&#xa9;" horiz-adv-x="774" 
d="M734 343q0 -147 -100 -251t-251 -104q-147 0 -245 99t-98 244q0 146 100.5 250.5t251.5 104.5q147 0 244.5 -99t97.5 -244zM658 341q0 119 -77.5 200t-189.5 81q-117 0 -195.5 -84t-78.5 -205q0 -119 77.5 -200t189.5 -81q117 0 195.5 84.5t78.5 204.5zM487 243l30 -45
q-55 -52 -132 -52t-117.5 48.5t-40.5 139.5q0 90 46.5 144.5t123.5 54.5q65 0 111 -47l-34 -44q-30 26 -68 26t-60.5 -33.5t-22.5 -91.5q0 -132 83 -132q40 0 81 32z" />
    <glyph glyph-name="ordfeminine" unicode="&#xaa;" horiz-adv-x="459" 
d="M364 339h-68l-6 41q-62 -48 -121 -48q-50 0 -79.5 30t-29.5 78q0 55 43.5 87.5t138.5 32.5h37v24q0 37 -16 52t-57 15q-57 0 -119 -20l-12 54q69 31 147 31q142 0 142 -124v-253zM279 428v79h-34q-57 0 -79 -15t-22 -45q0 -24 13.5 -39t37.5 -15q34 0 84 35zM370 207
h-300v61h300v-61z" />
    <glyph glyph-name="guillemotleft" unicode="&#xab;" horiz-adv-x="506" 
d="M237 120l-68 -24l-128 198l128 197l68 -25l-93 -172zM431 128l-66 -23l-121 189l122 189l65 -24l-85 -165z" />
    <glyph glyph-name="logicalnot" unicode="&#xac;" 
d="M446 126h-85v135h-322v75h407v-210z" />
    <glyph glyph-name="registered" unicode="&#xae;" horiz-adv-x="567" 
d="M516 489q0 -97 -67.5 -165.5t-168.5 -68.5q-98 0 -164 65t-66 160q0 97 67.5 165t168.5 68q98 0 164 -65t66 -159zM455 487q0 75 -49 125.5t-121 50.5q-74 0 -124.5 -52.5t-50.5 -128.5q0 -75 49.5 -125.5t120.5 -50.5q75 0 125 52.5t50 128.5zM378 370h-62l-41 93h-18
v-93h-53v235q20 0 43 0.5t34 0.5q89 0 89 -68q0 -49 -45 -67zM257 568v-68h24q35 0 35 35q0 33 -38 33h-21z" />
    <glyph glyph-name="macron" unicode="&#x2c9;" horiz-adv-x="391" 
d="M330 596h-270v73h270v-73z" />
    <glyph glyph-name="macron" unicode="&#xaf;" horiz-adv-x="391" 
d="M330 596h-270v73h270v-73z" />
    <glyph glyph-name="degree" unicode="&#xb0;" horiz-adv-x="450" 
d="M371 561q0 -63 -40.5 -101t-104.5 -38q-69 0 -107 34.5t-38 99.5q0 63 41 101t108 38q68 0 104.5 -34.5t36.5 -99.5zM290 559q0 74 -63 74q-32 0 -48.5 -20t-16.5 -54q0 -74 65 -74q63 0 63 74z" />
    <glyph glyph-name="plusminus" unicode="&#xb1;" 
d="M457 0h-415v71h415v-71zM457 311h-165v-172h-85v172h-165v71h165v168h85v-168h165v-71z" />
    <glyph glyph-name="twosuperior" unicode="&#xb2;" horiz-adv-x="351" 
d="M315 359h-275v63q106 86 139 123.5t33 72.5q0 50 -61 50q-30 0 -97 -19l-12 54q72 27 132 27q57 0 94 -25.5t37 -77.5q0 -46 -37.5 -92.5t-128.5 -108.5h176v-67z" />
    <glyph glyph-name="threesuperior" unicode="&#xb3;" horiz-adv-x="350" 
d="M33 374l7 46q63 -11 103 -11q83 0 83 55t-82 55h-55v57h57q69 0 69 50q0 46 -65 46q-42 0 -91 -14l-13 49q59 23 122 23q69 0 103.5 -25.5t34.5 -67.5q0 -62 -68 -84q80 -16 80 -86q0 -56 -44 -86t-115 -30q-58 0 -126 23z" />
    <glyph glyph-name="acute" unicode="&#xb4;" horiz-adv-x="324" 
d="M264 679l-152 -121l-52 30l129 134z" />
    <glyph glyph-name="mu" unicode="&#x3bc;" horiz-adv-x="561" 
d="M471 -9q-75 0 -91 67q-71 -64 -136 -64q-55 0 -79 47q12 -158 13 -214h-103v671h103v-281q0 -76 17 -110t65 -34q42 0 108 50v375h102v-353q0 -43 10 -60t32 -17q19 0 36 6l10 -60q-46 -23 -87 -23z" />
    <glyph glyph-name="mu" unicode="&#xb5;" horiz-adv-x="561" 
d="M471 -9q-75 0 -91 67q-71 -64 -136 -64q-55 0 -79 47q12 -158 13 -214h-103v671h103v-281q0 -76 17 -110t65 -34q42 0 108 50v375h102v-353q0 -43 10 -60t32 -17q19 0 36 6l10 -60q-46 -23 -87 -23z" />
    <glyph glyph-name="paragraph" unicode="&#xb6;" horiz-adv-x="632" 
d="M544 -104h-82v712h-97v-712h-82v394q-95 -12 -159 42t-64 148q0 87 55.5 141t152.5 54h276v-779z" />
    <glyph glyph-name="periodcentered" unicode="&#x2219;" horiz-adv-x="267" 
d="M196 298q0 -37 -12 -49.5t-50 -12.5t-50 12.5t-12 48.5q0 38 12 50.5t51 12.5q37 0 49 -12.5t12 -49.5z" />
    <glyph glyph-name="periodcentered" unicode="&#xb7;" horiz-adv-x="267" 
d="M196 298q0 -37 -12 -49.5t-50 -12.5t-50 12.5t-12 48.5q0 38 12 50.5t51 12.5q37 0 49 -12.5t12 -49.5z" />
    <glyph glyph-name="cedilla" unicode="&#xb8;" horiz-adv-x="259" 
d="M107 -43h89q11 -82 -77 -138l-59 27q32 28 42 51.5t5 59.5z" />
    <glyph glyph-name="onesuperior" unicode="&#xb9;" horiz-adv-x="339" 
d="M304 359h-256v63h87v227l-76 -22l-14 51l111 46h69v-302h79v-63z" />
    <glyph glyph-name="ordmasculine" unicode="&#xba;" horiz-adv-x="435" 
d="M383 532q0 -97 -48.5 -148t-127.5 -51q-162 0 -162 186q0 97 48.5 146.5t124.5 49.5q74 0 119.5 -45t45.5 -138zM295 514q0 75 -20 106.5t-62 31.5q-81 0 -81 -117q0 -77 20.5 -108t62.5 -31q80 0 80 118zM365 207h-300v61h300v-61z" />
    <glyph glyph-name="guillemotright" unicode="&#xbb;" horiz-adv-x="506" 
d="M269 467l68 24l127 -197l-128 -198l-67 25l93 173zM74 459l66 24l121 -189l-121 -189l-66 24l86 165z" />
    <glyph glyph-name="onequarter" unicode="&#xbc;" horiz-adv-x="723" 
d="M304 359h-256v63h87v227l-76 -22l-14 51l111 46h69v-302h79v-63zM71 -43l572 774l56 -31l-572 -775zM704 13h-50v-74h-87v74h-176v61q59 115 140 228h123v-226h50v-63zM567 76v173h-1q-51 -67 -109 -173h110z" />
    <glyph glyph-name="onehalf" unicode="&#xbd;" horiz-adv-x="761" 
d="M304 359h-256v63h87v227l-76 -22l-14 51l111 46h69v-302h79v-63zM71 -43l572 774l56 -31l-572 -775zM725 -61h-275v63q106 86 139 123.5t33 72.5q0 50 -61 50q-31 0 -97 -19l-12 54q72 27 132 27q57 0 94 -25.5t37 -77.5q0 -46 -37.5 -92.5t-128.5 -108.5h176v-67z" />
    <glyph glyph-name="threequarters" unicode="&#xbe;" horiz-adv-x="728" 
d="M33 374l7 46q63 -11 103 -11q83 0 83 55t-82 55h-55v57h57q69 0 69 50q0 46 -65 46q-42 0 -91 -14l-13 49q59 23 122 23q69 0 103.5 -25.5t34.5 -67.5q0 -62 -68 -84q80 -16 80 -86q0 -56 -44 -86t-115 -30q-58 0 -126 23zM76 -43l572 774l56 -31l-572 -775zM709 13h-50
v-74h-87v74h-176v61q59 115 140 228h123v-226h50v-63zM572 76v173h-1q-51 -67 -109 -173h110z" />
    <glyph glyph-name="questiondown" unicode="&#xbf;" 
d="M62 48q0 41 16 74t38.5 56t45.5 45t40 52.5t18 66.5l1 67h89l3 -70q3 -40 -10 -74t-33.5 -58t-41 -45.5t-35.5 -46.5t-15 -51q0 -43 27 -68.5t77 -25.5q60 0 120 23l27 -64q-89 -42 -176 -42q-95 0 -143 43t-48 118zM201 521q0 34 13 45.5t52 11.5t52 -12t13 -45
q0 -34 -13.5 -46.5t-52.5 -12.5q-38 0 -51 12.5t-13 46.5z" />
    <glyph glyph-name="Agrave" unicode="&#xc0;" horiz-adv-x="548" 
d="M534 0h-116l-33 141h-236l-31 -141h-105q89 375 190 675h138q111 -331 193 -675zM166 222h202q-49 180 -103 354h-2q-59 -200 -97 -354zM334 770l-32 -47l-190 66l48 67z" />
    <glyph glyph-name="Aacute" unicode="&#xc1;" horiz-adv-x="548" 
d="M534 0h-116l-33 141h-236l-31 -141h-105q89 375 190 675h138q111 -331 193 -675zM166 222h202q-49 180 -103 354h-2q-59 -200 -97 -354zM209 770l174 86l48 -67l-190 -66z" />
    <glyph glyph-name="Acircumflex" unicode="&#xc2;" horiz-adv-x="548" 
d="M534 0h-116l-33 141h-236l-31 -141h-105q89 375 190 675h138q111 -331 193 -675zM166 222h202q-49 180 -103 354h-2q-59 -200 -97 -354zM273 856l148 -88l-28 -45l-121 57l-120 -57l-28 44z" />
    <glyph glyph-name="Atilde" unicode="&#xc3;" horiz-adv-x="548" 
d="M534 0h-116l-33 141h-236l-31 -141h-105q89 375 190 675h138q111 -331 193 -675zM166 222h202q-49 180 -103 354h-2q-59 -200 -97 -354zM398 844l44 -30q-25 -46 -51 -66t-64 -20q-36 0 -72 26t-50 26q-15 0 -27 -10t-34 -40l-44 30q26 45 52 65.5t64 20.5q36 0 72 -26
t50 -26q15 0 26.5 10t33.5 40z" />
    <glyph glyph-name="Adieresis" unicode="&#xc4;" horiz-adv-x="548" 
d="M534 0h-116l-33 141h-236l-31 -141h-105q89 375 190 675h138q111 -331 193 -675zM166 222h202q-49 180 -103 354h-2q-59 -200 -97 -354zM427 780q0 -27 -11 -37.5t-41 -10.5q-31 0 -42 10t-11 38q0 27 11 37.5t42 10.5q30 0 41 -10t11 -38zM225 780q0 -27 -11 -37.5
t-41 -10.5t-41.5 10t-11.5 38q0 27 11.5 37.5t41.5 10.5q31 0 41.5 -10t10.5 -38z" />
    <glyph glyph-name="Aring" unicode="&#xc5;" horiz-adv-x="548" 
d="M534 0h-116l-33 141h-236l-31 -141h-105q89 375 190 675h138q111 -331 193 -675zM166 222h202q-49 180 -103 354h-2q-59 -200 -97 -354zM378 776q0 -39 -29.5 -61.5t-80.5 -22.5q-105 0 -105 80q0 38 30 61t81 23q104 0 104 -80zM312 773q0 40 -41 40q-42 0 -42 -40
q0 -39 42 -39q41 0 41 39z" />
    <glyph glyph-name="AE" unicode="&#xc6;" horiz-adv-x="724" 
d="M672 0h-338v141h-191q-39 -100 -52 -141h-108q139 359 293 675h392v-84h-226v-201h187v-81h-187v-224h230v-85zM334 222v369h-1q-82 -173 -162 -369h163z" />
    <glyph glyph-name="Ccedilla" unicode="&#xc7;" horiz-adv-x="517" 
d="M445 148l46 -56q-75 -102 -199 -102q-119 0 -181.5 85t-62.5 252q0 169 68 263.5t184 94.5q123 0 180 -111l-52 -46q-45 70 -116 70q-74 0 -112.5 -72.5t-38.5 -181.5q0 -266 151 -266q73 0 133 70zM250 -43h89q11 -82 -77 -138l-59 27q32 28 42 51.5t5 59.5z" />
    <glyph glyph-name="Egrave" unicode="&#xc8;" horiz-adv-x="473" 
d="M422 0h-339v675h335v-84h-227v-201h187v-81h-187v-224h231v-85zM312 770l-32 -47l-190 66l48 67z" />
    <glyph glyph-name="Eacute" unicode="&#xc9;" horiz-adv-x="473" 
d="M422 0h-339v675h335v-84h-227v-201h187v-81h-187v-224h231v-85zM190 770l174 86l48 -67l-190 -66z" />
    <glyph glyph-name="Ecircumflex" unicode="&#xca;" horiz-adv-x="473" 
d="M422 0h-339v675h335v-84h-227v-201h187v-81h-187v-224h231v-85zM250 856l148 -88l-28 -45l-121 57l-120 -57l-28 44z" />
    <glyph glyph-name="Edieresis" unicode="&#xcb;" horiz-adv-x="473" 
d="M422 0h-339v675h335v-84h-227v-201h187v-81h-187v-224h231v-85zM403 780q0 -27 -11 -37.5t-41 -10.5q-31 0 -42 10t-11 38q0 27 11 37.5t42 10.5q30 0 41 -10t11 -38zM201 780q0 -27 -11 -37.5t-41 -10.5t-41.5 10t-11.5 38q0 27 11.5 37.5t41.5 10.5q31 0 41.5 -10
t10.5 -38z" />
    <glyph glyph-name="Igrave" unicode="&#xcc;" horiz-adv-x="274" 
d="M191 0h-108v675h108v-675zM195 770l-32 -47l-190 66l48 67z" />
    <glyph glyph-name="Iacute" unicode="&#xcd;" horiz-adv-x="274" 
d="M191 0h-108v675h108v-675zM71 770l174 86l48 -67l-190 -66z" />
    <glyph glyph-name="Icircumflex" unicode="&#xce;" horiz-adv-x="274" 
d="M191 0h-108v675h108v-675zM138 856l148 -88l-28 -45l-121 57l-120 -57l-28 44z" />
    <glyph glyph-name="Idieresis" unicode="&#xcf;" horiz-adv-x="274" 
d="M191 0h-108v675h108v-675zM264 780q0 -27 -10.5 -37.5t-38.5 -10.5q-30 0 -40.5 10t-10.5 38q0 27 10.5 37.5t40.5 10.5q28 0 38.5 -10t10.5 -38zM111 780q0 -27 -10.5 -37.5t-38.5 -10.5q-29 0 -40 10t-11 38q0 27 11 37.5t40 10.5t39 -10t10 -38z" />
    <glyph glyph-name="Eth" unicode="&#xd0;" horiz-adv-x="597" 
d="M93 390v285q30 0 86 0.5t85 0.5q77 0 133.5 -25t88.5 -70t47.5 -101t15.5 -125q0 -173 -77 -265.5t-232 -92.5q-24 0 -75 1.5t-72 1.5v309h-60v81h60zM201 594v-204h110v-81h-110v-226q38 -2 57 -2q178 0 178 261q0 253 -183 253q-34 0 -52 -1z" />
    <glyph glyph-name="Ntilde" unicode="&#xd1;" horiz-adv-x="651" 
d="M568 0h-111l-210 388l-77 152h-1q5 -97 5 -160v-380h-91v675h132l186 -343l80 -155h1q-5 101 -5 163v335h91v-675zM461 844l44 -30q-25 -46 -51 -66t-64 -20q-36 0 -72 26t-50 26q-15 0 -27 -10t-34 -40l-44 30q26 45 52 65.5t64 20.5q36 0 72 -26t50 -26q15 0 26.5 10
t33.5 40z" />
    <glyph glyph-name="Ograve" unicode="&#xd2;" horiz-adv-x="639" 
d="M591 350q0 -183 -74.5 -271.5t-204.5 -88.5t-197 80t-67 255q0 183 74 271.5t205 88.5q130 0 197 -80t67 -255zM477 330q0 145 -39.5 208.5t-120.5 63.5q-155 0 -155 -257q0 -145 39.5 -208t120.5 -63q155 0 155 256zM361 770l-32 -47l-190 66l48 67z" />
    <glyph glyph-name="Oacute" unicode="&#xd3;" horiz-adv-x="639" 
d="M591 350q0 -183 -74.5 -271.5t-204.5 -88.5t-197 80t-67 255q0 183 74 271.5t205 88.5q130 0 197 -80t67 -255zM477 330q0 145 -39.5 208.5t-120.5 63.5q-155 0 -155 -257q0 -145 39.5 -208t120.5 -63q155 0 155 256zM267 770l174 86l48 -67l-190 -66z" />
    <glyph glyph-name="Ocircumflex" unicode="&#xd4;" horiz-adv-x="639" 
d="M591 350q0 -183 -74.5 -271.5t-204.5 -88.5t-197 80t-67 255q0 183 74 271.5t205 88.5q130 0 197 -80t67 -255zM477 330q0 145 -39.5 208.5t-120.5 63.5q-155 0 -155 -257q0 -145 39.5 -208t120.5 -63q155 0 155 256zM320 856l148 -88l-28 -45l-121 57l-120 -57l-28 44z
" />
    <glyph glyph-name="Otilde" unicode="&#xd5;" horiz-adv-x="639" 
d="M591 350q0 -183 -74.5 -271.5t-204.5 -88.5t-197 80t-67 255q0 183 74 271.5t205 88.5q130 0 197 -80t67 -255zM477 330q0 145 -39.5 208.5t-120.5 63.5q-155 0 -155 -257q0 -145 39.5 -208t120.5 -63q155 0 155 256zM447 844l44 -30q-25 -46 -51 -66t-64 -20
q-36 0 -72 26t-50 26q-15 0 -27 -10t-34 -40l-44 30q26 45 52 65.5t64 20.5q36 0 72 -26t50 -26q15 0 26.5 10t33.5 40z" />
    <glyph glyph-name="Odieresis" unicode="&#xd6;" horiz-adv-x="639" 
d="M591 350q0 -183 -74.5 -271.5t-204.5 -88.5t-197 80t-67 255q0 183 74 271.5t205 88.5q130 0 197 -80t67 -255zM477 330q0 145 -39.5 208.5t-120.5 63.5q-155 0 -155 -257q0 -145 39.5 -208t120.5 -63q155 0 155 256zM472 780q0 -27 -11 -37.5t-41 -10.5q-31 0 -42 10
t-11 38q0 27 11.5 37.5t41.5 10.5t41 -10t11 -38zM270 780q0 -27 -11 -37.5t-41 -10.5t-41.5 10t-11.5 38q0 27 11.5 37.5t41.5 10.5q31 0 41.5 -10t10.5 -38z" />
    <glyph glyph-name="multiply" unicode="&#xd7;" 
d="M306 298l133 -133l-56 -56l-133 133l-133 -133l-55 56l133 133l-132 132l56 56l132 -132l132 132l56 -55z" />
    <glyph glyph-name="Oslash" unicode="&#xd8;" horiz-adv-x="639" 
d="M591 350q0 -183 -74.5 -271.5t-204.5 -88.5q-86 0 -141 37l-61 -103l-58 31l66 111q-70 83 -70 259q0 183 74 271.5t205 88.5q83 0 141 -37l61 103l58 -31l-67 -111q71 -82 71 -259zM483 330q0 113 -27 173l-237 -397q37 -37 104 -37q160 0 160 261zM316 606
q-160 0 -160 -261q0 -108 27 -172l237 397q-39 36 -104 36z" />
    <glyph glyph-name="Ugrave" unicode="&#xd9;" horiz-adv-x="652" 
d="M570 675v-429q0 -131 -67.5 -193.5t-187.5 -62.5q-118 0 -175.5 57.5t-57.5 184.5v443h108v-430q0 -95 32 -134.5t105 -39.5q68 0 102.5 38t34.5 129v437h106zM369 770l-32 -47l-190 66l48 67z" />
    <glyph glyph-name="Uacute" unicode="&#xda;" horiz-adv-x="652" 
d="M570 675v-429q0 -131 -67.5 -193.5t-187.5 -62.5q-118 0 -175.5 57.5t-57.5 184.5v443h108v-430q0 -95 32 -134.5t105 -39.5q68 0 102.5 38t34.5 129v437h106zM286 770l174 86l48 -67l-190 -66z" />
    <glyph glyph-name="Ucircumflex" unicode="&#xdb;" horiz-adv-x="652" 
d="M570 675v-429q0 -131 -67.5 -193.5t-187.5 -62.5q-118 0 -175.5 57.5t-57.5 184.5v443h108v-430q0 -95 32 -134.5t105 -39.5q68 0 102.5 38t34.5 129v437h106zM328 856l148 -88l-28 -45l-121 57l-120 -57l-28 44z" />
    <glyph glyph-name="Udieresis" unicode="&#xdc;" horiz-adv-x="652" 
d="M570 675v-429q0 -131 -67.5 -193.5t-187.5 -62.5q-118 0 -175.5 57.5t-57.5 184.5v443h108v-430q0 -95 32 -134.5t105 -39.5q68 0 102.5 38t34.5 129v437h106zM479 780q0 -27 -11 -37.5t-41 -10.5q-31 0 -42 10t-11 38q0 27 11 37.5t42 10.5q30 0 41 -10t11 -38zM277 780
q0 -27 -11 -37.5t-41 -10.5t-41.5 10t-11.5 38q0 27 11.5 37.5t41.5 10.5q31 0 41.5 -10t10.5 -38z" />
    <glyph glyph-name="Yacute" unicode="&#xdd;" horiz-adv-x="486" 
d="M379 675h110q-96 -239 -192 -387v-288h-108v288q-103 165 -192 387h120q71 -178 133 -289h2q62 107 127 289zM199 770l174 86l48 -67l-190 -66z" />
    <glyph glyph-name="Thorn" unicode="&#xde;" horiz-adv-x="528" 
d="M191 0h-108v675h109v-106h64q247 0 247 -206q0 -106 -67 -169t-211 -63h-34v-131zM191 489v-277h49q75 0 112.5 36.5t37.5 102.5q0 69 -35 103.5t-115 34.5h-49z" />
    <glyph glyph-name="germandbls" unicode="&#xdf;" horiz-adv-x="556" 
d="M178 0h-103v501q0 107 53 162t155 55q87 0 133 -37t46 -100q0 -40 -11 -68t-26.5 -42.5t-31 -26.5t-26.5 -27.5t-11 -37.5q0 -25 17.5 -45t42 -36t49 -34.5t42 -49t17.5 -70.5q0 -66 -41 -109t-115 -43q-68 0 -119 30l10 54q41 -12 84 -12q37 0 56.5 19.5t19.5 49.5
q0 28 -17 49t-41 36.5t-48.5 32.5t-41.5 46.5t-17 68.5q0 30 11.5 53t27.5 37l32 28t27.5 34.5t11.5 47.5q0 37 -22.5 57t-63.5 20q-55 0 -77.5 -34t-22.5 -103v-506z" />
    <glyph glyph-name="agrave" unicode="&#xe0;" horiz-adv-x="501" 
d="M427 0h-80l-8 54q-74 -64 -154 -64q-67 0 -108.5 38.5t-41.5 103.5q0 166 253 166h37v45q0 45 -24.5 67t-78.5 22q-67 0 -146 -29l-15 63q93 41 188 41q90 0 134 -40t44 -111v-356zM325 115v117h-43q-81 0 -113 -23t-32 -67q0 -78 77 -78q54 0 111 51zM298 588l-52 -30
l-152 121l75 43z" />
    <glyph glyph-name="aacute" unicode="&#xe1;" horiz-adv-x="501" 
d="M427 0h-80l-8 54q-74 -64 -154 -64q-67 0 -108.5 38.5t-41.5 103.5q0 166 253 166h37v45q0 45 -24.5 67t-78.5 22q-67 0 -146 -29l-15 63q93 41 188 41q90 0 134 -40t44 -111v-356zM325 115v117h-43q-81 0 -113 -23t-32 -67q0 -78 77 -78q54 0 111 51zM391 679l-152 -121
l-52 30l129 134z" />
    <glyph glyph-name="acircumflex" unicode="&#xe2;" horiz-adv-x="501" 
d="M427 0h-80l-8 54q-74 -64 -154 -64q-67 0 -108.5 38.5t-41.5 103.5q0 166 253 166h37v45q0 45 -24.5 67t-78.5 22q-67 0 -146 -29l-15 63q93 41 188 41q90 0 134 -40t44 -111v-356zM325 115v117h-43q-81 0 -113 -23t-32 -67q0 -78 77 -78q54 0 111 51zM387 602l-34 -42
l-109 77l-108 -77l-33 41l144 125z" />
    <glyph glyph-name="atilde" unicode="&#xe3;" horiz-adv-x="501" 
d="M427 0h-80l-8 54q-74 -64 -154 -64q-67 0 -108.5 38.5t-41.5 103.5q0 166 253 166h37v45q0 45 -24.5 67t-78.5 22q-67 0 -146 -29l-15 63q93 41 188 41q90 0 134 -40t44 -111v-356zM325 115v117h-43q-81 0 -113 -23t-32 -67q0 -78 77 -78q54 0 111 51zM364 692l42 -31
q-25 -46 -50 -66t-63 -20q-27 0 -49.5 13t-39.5 26t-30 13q-15 0 -27 -10t-33 -40l-43 31q25 45 50.5 65t62.5 20q27 0 50 -13t40 -26t30 -13q14 0 26 10.5t34 40.5z" />
    <glyph glyph-name="adieresis" unicode="&#xe4;" horiz-adv-x="501" 
d="M427 0h-80l-8 54q-74 -64 -154 -64q-67 0 -108.5 38.5t-41.5 103.5q0 166 253 166h37v45q0 45 -24.5 67t-78.5 22q-67 0 -146 -29l-15 63q93 41 188 41q90 0 134 -40t44 -111v-356zM325 115v117h-43q-81 0 -113 -23t-32 -67q0 -78 77 -78q54 0 111 51zM396 636
q0 -28 -10.5 -38.5t-40.5 -10.5q-31 0 -42 10.5t-11 38.5q0 29 11 40t42 11q30 0 40.5 -10.5t10.5 -40.5zM201 636q0 -28 -11 -38.5t-41 -10.5q-31 0 -42 10.5t-11 38.5q0 29 11 40t42 11q30 0 41 -10.5t11 -40.5z" />
    <glyph glyph-name="aring" unicode="&#xe5;" horiz-adv-x="501" 
d="M427 0h-80l-8 54q-74 -64 -154 -64q-67 0 -108.5 38.5t-41.5 103.5q0 166 253 166h37v45q0 45 -24.5 67t-78.5 22q-67 0 -146 -29l-15 63q93 41 188 41q90 0 134 -40t44 -111v-356zM325 115v117h-43q-81 0 -113 -23t-32 -67q0 -78 77 -78q54 0 111 51zM353 642
q0 -45 -30.5 -71t-82.5 -26q-109 0 -109 92q0 44 31 70t83 26q108 0 108 -91zM284 639q0 44 -42 44t-42 -44q0 -43 42 -43t42 43z" />
    <glyph glyph-name="ae" unicode="&#xe6;" horiz-adv-x="774" 
d="M704 100l17 -61q-98 -49 -193 -49q-127 0 -172 94q-67 -94 -171 -94q-67 0 -108.5 38.5t-41.5 103.5q0 166 253 166h37v45q0 45 -24.5 67t-78.5 22q-67 0 -146 -29l-15 63q93 41 188 41q109 0 142 -70q52 71 144 71q203 0 187 -276h-297v-9q0 -153 125 -153q72 0 154 30z
M325 232h-43q-81 0 -113 -23t-32 -67q0 -78 77 -78q69 0 111 74v94zM426 298h196v3q0 136 -93 136q-48 0 -74 -38t-29 -101z" />
    <glyph glyph-name="ccedilla" unicode="&#xe7;" horiz-adv-x="425" 
d="M368 117l34 -53q-68 -73 -165 -73q-94 0 -143.5 63.5t-49.5 187.5q0 120 55 193t146 73q90 0 146 -62l-38 -53q-44 37 -93 37q-51 0 -79.5 -46t-28.5 -131q0 -183 108 -183q55 0 108 47zM190 -43h89q11 -82 -77 -138l-59 27q32 28 42 51.5t5 59.5z" />
    <glyph glyph-name="egrave" unicode="&#xe8;" horiz-adv-x="499" 
d="M447 232h-297v-9q0 -153 125 -153q71 0 154 30l17 -61q-98 -49 -193 -49q-209 0 -209 245q0 131 57 202t158 71q204 0 188 -276zM151 298h196v3q0 136 -93 136q-48 0 -74 -38t-29 -101zM311 588l-52 -30l-152 121l75 43z" />
    <glyph glyph-name="eacute" unicode="&#xe9;" horiz-adv-x="499" 
d="M447 232h-297v-9q0 -153 125 -153q71 0 154 30l17 -61q-98 -49 -193 -49q-209 0 -209 245q0 131 57 202t158 71q204 0 188 -276zM151 298h196v3q0 136 -93 136q-48 0 -74 -38t-29 -101zM404 679l-152 -121l-52 30l129 134z" />
    <glyph glyph-name="ecircumflex" unicode="&#xea;" horiz-adv-x="499" 
d="M447 232h-297v-9q0 -153 125 -153q71 0 154 30l17 -61q-98 -49 -193 -49q-209 0 -209 245q0 131 57 202t158 71q204 0 188 -276zM151 298h196v3q0 136 -93 136q-48 0 -74 -38t-29 -101zM396 602l-34 -42l-109 77l-108 -77l-33 41l144 125z" />
    <glyph glyph-name="edieresis" unicode="&#xeb;" horiz-adv-x="499" 
d="M447 232h-297v-9q0 -153 125 -153q71 0 154 30l17 -61q-98 -49 -193 -49q-209 0 -209 245q0 131 57 202t158 71q204 0 188 -276zM151 298h196v3q0 136 -93 136q-48 0 -74 -38t-29 -101zM404 636q0 -28 -10.5 -38.5t-40.5 -10.5q-31 0 -42 10.5t-11 38.5q0 29 11 40t42 11
q30 0 40.5 -10.5t10.5 -40.5zM209 636q0 -28 -11 -38.5t-41 -10.5q-31 0 -42 10.5t-11 38.5q0 29 11 40t42 11q30 0 41 -10.5t11 -40.5z" />
    <glyph glyph-name="igrave" unicode="&#xec;" horiz-adv-x="253" 
d="M178 0h-103v498h103v-498zM193 588l-52 -30l-152 121l75 43z" />
    <glyph glyph-name="iacute" unicode="&#xed;" horiz-adv-x="253" 
d="M178 0h-103v498h103v-498zM271 679l-152 -121l-52 30l129 134z" />
    <glyph glyph-name="icircumflex" unicode="&#xee;" horiz-adv-x="253" 
d="M178 0h-103v498h103v-498zM269 602l-34 -42l-109 77l-108 -77l-33 41l144 125z" />
    <glyph glyph-name="idieresis" unicode="&#xef;" horiz-adv-x="253" 
d="M178 0h-103v498h103v-498zM260 636q0 -28 -10.5 -38.5t-40.5 -10.5t-40.5 10t-10.5 39t10.5 40t40.5 11q31 0 41 -10.5t10 -40.5zM95 636q0 -28 -10 -38.5t-40 -10.5q-31 0 -41.5 10t-10.5 39q0 30 10.5 40.5t41.5 10.5q30 0 40 -10.5t10 -40.5z" />
    <glyph glyph-name="eth" unicode="&#xf0;" horiz-adv-x="526" 
d="M455 648l-87 -40q108 -135 108 -305q0 -165 -62 -238.5t-167 -73.5q-103 0 -155 63.5t-52 177.5q0 127 61 198t167 71q44 0 58 -7q-21 45 -57 88l-97 -46l-41 50l95 45q-43 43 -88 78h130q30 -23 57 -52l88 42zM364 279q0 80 -17 139q-33 11 -76 11q-56 0 -88 -44.5
t-32 -132.5q0 -181 109 -181q49 0 76.5 43.5t27.5 164.5z" />
    <glyph glyph-name="ntilde" unicode="&#xf1;" horiz-adv-x="543" 
d="M468 0h-102q0 51 1 143.5t1 120.5q0 89 -19.5 125t-59.5 36q-49 0 -111 -50v-375h-103v498h85l8 -56q78 66 152 66q75 0 113.5 -52.5t38.5 -170.5q0 -28 -2 -128t-2 -157zM401 692l42 -31q-25 -46 -50 -66t-63 -20q-27 0 -49.5 13t-39.5 26t-30 13q-15 0 -27 -10t-33 -40
l-43 31q25 45 50.5 65t62.5 20q27 0 50 -13t40 -26t30 -13q14 0 26 10.5t34 40.5z" />
    <glyph glyph-name="ograve" unicode="&#xf2;" horiz-adv-x="530" 
d="M485 258q0 -134 -61 -201t-169 -67q-211 0 -211 250q0 134 61 201t170 67q210 0 210 -250zM379 237q0 107 -28 150.5t-87 43.5q-113 0 -113 -170q0 -107 27.5 -150.5t86.5 -43.5q53 0 83.5 41.5t30.5 128.5zM320 588l-52 -30l-152 121l75 43z" />
    <glyph glyph-name="oacute" unicode="&#xf3;" horiz-adv-x="530" 
d="M485 258q0 -134 -61 -201t-169 -67q-211 0 -211 250q0 134 61 201t170 67q210 0 210 -250zM379 237q0 107 -28 150.5t-87 43.5q-113 0 -113 -170q0 -107 27.5 -150.5t86.5 -43.5q53 0 83.5 41.5t30.5 128.5zM413 679l-152 -121l-52 30l129 134z" />
    <glyph glyph-name="ocircumflex" unicode="&#xf4;" horiz-adv-x="530" 
d="M485 258q0 -134 -61 -201t-169 -67q-211 0 -211 250q0 134 61 201t170 67q210 0 210 -250zM379 237q0 107 -28 150.5t-87 43.5q-113 0 -113 -170q0 -107 27.5 -150.5t86.5 -43.5q53 0 83.5 41.5t30.5 128.5zM410 602l-34 -42l-109 77l-108 -77l-33 41l144 125z" />
    <glyph glyph-name="otilde" unicode="&#xf5;" horiz-adv-x="530" 
d="M485 258q0 -134 -61 -201t-169 -67q-211 0 -211 250q0 134 61 201t170 67q210 0 210 -250zM379 237q0 107 -28 150.5t-87 43.5q-113 0 -113 -170q0 -107 27.5 -150.5t86.5 -43.5q53 0 83.5 41.5t30.5 128.5zM390 692l42 -31q-25 -46 -50 -66t-63 -20q-27 0 -49.5 13
t-39.5 26t-30 13q-15 0 -27 -10t-33 -40l-43 31q25 45 50.5 65t62.5 20q27 0 50 -13t40 -26t30 -13q14 0 26 10.5t34 40.5z" />
    <glyph glyph-name="odieresis" unicode="&#xf6;" horiz-adv-x="530" 
d="M485 258q0 -134 -61 -201t-169 -67q-211 0 -211 250q0 134 61 201t170 67q210 0 210 -250zM379 237q0 107 -28 150.5t-87 43.5q-113 0 -113 -170q0 -107 27.5 -150.5t86.5 -43.5q53 0 83.5 41.5t30.5 128.5zM416 636q0 -28 -10.5 -38.5t-40.5 -10.5q-31 0 -42 10.5
t-11 38.5q0 29 11 40t42 11q30 0 40.5 -10.5t10.5 -40.5zM221 636q0 -28 -11 -38.5t-41 -10.5q-31 0 -42 10.5t-11 38.5q0 29 11 40t42 11q30 0 41 -10.5t11 -40.5z" />
    <glyph glyph-name="divide" unicode="&#xf7;" 
d="M308 107q0 -33 -11.5 -45t-46.5 -12q-36 0 -47.5 11.5t-11.5 44.5q0 34 11.5 45.5t47.5 11.5q35 0 46.5 -11.5t11.5 -44.5zM459 261h-419v75h419v-75zM308 489q0 -33 -11.5 -44t-46.5 -11q-36 0 -47.5 11t-11.5 45t11.5 45.5t47.5 11.5q35 0 46.5 -11.5t11.5 -46.5z" />
    <glyph glyph-name="oslash" unicode="&#xf8;" horiz-adv-x="530" 
d="M478 543l-53 -89q60 -62 60 -196t-60 -201t-169 -67q-54 0 -96 20l-51 -86l-58 32l53 88q-60 63 -60 196q0 134 60.5 201t169.5 67q59 0 96 -20l51 86zM366 362l-164 -283q23 -17 64 -17q56 0 88 43t32 132q0 84 -20 125zM163 136l165 283q-26 17 -64 17
q-120 0 -120 -174q0 -82 19 -126z" />
    <glyph glyph-name="ugrave" unicode="&#xf9;" horiz-adv-x="543" 
d="M468 0h-85l-8 56q-78 -66 -152 -66t-113 53t-39 171q0 27 2 127t2 157h102q0 -51 -1.5 -143t-1.5 -121q0 -88 19.5 -124.5t60.5 -36.5q45 0 111 50v375h103v-498zM332 588l-52 -30l-152 121l75 43z" />
    <glyph glyph-name="uacute" unicode="&#xfa;" horiz-adv-x="543" 
d="M468 0h-85l-8 56q-78 -66 -152 -66t-113 53t-39 171q0 27 2 127t2 157h102q0 -51 -1.5 -143t-1.5 -121q0 -88 19.5 -124.5t60.5 -36.5q45 0 111 50v375h103v-498zM421 679l-152 -121l-52 30l129 134z" />
    <glyph glyph-name="ucircumflex" unicode="&#xfb;" horiz-adv-x="543" 
d="M468 0h-85l-8 56q-78 -66 -152 -66t-113 53t-39 171q0 27 2 127t2 157h102q0 -51 -1.5 -143t-1.5 -121q0 -88 19.5 -124.5t60.5 -36.5q45 0 111 50v375h103v-498zM414 602l-34 -42l-109 77l-108 -77l-33 41l144 125z" />
    <glyph glyph-name="udieresis" unicode="&#xfc;" horiz-adv-x="543" 
d="M468 0h-85l-8 56q-78 -66 -152 -66t-113 53t-39 171q0 27 2 127t2 157h102q0 -51 -1.5 -143t-1.5 -121q0 -88 19.5 -124.5t60.5 -36.5q45 0 111 50v375h103v-498zM422 636q0 -28 -10.5 -38.5t-40.5 -10.5q-31 0 -42 10.5t-11 38.5q0 29 11 40t42 11q30 0 40.5 -10.5
t10.5 -40.5zM227 636q0 -28 -11 -38.5t-41 -10.5q-31 0 -42 10.5t-11 38.5q0 29 11 40t42 11q30 0 41 -10.5t11 -40.5z" />
    <glyph glyph-name="yacute" unicode="&#xfd;" horiz-adv-x="471" 
d="M341 498h108q-125 -676 -375 -676q-31 0 -68 17v61q17 -3 45 -3q49 0 80 27q36 33 36 75q0 38 -37 149l-115 350h111l85 -270q28 -89 28 -155h2q30 77 58.5 197.5t41.5 227.5zM395 679l-152 -121l-52 30l129 134z" />
    <glyph glyph-name="thorn" unicode="&#xfe;" horiz-adv-x="526" 
d="M178 -173h-103v882h103v-256q67 55 131 55q81 0 127 -67.5t46 -171.5q0 -141 -67 -210t-177 -69q-39 0 -60 4v-167zM178 376v-300q27 -11 69 -11q58 0 93.5 47t35.5 139q0 82 -25.5 129.5t-69.5 47.5q-47 0 -103 -52z" />
    <glyph glyph-name="ydieresis" unicode="&#xff;" horiz-adv-x="471" 
d="M341 498h108q-125 -676 -375 -676q-31 0 -68 17v61q17 -3 45 -3q49 0 80 27q36 33 36 75q0 38 -37 149l-115 350h111l85 -270q28 -89 28 -155h2q30 77 58.5 197.5t41.5 227.5zM386 636q0 -28 -10.5 -38.5t-40.5 -10.5q-31 0 -42 10.5t-11 38.5q0 29 11 40t42 11
q30 0 40.5 -10.5t10.5 -40.5zM191 636q0 -28 -11 -38.5t-41 -10.5q-31 0 -42 10.5t-11 38.5q0 29 11 40t42 11q30 0 41 -10.5t11 -40.5z" />
    <glyph glyph-name="Amacron" unicode="&#x100;" horiz-adv-x="548" 
d="M534 0h-116l-33 141h-236l-31 -141h-105q89 375 190 675h138q111 -331 193 -675zM166 222h202q-49 180 -103 354h-2q-59 -200 -97 -354zM413 747h-278v69h278v-69z" />
    <glyph glyph-name="amacron" unicode="&#x101;" horiz-adv-x="501" 
d="M427 0h-80l-8 54q-74 -64 -154 -64q-67 0 -108.5 38.5t-41.5 103.5q0 166 253 166h37v45q0 45 -24.5 67t-78.5 22q-67 0 -146 -29l-15 63q93 41 188 41q90 0 134 -40t44 -111v-356zM325 115v117h-43q-81 0 -113 -23t-32 -67q0 -78 77 -78q54 0 111 51zM381 596h-270v73
h270v-73z" />
    <glyph glyph-name="Abreve" unicode="&#x102;" horiz-adv-x="548" 
d="M534 0h-116l-33 141h-236l-31 -141h-105q89 375 190 675h138q111 -331 193 -675zM166 222h202q-49 180 -103 354h-2q-59 -200 -97 -354zM348 858h63q0 -61 -37 -100t-102 -39q-66 0 -102.5 37.5t-36.5 101.5h64q0 -30 19 -50t56 -20t56.5 20.5t19.5 49.5z" />
    <glyph glyph-name="abreve" unicode="&#x103;" horiz-adv-x="501" 
d="M427 0h-80l-8 54q-74 -64 -154 -64q-67 0 -108.5 38.5t-41.5 103.5q0 166 253 166h37v45q0 45 -24.5 67t-78.5 22q-67 0 -146 -29l-15 63q93 41 188 41q90 0 134 -40t44 -111v-356zM325 115v117h-43q-81 0 -113 -23t-32 -67q0 -78 77 -78q54 0 111 51zM320 718h65
q0 -74 -37 -114t-104 -40q-68 0 -104 39.5t-36 114.5h65q-1 -80 75 -80t76 80z" />
    <glyph glyph-name="Aogonek" unicode="&#x104;" horiz-adv-x="548" 
d="M523 -108l15 -47q-39 -25 -89 -25q-89 0 -89 71q0 56 58 109l-33 141h-236l-31 -141h-105q89 375 190 675h138q111 -331 193 -675q-46 -14 -67.5 -39t-21.5 -51q0 -31 33 -31q19 0 45 13zM166 222h202q-49 180 -103 354h-2q-59 -200 -97 -354z" />
    <glyph glyph-name="aogonek" unicode="&#x105;" horiz-adv-x="501" 
d="M442 -108l15 -47q-39 -25 -89 -25q-89 0 -89 71q0 64 67 115l-7 48q-74 -64 -154 -64q-70 0 -110 36t-40 102q0 80 62.5 125t190.5 45h37v45q0 45 -24.5 67t-78.5 22q-67 0 -146 -29l-15 63q93 41 188 41q90 0 134 -40t44 -111v-356q-63 -47 -63 -90q0 -31 33 -31
q19 0 45 13zM325 115v117h-43q-81 0 -113 -23.5t-32 -67.5q0 -77 77 -77q52 0 111 51z" />
    <glyph glyph-name="Cacute" unicode="&#x106;" horiz-adv-x="517" 
d="M445 148l46 -56q-75 -102 -199 -102q-119 0 -181.5 85t-62.5 252q0 169 68 263.5t184 94.5q123 0 180 -111l-52 -46q-45 70 -116 70q-74 0 -112.5 -72.5t-38.5 -181.5q0 -266 151 -266q73 0 133 70zM254 770l174 86l48 -67l-190 -66z" />
    <glyph glyph-name="cacute" unicode="&#x107;" horiz-adv-x="425" 
d="M368 117l34 -53q-68 -73 -165 -73q-94 0 -143.5 63.5t-49.5 187.5q0 120 55 193t146 73q90 0 146 -62l-38 -53q-44 37 -93 37q-51 0 -79.5 -46t-28.5 -131q0 -183 108 -183q55 0 108 47zM413 679l-152 -121l-52 30l129 134z" />
    <glyph glyph-name="Ccircumflex" unicode="&#x108;" horiz-adv-x="517" 
d="M445 148l46 -56q-75 -102 -199 -102q-119 0 -181.5 85t-62.5 252q0 169 68 263.5t184 94.5q123 0 180 -111l-52 -46q-45 70 -116 70q-74 0 -112.5 -72.5t-38.5 -181.5q0 -266 151 -266q73 0 133 70zM296 856l148 -88l-28 -45l-121 57l-120 -57l-28 44z" />
    <glyph glyph-name="ccircumflex" unicode="&#x109;" horiz-adv-x="425" 
d="M368 117l34 -53q-68 -73 -165 -73q-94 0 -143.5 63.5t-49.5 187.5q0 120 55 193t146 73q90 0 146 -62l-38 -53q-44 37 -93 37q-51 0 -79.5 -46t-28.5 -131q0 -183 108 -183q55 0 108 47zM386 602l-34 -42l-109 77l-108 -77l-33 41l144 125z" />
    <glyph glyph-name="Cdotaccent" unicode="&#x10a;" horiz-adv-x="517" 
d="M445 148l46 -56q-75 -102 -199 -102q-119 0 -181.5 85t-62.5 252q0 169 68 263.5t184 94.5q123 0 180 -111l-52 -46q-45 70 -116 70q-74 0 -112.5 -72.5t-38.5 -181.5q0 -266 151 -266q73 0 133 70zM352 784q0 -29 -12 -39t-46 -10q-36 0 -47.5 10t-11.5 39t12 39t47 10
q36 0 47 -9.5t11 -39.5z" />
    <glyph glyph-name="cdotaccent" unicode="&#x10b;" horiz-adv-x="425" 
d="M368 117l34 -53q-68 -73 -165 -73q-94 0 -143.5 63.5t-49.5 187.5q0 120 55 193t146 73q90 0 146 -62l-38 -53q-44 37 -93 37q-51 0 -79.5 -46t-28.5 -131q0 -183 108 -183q55 0 108 47zM302 640q0 -32 -12.5 -43t-49.5 -11q-39 0 -51.5 11t-12.5 43q0 31 13 42.5
t51 11.5t50 -11t12 -43z" />
    <glyph glyph-name="Ccaron" unicode="&#x10c;" horiz-adv-x="517" 
d="M445 148l46 -56q-75 -102 -199 -102q-119 0 -181.5 85t-62.5 252q0 169 68 263.5t184 94.5q123 0 180 -111l-52 -46q-45 70 -116 70q-74 0 -112.5 -72.5t-38.5 -181.5q0 -266 151 -266q73 0 133 70zM303 723l-148 88l28 45l122 -57l120 57l27 -44z" />
    <glyph glyph-name="ccaron" unicode="&#x10d;" horiz-adv-x="425" 
d="M368 117l34 -53q-68 -73 -165 -73q-94 0 -143.5 63.5t-49.5 187.5q0 120 55 193t146 73q90 0 146 -62l-38 -53q-44 37 -93 37q-51 0 -79.5 -46t-28.5 -131q0 -183 108 -183q55 0 108 47zM389 684l-144 -125l-140 124l34 42l109 -77l108 77z" />
    <glyph glyph-name="Dcaron" unicode="&#x10e;" horiz-adv-x="587" 
d="M83 0v675q31 0 86 0.5t83 0.5q77 0 134 -24.5t89.5 -69.5t48 -101t15.5 -126q0 -173 -77 -265.5t-232 -92.5q-27 0 -77 1.5t-70 1.5zM191 594v-511q38 -2 57 -2q178 0 178 261q0 253 -183 253q-34 0 -52 -1zM277 723l-148 88l28 45l122 -57l120 57l27 -44z" />
    <glyph glyph-name="dcaron" unicode="&#x10f;" horiz-adv-x="570" 
d="M451 0h-84l-9 53q-75 -63 -143 -63q-80 0 -125.5 67t-45.5 173q0 142 67 210t174 68q33 0 63 -4v205h103v-709zM348 120v302q-35 11 -71 11q-58 0 -92.5 -47t-34.5 -140q0 -83 25.5 -129.5t69.5 -46.5q45 0 103 50zM601 738l-58 -178l-54 10l34 184z" />
    <glyph glyph-name="Dcroat" unicode="&#x110;" horiz-adv-x="597" 
d="M93 390v285q30 0 86 0.5t85 0.5q77 0 133.5 -25t88.5 -70t47.5 -101t15.5 -125q0 -173 -77 -265.5t-232 -92.5q-24 0 -75 1.5t-72 1.5v309h-60v81h60zM201 594v-204h110v-81h-110v-226q38 -2 57 -2q178 0 178 261q0 253 -183 253q-34 0 -52 -1z" />
    <glyph glyph-name="dcroat" unicode="&#x111;" horiz-adv-x="526" 
d="M451 570v-570h-84l-9 53q-75 -63 -143 -63q-80 0 -125.5 67t-45.5 173q0 142 67 210t174 68q33 0 63 -4v66h-104v60h104v79h103v-79h74v-60h-74zM348 120v302q-35 11 -71 11q-58 0 -92.5 -47t-34.5 -140q0 -83 25.5 -129.5t69.5 -46.5q45 0 103 50z" />
    <glyph glyph-name="Emacron" unicode="&#x112;" horiz-adv-x="473" 
d="M422 0h-339v675h335v-84h-227v-201h187v-81h-187v-224h231v-85zM388 747h-278v69h278v-69z" />
    <glyph glyph-name="emacron" unicode="&#x113;" horiz-adv-x="499" 
d="M447 232h-297v-9q0 -153 125 -153q71 0 154 30l17 -61q-98 -49 -193 -49q-209 0 -209 245q0 131 57 202t158 71q204 0 188 -276zM151 298h196v3q0 136 -93 136q-48 0 -74 -38t-29 -101zM386 596h-270v73h270v-73z" />
    <glyph glyph-name="Ebreve" unicode="&#x114;" horiz-adv-x="473" 
d="M422 0h-339v675h335v-84h-227v-201h187v-81h-187v-224h231v-85zM325 858h63q0 -61 -37 -100t-102 -39q-66 0 -102.5 37.5t-36.5 101.5h64q0 -30 19 -50t56 -20t56.5 20.5t19.5 49.5z" />
    <glyph glyph-name="ebreve" unicode="&#x115;" horiz-adv-x="499" 
d="M447 232h-297v-9q0 -153 125 -153q71 0 154 30l17 -61q-98 -49 -193 -49q-209 0 -209 245q0 131 57 202t158 71q204 0 188 -276zM151 298h196v3q0 136 -93 136q-48 0 -74 -38t-29 -101zM328 718h65q0 -74 -37 -114t-104 -40q-68 0 -104 39.5t-36 114.5h65q-1 -80 75 -80
t76 80z" />
    <glyph glyph-name="Edotaccent" unicode="&#x116;" horiz-adv-x="473" 
d="M422 0h-339v675h335v-84h-227v-201h187v-81h-187v-224h231v-85zM311 782q0 -29 -12 -39t-46 -10q-36 0 -47.5 10t-11.5 39t12 39t47 10q36 0 47 -9.5t11 -39.5z" />
    <glyph glyph-name="edotaccent" unicode="&#x117;" horiz-adv-x="499" 
d="M447 232h-297v-9q0 -153 125 -153q71 0 154 30l17 -61q-98 -49 -193 -49q-209 0 -209 245q0 131 57 202t158 71q204 0 188 -276zM151 298h196v3q0 136 -93 136q-48 0 -74 -38t-29 -101zM316 640q0 -32 -12.5 -43t-49.5 -11q-39 0 -51.5 11t-12.5 43q0 31 13 42.5t51 11.5
t50 -11t12 -43z" />
    <glyph glyph-name="Eogonek" unicode="&#x118;" horiz-adv-x="473" 
d="M422 85v-85q-68 -41 -68 -90q0 -31 33 -31q21 0 45 13l15 -47q-39 -25 -88 -25q-90 0 -90 71q0 59 59 109h-245v675h335v-84h-227v-201h187v-81h-187v-224h231z" />
    <glyph glyph-name="eogonek" unicode="&#x119;" horiz-adv-x="499" 
d="M429 100l17 -61q-93 -75 -93 -129q0 -31 33 -31q21 0 45 13l15 -47q-38 -25 -88 -25q-90 0 -90 71q0 55 60 109q-40 -10 -75 -10q-209 0 -209 245q0 131 57 202t158 71q204 0 188 -276h-297v-9q0 -153 125 -153q71 0 154 30zM151 298h196v3q0 136 -93 136
q-48 0 -74 -38.5t-29 -100.5z" />
    <glyph glyph-name="Ecaron" unicode="&#x11a;" horiz-adv-x="473" 
d="M422 0h-339v675h335v-84h-227v-201h187v-81h-187v-224h231v-85zM248 723l-148 88l28 45l122 -57l120 57l27 -44z" />
    <glyph glyph-name="ecaron" unicode="&#x11b;" horiz-adv-x="499" 
d="M447 232h-297v-9q0 -153 125 -153q71 0 154 30l17 -61q-98 -49 -193 -49q-209 0 -209 245q0 131 57 202t158 71q204 0 188 -276zM151 298h196v3q0 136 -93 136q-48 0 -74 -38t-29 -101zM397 684l-144 -125l-140 124l34 42l109 -77l108 77z" />
    <glyph glyph-name="Gcircumflex" unicode="&#x11c;" horiz-adv-x="574" 
d="M502 377v-309q-89 -78 -209 -78q-119 0 -182 83.5t-63 253.5q0 171 74 264.5t191 93.5q108 0 183 -92l-47 -46q-68 52 -130 52q-74 0 -116 -65t-42 -188q0 -269 145 -269q55 0 90 29v191h-89v80h195zM310 856l148 -88l-28 -45l-121 57l-120 -57l-28 44z" />
    <glyph glyph-name="gcircumflex" unicode="&#x11d;" horiz-adv-x="526" 
d="M451 489v-472q0 -111 -53 -154t-149 -43q-78 0 -166 35l9 58q88 -15 147 -15q58 0 83.5 22t25.5 77v66q-69 -53 -134 -53q-78 0 -124 66t-46 165q0 133 69.5 200t179.5 67q65 0 158 -19zM348 137v284q-32 12 -72 12q-56 0 -91 -46t-35 -128q0 -81 25 -126.5t71 -45.5
q45 0 102 50zM405 602l-34 -42l-109 77l-108 -77l-33 41l144 125z" />
    <glyph glyph-name="Gbreve" unicode="&#x11e;" horiz-adv-x="574" 
d="M502 377v-309q-89 -78 -209 -78q-119 0 -182 83.5t-63 253.5q0 171 74 264.5t191 93.5q108 0 183 -92l-47 -46q-68 52 -130 52q-74 0 -116 -65t-42 -188q0 -269 145 -269q55 0 90 29v191h-89v80h195zM374 858h63q0 -61 -37 -100t-102 -39q-66 0 -102.5 37.5t-36.5 101.5
h64q0 -30 19 -50t56 -20t56.5 20.5t19.5 49.5z" />
    <glyph glyph-name="gbreve" unicode="&#x11f;" horiz-adv-x="526" 
d="M451 489v-472q0 -111 -53 -154t-149 -43q-78 0 -166 35l9 58q88 -15 147 -15q58 0 83.5 22t25.5 77v66q-69 -53 -134 -53q-78 0 -124 66t-46 165q0 133 69.5 200t179.5 67q65 0 158 -19zM348 137v284q-32 12 -72 12q-56 0 -91 -46t-35 -128q0 -81 25 -126.5t71 -45.5
q45 0 102 50zM347 718h65q0 -74 -37 -114t-104 -40q-68 0 -104 39.5t-36 114.5h65q-1 -80 75 -80t76 80z" />
    <glyph glyph-name="Gdotaccent" unicode="&#x120;" horiz-adv-x="574" 
d="M502 377v-309q-89 -78 -209 -78q-119 0 -182 83.5t-63 253.5q0 171 74 264.5t191 93.5q108 0 183 -92l-47 -46q-68 52 -130 52q-74 0 -116 -65t-42 -188q0 -269 145 -269q55 0 90 29v191h-89v80h195zM366 784q0 -29 -12 -39t-46 -10q-36 0 -47.5 10t-11.5 39t12 39t47 10
q36 0 47 -9.5t11 -39.5z" />
    <glyph glyph-name="gdotaccent" unicode="&#x121;" horiz-adv-x="526" 
d="M451 489v-472q0 -111 -53 -154t-149 -43q-78 0 -166 35l9 58q88 -15 147 -15q58 0 83.5 22t25.5 77v66q-69 -53 -134 -53q-78 0 -124 66t-46 165q0 133 69.5 200t179.5 67q65 0 158 -19zM348 137v284q-32 12 -72 12q-56 0 -91 -46t-35 -128q0 -81 25 -126.5t71 -45.5
q45 0 102 50zM324 640q0 -32 -12.5 -43t-49.5 -11q-39 0 -51.5 11t-12.5 43q0 31 13 42.5t51 11.5t50 -11t12 -43z" />
    <glyph glyph-name="Gcommaaccent" unicode="&#x122;" horiz-adv-x="574" 
d="M502 377v-309q-89 -78 -209 -78q-119 0 -182 83.5t-63 253.5q0 171 74 264.5t191 93.5q108 0 183 -92l-47 -46q-68 52 -130 52q-74 0 -116 -65t-42 -188q0 -269 145 -269q55 0 90 29v191h-89v80h195zM296 -36q46 0 46 -44q0 -80 -121 -99l-15 35q53 20 53 43q0 4 -4.5 11
t-4.5 18q0 16 12 26t34 10z" />
    <glyph glyph-name="gcommaaccent" unicode="&#x123;" horiz-adv-x="526" 
d="M451 489v-472q0 -111 -53 -154t-149 -43q-78 0 -166 35l9 58q88 -15 147 -15q58 0 83.5 22t25.5 77v66q-69 -53 -134 -53q-78 0 -124 66t-46 165q0 133 69.5 200t179.5 67q65 0 158 -19zM348 137v284q-32 12 -72 12q-56 0 -91 -46t-35 -128q0 -81 25 -126.5t71 -45.5
q45 0 102 50zM384 716l13 -37q-31 -8 -47 -22t-16 -28q0 -5 4.5 -12t4.5 -18q0 -36 -46 -36t-46 45q0 93 133 108z" />
    <glyph glyph-name="Hcircumflex" unicode="&#x124;" horiz-adv-x="658" 
d="M575 0h-108v308h-276v-308h-108v675h108v-276h276v276h108v-675zM329 856l148 -88l-28 -45l-121 57l-120 -57l-28 44z" />
    <glyph glyph-name="hcircumflex" unicode="&#x125;" horiz-adv-x="543" 
d="M468 0h-102q0 54 1 146.5t1 117.5q0 89 -19.5 125t-59.5 36q-49 0 -111 -50v-375h-103v709h103v-259q75 58 142 58q74 0 113 -52.5t39 -170.5q0 -25 -2 -125.5t-2 -159.5zM129 885l148 -88l-28 -45l-122 57l-120 -57l-27 44z" />
    <glyph glyph-name="Hbar" unicode="&#x126;" horiz-adv-x="678" 
d="M585 0h-108v285h-276v-285h-108v483h-76v77h76v115h108v-115h276v115h108v-115h75v-77h-75v-483zM201 372h276v111h-276v-111z" />
    <glyph glyph-name="hbar" unicode="&#x127;" horiz-adv-x="543" 
d="M468 0h-102q0 54 1 145.5t1 116.5q0 89 -19.5 125t-59.5 36q-49 0 -111 -50v-373h-103v573h-75v71h75v71h103v-71h138v-71h-138v-125q75 58 142 58q74 0 113 -52.5t39 -170.5q0 -25 -2 -124.5t-2 -158.5z" />
    <glyph glyph-name="Itilde" unicode="&#x128;" horiz-adv-x="274" 
d="M191 0h-108v675h108v-675zM264 844l44 -30q-25 -46 -51 -66t-64 -20q-36 0 -72 26t-50 26q-15 0 -27 -10t-34 -40l-44 30q26 45 52 65.5t64 20.5q36 0 72 -26t50 -26q15 0 26.5 10t33.5 40z" />
    <glyph glyph-name="itilde" unicode="&#x129;" horiz-adv-x="253" 
d="M178 0h-103v498h103v-498zM252 692l42 -31q-25 -46 -50 -66t-63 -20q-27 0 -49.5 13t-39.5 26t-30 13q-15 0 -27 -10t-33 -40l-43 31q25 45 50.5 65t62.5 20q27 0 50 -13t40 -26t30 -13q14 0 26 10.5t34 40.5z" />
    <glyph glyph-name="Imacron" unicode="&#x12a;" horiz-adv-x="274" 
d="M191 0h-108v675h108v-675zM276 747h-278v69h278v-69z" />
    <glyph glyph-name="imacron" unicode="&#x12b;" horiz-adv-x="253" 
d="M178 0h-103v498h103v-498zM262 596h-270v73h270v-73z" />
    <glyph glyph-name="Ibreve" unicode="&#x12c;" horiz-adv-x="274" 
d="M191 0h-108v675h108v-675zM213 858h63q0 -61 -37 -100t-102 -39q-66 0 -102.5 37.5t-36.5 101.5h64q0 -30 19 -50t56 -20t56.5 20.5t19.5 49.5z" />
    <glyph glyph-name="ibreve" unicode="&#x12d;" horiz-adv-x="253" 
d="M178 0h-103v498h103v-498zM203 718h65q0 -74 -37 -114t-104 -40q-68 0 -104 39.5t-36 114.5h65q-1 -80 75 -80t76 80z" />
    <glyph glyph-name="Iogonek" unicode="&#x12e;" horiz-adv-x="274" 
d="M83 0v675h108v-675q-36 -14 -56.5 -39.5t-20.5 -50.5q0 -31 33 -31q21 0 45 13l15 -47q-39 -25 -88 -25q-90 0 -90 71q0 52 54 109z" />
    <glyph glyph-name="iogonek" unicode="&#x12f;" horiz-adv-x="253" 
d="M189 636q0 -33 -12 -44.5t-50 -11.5t-50.5 11.5t-12.5 44.5q0 32 13 44t50 12q38 0 50 -11.5t12 -44.5zM75 0v498h103v-498q-34 -14 -53.5 -39.5t-19.5 -50.5q0 -31 33 -31q21 0 45 13l15 -47q-38 -25 -88 -25q-90 0 -90 71q0 51 55 109z" />
    <glyph glyph-name="Idotaccent" unicode="&#x130;" horiz-adv-x="274" 
d="M191 0h-108v675h108v-675zM195 782q0 -29 -12 -39t-46 -10q-36 0 -47.5 10t-11.5 39t12 39t47 10q36 0 47 -9.5t11 -39.5z" />
    <glyph glyph-name="dotlessi" unicode="&#x131;" horiz-adv-x="253" 
d="M178 0h-103v498h103v-498z" />
    <glyph glyph-name="IJ" unicode="&#x132;" horiz-adv-x="555" 
d="M191 0h-108v675h108v-675zM471 675v-605q0 -83 -24.5 -141.5t-85.5 -103.5l-53 45q33 39 44 85.5t11 120.5v599h108z" />
    <glyph glyph-name="ij" unicode="&#x133;" horiz-adv-x="506" 
d="M189 636q0 -33 -12 -44.5t-50 -11.5t-50.5 11.5t-12.5 44.5t12.5 44.5t50.5 11.5t50 -11.5t12 -44.5zM178 0h-103v498h103v-498zM431 498v-456q0 -73 -24 -124.5t-79 -97.5l-65 32q65 75 65 167v479h103zM442 636q0 -33 -12 -44.5t-50 -11.5t-50.5 11.5t-12.5 44.5
t12.5 44.5t50.5 11.5t50 -11.5t12 -44.5z" />
    <glyph glyph-name="Jcircumflex" unicode="&#x134;" horiz-adv-x="280" 
d="M197 675v-605q0 -83 -24.5 -141.5t-85.5 -103.5l-53 45q33 39 44 85.5t11 120.5v599h108zM144 856l148 -88l-28 -45l-121 57l-120 -57l-28 44z" />
    <glyph glyph-name="jcircumflex" unicode="&#x135;" horiz-adv-x="253" 
d="M178 498v-456q0 -73 -24 -124.5t-79 -97.5l-65 32q65 75 65 167v479h103zM269 602l-34 -42l-109 77l-108 -77l-33 41l144 125z" />
    <glyph glyph-name="Kcommaaccent" unicode="&#x136;" horiz-adv-x="534" 
d="M515 0h-125l-197 323h-2v-323h-108v675h108v-294h2l188 294h118l-210 -305zM282 -36q46 0 46 -44q0 -80 -121 -99l-15 35q53 20 53 43q0 4 -4.5 11t-4.5 18q0 16 12 26t34 10z" />
    <glyph glyph-name="kcommaaccent" unicode="&#x137;" horiz-adv-x="473" 
d="M460 0h-122l-157 253h-3v-253h-103v709h103v-415h3l139 204h121l-166 -213zM251 -36q46 0 46 -44q0 -80 -121 -99l-15 35q53 20 53 43q0 4 -4.5 11t-4.5 18q0 16 12 26t34 10z" />
    <glyph glyph-name="kgreenlandic" unicode="&#x138;" horiz-adv-x="473" 
d="M460 0h-122l-157 243h-3v-243h-103v498h103v-214h3l139 214h121l-166 -223z" />
    <glyph glyph-name="Lacute" unicode="&#x139;" horiz-adv-x="421" 
d="M404 0h-321v675h108v-590h213v-85zM114 770l174 86l48 -67l-190 -66z" />
    <glyph glyph-name="lacute" unicode="&#x13a;" horiz-adv-x="271" 
d="M241 66l5 -62q-33 -11 -80 -11q-49 0 -70 20.5t-21 78.5v617h103v-577q0 -43 7 -55t29 -12q5 0 14.5 0.5t12.5 0.5zM94 781l174 86l48 -67l-190 -66z" />
    <glyph glyph-name="Lcommaaccent" unicode="&#x13b;" horiz-adv-x="421" 
d="M404 0h-321v675h108v-590h213v-85zM240 -36q46 0 46 -44q0 -80 -121 -99l-15 35q53 20 53 43q0 4 -4.5 11t-4.5 18q0 16 12 26t34 10z" />
    <glyph glyph-name="lcommaaccent" unicode="&#x13c;" horiz-adv-x="271" 
d="M241 66l5 -62q-33 -11 -80 -11q-49 0 -70 20.5t-21 78.5v617h103v-577q0 -43 7 -55t29 -12q5 0 14.5 0.5t12.5 0.5zM174 -36q46 0 46 -44q0 -80 -121 -99l-15 35q53 20 53 43q0 4 -4.5 11t-4.5 18q0 16 12 26t34 10z" />
    <glyph glyph-name="Lcaron" unicode="&#x13d;" horiz-adv-x="421" 
d="M404 0h-321v675h108v-590h213v-85zM378 738l-58 -178l-54 10l34 184z" />
    <glyph glyph-name="lcaron" unicode="&#x13e;" horiz-adv-x="310" 
d="M241 66l5 -62q-33 -11 -80 -11q-49 0 -70 20.5t-21 78.5v617h103v-577q0 -43 7 -55t29 -12q5 0 14.5 0.5t12.5 0.5zM328 738l-58 -178l-54 10l34 184z" />
    <glyph glyph-name="Ldot" unicode="&#x13f;" horiz-adv-x="523" 
d="M404 0h-321v675h108v-590h213v-85zM485 338q0 -37 -12 -49.5t-50 -12.5t-50 12.5t-12 48.5q0 38 12 50.5t51 12.5q37 0 49 -12.5t12 -49.5z" />
    <glyph glyph-name="ldot" unicode="&#x140;" horiz-adv-x="481" 
d="M241 66l5 -62q-33 -11 -80 -11q-49 0 -70 20.5t-21 78.5v617h103v-577q0 -43 7 -55t29 -12q5 0 14.5 0.5t12.5 0.5zM429 298q0 -37 -12 -49.5t-50 -12.5t-50 12.5t-12 48.5q0 38 12 50.5t51 12.5q37 0 49 -12.5t12 -49.5z" />
    <glyph glyph-name="Lslash" unicode="&#x141;" horiz-adv-x="429" 
d="M199 462l112 61v-78l-112 -60v-300h213v-85h-321v330l-69 -38v78l69 37v268h108v-213z" />
    <glyph glyph-name="lslash" unicode="&#x142;" horiz-adv-x="280" 
d="M249 66l5 -62q-33 -11 -80 -11q-49 0 -70 20.5t-21 78.5v226l-67 -37v78l67 37v313h103v-258l67 37v-77l-67 -37v-242q0 -43 7 -55t29 -12q5 0 14.5 0.5t12.5 0.5z" />
    <glyph glyph-name="Nacute" unicode="&#x143;" horiz-adv-x="651" 
d="M568 0h-111l-210 388l-77 152h-1q5 -97 5 -160v-380h-91v675h132l186 -343l80 -155h1q-5 101 -5 163v335h91v-675zM286 770l174 86l48 -67l-190 -66z" />
    <glyph glyph-name="nacute" unicode="&#x144;" horiz-adv-x="543" 
d="M468 0h-102q0 51 1 143.5t1 120.5q0 89 -19.5 125t-59.5 36q-49 0 -111 -50v-375h-103v498h85l8 -56q78 66 152 66q75 0 113.5 -52.5t38.5 -170.5q0 -28 -2 -128t-2 -157zM426 679l-152 -121l-52 30l129 134z" />
    <glyph glyph-name="Ncommaaccent" unicode="&#x145;" horiz-adv-x="651" 
d="M568 0h-111l-210 388l-77 152h-1q5 -97 5 -160v-380h-91v675h132l186 -343l80 -155h1q-5 101 -5 163v335h91v-675zM317 -36q46 0 46 -44q0 -80 -121 -99l-15 35q53 20 53 43q0 4 -4.5 11t-4.5 18q0 16 12 26t34 10z" />
    <glyph glyph-name="ncommaaccent" unicode="&#x146;" horiz-adv-x="543" 
d="M468 0h-102q0 51 1 143.5t1 120.5q0 89 -19.5 125t-59.5 36q-49 0 -111 -50v-375h-103v498h85l8 -56q78 66 152 66q75 0 113.5 -52.5t38.5 -170.5q0 -28 -2 -128t-2 -157zM269 -36q46 0 46 -44q0 -80 -121 -99l-15 35q53 20 53 43q0 4 -4.5 11t-4.5 18q0 16 12 26t34 10z
" />
    <glyph glyph-name="Ncaron" unicode="&#x147;" horiz-adv-x="651" 
d="M568 0h-111l-210 388l-77 152h-1q5 -97 5 -160v-380h-91v675h132l186 -343l80 -155h1q-5 101 -5 163v335h91v-675zM340 723l-148 88l28 45l122 -57l120 57l27 -44z" />
    <glyph glyph-name="ncaron" unicode="&#x148;" horiz-adv-x="543" 
d="M468 0h-102q0 51 1 143.5t1 120.5q0 89 -19.5 125t-59.5 36q-49 0 -111 -50v-375h-103v498h85l8 -56q78 66 152 66q75 0 113.5 -52.5t38.5 -170.5q0 -28 -2 -128t-2 -157zM416 684l-144 -125l-140 124l34 42l109 -77l108 77z" />
    <glyph glyph-name="napostrophe" unicode="&#x149;" horiz-adv-x="601" 
d="M52 514l-34 36q64 47 64 85q0 11 -12.5 24.5t-12.5 35.5q0 34 10.5 45.5t45.5 11.5q31 0 41 -12t10 -44q0 -59 -26.5 -101t-85.5 -81zM526 0h-102q0 51 1 143.5t1 120.5q0 89 -19.5 125t-59.5 36q-49 0 -111 -50v-375h-103v498h85l8 -56q78 66 152 66q75 0 113.5 -52.5
t38.5 -170.5q0 -28 -2 -128t-2 -157z" />
    <glyph glyph-name="Eng" unicode="&#x14a;" horiz-adv-x="651" 
d="M568 675v-637q0 -73 -25 -125.5t-85 -92.5l-49 46q53 49 53 134h-10l-207 388l-75 152h-1q5 -81 5 -160v-380h-91v675h133l186 -349q18 -32 37.5 -71.5t30.5 -62.5l11 -24h1q-5 90 -5 166v341h91z" />
    <glyph glyph-name="eng" unicode="&#x14b;" horiz-adv-x="543" 
d="M367 -180l-65 32q65 75 65 167l1 245q0 89 -19.5 125t-59.5 36q-49 0 -111 -50v-375h-103v498h85l8 -56q78 66 152 66q75 0 113 -52.5t38 -170.5l-1 -243q0 -73 -23.5 -124.5t-79.5 -97.5z" />
    <glyph glyph-name="Omacron" unicode="&#x14c;" horiz-adv-x="639" 
d="M591 350q0 -183 -74.5 -271.5t-204.5 -88.5t-197 80t-67 255q0 183 74 271.5t205 88.5q130 0 197 -80t67 -255zM477 330q0 145 -39.5 208.5t-120.5 63.5q-155 0 -155 -257q0 -145 39.5 -208t120.5 -63q155 0 155 256zM458 747h-278v69h278v-69z" />
    <glyph glyph-name="omacron" unicode="&#x14d;" horiz-adv-x="530" 
d="M485 258q0 -134 -61 -201t-169 -67q-211 0 -211 250q0 134 61 201t170 67q210 0 210 -250zM379 237q0 107 -28 150.5t-87 43.5q-113 0 -113 -170q0 -107 27.5 -150.5t86.5 -43.5q53 0 83.5 41.5t30.5 128.5zM399 596h-270v73h270v-73z" />
    <glyph glyph-name="Obreve" unicode="&#x14e;" horiz-adv-x="639" 
d="M591 350q0 -183 -74.5 -271.5t-204.5 -88.5t-197 80t-67 255q0 183 74 271.5t205 88.5q130 0 197 -80t67 -255zM477 330q0 145 -39.5 208.5t-120.5 63.5q-155 0 -155 -257q0 -145 39.5 -208t120.5 -63q155 0 155 256zM396 858h63q0 -61 -37 -100t-102 -39
q-66 0 -102.5 37.5t-36.5 101.5h64q0 -30 19 -50t56 -20t56.5 20.5t19.5 49.5z" />
    <glyph glyph-name="obreve" unicode="&#x14f;" horiz-adv-x="530" 
d="M485 258q0 -134 -61 -201t-169 -67q-211 0 -211 250q0 134 61 201t170 67q210 0 210 -250zM379 237q0 107 -28 150.5t-87 43.5q-113 0 -113 -170q0 -107 27.5 -150.5t86.5 -43.5q53 0 83.5 41.5t30.5 128.5zM340 718h65q0 -74 -37 -114t-104 -40q-68 0 -104 39.5
t-36 114.5h65q-1 -80 75 -80t76 80z" />
    <glyph glyph-name="Ohungarumlaut" unicode="&#x150;" horiz-adv-x="639" 
d="M591 350q0 -183 -74.5 -271.5t-204.5 -88.5t-197 80t-67 255q0 183 74 271.5t205 88.5q130 0 197 -80t67 -255zM477 330q0 145 -39.5 208.5t-120.5 63.5q-155 0 -155 -257q0 -145 39.5 -208t120.5 -63q155 0 155 256zM608 809l-185 -91l-40 34l165 107zM394 819
l-166 -102l-44 29l147 119z" />
    <glyph glyph-name="ohungarumlaut" unicode="&#x151;" horiz-adv-x="530" 
d="M485 258q0 -134 -61 -201t-169 -67q-211 0 -211 250q0 134 61 201t170 67q210 0 210 -250zM379 237q0 107 -28 150.5t-87 43.5q-113 0 -113 -170q0 -107 27.5 -150.5t86.5 -43.5q53 0 83.5 41.5t30.5 128.5zM509 674l-149 -116l-51 30l127 131zM316 681l-139 -126l-51 30
l117 139z" />
    <glyph glyph-name="OE" unicode="&#x152;" horiz-adv-x="775" 
d="M723 0h-317q-50 -10 -94 -10q-129 0 -196.5 79.5t-67.5 256.5q0 182 74 270.5t205 88.5q49 0 90 -10h302v-84h-226v-201h187v-81h-187v-224h230v-85zM385 83v505q-30 14 -68 14q-155 0 -155 -256q0 -146 39.5 -209t120.5 -63q36 0 63 9z" />
    <glyph glyph-name="oe" unicode="&#x153;" horiz-adv-x="831" 
d="M761 100l17 -61q-98 -49 -193 -49q-114 0 -161 88q-48 -88 -168 -88q-212 0 -212 250q0 134 60.5 201t168.5 67q116 0 164 -90q49 90 154 90q204 0 188 -276h-297v-9q0 -153 125 -153q71 0 154 30zM483 298h196v3q0 136 -93 136q-48 0 -74 -38t-29 -101zM379 237
q0 106 -28 150t-87 44q-113 0 -113 -169q0 -107 28 -151t88 -44q112 0 112 170z" />
    <glyph glyph-name="Racute" unicode="&#x154;" horiz-adv-x="554" 
d="M540 0h-124l-172 286h-53v-286h-108v675q114 2 191 2q117 0 174.5 -49.5t57.5 -133.5q0 -150 -158 -187zM191 596v-229h70q64 0 98 30t34 86q0 113 -135 113h-67zM206 770l174 86l48 -67l-190 -66z" />
    <glyph glyph-name="racute" unicode="&#x155;" horiz-adv-x="357" 
d="M337 496l-12 -92q-27 7 -42 7q-22 0 -45 -18.5t-60 -64.5v-328h-103v498h85l9 -84q40 51 68.5 72t55.5 21q22 0 44 -11zM352 679l-152 -121l-52 30l129 134z" />
    <glyph glyph-name="Rcommaaccent" unicode="&#x156;" horiz-adv-x="554" 
d="M540 0h-124l-172 286h-53v-286h-108v675q114 2 191 2q117 0 174.5 -49.5t57.5 -133.5q0 -150 -158 -187zM191 596v-229h70q64 0 98 30t34 86q0 113 -135 113h-67zM285 -36q46 0 46 -44q0 -80 -121 -99l-15 35q53 20 53 43q0 4 -4.5 11t-4.5 18q0 16 12 26t34 10z" />
    <glyph glyph-name="rcommaaccent" unicode="&#x157;" horiz-adv-x="357" 
d="M337 496l-12 -92q-27 7 -42 7q-22 0 -45 -18.5t-60 -64.5v-328h-103v498h85l9 -84q40 51 68.5 72t55.5 21q22 0 44 -11zM129 -36q46 0 46 -44q0 -80 -121 -99l-15 35q53 20 53 43q0 4 -4.5 11t-4.5 18q0 16 12 26t34 10z" />
    <glyph glyph-name="Rcaron" unicode="&#x158;" horiz-adv-x="554" 
d="M540 0h-124l-172 286h-53v-286h-108v675q114 2 191 2q117 0 174.5 -49.5t57.5 -133.5q0 -150 -158 -187zM191 596v-229h70q64 0 98 30t34 86q0 113 -135 113h-67zM269 723l-148 88l28 45l122 -57l120 57l27 -44z" />
    <glyph glyph-name="rcaron" unicode="&#x159;" horiz-adv-x="357" 
d="M337 496l-12 -92q-27 7 -42 7q-22 0 -45 -18.5t-60 -64.5v-328h-103v498h85l9 -84q40 51 68.5 72t55.5 21q22 0 44 -11zM348 684l-144 -125l-140 124l34 42l109 -77l108 77z" />
    <glyph glyph-name="Sacute" unicode="&#x15a;" horiz-adv-x="496" 
d="M464 187q0 -86 -61.5 -141t-166.5 -55q-102 0 -195 60l27 58q88 -37 150 -37q58 0 92 26.5t34 75.5q0 40 -30.5 69.5t-74 49.5t-87 43t-74 64.5t-30.5 100.5q0 82 57.5 132.5t148.5 50.5q94 0 171 -50l-26 -58q-66 28 -126 28q-55 0 -83.5 -25t-28.5 -64
q0 -30 16.5 -53.5t43.5 -40t59 -31.5t64.5 -32.5t59.5 -39t43.5 -55t16.5 -76.5zM203 770l174 86l48 -67l-190 -66z" />
    <glyph glyph-name="sacute" unicode="&#x15b;" horiz-adv-x="408" 
d="M35 29l10 55q75 -19 123 -19t72.5 19.5t24.5 49.5q0 28 -23.5 46.5t-57 31t-67 27.5t-57 47t-23.5 79q0 63 47.5 102.5t124.5 39.5q67 0 128 -32l-12 -55q-52 15 -96 15q-41 0 -63 -17.5t-22 -44.5q0 -28 23.5 -46.5t57.5 -31t68 -27.5t57.5 -47t23.5 -79q0 -67 -51 -109
t-138 -42q-76 0 -150 38zM354 679l-152 -121l-52 30l129 134z" />
    <glyph glyph-name="Scircumflex" unicode="&#x15c;" horiz-adv-x="496" 
d="M464 187q0 -86 -61.5 -141t-166.5 -55q-102 0 -195 60l27 58q88 -37 150 -37q58 0 92 26.5t34 75.5q0 40 -30.5 69.5t-74 49.5t-87 43t-74 64.5t-30.5 100.5q0 82 57.5 132.5t148.5 50.5q94 0 171 -50l-26 -58q-66 28 -126 28q-55 0 -83.5 -25t-28.5 -64
q0 -30 16.5 -53.5t43.5 -40t59 -31.5t64.5 -32.5t59.5 -39t43.5 -55t16.5 -76.5zM258 856l148 -88l-28 -45l-121 57l-120 -57l-28 44z" />
    <glyph glyph-name="scircumflex" unicode="&#x15d;" horiz-adv-x="408" 
d="M35 29l10 55q75 -19 123 -19t72.5 19.5t24.5 49.5q0 28 -23.5 46.5t-57 31t-67 27.5t-57 47t-23.5 79q0 63 47.5 102.5t124.5 39.5q67 0 128 -32l-12 -55q-52 15 -96 15q-41 0 -63 -17.5t-22 -44.5q0 -28 23.5 -46.5t57.5 -31t68 -27.5t57.5 -47t23.5 -79q0 -67 -51 -109
t-138 -42q-76 0 -150 38zM346 602l-34 -42l-109 77l-108 -77l-33 41l144 125z" />
    <glyph glyph-name="Scedilla" unicode="&#x15e;" horiz-adv-x="496" 
d="M464 187q0 -86 -61.5 -141t-166.5 -55q-102 0 -195 60l27 58q88 -37 150 -37q58 0 92 26.5t34 75.5q0 40 -30.5 69.5t-74 49.5t-87 43t-74 64.5t-30.5 100.5q0 82 57.5 132.5t148.5 50.5q94 0 171 -50l-26 -58q-66 28 -126 28q-55 0 -83.5 -25t-28.5 -64
q0 -30 16.5 -53.5t43.5 -40t59 -31.5t64.5 -32.5t59.5 -39t43.5 -55t16.5 -76.5zM196 -43h89q11 -82 -77 -138l-59 27q32 28 42 51.5t5 59.5z" />
    <glyph glyph-name="scedilla" unicode="&#x15f;" horiz-adv-x="408" 
d="M35 29l10 55q75 -19 123 -19t72.5 19.5t24.5 49.5q0 28 -23.5 46.5t-57 31t-67 27.5t-57 47t-23.5 79q0 63 47.5 102.5t124.5 39.5q67 0 128 -32l-12 -55q-52 15 -96 15q-41 0 -63 -17.5t-22 -44.5q0 -28 23.5 -46.5t57.5 -31t68 -27.5t57.5 -47t23.5 -79q0 -67 -51 -109
t-138 -42q-76 0 -150 38zM147 -43h89q11 -82 -77 -138l-59 27q32 28 42 51.5t5 59.5z" />
    <glyph glyph-name="Scaron" unicode="&#x160;" horiz-adv-x="496" 
d="M464 187q0 -86 -61.5 -141t-166.5 -55q-102 0 -195 60l27 58q88 -37 150 -37q58 0 92 26.5t34 75.5q0 40 -30.5 69.5t-74 49.5t-87 43t-74 64.5t-30.5 100.5q0 82 57.5 132.5t148.5 50.5q94 0 171 -50l-26 -58q-66 28 -126 28q-55 0 -83.5 -25t-28.5 -64
q0 -30 16.5 -53.5t43.5 -40t59 -31.5t64.5 -32.5t59.5 -39t43.5 -55t16.5 -76.5zM248 723l-148 88l28 45l122 -57l120 57l27 -44z" />
    <glyph glyph-name="scaron" unicode="&#x161;" horiz-adv-x="408" 
d="M35 29l10 55q75 -19 123 -19t72.5 19.5t24.5 49.5q0 28 -23.5 46.5t-57 31t-67 27.5t-57 47t-23.5 79q0 63 47.5 102.5t124.5 39.5q67 0 128 -32l-12 -55q-52 15 -96 15q-41 0 -63 -17.5t-22 -44.5q0 -28 23.5 -46.5t57.5 -31t68 -27.5t57.5 -47t23.5 -79q0 -67 -51 -109
t-138 -42q-76 0 -150 38zM346 684l-144 -125l-140 124l34 42l109 -77l108 77z" />
    <glyph glyph-name="uni0162" unicode="&#x162;" horiz-adv-x="466" 
d="M451 590h-164v-590h-108v590h-164v85h436v-85zM234 -36q46 0 46 -44q0 -80 -121 -99l-15 35q53 20 53 43q0 4 -4.5 11t-4.5 18q0 16 12 26t34 10z" />
    <glyph glyph-name="uni0163" unicode="&#x163;" horiz-adv-x="347" 
d="M314 83l11 -61q-62 -31 -119 -31q-66 0 -93.5 30t-27.5 102v302h-71v73h74q14 63 26 144h74v-144h123v-73h-123v-277q0 -45 11.5 -62t41.5 -17t73 14zM205 -36q46 0 46 -44q0 -80 -121 -99l-15 35q53 20 53 43q0 4 -4.5 11t-4.5 18q0 16 12 26t34 10z" />
    <glyph glyph-name="Tcaron" unicode="&#x164;" horiz-adv-x="466" 
d="M451 590h-164v-590h-108v590h-164v85h436v-85zM233 723l-148 88l28 45l122 -57l120 57l27 -44z" />
    <glyph glyph-name="tcaron" unicode="&#x165;" horiz-adv-x="372" 
d="M314 83l11 -61q-62 -31 -119 -31q-66 0 -93.5 30t-27.5 102v302h-71v73h74q14 63 26 144h74v-144h123v-73h-123v-277q0 -45 11.5 -62t41.5 -17t73 14zM353 738l-58 -178l-54 10l34 184z" />
    <glyph glyph-name="Tbar" unicode="&#x166;" horiz-adv-x="466" 
d="M451 590h-164v-226h108v-75h-108v-289h-108v289h-108v75h108v226h-164v85h436v-85z" />
    <glyph glyph-name="tbar" unicode="&#x167;" horiz-adv-x="347" 
d="M314 83l11 -61q-62 -31 -119 -31q-66 0 -93.5 30t-27.5 102v102h-57v72h57v128h-71v73h74q14 63 26 144h74v-144h123v-73h-123v-128h110v-72h-110v-77q0 -45 11.5 -62t41.5 -17t73 14z" />
    <glyph glyph-name="Utilde" unicode="&#x168;" horiz-adv-x="652" 
d="M570 675v-429q0 -131 -67.5 -193.5t-187.5 -62.5q-118 0 -175.5 57.5t-57.5 184.5v443h108v-430q0 -95 32 -134.5t105 -39.5q68 0 102.5 38t34.5 129v437h106zM453 844l44 -30q-25 -46 -51 -66t-64 -20q-36 0 -72 26t-50 26q-15 0 -27 -10t-34 -40l-44 30q26 45 52 65.5
t64 20.5q36 0 72 -26t50 -26q15 0 26.5 10t33.5 40z" />
    <glyph glyph-name="utilde" unicode="&#x169;" horiz-adv-x="543" 
d="M468 0h-85l-8 56q-78 -66 -152 -66t-113 53t-39 171q0 27 2 127t2 157h102q0 -51 -1.5 -143t-1.5 -121q0 -88 19.5 -124.5t60.5 -36.5q45 0 111 50v375h103v-498zM397 692l42 -31q-25 -46 -50 -66t-63 -20q-27 0 -49.5 13t-39.5 26t-30 13q-15 0 -27 -10t-33 -40l-43 31
q25 45 50.5 65t62.5 20q27 0 50 -13t40 -26t30 -13q14 0 26 10.5t34 40.5z" />
    <glyph glyph-name="Umacron" unicode="&#x16a;" horiz-adv-x="652" 
d="M570 675v-429q0 -131 -67.5 -193.5t-187.5 -62.5q-118 0 -175.5 57.5t-57.5 184.5v443h108v-430q0 -95 32 -134.5t105 -39.5q68 0 102.5 38t34.5 129v437h106zM465 747h-278v69h278v-69z" />
    <glyph glyph-name="umacron" unicode="&#x16b;" horiz-adv-x="543" 
d="M468 0h-85l-8 56q-78 -66 -152 -66t-113 53t-39 171q0 27 2 127t2 157h102q0 -51 -1.5 -143t-1.5 -121q0 -88 19.5 -124.5t60.5 -36.5q45 0 111 50v375h103v-498zM407 596h-270v73h270v-73z" />
    <glyph glyph-name="Ubreve" unicode="&#x16c;" horiz-adv-x="652" 
d="M570 675v-429q0 -131 -67.5 -193.5t-187.5 -62.5q-118 0 -175.5 57.5t-57.5 184.5v443h108v-430q0 -95 32 -134.5t105 -39.5q68 0 102.5 38t34.5 129v437h106zM402 858h63q0 -61 -37 -100t-102 -39q-66 0 -102.5 37.5t-36.5 101.5h64q0 -30 19 -50t56 -20t56.5 20.5
t19.5 49.5z" />
    <glyph glyph-name="ubreve" unicode="&#x16d;" horiz-adv-x="543" 
d="M468 0h-85l-8 56q-78 -66 -152 -66t-113 53t-39 171q0 27 2 127t2 157h102q0 -51 -1.5 -143t-1.5 -121q0 -88 19.5 -124.5t60.5 -36.5q45 0 111 50v375h103v-498zM346 718h65q0 -74 -37 -114t-104 -40q-68 0 -104 39.5t-36 114.5h65q-1 -80 75 -80t76 80z" />
    <glyph glyph-name="Uring" unicode="&#x16e;" horiz-adv-x="652" 
d="M570 675v-429q0 -131 -67.5 -193.5t-187.5 -62.5q-118 0 -175.5 57.5t-57.5 184.5v443h108v-430q0 -95 32 -134.5t105 -39.5q68 0 102.5 38t34.5 129v437h106zM434 776q0 -39 -29.5 -61.5t-80.5 -22.5q-105 0 -105 80q0 38 30 61t81 23q104 0 104 -80zM368 773
q0 40 -41 40q-42 0 -42 -40q0 -39 42 -39q41 0 41 39z" />
    <glyph glyph-name="uring" unicode="&#x16f;" horiz-adv-x="543" 
d="M468 0h-85l-8 56q-78 -66 -152 -66t-113 53t-39 171q0 27 2 127t2 157h102q0 -51 -1.5 -143t-1.5 -121q0 -88 19.5 -124.5t60.5 -36.5q45 0 111 50v375h103v-498zM386 642q0 -45 -30.5 -71t-82.5 -26q-109 0 -109 92q0 44 31 70t83 26q108 0 108 -91zM317 639
q0 44 -42 44t-42 -44q0 -43 42 -43t42 43z" />
    <glyph glyph-name="Uhungarumlaut" unicode="&#x170;" horiz-adv-x="652" 
d="M570 675v-429q0 -131 -67.5 -193.5t-187.5 -62.5q-118 0 -175.5 57.5t-57.5 184.5v443h108v-430q0 -95 32 -134.5t105 -39.5q68 0 102.5 38t34.5 129v437h106zM609 809l-185 -91l-40 34l165 107zM395 819l-166 -102l-44 29l147 119z" />
    <glyph glyph-name="uhungarumlaut" unicode="&#x171;" horiz-adv-x="543" 
d="M468 0h-85l-8 56q-78 -66 -152 -66t-113 53t-39 171q0 27 2 127t2 157h102q0 -51 -1.5 -143t-1.5 -121q0 -88 19.5 -124.5t60.5 -36.5q45 0 111 50v375h103v-498zM516 674l-149 -116l-51 30l127 131zM323 681l-139 -126l-51 30l117 139z" />
    <glyph glyph-name="Uogonek" unicode="&#x172;" horiz-adv-x="652" 
d="M474 -108l15 -47q-37 -25 -88 -25q-90 0 -90 71q0 55 56 106q-24 -7 -52 -7q-120 0 -176.5 57.5t-56.5 184.5v443h108v-430q0 -95 32 -134.5t105 -39.5q68 0 102.5 38t34.5 129v437h106v-429q0 -126 -62 -188l-27 -27l-25 -25t-20 -21t-17.5 -20.5t-11.5 -17.5t-8.5 -19
t-2.5 -18q0 -31 33 -31q21 0 45 13z" />
    <glyph glyph-name="uogonek" unicode="&#x173;" horiz-adv-x="543" 
d="M468 498v-498q-64 -48 -64 -90q0 -31 33 -31q19 0 45 13l15 -47q-39 -25 -89 -25q-89 0 -89 71q0 60 64 113l-8 52q-78 -66 -152 -66q-152 0 -152 224q0 27 2 127t2 157h102q0 -51 -1.5 -143t-1.5 -121q0 -88 19.5 -124.5t60.5 -36.5q45 0 111 50v375h103z" />
    <glyph glyph-name="Wcircumflex" unicode="&#x174;" horiz-adv-x="856" 
d="M734 675h103q-77 -368 -171 -675h-118l-101 402l-21 101h-2l-20 -102l-93 -401h-120q-97 314 -172 675h116q23 -119 125 -539h2l14 79l108 460h103l112 -454l18 -85h2q73 307 115 539zM436 856l148 -88l-28 -45l-121 57l-120 -57l-28 44z" />
    <glyph glyph-name="wcircumflex" unicode="&#x175;" horiz-adv-x="744" 
d="M618 498h102q-37 -237 -136 -498h-117l-85 308l-14 70h-1l-13 -70l-74 -308h-121l-139 498h111l77 -296l21 -94h1l16 83l71 307h115l86 -315l16 -75h1q63 220 83 390zM518 602l-34 -42l-109 77l-108 -77l-33 41l144 125z" />
    <glyph glyph-name="Ycircumflex" unicode="&#x176;" horiz-adv-x="486" 
d="M379 675h110q-96 -239 -192 -387v-288h-108v288q-103 165 -192 387h120q71 -178 133 -289h2q62 107 127 289zM247 856l148 -88l-28 -45l-121 57l-120 -57l-28 44z" />
    <glyph glyph-name="ycircumflex" unicode="&#x177;" horiz-adv-x="471" 
d="M341 498h108q-125 -676 -375 -676q-31 0 -68 17v61q17 -3 45 -3q49 0 80 27q36 33 36 75q0 38 -37 149l-115 350h111l85 -270q28 -89 28 -155h2q30 77 58.5 197.5t41.5 227.5zM382 602l-34 -42l-109 77l-108 -77l-33 41l144 125z" />
    <glyph glyph-name="Ydieresis" unicode="&#x178;" horiz-adv-x="486" 
d="M379 675h110q-96 -239 -192 -387v-288h-108v288q-103 165 -192 387h120q71 -178 133 -289h2q62 107 127 289zM401 780q0 -27 -11 -37.5t-41 -10.5q-31 0 -42 10t-11 38q0 27 11 37.5t42 10.5q30 0 41 -10t11 -38zM199 780q0 -27 -11 -37.5t-41 -10.5t-41.5 10t-11.5 38
q0 27 11.5 37.5t41.5 10.5q31 0 41.5 -10t10.5 -38z" />
    <glyph glyph-name="Zacute" unicode="&#x179;" horiz-adv-x="488" 
d="M452 0h-416v74l275 515h-262l2 86h390v-72l-276 -516h290zM195 770l174 86l48 -67l-190 -66z" />
    <glyph glyph-name="zacute" unicode="&#x17a;" horiz-adv-x="400" 
d="M363 79l-3 -79h-324v65l196 356h-187l3 77h302v-64l-196 -355h209zM362 679l-152 -121l-52 30l129 134z" />
    <glyph glyph-name="Zdotaccent" unicode="&#x17b;" horiz-adv-x="488" 
d="M452 0h-416v74l275 515h-262l2 86h390v-72l-276 -516h290zM305 782q0 -29 -12 -39t-46 -10q-36 0 -47.5 10t-11.5 39t12 39t47 10q36 0 47 -9.5t11 -39.5z" />
    <glyph glyph-name="zdotaccent" unicode="&#x17c;" horiz-adv-x="400" 
d="M363 79l-3 -79h-324v65l196 356h-187l3 77h302v-64l-196 -355h209zM265 638q0 -32 -12.5 -43t-49.5 -11q-39 0 -51.5 11t-12.5 43q0 31 13 42.5t51 11.5t50 -11t12 -43z" />
    <glyph glyph-name="Zcaron" unicode="&#x17d;" horiz-adv-x="488" 
d="M452 0h-416v74l275 515h-262l2 86h390v-72l-276 -516h290zM247 723l-148 88l28 45l122 -57l120 57l27 -44z" />
    <glyph glyph-name="zcaron" unicode="&#x17e;" horiz-adv-x="400" 
d="M363 79l-3 -79h-324v65l196 356h-187l3 77h302v-64l-196 -355h209zM344 684l-144 -125l-140 124l34 42l109 -77l108 77z" />
    <glyph glyph-name="longs" unicode="&#x17f;" horiz-adv-x="265" 
d="M306 692l-15 -61q-33 12 -57 12q-56 0 -56 -73v-570h-103v567q0 152 125 152q56 0 106 -27z" />
    <glyph glyph-name="florin" unicode="&#x192;" 
d="M474 651l-17 -58q-38 15 -69 15q-36 0 -53 -19t-22 -62l-17 -150h145v-70h-150l-29 -264q-13 -154 -150 -154q-59 0 -114 32l17 57q36 -15 69 -15q36 0 53 19t22 62l29 263h-132v70h137l17 151q15 154 150 154q61 0 114 -31z" />
    <glyph glyph-name="Gcaron" unicode="&#x1e6;" horiz-adv-x="574" 
d="M502 377v-309q-89 -78 -209 -78q-119 0 -182 83.5t-63 253.5q0 171 74 264.5t191 93.5q108 0 183 -92l-47 -46q-68 52 -130 52q-74 0 -116 -65t-42 -188q0 -269 145 -269q55 0 90 29v191h-89v80h195zM306 723l-148 88l28 45l122 -57l120 57l27 -44z" />
    <glyph glyph-name="gcaron" unicode="&#x1e7;" horiz-adv-x="526" 
d="M451 489v-472q0 -111 -53 -154t-149 -43q-78 0 -166 35l9 58q88 -15 147 -15q58 0 83.5 22t25.5 77v66q-69 -53 -134 -53q-78 0 -124 66t-46 165q0 133 69.5 200t179.5 67q65 0 158 -19zM348 137v284q-32 12 -72 12q-56 0 -91 -46t-35 -128q0 -81 25 -126.5t71 -45.5
q45 0 102 50zM405 684l-144 -125l-140 124l34 42l109 -77l108 77z" />
    <glyph glyph-name="Aringacute" unicode="&#x1fa;" horiz-adv-x="548" 
d="M534 0h-116l-33 141h-236l-31 -141h-105q89 375 190 675h138q111 -331 193 -675zM166 222h202q-49 180 -103 354h-2q-59 -200 -97 -354zM372 748q0 -26 -27.5 -42.5t-74.5 -16.5q-97 0 -97 54q0 25 28 42t74 17q97 0 97 -54zM309 746q0 25 -36 25q-37 0 -37 -27
q0 -24 37 -24q36 0 36 26zM210 845l150 40l23 -41l-160 -28z" />
    <glyph glyph-name="aringacute" unicode="&#x1fb;" horiz-adv-x="501" 
d="M427 0h-80l-8 54q-74 -64 -154 -64q-67 0 -108.5 38.5t-41.5 103.5q0 166 253 166h37v45q0 45 -24.5 67t-78.5 22q-67 0 -146 -29l-15 63q93 41 188 41q90 0 134 -40t44 -111v-356zM325 115v117h-43q-81 0 -113 -23t-32 -67q0 -78 77 -78q54 0 111 51zM351 632
q0 -39 -28.5 -61.5t-77.5 -22.5q-102 0 -102 80q0 38 29 61t78 23q101 0 101 -80zM288 629q0 40 -41 40q-40 0 -40 -40q0 -21 9.5 -30t30.5 -9q41 0 41 39zM203 775l101 110l73 -39l-123 -96z" />
    <glyph glyph-name="AEacute" unicode="&#x1fc;" horiz-adv-x="724" 
d="M672 0h-338v141h-191q-39 -100 -52 -141h-108q139 359 293 675h392v-84h-226v-201h187v-81h-187v-224h230v-85zM334 222v369h-1q-82 -173 -162 -369h163zM408 770l174 86l48 -67l-190 -66z" />
    <glyph glyph-name="aeacute" unicode="&#x1fd;" horiz-adv-x="774" 
d="M704 100l17 -61q-98 -49 -193 -49q-127 0 -172 94q-67 -94 -171 -94q-67 0 -108.5 38.5t-41.5 103.5q0 166 253 166h37v45q0 45 -24.5 67t-78.5 22q-67 0 -146 -29l-15 63q93 41 188 41q109 0 142 -70q52 71 144 71q203 0 187 -276h-297v-9q0 -153 125 -153q72 0 154 30z
M325 232h-43q-81 0 -113 -23t-32 -67q0 -78 77 -78q69 0 111 74v94zM426 298h196v3q0 136 -93 136q-48 0 -74 -38t-29 -101zM549 679l-152 -121l-52 30l129 134z" />
    <glyph glyph-name="Oslashacute" unicode="&#x1fe;" horiz-adv-x="639" 
d="M591 350q0 -183 -74.5 -271.5t-204.5 -88.5q-86 0 -141 37l-61 -103l-58 31l66 111q-70 83 -70 259q0 183 74 271.5t205 88.5q83 0 141 -37l61 103l58 -31l-67 -111q71 -82 71 -259zM483 330q0 113 -27 173l-237 -397q37 -37 104 -37q160 0 160 261zM316 606
q-160 0 -160 -261q0 -108 27 -172l237 397q-39 36 -104 36zM269 778l174 86l48 -67l-190 -66z" />
    <glyph glyph-name="oslashacute" unicode="&#x1ff;" horiz-adv-x="530" 
d="M478 543l-53 -89q60 -62 60 -196t-60 -201t-169 -67q-54 0 -96 20l-51 -86l-58 32l53 88q-60 63 -60 196q0 134 60.5 201t169.5 67q59 0 96 -20l51 86zM366 362l-164 -283q23 -17 64 -17q56 0 88 43t32 132q0 84 -20 125zM163 136l165 283q-26 17 -64 17
q-120 0 -120 -174q0 -82 19 -126zM417 679l-152 -121l-52 30l129 134z" />
    <glyph glyph-name="Scommaaccent" unicode="&#x218;" horiz-adv-x="496" 
d="M464 187q0 -86 -61.5 -141t-166.5 -55q-102 0 -195 60l27 58q88 -37 150 -37q58 0 92 26.5t34 75.5q0 40 -30.5 69.5t-74 49.5t-87 43t-74 64.5t-30.5 100.5q0 82 57.5 132.5t148.5 50.5q94 0 171 -50l-26 -58q-66 28 -126 28q-55 0 -83.5 -25t-28.5 -64
q0 -30 16.5 -53.5t43.5 -40t59 -31.5t64.5 -32.5t59.5 -39t43.5 -55t16.5 -76.5zM249 -36q46 0 46 -44q0 -80 -121 -99l-15 35q53 20 53 43q0 4 -4.5 11t-4.5 18q0 16 12 26t34 10z" />
    <glyph glyph-name="scommaaccent" unicode="&#x219;" horiz-adv-x="408" 
d="M35 29l10 55q75 -19 123 -19t72.5 19.5t24.5 49.5q0 28 -23.5 46.5t-57 31t-67 27.5t-57 47t-23.5 79q0 63 47.5 102.5t124.5 39.5q67 0 128 -32l-12 -55q-52 15 -96 15q-41 0 -63 -17.5t-22 -44.5q0 -28 23.5 -46.5t57.5 -31t68 -27.5t57.5 -47t23.5 -79q0 -67 -51 -109
t-138 -42q-76 0 -150 38zM199 -36q46 0 46 -44q0 -80 -121 -99l-15 35q53 20 53 43q0 4 -4.5 11t-4.5 18q0 16 12 26t34 10z" />
    <glyph glyph-name="Tcommaaccent" unicode="&#x21a;" horiz-adv-x="466" 
d="M451 590h-164v-590h-108v590h-164v85h436v-85zM234 -36q46 0 46 -44q0 -80 -121 -99l-15 35q53 20 53 43q0 4 -4.5 11t-4.5 18q0 16 12 26t34 10z" />
    <glyph glyph-name="tcommaaccent" unicode="&#x21b;" horiz-adv-x="347" 
d="M314 83l11 -61q-62 -31 -119 -31q-66 0 -93.5 30t-27.5 102v302h-71v73h74q14 63 26 144h74v-144h123v-73h-123v-277q0 -45 11.5 -62t41.5 -17t73 14zM205 -36q46 0 46 -44q0 -80 -121 -99l-15 35q53 20 53 43q0 4 -4.5 11t-4.5 18q0 16 12 26t34 10z" />
    <glyph glyph-name="dotlessj" unicode="&#x237;" horiz-adv-x="253" 
d="M178 498v-456q0 -73 -24 -124.5t-79 -97.5l-65 32q65 75 65 167v479h103z" />
    <glyph glyph-name="apostrophe" unicode="&#x2bc;" horiz-adv-x="219" 
d="M52 514l-34 36q64 47 64 85q0 11 -12.5 24.5t-12.5 35.5q0 34 10.5 45.5t45.5 11.5q31 0 41 -12t10 -44q0 -59 -26.5 -101t-85.5 -81z" />
    <glyph glyph-name="circumflex" unicode="&#x2c6;" horiz-adv-x="404" 
d="M344 602l-34 -42l-109 77l-108 -77l-33 41l144 125z" />
    <glyph glyph-name="caron" unicode="&#x2c7;" horiz-adv-x="404" 
d="M344 684l-144 -125l-140 124l34 42l109 -77l108 77z" />
    <glyph glyph-name="breve" unicode="&#x2d8;" horiz-adv-x="401" 
d="M276 718h65q0 -74 -37 -114t-104 -40q-68 0 -104 39.5t-36 114.5h65q-1 -80 75 -80t76 80z" />
    <glyph glyph-name="dotaccent" unicode="&#x2d9;" horiz-adv-x="246" 
d="M186 638q0 -32 -12.5 -43t-49.5 -11q-39 0 -51.5 11t-12.5 43q0 31 13 42.5t51 11.5t50 -11t12 -43z" />
    <glyph glyph-name="ring" unicode="&#x2da;" horiz-adv-x="342" 
d="M282 642q0 -45 -30.5 -71t-82.5 -26q-109 0 -109 92q0 44 31 70t83 26q108 0 108 -91zM213 639q0 44 -42 44t-42 -44q0 -43 42 -43t42 43z" />
    <glyph glyph-name="ogonek" unicode="&#x2db;" horiz-adv-x="299" 
d="M223 -108l16 -47q-39 -25 -89 -25q-90 0 -90 71q0 57 59 109h88q-62 -49 -62 -90q0 -31 33 -31q21 0 45 13z" />
    <glyph glyph-name="tilde" unicode="&#x2dc;" horiz-adv-x="456" 
d="M353 692l42 -31q-25 -46 -50 -66t-63 -20q-27 0 -49.5 13t-39.5 26t-30 13q-15 0 -27 -10t-33 -40l-43 31q25 45 50.5 65t62.5 20q27 0 50 -13t40 -26t30 -13q14 0 26 10.5t34 40.5z" />
    <glyph glyph-name="hungarumlaut" unicode="&#x2dd;" horiz-adv-x="504" 
d="M443 674l-149 -116l-51 30l127 131zM250 681l-139 -126l-51 30l117 139z" />
    <glyph glyph-name="uni0312" unicode="&#x312;" horiz-adv-x="266" 
d="M193 716l13 -37q-31 -8 -47 -22t-16 -28q0 -5 4.5 -12t4.5 -18q0 -36 -46 -36t-46 45q0 93 133 108z" />
    <glyph glyph-name="uni0315" unicode="&#x315;" horiz-adv-x="232" 
d="M172 738l-58 -178l-54 10l34 184z" />
    <glyph glyph-name="uni0326" unicode="&#x326;" horiz-adv-x="256" 
d="M150 -36q46 0 46 -44q0 -80 -121 -99l-15 35q53 20 53 43q0 4 -4.5 11t-4.5 18q0 16 12 26t34 10z" />
    <glyph glyph-name="Delta" unicode="&#x2206;" horiz-adv-x="537" 
d="M513 0h-489v73q71 295 173 602h139q106 -311 177 -602v-73zM128 82h268q-53 236 -136 494h-2q-89 -295 -130 -494z" />
    <glyph glyph-name="Delta" unicode="&#x394;" horiz-adv-x="537" 
d="M513 0h-489v73q71 295 173 602h139q106 -311 177 -602v-73zM128 82h268q-53 236 -136 494h-2q-89 -295 -130 -494z" />
    <glyph glyph-name="Omega" unicode="&#x2126;" horiz-adv-x="652" 
d="M623 0h-242v73q102 61 102 267q0 137 -40 199.5t-119 62.5q-156 0 -156 -247q0 -224 100 -282v-73h-239v73h134q-54 34 -81.5 103.5t-27.5 158.5q0 163 71 256.5t208 93.5q264 0 264 -325q0 -98 -31.5 -173t-87.5 -114h145v-73z" />
    <glyph glyph-name="Omega" unicode="&#x3a9;" horiz-adv-x="652" 
d="M623 0h-242v73q102 61 102 267q0 137 -40 199.5t-119 62.5q-156 0 -156 -247q0 -224 100 -282v-73h-239v73h134q-54 34 -81.5 103.5t-27.5 158.5q0 163 71 256.5t208 93.5q264 0 264 -325q0 -98 -31.5 -173t-87.5 -114h145v-73z" />
    <glyph glyph-name="pi" unicode="&#x3c0;" horiz-adv-x="609" 
d="M573 420h-115q0 -130 1.5 -191.5t8 -102.5t16.5 -49t32 -8q31 0 59 11l11 -61q-58 -28 -108 -28q-84 0 -101.5 66.5t-17.5 362.5h-164q0 -212 -15 -420h-105q21 281 21 420h-82v78h559v-78z" />
    <glyph glyph-name="uni1E02" unicode="&#x1e02;" horiz-adv-x="555" 
d="M83 0v675h201q99 0 149.5 -43.5t50.5 -113.5q0 -56 -27 -94.5t-72 -55.5q60 -10 97.5 -52.5t37.5 -106.5q0 -93 -67.5 -152t-201.5 -59q-29 0 -85.5 1t-82.5 1zM190 598v-207h60q64 0 94 32t30 79q0 44 -26.5 70t-82.5 26h-75zM190 315v-235q34 -4 80 -4q68 0 101.5 33
t33.5 91q0 115 -143 115h-72zM323 782q0 -29 -12 -39t-46 -10q-36 0 -47.5 10t-11.5 39t12 39t47 10q36 0 47 -9.5t11 -39.5z" />
    <glyph glyph-name="uni1E03" unicode="&#x1e03;" horiz-adv-x="526" 
d="M75 8v701h103v-256q69 55 131 55q81 0 127 -67.5t46 -172.5q0 -142 -68.5 -210t-185.5 -68q-65 0 -153 18zM178 378v-302q29 -11 69 -11q58 0 93.5 47.5t35.5 138.5q0 83 -25 130t-70 47q-47 0 -103 -50zM188 816q0 -28 -12 -38t-48 -10q-37 0 -49 9.5t-12 38.5
q0 30 12.5 40t48.5 10q37 0 48.5 -10t11.5 -40z" />
    <glyph glyph-name="uni1E0A" unicode="&#x1e0a;" horiz-adv-x="587" 
d="M83 0v675q31 0 86 0.5t83 0.5q77 0 134 -24.5t89.5 -69.5t48 -101t15.5 -126q0 -173 -77 -265.5t-232 -92.5q-27 0 -77 1.5t-70 1.5zM191 594v-511q38 -2 57 -2q178 0 178 261q0 253 -183 253q-34 0 -52 -1zM330 782q0 -29 -12 -39t-46 -10q-36 0 -47.5 10t-11.5 39
t12 39t47 10q36 0 47 -9.5t11 -39.5z" />
    <glyph glyph-name="uni1E0B" unicode="&#x1e0b;" horiz-adv-x="526" 
d="M451 0h-84l-9 53q-75 -63 -143 -63q-80 0 -125.5 67t-45.5 173q0 142 67 210t174 68q33 0 63 -4v199h103v-703zM348 120v302q-35 11 -71 11q-58 0 -92.5 -47t-34.5 -140q0 -83 25.5 -129.5t69.5 -46.5q45 0 103 50zM460 816q0 -28 -12 -38t-48 -10q-37 0 -49 9.5
t-12 38.5q0 30 12.5 40t48.5 10q37 0 48.5 -10t11.5 -40z" />
    <glyph glyph-name="uni1E1E" unicode="&#x1e1e;" horiz-adv-x="452" 
d="M412 592h-221v-212h201v-82h-201v-298h-108v675h329v-83zM312 782q0 -29 -12 -39t-46 -10q-36 0 -47.5 10t-11.5 39t12 39t47 10q36 0 47 -9.5t11 -39.5z" />
    <glyph glyph-name="uni1E1F" unicode="&#x1e1f;" horiz-adv-x="299" 
d="M331 685l-17 -59q-38 14 -64 14q-32 0 -46.5 -18t-14.5 -55v-69h100v-73h-100v-425h-103v425h-72v73h72v61q0 152 133 152q58 0 112 -26zM264 816q0 -28 -12 -38t-48 -10q-37 0 -49 9.5t-12 38.5q0 30 12.5 40t48.5 10q37 0 48.5 -10t11.5 -40z" />
    <glyph glyph-name="uni1E40" unicode="&#x1e40;" horiz-adv-x="844" 
d="M774 0h-113q-6 305 -32 544h-1l-170 -544h-89l-171 544h-1q-19 -218 -24 -544h-103q10 355 49 675h142l162 -502h1l162 502h136q44 -369 52 -675zM480 782q0 -29 -12 -39t-46 -10q-36 0 -47.5 10t-11.5 39t12 39t47 10q36 0 47 -9.5t11 -39.5z" />
    <glyph glyph-name="uni1E41" unicode="&#x1e41;" horiz-adv-x="818" 
d="M743 0h-103q0 51 1.5 143.5t1.5 120.5q0 89 -17.5 125t-56.5 36q-47 0 -114 -56q6 -36 6 -82v-287h-102v264q0 89 -17.5 125t-55.5 36q-46 0 -108 -50v-375h-103v498h85l8 -56q78 66 150 66q84 0 119 -76q88 76 164 76q145 0 145 -223q0 -28 -1.5 -128t-1.5 -157z
M472 638q0 -32 -12.5 -43t-49.5 -11q-39 0 -51.5 11t-12.5 43q0 31 13 42.5t51 11.5t50 -11t12 -43z" />
    <glyph glyph-name="uni1E56" unicode="&#x1e56;" horiz-adv-x="528" 
d="M191 0h-108v675q25 0 81 0.5t92 0.5q247 0 247 -206q0 -106 -67 -169t-211 -63h-34v-238zM191 596v-277h49q75 0 112.5 36.5t37.5 103.5q0 68 -35 102.5t-115 34.5h-49zM322 782q0 -29 -12 -39t-46 -10q-36 0 -47.5 10t-11.5 39t12 39t47 10q36 0 47 -9.5t11 -39.5z" />
    <glyph glyph-name="uni1E57" unicode="&#x1e57;" horiz-adv-x="526" 
d="M178 -173h-103v671h83l10 -53q73 63 141 63q82 0 127.5 -67t45.5 -172q0 -141 -67 -210t-178 -69q-34 0 -59 4v-167zM178 378v-301q30 -12 69 -12q58 0 93.5 47.5t35.5 139.5q0 82 -25.5 129t-69.5 47q-45 0 -103 -50zM326 638q0 -32 -12.5 -43t-49.5 -11q-39 0 -51.5 11
t-12.5 43q0 31 13 42.5t51 11.5t50 -11t12 -43z" />
    <glyph glyph-name="uni1E60" unicode="&#x1e60;" horiz-adv-x="496" 
d="M464 187q0 -86 -61.5 -141t-166.5 -55q-102 0 -195 60l27 58q88 -37 150 -37q58 0 92 26.5t34 75.5q0 40 -30.5 69.5t-74 49.5t-87 43t-74 64.5t-30.5 100.5q0 82 57.5 132.5t148.5 50.5q94 0 171 -50l-26 -58q-66 28 -126 28q-55 0 -83.5 -25t-28.5 -64
q0 -30 16.5 -53.5t43.5 -40t59 -31.5t64.5 -32.5t59.5 -39t43.5 -55t16.5 -76.5zM306 786q0 -29 -12 -39t-46 -10q-36 0 -47.5 10t-11.5 39t12 39t47 10q36 0 47 -9.5t11 -39.5z" />
    <glyph glyph-name="uni1E61" unicode="&#x1e61;" horiz-adv-x="408" 
d="M35 29l10 55q75 -19 123 -19t72.5 19.5t24.5 49.5q0 28 -23.5 46.5t-57 31t-67 27.5t-57 47t-23.5 79q0 63 47.5 102.5t124.5 39.5q67 0 128 -32l-12 -55q-52 15 -96 15q-41 0 -63 -17.5t-22 -44.5q0 -28 23.5 -46.5t57.5 -31t68 -27.5t57.5 -47t23.5 -79q0 -67 -51 -109
t-138 -42q-76 0 -150 38zM267 640q0 -32 -12.5 -43t-49.5 -11q-39 0 -51.5 11t-12.5 43q0 31 13 42.5t51 11.5t50 -11t12 -43z" />
    <glyph glyph-name="uni1E6A" unicode="&#x1e6a;" horiz-adv-x="466" 
d="M451 590h-164v-590h-108v590h-164v85h436v-85zM291 782q0 -29 -12 -39t-46 -10q-36 0 -47.5 10t-11.5 39t12 39t47 10q36 0 47 -9.5t11 -39.5z" />
    <glyph glyph-name="uni1E6B" unicode="&#x1e6b;" horiz-adv-x="347" 
d="M314 83l11 -61q-62 -31 -119 -31q-66 0 -93.5 30t-27.5 102v302h-71v73h74q14 63 26 144h74v-144h123v-73h-123v-277q0 -45 11.5 -62t41.5 -17t73 14zM217 754q0 -32 -12.5 -43t-49.5 -11q-39 0 -51.5 11t-12.5 43q0 31 13 42.5t51 11.5t50 -11t12 -43z" />
    <glyph glyph-name="Wgrave" unicode="&#x1e80;" horiz-adv-x="856" 
d="M734 675h103q-77 -368 -171 -675h-118l-101 402l-21 101h-2l-20 -102l-93 -401h-120q-97 314 -172 675h116q23 -119 125 -539h2l14 79l108 460h103l112 -454l18 -85h2q73 307 115 539zM506 770l-32 -47l-190 66l48 67z" />
    <glyph glyph-name="wgrave" unicode="&#x1e81;" horiz-adv-x="744" 
d="M618 498h102q-37 -237 -136 -498h-117l-85 308l-14 70h-1l-13 -70l-74 -308h-121l-139 498h111l77 -296l21 -94h1l16 83l71 307h115l86 -315l16 -75h1q63 220 83 390zM440 588l-52 -30l-152 121l75 43z" />
    <glyph glyph-name="Wacute" unicode="&#x1e82;" horiz-adv-x="856" 
d="M734 675h103q-77 -368 -171 -675h-118l-101 402l-21 101h-2l-20 -102l-93 -401h-120q-97 314 -172 675h116q23 -119 125 -539h2l14 79l108 460h103l112 -454l18 -85h2q73 307 115 539zM362 770l174 86l48 -67l-190 -66z" />
    <glyph glyph-name="wacute" unicode="&#x1e83;" horiz-adv-x="744" 
d="M618 498h102q-37 -237 -136 -498h-117l-85 308l-14 70h-1l-13 -70l-74 -308h-121l-139 498h111l77 -296l21 -94h1l16 83l71 307h115l86 -315l16 -75h1q63 220 83 390zM506 679l-152 -121l-52 30l129 134z" />
    <glyph glyph-name="Wdieresis" unicode="&#x1e84;" horiz-adv-x="856" 
d="M734 675h103q-77 -368 -171 -675h-118l-101 402l-21 101h-2l-20 -102l-93 -401h-120q-97 314 -172 675h116q23 -119 125 -539h2l14 79l108 460h103l112 -454l18 -85h2q73 307 115 539zM590 780q0 -27 -11 -37.5t-41 -10.5q-31 0 -42 10t-11 38q0 27 11.5 37.5t41.5 10.5
t41 -10t11 -38zM388 780q0 -27 -11 -37.5t-41 -10.5t-41.5 10t-11.5 38q0 27 11.5 37.5t41.5 10.5q31 0 41.5 -10t10.5 -38z" />
    <glyph glyph-name="wdieresis" unicode="&#x1e85;" horiz-adv-x="744" 
d="M618 498h102q-37 -237 -136 -498h-117l-85 308l-14 70h-1l-13 -70l-74 -308h-121l-139 498h111l77 -296l21 -94h1l16 83l71 307h115l86 -315l16 -75h1q63 220 83 390zM526 636q0 -28 -10.5 -38.5t-40.5 -10.5q-31 0 -42 10.5t-11 38.5q0 29 11 40t42 11q30 0 40.5 -10.5
t10.5 -40.5zM331 636q0 -28 -11 -38.5t-41 -10.5q-31 0 -42 10.5t-11 38.5q0 29 11 40t42 11q30 0 41 -10.5t11 -40.5z" />
    <glyph glyph-name="Ygrave" unicode="&#x1ef2;" horiz-adv-x="486" 
d="M379 675h110q-96 -239 -192 -387v-288h-108v288q-103 165 -192 387h120q71 -178 133 -289h2q62 107 127 289zM308 770l-32 -47l-190 66l48 67z" />
    <glyph glyph-name="ygrave" unicode="&#x1ef3;" horiz-adv-x="471" 
d="M341 498h108q-125 -676 -375 -676q-31 0 -68 17v61q17 -3 45 -3q49 0 80 27q36 33 36 75q0 38 -37 149l-115 350h111l85 -270q28 -89 28 -155h2q30 77 58.5 197.5t41.5 227.5zM303 588l-52 -30l-152 121l75 43z" />
    <glyph glyph-name="endash" unicode="&#x2013;" 
d="M455 261h-410v75h410v-75z" />
    <glyph glyph-name="emdash" unicode="&#x2014;" horiz-adv-x="1000" 
d="M860 261h-720v75h720v-75z" />
    <glyph glyph-name="uni2015" unicode="&#x2015;" horiz-adv-x="1000" 
d="M860 261h-720v75h720v-75z" />
    <glyph glyph-name="quoteleft" unicode="&#x2018;" horiz-adv-x="275" 
d="M193 785l40 -41q-70 -52 -70 -92q0 -12 14 -28t14 -41q0 -39 -12.5 -52.5t-51.5 -13.5q-36 0 -48 14.5t-12 50.5q0 65 29.5 112.5t96.5 90.5z" />
    <glyph glyph-name="quoteright" unicode="&#x2019;" horiz-adv-x="281" 
d="M89 490l-40 41q70 52 70 92q0 12 -14.5 27.5t-14.5 40.5q0 39 12.5 52.5t52.5 13.5q36 0 47.5 -14t11.5 -51q0 -65 -29.5 -112.5t-95.5 -89.5z" />
    <glyph glyph-name="quotesinglbase" unicode="&#x201a;" horiz-adv-x="303" 
d="M89 -154l-40 42q70 52 70 91q0 12 -14.5 28t-14.5 41q0 39 12.5 52.5t52.5 13.5q36 0 47.5 -14.5t11.5 -50.5q0 -65 -29.5 -112.5t-95.5 -90.5z" />
    <glyph glyph-name="quotedblleft" unicode="&#x201c;" horiz-adv-x="461" 
d="M380 780l38 -40q-68 -51 -68 -90q0 -12 13.5 -27t13.5 -39q0 -38 -11.5 -51t-48.5 -13q-34 0 -45 14t-11 49q0 63 28 109t91 88zM191 783l37 -39q-71 -55 -71 -94q0 -12 13 -27t13 -39q0 -38 -11.5 -51t-48.5 -13q-34 0 -45 14t-11 49q0 64 29 110t95 90z" />
    <glyph glyph-name="quotedblright" unicode="&#x201d;" horiz-adv-x="467" 
d="M276 491l-37 40q71 53 71 93q0 12 -13.5 27t-13.5 40q0 37 12 50t49 13q34 0 44.5 -13.5t10.5 -49.5q0 -64 -28.5 -110.5t-94.5 -89.5zM86 494l-37 40q67 50 67 90q0 12 -13 27t-13 40q0 37 11.5 50t48.5 13q34 0 45 -14t11 -49q0 -63 -28.5 -109t-91.5 -88z" />
    <glyph glyph-name="quotedblbase" unicode="&#x201e;" horiz-adv-x="488" 
d="M276 -153l-37 40q71 55 71 94q0 12 -13.5 27t-13.5 39q0 37 12 50.5t49 13.5q34 0 44.5 -13.5t10.5 -49.5q0 -64 -28.5 -110.5t-94.5 -90.5zM86 -149l-37 39q67 52 67 91q0 12 -13 27t-13 39q0 37 11.5 50.5t48.5 13.5q34 0 45 -14t11 -49q0 -64 -28 -109.5t-92 -87.5z
" />
    <glyph glyph-name="dagger" unicode="&#x2020;" horiz-adv-x="380" 
d="M345 509h-106v-308h-98v308h-106v68h106v132h98v-132h106v-68z" />
    <glyph glyph-name="daggerdbl" unicode="&#x2021;" horiz-adv-x="380" 
d="M345 141h-107v-141h-96v141h-107v68h107v293h-107v68h107v139h96v-139h107v-68h-107v-293h107v-68z" />
    <glyph glyph-name="bullet" unicode="&#x2022;" 
d="M402 304q0 -63 -44.5 -107.5t-107.5 -44.5t-107.5 44.5t-44.5 107.5t44.5 107.5t107.5 44.5t107.5 -44.5t44.5 -107.5z" />
    <glyph glyph-name="ellipsis" unicode="&#x2026;" horiz-adv-x="777" 
d="M672 52q0 -36 -12 -48.5t-48 -12.5q-37 0 -49.5 12.5t-12.5 47.5q0 37 12.5 49.5t49.5 12.5q36 0 48 -12.5t12 -48.5zM443 52q0 -36 -12 -48.5t-49 -12.5t-49 12.5t-12 47.5q0 37 12 49.5t50 12.5q36 0 48 -12.5t12 -48.5zM213 52q0 -36 -12 -48.5t-49 -12.5t-49 12.5
t-12 47.5q0 37 12 49.5t50 12.5q36 0 48 -12.5t12 -48.5z" />
    <glyph glyph-name="perthousand" unicode="&#x2030;" horiz-adv-x="1032" 
d="M340 526q0 -72 -38.5 -115.5t-108.5 -43.5q-75 0 -107 41t-32 117q0 73 39 116.5t108 43.5q139 0 139 -159zM259 523q0 103 -62 103q-63 0 -63 -99q0 -101 63 -101q62 0 62 97zM623 661l-492 -680l-55 33l492 680zM645 149q0 -72 -38.5 -115.5t-108.5 -43.5
q-75 0 -107 41t-32 117q0 73 39 116.5t109 43.5q138 0 138 -159zM565 146q0 103 -63 103q-62 0 -62 -99q0 -101 62 -101q63 0 63 97zM978 149q0 -72 -38.5 -115.5t-108.5 -43.5q-75 0 -106.5 41t-31.5 117q0 73 39 116.5t108 43.5q138 0 138 -159zM898 146q0 103 -63 103
q-62 0 -62 -99q0 -101 63 -101q62 0 62 97z" />
    <glyph glyph-name="guilsinglleft" unicode="&#x2039;" horiz-adv-x="305" 
d="M241 120l-70 -24l-127 198l128 197l69 -25l-93 -172z" />
    <glyph glyph-name="guilsinglright" unicode="&#x203a;" horiz-adv-x="306" 
d="M65 467l69 24l127 -197l-128 -198l-68 25l92 173z" />
    <glyph glyph-name="exclamdbl" unicode="&#x203c;" horiz-adv-x="648" 
d="M251 162h-89l-19 513h126zM271 52q0 -34 -13 -46.5t-52 -12.5q-38 0 -51.5 12t-13.5 45q0 34 13 46.5t52 12.5q38 0 51.5 -12t13.5 -45zM535 162h-89l-19 513h126zM555 52q0 -34 -13 -46.5t-52 -12.5q-38 0 -51.5 12t-13.5 45q0 34 13 46.5t52 12.5q38 0 51.5 -12
t13.5 -45z" />
    <glyph glyph-name="fraction" unicode="&#x2044;" horiz-adv-x="81" 
d="M-269 -43l572 774l56 -31l-572 -775z" />
    <glyph glyph-name="zero.superior" unicode="&#x2070;" horiz-adv-x="386" 
d="M348 545q0 -98 -42.5 -146t-118.5 -48q-75 0 -114 44t-39 142q0 97 42.5 145t118.5 48q75 1 114 -42t39 -143zM256 539q0 77 -15.5 104t-49.5 27q-35 0 -50 -28.5t-15 -99.5q0 -74 16 -102.5t49 -28.5q35 0 50 29t15 99z" />
    <glyph glyph-name="four.superior" unicode="&#x2074;" horiz-adv-x="356" 
d="M336 433h-50v-74h-87v74h-176v61q59 115 140 228h123v-226h50v-63zM199 496v173h-1q-51 -67 -109 -173h110z" />
    <glyph glyph-name="five.superior" unicode="&#x2075;" horiz-adv-x="351" 
d="M286 657h-144l-8 -86q32 4 53 4q130 0 130 -101q0 -59 -41.5 -91t-110.5 -32q-61 0 -130 23l7 45q57 -10 101 -10q82 0 82 59q0 54 -82 54q-44 0 -90 -7l16 207h217v-65z" />
    <glyph glyph-name="six.superior" unicode="&#x2076;" horiz-adv-x="376" 
d="M328 710l-9 -45q-58 9 -94 9q-50 0 -70.5 -25.5t-23.5 -92.5q53 25 97 25q116 0 116 -101q0 -59 -41.5 -94t-107.5 -35q-73 0 -112 39.5t-39 138.5q0 201 168 201q56 0 116 -20zM256 473q0 56 -59 56q-30 0 -65 -16q0 -57 15 -82t50 -25q59 0 59 67z" />
    <glyph glyph-name="seven.superior" unicode="&#x2077;" horiz-adv-x="337" 
d="M311 660l-83 -146q-64 -109 -110 -164l-64 19l157 285h-181v68h281v-62z" />
    <glyph glyph-name="eight.superior" unicode="&#x2078;" horiz-adv-x="382" 
d="M34 444q0 34 21.5 55t60.5 39q-72 34 -72 93q0 45 39 72.5t112 27.5q70 0 106.5 -24.5t36.5 -64.5q0 -56 -75 -93q85 -34 85 -95q0 -47 -40.5 -75.5t-122.5 -28.5q-76 0 -113.5 25.5t-37.5 68.5zM259 447q0 22 -20 36t-61 30q-55 -27 -55 -64q0 -48 70 -48q66 0 66 46z
M131 636q0 -38 67 -63q53 27 53 62q0 45 -62 45q-58 0 -58 -44z" />
    <glyph glyph-name="nine.superior" unicode="&#x2079;" horiz-adv-x="375" 
d="M42 373l9 45q61 -11 103 -11q49 0 69.5 26t23.5 92q-52 -25 -96 -25q-117 0 -117 101q0 59 41.5 94t107.5 35q73 0 112 -39.5t39 -138.5q0 -201 -168 -201q-58 0 -124 22zM246 568q0 57 -15 82t-50 25q-59 0 -59 -67q0 -56 59 -56q30 0 65 16z" />
    <glyph glyph-name="uni207A" unicode="&#x207a;" horiz-adv-x="329" 
d="M294 508h-92v-95h-75v95h-92v64h92v96h75v-96h92v-64z" />
    <glyph glyph-name="uni207B" unicode="&#x207b;" horiz-adv-x="329" 
d="M294 507h-259v66h259v-66z" />
    <glyph glyph-name="uni207C" unicode="&#x207c;" horiz-adv-x="329" 
d="M292 568h-255v60h255v-60zM292 453h-255v60h255v-60z" />
    <glyph glyph-name="parenleft.superior" unicode="&#x207d;" horiz-adv-x="206" 
d="M186 294l-60 -15q-82 112 -82 267q0 158 82 273l60 -18q-55 -122 -55 -252q0 -129 55 -255z" />
    <glyph glyph-name="parenright.superior" unicode="&#x207e;" horiz-adv-x="206" 
d="M80 279l-60 15q55 122 55 252q0 129 -55 255l60 18q82 -112 82 -267q0 -159 -82 -273z" />
    <glyph glyph-name="nsuperior" unicode="&#x207f;" horiz-adv-x="382" 
d="M335 540q0 -17 -1 -80.5t-1 -100.5h-85q0 35 0.5 94t0.5 78q0 49 -11.5 68.5t-35.5 19.5q-33 0 -66 -28v-232h-86v315h70l6 -35q51 41 105 41q53 0 78.5 -33t25.5 -107z" />
    <glyph glyph-name="zero.inferior" unicode="&#x2080;" horiz-adv-x="386" 
d="M348 125q0 -98 -42.5 -146t-118.5 -48q-75 0 -114 44t-39 142q0 97 42.5 145t118.5 48q75 1 114 -42t39 -143zM256 119q0 77 -15.5 104t-49.5 27q-35 0 -50 -28.5t-15 -99.5q0 -74 16 -102.5t49 -28.5q35 0 50 29t15 99z" />
    <glyph glyph-name="one.inferior" unicode="&#x2081;" horiz-adv-x="339" 
d="M304 -61h-256v63h87v227l-76 -22l-14 51l111 46h69v-302h79v-63z" />
    <glyph glyph-name="two.inferior" unicode="&#x2082;" horiz-adv-x="351" 
d="M315 -61h-275v63q106 86 139 123.5t33 72.5q0 50 -61 50q-30 0 -97 -19l-12 54q72 27 132 27q57 0 94 -25.5t37 -77.5q0 -46 -37.5 -92.5t-128.5 -108.5h176v-67z" />
    <glyph glyph-name="three.inferior" unicode="&#x2083;" horiz-adv-x="350" 
d="M33 -46l7 46q63 -11 103 -11q83 0 83 55t-82 55h-55v57h57q69 0 69 50q0 46 -65 46q-42 0 -91 -14l-13 49q59 23 122 23q69 0 103.5 -25.5t34.5 -67.5q0 -62 -68 -84q80 -16 80 -86q0 -56 -44 -86t-115 -30q-58 0 -126 23z" />
    <glyph glyph-name="four.inferior" unicode="&#x2084;" horiz-adv-x="356" 
d="M336 13h-50v-74h-87v74h-176v61q59 115 140 228h123v-226h50v-63zM199 76v173h-1q-51 -67 -109 -173h110z" />
    <glyph glyph-name="five.inferior" unicode="&#x2085;" horiz-adv-x="351" 
d="M286 237h-144l-8 -86q32 4 53 4q130 0 130 -101q0 -59 -41.5 -91t-110.5 -32q-61 0 -130 23l7 45q57 -10 101 -10q82 0 82 59q0 54 -82 54q-44 0 -90 -7l16 207h217v-65z" />
    <glyph glyph-name="six.inferior" unicode="&#x2086;" horiz-adv-x="376" 
d="M328 290l-9 -45q-58 9 -94 9q-50 0 -70.5 -25.5t-23.5 -92.5q53 25 97 25q116 0 116 -101q0 -59 -41.5 -94t-107.5 -35q-73 0 -112 39.5t-39 138.5q0 201 168 201q56 0 116 -20zM256 53q0 56 -59 56q-30 0 -65 -16q0 -57 15 -82t50 -25q59 0 59 67z" />
    <glyph glyph-name="seven.inferior" unicode="&#x2087;" horiz-adv-x="337" 
d="M311 240l-83 -146q-64 -109 -110 -164l-64 19l157 285h-181v68h281v-62z" />
    <glyph glyph-name="eight.inferior" unicode="&#x2088;" horiz-adv-x="382" 
d="M34 24q0 34 21.5 55t60.5 39q-72 34 -72 93q0 45 39 72.5t112 27.5q70 0 106.5 -24.5t36.5 -64.5q0 -56 -75 -93q85 -34 85 -95q0 -47 -40.5 -75.5t-122.5 -28.5q-76 0 -113.5 25.5t-37.5 68.5zM259 27q0 22 -20 36t-61 30q-55 -27 -55 -64q0 -48 70 -48q66 0 66 46z
M131 216q0 -38 67 -63q53 27 53 62q0 45 -62 45q-58 0 -58 -44z" />
    <glyph glyph-name="nine.inferior" unicode="&#x2089;" horiz-adv-x="375" 
d="M42 -47l9 45q61 -11 103 -11q49 0 69.5 26t23.5 92q-52 -25 -96 -25q-117 0 -117 101q0 59 41.5 94t107.5 35q73 0 112 -39.5t39 -138.5q0 -201 -168 -201q-58 0 -124 22zM246 148q0 57 -15 82t-50 25q-59 0 -59 -67q0 -56 59 -56q30 0 65 16z" />
    <glyph glyph-name="uni208A" unicode="&#x208a;" horiz-adv-x="329" 
d="M294 88h-92v-95h-75v95h-92v64h92v96h75v-96h92v-64z" />
    <glyph glyph-name="uni208B" unicode="&#x208b;" horiz-adv-x="329" 
d="M294 87h-259v66h259v-66z" />
    <glyph glyph-name="uni208C" unicode="&#x208c;" horiz-adv-x="329" 
d="M292 148h-255v60h255v-60zM292 33h-255v60h255v-60z" />
    <glyph glyph-name="parenleft.inferior" unicode="&#x208d;" horiz-adv-x="206" 
d="M186 -126l-60 -15q-82 112 -82 267q0 158 82 273l60 -18q-55 -122 -55 -252q0 -129 55 -255z" />
    <glyph glyph-name="parenright.inferior" unicode="&#x208e;" horiz-adv-x="206" 
d="M80 -141l-60 15q55 122 55 252q0 129 -55 255l60 18q82 -112 82 -267q0 -159 -82 -273z" />
    <glyph glyph-name="Euro" unicode="&#x20ac;" 
d="M171 446h170v-67h-178q-2 -24 -2 -36q0 -28 2 -43h178v-67h-170q10 -79 45.5 -120t94.5 -41q73 0 128 63l42 -52q-76 -93 -189 -93q-98 0 -158 62t-73 181h-59v67h54q-1 11 -1 32q0 17 2 47h-55v67h62q18 112 81.5 175.5t154.5 63.5q117 0 171 -103l-46 -45
q-43 67 -115 67q-58 0 -93.5 -44.5t-45.5 -113.5z" />
    <glyph glyph-name="uni2117" unicode="&#x2117;" horiz-adv-x="774" 
d="M355 153h-79v363q17 0 62 0.5t60 0.5q150 0 150 -117q0 -65 -44.5 -97.5t-117.5 -32.5h-31v-117zM355 459v-132h36q75 0 75 66q0 36 -18 51t-57 15h-36zM734 343q0 -147 -100 -251t-251 -104q-147 0 -245 99t-98 244q0 146 100.5 250.5t251.5 104.5q147 0 244.5 -99
t97.5 -244zM658 341q0 119 -77.5 200t-189.5 81q-117 0 -195.5 -84t-78.5 -205q0 -119 77.5 -200t189.5 -81q117 0 195.5 84.5t78.5 204.5z" />
    <glyph glyph-name="servicemark" unicode="&#x2120;" horiz-adv-x="442" 
d="M401 509h-48q2 62 -2 108h-2l-34 -108h-51l-33 107h-1q-2 -37 -4 -107h-44q3 82 12 166h65l34 -111h1l33 111h63q7 -68 11 -166zM149 667l-8 -26q-18 7 -36 7q-25 0 -25 -15q0 -2 0.5 -3.5t1.5 -3t2.5 -2.5t3.5 -2.5t4 -2t5 -2t5.5 -2t6.5 -2t7 -2.5q13 -5 21 -9.5
t15 -15t7 -25.5q0 -25 -20 -41t-56 -16q-33 0 -61 15l10 26q21 -8 41 -8q29 0 29 17q0 4 -2 7t-6.5 5.5t-8.5 4t-11 3.5t-12 4q-35 16 -35 48q0 25 18 39t50 14q30 0 54 -12z" />
    <glyph glyph-name="trademark" unicode="&#x2122;" horiz-adv-x="415" 
d="M374 509h-48q2 62 -2 108h-2l-34 -108h-51l-33 107h-1q-2 -37 -4 -107h-44q3 82 12 166h65l34 -111h1l33 111h63q7 -68 11 -166zM142 636h-34v-127h-49v127h-36v39h119v-39z" />
    <glyph glyph-name="uni2139" unicode="&#x2139;" horiz-adv-x="372" 
d="M259 512q0 -37 -13.5 -49.5t-54.5 -12.5q-42 0 -55.5 12.5t-13.5 49.5q0 36 13.5 48.5t55.5 12.5t55 -12t13 -49zM351 0h-330v73h120v234h-111v73h218v-307h103v-73z" />
    <glyph glyph-name="onethird" unicode="&#x2153;" horiz-adv-x="759" 
d="M304 359h-256v63h87v227l-76 -22l-14 51l111 46h69v-302h79v-63zM71 -43l572 774l56 -31l-572 -775zM441 -46l7 46q63 -11 103 -11q83 0 83 55t-82 55h-55v57h57q69 0 69 50q0 46 -65 46q-42 0 -91 -14l-13 49q59 23 122 23q69 0 103.5 -25.5t34.5 -67.5q0 -62 -68 -84
q80 -16 80 -86q0 -56 -44 -86t-115 -30q-58 0 -126 23z" />
    <glyph glyph-name="twothirds" unicode="&#x2154;" horiz-adv-x="770" 
d="M315 359h-275v63q106 86 139 123.5t33 72.5q0 50 -61 50q-30 0 -97 -19l-12 54q72 27 132 27q57 0 94 -25.5t37 -77.5q0 -46 -37.5 -92.5t-128.5 -108.5h176v-67zM82 -43l572 774l56 -31l-572 -775zM452 -46l7 46q63 -11 103 -11q83 0 83 55t-82 55h-55v57h57q69 0 69 50
q0 46 -65 46q-42 0 -91 -14l-13 49q59 23 122 23q69 0 103.5 -25.5t34.5 -67.5q0 -62 -68 -84q80 -16 80 -86q0 -56 -44 -86t-115 -30q-58 0 -126 23z" />
    <glyph glyph-name="onefifth" unicode="&#x2155;" horiz-adv-x="751" 
d="M304 359h-256v63h87v227l-76 -22l-14 51l111 46h69v-302h79v-63zM71 -43l572 774l56 -31l-572 -775zM686 237h-144l-8 -86q32 4 53 4q130 0 130 -101q0 -59 -41.5 -91t-110.5 -32q-61 0 -130 23l7 45q57 -10 101 -10q82 0 82 59q0 54 -82 54q-44 0 -90 -7l16 207h217v-65
z" />
    <glyph glyph-name="twofifths" unicode="&#x2156;" horiz-adv-x="762" 
d="M315 359h-275v63q106 86 139 123.5t33 72.5q0 50 -61 50q-30 0 -97 -19l-12 54q72 27 132 27q57 0 94 -25.5t37 -77.5q0 -46 -37.5 -92.5t-128.5 -108.5h176v-67zM82 -43l572 774l56 -31l-572 -775zM697 237h-144l-8 -86q32 4 53 4q130 0 130 -101q0 -59 -41.5 -91
t-110.5 -32q-61 0 -130 23l7 45q57 -10 101 -10q82 0 82 59q0 54 -82 54q-44 0 -90 -7l16 207h217v-65z" />
    <glyph glyph-name="threefifths" unicode="&#x2157;" horiz-adv-x="756" 
d="M33 374l7 46q63 -11 103 -11q83 0 83 55t-82 55h-55v57h57q69 0 69 50q0 46 -65 46q-42 0 -91 -14l-13 49q59 23 122 23q69 0 103.5 -25.5t34.5 -67.5q0 -62 -68 -84q80 -16 80 -86q0 -56 -44 -86t-115 -30q-58 0 -126 23zM76 -43l572 774l56 -31l-572 -775zM691 237
h-144l-8 -86q32 4 53 4q130 0 130 -101q0 -59 -41.5 -91t-110.5 -32q-61 0 -130 23l7 45q57 -10 101 -10q82 0 82 59q0 54 -82 54q-44 0 -90 -7l16 207h217v-65z" />
    <glyph glyph-name="fourfifths" unicode="&#x2158;" horiz-adv-x="751" 
d="M336 433h-50v-74h-87v74h-176v61q59 115 140 228h123v-226h50v-63zM199 496v173h-1q-51 -67 -109 -173h110zM71 -43l572 774l56 -31l-572 -775zM686 237h-144l-8 -86q32 4 53 4q130 0 130 -101q0 -59 -41.5 -91t-110.5 -32q-61 0 -130 23l7 45q57 -10 101 -10q82 0 82 59
q0 54 -82 54q-44 0 -90 -7l16 207h217v-65z" />
    <glyph glyph-name="onesixth" unicode="&#x2159;" horiz-adv-x="769" 
d="M71 -43l572 774l56 -31l-572 -775zM722 290l-9 -45q-58 9 -94 9q-50 0 -70.5 -25.5t-23.5 -92.5q53 25 97 25q116 0 116 -101q0 -59 -41.5 -94t-107.5 -35q-73 0 -112 39.5t-39 138.5q0 201 168 201q56 0 116 -20zM650 53q0 56 -59 56q-30 0 -65 -16q0 -57 15 -82t50 -25
q59 0 59 67zM304 359h-256v63h87v227l-76 -22l-14 51l111 46h69v-302h79v-63z" />
    <glyph glyph-name="fivesixths" unicode="&#x215a;" horiz-adv-x="772" 
d="M74 -43l572 774l56 -31l-572 -775zM725 290l-9 -45q-58 9 -94 9q-50 0 -70.5 -25.5t-23.5 -92.5q53 25 97 25q116 0 116 -101q0 -59 -41.5 -94t-107.5 -35q-73 0 -112 39.5t-39 138.5q0 201 168 201q56 0 116 -20zM653 53q0 56 -59 56q-30 0 -65 -16q0 -57 15 -82t50 -25
q59 0 59 67zM286 657h-144l-8 -86q32 4 53 4q130 0 130 -101q0 -59 -41.5 -91t-110.5 -32q-61 0 -130 23l7 45q57 -10 101 -10q82 0 82 59q0 54 -82 54q-44 0 -90 -7l16 207h217v-65z" />
    <glyph glyph-name="oneeighth" unicode="&#x215b;" horiz-adv-x="800" 
d="M71 -43l572 774l56 -31l-572 -775zM453 24q0 34 21.5 55t60.5 39q-72 34 -72 93q0 45 39 72.5t112 27.5q70 0 106.5 -24.5t36.5 -64.5q0 -56 -75 -93q85 -34 85 -95q0 -47 -40.5 -75.5t-122.5 -28.5q-76 0 -113.5 25.5t-37.5 68.5zM678 27q0 22 -20 36t-61 30
q-55 -27 -55 -64q0 -48 70 -48q66 0 66 46zM550 216q0 -38 67 -63q53 27 53 62q0 45 -62 45q-58 0 -58 -44zM304 359h-256v63h87v227l-76 -22l-14 51l111 46h69v-302h79v-63z" />
    <glyph glyph-name="threeeighths" unicode="&#x215c;" horiz-adv-x="805" 
d="M33 374l7 46q63 -11 103 -11q83 0 83 55t-82 55h-55v57h57q69 0 69 50q0 46 -65 46q-42 0 -91 -14l-13 49q59 23 122 23q69 0 103.5 -25.5t34.5 -67.5q0 -62 -68 -84q80 -16 80 -86q0 -56 -44 -86t-115 -30q-58 0 -126 23zM76 -43l572 774l56 -31l-572 -775zM457 24
q0 34 21.5 55t60.5 39q-72 34 -72 93q0 45 39 72.5t112 27.5q70 0 106.5 -24.5t36.5 -64.5q0 -56 -75 -93q85 -34 85 -95q0 -47 -40.5 -75.5t-122.5 -28.5q-76 0 -113.5 25.5t-37.5 68.5zM682 27q0 22 -20 36t-61 30q-55 -27 -55 -64q0 -48 70 -48q66 0 66 46zM554 216
q0 -38 67 -63q53 27 53 62q0 45 -62 45q-58 0 -58 -44z" />
    <glyph glyph-name="fiveeighths" unicode="&#x215d;" horiz-adv-x="803" 
d="M74 -43l572 774l56 -31l-572 -775zM456 24q0 34 21.5 55t60.5 39q-72 34 -72 93q0 45 39 72.5t112 27.5q70 0 106.5 -24.5t36.5 -64.5q0 -56 -75 -93q85 -34 85 -95q0 -47 -40.5 -75.5t-122.5 -28.5q-76 0 -113.5 25.5t-37.5 68.5zM681 27q0 22 -20 36t-61 30
q-55 -27 -55 -64q0 -48 70 -48q66 0 66 46zM553 216q0 -38 67 -63q53 27 53 62q0 45 -62 45q-58 0 -58 -44zM286 657h-144l-8 -86q32 4 53 4q130 0 130 -101q0 -59 -41.5 -91t-110.5 -32q-61 0 -130 23l7 45q57 -10 101 -10q82 0 82 59q0 54 -82 54q-44 0 -90 -7l16 207h217
v-65z" />
    <glyph glyph-name="seveneighths" unicode="&#x215e;" horiz-adv-x="759" 
d="M30 -43l572 774l56 -31l-572 -775zM411 24q0 34 21.5 55t60.5 39q-72 34 -72 93q0 45 39 72.5t112 27.5q70 0 106.5 -24.5t36.5 -64.5q0 -56 -75 -93q85 -34 85 -95q0 -47 -40.5 -75.5t-122.5 -28.5q-76 0 -113.5 25.5t-37.5 68.5zM636 27q0 22 -20 36t-61 30
q-55 -27 -55 -64q0 -48 70 -48q66 0 66 46zM508 216q0 -38 67 -63q53 27 53 62q0 45 -62 45q-58 0 -58 -44zM357 660l-83 -146q-64 -109 -110 -164l-64 19l157 285h-181v68h281v-62z" />
    <glyph glyph-name="uni2160" unicode="&#x2160;" horiz-adv-x="388" 
d="M336 0h-284v85h88v506h-88v84h284v-84h-88v-506h88v-85z" />
    <glyph glyph-name="uni2161" unicode="&#x2161;" horiz-adv-x="776" 
d="M336 0h-284v85h88v506h-88v84h284v-84h-88v-506h88v-85zM724 0h-284v85h88v506h-88v84h284v-84h-88v-506h88v-85z" />
    <glyph glyph-name="uni2162" unicode="&#x2162;" horiz-adv-x="1164" 
d="M336 0h-284v85h88v506h-88v84h284v-84h-88v-506h88v-85zM724 0h-284v85h88v506h-88v84h284v-84h-88v-506h88v-85zM1112 0h-284v85h88v506h-88v84h284v-84h-88v-506h88v-85z" />
    <glyph glyph-name="uni2163" unicode="&#x2163;" horiz-adv-x="923" 
d="M336 0h-284v85h88v506h-88v84h284v-84h-88v-506h88v-85zM803 675h106q-75 -368 -188 -675h-129q-120 345 -190 675h118q53 -270 145 -564h1q77 247 137 564z" />
    <glyph glyph-name="uni2164" unicode="&#x2164;" horiz-adv-x="535" 
d="M415 675h106q-75 -368 -188 -675h-129q-120 345 -190 675h118q53 -270 145 -564h1q77 247 137 564z" />
    <glyph glyph-name="uni2165" unicode="&#x2165;" horiz-adv-x="923" 
d="M415 675h106q-75 -368 -188 -675h-129q-120 345 -190 675h118q53 -270 145 -564h1q77 247 137 564zM871 0h-284v85h88v506h-88v84h284v-84h-88v-506h88v-85z" />
    <glyph glyph-name="uni2166" unicode="&#x2166;" horiz-adv-x="1311" 
d="M415 675h106q-75 -368 -188 -675h-129q-120 345 -190 675h118q53 -270 145 -564h1q77 247 137 564zM871 0h-284v85h88v506h-88v84h284v-84h-88v-506h88v-85zM1259 0h-284v85h88v506h-88v84h284v-84h-88v-506h88v-85z" />
    <glyph glyph-name="uni2167" unicode="&#x2167;" horiz-adv-x="1699" 
d="M415 675h106q-75 -368 -188 -675h-129q-120 345 -190 675h118q53 -270 145 -564h1q77 247 137 564zM871 0h-284v85h88v506h-88v84h284v-84h-88v-506h88v-85zM1259 0h-284v85h88v506h-88v84h284v-84h-88v-506h88v-85zM1647 0h-284v85h88v506h-88v84h284v-84h-88v-506h88
v-85z" />
    <glyph glyph-name="uni2168" unicode="&#x2168;" horiz-adv-x="934" 
d="M336 0h-284v85h88v506h-88v84h284v-84h-88v-506h88v-85zM913 0h-120q-83 175 -141 269h-1q-81 -133 -136 -269h-108q74 177 185 353q-91 151 -168 322h118q69 -155 121 -242h2q71 112 123 242h106q-65 -155 -168 -316q106 -175 187 -359z" />
    <glyph glyph-name="uni2169" unicode="&#x2169;" horiz-adv-x="546" 
d="M525 0h-120q-83 175 -141 269h-1q-81 -133 -136 -269h-108q74 177 185 353q-91 151 -168 322h118q69 -155 121 -242h2q71 112 123 242h106q-65 -155 -168 -316q106 -175 187 -359z" />
    <glyph glyph-name="uni216A" unicode="&#x216a;" horiz-adv-x="934" 
d="M525 0h-120q-83 175 -141 269h-1q-81 -133 -136 -269h-108q74 177 185 353q-91 151 -168 322h118q69 -155 121 -242h2q71 112 123 242h106q-65 -155 -168 -316q106 -175 187 -359zM882 0h-284v85h88v506h-88v84h284v-84h-88v-506h88v-85z" />
    <glyph glyph-name="uni216B" unicode="&#x216b;" horiz-adv-x="1322" 
d="M525 0h-120q-83 175 -141 269h-1q-81 -133 -136 -269h-108q74 177 185 353q-91 151 -168 322h118q69 -155 121 -242h2q71 112 123 242h106q-65 -155 -168 -316q106 -175 187 -359zM882 0h-284v85h88v506h-88v84h284v-84h-88v-506h88v-85zM1270 0h-284v85h88v506h-88v84
h284v-84h-88v-506h88v-85z" />
    <glyph glyph-name="uni216C" unicode="&#x216c;" horiz-adv-x="421" 
d="M404 0h-321v675h108v-590h213v-85z" />
    <glyph glyph-name="uni216D" unicode="&#x216d;" horiz-adv-x="517" 
d="M445 148l46 -56q-75 -102 -199 -102q-119 0 -181.5 85t-62.5 252q0 169 68 263.5t184 94.5q123 0 180 -111l-52 -46q-45 70 -116 70q-74 0 -112.5 -72.5t-38.5 -181.5q0 -266 151 -266q73 0 133 70z" />
    <glyph glyph-name="uni216E" unicode="&#x216e;" horiz-adv-x="587" 
d="M83 0v675q31 0 86 0.5t83 0.5q77 0 134 -24.5t89.5 -69.5t48 -101t15.5 -126q0 -173 -77 -265.5t-232 -92.5q-27 0 -77 1.5t-70 1.5zM191 594v-511q38 -2 57 -2q178 0 178 261q0 253 -183 253q-34 0 -52 -1z" />
    <glyph glyph-name="uni216F" unicode="&#x216f;" horiz-adv-x="844" 
d="M774 0h-113q-6 305 -32 544h-1l-170 -544h-89l-171 544h-1q-19 -218 -24 -544h-103q10 355 49 675h142l162 -502h1l162 502h136q44 -369 52 -675z" />
    <glyph glyph-name="arrowleft" unicode="&#x2190;" horiz-adv-x="1054" 
d="M62 338l373 373l49 -50q-136 -157 -259 -279l1 -1q303 8 611 8h136v-102h-136q-137 0 -290 2t-237 4l-84 2l-1 -1q55 -54 119.5 -124t101.5 -112l38 -43l-49 -50z" />
    <glyph glyph-name="arrowup" unicode="&#x2191;" horiz-adv-x="870" 
d="M435 803l373 -373l-50 -49q-157 136 -279 259l-1 -1q8 -303 8 -611v-136h-102v136q0 137 2 290t4 237l2 84l-1 1q-54 -55 -124 -119.5t-113 -102.5l-42 -37l-50 49z" />
    <glyph glyph-name="arrowright" unicode="&#x2192;" horiz-adv-x="1054" 
d="M992 338l-373 -373l-49 50q136 157 259 279l-1 1q-303 -8 -611 -8h-136v102h136q137 0 290 -2t237 -4l84 -2l1 1q-55 54 -119.5 124t-101.5 112l-38 43l49 50z" />
    <glyph glyph-name="arrowdown" unicode="&#x2193;" horiz-adv-x="870" 
d="M435 -127l-373 373l50 49q157 -136 279 -259l1 1q-8 303 -8 611v136h102v-136q0 -137 -2 -290t-4 -237l-2 -84l1 -1q54 55 124 119.5t113 102.5l42 37l50 -49z" />
    <glyph glyph-name="arrowboth" unicode="&#x2194;" horiz-adv-x="1250" 
d="M1188 338l-331 -331l-47 47q111 131 226 243l-1 1q-203 -6 -327 -6h-166l-327 6l-1 -1q51 -50 107.5 -110.5t87.5 -96.5l31 -36l-47 -47l-331 331l331 331l47 -47q-111 -131 -226 -243l1 -1q203 6 327 6h166l327 -6l1 1q-51 50 -107.5 110.5t-87.5 96.5l-31 36l47 47z
" />
    <glyph glyph-name="arrowupdn" unicode="&#x2195;" horiz-adv-x="786" 
d="M393 -169l-331 331l47 47q131 -111 243 -226l1 1q-6 203 -6 327v54l6 327l-1 1q-50 -51 -110.5 -107.5t-96.5 -87.5l-36 -31l-47 47l331 331l331 -331l-47 -47q-131 111 -243 226l-1 -1q6 -203 6 -327v-54l-6 -327l1 -1q50 51 110.5 107.5t96.5 87.5l36 31l47 -47z" />
    <glyph glyph-name="arrownorthwest" unicode="&#x2196;" horiz-adv-x="846" 
d="M94 667h527v-70q-23 -2 -62.5 -4.5t-141 -6t-177.5 -3.5l-1 -1q220 -208 438 -427l97 -97l-72 -72l-97 97q-97 97 -203.5 206.5t-164.5 170.5l-58 61h-2q1 -77 -2.5 -172.5t-6.5 -152.5l-4 -57h-70v528z" />
    <glyph glyph-name="arrownortheast" unicode="&#x2197;" horiz-adv-x="846" 
d="M751 667v-528h-70q-2 23 -4 62.5t-5.5 141t-3.5 178.5h-2q-208 -219 -426 -438l-97 -97l-72 72l97 97q97 97 206.5 204t170.5 165l61 58l-1 1q-76 0 -171.5 3.5t-152.5 7.5l-57 3v70h527z" />
    <glyph glyph-name="arrowsoutheast" unicode="&#x2198;" horiz-adv-x="846" 
d="M751 9h-527v70q23 2 62.5 4.5t141 6t177.5 3.5l1 1q-220 208 -438 427l-97 97l72 72l97 -97q97 -97 203.5 -206.5t164.5 -170.5l58 -61h2q0 77 3 172.5t7 152.5l3 57h70v-528z" />
    <glyph glyph-name="arrowsouthwest" unicode="&#x2199;" horiz-adv-x="846" 
d="M94 9v528h70q2 -23 4.5 -62.5t6 -141t2.5 -178.5h2q208 219 426 438l97 97l72 -72l-97 -97q-97 -97 -206.5 -204t-170.5 -165l-61 -58l1 -1q76 0 171.5 -3.5t152.5 -7.5l57 -3v-70h-527z" />
    <glyph glyph-name="partialdiff" unicode="&#x2202;" horiz-adv-x="524" 
d="M168 660l55 57q253 -120 253 -415q0 -157 -61 -234t-163 -77q-101 0 -156.5 64.5t-55.5 186.5q0 126 61.5 192t175.5 66q33 0 53 -6q-47 92 -162 166zM366 276q0 76 -14 140q-29 13 -80 13q-55 0 -88.5 -45t-33.5 -132q0 -181 112 -181q48 0 76 43.5t28 161.5z" />
    <glyph glyph-name="product" unicode="&#x220f;" horiz-adv-x="653" 
d="M632 590h-72v-590h-108v590h-248v-590h-108v590h-71v85h607v-85z" />
    <glyph glyph-name="summation" unicode="&#x2211;" 
d="M457 0h-417v72l219 276l-207 251v76h392v-83h-265l196 -238l-211 -268h293v-86z" />
    <glyph glyph-name="minus" unicode="&#x2212;" 
d="M460 261h-419v76h419v-76z" />
    <glyph glyph-name="uni2215" unicode="&#x2215;" horiz-adv-x="81" 
d="M-269 -43l572 774l56 -31l-572 -775z" />
    <glyph glyph-name="radical" unicode="&#x221a;" 
d="M390 675h99q-67 -348 -188 -675h-113l-105 427h-76v71h160l88 -383q88 288 135 560z" />
    <glyph glyph-name="infinity" unicode="&#x221e;" horiz-adv-x="1000" 
d="M956 305q0 -94 -53.5 -150.5t-153.5 -56.5q-65 0 -126 36t-128 98q-70 -63 -130 -98.5t-125 -35.5q-99 0 -147.5 54t-48.5 137q0 94 53.5 150.5t153.5 56.5q65 0 125.5 -36t128.5 -99q68 63 129 99t126 36q99 0 147.5 -54t48.5 -137zM852 297q0 51 -24 83.5t-75 32.5
q-41 0 -84.5 -28.5t-101.5 -83.5q61 -59 104.5 -89.5t83.5 -30.5q49 0 73 32.5t24 83.5zM247 181q41 0 84 28.5t101 82.5q-60 59 -103.5 90t-83.5 31q-49 0 -73 -32.5t-24 -83.5t24 -83.5t75 -32.5z" />
    <glyph glyph-name="integral" unicode="&#x222b;" horiz-adv-x="400" 
d="M378 694l-15 -60q-34 9 -54 9q-33 0 -47.5 -18.5t-14.5 -60.5v-592q0 -152 -133 -152q-51 0 -101 25l15 60q32 -10 55 -10q33 0 47 18.5t14 60.5v593q0 152 133 152q53 0 101 -25z" />
    <glyph glyph-name="uni2236" unicode="&#x2236;" horiz-adv-x="332" 
d="M227 519q0 -33 -13.5 -45.5t-47.5 -12.5t-48 12.5t-14 44.5q0 33 14 46t48 13t47.5 -12.5t13.5 -45.5zM227 133q0 -34 -13.5 -46.5t-47.5 -12.5t-48 12.5t-14 44.5q0 33 14 46t48 13t47.5 -12.5t13.5 -44.5z" />
    <glyph glyph-name="approxequal" unicode="&#x2248;" 
d="M429 449l30 -57q-66 -60 -128 -60q-45 0 -95 27.5t-80 27.5q-34 0 -88 -45l-29 57q66 60 127 60q46 0 95 -27.5t80 -27.5q34 0 88 45zM429 255l30 -57q-66 -60 -128 -60q-45 0 -95 27t-80 27q-35 0 -88 -44l-29 57q66 60 127 60q46 0 95 -27.5t80 -27.5q34 0 88 45z" />
    <glyph glyph-name="notequal" unicode="&#x2260;" 
d="M457 171h-229l-82 -154l-69 34l65 120h-97v69h132l63 117h-195v69h230l82 154l69 -33l-65 -121h96v-69h-131l-63 -117h194v-69z" />
    <glyph glyph-name="lessequal" unicode="&#x2264;" 
d="M457 0h-415v71h415v-71zM457 206l-29 -74l-386 179v69l386 179l29 -72l-317 -140z" />
    <glyph glyph-name="greaterequal" unicode="&#x2265;" 
d="M457 0h-415v71h415v-71zM457 311l-387 -179l-29 72l317 140l-317 141l29 74l387 -179v-69z" />
    <glyph glyph-name="filledbox" unicode="&#x25a0;" horiz-adv-x="1100" 
d="M995 -115h-890v906h890v-906z" />
    <glyph glyph-name="uni25A1" unicode="&#x25a1;" horiz-adv-x="1100" 
d="M1012 -127h-924v930h924v-930zM929 -56v788h-758v-788h758z" />
    <glyph glyph-name="uni25B2" unicode="&#x25b2;" horiz-adv-x="800" 
d="M400 710l286 -684h-572z" />
    <glyph glyph-name="uni25B3" unicode="&#x25b3;" horiz-adv-x="800" 
d="M699 18h-598l299 713zM570 103l-170 407l-170 -407h340z" />
    <glyph glyph-name="uni25B6" unicode="&#x25b6;" horiz-adv-x="836" 
d="M790 338l-684 -286v572z" />
    <glyph glyph-name="uni25B7" unicode="&#x25b7;" horiz-adv-x="836" 
d="M811 338l-713 -299v598zM183 508v-340l407 170z" />
    <glyph glyph-name="uni25BC" unicode="&#x25bc;" horiz-adv-x="800" 
d="M686 650l-286 -684l-286 684h572z" />
    <glyph glyph-name="uni25BD" unicode="&#x25bd;" horiz-adv-x="800" 
d="M699 658l-299 -713l-299 713h598zM230 573l170 -407l170 407h-340z" />
    <glyph glyph-name="uni25C0" unicode="&#x25c0;" horiz-adv-x="836" 
d="M730 624v-572l-684 286z" />
    <glyph glyph-name="uni25C1" unicode="&#x25c1;" horiz-adv-x="836" 
d="M738 637v-598l-713 299zM246 338l407 -170v340z" />
    <glyph glyph-name="lozenge" unicode="&#x25ca;" 
d="M477 339l-188 -339h-81l-186 336l189 339h81zM382 330l-137 239l-127 -223l137 -240z" />
    <glyph glyph-name="circle" unicode="&#x25cb;" horiz-adv-x="1100" 
d="M1039 338q0 -238 -126 -364.5t-363 -126.5q-235 0 -362 126.5t-127 364.5t127 364.5t362 126.5q237 0 363 -126.5t126 -364.5zM954 338q0 420 -404 420t-404 -420t404 -420t404 420z" />
    <glyph glyph-name="uni25CF" unicode="&#x25cf;" horiz-adv-x="1100" 
d="M76 338q0 231 122.5 354t351.5 123q228 0 350 -123t122 -354q0 -230 -122.5 -353t-349.5 -123q-229 0 -351.5 123t-122.5 353z" />
    <glyph glyph-name="uniE1C2" unicode="&#xe1c2;" horiz-adv-x="1100" 
d="M1023 338q0 -230 -122 -353t-349 -123q-230 0 -352.5 123t-122.5 353q0 231 122.5 354t352.5 123q227 0 349 -123t122 -354zM665 55h123l-225 311l205 258h-116l-183 -241h-1v241h-106v-569h106v265h1z" />
    <glyph glyph-name="uniE1C3" unicode="&#xe1c3;" horiz-adv-x="1100" 
d="M1023 338q0 -230 -122 -353t-349 -123q-230 0 -352.5 123t-122.5 353q0 231 122.5 354t352.5 123q227 0 349 -123t122 -354zM624 580q0 37 -13 49t-55 12t-55.5 -12t-13.5 -49t13.5 -49.5t55.5 -12.5q41 0 54.5 12.5t13.5 49.5zM386 68h330v73h-103v307h-218v-73h110
v-234h-119v-73z" />
    <glyph glyph-name="uniE1C4" unicode="&#xe1c4;" horiz-adv-x="1100" 
d="M785 55h-123l-196 265h-1v-265h-106v569h106v-241h1l183 241h117l-205 -258zM1039 338q0 -238 -126 -364.5t-363 -126.5q-235 0 -362 126.5t-127 364.5t127 364.5t362 126.5q237 0 363 -126.5t126 -364.5zM954 338q0 420 -404 420t-404 -420t404 -420t404 420z" />
    <glyph glyph-name="apple" unicode="&#xf8ff;" horiz-adv-x="1000" 
d="M700 135l-18 -5l35 -82l-34 -9l34 -78l-35 -9l11 -26l-33 -76h-59q-4 -22 -32 -36t-68 -14q-41 0 -69.5 14.5t-31.5 35.5h-59l-58 137l34 10l-34 81l37 9l-20 50v83q-71 79 -71 184q0 112 79.5 191t192.5 79q111 0 190.5 -79t79.5 -191q0 -108 -71 -184v-85zM576 248h58
q72 61 72 156q0 85 -60.5 145t-144.5 60q-86 0 -146.5 -60t-60.5 -145q0 -96 73 -156h58l-18 143q-12 -3 -41 -14q-11 -4 -16 15q-6 27 4 41q2 3 5 4q73 23 142 23q65 0 143 -23q11 -3 9 -34q-2 -28 -15 -26q-2 0 -3 1q-16 6 -43 13zM636 -12l-15 37l-257 -67l26 -63h221
l13 32l-6 12l-77 -19l-15 41zM633 167v29h-266v-55l16 -38zM530 248l14 150q-14 2 -42 2q-32 0 -47 -2l16 -150h59zM636 77l-16 37l-257 -65l17 -38zM537 883l-12 -154q-25 3 -50 0l-12 154q22 2 37 2t37 -2zM846 700l-98 -84q-17 20 -36 36l84 98q28 -23 50 -50zM252 616
l-98 84q23 27 50 50l84 -98q-21 -16 -36 -36zM174 379l-128 -11q-3 36 0 71l128 -10v-50zM954 368l-128 11q2 25 0 50l128 10q3 -36 0 -71zM505 425v3q0 2 -3 1v-1q2 1 2 0q-2 0 -2 -2q0 -1 2 -1h1zM494 426v3h-1v-3h-1v3h-1v-3q0 -1 1.5 -1t1.5 1zM508 428v1q-4 0 -2 -3v-1
q5 0 2 3zM510 424q1 4 0 7h-1q1 -4 0 -7h1zM501 424q-1 3 0 7h-1q-1 -4 0 -7h1zM498 425v1v2v1h-2q-1 -3 2 -4zM490 425v1h-1v4h-1v-5h2zM503 426q0 1 1 1z" />
    <glyph glyph-name="s_t" unicode="&#xfb06;" horiz-adv-x="737" 
d="M704 83l10 -61q-62 -31 -119 -31q-66 0 -93 30t-27 102v302h-72v73h72v24q0 61 -23 87.5t-70 26.5q-40 0 -64.5 -23t-24.5 -62q0 -52 44 -75l-12 -56q-52 15 -96 15q-41 0 -63 -17.5t-22 -44.5q0 -28 23.5 -46.5t57.5 -31t68 -27.5t57.5 -47t23.5 -79q0 -67 -51 -109
t-138 -42q-76 0 -150 38l10 55q75 -19 123 -19t72.5 19.5t24.5 49.5q0 28 -23.5 46.5t-57 31t-67 27.5t-57 47t-23.5 79q0 63 47.5 102.5t124.5 39.5l38 -4q-32 19 -32 68q0 63 50.5 100.5t129.5 37.5q182 0 182 -177v-34h123v-73h-123v-277q0 -45 11.5 -62t41.5 -17
q29 0 74 14z" />
    <glyph glyph-name="uniFEFF" unicode="&#xfeff;" horiz-adv-x="0" 
 />
    <glyph glyph-name="u1F137" unicode="&#x1f137;" horiz-adv-x="1100" 
d="M777 55h-106v253h-242v-253h-106v569h106v-228h242v228h106v-569zM1012 -127h-924v930h924v-930zM929 -56v788h-758v-788h758z" />
    <glyph glyph-name="u1F13F" unicode="&#x1f13f;" horiz-adv-x="1100" 
d="M480 55h-104v569q27 0 88.5 0.5t90.5 0.5q221 0 221 -177q0 -88 -60 -142t-190 -54h-46v-197zM480 550v-222h59q125 0 125 111q0 58 -28.5 84.5t-98.5 26.5h-57zM1012 -127h-924v930h924v-930zM929 -56v788h-758v-788h758z" />
    <glyph glyph-name="u1F177" unicode="&#x1f177;" horiz-adv-x="1100" 
d="M995 -115h-890v906h890v-906zM671 55h106v569h-106v-228h-242v228h-106v-569h106v253h242v-253z" />
    <glyph glyph-name="u1F17F" unicode="&#x1f17f;" horiz-adv-x="1100" 
d="M995 -115h-890v906h890v-906zM370 55h105v197h45q131 0 190.5 54t59.5 142q0 177 -220 177q-29 0 -91 -0.5t-89 -0.5v-569zM475 328v222h56q70 0 99 -26.5t29 -84.5q0 -111 -126 -111h-58z" />
    <glyph glyph-name="U1F6C8" unicode="&#x1f6c8;" horiz-adv-x="1100" 
d="M1039 338q0 -238 -126 -364.5t-363 -126.5q-235 0 -362 126.5t-127 364.5t127 364.5t362 126.5q237 0 363 -126.5t126 -364.5zM954 338q0 420 -404 420t-404 -420t404 -420t404 420zM622 580q0 -37 -13.5 -49.5t-54.5 -12.5q-42 0 -55.5 12.5t-13.5 49.5q0 36 13.5 48.5
t55.5 12.5t55 -12t13 -49zM714 68h-330v73h120v234h-111v73h218v-307h103v-73z" />
    <glyph glyph-name="L_a_t_n_C_a_p_s" horiz-adv-x="935" 
d="M212 500h-160v337h54v-295h106v-42zM436 500h-40l-4 26q-38 -31 -77 -31q-75 0 -75 69q0 40 31.5 62.5t95.5 22.5h18v23q0 44 -52 44q-28 0 -73 -15l-7 32q47 20 94 20q89 0 89 -75v-178zM385 557v59h-21q-73 0 -73 -45q0 -39 38 -39q26 0 56 25zM628 541l5 -30
q-31 -16 -59 -16q-33 0 -46.5 15t-13.5 52v150h-36v37h37q7 31 13 71h37v-71h61v-37h-61v-138q0 -23 5.5 -31.5t20.5 -8.5q13 0 37 7zM879 500h-52q0 26 1 72t1 60q0 45 -10 62.5t-31 17.5q-24 0 -54 -25v-187h-52v249h42l4 -28q36 33 77 33q76 0 76 -112q0 -14 -1 -64
t-1 -78zM199 73l23 -27q-38 -51 -100 -51q-122 0 -122 168q0 84 34 131.5t92 47.5q61 0 90 -55l-26 -23q-22 35 -58 35q-37 0 -56 -36t-19 -91q0 -133 75 -133q36 0 67 34zM448 0h-40l-4 26q-38 -31 -77 -31q-75 0 -75 69q0 40 31.5 62.5t95.5 22.5h18v23q0 44 -52 44
q-28 0 -73 -15l-7 32q47 20 94 20q89 0 89 -75v-178zM397 57v59h-21q-73 0 -73 -45q0 -39 38 -39q26 0 56 25zM574 -87h-51v336h41l5 -27q37 32 71 32q40 0 63 -33.5t23 -86.5q0 -70 -33.5 -104.5t-88.5 -34.5q-20 0 -30 2v-84zM574 189v-151q12 -5 34 -5q29 0 47 23.5
t18 69.5q0 41 -13 64.5t-35 23.5q-21 0 -51 -25zM765 14l5 28q37 -10 62 -10q48 0 48 35q0 17 -18 28t-39 17t-39 23.5t-18 46.5q0 32 24 51.5t63 19.5q33 0 64 -15l-7 -28q-27 7 -48 7q-42 0 -42 -31q0 -17 18 -28t39.5 -17t39.5 -23.5t18 -46.5q0 -34 -25.5 -55t-69.5 -21
q-37 0 -75 19z" />
    <glyph glyph-name="IJ.alt1" horiz-adv-x="555" 
d="M191 0h-108v675h108v-675zM472 675v-445q0 -150 -107 -240l-66 44q38 43 51.5 87t13.5 110v444h108z" />
    <glyph glyph-name="IJ.alt2" horiz-adv-x="556" 
d="M191 0h-108v675h108v-675zM472 675v-596q0 -120 -50.5 -182.5t-184.5 -76.5l-15 66q84 19 113 61t29 131v597h108z" />
    <glyph glyph-name="J.alt1" horiz-adv-x="281" 
d="M198 675v-445q0 -150 -107 -240l-66 44q38 43 51.5 87t13.5 110v444h108z" />
    <glyph glyph-name="J.alt2" horiz-adv-x="281" 
d="M198 675v-596q0 -120 -50.5 -182.5t-184.5 -76.5l-15 66q84 19 113 61t29 131v597h108z" />
    <glyph glyph-name="Jcircumflex.alt2" horiz-adv-x="281" 
d="M198 675v-596q0 -120 -50.5 -182.5t-184.5 -76.5l-15 66q84 19 113 61t29 131v597h108zM144 856l148 -88l-28 -45l-121 57l-120 -57l-28 44z" />
    <glyph glyph-name="Jcircumflex.alt1" horiz-adv-x="281" 
d="M198 675v-445q0 -150 -107 -240l-66 44q38 43 51.5 87t13.5 110v444h108zM144 856l148 -88l-28 -45l-121 57l-120 -57l-28 44z" />
    <glyph glyph-name="L_a_t_n_L_o_w_e_r" horiz-adv-x="1215" 
d="M407 129q0 -67 -30.5 -100.5t-85.5 -33.5q-105 0 -105 125q0 67 30.5 100.5t84.5 33.5q106 0 106 -125zM734 249h50q-17 -115 -67 -249h-59l-42 154l-8 34l-6 -34l-37 -154h-61l-69 249h55l39 -148l10 -44l8 38l36 154h58l43 -158l8 -33q34 118 42 191zM564 500h-40
l-4 26q-38 -31 -77 -31q-75 0 -75 69q0 40 31.5 62.5t95.5 22.5h18v23q0 44 -52 44q-28 0 -73 -15l-7 32q47 20 93 20q90 0 90 -75v-178zM1020 116h-148v-4q0 -77 62 -77q35 0 77 14l9 -29q-47 -25 -97 -25q-104 0 -104 122q0 66 28.5 101.5t79.5 35.5q101 0 93 -138z
M1006 500h-51q0 26 1 72t1 60q0 45 -10.5 62.5t-31.5 17.5q-23 0 -53 -25v-187h-52v249h42l4 -28q36 33 77 33q75 0 75 -112q0 -14 -1 -64t-1 -78zM340 500h-161v337h54v-295h107v-42zM160 0h-160v337h54v-295h106v-42zM756 541l5 -30q-32 -16 -59 -16q-34 0 -47 15t-13 52
v150h-36v37h37q7 31 13 71h37v-71h61v-37h-61v-138q0 -23 5.5 -31.5t20.5 -8.5q13 0 37 7zM353 118q0 54 -13.5 75.5t-43.5 21.5q-57 0 -57 -84q0 -54 14 -76t43 -22q57 0 57 85zM1215 248l-6 -46q-15 3 -21 3q-19 0 -53 -41v-164h-51v249h42l5 -42q35 46 62 46q12 0 22 -5z
M513 557v59h-21q-74 0 -74 -45q0 -39 39 -39q26 0 56 25zM872 149h98v1q0 68 -46 68q-24 0 -37 -19t-15 -50z" />
    <glyph glyph-name="c_h" horiz-adv-x="943" 
d="M868 0h-102q0 54 1 146t1 117q0 91 -20 126.5t-63 35.5q-46 0 -107 -50v-375h-103v640q-21 5 -51 5q-50 0 -76 -22.5t-26 -64.5q0 -55 56 -101l-32 -58q-38 31 -88 31q-49 0 -77.5 -46t-28.5 -131q0 -183 106 -183q52 0 102 45l29 -55q-69 -69 -153 -69q-94 0 -143 63.5
t-49 187.5q0 117 53.5 191t143.5 74q16 0 30 -6q-28 23 -28 73q0 66 56.5 105.5t158.5 39.5q26 0 56 -2.5t47 -5.5l17 -3v-258q69 58 143 58t112.5 -52.5t38.5 -170.5q0 -25 -2 -125.5t-2 -159.5z" />
    <glyph glyph-name="c_k" horiz-adv-x="873" 
d="M860 0h-122l-157 253h-3v-253h-103v640q-21 5 -51 5q-50 0 -76 -22.5t-26 -64.5q0 -55 56 -101l-32 -58q-38 31 -88 31q-49 0 -77.5 -46t-28.5 -131q0 -183 106 -183q52 0 102 45l29 -55q-69 -69 -153 -69q-94 0 -143 63.5t-49 187.5q0 117 53.5 191t143.5 74q16 0 30 -6
q-28 23 -28 73q0 66 56.5 105.5t158.5 39.5q26 0 56 -2.5t47 -5.5l17 -3v-414h3l139 204h121l-166 -213z" />
    <glyph glyph-name="c_t" horiz-adv-x="763" 
d="M726 425h-123v-277q0 -45 11.5 -62t41.5 -17q29 0 74 14l10 -61q-62 -31 -119 -31q-66 0 -93 30t-27 102v302h-72v73h72v24q0 61 -22.5 87.5t-69.5 26.5q-39 0 -63 -21.5t-24 -58.5q0 -52 54 -99l-30 -59q-39 32 -88 32t-77.5 -46t-28.5 -131q0 -183 108 -183
q55 0 108 47l34 -53q-68 -73 -165 -73q-94 0 -143.5 63.5t-49.5 187.5q0 118 53.5 191.5t143.5 73.5q16 0 30 -6q-28 23 -28 73q0 61 50.5 98t130.5 37q92 0 135.5 -42.5t43.5 -134.5v-34h123v-73z" />
    <glyph glyph-name="ccedilla_t" horiz-adv-x="763" 
d="M726 425h-123v-277q0 -45 11.5 -62t41.5 -17q29 0 74 14l10 -61q-62 -31 -119 -31q-66 0 -93 30t-27 102v302h-72v73h72v24q0 61 -22.5 87.5t-69.5 26.5q-39 0 -63 -21.5t-24 -58.5q0 -52 54 -99l-30 -59q-39 32 -88 32t-77.5 -46t-28.5 -131q0 -183 108 -183
q55 0 108 47l34 -53q-68 -73 -165 -73q-94 0 -143.5 63.5t-49.5 187.5q0 118 53.5 191.5t143.5 73.5q16 0 30 -6q-28 23 -28 73q0 61 50.5 98t130.5 37q92 0 135.5 -42.5t43.5 -134.5v-34h123v-73zM190 -43h89q11 -82 -77 -138l-59 27q32 28 42 51.5t5 59.5z" />
    <glyph glyph-name="i.dotaccent" horiz-adv-x="253" 
d="M189 636q0 -33 -12 -44.5t-50 -11.5t-50.5 11.5t-12.5 44.5t12.5 44.5t50.5 11.5t50 -11.5t12 -44.5zM178 0h-103v498h103v-498z" />
    <glyph glyph-name="ij.alt1" horiz-adv-x="543" 
d="M468 498v-481q0 -111 -53 -154t-149 -43q-78 0 -166 35l9 58q88 -15 146 -15t84 22t26 77v17q0 27 2 43q-75 -59 -144 -59q-152 0 -152 221q0 28 2 125.5t2 153.5h102q0 -51 -1.5 -141t-1.5 -119q0 -88 20 -124t60 -36q48 0 111 50v370h103zM192 636q0 -33 -12.5 -44.5
t-49.5 -11.5q-39 0 -51.5 11.5t-12.5 44.5t13 44.5t51 11.5t50 -11.5t12 -44.5zM477 636q0 -33 -12.5 -44.5t-49.5 -11.5q-39 0 -51.5 11.5t-12.5 44.5t13 44.5t51 11.5t50 -11.5t12 -44.5z" />
    <glyph glyph-name="i_j" horiz-adv-x="543" 
d="M468 498v-481q0 -111 -53 -154t-149 -43q-78 0 -166 35l9 58q88 -15 146 -15t84 22t26 77v17q0 27 2 43q-75 -59 -144 -59q-152 0 -152 221q0 28 2 125.5t2 153.5h102q0 -51 -1.5 -141t-1.5 -119q0 -88 20 -124t60 -36q48 0 111 50v370h103zM192 636q0 -33 -12.5 -44.5
t-49.5 -11.5q-39 0 -51.5 11.5t-12.5 44.5t13 44.5t51 11.5t50 -11.5t12 -44.5zM477 636q0 -33 -12.5 -44.5t-49.5 -11.5q-39 0 -51.5 11.5t-12.5 44.5t13 44.5t51 11.5t50 -11.5t12 -44.5z" />
    <glyph glyph-name="scedilla_t" horiz-adv-x="737" 
d="M704 83l10 -61q-62 -31 -119 -31q-66 0 -93 30t-27 102v302h-72v73h72v24q0 61 -23 87.5t-70 26.5q-40 0 -64.5 -23t-24.5 -62q0 -52 44 -75l-12 -56q-52 15 -96 15q-41 0 -63 -17.5t-22 -44.5q0 -28 23.5 -46.5t57.5 -31t68 -27.5t57.5 -47t23.5 -79q0 -67 -51 -109
t-138 -42q-76 0 -150 38l10 55q75 -19 123 -19t72.5 19.5t24.5 49.5q0 28 -23.5 46.5t-57 31t-67 27.5t-57 47t-23.5 79q0 63 47.5 102.5t124.5 39.5l38 -4q-32 19 -32 68q0 63 50.5 100.5t129.5 37.5q182 0 182 -177v-34h123v-73h-123v-277q0 -45 11.5 -62t41.5 -17
q29 0 74 14zM147 -43h89q11 -82 -77 -138l-59 27q32 28 42 51.5t5 59.5z" />
    <glyph glyph-name="scommaaccent_t" horiz-adv-x="737" 
d="M704 83l10 -61q-62 -31 -119 -31q-66 0 -93 30t-27 102v302h-72v73h72v24q0 61 -23 87.5t-70 26.5q-40 0 -64.5 -23t-24.5 -62q0 -52 44 -75l-12 -56q-52 15 -96 15q-41 0 -63 -17.5t-22 -44.5q0 -28 23.5 -46.5t57.5 -31t68 -27.5t57.5 -47t23.5 -79q0 -67 -51 -109
t-138 -42q-76 0 -150 38l10 55q75 -19 123 -19t72.5 19.5t24.5 49.5q0 28 -23.5 46.5t-57 31t-67 27.5t-57 47t-23.5 79q0 63 47.5 102.5t124.5 39.5l38 -4q-32 19 -32 68q0 63 50.5 100.5t129.5 37.5q182 0 182 -177v-34h123v-73h-123v-277q0 -45 11.5 -62t41.5 -17
q29 0 74 14zM199 -36q46 0 46 -44q0 -80 -121 -99l-15 35q53 20 53 43q0 4 -4.5 11t-4.5 18q0 16 12 26t34 10z" />
    <glyph glyph-name="grave.cap" horiz-adv-x="342" 
d="M282 770l-32 -47l-190 66l48 67z" />
    <glyph glyph-name="acute.cap" horiz-adv-x="342" 
d="M60 770l174 86l48 -67l-190 -66z" />
    <glyph glyph-name="circumflex.cap" horiz-adv-x="417" 
d="M209 856l148 -88l-28 -45l-121 57l-120 -57l-28 44z" />
    <glyph glyph-name="caron.cap" horiz-adv-x="417" 
d="M208 723l-148 88l28 45l122 -57l120 57l27 -44z" />
    <glyph glyph-name="uni0315.cap" horiz-adv-x="232" 
d="M172 738l-58 -178l-54 10l34 184z" />
    <glyph glyph-name="tilde.cap" horiz-adv-x="463" 
d="M358 844l44 -30q-25 -46 -51 -66t-64 -20q-36 0 -72 26t-50 26q-15 0 -27 -10t-34 -40l-44 30q26 45 52 65.5t64 20.5q36 0 72 -26t50 -26q15 0 26.5 10t33.5 40z" />
    <glyph glyph-name="dieresis.cap" horiz-adv-x="428" 
d="M367 780q0 -27 -11 -37.5t-41 -10.5q-31 0 -42 10t-11 38q0 27 11 37.5t42 10.5q30 0 41 -10t11 -38zM165 780q0 -27 -11 -37.5t-41 -10.5t-41.5 10t-11.5 38q0 27 11.5 37.5t41.5 10.5q31 0 41.5 -10t10.5 -38z" />
    <glyph glyph-name="dieresis.cap.narrow" horiz-adv-x="373" 
d="M313 780q0 -27 -10.5 -37.5t-38.5 -10.5q-30 0 -40.5 10t-10.5 38q0 27 10.5 37.5t40.5 10.5q28 0 38.5 -10t10.5 -38zM160 780q0 -27 -10.5 -37.5t-38.5 -10.5q-29 0 -40 10t-11 38q0 27 11 37.5t40 10.5t39 -10t10 -38z" />
    <glyph glyph-name="dieresis.narrow" horiz-adv-x="387" 
d="M327 636q0 -28 -10.5 -38.5t-40.5 -10.5t-40.5 10t-10.5 39t10.5 40t40.5 11q31 0 41 -10.5t10 -40.5zM162 636q0 -28 -10 -38.5t-40 -10.5q-31 0 -41.5 10t-10.5 39q0 30 11 40.5t41 10.5t40 -10.5t10 -40.5z" />
    <glyph glyph-name="macron.cap" horiz-adv-x="398" 
d="M338 747h-278v69h278v-69z" />
    <glyph glyph-name="breve.cap" horiz-adv-x="399" 
d="M275 858h63q0 -61 -37 -100t-102 -39q-66 0 -102.5 37.5t-36.5 101.5h64q0 -30 19 -50t56 -20t56.5 20.5t19.5 49.5z" />
    <glyph glyph-name="ring.cap" horiz-adv-x="335" 
d="M275 776q0 -39 -29.5 -61.5t-80.5 -22.5q-105 0 -105 80q0 38 30 61t81 23q104 0 104 -80zM209 773q0 40 -41 40q-42 0 -42 -40q0 -39 42 -39q41 0 41 39z" />
    <glyph glyph-name="ring.big" horiz-adv-x="294" 
d="M260 744q0 -45 -30 -70.5t-82 -25.5q-109 0 -109 93q0 42 31.5 68t81.5 26q108 0 108 -91zM192 741q0 43 -42 43q-43 0 -43 -43q0 -22 10 -32t33 -10q42 0 42 42z" />
    <glyph glyph-name="ringacute.cap" horiz-adv-x="330" 
d="M259 748q0 -26 -27.5 -42.5t-74.5 -16.5q-97 0 -97 54q0 25 28 42t74 17q97 0 97 -54zM196 746q0 25 -36 25q-37 0 -37 -27q0 -24 37 -24q36 0 36 26zM97 845l150 40l23 -41l-160 -28z" />
    <glyph glyph-name="ringacute" horiz-adv-x="355" 
d="M268 632q0 -39 -28.5 -61.5t-77.5 -22.5q-102 0 -102 80q0 38 29 61t78 23q101 0 101 -80zM205 629q0 40 -41 40q-40 0 -40 -40q0 -21 9 -30t31 -9q41 0 41 39zM120 775l101 110l73 -39l-123 -96z" />
    <glyph glyph-name="hungarumlaut.cap" horiz-adv-x="544" 
d="M484 809l-185 -91l-40 34l165 107zM270 819l-166 -102l-44 29l147 119z" />
    <glyph glyph-name="dotaccent.cap" horiz-adv-x="243" 
d="M180 782q0 -29 -12 -39t-46 -10q-36 0 -47.5 10t-11.5 39t12 39t47 10q36 0 47 -9.5t11 -39.5z" />
    <glyph glyph-name="dotaccent.i" horiz-adv-x="246" 
d="M186 636q0 -33 -12.5 -44.5t-49.5 -11.5q-39 0 -51.5 11.5t-12.5 44.5t13 44.5t51 11.5t50 -11.5t12 -44.5z" />
    <glyph glyph-name="dotaccent.asc" horiz-adv-x="241" 
d="M181 816q0 -28 -12 -38t-48 -10q-37 0 -49 9.5t-12 38.5q0 30 12.5 40t48.5 10q37 0 48.5 -10t11.5 -40z" />
    <glyph glyph-name="exclamdown.cap" horiz-adv-x="364" 
d="M113 513h89l18 -513h-126zM92 625q0 33 13.5 45t52.5 12t52 -12t13 -45q0 -34 -13 -46.5t-52 -12.5t-52.5 12.5t-13.5 46.5z" />
    <glyph glyph-name="questiondown.cap" 
d="M62 152q0 41 16 74t38.5 56t45.5 45t40 52.5t18 66.5l1 67h89l3 -70q3 -40 -10 -74t-33.5 -58t-41 -45.5t-35.5 -46.5t-15 -51q0 -43 27 -68.5t77 -25.5q60 0 120 23l27 -64q-89 -42 -176 -42q-95 0 -143 43t-48 118zM201 625q0 34 13 45.5t52 11.5t52 -12t13 -45
q0 -34 -13.5 -46.5t-52.5 -12.5q-38 0 -51 12.5t-13 46.5z" />
    <glyph glyph-name="guilsinglleft.cap" horiz-adv-x="305" 
d="M241 170l-70 -24l-127 198l128 197l69 -25l-93 -172z" />
    <glyph glyph-name="guilsinglright.cap" horiz-adv-x="306" 
d="M65 517l69 24l127 -197l-128 -198l-68 25l92 173z" />
    <glyph glyph-name="guillemotleft.cap" horiz-adv-x="506" 
d="M237 170l-68 -24l-128 198l128 197l68 -25l-93 -172zM431 178l-66 -23l-121 189l122 189l65 -24l-85 -165z" />
    <glyph glyph-name="guillemotright.cap" horiz-adv-x="506" 
d="M269 517l68 24l127 -197l-128 -198l-67 25l93 173zM74 509l66 24l121 -189l-121 -189l-66 24l86 165z" />
    <glyph glyph-name="bar.cap" horiz-adv-x="252" 
d="M171 -123h-91v926h91v-926z" />
    <glyph glyph-name="brokenbar.cap" horiz-adv-x="252" 
d="M171 249v-372h-89v372h89zM82 415v391h89v-391h-89z" />
    <glyph glyph-name="hyphen.cap" horiz-adv-x="235" 
d="M234 300h-205v78h205v-78z" />
    <glyph glyph-name="endash.cap" 
d="M455 307h-410v75h410v-75z" />
    <glyph glyph-name="emdash.cap" horiz-adv-x="1000" 
d="M860 307h-720v75h720v-75z" />
    <glyph glyph-name="uni2015.cap" horiz-adv-x="1000" 
d="M860 307h-720v75h720v-75z" />
    <glyph glyph-name="periodcentered.cap" horiz-adv-x="267" 
d="M196 348q0 -37 -12 -49.5t-50 -12.5t-50 12.5t-12 48.5q0 38 12 50.5t51 12.5q37 0 49 -12.5t12 -49.5z" />
    <glyph glyph-name="parenleft.cap" horiz-adv-x="310" 
d="M268 -98l-69 -24q-132 199 -132 444q0 248 132 454l69 -24q-105 -198 -105 -423q0 -227 105 -427z" />
    <glyph glyph-name="parenright.cap" horiz-adv-x="310" 
d="M111 -122l-69 24q105 198 105 423q0 227 -105 427l69 24q132 -199 132 -444q0 -248 -132 -454z" />
    <glyph glyph-name="bracketleft.cap" horiz-adv-x="357" 
d="M293 -123h-182v912h182v-65h-93v-782h93v-65z" />
    <glyph glyph-name="bracketright.cap" horiz-adv-x="357" 
d="M246 -123h-183v65h94v782h-94v65h183v-912z" />
    <glyph glyph-name="braceleft.cap" horiz-adv-x="388" 
d="M311 -123h-45q-71 0 -99.5 32.5t-28.5 98.5v208q0 84 -65 84h-25v76h25q36 0 50.5 21t14.5 60v202q0 130 131 130h42v-62h-28q-56 0 -56 -68v-178q0 -124 -86 -142q86 -20 86 -145v-187q0 -37 12.5 -52.5t43.5 -15.5h28v-62z" />
    <glyph glyph-name="braceright.cap" horiz-adv-x="388" 
d="M339 300h-25q-36 0 -50.5 -21t-14.5 -60v-212q0 -130 -131 -130h-42v62h28q56 0 56 68v188q0 124 86 142q-86 20 -86 145v177q0 38 -13 53t-44 15h-27v62h45q71 0 99.5 -32.5t28.5 -98.5v-198q0 -84 65 -84h25v-76z" />
    <glyph glyph-name="at.cap" horiz-adv-x="1016" 
d="M740 14l17 -60q-131 -62 -289 -62q-198 0 -298.5 96.5t-100.5 282.5q0 219 134.5 361t366.5 142q178 0 264.5 -82t86.5 -224q0 -150 -79.5 -243.5t-226.5 -93.5h-48l-1 89q-79 -97 -153 -97q-126 0 -126 168q0 130 68 201.5t186 71.5q79 0 147 -21l-38 -336
q85 0 131 66.5t46 172.5q0 125 -62 191.5t-210 66.5q-98 0 -174.5 -34t-122.5 -93t-70 -132.5t-24 -157.5q0 -167 75 -245.5t247 -78.5q58 0 130.5 15t123.5 36zM561 299l21 181q-25 7 -57 7q-65 0 -99 -47t-34 -131q0 -54 12.5 -79t42.5 -25q47 0 114 94z" />
    <glyph glyph-name="Euro.fitted" horiz-adv-x="556" 
d="M187 446h170v-67h-178q-2 -26 -2 -36q0 -28 2 -43h178v-67h-170q9 -78 48 -119.5t102 -41.5q75 0 131 64l42 -53q-75 -93 -193 -93q-102 0 -165.5 62t-77.5 181h-66v67h60q-1 11 -1 32q0 15 2 47h-61v67h71q18 110 85 174.5t160 64.5q123 0 178 -104l-46 -44
q-44 67 -126 67q-61 0 -97.5 -44.5t-45.5 -113.5z" />
    <glyph glyph-name="dollar.slashed.oldstyle" horiz-adv-x="566" 
d="M489 603l-22 -56q-61 23 -114 29l-31 -199q35 -11 58 -19.5t52.5 -25t47 -34.5t29.5 -46t12 -63q0 -83 -66.5 -133.5t-190.5 -51.5l-23 -110h-59l11 115q-80 13 -149 54l28 59q53 -29 132 -40l33 213q-40 13 -67 25.5t-55.5 33.5t-43 52t-14.5 71q0 77 62 125.5t173 49.5
l22 103h59l-9 -108q66 -11 125 -44zM417 176q0 36 -28.5 58t-82.5 40l-31 -195q142 6 142 97zM159 490q0 -33 24 -53.5t70 -37.5l27 179q-60 -3 -90.5 -26.5t-30.5 -61.5z" />
    <glyph glyph-name="cent.fitted" horiz-adv-x="458" 
d="M386 226l33 -53q-56 -52 -122 -63l-9 -113h-63l-7 108q-172 18 -172 226q0 98 46.5 160t124.5 78l8 108h63l8 -107q63 -9 110 -56l-37 -53q-48 38 -95 38q-53 0 -87 -40.5t-34 -113.5q0 -85 31.5 -125t86.5 -40q59 0 115 46z" />
    <glyph glyph-name="cent.slashed.oldstyle" horiz-adv-x="502" 
d="M429 223l29 -54q-80 -66 -181 -63l-22 -106h-59l10 110q-160 37 -160 224q0 114 67 175.5t164 63.5l21 102h60l-10 -109q61 -12 106 -52l-30 -53q-44 27 -87 34l-49 -313q75 -7 141 41zM146 342q0 -113 73 -147l46 300q-57 -6 -88 -47.5t-31 -105.5z" />
    <glyph glyph-name="sterling.fitted" horiz-adv-x="447" 
d="M421 0h-390v69q53 54 70 107t8 129h-86v70h74q-18 79 -18 118q0 97 46.5 143.5t130.5 46.5q82 0 153 -40l-16 -57q-63 19 -109 19q-55 0 -76 -26.5t-21 -78.5q0 -25 19 -125h144v-70h-134q8 -74 -5.5 -125t-58.5 -97h269v-83z" />
    <glyph glyph-name="florin.fitted" horiz-adv-x="465" 
d="M437 651l-17 -58q-34 15 -64 15q-34 0 -50 -19t-21 -62l-17 -150h131v-70h-136l-29 -264q-15 -154 -140 -154q-56 0 -107 32l16 57q30 -15 60 -15q32 0 47.5 19t20.5 62l29 263h-103v70h108l17 151q15 154 144 154q60 0 111 -31z" />
    <glyph glyph-name="yen.fitted" horiz-adv-x="480" 
d="M428 239h-137v-78h137v-69h-137v-92h-102v92h-137v69h137v78h-137v69h137v19q-97 146 -189 348h115q68 -163 133 -267q60 93 126 267h107q-102 -220 -190 -348v-19h137v-69z" />
    <glyph glyph-name="H_a_n_g_T_a_b_P_r_o_p" horiz-adv-x="1666" 
d="M528 500h-54v154h-138v-154h-54v337h54v-138h138v138h54v-337zM783 500h-40l-4 26q-38 -31 -77 -31q-75 0 -75 69q0 40 31.5 62.5t95.5 22.5h18v23q0 44 -52 44q-29 0 -72 -15l-8 32q47 20 94 20q89 0 89 -75v-178zM732 557v59h-22q-72 0 -72 -45q0 -39 39 -39
q25 0 55 25zM1054 500h-52q0 26 1 72t1 60q0 45 -10 62.5t-31 17.5q-22 0 -54 -25v-187h-52v249h42l5 -28q36 33 77 33q75 0 75 -112q0 -14 -1 -64t-1 -78zM1317 744v-236q0 -55 -26.5 -76.5t-74.5 -21.5q-38 0 -83 17l4 29q45 -7 74 -7t41.5 11t12.5 39v32q-35 -26 -67 -26
q-39 0 -62 33t-23 83q0 66 35 99.5t90 33.5q35 0 79 -10zM1265 568v142q-15 6 -35 6q-29 0 -46.5 -23t-17.5 -64q0 -40 13 -63t35 -23t51 25zM218 295h-82v-295h-54v295h-82v42h218v-42zM408 0h-40l-4 26q-38 -31 -77 -31q-75 0 -75 69q0 40 31.5 62.5t95.5 22.5h18v23
q0 44 -52 44q-28 0 -73 -15l-7 32q47 20 94 20q89 0 89 -75v-178zM357 57v59h-21q-73 0 -73 -45q0 -39 38 -39q28 0 56 25zM483 4v350h51v-128q35 28 66 28q40 0 63 -34t23 -86q0 -71 -34 -105t-93 -34q-36 0 -76 9zM534 189v-151q13 -5 35 -5q28 0 46 23.5t18 68.5
q0 41 -12.5 65t-34.5 24t-52 -25zM819 0h-54v337q13 0 41 0.5t46 0.5q123 0 123 -104q0 -53 -33.5 -84t-105.5 -31h-17v-119zM819 298v-139h24q75 0 75 70q0 69 -74 69h-25zM1156 248l-6 -46q-15 3 -21 3q-19 0 -53 -41v-164h-51v249h42l5 -42q35 46 62 46q12 0 22 -5z
M1403 129q0 -67 -31 -100.5t-85 -33.5q-105 0 -105 125q0 67 30.5 100.5t84.5 33.5q106 0 106 -125zM1349 118q0 54 -13.5 75.5t-43.5 21.5q-57 0 -57 -84q0 -54 14 -76t44 -22q56 0 56 85zM1514 -87h-52v336h42l4 -27q37 32 72 32q40 0 63 -33.5t23 -86.5
q0 -70 -33.5 -104.5t-88.5 -34.5q-21 0 -30 2v-84zM1514 189v-151q12 -5 34 -5q29 0 47 23.5t18 69.5q0 41 -13 64.5t-35 23.5q-23 0 -51 -25z" />
    <glyph glyph-name="H_a_n_g_P_r_o_p" horiz-adv-x="1035" 
d="M246 500h-54v154h-138v-154h-54v337h54v-138h138v138h54v-337zM501 500h-40l-4 26q-38 -31 -77 -31q-75 0 -75 69q0 40 31.5 62.5t95.5 22.5h18v23q0 44 -52 44q-29 0 -72 -15l-8 32q47 20 94 20q89 0 89 -75v-178zM450 557v59h-22q-72 0 -72 -45q0 -39 39 -39
q25 0 55 25zM772 500h-52q0 26 1 72t1 60q0 45 -10 62.5t-31 17.5q-22 0 -54 -25v-187h-52v249h42l5 -28q36 33 77 33q75 0 75 -112q0 -14 -1 -64t-1 -78zM1035 744v-236q0 -55 -26.5 -76.5t-74.5 -21.5q-38 0 -83 17l4 29q45 -7 74 -7t41.5 11t12.5 39v32q-35 -26 -67 -26
q-39 0 -62 33t-23 83q0 66 35 99.5t90 33.5q35 0 79 -10zM983 568v142q-15 6 -35 6q-29 0 -46.5 -23t-17.5 -64q0 -40 13 -63t35 -23t51 25zM118 0h-54v337q12 0 40 0.5t47 0.5q123 0 123 -104q0 -53 -33.5 -84t-105.5 -31h-17v-119zM118 298v-139h24q75 0 75 70
q0 69 -74 69h-25zM455 248l-6 -46q-15 3 -21 3q-19 0 -53 -41v-164h-51v249h42l5 -42q35 46 62 46q12 0 22 -5zM702 129q0 -67 -31 -100.5t-85 -33.5q-105 0 -105 125q0 67 30.5 100.5t84.5 33.5q106 0 106 -125zM648 118q0 54 -13.5 75.5t-43.5 21.5q-57 0 -57 -84
q0 -54 14 -76t44 -22q56 0 56 85zM813 -87h-52v336h42l4 -27q37 32 72 32q40 0 63 -33.5t23 -86.5q0 -70 -33.5 -104.5t-88.5 -34.5q-21 0 -30 2v-84zM813 189v-151q13 -5 34 -5q29 0 47 23.5t18 69.5q0 41 -13 64.5t-35 23.5q-23 0 -51 -25z" />
    <glyph glyph-name="zero.oldstyle" horiz-adv-x="545" 
d="M497 287q0 -149 -59 -223t-170 -74q-116 0 -168 67t-52 221q0 301 231 301q111 0 164.5 -66.5t53.5 -225.5zM390 280q0 122 -29.5 171.5t-87.5 49.5q-59 0 -88.5 -48.5t-29.5 -166.5q0 -119 28 -167.5t92 -48.5q58 0 86.5 51t28.5 159z" />
    <glyph glyph-name="one.oldstyle" horiz-adv-x="336" 
d="M250 0h-107v465l-112 -41l-25 66l163 79h81v-569z" />
    <glyph glyph-name="two.oldstyle" horiz-adv-x="445" 
d="M409 0h-385v79q158 136 205 195.5t47 118.5q0 100 -101 100q-59 0 -122 -22l-15 70q90 37 175 37q83 0 130 -43.5t47 -125.5q0 -78 -49.5 -143t-187.5 -178h256v-88z" />
    <glyph glyph-name="three.oldstyle" horiz-adv-x="440" 
d="M13 -74l8 63q64 -19 128 -19q132 0 132 123q0 59 -26.5 89t-88.5 30h-64v80h61q102 0 102 109q0 94 -101 94q-62 0 -115 -21l-15 70q74 34 156 34q93 0 138.5 -42.5t45.5 -113.5q0 -66 -28 -106.5t-69 -55.5q117 -27 117 -164q0 -95 -61.5 -151.5t-159.5 -56.5
q-84 0 -160 38z" />
    <glyph glyph-name="four.oldstyle" horiz-adv-x="503" 
d="M246 569h151v-435h87v-87h-87v-151h-102v151h-276v79q122 264 227 443zM295 134v353h-2q-72 -127 -182 -353h184z" />
    <glyph glyph-name="five.oldstyle" horiz-adv-x="454" 
d="M368 480h-204l-12 -182q42 7 75 7q183 0 183 -186q0 -108 -61.5 -169.5t-168.5 -61.5q-78 0 -145 37l8 62q56 -17 118 -17q142 0 142 134q0 118 -126 118q-62 0 -119 -14l22 361h288v-89z" />
    <glyph glyph-name="six.oldstyle" horiz-adv-x="504" 
d="M445 648l-11 -61q-81 18 -132 18q-75 0 -109 -58.5t-36 -188.5q81 45 142 45q82 0 125 -46t43 -129q0 -113 -54 -175t-151 -62q-37 0 -66 8t-56.5 29.5t-45.5 57.5t-29 94t-11 136q0 368 235 368q70 0 156 -36zM159 287v-4q0 -114 27 -164t82 -50q49 0 73 38.5t24 106.5
q0 108 -95 108q-48 0 -111 -35z" />
    <glyph glyph-name="seven.oldstyle" horiz-adv-x="428" 
d="M407 489l-125 -284q-81 -186 -160 -317l-71 25l238 567h-269v89h387v-80z" />
    <glyph glyph-name="eight.oldstyle" horiz-adv-x="511" 
d="M458 524q0 -58 -30.5 -96.5t-86.5 -72.5q61 -32 95.5 -73.5t34.5 -109.5q0 -81 -56 -131.5t-166 -50.5q-104 0 -156 45.5t-52 123.5q0 63 33.5 104t93.5 77q-54 31 -84.5 71t-30.5 102q0 77 54.5 124.5t153.5 47.5q101 0 149 -43t48 -118zM368 164q0 47 -31.5 76.5
t-93.5 60.5q-48 -27 -74 -57.5t-26 -74.5q0 -49 30 -76.5t87 -27.5q48 0 78 27t30 72zM155 521q0 -45 28 -73.5t81 -54.5q45 27 69 55.5t24 68.5q0 94 -102 94q-46 0 -73 -24.5t-27 -65.5z" />
    <glyph glyph-name="nine.oldstyle" horiz-adv-x="504" 
d="M45 -76l8 60q92 -19 150 -19q74 0 109 59.5t36 187.5q-81 -45 -142 -45q-82 0 -125 46t-43 129q0 113 54 175t150 62q37 0 66.5 -8t57 -29.5t45.5 -57.5t29 -94t11 -136q0 -368 -235 -368q-82 0 -171 38zM346 283v4q0 114 -27 164t-82 50q-97 0 -97 -145q0 -108 95 -108
q48 0 111 35z" />
    <glyph glyph-name="H_a_n_g_T_a_b" horiz-adv-x="1035" 
d="M246 500h-54v154h-138v-154h-54v337h54v-138h138v138h54v-337zM501 500h-40l-4 26q-38 -31 -77 -31q-75 0 -75 69q0 40 31.5 62.5t95.5 22.5h18v23q0 44 -52 44q-29 0 -72 -15l-8 32q47 20 94 20q89 0 89 -75v-178zM450 557v59h-22q-72 0 -72 -45q0 -39 39 -39
q25 0 55 25zM772 500h-52q0 26 1 72t1 60q0 45 -10 62.5t-31 17.5q-22 0 -54 -25v-187h-52v249h42l5 -28q36 33 77 33q75 0 75 -112q0 -14 -1 -64t-1 -78zM1035 744v-236q0 -55 -26.5 -76.5t-74.5 -21.5q-38 0 -83 17l4 29q45 -7 74 -7t41.5 11t12.5 39v32q-35 -26 -67 -26
q-39 0 -62 33t-23 83q0 66 35 99.5t90 33.5q35 0 79 -10zM983 568v142q-15 6 -35 6q-29 0 -46.5 -23t-17.5 -64q0 -40 13 -63t35 -23t51 25zM370 295h-82v-295h-54v295h-82v42h218v-42zM560 0h-40l-4 26q-38 -31 -77 -31q-75 0 -75 69q0 40 31.5 62.5t95.5 22.5h18v23
q0 44 -52 44q-28 0 -73 -15l-7 32q47 20 94 20q89 0 89 -75v-178zM509 57v59h-21q-73 0 -73 -45q0 -39 38 -39q28 0 56 25zM635 4v350h51v-128q35 28 66 28q40 0 63 -34t23 -86q0 -71 -34 -105t-93 -34q-36 0 -76 9zM686 189v-151q13 -5 35 -5q28 0 46 23.5t18 68.5
q0 41 -12.5 65t-34.5 24t-52 -25z" />
    <glyph glyph-name="zero.OnumTab" 
d="M464 292q0 -302 -220 -302q-107 0 -158 67t-51 221q0 301 221 301q107 0 157.5 -66.5t50.5 -220.5zM359 285q0 118 -26 166.5t-83 48.5t-83.5 -49t-26.5 -166q0 -119 26 -167.5t83 -48.5t83.5 49t26.5 167z" />
    <glyph glyph-name="one.OnumTab" 
d="M452 0h-385v88h145v377l-129 -43l-24 66l179 81h85v-481h129v-88z" />
    <glyph glyph-name="two.OnumTab" 
d="M451 0h-401v74q168 138 220.5 200t52.5 120q0 99 -109 99q-58 0 -142 -26l-15 70q107 41 187 41q91 0 142 -43t51 -126q0 -77 -52 -142t-196 -179h262v-88z" />
    <glyph glyph-name="three.OnumTab" 
d="M27 -70l9 62q85 -21 154 -21q141 0 141 121q0 60 -30.5 90t-102.5 30h-72v80h68q119 0 119 110q0 93 -108 93q-66 0 -141 -25l-15 70q94 38 182 38q98 0 144.5 -43t46.5 -116q0 -62 -28.5 -103t-72.5 -56q123 -24 123 -164q0 -101 -64 -154.5t-171 -53.5q-84 0 -182 42z
" />
    <glyph glyph-name="four.OnumTab" 
d="M249 569h150v-435h74v-87h-74v-151h-102v151h-273v78q108 240 225 444zM297 134v349h-2q-87 -154 -180 -349h182z" />
    <glyph glyph-name="five.OnumTab" 
d="M400 480h-235l-12 -183q40 8 88 8q101 0 153.5 -49t52.5 -143q0 -106 -62.5 -165.5t-176.5 -59.5q-82 0 -179 43l9 61q85 -21 156 -21q145 0 145 132q0 119 -139 119q-70 0 -141 -16l22 363h319v-89z" />
    <glyph glyph-name="six.OnumTab" 
d="M441 648l-10 -61q-79 18 -132 18q-75 0 -109 -58.5t-36 -188.5q81 45 141 45q83 0 124 -45.5t41 -129.5q0 -113 -54.5 -175t-149.5 -62q-46 0 -80 14t-64 48t-45.5 100t-15.5 163q0 368 235 368q71 0 155 -36zM156 287v-4q0 -114 26 -164t81 -50q96 0 96 145
q0 108 -96 108q-46 0 -107 -35z" />
    <glyph glyph-name="seven.OnumTab" 
d="M464 489l-135 -286q-78 -165 -170 -315l-72 27l254 565h-302v89h425v-80z" />
    <glyph glyph-name="eight.OnumTab" 
d="M451 524q0 -59 -31 -98t-87 -71q61 -32 95.5 -73.5t34.5 -109.5q0 -81 -55 -131.5t-165 -50.5q-104 0 -155 45.5t-51 123.5q0 63 33.5 104t94.5 77q-55 31 -85.5 71t-30.5 102q0 77 54.5 124.5t152.5 47.5q100 0 147.5 -43t47.5 -118zM361 164q0 47 -31.5 77.5
t-93.5 61.5q-97 -57 -97 -134q0 -49 29 -76.5t86 -27.5q49 0 78 27t29 72zM151 521q0 -45 27.5 -73.5t80.5 -55.5q43 27 66.5 56t23.5 69q0 94 -100 94q-46 0 -72 -24.5t-26 -65.5z" />
    <glyph glyph-name="nine.OnumTab" 
d="M45 -76l8 60q92 -19 148 -19q74 0 109 59t37 188q-81 -45 -142 -45q-83 0 -124 45.5t-41 129.5q0 113 55 175t149 62q46 0 80.5 -14t64.5 -48t45.5 -100t15.5 -163q0 -368 -236 -368q-80 0 -169 38zM142 356q0 -108 95 -108q48 0 107 35v4q0 114 -26 164t-80 50
q-96 0 -96 -145z" />
    <glyph glyph-name="L_i_n_P_r_o_p" horiz-adv-x="901" 
d="M340 500h-160v337h54v-295h106v-42zM443 818q0 -16 -6 -22t-25 -6t-25 5.5t-6 22.5q0 16 6.5 22t24.5 6q19 0 25 -6t6 -22zM438 500h-52v249h52v-249zM710 500h-52q0 26 1 72t1 60q0 45 -10 62.5t-31 17.5q-23 0 -55 -25v-187h-51v249h42l5 -28q36 33 77 33q74 0 74 -112
q0 -14 -0.5 -64t-0.5 -78zM54 0h-54v337q12 0 40 0.5t47 0.5q123 0 123 -104q0 -53 -33.5 -84t-105.5 -31h-17v-119zM54 298v-139h24q75 0 75 70q0 69 -74 69h-25zM391 248l-6 -46q-15 3 -21 3q-19 0 -53 -41v-164h-51v249h42l5 -42q35 46 62 46q12 0 22 -5zM638 129
q0 -67 -31 -100.5t-85 -33.5q-105 0 -105 125q0 67 30.5 100.5t84.5 33.5q106 0 106 -125zM584 118q0 54 -13.5 75.5t-43.5 21.5q-57 0 -57 -84q0 -54 14 -76t44 -22q56 0 56 85zM749 -87h-52v336h42l4 -27q37 32 72 32q40 0 63 -33.5t23 -86.5q0 -70 -33.5 -104.5
t-88.5 -34.5q-21 0 -30 2v-84zM749 189v-151q13 -5 34 -5q29 0 47 23.5t18 69.5q0 41 -13 64.5t-35 23.5q-23 0 -51 -25z" />
    <glyph glyph-name="zero.LinProp" horiz-adv-x="570" 
d="M528 342q0 -351 -249 -351q-120 0 -178.5 78.5t-58.5 263.5q0 351 249 351q120 0 178.5 -78.5t58.5 -263.5zM417 334q0 147 -33 208.5t-99 61.5t-99 -60t-33 -203q0 -147 33 -208.5t99 -61.5t99 60t33 203z" />
    <glyph glyph-name="one.LinProp" horiz-adv-x="338" 
d="M252 0h-109v567l-116 -48l-20 72l162 84h83v-675z" />
    <glyph glyph-name="two.LinProp" horiz-adv-x="474" 
d="M426 0h-402v87q153 160 211.5 247t58.5 151q0 110 -106 110q-58 0 -134 -29l-18 71q97 47 187 47q84 0 135 -44t51 -139q0 -86 -56.5 -174.5t-205.5 -233.5h279v-93z" />
    <glyph glyph-name="three.LinProp" horiz-adv-x="457" 
d="M13 28l8 67q80 -20 145 -20q132 0 132 125q0 59 -28.5 88t-97.5 29h-79v79h72q55 0 85.5 28.5t30.5 82.5q0 96 -110 96q-71 0 -127 -20l-15 66q78 35 169 35q97 0 145 -43.5t48 -113.5q0 -124 -108 -163q53 -9 90.5 -48t37.5 -115q0 -104 -59 -157t-159 -53
q-97 0 -180 37z" />
    <glyph glyph-name="four.LinProp" horiz-adv-x="507" 
d="M488 153h-86v-153h-103v153h-280v79q115 245 232 443h151v-435h86v-87zM299 240v353h-2q-77 -136 -186 -353h188z" />
    <glyph glyph-name="five.LinProp" horiz-adv-x="468" 
d="M378 586h-215l-11 -179q34 6 74 6q99 0 148.5 -49.5t49.5 -142.5q0 -109 -59.5 -169.5t-160.5 -60.5q-86 0 -171 35l9 67q83 -18 140 -18q134 0 134 134q0 123 -134 123q-57 0 -124 -16l22 359h298v-89z" />
    <glyph glyph-name="six.LinProp" horiz-adv-x="507" 
d="M444 648l-11 -61q-81 18 -132 18q-74 0 -109 -57t-36 -190q79 45 146 45q81 0 123.5 -46t42.5 -129q0 -112 -54.5 -174.5t-149.5 -62.5q-38 0 -68 8t-57.5 29.5t-45.5 57.5t-29 94t-11 136q0 368 234 368q71 0 157 -36zM158 287v-4q0 -114 27 -164t82 -50q49 0 74.5 37.5
t25.5 102.5q0 113 -97 113q-50 0 -112 -35z" />
    <glyph glyph-name="seven.LinProp" horiz-adv-x="436" 
d="M415 595l-129 -287q-80 -177 -161 -317l-74 25l247 570h-278v89h395v-80z" />
    <glyph glyph-name="eight.LinProp" horiz-adv-x="518" 
d="M464 524q0 -58 -31.5 -97.5t-88.5 -72.5q63 -33 98.5 -74t35.5 -107q0 -82 -56 -132.5t-170 -50.5q-108 0 -160 45.5t-52 123.5q0 62 35.5 103t98.5 78q-57 32 -89 71.5t-32 101.5q0 77 55 124.5t157 47.5q199 0 199 -161zM373 164q0 47 -31.5 77t-92.5 60
q-51 -29 -77.5 -59t-26.5 -73q0 -104 118 -104q51 0 80.5 27t29.5 72zM156 519q0 -44 28 -72t82 -55q95 57 95 125q0 94 -103 94q-48 0 -75 -24.5t-27 -67.5z" />
    <glyph glyph-name="nine.LinProp" horiz-adv-x="507" 
d="M44 30l11 63q91 -22 155 -22q68 0 103.5 57.5t37.5 188.5q-79 -45 -146 -45q-81 0 -123.5 46.5t-42.5 129.5q0 112 54.5 174t149.5 62q48 0 83.5 -13.5t66 -48t46 -100.5t15.5 -163q0 -368 -234 -368q-85 0 -176 39zM349 388v5q0 114 -27 164t-82 50q-49 0 -74.5 -38
t-25.5 -102q0 -114 97 -114q48 0 112 35z" />
    <glyph glyph-name="L_i_n_T_a_b" horiz-adv-x="686" 
d="M231 500h-160v337h54v-295h106v-42zM334 818q0 -16 -6.5 -22t-24.5 -6q-19 0 -25.5 5.5t-6.5 22.5q0 16 6.5 22t25.5 6q18 0 24.5 -6t6.5 -22zM328 500h-51v249h51v-249zM600 500h-51q0 26 0.5 72t0.5 60q0 45 -10 62.5t-31 17.5q-22 0 -54 -25v-187h-52v249h43l4 -28
q36 33 77 33q75 0 75 -112q0 -14 -1 -64t-1 -78zM218 295h-82v-295h-54v295h-82v42h218v-42zM408 0h-40l-4 26q-38 -31 -77 -31q-75 0 -75 69q0 40 31.5 62.5t95.5 22.5h18v23q0 44 -52 44q-28 0 -73 -15l-7 32q47 20 94 20q89 0 89 -75v-178zM357 57v59h-21q-73 0 -73 -45
q0 -39 38 -39q28 0 56 25zM483 4v350h51v-128q35 28 66 28q40 0 63 -34t23 -86q0 -71 -34 -105t-93 -34q-36 0 -76 9zM534 189v-151q13 -5 35 -5q28 0 46 23.5t18 68.5q0 41 -12.5 65t-34.5 24t-52 -25z" />
    <glyph glyph-name="zero.LinTab" 
d="M458 347q0 -193 -54 -275t-160 -82q-107 0 -155 76t-48 264q0 190 53 272.5t161 82.5q106 0 154.5 -75t48.5 -263zM353 335q0 152 -23.5 211.5t-79.5 59.5t-80 -58.5t-24 -203.5q0 -155 23.5 -214.5t80.5 -59.5q55 0 79 60t24 205z" />
    <glyph glyph-name="one.LinTab" 
d="M323 93h129v-93h-385v93h145v476l-128 -49l-26 69l180 86h85v-582z" />
    <glyph glyph-name="two.LinTab" 
d="M449 0h-407v87q161 167 217.5 249.5t56.5 148.5q0 111 -110 111q-51 0 -139 -31l-19 71q105 49 194 49q84 0 136.5 -44t52.5 -140q0 -84 -57.5 -173t-208.5 -235h284v-93z" />
    <glyph glyph-name="three.LinTab" 
d="M30 30l9 66q91 -21 158 -21q136 0 136 124q0 57 -29.5 87t-99.5 30h-82v80h77q61 0 89 26.5t28 81.5q0 97 -112 97q-69 0 -138 -24l-14 69q90 39 180 39q98 0 145.5 -44.5t47.5 -117.5q0 -120 -102 -159q49 -9 86 -49.5t37 -109.5q0 -103 -64.5 -159t-165.5 -56
q-91 0 -186 40z" />
    <glyph glyph-name="four.LinTab" 
d="M251 675h148v-431h74v-90h-74v-154h-102v154h-273v81q112 243 227 440zM297 244v343h-2q-87 -154 -180 -343h182z" />
    <glyph glyph-name="five.LinTab" 
d="M400 675v-89h-235l-12 -181q52 7 88 7q206 0 206 -192q0 -109 -65.5 -169.5t-171.5 -60.5q-91 0 -180 38l9 68q90 -21 150 -21q150 0 150 133q0 61 -32 91t-106 30q-71 0 -142 -16l22 362h319z" />
    <glyph glyph-name="six.LinTab" 
d="M441 648l-11 -61q-77 18 -130 18q-76 0 -111 -57t-36 -190q81 45 144 45q81 0 122 -46t41 -129q0 -113 -54.5 -175t-149.5 -62q-46 0 -80.5 14t-64.5 48t-45.5 100t-15.5 163q0 105 18.5 179.5t52.5 114.5t74.5 57t92.5 17q83 0 153 -36zM155 287v-4q0 -114 26 -164
t81 -50q96 0 96 140q0 113 -93 113q-49 0 -110 -35z" />
    <glyph glyph-name="seven.LinTab" 
d="M466 595l-137 -292q-81 -171 -170 -313l-72 27l256 569h-304v89h427v-80z" />
    <glyph glyph-name="eight.LinTab" 
d="M448 524q0 -59 -30 -98t-84 -71q60 -31 94 -72.5t34 -109.5q0 -82 -54.5 -132.5t-164.5 -50.5q-104 0 -155 46t-51 125q0 62 33.5 103t93.5 77q-53 31 -83 71t-30 101q0 77 53 124.5t151 47.5q193 0 193 -161zM361 164q0 47 -31 76.5t-91 60.5q-48 -28 -74 -58.5
t-26 -73.5q0 -49 29 -76.5t86 -27.5q49 0 78 27t29 72zM153 519q0 -45 26.5 -72.5t76.5 -53.5q91 55 91 121q0 97 -98 97q-45 0 -70.5 -24.5t-25.5 -67.5z" />
    <glyph glyph-name="nine.LinTab" 
d="M45 28l8 60q87 -18 153 -18q70 0 104.5 58t36.5 189q-81 -45 -144 -45q-82 0 -122.5 46t-40.5 130q0 113 54.5 174.5t148.5 61.5q46 0 81 -13.5t65 -47.5t45.5 -100.5t15.5 -163.5q0 -368 -234 -368q-92 0 -171 37zM344 388v5q0 114 -26 164t-80 50q-96 0 -96 -141
q0 -113 93 -113q47 0 109 35z" />
    <glyph glyph-name="S_u_p" horiz-adv-x="740" 
d="M212 594q0 -44 -31 -71.5t-84 -27.5q-50 0 -97 30l13 29q47 -18 75 -18q30 0 47 13.5t17 37.5t-23.5 41.5t-51 27.5t-51 34t-23.5 60q0 41 29 66.5t75 25.5t85 -25l-13 -29q-35 14 -63 14q-27 0 -41.5 -12.5t-14.5 -32.5q0 -24 24 -42t52 -28t52 -34t24 -59zM462 500h-43
l-4 27q-37 -32 -77 -32q-75 0 -75 112q0 13 1 63t1 79h51q0 -26 -0.5 -72t-0.5 -60q0 -45 10 -62.5t31 -17.5t54 24v188h52v-249zM588 413h-51v336h41l5 -27q35 32 71 32q40 0 63 -33.5t23 -86.5q0 -70 -33 -104.5t-89 -34.5q-20 0 -30 2v-84zM588 689v-151q13 -5 35 -5
q29 0 46.5 23.5t17.5 69.5q0 41 -12.5 64.5t-34.5 23.5t-52 -25z" />
    <glyph glyph-name="a.superior" horiz-adv-x="361" 
d="M313 359h-69l-6 36q-50 -41 -99 -41q-51 0 -81 25.5t-30 70.5q0 99 180 99h19v24q0 27 -15.5 39.5t-50.5 12.5q-48 0 -107 -18l-11 47q69 28 138 28q71 0 101.5 -25.5t30.5 -75.5v-222zM227 434v70h-25q-50 0 -70 -12t-20 -39q0 -21 14 -34t38 -13q30 0 63 28z" />
    <glyph glyph-name="b.superior" horiz-adv-x="373" 
d="M342 529q0 -91 -46.5 -134.5t-130.5 -43.5q-54 0 -115 13v440h86v-157q43 33 86 33q59 0 89.5 -41.5t30.5 -109.5zM254 516q0 103 -57 103q-29 0 -61 -26v-179q16 -6 40 -6q41 0 59.5 25.5t18.5 82.5z" />
    <glyph glyph-name="c.superior" horiz-adv-x="304" 
d="M280 398q-46 -46 -116 -46q-134 0 -134 166q0 72 40.5 118.5t104.5 46.5q60 0 99 -41l-32 -43q-27 23 -55 23q-67 0 -67 -101q0 -107 68 -107q32 0 66 28z" />
    <glyph glyph-name="d.superior" horiz-adv-x="374" 
d="M324 359h-70l-7 36q-50 -41 -96 -41q-58 0 -88.5 43.5t-30.5 111.5q0 86 47 128.5t126 42.5q23 0 33 -2v128h86v-447zM238 440v180q-24 6 -40 6q-41 0 -60 -26t-19 -83q0 -102 57 -102q31 0 62 25z" />
    <glyph glyph-name="e.superior" horiz-adv-x="351" 
d="M319 503h-201v-5q0 -45 18.5 -65t56.5 -20q48 0 113 20l11 -48q-64 -32 -133 -32q-78 0 -116 36t-38 123q0 80 42 124.5t111 44.5q72 0 107.5 -40.5t28.5 -137.5zM239 548v2q0 80 -59 80q-60 0 -62 -82h121z" />
    <glyph glyph-name="f.superior" horiz-adv-x="208" 
d="M236 794l-12 -50q-25 10 -46 10q-32 0 -32 -39v-42h62v-57h-62v-257h-86v257h-45v57h45v40q0 101 96 101q40 0 80 -20z" />
    <glyph glyph-name="g.superior" horiz-adv-x="374" 
d="M324 370q0 -71 -38.5 -98.5t-107.5 -27.5q-54 0 -119 26l6 42q63 -12 106 -12q67 0 67 57v44q-43 -34 -87 -34q-58 0 -88.5 41t-30.5 106q0 83 47 124.5t126 41.5q55 0 119 -12v-298zM238 452v168q-24 6 -40 6q-41 0 -60 -25t-19 -79q0 -45 14.5 -71t42.5 -26q32 0 62 27
z" />
    <glyph glyph-name="h.superior" horiz-adv-x="382" 
d="M335 540q0 -17 -1 -80.5t-1 -100.5h-85q0 35 0.5 96t0.5 76q0 49 -11.5 68.5t-35.5 19.5q-33 0 -66 -28v-232h-86v447h86v-159q49 33 95 33q53 0 78.5 -33t25.5 -107z" />
    <glyph glyph-name="i.superior" horiz-adv-x="187" 
d="M143 762q0 -21 -11 -30t-38 -9q-29 0 -39 8.5t-10 30.5t11 31t38 9q28 0 38.5 -8.5t10.5 -31.5zM138 359h-88v315h88v-315z" />
    <glyph glyph-name="j.superior" horiz-adv-x="187" 
d="M138 674v-284q0 -46 -17.5 -79.5t-57.5 -63.5l-56 24q43 48 43 103v300h88zM143 762q0 -21 -11 -30t-38 -9q-29 0 -39 8.5t-10 30.5t11 31t38 9q28 0 38.5 -8.5t10.5 -31.5z" />
    <glyph glyph-name="k.superior" horiz-adv-x="346" 
d="M335 359h-97l-97 155h-4v-155h-87v447h87v-253h4l84 121h96l-100 -131z" />
    <glyph glyph-name="l.superior" horiz-adv-x="198" 
d="M181 362q-26 -7 -57 -7q-39 0 -56.5 16.5t-17.5 60.5v374h87v-357q0 -24 4.5 -31t19.5 -7q10 0 16 1z" />
    <glyph glyph-name="m.superior" horiz-adv-x="567" 
d="M520 538q0 -16 -1 -78.5t-1 -100.5h-85q0 35 0.5 92.5t0.5 73.5q0 51 -11.5 72.5t-34.5 21.5q-30 0 -65 -32q4 -20 4 -47v-181h-85v172q0 88 -44 88q-29 0 -62 -28v-232h-86v315h70l6 -35q51 41 103 41q54 0 82 -45q50 45 108 45q52 0 76.5 -33t24.5 -109z" />
    <glyph glyph-name="o.superior" horiz-adv-x="372" 
d="M342 523q0 -82 -43.5 -126.5t-119.5 -44.5q-150 0 -150 159q0 82 42.5 126.5t119.5 44.5q151 0 151 -159zM255 509q0 64 -17.5 89t-52.5 25q-69 0 -69 -99q0 -64 17 -88.5t53 -24.5q69 0 69 98z" />
    <glyph glyph-name="p.superior" horiz-adv-x="374" 
d="M342 529q0 -90 -46 -134t-126 -44q-24 0 -34 2v-103h-86v424h70l6 -35q51 41 96 41q59 0 89.5 -41.5t30.5 -109.5zM254 516q0 103 -57 103q-29 0 -61 -26v-179q16 -6 40 -6q41 0 59.5 25.5t18.5 82.5z" />
    <glyph glyph-name="q.superior" horiz-adv-x="374" 
d="M324 250h-86v137q-47 -33 -87 -33q-58 0 -88.5 43.5t-30.5 111.5q0 86 47 128.5t126 42.5q55 0 119 -12v-418zM238 440v180q-24 6 -40 6q-41 0 -60 -26t-19 -83q0 -102 57 -102q31 0 62 25z" />
    <glyph glyph-name="r.superior" horiz-adv-x="254" 
d="M244 673l-10 -70q-17 5 -30 5q-26 0 -68 -47v-202h-86v315h71l7 -53q49 59 84 59q17 0 32 -7z" />
    <glyph glyph-name="s.superior" horiz-adv-x="307" 
d="M278 453q0 -43 -37.5 -71t-101.5 -28t-105 24l8 42q57 -12 82 -12q62 0 62 36q0 17 -12 27t-48 22q-49 16 -68.5 37t-19.5 59q0 42 33.5 66.5t88.5 24.5q52 0 95 -20l-10 -44q-40 12 -68 12q-49 0 -49 -32q0 -17 11 -26.5t45 -20.5q52 -17 73 -39t21 -57z" />
    <glyph glyph-name="t.superior" horiz-adv-x="241" 
d="M230 370q-40 -21 -86 -21q-44 0 -65 18.5t-21 61.5v188h-46v57h50q15 63 19 94h64v-94h75v-57h-75v-167q0 -23 6.5 -31.5t22.5 -8.5q18 0 46 8z" />
    <glyph glyph-name="u.superior" horiz-adv-x="382" 
d="M332 359h-70l-6 35q-52 -41 -105 -41t-78.5 33t-25.5 107q0 18 1 81t1 100h85q0 -34 -0.5 -93t-0.5 -79q0 -48 11.5 -67.5t35.5 -19.5q33 0 66 27v232h86v-315z" />
    <glyph glyph-name="v.superior" horiz-adv-x="329" 
d="M316 674q-24 -160 -97 -315h-115l-97 315h91l56 -176l14 -67h2q49 144 59 243h87z" />
    <glyph glyph-name="w.superior" horiz-adv-x="510" 
d="M497 674q-15 -130 -84 -315h-102l-52 185l-7 40h-2l-7 -41l-48 -184h-99l-89 315h88l47 -173l13 -58h2l12 55l43 176h90l54 -182l11 -48h2q36 123 49 230h79z" />
    <glyph glyph-name="x.superior" horiz-adv-x="332" 
d="M321 359h-96l-62 119h-2q-42 -70 -65 -119h-84l95 166l-85 149h94l53 -103h1q32 51 53 103h84l-83 -141z" />
    <glyph glyph-name="y.superior" horiz-adv-x="334" 
d="M321 674q-20 -118 -50 -205t-65.5 -134.5t-71.5 -69.5t-73 -22q-22 0 -52 14v48q24 -3 34 -3q29 0 47 17q22 22 22 42q0 14 -23 82l-77 231h90l52 -166q21 -62 19 -92h2q42 105 59 258h87z" />
    <glyph glyph-name="z.superior" horiz-adv-x="290" 
d="M264 420l-4 -61h-228v51l122 204h-117l2 60h216v-50l-124 -204h133z" />
    <glyph glyph-name="period.superior" horiz-adv-x="203" 
d="M152 402q0 -30 -10 -40.5t-41 -10.5t-40 9.5t-9 40.5t9.5 41t40.5 10q32 0 41 -9.5t9 -40.5z" />
    <glyph glyph-name="comma.superior" horiz-adv-x="203" 
d="M56 243l-33 32q52 40 52 71q0 10 -11.5 22t-11.5 32q0 31 9.5 41.5t42.5 10.5q29 0 38.5 -11.5t9.5 -40.5q0 -51 -23 -88t-73 -69z" />
    <glyph glyph-name="I_n_f" horiz-adv-x="533" 
d="M54 0h-54v337h54v-337zM330 0h-52q0 26 1 72t1 60q0 45 -10 62.5t-31 17.5q-24 0 -54 -25v-187h-52v249h42l4 -28q36 33 77 33q76 0 76 -112q0 -14 -1 -64t-1 -78zM533 344l-9 -30q-15 7 -32 7q-31 0 -31 -36v-36h51v-37h-51v-212h-51v212h-36v37h36v34q0 76 67 76
q30 0 56 -15z" />
    <glyph glyph-name="period.inferior" horiz-adv-x="203" 
d="M152 -18q0 -30 -10 -40.5t-41 -10.5t-40 9.5t-9 40.5t9.5 41t40.5 10q32 0 41 -9.5t9 -40.5z" />
    <glyph glyph-name="comma.inferior" horiz-adv-x="203" 
d="M56 -177l-33 32q52 40 52 71q0 10 -11.5 22t-11.5 32q0 31 9.5 41.5t42.5 10.5q29 0 38.5 -11.5t9.5 -40.5q0 -51 -23 -88t-73 -69z" />
    <glyph glyph-name="designer" horiz-adv-x="1000" 
d="M784 88q-6 -9 -21.5 -11.5t-19.5 -6.5q-36 -4 -43 -28q-3 -9 -10.5 -24.5t-11 -29.5t-1.5 -28q3 -12 21 -6q1 0 4.5 4t6.5 2q2 -3 1.5 -4t-2.5 -4t-3 -5q-17 -13 -30 -5q-15 18 -11 36q4 20 28 74q-7 5 -24.5 0.5t-25.5 -0.5q5 8 22 14q4 1 13.5 1t16 2.5t10.5 10.5t4 22
v24q-4 1 -4 12q-2 5 -5.5 9.5t-6 7.5t-7.5 5t-8 3t-9.5 2t-8 1t-9 0.5t-8.5 0.5q-17 -1 -33 -16.5t-23 -35.5q-10 -29 2 -65q-2 -13 9.5 -42.5t4.5 -49.5q-7 -7 -21 -1q-6 4 -9 11.5t-5 21.5t-3 17q4 4 5 17.5t4 17.5q5 18 -5 24q-5 -1 -19 -1.5t-23 -3t-16 -9.5
q4 -19 3 -44.5t-15 -37.5q-9 -3 -19 4q-4 4 -6 10.5t-2 10.5t0.5 13t0.5 12q1 4 4.5 12.5t5.5 13.5t5 11t7.5 10.5t9.5 6.5q8 -6 27 1l39 1q3 3 3.5 13t1.5 13q7 30 26 52t43 24q32 4 51 -8q1 -7 9 -13t9 -13q8 -16 1 -68q17 0 70 12zM459 68q-4 -4 -13 2t-14 2
q-8 -7 -11.5 -24.5t-7.5 -23.5q0 -8 -3 -25.5t-3 -26.5q-8 -5 -11 -4q-5 2 -3 18t2 18q4 6 4 22t3 22q-2 4 -2.5 14t-0.5 11q-2 1 -6 -2t-6 1q1 10 11 18q8 0 15 -18q3 1 8 8.5t8 9t10 -3.5zM352 113q0 -20 1.5 -73t0.5 -80t-11 -64.5t-31 -63.5q-53 -41 -116 -19
q-10 7 -10 14q4 29 18 34q-8 -23 -10 -33q22 -15 50 -12.5t51 17.5q14 6 21 17.5t13.5 34t8.5 27.5q7 57 5 146q2 7 0.5 24t-0.5 24q-1 5 -10 1q-4 -5 -8.5 -17t-8.5 -16q1 -10 -8.5 -20t-9.5 -18q-22 -30 -58 -94q-1 -2 -2 -5t-2 -5t-2.5 -4t-3.5 -2.5t-4 -0.5
q-6 5 -4 29.5t1 31.5q13 56 21 70q18 59 52 86q2 3 7 1.5t6.5 -1.5t6.5 -3t6 -4t5.5 -4.5t5.5 -4.5q6 9 10 24q9 -4 9 -20q-3 -2 -1 -8t1 -9zM611 331q-11 -2 -49.5 -16t-61.5 -12q-8 -9 -4 -30q3 -17 15 -12q1 1 3 10t6 11q6 -15 -6 -33q-4 -1 -12 -2t-14.5 12.5t-3.5 38.5
q-7 9 -4 14q5 5 7.5 12t3 18.5t1.5 15.5q-1 0 -2 2l-2 2q-10 -9 -21.5 -32t-16.5 -29q0 -9 -10 -23.5t-8 -25.5q-2 -2 -3 -15.5t-9 -14.5q-9 3 -11.5 10t-1 19.5t0.5 16.5q-2 13 0.5 35t1.5 33q-6 -4 -10.5 -16t-6.5 -15q-1 -2 -8.5 -17.5t-14 -21t-16.5 -2.5q-12 23 10 72
q2 2 7.5 11t8.5 12t10 7.5t12 -0.5q4 -3 8 0q12 34 16 90l8 8q6 -2 6 -6.5t-2.5 -11t-1.5 -10.5q-1 -10 -6.5 -49.5t-6.5 -60.5q0 -6 -2 -19.5t-2 -19t2 -19.5q3 5 21 40.5t32 51.5q10 18 26 30q4 -4 12 -14t12 -14v-40q7 2 36 9t45 13q7 -5 6 -13zM877 703q-6 77 -48 101
q4 7 8 8t8.5 -3t7 -7.5t7 -11t5.5 -8.5q46 -69 9 -182q-26 -78 -83 -108q26 24 38 48q35 43 39 80q13 26 9 83zM805 602q-6 -21 -19 -25q-7 3 -16 17l2 14q2 -1 3 -7.5t5 -8.5q6 -2 13 11q7 50 -12 87l-5 -3q-2 -3 -10.5 -12.5t-13 -16.5t-8.5 -16l-6 -4q-7 -8 -18.5 -28
t-18.5 -28q-6 -1 -8 3t-3 11.5t-2 10.5q2 10 -3 17q-3 1 -5 -4t-3 -6q-12 -15 -25 -16q-11 4 -12.5 12t1.5 22.5t3 21.5q4 19 27 50q2 0 8 3t9.5 3.5t8 -1t7.5 -7.5l4 -6q-4 -13 -9 -72q3 -10 6 -10q7 0 12 11t7 13q24 26 62 78q8 -3 9.5 -20.5t3.5 -21.5q4 -3 2 -8
q9 -24 4 -64zM696 798q-7 -16 -19 -14q-3 13 -9 6q-62 -60 -75 -108q-15 -115 27 -156q4 -4 10 -5.5t14.5 -1t11.5 0.5q4 3 9 9t8 8q1 -5 -1.5 -9t-8 -8t-7.5 -6q-26 -13 -49 12q-18 21 -22 46q-5 3 -3 11t-2 11q2 4 -0.5 14t0.5 16q0 93 91 182q2 0 5.5 1t6.5 1.5t6 0.5
t5 -3t2 -8zM550 620q-6 -17 -18.5 -29.5t-27.5 -12.5q-35 0 -51 32q-8 17 -4 50q1 5 6 14.5t5 15.5q24 24 52 12q1 -1 3 -2.5t3 -2t1.5 -2.5t0.5 -5q-2 -2 -3.5 -1t-4 3t-4.5 2q-22 7 -40 -16q-16 -33 -8 -55q17 -30 43 -34q1 1 13 3.5t17 10.5q3 2 5.5 8t5 9t6.5 0z
M427 592q-2 -5 -5 -15t-6 -18t-7 -15q-9 -5 -17 10q-13 36 -8 75q-1 1 0.5 24.5t-1.5 30.5q-5 -15 -6 -58t-16 -62q-2 -3 -8 -4t-14 9t-11 33q2 14 4 38t3 34q0 2 -2 14.5t3 13.5q6 3 11 -4q0 -15 -2 -40.5t-2 -44.5t5 -31q7 -6 10 -0.5t4 16t3 12.5q2 10 2.5 39.5t4.5 44.5
q1 2 2.5 6t2.5 6.5t3.5 5.5t4.5 2.5t6 -2.5q7 -26 5.5 -76t4.5 -76q1 -3 4 -4t5 3l2 9q3 8 7 16t8 8zM302 562q-12 -12 -67 -17q-57 -6 -102 -25q-5 -13 -22 -2q-1 7 5.5 13.5t7.5 10.5q9 24 15 48q-1 4 7 26q45 132 59 208q-2 15 3 21q3 1 4.5 0t3 -4.5t2.5 -4.5
q-8 -56 -40.5 -152.5t-41.5 -139.5l2 -2q11 2 36.5 8t44 9.5t37.5 3.5q25 -6 44 3zM591 -32q8 23 -8 54q-5 -8 -7 -27q5 -25 15 -27zM495 49l-11 -19q-6 -29 -1 -46q6 -8 14 1q9 8 4 22q10 38 -6 42zM324 116q-3 10 -12.5 13t-16.5 -2q-23 -25 -32 -40q-3 -12 -12.5 -37.5
t-14 -45.5t-2.5 -40q1 0 5 4q9 14 29.5 43.5t34.5 54t21 50.5zM505 330q9 21 -1 24l-4 -29q3 1 5 5zM396 332l-1 20q-10 3 -19 -14q-24 -40 -16 -63q5 -3 8 7q19 23 28 50zM688 697q-2 3 -5 -0.5t-4 -2.5q-32 -20 -30 -80q3 -1 9 4t10 4q2 5 10 19t9.5 21t-3.5 22q4 0 4 13z
" />
    <glyph glyph-name="FoFa" horiz-adv-x="960" 
d="M771 -58l-4 -4q-13 1 -47.5 -2.5t-49.5 -1.5q-31 1 -104 -3.5t-113 -0.5q-24 -4 -96 3q-13 1 -121 1q-68 0 -100 -8q-12 -2 -15 4q0 4 -1 19.5t0 26t4 19.5q1 10 1 37.5t2 42.5q-3 15 -1 44.5t0 44.5q0 25 3 71.5t4 59.5q2 26 1 71.5t0 71.5q3 6 13.5 6t12.5 1
q2 -4 18.5 -2.5t18.5 1.5q12 12 13 1q1 -1 0.5 -6t2.5 -6q-1 -37 -1 -54.5t3.5 -74t4.5 -72.5q22 7 59 28t57 28q3 1 9.5 5.5t11.5 6.5q8 4 10 3q3 -1 4 -3.5t0 -7.5t-1 -6q-10 -29 -5 -61q1 -2 3 -2.5t3.5 0t4 1t3.5 0.5q6 5 17.5 12t16.5 10q25 15 41 21q36 25 48 29
l20 16q1 4 6 7q3 0 11 -6q0 -9 3 -28t3 -29q1 -2 3.5 -2.5t2.5 -1.5q3 -4 -2 -20l2 -2q23 5 61 32t60 32q3 3 10.5 6t11.5 7q3 0 16 9.5t22 2.5q6 0 7 -4q-1 -3 4 -12q-1 -4 0 -14t-2 -13q0 -5 -0.5 -16t0.5 -18.5t5 -13.5q-1 -4 2.5 -12.5t-0.5 -10.5q2 -25 4 -27
q2 -14 -1 -18q1 -5 2.5 -21t4.5 -25v-16q0 -26 6 -74.5t6 -72.5l1 -4q1 -4 0 -5zM458 30q3 5 4.5 10t1.5 10.5t0.5 9.5t-0.5 11t-1.5 10t-2.5 11.5t-2 10.5q1 4 -4.5 7.5t-12.5 7t-8 4.5q-6 6 -8 -1q-11 1 -19 -4q-4 -2 -8 -8t-6 -7q-5 -3 -9 3q5 24 -3 74l-2 7h-8
q-4 -1 -6 -4.5t-2 -6.5v-7.5t-1 -6.5q-2 -11 -2 -34t-2 -34q1 -11 0 -32.5t0 -31.5q0 -5 -1.5 -17t-0.5 -19q9 -5 31 5q8 2 10.5 0.5t6.5 -7t7 -7.5q8 0 13 1q12 7 24 20.5t11 24.5zM452 664q-12 -13 -29 -8q-13 18 -14 24q-6 9 -16 16t-18 9t-23 5.5t-21 5.5l-31 2
q-2 -2 -6.5 -1.5t-6.5 -0.5q-33 -10 -55 -21q-1 -2 -13.5 -11.5t-13.5 -18.5q-9 -22 -11 -70q0 -3 10.5 -2.5t11.5 0.5q19 2 86 2q1 -1 1.5 -3.5t-0.5 -3.5q-5 -5 -15.5 -0.5t-15.5 2.5q-7 0 -21 -1t-20 0q-4 -1 -12 -1.5t-14 -1.5t-10 -4l-3 -4q-2 -25 1 -63v-14t4 -14
q19 -1 38 1t31 2q2 2 13 -1q1 -1 1 -2v-2l-4 -2q-12 4 -39 0.5t-46 -2.5q-37 -3 -46 -2q-45 -2 -64 3l-2 3q3 3 9 5q4 -2 39 -7q24 3 26 4q-1 19 4.5 49.5t6.5 43.5l-3 4q-6 0 -18.5 -0.5t-21 0.5t-16.5 5q-2 5 3 5q18 -5 56 -3l2 3q6 47 15 66v3q47 55 119 62q31 4 70 -13
q2 -1 9.5 -1.5t10.5 -2.5q43 -9 62 -35q2 -2 0 -9zM739 -10q-11 24 -18 32q-2 4 -8 12.5t-9.5 15.5t-4.5 15q-7 14 -6 17q5 6 17 13.5t16 12.5l-9 17q-7 -1 -18 -5.5t-13 -4.5q-1 -1 -4 -3t-5 -3.5t-5 -1t-5 2.5q2 53 1 78l-2 3q-6 0 -27 7q-5 -35 -3 -48q-2 -5 -0.5 -19.5
t-1.5 -19.5q1 -18 -1 -51.5t0 -51.5l-1 -7h24q1 0 6 -1.5t6 1.5q0 18 -1 28q0 3 -1 8t-1.5 8.5t1 7t6.5 4.5q4 -2 6 -7.5t3 -7.5q-1 -5 4 -12.5t6 -10.5q7 -4 15 -16.5t14 -16.5q2 0 6 -1.5t7 -0.5q6 0 6 6zM248 181q-12 2 -52 0q-18 -2 -27 -8q-1 -12 -3.5 -35.5
t-3.5 -29.5q2 -19 1.5 -54.5t0.5 -55.5q1 0 7 1t7 0q3 1 11.5 -0.5t11.5 0.5l2 63q2 5 16 12q2 1 8 0.5t7 2.5l-1 28q-3 4 -21 4q-4 -4 -7 -4q-3 1 -5 3.5t-2 5.5t-0.5 7t-1.5 6q-2 4 4 10q13 4 39 8l6 4q-1 7 1 17.5t2 14.5zM333 34q-4 12 -3 44t-7 41q-11 7 -23 12l-8 5
h-14t-19 -5q-6 -3 -8 -26q8 -3 15.5 -1t16.5 0.5t13 -8.5q0 -2 2 -6t-1 -6q-3 -6 1 -8q5 -7 -3 -9q-5 -2 -14.5 -2t-13.5 -1q-19 -7 -25 -37q-2 -3 -0.5 -10.5t-1.5 -10.5q0 -11 15 -17q5 5 8 2q5 -1 9.5 1.5t10.5 7.5t9 7q6 1 7 -2.5t-0.5 -9t2.5 -8.5q2 -2 8 0t8 2
q2 1 5 1.5t5.5 1.5t4.5 3zM447 559q3 -19 -7 -31q-4 -3 -12.5 -10t-15 -11t-14.5 -5q-4 1 -6.5 -3.5t-6.5 -1.5q-1 3 -12 2t-13 -1q-14 0 -21 3q-24 21 -18 36q7 21 24 30q32 16 47 13q45 -2 55 -21zM880 571q0 -4 -2 -4q-5 1 -42 -2q-67 -3 -90 -7q-6 -5 -7 -17t-3 -16
q0 -3 2 -8.5t2 -6.5q4 -5 14 -7q17 2 23 13q0 7 -7 12q-3 2 -10 2.5t-10 4.5q2 3 5 4t9 0t8 -1q10 -3 15 -16q-1 -15 -18 -27l-21 -5q-35 9 -45 24q-4 1 -1 22l4 22q-1 3 -3.5 3.5t-5.5 0t-6 0.5l-33 -1q0 1 -1 2t-1 2q2 2 8 3h6q5 -1 11.5 -1t14.5 0.5t12 0.5q5 4 5 17
q1 3 3 14.5t6 15.5q4 1 5.5 0.5t4.5 -3.5l4 -4q4 -5 3.5 -17t1.5 -19q0 -5 10.5 -4.5t11.5 0.5q4 0 43.5 1t69.5 5q3 -2 4 -3zM560 123q-24 -2 -30 -13q-2 -2 -3 -5.5t-2 -6t-3.5 -4.5t-6.5 -1q-2 7 -2 29q-2 2 -7 0t-8 0q-7 -4 -11 -13q0 -73 4 -111l3 -4q3 -3 11.5 -1.5
t11.5 0.5q-2 7 -0.5 21t-1.5 20q6 31 16 44q4 3 13 6t13 7q0 4 1.5 11t2 10.5t-0.5 10.5zM651 504l-3 -2q-35 0 -51 -5q-11 5 -13 8q6 37 1 56q-2 2 -14 -4q-39 -24 -41 -48q-10 -10 -19 -5q-4 3 -3 15t0 16l-1 31q-2 2 -8 1.5t-10 0.5q-1 1 -4 1t-5 0.5t-2 3.5q7 0 26 1.5
t26 -0.5q4 -3 3 -14.5t6 -12.5q8 4 25 14t27 14q2 -1 12 -1t12 -8t2 -23.5v-19.5q1 -1 1.5 -5.5t2.5 -6.5q9 -2 13 0q2 0 7.5 -1t9.5 -1q3 -3 0 -5zM610 15q0 13 -1 38.5t-1 37.5v26q-2 5 -13.5 2.5t-14.5 -2.5q-5 0 -5 -24v-26l-3 -26q1 -3 1 -19.5t5 -24.5q15 0 30 5
q2 4 2 13zM425 539q-7 31 -26 34q-1 -3 -3.5 -3.5t-6 0t-4.5 0.5q-15 7 -26 -6q-2 -3 -3.5 -6.5t-1.5 -7t-0.5 -6t1 -6.5t2 -6t3.5 -6.5t3.5 -6t3.5 -6t4 -5.5q1 -2 3 -2.5t4 0t5 -0.5h9t8 3l8 4q2 2 7 5.5t6.5 5.5t4 7t-0.5 9zM430 77q14 -30 -9 -55q-1 -1 -12 -7
q-6 1 -9.5 5t-4.5 7.5t-2 11t-2 9.5q1 2 2.5 14.5t5.5 17.5q3 2 9 10t12 8l3 -3q-2 -5 2.5 -10.5t4.5 -7.5zM608 179q-4 12 -12 15q-7 7 -10 0q-13 -18 -4 -30q3 -11 19 -4q9 6 7 19zM295 42q0 -11 -14 -23l-7 -3q-6 -3 -10 -1q-4 1 -5 3.5t1 8.5l2 6q0 6 9 10q6 0 10 4
q13 -3 14 -5z" />
    <glyph glyph-name="LuFo" horiz-adv-x="180" 
d="M180 -20v-180h-180v180h180zM160 -40h-140v-140h140v140zM40 -160v100h20v-80h40v-20h-60zM80 -60h60v-100h-20v40h-40v20h40v20h-40v20zM180 885v-180h-180v180h180zM160 865h-140v-140h140v140zM40 745v100h20v-80h40v-20h-60zM80 845h60v-100h-20v40h-40v20h40v20h-40
v20z" />
    </font>
</defs>
</svg>
