<?xml version="1.0" standalone="no"?>
<!DOCTYPE svg PUBLIC "-//W3C//DTD SVG 1.1//EN" "http://www.w3.org/Graphics/SVG/1.1/DTD/svg11.dtd" >
<svg xmlns="http://www.w3.org/2000/svg" xmlns:xlink="http://www.w3.org/1999/xlink" version="1.1">
<metadata>
Created by FontForge 20170731 at Wed Nov  9 19:21:04 2016
 By Aleksey,,,
Copyright (c) Luc[as] de Groot, published by LucasFonts, 2002, 2004, 2007, 2009, 2016. All rights reserved.
</metadata>
<defs>
<font id="FHPSun-LightItalic" horiz-adv-x="500" >
  <font-face 
    font-family="FHP Sun Light"
    font-weight="300"
    font-style="italic"
    font-stretch="normal"
    units-per-em="1000"
    panose-1="2 11 3 3 5 3 2 9 2 3"
    ascent="800"
    descent="-200"
    x-height="493"
    cap-height="675"
    bbox="-317 -200 1682 885"
    underline-thickness="48"
    underline-position="-247"
    slope="-11"
    unicode-range="U+000D-1F6C8"
  />
<missing-glyph horiz-adv-x="550" 
d="M300 150h-150v250h50v-200h100v-50zM500 50h-450v450h450v-450zM350 350h-100v50h150v-250h-50v100h-100v50h100v50zM100 100h350v350h-350v-350z" />
    <glyph glyph-name="ellipsis" unicode="&#x2e;&#x2e;&#x2e;" horiz-adv-x="777" 
d="M105 -6q-20 0 -28 5t-8 18q0 36 13 49q10 10 35 10q37 0 37 -24q0 -36 -14 -48q-10 -10 -35 -10zM328 -6q-20 0 -28 5t-8 18q0 34 13 49q11 10 35 10q20 0 28.5 -5.5t8.5 -18.5q0 -35 -13 -48q-11 -10 -36 -10zM551 -6q-20 0 -28 5t-8 18q0 34 13 49q11 10 36 10
q20 0 28 -5.5t8 -18.5q0 -35 -13 -48q-11 -10 -36 -10z" />
    <glyph glyph-name="f_f" unicode="ff" horiz-adv-x="569" 
d="M684 688l-17 -36q-40 19 -69 19q-77 0 -95 -91l-18 -87h119l-8 -43h-119l-94 -484q-12 -64 -48 -100t-94 -36q-52 0 -91 24l17 36q36 -15 64 -15q76 0 94 91l94 484h-220l-95 -491q-27 -136 -144 -136q-52 0 -95 28l17 36q38 -18 68 -18q78 0 96 91l95 490h-86l8 43h86
l16 81q12 64 48 100t94 36q50 0 91 -24l-17 -36q-33 14 -65 14q-75 0 -93 -91l-16 -80h220l18 88q12 63 48.5 99t95.5 36q53 0 95 -28z" />
    <glyph glyph-name="fi" unicode="fi" horiz-adv-x="532" 
d="M46 -40l95 490h-87l9 43h86l17 88q12 63 48.5 99t94.5 36q48 0 88 -23l-17 -37q-31 15 -64 15q-74 0 -92 -91l-17 -87h278l-95 -493h-58l87 450h-220l-95 -491q-27 -136 -144 -136q-52 0 -95 28l17 36q36 -18 68 -18q78 0 96 91zM479 603q-35 0 -35 20q0 33 13 46
q8 8 33 8q35 0 35 -20q0 -33 -13 -46q-8 -8 -33 -8z" />
    <glyph glyph-name="fl" unicode="fl" horiz-adv-x="553" 
d="M46 -40l95 490h-87l9 43h86l10 50q18 92 67.5 132.5t136.5 40.5q60 0 107 -7h58l-115 -591q-7 -35 -7 -52q0 -16 6.5 -21.5t24.5 -5.5q15 0 33 2l-2 -39q-32 -8 -57 -8q-34 0 -50 13t-16 45q0 19 7 53l108 557q-45 9 -91 9q-67 0 -102.5 -28t-48.5 -96l-11 -54h108
l-8 -43h-108l-95 -491q-27 -136 -144 -136q-52 0 -95 28l17 36q36 -18 68 -18q78 0 96 91z" />
    <glyph glyph-name="f_f_i" unicode="ffi" horiz-adv-x="810" 
d="M763 493l-95 -493h-58l87 450h-220l-94 -484q-12 -64 -48 -100t-94 -36q-52 0 -91 24l17 36q36 -15 64 -15q76 0 94 91l94 484h-220l-95 -491q-27 -136 -144 -136q-52 0 -95 28l17 36q38 -18 68 -18q78 0 96 91l95 490h-86l8 43h86l16 81q12 64 48 100t94 36q50 0 91 -24
l-17 -36q-33 14 -65 14q-75 0 -93 -91l-16 -80h220l17 89q12 63 48.5 98.5t94.5 35.5q48 0 88 -23l-17 -37q-31 15 -64 15q-74 0 -92 -91l-17 -87h278zM757 603q-35 0 -35 20q0 33 13 46q8 8 33 8q35 0 35 -20q0 -33 -13 -46q-8 -8 -33 -8z" />
    <glyph glyph-name="f_f_l" unicode="ffl" horiz-adv-x="830" 
d="M806 709l-116 -591q-7 -35 -7 -52q0 -16 7 -21.5t24 -5.5q16 0 34 2l-2 -39q-32 -8 -58 -8q-34 0 -49.5 12.5t-15.5 45.5q0 19 7 53l108 556q-50 10 -91 10q-66 0 -102 -28t-49 -96l-11 -54h108l-8 -43h-108l-94 -484q-12 -64 -48 -100t-94 -36q-52 0 -91 24l17 36
q36 -15 64 -15q76 0 94 91l94 484h-220l-95 -491q-27 -136 -144 -136q-52 0 -95 28l17 36q38 -18 68 -18q78 0 96 91l95 490h-86l8 43h86l16 81q12 64 48 100t94 36q50 0 91 -24l-17 -36q-33 14 -65 14q-75 0 -93 -91l-16 -80h220l10 50q18 92 67.5 132.5t136.5 40.5
q60 0 107 -7h58z" />
    <glyph glyph-name="f_b" unicode="fb" horiz-adv-x="799" 
d="M751 345q0 -56 -13.5 -112t-43 -112.5t-88 -92t-138.5 -35.5q-29 0 -63 3.5t-53 7.5l-19 3l127 655q-45 9 -91 9q-67 0 -102.5 -28t-48.5 -96l-10 -54h107l-8 -43h-108l-95 -491q-27 -136 -144 -136q-52 0 -95 28l17 36q38 -18 68 -18q78 0 96 91l95 490h-87l9 43h86
l10 50q18 92 67.5 132.5t136.5 40.5q59 0 108 -7h57l-49 -252l-23 -90q31 57 77.5 95t99.5 38q56 0 87 -44t31 -111zM689 332q0 120 -76 120q-53 0 -108 -71t-75 -175l-30 -156q39 -12 82 -12q58 0 101.5 32t65 81t31 94.5t9.5 86.5z" />
    <glyph glyph-name="f_f_b" unicode="ffb" horiz-adv-x="1077" 
d="M806 709l-49 -252l-23 -90q31 57 77.5 95t99.5 38q56 0 86.5 -44t30.5 -111q0 -44 -7.5 -88t-27.5 -93t-50.5 -86t-81.5 -61t-115 -24q-29 0 -63 3.5t-53 7.5l-19 3l127 655q-45 9 -91 9q-67 0 -102.5 -28t-48.5 -96l-11 -54h108l-8 -43h-108l-94 -484q-12 -64 -48 -100
t-94 -36q-52 0 -91 24l17 36q36 -15 64 -15q76 0 94 91l94 484h-220l-95 -491q-27 -136 -144 -136q-52 0 -95 28l17 36q38 -18 68 -18q78 0 96 91l95 490h-86l8 43h86l16 81q12 64 48 100t94 36q50 0 91 -24l-17 -36q-33 14 -65 14q-75 0 -93 -91l-16 -80h220l10 50
q18 92 67.5 132.5t136.5 40.5q59 0 108 -7h57zM967 332q0 120 -76 120q-53 0 -108 -71t-75 -175l-30 -156q39 -12 82 -12q58 0 101.5 32t65 81t31 94.5t9.5 86.5z" />
    <glyph glyph-name="f_h" unicode="fh" horiz-adv-x="824" 
d="M528 709l-49 -252l-23 -90q31 57 77.5 95t101.5 38q114 0 114 -131q0 -34 -7.5 -77t-27 -132.5t-32.5 -159.5h-57q12 61 26.5 131.5t21.5 103.5t12 66.5t5 54.5q0 96 -73 96q-56 0 -111.5 -72t-76.5 -178l-39 -202h-58l128 662q-45 9 -91 9q-67 0 -102.5 -28t-48.5 -96
l-10 -54h107l-8 -43h-108l-95 -491q-27 -136 -144 -136q-52 0 -95 28l17 36q38 -18 68 -18q78 0 96 91l95 490h-87l9 43h86l10 50q18 92 67.5 132.5t136.5 40.5q59 0 108 -7h57z" />
    <glyph glyph-name="f_f_h" unicode="ffh" horiz-adv-x="1102" 
d="M806 709l-49 -252l-23 -90q31 57 77.5 95t101.5 38q114 0 114 -131q0 -34 -7.5 -77t-27 -132.5t-32.5 -159.5h-57q12 61 26.5 131.5t21.5 103.5t12 66.5t5 54.5q0 96 -73 96q-56 0 -111.5 -72t-76.5 -178l-39 -202h-58l128 662q-45 9 -91 9q-67 0 -102.5 -28t-48.5 -96
l-11 -54h108l-8 -43h-108l-94 -484q-12 -64 -48 -100t-94 -36q-52 0 -91 24l17 36q36 -15 64 -15q76 0 94 91l94 484h-220l-95 -491q-27 -136 -144 -136q-52 0 -95 28l17 36q38 -18 68 -18q78 0 96 91l95 490h-86l8 43h86l16 81q12 64 48 100t94 36q50 0 91 -24l-17 -36
q-33 14 -65 14q-75 0 -93 -91l-16 -80h220l10 50q18 92 67.5 132.5t136.5 40.5q59 0 108 -7h57z" />
    <glyph glyph-name="f_igrave" unicode="f&#xec;" horiz-adv-x="532" 
d="M454 724l45 -161l-37 -10l-64 153zM46 -40l95 490h-87l9 43h86l19 97q25 126 125 126q33 0 64 -14l-17 -38q-20 7 -40 7q-59 0 -74 -80l-18 -98h277l-95 -493h-58l87 450h-220l-95 -491q-27 -136 -144 -136q-52 0 -95 28l17 36q38 -18 68 -18q78 0 96 91z" />
    <glyph glyph-name="f_iacute" unicode="f&#xed;" horiz-adv-x="532" 
d="M46 -40l95 490h-87l9 43h86l17 89q12 63 48.5 98.5t94.5 35.5q49 0 89 -23l-17 -37q-31 15 -63 15q-76 0 -94 -91l-16 -87h277l-95 -493h-58l87 450h-220l-95 -491q-27 -136 -144 -136q-52 0 -95 28l17 36q38 -18 68 -18q78 0 96 91zM627 682l-164 -119l-27 23l149 131z
" />
    <glyph glyph-name="f_icircumflex" unicode="f&#xee;" horiz-adv-x="532" 
d="M599 581l-30 -23l-80 95l-118 -95l-21 25l151 135zM46 -40l95 490h-87l9 43h86l19 98q25 125 125 125q33 0 64 -14l-17 -38q-20 7 -40 7q-59 0 -74 -80l-18 -98h277l-95 -493h-58l87 450h-220l-95 -491q-27 -136 -144 -136q-52 0 -95 28l17 36q38 -18 68 -18q78 0 96 91z
" />
    <glyph glyph-name="f_itilde" unicode="f&#x129;" horiz-adv-x="532" 
d="M580 648l26 -21q-22 -33 -42.5 -48t-49.5 -15q-27 0 -58 20.5t-44 20.5q-26 0 -59 -41l-26 21q40 63 92 63q26 0 57.5 -20.5t44.5 -20.5q26 0 59 41zM46 -40l95 490h-87l9 43h86l19 97q25 126 125 126q33 0 63 -14l-17 -38q-19 7 -39 7q-59 0 -74 -80l-18 -98h277
l-95 -493h-58l87 450h-220l-95 -491q-27 -136 -144 -136q-52 0 -95 28l17 36q38 -18 68 -18q78 0 96 91z" />
    <glyph glyph-name="f_idieresis" unicode="f&#xef;" horiz-adv-x="532" 
d="M589 654q0 -27 -10 -39q-9 -9 -32 -9q-16 0 -22.5 4.5t-6.5 17.5q0 29 11 38q9 9 31 9q16 0 22.5 -4.5t6.5 -16.5zM461 654q0 -28 -11 -39q-9 -9 -31 -9q-16 0 -22.5 4.5t-6.5 17.5q0 28 10 38q9 9 32 9q16 0 22.5 -4.5t6.5 -16.5zM46 -40l95 490h-87l9 43h86l19 97
q25 126 125 126q33 0 63 -14l-17 -38q-19 7 -39 7q-59 0 -74 -80l-18 -98h277l-95 -493h-58l87 450h-220l-95 -491q-27 -136 -144 -136q-52 0 -95 28l17 36q38 -18 68 -18q78 0 96 91z" />
    <glyph glyph-name="f_imacron" unicode="f&#x12b;" horiz-adv-x="532" 
d="M596 610h-224l8 44h225zM46 -40l95 490h-87l9 43h86l19 97q25 126 125 126q33 0 63 -14l-17 -38q-19 7 -39 7q-59 0 -74 -80l-18 -98h277l-95 -493h-58l87 450h-220l-95 -491q-27 -136 -144 -136q-52 0 -95 28l17 36q38 -18 68 -18q78 0 96 91z" />
    <glyph glyph-name="f_ibreve" unicode="f&#x12d;" horiz-adv-x="532" 
d="M566 671h38q-25 -122 -137 -122q-115 0 -91 122h38q-11 -74 61 -74q37 0 58.5 17t32.5 57zM46 -40l95 490h-87l9 43h86l19 97q25 126 125 126q33 0 63 -14l-17 -38q-19 7 -39 7q-59 0 -74 -80l-18 -98h277l-95 -493h-58l87 450h-220l-95 -491q-27 -136 -144 -136
q-52 0 -95 28l17 36q38 -18 68 -18q78 0 96 91z" />
    <glyph glyph-name="f_iogonek" unicode="f&#x12f;" horiz-adv-x="532" 
d="M485 493l-95 -493q-25 -13 -47.5 -48.5t-22.5 -61.5t26 -26q25 0 58 14l6 -31q-36 -24 -85 -24q-26 0 -43.5 14.5t-17.5 38.5q0 65 68 124l87 450h-220l-95 -491q-27 -136 -144 -136q-52 0 -95 28l17 36q38 -18 68 -18q78 0 96 91l95 490h-87l9 43h86l17 89
q12 63 48.5 98.5t94.5 35.5q48 0 88 -23l-17 -37q-31 15 -64 15q-74 0 -92 -91l-16 -87h277zM479 603q-35 0 -35 20q0 33 13 46q8 8 33 8q35 0 35 -20q0 -33 -13 -46q-8 -8 -33 -8z" />
    <glyph glyph-name="f_dotlessi" unicode="f&#x131;" horiz-adv-x="532" 
d="M46 -40l95 490h-87l9 43h86l17 89q12 63 48.5 98.5t94.5 35.5q49 0 89 -23l-17 -37q-31 15 -63 15q-76 0 -94 -91l-16 -87h277l-95 -493h-58l87 450h-220l-95 -491q-27 -136 -144 -136q-52 0 -95 28l17 36q38 -18 68 -18q78 0 96 91z" />
    <glyph glyph-name="f_f_igrave" unicode="ff&#xec;" horiz-adv-x="810" 
d="M732 724l45 -161l-37 -10l-64 153zM668 0h-58l87 450h-220l-94 -484q-12 -64 -48 -100t-94 -36q-52 0 -91 24l17 36q36 -15 64 -15q76 0 94 91l94 484h-220l-95 -491q-27 -136 -144 -136q-52 0 -95 28l17 36q38 -18 68 -18q78 0 96 91l95 490h-87l9 43h86l16 82
q12 63 48 99t94 36q52 0 90 -25l-17 -36q-33 15 -65 15q-74 0 -92 -91l-15 -80h219l19 97q25 126 125 126q33 0 64 -14l-17 -38q-20 7 -40 7q-59 0 -74 -80l-19 -98h278z" />
    <glyph glyph-name="f_f_iacute" unicode="ff&#xed;" horiz-adv-x="810" 
d="M763 493l-95 -493h-58l87 450h-220l-94 -484q-12 -64 -48 -100t-94 -36q-52 0 -91 24l17 36q36 -15 64 -15q76 0 94 91l94 484h-220l-95 -491q-27 -136 -144 -136q-52 0 -95 28l17 36q38 -18 68 -18q78 0 96 91l95 490h-86l8 43h86l16 81q12 64 48 100t94 36q50 0 91 -24
l-17 -36q-33 14 -65 14q-75 0 -93 -91l-16 -80h220l18 88q12 63 48.5 99t93.5 36q49 0 89 -23l-17 -37q-36 15 -63 15q-75 0 -93 -91l-18 -87h278zM903 682l-164 -119l-27 23l149 131z" />
    <glyph glyph-name="f_f_icircumflex" unicode="ff&#xee;" horiz-adv-x="810" 
d="M668 0h-58l87 450h-220l-94 -484q-12 -64 -48 -100t-94 -36q-52 0 -91 24l17 36q36 -15 64 -15q76 0 94 91l94 484h-220l-95 -491q-27 -136 -144 -136q-52 0 -95 28l17 36q38 -18 68 -18q78 0 96 91l95 490h-87l9 43h86l16 82q12 63 48 99t94 36q52 0 90 -25l-17 -36
q-33 15 -65 15q-74 0 -92 -91l-15 -80h219l19 97q25 126 125 126q33 0 64 -14l-17 -38q-20 7 -40 7q-59 0 -74 -80l-19 -98h278zM877 581l-30 -23l-80 95l-118 -95l-21 25l151 135z" />
    <glyph glyph-name="f_f_itilde" unicode="ff&#x129;" horiz-adv-x="810" 
d="M668 0h-58l87 450h-220l-94 -484q-12 -64 -48 -100t-94 -36q-52 0 -91 24l17 36q36 -15 64 -15q76 0 94 91l94 484h-220l-95 -491q-27 -136 -144 -136q-52 0 -95 28l17 36q38 -18 68 -18q78 0 96 91l95 490h-87l9 43h86l16 82q12 63 48 99t94 36q52 0 90 -25l-17 -36
q-33 15 -65 15q-74 0 -92 -91l-15 -80h219l19 97q25 126 125 126q33 0 63 -14l-17 -38q-19 7 -39 7q-59 0 -74 -80l-19 -98h278zM858 648l26 -21q-41 -63 -92 -63q-27 0 -58 20.5t-44 20.5q-26 0 -59 -41l-26 21q40 63 92 63q26 0 57.5 -20.5t44.5 -20.5q26 0 59 41z" />
    <glyph glyph-name="f_f_idieresis" unicode="ff&#xef;" horiz-adv-x="810" 
d="M668 0h-58l87 450h-220l-94 -484q-12 -64 -48 -100t-94 -36q-52 0 -91 24l17 36q36 -15 64 -15q76 0 94 91l94 484h-220l-95 -491q-27 -136 -144 -136q-52 0 -95 28l17 36q38 -18 68 -18q78 0 96 91l95 490h-87l9 43h86l16 82q12 63 48 99t94 36q52 0 90 -25l-17 -36
q-33 15 -65 15q-74 0 -92 -91l-15 -80h219l19 97q25 126 125 126q33 0 63 -14l-17 -38q-19 7 -39 7q-59 0 -74 -80l-19 -98h278zM867 654q0 -27 -10 -39q-9 -9 -32 -9q-16 0 -22.5 4.5t-6.5 17.5q0 29 11 38q9 9 31 9q16 0 22.5 -4.5t6.5 -16.5zM739 654q0 -28 -11 -39
q-9 -9 -31 -9q-17 0 -23 4.5t-6 17.5q0 29 10 38q9 9 32 9q16 0 22.5 -4.5t6.5 -16.5z" />
    <glyph glyph-name="f_f_imacron" unicode="ff&#x12b;" horiz-adv-x="810" 
d="M883 654l-9 -44h-224l8 44h225zM668 0h-58l87 450h-220l-94 -484q-12 -64 -48 -100t-94 -36q-52 0 -91 24l17 36q36 -15 64 -15q76 0 94 91l94 484h-220l-95 -491q-27 -136 -144 -136q-52 0 -95 28l17 36q38 -18 68 -18q78 0 96 91l95 490h-87l9 43h86l16 82q12 63 48 99
t94 36q52 0 90 -25l-17 -36q-33 15 -65 15q-74 0 -92 -91l-15 -80h219l19 97q25 126 125 126q33 0 63 -14l-17 -38q-19 7 -39 7q-59 0 -74 -80l-19 -98h278z" />
    <glyph glyph-name="f_f_ibreve" unicode="ff&#x12d;" horiz-adv-x="810" 
d="M668 0h-58l87 450h-220l-94 -484q-12 -64 -48 -100t-94 -36q-52 0 -91 24l17 36q36 -15 64 -15q76 0 94 91l94 484h-220l-95 -491q-27 -136 -144 -136q-52 0 -95 28l17 36q38 -18 68 -18q78 0 96 91l95 490h-87l9 43h86l16 82q12 63 48 99t94 36q52 0 90 -25l-17 -36
q-33 15 -65 15q-74 0 -92 -91l-15 -80h219l19 97q25 126 125 126q33 0 63 -14l-17 -38q-19 7 -39 7q-59 0 -74 -80l-19 -98h278zM844 671h38q-25 -122 -137 -122q-115 0 -91 122h38q-11 -74 61 -74q37 0 58.5 17t32.5 57z" />
    <glyph glyph-name="f_f_iogonek" unicode="ff&#x12f;" horiz-adv-x="810" 
d="M763 493l-95 -493q-36 -26 -59 -56t-23 -54q0 -26 28 -26q23 0 53 14l9 -32q-36 -23 -78 -23q-67 0 -67 58q0 55 79 119l87 450h-220l-94 -484q-12 -64 -48 -100t-94 -36q-52 0 -91 24l17 36q36 -15 64 -15q76 0 94 91l94 484h-220l-95 -491q-27 -136 -144 -136
q-52 0 -95 28l17 36q38 -18 68 -18q78 0 96 91l95 490h-86l8 43h86l16 81q12 64 48 100t94 36q50 0 91 -24l-17 -36q-33 14 -65 14q-75 0 -93 -91l-16 -80h220l17 89q12 63 48.5 98.5t94.5 35.5q48 0 88 -23l-17 -37q-31 15 -64 15q-74 0 -92 -91l-17 -87h278zM757 603
q-35 0 -35 20q0 33 13 46q8 8 33 8q35 0 35 -20q0 -33 -13 -46q-8 -8 -33 -8z" />
    <glyph glyph-name="f_f_dotlessi" unicode="ff&#x131;" horiz-adv-x="810" 
d="M763 493l-95 -493h-58l87 450h-220l-94 -484q-12 -64 -48 -100t-94 -36q-52 0 -91 24l17 36q36 -15 64 -15q76 0 94 91l94 484h-220l-95 -491q-27 -136 -144 -136q-52 0 -95 28l17 36q38 -18 68 -18q78 0 96 91l95 490h-86l8 43h86l16 81q12 64 48 100t94 36q50 0 91 -24
l-17 -36q-33 14 -65 14q-75 0 -93 -91l-16 -80h220l18 88q12 63 48.5 99t93.5 36q49 0 89 -23l-17 -37q-36 15 -63 15q-75 0 -93 -91l-18 -87h278z" />
    <glyph glyph-name="f_ij" unicode="f&#x133;" horiz-adv-x="822" 
d="M776 493l-94 -478q-21 -110 -73 -151t-142 -41q-69 0 -140 26l14 36q82 -15 131 -15q65 0 99.5 28.5t48.5 96.5l8 39q15 63 24 92h-1q-31 -57 -77.5 -94.5t-101.5 -37.5q-114 0 -114 132q0 24 5 57.5t11.5 64t19 91.5t22.5 111h-217l-95 -491q-27 -136 -144 -136
q-52 0 -95 28l17 36q38 -18 68 -18q78 0 96 91l95 490h-87l9 43h86l17 89q12 63 48.5 98.5t94.5 35.5q48 0 88 -23l-17 -37q-31 15 -64 15q-74 0 -92 -91l-16 -87h274q-12 -62 -26.5 -131.5t-21.5 -103t-12 -66t-5 -53.5q0 -96 73 -96q56 0 111.5 71t76.5 175l39 204h59z
M480 603q-35 0 -35 20q0 33 13 46q8 8 33 8q35 0 35 -20q0 -33 -13 -46q-8 -8 -33 -8zM768 603q-35 0 -35 20q0 33 13 46q8 8 33 8q35 0 35 -20q0 -33 -13 -46q-8 -8 -33 -8z" />
    <glyph glyph-name="f_j" unicode="fj" horiz-adv-x="532" 
d="M46 -40l95 490h-87l9 43h86l17 89q12 63 48.5 98.5t94.5 35.5q48 0 88 -23l-17 -37q-31 15 -64 15q-74 0 -92 -91l-16 -87h277l-88 -457q-15 -74 -44.5 -122t-88.5 -90l-30 24q81 67 102 171l83 431h-220l-95 -491q-27 -136 -144 -136q-52 0 -95 28l17 36q38 -18 68 -18
q78 0 96 91zM480 603q-35 0 -35 20q0 33 13 46q8 8 33 8q35 0 35 -20q0 -33 -13 -46q-8 -8 -33 -8z" />
    <glyph glyph-name="f_jcircumflex" unicode="f&#x135;" horiz-adv-x="532" 
d="M485 493l-88 -457q-15 -74 -44.5 -122t-88.5 -90l-30 24q81 68 101 171l84 431h-220l-95 -491q-27 -136 -144 -136q-52 0 -95 28l17 36q38 -18 68 -18q78 0 96 91l95 490h-87l9 43h86l19 98q25 125 125 125q33 0 64 -14l-17 -38q-20 7 -40 7q-59 0 -74 -80l-18 -98h277z
M599 581l-30 -23l-80 95l-118 -95l-21 25l151 135z" />
    <glyph glyph-name="f_f_j" unicode="ffj" horiz-adv-x="810" 
d="M697 450h-220l-94 -484q-12 -64 -48 -100t-94 -36q-52 0 -91 24l17 36q36 -15 64 -15q76 0 94 91l94 484h-220l-95 -491q-27 -136 -144 -136q-52 0 -95 28l17 36q38 -18 68 -18q78 0 96 91l95 490h-86l8 43h86l16 81q12 64 48 100t94 36q50 0 91 -24l-17 -36
q-33 14 -65 14q-75 0 -93 -91l-16 -80h220l17 89q12 63 48.5 98.5t94.5 35.5q48 0 88 -23l-17 -37q-31 15 -64 15q-74 0 -92 -91l-17 -87h278l-88 -457q-15 -74 -44.5 -122t-88.5 -90l-30 24q81 67 102 171zM757 603q-35 0 -35 20q0 33 13 46q8 8 33 8q35 0 35 -20
q0 -33 -13 -46q-8 -8 -33 -8z" />
    <glyph glyph-name="f_k" unicode="fk" horiz-adv-x="732" 
d="M332 0l128 662q-45 9 -91 9q-67 0 -102.5 -28t-48.5 -96l-10 -54h107l-8 -43h-108l-95 -491q-27 -136 -144 -136q-52 0 -95 28l17 36q38 -18 68 -18q78 0 96 91l95 490h-87l9 43h86l10 50q18 92 67.5 132.5t136.5 40.5q59 0 108 -7h57l-83 -423h1l213 207h78l-238 -215
l163 -278h-68l-151 264h-2l-51 -264h-58z" />
    <glyph glyph-name="f_kcommaaccent" unicode="f&#x137;" horiz-adv-x="732" 
d="M332 0l128 662q-45 9 -91 9q-67 0 -102.5 -28t-48.5 -96l-10 -54h107l-8 -43h-108l-95 -491q-27 -136 -144 -136q-52 0 -95 28l17 36q38 -18 68 -18q78 0 96 91l95 490h-87l9 43h86l10 50q18 92 67.5 132.5t136.5 40.5q59 0 108 -7h57l-83 -423h1l213 207h78l-238 -215
l163 -278h-68l-151 264h-2l-51 -264h-58zM471 -40q29 0 29 -27q0 -66 -104 -109l-11 24q56 29 56 54q0 3 -2.5 10t-2.5 17q0 31 35 31z" />
    <glyph glyph-name="f_f_k" unicode="ffk" horiz-adv-x="1010" 
d="M1015 493l-238 -215l163 -278h-68l-151 264h-2l-51 -264h-58l128 662q-45 9 -91 9q-67 0 -102.5 -28t-48.5 -96l-11 -54h108l-8 -43h-108l-94 -484q-12 -64 -48 -100t-94 -36q-52 0 -91 24l17 36q36 -15 64 -15q76 0 94 91l94 484h-220l-95 -491q-27 -136 -144 -136
q-52 0 -95 28l17 36q38 -18 68 -18q78 0 96 91l95 490h-86l8 43h86l16 81q12 64 48 100t94 36q50 0 91 -24l-17 -36q-33 14 -65 14q-75 0 -93 -91l-16 -80h220l10 50q18 92 67.5 132.5t136.5 40.5q59 0 108 -7h57l-83 -423h1l213 207h78z" />
    <glyph glyph-name="f_lacute" unicode="f&#x13a;" horiz-adv-x="552" 
d="M46 -40l95 490h-87l9 43h86l10 50q18 92 67.5 132.5t136.5 40.5q60 0 107 -7h58l-115 -591q-7 -35 -7 -52q0 -16 6.5 -21.5t24.5 -5.5q15 0 33 2l-2 -39q-32 -8 -57 -8q-34 0 -50 13t-16 45q0 19 7 53l108 557q-45 9 -91 9q-67 0 -102.5 -28t-48.5 -96l-11 -54h108
l-8 -43h-108l-95 -491q-27 -136 -144 -136q-52 0 -95 28l17 36q36 -18 68 -18q78 0 96 91zM667 810l-185 -72l-15 33l177 88z" />
    <glyph glyph-name="f_lcaron" unicode="f&#x13e;" horiz-adv-x="564" 
d="M46 -40l95 490h-87l9 43h86l10 50q18 92 67.5 132.5t136.5 40.5q60 0 107 -7h58l-115 -591q-7 -35 -7 -52q0 -16 6.5 -21.5t24.5 -5.5q15 0 33 2l-2 -39q-32 -8 -57 -8q-34 0 -50 13t-16 45q0 19 7 53l108 557q-45 9 -91 9q-67 0 -102.5 -28t-48.5 -96l-11 -54h108
l-8 -43h-108l-95 -491q-27 -136 -144 -136q-52 0 -95 28l17 36q36 -18 68 -18q78 0 96 91zM669 734l-84 -166l-35 9l68 169z" />
    <glyph glyph-name="f_lcommaaccent" unicode="f&#x13c;" horiz-adv-x="552" 
d="M46 -40l95 490h-87l9 43h86l10 50q18 92 67.5 132.5t136.5 40.5q60 0 107 -7h58l-115 -591q-7 -35 -7 -52q0 -16 6.5 -21.5t24.5 -5.5q15 0 33 2l-2 -39q-32 -8 -57 -8q-34 0 -50 13t-16 45q0 19 7 53l108 557q-45 9 -91 9q-67 0 -102.5 -28t-48.5 -96l-11 -54h108
l-8 -43h-108l-95 -491q-27 -136 -144 -136q-52 0 -95 28l17 36q36 -18 68 -18q78 0 96 91zM398 -40q29 0 29 -27q0 -66 -104 -109l-11 24q56 29 56 54q0 3 -2.5 10t-2.5 17q0 31 35 31z" />
    <glyph glyph-name="f_lslash" unicode="f&#x142;" horiz-adv-x="554" 
d="M46 -40l95 490h-87l9 43h86l10 50q17 90 67 131.5t137 41.5q48 0 106 -7h59l-56 -286l83 42v-46l-92 -46l-50 -255q-7 -39 -7 -52q0 -16 6.5 -21.5t24.5 -5.5q13 0 33 2l-2 -39q-32 -8 -57 -8q-34 0 -50 12.5t-16 45.5q0 4 7 53l47 236l-83 -42v46l92 46l52 271
q-45 9 -91 9q-66 0 -101.5 -27t-49.5 -97l-10 -54h106l-8 -43h-107l-95 -491q-27 -136 -144 -136q-52 0 -95 28l17 36q38 -18 68 -18q78 0 96 91z" />
    <glyph glyph-name="f_thorn" unicode="f&#xfe;" horiz-adv-x="799" 
d="M528 709l-49 -252q-3 -16 -11.5 -47.5t-10.5 -42.5q30 57 76 95t100 38q56 0 87 -44t31 -111q0 -56 -13.5 -112t-43 -112.5t-88 -92t-138.5 -35.5l-79 5l-33 -171h-58l163 835q-45 9 -92 9q-67 0 -102.5 -28t-48.5 -96l-10 -54h107l-8 -43h-108l-95 -491
q-27 -136 -144 -136q-52 0 -95 28l17 36q38 -18 68 -18q78 0 96 91l95 490h-87l9 43h86l10 50q18 92 67.5 132.5t136.5 40.5q59 0 108 -7h57zM689 332q0 120 -76 120q-53 0 -108 -71t-75 -175l-30 -156q39 -12 82 -12q58 0 101.5 32t65 81t31 94.5t9.5 86.5z" />
    <glyph glyph-name="f_f_thorn" unicode="ff&#xfe;" horiz-adv-x="1077" 
d="M576 -173l163 835q-45 9 -92 9q-67 0 -102.5 -28t-48.5 -96l-11 -54h108l-8 -43h-108l-94 -484q-12 -64 -48 -100t-94 -36q-52 0 -91 24l17 36q36 -15 64 -15q76 0 94 91l94 484h-220l-95 -491q-27 -136 -144 -136q-52 0 -95 28l17 36q38 -18 68 -18q78 0 96 91l95 490
h-86l8 43h86l16 81q12 64 48 100t94 36q50 0 91 -24l-17 -36q-33 14 -65 14q-75 0 -93 -91l-16 -80h220l10 50q18 92 67.5 132.5t136.5 40.5q59 0 108 -7h57l-49 -252q-2 -10 -22 -90q30 57 76 95t100 38q56 0 87 -44t31 -111q0 -56 -13.5 -112t-43 -112.5t-88 -92
t-138.5 -35.5l-79 5l-33 -171h-58zM967 332q0 120 -76 120q-53 0 -108 -71t-75 -175l-30 -156q39 -12 82 -12q58 0 101.5 32t65 81t31 94.5t9.5 86.5z" />
    <glyph glyph-name=".notdef" horiz-adv-x="550" 
d="M300 150h-150v250h50v-200h100v-50zM500 50h-450v450h450v-450zM350 350h-100v50h150v-250h-50v100h-100v50h100v50zM100 100h350v350h-350v-350z" />
    <glyph glyph-name=".null" horiz-adv-x="0" 
 />
    <glyph glyph-name="nonmarkingreturn" horiz-adv-x="333" 
 />
    <glyph glyph-name="CR" unicode="&#xd;" horiz-adv-x="0" 
 />
    <glyph glyph-name="space" unicode=" " horiz-adv-x="240" 
 />
    <glyph glyph-name="exclam" unicode="!" horiz-adv-x="371" 
d="M335 675l-118 -538h-47l93 538h72zM166 -6q-21 0 -29 5.5t-8 20.5q0 33 13 44q9 10 37 10q21 0 29 -5t8 -20q0 -33 -13 -44q-11 -11 -37 -11z" />
    <glyph glyph-name="quotedbl" unicode="&#x22;" horiz-adv-x="423" 
d="M234 675l-58 -252h-44l40 252h62zM408 675l-59 -252h-44l41 252h62z" />
    <glyph glyph-name="numbersign" unicode="#" horiz-adv-x="503" 
d="M462 213h-121l-66 -213h-51l67 213h-129l-66 -213h-51l66 213h-87l8 43h93l60 195h-115l8 42h120l57 182h51l-57 -182h128l57 182h51l-57 -182h88l-8 -42h-93l-61 -195h116zM304 256l60 195h-128l-61 -195h129z" />
    <glyph glyph-name="dollar" unicode="$" 
d="M220 1l-27 -106h-39l16 106q-84 7 -145 49l24 35q58 -38 144 -38q80 0 125 36t45 95q0 38 -26 66.5t-63 49t-73.5 42t-62.5 56t-26 80.5q0 67 52 114t130 52l25 106h39l-14 -105q68 -7 120 -37l-19 -35q-56 28 -126 28q-62 0 -103.5 -30.5t-41.5 -85.5q0 -37 26 -65.5
t63 -48.5t74 -41.5t63 -56.5t26 -81q0 -77 -58.5 -127.5t-147.5 -57.5z" />
    <glyph glyph-name="percent" unicode="%" horiz-adv-x="689" 
d="M220 370q-107 0 -107 102q0 31 8.5 65t26.5 67.5t51.5 55.5t77.5 22q107 0 107 -102q0 -31 -8.5 -65t-26.5 -67.5t-51.5 -55.5t-77.5 -22zM331 576q0 66 -61 66q-30 0 -52.5 -18.5t-32.5 -47.5t-14.5 -53.5t-4.5 -46.5q0 -66 61 -66q30 0 52.5 18.5t32.5 47.5t14.5 53.5
t4.5 46.5zM682 666l-611 -681l-33 25l612 680zM443 -7q-107 0 -107 102q0 31 8.5 64.5t26 67.5t51 56t77.5 22q107 0 107 -102q0 -31 -8.5 -65t-26 -67.5t-51 -55.5t-77.5 -22zM553 199q0 35 -14.5 50.5t-45.5 15.5t-53 -18.5t-32.5 -47.5t-14.5 -53.5t-4 -46.5
q0 -35 14.5 -50.5t45.5 -15.5t53 18.5t32.5 47.5t14.5 53.5t4 46.5z" />
    <glyph glyph-name="ampersand" unicode="&#x26;" horiz-adv-x="702" 
d="M613 39l-7 -36q-23 -10 -48 -10q-45 0 -130 85q-107 -85 -227 -85q-80 0 -120 37.5t-40 95.5q0 80 45 135t125 105q-45 87 -45 146q0 64 48 117t141 53q64 0 98 -28t34 -71q0 -38 -13.5 -69t-48 -60t-55 -42.5t-72.5 -43.5q-3 -2 -5 -3t-5 -3t-5 -3q44 -73 109 -152
q24 -31 47 -56q94 102 116 221h59q-12 -62 -49.5 -131t-93.5 -125q74 -77 111 -77h31zM220 38q89 0 177 73q-22 23 -52 60q-65 78 -113 158q-62 -41 -96.5 -85.5t-34.5 -107.5q0 -46 29.5 -72t89.5 -26zM225 521q0 -51 37 -125q42 24 64.5 38.5t50 37.5t40 47.5t12.5 52.5
q0 67 -82 67q-55 0 -88.5 -36.5t-33.5 -81.5z" />
    <glyph glyph-name="quotesingle" unicode="'" horiz-adv-x="320" 
d="M275 675l-59 -252h-42l40 252h61z" />
    <glyph glyph-name="parenleft" unicode="(" horiz-adv-x="310" 
d="M173 -155l-41 -16q-57 125 -57 289q0 157 60 315t169 291l36 -18q-97 -137 -151.5 -292.5t-54.5 -308.5q0 -134 39 -260z" />
    <glyph glyph-name="parenright" unicode=")" horiz-adv-x="310" 
d="M145 709l41 16q56 -123 56 -288q0 -152 -57 -309.5t-171 -297.5l-36 18q206 292 206 599q0 136 -39 262z" />
    <glyph glyph-name="asterisk" unicode="*" 
d="M471 456l-37 -52l-117 89l-11 -156h-59l32 156l-141 -89l-22 52l150 69l-131 69l36 52l117 -89l11 156h59l-31 -156l141 89l22 -52l-149 -69z" />
    <glyph glyph-name="plus" unicode="+" 
d="M456 274h-178l-38 -194h-51l38 194h-180l9 45h179l37 191h52l-37 -191h178z" />
    <glyph glyph-name="comma" unicode="," horiz-adv-x="305" 
d="M12 -141l-21 29q90 52 90 99q0 7 -6 15.5t-6 19.5q0 32 14 46q9 9 36 9q20 0 27.5 -6.5t7.5 -21.5q0 -51 -33.5 -102t-108.5 -88z" />
    <glyph glyph-name="hyphen" unicode="&#xad;" horiz-adv-x="231" 
d="M233 270h-196l9 48h196z" />
    <glyph glyph-name="hyphen" unicode="-" horiz-adv-x="231" 
d="M233 270h-196l9 48h196z" />
    <glyph glyph-name="period" unicode="." horiz-adv-x="290" 
d="M105 -6q-20 0 -28.5 5t-8.5 19q0 35 14 49q10 10 36 10q20 0 28 -5.5t8 -18.5q0 -36 -13 -49q-10 -10 -36 -10z" />
    <glyph glyph-name="slash" unicode="/" 
d="M571 709l-581 -813h-60l581 813h60z" />
    <glyph glyph-name="zero" unicode="0" 
d="M471 405q0 -77 -31.5 -187t-87.5 -166q-58 -59 -154 -59q-81 0 -121.5 38.5t-40.5 127.5q0 76 32 186.5t88 166.5q59 59 153 59q82 0 122 -38.5t40 -127.5zM208 40q62 0 103 41q46 46 71.5 151t25.5 170q0 66 -27 94t-83 28q-61 0 -102 -41q-46 -46 -72 -150.5
t-26 -170.5t27 -94t83 -28z" />
    <glyph glyph-name="one" unicode="1" 
d="M391 0h-364l10 51h159l88 451l-154 -51l-5 41l183 72h50l-101 -513h143z" />
    <glyph glyph-name="two" unicode="2" 
d="M389 0h-377l8 44q122 88 188.5 140t110 97.5t56.5 78t13 73.5q0 89 -108 89q-64 0 -148 -26l-5 42q100 33 170 33q72 0 114 -32t42 -99q0 -90 -68.5 -164t-283.5 -225h297z" />
    <glyph glyph-name="three" unicode="3" 
d="M143 -111q-76 0 -171 37l12 38q90 -25 158 -25q55 0 94.5 19t59 49.5t28 60.5t8.5 61q0 100 -126 100h-69l9 48h64q82 0 122.5 49.5t40.5 112.5q0 84 -107 84q-78 0 -148 -24l-5 41q84 31 169 31q81 0 118 -33.5t37 -88.5q0 -65 -39 -121t-103 -70q101 -12 101 -125
q0 -30 -6.5 -60.5t-24 -64.5t-45 -59.5t-73.5 -42.5t-104 -17z" />
    <glyph glyph-name="four" unicode="4" 
d="M424 53h-87l-31 -157h-58l31 157h-289l11 51q177 249 348 460h87l-89 -460h87zM289 104l80 411h-1q-152 -187 -311 -411h232z" />
    <glyph glyph-name="five" unicode="5" 
d="M144 -111q-75 0 -170 37l14 38q81 -25 158 -25q53 0 92.5 19t60 50.5t30.5 65t10 69.5q0 55 -32 80t-102 25q-68 0 -139 -16l86 332h291l-10 -52h-244l-59 -224q54 8 101 8q85 0 128.5 -36.5t43.5 -107.5q0 -45 -13.5 -88.5t-42 -84t-81 -65.5t-122.5 -25z" />
    <glyph glyph-name="six" unicode="6" 
d="M212 -7q-151 0 -151 172q0 96 37.5 238.5t107.5 212.5q66 66 164 66q58 0 139 -28l-13 -40q-78 21 -128 21q-84 0 -138.5 -71t-85.5 -226q96 48 159 48q66 0 102.5 -34t36.5 -97q0 -40 -13 -83t-38.5 -84.5t-72 -68t-106.5 -26.5zM380 247q0 91 -99 91q-58 0 -145 -46
q-15 -85 -15 -123q0 -66 24 -97.5t75 -31.5q42 0 75 21.5t50.5 54.5t26 66.5t8.5 64.5z" />
    <glyph glyph-name="seven" unicode="7" 
d="M506 520l-206 -312q-91 -139 -226 -318l-39 17l394 605h-332l10 52h408z" />
    <glyph glyph-name="eight" unicode="8" 
d="M197 -7q-83 0 -126.5 35t-43.5 94q0 66 42 119.5t141 106.5q-96 59 -96 144q0 72 56 131t164 59q80 0 118.5 -34t38.5 -88q0 -65 -39.5 -112t-140.5 -97q64 -37 94 -74t30 -84q0 -80 -62 -140t-176 -60zM430 553q0 84 -112 84q-71 0 -107.5 -43t-36.5 -94q0 -65 93 -123
q95 47 129 84.5t34 91.5zM373 179q0 41 -29.5 73.5t-91.5 68.5q-95 -51 -129 -94.5t-34 -94.5q0 -93 124 -93q70 0 115 41.5t45 98.5z" />
    <glyph glyph-name="nine" unicode="9" 
d="M295 571q152 0 152 -171q0 -103 -37 -240.5t-106 -205.5q-68 -65 -164 -65q-70 0 -151 29l12 39q78 -21 140 -21q83 0 137.5 70t87.5 223q-97 -50 -164 -50q-65 0 -100 34t-35 96q0 27 6.5 58.5t23.5 68.5t41.5 66.5t65.5 49t91 19.5zM128 317q0 -90 104 -90q56 0 141 46
q15 78 15 123q0 129 -101 129q-44 0 -77 -23t-49.5 -58t-24.5 -67.5t-8 -59.5z" />
    <glyph glyph-name="colon" unicode=":" horiz-adv-x="306" 
d="M117 0q-20 0 -28.5 5.5t-8.5 19.5q0 31 14 45q10 10 36 10q20 0 28 -5.5t8 -19.5q0 -32 -13 -45q-11 -10 -36 -10zM197 411q-20 0 -28.5 5.5t-8.5 19.5q0 31 14 45q10 10 36 10q20 0 28 -5.5t8 -19.5q0 -32 -13 -45q-11 -10 -36 -10z" />
    <glyph glyph-name="semicolon" unicode=";" horiz-adv-x="306" 
d="M23 -141l-20 29q88 52 88 98q0 6 -5.5 15t-5.5 19q0 30 13 45q9 9 36 9q35 0 35 -27q0 -50 -33.5 -101t-107.5 -87zM196 411q-20 0 -28 5.5t-8 19.5q0 30 13 45q11 10 36 10q37 0 37 -25q0 -33 -14 -45q-10 -10 -36 -10z" />
    <glyph glyph-name="less" unicode="&#x3c;" 
d="M419 120l-31 -44l-345 199l8 43l423 200l13 -46l-378 -176z" />
    <glyph glyph-name="equal" unicode="=" 
d="M470 369h-398l9 47h398zM433 178h-398l10 46h397z" />
    <glyph glyph-name="greater" unicode="&#x3e;" 
d="M463 275l-422 -199l-14 45l378 177l-309 176l31 44l345 -200z" />
    <glyph glyph-name="question" unicode="?" 
d="M478 558q0 -45 -20.5 -83.5t-51 -66.5t-62.5 -55t-59 -63.5t-36 -77.5l-16 -75h-47l14 89q6 39 30 75.5t54 64t59 55t49 59.5t20 66q0 42 -27 65t-78 23q-62 0 -136 -21l-5 38q86 31 155 31q79 0 118 -34t39 -90zM186 -6q-21 0 -29 5.5t-8 20.5q0 33 13 44q9 10 37 10
q21 0 29 -5t8 -20q0 -33 -13 -44q-11 -11 -37 -11z" />
    <glyph glyph-name="at" unicode="@" horiz-adv-x="1004" 
d="M909 465q0 -103 -40 -189.5t-121 -141.5t-187 -55h-34l31 113q-34 -51 -79.5 -85t-93.5 -34q-103 0 -103 113q0 53 17 106t49 99.5t88 75.5t126 29q76 0 135 -16l-109 -355q119 0 191.5 96.5t72.5 234.5q0 105 -57 157.5t-188 52.5q-112 0 -204.5 -47t-151 -123.5
t-90.5 -170t-32 -191.5q0 -126 62.5 -187.5t213.5 -61.5q129 0 258 54l8 -38q-132 -59 -275 -59q-167 0 -245.5 70.5t-78.5 210.5q0 112 37.5 216.5t105.5 187t173 132.5t229 50q148 0 220 -64.5t72 -179.5zM345 193q0 -72 61 -72q47 0 104.5 63.5t85.5 154.5l31 102
q-43 10 -80 10q-52 0 -92.5 -25t-63.5 -64.5t-34.5 -83t-11.5 -85.5z" />
    <glyph glyph-name="A" unicode="A" horiz-adv-x="516" 
d="M445 0h-63q-6 88 -12 153h-270q-18 -42 -65 -153h-65q152 343 330 675h72q55 -382 73 -675zM121 202h248q-20 214 -49 409h-1q-117 -230 -198 -409z" />
    <glyph glyph-name="B" unicode="B" horiz-adv-x="534" 
d="M194 -2q-34 0 -82 1t-63 1l131 675h165q81 0 120.5 -34t39.5 -90q0 -65 -41 -116.5t-105 -70.5q55 -9 87 -41.5t32 -87.5q0 -41 -14.5 -80t-45.5 -75.5t-89 -59t-135 -22.5zM413 227q0 105 -149 105h-91l-54 -281q50 -5 91 -5q58 0 100.5 19t63 48.5t30 58t9.5 55.5z
M441 539q0 89 -116 89h-94l-48 -249h77q47 0 84 16t57 41.5t30 52t10 50.5z" />
    <glyph glyph-name="C" unicode="C" horiz-adv-x="519" 
d="M423 122l24 -31q-96 -98 -206 -98q-86 0 -132.5 55.5t-46.5 161.5q0 60 12 123.5t37.5 126t61.5 112t89.5 80t115.5 30.5q117 0 151 -112l-35 -23q-35 85 -116 85q-59 0 -108 -40.5t-79 -103.5t-46.5 -134t-16.5 -137q0 -173 129 -173q82 0 166 78z" />
    <glyph glyph-name="D" unicode="D" horiz-adv-x="573" 
d="M540 445q0 -77 -30.5 -179.5t-100.5 -172.5q-92 -94 -238 -94q-25 0 -67.5 0.5t-54.5 0.5l131 675q22 0 63.5 0.5t66.5 0.5q119 0 174.5 -64t55.5 -167zM474 441q0 186 -176 186q-45 0 -66 -1l-112 -575q36 -3 68 -3q102 0 173 69q61 61 87 157.5t26 166.5z" />
    <glyph glyph-name="E" unicode="E" horiz-adv-x="471" 
d="M361 0h-312l131 675h308l-10 -50h-247l-48 -248h203l-10 -49h-203l-53 -278h250z" />
    <glyph glyph-name="F" unicode="F" horiz-adv-x="449" 
d="M473 626h-242l-49 -257h220l-9 -49h-221l-62 -320h-61l131 675h302z" />
    <glyph glyph-name="G" unicode="G" horiz-adv-x="570" 
d="M500 358l-57 -293q-94 -72 -199 -72q-86 0 -134 54t-48 167q0 112 38 218.5t104 172.5q77 77 176 77q94 0 159 -75l-31 -30q-59 55 -124 55q-76 0 -134 -60q-57 -56 -90 -156t-33 -200q0 -172 130 -172q76 0 128 39l45 227h-105l10 48h165z" />
    <glyph glyph-name="H" unicode="H" horiz-adv-x="658" 
d="M509 0h-61l63 329h-338l-63 -329h-61l131 675h61l-58 -293h338l58 293h61z" />
    <glyph glyph-name="I" unicode="I" horiz-adv-x="259" 
d="M110 0h-61l131 675h61z" />
    <glyph glyph-name="J" unicode="J" horiz-adv-x="268" 
d="M250 675l-118 -605q-18 -93 -45.5 -147t-83.5 -97l-28 28q38 36 59 85t36 126l119 610h61z" />
    <glyph glyph-name="K" unicode="K" horiz-adv-x="511" 
d="M432 0h-72l-183 341h-1l-66 -341h-61l131 675h61l-60 -306h1l290 306h75l-312 -316z" />
    <glyph glyph-name="L" unicode="L" horiz-adv-x="421" 
d="M352 0h-303l131 675h61l-121 -625h242z" />
    <glyph glyph-name="M" unicode="M" horiz-adv-x="837" 
d="M699 0h-64q58 349 75 600h-1l-324 -600h-45l-92 600h-1q-72 -241 -147 -600h-62q80 359 181 675h76l90 -570h1l309 570h80q-24 -369 -76 -675z" />
    <glyph glyph-name="N" unicode="N" horiz-adv-x="647" 
d="M498 0h-50l-168 432l-63 168h-1q-12 -82 -26 -155l-87 -445h-54l131 675h73l149 -385l66 -174h1q14 89 28 161l78 398h54z" />
    <glyph glyph-name="O" unicode="O" horiz-adv-x="635" 
d="M266 -7q-204 0 -204 220q0 61 11.5 124t38 125.5t65 111t96.5 78.5t127 30q203 0 203 -220q0 -62 -11.5 -125t-38 -125.5t-64.5 -110t-96 -77.5t-127 -31zM538 460q0 174 -149 174q-67 0 -120 -42t-82.5 -107.5t-44.5 -135t-15 -133.5q0 -174 150 -174q67 0 120 42
t82 107.5t44 134.5t15 134z" />
    <glyph glyph-name="P" unicode="P" horiz-adv-x="504" 
d="M519 522q0 -50 -16.5 -95t-51 -84.5t-96.5 -62.5t-143 -23h-53l-49 -257h-61l131 675q18 0 61.5 0.5t65.5 0.5q212 0 212 -154zM453 513q0 56 -36 85.5t-120 29.5h-66l-62 -321h59q52 0 92.5 14t65 35t40 49.5t21.5 54.5t6 53z" />
    <glyph glyph-name="Q" unicode="Q" horiz-adv-x="635" 
d="M623 -119l-28 -28q-36 23 -78.5 28.5t-76 2.5t-66.5 -0.5t-61.5 28.5t-49.5 81q-201 2 -201 220q0 61 11.5 124t38 125.5t65 111t96.5 78.5t127 30q203 0 203 -220q0 -78 -18 -153.5t-52.5 -142.5t-93 -113t-131.5 -57q22 -36 53.5 -50t65.5 -13t68 3t68.5 -10t59.5 -45z
M538 460q0 174 -149 174q-67 0 -120 -42t-82.5 -107.5t-44.5 -135t-15 -133.5q0 -174 150 -174q67 0 120 42t82 107.5t44 134.5t15 134z" />
    <glyph glyph-name="R" unicode="R" horiz-adv-x="529" 
d="M464 0h-73l-157 307h-64l-60 -307h-61l131 675q17 0 62.5 0.5t81.5 0.5q101 0 151 -37.5t50 -105.5q0 -81 -58 -147t-170 -72zM459 529q0 98 -149 98h-79l-52 -272h88q53 0 92.5 17t60 44t30 55.5t9.5 57.5z" />
    <glyph glyph-name="S" unicode="S" horiz-adv-x="495" 
d="M191 -7q-95 0 -173 52l22 36q80 -39 149 -39q79 0 129 42t50 110q0 39 -26.5 68t-64 49.5t-75 41.5t-64 56t-26.5 81q0 83 61.5 137.5t155.5 54.5q90 0 151 -43l-21 -35q-58 30 -128 30t-112.5 -38t-42.5 -94q0 -39 27 -68t65 -49.5t76 -42t65 -57t27 -82.5
q0 -91 -69.5 -150.5t-175.5 -59.5z" />
    <glyph glyph-name="T" unicode="T" horiz-adv-x="466" 
d="M521 625h-187l-121 -625h-61l121 625h-186l10 50h434z" />
    <glyph glyph-name="U" unicode="U" horiz-adv-x="652" 
d="M636 675l-84 -430q-50 -252 -278 -252q-95 0 -142 40t-47 125q0 40 8 83l85 434h61l-83 -426q-9 -49 -9 -83q0 -66 33.5 -95.5t105.5 -29.5q81 0 132.5 46.5t72.5 156.5l84 431h61z" />
    <glyph glyph-name="V" unicode="V" horiz-adv-x="514" 
d="M510 675h65q-162 -370 -333 -675h-69q-58 378 -72 675h65q9 -269 57 -608h2q160 308 285 608z" />
    <glyph glyph-name="W" unicode="W" horiz-adv-x="847" 
d="M838 675h64q-158 -366 -320 -675h-65l-32 470l-3 91h-1l-39 -94l-204 -467h-71q-46 317 -60 675h65q7 -253 47 -597h1l24 59l235 538h52l35 -524l3 -73h1q157 323 268 597z" />
    <glyph glyph-name="X" unicode="X" horiz-adv-x="540" 
d="M457 0h-68q-50 164 -114 304h-1q-101 -116 -226 -304h-68q114 175 270 353q-74 163 -121 322h67q50 -169 99 -275h1q110 130 204 275h68q-100 -152 -246 -320q94 -212 135 -355z" />
    <glyph glyph-name="Y" unicode="Y" horiz-adv-x="480" 
d="M491 675h70q-175 -254 -282 -376l-58 -299h-61l58 299q-74 159 -136 376h68q54 -197 112 -323h1q95 112 228 323z" />
    <glyph glyph-name="Z" unicode="Z" horiz-adv-x="485" 
d="M392 0h-399l8 42l422 583h-294l13 50h367l-8 -40l-422 -583h324z" />
    <glyph glyph-name="bracketleft" unicode="[" horiz-adv-x="351" 
d="M198 -173h-152l177 912h152l-8 -42h-98l-161 -828h98z" />
    <glyph glyph-name="backslash" unicode="\" 
d="M429 -104h-54l-272 813h54z" />
    <glyph glyph-name="bracketright" unicode="]" horiz-adv-x="351" 
d="M137 -173h-152l8 42h98l161 828h-98l8 42h152z" />
    <glyph glyph-name="asciicircum" unicode="^" 
d="M480 388l-49 -21l-102 293l-215 -293l-43 22l238 320h56z" />
    <glyph glyph-name="underscore" unicode="_" 
d="M416 -174h-499l8 47h499z" />
    <glyph glyph-name="grave" unicode="`" horiz-adv-x="334" 
d="M316 583l-32 -20l-121 124l49 30z" />
    <glyph glyph-name="a" unicode="a" horiz-adv-x="510" 
d="M44 148q0 44 7.5 88.5t27.5 93t50.5 85.5t81.5 61t115 24q29 0 63 -3.5t53 -6.5l20 -4l-95 -486h-49l23 129q-32 -59 -79 -97.5t-100 -38.5q-56 0 -87 44t-31 111zM106 161q0 -120 76 -120q52 0 107 71t75 175l30 156q-39 12 -82 12q-58 0 -101 -32t-64.5 -81t-31 -94.5
t-9.5 -86.5z" />
    <glyph glyph-name="b" unicode="b" horiz-adv-x="510" 
d="M178 -7q-29 0 -62.5 3.5t-53.5 7.5l-19 3l136 702h58l-48 -252q-1 -6 -22 -90q30 57 76.5 95t99.5 38q56 0 87 -44t31 -111q0 -44 -7.5 -88t-27.5 -93t-50.5 -86t-81.5 -61t-116 -24zM399 332q0 120 -76 120q-52 0 -107.5 -71t-75.5 -175l-30 -156q40 -12 83 -12
q58 0 101 32t64.5 81t31 94.5t9.5 86.5z" />
    <glyph glyph-name="c" unicode="c" horiz-adv-x="429" 
d="M338 97l20 -31q-81 -73 -165 -73q-72 0 -110 41.5t-38 123.5q0 49 13.5 104t40.5 110.5t76.5 91.5t112.5 36q85 0 127 -60l-28 -31q-42 45 -97 45q-50 0 -88.5 -33t-58 -82t-28.5 -94.5t-9 -82.5q0 -122 101 -122q64 0 131 57z" />
    <glyph glyph-name="d" unicode="d" horiz-adv-x="510" 
d="M367 0h-49l23 127q-32 -58 -79 -96t-100 -38q-56 0 -87 44t-31 111q0 44 7.5 88.5t27.5 93t50.5 85.5t81.5 61t116 24l79 -5l41 214h58zM106 161q0 -120 76 -120q52 0 107 71t75 175l30 156q-39 12 -82 12q-58 0 -101 -32t-64.5 -81t-31 -94.5t-9.5 -86.5z" />
    <glyph glyph-name="e" unicode="e" horiz-adv-x="467" 
d="M352 72l7 -39q-74 -40 -158 -40q-157 0 -157 161q0 29 5 66.5t22 89t43 92t73 69.5t108 29q59 0 94 -29t35 -75q0 -72 -70 -112.5t-239 -40.5q-10 -41 -10 -85q0 -118 113 -118q61 0 134 32zM364 391q0 65 -80 65q-59 0 -100.5 -48.5t-60.5 -122.5q98 0 153 15t71.5 36
t16.5 55z" />
    <glyph glyph-name="f" unicode="f" horiz-adv-x="291" 
d="M325 493l-8 -43h-118l-95 -491q-27 -136 -144 -136q-52 0 -95 28l17 36q36 -18 68 -18q78 0 96 91l95 490h-87l9 43h86l17 88q12 63 49 99t96 36q53 0 95 -28l-17 -36q-40 19 -69 19q-78 0 -96 -91l-17 -87h118z" />
    <glyph glyph-name="g" unicode="g" horiz-adv-x="510" 
d="M462 486l-95 -485q-20 -101 -70.5 -139.5t-138.5 -38.5q-70 0 -145 26l12 36q80 -15 133 -15q66 0 102 28.5t48 96.5l12 63q5 23 22 89q-30 -57 -76.5 -95.5t-99.5 -38.5q-55 0 -86.5 43t-31.5 115q0 42 8 84t28.5 87t51 79.5t80 56.5t111.5 22q29 0 62.5 -3.5t52.5 -6.5
zM110 178q0 -54 19 -85.5t57 -31.5q52 0 106.5 70t74.5 171l28 141q-40 12 -82 12q-55 0 -96.5 -28t-63.5 -72t-32.5 -89t-10.5 -88z" />
    <glyph glyph-name="h" unicode="h" horiz-adv-x="534" 
d="M393 0h-58q12 63 26.5 132t22 103t12.5 66.5t5 53.5q0 97 -73 97q-56 0 -111.5 -71t-75.5 -175l-41 -206h-58l138 709h58l-49 -252q-7 -43 -22 -90q31 57 77.5 95t101.5 38q114 0 114 -131q0 -34 -7.5 -77t-27 -132.5t-32.5 -159.5z" />
    <glyph glyph-name="i" unicode="i" horiz-adv-x="243" 
d="M100 0h-58l96 493h58zM190 603q-35 0 -35 20q0 32 12 46q8 8 33 8q35 0 35 -20q0 -32 -12 -46q-8 -8 -33 -8z" />
    <glyph glyph-name="j" unicode="j" horiz-adv-x="243" 
d="M196 493l-89 -457q-15 -74 -44 -122t-88 -90l-30 24q80 68 101 171l92 474h58zM190 603q-35 0 -35 20q0 32 12 46q8 8 33 8q35 0 35 -20q0 -32 -12 -46q-8 -8 -33 -8z" />
    <glyph glyph-name="k" unicode="k" horiz-adv-x="443" 
d="M373 0h-69l-151 264h-2l-51 -264h-58l137 709h59l-83 -423h2l213 207h77l-238 -216z" />
    <glyph glyph-name="l" unicode="l" horiz-adv-x="263" 
d="M180 41l-2 -39q-32 -8 -57 -8q-34 0 -50 12.5t-16 45.5q0 19 7 53l117 604h58l-114 -591q-7 -35 -7 -52q0 -16 6.5 -21.5t24.5 -5.5q15 0 33 2z" />
    <glyph glyph-name="m" unicode="m" horiz-adv-x="811" 
d="M670 0h-58q12 62 26.5 132t21.5 103t12 66t5 54q0 97 -68 97q-52 0 -107 -71t-76 -175l-41 -206h-58l49 243q15 79 15 112q0 97 -68 97q-52 0 -107 -71t-75 -175l-41 -206h-58l96 493h49l-23 -127q32 58 78.5 96t98.5 38q106 0 109 -135q31 58 78 96.5t99 38.5
q110 0 110 -131q0 -34 -7.5 -77t-27 -132.5t-32.5 -159.5z" />
    <glyph glyph-name="n" unicode="n" horiz-adv-x="534" 
d="M328 452q-56 0 -111.5 -71t-75.5 -175l-41 -206h-58l96 493h49l-23 -127q32 58 79.5 96t102.5 38q114 0 114 -131q0 -34 -7.5 -77t-27 -132.5t-32.5 -159.5h-58q12 63 26.5 132t22 103t12.5 66.5t5 53.5q0 97 -73 97z" />
    <glyph glyph-name="o" unicode="o" horiz-adv-x="515" 
d="M200 -7q-72 0 -113 40.5t-41 125.5q0 40 7 82t25.5 89.5t46.5 84t76 61t109 24.5q72 0 113 -40.5t41 -125.5q0 -40 -6.5 -82t-25 -89.5t-47 -84t-76.5 -61t-109 -24.5zM404 334q0 62 -26 91t-82 29q-54 0 -93.5 -32t-59 -81.5t-28.5 -95t-9 -85.5q0 -62 26 -91.5
t82 -29.5q54 0 93.5 32t59 81.5t28.5 95t9 86.5z" />
    <glyph glyph-name="p" unicode="p" horiz-adv-x="510" 
d="M461 345q0 -44 -7.5 -88t-27.5 -93t-50.5 -86t-81.5 -61t-116 -24l-79 5l-33 -171h-58l130 666h49l-23 -127q32 58 79 96t100 38q56 0 87 -44t31 -111zM399 332q0 120 -76 120q-52 0 -107 -71t-75 -175l-30 -156q39 -12 82 -12q58 0 101 32t64.5 81t31 94.5t9.5 86.5z
" />
    <glyph glyph-name="q" unicode="q" horiz-adv-x="510" 
d="M327 500q29 0 62.5 -3.5t52.5 -6.5l20 -4l-129 -659h-58l41 209q4 16 11.5 48t10.5 42q-30 -57 -76.5 -95t-99.5 -38q-56 0 -87 44t-31 111q0 44 7.5 88.5t27.5 93t50.5 85.5t81.5 61t116 24zM106 161q0 -120 76 -120q52 0 107.5 71t75.5 175l30 156q-40 12 -82 12
q-58 0 -101.5 -32t-65 -81t-31 -94.5t-9.5 -86.5z" />
    <glyph glyph-name="r" unicode="r" horiz-adv-x="342" 
d="M357 490l-14 -57q-18 6 -38 6q-39 0 -91.5 -63t-73.5 -172l-40 -204h-58l96 493h49l-22 -129q31 58 72 96.5t84 38.5q19 0 36 -9z" />
    <glyph glyph-name="s" unicode="s" horiz-adv-x="395" 
d="M134 -7q-76 0 -133 32l15 36q59 -22 114 -22q59 0 95.5 27t36.5 77q0 28 -20 48t-48.5 33t-57 27t-48.5 39.5t-20 61.5q0 64 48 106t128 42q60 0 108 -24l-16 -36q-45 16 -88 16q-51 0 -84 -25t-33 -71q0 -27 20 -46t48.5 -31.5t57 -26.5t48.5 -40.5t20 -64.5
q0 -70 -52.5 -114t-138.5 -44z" />
    <glyph glyph-name="t" unicode="t" horiz-adv-x="346" 
d="M267 57l5 -37q-61 -27 -106 -27q-49 0 -72 19.5t-23 62.5q0 21 7 59l62 316h-86l9 43h86q29 84 44 140h41l-27 -140h143l-8 -43h-144l-59 -303q-8 -37 -8 -62t12 -35.5t41 -10.5q32 0 83 18z" />
    <glyph glyph-name="u" unicode="u" horiz-adv-x="534" 
d="M487 493l-95 -493h-49l22 127q-31 -58 -78.5 -96t-102.5 -38q-114 0 -114 132q0 33 7.5 76t27 132.5t32.5 159.5h57q-12 -62 -26.5 -132t-21.5 -103t-12 -66t-5 -54q0 -97 73 -97q56 0 111 71.5t76 174.5l40 206h58z" />
    <glyph glyph-name="v" unicode="v" horiz-adv-x="452" 
d="M400 493h66q-124 -295 -266 -493h-56l-76 493h61l54 -348l7 -77h1q119 186 209 425z" />
    <glyph glyph-name="w" unicode="w" horiz-adv-x="717" 
d="M666 493h62q-100 -250 -245 -493h-56l-39 354l-3 59h-1l-26 -60l-162 -353h-65l-57 493h62l35 -331l7 -91h2l32 74l159 348h58l39 -358l4 -64h2q118 221 192 422z" />
    <glyph glyph-name="x" unicode="x" horiz-adv-x="463" 
d="M382 0h-69l-90 226h-1q-86 -110 -170 -226h-70l216 264l-93 229h67l69 -189h1q64 78 139 189h68l-182 -225z" />
    <glyph glyph-name="y" unicode="y" horiz-adv-x="453" 
d="M401 493h65q-73 -172 -140 -298.5t-116.5 -196t-96 -110.5t-76 -52.5t-58.5 -11.5q-30 0 -58 11l7 37q12 -3 38 -3q64 0 117 53q51 51 51 118q0 51 -12 119l-55 334h62l47 -295q17 -102 2 -166h2q51 80 112.5 209t108.5 252z" />
    <glyph glyph-name="z" unicode="z" horiz-adv-x="400" 
d="M309 47l-11 -47h-300l6 38l301 409h-211l11 46h280l-7 -36l-300 -410h231z" />
    <glyph glyph-name="braceleft" unicode="{" horiz-adv-x="388" 
d="M217 -173h-32q-61 0 -80 30t-8 90l42 213q20 105 -61 105h-20l9 46h20q82 0 100 101l40 208q23 119 140 119h28l-8 -39h-24q-31 0 -52 -21t-29 -58l-35 -178q-29 -148 -126 -154q94 -8 65 -157l-36 -187q-8 -45 3 -62t49 -17h23z" />
    <glyph glyph-name="bar" unicode="|" horiz-adv-x="251" 
d="M68 -173h-55l180 926h55z" />
    <glyph glyph-name="braceright" unicode="}" horiz-adv-x="388" 
d="M180 739h31q62 0 80.5 -31t7.5 -89l-40 -203q-20 -105 61 -105h20l-8 -46h-21q-81 0 -101 -101l-41 -218q-23 -119 -140 -119h-27l8 39h24q31 0 52 21t28 58l36 187q28 149 127 155q-95 8 -66 157l35 177q8 44 -3 61.5t-48 17.5h-24z" />
    <glyph glyph-name="asciitilde" unicode="~" 
d="M525 597l-2 -9q-12 -58 -50 -95.5t-93 -37.5q-37 0 -62 16.5t-36 36t-29.5 36t-43.5 16.5q-34 0 -57.5 -25.5t-32.5 -67.5h-46l1 9q12 59 51.5 95.5t91.5 36.5q31 0 52.5 -10.5t34 -26t23 -31t25.5 -26t36 -10.5q36 0 59.5 26.5t30.5 66.5h47z" />
    <glyph glyph-name="uni00A0" unicode="&#xa0;" horiz-adv-x="240" 
 />
    <glyph glyph-name="exclamdown" unicode="&#xa1;" horiz-adv-x="371" 
d="M46 -104l118 538h47l-93 -538h-72zM215 577q21 0 29 -5.5t8 -20.5q0 -33 -13 -44q-11 -11 -37 -11q-21 0 -29 5.5t-8 20.5q0 33 13 44q10 11 37 11z" />
    <glyph glyph-name="cent" unicode="&#xa2;" 
d="M379 206l21 -31q-68 -58 -142 -66l-28 -110h-38l16 109q-62 7 -95 49t-33 107q0 62 20 124.5t71.5 116.5t125.5 64l26 107h39l-15 -108q65 -9 102 -57l-26 -31q-46 45 -104 45q-55 0 -96.5 -39t-61 -95t-19.5 -117q0 -120 103 -120q67 0 134 52z" />
    <glyph glyph-name="sterling" unicode="&#xa3;" 
d="M396 0h-401l9 42q73 61 103 122.5t35 152.5h-93l8 45h86q0 8 -0.5 25t-0.5 26q0 123 51 195.5t157 72.5q82 0 153 -37l-16 -34q-76 25 -132 25q-79 0 -114 -55t-35 -169v-49h194l-8 -45h-187q-6 -87 -34 -149t-97 -119h331z" />
    <glyph glyph-name="currency" unicode="&#xa4;" 
d="M421 51l-47 -31l-49 86q-53 -33 -119 -33q-55 0 -87 30l-80 -83l-38 33l89 76q-17 31 -17 71q0 54 18 106t53 87l-62 80l47 31l49 -86q53 33 118 33q56 0 88 -30l80 83l38 -33l-89 -76q17 -31 17 -72q0 -120 -71 -192zM372 319q0 91 -88 91q-38 0 -67 -16t-45 -38.5
t-25.5 -52.5t-12.5 -53t-3 -45q0 -91 87 -91q38 0 67.5 16t45.5 38.5t25.5 52.5t12.5 53t3 45z" />
    <glyph glyph-name="yen" unicode="&#xa5;" 
d="M433 287l-9 -44h-148l-18 -91h148l-8 -44h-148l-20 -108h-60l21 108h-148l8 44h148l18 91h-148l8 44h148l6 24q-73 152 -138 364h67q50 -180 114 -316q96 109 226 316h69q-145 -209 -279 -364l-5 -24h148z" />
    <glyph glyph-name="brokenbar" unicode="&#xa6;" horiz-adv-x="251" 
d="M67 -173h-51l71 369h51zM172 368h-51l75 388h51z" />
    <glyph glyph-name="section" unicode="&#xa7;" horiz-adv-x="501" 
d="M434 170q0 -75 -43 -155.5t-111.5 -135t-135.5 -54.5q-61 0 -106 27l18 37q41 -17 90 -17q53 0 83 36t30 83q0 30 -19 61t-45.5 60t-53.5 60.5t-46 74t-19 89.5q0 77 42.5 158t110 134.5t135.5 53.5q57 0 98 -23l-19 -37q-32 13 -80 13q-56 0 -84.5 -38t-28.5 -82
q0 -29 19 -60t46 -60t54 -61t46 -74.5t19 -89.5zM376 159q0 43 -18 82t-44 69t-52 58t-44 59.5t-18 62.5q0 34 25 74q-92 -103 -92 -216q0 -43 18 -82.5t44 -69.5t52 -58t44 -59.5t18 -62.5q0 -35 -27 -76q43 45 68.5 104.5t25.5 114.5z" />
    <glyph glyph-name="dieresis" unicode="&#xa8;" horiz-adv-x="422" 
d="M416 654q0 -28 -11 -39q-9 -9 -32 -9q-31 0 -31 22q0 29 11 38q9 9 32 9q31 0 31 -21zM227 654q0 -28 -11 -39q-9 -9 -32 -9q-31 0 -31 22q0 29 11 38q9 9 32 9q31 0 31 -21z" />
    <glyph glyph-name="copyright" unicode="&#xa9;" horiz-adv-x="773" 
d="M478 232l19 -28q-63 -51 -128 -51q-56 0 -87 33t-31 97q0 42 11.5 83.5t34 78t61 59.5t86.5 23q60 0 96 -45l-26 -27q-31 30 -73 30q-41 0 -72.5 -33t-45 -77t-13.5 -88q0 -91 75 -91q44 0 93 36zM355 -9q-129 0 -212.5 84t-83.5 213q0 101 51 192t140.5 147t195.5 56
q130 0 213.5 -84t83.5 -213q0 -101 -51 -192t-141 -147t-196 -56zM694 382q0 111 -70 185.5t-182 74.5q-139 0 -237 -106t-98 -244q0 -111 70 -185.5t182 -74.5q139 0 237 106t98 244z" />
    <glyph glyph-name="ordfeminine" unicode="&#xaa;" horiz-adv-x="461" 
d="M347 215h-283l8 41h283zM363 339h-44l18 97q-23 -45 -61.5 -74.5t-73.5 -29.5q-43 0 -68 31.5t-25 89.5q0 33 6 66.5t22 69.5t40 63.5t63.5 45t89.5 17.5q47 0 104 -10zM355 569l19 100q-24 8 -59 8q-44 0 -76 -23t-47.5 -59t-22 -69.5t-6.5 -64.5q0 -85 54 -85
q40 0 81 55t57 138z" />
    <glyph glyph-name="guillemotleft" unicode="&#xab;" horiz-adv-x="502" 
d="M187 124l-40 -15l-84 187l154 187l36 -18l-125 -169zM379 129l-38 -15l-83 182l151 182l35 -18l-121 -164z" />
    <glyph glyph-name="logicalnot" unicode="&#xac;" 
d="M415 139h-53l27 134h-343l9 47h396z" />
    <glyph glyph-name="registered" unicode="&#xae;" horiz-adv-x="567" 
d="M550 510q0 -100 -71 -174t-175 -74q-88 0 -145.5 57t-57.5 140q0 100 70.5 173.5t174.5 73.5q89 0 146.5 -56.5t57.5 -139.5zM509 507q0 69 -46.5 116.5t-118.5 47.5q-84 0 -143 -61.5t-59 -147.5q0 -70 46.5 -117.5t117.5 -47.5q85 0 144 61.5t59 148.5zM417 555
q0 -64 -66 -85l41 -106h-45l-34 102h-22l-19 -102h-39l47 244h68q33 0 51 -15t18 -38zM377 553q0 24 -34 24h-30l-15 -81h26q23 0 38 15t15 42z" />
    <glyph glyph-name="macron" unicode="&#x2c9;" horiz-adv-x="415" 
d="M402 610h-253l8 44h254z" />
    <glyph glyph-name="macron" unicode="&#xaf;" horiz-adv-x="415" 
d="M402 610h-253l8 44h254z" />
    <glyph glyph-name="degree" unicode="&#xb0;" horiz-adv-x="450" 
d="M411 590q0 -61 -39 -107t-110 -46q-105 0 -105 96q0 60 40 106t112 46q102 0 102 -95zM357 590q0 54 -54 54q-48 0 -70 -32t-22 -79q0 -54 57 -54q48 0 68.5 31.5t20.5 79.5z" />
    <glyph glyph-name="plusminus" unicode="&#xb1;" 
d="M403 0h-408l8 44h408zM463 312h-178l-36 -185h-51l36 185h-179l8 44h180l35 180h51l-36 -180h178z" />
    <glyph glyph-name="twosuperior" unicode="&#xb2;" horiz-adv-x="337" 
d="M315 369h-249l8 38q131 92 179.5 139.5t48.5 96.5q0 47 -66 47q-27 0 -94 -18l-4 33q66 24 115 24q48 0 76 -22t28 -58q0 -54 -54.5 -111.5t-165.5 -124.5v-2h186z" />
    <glyph glyph-name="threesuperior" unicode="&#xb3;" horiz-adv-x="339" 
d="M345 488q0 -20 -7 -39.5t-24 -40t-52 -33t-83 -12.5q-54 0 -112 19l11 30q59 -11 102 -11q60 0 84.5 24.5t24.5 58.5q0 52 -84 52h-51l8 36h50q49 0 73 20.5t24 50.5q0 24 -16.5 36t-56.5 12q-37 0 -87 -13l-4 32q59 19 105 19q59 0 86.5 -22t27.5 -55t-23.5 -59
t-63.5 -34q68 -13 68 -71z" />
    <glyph glyph-name="acute" unicode="&#xb4;" horiz-adv-x="334" 
d="M335 682l-164 -119l-27 23l149 131z" />
    <glyph glyph-name="mu" unicode="&#x3bc;" horiz-adv-x="558" 
d="M427 -6q-44 0 -57 34t1 98q-32 -57 -77.5 -94.5t-98.5 -37.5q-41 0 -62 16.5t-30 50.5q-23 -157 -36 -234h-59l130 666h58l-56 -286q-7 -37 -9 -71q-3 -94 77 -94q57 0 112 71t75 174l40 206h58l-38 -199q-17 -88 -24.5 -137t-7 -76.5t6.5 -35t21 -7.5q23 0 46 8l1 -36
q-37 -16 -71 -16z" />
    <glyph glyph-name="mu" unicode="&#xb5;" horiz-adv-x="558" 
d="M427 -6q-44 0 -57 34t1 98q-32 -57 -77.5 -94.5t-98.5 -37.5q-41 0 -62 16.5t-30 50.5q-23 -157 -36 -234h-59l130 666h58l-56 -286q-7 -37 -9 -71q-3 -94 77 -94q57 0 112 71t75 174l40 206h58l-38 -199q-17 -88 -24.5 -137t-7 -76.5t6.5 -35t21 -7.5q23 0 46 8l1 -36
q-37 -16 -71 -16z" />
    <glyph glyph-name="paragraph" unicode="&#xb6;" horiz-adv-x="610" 
d="M446 -104h-52l143 735h-100l-143 -735h-52l80 412q-20 -4 -43 -4q-69 0 -113 42t-44 108q0 87 62.5 154t172.5 67h240z" />
    <glyph glyph-name="periodcentered" unicode="&#x2219;" horiz-adv-x="255" 
d="M129 255q-21 0 -29 5t-8 19q0 33 13 48q11 10 37 10q20 0 28.5 -5t8.5 -19q0 -34 -14 -48q-9 -10 -36 -10z" />
    <glyph glyph-name="periodcentered" unicode="&#xb7;" horiz-adv-x="255" 
d="M129 255q-21 0 -29 5t-8 19q0 33 13 48q11 10 37 10q20 0 28.5 -5t8.5 -19q0 -34 -14 -48q-9 -10 -36 -10z" />
    <glyph glyph-name="cedilla" unicode="&#xb8;" horiz-adv-x="263" 
d="M67 -44h53q-4 -78 -89 -133l-28 22q32 26 46 49.5t18 61.5z" />
    <glyph glyph-name="onesuperior" unicode="&#xb9;" horiz-adv-x="332" 
d="M310 369h-234l8 40h94l53 268l-90 -26l-4 31l116 43h40l-61 -316h86z" />
    <glyph glyph-name="ordmasculine" unicode="&#xba;" horiz-adv-x="435" 
d="M226 333q-57 0 -92 31t-35 98q0 37 10 77.5t31 81.5t63 67.5t97 26.5q58 0 94 -33t36 -99q0 -39 -11 -80t-33 -80.5t-64 -64.5t-96 -25zM344 215h-282l8 41h282zM374 582q0 91 -82 91q-38 0 -66.5 -22t-42.5 -56.5t-20.5 -67t-6.5 -61.5q0 -91 81 -91q38 0 66.5 22
t42.5 56.5t21 67t7 61.5z" />
    <glyph glyph-name="guillemotright" unicode="&#xbb;" horiz-adv-x="502" 
d="M331 468l38 15l86 -187l-156 -187l-35 18l126 169zM137 463l39 15l83 -182l-151 -182l-36 18l123 164z" />
    <glyph glyph-name="onequarter" unicode="&#xbc;" horiz-adv-x="704" 
d="M310 369h-234l8 40h94l53 268l-90 -26l-4 31l116 43h40l-61 -316h86zM767 708l-719 -772l-33 22l718 772zM636 26h-59l-17 -81h-51l16 81h-182l7 37q91 118 207 236h72l-44 -233h59zM533 66l40 199h-1q-74 -73 -173 -199h134z" />
    <glyph glyph-name="onehalf" unicode="&#xbd;" horiz-adv-x="733" 
d="M310 369h-234l8 40h94l53 268l-90 -26l-4 31l116 43h40l-61 -316h86zM767 708l-719 -772l-33 22l718 772zM628 -55h-249l8 38q131 92 179.5 139.5t48.5 96.5q0 47 -66 47q-27 0 -94 -18l-4 33q66 24 115 24q48 0 76 -22t28 -58q0 -54 -54.5 -111.5t-165.5 -124.5v-2h186z
" />
    <glyph glyph-name="threequarters" unicode="&#xbe;" horiz-adv-x="719" 
d="M345 488q0 -20 -7 -39.5t-24 -40t-52 -33t-83 -12.5q-54 0 -112 19l11 30q59 -11 102 -11q60 0 84.5 24.5t24.5 58.5q0 52 -84 52h-51l8 36h50q49 0 73 20.5t24 50.5q0 24 -16.5 36t-56.5 12q-37 0 -87 -13l-4 32q59 19 105 19q59 0 86.5 -22t27.5 -55t-23.5 -59
t-63.5 -34q68 -13 68 -71zM783 708l-719 -772l-33 22l718 772zM651 26h-59l-17 -81h-51l16 81h-182l7 37q91 118 207 236h72l-44 -233h59zM548 66l40 199h-1q-74 -73 -173 -199h134z" />
    <glyph glyph-name="questiondown" unicode="&#xbf;" 
d="M33 13q0 45 20.5 83.5t51 66.5t62.5 55t59 63.5t36 77.5l16 75h47l-14 -89q-6 -39 -30 -75.5t-54 -64t-59 -55t-49 -59.5t-20 -66q0 -42 27 -65t78 -23q62 0 136 21l5 -38q-86 -31 -155 -31q-79 0 -118 34t-39 90zM325 577q21 0 29 -5.5t8 -20.5q0 -33 -13 -44
q-10 -11 -37 -11q-21 0 -29 5.5t-8 20.5q0 33 13 44q11 11 37 11z" />
    <glyph glyph-name="Agrave" unicode="&#xc0;" horiz-adv-x="516" 
d="M445 0h-63q-6 88 -12 153h-270q-18 -42 -65 -153h-65q152 343 330 675h72q55 -382 73 -675zM121 202h248q-20 214 -49 409h-1q-117 -230 -198 -409zM387 761l-23 -30l-161 76l36 45z" />
    <glyph glyph-name="Aacute" unicode="&#xc1;" horiz-adv-x="516" 
d="M445 0h-63q-6 88 -12 153h-270q-18 -42 -65 -153h-65q152 343 330 675h72q55 -382 73 -675zM121 202h248q-20 214 -49 409h-1q-117 -230 -198 -409zM499 803l-185 -72l-15 33l177 88z" />
    <glyph glyph-name="Acircumflex" unicode="&#xc2;" horiz-adv-x="516" 
d="M445 0h-63q-6 88 -12 153h-270q-18 -42 -65 -153h-65q152 343 330 675h72q55 -382 73 -675zM121 202h248q-20 214 -49 409h-1q-117 -230 -198 -409zM366 852l124 -91l-23 -30l-109 66l-135 -66l-14 30z" />
    <glyph glyph-name="Atilde" unicode="&#xc3;" horiz-adv-x="516" 
d="M445 0h-63q-6 88 -12 153h-270q-18 -42 -65 -153h-65q152 343 330 675h72q55 -382 73 -675zM121 202h248q-20 214 -49 409h-1q-117 -230 -198 -409zM490 834l29 -20q-29 -44 -51.5 -60.5t-55.5 -16.5q-27 0 -49.5 14.5t-40.5 28.5t-34 14q-17 0 -30.5 -11t-39.5 -43
l-29 20q29 44 51.5 60.5t55.5 16.5q27 0 49.5 -14.5t40.5 -29t34 -14.5t30 11t40 44z" />
    <glyph glyph-name="Adieresis" unicode="&#xc4;" horiz-adv-x="516" 
d="M445 0h-63q-6 88 -12 153h-270q-18 -42 -65 -153h-65q152 343 330 675h72q55 -382 73 -675zM121 202h248q-20 214 -49 409h-1q-117 -230 -198 -409zM491 790q0 -28 -10 -38q-9 -9 -32 -9q-17 0 -24 4.5t-7 16.5q0 28 10 38q9 9 32 9q31 0 31 -21zM295 790q0 -28 -10 -38
q-9 -9 -32 -9q-31 0 -31 21q0 28 10 38q9 9 32 9q31 0 31 -21z" />
    <glyph glyph-name="Aring" unicode="&#xc5;" horiz-adv-x="516" 
d="M445 0h-63q-6 88 -12 153h-270q-18 -42 -65 -153h-65q152 343 330 675h72q55 -382 73 -675zM121 202h248q-20 214 -49 409h-1q-117 -230 -198 -409zM337 693q-79 0 -79 59q0 41 27.5 70.5t80.5 29.5q80 0 80 -59q0 -41 -28 -70.5t-81 -29.5zM399 789q0 28 -40 28
q-54 0 -54 -61q0 -28 39 -28q29 0 42 18t13 43z" />
    <glyph glyph-name="AE" unicode="&#xc6;" horiz-adv-x="705" 
d="M595 0h-312l29 153h-213q-45 -71 -91 -153h-67q220 362 442 675h339l-10 -50h-247l-48 -248h203l-10 -49h-203l-54 -278h250zM321 202l83 423h-1q-137 -199 -275 -423h193z" />
    <glyph glyph-name="Ccedilla" unicode="&#xc7;" horiz-adv-x="519" 
d="M423 122l24 -31q-96 -98 -206 -98q-86 0 -132.5 55.5t-46.5 161.5q0 60 12 123.5t37.5 126t61.5 112t89.5 80t115.5 30.5q117 0 151 -112l-35 -23q-35 85 -116 85q-59 0 -108 -40.5t-79 -103.5t-46.5 -134t-16.5 -137q0 -173 129 -173q82 0 166 78zM211 -44h53
q-4 -78 -89 -133l-28 22q32 26 46 49.5t18 61.5z" />
    <glyph glyph-name="Egrave" unicode="&#xc8;" horiz-adv-x="471" 
d="M361 0h-312l131 675h308l-10 -50h-247l-48 -248h203l-10 -49h-203l-53 -278h250zM393 761l-23 -30l-161 76l36 45z" />
    <glyph glyph-name="Eacute" unicode="&#xc9;" horiz-adv-x="471" 
d="M361 0h-312l131 675h308l-10 -50h-247l-48 -248h203l-10 -49h-203l-53 -278h250zM498 803l-185 -72l-15 33l177 88z" />
    <glyph glyph-name="Ecircumflex" unicode="&#xca;" horiz-adv-x="471" 
d="M361 0h-312l131 675h308l-10 -50h-247l-48 -248h203l-10 -49h-203l-53 -278h250zM362 852l124 -91l-23 -30l-109 66l-135 -66l-14 30z" />
    <glyph glyph-name="Edieresis" unicode="&#xcb;" horiz-adv-x="471" 
d="M361 0h-312l131 675h308l-10 -50h-247l-48 -248h203l-10 -49h-203l-53 -278h250zM484 790q0 -28 -10 -38q-9 -9 -32 -9q-17 0 -24 4.5t-7 16.5q0 28 10 38q9 9 32 9q31 0 31 -21zM288 790q0 -28 -10 -38q-9 -9 -32 -9q-31 0 -31 21q0 28 10 38q9 9 32 9q31 0 31 -21z" />
    <glyph glyph-name="Igrave" unicode="&#xcc;" horiz-adv-x="259" 
d="M110 0h-61l131 675h61zM261 761l-23 -30l-161 76l36 45z" />
    <glyph glyph-name="Iacute" unicode="&#xcd;" horiz-adv-x="259" 
d="M110 0h-61l131 675h61zM378 803l-185 -72l-15 33l177 88z" />
    <glyph glyph-name="Icircumflex" unicode="&#xce;" horiz-adv-x="259" 
d="M110 0h-61l131 675h61zM243 852l124 -91l-23 -30l-109 66l-135 -66l-14 30z" />
    <glyph glyph-name="Idieresis" unicode="&#xcf;" horiz-adv-x="259" 
d="M110 0h-61l131 675h61zM335 790q0 -26 -10 -38q-9 -9 -32 -9q-17 0 -23.5 4.5t-6.5 16.5q0 28 10 38q9 9 31 9q31 0 31 -21zM195 790q0 -28 -10 -38q-9 -9 -31 -9q-17 0 -23.5 4.5t-6.5 16.5q0 28 10 38q9 9 31 9q17 0 23.5 -4.5t6.5 -16.5z" />
    <glyph glyph-name="Eth" unicode="&#xd0;" horiz-adv-x="583" 
d="M550 445q0 -77 -30.5 -179.5t-100.5 -172.5q-92 -94 -238 -94q-25 0 -67.5 0.5t-54.5 0.5l63 328h-69l9 49h70l58 298q22 0 63.5 0.5t66.5 0.5q119 0 174.5 -64t55.5 -167zM484 441q0 186 -176 186q-45 0 -66 -1l-49 -249h132l-10 -49h-132l-53 -277q36 -3 68 -3
q102 0 173 69q61 61 87 157.5t26 166.5z" />
    <glyph glyph-name="Ntilde" unicode="&#xd1;" horiz-adv-x="647" 
d="M498 0h-50l-168 432l-63 168h-1q-12 -82 -26 -155l-87 -445h-54l131 675h73l149 -385l66 -174h1q14 89 28 161l78 398h54zM569 834l29 -20q-29 -44 -51.5 -60.5t-55.5 -16.5q-35 0 -71 28.5t-53 28.5t-30.5 -11t-39.5 -43l-29 20q29 44 51.5 60.5t55.5 16.5q35 0 71 -29
t53 -29q16 0 30 11t40 44z" />
    <glyph glyph-name="Ograve" unicode="&#xd2;" horiz-adv-x="635" 
d="M266 -7q-204 0 -204 220q0 61 11.5 124t38 125.5t65 111t96.5 78.5t127 30q203 0 203 -220q0 -62 -11.5 -125t-38 -125.5t-64.5 -110t-96 -77.5t-127 -31zM538 460q0 174 -149 174q-67 0 -120 -42t-82.5 -107.5t-44.5 -135t-15 -133.5q0 -174 150 -174q67 0 120 42
t82 107.5t44 134.5t15 134zM446 761l-23 -30l-161 76l36 45z" />
    <glyph glyph-name="Oacute" unicode="&#xd3;" horiz-adv-x="635" 
d="M266 -7q-204 0 -204 220q0 61 11.5 124t38 125.5t65 111t96.5 78.5t127 30q203 0 203 -220q0 -62 -11.5 -125t-38 -125.5t-64.5 -110t-96 -77.5t-127 -31zM538 460q0 174 -149 174q-67 0 -120 -42t-82.5 -107.5t-44.5 -135t-15 -133.5q0 -174 150 -174q67 0 120 42
t82 107.5t44 134.5t15 134zM577 803l-185 -72l-15 33l177 88z" />
    <glyph glyph-name="Ocircumflex" unicode="&#xd4;" horiz-adv-x="635" 
d="M266 -7q-204 0 -204 220q0 61 11.5 124t38 125.5t65 111t96.5 78.5t127 30q203 0 203 -220q0 -62 -11.5 -125t-38 -125.5t-64.5 -110t-96 -77.5t-127 -31zM538 460q0 174 -149 174q-67 0 -120 -42t-82.5 -107.5t-44.5 -135t-15 -133.5q0 -174 150 -174q67 0 120 42
t82 107.5t44 134.5t15 134zM429 852l124 -91l-23 -30l-109 66l-135 -66l-14 30z" />
    <glyph glyph-name="Otilde" unicode="&#xd5;" horiz-adv-x="635" 
d="M266 -7q-204 0 -204 220q0 61 11.5 124t38 125.5t65 111t96.5 78.5t127 30q203 0 203 -220q0 -62 -11.5 -125t-38 -125.5t-64.5 -110t-96 -77.5t-127 -31zM538 460q0 174 -149 174q-67 0 -120 -42t-82.5 -107.5t-44.5 -135t-15 -133.5q0 -174 150 -174q67 0 120 42
t82 107.5t44 134.5t15 134zM557 834l29 -20q-29 -44 -51.5 -60.5t-55.5 -16.5q-35 0 -71 28.5t-53 28.5t-30.5 -11t-39.5 -43l-29 20q29 44 51.5 60.5t55.5 16.5q35 0 71 -29t53 -29q16 0 30 11t40 44z" />
    <glyph glyph-name="Odieresis" unicode="&#xd6;" horiz-adv-x="635" 
d="M266 -7q-204 0 -204 220q0 61 11.5 124t38 125.5t65 111t96.5 78.5t127 30q203 0 203 -220q0 -62 -11.5 -125t-38 -125.5t-64.5 -110t-96 -77.5t-127 -31zM538 460q0 174 -149 174q-67 0 -120 -42t-82.5 -107.5t-44.5 -135t-15 -133.5q0 -174 150 -174q67 0 120 42
t82 107.5t44 134.5t15 134zM552 790q0 -28 -10 -38q-9 -9 -32 -9q-17 0 -24 4.5t-7 16.5q0 28 10 38q9 9 32 9q31 0 31 -21zM356 790q0 -28 -10 -38q-9 -9 -32 -9q-31 0 -31 21q0 28 10 38q9 9 32 9q31 0 31 -21z" />
    <glyph glyph-name="multiply" unicode="&#xd7;" 
d="M292 295l113 -140l-40 -32l-112 140l-168 -140l-27 34l166 140l-111 139l39 33l112 -139l166 139l28 -35z" />
    <glyph glyph-name="Oslash" unicode="&#xd8;" horiz-adv-x="635" 
d="M266 -7q-91 0 -141 47l-86 -111l-36 24l93 118q-34 53 -34 142q0 78 20 157t58.5 150.5t106 116.5t153.5 45q90 0 140 -47l87 111l35 -24l-93 -118q34 -53 34 -142q0 -62 -11.5 -124.5t-37.5 -125t-63.5 -110.5t-96 -78.5t-128.5 -30.5zM389 635q-55 0 -100.5 -28
t-75 -71.5t-50 -99.5t-29.5 -109.5t-9 -103.5q0 -69 16 -97l363 463q-37 46 -115 46zM277 40q67 0 120.5 41.5t83.5 106t45 132.5t15 132q0 67 -16 97l-363 -463q37 -46 115 -46z" />
    <glyph glyph-name="Ugrave" unicode="&#xd9;" horiz-adv-x="652" 
d="M636 675l-84 -430q-50 -252 -278 -252q-95 0 -142 40t-47 125q0 40 8 83l85 434h61l-83 -426q-9 -49 -9 -83q0 -66 33.5 -95.5t105.5 -29.5q81 0 132.5 46.5t72.5 156.5l84 431h61zM447 761l-23 -30l-161 76l36 45z" />
    <glyph glyph-name="Uacute" unicode="&#xda;" horiz-adv-x="652" 
d="M636 675l-84 -430q-50 -252 -278 -252q-95 0 -142 40t-47 125q0 40 8 83l85 434h61l-83 -426q-9 -49 -9 -83q0 -66 33.5 -95.5t105.5 -29.5q81 0 132.5 46.5t72.5 156.5l84 431h61zM598 803l-185 -72l-15 33l177 88z" />
    <glyph glyph-name="Ucircumflex" unicode="&#xdb;" horiz-adv-x="652" 
d="M636 675l-84 -430q-50 -252 -278 -252q-95 0 -142 40t-47 125q0 40 8 83l85 434h61l-83 -426q-9 -49 -9 -83q0 -66 33.5 -95.5t105.5 -29.5q81 0 132.5 46.5t72.5 156.5l84 431h61zM440 852l124 -91l-23 -30l-109 66l-135 -66l-14 30z" />
    <glyph glyph-name="Udieresis" unicode="&#xdc;" horiz-adv-x="652" 
d="M636 675l-84 -430q-50 -252 -278 -252q-95 0 -142 40t-47 125q0 40 8 83l85 434h61l-83 -426q-9 -49 -9 -83q0 -66 33.5 -95.5t105.5 -29.5q81 0 132.5 46.5t72.5 156.5l84 431h61zM560 790q0 -28 -10 -38q-9 -9 -32 -9q-17 0 -24 4.5t-7 16.5q0 28 10 38q9 9 32 9
q31 0 31 -21zM364 790q0 -28 -10 -38q-9 -9 -32 -9q-31 0 -31 21q0 28 10 38q9 9 32 9q31 0 31 -21z" />
    <glyph glyph-name="Yacute" unicode="&#xdd;" horiz-adv-x="480" 
d="M491 675h70q-175 -254 -282 -376l-58 -299h-61l58 299q-74 159 -136 376h68q54 -197 112 -323h1q95 112 228 323zM500 803l-185 -72l-15 33l177 88z" />
    <glyph glyph-name="Thorn" unicode="&#xde;" horiz-adv-x="504" 
d="M496 410q0 -50 -16.5 -95t-51 -84t-96 -62t-142.5 -23h-52l-28 -146h-61l131 675h62l-22 -112q6 0 28 0.5t37 0.5q211 0 211 -154zM430 401q0 56 -36 85.5t-120 29.5h-64l-63 -321h58q52 0 92.5 14t65 35t40 49.5t21.5 54.5t6 53z" />
    <glyph glyph-name="germandbls" unicode="&#xdf;" horiz-adv-x="540" 
d="M34 -40l108 551q20 105 71.5 154.5t145.5 49.5q64 0 99.5 -29t35.5 -79q0 -43 -17 -74.5t-41 -49.5t-47.5 -34.5t-40.5 -39t-17 -51.5q0 -28 22 -52t48 -40t48 -46t22 -70q0 -64 -46 -110t-124 -46q-63 0 -106 23l16 36q37 -15 87 -15q48 0 79.5 29.5t31.5 71.5
q0 27 -14 48t-34.5 36t-41 30.5t-34.5 39t-14 54.5q0 40 17 68t41 44.5t48.5 33t41.5 43.5t17 65q0 70 -84 70q-68 0 -102.5 -40t-49.5 -119l-107 -549q-28 -140 -145 -140q-50 0 -95 28l17 36q38 -18 69 -18q40 0 63 22t32 69z" />
    <glyph glyph-name="agrave" unicode="&#xe0;" horiz-adv-x="510" 
d="M44 148q0 44 7.5 88.5t27.5 93t50.5 85.5t81.5 61t115 24q29 0 63 -3.5t53 -6.5l20 -4l-95 -486h-49l23 129q-32 -59 -79 -97.5t-100 -38.5q-56 0 -87 44t-31 111zM106 161q0 -120 76 -120q52 0 107 71t75 175l30 156q-39 12 -82 12q-58 0 -101 -32t-64.5 -81t-31 -94.5
t-9.5 -86.5zM361 583l-32 -20l-121 124l49 30z" />
    <glyph glyph-name="aacute" unicode="&#xe1;" horiz-adv-x="510" 
d="M44 148q0 44 7.5 88.5t27.5 93t50.5 85.5t81.5 61t115 24q29 0 63 -3.5t53 -6.5l20 -4l-95 -486h-49l23 129q-32 -59 -79 -97.5t-100 -38.5q-56 0 -87 44t-31 111zM106 161q0 -120 76 -120q52 0 107 71t75 175l30 156q-39 12 -82 12q-58 0 -101 -32t-64.5 -81t-31 -94.5
t-9.5 -86.5zM468 682l-164 -119l-27 23l149 131z" />
    <glyph glyph-name="acircumflex" unicode="&#xe2;" horiz-adv-x="510" 
d="M44 148q0 44 7.5 88.5t27.5 93t50.5 85.5t81.5 61t115 24q29 0 63 -3.5t53 -6.5l20 -4l-95 -486h-49l23 129q-32 -59 -79 -97.5t-100 -38.5q-56 0 -87 44t-31 111zM106 161q0 -120 76 -120q52 0 107 71t75 175l30 156q-39 12 -82 12q-58 0 -101 -32t-64.5 -81t-31 -94.5
t-9.5 -86.5zM453 590l-28 -25l-93 88l-127 -88l-19 27l156 126z" />
    <glyph glyph-name="atilde" unicode="&#xe3;" horiz-adv-x="510" 
d="M44 148q0 44 7.5 88.5t27.5 93t50.5 85.5t81.5 61t115 24q29 0 63 -3.5t53 -6.5l20 -4l-95 -486h-49l23 129q-32 -59 -79 -97.5t-100 -38.5q-56 0 -87 44t-31 111zM106 161q0 -120 76 -120q52 0 107 71t75 175l30 156q-39 12 -82 12q-58 0 -101 -32t-64.5 -81t-31 -94.5
t-9.5 -86.5zM464 682l28 -20q-30 -44 -52 -60.5t-55 -16.5q-35 0 -71 28.5t-53 28.5t-30.5 -11t-39.5 -44l-28 21q30 44 51.5 60.5t53.5 16.5q34 0 71 -29t54 -29q16 0 30 11t41 44z" />
    <glyph glyph-name="adieresis" unicode="&#xe4;" horiz-adv-x="510" 
d="M44 148q0 44 7.5 88.5t27.5 93t50.5 85.5t81.5 61t115 24q29 0 63 -3.5t53 -6.5l20 -4l-95 -486h-49l23 129q-32 -59 -79 -97.5t-100 -38.5q-56 0 -87 44t-31 111zM106 161q0 -120 76 -120q52 0 107 71t75 175l30 156q-39 12 -82 12q-58 0 -101 -32t-64.5 -81t-31 -94.5
t-9.5 -86.5zM460 654q0 -28 -11 -39q-9 -9 -32 -9q-31 0 -31 22q0 29 11 38q9 9 32 9q31 0 31 -21zM271 654q0 -28 -11 -39q-9 -9 -32 -9q-31 0 -31 22q0 29 11 38q9 9 32 9q31 0 31 -21z" />
    <glyph glyph-name="aring" unicode="&#xe5;" horiz-adv-x="510" 
d="M44 148q0 44 7.5 88.5t27.5 93t50.5 85.5t81.5 61t115 24q29 0 63 -3.5t53 -6.5l20 -4l-95 -486h-49l23 129q-32 -59 -79 -97.5t-100 -38.5q-56 0 -87 44t-31 111zM106 161q0 -120 76 -120q52 0 107 71t75 175l30 156q-39 12 -82 12q-58 0 -101 -32t-64.5 -81t-31 -94.5
t-9.5 -86.5zM307 549q-80 0 -80 61q0 42 27.5 73t82.5 31q81 0 81 -62q0 -41 -28 -72t-83 -31zM370 649q0 28 -40 28q-55 0 -55 -63q0 -28 39 -28q30 0 43 18.5t13 44.5z" />
    <glyph glyph-name="ae" unicode="&#xe6;" horiz-adv-x="744" 
d="M628 72l7 -39q-74 -40 -157 -40q-137 0 -151 123q-41 -60 -93 -91.5t-103 -31.5q-58 0 -85.5 30t-27.5 74q0 23 5 44.5t22.5 49t45.5 47.5t79.5 34t119.5 14h52l11 58q11 57 -11.5 84t-84.5 27q-59 0 -142 -29l-5 39q89 35 165 35q119 0 131 -84q64 84 166 84
q59 0 94 -29t35 -75q0 -153 -310 -153q-10 -48 -10 -85q0 -118 114 -118q60 0 133 32zM641 391q0 65 -80 65q-59 0 -101 -48.5t-61 -122.5q98 0 153.5 15t72 36t16.5 55zM334 243h-54q-54 0 -94 -10.5t-60 -25t-31.5 -36.5t-14 -37t-2.5 -34q0 -63 68 -63q64 0 117 58
t67 130z" />
    <glyph glyph-name="ccedilla" unicode="&#xe7;" horiz-adv-x="429" 
d="M338 97l20 -31q-81 -73 -165 -73q-72 0 -110 41.5t-38 123.5q0 49 13.5 104t40.5 110.5t76.5 91.5t112.5 36q85 0 127 -60l-28 -31q-42 45 -97 45q-50 0 -88.5 -33t-58 -82t-28.5 -94.5t-9 -82.5q0 -122 101 -122q64 0 131 57zM150 -44h53q-4 -78 -89 -133l-28 22
q32 26 46 49.5t18 61.5z" />
    <glyph glyph-name="egrave" unicode="&#xe8;" horiz-adv-x="467" 
d="M352 72l7 -39q-74 -40 -158 -40q-157 0 -157 161q0 29 5 66.5t22 89t43 92t73 69.5t108 29q59 0 94 -29t35 -75q0 -72 -70 -112.5t-239 -40.5q-10 -41 -10 -85q0 -118 113 -118q61 0 134 32zM364 391q0 65 -80 65q-59 0 -100.5 -48.5t-60.5 -122.5q98 0 153 15t71.5 36
t16.5 55zM344 583l-32 -20l-121 124l49 30z" />
    <glyph glyph-name="eacute" unicode="&#xe9;" horiz-adv-x="467" 
d="M352 72l7 -39q-74 -40 -158 -40q-157 0 -157 161q0 29 5 66.5t22 89t43 92t73 69.5t108 29q59 0 94 -29t35 -75q0 -72 -70 -112.5t-239 -40.5q-10 -41 -10 -85q0 -118 113 -118q61 0 134 32zM364 391q0 65 -80 65q-59 0 -100.5 -48.5t-60.5 -122.5q98 0 153 15t71.5 36
t16.5 55zM449 682l-164 -119l-27 23l149 131z" />
    <glyph glyph-name="ecircumflex" unicode="&#xea;" horiz-adv-x="467" 
d="M352 72l7 -39q-74 -40 -158 -40q-157 0 -157 161q0 29 5 66.5t22 89t43 92t73 69.5t108 29q59 0 94 -29t35 -75q0 -72 -70 -112.5t-239 -40.5q-10 -41 -10 -85q0 -118 113 -118q61 0 134 32zM364 391q0 65 -80 65q-59 0 -100.5 -48.5t-60.5 -122.5q98 0 153 15t71.5 36
t16.5 55zM427 590l-28 -25l-93 88l-127 -88l-19 27l156 126z" />
    <glyph glyph-name="edieresis" unicode="&#xeb;" horiz-adv-x="467" 
d="M352 72l7 -39q-74 -40 -158 -40q-157 0 -157 161q0 29 5 66.5t22 89t43 92t73 69.5t108 29q59 0 94 -29t35 -75q0 -72 -70 -112.5t-239 -40.5q-10 -41 -10 -85q0 -118 113 -118q61 0 134 32zM364 391q0 65 -80 65q-59 0 -100.5 -48.5t-60.5 -122.5q98 0 153 15t71.5 36
t16.5 55zM434 654q0 -28 -11 -39q-9 -9 -32 -9q-31 0 -31 22q0 29 11 38q9 9 32 9q31 0 31 -21zM245 654q0 -28 -11 -39q-9 -9 -32 -9q-31 0 -31 22q0 29 11 38q9 9 32 9q31 0 31 -21z" />
    <glyph glyph-name="igrave" unicode="&#xec;" horiz-adv-x="243" 
d="M100 0h-58l96 493h58zM228 583l-32 -20l-121 124l49 30z" />
    <glyph glyph-name="iacute" unicode="&#xed;" horiz-adv-x="243" 
d="M100 0h-58l96 493h58zM336 682l-164 -119l-27 23l149 131z" />
    <glyph glyph-name="icircumflex" unicode="&#xee;" horiz-adv-x="243" 
d="M100 0h-58l96 493h58zM318 590l-28 -25l-93 88l-127 -88l-19 27l156 126z" />
    <glyph glyph-name="idieresis" unicode="&#xef;" horiz-adv-x="243" 
d="M100 0h-58l96 493h58zM308 654q0 -28 -11 -39q-9 -9 -32 -9q-30 0 -30 22q0 29 11 38q9 9 31 9q31 0 31 -21zM155 654q0 -28 -11 -39q-9 -9 -31 -9q-31 0 -31 22q0 29 11 38q9 9 32 9q16 0 23 -4.5t7 -16.5z" />
    <glyph glyph-name="eth" unicode="&#xf0;" horiz-adv-x="514" 
d="M463 399q0 -41 -7 -89t-26 -105.5t-47.5 -103.5t-76.5 -77t-107 -31q-80 0 -119.5 43t-39.5 122q0 50 14 104.5t43 108.5t84.5 89t129.5 35q59 0 81 -9q-15 57 -48 107l-116 -60l-21 36l114 58q-32 43 -72 82h76q40 -43 52 -60l106 55l22 -36l-105 -53q63 -99 63 -216z
M400 398q0 16 -2 36q-34 16 -100 16q-54 0 -94.5 -31.5t-60.5 -79.5t-29.5 -93t-9.5 -85q0 -121 106 -121q42 0 76.5 28t55 69.5t34.5 92.5t19 93t5 75z" />
    <glyph glyph-name="ntilde" unicode="&#xf1;" horiz-adv-x="534" 
d="M328 452q-56 0 -111.5 -71t-75.5 -175l-41 -206h-58l96 493h49l-23 -127q32 58 79.5 96t102.5 38q114 0 114 -131q0 -34 -7.5 -77t-27 -132.5t-32.5 -159.5h-58q12 63 26.5 132t22 103t12.5 66.5t5 53.5q0 97 -73 97zM481 682l28 -20q-30 -44 -52 -60.5t-55 -16.5
q-27 0 -49.5 14.5t-40.5 28.5t-34 14q-17 0 -30.5 -11t-39.5 -44l-28 21q30 44 51.5 60.5t53.5 16.5q27 0 50 -14.5t41 -29t34 -14.5t30 11t41 44z" />
    <glyph glyph-name="ograve" unicode="&#xf2;" horiz-adv-x="515" 
d="M200 -7q-72 0 -113 40.5t-41 125.5q0 40 7 82t25.5 89.5t46.5 84t76 61t109 24.5q72 0 113 -40.5t41 -125.5q0 -40 -6.5 -82t-25 -89.5t-47 -84t-76.5 -61t-109 -24.5zM404 334q0 62 -26 91t-82 29q-54 0 -93.5 -32t-59 -81.5t-28.5 -95t-9 -85.5q0 -62 26 -91.5
t82 -29.5q54 0 93.5 32t59 81.5t28.5 95t9 86.5zM352 583l-32 -20l-121 124l49 30z" />
    <glyph glyph-name="oacute" unicode="&#xf3;" horiz-adv-x="515" 
d="M200 -7q-72 0 -113 40.5t-41 125.5q0 40 7 82t25.5 89.5t46.5 84t76 61t109 24.5q72 0 113 -40.5t41 -125.5q0 -40 -6.5 -82t-25 -89.5t-47 -84t-76.5 -61t-109 -24.5zM404 334q0 62 -26 91t-82 29q-54 0 -93.5 -32t-59 -81.5t-28.5 -95t-9 -85.5q0 -62 26 -91.5
t82 -29.5q54 0 93.5 32t59 81.5t28.5 95t9 86.5zM477 682l-164 -119l-27 23l149 131z" />
    <glyph glyph-name="ocircumflex" unicode="&#xf4;" horiz-adv-x="515" 
d="M200 -7q-72 0 -113 40.5t-41 125.5q0 40 7 82t25.5 89.5t46.5 84t76 61t109 24.5q72 0 113 -40.5t41 -125.5q0 -40 -6.5 -82t-25 -89.5t-47 -84t-76.5 -61t-109 -24.5zM404 334q0 62 -26 91t-82 29q-54 0 -93.5 -32t-59 -81.5t-28.5 -95t-9 -85.5q0 -62 26 -91.5
t82 -29.5q54 0 93.5 32t59 81.5t28.5 95t9 86.5zM457 590l-28 -25l-93 88l-127 -88l-19 27l156 126z" />
    <glyph glyph-name="otilde" unicode="&#xf5;" horiz-adv-x="515" 
d="M200 -7q-72 0 -113 40.5t-41 125.5q0 40 7 82t25.5 89.5t46.5 84t76 61t109 24.5q72 0 113 -40.5t41 -125.5q0 -40 -6.5 -82t-25 -89.5t-47 -84t-76.5 -61t-109 -24.5zM404 334q0 62 -26 91t-82 29q-54 0 -93.5 -32t-59 -81.5t-28.5 -95t-9 -85.5q0 -62 26 -91.5
t82 -29.5q54 0 93.5 32t59 81.5t28.5 95t9 86.5zM465 682l28 -20q-30 -44 -52 -60.5t-55 -16.5q-27 0 -49.5 14.5t-40.5 28.5t-34 14q-17 0 -30.5 -11t-39.5 -44l-28 21q30 44 51.5 60.5t53.5 16.5q27 0 50 -14.5t41 -29t34 -14.5t30 11t41 44z" />
    <glyph glyph-name="odieresis" unicode="&#xf6;" horiz-adv-x="515" 
d="M200 -7q-72 0 -113 40.5t-41 125.5q0 40 7 82t25.5 89.5t46.5 84t76 61t109 24.5q72 0 113 -40.5t41 -125.5q0 -40 -6.5 -82t-25 -89.5t-47 -84t-76.5 -61t-109 -24.5zM404 334q0 62 -26 91t-82 29q-54 0 -93.5 -32t-59 -81.5t-28.5 -95t-9 -85.5q0 -62 26 -91.5
t82 -29.5q54 0 93.5 32t59 81.5t28.5 95t9 86.5zM464 654q0 -28 -11 -39q-9 -9 -32 -9q-31 0 -31 22q0 29 11 38q9 9 32 9q31 0 31 -21zM275 654q0 -28 -11 -39q-9 -9 -32 -9q-31 0 -31 22q0 29 11 38q9 9 32 9q31 0 31 -21z" />
    <glyph glyph-name="divide" unicode="&#xf7;" 
d="M213 66q-20 0 -28 5t-8 18q0 33 13 46q10 10 35 10q20 0 28 -5t8 -18q0 -33 -13 -46q-9 -10 -35 -10zM288 448q-36 0 -36 23q0 34 13 47q10 10 34 10q36 0 36 -23q0 -34 -13 -47q-10 -10 -34 -10zM457 274h-410l9 45h410z" />
    <glyph glyph-name="oslash" unicode="&#xf8;" horiz-adv-x="515" 
d="M464 334q0 -40 -6.5 -82t-25 -89.5t-47 -84t-76.5 -61t-109 -24.5q-58 0 -93 25l-68 -88l-34 23l71 94q-30 39 -30 112q0 40 7 82t25.5 89.5t46.5 84t76 61t109 24.5q58 0 94 -26l68 90l35 -23l-72 -95q29 -38 29 -112zM405 325q0 41 -13 68l-252 -334q26 -22 74 -22
q54 0 94 31t59.5 79t28.5 93t9 85zM105 167q0 -43 13 -68l253 334q-24 23 -75 23q-54 0 -94 -31.5t-59.5 -79.5t-28.5 -93t-9 -85z" />
    <glyph glyph-name="ugrave" unicode="&#xf9;" horiz-adv-x="534" 
d="M487 493l-95 -493h-49l22 127q-31 -58 -78.5 -96t-102.5 -38q-114 0 -114 132q0 33 7.5 76t27 132.5t32.5 159.5h57q-12 -62 -26.5 -132t-21.5 -103t-12 -66t-5 -54q0 -97 73 -97q56 0 111 71.5t76 174.5l40 206h58zM368 583l-32 -20l-121 124l49 30z" />
    <glyph glyph-name="uacute" unicode="&#xfa;" horiz-adv-x="534" 
d="M487 493l-95 -493h-49l22 127q-31 -58 -78.5 -96t-102.5 -38q-114 0 -114 132q0 33 7.5 76t27 132.5t32.5 159.5h57q-12 -62 -26.5 -132t-21.5 -103t-12 -66t-5 -54q0 -97 73 -97q56 0 111 71.5t76 174.5l40 206h58zM488 682l-164 -119l-27 23l149 131z" />
    <glyph glyph-name="ucircumflex" unicode="&#xfb;" horiz-adv-x="534" 
d="M487 493l-95 -493h-49l22 127q-31 -58 -78.5 -96t-102.5 -38q-114 0 -114 132q0 33 7.5 76t27 132.5t32.5 159.5h57q-12 -62 -26.5 -132t-21.5 -103t-12 -66t-5 -54q0 -97 73 -97q56 0 111 71.5t76 174.5l40 206h58zM462 590l-28 -25l-93 88l-127 -88l-19 27l156 126z
" />
    <glyph glyph-name="udieresis" unicode="&#xfc;" horiz-adv-x="534" 
d="M487 493l-95 -493h-49l22 127q-31 -58 -78.5 -96t-102.5 -38q-114 0 -114 132q0 33 7.5 76t27 132.5t32.5 159.5h57q-12 -62 -26.5 -132t-21.5 -103t-12 -66t-5 -54q0 -97 73 -97q56 0 111 71.5t76 174.5l40 206h58zM469 654q0 -28 -11 -39q-9 -9 -32 -9q-31 0 -31 22
q0 29 11 38q9 9 32 9q31 0 31 -21zM280 654q0 -28 -11 -39q-9 -9 -32 -9q-31 0 -31 22q0 29 11 38q9 9 32 9q31 0 31 -21z" />
    <glyph glyph-name="yacute" unicode="&#xfd;" horiz-adv-x="453" 
d="M401 493h65q-73 -172 -140 -298.5t-116.5 -196t-96 -110.5t-76 -52.5t-58.5 -11.5q-30 0 -58 11l7 37q12 -3 38 -3q64 0 117 53q51 51 51 118q0 51 -12 119l-55 334h62l47 -295q17 -102 2 -166h2q51 80 112.5 209t108.5 252zM446 682l-164 -119l-27 23l149 131z" />
    <glyph glyph-name="thorn" unicode="&#xfe;" horiz-adv-x="510" 
d="M178 -7l-79 5l-33 -171h-58l172 882h58l-49 -252q-1 -6 -22 -90q30 57 76.5 95t99.5 38q56 0 87 -44t31 -111q0 -44 -7.5 -88t-27.5 -93t-50.5 -86t-81.5 -61t-116 -24zM399 332q0 120 -76 120q-52 0 -107 -71t-75 -175l-30 -156q39 -12 82 -12q58 0 101 32t64.5 81
t31 94.5t9.5 86.5z" />
    <glyph glyph-name="ydieresis" unicode="&#xff;" horiz-adv-x="453" 
d="M401 493h65q-73 -172 -140 -298.5t-116.5 -196t-96 -110.5t-76 -52.5t-58.5 -11.5q-30 0 -58 11l7 37q12 -3 38 -3q64 0 117 53q51 51 51 118q0 51 -12 119l-55 334h62l47 -295q17 -102 2 -166h2q51 80 112.5 209t108.5 252zM420 654q0 -28 -11 -39q-9 -9 -32 -9
q-31 0 -31 22q0 29 11 38q9 9 32 9q31 0 31 -21zM231 654q0 -28 -11 -39q-9 -9 -32 -9q-31 0 -31 22q0 29 11 38q9 9 32 9q31 0 31 -21z" />
    <glyph glyph-name="Amacron" unicode="&#x100;" horiz-adv-x="516" 
d="M445 0h-63q-6 88 -12 153h-270q-18 -42 -65 -153h-65q152 343 330 675h72q55 -382 73 -675zM121 202h248q-20 214 -49 409h-1q-117 -230 -198 -409zM485 755h-264l8 44h264z" />
    <glyph glyph-name="amacron" unicode="&#x101;" horiz-adv-x="510" 
d="M44 148q0 44 7.5 88.5t27.5 93t50.5 85.5t81.5 61t115 24q29 0 63 -3.5t53 -6.5l20 -4l-95 -486h-49l23 129q-32 -59 -79 -97.5t-100 -38.5q-56 0 -87 44t-31 111zM106 161q0 -120 76 -120q52 0 107 71t75 175l30 156q-39 12 -82 12q-58 0 -101 -32t-64.5 -81t-31 -94.5
t-9.5 -86.5zM449 610h-253l8 44h254z" />
    <glyph glyph-name="Abreve" unicode="&#x102;" horiz-adv-x="516" 
d="M445 0h-63q-6 88 -12 153h-270q-18 -42 -65 -153h-65q152 343 330 675h72q55 -382 73 -675zM121 202h248q-20 214 -49 409h-1q-117 -230 -198 -409zM458 850h39q-11 -57 -52.5 -90.5t-96.5 -33.5q-62 0 -89.5 35t-16.5 89h38q-6 -34 12.5 -56t59.5 -22q43 0 71 22t35 56z
" />
    <glyph glyph-name="abreve" unicode="&#x103;" horiz-adv-x="510" 
d="M44 148q0 44 7.5 88.5t27.5 93t50.5 85.5t81.5 61t115 24q29 0 63 -3.5t53 -6.5l20 -4l-95 -486h-49l23 129q-32 -59 -79 -97.5t-100 -38.5q-56 0 -87 44t-31 111zM106 161q0 -120 76 -120q52 0 107 71t75 175l30 156q-39 12 -82 12q-58 0 -101 -32t-64.5 -81t-31 -94.5
t-9.5 -86.5zM426 712h39q-11 -65 -50 -101t-100 -36q-64 0 -91 36.5t-15 100.5h40q-17 -86 70 -86q89 0 107 86z" />
    <glyph glyph-name="Aogonek" unicode="&#x104;" horiz-adv-x="516" 
d="M432 -122l9 -32q-36 -23 -78 -23q-67 0 -67 58q0 27 23.5 60t62.5 59q-6 88 -12 153h-270q-18 -42 -65 -153h-65q152 343 330 675h72q55 -382 73 -675q-41 -24 -67.5 -54.5t-26.5 -55.5q0 -26 28 -26q23 0 53 14zM121 202h248q-20 214 -49 409h-1q-117 -230 -198 -409z
" />
    <glyph glyph-name="aogonek" unicode="&#x105;" horiz-adv-x="510" 
d="M44 148q0 44 7.5 88.5t27.5 93t50.5 85.5t81.5 61t115 24q29 0 63 -3.5t53 -6.5l20 -4l-95 -486q-22 -13 -41.5 -49t-19.5 -61q0 -26 26 -26q25 0 58 14l6 -31q-36 -24 -85 -24q-28 0 -44.5 15t-16.5 38q0 64 68 124l23 129q-32 -59 -79 -97.5t-100 -38.5q-56 0 -87 44
t-31 111zM106 161q0 -120 76 -120q52 0 107 71t75 175l30 156q-39 12 -82 12q-58 0 -101 -32t-64.5 -81t-31 -94.5t-9.5 -86.5z" />
    <glyph glyph-name="Cacute" unicode="&#x106;" horiz-adv-x="519" 
d="M423 122l24 -31q-96 -98 -206 -98q-86 0 -132.5 55.5t-46.5 161.5q0 60 12 123.5t37.5 126t61.5 112t89.5 80t115.5 30.5q117 0 151 -112l-35 -23q-35 85 -116 85q-59 0 -108 -40.5t-79 -103.5t-46.5 -134t-16.5 -137q0 -173 129 -173q82 0 166 78zM572 803l-185 -72
l-15 33l177 88z" />
    <glyph glyph-name="cacute" unicode="&#x107;" horiz-adv-x="429" 
d="M338 97l20 -31q-81 -73 -165 -73q-72 0 -110 41.5t-38 123.5q0 49 13.5 104t40.5 110.5t76.5 91.5t112.5 36q85 0 127 -60l-28 -31q-42 45 -97 45q-50 0 -88.5 -33t-58 -82t-28.5 -94.5t-9 -82.5q0 -122 101 -122q64 0 131 57zM481 682l-164 -119l-27 23l149 131z" />
    <glyph glyph-name="Ccircumflex" unicode="&#x108;" horiz-adv-x="519" 
d="M423 122l24 -31q-96 -98 -206 -98q-86 0 -132.5 55.5t-46.5 161.5q0 60 12 123.5t37.5 126t61.5 112t89.5 80t115.5 30.5q117 0 151 -112l-35 -23q-35 85 -116 85q-59 0 -108 -40.5t-79 -103.5t-46.5 -134t-16.5 -137q0 -173 129 -173q82 0 166 78zM405 852l124 -91
l-23 -30l-109 66l-135 -66l-14 30z" />
    <glyph glyph-name="ccircumflex" unicode="&#x109;" horiz-adv-x="429" 
d="M338 97l20 -31q-81 -73 -165 -73q-72 0 -110 41.5t-38 123.5q0 49 13.5 104t40.5 110.5t76.5 91.5t112.5 36q85 0 127 -60l-28 -31q-42 45 -97 45q-50 0 -88.5 -33t-58 -82t-28.5 -94.5t-9 -82.5q0 -122 101 -122q64 0 131 57zM432 590l-28 -25l-93 88l-127 -88l-19 27
l156 126z" />
    <glyph glyph-name="Cdotaccent" unicode="&#x10a;" horiz-adv-x="519" 
d="M423 122l24 -31q-96 -98 -206 -98q-86 0 -132.5 55.5t-46.5 161.5q0 60 12 123.5t37.5 126t61.5 112t89.5 80t115.5 30.5q117 0 151 -112l-35 -23q-35 85 -116 85q-59 0 -108 -40.5t-79 -103.5t-46.5 -134t-16.5 -137q0 -173 129 -173q82 0 166 78zM386 744
q-19 0 -26 4.5t-7 14.5q0 32 12 42q8 8 33 8q19 0 26 -4.5t7 -14.5q0 -30 -12 -42q-8 -8 -33 -8z" />
    <glyph glyph-name="cdotaccent" unicode="&#x10b;" horiz-adv-x="429" 
d="M338 97l20 -31q-81 -73 -165 -73q-72 0 -110 41.5t-38 123.5q0 49 13.5 104t40.5 110.5t76.5 91.5t112.5 36q85 0 127 -60l-28 -31q-42 45 -97 45q-50 0 -88.5 -33t-58 -82t-28.5 -94.5t-9 -82.5q0 -122 101 -122q64 0 131 57zM305 606q-35 0 -35 19q0 32 13 45q8 8 33 8
q35 0 35 -20q0 -9 -4 -24t-9 -20q-8 -8 -33 -8z" />
    <glyph glyph-name="Ccaron" unicode="&#x10c;" horiz-adv-x="519" 
d="M423 122l24 -31q-96 -98 -206 -98q-86 0 -132.5 55.5t-46.5 161.5q0 60 12 123.5t37.5 126t61.5 112t89.5 80t115.5 30.5q117 0 151 -112l-35 -23q-35 85 -116 85q-59 0 -108 -40.5t-79 -103.5t-46.5 -134t-16.5 -137q0 -173 129 -173q82 0 166 78zM397 731l-125 92
l23 29l109 -65l136 65l13 -31z" />
    <glyph glyph-name="ccaron" unicode="&#x10d;" horiz-adv-x="429" 
d="M338 97l20 -31q-81 -73 -165 -73q-72 0 -110 41.5t-38 123.5q0 49 13.5 104t40.5 110.5t76.5 91.5t112.5 36q85 0 127 -60l-28 -31q-42 45 -97 45q-50 0 -88.5 -33t-58 -82t-28.5 -94.5t-9 -82.5q0 -122 101 -122q64 0 131 57zM459 691l-157 -126l-110 128l27 25l94 -87
l126 87z" />
    <glyph glyph-name="Dcaron" unicode="&#x10e;" horiz-adv-x="573" 
d="M540 445q0 -77 -30.5 -179.5t-100.5 -172.5q-92 -94 -238 -94q-25 0 -67.5 0.5t-54.5 0.5l131 675q22 0 63.5 0.5t66.5 0.5q119 0 174.5 -64t55.5 -167zM474 441q0 186 -176 186q-45 0 -66 -1l-112 -575q36 -3 68 -3q102 0 173 69q61 61 87 157.5t26 166.5zM353 731
l-125 92l23 29l109 -65l136 65l13 -31z" />
    <glyph glyph-name="dcaron" unicode="&#x10f;" horiz-adv-x="523" 
d="M367 0h-49l23 127q-32 -58 -79 -96t-100 -38q-56 0 -87 44t-31 111q0 44 7.5 88.5t27.5 93t50.5 85.5t81.5 61t116 24l79 -5l41 214h58zM106 161q0 -120 76 -120q52 0 107 71t75 175l30 156q-39 12 -82 12q-58 0 -101 -32t-64.5 -81t-31 -94.5t-9.5 -86.5zM647 734
l-84 -166l-35 9l68 169z" />
    <glyph glyph-name="Dcroat" unicode="&#x110;" horiz-adv-x="583" 
d="M550 445q0 -77 -30.5 -179.5t-100.5 -172.5q-92 -94 -238 -94q-25 0 -67.5 0.5t-54.5 0.5l63 328h-69l9 49h70l58 298q22 0 63.5 0.5t66.5 0.5q119 0 174.5 -64t55.5 -167zM484 441q0 186 -176 186q-45 0 -66 -1l-49 -249h132l-10 -49h-132l-53 -277q36 -3 68 -3
q102 0 173 69q61 61 87 157.5t26 166.5z" />
    <glyph glyph-name="dcroat" unicode="&#x111;" horiz-adv-x="510" 
d="M367 0h-49l23 127q-32 -58 -79 -96t-100 -38q-56 0 -87 44t-31 111q0 44 7.5 88.5t27.5 93t50.5 85.5t81.5 61t116 24l79 -5l16 86h-117l8 39h117l17 89h58l-17 -89h86l-7 -39h-87zM106 161q0 -120 76 -120q52 0 107 71t75 175l30 156q-39 12 -82 12q-58 0 -101 -32
t-64.5 -81t-31 -94.5t-9.5 -86.5z" />
    <glyph glyph-name="Emacron" unicode="&#x112;" horiz-adv-x="471" 
d="M361 0h-312l131 675h308l-10 -50h-247l-48 -248h203l-10 -49h-203l-53 -278h250zM478 755h-264l8 44h264z" />
    <glyph glyph-name="emacron" unicode="&#x113;" horiz-adv-x="467" 
d="M352 72l7 -39q-74 -40 -158 -40q-157 0 -157 161q0 29 5 66.5t22 89t43 92t73 69.5t108 29q59 0 94 -29t35 -75q0 -72 -70 -112.5t-239 -40.5q-10 -41 -10 -85q0 -118 113 -118q61 0 134 32zM364 391q0 65 -80 65q-59 0 -100.5 -48.5t-60.5 -122.5q98 0 153 15t71.5 36
t16.5 55zM426 610h-253l8 44h254z" />
    <glyph glyph-name="Ebreve" unicode="&#x114;" horiz-adv-x="471" 
d="M361 0h-312l131 675h308l-10 -50h-247l-48 -248h203l-10 -49h-203l-53 -278h250zM451 850h39q-11 -57 -52.5 -90.5t-96.5 -33.5q-62 0 -89.5 35t-16.5 89h38q-6 -34 12.5 -56t59.5 -22q43 0 71 22t35 56z" />
    <glyph glyph-name="ebreve" unicode="&#x115;" horiz-adv-x="467" 
d="M352 72l7 -39q-74 -40 -158 -40q-157 0 -157 161q0 29 5 66.5t22 89t43 92t73 69.5t108 29q59 0 94 -29t35 -75q0 -72 -70 -112.5t-239 -40.5q-10 -41 -10 -85q0 -118 113 -118q61 0 134 32zM364 391q0 65 -80 65q-59 0 -100.5 -48.5t-60.5 -122.5q98 0 153 15t71.5 36
t16.5 55zM402 712h39q-11 -65 -50 -101t-100 -36q-64 0 -91 36.5t-15 100.5h40q-17 -86 70 -86q89 0 107 86z" />
    <glyph glyph-name="Edotaccent" unicode="&#x116;" horiz-adv-x="471" 
d="M361 0h-312l131 675h308l-10 -50h-247l-48 -248h203l-10 -49h-203l-53 -278h250zM343 743q-19 0 -26 4.5t-7 14.5q0 32 12 42q8 8 33 8q19 0 26 -4.5t7 -14.5q0 -30 -12 -42q-8 -8 -33 -8z" />
    <glyph glyph-name="edotaccent" unicode="&#x117;" horiz-adv-x="467" 
d="M352 72l7 -39q-74 -40 -158 -40q-157 0 -157 161q0 29 5 66.5t22 89t43 92t73 69.5t108 29q59 0 94 -29t35 -75q0 -72 -70 -112.5t-239 -40.5q-10 -41 -10 -85q0 -118 113 -118q61 0 134 32zM364 391q0 65 -80 65q-59 0 -100.5 -48.5t-60.5 -122.5q98 0 153 15t71.5 36
t16.5 55zM300 606q-35 0 -35 19q0 32 13 45q8 8 33 8q35 0 35 -20q0 -9 -4 -24t-9 -20q-8 -8 -33 -8z" />
    <glyph glyph-name="Eogonek" unicode="&#x118;" horiz-adv-x="471" 
d="M370 50l-9 -50q-89 -62 -89 -110q0 -26 29 -26q23 0 53 14l8 -32q-34 -23 -77 -23q-67 0 -67 58q0 27 22.5 59t60.5 60h-252l131 675h308l-10 -50h-247l-48 -248h203l-10 -49h-203l-53 -278h250z" />
    <glyph glyph-name="eogonek" unicode="&#x119;" horiz-adv-x="467" 
d="M352 72l7 -39q-66 -52 -94.5 -85t-28.5 -58q0 -26 28 -26q23 0 53 14l9 -32q-36 -23 -78 -23q-67 0 -67 58q0 25 22 58t66 64q-31 -10 -68 -10q-157 0 -157 161q0 29 5 66.5t22 89t43 92t73 69.5t108 29q59 0 94 -29t35 -75q0 -72 -70 -112.5t-239 -40.5q-10 -41 -10 -85
q0 -118 113 -118q61 0 134 32zM364 391q0 65 -80 65q-59 0 -100.5 -48.5t-60.5 -122.5q98 0 153 15t71.5 36t16.5 55z" />
    <glyph glyph-name="Ecaron" unicode="&#x11a;" horiz-adv-x="471" 
d="M361 0h-312l131 675h308l-10 -50h-247l-48 -248h203l-10 -49h-203l-53 -278h250zM342 731l-125 92l23 29l109 -65l136 65l13 -31z" />
    <glyph glyph-name="ecaron" unicode="&#x11b;" horiz-adv-x="467" 
d="M352 72l7 -39q-74 -40 -158 -40q-157 0 -157 161q0 29 5 66.5t22 89t43 92t73 69.5t108 29q59 0 94 -29t35 -75q0 -72 -70 -112.5t-239 -40.5q-10 -41 -10 -85q0 -118 113 -118q61 0 134 32zM364 391q0 65 -80 65q-59 0 -100.5 -48.5t-60.5 -122.5q98 0 153 15t71.5 36
t16.5 55zM446 691l-157 -126l-110 128l27 25l94 -87l126 87z" />
    <glyph glyph-name="Gcircumflex" unicode="&#x11c;" horiz-adv-x="570" 
d="M500 358l-57 -293q-94 -72 -199 -72q-86 0 -134 54t-48 167q0 112 38 218.5t104 172.5q77 77 176 77q94 0 159 -75l-31 -30q-59 55 -124 55q-76 0 -134 -60q-57 -56 -90 -156t-33 -200q0 -172 130 -172q76 0 128 39l45 227h-105l10 48h165zM414 852l124 -91l-23 -30
l-109 66l-135 -66l-14 30z" />
    <glyph glyph-name="gcircumflex" unicode="&#x11d;" horiz-adv-x="510" 
d="M462 486l-95 -485q-20 -101 -70.5 -139.5t-138.5 -38.5q-70 0 -145 26l12 36q80 -15 133 -15q66 0 102 28.5t48 96.5l12 63q5 23 22 89q-30 -57 -76.5 -95.5t-99.5 -38.5q-55 0 -86.5 43t-31.5 115q0 42 8 84t28.5 87t51 79.5t80 56.5t111.5 22q29 0 62.5 -3.5t52.5 -6.5
zM110 178q0 -54 19 -85.5t57 -31.5q52 0 106.5 70t74.5 171l28 141q-40 12 -82 12q-55 0 -96.5 -28t-63.5 -72t-32.5 -89t-10.5 -88zM450 590l-28 -25l-93 88l-127 -88l-19 27l156 126z" />
    <glyph glyph-name="Gbreve" unicode="&#x11e;" horiz-adv-x="570" 
d="M500 358l-57 -293q-94 -72 -199 -72q-86 0 -134 54t-48 167q0 112 38 218.5t104 172.5q77 77 176 77q94 0 159 -75l-31 -30q-59 55 -124 55q-76 0 -134 -60q-57 -56 -90 -156t-33 -200q0 -172 130 -172q76 0 128 39l45 227h-105l10 48h165zM498 850h39
q-11 -57 -52.5 -90.5t-96.5 -33.5q-62 0 -89.5 35t-16.5 89h38q-6 -34 12.5 -56t59.5 -22q43 0 71 22t35 56z" />
    <glyph glyph-name="gbreve" unicode="&#x11f;" horiz-adv-x="510" 
d="M462 486l-95 -485q-20 -101 -70.5 -139.5t-138.5 -38.5q-70 0 -145 26l12 36q80 -15 133 -15q66 0 102 28.5t48 96.5l12 63q5 23 22 89q-30 -57 -76.5 -95.5t-99.5 -38.5q-55 0 -86.5 43t-31.5 115q0 42 8 84t28.5 87t51 79.5t80 56.5t111.5 22q29 0 62.5 -3.5t52.5 -6.5
zM110 178q0 -54 19 -85.5t57 -31.5q52 0 106.5 70t74.5 171l28 141q-40 12 -82 12q-55 0 -96.5 -28t-63.5 -72t-32.5 -89t-10.5 -88zM431 712h39q-11 -65 -50 -101t-100 -36q-64 0 -91 36.5t-15 100.5h40q-17 -86 70 -86q89 0 107 86z" />
    <glyph glyph-name="Gdotaccent" unicode="&#x120;" horiz-adv-x="570" 
d="M500 358l-57 -293q-94 -72 -199 -72q-86 0 -134 54t-48 167q0 112 38 218.5t104 172.5q77 77 176 77q94 0 159 -75l-31 -30q-59 55 -124 55q-76 0 -134 -60q-57 -56 -90 -156t-33 -200q0 -172 130 -172q76 0 128 39l45 227h-105l10 48h165zM392 744q-19 0 -26 4.5
t-7 14.5q0 32 12 42q8 8 33 8q19 0 26 -4.5t7 -14.5q0 -30 -12 -42q-8 -8 -33 -8z" />
    <glyph glyph-name="gdotaccent" unicode="&#x121;" horiz-adv-x="510" 
d="M462 486l-95 -485q-20 -101 -70.5 -139.5t-138.5 -38.5q-70 0 -145 26l12 36q80 -15 133 -15q66 0 102 28.5t48 96.5l12 63q5 23 22 89q-30 -57 -76.5 -95.5t-99.5 -38.5q-55 0 -86.5 43t-31.5 115q0 42 8 84t28.5 87t51 79.5t80 56.5t111.5 22q29 0 62.5 -3.5t52.5 -6.5
zM110 178q0 -54 19 -85.5t57 -31.5q52 0 106.5 70t74.5 171l28 141q-40 12 -82 12q-55 0 -96.5 -28t-63.5 -72t-32.5 -89t-10.5 -88zM319 606q-35 0 -35 19q0 32 13 45q8 8 33 8q35 0 35 -20q0 -9 -4 -24t-9 -20q-8 -8 -33 -8z" />
    <glyph glyph-name="Gcommaaccent" unicode="&#x122;" horiz-adv-x="570" 
d="M500 358l-57 -293q-94 -72 -199 -72q-86 0 -134 54t-48 167q0 112 38 218.5t104 172.5q77 77 176 77q94 0 159 -75l-31 -30q-59 55 -124 55q-76 0 -134 -60q-57 -56 -90 -156t-33 -200q0 -172 130 -172q76 0 128 39l45 227h-105l10 48h165zM229 -40q29 0 29 -27
q0 -66 -104 -109l-11 24q56 29 56 54q0 3 -2.5 10t-2.5 17q0 31 35 31z" />
    <glyph glyph-name="gcommaaccent" unicode="&#x123;" horiz-adv-x="510" 
d="M462 486l-95 -485q-20 -101 -70.5 -139.5t-138.5 -38.5q-70 0 -145 26l12 36q80 -15 133 -15q66 0 102 28.5t48 96.5l12 63q5 23 22 89q-30 -57 -76.5 -95.5t-99.5 -38.5q-55 0 -86.5 43t-31.5 115q0 42 8 84t28.5 87t51 79.5t80 56.5t111.5 22q29 0 62.5 -3.5t52.5 -6.5
zM110 178q0 -54 19 -85.5t57 -31.5q52 0 106.5 70t74.5 171l28 141q-40 12 -82 12q-55 0 -96.5 -28t-63.5 -72t-32.5 -89t-10.5 -88zM312 594q0 36 32.5 70.5t91.5 49.5l9 -25q-35 -13 -55 -32t-20 -34q0 -3 2.5 -9t2.5 -16q0 -32 -35 -32q-15 0 -21.5 6t-6.5 22z" />
    <glyph glyph-name="Hcircumflex" unicode="&#x124;" horiz-adv-x="658" 
d="M509 0h-61l63 329h-338l-63 -329h-61l131 675h61l-58 -293h338l58 293h61zM440 852l124 -91l-23 -30l-109 66l-135 -66l-14 30z" />
    <glyph glyph-name="hcircumflex" unicode="&#x125;" horiz-adv-x="534" 
d="M393 0h-58q12 63 26.5 132t22 103t12.5 66.5t5 53.5q0 97 -73 97q-56 0 -112 -71.5t-75 -174.5l-41 -206h-58l138 709h58l-49 -252q-7 -43 -22 -90q31 57 77.5 95t101.5 38q114 0 114 -131q0 -34 -7.5 -77t-27 -132.5t-32.5 -159.5zM243 885l123 -91l-22 -29l-111 65
l-134 -65l-14 29z" />
    <glyph glyph-name="Hbar" unicode="&#x126;" horiz-adv-x="678" 
d="M519 0h-61l59 306h-338l-59 -306h-61l95 487h-88l9 47h87l28 141h61l-28 -141h338l28 141h61l-28 -141h87l-9 -47h-86zM189 358h338l26 129h-338z" />
    <glyph glyph-name="hbar" unicode="&#x127;" horiz-adv-x="534" 
d="M393 0h-58q12 62 26.5 131.5t21.5 103t12 66.5t5 54q0 96 -72 96q-56 0 -112 -71.5t-76 -174.5l-40 -205h-58l114 585h-86l8 42h87l16 84h58l-16 -84h147l-8 -42h-148l-25 -129q-12 -55 -22 -90q31 57 77.5 95.5t101.5 38.5q114 0 114 -132q0 -33 -7.5 -76t-27 -132
t-32.5 -160z" />
    <glyph glyph-name="Itilde" unicode="&#x128;" horiz-adv-x="259" 
d="M110 0h-61l131 675h61zM369 834l29 -20q-29 -44 -51.5 -60.5t-55.5 -16.5q-35 0 -71 28.5t-53 28.5t-30.5 -11t-39.5 -43l-29 20q29 44 51.5 60.5t55.5 16.5q35 0 71 -29t53 -29q16 0 30 11t40 44z" />
    <glyph glyph-name="itilde" unicode="&#x129;" horiz-adv-x="243" 
d="M100 0h-58l96 493h58zM330 682l28 -20q-30 -44 -52 -60.5t-55 -16.5q-35 0 -71 28.5t-53 28.5t-30.5 -11t-39.5 -44l-28 21q30 44 51.5 60.5t53.5 16.5q27 0 50 -14.5t41 -29t34 -14.5t30 11t41 44z" />
    <glyph glyph-name="Imacron" unicode="&#x12a;" horiz-adv-x="259" 
d="M110 0h-61l131 675h61zM358 755h-264l8 44h264z" />
    <glyph glyph-name="imacron" unicode="&#x12b;" horiz-adv-x="243" 
d="M100 0h-58l96 493h58zM317 610h-253l8 44h254z" />
    <glyph glyph-name="Ibreve" unicode="&#x12c;" horiz-adv-x="259" 
d="M110 0h-61l131 675h61zM332 850h39q-11 -57 -52.5 -90.5t-96.5 -33.5q-62 0 -89.5 35t-16.5 89h38q-6 -34 12.5 -56t59.5 -22q43 0 71 22t35 56z" />
    <glyph glyph-name="ibreve" unicode="&#x12d;" horiz-adv-x="243" 
d="M100 0h-58l96 493h58zM297 712h39q-11 -65 -50 -101t-100 -36q-64 0 -91 36.5t-15 100.5h40q-17 -86 70 -86q89 0 107 86z" />
    <glyph glyph-name="Iogonek" unicode="&#x12e;" horiz-adv-x="259" 
d="M49 0l131 675h61l-131 -675q-36 -26 -60.5 -56t-24.5 -54q0 -26 28 -26q23 0 53 14l9 -32q-36 -23 -78 -23q-67 0 -67 58q0 55 79 119z" />
    <glyph glyph-name="iogonek" unicode="&#x12f;" horiz-adv-x="243" 
d="M196 493l-96 -493q-35 -26 -58.5 -56t-23.5 -54q0 -26 29 -26q23 0 53 14l7 -32q-35 -23 -78 -23q-66 0 -66 56t79 121l96 493h58zM190 603q-35 0 -35 20q0 32 12 46q8 8 33 8q35 0 35 -20q0 -32 -12 -46q-8 -8 -33 -8z" />
    <glyph glyph-name="Idotaccent" unicode="&#x130;" horiz-adv-x="259" 
d="M110 0h-61l131 675h61zM223 743q-19 0 -26 4.5t-7 14.5q0 32 12 42q8 8 33 8q19 0 26 -4.5t7 -14.5q0 -30 -12 -42q-8 -8 -33 -8z" />
    <glyph glyph-name="dotlessi" unicode="&#x131;" horiz-adv-x="243" 
d="M100 0h-58l96 493h58z" />
    <glyph glyph-name="IJ" unicode="&#x132;" horiz-adv-x="527" 
d="M110 0h-61l131 675h61zM509 675l-118 -605q-18 -93 -45.5 -147t-83.5 -97l-28 28q38 36 59 85t36 126l119 610h61z" />
    <glyph glyph-name="ij" unicode="&#x133;" horiz-adv-x="485" 
d="M100 0h-58l96 493h58zM190 603q-35 0 -35 20q0 32 12 46q8 8 33 8q35 0 35 -20q0 -32 -12 -46q-8 -8 -33 -8zM439 493l-89 -457q-15 -74 -44 -122t-88 -90l-30 24q80 68 101 171l92 474h58zM433 603q-35 0 -35 20q0 32 12 46q8 8 33 8q35 0 35 -20q0 -32 -12 -46
q-8 -8 -33 -8z" />
    <glyph glyph-name="Jcircumflex" unicode="&#x134;" horiz-adv-x="268" 
d="M250 675l-118 -605q-18 -93 -45.5 -147t-83.5 -97l-28 28q38 36 59 85t36 126l119 610h61zM251 852l124 -91l-23 -30l-109 66l-135 -66l-14 30z" />
    <glyph glyph-name="jcircumflex" unicode="&#x135;" horiz-adv-x="243" 
d="M196 493l-89 -457q-15 -74 -44 -122t-88 -90l-30 24q80 68 101 171l92 474h58zM317 590l-28 -25l-93 88l-127 -88l-19 27l156 126z" />
    <glyph glyph-name="Kcommaaccent" unicode="&#x136;" horiz-adv-x="511" 
d="M432 0h-72l-183 341h-1l-66 -341h-61l131 675h61l-60 -306h1l290 306h75l-312 -316zM209 -40q29 0 29 -27q0 -66 -104 -109l-11 24q56 29 56 54q0 3 -2.5 10t-2.5 17q0 31 35 31z" />
    <glyph glyph-name="kcommaaccent" unicode="&#x137;" horiz-adv-x="443" 
d="M373 0h-69l-151 264h-2l-51 -264h-58l137 709h59l-83 -423h2l213 207h77l-238 -216zM182 -40q29 0 29 -27q0 -66 -104 -109l-11 24q56 29 56 54q0 3 -2.5 10t-2.5 17q0 31 35 31z" />
    <glyph glyph-name="kgreenlandic" unicode="&#x138;" horiz-adv-x="443" 
d="M372 0h-69l-152 254h-2l-49 -254h-58l96 493h58l-43 -217h2l219 217h73l-240 -227z" />
    <glyph glyph-name="Lacute" unicode="&#x139;" horiz-adv-x="421" 
d="M352 0h-303l131 675h61l-121 -625h242zM417 803l-185 -72l-15 33l177 88z" />
    <glyph glyph-name="lacute" unicode="&#x13a;" horiz-adv-x="263" 
d="M180 41l-2 -39q-32 -8 -57 -8q-34 0 -50 12.5t-16 45.5q0 19 7 53l117 604h58l-114 -591q-7 -35 -7 -52q0 -16 6.5 -21.5t24.5 -5.5q15 0 33 2zM406 810l-185 -72l-15 33l177 88z" />
    <glyph glyph-name="Lcommaaccent" unicode="&#x13b;" horiz-adv-x="421" 
d="M352 0h-303l131 675h61l-121 -625h242zM185 -40q29 0 29 -27q0 -66 -104 -109l-11 24q56 29 56 54q0 3 -2.5 10t-2.5 17q0 31 35 31z" />
    <glyph glyph-name="lcommaaccent" unicode="&#x13c;" horiz-adv-x="263" 
d="M180 41l-2 -39q-32 -8 -57 -8q-34 0 -50 12.5t-16 45.5q0 19 7 53l117 604h58l-114 -591q-7 -35 -7 -52q0 -16 6.5 -21.5t24.5 -5.5q15 0 33 2zM108 -40q29 0 29 -27q0 -66 -104 -109l-11 24q56 29 56 54q0 3 -2.5 10t-2.5 17q0 31 35 31z" />
    <glyph glyph-name="Lcaron" unicode="&#x13d;" horiz-adv-x="421" 
d="M352 0h-303l131 675h61l-121 -625h242zM438 734l-84 -166l-35 9l68 169z" />
    <glyph glyph-name="lcaron" unicode="&#x13e;" horiz-adv-x="275" 
d="M180 41l-2 -39q-32 -8 -57 -8q-34 0 -50 12.5t-16 45.5q0 19 7 53l117 604h58l-114 -591q-7 -35 -7 -52q0 -16 6.5 -21.5t24.5 -5.5q15 0 33 2zM380 734l-84 -166l-35 9l68 169z" />
    <glyph glyph-name="Ldot" unicode="&#x13f;" horiz-adv-x="527" 
d="M352 0h-303l131 675h61l-121 -625h242zM438 295q-21 0 -29 5t-8 19q0 33 13 48q11 10 37 10q20 0 28.5 -5t8.5 -19q0 -34 -14 -48q-9 -10 -36 -10z" />
    <glyph glyph-name="ldot" unicode="&#x140;" horiz-adv-x="461" 
d="M180 41l-2 -39q-32 -8 -57 -8q-34 0 -50 12.5t-16 45.5q0 19 7 53l117 604h58l-114 -591q-7 -35 -7 -52q0 -16 6.5 -21.5t24.5 -5.5q15 0 33 2zM352 255q-21 0 -29 5t-8 19q0 33 13 48q11 10 37 10q20 0 28.5 -5t8.5 -19q0 -34 -14 -48q-9 -10 -36 -10z" />
    <glyph glyph-name="Lslash" unicode="&#x141;" horiz-adv-x="430" 
d="M206 446l146 73l-11 -51l-145 -73l-67 -345h241l-9 -50h-303l70 363l-92 -45l10 51l93 45l50 261h61z" />
    <glyph glyph-name="lslash" unicode="&#x142;" horiz-adv-x="274" 
d="M189 41l-2 -39q-32 -8 -57 -8q-34 0 -49.5 12.5t-15.5 45.5q0 19 7 53l46 238l-88 -43l11 51l87 44l61 314h58l-55 -282l87 43l-10 -52l-87 -43l-49 -257q-8 -40 -8 -52q0 -16 7 -21.5t25 -5.5q14 0 32 2z" />
    <glyph glyph-name="Nacute" unicode="&#x143;" horiz-adv-x="647" 
d="M498 0h-50l-168 432l-63 168h-1q-12 -82 -26 -155l-87 -445h-54l131 675h73l149 -385l66 -174h1q14 89 28 161l78 398h54zM600 803l-185 -72l-15 33l177 88z" />
    <glyph glyph-name="nacute" unicode="&#x144;" horiz-adv-x="534" 
d="M328 452q-56 0 -111.5 -71t-75.5 -175l-41 -206h-58l96 493h49l-23 -127q32 58 79.5 96t102.5 38q114 0 114 -131q0 -34 -7.5 -77t-27 -132.5t-32.5 -159.5h-58q12 63 26.5 132t22 103t12.5 66.5t5 53.5q0 97 -73 97zM488 682l-164 -119l-27 23l149 131z" />
    <glyph glyph-name="Ncommaaccent" unicode="&#x145;" horiz-adv-x="647" 
d="M498 0h-50l-168 432l-63 168h-1q-12 -82 -26 -155l-87 -445h-54l131 675h73l149 -385l66 -174h1q14 89 28 161l78 398h54zM254 -40q29 0 29 -27q0 -66 -104 -109l-11 24q56 29 56 54q0 3 -2.5 10t-2.5 17q0 31 35 31z" />
    <glyph glyph-name="ncommaaccent" unicode="&#x146;" horiz-adv-x="534" 
d="M328 452q-56 0 -111.5 -71t-75.5 -175l-41 -206h-58l96 493h49l-23 -127q32 58 79.5 96t102.5 38q114 0 114 -131q0 -34 -7.5 -77t-27 -132.5t-32.5 -159.5h-58q12 63 26.5 132t22 103t12.5 66.5t5 53.5q0 97 -73 97zM202 -40q29 0 29 -27q0 -66 -104 -109l-11 24
q56 29 56 54q0 3 -2.5 10t-2.5 17q0 31 35 31z" />
    <glyph glyph-name="Ncaron" unicode="&#x147;" horiz-adv-x="647" 
d="M498 0h-50l-168 432l-63 168h-1q-12 -82 -26 -155l-87 -445h-54l131 675h73l149 -385l66 -174h1q14 89 28 161l78 398h54zM425 731l-125 92l23 29l109 -65l136 65l13 -31z" />
    <glyph glyph-name="ncaron" unicode="&#x148;" horiz-adv-x="534" 
d="M328 452q-56 0 -111.5 -71t-75.5 -175l-41 -206h-58l96 493h49l-23 -127q32 58 79.5 96t102.5 38q114 0 114 -131q0 -34 -7.5 -77t-27 -132.5t-32.5 -159.5h-58q12 63 26.5 132t22 103t12.5 66.5t5 53.5q0 97 -73 97zM483 691l-157 -126l-110 128l27 25l94 -87l126 87z
" />
    <glyph glyph-name="napostrophe" unicode="&#x149;" horiz-adv-x="587" 
d="M380 452q-56 0 -111.5 -71t-75.5 -175l-41 -206h-58l96 493h49l-23 -127q32 58 79.5 96t102.5 38q114 0 114 -131q0 -34 -7.5 -77t-27 -132.5t-32.5 -159.5h-58q12 63 26.5 132t22 103t12.5 66.5t5 53.5q0 97 -73 97zM204 731q33 0 33 -26q0 -49 -31.5 -98t-102.5 -84
l-19 27q85 49 85 97q0 6 -5.5 14t-5.5 18q0 30 13 43q9 9 33 9z" />
    <glyph glyph-name="Eng" unicode="&#x14a;" horiz-adv-x="647" 
d="M498 0h-1q-14 -60 -39 -101t-77 -76l-22 30q62 49 81 147h-2l-160 431q-49 124 -61 168v1h-1l-2 -14q-1 -4 -2.5 -16t-3.5 -19l-3 -18q-7 -45 -15 -88l-87 -445h-54l131 675h73l34 -88l115 -306l63 -181h1q1 7 2 16h1l2 12q0 6 1 8q8 61 25 141l78 398h55l-127 -650
l-4 -18z" />
    <glyph glyph-name="eng" unicode="&#x14b;" horiz-adv-x="534" 
d="M340 21q61 295 61 334q0 97 -73 97q-56 0 -111.5 -71t-75.5 -175l-41 -206h-58l96 493h49l-23 -127q32 58 79.5 96t102.5 38q114 0 114 -131q0 -55 -60 -334q-17 -81 -44 -125t-87 -86l-30 24q79 67 101 173z" />
    <glyph glyph-name="Omacron" unicode="&#x14c;" horiz-adv-x="635" 
d="M266 -7q-204 0 -204 220q0 61 11.5 124t38 125.5t65 111t96.5 78.5t127 30q203 0 203 -220q0 -62 -11.5 -125t-38 -125.5t-64.5 -110t-96 -77.5t-127 -31zM538 460q0 174 -149 174q-67 0 -120 -42t-82.5 -107.5t-44.5 -135t-15 -133.5q0 -174 150 -174q67 0 120 42
t82 107.5t44 134.5t15 134zM546 755h-264l8 44h264z" />
    <glyph glyph-name="omacron" unicode="&#x14d;" horiz-adv-x="515" 
d="M200 -7q-72 0 -113 40.5t-41 125.5q0 40 7 82t25.5 89.5t46.5 84t76 61t109 24.5q72 0 113 -40.5t41 -125.5q0 -40 -6.5 -82t-25 -89.5t-47 -84t-76.5 -61t-109 -24.5zM404 334q0 62 -26 91t-82 29q-54 0 -93.5 -32t-59 -81.5t-28.5 -95t-9 -85.5q0 -62 26 -91.5
t82 -29.5q54 0 93.5 32t59 81.5t28.5 95t9 86.5zM450 610h-253l8 44h254z" />
    <glyph glyph-name="Obreve" unicode="&#x14e;" horiz-adv-x="635" 
d="M266 -7q-204 0 -204 220q0 61 11.5 124t38 125.5t65 111t96.5 78.5t127 30q203 0 203 -220q0 -62 -11.5 -125t-38 -125.5t-64.5 -110t-96 -77.5t-127 -31zM538 460q0 174 -149 174q-67 0 -120 -42t-82.5 -107.5t-44.5 -135t-15 -133.5q0 -174 150 -174q67 0 120 42
t82 107.5t44 134.5t15 134zM522 850h39q-11 -57 -52.5 -90.5t-96.5 -33.5q-62 0 -89.5 35t-16.5 89h38q-6 -34 12.5 -56t59.5 -22q43 0 71 22t35 56z" />
    <glyph glyph-name="obreve" unicode="&#x14f;" horiz-adv-x="515" 
d="M200 -7q-72 0 -113 40.5t-41 125.5q0 40 7 82t25.5 89.5t46.5 84t76 61t109 24.5q72 0 113 -40.5t41 -125.5q0 -40 -6.5 -82t-25 -89.5t-47 -84t-76.5 -61t-109 -24.5zM404 334q0 62 -26 91t-82 29q-54 0 -93.5 -32t-59 -81.5t-28.5 -95t-9 -85.5q0 -62 26 -91.5
t82 -29.5q54 0 93.5 32t59 81.5t28.5 95t9 86.5zM430 712h39q-11 -65 -50 -101t-100 -36q-64 0 -91 36.5t-15 100.5h40q-17 -86 70 -86q89 0 107 86z" />
    <glyph glyph-name="Ohungarumlaut" unicode="&#x150;" horiz-adv-x="635" 
d="M266 -7q-204 0 -204 220q0 61 11.5 124t38 125.5t65 111t96.5 78.5t127 30q203 0 203 -220q0 -62 -11.5 -125t-38 -125.5t-64.5 -110t-96 -77.5t-127 -31zM538 460q0 174 -149 174q-67 0 -120 -42t-82.5 -107.5t-44.5 -135t-15 -133.5q0 -174 150 -174q67 0 120 42
t82 107.5t44 134.5t15 134zM676 813l-181 -86l-18 23l171 102zM493 824l-175 -99l-19 22l162 113z" />
    <glyph glyph-name="ohungarumlaut" unicode="&#x151;" horiz-adv-x="515" 
d="M200 -7q-72 0 -113 40.5t-41 125.5q0 40 7 82t25.5 89.5t46.5 84t76 61t109 24.5q72 0 113 -40.5t41 -125.5q0 -40 -6.5 -82t-25 -89.5t-47 -84t-76.5 -61t-109 -24.5zM404 334q0 62 -26 91t-82 29q-54 0 -93.5 -32t-59 -81.5t-28.5 -95t-9 -85.5q0 -62 26 -91.5
t82 -29.5q54 0 93.5 32t59 81.5t28.5 95t9 86.5zM552 680l-160 -117l-27 22l147 131zM379 686l-152 -127l-29 22l140 139z" />
    <glyph glyph-name="OE" unicode="&#x152;" horiz-adv-x="762" 
d="M779 675l-10 -50h-247l-47 -248h203l-10 -49h-203l-55 -278h251l-9 -50h-303q-43 -7 -82 -7q-97 0 -151 53.5t-54 166.5q0 61 11.5 124t38 125.5t65 111t96.5 78.5t127 30q51 0 79 -7h300zM349 49l112 572q-33 13 -72 13q-67 0 -120 -42t-82.5 -107.5t-44.5 -135
t-15 -133.5q0 -174 151 -174q34 0 71 7z" />
    <glyph glyph-name="oe" unicode="&#x153;" horiz-adv-x="806" 
d="M763 396q0 -153 -310 -153q-9 -43 -9 -85q0 -118 113 -118q60 0 133 32l8 -39q-74 -40 -158 -40q-124 0 -145 109q-66 -109 -195 -109q-72 0 -113 40.5t-41 125.5q0 40 7 82t25.5 89.5t46.5 84t76 61t109 24.5q119 0 141 -112q67 112 183 112q59 0 94 -29t35 -75z
M703 391q0 65 -80 65q-59 0 -101 -48.5t-60 -122.5q98 0 153 15t71.5 36t16.5 55zM404 334q0 62 -26 91t-82 29q-54 0 -93.5 -32t-59 -81.5t-28.5 -95t-9 -85.5q0 -62 26 -91.5t82 -29.5q54 0 93.5 32t59 81.5t28.5 95t9 86.5z" />
    <glyph glyph-name="Racute" unicode="&#x154;" horiz-adv-x="529" 
d="M464 0h-73l-157 307h-64l-60 -307h-61l131 675q17 0 62.5 0.5t81.5 0.5q101 0 151 -37.5t50 -105.5q0 -81 -58 -147t-170 -72zM459 529q0 98 -149 98h-79l-52 -272h88q53 0 92.5 17t60 44t30 55.5t9.5 57.5zM508 803l-185 -72l-15 33l177 88z" />
    <glyph glyph-name="racute" unicode="&#x155;" horiz-adv-x="342" 
d="M357 490l-14 -57q-18 6 -38 6q-39 0 -91.5 -63t-73.5 -172l-40 -204h-58l96 493h49l-22 -129q31 58 72 96.5t84 38.5q19 0 36 -9zM414 682l-164 -119l-27 23l149 131z" />
    <glyph glyph-name="Rcommaaccent" unicode="&#x156;" horiz-adv-x="529" 
d="M464 0h-73l-157 307h-64l-60 -307h-61l131 675q17 0 62.5 0.5t81.5 0.5q101 0 151 -37.5t50 -105.5q0 -81 -58 -147t-170 -72zM459 529q0 98 -149 98h-79l-52 -272h88q53 0 92.5 17t60 44t30 55.5t9.5 57.5zM216 -40q29 0 29 -27q0 -66 -104 -109l-11 24q56 29 56 54
q0 3 -2.5 10t-2.5 17q0 31 35 31z" />
    <glyph glyph-name="rcommaaccent" unicode="&#x157;" horiz-adv-x="342" 
d="M357 490l-14 -57q-18 6 -38 6q-39 0 -91.5 -63t-73.5 -172l-40 -204h-58l96 493h49l-22 -129q31 58 72 96.5t84 38.5q19 0 36 -9zM62 -40q29 0 29 -27q0 -66 -104 -109l-11 24q56 29 56 54q0 3 -2.5 10t-2.5 17q0 31 35 31z" />
    <glyph glyph-name="Rcaron" unicode="&#x158;" horiz-adv-x="529" 
d="M464 0h-73l-157 307h-64l-60 -307h-61l131 675q17 0 62.5 0.5t81.5 0.5q101 0 151 -37.5t50 -105.5q0 -81 -58 -147t-170 -72zM459 529q0 98 -149 98h-79l-52 -272h88q53 0 92.5 17t60 44t30 55.5t9.5 57.5zM350 731l-125 92l23 29l109 -65l136 65l13 -31z" />
    <glyph glyph-name="rcaron" unicode="&#x159;" horiz-adv-x="342" 
d="M357 490l-14 -57q-18 6 -38 6q-39 0 -91.5 -63t-73.5 -172l-40 -204h-58l96 493h49l-22 -129q31 58 72 96.5t84 38.5q19 0 36 -9zM414 691l-157 -126l-110 128l27 25l94 -87l126 87z" />
    <glyph glyph-name="Sacute" unicode="&#x15a;" horiz-adv-x="495" 
d="M191 -7q-95 0 -173 52l22 36q80 -39 149 -39q79 0 129 42t50 110q0 39 -26.5 68t-64 49.5t-75 41.5t-64 56t-26.5 81q0 83 61.5 137.5t155.5 54.5q90 0 151 -43l-21 -35q-58 30 -128 30t-112.5 -38t-42.5 -94q0 -39 27 -68t65 -49.5t76 -42t65 -57t27 -82.5
q0 -91 -69.5 -150.5t-175.5 -59.5zM515 803l-185 -72l-15 33l177 88z" />
    <glyph glyph-name="sacute" unicode="&#x15b;" horiz-adv-x="395" 
d="M134 -7q-76 0 -133 32l15 36q59 -22 114 -22q59 0 95.5 27t36.5 77q0 28 -20 48t-48.5 33t-57 27t-48.5 39.5t-20 61.5q0 64 48 106t128 42q60 0 108 -24l-16 -36q-45 16 -88 16q-51 0 -84 -25t-33 -71q0 -27 20 -46t48.5 -31.5t57 -26.5t48.5 -40.5t20 -64.5
q0 -70 -52.5 -114t-138.5 -44zM421 682l-164 -119l-27 23l149 131z" />
    <glyph glyph-name="Scircumflex" unicode="&#x15c;" horiz-adv-x="495" 
d="M191 -7q-95 0 -173 52l22 36q80 -39 149 -39q79 0 129 42t50 110q0 39 -26.5 68t-64 49.5t-75 41.5t-64 56t-26.5 81q0 83 61.5 137.5t155.5 54.5q90 0 151 -43l-21 -35q-58 30 -128 30t-112.5 -38t-42.5 -94q0 -39 27 -68t65 -49.5t76 -42t65 -57t27 -82.5
q0 -91 -69.5 -150.5t-175.5 -59.5zM368 852l124 -91l-23 -30l-109 66l-135 -66l-14 30z" />
    <glyph glyph-name="scircumflex" unicode="&#x15d;" horiz-adv-x="395" 
d="M134 -7q-76 0 -133 32l15 36q59 -22 114 -22q59 0 95.5 27t36.5 77q0 28 -20 48t-48.5 33t-57 27t-48.5 39.5t-20 61.5q0 64 48 106t128 42q60 0 108 -24l-16 -36q-45 16 -88 16q-51 0 -84 -25t-33 -71q0 -27 20 -46t48.5 -31.5t57 -26.5t48.5 -40.5t20 -64.5
q0 -70 -52.5 -114t-138.5 -44zM393 590l-28 -25l-93 88l-127 -88l-19 27l156 126z" />
    <glyph glyph-name="Scedilla" unicode="&#x15e;" horiz-adv-x="495" 
d="M191 -7q-95 0 -173 52l22 36q80 -39 149 -39q79 0 129 42t50 110q0 39 -26.5 68t-64 49.5t-75 41.5t-64 56t-26.5 81q0 83 61.5 137.5t155.5 54.5q90 0 151 -43l-21 -35q-58 30 -128 30t-112.5 -38t-42.5 -94q0 -39 27 -68t65 -49.5t76 -42t65 -57t27 -82.5
q0 -91 -69.5 -150.5t-175.5 -59.5zM156 -44h53q-4 -78 -89 -133l-28 22q32 26 46 49.5t18 61.5z" />
    <glyph glyph-name="scedilla" unicode="&#x15f;" horiz-adv-x="395" 
d="M134 -7q-76 0 -133 32l15 36q59 -22 114 -22q59 0 95.5 27t36.5 77q0 28 -20 48t-48.5 33t-57 27t-48.5 39.5t-20 61.5q0 64 48 106t128 42q60 0 108 -24l-16 -36q-45 16 -88 16q-51 0 -84 -25t-33 -71q0 -27 20 -46t48.5 -31.5t57 -26.5t48.5 -40.5t20 -64.5
q0 -70 -52.5 -114t-138.5 -44zM101 -44h53q-4 -78 -89 -133l-28 22q32 26 46 49.5t18 61.5z" />
    <glyph glyph-name="Scaron" unicode="&#x160;" horiz-adv-x="495" 
d="M191 -7q-95 0 -173 52l22 36q80 -39 149 -39q79 0 129 42t50 110q0 39 -26.5 68t-64 49.5t-75 41.5t-64 56t-26.5 81q0 83 61.5 137.5t155.5 54.5q90 0 151 -43l-21 -35q-58 30 -128 30t-112.5 -38t-42.5 -94q0 -39 27 -68t65 -49.5t76 -42t65 -57t27 -82.5
q0 -91 -69.5 -150.5t-175.5 -59.5zM338 731l-125 92l23 29l109 -65l136 65l13 -31z" />
    <glyph glyph-name="scaron" unicode="&#x161;" horiz-adv-x="395" 
d="M134 -7q-76 0 -133 32l15 36q59 -22 114 -22q59 0 95.5 27t36.5 77q0 28 -20 48t-48.5 33t-57 27t-48.5 39.5t-20 61.5q0 64 48 106t128 42q60 0 108 -24l-16 -36q-45 16 -88 16q-51 0 -84 -25t-33 -71q0 -27 20 -46t48.5 -31.5t57 -26.5t48.5 -40.5t20 -64.5
q0 -70 -52.5 -114t-138.5 -44zM413 691l-157 -126l-110 128l27 25l94 -87l126 87z" />
    <glyph glyph-name="uni0162" unicode="&#x162;" horiz-adv-x="466" 
d="M521 625h-187l-121 -625h-61l121 625h-186l10 50h434zM172 -40q29 0 29 -27q0 -66 -104 -109l-11 24q56 29 56 54q0 3 -2.5 10t-2.5 17q0 31 35 31z" />
    <glyph glyph-name="uni0163" unicode="&#x163;" horiz-adv-x="346" 
d="M267 57l5 -37q-61 -27 -106 -27q-49 0 -72 19.5t-23 62.5q0 21 7 59l62 316h-86l9 43h86q29 84 44 140h41l-27 -140h143l-8 -43h-144l-59 -303q-8 -37 -8 -62t12 -35.5t41 -10.5q32 0 83 18zM145 -40q29 0 29 -27q0 -66 -104 -109l-11 24q56 29 56 54q0 3 -2.5 10
t-2.5 17q0 31 35 31z" />
    <glyph glyph-name="Tcaron" unicode="&#x164;" horiz-adv-x="466" 
d="M521 625h-187l-121 -625h-61l121 625h-186l10 50h434zM323 731l-125 92l23 29l109 -65l136 65l13 -31z" />
    <glyph glyph-name="tcaron" unicode="&#x165;" horiz-adv-x="358" 
d="M267 57l5 -37q-61 -27 -106 -27q-49 0 -72 19.5t-23 62.5q0 21 7 59l62 316h-86l9 43h86q29 84 44 140h41l-27 -140h143l-8 -43h-144l-59 -303q-8 -37 -8 -62t12 -35.5t41 -10.5q32 0 83 18zM409 734l-84 -166l-35 9l68 169z" />
    <glyph glyph-name="Tbar" unicode="&#x166;" horiz-adv-x="466" 
d="M521 625h-187l-51 -261h126l-9 -47h-125l-62 -317h-61l62 317h-125l8 47h125l51 261h-186l10 50h434z" />
    <glyph glyph-name="tbar" unicode="&#x167;" horiz-adv-x="346" 
d="M267 57l5 -37q-61 -27 -106 -27q-49 0 -72 19.5t-23 62.5q0 21 7 59l22 108h-68l8 43h68l32 165h-86l9 43h86q29 84 44 140h41l-27 -140h143l-8 -43h-144l-32 -165h127l-7 -43h-128l-19 -95q-8 -37 -8 -62t12 -35.5t41 -10.5q32 0 83 18z" />
    <glyph glyph-name="Utilde" unicode="&#x168;" horiz-adv-x="652" 
d="M636 675l-84 -430q-50 -252 -278 -252q-95 0 -142 40t-47 125q0 40 8 83l85 434h61l-83 -426q-9 -49 -9 -83q0 -66 33.5 -95.5t105.5 -29.5q81 0 132.5 46.5t72.5 156.5l84 431h61zM565 834l29 -20q-29 -44 -51.5 -60.5t-55.5 -16.5q-27 0 -49.5 14.5t-40.5 28.5t-34 14
q-17 0 -30.5 -11t-39.5 -43l-29 20q29 44 51.5 60.5t55.5 16.5q35 0 71 -29t53 -29q16 0 30 11t40 44z" />
    <glyph glyph-name="utilde" unicode="&#x169;" horiz-adv-x="534" 
d="M487 493l-95 -493h-49l22 127q-31 -58 -78.5 -96t-102.5 -38q-114 0 -114 132q0 33 7.5 76t27 132.5t32.5 159.5h57q-12 -62 -26.5 -132t-21.5 -103t-12 -66t-5 -54q0 -97 73 -97q56 0 111 71.5t76 174.5l40 206h58zM473 682l28 -20q-30 -44 -52 -60.5t-55 -16.5
q-27 0 -49.5 14.5t-40.5 28.5t-34 14q-17 0 -30.5 -11t-39.5 -44l-28 21q30 44 51.5 60.5t53.5 16.5q27 0 50 -14.5t41 -29t34 -14.5t30 11t41 44z" />
    <glyph glyph-name="Umacron" unicode="&#x16a;" horiz-adv-x="652" 
d="M636 675l-84 -430q-50 -252 -278 -252q-95 0 -142 40t-47 125q0 40 8 83l85 434h61l-83 -426q-9 -49 -9 -83q0 -66 33.5 -95.5t105.5 -29.5q81 0 132.5 46.5t72.5 156.5l84 431h61zM554 755h-264l8 44h264z" />
    <glyph glyph-name="umacron" unicode="&#x16b;" horiz-adv-x="534" 
d="M487 493l-95 -493h-49l22 127q-31 -58 -78.5 -96t-102.5 -38q-114 0 -114 132q0 33 7.5 76t27 132.5t32.5 159.5h57q-12 -62 -26.5 -132t-21.5 -103t-12 -66t-5 -54q0 -97 73 -97q56 0 111 71.5t76 174.5l40 206h58zM457 610h-253l8 44h254z" />
    <glyph glyph-name="Ubreve" unicode="&#x16c;" horiz-adv-x="652" 
d="M636 675l-84 -430q-50 -252 -278 -252q-95 0 -142 40t-47 125q0 40 8 83l85 434h61l-83 -426q-9 -49 -9 -83q0 -66 33.5 -95.5t105.5 -29.5q81 0 132.5 46.5t72.5 156.5l84 431h61zM530 850h39q-11 -57 -52.5 -90.5t-96.5 -33.5q-62 0 -89.5 35t-16.5 89h38
q-6 -34 12.5 -56t59.5 -22q43 0 71 22t35 56z" />
    <glyph glyph-name="ubreve" unicode="&#x16d;" horiz-adv-x="534" 
d="M487 493l-95 -493h-49l22 127q-31 -58 -78.5 -96t-102.5 -38q-114 0 -114 132q0 33 7.5 76t27 132.5t32.5 159.5h57q-12 -62 -26.5 -132t-21.5 -103t-12 -66t-5 -54q0 -97 73 -97q56 0 111 71.5t76 174.5l40 206h58zM435 712h39q-11 -65 -50 -101t-100 -36
q-64 0 -91 36.5t-15 100.5h40q-17 -86 70 -86q89 0 107 86z" />
    <glyph glyph-name="Uring" unicode="&#x16e;" horiz-adv-x="652" 
d="M636 675l-84 -430q-50 -252 -278 -252q-95 0 -142 40t-47 125q0 40 8 83l85 434h61l-83 -426q-9 -49 -9 -83q0 -66 33.5 -95.5t105.5 -29.5q81 0 132.5 46.5t72.5 156.5l84 431h61zM408 693q-79 0 -79 59q0 41 27.5 70.5t80.5 29.5q80 0 80 -59q0 -41 -28 -70.5
t-81 -29.5zM470 789q0 28 -40 28q-54 0 -54 -61q0 -28 39 -28q29 0 42 18t13 43z" />
    <glyph glyph-name="uring" unicode="&#x16f;" horiz-adv-x="534" 
d="M487 493l-95 -493h-49l22 127q-31 -58 -78.5 -96t-102.5 -38q-114 0 -114 132q0 33 7.5 76t27 132.5t32.5 159.5h57q-12 -62 -26.5 -132t-21.5 -103t-12 -66t-5 -54q0 -97 73 -97q56 0 111 71.5t76 174.5l40 206h58zM325 549q-80 0 -80 61q0 42 27.5 73t82.5 31
q81 0 81 -62q0 -41 -28 -72t-83 -31zM388 649q0 28 -40 28q-55 0 -55 -63q0 -28 39 -28q30 0 43 18.5t13 44.5z" />
    <glyph glyph-name="Uhungarumlaut" unicode="&#x170;" horiz-adv-x="652" 
d="M636 675l-84 -430q-50 -252 -278 -252q-95 0 -142 40t-47 125q0 40 8 83l85 434h61l-83 -426q-9 -49 -9 -83q0 -66 33.5 -95.5t105.5 -29.5q81 0 132.5 46.5t72.5 156.5l84 431h61zM679 813l-181 -86l-18 23l171 102zM496 824l-175 -99l-19 22l162 113z" />
    <glyph glyph-name="uhungarumlaut" unicode="&#x171;" horiz-adv-x="534" 
d="M487 493l-95 -493h-49l22 127q-31 -58 -78.5 -96t-102.5 -38q-114 0 -114 132q0 33 7.5 76t27 132.5t32.5 159.5h57q-12 -62 -26.5 -132t-21.5 -103t-12 -66t-5 -54q0 -97 73 -97q56 0 111 71.5t76 174.5l40 206h58zM571 680l-160 -117l-27 22l147 131zM398 686
l-152 -127l-29 22l140 139z" />
    <glyph glyph-name="Uogonek" unicode="&#x172;" horiz-adv-x="652" 
d="M636 675l-84 -430q-23 -118 -83 -178q-19 -19 -61 -53.5t-62 -54.5q-40 -40 -40 -69q0 -26 29 -26q23 0 53 14l8 -32q-34 -23 -77 -23q-67 0 -67 58q0 59 85 119q-32 -7 -63 -7q-95 0 -142 40t-47 125q0 40 8 83l85 434h61l-83 -426q-9 -49 -9 -83q0 -66 33.5 -95.5
t105.5 -29.5q81 0 132 47t73 156l84 431h61z" />
    <glyph glyph-name="uogonek" unicode="&#x173;" horiz-adv-x="534" 
d="M487 493l-95 -493q-84 -68 -84 -110q0 -26 28 -26q23 0 53 14l9 -32q-36 -23 -78 -23q-67 0 -67 58q0 56 91 127l21 119q-31 -58 -78.5 -96t-102.5 -38q-114 0 -114 132q0 33 7.5 76t27 132.5t32.5 159.5h57q-12 -62 -26.5 -132t-21.5 -103t-12 -66t-5 -54q0 -97 73 -97
q56 0 111 71.5t76 174.5l40 206h58z" />
    <glyph glyph-name="Wcircumflex" unicode="&#x174;" horiz-adv-x="847" 
d="M838 675h64q-158 -366 -320 -675h-65l-32 470l-3 91h-1l-39 -94l-204 -467h-71q-46 317 -60 675h65q7 -253 47 -597h1l24 59l235 538h52l35 -524l3 -73h1q157 323 268 597zM537 852l124 -91l-23 -30l-109 66l-135 -66l-14 30z" />
    <glyph glyph-name="wcircumflex" unicode="&#x175;" horiz-adv-x="717" 
d="M666 493h62q-100 -250 -245 -493h-56l-39 354l-3 59h-1l-26 -60l-162 -353h-65l-57 493h62l35 -331l7 -91h2l32 74l159 348h58l39 -358l4 -64h2q118 221 192 422zM549 590l-28 -25l-93 88l-127 -88l-19 27l156 126z" />
    <glyph glyph-name="Ycircumflex" unicode="&#x176;" horiz-adv-x="480" 
d="M491 675h70q-175 -254 -282 -376l-58 -299h-61l58 299q-74 159 -136 376h68q54 -197 112 -323h1q95 112 228 323zM351 852l124 -91l-23 -30l-109 66l-135 -66l-14 30z" />
    <glyph glyph-name="ycircumflex" unicode="&#x177;" horiz-adv-x="453" 
d="M401 493h65q-73 -172 -140 -298.5t-116.5 -196t-96 -110.5t-76 -52.5t-58.5 -11.5q-30 0 -58 11l7 37q12 -3 38 -3q64 0 117 53q51 51 51 118q0 51 -12 119l-55 334h62l47 -295q17 -102 2 -166h2q51 80 112.5 209t108.5 252zM419 590l-28 -25l-93 88l-127 -88l-19 27
l156 126z" />
    <glyph glyph-name="Ydieresis" unicode="&#x178;" horiz-adv-x="480" 
d="M491 675h70q-175 -254 -282 -376l-58 -299h-61l58 299q-74 159 -136 376h68q54 -197 112 -323h1q95 112 228 323zM473 790q0 -28 -10 -38q-9 -9 -32 -9q-17 0 -24 4.5t-7 16.5q0 28 10 38q9 9 32 9q31 0 31 -21zM277 790q0 -28 -10 -38q-9 -9 -32 -9q-31 0 -31 21
q0 28 10 38q9 9 32 9q31 0 31 -21z" />
    <glyph glyph-name="Zacute" unicode="&#x179;" horiz-adv-x="485" 
d="M392 0h-399l8 42l422 583h-294l13 50h367l-8 -40l-422 -583h324zM502 803l-185 -72l-15 33l177 88z" />
    <glyph glyph-name="zacute" unicode="&#x17a;" horiz-adv-x="400" 
d="M309 47l-11 -47h-300l6 38l301 409h-211l11 46h280l-7 -36l-300 -410h231zM427 682l-164 -119l-27 23l149 131z" />
    <glyph glyph-name="Zdotaccent" unicode="&#x17b;" horiz-adv-x="485" 
d="M392 0h-399l8 42l422 583h-294l13 50h367l-8 -40l-422 -583h324zM336 743q-19 0 -26 4.5t-7 14.5q0 32 12 42q8 8 33 8q19 0 26 -4.5t7 -14.5q0 -30 -12 -42q-8 -8 -33 -8z" />
    <glyph glyph-name="zdotaccent" unicode="&#x17c;" horiz-adv-x="400" 
d="M309 47l-11 -47h-300l6 38l301 409h-211l11 46h280l-7 -36l-300 -410h231zM266 605q-35 0 -35 19q0 32 13 45q8 8 33 8q35 0 35 -20q0 -9 -4 -24t-9 -20q-8 -8 -33 -8z" />
    <glyph glyph-name="Zcaron" unicode="&#x17d;" horiz-adv-x="485" 
d="M392 0h-399l8 42l422 583h-294l13 50h367l-8 -40l-422 -583h324zM335 731l-125 92l23 29l109 -65l136 65l13 -31z" />
    <glyph glyph-name="zcaron" unicode="&#x17e;" horiz-adv-x="400" 
d="M309 47l-11 -47h-300l6 38l301 409h-211l11 46h280l-7 -36l-300 -410h231zM415 691l-157 -126l-110 128l27 25l94 -87l126 87z" />
    <glyph glyph-name="longs" unicode="&#x17f;" horiz-adv-x="255" 
d="M213 581l-120 -618q-28 -140 -145 -140q-50 0 -95 28l17 36q38 -18 69 -18q40 0 63 22t32 69l120 621q26 135 137 135q54 0 91 -24l-17 -36q-30 15 -64 15q-70 0 -88 -90z" />
    <glyph glyph-name="florin" unicode="&#x192;" 
d="M527 653l-18 -35q-38 18 -70 18q-41 0 -65 -22.5t-36 -69.5l-48 -178h163l-9 -42h-163l-77 -295q-35 -139 -152 -139q-54 0 -96 28l19 35q38 -18 70 -18q76 0 101 92l78 297h-145l8 42h146l46 176q36 139 153 139q55 0 95 -28z" />
    <glyph glyph-name="Gcaron" unicode="&#x1e6;" horiz-adv-x="570" 
d="M500 358l-57 -293q-94 -72 -199 -72q-86 0 -134 54t-48 167q0 112 38 218.5t104 172.5q77 77 176 77q94 0 159 -75l-31 -30q-59 55 -124 55q-76 0 -134 -60q-57 -56 -90 -156t-33 -200q0 -172 130 -172q76 0 128 39l45 227h-105l10 48h165zM390 731l-125 92l23 29
l109 -65l136 65l13 -31z" />
    <glyph glyph-name="gcaron" unicode="&#x1e7;" horiz-adv-x="510" 
d="M462 486l-95 -485q-20 -101 -70.5 -139.5t-138.5 -38.5q-70 0 -145 26l12 36q80 -15 133 -15q66 0 102 28.5t48 96.5l12 63q5 23 22 89q-30 -57 -76.5 -95.5t-99.5 -38.5q-55 0 -86.5 43t-31.5 115q0 42 8 84t28.5 87t51 79.5t80 56.5t111.5 22q29 0 62.5 -3.5t52.5 -6.5
zM110 178q0 -54 19 -85.5t57 -31.5q52 0 106.5 70t74.5 171l28 141q-40 12 -82 12q-55 0 -96.5 -28t-63.5 -72t-32.5 -89t-10.5 -88zM466 691l-157 -126l-110 128l27 25l94 -87l126 87z" />
    <glyph glyph-name="Aringacute" unicode="&#x1fa;" horiz-adv-x="516" 
d="M445 0h-63q-6 88 -12 153h-270q-18 -42 -65 -153h-65q152 343 330 675h72q55 -382 73 -675zM121 202h248q-20 214 -49 409h-1q-117 -230 -198 -409zM317 844l142 41l12 -34l-148 -30zM342 692q-40 0 -59 14t-19 36q0 29 25.5 45t66.5 16q40 0 59 -14t19 -36
q0 -29 -25.5 -45t-66.5 -16zM389 749q0 26 -38 26q-42 0 -42 -29q0 -26 38 -26q42 0 42 29z" />
    <glyph glyph-name="aringacute" unicode="&#x1fb;" horiz-adv-x="510" 
d="M44 148q0 44 7.5 88.5t27.5 93t50.5 85.5t81.5 61t115 24q29 0 63 -3.5t53 -6.5l20 -4l-95 -486h-49l23 129q-32 -59 -79 -97.5t-100 -38.5q-56 0 -87 44t-31 111zM106 161q0 -120 76 -120q52 0 107 71t75 175l30 156q-39 12 -82 12q-58 0 -101 -32t-64.5 -81t-31 -94.5
t-9.5 -86.5zM318 779l117 106l41 -33l-131 -94zM306 549q-78 0 -78 64q0 37 29.5 66t79.5 29q38 0 58 -17t20 -47q0 -38 -29 -66.5t-80 -28.5zM368 642q0 31 -36 31q-57 0 -57 -58q0 -31 36 -31q57 0 57 58z" />
    <glyph glyph-name="AEacute" unicode="&#x1fc;" horiz-adv-x="705" 
d="M595 0h-312l29 153h-213q-45 -71 -91 -153h-67q220 362 442 675h339l-10 -50h-247l-48 -248h203l-10 -49h-203l-54 -278h250zM321 202l83 423h-1q-137 -199 -275 -423h193zM710 803l-185 -72l-15 33l177 88z" />
    <glyph glyph-name="aeacute" unicode="&#x1fd;" horiz-adv-x="744" 
d="M628 72l7 -39q-74 -40 -157 -40q-137 0 -151 123q-41 -60 -93 -91.5t-103 -31.5q-58 0 -85.5 30t-27.5 74q0 23 5 44.5t22.5 49t45.5 47.5t79.5 34t119.5 14h52l11 58q11 57 -11.5 84t-84.5 27q-59 0 -142 -29l-5 39q89 35 165 35q119 0 131 -84q64 84 166 84
q59 0 94 -29t35 -75q0 -153 -310 -153q-10 -48 -10 -85q0 -118 114 -118q60 0 133 32zM641 391q0 65 -80 65q-59 0 -101 -48.5t-61 -122.5q98 0 153.5 15t72 36t16.5 55zM334 243h-54q-54 0 -94 -10.5t-60 -25t-31.5 -36.5t-14 -37t-2.5 -34q0 -63 68 -63q64 0 117 58
t67 130zM605 682l-164 -119l-27 23l149 131z" />
    <glyph glyph-name="Oslashacute" unicode="&#x1fe;" horiz-adv-x="635" 
d="M266 -7q-91 0 -141 47l-86 -111l-36 24l93 118q-34 53 -34 142q0 78 20 157t58.5 150.5t106 116.5t153.5 45q90 0 140 -47l87 111l35 -24l-93 -118q34 -53 34 -142q0 -62 -11.5 -124.5t-37.5 -125t-63.5 -110.5t-96 -78.5t-128.5 -30.5zM389 635q-55 0 -100.5 -28
t-75 -71.5t-50 -99.5t-29.5 -109.5t-9 -103.5q0 -69 16 -97l363 463q-37 46 -115 46zM277 40q67 0 120.5 41.5t83.5 106t45 132.5t15 132q0 67 -16 97l-363 -463q37 -46 115 -46zM577 805l-185 -72l-15 33l177 88z" />
    <glyph glyph-name="oslashacute" unicode="&#x1ff;" horiz-adv-x="515" 
d="M464 334q0 -40 -6.5 -82t-25 -89.5t-47 -84t-76.5 -61t-109 -24.5q-58 0 -93 25l-68 -88l-34 23l71 94q-30 39 -30 112q0 40 7 82t25.5 89.5t46.5 84t76 61t109 24.5q58 0 94 -26l68 90l35 -23l-72 -95q29 -38 29 -112zM405 325q0 41 -13 68l-252 -334q26 -22 74 -22
q54 0 94 31t59.5 79t28.5 93t9 85zM105 167q0 -43 13 -68l253 334q-24 23 -75 23q-54 0 -94 -31.5t-59.5 -79.5t-28.5 -93t-9 -85zM472 682l-164 -119l-27 23l149 131z" />
    <glyph glyph-name="Scommaaccent" unicode="&#x218;" horiz-adv-x="495" 
d="M191 -7q-95 0 -173 52l22 36q80 -39 149 -39q79 0 129 42t50 110q0 39 -26.5 68t-64 49.5t-75 41.5t-64 56t-26.5 81q0 83 61.5 137.5t155.5 54.5q90 0 151 -43l-21 -35q-58 30 -128 30t-112.5 -38t-42.5 -94q0 -39 27 -68t65 -49.5t76 -42t65 -57t27 -82.5
q0 -91 -69.5 -150.5t-175.5 -59.5zM185 -40q29 0 29 -27q0 -66 -104 -109l-11 24q56 29 56 54q0 3 -2.5 10t-2.5 17q0 31 35 31z" />
    <glyph glyph-name="scommaaccent" unicode="&#x219;" horiz-adv-x="395" 
d="M134 -7q-76 0 -133 32l15 36q59 -22 114 -22q59 0 95.5 27t36.5 77q0 28 -20 48t-48.5 33t-57 27t-48.5 39.5t-20 61.5q0 64 48 106t128 42q60 0 108 -24l-16 -36q-45 16 -88 16q-51 0 -84 -25t-33 -71q0 -27 20 -46t48.5 -31.5t57 -26.5t48.5 -40.5t20 -64.5
q0 -70 -52.5 -114t-138.5 -44zM129 -40q29 0 29 -27q0 -66 -104 -109l-11 24q56 29 56 54q0 3 -2.5 10t-2.5 17q0 31 35 31z" />
    <glyph glyph-name="Tcommaaccent" unicode="&#x21a;" horiz-adv-x="466" 
d="M521 625h-187l-121 -625h-61l121 625h-186l10 50h434zM172 -40q29 0 29 -27q0 -66 -104 -109l-11 24q56 29 56 54q0 3 -2.5 10t-2.5 17q0 31 35 31z" />
    <glyph glyph-name="tcommaaccent" unicode="&#x21b;" horiz-adv-x="346" 
d="M267 57l5 -37q-61 -27 -106 -27q-49 0 -72 19.5t-23 62.5q0 21 7 59l62 316h-86l9 43h86q29 84 44 140h41l-27 -140h143l-8 -43h-144l-59 -303q-8 -37 -8 -62t12 -35.5t41 -10.5q32 0 83 18zM145 -40q29 0 29 -27q0 -66 -104 -109l-11 24q56 29 56 54q0 3 -2.5 10
t-2.5 17q0 31 35 31z" />
    <glyph glyph-name="dotlessj" unicode="&#x237;" horiz-adv-x="243" 
d="M196 493l-89 -457q-15 -74 -44 -122t-88 -90l-30 24q80 68 101 171l92 474h58z" />
    <glyph glyph-name="apostrophe" unicode="&#x2bc;" horiz-adv-x="223" 
d="M204 731q33 0 33 -26q0 -49 -31.5 -98t-102.5 -84l-19 27q85 49 85 97q0 6 -5.5 14t-5.5 18q0 30 13 43q9 9 33 9z" />
    <glyph glyph-name="circumflex" unicode="&#x2c6;" horiz-adv-x="429" 
d="M413 590l-28 -25l-93 88l-127 -88l-19 27l156 126z" />
    <glyph glyph-name="caron" unicode="&#x2c7;" horiz-adv-x="429" 
d="M432 691l-157 -126l-110 128l27 25l94 -87l126 87z" />
    <glyph glyph-name="breve" unicode="&#x2d8;" horiz-adv-x="418" 
d="M385 712h39q-11 -65 -50 -101t-100 -36q-64 0 -91 36.5t-15 100.5h40q-17 -86 70 -86q89 0 107 86z" />
    <glyph glyph-name="dotaccent" unicode="&#x2d9;" horiz-adv-x="238" 
d="M187 605q-35 0 -35 19q0 32 13 45q8 8 33 8q35 0 35 -20q0 -9 -4 -24t-9 -20q-8 -8 -33 -8z" />
    <glyph glyph-name="ring" unicode="&#x2da;" horiz-adv-x="349" 
d="M231 549q-80 0 -80 61q0 42 27.5 73t82.5 31q81 0 81 -62q0 -41 -28 -72t-83 -31zM294 649q0 28 -40 28q-55 0 -55 -63q0 -28 39 -28q30 0 43 18.5t13 44.5z" />
    <glyph glyph-name="ogonek" unicode="&#x2db;" horiz-adv-x="313" 
d="M144 -122l9 -32q-36 -23 -78 -23q-67 0 -67 58q0 27 22.5 58.5t61.5 60.5h59q-88 -62 -88 -110q0 -26 28 -26q23 0 53 14z" />
    <glyph glyph-name="tilde" unicode="&#x2dc;" horiz-adv-x="488" 
d="M453 682l28 -20q-30 -44 -52 -60.5t-55 -16.5q-27 0 -49.5 14.5t-40.5 28.5t-34 14q-17 0 -30.5 -11t-39.5 -44l-28 21q30 44 51.5 60.5t53.5 16.5q27 0 50 -14.5t41 -29t34 -14.5t30 11t41 44z" />
    <glyph glyph-name="hungarumlaut" unicode="&#x2dd;" horiz-adv-x="496" 
d="M497 680l-160 -117l-27 22l147 131zM324 686l-152 -127l-29 22l140 139z" />
    <glyph glyph-name="uni0312" unicode="&#x312;" horiz-adv-x="276" 
d="M147 594q0 36 32.5 70.5t91.5 49.5l9 -25q-35 -13 -55 -32t-20 -34q0 -3 2.5 -9t2.5 -16q0 -32 -35 -32q-15 0 -21.5 6t-6.5 22z" />
    <glyph glyph-name="uni0315" unicode="&#x315;" horiz-adv-x="250" 
d="M261 734l-84 -166l-35 9l68 169z" />
    <glyph glyph-name="uni0326" unicode="&#x326;" horiz-adv-x="262" 
d="M86 -40q29 0 29 -27q0 -66 -104 -109l-11 24q56 29 56 54q0 3 -2.5 10t-2.5 17q0 31 35 31z" />
    <glyph glyph-name="Delta" unicode="&#x2206;" horiz-adv-x="512" 
d="M434 0h-456l8 41q136 304 313 634h71q53 -355 72 -634zM51 50h327q-14 255 -59 561h-2q-186 -373 -266 -561z" />
    <glyph glyph-name="Delta" unicode="&#x394;" horiz-adv-x="512" 
d="M434 0h-456l8 41q136 304 313 634h71q53 -355 72 -634zM51 50h327q-14 255 -59 561h-2q-186 -373 -266 -561z" />
    <glyph glyph-name="Omega" unicode="&#x2126;" horiz-adv-x="650" 
d="M570 0h-226l10 52q50 23 89.5 74t60.5 110.5t32 114t11 95.5q0 90 -31 139t-118 49q-61 0 -109 -32.5t-75 -79t-45 -105t-24 -103.5t-6 -81q0 -74 17.5 -115.5t56.5 -65.5l-10 -52h-223l9 47h162q-41 29 -59 72t-18 118q0 36 6.5 79t20.5 94.5t40.5 98.5t62 86.5t89 63
t117.5 23.5q106 0 154 -58.5t48 -170.5q0 -119 -52.5 -236t-148.5 -170h168z" />
    <glyph glyph-name="Omega" unicode="&#x3a9;" horiz-adv-x="650" 
d="M570 0h-226l10 52q50 23 89.5 74t60.5 110.5t32 114t11 95.5q0 90 -31 139t-118 49q-61 0 -109 -32.5t-75 -79t-45 -105t-24 -103.5t-6 -81q0 -74 17.5 -115.5t56.5 -65.5l-10 -52h-223l9 47h162q-41 29 -59 72t-18 118q0 36 6.5 79t20.5 94.5t40.5 98.5t62 86.5t89 63
t117.5 23.5q106 0 154 -58.5t48 -170.5q0 -119 -52.5 -236t-148.5 -170h168z" />
    <glyph glyph-name="pi" unicode="&#x3c0;" horiz-adv-x="605" 
d="M601 447h-135q-56 -284 -56 -353q0 -31 9.5 -43t34.5 -12q31 0 72 15l5 -37q-54 -24 -91 -24q-47 0 -67.5 19t-20.5 68q0 73 58 367h-205q-42 -210 -103 -447h-60q76 286 108 447h-96l9 46h546z" />
    <glyph glyph-name="uni1E02" unicode="&#x1e02;" horiz-adv-x="534" 
d="M194 -2q-34 0 -82 1t-63 1l131 675h165q81 0 120.5 -34t39.5 -90q0 -65 -41 -116.5t-105 -70.5q55 -9 87 -41.5t32 -87.5q0 -41 -14.5 -80t-45.5 -75.5t-89 -59t-135 -22.5zM413 227q0 105 -149 105h-91l-54 -281q50 -5 91 -5q58 0 100.5 19t63 48.5t30 58t9.5 55.5z
M441 539q0 89 -116 89h-94l-48 -249h77q47 0 84 16t57 41.5t30 52t10 50.5zM346 743q-19 0 -26 4.5t-7 14.5q0 32 12 42q8 8 33 8q19 0 26 -4.5t7 -14.5q0 -30 -12 -42q-8 -8 -33 -8z" />
    <glyph glyph-name="uni1E03" unicode="&#x1e03;" horiz-adv-x="510" 
d="M178 -7q-29 0 -62.5 3.5t-53.5 7.5l-19 3l136 702h58l-48 -252q-1 -6 -22 -90q30 57 76.5 95t99.5 38q56 0 87 -44t31 -111q0 -44 -7.5 -88t-27.5 -93t-50.5 -86t-81.5 -61t-116 -24zM399 332q0 120 -76 120q-52 0 -107.5 -71t-75.5 -175l-30 -156q40 -12 83 -12
q58 0 101 32t64.5 81t31 94.5t9.5 86.5zM221 789q-20 0 -27 4t-7 14q0 30 12 42q8 8 34 8q20 0 27 -4t7 -15q0 -29 -13 -42q-7 -7 -33 -7z" />
    <glyph glyph-name="uni1E0A" unicode="&#x1e0a;" horiz-adv-x="573" 
d="M540 445q0 -77 -30.5 -179.5t-100.5 -172.5q-92 -94 -238 -94q-25 0 -67.5 0.5t-54.5 0.5l131 675q22 0 63.5 0.5t66.5 0.5q119 0 174.5 -64t55.5 -167zM474 441q0 186 -176 186q-45 0 -66 -1l-112 -575q36 -3 68 -3q102 0 173 69q61 61 87 157.5t26 166.5zM348 743
q-19 0 -26 4.5t-7 14.5q0 32 12 42q8 8 33 8q19 0 26 -4.5t7 -14.5q0 -30 -12 -42q-8 -8 -33 -8z" />
    <glyph glyph-name="uni1E0B" unicode="&#x1e0b;" horiz-adv-x="510" 
d="M367 0h-49l23 127q-32 -58 -79 -96t-100 -38q-56 0 -87 44t-31 111q0 44 7.5 88.5t27.5 93t50.5 85.5t81.5 61t116 24l79 -5l41 213h58zM106 161q0 -120 76 -120q52 0 107 71t75 175l30 156q-39 12 -82 12q-58 0 -101 -32t-64.5 -81t-31 -94.5t-9.5 -86.5zM491 789
q-20 0 -27 4t-7 14q0 30 12 42q8 8 34 8q20 0 27 -4t7 -15q0 -29 -13 -42q-7 -7 -33 -7z" />
    <glyph glyph-name="uni1E1E" unicode="&#x1e1e;" horiz-adv-x="449" 
d="M473 626h-242l-49 -257h220l-9 -49h-221l-62 -320h-61l131 675h302zM348 743q-19 0 -26 4.5t-7 14.5q0 32 12 42q8 8 33 8q19 0 26 -4.5t7 -14.5q0 -30 -12 -42q-8 -8 -33 -8z" />
    <glyph glyph-name="uni1E1F" unicode="&#x1e1f;" horiz-adv-x="291" 
d="M325 493l-8 -43h-118l-95 -491q-27 -136 -144 -136q-52 0 -95 28l17 36q36 -18 68 -18q78 0 96 91l95 490h-87l9 43h86l16 85q12 64 49 100t96 36q54 0 96 -28l-17 -35q-38 18 -69 18q-78 0 -96 -91l-17 -85h118zM316 789q-20 0 -27 4t-7 14q0 30 12 42q8 8 34 8
q20 0 27 -4t7 -15q0 -29 -13 -42q-7 -7 -33 -7z" />
    <glyph glyph-name="uni1E40" unicode="&#x1e40;" horiz-adv-x="837" 
d="M699 0h-64q58 349 75 600h-1l-324 -600h-45l-92 600h-1q-72 -241 -147 -600h-62q80 359 181 675h76l90 -570h1l309 570h80q-24 -369 -76 -675zM505 743q-19 0 -26 4.5t-7 14.5q0 32 12 42q8 8 33 8q19 0 26 -4.5t7 -14.5q0 -30 -12 -42q-8 -8 -33 -8z" />
    <glyph glyph-name="uni1E41" unicode="&#x1e41;" horiz-adv-x="811" 
d="M670 0h-58q12 62 26.5 132t21.5 103t12 66t5 54q0 97 -68 97q-52 0 -107 -71t-76 -175l-41 -206h-58l49 243q15 79 15 112q0 97 -68 97q-52 0 -107 -71t-75 -175l-41 -206h-58l96 493h49l-23 -127q32 58 78.5 96t98.5 38q106 0 109 -135q31 58 78 96.5t99 38.5
q110 0 110 -131q0 -34 -7.5 -77t-27 -132.5t-32.5 -159.5zM474 605q-35 0 -35 19q0 32 13 45q8 8 33 8q35 0 35 -20q0 -9 -4 -24t-9 -20q-8 -8 -33 -8z" />
    <glyph glyph-name="uni1E56" unicode="&#x1e56;" horiz-adv-x="504" 
d="M519 522q0 -50 -16.5 -95t-51 -84.5t-96.5 -62.5t-143 -23h-53l-49 -257h-61l131 675q18 0 61.5 0.5t65.5 0.5q212 0 212 -154zM453 513q0 56 -36 85.5t-120 29.5h-66l-62 -321h59q52 0 92.5 14t65 35t40 49.5t21.5 54.5t6 53zM342 743q-19 0 -26 4.5t-7 14.5q0 32 12 42
q8 8 33 8q19 0 26 -4.5t7 -14.5q0 -30 -12 -42q-8 -8 -33 -8z" />
    <glyph glyph-name="uni1E57" unicode="&#x1e57;" horiz-adv-x="510" 
d="M461 345q0 -44 -7.5 -88t-27.5 -93t-50.5 -86t-81.5 -61t-116 -24l-79 5l-33 -171h-58l130 666h49l-23 -127q32 58 79 96t100 38q56 0 87 -44t31 -111zM399 332q0 120 -76 120q-52 0 -107 -71t-75 -175l-30 -156q39 -12 82 -12q58 0 101 32t64.5 81t31 94.5t9.5 86.5z
M324 605q-35 0 -35 19q0 32 13 45q8 8 33 8q35 0 35 -20q0 -9 -4 -24t-9 -20q-8 -8 -33 -8z" />
    <glyph glyph-name="uni1E60" unicode="&#x1e60;" horiz-adv-x="495" 
d="M191 -7q-95 0 -173 52l22 36q80 -39 149 -39q79 0 129 42t50 110q0 39 -26.5 68t-64 49.5t-75 41.5t-64 56t-26.5 81q0 83 61.5 137.5t155.5 54.5q90 0 151 -43l-21 -35q-58 30 -128 30t-112.5 -38t-42.5 -94q0 -39 27 -68t65 -49.5t76 -42t65 -57t27 -82.5
q0 -91 -69.5 -150.5t-175.5 -59.5zM336 744q-19 0 -26 4.5t-7 14.5q0 32 12 42q8 8 33 8q19 0 26 -4.5t7 -14.5q0 -30 -12 -42q-8 -8 -33 -8z" />
    <glyph glyph-name="uni1E61" unicode="&#x1e61;" horiz-adv-x="395" 
d="M134 -7q-76 0 -133 32l15 36q59 -22 114 -22q59 0 95.5 27t36.5 77q0 28 -20 48t-48.5 33t-57 27t-48.5 39.5t-20 61.5q0 64 48 106t128 42q60 0 108 -24l-16 -36q-45 16 -88 16q-51 0 -84 -25t-33 -71q0 -27 20 -46t48.5 -31.5t57 -26.5t48.5 -40.5t20 -64.5
q0 -70 -52.5 -114t-138.5 -44zM266 606q-35 0 -35 19q0 32 13 45q8 8 33 8q35 0 35 -20q0 -9 -4 -24t-9 -20q-8 -8 -33 -8z" />
    <glyph glyph-name="uni1E6A" unicode="&#x1e6a;" horiz-adv-x="466" 
d="M521 625h-187l-121 -625h-61l121 625h-186l10 50h434zM327 743q-19 0 -26 4.5t-7 14.5q0 32 12 42q8 8 33 8q19 0 26 -4.5t7 -14.5q0 -30 -12 -42q-8 -8 -33 -8z" />
    <glyph glyph-name="uni1E6B" unicode="&#x1e6b;" horiz-adv-x="346" 
d="M267 57l5 -37q-61 -27 -106 -27q-49 0 -72 19.5t-23 62.5q0 21 7 59l62 316h-86l9 43h86q29 84 44 140h41l-27 -140h143l-8 -43h-144l-59 -303q-8 -37 -8 -62t12 -35.5t41 -10.5q32 0 83 18zM231 703q-35 0 -35 19q0 32 13 45q8 8 33 8q35 0 35 -20q0 -9 -4 -24t-9 -20
q-8 -8 -33 -8z" />
    <glyph glyph-name="Wgrave" unicode="&#x1e80;" horiz-adv-x="847" 
d="M838 675h64q-158 -366 -320 -675h-65l-32 470l-3 91h-1l-39 -94l-204 -467h-71q-46 317 -60 675h65q7 -253 47 -597h1l24 59l235 538h52l35 -524l3 -73h1q157 323 268 597zM561 761l-23 -30l-161 76l36 45z" />
    <glyph glyph-name="wgrave" unicode="&#x1e81;" horiz-adv-x="717" 
d="M666 493h62q-100 -250 -245 -493h-56l-39 354l-3 59h-1l-26 -60l-162 -353h-65l-57 493h62l35 -331l7 -91h2l32 74l159 348h58l39 -358l4 -64h2q118 221 192 422zM450 583l-32 -20l-121 124l49 30z" />
    <glyph glyph-name="Wacute" unicode="&#x1e82;" horiz-adv-x="847" 
d="M838 675h64q-158 -366 -320 -675h-65l-32 470l-3 91h-1l-39 -94l-204 -467h-71q-46 317 -60 675h65q7 -253 47 -597h1l24 59l235 538h52l35 -524l3 -73h1q157 323 268 597zM677 803l-185 -72l-15 33l177 88z" />
    <glyph glyph-name="wacute" unicode="&#x1e83;" horiz-adv-x="717" 
d="M666 493h62q-100 -250 -245 -493h-56l-39 354l-3 59h-1l-26 -60l-162 -353h-65l-57 493h62l35 -331l7 -91h2l32 74l159 348h58l39 -358l4 -64h2q118 221 192 422zM557 682l-164 -119l-27 23l149 131z" />
    <glyph glyph-name="Wdieresis" unicode="&#x1e84;" horiz-adv-x="847" 
d="M838 675h64q-158 -366 -320 -675h-65l-32 470l-3 91h-1l-39 -94l-204 -467h-71q-46 317 -60 675h65q7 -253 47 -597h1l24 59l235 538h52l35 -524l3 -73h1q157 323 268 597zM663 790q0 -28 -10 -38q-9 -9 -32 -9q-17 0 -24 4.5t-7 16.5q0 28 10 38q9 9 32 9q31 0 31 -21z
M467 790q0 -28 -10 -38q-9 -9 -32 -9q-31 0 -31 21q0 28 10 38q9 9 32 9q31 0 31 -21z" />
    <glyph glyph-name="wdieresis" unicode="&#x1e85;" horiz-adv-x="717" 
d="M666 493h62q-100 -250 -245 -493h-56l-39 354l-3 59h-1l-26 -60l-162 -353h-65l-57 493h62l35 -331l7 -91h2l32 74l159 348h58l39 -358l4 -64h2q118 221 192 422zM558 654q0 -28 -11 -39q-9 -9 -32 -9q-31 0 -31 22q0 29 11 38q9 9 32 9q31 0 31 -21zM369 654
q0 -28 -11 -39q-9 -9 -32 -9q-31 0 -31 22q0 29 11 38q9 9 32 9q31 0 31 -21z" />
    <glyph glyph-name="Ygrave" unicode="&#x1ef2;" horiz-adv-x="480" 
d="M491 675h70q-175 -254 -282 -376l-58 -299h-61l58 299q-74 159 -136 376h68q54 -197 112 -323h1q95 112 228 323zM378 761l-23 -30l-161 76l36 45z" />
    <glyph glyph-name="ygrave" unicode="&#x1ef3;" horiz-adv-x="453" 
d="M401 493h65q-73 -172 -140 -298.5t-116.5 -196t-96 -110.5t-76 -52.5t-58.5 -11.5q-30 0 -58 11l7 37q12 -3 38 -3q64 0 117 53q51 51 51 118q0 51 -12 119l-55 334h62l47 -295q17 -102 2 -166h2q51 80 112.5 209t108.5 252zM317 583l-32 -20l-121 124l49 30z" />
    <glyph glyph-name="endash" unicode="&#x2013;" 
d="M457 273h-408l9 47h409z" />
    <glyph glyph-name="emdash" unicode="&#x2014;" horiz-adv-x="1000" 
d="M844 273h-683l8 47h684z" />
    <glyph glyph-name="uni2015" unicode="&#x2015;" horiz-adv-x="1000" 
d="M844 273h-683l8 47h684z" />
    <glyph glyph-name="quoteleft" unicode="&#x2018;" horiz-adv-x="265" 
d="M284 768l20 -29q-87 -51 -87 -98q0 -7 6 -15.5t6 -18.5q0 -32 -14 -46q-9 -9 -36 -9q-35 0 -35 27q0 51 33 102t107 87z" />
    <glyph glyph-name="quoteright" unicode="&#x2019;" horiz-adv-x="274" 
d="M142 527l-21 29q87 51 87 99q0 6 -6 15t-6 19q0 32 14 46q10 9 36 9q35 0 35 -27q0 -51 -33 -102t-106 -88z" />
    <glyph glyph-name="quotesinglbase" unicode="&#x201a;" horiz-adv-x="305" 
d="M13 -141l-21 29q89 52 89 99q0 6 -6 15t-6 19q0 32 14 46q9 9 35 9q36 0 36 -27q0 -50 -34 -101.5t-107 -88.5z" />
    <glyph glyph-name="quotedblleft" unicode="&#x201c;" horiz-adv-x="441" 
d="M284 768l19 -29q-88 -52 -88 -98q0 -6 6 -15t6 -19q0 -32 -14 -46q-11 -9 -34 -9q-35 0 -35 27q0 51 33.5 102t106.5 87zM459 765l19 -29q-85 -49 -85 -95q0 -6 6 -15t6 -19q0 -32 -14 -46q-11 -9 -34 -9q-35 0 -35 27q0 51 33 101.5t104 84.5z" />
    <glyph glyph-name="quotedblright" unicode="&#x201d;" horiz-adv-x="450" 
d="M317 528l-19 29q88 51 88 98q0 6 -6 14.5t-6 19.5q0 31 14 45q10 9 34 9q35 0 35 -27q0 -50 -33.5 -101t-106.5 -87zM142 530l-19 29q85 49 85 96q0 6 -6 14.5t-6 19.5q0 31 14 45q10 9 34 9q34 0 34 -27q0 -50 -32.5 -100.5t-103.5 -85.5z" />
    <glyph glyph-name="quotedblbase" unicode="&#x201e;" horiz-adv-x="480" 
d="M189 -140l-19 29q88 50 88 98q0 6 -5.5 14.5t-5.5 19.5q0 30 13 45q10 9 34 9q35 0 35 -27q0 -50 -33.5 -101t-106.5 -87zM14 -138l-19 29q85 48 85 96q0 6 -5.5 14.5t-5.5 19.5q0 30 13 45q10 9 34 9q35 0 35 -27q0 -50 -33 -100.5t-104 -85.5z" />
    <glyph glyph-name="dagger" unicode="&#x2020;" horiz-adv-x="369" 
d="M378 524h-114l-61 -313h-56l61 313h-114l8 43h114l28 142h57l-28 -142h113z" />
    <glyph glyph-name="daggerdbl" unicode="&#x2021;" horiz-adv-x="369" 
d="M305 149h-114l-28 -149h-56l28 149h-114l8 43h114l65 329h-114l8 43h114l28 145h56l-28 -145h114l-8 -43h-114l-65 -329h114z" />
    <glyph glyph-name="bullet" unicode="&#x2022;" 
d="M374 310q0 -50 -35.5 -84.5t-84.5 -34.5q-46 0 -78.5 32.5t-32.5 78.5q0 50 35 85t84 35q47 0 79.5 -32.5t32.5 -79.5z" />
    <glyph glyph-name="perthousand" unicode="&#x2030;" horiz-adv-x="1011" 
d="M221 370q-107 0 -107 102q0 31 8.5 65t26.5 67.5t51.5 55.5t77.5 22q107 0 107 -102q0 -31 -8.5 -65t-26.5 -67.5t-51.5 -55.5t-77.5 -22zM332 576q0 66 -61 66q-30 0 -52.5 -18.5t-32.5 -47.5t-14.5 -53.5t-4.5 -46.5q0 -66 61 -66q30 0 52.5 18.5t32.5 47.5t14.5 53.5
t4.5 46.5zM682 665l-611 -680l-33 25l612 680zM442 -7q-107 0 -107 102q0 31 8.5 64.5t26.5 67.5t51.5 56t77.5 22q107 0 107 -102q0 -31 -8.5 -65t-26.5 -67.5t-51.5 -55.5t-77.5 -22zM553 199q0 66 -61 66q-30 0 -52.5 -18.5t-32.5 -47.5t-14.5 -53.5t-4.5 -46.5
q0 -66 61 -66q30 0 52.5 18.5t32.5 47.5t14.5 53.5t4.5 46.5zM763 -7q-107 0 -107 102q0 31 8.5 65t26 67.5t51 55.5t77.5 22q107 0 107 -102q0 -31 -8.5 -65t-26 -67.5t-51 -55.5t-77.5 -22zM873 199q0 35 -14.5 50.5t-45.5 15.5t-53 -18.5t-32.5 -47.5t-14.5 -53.5
t-4 -46.5q0 -35 14.5 -50.5t45.5 -15.5t53 18.5t32.5 47.5t14.5 53.5t4 46.5z" />
    <glyph glyph-name="guilsinglleft" unicode="&#x2039;" horiz-adv-x="302" 
d="M191 124l-41 -15l-84 189l154 185l37 -18l-125 -170z" />
    <glyph glyph-name="guilsinglright" unicode="&#x203a;" horiz-adv-x="302" 
d="M127 468l40 15l84 -188l-154 -186l-37 18l126 171z" />
    <glyph glyph-name="exclamdbl" unicode="&#x203c;" horiz-adv-x="652" 
d="M335 675l-118 -538h-47l93 538h72zM166 -6q-21 0 -29 5.5t-8 20.5q0 33 13 44q9 10 37 10q21 0 29 -5t8 -20q0 -33 -13 -44q-11 -11 -37 -11zM616 675l-118 -538h-47l93 538h72zM447 -6q-21 0 -29 5.5t-8 20.5q0 33 13 44q9 10 37 10q21 0 29 -5t8 -20q0 -33 -13 -44
q-11 -11 -37 -11z" />
    <glyph glyph-name="fraction" unicode="&#x2044;" horiz-adv-x="68" 
d="M435 708l-719 -772l-33 22l718 772z" />
    <glyph glyph-name="zero.superior" unicode="&#x2070;" horiz-adv-x="363" 
d="M379 623q0 -65 -19.5 -125t-52.5 -92q-44 -43 -109 -43q-52 0 -80 27.5t-28 78.5q0 64 19.5 124t52.5 92q44 44 109 44q52 0 80 -27.5t28 -78.5zM326 621q0 70 -63 70q-36 0 -63 -27q-29 -28 -43 -85t-14 -108q0 -70 63 -70q37 0 63 26q29 29 43 86t14 108z" />
    <glyph glyph-name="four.superior" unicode="&#x2074;" horiz-adv-x="346" 
d="M361 450h-59l-17 -81h-51l16 81h-182l7 37q91 118 207 236h72l-44 -233h59zM258 490l40 199h-1q-74 -73 -173 -199h134z" />
    <glyph glyph-name="five.superior" unicode="&#x2075;" horiz-adv-x="341" 
d="M343 494q0 -20 -7.5 -40t-24.5 -42t-52 -35.5t-84 -13.5q-45 0 -106 21l10 28q60 -12 97 -12q60 0 85.5 27.5t25.5 61.5q0 53 -81 53q-38 0 -91 -8l52 189h192l-8 -41h-149l-30 -110q27 5 59 5q112 0 112 -83z" />
    <glyph glyph-name="six.superior" unicode="&#x2076;" horiz-adv-x="351" 
d="M357 499q0 -50 -37 -93t-109 -43q-110 0 -110 105q0 64 18 120.5t63.5 98.5t111.5 42q44 0 95 -17l-11 -29q-50 9 -83 9q-55 0 -85.5 -33.5t-46.5 -108.5q57 27 103 27q48 0 69.5 -22.5t21.5 -55.5zM304 495q0 47 -60 47q-37 0 -85 -21q-5 -25 -5 -54q0 -68 59 -68
q48 0 69.5 28.5t21.5 67.5z" />
    <glyph glyph-name="seven.superior" unicode="&#x2077;" horiz-adv-x="336" 
d="M384 685l-119 -158q-82 -108 -139 -165l-34 12l231 306h-201l9 43h260z" />
    <glyph glyph-name="eight.superior" unicode="&#x2078;" horiz-adv-x="350" 
d="M351 471q0 -47 -39.5 -78t-112.5 -31q-58 0 -90.5 19.5t-32.5 56.5q0 67 110 111q-63 32 -63 79q0 42 37 71.5t105 29.5q54 0 83 -19t29 -49q0 -35 -24.5 -59.5t-76.5 -47.5q75 -32 75 -83zM325 655q0 39 -67 39q-40 0 -61 -16t-21 -43q0 -21 12.5 -34.5t48.5 -29.5
q48 20 68 39.5t20 44.5zM297 462q0 20 -16.5 36t-57.5 33q-46 -21 -69 -40.5t-23 -48.5q0 -45 75 -45q45 0 68 20t23 45z" />
    <glyph glyph-name="nine.superior" unicode="&#x2079;" horiz-adv-x="349" 
d="M109 593q0 51 38 93.5t109 42.5q110 0 110 -104q0 -47 -10.5 -91.5t-32.5 -84t-60 -63t-88 -23.5q-48 0 -102 18l9 29q62 -11 90 -11q56 0 86.5 35.5t44.5 107.5q-58 -28 -101 -28q-46 0 -69.5 21t-23.5 58zM161 597q0 -47 62 -47q40 0 86 21q5 33 5 54q0 68 -62 68
q-46 0 -68.5 -29t-22.5 -67z" />
    <glyph glyph-name="uni207A" unicode="&#x207a;" horiz-adv-x="326" 
d="M337 526h-100l-19 -104h-45l19 104h-100l9 39h99l20 104h46l-21 -104h100z" />
    <glyph glyph-name="uni207B" unicode="&#x207b;" horiz-adv-x="326" 
d="M337 525h-245l9 41h244z" />
    <glyph glyph-name="uni207C" unicode="&#x207c;" horiz-adv-x="326" 
d="M345 577h-240l8 40h240zM325 474h-240l8 39h240z" />
    <glyph glyph-name="parenleft.superior" unicode="&#x207d;" horiz-adv-x="181" 
d="M167 293l-35 -9q-33 78 -33 170q0 93 36 191t100 177l32 -13q-117 -181 -117 -362q0 -88 17 -154z" />
    <glyph glyph-name="parenright.superior" unicode="&#x207e;" horiz-adv-x="181" 
d="M131 813l35 9q33 -78 33 -170q0 -94 -35.5 -192.5t-99.5 -175.5l-33 13q118 181 118 362q0 84 -18 154z" />
    <glyph glyph-name="nsuperior" unicode="&#x207f;" horiz-adv-x="372" 
d="M371 603q0 -38 -40 -234h-50q39 194 39 226q0 47 -42 47q-36 0 -70 -36.5t-46 -100.5l-27 -136h-50l60 306h41l-9 -71q48 77 119 77q38 0 56.5 -23t18.5 -55z" />
    <glyph glyph-name="zero.inferior" unicode="&#x2080;" horiz-adv-x="363" 
d="M296 199q0 -65 -19.5 -125t-52.5 -92q-44 -43 -109 -43q-52 0 -80 27.5t-28 78.5q0 64 19.5 124t52.5 92q44 44 109 44q52 0 80 -27.5t28 -78.5zM243 197q0 70 -63 70q-36 0 -63 -27q-29 -28 -43 -85t-14 -108q0 -70 63 -70q37 0 63 26q29 29 43 86t14 108z" />
    <glyph glyph-name="one.inferior" unicode="&#x2081;" horiz-adv-x="332" 
d="M227 -55h-234l8 40h94l53 268l-90 -26l-4 31l116 43h40l-61 -316h86z" />
    <glyph glyph-name="two.inferior" unicode="&#x2082;" horiz-adv-x="337" 
d="M232 -55h-249l8 38q131 92 179.5 139.5t48.5 96.5q0 47 -66 47q-27 0 -94 -18l-4 33q66 24 115 24q48 0 76 -22t28 -58q0 -54 -54.5 -111.5t-165.5 -124.5v-2h186z" />
    <glyph glyph-name="three.inferior" unicode="&#x2083;" horiz-adv-x="339" 
d="M262 64q0 -20 -7 -39.5t-24 -40t-52 -33t-83 -12.5q-54 0 -112 19l11 30q59 -11 102 -11q60 0 84.5 24.5t24.5 58.5q0 52 -84 52h-51l8 36h50q49 0 73 20.5t24 50.5q0 24 -16.5 36t-56.5 12q-37 0 -87 -13l-4 32q59 19 105 19q59 0 86.5 -22t27.5 -55t-23.5 -59
t-63.5 -34q68 -13 68 -71z" />
    <glyph glyph-name="four.inferior" unicode="&#x2084;" horiz-adv-x="346" 
d="M278 26h-59l-17 -81h-51l16 81h-182l7 37q91 118 207 236h72l-44 -233h59zM175 66l40 199h-1q-74 -73 -173 -199h134z" />
    <glyph glyph-name="five.inferior" unicode="&#x2085;" horiz-adv-x="341" 
d="M260 70q0 -20 -7.5 -40t-24.5 -42t-52 -35.5t-84 -13.5q-45 0 -106 21l10 28q60 -12 97 -12q60 0 85.5 27.5t25.5 61.5q0 53 -81 53q-38 0 -91 -8l52 189h192l-8 -41h-149l-30 -110q27 5 59 5q112 0 112 -83z" />
    <glyph glyph-name="six.inferior" unicode="&#x2086;" horiz-adv-x="351" 
d="M274 75q0 -50 -37 -93t-109 -43q-110 0 -110 105q0 64 18 120.5t63.5 98.5t111.5 42q44 0 95 -17l-11 -29q-50 9 -83 9q-55 0 -85.5 -33.5t-46.5 -108.5q57 27 103 27q48 0 69.5 -22.5t21.5 -55.5zM221 71q0 47 -60 47q-37 0 -85 -21q-5 -25 -5 -54q0 -68 59 -68
q48 0 69.5 28.5t21.5 67.5z" />
    <glyph glyph-name="seven.inferior" unicode="&#x2087;" horiz-adv-x="336" 
d="M301 261l-119 -158q-82 -108 -139 -165l-34 12l231 306h-201l9 43h260z" />
    <glyph glyph-name="eight.inferior" unicode="&#x2088;" horiz-adv-x="352" 
d="M269 47q0 -47 -39.5 -78t-112.5 -31q-58 0 -90.5 19.5t-32.5 56.5q0 67 110 111q-63 32 -63 79q0 42 37 71.5t105 29.5q54 0 83 -19t29 -49q0 -35 -24.5 -59.5t-76.5 -47.5q75 -32 75 -83zM243 231q0 39 -67 39q-40 0 -61 -16t-21 -43q0 -21 12.5 -34.5t48.5 -29.5
q48 20 68 39.5t20 44.5zM215 38q0 20 -16.5 36t-57.5 33q-46 -21 -69 -40.5t-23 -48.5q0 -45 75 -45q45 0 68 20t23 45z" />
    <glyph glyph-name="nine.inferior" unicode="&#x2089;" horiz-adv-x="349" 
d="M26 169q0 51 38 93.5t109 42.5q110 0 110 -104q0 -47 -10.5 -91.5t-32.5 -84t-60 -63t-88 -23.5q-48 0 -102 18l9 29q62 -11 90 -11q56 0 86.5 35.5t44.5 107.5q-58 -28 -101 -28q-46 0 -69.5 21t-23.5 58zM78 173q0 -47 62 -47q40 0 86 21q5 33 5 54q0 68 -62 68
q-46 0 -68.5 -29t-22.5 -67z" />
    <glyph glyph-name="uni208A" unicode="&#x208a;" horiz-adv-x="326" 
d="M254 102h-100l-19 -104h-45l19 104h-100l9 39h99l20 104h46l-21 -104h100z" />
    <glyph glyph-name="uni208B" unicode="&#x208b;" horiz-adv-x="326" 
d="M254 101h-245l9 41h244z" />
    <glyph glyph-name="uni208C" unicode="&#x208c;" horiz-adv-x="326" 
d="M262 153h-240l8 40h240zM242 50h-240l8 39h240z" />
    <glyph glyph-name="parenleft.inferior" unicode="&#x208d;" horiz-adv-x="183" 
d="M84 -131l-35 -9q-33 78 -33 170q0 93 36 191t100 177l32 -13q-117 -181 -117 -362q0 -88 17 -154z" />
    <glyph glyph-name="parenright.inferior" unicode="&#x208e;" horiz-adv-x="183" 
d="M48 389l35 9q33 -78 33 -170q0 -94 -35.5 -192.5t-99.5 -175.5l-33 13q118 181 118 362q0 84 -18 154z" />
    <glyph glyph-name="Euro" unicode="&#x20ac;" 
d="M422 118l23 -29q-48 -48 -95.5 -72t-107.5 -24q-70 0 -113.5 39t-57 94.5t-8.5 125.5h-60l7 41h58q3 32 19 94h-58l8 41h62q38 119 112 186.5t163 67.5q120 0 153 -107l-34 -25q-33 84 -120 84q-73 0 -129 -59t-83 -147h206l-8 -41h-210q-9 -30 -19 -94h210l-7 -41h-206
q-6 -34 -1 -71t17 -68t42 -51.5t73 -20.5q83 0 164 77z" />
    <glyph glyph-name="uni2117" unicode="&#x2117;" horiz-adv-x="773" 
d="M567 426q0 -68 -49.5 -105t-118.5 -37h-55l-27 -137h-51l73 372q11 0 49 0.5t56 0.5q123 0 123 -94zM512 423q0 32 -20 44.5t-57 12.5h-53l-30 -155h53q47 0 77 24.5t30 73.5zM355 -9q-129 0 -212.5 84t-83.5 213q0 101 51 192t140.5 147t195.5 56q130 0 213.5 -84
t83.5 -213q0 -101 -51 -192t-141 -147t-196 -56zM694 382q0 111 -70 185.5t-182 74.5q-139 0 -237 -106t-98 -244q0 -111 70 -185.5t182 -74.5q139 0 237 106t98 244z" />
    <glyph glyph-name="servicemark" unicode="&#x2120;" horiz-adv-x="418" 
d="M209 562q0 -25 -20.5 -40t-54.5 -15q-32 0 -54 12l11 22q17 -8 40 -8q38 0 38 25q0 11 -16 19t-32 19.5t-16 31.5q0 21 18 35.5t45 14.5q29 0 49 -9l-8 -22q-22 6 -36 6q-30 0 -30 -21q0 -8 10.5 -15t22.5 -12t22.5 -16t10.5 -27zM430 510h-36q17 88 20 126h-1l-66 -126
h-40l-15 125h-1q-20 -78 -30 -125h-33q24 99 47 165h46l14 -126h1l66 126h49q-5 -70 -21 -165z" />
    <glyph glyph-name="trademark" unicode="&#x2122;" horiz-adv-x="406" 
d="M405 510h-36q18 109 20 126h-1l-66 -126h-41l-15 125h-1q-20 -80 -29 -125h-34q21 86 47 165h46l15 -126h1l65 126h49q-4 -60 -20 -165zM213 647h-37l-26 -137h-37l27 137h-38l6 28h111z" />
    <glyph glyph-name="uni2139" unicode="&#x2139;" horiz-adv-x="349" 
d="M278 0h-307l8 45h133l54 278h-122l8 46h183l-62 -324h113zM221 458q-41 0 -41 22q0 11 4.5 29.5t10.5 24.5q10 9 38 9q41 0 41 -22q0 -11 -4.5 -29.5t-10.5 -24.5q-11 -9 -38 -9z" />
    <glyph glyph-name="onethird" unicode="&#x2153;" horiz-adv-x="731" 
d="M310 369h-234l8 40h94l53 268l-90 -26l-4 31l116 43h40l-61 -316h86zM767 708l-719 -772l-33 22l718 772zM654 64q0 -20 -7 -39.5t-24 -40t-52 -33t-83 -12.5q-54 0 -112 19l11 30q59 -11 102 -11q60 0 84.5 24.5t24.5 58.5q0 52 -84 52h-51l8 36h50q49 0 73 20.5
t24 50.5q0 24 -16.5 36t-56.5 12q-37 0 -87 -13l-4 32q59 19 105 19q59 0 86.5 -22t27.5 -55t-23.5 -59t-63.5 -34q68 -13 68 -71z" />
    <glyph glyph-name="twothirds" unicode="&#x2154;" horiz-adv-x="736" 
d="M315 369h-249l8 38q131 92 179.5 139.5t48.5 96.5q0 47 -66 47q-27 0 -94 -18l-4 33q66 24 115 24q48 0 76 -22t28 -58q0 -54 -54.5 -111.5t-165.5 -124.5v-2h186zM772 708l-719 -772l-33 22l718 772zM659 64q0 -20 -7 -39.5t-24 -40t-52 -33t-83 -12.5q-54 0 -112 19
l11 30q59 -11 102 -11q60 0 84.5 24.5t24.5 58.5q0 52 -84 52h-51l8 36h50q49 0 73 20.5t24 50.5q0 24 -16.5 36t-56.5 12q-37 0 -87 -13l-4 32q59 19 105 19q59 0 86.5 -22t27.5 -55t-23.5 -59t-63.5 -34q68 -13 68 -71z" />
    <glyph glyph-name="onefifth" unicode="&#x2155;" horiz-adv-x="728" 
d="M310 369h-234l8 40h94l53 268l-90 -26l-4 31l116 43h40l-61 -316h86zM767 708l-719 -772l-33 22l718 772zM637 70q0 -20 -7.5 -40t-24.5 -42t-52 -35.5t-84 -13.5q-45 0 -106 21l10 28q60 -12 97 -12q60 0 85.5 27.5t25.5 61.5q0 53 -81 53q-38 0 -91 -8l52 189h192
l-8 -41h-149l-30 -110q27 5 59 5q112 0 112 -83z" />
    <glyph glyph-name="twofifths" unicode="&#x2156;" horiz-adv-x="733" 
d="M315 369h-249l8 38q131 92 179.5 139.5t48.5 96.5q0 47 -66 47q-27 0 -94 -18l-4 33q66 24 115 24q48 0 76 -22t28 -58q0 -54 -54.5 -111.5t-165.5 -124.5v-2h186zM772 708l-719 -772l-33 22l718 772zM642 70q0 -20 -7.5 -40t-24.5 -42t-52 -35.5t-84 -13.5
q-44 0 -106 21l10 28q60 -12 97 -12q60 0 85.5 27.5t25.5 61.5q0 53 -81 53q-38 0 -91 -8l52 189h192l-8 -41h-149l-30 -110q27 5 59 5q112 0 112 -83z" />
    <glyph glyph-name="threefifths" unicode="&#x2157;" horiz-adv-x="743" 
d="M345 488q0 -20 -7 -39.5t-24 -40t-52 -33t-83 -12.5q-54 0 -112 19l11 30q59 -11 102 -11q60 0 84.5 24.5t24.5 58.5q0 52 -84 52h-51l8 36h50q49 0 73 20.5t24 50.5q0 24 -16.5 36t-56.5 12q-37 0 -87 -13l-4 32q59 19 105 19q59 0 86.5 -22t27.5 -55t-23.5 -59
t-63.5 -34q68 -13 68 -71zM783 708l-719 -772l-33 22l718 772zM652 70q0 -20 -7.5 -40t-24.5 -42t-52 -35.5t-84 -13.5q-44 0 -106 21l10 28q60 -12 97 -12q60 0 85.5 27.5t25.5 61.5q0 53 -81 53q-38 0 -91 -8l52 189h192l-8 -41h-149l-30 -110q27 5 59 5q112 0 112 -83z
" />
    <glyph glyph-name="fourfifths" unicode="&#x2158;" horiz-adv-x="729" 
d="M361 450h-59l-17 -81h-51l16 81h-182l7 37q91 118 207 236h72l-44 -233h59zM258 490l40 199h-1q-74 -73 -173 -199h134zM768 708l-719 -772l-33 22l718 772zM638 70q0 -20 -7.5 -40t-24.5 -42t-52 -35.5t-84 -13.5q-44 0 -106 21l10 28q60 -12 97 -12q60 0 85.5 27.5
t25.5 61.5q0 53 -81 53q-38 0 -91 -8l52 189h192l-8 -41h-149l-30 -110q27 5 59 5q112 0 112 -83z" />
    <glyph glyph-name="onesixth" unicode="&#x2159;" horiz-adv-x="743" 
d="M767 708l-719 -772l-33 22l718 772zM665 75q0 -50 -37 -93t-109 -43q-110 0 -110 105q0 64 18 120.5t63.5 98.5t111.5 42q44 0 95 -17l-11 -29q-50 9 -83 9q-55 0 -85.5 -33.5t-46.5 -108.5q57 27 103 27q48 0 69.5 -22.5t21.5 -55.5zM612 71q0 47 -60 47q-37 0 -85 -21
q-5 -25 -5 -54q0 -68 59 -68q48 0 69.5 28.5t21.5 67.5zM310 369h-234l8 40h94l53 268l-90 -26l-4 31l116 43h40l-61 -316h86z" />
    <glyph glyph-name="fivesixths" unicode="&#x215a;" horiz-adv-x="754" 
d="M779 708l-719 -772l-33 22l718 772zM677 75q0 -50 -37 -93t-109 -43q-110 0 -110 105q0 64 18 120.5t63.5 98.5t111.5 42q44 0 95 -17l-11 -29q-50 9 -83 9q-55 0 -85.5 -33.5t-46.5 -108.5q57 27 103 27q48 0 69.5 -22.5t21.5 -55.5zM624 71q0 47 -60 47q-37 0 -85 -21
q-5 -25 -5 -54q0 -68 59 -68q48 0 69.5 28.5t21.5 67.5zM343 494q0 -20 -7.5 -40t-24.5 -42t-52 -35.5t-84 -13.5q-45 0 -106 21l10 28q60 -12 97 -12q60 0 85.5 27.5t25.5 61.5q0 53 -81 53q-38 0 -91 -8l52 189h192l-8 -41h-149l-30 -110q27 5 59 5q112 0 112 -83z" />
    <glyph glyph-name="oneeighth" unicode="&#x215b;" horiz-adv-x="768" 
d="M767 708l-719 -772l-33 22l718 772zM687 47q0 -47 -39.5 -78t-112.5 -31q-58 0 -90.5 19.5t-32.5 56.5q0 67 110 111q-63 32 -63 79q0 42 37 71.5t105 29.5q54 0 83 -19t29 -49q0 -35 -24.5 -59.5t-76.5 -47.5q75 -32 75 -83zM661 231q0 39 -67 39q-40 0 -61 -16t-21 -43
q0 -21 12.5 -34.5t48.5 -29.5q48 20 68 39.5t20 44.5zM633 38q0 20 -16.5 36t-57.5 33q-46 -21 -69 -40.5t-23 -48.5q0 -45 75 -45q45 0 68 20t23 45zM310 369h-234l8 40h94l53 268l-90 -26l-4 31l116 43h40l-61 -316h86z" />
    <glyph glyph-name="threeeighths" unicode="&#x215c;" horiz-adv-x="783" 
d="M345 488q0 -20 -7 -39.5t-24 -40t-52 -33t-83 -12.5q-54 0 -112 19l11 30q59 -11 102 -11q60 0 84.5 24.5t24.5 58.5q0 52 -84 52h-51l8 36h50q49 0 73 20.5t24 50.5q0 24 -16.5 36t-56.5 12q-37 0 -87 -13l-4 32q59 19 105 19q59 0 86.5 -22t27.5 -55t-23.5 -59
t-63.5 -34q68 -13 68 -71zM783 708l-719 -772l-33 22l718 772zM702 47q0 -47 -39.5 -78t-112.5 -31q-58 0 -90.5 19.5t-32.5 56.5q0 67 110 111q-63 32 -63 79q0 42 37 71.5t105 29.5q54 0 83 -19t29 -49q0 -35 -24.5 -59.5t-76.5 -47.5q75 -32 75 -83zM676 231q0 39 -67 39
q-40 0 -61 -16t-21 -43q0 -21 12.5 -34.5t48.5 -29.5q48 20 68 39.5t20 44.5zM648 38q0 20 -16.5 36t-57.5 33q-46 -21 -69 -40.5t-23 -48.5q0 -45 75 -45q45 0 68 20t23 45z" />
    <glyph glyph-name="fiveeighths" unicode="&#x215d;" horiz-adv-x="779" 
d="M779 708l-719 -772l-33 22l718 772zM698 47q0 -47 -39.5 -78t-112.5 -31q-58 0 -90.5 19.5t-32.5 56.5q0 67 110 111q-63 32 -63 79q0 42 37 71.5t105 29.5q54 0 83 -19t29 -49q0 -35 -24.5 -59.5t-76.5 -47.5q75 -32 75 -83zM672 231q0 39 -67 39q-40 0 -61 -16t-21 -43
q0 -21 12.5 -34.5t48.5 -29.5q48 20 68 39.5t20 44.5zM644 38q0 20 -16.5 36t-57.5 33q-46 -21 -69 -40.5t-23 -48.5q0 -45 75 -45q45 0 68 20t23 45zM343 494q0 -20 -7.5 -40t-24.5 -42t-52 -35.5t-84 -13.5q-45 0 -106 21l10 28q60 -12 97 -12q60 0 85.5 27.5t25.5 61.5
q0 53 -81 53q-38 0 -91 -8l52 189h192l-8 -41h-149l-30 -110q27 5 59 5q112 0 112 -83z" />
    <glyph glyph-name="seveneighths" unicode="&#x215e;" horiz-adv-x="735" 
d="M734 708l-719 -772l-33 22l718 772zM654 47q0 -47 -39.5 -78t-112.5 -31q-58 0 -90.5 19.5t-32.5 56.5q0 67 110 111q-63 32 -63 79q0 42 37 71.5t105 29.5q54 0 83 -19t29 -49q0 -35 -24.5 -59.5t-76.5 -47.5q75 -32 75 -83zM628 231q0 39 -67 39q-40 0 -61 -16t-21 -43
q0 -21 12.5 -34.5t48.5 -29.5q48 20 68 39.5t20 44.5zM600 38q0 20 -16.5 36t-57.5 33q-46 -21 -69 -40.5t-23 -48.5q0 -45 75 -45q45 0 68 20t23 45zM432 685l-119 -158q-82 -108 -139 -165l-34 12l231 306h-201l9 43h260z" />
    <glyph glyph-name="uni2160" unicode="&#x2160;" horiz-adv-x="382" 
d="M272 0h-262l9 50h101l112 575h-101l10 50h262l-10 -50h-100l-112 -575h100z" />
    <glyph glyph-name="uni2161" unicode="&#x2161;" horiz-adv-x="765" 
d="M272 0h-262l9 50h101l112 575h-101l10 50h262l-10 -50h-100l-112 -575h100zM654 0h-262l9 50h101l112 575h-101l10 50h262l-10 -50h-100l-112 -575h100z" />
    <glyph glyph-name="uni2162" unicode="&#x2162;" horiz-adv-x="1147" 
d="M272 0h-262l9 50h101l112 575h-101l10 50h262l-10 -50h-100l-112 -575h100zM654 0h-262l9 50h101l112 575h-101l10 50h262l-10 -50h-100l-112 -575h100zM1037 0h-262l9 50h101l112 575h-101l10 50h262l-10 -50h-100l-112 -575h100z" />
    <glyph glyph-name="uni2163" unicode="&#x2163;" horiz-adv-x="897" 
d="M272 0h-262l9 50h101l112 575h-101l10 50h262l-10 -50h-100l-112 -575h100zM892 675h65q-162 -370 -333 -675h-69q-58 378 -72 675h65q9 -269 57 -608h2q160 308 285 608z" />
    <glyph glyph-name="uni2164" unicode="&#x2164;" horiz-adv-x="514" 
d="M510 675h65q-162 -370 -333 -675h-69q-58 378 -72 675h65q9 -269 57 -608h2q160 308 285 608z" />
    <glyph glyph-name="uni2165" unicode="&#x2165;" horiz-adv-x="897" 
d="M510 675h65q-162 -370 -333 -675h-69q-58 378 -72 675h65q9 -269 57 -608h2q160 308 285 608zM786 0h-262l9 50h101l112 575h-101l10 50h262l-10 -50h-100l-112 -575h100z" />
    <glyph glyph-name="uni2166" unicode="&#x2166;" horiz-adv-x="1279" 
d="M510 675h65q-162 -370 -333 -675h-69q-58 378 -72 675h65q9 -269 57 -608h2q160 308 285 608zM786 0h-262l9 50h101l112 575h-101l10 50h262l-10 -50h-100l-112 -575h100zM1169 0h-262l9 50h101l112 575h-101l10 50h262l-10 -50h-100l-112 -575h100z" />
    <glyph glyph-name="uni2167" unicode="&#x2167;" horiz-adv-x="1662" 
d="M510 675h65q-162 -370 -333 -675h-69q-58 378 -72 675h65q9 -269 57 -608h2q160 308 285 608zM786 0h-262l9 50h101l112 575h-101l10 50h262l-10 -50h-100l-112 -575h100zM1169 0h-262l9 50h101l112 575h-101l10 50h262l-10 -50h-100l-112 -575h100zM1551 0h-262l9 50
h101l112 575h-101l10 50h262l-10 -50h-100l-112 -575h100z" />
    <glyph glyph-name="uni2168" unicode="&#x2168;" horiz-adv-x="923" 
d="M272 0h-262l9 50h101l112 575h-101l10 50h262l-10 -50h-100l-112 -575h100zM839 0h-68q-50 164 -114 304h-1q-101 -116 -226 -304h-68q114 175 270 353q-74 163 -121 322h67q50 -169 99 -275h1q110 130 204 275h68q-100 -152 -246 -320q94 -212 135 -355z" />
    <glyph glyph-name="uni2169" unicode="&#x2169;" horiz-adv-x="540" 
d="M457 0h-68q-50 164 -114 304h-1q-101 -116 -226 -304h-68q114 175 270 353q-74 163 -121 322h67q50 -169 99 -275h1q110 130 204 275h68q-100 -152 -246 -320q94 -212 135 -355z" />
    <glyph glyph-name="uni216A" unicode="&#x216a;" horiz-adv-x="923" 
d="M457 0h-68q-50 164 -114 304h-1q-101 -116 -226 -304h-68q114 175 270 353q-74 163 -121 322h67q50 -169 99 -275h1q110 130 204 275h68q-100 -152 -246 -320q94 -212 135 -355zM812 0h-262l9 50h101l112 575h-101l10 50h262l-10 -50h-100l-112 -575h100z" />
    <glyph glyph-name="uni216B" unicode="&#x216b;" horiz-adv-x="1305" 
d="M457 0h-68q-50 164 -114 304h-1q-101 -116 -226 -304h-68q114 175 270 353q-74 163 -121 322h67q50 -169 99 -275h1q110 130 204 275h68q-100 -152 -246 -320q94 -212 135 -355zM812 0h-262l9 50h101l112 575h-101l10 50h262l-10 -50h-100l-112 -575h100zM1195 0h-262
l9 50h101l112 575h-101l10 50h262l-10 -50h-100l-112 -575h100z" />
    <glyph glyph-name="uni216C" unicode="&#x216c;" horiz-adv-x="421" 
d="M352 0h-303l131 675h61l-121 -625h242z" />
    <glyph glyph-name="uni216D" unicode="&#x216d;" horiz-adv-x="519" 
d="M423 122l24 -31q-96 -98 -206 -98q-86 0 -132.5 55.5t-46.5 161.5q0 60 12 123.5t37.5 126t61.5 112t89.5 80t115.5 30.5q117 0 151 -112l-35 -23q-35 85 -116 85q-59 0 -108 -40.5t-79 -103.5t-46.5 -134t-16.5 -137q0 -173 129 -173q82 0 166 78z" />
    <glyph glyph-name="uni216E" unicode="&#x216e;" horiz-adv-x="573" 
d="M540 445q0 -77 -30.5 -179.5t-100.5 -172.5q-92 -94 -238 -94q-25 0 -67.5 0.5t-54.5 0.5l131 675q22 0 63.5 0.5t66.5 0.5q119 0 174.5 -64t55.5 -167zM474 441q0 186 -176 186q-45 0 -66 -1l-112 -575q36 -3 68 -3q102 0 173 69q61 61 87 157.5t26 166.5z" />
    <glyph glyph-name="uni216F" unicode="&#x216f;" horiz-adv-x="837" 
d="M699 0h-64q58 349 75 600h-1l-324 -600h-45l-92 600h-1q-72 -241 -147 -600h-62q80 359 181 675h76l90 -570h1l309 570h80q-24 -369 -76 -675z" />
    <glyph glyph-name="arrowleft" unicode="&#x2190;" horiz-adv-x="1054" 
d="M77 338l358 358l28 -28q-160 -177 -292 -305v-1q335 5 663 5h133v-58h-133l-663 5v-1q59 -57 132 -133t117 -124l43 -48l-28 -28z" />
    <glyph glyph-name="arrowup" unicode="&#x2191;" horiz-adv-x="870" 
d="M435 788l358 -358l-28 -28q-177 160 -305 292h-1q5 -335 5 -663v-133h-58v133l5 663h-1q-57 -59 -133 -132t-124 -116l-48 -44l-28 28z" />
    <glyph glyph-name="arrowright" unicode="&#x2192;" horiz-adv-x="1054" 
d="M977 338l-358 -358l-28 28q160 177 292 305v1q-335 -5 -663 -5h-133v58h133l663 -5v1q-59 57 -132 133t-117 124l-43 48l28 28z" />
    <glyph glyph-name="arrowdown" unicode="&#x2193;" horiz-adv-x="870" 
d="M435 -112l-358 358l28 28q177 -160 305 -292h1q-5 335 -5 663v133h58v-133l-5 -663h1q57 59 133 132t124 116l48 44l28 -28z" />
    <glyph glyph-name="arrowboth" unicode="&#x2194;" horiz-adv-x="1250" 
d="M1173 338l-316 -316l-28 27q131 147 254 265v1q-220 -4 -367 -4h-182l-367 4v-1q55 -52 118.5 -118.5t99.5 -106.5l36 -40l-28 -27l-316 316l316 316l28 -27q-131 -147 -254 -265v-1q220 4 367 4h182l367 -4v1q-55 52 -118.5 118.5t-99.5 106.5l-36 40l28 27z" />
    <glyph glyph-name="arrowupdn" unicode="&#x2195;" horiz-adv-x="786" 
d="M393 -154l-316 316l27 28q147 -131 265 -254h1q-4 220 -4 367v70l4 367h-1q-52 -55 -118.5 -118.5t-106.5 -99.5l-40 -36l-27 28l316 316l316 -316l-27 -28q-147 131 -265 254h-1q4 -220 4 -367v-70l-4 -367h1q52 55 118.5 118.5t106.5 99.5l40 36l27 -28z" />
    <glyph glyph-name="arrownorthwest" unicode="&#x2196;" horiz-adv-x="846" 
d="M104 657h507v-41q-27 -1 -71.5 -3t-157 -4t-194.5 -1v-1q239 -232 471 -465l95 -95l-40 -40l-95 95q-104 103 -220.5 221t-180.5 184l-65 66q1 -82 -1 -188t-4 -171l-3 -65h-41v508z" />
    <glyph glyph-name="arrownortheast" unicode="&#x2197;" horiz-adv-x="846" 
d="M741 657v-508h-40q-1 27 -3 72t-4 157.5t-1 194.5h-1q-232 -239 -465 -471l-95 -95l-40 40l95 95q103 104 221 220t184 180l66 65v1q-82 -1 -188 1t-171 5l-65 2v41h507z" />
    <glyph glyph-name="arrowsoutheast" unicode="&#x2198;" horiz-adv-x="846" 
d="M741 19h-507v41q27 1 72 3t157.5 4t194.5 1v1q-239 232 -471 465l-95 95l40 40l95 -95q104 -103 220 -221t181 -184l64 -66h1q-1 82 1 188t4 171l3 65h40v-508z" />
    <glyph glyph-name="arrowsouthwest" unicode="&#x2199;" horiz-adv-x="846" 
d="M104 19v508h41q1 -27 2.5 -72t4 -157.5t1.5 -194.5q233 239 466 471l95 95l40 -40l-95 -95q-103 -104 -221 -220t-184 -180l-66 -65v-1q82 1 187.5 -1t170.5 -5l65 -2v-41h-507z" />
    <glyph glyph-name="partialdiff" unicode="&#x2202;" horiz-adv-x="508" 
d="M42 163q0 41 7.5 83.5t27.5 88t49.5 80.5t78 57.5t109.5 22.5q50 0 79 -9q-22 101 -129 198l41 32q74 -64 115 -138.5t41 -183.5q0 -39 -6.5 -86t-25 -104.5t-46.5 -103t-76.5 -76.5t-108.5 -31q-79 0 -117.5 45t-38.5 125zM104 161q0 -121 105 -121q56 0 97.5 46
t61 112.5t27.5 129t4 106.5q-36 16 -100 16q-53 0 -93 -29.5t-61 -76t-31 -93t-10 -90.5z" />
    <glyph glyph-name="product" unicode="&#x220f;" horiz-adv-x="653" 
d="M699 625h-87l-121 -625h-62l121 625h-301l-121 -625h-61l121 625h-86l10 50h597z" />
    <glyph glyph-name="summation" unicode="&#x2211;" 
d="M400 0h-409l7 39l300 312l-171 280l9 44h383l-10 -49h-310l168 -276l-290 -299h333z" />
    <glyph glyph-name="minus" unicode="&#x2212;" 
d="M459 274h-410l9 47h410z" />
    <glyph glyph-name="uni2215" unicode="&#x2215;" horiz-adv-x="68" 
d="M435 708l-719 -772l-33 22l718 772z" />
    <glyph glyph-name="radical" unicode="&#x221a;" 
d="M498 675h62q-140 -343 -328 -675h-65l-28 448h-95l9 45h143l23 -425q164 317 279 607z" />
    <glyph glyph-name="infinity" unicode="&#x221e;" horiz-adv-x="1000" 
d="M955 346q0 -26 -5.5 -55t-21.5 -63.5t-40.5 -61t-65.5 -44.5t-93 -18q-65 0 -118 40.5t-112 113.5q-87 -74 -154.5 -114t-133.5 -40q-75 0 -113.5 39t-38.5 105q0 26 5.5 55t21.5 63.5t40.5 61t65.5 44.5t93 18q45 0 89 -24.5t73.5 -54t67.5 -76.5q88 74 155 114.5
t133 40.5q75 0 113.5 -39t38.5 -105zM893 339q0 101 -101 101q-52 0 -108 -35.5t-139 -106.5q57 -71 100.5 -107.5t93.5 -36.5q43 0 75.5 20.5t48 51.5t23 59.5t7.5 53.5zM222 154q51 0 108 36t138 106q-37 47 -61.5 73t-60.5 48.5t-71 22.5q-43 0 -75 -20.5t-48 -51.5
t-23 -59.5t-7 -53.5q0 -101 100 -101z" />
    <glyph glyph-name="integral" unicode="&#x222b;" horiz-adv-x="400" 
d="M453 696l-18 -37q-29 12 -55 12q-40 0 -62 -23t-32 -73l-119 -608q-29 -144 -148 -144q-41 0 -79 20l18 37q29 -11 56 -11q40 0 62 22.5t32 72.5l119 609q27 143 148 143q40 0 78 -20z" />
    <glyph glyph-name="uni2236" unicode="&#x2236;" horiz-adv-x="332" 
d="M133 82q-20 0 -28.5 5.5t-8.5 19.5q0 31 14 45q10 10 36 10q20 0 28 -5.5t8 -19.5q0 -32 -13 -45q-11 -10 -36 -10zM213 493q-20 0 -28.5 5.5t-8.5 19.5q0 31 14 45q10 10 36 10q20 0 28 -5.5t8 -19.5q0 -32 -13 -45q-11 -10 -36 -10z" />
    <glyph glyph-name="approxequal" unicode="&#x2248;" 
d="M456 432l19 -32q-63 -59 -121 -59q-42 0 -89.5 28.5t-81.5 28.5q-35 0 -90 -45l-21 33q66 59 121 59q42 0 90 -28.5t82 -28.5q35 0 91 44zM418 240l20 -32q-63 -59 -121 -59q-42 0 -89.5 28.5t-81.5 28.5q-35 0 -92 -45l-19 33q36 32 62.5 45.5t58.5 13.5
q42 0 89.5 -28.5t81.5 -28.5q36 0 91 44z" />
    <glyph glyph-name="notequal" unicode="&#x2260;" 
d="M435 180h-231l-115 -158l-41 21l102 137h-114l8 43h135l108 147h-213l8 44h234l115 157l41 -20l-102 -137h111l-8 -44h-132l-108 -147h210z" />
    <glyph glyph-name="lessequal" unicode="&#x2264;" 
d="M403 0h-408l8 44h408zM435 168l-28 -43l-352 188l7 39l425 187l11 -45l-378 -162z" />
    <glyph glyph-name="greaterequal" unicode="&#x2265;" 
d="M403 0h-408l8 44h408zM463 313l-425 -188l-11 45l378 162l-314 164l28 43l351 -187z" />
    <glyph glyph-name="filledbox" unicode="&#x25a0;" horiz-adv-x="1100" 
d="M907 -101h-855l171 878h855z" />
    <glyph glyph-name="uni25A1" unicode="&#x25a1;" horiz-adv-x="1100" 
d="M923 -109h-889l174 894h889zM880 -64l156 804h-786l-156 -804h786z" />
    <glyph glyph-name="uni25B2" unicode="&#x25b2;" horiz-adv-x="800" 
d="M400 693l272 -651h-544z" />
    <glyph glyph-name="uni25B3" unicode="&#x25b3;" horiz-adv-x="800" 
d="M681 36h-562l281 673zM608 84l-208 499l-208 -499h416z" />
    <glyph glyph-name="uni25B6" unicode="&#x25b6;" horiz-adv-x="811" 
d="M760 338l-651 -272v544z" />
    <glyph glyph-name="uni25B7" unicode="&#x25b7;" horiz-adv-x="811" 
d="M776 338l-673 -281v562zM152 546v-416l498 208z" />
    <glyph glyph-name="uni25BC" unicode="&#x25bc;" horiz-adv-x="800" 
d="M672 634l-272 -651l-272 651h544z" />
    <glyph glyph-name="uni25BD" unicode="&#x25bd;" horiz-adv-x="800" 
d="M681 640l-281 -673l-281 673h562zM192 592l208 -499l208 499h-416z" />
    <glyph glyph-name="uni25C0" unicode="&#x25c0;" horiz-adv-x="811" 
d="M702 610v-544l-651 272z" />
    <glyph glyph-name="uni25C1" unicode="&#x25c1;" horiz-adv-x="811" 
d="M708 619v-562l-673 281zM161 338l498 -208v416z" />
    <glyph glyph-name="lozenge" unicode="&#x25ca;" 
d="M485 341l-260 -341h-55l-126 334l262 341h54zM426 339l-106 280l-216 -283l106 -280z" />
    <glyph glyph-name="circle" unicode="&#x25cb;" horiz-adv-x="1100" 
d="M1050 471q0 -117 -41 -244.5t-130 -215.5q-149 -150 -406 -150q-203 0 -298 93.5t-95 250.5q0 117 41 244.5t130 215.5q149 150 406 150q203 0 298 -93.5t95 -250.5zM997 470q0 300 -348 300q-227 0 -360 -133q-59 -59 -96 -146t-48.5 -155t-11.5 -130q0 -300 348 -300
q227 0 360 133q59 59 96 146t48.5 155t11.5 130z" />
    <glyph glyph-name="uni25CF" unicode="&#x25cf;" horiz-adv-x="1100" 
d="M1039 468q0 -114 -40 -238.5t-127 -211.5q-146 -146 -395 -146q-199 0 -293 91.5t-94 244.5q0 114 40 239t127 211q146 146 395 146q199 0 293 -91.5t94 -244.5z" />
    <glyph glyph-name="uniE1C2" unicode="&#xe1c2;" horiz-adv-x="1100" 
d="M650 57h73l-207 302l293 262h-73l-274 -253h-1l50 253h-60l-110 -564h60l55 282h1zM1039 468q0 -114 -40 -238.5t-127 -211.5q-146 -146 -395 -146q-199 0 -293 91.5t-94 244.5q0 114 40 239t127 211q146 146 395 146q199 0 293 -91.5t94 -244.5z" />
    <glyph glyph-name="uniE1C3" unicode="&#xe1c3;" horiz-adv-x="1100" 
d="M1039 468q0 -114 -40 -238.5t-127 -211.5q-146 -146 -395 -146q-199 0 -293 91.5t-94 244.5q0 114 40 239t127 211q146 146 395 146q199 0 293 -91.5t94 -244.5zM355 76h307l8 46h-113l62 323h-183l-8 -45h122l-54 -278h-133zM605 534q28 0 38 10q6 5 10.5 23.5t4.5 29.5
q0 23 -41 23q-28 0 -38 -10q-6 -6 -10.5 -24.5t-4.5 -29.5q0 -22 41 -22z" />
    <glyph glyph-name="uniE1C4" unicode="&#xe1c4;" horiz-adv-x="1100" 
d="M720 57h-73l-193 282h-1l-55 -282h-60l110 564h60l-50 -253h1l274 253h73l-293 -262zM1050 471q0 -117 -41 -244.5t-130 -215.5q-149 -150 -406 -150q-203 0 -298 93.5t-95 250.5q0 117 41 244.5t130 215.5q149 150 406 150q203 0 298 -93.5t95 -250.5zM997 470
q0 300 -348 300q-227 0 -360 -133q-59 -59 -96 -146t-48.5 -155t-11.5 -130q0 -300 348 -300q227 0 360 133q59 59 96 146t48.5 155t11.5 130z" />
    <glyph glyph-name="apple" unicode="&#xf8ff;" horiz-adv-x="1000" 
d="M768 403q0 -109 -74 -185v-85l-18 -5l35 -81l-33 -9l33 -78l-34 -9l12 -28l-33 -74h-57q-3 -22 -31 -35.5t-67 -13.5q-40 0 -68 14t-31 35h-57l-56 134l34 10l-34 82l37 9l-20 50v85q-74 77 -74 184q0 111 78.5 189.5t190.5 78.5q110 0 188.5 -78.5t78.5 -189.5zM710 403
q0 87 -61.5 148.5t-147.5 61.5q-87 0 -149 -61.5t-62 -148.5q0 -98 74 -159h64l-18 148q-14 -3 -41 -13q-10 -3 -15 9.5t-2.5 27t9.5 16.5q69 22 140 22q68 0 141 -22q6 -2 8 -16.5t-2.5 -27t-14.5 -9.5q-32 11 -43 13l-17 -148h64q73 62 73 159zM641 -15l-16 40l-265 -68
l27 -67h227l15 35l-7 14l-81 -21l-14 38zM637 163v34h-274v-59l17 -41zM548 400q-28 2 -44 2q-37 0 -52 -2l16 -156h65zM641 73l-18 43l-264 -68l18 -42zM531 884l-9 -147q-22 3 -44 0l-9 147q4 0 14.5 0.5t16.5 0.5q22 0 31 -1zM166 381l-121 -8q-3 31 0 61l121 -9v-13.5
v-16.5v-14zM955 373l-121 8q2 24 0 44l121 9q3 -31 0 -61zM843 704l-91 -80q-13 15 -32 31l81 91q23 -19 42 -42zM280 655q-18 -14 -32 -31l-91 80q21 24 42 42zM504 425l1 4q-1 -1 -2 -3q0 -2 1 -1zM496 427l1 2h-1l-1 -2h-1l1 2h-1l-1 -2q-1 -1 0 -2q1 1 3 2zM489 425h2v1
h-1l2 5h-1l-2 -5q-1 -1 0 -1zM499 426l-1 2l2 1q-1 2 -2 0q-2 -3 -1 -4q0 -1 2 1zM509 429q-3 1 -3 0v-2q1 -1 1 -1.5t-2 -0.5q4 -1 2 2v1.5t2 0.5zM507 423q6 4 3 9q0 -4 -3 -9zM503 432q-6 -4 -3 -9q0 5 3 9z" />
    <glyph glyph-name="s_t" unicode="&#xfb06;" horiz-adv-x="719" 
d="M641 57l4 -37q-61 -27 -106 -27q-48 0 -71 19.5t-23 62.5q0 21 7 59l61 316h-86l9 43h86l6 33q14 73 -7 105.5t-78 32.5q-60 0 -96 -36.5t-36 -89.5q0 -44 40 -63l-16 -35q-43 16 -87 16q-51 0 -84 -25t-33 -71q0 -27 20 -46t48.5 -31.5t57 -26.5t48.5 -40.5t20 -64.5
q0 -70 -52.5 -114t-138.5 -44q-76 0 -133 32l15 36q59 -22 114 -22q59 0 95.5 27t36.5 77q0 28 -20 48t-48.5 33t-57 27t-48.5 39.5t-20 61.5q0 64 48 106t127 42l40 -4q-19 15 -19 51q0 63 51 112.5t137 49.5q168 0 134 -181l-6 -35h144l-9 -43h-144l-59 -303
q-8 -45 -8 -62q0 -25 12 -35.5t41 -10.5q31 0 84 18z" />
    <glyph glyph-name="uniFEFF" unicode="&#xfeff;" horiz-adv-x="0" 
 />
    <glyph glyph-name="u1F137" unicode="&#x1f137;" horiz-adv-x="1100" 
d="M714 57h-60l53 270h-299l-52 -270h-60l109 564h60l-48 -242h299l48 242h59zM923 -109h-889l174 894h889zM880 -64l156 804h-786l-156 -804h786z" />
    <glyph glyph-name="u1F13F" unicode="&#x1f13f;" horiz-adv-x="1100" 
d="M785 490q0 -29 -6.5 -57t-25.5 -59t-48 -54.5t-78 -38.5t-112 -15h-66l-40 -209h-59l109 564q16 0 59.5 0.5t78.5 0.5q103 0 145.5 -34t42.5 -98zM722 483q0 48 -29 70.5t-107 22.5h-76l-51 -263h64q50 0 87.5 12t58 30t33.5 42.5t16.5 44.5t3.5 41zM923 -109h-889
l174 894h889zM880 -64l156 804h-786l-156 -804h786z" />
    <glyph glyph-name="u1F177" unicode="&#x1f177;" horiz-adv-x="1100" 
d="M659 57h60l109 564h-59l-48 -242h-299l48 242h-60l-109 -564h60l52 270h299zM907 -101h-855l171 878h855z" />
    <glyph glyph-name="u1F17F" unicode="&#x1f17f;" horiz-adv-x="1100" 
d="M907 -101h-855l171 878h855zM801 490q0 64 -43 98t-146 34q-35 0 -78 -0.5t-59 -0.5l-110 -564h60l40 209h65q63 0 112.5 15t78.5 38.5t47.5 54.5t25.5 59t7 57zM738 483q0 -27 -7.5 -52.5t-26.5 -54t-62 -46t-104 -17.5h-64l51 263h76q79 0 108 -22.5t29 -70.5z" />
    <glyph glyph-name="U1F6C8" unicode="&#x1f6c8;" horiz-adv-x="1100" 
d="M1050 471q0 -117 -41 -244.5t-130 -215.5q-149 -150 -406 -150q-203 0 -298 93.5t-95 250.5q0 117 41 244.5t130 215.5q149 150 406 150q203 0 298 -93.5t95 -250.5zM997 470q0 300 -348 300q-227 0 -360 -133q-59 -59 -96 -146t-48.5 -155t-11.5 -130q0 -300 348 -300
q227 0 360 133q59 59 96 146t48.5 155t11.5 130zM665 76h-307l8 45h133l54 278h-122l8 46h183l-62 -324h113zM608 534q-41 0 -41 22q0 11 4.5 29.5t10.5 24.5q10 9 38 9q41 0 41 -22q0 -11 -4.5 -29.5t-10.5 -24.5q-10 -9 -38 -9z" />
    <glyph glyph-name="L_a_t_n_C_a_p_s" horiz-adv-x="903" 
d="M203 500h-151v337h30v-312h121v-25zM410 500h-22l-4 29q-40 -33 -78 -33q-69 0 -69 65q0 82 123 82h21v29q0 55 -60 55q-27 0 -67 -14l-5 19q40 18 81 18q80 0 80 -73v-177zM381 550v72h-25q-51 0 -70.5 -15t-19.5 -41q0 -22 12.5 -34.5t34.5 -12.5q34 0 68 31zM607 529
l5 -19q-26 -13 -53 -13q-30 0 -42 14.5t-12 51.5v162h-43v21h43q6 44 8 70h21v-70h71v-21h-71v-154q0 -30 6 -40.5t26 -10.5t41 9zM849 500h-29q0 22 0.5 68.5t0.5 64.5q0 93 -52 93q-29 0 -67 -33v-193h-30v246h25l2 -30q41 34 79 34q73 0 73 -109q0 -16 -1 -66.5t-1 -74.5
zM196 61l14 -16q-39 -49 -96 -49q-54 0 -84 43t-30 125t33 129.5t87 47.5q57 0 84 -55l-16 -12q-24 41 -67 41q-44 0 -66 -42.5t-22 -101.5q0 -149 88 -149q40 0 75 39zM427 0h-23l-4 29q-40 -33 -78 -33q-33 0 -51 17.5t-18 47.5q0 82 123 82h22v29q0 55 -61 55
q-27 0 -67 -14l-5 19q40 18 81 18q81 0 81 -73v-177zM398 50v72h-26q-90 0 -90 -56q0 -22 12.5 -34.5t34.5 -12.5q34 0 69 31zM548 -87h-29v333h23l3 -28q40 32 74 32q36 0 58.5 -33t22.5 -85q0 -68 -32.5 -102t-84.5 -34q-11 0 -35 2v-85zM548 194v-168q18 -7 42 -7
q35 0 57 27t22 79q0 45 -15.5 73t-42.5 28q-30 0 -63 -32zM751 12l5 18q36 -11 60 -11q27 0 41.5 12t14.5 32q0 21 -19 34.5t-41 19t-41 23t-19 45.5t21.5 46.5t55.5 18.5q28 0 55 -12l-6 -18q-20 7 -45 7q-24 0 -37 -11t-13 -28q0 -21 18.5 -34.5t41.5 -19.5t41.5 -23
t18.5 -45q0 -31 -22.5 -50t-61.5 -19q-33 0 -68 15z" />
    <glyph glyph-name="IJ.alt1" horiz-adv-x="527" 
d="M110 0h-61l131 675h61zM509 675l-88 -450q-14 -74 -47 -129t-93 -105l-33 28q88 81 114 215l86 441h61z" />
    <glyph glyph-name="IJ.alt2" horiz-adv-x="527" 
d="M110 0h-61l131 675h61zM509 675l-118 -609q-11 -56 -26 -93.5t-43 -70t-73 -52t-111 -27.5l-1 40q95 17 134 61.5t58 142.5l119 608h61z" />
    <glyph glyph-name="J.alt1" horiz-adv-x="268" 
d="M250 675l-88 -450q-14 -74 -47 -129t-93 -105l-33 28q88 81 114 215l86 441h61z" />
    <glyph glyph-name="J.alt2" horiz-adv-x="268" 
d="M250 675l-118 -609q-11 -56 -26 -93.5t-43 -70t-73 -52t-111 -27.5l-1 40q95 17 134 61.5t58 142.5l119 608h61z" />
    <glyph glyph-name="Jcircumflex.alt2" horiz-adv-x="268" 
d="M250 675l-118 -609q-11 -56 -26 -93.5t-43 -70t-73 -52t-111 -27.5l-1 40q95 17 134 61.5t58 142.5l119 608h61zM252 852l124 -91l-23 -30l-109 66l-135 -66l-14 30z" />
    <glyph glyph-name="Jcircumflex.alt1" horiz-adv-x="268" 
d="M250 675l-88 -450q-14 -74 -47 -129t-93 -105l-33 28q88 81 114 215l86 441h61zM252 852l124 -91l-23 -30l-109 66l-135 -66l-14 30z" />
    <glyph glyph-name="L_a_t_n_L_o_w_e_r" horiz-adv-x="1167" 
d="M386 128q0 -66 -28.5 -99t-78.5 -33q-94 0 -94 122q0 66 28 99t77 33q45 0 70.5 -30.5t25.5 -91.5zM524 500h-23l-3 29q-42 -33 -79 -33q-33 0 -51 17.5t-18 47.5q0 82 124 82h21v29q0 55 -60 55q-26 0 -68 -14l-5 19q40 18 82 18q80 0 80 -73v-177zM977 121h-150v-5
q0 -96 74 -96q33 0 69 15l7 -18q-40 -21 -84 -21q-96 0 -96 120q0 64 25.5 99t71.5 35q90 0 83 -129zM721 246h30q-27 -128 -75 -246h-28l-54 177l-8 29l-7 -29l-47 -177h-31l-77 246h31l50 -165l13 -45l9 36l46 174h29l55 -179l9 -30q39 115 55 209zM355 117q0 58 -17 84
t-54 26q-32 0 -50.5 -25t-18.5 -73q0 -58 17 -84t53 -26q32 0 51 25t19 73zM962 500h-28q0 22 0.5 68.5t0.5 64.5q0 93 -53 93q-29 0 -67 -33v-193h-29v246h24l3 -30q39 34 79 34q72 0 72 -109q0 -16 -1 -66.5t-1 -74.5zM152 0h-152v337h31v-312h121v-25zM316 500h-151v337
h31v-312h120v-25zM721 529l5 -19q-27 -13 -53 -13q-31 0 -43 14.5t-12 51.5v162h-42v21h42q3 14 9 70h20v-70h72v-21h-72v-154q0 -29 6.5 -40t26.5 -11t41 9zM495 550v72h-25q-91 0 -91 -56q0 -47 48 -47q33 0 68 31zM1167 244l-4 -28q-11 4 -18 4q-22 0 -60 -48v-172h-29
v246h24l3 -46q41 50 65 50q7 0 19 -6zM827 143h121v2q0 83 -57 83q-29 0 -45.5 -23.5t-18.5 -61.5z" />
    <glyph glyph-name="c_h" horiz-adv-x="934" 
d="M793 0h-57q12 61 26.5 131.5t21.5 103.5t12 66.5t5 54.5q0 96 -73 96q-56 0 -111.5 -72t-76.5 -178l-39 -202h-58l129 665q-26 6 -64 6q-44 0 -75.5 -13t-46.5 -34.5t-21.5 -41t-6.5 -38.5q0 -48 48 -95l-27 -34q-38 39 -93 39q-47 0 -83.5 -32t-56.5 -79.5t-30 -94.5
t-10 -86q0 -122 100 -122q54 0 121 56l20 -31q-82 -72 -156 -72q-70 0 -108 41.5t-38 123.5q0 39 8 83t27 90.5t46 83.5t69 61t92 24q27 0 42 -11q-18 20 -18 61q0 29 11 56t34.5 53t68.5 41.5t107 15.5q21 0 47.5 -2t42.5 -4l17 -3l-49 -250l-23 -90q31 57 77.5 95
t101.5 38q114 0 114 -131q0 -34 -7.5 -77t-27 -132.5t-32.5 -159.5z" />
    <glyph glyph-name="c_k" horiz-adv-x="844" 
d="M774 0h-68l-152 264h-1l-51 -264h-58l128 665q-26 6 -64 6q-44 0 -75.5 -13t-46.5 -34.5t-21.5 -41t-6.5 -38.5q0 -48 48 -95l-27 -34q-38 39 -93 39q-47 0 -83.5 -32t-56.5 -79.5t-30 -94.5t-10 -86q0 -122 100 -122q54 0 121 56l20 -31q-82 -72 -156 -72
q-70 0 -108 41.5t-38 123.5q0 39 8 83t27 90.5t46 83.5t69 61t92 24q27 0 42 -11q-18 20 -18 61q0 29 11 56t34.5 53t68.5 41.5t107 15.5q21 0 47.5 -2t42.5 -4l17 -3l-83 -421h2l213 207h77l-237 -215z" />
    <glyph glyph-name="c_t" horiz-adv-x="764" 
d="M760 450h-143l-59 -303q-9 -42 -9 -62q0 -25 12 -35.5t40 -10.5q31 0 84 18l7 -36q-62 -28 -109 -28q-48 0 -70.5 19.5t-22.5 62.5q0 21 7 59l61 316h-85l8 43h86l6 33q15 74 -6 106t-79 32t-94 -35t-36 -86q0 -47 48 -94l-27 -33q-37 38 -90 38q-50 0 -88 -32.5
t-57 -81.5t-28.5 -94.5t-9.5 -83.5q0 -122 101 -122q64 0 131 57l20 -31q-81 -73 -165 -73q-72 0 -110 41.5t-38 123.5q0 51 14 107.5t41.5 110.5t77 89t111.5 35q24 0 39 -10q-18 22 -18 57q0 69 53 115.5t138 46.5q164 0 131 -181l-7 -35h144z" />
    <glyph glyph-name="ccedilla_t" horiz-adv-x="764" 
d="M760 450h-143l-59 -303q-9 -42 -9 -62q0 -25 12 -35.5t40 -10.5q31 0 84 18l7 -36q-62 -28 -109 -28q-48 0 -70.5 19.5t-22.5 62.5q0 21 7 59l61 316h-85l8 43h86l6 33q15 74 -6 106t-79 32t-94 -35t-36 -86q0 -47 48 -94l-27 -33q-37 38 -90 38q-50 0 -88 -32.5
t-57 -81.5t-28.5 -94.5t-9.5 -83.5q0 -122 101 -122q64 0 131 57l20 -31q-81 -73 -165 -73q-72 0 -110 41.5t-38 123.5q0 51 14 107.5t41.5 110.5t77 89t111.5 35q24 0 39 -10q-18 22 -18 57q0 69 53 115.5t138 46.5q164 0 131 -181l-7 -35h144zM146 -44h53q-4 -78 -89 -133
l-28 22q32 26 46 49.5t18 61.5z" />
    <glyph glyph-name="i.dotaccent" horiz-adv-x="243" 
d="M100 0h-58l96 493h58zM190 603q-35 0 -35 20q0 32 12 46q8 8 33 8q35 0 35 -20q0 -32 -12 -46q-8 -8 -33 -8z" />
    <glyph glyph-name="ij.alt1" horiz-adv-x="534" 
d="M487 493l-93 -478q-21 -110 -73.5 -151t-141.5 -41q-69 0 -140 26l13 36q82 -15 132 -15q65 0 99.5 28.5t48.5 96.5l8 39q15 63 23 92h-1q-30 -56 -77 -94t-101 -38q-114 0 -114 132q0 33 7.5 76t27 132t32.5 159h57q-12 -62 -26.5 -131.5t-21.5 -103t-12 -66t-5 -53.5
q0 -96 73 -96q56 0 111.5 71t75.5 175l40 204h58zM192 603q-35 0 -35 20q0 33 13 46q8 8 33 8q35 0 35 -20q0 -33 -13 -46q-8 -8 -33 -8zM479 603q-35 0 -35 20q0 33 13 46q8 8 33 8q35 0 35 -20q0 -33 -13 -46q-8 -8 -33 -8z" />
    <glyph glyph-name="i_j" horiz-adv-x="534" 
d="M487 493l-93 -478q-21 -110 -73.5 -151t-141.5 -41q-69 0 -140 26l13 36q82 -15 132 -15q65 0 99.5 28.5t48.5 96.5l8 39q15 63 23 92h-1q-30 -56 -77 -94t-101 -38q-114 0 -114 132q0 33 7.5 76t27 132t32.5 159h57q-12 -62 -26.5 -131.5t-21.5 -103t-12 -66t-5 -53.5
q0 -96 73 -96q56 0 111.5 71t75.5 175l40 204h58zM192 603q-35 0 -35 20q0 33 13 46q8 8 33 8q35 0 35 -20q0 -33 -13 -46q-8 -8 -33 -8zM479 603q-35 0 -35 20q0 33 13 46q8 8 33 8q35 0 35 -20q0 -33 -13 -46q-8 -8 -33 -8z" />
    <glyph glyph-name="scedilla_t" horiz-adv-x="719" 
d="M641 57l4 -37q-61 -27 -106 -27q-48 0 -71 19.5t-23 62.5q0 21 7 59l61 316h-86l9 43h86l6 33q14 73 -7 105.5t-78 32.5q-60 0 -96 -36.5t-36 -89.5q0 -44 40 -63l-16 -35q-43 16 -87 16q-51 0 -84 -25t-33 -71q0 -27 20 -46t48.5 -31.5t57 -26.5t48.5 -40.5t20 -64.5
q0 -70 -52.5 -114t-138.5 -44q-76 0 -133 32l15 36q59 -22 114 -22q59 0 95.5 27t36.5 77q0 28 -20 48t-48.5 33t-57 27t-48.5 39.5t-20 61.5q0 64 48 106t127 42l40 -4q-19 15 -19 51q0 63 51 112.5t137 49.5q168 0 134 -181l-6 -35h144l-9 -43h-144l-59 -303
q-8 -45 -8 -62q0 -25 12 -35.5t41 -10.5q31 0 84 18zM101 -44h53q-4 -78 -89 -133l-28 22q32 26 46 49.5t18 61.5z" />
    <glyph glyph-name="scommaaccent_t" horiz-adv-x="719" 
d="M641 57l4 -37q-61 -27 -106 -27q-48 0 -71 19.5t-23 62.5q0 21 7 59l61 316h-86l9 43h86l6 33q14 73 -7 105.5t-78 32.5q-60 0 -96 -36.5t-36 -89.5q0 -44 40 -63l-16 -35q-43 16 -87 16q-51 0 -84 -25t-33 -71q0 -27 20 -46t48.5 -31.5t57 -26.5t48.5 -40.5t20 -64.5
q0 -70 -52.5 -114t-138.5 -44q-76 0 -133 32l15 36q59 -22 114 -22q59 0 95.5 27t36.5 77q0 28 -20 48t-48.5 33t-57 27t-48.5 39.5t-20 61.5q0 64 48 106t127 42l40 -4q-19 15 -19 51q0 63 51 112.5t137 49.5q168 0 134 -181l-6 -35h144l-9 -43h-144l-59 -303
q-8 -45 -8 -62q0 -25 12 -35.5t41 -10.5q31 0 84 18zM129 -40q29 0 29 -27q0 -66 -104 -109l-11 24q56 29 56 54q0 3 -2.5 10t-2.5 17q0 31 35 31z" />
    <glyph glyph-name="grave.cap" horiz-adv-x="353" 
d="M370 761l-23 -30l-161 76l36 45z" />
    <glyph glyph-name="acute.cap" horiz-adv-x="353" 
d="M378 803l-185 -72l-15 33l177 88z" />
    <glyph glyph-name="circumflex.cap" horiz-adv-x="443" 
d="M335 852l124 -91l-23 -30l-109 66l-135 -66l-14 30z" />
    <glyph glyph-name="caron.cap" horiz-adv-x="443" 
d="M315 731l-125 92l23 29l109 -65l136 65l13 -31z" />
    <glyph glyph-name="uni0315.cap" horiz-adv-x="250" 
d="M261 734l-84 -166l-35 9l68 169z" />
    <glyph glyph-name="tilde.cap" horiz-adv-x="490" 
d="M483 834l29 -20q-29 -44 -51.5 -60.5t-55.5 -16.5q-27 0 -49.5 14.5t-40.5 28.5t-34 14q-17 0 -30.5 -11t-39.5 -43l-29 20q29 44 51.5 60.5t55.5 16.5q35 0 71 -29t53 -29q16 0 30 11t40 44z" />
    <glyph glyph-name="dieresis.cap" horiz-adv-x="429" 
d="M449 790q0 -28 -10 -38q-9 -9 -32 -9q-17 0 -24 4.5t-7 16.5q0 28 10 38q9 9 32 9q31 0 31 -21zM253 790q0 -28 -10 -38q-9 -9 -32 -9q-31 0 -31 21q0 28 10 38q9 9 32 9q31 0 31 -21z" />
    <glyph glyph-name="dieresis.cap.narrow" horiz-adv-x="371" 
d="M392 790q0 -26 -10 -38q-9 -9 -32 -9q-17 0 -23.5 4.5t-6.5 16.5q0 28 10 38q9 9 31 9q31 0 31 -21zM252 790q0 -28 -10 -38q-9 -9 -31 -9q-17 0 -23.5 4.5t-6.5 16.5q0 28 10 38q9 9 31 9q17 0 23.5 -4.5t6.5 -16.5z" />
    <glyph glyph-name="dieresis.narrow" horiz-adv-x="384" 
d="M379 654q0 -28 -11 -39q-9 -9 -32 -9q-30 0 -30 22q0 29 11 38q9 9 31 9q31 0 31 -21zM226 654q0 -28 -11 -39q-9 -9 -31 -9q-31 0 -31 22q0 29 11 38q9 9 32 9q16 0 23 -4.5t7 -16.5z" />
    <glyph glyph-name="macron.cap" horiz-adv-x="426" 
d="M441 755h-264l8 44h264z" />
    <glyph glyph-name="breve.cap" horiz-adv-x="417" 
d="M412 850h39q-11 -57 -52.5 -90.5t-96.5 -33.5q-62 0 -89.5 35t-16.5 89h38q-6 -34 12.5 -56t59.5 -22q43 0 71 22t35 56z" />
    <glyph glyph-name="ring.cap" horiz-adv-x="347" 
d="M258 693q-79 0 -79 59q0 41 27.5 70.5t80.5 29.5q80 0 80 -59q0 -41 -28 -70.5t-81 -29.5zM320 789q0 28 -40 28q-54 0 -54 -61q0 -28 39 -28q29 0 42 18t13 43z" />
    <glyph glyph-name="ring.big" horiz-adv-x="293" 
d="M337 754q0 -44 -27.5 -73t-78.5 -29q-84 0 -84 63q0 42 28 71.5t80 29.5q82 0 82 -62zM289 750q0 14 -7.5 21.5t-30.5 7.5q-56 0 -56 -59q0 -16 7.5 -23.5t31.5 -7.5q55 0 55 61z" />
    <glyph glyph-name="ringacute.cap" horiz-adv-x="348" 
d="M229 844l142 41l12 -34l-148 -30zM254 692q-40 0 -59 14t-19 36q0 29 25.5 45t66.5 16q40 0 59 -14t19 -36q0 -29 -25.5 -45t-66.5 -16zM301 749q0 26 -38 26q-42 0 -42 -29q0 -26 38 -26q42 0 42 29z" />
    <glyph glyph-name="ringacute" horiz-adv-x="364" 
d="M240 779l117 106l41 -33l-131 -94zM228 549q-78 0 -78 64q0 37 29.5 66t79.5 29q38 0 58 -17t20 -47q0 -38 -29 -66.5t-80 -28.5zM290 642q0 31 -36 31q-57 0 -57 -58q0 -31 36 -31q57 0 57 58z" />
    <glyph glyph-name="hungarumlaut.cap" horiz-adv-x="526" 
d="M553 813l-181 -86l-18 23l171 102zM370 824l-175 -99l-19 22l162 113z" />
    <glyph glyph-name="dotaccent.cap" horiz-adv-x="238" 
d="M214 743q-19 0 -26 4.5t-7 14.5q0 32 12 42q8 8 33 8q19 0 26 -4.5t7 -14.5q0 -30 -12 -42q-8 -8 -33 -8z" />
    <glyph glyph-name="dotaccent.i" horiz-adv-x="238" 
d="M187 603q-35 0 -35 20q0 33 13 46q8 8 33 8q35 0 35 -20q0 -33 -13 -46q-8 -8 -33 -8z" />
    <glyph glyph-name="dotaccent.asc" horiz-adv-x="238" 
d="M222 789q-20 0 -27 4t-7 14q0 30 12 42q8 8 34 8q20 0 27 -4t7 -15q0 -29 -13 -42q-7 -7 -33 -7z" />
    <glyph glyph-name="exclamdown.cap" horiz-adv-x="371" 
d="M67 0l118 538h47l-93 -538h-72zM236 681q21 0 29 -5.5t8 -20.5q0 -33 -13 -44q-11 -11 -37 -11q-21 0 -29 5.5t-8 20.5q0 33 13 44q10 11 37 11z" />
    <glyph glyph-name="questiondown.cap" 
d="M52 117q0 45 20.5 83.5t51 66.5t62.5 55t59 63.5t36 77.5l16 75h47l-14 -89q-6 -39 -30 -75.5t-54 -64t-59 -55t-49 -59.5t-20 -66q0 -42 27 -65t78 -23q63 0 136 21l5 -38q-86 -31 -155 -31q-79 0 -118 34t-39 90zM344 681q21 0 29 -5.5t8 -20.5q0 -33 -13 -44
q-10 -11 -37 -11q-21 0 -29 5.5t-8 20.5q0 33 13 44q11 11 37 11z" />
    <glyph glyph-name="guilsinglleft.cap" horiz-adv-x="302" 
d="M201 174l-41 -15l-84 189l154 185l37 -18l-125 -170z" />
    <glyph glyph-name="guilsinglright.cap" horiz-adv-x="302" 
d="M137 518l40 15l84 -188l-154 -186l-37 18l126 171z" />
    <glyph glyph-name="guillemotleft.cap" horiz-adv-x="502" 
d="M197 174l-40 -15l-84 187l154 187l36 -18l-125 -169zM389 179l-38 -15l-83 182l151 182l35 -18l-121 -164z" />
    <glyph glyph-name="guillemotright.cap" horiz-adv-x="502" 
d="M341 518l38 15l86 -187l-156 -187l-35 18l126 169zM147 513l39 15l83 -182l-151 -182l-36 18l123 164z" />
    <glyph glyph-name="bar.cap" horiz-adv-x="251" 
d="M78 -123h-55l180 926h55z" />
    <glyph glyph-name="brokenbar.cap" horiz-adv-x="251" 
d="M77 -123h-51l71 369h51zM182 418h-51l75 388h51z" />
    <glyph glyph-name="hyphen.cap" horiz-adv-x="231" 
d="M242 320h-196l9 48h196z" />
    <glyph glyph-name="endash.cap" 
d="M467 322h-408l9 47h409z" />
    <glyph glyph-name="emdash.cap" horiz-adv-x="1000" 
d="M854 322h-683l8 47h684z" />
    <glyph glyph-name="uni2015.cap" horiz-adv-x="1000" 
d="M854 322h-683l8 47h684z" />
    <glyph glyph-name="periodcentered.cap" horiz-adv-x="255" 
d="M139 305q-21 0 -29 5t-8 19q0 33 13 48q11 10 37 10q20 0 28.5 -5t8.5 -19q0 -34 -14 -48q-9 -10 -36 -10z" />
    <glyph glyph-name="parenleft.cap" horiz-adv-x="310" 
d="M183 -105l-41 -16q-57 125 -57 289q0 157 60 315t169 291l36 -18q-97 -137 -151.5 -292.5t-54.5 -308.5q0 -134 39 -260z" />
    <glyph glyph-name="parenright.cap" horiz-adv-x="310" 
d="M155 759l41 16q56 -123 56 -288q0 -152 -57 -309.5t-171 -297.5l-36 18q206 292 206 599q0 136 -39 262z" />
    <glyph glyph-name="bracketleft.cap" horiz-adv-x="351" 
d="M208 -123h-152l177 912h152l-8 -42h-98l-161 -828h98z" />
    <glyph glyph-name="bracketright.cap" horiz-adv-x="351" 
d="M147 -123h-152l8 42h98l161 828h-98l8 42h152z" />
    <glyph glyph-name="braceleft.cap" horiz-adv-x="388" 
d="M227 -123h-32q-61 0 -80 30t-8 90l42 213q20 105 -61 105h-20l9 46h20q82 0 100 101l40 208q23 119 140 119h28l-8 -39h-24q-31 0 -52 -21t-29 -58l-35 -178q-29 -148 -126 -154q94 -8 65 -157l-36 -187q-8 -45 3 -62t49 -17h23z" />
    <glyph glyph-name="braceright.cap" horiz-adv-x="388" 
d="M190 789h31q62 0 80.5 -31t7.5 -89l-40 -203q-20 -105 61 -105h20l-8 -46h-21q-81 0 -101 -101l-41 -218q-23 -119 -140 -119h-27l8 39h24q31 0 52 21t28 58l36 187q28 149 127 155q-95 8 -66 157l35 177q8 44 -3 61.5t-48 17.5h-24z" />
    <glyph glyph-name="at.cap" horiz-adv-x="1001" 
d="M919 525q0 -103 -40 -189.5t-121 -141.5t-187 -55h-34l31 113q-34 -51 -79.5 -85t-93.5 -34q-103 0 -103 113q0 53 17 106t49 99.5t88 75.5t126 29q76 0 135 -16l-109 -355q119 0 191.5 96.5t72.5 234.5q0 105 -57 157.5t-188 52.5q-112 0 -204.5 -47t-151 -123.5
t-90.5 -170t-32 -191.5q0 -126 62.5 -187.5t213.5 -61.5q129 0 258 54l8 -38q-132 -59 -275 -59q-167 0 -245.5 70.5t-78.5 210.5q0 112 37.5 216.5t105.5 187t173 132.5t229 50q148 0 220 -64.5t72 -179.5zM355 253q0 -72 61 -72q47 0 104.5 63.5t85.5 154.5l31 102
q-43 10 -80 10q-52 0 -92.5 -25t-63.5 -64.5t-34.5 -83t-11.5 -85.5z" />
    <glyph glyph-name="Euro.fitted" horiz-adv-x="566" 
d="M455 119l23 -31q-48 -47 -97.5 -71t-113.5 -24q-100 0 -149 66.5t-39 192.5h-68l7 41h65q9 52 21 94h-67l8 41h72q37 118 114 186t171 68q128 0 161 -108l-34 -24q-17 44 -46 64t-82 20q-79 0 -136.5 -58.5t-85.5 -147.5h206l-9 -41h-209q-12 -43 -19 -94h210l-8 -41
h-206q-10 -103 25.5 -157t114.5 -54q88 0 171 78z" />
    <glyph glyph-name="dollar.slashed.oldstyle" horiz-adv-x="534" 
d="M141 10q-66 11 -120 45l22 38q44 -27 114 -38l92 265q-63 31 -97.5 64t-34.5 86q0 75 61 129t171 54q3 0 8 -0.5t8 -0.5l41 104h38l-34 -108q62 -10 108 -36l-19 -36q-47 21 -105 28l-85 -244q36 -16 57 -27.5t46.5 -31t37.5 -45t12 -56.5q0 -86 -69 -141t-186 -55h-22
l-42 -109h-38zM401 190q0 37 -28.5 61t-83.5 50l-88 -250h9q95 0 143 41t48 98zM178 481q0 -34 23.5 -57.5t68.5 -45.5l79 229h-1q-85 0 -127.5 -37.5t-42.5 -88.5z" />
    <glyph glyph-name="cent.fitted" horiz-adv-x="452" 
d="M365 206l21 -31q-68 -58 -142 -66l-28 -110h-38l16 109q-67 7 -97.5 49.5t-30.5 106.5q0 45 12 92.5t36.5 93.5t68.5 78.5t101 40.5l26 107h38l-15 -108q62 -6 102 -57l-26 -31q-45 45 -98 45q-83 0 -133 -77.5t-50 -173.5q0 -120 103 -120q67 0 134 52z" />
    <glyph glyph-name="cent.slashed.oldstyle" horiz-adv-x="493" 
d="M406 204l15 -32q-98 -75 -204 -63l-42 -109h-38l36 115q-105 30 -105 155q0 122 70.5 210t194.5 90l40 105h38l-34 -110q66 -11 105 -55l-26 -30q-45 36 -94 43l-129 -367q86 -11 173 48zM127 277q0 -86 64 -112l126 359q-87 -6 -138.5 -77.5t-51.5 -169.5z" />
    <glyph glyph-name="sterling.fitted" horiz-adv-x="440" 
d="M363 0h-379l9 42q75 63 106.5 124.5t32.5 150.5h-94l8 45h86q0 2 -1 12t-1.5 27t-0.5 36q0 104 50 174t153 70q76 0 145 -37l-17 -35q-72 26 -122 26q-144 0 -144 -200q0 -22 1 -46t1 -27h164l-9 -45h-156q-1 -87 -31.5 -148.5t-100.5 -119.5h310z" />
    <glyph glyph-name="florin.fitted" horiz-adv-x="465" 
d="M505 653l-20 -35q-32 18 -66 18q-38 0 -62 -23t-40 -74l-53 -173h149l-8 -42h-152l-91 -294q-43 -140 -152 -140q-48 0 -86 28l19 35q29 -18 65 -18q67 0 97 99l90 290h-110l8 42h113l55 175q21 71 58 105.5t96 34.5q52 0 90 -28z" />
    <glyph glyph-name="yen.fitted" horiz-adv-x="480" 
d="M414 243h-148l-18 -91h148l-8 -44h-148l-20 -108h-60l21 108h-148l8 44h148l18 91h-148l8 44h148l6 24q-73 152 -138 364h67q50 -180 114 -316q96 109 226 316h69q-174 -246 -279 -364l-5 -24h148z" />
    <glyph glyph-name="H_a_n_g_T_a_b_P_r_o_p" horiz-adv-x="1615" 
d="M504 500h-31v164h-169v-164h-30v337h30v-146h169v146h31v-337zM751 500h-24l-2 29q-42 -33 -80 -33q-33 0 -51 17.5t-18 47.5q0 82 123 82h23v29q0 55 -61 55q-27 0 -67 -14l-6 19q40 18 83 18q80 0 80 -73v-177zM722 550v72h-26q-90 0 -90 -56q0 -47 47 -47q32 0 69 31z
M1019 500h-29q0 22 0.5 68.5t0.5 64.5q0 93 -53 93q-27 0 -67 -33v-193h-29v246h24l3 -30q41 34 80 34q71 0 71 -109q0 -16 -0.5 -66.5t-0.5 -74.5zM1274 743v-236q0 -55 -22.5 -75.5t-67.5 -20.5q-30 0 -73 13l3 18q36 -7 68 -7q33 0 48 14t15 48v40q-39 -30 -72 -30
q-35 0 -58 32t-23 82q0 63 34 96t82 33q24 0 66 -7zM1245 561v159q-20 7 -44 7q-35 0 -56.5 -26t-21.5 -72q0 -45 15.5 -72.5t43.5 -27.5q27 0 63 32zM217 312h-93v-312h-31v312h-93v25h217v-25zM389 0h-23l-3 29q-42 -33 -79 -33q-33 0 -51 17.5t-18 47.5q0 82 123 82h22
v29q0 28 -14.5 41.5t-46.5 13.5q-25 0 -67 -14l-5 19q40 18 82 18q80 0 80 -73v-177zM360 50v72h-26q-90 0 -90 -56q0 -22 12.5 -34.5t34.5 -12.5q34 0 69 31zM481 3v351h29v-135q38 31 71 31q36 0 59 -33t23 -85q0 -69 -33 -102.5t-86 -33.5q-32 0 -63 7zM510 194v-168
q18 -7 42 -7q35 0 57 27t22 78q0 46 -15 74t-43 28q-30 0 -63 -32zM791 0h-30v337q7 0 27.5 0.5t39.5 0.5q120 0 120 -100q0 -49 -32 -79t-102 -30h-23v-129zM791 314v-161h31q93 0 93 81q0 80 -92 80h-32zM1121 244l-3 -28q-12 4 -19 4q-22 0 -60 -48v-172h-29v246h24
l3 -46q41 50 65 50q7 0 19 -6zM1359 128q0 -66 -28.5 -99t-78.5 -33q-94 0 -94 122q0 66 28 99t77 33q96 0 96 -122zM1328 117q0 58 -17 84t-54 26q-32 0 -50.5 -25t-18.5 -73q0 -58 17 -84t53 -26q33 0 51.5 25t18.5 73zM1462 -87h-29v333h23l4 -28q39 32 73 32
q36 0 59 -33t23 -85q0 -68 -32.5 -102t-85.5 -34q-9 0 -35 2v-85zM1462 194v-168q18 -7 43 -7q35 0 57 27t22 79q0 45 -15.5 73t-42.5 28q-31 0 -64 -32z" />
    <glyph glyph-name="H_a_n_g_P_r_o_p" horiz-adv-x="1000" 
d="M230 500h-30v164h-169v-164h-31v337h31v-146h169v146h30v-337zM477 500h-24l-2 29q-42 -33 -79 -33q-33 0 -51.5 17.5t-18.5 47.5q0 38 30.5 60t93.5 22h22v29q0 55 -60 55q-28 0 -68 -14l-6 19q40 18 83 18q80 0 80 -73v-177zM448 550v72h-26q-51 0 -70 -15t-19 -41
q0 -47 47 -47q31 0 68 31zM745 500h-29q0 22 0.5 68.5t0.5 64.5q0 93 -53 93q-27 0 -67 -33v-193h-29v246h24l4 -30q39 34 79 34q71 0 71 -109q0 -16 -0.5 -66.5t-0.5 -74.5zM1000 743v-236q0 -55 -22.5 -75.5t-66.5 -20.5q-31 0 -74 13l4 18q35 -7 67 -7q33 0 48 14t15 48
v40q-39 -30 -72 -30q-35 0 -57.5 32t-22.5 82q0 63 33.5 96t81.5 33q24 0 66 -7zM971 561v159q-18 7 -44 7q-34 0 -55.5 -26.5t-21.5 -71.5t15.5 -72.5t43.5 -27.5t62 32zM101 0h-30v337q7 0 27.5 0.5t39.5 0.5q120 0 120 -100q0 -49 -32 -79t-102 -30h-23v-129zM101 314
v-161h31q93 0 93 81q0 80 -92 80h-32zM431 244l-3 -28q-12 4 -19 4q-22 0 -60 -48v-172h-29v246h24l3 -46q41 50 65 50q7 0 19 -6zM669 128q0 -66 -28.5 -99t-77.5 -33q-95 0 -95 122q0 66 28 99t77 33q96 0 96 -122zM638 117q0 58 -17 84t-53 26q-33 0 -51.5 -25t-18.5 -73
q0 -58 17 -84t53 -26q33 0 51.5 25t18.5 73zM772 -87h-29v333h23l4 -28q39 32 73 32q36 0 59 -33t23 -85q0 -68 -32.5 -102t-85.5 -34q-9 0 -35 2v-85zM772 194v-168q18 -7 43 -7q35 0 57 27t22 79q0 45 -15.5 73t-42.5 28q-31 0 -64 -32z" />
    <glyph glyph-name="zero.oldstyle" horiz-adv-x="533" 
d="M490 404q0 -78 -29.5 -185.5t-85.5 -163.5q-62 -62 -160 -62q-80 0 -122 42.5t-42 125.5q0 77 30.5 184.5t87.5 164.5q61 62 157 62q164 0 164 -168zM226 40q62 0 104 42q47 47 72 149.5t25 168.5q0 125 -112 125q-62 0 -104 -41q-47 -47 -72 -149.5t-25 -168.5
q0 -126 112 -126z" />
    <glyph glyph-name="one.oldstyle" horiz-adv-x="326" 
d="M174 0h-60l97 501l-149 -49l-5 40l180 72h46z" />
    <glyph glyph-name="two.oldstyle" horiz-adv-x="439" 
d="M346 0h-366l8 44q159 120 227.5 180t97 107t28.5 104q0 45 -28 66t-72 21q-60 0 -132 -24l-6 42q87 31 156 31q67 0 107 -31.5t40 -95.5q0 -91 -65 -166t-274 -227h290z" />
    <glyph glyph-name="three.oldstyle" horiz-adv-x="440" 
d="M109 -111q-64 0 -152 34l14 38q92 -23 141 -23q42 0 75 14.5t51 35.5t29.5 49t15 50t3.5 43q0 99 -113 99h-59l9 48h59q40 0 70.5 16.5t46 42t22.5 51t7 49.5q0 87 -100 87q-63 0 -124 -23l-5 41q76 30 144 30q149 0 149 -129q0 -35 -12.5 -71.5t-44.5 -70t-78 -43.5
q45 -4 69 -37.5t24 -84.5q0 -27 -5 -55.5t-20.5 -64t-40.5 -62.5t-70.5 -45.5t-104.5 -18.5z" />
    <glyph glyph-name="four.oldstyle" horiz-adv-x="501" 
d="M436 53h-105l-30 -157h-58l30 157h-288l9 49q188 266 350 462h87l-90 -460h105zM283 104l81 414h-1q-184 -227 -310 -414h230z" />
    <glyph glyph-name="five.oldstyle" horiz-adv-x="452" 
d="M125 -111q-65 0 -148 31l13 38q101 -21 136 -21q49 0 86 19.5t57.5 50.5t30.5 64.5t10 66.5q0 110 -120 110q-59 0 -125 -15l86 331h262l-10 -52h-215l-58 -223q38 7 87 7q75 0 115.5 -38.5t40.5 -109.5q0 -34 -7.5 -68t-26 -69t-46 -61.5t-71 -43.5t-97.5 -17z" />
    <glyph glyph-name="six.oldstyle" horiz-adv-x="498" 
d="M215 -7q-153 0 -153 174q0 53 13.5 132.5t48.5 174t83 142.5q66 66 164 66q58 0 138 -28l-13 -40q-76 21 -127 21q-87 0 -139.5 -71t-85.5 -228q55 28 88.5 39t75.5 11q63 0 99 -37t36 -100q0 -39 -12.5 -80.5t-37.5 -82.5t-71.5 -67t-106.5 -26zM381 242q0 96 -102 96
q-55 0 -142 -47q-15 -75 -15 -122q0 -129 101 -129q43 0 75.5 20.5t49.5 53t25 65t8 63.5z" />
    <glyph glyph-name="seven.oldstyle" horiz-adv-x="430" 
d="M453 520l-196 -310q-98 -156 -222 -320l-37 15l381 607h-303l10 52h375z" />
    <glyph glyph-name="eight.oldstyle" horiz-adv-x="503" 
d="M199 -7q-83 0 -127 35.5t-44 93.5q0 66 42 119.5t142 106.5q-97 60 -97 145q0 72 55 130.5t165 58.5q78 0 118 -34.5t40 -87.5q0 -65 -40 -112t-141 -97q65 -39 95.5 -76t30.5 -84q0 -35 -13 -68.5t-39.5 -63.5t-75 -48t-111.5 -18zM432 552q0 85 -113 85
q-71 0 -107.5 -43t-36.5 -93q0 -68 94 -124q95 47 129 84.5t34 90.5zM376 179q0 41 -30 73.5t-92 68.5q-96 -51 -130 -94.5t-34 -94.5q0 -93 125 -93q70 0 115.5 41.5t45.5 98.5z" />
    <glyph glyph-name="nine.oldstyle" horiz-adv-x="498" 
d="M291 571q153 0 153 -174q0 -60 -14 -139.5t-47.5 -166.5t-78.5 -131q-72 -71 -173 -71q-60 0 -146 29l12 39q79 -21 136 -21q83 0 140.5 69t88.5 224q-52 -27 -86.5 -38.5t-76.5 -11.5q-64 0 -100 36.5t-36 99.5q0 30 7 63t24.5 68t43 62.5t65.5 45t88 17.5zM125 323
q0 -96 103 -96q55 0 142 46q14 70 14 122q0 130 -101 130q-56 0 -93.5 -36.5t-51 -79.5t-13.5 -86z" />
    <glyph glyph-name="H_a_n_g_T_a_b" horiz-adv-x="1000" 
d="M230 500h-30v164h-169v-164h-31v337h31v-146h169v146h30v-337zM477 500h-24l-2 29q-42 -33 -79 -33q-33 0 -51.5 17.5t-18.5 47.5q0 38 30.5 60t93.5 22h22v29q0 55 -60 55q-28 0 -68 -14l-6 19q40 18 83 18q80 0 80 -73v-177zM448 550v72h-26q-51 0 -70 -15t-19 -41
q0 -47 47 -47q31 0 68 31zM745 500h-29q0 22 0.5 68.5t0.5 64.5q0 93 -53 93q-27 0 -67 -33v-193h-29v246h24l4 -30q39 34 79 34q71 0 71 -109q0 -16 -0.5 -66.5t-0.5 -74.5zM1000 743v-236q0 -55 -22.5 -75.5t-66.5 -20.5q-31 0 -74 13l4 18q35 -7 67 -7q33 0 48 14t15 48
v40q-39 -30 -72 -30q-35 0 -57.5 32t-22.5 82q0 63 33.5 96t81.5 33q24 0 66 -7zM971 561v159q-18 7 -44 7q-34 0 -55.5 -26.5t-21.5 -71.5t15.5 -72.5t43.5 -27.5t62 32zM352 312h-93v-312h-31v312h-93v25h217v-25zM524 0h-23l-3 29q-40 -33 -78 -33q-34 0 -52 17t-18 48
q0 82 124 82h21v29q0 55 -60 55q-27 0 -67 -14l-5 19q38 18 81 18q80 0 80 -73v-177zM495 50v72h-25q-51 0 -70.5 -15t-19.5 -41q0 -47 47 -47q34 0 68 31zM616 3v351h29v-135q39 31 71 31q36 0 59 -33t23 -85q0 -69 -33 -102.5t-86 -33.5q-30 0 -63 7zM645 194v-168
q17 -7 43 -7q35 0 57 27t22 78q0 45 -15.5 73.5t-42.5 28.5q-31 0 -64 -32z" />
    <glyph glyph-name="zero.OnumTab" 
d="M471 405q0 -77 -31.5 -187t-87.5 -166q-58 -59 -154 -59q-81 0 -121.5 38.5t-40.5 127.5q0 76 32 186.5t88 166.5q59 59 153 59q82 0 122 -38.5t40 -127.5zM208 40q62 0 103 41q46 46 71.5 151t25.5 170q0 66 -27 94t-83 28q-61 0 -102 -41q-46 -46 -72 -150.5
t-26 -170.5t27 -94t83 -28z" />
    <glyph glyph-name="one.OnumTab" 
d="M391 0h-364l10 51h159l88 451l-154 -51l-5 41l183 72h50l-101 -513h143z" />
    <glyph glyph-name="two.OnumTab" 
d="M389 0h-377l8 44q122 88 188.5 140t110 97.5t56.5 78t13 73.5q0 89 -108 89q-64 0 -148 -26l-5 42q100 33 170 33q72 0 114 -32t42 -99q0 -90 -68.5 -164t-283.5 -225h297z" />
    <glyph glyph-name="three.OnumTab" 
d="M143 -111q-76 0 -171 37l12 38q90 -25 158 -25q55 0 94.5 19t59 49.5t28 60.5t8.5 61q0 100 -126 100h-69l9 48h64q82 0 122.5 49.5t40.5 112.5q0 84 -107 84q-78 0 -148 -24l-5 41q84 31 169 31q81 0 118 -33.5t37 -88.5q0 -65 -39 -121t-103 -70q101 -12 101 -125
q0 -30 -6.5 -60.5t-24 -64.5t-45 -59.5t-73.5 -42.5t-104 -17z" />
    <glyph glyph-name="four.OnumTab" 
d="M424 53h-87l-31 -157h-58l31 157h-289l11 51q177 249 348 460h87l-89 -460h87zM289 104l80 411h-1q-152 -187 -311 -411h232z" />
    <glyph glyph-name="five.OnumTab" 
d="M144 -111q-75 0 -170 37l14 38q81 -25 158 -25q53 0 92.5 19t60 50.5t30.5 65t10 69.5q0 55 -32 80t-102 25q-68 0 -139 -16l86 332h291l-10 -52h-244l-59 -224q54 8 101 8q85 0 128.5 -36.5t43.5 -107.5q0 -45 -13.5 -88.5t-42 -84t-81 -65.5t-122.5 -25z" />
    <glyph glyph-name="six.OnumTab" 
d="M212 -7q-151 0 -151 172q0 96 37.5 238.5t107.5 212.5q66 66 164 66q58 0 139 -28l-13 -40q-78 21 -128 21q-84 0 -138.5 -71t-85.5 -226q96 48 159 48q66 0 102.5 -34t36.5 -97q0 -40 -13 -83t-38.5 -84.5t-72 -68t-106.5 -26.5zM380 247q0 91 -99 91q-58 0 -145 -46
q-15 -85 -15 -123q0 -66 24 -97.5t75 -31.5q42 0 75 21.5t50.5 54.5t26 66.5t8.5 64.5z" />
    <glyph glyph-name="seven.OnumTab" 
d="M506 520l-206 -312q-91 -139 -226 -318l-39 17l394 605h-332l10 52h408z" />
    <glyph glyph-name="eight.OnumTab" 
d="M197 -7q-83 0 -126.5 35t-43.5 94q0 66 42 119.5t141 106.5q-96 59 -96 144q0 72 56 131t164 59q80 0 118.5 -34t38.5 -88q0 -65 -39.5 -112t-140.5 -97q64 -37 94 -74t30 -84q0 -80 -62 -140t-176 -60zM430 553q0 84 -112 84q-71 0 -107.5 -43t-36.5 -94q0 -65 93 -123
q95 47 129 84.5t34 91.5zM373 179q0 41 -29.5 73.5t-91.5 68.5q-95 -51 -129 -94.5t-34 -94.5q0 -93 124 -93q70 0 115 41.5t45 98.5z" />
    <glyph glyph-name="nine.OnumTab" 
d="M295 571q152 0 152 -171q0 -103 -37 -240.5t-106 -205.5q-68 -65 -164 -65q-70 0 -151 29l12 39q78 -21 140 -21q83 0 137.5 70t87.5 223q-97 -50 -164 -50q-65 0 -100 34t-35 96q0 27 6.5 58.5t23.5 68.5t41.5 66.5t65.5 49t91 19.5zM128 317q0 -90 104 -90q56 0 141 46
q15 78 15 123q0 129 -101 129q-44 0 -77 -23t-49.5 -58t-24.5 -67.5t-8 -59.5z" />
    <glyph glyph-name="L_i_n_P_r_o_p" horiz-adv-x="854" 
d="M322 500h-151v337h31v-312h120v-25zM411 820q0 -11 -3 -14.5t-15 -3.5t-16 3.5t-4 14.5t4 14.5t16 3.5t15 -3.5t3 -14.5zM407 500h-29v246h29v-246zM676 500h-29q0 22 0.5 68.5t0.5 64.5q0 93 -53 93q-27 0 -67 -33v-193h-29v246h24l4 -30q39 34 79 34q71 0 71 -109
q0 -16 -0.5 -66.5t-0.5 -74.5zM31 0h-31v337q8 0 28 0.5t39 0.5q120 0 120 -100q0 -49 -32 -79t-102 -30h-22v-129zM31 314v-161h30q93 0 93 81q0 80 -92 80h-31zM360 244l-3 -28q-12 4 -18 4q-23 0 -61 -48v-172h-29v246h24l4 -46q39 50 64 50q9 0 19 -6zM598 128
q0 -66 -28.5 -99t-77.5 -33q-95 0 -95 122q0 66 28 99t77 33q96 0 96 -122zM567 117q0 58 -17 84t-53 26q-33 0 -51.5 -25t-18.5 -73q0 -58 17.5 -84t53.5 -26q32 0 50.5 25t18.5 73zM701 -87h-29v333h24l3 -28q39 32 73 32q36 0 59 -33t23 -85q0 -68 -32.5 -102t-85.5 -34
q-9 0 -35 2v-85zM701 194v-168q18 -7 43 -7q35 0 57 27t22 79q0 45 -15.5 73t-42.5 28q-31 0 -64 -32z" />
    <glyph glyph-name="zero.LinProp" horiz-adv-x="554" 
d="M362 682q83 0 128 -49t45 -138q0 -100 -35 -231t-105 -201t-173 -70q-173 0 -173 187q0 98 36 231t104 201q70 70 173 70zM470 491q0 72 -28.5 107.5t-90.5 35.5q-69 0 -121 -50q-54 -54 -85.5 -186t-31.5 -214q0 -143 120 -143q69 0 121 50q54 54 85 185.5t31 214.5z
" />
    <glyph glyph-name="one.LinProp" horiz-adv-x="327" 
d="M174 0h-60l118 611l-150 -59l-5 42l181 81h47z" />
    <glyph glyph-name="two.LinProp" horiz-adv-x="470" 
d="M357 0h-377l9 46q217 185 301.5 296t84.5 197q0 93 -104 93q-53 0 -146 -31l-4 43q100 38 168 38q71 0 111.5 -33t40.5 -100q0 -98 -89 -218t-291 -279h306z" />
    <glyph glyph-name="three.LinProp" horiz-adv-x="456" 
d="M386 239q0 -30 -6.5 -60t-24 -64.5t-44.5 -60.5t-73 -43.5t-105 -17.5q-68 0 -156 34l14 39q87 -23 143 -23q53 0 91.5 18.5t59 49t29.5 62t9 63.5q0 100 -120 100h-72l9 48h66q78 0 118.5 49t40.5 112q0 89 -109 89q-63 0 -133 -22l-5 40q84 30 154 30q75 0 116 -33
t41 -97q0 -61 -38.5 -117t-107.5 -70q48 -5 75.5 -37.5t27.5 -88.5z" />
    <glyph glyph-name="four.LinProp" horiz-adv-x="502" 
d="M459 164h-105l-31 -164h-58l31 164h-290l9 46q177 254 352 465h87l-90 -460h105zM306 215l80 414h-1q-194 -240 -312 -414h233z" />
    <glyph glyph-name="five.LinProp" horiz-adv-x="463" 
d="M404 259q0 -116 -73 -190.5t-189 -74.5q-60 0 -145 30l12 39q89 -20 131 -20q88 0 144.5 55.5t56.5 151.5q0 107 -123 107q-66 0 -132 -15l87 333h272l-11 -52h-224l-59 -225q49 7 91 7q80 0 121 -38t41 -108z" />
    <glyph glyph-name="six.LinProp" horiz-adv-x="499" 
d="M444 249q0 -31 -7.5 -64t-25 -68t-43 -62t-65 -44.5t-86.5 -17.5q-156 0 -156 173q0 54 13.5 133.5t49 173.5t83.5 143q66 66 164 66q58 0 138 -28l-13 -40q-76 21 -127 21q-86 0 -139 -71t-86 -228q54 27 89 38.5t75 11.5q64 0 100 -35t36 -102zM382 241q0 97 -103 97
q-55 0 -143 -47q-14 -70 -14 -122q0 -129 101 -129q43 0 75.5 20.5t49.5 52.5t25.5 64.5t8.5 63.5z" />
    <glyph glyph-name="seven.LinProp" horiz-adv-x="432" 
d="M477 631l-198 -312q-108 -170 -222 -325l-38 15l384 614h-306l10 52h378z" />
    <glyph glyph-name="eight.LinProp" horiz-adv-x="505" 
d="M201 -7q-83 0 -128 35.5t-45 93.5q0 66 42 119.5t141 106.5q-97 60 -97 144q0 72 57 131t165 59q80 0 120 -34.5t40 -87.5q0 -65 -40.5 -112t-141.5 -97q65 -38 95.5 -75t30.5 -85q0 -79 -62 -138.5t-177 -59.5zM433 552q0 85 -110 85q-73 0 -110 -42.5t-37 -94.5
q0 -67 94 -123q95 47 129 84.5t34 90.5zM377 179q0 41 -30 74t-92 69q-96 -51 -130.5 -95t-34.5 -95q0 -45 32 -69t94 -24q70 0 115.5 41t45.5 99z" />
    <glyph glyph-name="nine.LinProp" horiz-adv-x="499" 
d="M86 426q0 28 7 59.5t24 67t42 64t66 47t91 18.5q75 0 113.5 -39t38.5 -134q0 -101 -36 -237.5t-101 -201.5q-78 -77 -174 -77q-67 0 -150 30l13 39q79 -21 136 -21q80 0 140 73t91 223q-96 -48 -165 -48q-62 0 -99 36t-37 101zM148 434q0 -97 104 -97q55 0 142 47
q14 71 14 122q0 129 -100 129q-45 0 -78.5 -22t-50 -55.5t-24 -65t-7.5 -58.5z" />
    <glyph glyph-name="L_i_n_T_a_b" horiz-adv-x="663" 
d="M222 500h-151v337h30v-312h121v-25zM311 820q0 -11 -3 -14.5t-15 -3.5q-13 0 -16.5 3.5t-3.5 14.5t3.5 14.5t16.5 3.5q12 0 15 -3.5t3 -14.5zM307 500h-29v246h29v-246zM576 500h-29q0 22 0.5 68.5t0.5 64.5q0 93 -53 93q-27 0 -67 -33v-193h-29v246h24l4 -30
q39 34 79 34q71 0 71 -109q0 -16 -0.5 -66.5t-0.5 -74.5zM217 312h-93v-312h-31v312h-93v25h217v-25zM389 0h-23l-3 29q-42 -33 -79 -33q-33 0 -51 17.5t-18 47.5q0 82 123 82h22v29q0 28 -14.5 41.5t-46.5 13.5q-25 0 -67 -14l-5 19q40 18 82 18q80 0 80 -73v-177zM360 50
v72h-26q-90 0 -90 -56q0 -22 12.5 -34.5t34.5 -12.5q34 0 69 31zM481 3v351h29v-135q38 31 71 31q36 0 59 -33t23 -85q0 -69 -33 -102.5t-86 -33.5q-32 0 -63 7zM510 194v-168q18 -7 42 -7q35 0 57 27t22 78q0 46 -15 74t-43 28q-30 0 -63 -32z" />
    <glyph glyph-name="zero.LinTab" 
d="M345 54q-62 -61 -147 -61q-149 0 -149 172q0 103 37 248t100 208q62 61 146 61q72 0 110 -40.5t38 -131.5q0 -104 -36 -248.5t-99 -207.5zM302 80q51 50 84 198t33 234q0 68 -23.5 95.5t-72.5 27.5q-56 0 -96 -40q-51 -50 -84 -198t-33 -234q0 -68 23.5 -95.5t73.5 -27.5
q55 0 95 40z" />
    <glyph glyph-name="one.LinTab" 
d="M259 52h142l-10 -52h-364l11 52h159l109 559l-154 -58l-8 40l187 82h48z" />
    <glyph glyph-name="two.LinTab" 
d="M382 0h-378l8 46q105 90 179 161.5t114.5 119t62.5 88.5t27.5 65.5t5.5 54.5q0 97 -107 97q-51 0 -147 -31l-7 40q104 41 173 41t111.5 -33t42.5 -103q0 -43 -12.5 -81.5t-49.5 -96t-116 -136t-202 -180.5h306z" />
    <glyph glyph-name="three.LinTab" 
d="M173 -7q-80 0 -176 36l12 39q106 -25 165 -25q49 0 86.5 18.5t57.5 47.5t29.5 59t9.5 59q0 55 -30 82t-96 27h-79l9 47h74q37 0 66.5 11.5t47 29t29 39.5t15.5 41.5t4 37.5q0 47 -26 69t-89 22q-65 0 -140 -23l-4 41q88 31 163 31q161 0 161 -132q0 -56 -35 -111
t-107 -73q102 -19 102 -134q0 -34 -11.5 -71.5t-37.5 -77t-78 -65t-122 -25.5z" />
    <glyph glyph-name="four.LinTab" 
d="M373 675h85l-90 -462h87l-11 -52h-87l-30 -161h-58l30 161h-287l9 50q176 249 352 464zM310 213l80 412h-1q-177 -215 -312 -412h233z" />
    <glyph glyph-name="five.LinTab" 
d="M167 -7q-79 0 -173 33l16 42q96 -25 162 -25q52 0 90.5 19.5t59 51.5t30 65.5t9.5 68.5q0 107 -135 107q-66 0 -139 -15l87 335h291l-10 -52h-244l-59 -228q49 9 102 9q85 0 128.5 -39t43.5 -106q0 -42 -12.5 -84.5t-40 -85t-81 -69.5t-125.5 -27z" />
    </font>
</defs>
</svg>
