<?xml version="1.0" standalone="no"?>
<!DOCTYPE svg PUBLIC "-//W3C//DTD SVG 1.1//EN" "http://www.w3.org/Graphics/SVG/1.1/DTD/svg11.dtd" >
<svg xmlns="http://www.w3.org/2000/svg" xmlns:xlink="http://www.w3.org/1999/xlink" version="1.1">
<metadata>
Created by FontForge 20170731 at Wed Nov  9 19:21:21 2016
 By Aleksey,,,
Copyright (c) Luc[as] de Groot, published by LucasFonts, 2002, 2004, 2007, 2009, 2016. All rights reserved.
</metadata>
<defs>
<font id="FHPSun-SemiBoldItalic" horiz-adv-x="500" >
  <font-face 
    font-family="FHP Sun SemiBold"
    font-weight="600"
    font-style="italic"
    font-stretch="normal"
    units-per-em="1000"
    panose-1="2 11 6 3 5 3 2 9 2 3"
    ascent="800"
    descent="-200"
    x-height="498"
    cap-height="675"
    bbox="-327 -200 1728 885"
    underline-thickness="78"
    underline-position="-295"
    slope="-11"
    unicode-range="U+000D-1F6C8"
  />
<missing-glyph horiz-adv-x="550" 
d="M300 150h-150v250h50v-200h100v-50zM500 50h-450v450h450v-450zM350 350h-100v50h150v-250h-50v100h-100v50h100v50zM100 100h350v350h-350v-350z" />
    <glyph glyph-name="ellipsis" unicode="&#x2e;&#x2e;&#x2e;" horiz-adv-x="777" 
d="M103 -9q-30 0 -42 8t-12 28q0 19 6 41t14 31q14 14 51 14q30 0 42.5 -8t12.5 -28q0 -18 -6 -40.5t-14 -30.5q-15 -15 -52 -15zM333 -9q-30 0 -42 8t-12 28q0 19 6 41t14 31q14 14 51 14q30 0 42.5 -8t12.5 -28q0 -18 -6 -40.5t-14 -30.5q-15 -15 -52 -15zM563 -9
q-30 0 -42 8t-12 28q0 19 6 41t14 31q14 14 51 14q30 0 42.5 -8t12.5 -28q0 -18 -6 -40.5t-14 -30.5q-15 -15 -52 -15z" />
    <glyph glyph-name="f_f" unicode="ff" horiz-adv-x="584" 
d="M698 688l-24 -59q-35 14 -62 14q-64 0 -78 -74l-14 -71h100l-13 -73h-101l-87 -448q-29 -150 -158 -150q-58 0 -103 26l24 61q31 -11 57 -11q63 0 77 74l87 448h-182l-88 -456q-29 -149 -160 -149q-60 0 -107 30l24 59q37 -14 62 -14q64 0 78 75l88 455h-71l13 73h73
l11 64q29 149 158 149q57 0 103 -25l-24 -62q-31 11 -57 11q-63 0 -77 -74l-12 -63h182l14 72q29 149 160 149q59 0 107 -31z" />
    <glyph glyph-name="fi" unicode="fi" horiz-adv-x="549" 
d="M30 -30l88 455h-72l14 73h72l14 72q29 149 159 149q50 0 94 -23l-25 -63q-24 10 -50 10q-61 0 -75 -74l-14 -71h285l-96 -498h-103l82 425h-182l-88 -456q-29 -149 -160 -149q-60 0 -107 30l24 59q35 -14 61 -14q34 0 53 17.5t26 57.5zM487 580q-31 0 -44.5 7.5
t-13.5 25.5q0 14 5.5 35t13.5 29q16 15 55 15q31 0 44 -7.5t13 -26.5q0 -14 -5.5 -34.5t-13.5 -28.5q-14 -15 -54 -15z" />
    <glyph glyph-name="fl" unicode="fl" horiz-adv-x="566" 
d="M30 -30l88 455h-72l14 73h72l9 46q17 91 67.5 133t144.5 42q50 0 108 -10h99l-111 -572q-6 -34 -6 -47q0 -15 6 -20t22 -5q5 0 14.5 0.5t12.5 0.5l-6 -62q-35 -11 -79 -11q-40 0 -59 15t-19 53q0 21 7 55l101 519q-42 8 -79 8q-52 0 -80.5 -22t-39.5 -75l-9 -48h90
l-14 -73h-90l-88 -456q-29 -149 -160 -149q-60 0 -107 30l24 59q35 -14 61 -14q34 0 53 17.5t26 57.5z" />
    <glyph glyph-name="f_f_i" unicode="ffi" horiz-adv-x="833" 
d="M805 498l-97 -498h-103l82 425h-181l-87 -448q-29 -150 -158 -150q-58 0 -103 26l24 61q31 -11 57 -11q63 0 77 74l87 448h-182l-88 -456q-29 -149 -160 -149q-60 0 -107 30l24 59q37 -14 62 -14q64 0 78 75l88 455h-71l13 73h73l11 64q29 149 158 149q57 0 103 -25
l-24 -62q-31 11 -57 11q-63 0 -77 -74l-12 -63h182l15 76q27 145 157 145q50 0 94 -23l-24 -63q-25 10 -50 10q-61 0 -75 -74l-14 -71h285zM771 580q-31 0 -44 7t-13 26q0 14 5.5 35t13.5 29q15 15 54 15q32 0 45 -7.5t13 -26.5q0 -14 -5.5 -34.5t-13.5 -28.5
q-14 -15 -55 -15z" />
    <glyph glyph-name="f_f_l" unicode="ffl" horiz-adv-x="849" 
d="M845 709l-112 -572q-6 -34 -6 -47q0 -15 6 -20t22 -5q5 0 15 0.5t13 0.5l-6 -62q-35 -11 -80 -11q-40 0 -59 15t-19 53q0 21 7 55l101 517q-36 10 -78 10q-52 0 -80.5 -22t-39.5 -75l-9 -48h90l-15 -73h-89l-87 -448q-29 -150 -158 -150q-58 0 -103 26l24 61
q31 -11 57 -11q63 0 77 74l87 448h-182l-88 -456q-29 -149 -160 -149q-60 0 -107 30l24 59q37 -14 62 -14q64 0 78 75l88 455h-71l13 73h73l11 64q29 149 158 149q57 0 103 -25l-24 -62q-31 11 -57 11q-63 0 -77 -74l-12 -63h182l9 46q17 91 68 133t143 42q52 0 108 -10h100
z" />
    <glyph glyph-name="f_b" unicode="fb" horiz-adv-x="819" 
d="M783 345q0 -44 -7.5 -88.5t-28 -94t-52 -86.5t-86 -61.5t-123.5 -24.5q-37 0 -78 4.5t-64 9.5l-22 4l122 627q-42 8 -80 8q-52 0 -80.5 -22t-38.5 -75l-10 -48h90l-14 -73h-90l-88 -456q-29 -149 -160 -149q-60 0 -107 30l24 59q37 -14 62 -14q64 0 78 75l88 455h-72
l14 73h73l8 45q18 92 68 134t144 42q50 0 108 -10h100l-45 -230l-21 -82q28 47 71 79t91 32q61 0 93.5 -46.5t32.5 -116.5zM676 329q0 97 -58 97q-44 0 -90 -60.5t-65 -157.5l-25 -133q31 -10 66 -10q48 0 84 29.5t54 74t26 85t8 75.5z" />
    <glyph glyph-name="f_f_b" unicode="ffb" horiz-adv-x="1104" 
d="M846 709l-45 -230q-5 -15 -12 -44.5t-9 -37.5q28 47 71 79t90 32q62 0 94 -46t32 -117q0 -44 -7.5 -88.5t-28 -94t-52 -86.5t-86 -61.5t-123.5 -24.5q-36 0 -77 4.5t-64 9.5l-23 4l122 627q-40 8 -79 8q-52 0 -80.5 -22t-39.5 -75l-9 -48h89l-14 -73h-89l-87 -448
q-29 -150 -158 -150q-58 0 -103 26l24 61q31 -11 57 -11q63 0 77 74l87 448h-182l-88 -456q-29 -149 -160 -149q-60 0 -107 30l24 59q37 -14 62 -14q64 0 78 75l88 455h-71l13 73h73l11 64q29 149 158 149q57 0 103 -25l-24 -62q-31 11 -57 11q-63 0 -77 -74l-12 -63h182
l9 45q18 92 68 134t143 42q51 0 109 -10h100zM961 329q0 97 -58 97q-44 0 -90 -60.5t-65 -157.5l-26 -133q31 -10 67 -10q48 0 84 29.5t53.5 74t26 85.5t8.5 75z" />
    <glyph glyph-name="f_h" unicode="fh" horiz-adv-x="836" 
d="M561 709l-45 -230l-21 -82q28 47 71.5 79t92.5 32q120 0 120 -136q0 -35 -8 -79t-27 -132t-33 -161h-102q12 64 26.5 132.5t22 102.5t12.5 65.5t5 51.5q0 73 -55 73q-46 0 -92.5 -64.5t-66.5 -165.5l-38 -195h-103l124 635q-42 8 -80 8q-52 0 -80.5 -22t-38.5 -75
l-10 -48h90l-14 -73h-90l-88 -456q-29 -149 -160 -149q-60 0 -107 30l24 59q37 -14 62 -14q64 0 78 75l88 455h-72l14 73h73l8 45q18 92 68 134t144 42q50 0 108 -10h100z" />
    <glyph glyph-name="f_f_h" unicode="ffh" horiz-adv-x="1121" 
d="M846 709l-45 -230q-5 -15 -12 -44.5t-9 -37.5q28 47 71 79t92 32q121 0 121 -136q0 -35 -8 -79t-27 -132t-33 -161h-103q12 62 27 132t22 103t12 65t5 52q0 73 -55 73q-46 0 -92.5 -64.5t-65.5 -165.5l-38 -195h-103l123 635q-40 8 -79 8q-52 0 -80.5 -22t-39.5 -75
l-9 -48h89l-14 -73h-89l-87 -448q-29 -150 -158 -150q-58 0 -103 26l24 61q31 -11 57 -11q63 0 77 74l87 448h-182l-88 -456q-29 -149 -160 -149q-60 0 -107 30l24 59q37 -14 62 -14q64 0 78 75l88 455h-71l13 73h73l11 64q29 149 158 149q57 0 103 -25l-24 -62
q-31 11 -57 11q-63 0 -77 -74l-12 -63h182l9 45q18 92 68 134t143 42q51 0 109 -10h100z" />
    <glyph glyph-name="f_igrave" unicode="f&#xec;" horiz-adv-x="549" 
d="M487 726l46 -161l-61 -16l-73 154zM30 -30l88 455h-72l14 73h72l16 81q14 71 47.5 105.5t94.5 34.5q36 0 75 -16l-22 -65q-18 5 -34 5q-45 0 -58 -63l-16 -82h285l-97 -498h-102l82 425h-182l-88 -456q-29 -149 -160 -149q-60 0 -107 30l24 59q37 -14 62 -14q64 0 78 75z
" />
    <glyph glyph-name="f_iacute" unicode="f&#xed;" horiz-adv-x="549" 
d="M30 -30l88 455h-72l14 73h72l15 76q29 145 158 145q50 0 94 -23l-24 -63q-23 10 -49 10q-63 0 -77 -74l-14 -71h285l-97 -498h-102l82 425h-182l-88 -456q-29 -149 -160 -149q-60 0 -107 30l24 59q37 -14 62 -14q64 0 78 75zM647 676l-172 -118l-49 32l152 132z" />
    <glyph glyph-name="f_icircumflex" unicode="f&#xee;" horiz-adv-x="549" 
d="M619 590l-43 -38l-79 85l-113 -85l-30 41l159 133zM30 -30l88 455h-72l14 73h72l16 83q14 70 48 104t94 34q35 0 75 -16l-24 -65q-17 5 -32 5q-45 0 -58 -63l-16 -82h285l-97 -498h-102l82 425h-182l-88 -456q-29 -149 -160 -149q-60 0 -107 30l24 59q37 -14 62 -14
q64 0 78 75z" />
    <glyph glyph-name="f_itilde" unicode="f&#x129;" horiz-adv-x="549" 
d="M593 665l35 -34q-23 -39 -46 -57t-54 -18q-27 0 -57 20.5t-43 20.5q-10 0 -20.5 -6.5t-17 -13t-18.5 -21.5l-34 34q43 75 100 75q26 0 56 -20t44 -20q25 0 55 40zM30 -30l88 455h-72l14 73h73l15 79q14 71 47 106.5t92 35.5q38 0 74 -15l-21 -66q-16 5 -31 5
q-45 0 -58 -63l-16 -82h285l-97 -498h-102l82 425h-182l-88 -456q-29 -149 -160 -149q-60 0 -107 30l24 59q37 -14 62 -14q64 0 78 75z" />
    <glyph glyph-name="f_idieresis" unicode="f&#xef;" horiz-adv-x="549" 
d="M626 654q0 -39 -17 -54q-12 -13 -43 -13q-23 0 -32 7t-9 26q0 38 16 54q14 13 44 13q23 0 32 -7t9 -26zM483 654q0 -39 -17 -54q-12 -13 -43 -13q-23 0 -32 7t-9 26q0 39 17 54q13 13 43 13q23 0 32 -7t9 -26zM30 -30l88 455h-72l14 73h73l15 79q14 71 47 106.5t92 35.5
q38 0 74 -15l-21 -66q-16 5 -31 5q-45 0 -58 -63l-16 -82h285l-97 -498h-102l82 425h-182l-88 -456q-29 -149 -160 -149q-60 0 -107 30l24 59q37 -14 62 -14q64 0 78 75z" />
    <glyph glyph-name="f_imacron" unicode="f&#x12b;" horiz-adv-x="549" 
d="M613 596h-244l14 73h244zM30 -30l88 455h-72l14 73h73l15 79q14 71 47 106.5t92 35.5q38 0 74 -15l-21 -66q-16 5 -31 5q-45 0 -58 -63l-16 -82h285l-97 -498h-102l82 425h-182l-88 -456q-29 -149 -160 -149q-60 0 -107 30l24 59q37 -14 62 -14q64 0 78 75z" />
    <glyph glyph-name="f_ibreve" unicode="f&#x12d;" horiz-adv-x="549" 
d="M570 682h60q-13 -67 -51.5 -102t-97.5 -35q-126 0 -99 137h58q-11 -68 50 -68q34 0 52 16t28 52zM30 -30l88 455h-72l14 73h73l15 79q14 71 47 106.5t92 35.5q38 0 74 -15l-21 -66q-16 5 -31 5q-45 0 -58 -63l-16 -82h285l-97 -498h-102l82 425h-182l-88 -456
q-29 -149 -160 -149q-60 0 -107 30l24 59q37 -14 62 -14q64 0 78 75z" />
    <glyph glyph-name="f_iogonek" unicode="f&#x12f;" horiz-adv-x="549" 
d="M520 498l-97 -498q-33 -9 -58.5 -41t-25.5 -58q0 -22 25 -22q21 0 51 13l6 -47q-42 -25 -96 -25q-34 0 -54 14.5t-20 40.5q0 64 70 125l82 425h-182l-88 -456q-29 -149 -160 -149q-60 0 -107 30l24 59q37 -14 62 -14q64 0 78 75l88 455h-72l14 73h72l15 76
q29 145 158 145q50 0 94 -23l-25 -63q-24 10 -50 10q-61 0 -75 -74l-14 -71h285zM487 580q-31 0 -44.5 7.5t-13.5 25.5q0 14 5.5 35t13.5 29q16 15 55 15q31 0 44 -7.5t13 -26.5q0 -14 -5.5 -34.5t-13.5 -28.5q-14 -15 -54 -15z" />
    <glyph glyph-name="f_dotlessi" unicode="f&#x131;" horiz-adv-x="549" 
d="M30 -30l88 455h-72l14 73h72l15 76q29 145 158 145q50 0 94 -23l-24 -63q-23 10 -49 10q-63 0 -77 -74l-14 -71h285l-97 -498h-102l82 425h-182l-88 -456q-29 -149 -160 -149q-60 0 -107 30l24 59q37 -14 62 -14q64 0 78 75z" />
    <glyph glyph-name="f_f_igrave" unicode="ff&#xec;" horiz-adv-x="833" 
d="M771 726l46 -161l-60 -16l-73 154zM708 0h-103l82 425h-181l-87 -448q-29 -150 -158 -150q-58 0 -103 26l24 61q31 -11 57 -11q63 0 77 74l87 448h-182l-88 -456q-29 -149 -160 -149q-60 0 -107 30l24 59q37 -14 62 -14q64 0 78 75l88 455h-72l14 73h73l12 67
q29 146 158 146q58 0 101 -26l-25 -61q-29 11 -56 11q-61 0 -75 -74l-13 -63h182l15 81q15 72 48 106t94 34q38 0 75 -16l-21 -65q-19 5 -34 5q-45 0 -58 -63l-16 -82h284z" />
    <glyph glyph-name="f_f_iacute" unicode="ff&#xed;" horiz-adv-x="833" 
d="M804 498l-96 -498h-103l82 425h-181l-87 -448q-29 -150 -158 -150q-58 0 -103 26l24 61q31 -11 57 -11q63 0 77 74l87 448h-182l-88 -456q-29 -149 -160 -149q-60 0 -107 30l24 59q37 -14 62 -14q64 0 78 75l88 455h-71l13 73h73l11 64q29 149 158 149q57 0 103 -25
l-24 -62q-31 11 -57 11q-63 0 -77 -74l-12 -63h182l14 72q29 149 159 149q50 0 94 -23l-24 -63q-30 10 -49 10q-63 0 -77 -74l-14 -71h284zM932 676l-172 -118l-49 32l152 132z" />
    <glyph glyph-name="f_f_icircumflex" unicode="ff&#xee;" horiz-adv-x="833" 
d="M708 0h-103l82 425h-181l-87 -448q-29 -150 -158 -150q-58 0 -103 26l24 61q31 -11 57 -11q63 0 77 74l87 448h-182l-88 -456q-29 -149 -160 -149q-60 0 -107 30l24 59q37 -14 62 -14q64 0 78 75l88 455h-72l14 73h73l12 67q29 146 158 146q58 0 101 -26l-25 -61
q-29 11 -56 11q-61 0 -75 -74l-13 -63h182l15 81q15 72 48 106t94 34q38 0 75 -16l-23 -65q-17 5 -32 5q-45 0 -58 -63l-16 -82h284zM904 590l-44 -38l-79 85l-113 -85l-29 41l159 133z" />
    <glyph glyph-name="f_f_itilde" unicode="ff&#x129;" horiz-adv-x="833" 
d="M708 0h-103l82 425h-181l-87 -448q-29 -150 -158 -150q-58 0 -103 26l24 61q31 -11 57 -11q63 0 77 74l87 448h-182l-88 -456q-29 -149 -160 -149q-60 0 -107 30l24 59q37 -14 62 -14q64 0 78 75l88 455h-72l14 73h73l12 67q29 146 158 146q58 0 101 -26l-25 -61
q-29 11 -56 11q-61 0 -75 -74l-13 -63h182l15 81q15 71 48 105.5t92 34.5q38 0 74 -15l-22 -66q-15 5 -31 5q-23 0 -36.5 -14.5t-20.5 -48.5l-16 -82h284zM878 665l35 -34q-44 -75 -101 -75q-26 0 -56 20.5t-44 20.5q-23 0 -55 -41l-35 34q44 75 101 75q26 0 56 -20t43 -20
q26 0 56 40z" />
    <glyph glyph-name="f_f_idieresis" unicode="ff&#xef;" horiz-adv-x="833" 
d="M708 0h-103l82 425h-181l-87 -448q-29 -150 -158 -150q-58 0 -103 26l24 61q31 -11 57 -11q63 0 77 74l87 448h-182l-88 -456q-29 -149 -160 -149q-60 0 -107 30l24 59q37 -14 62 -14q64 0 78 75l88 455h-72l14 73h73l12 67q29 146 158 146q58 0 101 -26l-25 -61
q-29 11 -56 11q-61 0 -75 -74l-13 -63h182l15 81q15 71 48 105.5t92 34.5q38 0 74 -15l-22 -66q-15 5 -31 5q-23 0 -36.5 -14.5t-20.5 -48.5l-16 -82h284zM910 654q0 -38 -16 -54q-13 -13 -44 -13q-23 0 -32 7t-9 26q0 39 17 54q13 13 43 13q23 0 32 -7t9 -26zM768 654
q0 -37 -17 -54q-12 -13 -43 -13q-23 0 -32.5 7t-9.5 26q0 37 17 54q13 13 43 13q23 0 32.5 -7t9.5 -26z" />
    <glyph glyph-name="f_f_imacron" unicode="ff&#x12b;" horiz-adv-x="833" 
d="M912 669l-15 -73h-244l15 73h244zM708 0h-103l82 425h-181l-87 -448q-29 -150 -158 -150q-58 0 -103 26l24 61q31 -11 57 -11q63 0 77 74l87 448h-182l-88 -456q-29 -149 -160 -149q-60 0 -107 30l24 59q37 -14 62 -14q64 0 78 75l88 455h-72l14 73h73l12 67
q29 146 158 146q58 0 101 -26l-25 -61q-29 11 -56 11q-61 0 -75 -74l-13 -63h182l15 81q15 71 48 105.5t92 34.5q38 0 74 -15l-22 -66q-15 5 -31 5q-23 0 -36.5 -14.5t-20.5 -48.5l-16 -82h284z" />
    <glyph glyph-name="f_f_ibreve" unicode="ff&#x12d;" horiz-adv-x="833" 
d="M708 0h-103l82 425h-181l-87 -448q-29 -150 -158 -150q-58 0 -103 26l24 61q31 -11 57 -11q63 0 77 74l87 448h-182l-88 -456q-29 -149 -160 -149q-60 0 -107 30l24 59q37 -14 62 -14q64 0 78 75l88 455h-72l14 73h73l12 67q29 146 158 146q58 0 101 -26l-25 -61
q-29 11 -56 11q-61 0 -75 -74l-13 -63h182l15 81q15 71 48 105.5t92 34.5q38 0 74 -15l-22 -66q-15 5 -31 5q-23 0 -36.5 -14.5t-20.5 -48.5l-16 -82h284zM855 682h59q-13 -67 -51 -102t-97 -35q-126 0 -100 137h58q-11 -68 51 -68q34 0 52 16t28 52z" />
    <glyph glyph-name="f_f_iogonek" unicode="ff&#x12f;" horiz-adv-x="833" 
d="M805 498l-97 -498q-42 -20 -67 -48t-25 -51q0 -22 25 -22q24 0 48 13l10 -48q-41 -24 -90 -24q-81 0 -81 64q0 53 77 116l82 425h-181l-87 -448q-29 -150 -158 -150q-58 0 -103 26l24 61q31 -11 57 -11q63 0 77 74l87 448h-182l-88 -456q-29 -149 -160 -149
q-60 0 -107 30l24 59q37 -14 62 -14q64 0 78 75l88 455h-71l13 73h73l11 64q29 149 158 149q57 0 103 -25l-24 -62q-31 11 -57 11q-63 0 -77 -74l-12 -63h182l15 76q27 145 157 145q50 0 94 -23l-24 -63q-25 10 -50 10q-61 0 -75 -74l-14 -71h285zM771 580q-31 0 -44 7
t-13 26q0 14 5.5 35t13.5 29q15 15 54 15q32 0 45 -7.5t13 -26.5q0 -14 -5.5 -34.5t-13.5 -28.5q-14 -15 -55 -15z" />
    <glyph glyph-name="f_f_dotlessi" unicode="ff&#x131;" horiz-adv-x="833" 
d="M804 498l-96 -498h-103l82 425h-181l-87 -448q-29 -150 -158 -150q-58 0 -103 26l24 61q31 -11 57 -11q63 0 77 74l87 448h-182l-88 -456q-29 -149 -160 -149q-60 0 -107 30l24 59q37 -14 62 -14q64 0 78 75l88 455h-71l13 73h73l11 64q29 149 158 149q57 0 103 -25
l-24 -62q-31 11 -57 11q-63 0 -77 -74l-12 -63h182l14 72q29 149 159 149q50 0 94 -23l-24 -63q-30 10 -49 10q-63 0 -77 -74l-14 -71h284z" />
    <glyph glyph-name="f_ij" unicode="f&#x133;" horiz-adv-x="834" 
d="M806 498l-94 -480q-22 -112 -82 -155t-156 -43q-78 0 -159 35l20 58q85 -15 144 -15q57 0 86 22.5t40 76.5l7 30q10 44 19 73h-1q-27 -45 -70.5 -75.5t-91.5 -30.5q-121 0 -121 136q0 24 4.5 56t9.5 57.5t18 84.5t21 97h-179l-88 -456q-29 -149 -160 -149q-60 0 -107 30
l24 59q37 -14 62 -14q64 0 78 75l88 455h-72l14 73h72l15 76q29 145 158 145q50 0 94 -23l-25 -63q-24 10 -50 10q-61 0 -75 -74l-14 -71h282q-12 -64 -26.5 -132t-21.5 -101t-12 -64t-5 -51q0 -73 55 -73q46 0 92 62t64 155l40 204h103zM771 580q-32 0 -45 7t-13 26
q0 14 5.5 35t13.5 29q15 15 55 15q31 0 44 -7.5t13 -26.5q0 -14 -5.5 -34.5t-13.5 -28.5q-14 -15 -54 -15zM487 580q-31 0 -44 7t-13 26q0 14 5 35t13 29q16 15 55 15q31 0 44 -7.5t13 -26.5q0 -14 -5 -34.5t-13 -28.5q-15 -15 -55 -15z" />
    <glyph glyph-name="f_j" unicode="fj" horiz-adv-x="549" 
d="M30 -30l88 455h-72l14 73h72l15 76q29 145 158 145q50 0 94 -23l-25 -63q-24 10 -50 10q-61 0 -75 -74l-14 -71h285l-88 -456q-14 -74 -47 -125t-97 -97l-62 36q80 73 100 169l77 400h-182l-88 -456q-29 -149 -160 -149q-60 0 -107 30l24 59q37 -14 62 -14q64 0 78 75z
M488 580q-31 0 -44.5 7.5t-13.5 25.5q0 14 5.5 35t13.5 29q17 15 55 15q31 0 44 -7.5t13 -26.5q0 -14 -5.5 -34.5t-13.5 -28.5q-14 -15 -54 -15z" />
    <glyph glyph-name="f_jcircumflex" unicode="f&#x135;" horiz-adv-x="549" 
d="M520 498l-89 -456q-14 -74 -47 -125t-97 -97l-61 36q81 74 99 169l78 400h-182l-88 -456q-29 -149 -160 -149q-60 0 -107 30l24 59q37 -14 62 -14q64 0 78 75l88 455h-72l14 73h72l16 83q14 70 48 104t94 34q35 0 75 -16l-24 -65q-17 5 -32 5q-45 0 -58 -63l-16 -82h285z
M619 590l-43 -38l-79 85l-113 -85l-30 41l159 133z" />
    <glyph glyph-name="f_f_j" unicode="ffj" horiz-adv-x="833" 
d="M688 425h-182l-87 -448q-29 -150 -158 -150q-58 0 -103 26l24 61q31 -11 57 -11q63 0 77 74l87 448h-182l-88 -456q-29 -149 -160 -149q-60 0 -107 30l24 59q37 -14 62 -14q64 0 78 75l88 455h-71l13 73h73l11 64q29 149 158 149q57 0 103 -25l-24 -62q-31 11 -57 11
q-63 0 -77 -74l-12 -63h182l15 76q27 145 157 145q50 0 94 -23l-24 -63q-25 10 -50 10q-61 0 -75 -74l-14 -71h285l-89 -456q-14 -74 -47 -125t-97 -97l-61 36q81 74 99 169zM771 580q-31 0 -44 7t-13 26q0 14 5.5 35t13.5 29q15 15 54 15q32 0 45 -7.5t13 -26.5
q0 -14 -5.5 -34.5t-13.5 -28.5q-14 -15 -55 -15z" />
    <glyph glyph-name="f_k" unicode="fk" horiz-adv-x="768" 
d="M320 0l124 635q-42 8 -80 8q-52 0 -80.5 -22t-38.5 -75l-10 -48h90l-14 -73h-90l-88 -456q-29 -149 -160 -149q-60 0 -107 30l24 59q37 -14 62 -14q64 0 78 75l88 455h-72l14 73h73l8 45q18 92 68 134t144 42q50 0 108 -10h100l-82 -415h4l176 204h126l-211 -218
l130 -280h-117l-112 253h-3l-49 -253h-103z" />
    <glyph glyph-name="f_kcommaaccent" unicode="f&#x137;" horiz-adv-x="768" 
d="M320 0l124 635q-42 8 -80 8q-52 0 -80.5 -22t-38.5 -75l-10 -48h90l-14 -73h-90l-88 -456q-29 -149 -160 -149q-60 0 -107 30l24 59q37 -14 62 -14q64 0 78 75l88 455h-72l14 73h73l8 45q18 92 68 134t144 42q50 0 108 -10h100l-82 -415h4l176 204h126l-211 -218
l130 -280h-117l-112 253h-3l-49 -253h-103zM484 -36q42 0 42 -36q0 -41 -36 -68.5t-101 -38.5l-10 35q60 22 60 46q0 2 -1.5 8.5t-1.5 13.5q0 17 13 28.5t35 11.5z" />
    <glyph glyph-name="f_f_k" unicode="ffk" horiz-adv-x="1052" 
d="M1069 498l-210 -218l129 -280h-117l-111 253h-4l-48 -253h-103l123 635q-40 8 -79 8q-52 0 -80.5 -22t-39.5 -75l-9 -48h89l-14 -73h-89l-87 -448q-29 -150 -158 -150q-58 0 -103 26l24 61q31 -11 57 -11q63 0 77 74l87 448h-182l-88 -456q-29 -149 -160 -149
q-60 0 -107 30l24 59q37 -14 62 -14q64 0 78 75l88 455h-71l13 73h73l11 64q29 149 158 149q57 0 103 -25l-24 -62q-31 11 -57 11q-63 0 -77 -74l-12 -63h182l9 45q18 92 68 134t143 42q51 0 109 -10h100l-82 -415h3l176 204h126z" />
    <glyph glyph-name="f_lacute" unicode="f&#x13a;" horiz-adv-x="565" 
d="M30 -30l88 455h-72l14 73h72l9 46q17 91 67.5 133t144.5 42q50 0 108 -10h99l-111 -572q-6 -34 -6 -47q0 -15 6 -20t22 -5q5 0 14.5 0.5t12.5 0.5l-6 -62q-35 -11 -79 -11q-40 0 -59 15t-19 53q0 21 7 55l101 519q-42 8 -79 8q-52 0 -80.5 -22t-39.5 -75l-9 -48h90
l-14 -73h-90l-88 -456q-29 -149 -160 -149q-60 0 -107 30l24 59q35 -14 61 -14q34 0 53 17.5t26 57.5zM688 798l-199 -64l-26 49l188 84z" />
    <glyph glyph-name="f_lcaron" unicode="f&#x13e;" horiz-adv-x="604" 
d="M30 -30l88 455h-72l14 73h72l9 46q17 91 67.5 133t144.5 42q50 0 108 -10h99l-111 -572q-6 -34 -6 -47q0 -15 6 -20t22 -5q5 0 14.5 0.5t12.5 0.5l-6 -62q-35 -11 -79 -11q-40 0 -59 15t-19 53q0 21 7 55l101 519q-42 8 -79 8q-52 0 -80.5 -22t-39.5 -75l-9 -48h90
l-14 -73h-90l-88 -456q-29 -149 -160 -149q-60 0 -107 30l24 59q35 -14 61 -14q34 0 53 17.5t26 57.5zM715 737l-91 -177l-53 11l68 183z" />
    <glyph glyph-name="f_lcommaaccent" unicode="f&#x13c;" horiz-adv-x="565" 
d="M30 -30l88 455h-72l14 73h72l9 46q17 91 67.5 133t144.5 42q50 0 108 -10h99l-111 -572q-6 -34 -6 -47q0 -15 6 -20t22 -5q5 0 14.5 0.5t12.5 0.5l-6 -62q-35 -11 -79 -11q-40 0 -59 15t-19 53q0 21 7 55l101 519q-42 8 -79 8q-52 0 -80.5 -22t-39.5 -75l-9 -48h90
l-14 -73h-90l-88 -456q-29 -149 -160 -149q-60 0 -107 30l24 59q35 -14 61 -14q34 0 53 17.5t26 57.5zM405 -36q42 0 42 -36q0 -41 -36 -68.5t-101 -38.5l-10 35q60 22 60 46q0 2 -1.5 8.5t-1.5 13.5q0 17 13 28.5t35 11.5z" />
    <glyph glyph-name="f_lslash" unicode="f&#x142;" horiz-adv-x="567" 
d="M30 -30l88 455h-72l14 73h73l8 45q17 91 67.5 133.5t144.5 42.5q38 0 104 -10h103l-51 -263l67 34v-74l-82 -41l-45 -228q-6 -32 -6 -47t6 -20t22 -5q5 0 14 0.5t13 0.5l-6 -62q-35 -11 -79 -11q-39 0 -58.5 15t-19.5 53q0 8 7 55l38 193l-67 -33v73l83 41l47 245
q-42 8 -79 8q-52 0 -80 -21t-39 -76l-10 -48h87l-14 -73h-87l-88 -456q-29 -149 -160 -149q-60 0 -107 30l24 59q37 -14 62 -14q64 0 78 75z" />
    <glyph glyph-name="f_thorn" unicode="f&#xfe;" horiz-adv-x="820" 
d="M561 709l-45 -230q-3 -16 -11 -46t-9 -36q28 48 70.5 79.5t90.5 31.5q61 0 93.5 -46.5t32.5 -116.5q0 -44 -7.5 -88.5t-28 -94t-52 -86.5t-86 -61.5t-123.5 -24.5l-64 5l-33 -168h-102l157 808q-42 8 -80 8q-52 0 -80.5 -22t-38.5 -75l-10 -48h90l-14 -73h-90l-88 -456
q-29 -149 -160 -149q-60 0 -107 30l24 59q37 -14 62 -14q64 0 78 75l88 455h-72l14 73h73l8 45q18 92 68 134t144 42q50 0 108 -10h100zM677 329q0 97 -58 97q-44 0 -90 -60.5t-65 -157.5l-26 -133q31 -10 67 -10q48 0 84 29.5t53.5 74t26 85.5t8.5 75z" />
    <glyph glyph-name="f_f_thorn" unicode="ff&#xfe;" horiz-adv-x="1104" 
d="M571 -173l158 808q-42 8 -80 8q-52 0 -80.5 -22t-39.5 -75l-9 -48h89l-14 -73h-89l-87 -448q-29 -150 -158 -150q-58 0 -103 26l24 61q31 -11 57 -11q63 0 77 74l87 448h-182l-88 -456q-29 -149 -160 -149q-60 0 -107 30l24 59q37 -14 62 -14q64 0 78 75l88 455h-71
l13 73h73l11 64q29 149 158 149q57 0 103 -25l-24 -62q-31 11 -57 11q-63 0 -77 -74l-12 -63h182l9 45q18 92 68 134t143 42q51 0 109 -10h100l-45 -230q-7 -38 -21 -82q28 47 71 79t91 32q61 0 93.5 -46.5t32.5 -116.5q0 -44 -7.5 -88.5t-28 -94t-52 -86.5t-86 -61.5
t-123.5 -24.5l-64 5l-33 -168h-103zM961 329q0 97 -58 97q-44 0 -90 -60.5t-65 -157.5l-25 -133q31 -10 66 -10q48 0 84 29.5t54 74t26 85t8 75.5z" />
    <glyph glyph-name=".notdef" horiz-adv-x="550" 
d="M300 150h-150v250h50v-200h100v-50zM500 50h-450v450h450v-450zM350 350h-100v50h150v-250h-50v100h-100v50h100v50zM100 100h350v350h-350v-350z" />
    <glyph glyph-name=".null" horiz-adv-x="0" 
 />
    <glyph glyph-name="nonmarkingreturn" horiz-adv-x="333" 
 />
    <glyph glyph-name="CR" unicode="&#xd;" horiz-adv-x="0" 
 />
    <glyph glyph-name="space" unicode=" " horiz-adv-x="240" 
 />
    <glyph glyph-name="exclam" unicode="!" horiz-adv-x="364" 
d="M350 675l-118 -513h-89l81 513h126zM158 -7q-33 0 -46 8.5t-13 30.5q0 45 18 61q15 16 57 16q32 0 45 -9t13 -31q0 -43 -17 -60q-16 -16 -57 -16z" />
    <glyph glyph-name="quotedbl" unicode="&#x22;" horiz-adv-x="451" 
d="M259 675l-62 -258h-78l39 258h101zM451 675l-62 -258h-78l39 258h101z" />
    <glyph glyph-name="numbersign" unicode="#" horiz-adv-x="510" 
d="M471 205h-107l-63 -205h-80l64 205h-113l-64 -205h-79l63 205h-74l13 66h81l51 162h-101l13 65h108l54 177h80l-55 -177h113l55 177h79l-55 -177h74l-13 -65h-81l-50 -162h100zM305 271l50 162h-113l-50 -162h113z" />
    <glyph glyph-name="dollar" unicode="$" 
d="M232 3l-29 -109h-62l14 109q-87 9 -145 54l37 56q60 -36 137 -36q68 0 105.5 29.5t37.5 76.5q0 31 -24 56t-57.5 44t-67.5 40t-58 56t-24 80q0 68 49 120t135 62l27 105h62l-12 -104q77 -9 123 -46l-33 -55q-52 30 -120 30q-53 0 -88 -25.5t-35 -71.5q0 -31 24.5 -55.5
t59 -43t69 -39.5t59 -55.5t24.5 -80.5q0 -79 -57.5 -133t-150.5 -64z" />
    <glyph glyph-name="percent" unicode="%" horiz-adv-x="699" 
d="M219 367q-63 0 -90.5 26t-27.5 80q0 48 15.5 93.5t57.5 82t103 36.5q62 0 90 -26t28 -80q0 -48 -15.5 -93.5t-57.5 -82t-103 -36.5zM315 571q0 55 -48 55q-25 0 -43.5 -16t-27 -41t-12.5 -47t-4 -41q0 -55 49 -55q32 0 53 29t27 59t6 57zM702 660l-623 -679l-51 34
l623 679zM453 -10q-63 0 -90.5 26t-27.5 80q0 33 9.5 67.5t28.5 68t55 55t82 21.5q63 0 90.5 -26t27.5 -80q0 -34 -9.5 -69t-28.5 -68.5t-54.5 -54t-82.5 -20.5zM549 194q0 55 -48 55q-25 0 -43.5 -16t-27 -41t-12.5 -47t-4 -41q0 -29 11.5 -42t37.5 -13q32 0 53 29t27 59
t6 57z" />
    <glyph glyph-name="ampersand" unicode="&#x26;" horiz-adv-x="688" 
d="M613 67l-13 -64q-27 -12 -57 -12q-45 0 -120 69q-100 -69 -218 -69q-91 0 -134.5 41t-43.5 102q0 54 24.5 99.5t56.5 73.5t81 58q-42 81 -42 137q0 31 10.5 61t33 58t65.5 45.5t101 17.5q72 0 109.5 -30t37.5 -75q0 -41 -15 -74.5t-48 -62t-58 -44.5t-72 -42
q40 -65 99 -135q20 -26 30 -37q71 91 90 195h98q-27 -143 -132 -256q56 -56 86 -56h31zM230 64q71 0 140 51l-40 48q-70 86 -105 141q-96 -68 -96 -155q0 -40 25.5 -62.5t75.5 -22.5zM247 519q0 -42 31 -104q63 36 96 70t33 80q0 53 -64 53q-44 0 -70 -30.5t-26 -68.5z" />
    <glyph glyph-name="quotesingle" unicode="'" horiz-adv-x="320" 
d="M294 675l-62 -258h-75l39 258h98z" />
    <glyph glyph-name="parenleft" unicode="(" horiz-adv-x="310" 
d="M189 -151l-72 -21q-61 130 -61 296q0 152 58.5 308t173.5 294l66 -27q-97 -132 -150.5 -289t-53.5 -307q0 -137 39 -254z" />
    <glyph glyph-name="parenright" unicode=")" horiz-adv-x="310" 
d="M128 705l72 21q61 -127 61 -295q0 -151 -56.5 -306t-174.5 -297l-66 27q100 138 152 292.5t52 302.5q0 135 -40 255z" />
    <glyph glyph-name="asterisk" unicode="*" 
d="M490 459l-59 -82l-106 88l-4 -146h-95l37 146l-131 -88l-35 82l143 59l-127 60l60 82l105 -88l4 146h95l-36 -146l130 88l36 -82l-143 -60z" />
    <glyph glyph-name="plus" unicode="+" 
d="M459 261h-165l-36 -183h-87l35 183h-166l14 75h167l34 178h88l-35 -178h165z" />
    <glyph glyph-name="comma" unicode="," horiz-adv-x="304" 
d="M11 -155l-36 44q89 56 89 101q0 7 -8 19t-8 27q0 46 21 67q14 14 55 14q30 0 41.5 -10t11.5 -32q0 -62 -40.5 -124t-125.5 -106z" />
    <glyph glyph-name="hyphen" unicode="&#xad;" horiz-adv-x="235" 
d="M232 250h-205l16 78h205z" />
    <glyph glyph-name="hyphen" unicode="-" horiz-adv-x="235" 
d="M232 250h-205l16 78h205z" />
    <glyph glyph-name="period" unicode="." horiz-adv-x="290" 
d="M103 -9q-31 0 -43.5 8t-12.5 30q0 19 6 42t15 31q14 15 53 15q31 0 44 -8t13 -29q0 -18 -6.5 -41.5t-14.5 -32.5q-15 -15 -54 -15z" />
    <glyph glyph-name="slash" unicode="/" 
d="M576 709l-548 -813h-98l548 813h98z" />
    <glyph glyph-name="zero" unicode="0" 
d="M483 406q0 -78 -32 -189t-86 -165q-63 -62 -166 -62q-88 0 -131 39.5t-43 132.5q0 78 32.5 189t87.5 166q62 62 165 62q88 0 130.5 -40.5t42.5 -132.5zM213 69q47 0 79 31q37 37 61.5 142t24.5 164q0 51 -20.5 72.5t-63.5 21.5q-46 0 -79 -32q-37 -37 -61 -141t-24 -163
q0 -51 20.5 -73t62.5 -22z" />
    <glyph glyph-name="one" unicode="1" 
d="M402 0h-385l17 88h144l74 377l-137 -44l-11 70l191 78h88l-94 -481h129z" />
    <glyph glyph-name="two" unicode="2" 
d="M401 0h-401l14 78q211 149 274 212.5t63 130.5q0 72 -92 72q-65 0 -146 -26l-4 70q106 41 189 41q81 0 125.5 -35.5t44.5 -102.5q0 -84 -63.5 -155.5t-246.5 -196.5h260z" />
    <glyph glyph-name="three" unicode="3" 
d="M144 -112q-90 0 -180 42l19 62q80 -21 149 -21q49 0 84.5 15.5t53 40.5t25 50t7.5 52q0 83 -110 83h-75l15 80h70q72 0 107 41t35 92q0 70 -93 70q-69 0 -146 -25l-3 70q95 38 186 38q87 0 127.5 -35t40.5 -96q0 -64 -36.5 -116.5t-99.5 -72.5q95 -17 95 -123
q0 -31 -7 -62.5t-26.5 -65.5t-48.5 -59.5t-78 -42.5t-111 -17z" />
    <glyph glyph-name="four" unicode="4" 
d="M432 47h-74l-30 -151h-102l29 151h-273l18 87q150 230 307 435h153l-85 -435h74zM272 134l69 349h-2q-106 -138 -248 -349h181z" />
    <glyph glyph-name="five" unicode="5" 
d="M146 -112q-83 0 -181 43l20 61q74 -21 151 -21q48 0 83.5 15t55 40t28.5 53t9 58q0 45 -29.5 65t-91.5 20q-72 0 -143 -16l93 363h319l-17 -89h-235l-48 -182q44 7 85 7q176 0 176 -149q0 -46 -14 -90.5t-44 -85.5t-86.5 -66.5t-130.5 -25.5z" />
    <glyph glyph-name="six" unicode="6" 
d="M211 -9q-78 0 -121 42t-43 142q0 57 12.5 133.5t46.5 167.5t83 139q69 69 174 69q76 0 154 -36l-21 -61q-77 18 -128 18q-74 0 -120.5 -57t-74.5 -189q86 44 145 44q68 0 103.5 -35t35.5 -99q0 -33 -8 -69t-27 -74t-46 -67.5t-70 -48.5t-95 -19zM353 251q0 71 -77 71
q-47 0 -114 -34q-15 -75 -15 -116q0 -103 77 -103q44 0 75 33.5t42.5 72.5t11.5 76z" />
    <glyph glyph-name="seven" unicode="7" 
d="M509 489l-190 -289q-107 -161 -230 -312l-69 29l358 563h-296l17 89h426z" />
    <glyph glyph-name="eight" unicode="8" 
d="M196 -10q-90 0 -135 37.5t-45 100.5q0 67 38.5 119t125.5 98q-83 56 -83 136q0 35 12.5 68.5t38 65t74 51t112.5 19.5q85 0 128 -35.5t43 -95.5q0 -63 -37 -111.5t-123 -92.5q105 -62 105 -143q0 -88 -63 -152.5t-191 -64.5zM402 543q0 68 -88 68q-57 0 -86 -36t-29 -79
q0 -55 75 -103q73 39 100.5 72t27.5 78zM345 182q0 36 -24.5 63t-75.5 57q-72 -41 -99 -78.5t-27 -81.5q0 -77 98 -77q56 0 92 35t36 82z" />
    <glyph glyph-name="nine" unicode="9" 
d="M299 579q164 0 164 -182q0 -106 -36.5 -239t-105.5 -201q-72 -71 -174 -71q-84 0 -166 38l18 60q84 -19 142 -19q74 0 121 58t76 189q-88 -45 -149 -45q-68 0 -102 34.5t-34 98.5q0 31 7.5 65.5t25.5 73t45 69.5t71 51t97 20zM157 319q0 -71 80 -71q46 0 112 35
q14 78 14 115q0 103 -79 103q-45 0 -75.5 -35.5t-41 -74t-10.5 -72.5z" />
    <glyph glyph-name="colon" unicode=":" horiz-adv-x="306" 
d="M116 -3q-29 0 -41 8.5t-12 30.5q0 44 19 63q15 14 54 14q29 0 41.5 -8.5t12.5 -29.5q0 -43 -20 -63q-15 -15 -54 -15zM191 384q-29 0 -41 8.5t-12 29.5q0 42 19 63q17 15 54 15q29 0 41.5 -9t12.5 -30q0 -44 -20 -62q-14 -15 -54 -15z" />
    <glyph glyph-name="semicolon" unicode=";" horiz-adv-x="306" 
d="M24 -155l-35 42q88 55 88 99q0 7 -8 18.5t-8 26.5q0 44 20 64q14 14 54 14q28 0 39.5 -9.5t11.5 -31.5q0 -60 -39.5 -120t-122.5 -103zM190 384q-29 0 -41 8.5t-12 29.5q0 44 19 63q16 15 54 15q29 0 41.5 -9t12.5 -30q0 -44 -20 -62q-14 -15 -54 -15z" />
    <glyph glyph-name="less" unicode="&#x3c;" 
d="M429 141l-47 -75l-345 197l14 71l422 197l17 -78l-343 -156z" />
    <glyph glyph-name="equal" unicode="=" 
d="M471 357h-406l15 73h406zM435 167h-406l14 73h406z" />
    <glyph glyph-name="greater" unicode="&#x3e;" 
d="M463 263l-421 -197l-17 77l343 157l-282 156l46 75l345 -197z" />
    <glyph glyph-name="question" unicode="?" 
d="M492 552q0 -47 -19.5 -85t-48.5 -64.5t-59.5 -51t-56.5 -57t-34 -70.5l-14 -62h-89l11 72q6 42 28 78t48.5 61t53 48.5t44 51t17.5 57.5q0 33 -22 52t-65 19q-61 0 -125 -23l-16 65q95 41 179 41q83 0 125.5 -35.5t42.5 -96.5zM189 -7q-33 0 -46 8.5t-13 30.5q0 45 18 61
q15 16 57 16q32 0 45 -9t13 -31q0 -43 -17 -60q-16 -16 -57 -16z" />
    <glyph glyph-name="at" unicode="@" horiz-adv-x="1016" 
d="M950 460q0 -76 -24.5 -145t-69.5 -124t-116.5 -87.5t-157.5 -32.5h-52l23 98q-35 -47 -79.5 -76.5t-86.5 -29.5q-109 0 -109 124q0 58 18 113t53 101.5t94 74.5t133 28q88 0 156 -21l-104 -336q99 0 163 87.5t64 214.5q0 97 -55.5 146t-185.5 49q-90 0 -167 -29
t-131 -77.5t-92.5 -112.5t-56.5 -135t-18 -144q0 -125 62 -184t209 -59q121 0 257 53l13 -61q-141 -63 -289 -63q-347 0 -347 298q0 113 39.5 217t111 186.5t183 131.5t245.5 49q163 0 240 -67.5t77 -186.5zM385 201q0 -56 46 -56q38 0 83.5 51.5t69.5 128.5l30 95
q-24 7 -61 7q-42 0 -75.5 -21.5t-53 -55.5t-29.5 -72.5t-10 -76.5z" />
    <glyph glyph-name="A" unicode="A" horiz-adv-x="548" 
d="M484 0h-112q-6 117 -8 141h-235q-56 -138 -57 -141h-109q156 365 321 675h138q48 -345 62 -675zM163 222h201q-14 193 -34 354h-2q-90 -184 -165 -354z" />
    <glyph glyph-name="B" unicode="B" horiz-adv-x="555" 
d="M209 -2q-30 0 -90 1t-86 1l131 675h194q92 0 135.5 -35t43.5 -95t-35.5 -109t-96.5 -71q50 -10 79 -42t29 -82q0 -42 -16 -82t-49 -77.5t-95 -60.5t-144 -23zM396 229q0 86 -123 86h-72l-46 -235q32 -4 74 -4q48 0 82.5 15.5t52 40t25 49t7.5 48.5zM424 525q0 73 -93 73
h-75l-40 -207h61q73 0 110 43t37 91z" />
    <glyph glyph-name="C" unicode="C" horiz-adv-x="517" 
d="M419 148l39 -56q-92 -102 -213 -102q-95 0 -145 56t-50 164q0 46 7.5 96.5t23 104.5t42.5 102.5t61.5 87t84 61.5t107.5 23q125 0 164 -112l-58 -46q-34 71 -101 71q-68 0 -119 -63t-74 -145.5t-23 -163.5q0 -148 109 -148q74 0 145 70z" />
    <glyph glyph-name="D" unicode="D" horiz-adv-x="587" 
d="M568 447q0 -46 -10 -101.5t-41.5 -129t-79.5 -122.5q-99 -97 -247 -97q-30 0 -83.5 1.5t-73.5 1.5l131 675q31 0 83 0.5t79 0.5q124 0 183 -62.5t59 -166.5zM452 440q0 155 -141 155q-37 0 -54 -1l-100 -511q38 -2 53 -2q83 0 139 56q55 55 79 146t24 157z" />
    <glyph glyph-name="E" unicode="E" horiz-adv-x="473" 
d="M372 0h-339l131 675h335l-17 -84h-226l-39 -201h187l-16 -81h-187l-43 -224h229z" />
    <glyph glyph-name="F" unicode="F" horiz-adv-x="452" 
d="M477 592h-221l-41 -212h200l-15 -82h-201l-58 -298h-108l131 675h329z" />
    <glyph glyph-name="G" unicode="G" horiz-adv-x="574" 
d="M525 377l-60 -311q-106 -76 -223 -76q-93 0 -142.5 55.5t-49.5 167.5q0 113 37 218.5t103 170.5q81 83 193 83q119 0 177 -92l-53 -46q-57 52 -120 52q-62 0 -114 -50q-52 -52 -81 -146t-29 -185q0 -141 104 -141q54 0 99 29l38 191h-90l16 80h195z" />
    <glyph glyph-name="H" unicode="H" horiz-adv-x="658" 
d="M525 0h-108l59 308h-276l-59 -308h-108l131 675h108l-54 -276h276l54 276h108z" />
    <glyph glyph-name="I" unicode="I" horiz-adv-x="274" 
d="M141 0h-108l131 675h108z" />
    <glyph glyph-name="J" unicode="J" horiz-adv-x="280" 
d="M278 675l-116 -600q-18 -91 -53.5 -148.5t-103.5 -101.5l-47 47q40 38 60.5 85t34.5 119l117 599h108z" />
    <glyph glyph-name="K" unicode="K" horiz-adv-x="534" 
d="M464 0h-120l-139 323h-2l-62 -323h-108l131 675h108l-57 -294h2l243 294h120l-273 -313z" />
    <glyph glyph-name="L" unicode="L" horiz-adv-x="421" 
d="M354 0h-321l131 675h108l-114 -590h212z" />
    <glyph glyph-name="M" unicode="M" horiz-adv-x="844" 
d="M724 0h-113q54 310 74 544h-1l-275 -544h-89l-66 544h-1q-59 -209 -129 -544h-104q79 353 180 675h137l66 -502h1l259 502h140q-28 -367 -79 -675z" />
    <glyph glyph-name="N" unicode="N" horiz-adv-x="644" 
d="M511 0h-104l-135 388l-48 152h-1q-13 -97 -25 -160l-74 -380h-91l131 675h125l120 -343l49 -155h1q15 101 27 163l65 335h91z" />
    <glyph glyph-name="O" unicode="O" horiz-adv-x="639" 
d="M270 -10q-220 0 -220 222q0 81 20.5 161t60.5 151.5t109.5 116t157.5 44.5q221 0 221 -222q0 -83 -20 -163t-60 -150.5t-110 -114.5t-159 -45zM505 458q0 75 -29.5 109.5t-91.5 34.5q-47 0 -86 -28.5t-63 -71.5t-40.5 -97t-23.5 -101t-7 -87q0 -75 29.5 -109t91.5 -34
q47 0 86 28.5t63 71.5t40.5 96.5t23.5 100.5t7 87z" />
    <glyph glyph-name="P" unicode="P" horiz-adv-x="528" 
d="M548 516q0 -51 -15.5 -97t-49.5 -88.5t-99 -67.5t-154 -25h-43l-46 -238h-108l131 675q26 0 83 0.5t84 0.5q217 0 217 -160zM432 500q0 48 -29 72t-96 24h-51l-53 -277h46q52 0 90 17.5t57 46t27.5 58t8.5 59.5z" />
    <glyph glyph-name="Q" unicode="Q" horiz-adv-x="639" 
d="M627 -116l-44 -44q-33 21 -75 25.5t-76.5 2t-68.5 1.5t-61.5 33.5t-44.5 88.5q-207 5 -207 221q0 81 20.5 161t60.5 151.5t109.5 116t157.5 44.5q221 0 221 -222q0 -109 -30.5 -206.5t-98 -170.5t-160.5 -90q20 -32 49.5 -44t60.5 -10.5t63 2.5t65 -12.5t59 -47.5z
M505 458q0 75 -29.5 109.5t-91.5 34.5q-47 0 -86 -28.5t-63 -71.5t-40.5 -97t-23.5 -101t-7 -87q0 -75 29.5 -109t91.5 -34q47 0 86 28.5t63 71.5t40.5 96.5t23.5 100.5t7 87z" />
    <glyph glyph-name="R" unicode="R" horiz-adv-x="554" 
d="M489 0h-123l-117 286h-52l-56 -286h-108l131 675q116 2 176 2q215 0 215 -153q0 -76 -50.5 -140.5t-148.5 -79.5zM440 515q0 81 -120 81h-64l-44 -229h70q43 0 75.5 14t49.5 37.5t25 47.5t8 49z" />
    <glyph glyph-name="S" unicode="S" horiz-adv-x="494" 
d="M189 -9q-108 0 -187 60l34 58q80 -37 143 -37q67 0 107.5 33t40.5 89q0 33 -24 59t-58 45.5t-68 40.5t-58 56.5t-24 81.5q0 89 65 148t170 59q97 0 164 -50l-33 -58q-56 28 -122 28q-60 0 -94.5 -30.5t-34.5 -77.5q0 -33 24.5 -59t59.5 -45.5t70.5 -41t60 -57t24.5 -82.5
q0 -95 -71.5 -157.5t-188.5 -62.5z" />
    <glyph glyph-name="T" unicode="T" horiz-adv-x="466" 
d="M515 590h-164l-114 -590h-108l114 590h-164l17 85h436z" />
    <glyph glyph-name="U" unicode="U" horiz-adv-x="652" 
d="M651 675l-85 -436q-49 -249 -293 -249q-204 0 -204 169q0 39 9 84l85 432h108l-83 -426q-9 -48 -9 -75q0 -55 27 -79t85 -24q68 0 109.5 38t58.5 129l86 437h106z" />
    <glyph glyph-name="V" unicode="V" horiz-adv-x="535" 
d="M492 675h110q-149 -372 -319 -675h-129q-53 344 -59 675h114q2 -269 35 -564h2q128 254 246 564z" />
    <glyph glyph-name="W" unicode="W" horiz-adv-x="856" 
d="M813 675h105q-142 -355 -302 -675h-115l-24 402l-1 101h-2l-40 -102l-171 -401h-122q-37 319 -41 675h113q0 -140 21 -539h1l30 79l198 460h102l24 -454l2 -85h2q148 347 220 539z" />
    <glyph glyph-name="X" unicode="X" horiz-adv-x="546" 
d="M475 0h-116q-41 155 -89 269h-1q-91 -113 -188 -269h-112q115 187 253 356q-66 165 -105 319h113q42 -160 76 -242h1q82 101 170 242h110q-106 -172 -230 -319q78 -190 118 -356z" />
    <glyph glyph-name="Y" unicode="Y" horiz-adv-x="486" 
d="M457 675h113q-147 -246 -267 -387l-56 -288h-108l56 288q-70 164 -117 387h116q34 -169 78 -289h2q76 97 183 289z" />
    <glyph glyph-name="Z" unicode="Z" horiz-adv-x="488" 
d="M402 0h-416l13 74l373 515h-259l19 86h390l-14 -72l-373 -516h286z" />
    <glyph glyph-name="bracketleft" unicode="[" horiz-adv-x="357" 
d="M209 -173h-182l177 912h182l-12 -65h-94l-152 -782h94z" />
    <glyph glyph-name="backslash" unicode="\" 
d="M429 -104h-87l-244 813h87z" />
    <glyph glyph-name="bracketright" unicode="]" horiz-adv-x="357" 
d="M162 -173h-183l13 65h93l153 782h-94l12 65h183z" />
    <glyph glyph-name="asciicircum" unicode="^" 
d="M494 394l-84 -30l-87 260l-188 -260l-75 30l235 315h85z" />
    <glyph glyph-name="underscore" unicode="_" 
d="M415 -177h-499l15 77h499z" />
    <glyph glyph-name="grave" unicode="`" horiz-adv-x="324" 
d="M327 586l-54 -28l-131 124l78 40z" />
    <glyph glyph-name="a" unicode="a" horiz-adv-x="524" 
d="M33 153q0 44 7.5 88.5t28 94t52 86.5t86 61.5t123.5 24.5q36 0 77 -4.5t64 -9.5l23 -4l-95 -490h-85l15 109q-30 -53 -75.5 -86t-93.5 -33q-62 0 -94.5 46.5t-32.5 116.5zM139 169q0 -97 58 -97q44 0 90 60.5t65 157.5l26 133q-31 10 -67 10q-39 0 -70 -20t-49.5 -49.5
t-31 -67t-17 -69t-4.5 -58.5z" />
    <glyph glyph-name="b" unicode="b" horiz-adv-x="524" 
d="M191 -10q-37 0 -78 4.5t-63 9.5l-23 4l135 701h103l-44 -230q-3 -16 -21 -82q28 47 71 79t91 32q61 0 93.5 -46.5t32.5 -116.5q0 -44 -7.5 -88.5t-28 -94t-52 -86.5t-86 -61.5t-123.5 -24.5zM381 329q0 97 -58 97q-44 0 -90 -60.5t-65 -157.5l-26 -133q32 -10 67 -10
q48 0 84 29.5t54 74t26 85t8 75.5z" />
    <glyph glyph-name="c" unicode="c" horiz-adv-x="425" 
d="M339 118l27 -54q-82 -73 -173 -73q-159 0 -159 171q0 50 14 106t42 112t80.5 92t119.5 36q92 0 135 -62l-44 -53q-36 37 -86 37q-42 0 -74 -30t-48.5 -74.5t-24 -85t-7.5 -72.5q0 -98 82 -98q58 0 116 48z" />
    <glyph glyph-name="d" unicode="d" horiz-adv-x="524" 
d="M399 0h-85l15 104q-31 -50 -76.5 -82t-92.5 -32q-62 0 -94.5 46.5t-32.5 116.5q0 44 7.5 88.5t28 94t52 86.5t86 61.5t123.5 24.5l64 -5l40 206h103zM139 169q0 -97 58 -97q44 0 90 60.5t65 157.5l26 133q-31 10 -67 10q-39 0 -70 -20t-49.5 -49.5t-31 -67t-17 -69
t-4.5 -58.5z" />
    <glyph glyph-name="e" unicode="e" horiz-adv-x="484" 
d="M382 100l7 -62q-89 -48 -182 -48q-174 0 -174 170q0 30 5 67t22.5 89t45 92.5t79 70t118.5 29.5q69 0 110.5 -32t41.5 -86q0 -159 -310 -159q-8 -35 -8 -65q0 -96 97 -96q69 0 148 30zM356 383q0 54 -67 54q-48 0 -81.5 -39t-49.5 -101q80 0 125.5 12t59 29.5t13.5 44.5z
" />
    <glyph glyph-name="f" unicode="f" horiz-adv-x="299" 
d="M335 498l-14 -73h-100l-88 -456q-29 -149 -160 -149q-60 0 -107 30l24 59q35 -14 61 -14q34 0 53 17.5t26 57.5l88 455h-72l14 73h72l14 72q29 149 160 149q59 0 107 -31l-24 -59q-33 14 -61 14q-65 0 -79 -74l-14 -71h100z" />
    <glyph glyph-name="g" unicode="g" horiz-adv-x="524" 
d="M494 490l-95 -489q-20 -101 -77.5 -141t-152.5 -40q-82 0 -164 35l17 58q93 -15 146 -15q59 0 88.5 22t39.5 76l9 49q3 14 19 76q-27 -47 -70.5 -79.5t-89.5 -32.5q-63 0 -96 44.5t-33 118.5q0 41 8 83.5t28.5 89t52.5 82t85.5 58.5t120.5 23q37 0 78 -4.5t64 -9.5z
M142 182q0 -92 59 -92q43 0 89 59.5t64 150.5l24 123q-31 10 -67 10q-45 0 -79.5 -26t-53 -66t-27.5 -81t-9 -78z" />
    <glyph glyph-name="h" unicode="h" horiz-adv-x="541" 
d="M416 0h-102q12 64 26.5 132.5t22 102.5t12.5 65.5t5 51.5q0 72 -55 72q-46 0 -92.5 -61.5t-64.5 -154.5l-40 -208h-103l138 709h103l-45 -230q-9 -48 -21 -82q28 47 71.5 79t92.5 32q120 0 120 -136q0 -35 -8 -79t-27 -132t-33 -161z" />
    <glyph glyph-name="i" unicode="i" horiz-adv-x="253" 
d="M128 0h-103l96 498h103zM191 580q-31 0 -44 7t-13 26q0 14 5.5 35t13.5 29q15 15 54 15q32 0 45 -7.5t13 -26.5q0 -14 -5.5 -34.5t-13.5 -28.5q-14 -15 -55 -15z" />
    <glyph glyph-name="j" unicode="j" horiz-adv-x="253" 
d="M224 498l-88 -456q-14 -74 -47 -125t-97 -97l-61 36q79 72 99 170l91 472h103zM191 580q-31 0 -44 7t-13 26q0 14 5.5 35t13.5 29q15 15 54 15q32 0 45 -7.5t13 -26.5q0 -14 -5.5 -34.5t-13.5 -28.5q-14 -15 -55 -15z" />
    <glyph glyph-name="k" unicode="k" horiz-adv-x="473" 
d="M409 0h-118l-111 253h-3l-49 -253h-103l138 709h102l-81 -415h4l177 204h123l-209 -220z" />
    <glyph glyph-name="l" unicode="l" horiz-adv-x="271" 
d="M203 66l-6 -62q-35 -11 -79 -11q-40 0 -59 15t-19 53q0 21 7 55l115 593h103l-110 -572q-7 -32 -7 -47t6 -20t22 -5q5 0 14.5 0.5t12.5 0.5z" />
    <glyph glyph-name="m" unicode="m" horiz-adv-x="818" 
d="M693 0h-103q12 62 27 132t22 103t12 65t5 52q0 72 -51 72q-43 0 -88.5 -60t-64.5 -156l-41 -208h-103l47 236q17 88 17 116q0 72 -51 72q-43 0 -88.5 -60t-64.5 -156l-40 -208h-103l97 498h85l-15 -104q31 50 75 82t93 32q104 0 113 -116q32 52 76.5 84t93.5 32
q118 0 118 -136q0 -35 -8 -79t-27 -132t-33 -161z" />
    <glyph glyph-name="n" unicode="n" horiz-adv-x="541" 
d="M325 424q-46 0 -92.5 -61.5t-64.5 -154.5l-40 -208h-103l97 498h85l-15 -104q31 50 76 82t96 32q120 0 120 -136q0 -35 -8 -79t-27 -132t-33 -161h-102q12 64 26.5 132.5t22 102.5t12.5 65.5t5 51.5q0 72 -55 72z" />
    <glyph glyph-name="o" unicode="o" horiz-adv-x="530" 
d="M210 -10q-175 0 -175 172q0 41 6.5 83t25.5 91t49 85.5t81.5 61.5t118.5 25q176 0 176 -172q0 -41 -6.5 -83t-26 -90.5t-49.5 -85.5t-81.5 -62t-118.5 -25zM387 333q0 51 -21.5 74.5t-66.5 23.5t-78.5 -30t-50 -75.5t-24 -86.5t-7.5 -74q0 -51 21.5 -74.5t66.5 -23.5
q37 0 66 20.5t46 51t28.5 68.5t15.5 69t4 57z" />
    <glyph glyph-name="p" unicode="p" horiz-adv-x="524" 
d="M488 345q0 -44 -7.5 -88.5t-28 -94t-52 -86.5t-86 -61.5t-123.5 -24.5l-64 5l-33 -168h-103l131 671h85l-15 -104q31 50 76 82t93 32q62 0 94.5 -46.5t32.5 -116.5zM381 329q0 97 -58 97q-44 0 -90 -60.5t-65 -157.5l-25 -133q31 -10 66 -10q48 0 84 29.5t54 74t26 85
t8 75.5z" />
    <glyph glyph-name="q" unicode="q" horiz-adv-x="524" 
d="M330 508q37 0 78 -4.5t64 -9.5l22 -4l-129 -663h-103l38 193l20 81q-28 -48 -70.5 -79.5t-90.5 -31.5q-61 0 -93.5 46.5t-32.5 116.5q0 44 7.5 88.5t28 94t52 86.5t86 61.5t123.5 24.5zM139 169q0 -97 58 -97q44 0 90 60.5t65 157.5l26 133q-31 10 -67 10q-39 0 -70 -20
t-49.5 -49.5t-31 -67t-17 -69t-4.5 -58.5z" />
    <glyph glyph-name="r" unicode="r" horiz-adv-x="357" 
d="M381 496l-25 -92q-24 7 -43 7q-39 0 -82.5 -53t-62.5 -151l-40 -207h-103l97 498h84l-15 -111q27 52 66.5 86t81.5 34q23 0 42 -11z" />
    <glyph glyph-name="s" unicode="s" horiz-adv-x="408" 
d="M139 -9q-85 0 -148 38l19 55q69 -19 119 -19q52 0 82 21.5t30 60.5q0 24 -19 40.5t-46 28.5t-54.5 25.5t-46.5 39.5t-19 63q0 68 50 115.5t144 47.5q73 0 128 -32l-20 -55q-50 15 -95 15q-43 0 -70 -19.5t-27 -55.5q0 -22 19.5 -38t47 -27.5t54.5 -25.5t46.5 -41
t19.5 -65q0 -77 -58.5 -124.5t-155.5 -47.5z" />
    <glyph glyph-name="t" unicode="t" horiz-adv-x="347" 
d="M277 83l3 -62q-66 -30 -120 -30t-79.5 21t-25.5 66q0 26 6 58l57 289h-72l14 73h75q30 71 53 144h75l-28 -144h123l-15 -73h-123l-52 -270q-7 -31 -7 -49q0 -37 44 -37q30 0 72 14z" />
    <glyph glyph-name="u" unicode="u" horiz-adv-x="541" 
d="M512 498l-96 -498h-86l16 104q-32 -51 -77 -82.5t-95 -31.5q-121 0 -121 136q0 35 8 79t27 132t33 161h102q-12 -63 -26.5 -132t-21.5 -102.5t-12 -65.5t-5 -52q0 -73 55 -73q46 0 92 62t64 155l40 208h103z" />
    <glyph glyph-name="v" unicode="v" horiz-adv-x="471" 
d="M385 498h111q-100 -274 -250 -498h-127l-57 498h108l36 -306l2 -92h2q100 171 175 398z" />
    <glyph glyph-name="w" unicode="w" horiz-adv-x="744" 
d="M663 498h103q-80 -231 -232 -498h-115l-25 308v70h-2l-26 -70l-133 -308h-124l-42 498h108l20 -296l2 -94h2l32 83l130 307h116l24 -315l1 -75h2q101 208 159 390z" />
    <glyph glyph-name="x" unicode="x" horiz-adv-x="475" 
d="M405 0h-115l-67 203h-2q-80 -114 -136 -203h-115l200 266l-82 232h114l50 -173h2q58 78 113 173h111l-172 -227z" />
    <glyph glyph-name="y" unicode="y" horiz-adv-x="471" 
d="M384 498h111q-60 -160 -121 -282.5t-111.5 -195.5t-101 -119t-89.5 -62.5t-77 -16.5q-36 0 -70 17l11 61q18 -3 46 -3q58 0 98 40q37 39 37 91q0 53 -9 120l-46 350h107l32 -270q12 -90 -1 -155h2q45 77 96.5 197.5t85.5 227.5z" />
    <glyph glyph-name="z" unicode="z" horiz-adv-x="400" 
d="M328 79l-18 -79h-324l12 65l260 356h-182l18 77h302l-12 -64l-261 -355h205z" />
    <glyph glyph-name="braceleft" unicode="{" horiz-adv-x="388" 
d="M227 -173h-45q-68 0 -91 33.5t-11 97.5l41 208q7 40 -3 62t-47 22h-25l15 76h25q65 0 81 81l39 202q25 130 157 130h42l-13 -62h-28q-55 0 -68 -68l-35 -178q-24 -125 -114 -142q82 -20 58 -145l-36 -187q-8 -37 1.5 -52.5t41.5 -15.5h28z" />
    <glyph glyph-name="bar" unicode="|" horiz-adv-x="252" 
d="M87 -173h-91l180 926h91z" />
    <glyph glyph-name="braceright" unicode="}" horiz-adv-x="388" 
d="M170 739h45q127 0 102 -131l-39 -198q-7 -40 3 -62t46 -22h26l-15 -76h-25q-66 0 -82 -81l-40 -212q-25 -130 -157 -130h-42l12 62h28q56 0 69 68l36 188q13 65 40.5 99t74.5 43q-83 20 -59 145l35 177q8 37 -1.5 52.5t-41.5 15.5h-28z" />
    <glyph glyph-name="asciitilde" unicode="~" 
d="M535 605l-3 -18q-13 -68 -56 -109.5t-106 -41.5q-38 0 -63.5 16.5t-35.5 36.5t-24.5 36.5t-32.5 16.5q-56 0 -71 -88h-80l3 17q14 69 57 110t104 41q38 0 63.5 -16.5t35.5 -36.5t24.5 -36.5t33.5 -16.5q55 0 71 89h80z" />
    <glyph glyph-name="uni00A0" unicode="&#xa0;" horiz-adv-x="240" 
 />
    <glyph glyph-name="exclamdown" unicode="&#xa1;" horiz-adv-x="364" 
d="M23 -104l119 513h89l-82 -513h-126zM216 578q33 0 46 -8.5t13 -30.5q0 -45 -18 -61q-15 -16 -57 -16q-32 0 -45 9t-13 31q0 43 17 60q16 16 57 16z" />
    <glyph glyph-name="cent" unicode="&#xa2;" 
d="M390 226l27 -54q-64 -52 -136 -63l-30 -112h-63l13 110q-64 7 -99 49.5t-35 110.5q0 64 21.5 126.5t75 114.5t128.5 63l28 106h63l-13 -107q61 -12 97 -56l-42 -53q-41 38 -94 38q-72 0 -114 -66.5t-42 -151.5q0 -101 89 -101q63 0 126 46z" />
    <glyph glyph-name="sterling" unicode="&#xa3;" 
d="M406 0h-415l14 69q63 54 91 107.5t33 128.5h-87l14 70h75q-2 28 -2 46q0 53 10.5 97t35 82.5t70 60.5t108.5 22q92 0 162 -40l-21 -57q-65 19 -122 19q-72 0 -102.5 -44t-30.5 -140v-46h173l-14 -70h-162q-6 -74 -29.5 -125t-77.5 -97h292z" />
    <glyph glyph-name="currency" unicode="&#xa4;" 
d="M431 55l-74 -42l-46 83q-47 -24 -103 -24q-46 0 -77 21l-75 -80l-63 46l83 73q-15 30 -15 69q0 53 18 105t51 86l-58 78l74 41l47 -82q43 23 101 23q48 0 78 -21l76 80l62 -46l-84 -74q16 -29 16 -69q0 -115 -69 -188zM350 316q0 40 -17.5 58t-54.5 18q-38 0 -65 -20.5
t-39 -52.5t-17 -59t-5 -52q0 -76 72 -76q38 0 65 20t39 51.5t17 59t5 53.5z" />
    <glyph glyph-name="yen" unicode="&#xa5;" 
d="M447 308l-13 -69h-137l-15 -78h136l-13 -69h-136l-18 -92h-102l17 92h-136l13 69h136l16 78h-137l14 69h136l4 19q-67 146 -121 348h112q36 -161 81 -267q75 89 178 267h110q-127 -196 -257 -348l-4 -19h136z" />
    <glyph glyph-name="brokenbar" unicode="&#xa6;" horiz-adv-x="252" 
d="M87 -173h-89l72 372h89zM191 365h-89l76 391h89z" />
    <glyph glyph-name="section" unicode="&#xa7;" horiz-adv-x="504" 
d="M450 185q0 -81 -48 -166t-122 -140t-143 -55q-68 0 -115 34l27 59q45 -17 91 -17t71 28t25 69q0 25 -18 52t-44 53.5t-52.5 56.5t-44.5 72.5t-18 89.5q0 62 29 128.5t73.5 117t100.5 83.5t107 33q65 0 108 -30l-28 -59q-41 13 -83 13q-47 0 -70.5 -29.5t-23.5 -66.5
q0 -30 28 -66t61 -67t61 -83t28 -110zM359 164q0 37 -16.5 71t-40.5 60.5t-47.5 51.5t-40 53t-16.5 56q0 23 17 51q-67 -76 -67 -163q0 -37 16.5 -71.5t40.5 -61t48 -52t40.5 -54t16.5 -56.5q0 -24 -18 -53q67 77 67 168z" />
    <glyph glyph-name="dieresis" unicode="&#xa8;" horiz-adv-x="421" 
d="M435 654q0 -39 -17 -54q-12 -13 -44 -13q-25 0 -36 7.5t-11 25.5q0 37 17 54q13 13 45 13q46 0 46 -33zM240 654q0 -39 -17 -54q-12 -13 -44 -13q-25 0 -36 7.5t-11 25.5q0 39 17 54q13 13 44 13q25 0 36 -7.5t11 -25.5z" />
    <glyph glyph-name="copyright" unicode="&#xa9;" horiz-adv-x="774" 
d="M483 243l22 -46q-67 -51 -137 -51q-63 0 -97 35t-34 103q0 61 21.5 116t70 94t113.5 39q69 0 110 -47l-40 -44q-26 26 -65 26q-52 0 -83 -58t-31 -121q0 -78 63 -78q40 0 87 32zM356 -12q-136 0 -220.5 85t-84.5 214q0 102 51.5 193.5t144 148.5t200.5 57q136 0 221 -85
t85 -214q0 -102 -52 -193.5t-144.5 -148.5t-200.5 -57zM675 379q0 103 -64.5 173t-169.5 70q-130 0 -221.5 -99t-91.5 -228q0 -103 64.5 -173t169.5 -70q130 0 221.5 99t91.5 228z" />
    <glyph glyph-name="ordfeminine" unicode="&#xaa;" horiz-adv-x="464" 
d="M364 207h-304l12 61h304zM384 339h-71l14 81q-25 -40 -60.5 -64.5t-68.5 -24.5q-48 0 -74 32t-26 91q0 45 12 88.5t37 83.5t72 65t110 25q54 0 126 -13zM343 568l16 83q-17 7 -48 7q-36 0 -62.5 -21t-39.5 -53.5t-18.5 -62.5t-5.5 -56q0 -69 41 -69q32 0 67 47.5
t50 124.5z" />
    <glyph glyph-name="guillemotleft" unicode="&#xab;" horiz-adv-x="506" 
d="M210 118l-70 -22l-91 199l163 196l66 -27l-127 -171zM406 126l-68 -21l-87 190l156 188l63 -26l-117 -164z" />
    <glyph glyph-name="logicalnot" unicode="&#xac;" 
d="M420 126h-85l26 135h-322l15 75h407z" />
    <glyph glyph-name="registered" unicode="&#xae;" horiz-adv-x="567" 
d="M560 511q0 -101 -73 -178.5t-183 -77.5q-93 0 -153 58.5t-60 144.5q0 101 73.5 178t183.5 77q93 0 152.5 -58.5t59.5 -143.5zM499 505q0 67 -44 112.5t-111 45.5q-79 0 -135.5 -58.5t-56.5 -141.5q0 -66 44 -111.5t111 -45.5q79 0 135.5 58t56.5 141zM425 550
q0 -57 -59 -82l33 -98h-58l-25 93h-20l-17 -93h-53l45 235q17 0 44 0.5t35 0.5q36 0 55.5 -15t19.5 -41zM371 547q0 21 -30 21h-24l-13 -68h23q19 0 31.5 12.5t12.5 34.5z" />
    <glyph glyph-name="macron" unicode="&#x2c9;" horiz-adv-x="391" 
d="M395 596h-270l14 73h270z" />
    <glyph glyph-name="macron" unicode="&#xaf;" horiz-adv-x="391" 
d="M395 596h-270l14 73h270z" />
    <glyph glyph-name="degree" unicode="&#xb0;" horiz-adv-x="450" 
d="M432 590q0 -69 -42.5 -118.5t-127.5 -49.5q-126 0 -126 105q0 69 44 118.5t129 49.5q123 0 123 -105zM350 584q0 25 -11.5 37t-39.5 12q-42 0 -61.5 -28t-19.5 -72q0 -48 53 -48q79 0 79 99z" />
    <glyph glyph-name="plusminus" unicode="&#xb1;" 
d="M407 0h-415l13 71h415zM467 311h-165l-34 -172h-85l34 172h-165l13 71h166l33 168h85l-33 -168h164z" />
    <glyph glyph-name="twosuperior" unicode="&#xb2;" horiz-adv-x="351" 
d="M335 359h-276l12 63q126 86 170 127.5t44 80.5q0 38 -56 38q-29 0 -96 -19l-6 54q79 27 135 27t86.5 -23.5t30.5 -62.5q0 -53 -51 -105t-155 -111l-1 -2h175z" />
    <glyph glyph-name="threesuperior" unicode="&#xb3;" horiz-adv-x="350" 
d="M361 482q0 -20 -7.5 -40t-25.5 -42t-56 -35.5t-92 -13.5q-62 0 -125 23l16 46q61 -11 100 -11q52 0 74 19.5t22 47.5q0 43 -77 43h-50l11 57h54q43 0 63 16.5t20 40.5q0 39 -60 39q-38 0 -90 -14l-6 49q64 23 123 23q66 0 96 -23.5t30 -58.5t-23.5 -60.5t-62.5 -34.5
q66 -14 66 -71z" />
    <glyph glyph-name="acute" unicode="&#xb4;" horiz-adv-x="324" 
d="M345 676l-172 -118l-49 32l152 132z" />
    <glyph glyph-name="mu" unicode="&#x3bc;" horiz-adv-x="561" 
d="M419 -9q-47 0 -62.5 28t-7.5 82q-70 -107 -154 -107q-58 0 -72 48q-25 -194 -29 -215h-103l130 671h103l-55 -281q-8 -46 -9 -72q-2 -71 58 -71q46 0 92 62t64 155l40 207h103l-48 -244q-12 -63 -17.5 -99t-4 -56t7 -25.5t18.5 -5.5q18 0 39 6l-3 -61q-42 -22 -90 -22z
" />
    <glyph glyph-name="mu" unicode="&#xb5;" horiz-adv-x="561" 
d="M419 -9q-47 0 -62.5 28t-7.5 82q-70 -107 -154 -107q-58 0 -72 48q-25 -194 -29 -215h-103l130 671h103l-55 -281q-8 -46 -9 -72q-2 -71 58 -71q46 0 92 62t64 155l40 207h103l-48 -244q-12 -63 -17.5 -99t-4 -56t7 -25.5t18.5 -5.5q18 0 39 6l-3 -61q-42 -22 -90 -22z
" />
    <glyph glyph-name="paragraph" unicode="&#xb6;" horiz-adv-x="632" 
d="M474 -104h-82l138 712h-96l-139 -712h-82l77 394q-1 0 -13.5 -1.5t-18.5 -1.5q-70 0 -113.5 43.5t-43.5 110.5q0 96 64 165t181 69h279z" />
    <glyph glyph-name="periodcentered" unicode="&#x2219;" horiz-adv-x="267" 
d="M132 236q-30 0 -42.5 8t-12.5 29q0 19 6 41t14 31q17 15 54 15q31 0 43.5 -8t12.5 -29q0 -19 -6 -41t-15 -31q-15 -15 -54 -15z" />
    <glyph glyph-name="periodcentered" unicode="&#xb7;" horiz-adv-x="267" 
d="M132 236q-30 0 -42.5 8t-12.5 29q0 19 6 41t14 31q17 15 54 15q31 0 43.5 -8t12.5 -29q0 -19 -6 -41t-15 -31q-15 -15 -54 -15z" />
    <glyph glyph-name="cedilla" unicode="&#xb8;" horiz-adv-x="259" 
d="M47 -43h89q0 -83 -97 -138l-55 27q35 29 48.5 52.5t14.5 58.5z" />
    <glyph glyph-name="onesuperior" unicode="&#xb9;" horiz-adv-x="339" 
d="M323 359h-255l12 63h87l45 227l-82 -22l-3 51l120 46h69l-59 -302h79z" />
    <glyph glyph-name="ordmasculine" unicode="&#xba;" horiz-adv-x="435" 
d="M229 333q-63 0 -101 32.5t-38 101.5q0 36 10 75.5t32.5 80t66 66.5t101.5 26q63 0 102 -34.5t39 -102.5q0 -30 -6 -61t-22 -64.5t-39 -59.5t-60.5 -43t-84.5 -17zM355 207h-300l12 61h300zM353 579q0 73 -63 73q-32 0 -55.5 -20t-35 -51t-16.5 -59t-5 -53q0 -39 16 -56
t49 -17q30 0 53 20t34.5 50.5t17 59.5t5.5 53z" />
    <glyph glyph-name="guillemotright" unicode="&#xbb;" horiz-adv-x="506" 
d="M310 470l69 21l92 -198l-164 -197l-65 27l127 172zM114 462l68 21l87 -190l-156 -188l-64 26l118 164z" />
    <glyph glyph-name="onequarter" unicode="&#xbc;" horiz-adv-x="723" 
d="M323 359h-255l12 63h87l45 227l-82 -22l-3 51l120 46h69l-59 -302h79zM785 698l-721 -773l-51 33l720 773zM656 13h-50l-15 -74h-86l15 74h-177l12 61q77 109 184 228h122l-43 -226h50zM533 76l35 174h-2q-60 -63 -142 -174h109z" />
    <glyph glyph-name="onehalf" unicode="&#xbd;" horiz-adv-x="761" 
d="M323 359h-255l12 63h87l45 227l-82 -22l-3 51l120 46h69l-59 -302h79zM785 698l-721 -773l-51 33l720 773zM663 -61h-276l12 63q126 86 170 127.5t44 80.5q0 38 -56 38q-29 0 -96 -19l-6 54q79 27 135 27t86.5 -23.5t30.5 -62.5q0 -53 -51 -105t-155 -111l-1 -2h175z" />
    <glyph glyph-name="threequarters" unicode="&#xbe;" horiz-adv-x="728" 
d="M361 482q0 -20 -7.5 -40t-25.5 -42t-56 -35.5t-92 -13.5q-62 0 -125 23l16 46q61 -11 100 -11q52 0 74 19.5t22 47.5q0 43 -77 43h-50l11 57h54q43 0 63 16.5t20 40.5q0 39 -60 39q-38 0 -90 -14l-6 49q64 23 123 23q66 0 96 -23.5t30 -58.5t-23.5 -60.5t-62.5 -34.5
q66 -14 66 -71zM790 698l-721 -773l-51 33l720 773zM661 13h-50l-15 -74h-86l15 74h-177l12 61q77 109 184 228h122l-43 -226h50zM538 76l35 174h-2q-60 -63 -142 -174h109z" />
    <glyph glyph-name="questiondown" unicode="&#xbf;" 
d="M19 19q0 47 19.5 85t48.5 64.5t59.5 51t56.5 57t34 70.5l14 62h89l-11 -72q-6 -42 -28 -78t-48.5 -61t-53 -48.5t-44 -51t-17.5 -57.5q0 -33 22 -52t65 -19q61 0 125 23l16 -65q-95 -41 -179 -41q-83 0 -125.5 35.5t-42.5 96.5zM322 578q33 0 46 -8.5t13 -30.5
q0 -45 -18 -61q-15 -16 -57 -16q-32 0 -45 9t-13 31q0 43 17 60q16 16 57 16z" />
    <glyph glyph-name="Agrave" unicode="&#xc0;" horiz-adv-x="548" 
d="M484 0h-112q-6 117 -8 141h-235q-56 -138 -57 -141h-109q156 365 321 675h138q48 -345 62 -675zM163 222h201q-14 193 -34 354h-2q-90 -184 -165 -354zM429 768l-37 -45l-181 69l55 64z" />
    <glyph glyph-name="Aacute" unicode="&#xc1;" horiz-adv-x="548" 
d="M484 0h-112q-6 117 -8 141h-235q-56 -138 -57 -141h-109q156 365 321 675h138q48 -345 62 -675zM163 222h201q-14 193 -34 354h-2q-90 -184 -165 -354zM526 787l-199 -64l-26 49l188 84z" />
    <glyph glyph-name="Acircumflex" unicode="&#xc2;" horiz-adv-x="548" 
d="M484 0h-112q-6 117 -8 141h-235q-56 -138 -57 -141h-109q156 365 321 675h138q48 -345 62 -675zM163 222h201q-14 193 -34 354h-2q-90 -184 -165 -354zM383 856l134 -88l-35 -45l-109 57l-133 -57l-20 45z" />
    <glyph glyph-name="Atilde" unicode="&#xc3;" horiz-adv-x="548" 
d="M484 0h-112q-6 117 -8 141h-235q-56 -138 -57 -141h-109q156 365 321 675h138q48 -345 62 -675zM163 222h201q-14 193 -34 354h-2q-90 -184 -165 -354zM499 844l44 -30q-26 -46 -52.5 -66t-65.5 -20q-36 0 -71 26t-49 26q-15 0 -27.5 -10.5t-34.5 -39.5l-43 30
q27 45 53.5 65.5t64.5 20.5q36 0 70.5 -26t48.5 -26q15 0 27.5 10.5t34.5 39.5z" />
    <glyph glyph-name="Adieresis" unicode="&#xc4;" horiz-adv-x="548" 
d="M484 0h-112q-6 117 -8 141h-235q-56 -138 -57 -141h-109q156 365 321 675h138q48 -345 62 -675zM163 222h201q-14 193 -34 354h-2q-90 -184 -165 -354zM529 795q0 -35 -15 -50q-13 -13 -46 -13q-26 0 -36 7t-10 26q0 34 14 50q13 13 46 13q26 0 36.5 -7t10.5 -26z
M327 795q0 -35 -15 -50q-13 -13 -46 -13q-26 0 -36 7t-10 26q0 36 14 50q13 13 46 13q26 0 36.5 -7t10.5 -26z" />
    <glyph glyph-name="Aring" unicode="&#xc5;" horiz-adv-x="548" 
d="M484 0h-112q-6 117 -8 141h-235q-56 -138 -57 -141h-109q156 365 321 675h138q48 -345 62 -675zM163 222h201q-14 193 -34 354h-2q-90 -184 -165 -354zM354 692q-93 0 -93 63q0 42 31.5 71.5t91.5 29.5q94 0 94 -63q0 -43 -32 -72t-92 -29zM412 788q0 25 -36 25
q-49 0 -49 -53q0 -26 35 -26q26 0 38 15.5t12 38.5z" />
    <glyph glyph-name="AE" unicode="&#xc6;" horiz-adv-x="724" 
d="M622 0h-338l26 141h-188q-59 -104 -78 -141h-111q211 365 422 675h394l-16 -84h-227l-38 -201h187l-16 -81h-187l-44 -224h230zM327 222l71 369h-1q-89 -134 -230 -369h160z" />
    <glyph glyph-name="Ccedilla" unicode="&#xc7;" horiz-adv-x="517" 
d="M419 148l39 -56q-92 -102 -213 -102q-95 0 -145 56t-50 164q0 46 7.5 96.5t23 104.5t42.5 102.5t61.5 87t84 61.5t107.5 23q125 0 164 -112l-58 -46q-34 71 -101 71q-68 0 -119 -63t-74 -145.5t-23 -163.5q0 -148 109 -148q74 0 145 70zM191 -43h89q0 -83 -97 -138
l-55 27q35 29 48.5 52.5t14.5 58.5z" />
    <glyph glyph-name="Egrave" unicode="&#xc8;" horiz-adv-x="473" 
d="M372 0h-339l131 675h335l-17 -84h-226l-39 -201h187l-16 -81h-187l-43 -224h229zM409 768l-37 -45l-181 69l55 64z" />
    <glyph glyph-name="Eacute" unicode="&#xc9;" horiz-adv-x="473" 
d="M372 0h-339l131 675h335l-17 -84h-226l-39 -201h187l-16 -81h-187l-43 -224h229zM507 787l-199 -64l-26 49l188 84z" />
    <glyph glyph-name="Ecircumflex" unicode="&#xca;" horiz-adv-x="473" 
d="M372 0h-339l131 675h335l-17 -84h-226l-39 -201h187l-16 -81h-187l-43 -224h229zM359 856l134 -88l-35 -45l-109 57l-133 -57l-20 45z" />
    <glyph glyph-name="Edieresis" unicode="&#xcb;" horiz-adv-x="473" 
d="M372 0h-339l131 675h335l-17 -84h-226l-39 -201h187l-16 -81h-187l-43 -224h229zM503 795q0 -35 -15 -50q-13 -13 -46 -13q-26 0 -36 7t-10 26q0 34 14 50q13 13 46 13q26 0 36.5 -7t10.5 -26zM301 795q0 -35 -15 -50q-13 -13 -46 -13q-26 0 -36 7t-10 26q0 36 14 50
q13 13 46 13q26 0 36.5 -7t10.5 -26z" />
    <glyph glyph-name="Igrave" unicode="&#xcc;" horiz-adv-x="274" 
d="M141 0h-108l131 675h108zM290 768l-37 -45l-181 69l55 64z" />
    <glyph glyph-name="Iacute" unicode="&#xcd;" horiz-adv-x="274" 
d="M141 0h-108l131 675h108zM389 787l-199 -64l-26 49l188 84z" />
    <glyph glyph-name="Icircumflex" unicode="&#xce;" horiz-adv-x="274" 
d="M141 0h-108l131 675h108zM249 856l134 -88l-35 -45l-109 57l-133 -57l-20 45z" />
    <glyph glyph-name="Idieresis" unicode="&#xcf;" horiz-adv-x="274" 
d="M141 0h-108l131 675h108zM365 795q0 -34 -14 -50q-13 -13 -44 -13q-24 0 -34 7t-10 26q0 34 14 50q13 13 44 13q25 0 34.5 -7t9.5 -26zM212 795q0 -34 -14 -50q-13 -13 -44 -13q-24 0 -34 7t-10 26q0 34 14 50q13 13 44 13q25 0 34.5 -7t9.5 -26z" />
    <glyph glyph-name="Eth" unicode="&#xd0;" horiz-adv-x="597" 
d="M578 447q0 -46 -10 -101.5t-41.5 -129t-79.5 -122.5q-99 -97 -247 -97q-30 0 -83.5 1.5t-73.5 1.5l60 309h-60l16 81h60l55 285q31 0 83 0.5t79 0.5q124 0 183 -62.5t59 -166.5zM462 440q0 155 -141 155q-37 0 -54 -1l-40 -204h110l-16 -81h-110l-44 -226q38 -2 53 -2
q83 0 139 56q55 55 79 146t24 157z" />
    <glyph glyph-name="Ntilde" unicode="&#xd1;" horiz-adv-x="644" 
d="M511 0h-104l-135 388l-48 152h-1q-13 -97 -25 -160l-74 -380h-91l131 675h125l120 -343l49 -155h1q15 101 27 163l65 335h91zM560 844l44 -30q-26 -46 -52.5 -66t-65.5 -20q-36 0 -71 26t-49 26q-15 0 -27.5 -10.5t-34.5 -39.5l-43 30q27 45 53.5 65.5t64.5 20.5
q36 0 70.5 -26t48.5 -26q15 0 27.5 10.5t34.5 39.5z" />
    <glyph glyph-name="Ograve" unicode="&#xd2;" horiz-adv-x="639" 
d="M270 -10q-220 0 -220 222q0 81 20.5 161t60.5 151.5t109.5 116t157.5 44.5q221 0 221 -222q0 -83 -20 -163t-60 -150.5t-110 -114.5t-159 -45zM505 458q0 75 -29.5 109.5t-91.5 34.5q-47 0 -86 -28.5t-63 -71.5t-40.5 -97t-23.5 -101t-7 -87q0 -75 29.5 -109t91.5 -34
q47 0 86 28.5t63 71.5t40.5 96.5t23.5 100.5t7 87zM458 768l-37 -45l-181 69l55 64z" />
    <glyph glyph-name="Oacute" unicode="&#xd3;" horiz-adv-x="639" 
d="M270 -10q-220 0 -220 222q0 81 20.5 161t60.5 151.5t109.5 116t157.5 44.5q221 0 221 -222q0 -83 -20 -163t-60 -150.5t-110 -114.5t-159 -45zM505 458q0 75 -29.5 109.5t-91.5 34.5q-47 0 -86 -28.5t-63 -71.5t-40.5 -97t-23.5 -101t-7 -87q0 -75 29.5 -109t91.5 -34
q47 0 86 28.5t63 71.5t40.5 96.5t23.5 100.5t7 87zM586 787l-199 -64l-26 49l188 84z" />
    <glyph glyph-name="Ocircumflex" unicode="&#xd4;" horiz-adv-x="639" 
d="M270 -10q-220 0 -220 222q0 81 20.5 161t60.5 151.5t109.5 116t157.5 44.5q221 0 221 -222q0 -83 -20 -163t-60 -150.5t-110 -114.5t-159 -45zM505 458q0 75 -29.5 109.5t-91.5 34.5q-47 0 -86 -28.5t-63 -71.5t-40.5 -97t-23.5 -101t-7 -87q0 -75 29.5 -109t91.5 -34
q47 0 86 28.5t63 71.5t40.5 96.5t23.5 100.5t7 87zM430 856l134 -88l-35 -45l-109 57l-133 -57l-20 45z" />
    <glyph glyph-name="Otilde" unicode="&#xd5;" horiz-adv-x="639" 
d="M270 -10q-220 0 -220 222q0 81 20.5 161t60.5 151.5t109.5 116t157.5 44.5q221 0 221 -222q0 -83 -20 -163t-60 -150.5t-110 -114.5t-159 -45zM505 458q0 75 -29.5 109.5t-91.5 34.5q-47 0 -86 -28.5t-63 -71.5t-40.5 -97t-23.5 -101t-7 -87q0 -75 29.5 -109t91.5 -34
q47 0 86 28.5t63 71.5t40.5 96.5t23.5 100.5t7 87zM550 844l44 -30q-26 -46 -52.5 -66t-65.5 -20q-36 0 -71 26t-49 26q-15 0 -27.5 -10.5t-34.5 -39.5l-43 30q27 45 53.5 65.5t64.5 20.5q36 0 70.5 -26t48.5 -26q15 0 27.5 10.5t34.5 39.5z" />
    <glyph glyph-name="Odieresis" unicode="&#xd6;" horiz-adv-x="639" 
d="M270 -10q-220 0 -220 222q0 81 20.5 161t60.5 151.5t109.5 116t157.5 44.5q221 0 221 -222q0 -83 -20 -163t-60 -150.5t-110 -114.5t-159 -45zM505 458q0 75 -29.5 109.5t-91.5 34.5q-47 0 -86 -28.5t-63 -71.5t-40.5 -97t-23.5 -101t-7 -87q0 -75 29.5 -109t91.5 -34
q47 0 86 28.5t63 71.5t40.5 96.5t23.5 100.5t7 87zM574 795q0 -35 -15 -50q-13 -13 -46 -13q-26 0 -36 7t-10 26q0 34 14 50q13 13 46 13q26 0 36.5 -7t10.5 -26zM372 795q0 -35 -15 -50q-13 -13 -46 -13q-26 0 -36 7t-10 26q0 36 14 50q13 13 46 13q26 0 36.5 -7t10.5 -26z
" />
    <glyph glyph-name="multiply" unicode="&#xd7;" 
d="M315 296l107 -133l-65 -54l-107 133l-159 -133l-47 58l159 133l-107 132l65 54l107 -132l158 132l47 -57z" />
    <glyph glyph-name="Oslash" unicode="&#xd8;" horiz-adv-x="639" 
d="M270 -10q-90 0 -140 40l-83 -106l-54 33l91 115q-34 51 -34 140q0 81 20.5 161t60.5 151.5t109.5 116t157.5 44.5q89 0 141 -39l83 105l54 -33l-91 -115q34 -51 34 -140q0 -65 -12 -129t-39 -126.5t-66.5 -110t-99.5 -77t-132 -30.5zM383 606q-48 0 -88 -27t-65 -68.5
t-42.5 -92t-25 -95.5t-7.5 -82q0 -46 11 -68l313 397q-30 36 -96 36zM285 69q59 0 106 40t72 100.5t37.5 118.5t12.5 106t-10 68l-313 -397q30 -36 95 -36z" />
    <glyph glyph-name="Ugrave" unicode="&#xd9;" horiz-adv-x="652" 
d="M651 675l-85 -436q-49 -249 -293 -249q-204 0 -204 169q0 39 9 84l85 432h108l-83 -426q-9 -48 -9 -75q0 -55 27 -79t85 -24q68 0 109.5 38t58.5 129l86 437h106zM462 768l-37 -45l-181 69l55 64z" />
    <glyph glyph-name="Uacute" unicode="&#xda;" horiz-adv-x="652" 
d="M651 675l-85 -436q-49 -249 -293 -249q-204 0 -204 169q0 39 9 84l85 432h108l-83 -426q-9 -48 -9 -75q0 -55 27 -79t85 -24q68 0 109.5 38t58.5 129l86 437h106zM607 787l-199 -64l-26 49l188 84z" />
    <glyph glyph-name="Ucircumflex" unicode="&#xdb;" horiz-adv-x="652" 
d="M651 675l-85 -436q-49 -249 -293 -249q-204 0 -204 169q0 39 9 84l85 432h108l-83 -426q-9 -48 -9 -75q0 -55 27 -79t85 -24q68 0 109.5 38t58.5 129l86 437h106zM438 856l134 -88l-35 -45l-109 57l-133 -57l-20 45z" />
    <glyph glyph-name="Udieresis" unicode="&#xdc;" horiz-adv-x="652" 
d="M651 675l-85 -436q-49 -249 -293 -249q-204 0 -204 169q0 39 9 84l85 432h108l-83 -426q-9 -48 -9 -75q0 -55 27 -79t85 -24q68 0 109.5 38t58.5 129l86 437h106zM580 795q0 -35 -15 -50q-13 -13 -46 -13q-26 0 -36 7t-10 26q0 34 14 50q13 13 46 13q26 0 36.5 -7
t10.5 -26zM378 795q0 -35 -15 -50q-13 -13 -46 -13q-26 0 -36 7t-10 26q0 36 14 50q13 13 46 13q26 0 36.5 -7t10.5 -26z" />
    <glyph glyph-name="Yacute" unicode="&#xdd;" horiz-adv-x="486" 
d="M457 675h113q-147 -246 -267 -387l-56 -288h-108l56 288q-70 164 -117 387h116q34 -169 78 -289h2q76 97 183 289zM516 787l-199 -64l-26 49l188 84z" />
    <glyph glyph-name="Thorn" unicode="&#xde;" horiz-adv-x="528" 
d="M526 409q0 -51 -15.5 -97t-49.5 -88.5t-98.5 -67.5t-153.5 -25h-43l-25 -131h-108l131 675h109l-21 -106h57q217 0 217 -160zM411 393q0 47 -29 71.5t-96 24.5h-50l-54 -277h45q52 0 90 17.5t57.5 46t28 57.5t8.5 60z" />
    <glyph glyph-name="germandbls" unicode="&#xdf;" horiz-adv-x="556" 
d="M19 -30l104 533q21 108 79.5 161.5t164.5 53.5q75 0 117 -33t42 -88q0 -42 -15 -73t-37 -49.5t-44 -34t-37 -35t-15 -43.5q0 -20 13 -37.5t31 -32t36.5 -31t31.5 -42t13 -56.5q0 -69 -48 -120t-134 -51q-69 0 -118 29l20 55q39 -12 82 -12q40 0 65.5 24t25.5 58
q0 23 -12.5 41.5t-31 32.5t-36.5 29.5t-30.5 38.5t-12.5 53q0 39 15.5 67.5t38 45.5t45 33.5t38 40.5t15.5 57q0 58 -69 58q-58 0 -87 -34t-43 -104l-104 -533q-29 -152 -160 -152q-61 0 -106 30l24 59q35 -14 61 -14q64 0 78 75z" />
    <glyph glyph-name="agrave" unicode="&#xe0;" horiz-adv-x="524" 
d="M33 153q0 44 7.5 88.5t28 94t52 86.5t86 61.5t123.5 24.5q36 0 77 -4.5t64 -9.5l23 -4l-95 -490h-85l15 109q-30 -53 -75.5 -86t-93.5 -33q-62 0 -94.5 46.5t-32.5 116.5zM139 169q0 -97 58 -97q44 0 90 60.5t65 157.5l26 133q-31 10 -67 10q-39 0 -70 -20t-49.5 -49.5
t-31 -67t-17 -69t-4.5 -58.5zM384 586l-54 -28l-131 124l78 40z" />
    <glyph glyph-name="aacute" unicode="&#xe1;" horiz-adv-x="524" 
d="M33 153q0 44 7.5 88.5t28 94t52 86.5t86 61.5t123.5 24.5q36 0 77 -4.5t64 -9.5l23 -4l-95 -490h-85l15 109q-30 -53 -75.5 -86t-93.5 -33q-62 0 -94.5 46.5t-32.5 116.5zM139 169q0 -97 58 -97q44 0 90 60.5t65 157.5l26 133q-31 10 -67 10q-39 0 -70 -20t-49.5 -49.5
t-31 -67t-17 -69t-4.5 -58.5zM492 676l-172 -118l-49 32l152 132z" />
    <glyph glyph-name="acircumflex" unicode="&#xe2;" horiz-adv-x="524" 
d="M33 153q0 44 7.5 88.5t28 94t52 86.5t86 61.5t123.5 24.5q36 0 77 -4.5t64 -9.5l23 -4l-95 -490h-85l15 109q-30 -53 -75.5 -86t-93.5 -33q-62 0 -94.5 46.5t-32.5 116.5zM139 169q0 -97 58 -97q44 0 90 60.5t65 157.5l26 133q-31 10 -67 10q-39 0 -70 -20t-49.5 -49.5
t-31 -67t-17 -69t-4.5 -58.5zM471 600l-40 -40l-92 77l-124 -77l-27 42l165 124z" />
    <glyph glyph-name="atilde" unicode="&#xe3;" horiz-adv-x="524" 
d="M33 153q0 44 7.5 88.5t28 94t52 86.5t86 61.5t123.5 24.5q36 0 77 -4.5t64 -9.5l23 -4l-95 -490h-85l15 109q-30 -53 -75.5 -86t-93.5 -33q-62 0 -94.5 46.5t-32.5 116.5zM139 169q0 -97 58 -97q44 0 90 60.5t65 157.5l26 133q-31 10 -67 10q-39 0 -70 -20t-49.5 -49.5
t-31 -67t-17 -69t-4.5 -58.5zM460 692l42 -31q-27 -45 -53 -65.5t-63 -20.5q-27 0 -49.5 13t-39 26t-29.5 13q-15 0 -27 -10.5t-34 -39.5l-42 31q27 45 52.5 65t62.5 20q27 0 49.5 -13t39 -26t29.5 -13q15 0 27 10.5t35 40.5z" />
    <glyph glyph-name="adieresis" unicode="&#xe4;" horiz-adv-x="524" 
d="M33 153q0 44 7.5 88.5t28 94t52 86.5t86 61.5t123.5 24.5q36 0 77 -4.5t64 -9.5l23 -4l-95 -490h-85l15 109q-30 -53 -75.5 -86t-93.5 -33q-62 0 -94.5 46.5t-32.5 116.5zM139 169q0 -97 58 -97q44 0 90 60.5t65 157.5l26 133q-31 10 -67 10q-39 0 -70 -20t-49.5 -49.5
t-31 -67t-17 -69t-4.5 -58.5zM487 654q0 -39 -17 -54q-12 -13 -44 -13q-25 0 -36 7.5t-11 25.5q0 37 17 54q13 13 45 13q46 0 46 -33zM292 654q0 -39 -17 -54q-12 -13 -44 -13q-25 0 -36 7.5t-11 25.5q0 39 17 54q13 13 44 13q25 0 36 -7.5t11 -25.5z" />
    <glyph glyph-name="aring" unicode="&#xe5;" horiz-adv-x="524" 
d="M33 153q0 44 7.5 88.5t28 94t52 86.5t86 61.5t123.5 24.5q36 0 77 -4.5t64 -9.5l23 -4l-95 -490h-85l15 109q-30 -53 -75.5 -86t-93.5 -33q-62 0 -94.5 46.5t-32.5 116.5zM139 169q0 -97 58 -97q44 0 90 60.5t65 157.5l26 133q-31 10 -67 10q-39 0 -70 -20t-49.5 -49.5
t-31 -67t-17 -69t-4.5 -58.5zM315 545q-97 0 -97 73q0 46 31.5 80.5t96.5 34.5q97 0 97 -73q0 -46 -31.5 -80.5t-96.5 -34.5zM374 655q0 28 -35 28q-28 0 -40 -17.5t-12 -41.5q0 -28 36 -28q51 0 51 59z" />
    <glyph glyph-name="ae" unicode="&#xe6;" horiz-adv-x="759" 
d="M657 100l7 -62q-89 -48 -182 -48q-136 0 -159 109q-79 -109 -188 -109q-62 0 -94 34t-32 83q0 26 6 49.5t24.5 50.5t48.5 46t82.5 32t121.5 13h40l9 45q8 46 -11 67.5t-72 21.5q-68 0 -153 -29l-5 63q100 41 190 41q109 0 130 -68q63 69 159 69q68 0 110 -32t42 -86
q0 -159 -311 -159q-7 -31 -7 -65q0 -96 97 -96q69 0 147 30zM631 383q0 54 -66 54q-48 0 -82 -39t-49 -101q116 0 156.5 22t40.5 64zM320 232h-45q-164 0 -164 -116q0 -52 56 -52q52 0 95 47t55 107z" />
    <glyph glyph-name="ccedilla" unicode="&#xe7;" horiz-adv-x="425" 
d="M339 118l27 -54q-82 -73 -173 -73q-159 0 -159 171q0 50 14 106t42 112t80.5 92t119.5 36q92 0 135 -62l-44 -53q-36 37 -86 37q-42 0 -74 -30t-48.5 -74.5t-24 -85t-7.5 -72.5q0 -98 82 -98q58 0 116 48zM130 -43h89q0 -83 -97 -138l-55 27q35 29 48.5 52.5t14.5 58.5z
" />
    <glyph glyph-name="egrave" unicode="&#xe8;" horiz-adv-x="484" 
d="M382 100l7 -62q-89 -48 -182 -48q-174 0 -174 170q0 30 5 67t22.5 89t45 92.5t79 70t118.5 29.5q69 0 110.5 -32t41.5 -86q0 -159 -310 -159q-8 -35 -8 -65q0 -96 97 -96q69 0 148 30zM356 383q0 54 -67 54q-48 0 -81.5 -39t-49.5 -101q80 0 125.5 12t59 29.5t13.5 44.5z
M367 586l-54 -28l-131 124l78 40z" />
    <glyph glyph-name="eacute" unicode="&#xe9;" horiz-adv-x="484" 
d="M382 100l7 -62q-89 -48 -182 -48q-174 0 -174 170q0 30 5 67t22.5 89t45 92.5t79 70t118.5 29.5q69 0 110.5 -32t41.5 -86q0 -159 -310 -159q-8 -35 -8 -65q0 -96 97 -96q69 0 148 30zM356 383q0 54 -67 54q-48 0 -81.5 -39t-49.5 -101q80 0 125.5 12t59 29.5t13.5 44.5z
M467 676l-172 -118l-49 32l152 132z" />
    <glyph glyph-name="ecircumflex" unicode="&#xea;" horiz-adv-x="484" 
d="M382 100l7 -62q-89 -48 -182 -48q-174 0 -174 170q0 30 5 67t22.5 89t45 92.5t79 70t118.5 29.5q69 0 110.5 -32t41.5 -86q0 -159 -310 -159q-8 -35 -8 -65q0 -96 97 -96q69 0 148 30zM356 383q0 54 -67 54q-48 0 -81.5 -39t-49.5 -101q80 0 125.5 12t59 29.5t13.5 44.5z
M445 600l-40 -40l-92 77l-124 -77l-27 42l165 124z" />
    <glyph glyph-name="edieresis" unicode="&#xeb;" horiz-adv-x="484" 
d="M382 100l7 -62q-89 -48 -182 -48q-174 0 -174 170q0 30 5 67t22.5 89t45 92.5t79 70t118.5 29.5q69 0 110.5 -32t41.5 -86q0 -159 -310 -159q-8 -35 -8 -65q0 -96 97 -96q69 0 148 30zM356 383q0 54 -67 54q-48 0 -81.5 -39t-49.5 -101q80 0 125.5 12t59 29.5t13.5 44.5z
M465 654q0 -39 -17 -54q-12 -13 -44 -13q-25 0 -36 7.5t-11 25.5q0 37 17 54q13 13 45 13q46 0 46 -33zM270 654q0 -39 -17 -54q-12 -13 -44 -13q-25 0 -36 7.5t-11 25.5q0 39 17 54q13 13 44 13q25 0 36 -7.5t11 -25.5z" />
    <glyph glyph-name="igrave" unicode="&#xec;" horiz-adv-x="253" 
d="M128 0h-103l96 498h103zM256 586l-54 -28l-131 124l78 40z" />
    <glyph glyph-name="iacute" unicode="&#xed;" horiz-adv-x="253" 
d="M128 0h-103l96 498h103zM352 676l-172 -118l-49 32l152 132z" />
    <glyph glyph-name="icircumflex" unicode="&#xee;" horiz-adv-x="253" 
d="M128 0h-103l96 498h103zM332 600l-40 -40l-92 77l-124 -77l-27 42l165 124z" />
    <glyph glyph-name="idieresis" unicode="&#xef;" horiz-adv-x="253" 
d="M128 0h-103l96 498h103zM335 654q0 -38 -16 -54q-13 -13 -44 -13q-46 0 -46 33q0 37 17 54q13 13 44 13q24 0 34.5 -7.5t10.5 -25.5zM171 654q0 -39 -17 -54q-12 -13 -44 -13q-24 0 -34.5 7.5t-10.5 25.5q0 39 17 54q13 13 43 13q46 0 46 -33z" />
    <glyph glyph-name="eth" unicode="&#xf0;" horiz-adv-x="526" 
d="M492 401q0 -47 -7.5 -97.5t-28 -107.5t-51.5 -101.5t-82.5 -74t-115.5 -29.5q-179 0 -179 171q0 58 16.5 115t49 108.5t89 83.5t127.5 32q44 0 63 -7q-13 48 -40 87l-106 -45l-34 53l106 44q-32 41 -70 76h125q32 -30 47 -50l97 41l33 -53l-97 -41q58 -95 58 -205z
M379 388q0 21 -1 30q-31 11 -75 11q-45 0 -79 -28.5t-51 -72t-25 -83.5t-8 -74q0 -100 83 -100q43 0 76 37t49 91.5t23.5 103t7.5 85.5z" />
    <glyph glyph-name="ntilde" unicode="&#xf1;" horiz-adv-x="541" 
d="M325 424q-46 0 -92.5 -61.5t-64.5 -154.5l-40 -208h-103l97 498h85l-15 -104q31 50 76 82t96 32q120 0 120 -136q0 -35 -8 -79t-27 -132t-33 -161h-102q12 64 26.5 132.5t22 102.5t12.5 65.5t5 51.5q0 72 -55 72zM471 692l42 -31q-27 -45 -53 -65.5t-63 -20.5
q-27 0 -49.5 13t-39 26t-29.5 13q-15 0 -27 -10.5t-34 -39.5l-42 31q27 45 52.5 65t62.5 20q27 0 49.5 -13t39 -26t29.5 -13q15 0 27 10.5t35 40.5z" />
    <glyph glyph-name="ograve" unicode="&#xf2;" horiz-adv-x="530" 
d="M210 -10q-175 0 -175 172q0 41 6.5 83t25.5 91t49 85.5t81.5 61.5t118.5 25q176 0 176 -172q0 -41 -6.5 -83t-26 -90.5t-49.5 -85.5t-81.5 -62t-118.5 -25zM387 333q0 51 -21.5 74.5t-66.5 23.5t-78.5 -30t-50 -75.5t-24 -86.5t-7.5 -74q0 -51 21.5 -74.5t66.5 -23.5
q37 0 66 20.5t46 51t28.5 68.5t15.5 69t4 57zM375 586l-54 -28l-131 124l78 40z" />
    <glyph glyph-name="oacute" unicode="&#xf3;" horiz-adv-x="530" 
d="M210 -10q-175 0 -175 172q0 41 6.5 83t25.5 91t49 85.5t81.5 61.5t118.5 25q176 0 176 -172q0 -41 -6.5 -83t-26 -90.5t-49.5 -85.5t-81.5 -62t-118.5 -25zM387 333q0 51 -21.5 74.5t-66.5 23.5t-78.5 -30t-50 -75.5t-24 -86.5t-7.5 -74q0 -51 21.5 -74.5t66.5 -23.5
q37 0 66 20.5t46 51t28.5 68.5t15.5 69t4 57zM492 676l-172 -118l-49 32l152 132z" />
    <glyph glyph-name="ocircumflex" unicode="&#xf4;" horiz-adv-x="530" 
d="M210 -10q-175 0 -175 172q0 41 6.5 83t25.5 91t49 85.5t81.5 61.5t118.5 25q176 0 176 -172q0 -41 -6.5 -83t-26 -90.5t-49.5 -85.5t-81.5 -62t-118.5 -25zM387 333q0 51 -21.5 74.5t-66.5 23.5t-78.5 -30t-50 -75.5t-24 -86.5t-7.5 -74q0 -51 21.5 -74.5t66.5 -23.5
q37 0 66 20.5t46 51t28.5 68.5t15.5 69t4 57zM473 600l-40 -40l-92 77l-124 -77l-27 42l165 124z" />
    <glyph glyph-name="otilde" unicode="&#xf5;" horiz-adv-x="530" 
d="M210 -10q-175 0 -175 172q0 41 6.5 83t25.5 91t49 85.5t81.5 61.5t118.5 25q176 0 176 -172q0 -41 -6.5 -83t-26 -90.5t-49.5 -85.5t-81.5 -62t-118.5 -25zM387 333q0 51 -21.5 74.5t-66.5 23.5t-78.5 -30t-50 -75.5t-24 -86.5t-7.5 -74q0 -51 21.5 -74.5t66.5 -23.5
q37 0 66 20.5t46 51t28.5 68.5t15.5 69t4 57zM463 692l42 -31q-27 -45 -53 -65.5t-63 -20.5q-27 0 -49.5 13t-39 26t-29.5 13q-15 0 -27 -10.5t-34 -39.5l-42 31q27 45 52.5 65t62.5 20q27 0 49.5 -13t39 -26t29.5 -13q15 0 27 10.5t35 40.5z" />
    <glyph glyph-name="odieresis" unicode="&#xf6;" horiz-adv-x="530" 
d="M210 -10q-175 0 -175 172q0 41 6.5 83t25.5 91t49 85.5t81.5 61.5t118.5 25q176 0 176 -172q0 -41 -6.5 -83t-26 -90.5t-49.5 -85.5t-81.5 -62t-118.5 -25zM387 333q0 51 -21.5 74.5t-66.5 23.5t-78.5 -30t-50 -75.5t-24 -86.5t-7.5 -74q0 -51 21.5 -74.5t66.5 -23.5
q37 0 66 20.5t46 51t28.5 68.5t15.5 69t4 57zM491 654q0 -39 -17 -54q-12 -13 -44 -13q-25 0 -36 7.5t-11 25.5q0 37 17 54q13 13 45 13q46 0 46 -33zM296 654q0 -39 -17 -54q-12 -13 -44 -13q-25 0 -36 7.5t-11 25.5q0 39 17 54q13 13 44 13q25 0 36 -7.5t11 -25.5z" />
    <glyph glyph-name="divide" unicode="&#xf7;" 
d="M212 50q-30 0 -42 7.5t-12 26.5q0 17 6 37.5t14 27.5q14 14 50 14q30 0 41.5 -7.5t11.5 -26.5q0 -17 -6 -37.5t-14 -27.5q-14 -14 -49 -14zM286 434q-29 0 -41 7.5t-12 25.5q0 17 6 38t13 28q14 14 51 14q30 0 41.5 -7.5t11.5 -26.5q0 -16 -6.5 -37t-13.5 -29
q-13 -13 -50 -13zM460 261h-420l14 75h420z" />
    <glyph glyph-name="oslash" unicode="&#xf8;" horiz-adv-x="530" 
d="M492 336q0 -41 -6.5 -83t-26 -90.5t-49.5 -85.5t-81.5 -62t-118.5 -25q-54 0 -95 21l-68 -87l-52 35l71 89q-31 40 -31 114q0 41 6.5 83t25.5 91t49 85.5t81.5 61.5t118.5 25q56 0 97 -22l69 88l52 -34l-72 -92q30 -39 30 -112zM390 305q0 27 -9 47l-211 -274
q20 -16 58 -16q45 0 78.5 26.5t50.5 67.5t25 79t8 70zM136 190q0 -28 9 -48l214 277q-21 17 -61 17q-37 0 -66.5 -19t-47 -47t-29 -63t-15.5 -64t-4 -53z" />
    <glyph glyph-name="ugrave" unicode="&#xf9;" horiz-adv-x="541" 
d="M512 498l-96 -498h-86l16 104q-32 -51 -77 -82.5t-95 -31.5q-121 0 -121 136q0 35 8 79t27 132t33 161h102q-12 -63 -26.5 -132t-21.5 -102.5t-12 -65.5t-5 -52q0 -73 55 -73q46 0 92 62t64 155l40 208h103zM389 586l-54 -28l-131 124l78 40z" />
    <glyph glyph-name="uacute" unicode="&#xfa;" horiz-adv-x="541" 
d="M512 498l-96 -498h-86l16 104q-32 -51 -77 -82.5t-95 -31.5q-121 0 -121 136q0 35 8 79t27 132t33 161h102q-12 -63 -26.5 -132t-21.5 -102.5t-12 -65.5t-5 -52q0 -73 55 -73q46 0 92 62t64 155l40 208h103zM498 676l-172 -118l-49 32l152 132z" />
    <glyph glyph-name="ucircumflex" unicode="&#xfb;" horiz-adv-x="541" 
d="M512 498l-96 -498h-86l16 104q-32 -51 -77 -82.5t-95 -31.5q-121 0 -121 136q0 35 8 79t27 132t33 161h102q-12 -63 -26.5 -132t-21.5 -102.5t-12 -65.5t-5 -52q0 -73 55 -73q46 0 92 62t64 155l40 208h103zM474 600l-40 -40l-92 77l-124 -77l-27 42l165 124z" />
    <glyph glyph-name="udieresis" unicode="&#xfc;" horiz-adv-x="541" 
d="M512 498l-96 -498h-86l16 104q-32 -51 -77 -82.5t-95 -31.5q-121 0 -121 136q0 35 8 79t27 132t33 161h102q-12 -63 -26.5 -132t-21.5 -102.5t-12 -65.5t-5 -52q0 -73 55 -73q46 0 92 62t64 155l40 208h103zM492 654q0 -39 -17 -54q-12 -13 -44 -13q-25 0 -36 7.5
t-11 25.5q0 37 17 54q13 13 45 13q46 0 46 -33zM297 654q0 -39 -17 -54q-12 -13 -44 -13q-25 0 -36 7.5t-11 25.5q0 39 17 54q13 13 44 13q25 0 36 -7.5t11 -25.5z" />
    <glyph glyph-name="yacute" unicode="&#xfd;" horiz-adv-x="471" 
d="M384 498h111q-60 -160 -121 -282.5t-111.5 -195.5t-101 -119t-89.5 -62.5t-77 -16.5q-36 0 -70 17l11 61q18 -3 46 -3q58 0 98 40q37 39 37 91q0 53 -9 120l-46 350h107l32 -270q12 -90 -1 -155h2q45 77 96.5 197.5t85.5 227.5zM466 676l-172 -118l-49 32l152 132z" />
    <glyph glyph-name="thorn" unicode="&#xfe;" horiz-adv-x="524" 
d="M191 -10l-64 5l-33 -168h-103l172 882h103l-45 -230q-3 -16 -21 -82q28 47 71 79t91 32q61 0 93.5 -46.5t32.5 -116.5q0 -44 -7.5 -88.5t-28 -94t-52 -86.5t-86 -61.5t-123.5 -24.5zM381 329q0 97 -58 97q-44 0 -90 -60.5t-65 -157.5l-25 -133q31 -10 66 -10
q48 0 84 29.5t54 74t26 85t8 75.5z" />
    <glyph glyph-name="ydieresis" unicode="&#xff;" horiz-adv-x="471" 
d="M384 498h111q-60 -160 -121 -282.5t-111.5 -195.5t-101 -119t-89.5 -62.5t-77 -16.5q-36 0 -70 17l11 61q18 -3 46 -3q58 0 98 40q37 39 37 91q0 53 -9 120l-46 350h107l32 -270q12 -90 -1 -155h2q45 77 96.5 197.5t85.5 227.5zM452 654q0 -39 -17 -54q-12 -13 -44 -13
q-25 0 -36 7.5t-11 25.5q0 37 17 54q13 13 45 13q46 0 46 -33zM257 654q0 -39 -17 -54q-12 -13 -44 -13q-25 0 -36 7.5t-11 25.5q0 39 17 54q13 13 44 13q25 0 36 -7.5t11 -25.5z" />
    <glyph glyph-name="Amacron" unicode="&#x100;" horiz-adv-x="548" 
d="M484 0h-112q-6 117 -8 141h-235q-56 -138 -57 -141h-109q156 365 321 675h138q48 -345 62 -675zM163 222h201q-14 193 -34 354h-2q-90 -184 -165 -354zM506 747h-277l13 69h277z" />
    <glyph glyph-name="amacron" unicode="&#x101;" horiz-adv-x="524" 
d="M33 153q0 44 7.5 88.5t28 94t52 86.5t86 61.5t123.5 24.5q36 0 77 -4.5t64 -9.5l23 -4l-95 -490h-85l15 109q-30 -53 -75.5 -86t-93.5 -33q-62 0 -94.5 46.5t-32.5 116.5zM139 169q0 -97 58 -97q44 0 90 60.5t65 157.5l26 133q-31 10 -67 10q-39 0 -70 -20t-49.5 -49.5
t-31 -67t-17 -69t-4.5 -58.5zM461 596h-270l14 73h270z" />
    <glyph glyph-name="Abreve" unicode="&#x102;" horiz-adv-x="548" 
d="M484 0h-112q-6 117 -8 141h-235q-56 -138 -57 -141h-109q156 365 321 675h138q48 -345 62 -675zM163 222h201q-14 193 -34 354h-2q-90 -184 -165 -354zM463 858h64q-12 -67 -56.5 -103t-106.5 -36q-67 0 -98 37t-17 102h63q-7 -31 9 -50.5t52 -19.5q37 0 61 19.5t29 50.5
z" />
    <glyph glyph-name="abreve" unicode="&#x103;" horiz-adv-x="524" 
d="M33 153q0 44 7.5 88.5t28 94t52 86.5t86 61.5t123.5 24.5q36 0 77 -4.5t64 -9.5l23 -4l-95 -490h-85l15 109q-30 -53 -75.5 -86t-93.5 -33q-62 0 -94.5 46.5t-32.5 116.5zM139 169q0 -97 58 -97q44 0 90 60.5t65 157.5l26 133q-31 10 -67 10q-39 0 -70 -20t-49.5 -49.5
t-31 -67t-17 -69t-4.5 -58.5zM422 718h65q-13 -75 -56 -114.5t-110 -39.5q-68 0 -98.5 40t-16.5 114h65q-8 -42 6.5 -61t52.5 -19q76 0 92 80z" />
    <glyph glyph-name="Aogonek" unicode="&#x104;" horiz-adv-x="548" 
d="M453 -108l10 -48q-42 -24 -90 -24q-81 0 -81 64q0 57 80 116q-6 117 -8 141h-235q-56 -138 -57 -141h-109q156 365 321 675h138q48 -345 62 -675q-48 -15 -76 -44.5t-28 -54.5q0 -22 24 -22q25 0 49 13zM163 222h201q-14 193 -34 354h-2q-90 -184 -165 -354z" />
    <glyph glyph-name="aogonek" unicode="&#x105;" horiz-adv-x="524" 
d="M33 153q0 44 7.5 88.5t28 94t52 86.5t86 61.5t123.5 24.5q36 0 77 -4.5t64 -9.5l23 -4l-95 -490q-26 -9 -46.5 -42t-20.5 -57q0 -22 24 -22q22 0 52 13l6 -47q-44 -25 -97 -25q-35 0 -54.5 15t-19.5 40q0 64 71 125l15 109q-30 -53 -75.5 -86t-93.5 -33q-62 0 -94.5 46.5
t-32.5 116.5zM139 169q0 -97 58 -97q44 0 90 60.5t65 157.5l26 133q-31 10 -67 10q-39 0 -70 -20t-49.5 -49.5t-31 -67t-17 -69t-4.5 -58.5z" />
    <glyph glyph-name="Cacute" unicode="&#x106;" horiz-adv-x="517" 
d="M419 148l39 -56q-92 -102 -213 -102q-95 0 -145 56t-50 164q0 46 7.5 96.5t23 104.5t42.5 102.5t61.5 87t84 61.5t107.5 23q125 0 164 -112l-58 -46q-34 71 -101 71q-68 0 -119 -63t-74 -145.5t-23 -163.5q0 -148 109 -148q74 0 145 70zM574 787l-199 -64l-26 49l188 84z
" />
    <glyph glyph-name="cacute" unicode="&#x107;" horiz-adv-x="425" 
d="M339 118l27 -54q-82 -73 -173 -73q-159 0 -159 171q0 50 14 106t42 112t80.5 92t119.5 36q92 0 135 -62l-44 -53q-36 37 -86 37q-42 0 -74 -30t-48.5 -74.5t-24 -85t-7.5 -72.5q0 -98 82 -98q58 0 116 48zM489 676l-172 -118l-49 32l152 132z" />
    <glyph glyph-name="Ccircumflex" unicode="&#x108;" horiz-adv-x="517" 
d="M419 148l39 -56q-92 -102 -213 -102q-95 0 -145 56t-50 164q0 46 7.5 96.5t23 104.5t42.5 102.5t61.5 87t84 61.5t107.5 23q125 0 164 -112l-58 -46q-34 71 -101 71q-68 0 -119 -63t-74 -145.5t-23 -163.5q0 -148 109 -148q74 0 145 70zM407 856l134 -88l-35 -45l-109 57
l-133 -57l-20 45z" />
    <glyph glyph-name="ccircumflex" unicode="&#x109;" horiz-adv-x="425" 
d="M339 118l27 -54q-82 -73 -173 -73q-159 0 -159 171q0 50 14 106t42 112t80.5 92t119.5 36q92 0 135 -62l-44 -53q-36 37 -86 37q-42 0 -74 -30t-48.5 -74.5t-24 -85t-7.5 -72.5q0 -98 82 -98q58 0 116 48zM443 600l-40 -40l-92 77l-124 -77l-27 42l165 124z" />
    <glyph glyph-name="Cdotaccent" unicode="&#x10a;" horiz-adv-x="517" 
d="M419 148l39 -56q-92 -102 -213 -102q-95 0 -145 56t-50 164q0 46 7.5 96.5t23 104.5t42.5 102.5t61.5 87t84 61.5t107.5 23q125 0 164 -112l-58 -46q-34 71 -101 71q-68 0 -119 -63t-74 -145.5t-23 -163.5q0 -148 109 -148q74 0 145 70zM383 735q-29 0 -40 7t-11 24
q0 36 17 53q14 14 54 14q29 0 40 -7t11 -23q0 -38 -16 -54q-14 -14 -55 -14z" />
    <glyph glyph-name="cdotaccent" unicode="&#x10b;" horiz-adv-x="425" 
d="M339 118l27 -54q-82 -73 -173 -73q-159 0 -159 171q0 50 14 106t42 112t80.5 92t119.5 36q92 0 135 -62l-44 -53q-36 37 -86 37q-42 0 -74 -30t-48.5 -74.5t-24 -85t-7.5 -72.5q0 -98 82 -98q58 0 116 48zM304 586q-31 0 -44 7t-13 26q0 12 5.5 32.5t13.5 27.5
q15 15 54 15q58 0 58 -33q0 -12 -5.5 -32.5t-13.5 -28.5q-15 -14 -55 -14z" />
    <glyph glyph-name="Ccaron" unicode="&#x10c;" horiz-adv-x="517" 
d="M419 148l39 -56q-92 -102 -213 -102q-95 0 -145 56t-50 164q0 46 7.5 96.5t23 104.5t42.5 102.5t61.5 87t84 61.5t107.5 23q125 0 164 -112l-58 -46q-34 71 -101 71q-68 0 -119 -63t-74 -145.5t-23 -163.5q0 -148 109 -148q74 0 145 70zM393 723l-135 89l36 44l109 -57
l132 57l20 -46z" />
    <glyph glyph-name="ccaron" unicode="&#x10d;" horiz-adv-x="425" 
d="M339 118l27 -54q-82 -73 -173 -73q-159 0 -159 171q0 50 14 106t42 112t80.5 92t119.5 36q92 0 135 -62l-44 -53q-36 37 -86 37q-42 0 -74 -30t-48.5 -74.5t-24 -85t-7.5 -72.5q0 -98 82 -98q58 0 116 48zM463 682l-165 -123l-118 126l39 40l94 -77l123 77z" />
    <glyph glyph-name="Dcaron" unicode="&#x10e;" horiz-adv-x="587" 
d="M568 447q0 -46 -10 -101.5t-41.5 -129t-79.5 -122.5q-99 -97 -247 -97q-30 0 -83.5 1.5t-73.5 1.5l131 675q31 0 83 0.5t79 0.5q124 0 183 -62.5t59 -166.5zM452 440q0 155 -141 155q-37 0 -54 -1l-100 -511q38 -2 53 -2q83 0 139 56q55 55 79 146t24 157zM363 723
l-135 89l36 44l109 -57l132 57l20 -46z" />
    <glyph glyph-name="dcaron" unicode="&#x10f;" horiz-adv-x="568" 
d="M399 0h-85l15 104q-31 -50 -76.5 -82t-92.5 -32q-62 0 -94.5 46.5t-32.5 116.5q0 44 7.5 88.5t28 94t52 86.5t86 61.5t123.5 24.5l64 -5l40 206h103zM139 169q0 -97 58 -97q44 0 90 60.5t65 157.5l26 133q-31 10 -67 10q-39 0 -70 -20t-49.5 -49.5t-31 -67t-17 -69
t-4.5 -58.5zM693 737l-91 -177l-53 11l68 183z" />
    <glyph glyph-name="Dcroat" unicode="&#x110;" horiz-adv-x="597" 
d="M578 447q0 -46 -10 -101.5t-41.5 -129t-79.5 -122.5q-99 -97 -247 -97q-30 0 -83.5 1.5t-73.5 1.5l60 309h-60l16 81h60l55 285q31 0 83 0.5t79 0.5q124 0 183 -62.5t59 -166.5zM462 440q0 155 -141 155q-37 0 -54 -1l-40 -204h110l-16 -81h-110l-44 -226q38 -2 53 -2
q83 0 139 56q55 55 79 146t24 157z" />
    <glyph glyph-name="dcroat" unicode="&#x111;" horiz-adv-x="524" 
d="M399 0h-85l15 104q-31 -50 -76.5 -82t-92.5 -32q-62 0 -94.5 46.5t-32.5 116.5q0 44 7.5 88.5t28 94t52 86.5t86 61.5t123.5 24.5l64 -5l13 67h-102l11 60h103l15 79h103l-16 -79h74l-12 -60h-73zM139 169q0 -97 58 -97q44 0 90 60.5t65 157.5l26 133q-31 10 -67 10
q-39 0 -70 -20t-49.5 -49.5t-31 -67t-17 -69t-4.5 -58.5z" />
    <glyph glyph-name="Emacron" unicode="&#x112;" horiz-adv-x="473" 
d="M372 0h-339l131 675h335l-17 -84h-226l-39 -201h187l-16 -81h-187l-43 -224h229zM482 747h-277l13 69h277z" />
    <glyph glyph-name="emacron" unicode="&#x113;" horiz-adv-x="484" 
d="M382 100l7 -62q-89 -48 -182 -48q-174 0 -174 170q0 30 5 67t22.5 89t45 92.5t79 70t118.5 29.5q69 0 110.5 -32t41.5 -86q0 -159 -310 -159q-8 -35 -8 -65q0 -96 97 -96q69 0 148 30zM356 383q0 54 -67 54q-48 0 -81.5 -39t-49.5 -101q80 0 125.5 12t59 29.5t13.5 44.5z
M440 596h-270l14 73h270z" />
    <glyph glyph-name="Ebreve" unicode="&#x114;" horiz-adv-x="473" 
d="M372 0h-339l131 675h335l-17 -84h-226l-39 -201h187l-16 -81h-187l-43 -224h229zM436 858h64q-12 -67 -56.5 -103t-106.5 -36q-67 0 -98 37t-17 102h63q-7 -31 9 -50.5t52 -19.5q37 0 61 19.5t29 50.5z" />
    <glyph glyph-name="ebreve" unicode="&#x115;" horiz-adv-x="484" 
d="M382 100l7 -62q-89 -48 -182 -48q-174 0 -174 170q0 30 5 67t22.5 89t45 92.5t79 70t118.5 29.5q69 0 110.5 -32t41.5 -86q0 -159 -310 -159q-8 -35 -8 -65q0 -96 97 -96q69 0 148 30zM356 383q0 54 -67 54q-48 0 -81.5 -39t-49.5 -101q80 0 125.5 12t59 29.5t13.5 44.5z
M401 718h65q-13 -75 -56 -114.5t-110 -39.5q-68 0 -98.5 40t-16.5 114h65q-8 -42 6 -61t53 -19q76 0 92 80z" />
    <glyph glyph-name="Edotaccent" unicode="&#x116;" horiz-adv-x="473" 
d="M372 0h-339l131 675h335l-17 -84h-226l-39 -201h187l-16 -81h-187l-43 -224h229zM338 733q-29 0 -40 7t-11 24q0 36 17 53q14 14 54 14q29 0 40 -7t11 -23q0 -38 -16 -54q-14 -14 -55 -14z" />
    <glyph glyph-name="edotaccent" unicode="&#x117;" horiz-adv-x="484" 
d="M382 100l7 -62q-89 -48 -182 -48q-174 0 -174 170q0 30 5 67t22.5 89t45 92.5t79 70t118.5 29.5q69 0 110.5 -32t41.5 -86q0 -159 -310 -159q-8 -35 -8 -65q0 -96 97 -96q69 0 148 30zM356 383q0 54 -67 54q-48 0 -81.5 -39t-49.5 -101q80 0 125.5 12t59 29.5t13.5 44.5z
M306 586q-31 0 -44 7t-13 26q0 12 5.5 32.5t13.5 27.5q15 15 54 15q58 0 58 -33q0 -12 -5.5 -32.5t-13.5 -28.5q-15 -14 -55 -14z" />
    <glyph glyph-name="Eogonek" unicode="&#x118;" horiz-adv-x="473" 
d="M387 85l-15 -85q-41 -24 -64 -51t-23 -48q0 -22 24 -22q25 0 49 13l10 -48q-42 -24 -90 -24q-81 0 -81 64q0 55 79 116h-243l131 675h335l-17 -84h-226l-39 -201h187l-16 -81h-187l-43 -224h229z" />
    <glyph glyph-name="eogonek" unicode="&#x119;" horiz-adv-x="484" 
d="M382 100l7 -62q-121 -93 -121 -137q0 -22 25 -22q23 0 49 13l10 -48q-42 -24 -90 -24q-82 0 -82 64q0 24 20 55t58 58q-30 -7 -51 -7q-174 0 -174 170q0 30 5 67t22.5 89t45 92.5t79 70t118.5 29.5q69 0 110.5 -32t41.5 -86q0 -159 -310 -159q-8 -35 -8 -65q0 -96 97 -96
q69 0 148 30zM356 383q0 54 -67 54q-48 0 -81.5 -39t-49.5 -101q80 0 125.5 12t59 29.5t13.5 44.5z" />
    <glyph glyph-name="Ecaron" unicode="&#x11a;" horiz-adv-x="473" 
d="M372 0h-339l131 675h335l-17 -84h-226l-39 -201h187l-16 -81h-187l-43 -224h229zM339 723l-135 89l36 44l109 -57l132 57l20 -46z" />
    <glyph glyph-name="ecaron" unicode="&#x11b;" horiz-adv-x="484" 
d="M382 100l7 -62q-89 -48 -182 -48q-174 0 -174 170q0 30 5 67t22.5 89t45 92.5t79 70t118.5 29.5q69 0 110.5 -32t41.5 -86q0 -159 -310 -159q-8 -35 -8 -65q0 -96 97 -96q69 0 148 30zM356 383q0 54 -67 54q-48 0 -81.5 -39t-49.5 -101q80 0 125.5 12t59 29.5t13.5 44.5z
M461 682l-165 -123l-118 126l39 40l94 -77l123 77z" />
    <glyph glyph-name="Gcircumflex" unicode="&#x11c;" horiz-adv-x="574" 
d="M525 377l-60 -311q-106 -76 -223 -76q-93 0 -142.5 55.5t-49.5 167.5q0 113 37 218.5t103 170.5q81 83 193 83q119 0 177 -92l-53 -46q-57 52 -120 52q-62 0 -114 -50q-52 -52 -81 -146t-29 -185q0 -141 104 -141q54 0 99 29l38 191h-90l16 80h195zM418 856l134 -88
l-35 -45l-109 57l-133 -57l-20 45z" />
    <glyph glyph-name="gcircumflex" unicode="&#x11d;" horiz-adv-x="524" 
d="M494 490l-95 -489q-20 -101 -77.5 -141t-152.5 -40q-82 0 -164 35l17 58q93 -15 146 -15q59 0 88.5 22t39.5 76l9 49q3 14 19 76q-27 -47 -70.5 -79.5t-89.5 -32.5q-63 0 -96 44.5t-33 118.5q0 41 8 83.5t28.5 89t52.5 82t85.5 58.5t120.5 23q37 0 78 -4.5t64 -9.5z
M142 182q0 -92 59 -92q43 0 89 59.5t64 150.5l24 123q-31 10 -67 10q-45 0 -79.5 -26t-53 -66t-27.5 -81t-9 -78zM466 600l-40 -40l-92 77l-124 -77l-27 42l165 124z" />
    <glyph glyph-name="Gbreve" unicode="&#x11e;" horiz-adv-x="574" 
d="M525 377l-60 -311q-106 -76 -223 -76q-93 0 -142.5 55.5t-49.5 167.5q0 113 37 218.5t103 170.5q81 83 193 83q119 0 177 -92l-53 -46q-57 52 -120 52q-62 0 -114 -50q-52 -52 -81 -146t-29 -185q0 -141 104 -141q54 0 99 29l38 191h-90l16 80h195zM488 860h64
q-12 -67 -56.5 -103t-106.5 -36q-67 0 -98 37t-17 102h63q-7 -31 9 -50.5t52 -19.5q37 0 61 19.5t29 50.5z" />
    <glyph glyph-name="gbreve" unicode="&#x11f;" horiz-adv-x="524" 
d="M494 490l-95 -489q-20 -101 -77.5 -141t-152.5 -40q-82 0 -164 35l17 58q93 -15 146 -15q59 0 88.5 22t39.5 76l9 49q3 14 19 76q-27 -47 -70.5 -79.5t-89.5 -32.5q-63 0 -96 44.5t-33 118.5q0 41 8 83.5t28.5 89t52.5 82t85.5 58.5t120.5 23q37 0 78 -4.5t64 -9.5z
M142 182q0 -92 59 -92q43 0 89 59.5t64 150.5l24 123q-31 10 -67 10q-45 0 -79.5 -26t-53 -66t-27.5 -81t-9 -78zM427 718h65q-13 -75 -56 -114.5t-110 -39.5q-68 0 -98.5 40t-16.5 114h65q-8 -42 6 -61t53 -19q76 0 92 80z" />
    <glyph glyph-name="Gdotaccent" unicode="&#x120;" horiz-adv-x="574" 
d="M525 377l-60 -311q-106 -76 -223 -76q-93 0 -142.5 55.5t-49.5 167.5q0 113 37 218.5t103 170.5q81 83 193 83q119 0 177 -92l-53 -46q-57 52 -120 52q-62 0 -114 -50q-52 -52 -81 -146t-29 -185q0 -141 104 -141q54 0 99 29l38 191h-90l16 80h195zM395 735q-29 0 -40 7
t-11 24q0 36 17 53q14 14 54 14q29 0 40 -7t11 -23q0 -38 -16 -54q-14 -14 -55 -14z" />
    <glyph glyph-name="gdotaccent" unicode="&#x121;" horiz-adv-x="524" 
d="M494 490l-95 -489q-20 -101 -77.5 -141t-152.5 -40q-82 0 -164 35l17 58q93 -15 146 -15q59 0 88.5 22t39.5 76l9 49q3 14 19 76q-27 -47 -70.5 -79.5t-89.5 -32.5q-63 0 -96 44.5t-33 118.5q0 41 8 83.5t28.5 89t52.5 82t85.5 58.5t120.5 23q37 0 78 -4.5t64 -9.5z
M142 182q0 -92 59 -92q43 0 89 59.5t64 150.5l24 123q-31 10 -67 10q-45 0 -79.5 -26t-53 -66t-27.5 -81t-9 -78zM325 586q-31 0 -44 7t-13 26q0 12 5.5 32.5t13.5 27.5q15 15 54 15q58 0 58 -33q0 -12 -5.5 -32.5t-13.5 -28.5q-15 -14 -55 -14z" />
    <glyph glyph-name="Gcommaaccent" unicode="&#x122;" horiz-adv-x="574" 
d="M525 377l-60 -311q-106 -76 -223 -76q-93 0 -142.5 55.5t-49.5 167.5q0 113 37 218.5t103 170.5q81 83 193 83q119 0 177 -92l-53 -46q-57 52 -120 52q-62 0 -114 -50q-52 -52 -81 -146t-29 -185q0 -141 104 -141q54 0 99 29l38 191h-90l16 80h195zM233 -36q42 0 42 -36
q0 -41 -36 -68.5t-101 -38.5l-10 35q60 22 60 46q0 2 -1.5 8.5t-1.5 13.5q0 17 13 28.5t35 11.5z" />
    <glyph glyph-name="gcommaaccent" unicode="&#x123;" horiz-adv-x="524" 
d="M494 490l-95 -489q-20 -101 -77.5 -141t-152.5 -40q-82 0 -164 35l17 58q93 -15 146 -15q59 0 88.5 22t39.5 76l9 49q3 14 19 76q-27 -47 -70.5 -79.5t-89.5 -32.5q-63 0 -96 44.5t-33 118.5q0 41 8 83.5t28.5 89t52.5 82t85.5 58.5t120.5 23q37 0 78 -4.5t64 -9.5z
M142 182q0 -92 59 -92q43 0 89 59.5t64 150.5l24 123q-31 10 -67 10q-45 0 -79.5 -26t-53 -66t-27.5 -81t-9 -78zM308 600q0 41 38 75.5t113 40.5l9 -37q-34 -9 -54 -24.5t-20 -29.5q0 -3 2 -9t2 -13q0 -17 -13 -29t-37 -12q-40 0 -40 38z" />
    <glyph glyph-name="Hcircumflex" unicode="&#x124;" horiz-adv-x="658" 
d="M525 0h-108l59 308h-276l-59 -308h-108l131 675h108l-54 -276h276l54 276h108zM439 856l134 -88l-35 -45l-109 57l-133 -57l-20 45z" />
    <glyph glyph-name="hcircumflex" unicode="&#x125;" horiz-adv-x="541" 
d="M416 0h-102q12 64 26.5 132.5t22 102.5t12.5 65.5t5 51.5q0 72 -55 72q-46 0 -92.5 -62t-64.5 -154l-40 -208h-103l138 709h103l-45 -230q-9 -48 -21 -82q28 47 71.5 79t92.5 32q120 0 120 -136q0 -35 -8 -79t-27 -132t-33 -161zM247 885l131 -88l-33 -45l-111 57
l-130 -57l-22 44z" />
    <glyph glyph-name="Hbar" unicode="&#x126;" horiz-adv-x="678" 
d="M535 0h-108l55 285h-275l-56 -285h-107l93 483h-76l15 77h76l22 115h108l-22 -115h275l23 115h108l-23 -115h76l-15 -77h-75zM223 372h276l22 111h-276z" />
    <glyph glyph-name="hbar" unicode="&#x127;" horiz-adv-x="541" 
d="M416 0h-102q12 63 26.5 132t21.5 102t12 64.5t5 51.5q0 72 -55 72q-46 0 -92 -62t-64 -154l-40 -206h-103l112 573h-73l14 71h73l13 71h103l-14 -71h138l-14 -71h-138l-18 -96q-12 -53 -21 -82q28 47 71 79t92 32q121 0 121 -136q0 -35 -8 -79t-27 -131t-33 -160z" />
    <glyph glyph-name="Itilde" unicode="&#x128;" horiz-adv-x="274" 
d="M141 0h-108l131 675h108zM368 844l44 -30q-26 -46 -52.5 -66t-65.5 -20q-36 0 -71 26t-49 26q-15 0 -27.5 -10.5t-34.5 -39.5l-43 30q27 45 53.5 65.5t64.5 20.5q36 0 70.5 -26t48.5 -26q15 0 27.5 10.5t34.5 39.5z" />
    <glyph glyph-name="itilde" unicode="&#x129;" horiz-adv-x="253" 
d="M128 0h-103l96 498h103zM325 692l42 -31q-27 -45 -53 -65.5t-63 -20.5q-27 0 -49.5 13t-39 26t-29.5 13q-15 0 -27 -10.5t-34 -39.5l-42 31q27 45 52.5 65t62.5 20q27 0 49.5 -13t39 -26t29.5 -13q15 0 27 10.5t35 40.5z" />
    <glyph glyph-name="Imacron" unicode="&#x12a;" horiz-adv-x="274" 
d="M141 0h-108l131 675h108zM370 747h-277l13 69h277z" />
    <glyph glyph-name="imacron" unicode="&#x12b;" horiz-adv-x="253" 
d="M128 0h-103l96 498h103zM327 596h-270l14 73h270z" />
    <glyph glyph-name="Ibreve" unicode="&#x12c;" horiz-adv-x="274" 
d="M141 0h-108l131 675h108zM327 858h64q-12 -67 -56.5 -103t-106.5 -36q-67 0 -98 37t-17 102h63q-7 -31 9 -50.5t52 -19.5q37 0 61 19.5t29 50.5z" />
    <glyph glyph-name="ibreve" unicode="&#x12d;" horiz-adv-x="253" 
d="M128 0h-103l96 498h103zM289 718h65q-13 -75 -56 -114.5t-110 -39.5q-68 0 -98.5 40t-16.5 114h65q-8 -42 6 -61t53 -19q76 0 92 80z" />
    <glyph glyph-name="Iogonek" unicode="&#x12e;" horiz-adv-x="274" 
d="M33 0l131 675h108l-131 -675q-42 -16 -69 -45t-27 -54q0 -22 25 -22q23 0 49 13l10 -48q-42 -24 -90 -24q-82 0 -82 64q0 52 76 116z" />
    <glyph glyph-name="iogonek" unicode="&#x12f;" horiz-adv-x="253" 
d="M224 498l-96 -498q-40 -16 -66 -45t-26 -54q0 -22 26 -22q20 0 48 13l7 -48q-45 -24 -92 -24q-77 0 -77 58q0 56 77 122l96 498h103zM191 580q-31 0 -44 7t-13 26q0 14 5.5 35t13.5 29q15 15 54 15q32 0 45 -7.5t13 -26.5q0 -14 -5.5 -34.5t-13.5 -28.5q-14 -15 -55 -15z
" />
    <glyph glyph-name="Idotaccent" unicode="&#x130;" horiz-adv-x="274" 
d="M141 0h-108l131 675h108zM227 733q-29 0 -40 7t-11 24q0 36 17 53q14 14 54 14q29 0 40 -7t11 -23q0 -38 -16 -54q-14 -14 -55 -14z" />
    <glyph glyph-name="dotlessi" unicode="&#x131;" horiz-adv-x="253" 
d="M128 0h-103l96 498h103z" />
    <glyph glyph-name="IJ" unicode="&#x132;" horiz-adv-x="555" 
d="M141 0h-108l131 675h108zM552 675l-116 -600q-18 -91 -53.5 -148.5t-103.5 -101.5l-47 47q40 38 60.5 85t34.5 119l117 599h108z" />
    <glyph glyph-name="ij" unicode="&#x133;" horiz-adv-x="506" 
d="M128 0h-103l96 498h103zM191 580q-31 0 -44 7t-13 26q0 14 5.5 35t13.5 29q15 15 54 15q32 0 45 -7.5t13 -26.5q0 -14 -5.5 -34.5t-13.5 -28.5q-14 -15 -55 -15zM477 498l-88 -456q-14 -74 -47 -125t-97 -97l-61 36q79 72 99 170l91 472h103zM444 580q-31 0 -44 7t-13 26
q0 14 5.5 35t13.5 29q15 15 54 15q32 0 45 -7.5t13 -26.5q0 -14 -5.5 -34.5t-13.5 -28.5q-14 -15 -55 -15z" />
    <glyph glyph-name="Jcircumflex" unicode="&#x134;" horiz-adv-x="280" 
d="M278 675l-116 -600q-18 -91 -53.5 -148.5t-103.5 -101.5l-47 47q40 38 60.5 85t34.5 119l117 599h108zM255 856l134 -88l-35 -45l-109 57l-133 -57l-20 45z" />
    <glyph glyph-name="jcircumflex" unicode="&#x135;" horiz-adv-x="253" 
d="M224 498l-88 -456q-14 -74 -47 -125t-97 -97l-61 36q79 72 99 170l91 472h103zM331 600l-40 -40l-92 77l-124 -77l-27 42l165 124z" />
    <glyph glyph-name="Kcommaaccent" unicode="&#x136;" horiz-adv-x="534" 
d="M464 0h-120l-139 323h-2l-62 -323h-108l131 675h108l-57 -294h2l243 294h120l-273 -313zM218 -36q42 0 42 -36q0 -41 -36 -68.5t-101 -38.5l-10 35q60 22 60 46q0 2 -1.5 8.5t-1.5 13.5q0 17 13 28.5t35 11.5z" />
    <glyph glyph-name="kcommaaccent" unicode="&#x137;" horiz-adv-x="473" 
d="M409 0h-118l-111 253h-3l-49 -253h-103l138 709h102l-81 -415h4l177 204h123l-209 -220zM188 -36q42 0 42 -36q0 -41 -36 -68.5t-101 -38.5l-10 35q60 22 60 46q0 2 -1.5 8.5t-1.5 13.5q0 17 13 28.5t35 11.5z" />
    <glyph glyph-name="kgreenlandic" unicode="&#x138;" horiz-adv-x="473" 
d="M407 0h-117l-112 243h-3l-47 -243h-103l97 498h103l-43 -214h4l182 214h122l-214 -231z" />
    <glyph glyph-name="Lacute" unicode="&#x139;" horiz-adv-x="421" 
d="M354 0h-321l131 675h108l-114 -590h212zM435 787l-199 -64l-26 49l188 84z" />
    <glyph glyph-name="lacute" unicode="&#x13a;" horiz-adv-x="271" 
d="M203 66l-6 -62q-35 -11 -79 -11q-40 0 -59 15t-19 53q0 21 7 55l115 593h103l-110 -572q-7 -32 -7 -47t6 -20t22 -5q5 0 14.5 0.5t12.5 0.5zM418 798l-199 -64l-26 49l188 84z" />
    <glyph glyph-name="Lcommaaccent" unicode="&#x13b;" horiz-adv-x="421" 
d="M354 0h-321l131 675h108l-114 -590h212zM177 -36q42 0 42 -36q0 -41 -36 -68.5t-101 -38.5l-10 35q60 22 60 46q0 2 -1.5 8.5t-1.5 13.5q0 17 13 28.5t35 11.5z" />
    <glyph glyph-name="lcommaaccent" unicode="&#x13c;" horiz-adv-x="271" 
d="M203 66l-6 -62q-35 -11 -79 -11q-40 0 -59 15t-19 53q0 21 7 55l115 593h103l-110 -572q-7 -32 -7 -47t6 -20t22 -5q5 0 14.5 0.5t12.5 0.5zM111 -36q42 0 42 -36q0 -41 -36 -68.5t-101 -38.5l-10 35q60 22 60 46q0 2 -1.5 8.5t-1.5 13.5q0 17 13 28.5t35 11.5z" />
    <glyph glyph-name="Lcaron" unicode="&#x13d;" horiz-adv-x="421" 
d="M354 0h-321l131 675h108l-114 -590h212zM471 737l-91 -177l-53 11l68 183z" />
    <glyph glyph-name="lcaron" unicode="&#x13e;" horiz-adv-x="310" 
d="M203 66l-6 -62q-35 -11 -79 -11q-40 0 -59 15t-19 53q0 21 7 55l115 593h103l-110 -572q-7 -32 -7 -47t6 -20t22 -5q5 0 14.5 0.5t12.5 0.5zM421 737l-91 -177l-53 11l68 183z" />
    <glyph glyph-name="Ldot" unicode="&#x13f;" horiz-adv-x="523" 
d="M354 0h-321l131 675h108l-114 -590h212zM428 276q-30 0 -42.5 8t-12.5 29q0 19 6 41t14 31q17 15 54 15q31 0 43.5 -8t12.5 -29q0 -19 -6 -41t-15 -31q-15 -15 -54 -15z" />
    <glyph glyph-name="ldot" unicode="&#x140;" horiz-adv-x="481" 
d="M203 66l-6 -62q-35 -11 -79 -11q-40 0 -59 15t-19 53q0 21 7 55l115 593h103l-110 -572q-7 -32 -7 -47t6 -20t22 -5q5 0 14.5 0.5t12.5 0.5zM364 236q-30 0 -42.5 8t-12.5 29q0 19 6 41t14 31q17 15 54 15q31 0 43.5 -8t12.5 -29q0 -19 -6 -41t-15 -31q-15 -15 -54 -15z
" />
    <glyph glyph-name="Lslash" unicode="&#x141;" horiz-adv-x="429" 
d="M239 462l124 61l-16 -78l-124 -60l-57 -300h212l-16 -85h-321l64 330l-77 -38l15 78l77 37l52 268h108z" />
    <glyph glyph-name="lslash" unicode="&#x142;" horiz-adv-x="280" 
d="M211 66l-6 -62q-33 -11 -78 -11q-40 0 -59 15t-19 53q0 21 7 55l39 202l-75 -37l16 80l75 38l60 310h102l-49 -255l74 37l-16 -80l-74 -37l-45 -237q-7 -32 -7 -47t6.5 -20t21.5 -5q6 0 15 0.5t12 0.5z" />
    <glyph glyph-name="Nacute" unicode="&#x143;" horiz-adv-x="644" 
d="M511 0h-104l-135 388l-48 152h-1q-13 -97 -25 -160l-74 -380h-91l131 675h125l120 -343l49 -155h1q15 101 27 163l65 335h91zM606 787l-199 -64l-26 49l188 84z" />
    <glyph glyph-name="nacute" unicode="&#x144;" horiz-adv-x="541" 
d="M325 424q-46 0 -92.5 -61.5t-64.5 -154.5l-40 -208h-103l97 498h85l-15 -104q31 50 76 82t96 32q120 0 120 -136q0 -35 -8 -79t-27 -132t-33 -161h-102q12 64 26.5 132.5t22 102.5t12.5 65.5t5 51.5q0 72 -55 72zM503 676l-172 -118l-49 32l152 132z" />
    <glyph glyph-name="Ncommaaccent" unicode="&#x145;" horiz-adv-x="644" 
d="M511 0h-104l-135 388l-48 152h-1q-13 -97 -25 -160l-74 -380h-91l131 675h125l120 -343l49 -155h1q15 101 27 163l65 335h91zM253 -36q42 0 42 -36q0 -41 -36 -68.5t-101 -38.5l-10 35q60 22 60 46q0 2 -1.5 8.5t-1.5 13.5q0 17 13 28.5t35 11.5z" />
    <glyph glyph-name="ncommaaccent" unicode="&#x146;" horiz-adv-x="541" 
d="M325 424q-46 0 -92.5 -61.5t-64.5 -154.5l-40 -208h-103l97 498h85l-15 -104q31 50 76 82t96 32q120 0 120 -136q0 -35 -8 -79t-27 -132t-33 -161h-102q12 64 26.5 132.5t22 102.5t12.5 65.5t5 51.5q0 72 -55 72zM205 -36q42 0 42 -36q0 -41 -36 -68.5t-101 -38.5l-10 35
q60 22 60 46q0 2 -1.5 8.5t-1.5 13.5q0 17 13 28.5t35 11.5z" />
    <glyph glyph-name="Ncaron" unicode="&#x147;" horiz-adv-x="644" 
d="M511 0h-104l-135 388l-48 152h-1q-13 -97 -25 -160l-74 -380h-91l131 675h125l120 -343l49 -155h1q15 101 27 163l65 335h91zM426 723l-135 89l36 44l109 -57l132 57l20 -46z" />
    <glyph glyph-name="ncaron" unicode="&#x148;" horiz-adv-x="541" 
d="M325 424q-46 0 -92.5 -61.5t-64.5 -154.5l-40 -208h-103l97 498h85l-15 -104q31 50 76 82t96 32q120 0 120 -136q0 -35 -8 -79t-27 -132t-33 -161h-102q12 64 26.5 132.5t22 102.5t12.5 65.5t5 51.5q0 72 -55 72zM492 682l-165 -123l-118 126l39 40l94 -77l123 77z" />
    <glyph glyph-name="napostrophe" unicode="&#x149;" horiz-adv-x="599" 
d="M383 424q-46 0 -92.5 -61.5t-64.5 -154.5l-40 -208h-103l97 498h85l-15 -104q31 50 76 82t96 32q120 0 120 -136q0 -35 -8 -79t-27 -132t-33 -161h-102q12 64 26.5 132.5t22 102.5t12.5 65.5t5 51.5q0 72 -55 72zM205 752q25 0 34.5 -8.5t9.5 -27.5q0 -55 -35 -109
t-110 -93l-30 38q80 50 80 91q0 7 -7 17.5t-7 22.5q0 41 18 57q12 12 47 12z" />
    <glyph glyph-name="Eng" unicode="&#x14a;" horiz-adv-x="644" 
d="M511 0h-2q-31 -113 -143 -180l-39 46q63 49 80 134h-7l-130 388q-17 50 -46 151v1h-1v-2q-12 -82 -22 -142l-3 -16l-74 -380h-91l131 675h127l57 -171l61 -172l49 -155h1q15 101 27 163l65 335h92l-91 -464z" />
    <glyph glyph-name="eng" unicode="&#x14b;" horiz-adv-x="541" 
d="M320 27q60 288 60 325q0 72 -55 72q-46 0 -92.5 -61.5t-64.5 -154.5l-40 -208h-103l97 498h85l-15 -104q31 50 76 82t96 32q120 0 120 -136q0 -54 -59 -331q-17 -79 -47.5 -127t-94.5 -94l-62 36q80 73 99 171z" />
    <glyph glyph-name="Omacron" unicode="&#x14c;" horiz-adv-x="639" 
d="M270 -10q-220 0 -220 222q0 81 20.5 161t60.5 151.5t109.5 116t157.5 44.5q221 0 221 -222q0 -83 -20 -163t-60 -150.5t-110 -114.5t-159 -45zM505 458q0 75 -29.5 109.5t-91.5 34.5q-47 0 -86 -28.5t-63 -71.5t-40.5 -97t-23.5 -101t-7 -87q0 -75 29.5 -109t91.5 -34
q47 0 86 28.5t63 71.5t40.5 96.5t23.5 100.5t7 87zM552 747h-277l13 69h277z" />
    <glyph glyph-name="omacron" unicode="&#x14d;" horiz-adv-x="530" 
d="M210 -10q-175 0 -175 172q0 41 6.5 83t25.5 91t49 85.5t81.5 61.5t118.5 25q176 0 176 -172q0 -41 -6.5 -83t-26 -90.5t-49.5 -85.5t-81.5 -62t-118.5 -25zM387 333q0 51 -21.5 74.5t-66.5 23.5t-78.5 -30t-50 -75.5t-24 -86.5t-7.5 -74q0 -51 21.5 -74.5t66.5 -23.5
q37 0 66 20.5t46 51t28.5 68.5t15.5 69t4 57zM463 596h-270l14 73h270z" />
    <glyph glyph-name="Obreve" unicode="&#x14e;" horiz-adv-x="639" 
d="M270 -10q-220 0 -220 222q0 81 20.5 161t60.5 151.5t109.5 116t157.5 44.5q221 0 221 -222q0 -83 -20 -163t-60 -150.5t-110 -114.5t-159 -45zM505 458q0 75 -29.5 109.5t-91.5 34.5q-47 0 -86 -28.5t-63 -71.5t-40.5 -97t-23.5 -101t-7 -87q0 -75 29.5 -109t91.5 -34
q47 0 86 28.5t63 71.5t40.5 96.5t23.5 100.5t7 87zM512 858h64q-12 -67 -56.5 -103t-106.5 -36q-67 0 -98 37t-17 102h63q-7 -31 9 -50.5t52 -19.5q37 0 61 19.5t29 50.5z" />
    <glyph glyph-name="obreve" unicode="&#x14f;" horiz-adv-x="530" 
d="M210 -10q-175 0 -175 172q0 41 6.5 83t25.5 91t49 85.5t81.5 61.5t118.5 25q176 0 176 -172q0 -41 -6.5 -83t-26 -90.5t-49.5 -85.5t-81.5 -62t-118.5 -25zM387 333q0 51 -21.5 74.5t-66.5 23.5t-78.5 -30t-50 -75.5t-24 -86.5t-7.5 -74q0 -51 21.5 -74.5t66.5 -23.5
q37 0 66 20.5t46 51t28.5 68.5t15.5 69t4 57zM424 718h65q-13 -75 -56 -114.5t-110 -39.5q-68 0 -98.5 40t-16.5 114h65q-8 -42 6.5 -61t52.5 -19q76 0 92 80z" />
    <glyph glyph-name="Ohungarumlaut" unicode="&#x150;" horiz-adv-x="639" 
d="M270 -10q-220 0 -220 222q0 81 20.5 161t60.5 151.5t109.5 116t157.5 44.5q221 0 221 -222q0 -83 -20 -163t-60 -150.5t-110 -114.5t-159 -45zM505 458q0 75 -29.5 109.5t-91.5 34.5q-47 0 -86 -28.5t-63 -71.5t-40.5 -97t-23.5 -101t-7 -87q0 -75 29.5 -109t91.5 -34
q47 0 86 28.5t63 71.5t40.5 96.5t23.5 100.5t7 87zM707 807l-199 -89l-37 35l185 106zM495 818l-184 -101l-39 31l165 117z" />
    <glyph glyph-name="ohungarumlaut" unicode="&#x151;" horiz-adv-x="530" 
d="M210 -10q-175 0 -175 172q0 41 6.5 83t25.5 91t49 85.5t81.5 61.5t118.5 25q176 0 176 -172q0 -41 -6.5 -83t-26 -90.5t-49.5 -85.5t-81.5 -62t-118.5 -25zM387 333q0 51 -21.5 74.5t-66.5 23.5t-78.5 -30t-50 -75.5t-24 -86.5t-7.5 -74q0 -51 21.5 -74.5t66.5 -23.5
q37 0 66 20.5t46 51t28.5 68.5t15.5 69t4 57zM584 673l-168 -115l-49 30l149 131zM391 680l-159 -125l-48 31l140 138z" />
    <glyph glyph-name="OE" unicode="&#x152;" horiz-adv-x="775" 
d="M800 675l-17 -84h-226l-39 -201h187l-15 -81h-188l-44 -224h231l-16 -85h-312q-52 -10 -90 -10q-221 0 -221 222q0 81 20.5 161t60.5 151.5t109.5 116t157.5 44.5q54 0 93 -10h309zM350 83l98 505q-26 14 -64 14q-47 0 -86 -28.5t-63 -71.5t-40.5 -97t-23.5 -101t-7 -87
q0 -75 30 -109t92 -34q30 0 64 9z" />
    <glyph glyph-name="oe" unicode="&#x153;" horiz-adv-x="816" 
d="M787 390q0 -159 -310 -159q-8 -35 -8 -65q0 -96 97 -96q68 0 148 30l7 -62q-89 -48 -182 -48q-115 0 -143 88q-71 -88 -186 -88q-175 0 -175 172q0 41 6.5 83t25.5 91t49 85.5t81.5 61.5t118.5 25q114 0 144 -90q69 90 175 90q69 0 110.5 -32t41.5 -86zM688 383
q0 54 -67 54q-48 0 -81.5 -39t-49.5 -101q80 0 125.5 12t59 29.5t13.5 44.5zM387 333q0 51 -21.5 74.5t-66.5 23.5t-78.5 -30t-50 -75.5t-24 -86.5t-7.5 -74q0 -51 21.5 -74.5t66.5 -23.5q37 0 66 20.5t46 51t28.5 68.5t15.5 69t4 57z" />
    <glyph glyph-name="Racute" unicode="&#x154;" horiz-adv-x="554" 
d="M489 0h-123l-117 286h-52l-56 -286h-108l131 675q116 2 176 2q215 0 215 -153q0 -76 -50.5 -140.5t-148.5 -79.5zM440 515q0 81 -120 81h-64l-44 -229h70q43 0 75.5 14t49.5 37.5t25 47.5t8 49zM528 787l-199 -64l-26 49l188 84z" />
    <glyph glyph-name="racute" unicode="&#x155;" horiz-adv-x="357" 
d="M381 496l-25 -92q-24 7 -43 7q-39 0 -82.5 -53t-62.5 -151l-40 -207h-103l97 498h84l-15 -111q27 52 66.5 86t81.5 34q23 0 42 -11zM427 676l-172 -118l-49 32l152 132z" />
    <glyph glyph-name="Rcommaaccent" unicode="&#x156;" horiz-adv-x="554" 
d="M489 0h-123l-117 286h-52l-56 -286h-108l131 675q116 2 176 2q215 0 215 -153q0 -76 -50.5 -140.5t-148.5 -79.5zM440 515q0 81 -120 81h-64l-44 -229h70q43 0 75.5 14t49.5 37.5t25 47.5t8 49zM223 -36q42 0 42 -36q0 -41 -36 -68.5t-101 -38.5l-10 35q60 22 60 46
q0 2 -1.5 8.5t-1.5 13.5q0 17 13 28.5t35 11.5z" />
    <glyph glyph-name="rcommaaccent" unicode="&#x157;" horiz-adv-x="357" 
d="M381 496l-25 -92q-24 7 -43 7q-39 0 -82.5 -53t-62.5 -151l-40 -207h-103l97 498h84l-15 -111q27 52 66.5 86t81.5 34q23 0 42 -11zM67 -36q42 0 42 -36q0 -41 -36 -68.5t-101 -38.5l-10 35q60 22 60 46q0 2 -1.5 8.5t-1.5 13.5q0 17 13 28.5t35 11.5z" />
    <glyph glyph-name="Rcaron" unicode="&#x158;" horiz-adv-x="554" 
d="M489 0h-123l-117 286h-52l-56 -286h-108l131 675q116 2 176 2q215 0 215 -153q0 -76 -50.5 -140.5t-148.5 -79.5zM440 515q0 81 -120 81h-64l-44 -229h70q43 0 75.5 14t49.5 37.5t25 47.5t8 49zM356 723l-135 89l36 44l109 -57l132 57l20 -46z" />
    <glyph glyph-name="rcaron" unicode="&#x159;" horiz-adv-x="357" 
d="M381 496l-25 -92q-24 7 -43 7q-39 0 -82.5 -53t-62.5 -151l-40 -207h-103l97 498h84l-15 -111q27 52 66.5 86t81.5 34q23 0 42 -11zM425 682l-165 -123l-118 126l39 40l94 -77l123 77z" />
    <glyph glyph-name="Sacute" unicode="&#x15a;" horiz-adv-x="494" 
d="M189 -9q-108 0 -187 60l34 58q80 -37 143 -37q67 0 107.5 33t40.5 89q0 33 -24 59t-58 45.5t-68 40.5t-58 56.5t-24 81.5q0 89 65 148t170 59q97 0 164 -50l-33 -58q-56 28 -122 28q-60 0 -94.5 -30.5t-34.5 -77.5q0 -33 24.5 -59t59.5 -45.5t70.5 -41t60 -57t24.5 -82.5
q0 -95 -71.5 -157.5t-188.5 -62.5zM522 787l-199 -64l-26 49l188 84z" />
    <glyph glyph-name="sacute" unicode="&#x15b;" horiz-adv-x="408" 
d="M139 -9q-85 0 -148 38l19 55q69 -19 119 -19q52 0 82 21.5t30 60.5q0 24 -19 40.5t-46 28.5t-54.5 25.5t-46.5 39.5t-19 63q0 68 50 115.5t144 47.5q73 0 128 -32l-20 -55q-50 15 -95 15q-43 0 -70 -19.5t-27 -55.5q0 -22 19.5 -38t47 -27.5t54.5 -25.5t46.5 -41
t19.5 -65q0 -77 -58.5 -124.5t-155.5 -47.5zM433 676l-172 -118l-49 32l152 132z" />
    <glyph glyph-name="Scircumflex" unicode="&#x15c;" horiz-adv-x="494" 
d="M189 -9q-108 0 -187 60l34 58q80 -37 143 -37q67 0 107.5 33t40.5 89q0 33 -24 59t-58 45.5t-68 40.5t-58 56.5t-24 81.5q0 89 65 148t170 59q97 0 164 -50l-33 -58q-56 28 -122 28q-60 0 -94.5 -30.5t-34.5 -77.5q0 -33 24.5 -59t59.5 -45.5t70.5 -41t60 -57t24.5 -82.5
q0 -95 -71.5 -157.5t-188.5 -62.5zM365 856l134 -88l-35 -45l-109 57l-133 -57l-20 45z" />
    <glyph glyph-name="scircumflex" unicode="&#x15d;" horiz-adv-x="408" 
d="M139 -9q-85 0 -148 38l19 55q69 -19 119 -19q52 0 82 21.5t30 60.5q0 24 -19 40.5t-46 28.5t-54.5 25.5t-46.5 39.5t-19 63q0 68 50 115.5t144 47.5q73 0 128 -32l-20 -55q-50 15 -95 15q-43 0 -70 -19.5t-27 -55.5q0 -22 19.5 -38t47 -27.5t54.5 -25.5t46.5 -41
t19.5 -65q0 -77 -58.5 -124.5t-155.5 -47.5zM409 600l-40 -40l-92 77l-124 -77l-27 42l165 124z" />
    <glyph glyph-name="Scedilla" unicode="&#x15e;" horiz-adv-x="494" 
d="M189 -9q-108 0 -187 60l34 58q80 -37 143 -37q67 0 107.5 33t40.5 89q0 33 -24 59t-58 45.5t-68 40.5t-58 56.5t-24 81.5q0 89 65 148t170 59q97 0 164 -50l-33 -58q-56 28 -122 28q-60 0 -94.5 -30.5t-34.5 -77.5q0 -33 24.5 -59t59.5 -45.5t70.5 -41t60 -57t24.5 -82.5
q0 -95 -71.5 -157.5t-188.5 -62.5zM135 -43h89q0 -83 -97 -138l-55 27q35 29 48.5 52.5t14.5 58.5z" />
    <glyph glyph-name="scedilla" unicode="&#x15f;" horiz-adv-x="408" 
d="M139 -9q-85 0 -148 38l19 55q69 -19 119 -19q52 0 82 21.5t30 60.5q0 24 -19 40.5t-46 28.5t-54.5 25.5t-46.5 39.5t-19 63q0 68 50 115.5t144 47.5q73 0 128 -32l-20 -55q-50 15 -95 15q-43 0 -70 -19.5t-27 -55.5q0 -22 19.5 -38t47 -27.5t54.5 -25.5t46.5 -41
t19.5 -65q0 -77 -58.5 -124.5t-155.5 -47.5zM87 -43h89q0 -83 -97 -138l-55 27q35 29 48.5 52.5t14.5 58.5z" />
    <glyph glyph-name="Scaron" unicode="&#x160;" horiz-adv-x="494" 
d="M189 -9q-108 0 -187 60l34 58q80 -37 143 -37q67 0 107.5 33t40.5 89q0 33 -24 59t-58 45.5t-68 40.5t-58 56.5t-24 81.5q0 89 65 148t170 59q97 0 164 -50l-33 -58q-56 28 -122 28q-60 0 -94.5 -30.5t-34.5 -77.5q0 -33 24.5 -59t59.5 -45.5t70.5 -41t60 -57t24.5 -82.5
q0 -95 -71.5 -157.5t-188.5 -62.5zM335 723l-135 89l36 44l109 -57l132 57l20 -46z" />
    <glyph glyph-name="scaron" unicode="&#x161;" horiz-adv-x="408" 
d="M139 -9q-85 0 -148 38l19 55q69 -19 119 -19q52 0 82 21.5t30 60.5q0 24 -19 40.5t-46 28.5t-54.5 25.5t-46.5 39.5t-19 63q0 68 50 115.5t144 47.5q73 0 128 -32l-20 -55q-50 15 -95 15q-43 0 -70 -19.5t-27 -55.5q0 -22 19.5 -38t47 -27.5t54.5 -25.5t46.5 -41
t19.5 -65q0 -77 -58.5 -124.5t-155.5 -47.5zM426 682l-165 -123l-118 126l39 40l94 -77l123 77z" />
    <glyph glyph-name="uni0162" unicode="&#x162;" horiz-adv-x="466" 
d="M515 590h-164l-114 -590h-108l114 590h-164l17 85h436zM172 -36q42 0 42 -36q0 -41 -36 -68.5t-101 -38.5l-10 35q60 22 60 46q0 2 -1.5 8.5t-1.5 13.5q0 17 13 28.5t35 11.5z" />
    <glyph glyph-name="uni0163" unicode="&#x163;" horiz-adv-x="347" 
d="M277 83l3 -62q-66 -30 -120 -30t-79.5 21t-25.5 66q0 26 6 58l57 289h-72l14 73h75q30 71 53 144h75l-28 -144h123l-15 -73h-123l-52 -270q-7 -31 -7 -49q0 -37 44 -37q30 0 72 14zM143 -36q42 0 42 -36q0 -41 -36 -68.5t-101 -38.5l-10 35q60 22 60 46q0 2 -1.5 8.5
t-1.5 13.5q0 17 13 28.5t35 11.5z" />
    <glyph glyph-name="Tcaron" unicode="&#x164;" horiz-adv-x="466" 
d="M515 590h-164l-114 -590h-108l114 590h-164l17 85h436zM322 723l-135 89l36 44l109 -57l132 57l20 -46z" />
    <glyph glyph-name="tcaron" unicode="&#x165;" horiz-adv-x="372" 
d="M277 83l3 -62q-66 -30 -120 -30t-79.5 21t-25.5 66q0 26 6 58l57 289h-72l14 73h75q30 71 53 144h75l-28 -144h123l-15 -73h-123l-52 -270q-7 -31 -7 -49q0 -37 44 -37q30 0 72 14zM445 737l-91 -177l-53 11l68 183z" />
    <glyph glyph-name="Tbar" unicode="&#x166;" horiz-adv-x="466" 
d="M515 590h-164l-44 -226h108l-14 -75h-108l-56 -289h-108l56 289h-108l14 75h108l44 226h-164l17 85h436z" />
    <glyph glyph-name="tbar" unicode="&#x167;" horiz-adv-x="347" 
d="M277 83l3 -62q-66 -30 -120 -30t-79.5 21t-25.5 66q0 26 6 58l18 89h-58l14 72h58l25 128h-72l14 73h75q30 71 53 144h75l-28 -144h123l-15 -73h-123l-24 -128h109l-14 -72h-110l-13 -70q-7 -31 -7 -49q0 -37 44 -37q30 0 72 14z" />
    <glyph glyph-name="Utilde" unicode="&#x168;" horiz-adv-x="652" 
d="M651 675l-85 -436q-49 -249 -293 -249q-204 0 -204 169q0 39 9 84l85 432h108l-83 -426q-9 -48 -9 -75q0 -55 27 -79t85 -24q68 0 109.5 38t58.5 129l86 437h106zM557 844l44 -30q-26 -46 -52.5 -66t-65.5 -20q-36 0 -71 26t-49 26q-15 0 -27.5 -10.5t-34.5 -39.5l-43 30
q27 45 53.5 65.5t64.5 20.5q36 0 70.5 -26t48.5 -26q15 0 27.5 10.5t34.5 39.5z" />
    <glyph glyph-name="utilde" unicode="&#x169;" horiz-adv-x="541" 
d="M512 498l-96 -498h-86l16 104q-32 -51 -77 -82.5t-95 -31.5q-121 0 -121 136q0 35 8 79t27 132t33 161h102q-12 -63 -26.5 -132t-21.5 -102.5t-12 -65.5t-5 -52q0 -73 55 -73q46 0 92 62t64 155l40 208h103zM466 692l42 -31q-27 -45 -53 -65.5t-63 -20.5q-27 0 -49.5 13
t-39 26t-29.5 13q-15 0 -27 -10.5t-34 -39.5l-42 31q27 45 52.5 65t62.5 20q27 0 49.5 -13t39 -26t29.5 -13q15 0 27 10.5t35 40.5z" />
    <glyph glyph-name="Umacron" unicode="&#x16a;" horiz-adv-x="652" 
d="M651 675l-85 -436q-49 -249 -293 -249q-204 0 -204 169q0 39 9 84l85 432h108l-83 -426q-9 -48 -9 -75q0 -55 27 -79t85 -24q68 0 109.5 38t58.5 129l86 437h106zM559 747h-277l13 69h277z" />
    <glyph glyph-name="umacron" unicode="&#x16b;" horiz-adv-x="541" 
d="M512 498l-96 -498h-86l16 104q-32 -51 -77 -82.5t-95 -31.5q-121 0 -121 136q0 35 8 79t27 132t33 161h102q-12 -63 -26.5 -132t-21.5 -102.5t-12 -65.5t-5 -52q0 -73 55 -73q46 0 92 62t64 155l40 208h103zM467 596h-270l14 73h270z" />
    <glyph glyph-name="Ubreve" unicode="&#x16c;" horiz-adv-x="652" 
d="M651 675l-85 -436q-49 -249 -293 -249q-204 0 -204 169q0 39 9 84l85 432h108l-83 -426q-9 -48 -9 -75q0 -55 27 -79t85 -24q68 0 109.5 38t58.5 129l86 437h106zM517 858h64q-12 -67 -56.5 -103t-106.5 -36q-67 0 -98 37t-17 102h63q-7 -31 9 -50.5t52 -19.5
q37 0 61 19.5t29 50.5z" />
    <glyph glyph-name="ubreve" unicode="&#x16d;" horiz-adv-x="541" 
d="M512 498l-96 -498h-86l16 104q-32 -51 -77 -82.5t-95 -31.5q-121 0 -121 136q0 35 8 79t27 132t33 161h102q-12 -63 -26.5 -132t-21.5 -102.5t-12 -65.5t-5 -52q0 -73 55 -73q46 0 92 62t64 155l40 208h103zM427 718h65q-13 -75 -56 -114.5t-110 -39.5q-68 0 -98.5 40
t-16.5 114h65q-8 -42 6 -61t53 -19q76 0 92 80z" />
    <glyph glyph-name="Uring" unicode="&#x16e;" horiz-adv-x="652" 
d="M651 675l-85 -436q-49 -249 -293 -249q-204 0 -204 169q0 39 9 84l85 432h108l-83 -426q-9 -48 -9 -75q0 -55 27 -79t85 -24q68 0 109.5 38t58.5 129l86 437h106zM410 692q-93 0 -93 63q0 42 31.5 71.5t91.5 29.5q94 0 94 -63q0 -43 -32 -72t-92 -29zM468 788
q0 25 -36 25q-49 0 -49 -53q0 -26 35 -26q26 0 38 15.5t12 38.5z" />
    <glyph glyph-name="uring" unicode="&#x16f;" horiz-adv-x="541" 
d="M512 498l-96 -498h-86l16 104q-32 -51 -77 -82.5t-95 -31.5q-121 0 -121 136q0 35 8 79t27 132t33 161h102q-12 -63 -26.5 -132t-21.5 -102.5t-12 -65.5t-5 -52q0 -73 55 -73q46 0 92 62t64 155l40 208h103zM328 545q-97 0 -97 73q0 46 31.5 80.5t96.5 34.5q97 0 97 -73
q0 -46 -31.5 -80.5t-96.5 -34.5zM387 655q0 28 -35 28q-28 0 -40 -17.5t-12 -41.5q0 -28 36 -28q51 0 51 59z" />
    <glyph glyph-name="Uhungarumlaut" unicode="&#x170;" horiz-adv-x="652" 
d="M651 675l-85 -436q-49 -249 -293 -249q-204 0 -204 169q0 39 9 84l85 432h108l-83 -426q-9 -48 -9 -75q0 -55 27 -79t85 -24q68 0 109.5 38t58.5 129l86 437h106zM711 807l-199 -89l-37 35l185 106zM499 818l-184 -101l-39 31l165 117z" />
    <glyph glyph-name="uhungarumlaut" unicode="&#x171;" horiz-adv-x="541" 
d="M512 498l-96 -498h-86l16 104q-32 -51 -77 -82.5t-95 -31.5q-121 0 -121 136q0 35 8 79t27 132t33 161h102q-12 -63 -26.5 -132t-21.5 -102.5t-12 -65.5t-5 -52q0 -73 55 -73q46 0 92 62t64 155l40 208h103zM591 673l-168 -115l-49 30l149 131zM398 680l-159 -125l-48 31
l140 138z" />
    <glyph glyph-name="Uogonek" unicode="&#x172;" horiz-adv-x="652" 
d="M651 675l-85 -436q-22 -114 -81 -172q-22 -22 -65 -56t-60 -51q-33 -34 -33 -59q0 -22 25 -22t49 13l10 -48q-42 -24 -90 -24q-82 0 -82 64q0 25 20 55t58 56q-27 -5 -44 -5q-204 0 -204 169q0 39 9 84l85 432h108l-83 -426q-9 -48 -9 -75q0 -55 27 -79t85 -24
q68 0 109.5 38t58.5 129l86 437h106z" />
    <glyph glyph-name="uogonek" unicode="&#x173;" horiz-adv-x="541" 
d="M512 498l-96 -498q-82 -57 -82 -99q0 -22 25 -22t49 13l10 -48q-42 -24 -90 -24q-82 0 -82 64q0 54 86 123l14 97q-32 -51 -77 -82.5t-95 -31.5q-121 0 -121 136q0 35 8 79t27 132t33 161h102q-12 -63 -26.5 -132t-21.5 -102.5t-12 -65.5t-5 -52q0 -73 55 -73q46 0 92 62
t64 155l40 208h103z" />
    <glyph glyph-name="Wcircumflex" unicode="&#x174;" horiz-adv-x="856" 
d="M813 675h105q-142 -355 -302 -675h-115l-24 402l-1 101h-2l-40 -102l-171 -401h-122q-37 319 -41 675h113q0 -140 21 -539h1l30 79l198 460h102l24 -454l2 -85h2q148 347 220 539zM545 856l134 -88l-35 -45l-109 57l-133 -57l-20 45z" />
    <glyph glyph-name="wcircumflex" unicode="&#x175;" horiz-adv-x="744" 
d="M663 498h103q-80 -231 -232 -498h-115l-25 308v70h-2l-26 -70l-133 -308h-124l-42 498h108l20 -296l2 -94h2l32 83l130 307h116l24 -315l1 -75h2q101 208 159 390zM575 600l-40 -40l-92 77l-124 -77l-27 42l165 124z" />
    <glyph glyph-name="Ycircumflex" unicode="&#x176;" horiz-adv-x="486" 
d="M457 675h113q-147 -246 -267 -387l-56 -288h-108l56 288q-70 164 -117 387h116q34 -169 78 -289h2q76 97 183 289zM355 856l134 -88l-35 -45l-109 57l-133 -57l-20 45z" />
    <glyph glyph-name="ycircumflex" unicode="&#x177;" horiz-adv-x="471" 
d="M384 498h111q-60 -160 -121 -282.5t-111.5 -195.5t-101 -119t-89.5 -62.5t-77 -16.5q-36 0 -70 17l11 61q18 -3 46 -3q58 0 98 40q37 39 37 91q0 53 -9 120l-46 350h107l32 -270q12 -90 -1 -155h2q45 77 96.5 197.5t85.5 227.5zM440 600l-40 -40l-92 77l-124 -77l-27 42
l165 124z" />
    <glyph glyph-name="Ydieresis" unicode="&#x178;" horiz-adv-x="486" 
d="M457 675h113q-147 -246 -267 -387l-56 -288h-108l56 288q-70 164 -117 387h116q34 -169 78 -289h2q76 97 183 289zM499 795q0 -35 -15 -50q-13 -13 -46 -13q-26 0 -36 7t-10 26q0 34 14 50q13 13 46 13q26 0 36.5 -7t10.5 -26zM297 795q0 -35 -15 -50q-13 -13 -46 -13
q-26 0 -36 7t-10 26q0 36 14 50q13 13 46 13q26 0 36.5 -7t10.5 -26z" />
    <glyph glyph-name="Zacute" unicode="&#x179;" horiz-adv-x="488" 
d="M402 0h-416l13 74l373 515h-259l19 86h390l-14 -72l-373 -516h286zM518 787l-199 -64l-26 49l188 84z" />
    <glyph glyph-name="zacute" unicode="&#x17a;" horiz-adv-x="400" 
d="M328 79l-18 -79h-324l12 65l260 356h-182l18 77h302l-12 -64l-261 -355h205zM441 676l-172 -118l-49 32l152 132z" />
    <glyph glyph-name="Zdotaccent" unicode="&#x17b;" horiz-adv-x="488" 
d="M402 0h-416l13 74l373 515h-259l19 86h390l-14 -72l-373 -516h286zM335 733q-29 0 -40 7t-11 24q0 36 17 53q14 14 54 14q29 0 40 -7t11 -23q0 -38 -16 -54q-14 -14 -55 -14z" />
    <glyph glyph-name="zdotaccent" unicode="&#x17c;" horiz-adv-x="400" 
d="M328 79l-18 -79h-324l12 65l260 356h-182l18 77h302l-12 -64l-261 -355h205zM263 584q-31 0 -44 7t-13 26q0 12 5.5 32.5t13.5 27.5q15 15 54 15q58 0 58 -33q0 -12 -5.5 -32.5t-13.5 -28.5q-15 -14 -55 -14z" />
    <glyph glyph-name="Zcaron" unicode="&#x17d;" horiz-adv-x="488" 
d="M402 0h-416l13 74l373 515h-259l19 86h390l-14 -72l-373 -516h286zM337 723l-135 89l36 44l109 -57l132 57l20 -46z" />
    <glyph glyph-name="zcaron" unicode="&#x17e;" horiz-adv-x="400" 
d="M328 79l-18 -79h-324l12 65l260 356h-182l18 77h302l-12 -64l-261 -355h205zM421 682l-165 -123l-118 126l39 40l94 -77l123 77z" />
    <glyph glyph-name="longs" unicode="&#x17f;" horiz-adv-x="265" 
d="M238 571l-116 -599q-29 -152 -160 -152q-61 0 -106 30l24 59q35 -14 61 -14q64 0 78 75l116 600q29 149 151 149q58 0 103 -26l-25 -62q-27 12 -55 12q-56 0 -71 -72z" />
    <glyph glyph-name="florin" unicode="&#x192;" 
d="M531 651l-22 -58q-38 15 -72 15q-64 0 -85 -78l-38 -153h147l-13 -70h-150l-66 -267q-37 -151 -167 -151q-63 0 -112 30l22 59q41 -15 69 -15q65 0 86 80l66 264h-132l14 70h133l39 154q37 151 169 151q63 0 112 -31z" />
    <glyph glyph-name="Gcaron" unicode="&#x1e6;" horiz-adv-x="574" 
d="M525 377l-60 -311q-106 -76 -223 -76q-93 0 -142.5 55.5t-49.5 167.5q0 113 37 218.5t103 170.5q81 83 193 83q119 0 177 -92l-53 -46q-57 52 -120 52q-62 0 -114 -50q-52 -52 -81 -146t-29 -185q0 -141 104 -141q54 0 99 29l38 191h-90l16 80h195zM394 723l-135 89
l36 44l109 -57l132 57l20 -46z" />
    <glyph glyph-name="gcaron" unicode="&#x1e7;" horiz-adv-x="524" 
d="M494 490l-95 -489q-20 -101 -77.5 -141t-152.5 -40q-82 0 -164 35l17 58q93 -15 146 -15q59 0 88.5 22t39.5 76l9 49q3 14 19 76q-27 -47 -70.5 -79.5t-89.5 -32.5q-63 0 -96 44.5t-33 118.5q0 41 8 83.5t28.5 89t52.5 82t85.5 58.5t120.5 23q37 0 78 -4.5t64 -9.5z
M142 182q0 -92 59 -92q43 0 89 59.5t64 150.5l24 123q-31 10 -67 10q-45 0 -79.5 -26t-53 -66t-27.5 -81t-9 -78zM479 682l-165 -123l-118 126l39 40l94 -77l123 77z" />
    <glyph glyph-name="Aringacute" unicode="&#x1fa;" horiz-adv-x="548" 
d="M484 0h-112q-6 117 -8 141h-235q-56 -138 -57 -141h-109q156 365 321 675h138q48 -345 62 -675zM163 222h201q-14 193 -34 354h-2q-90 -184 -165 -354zM323 846l157 39l16 -41l-164 -28zM361 689q-94 0 -94 52q0 29 29 45t76 16q94 0 94 -52q0 -29 -29 -45t-76 -16z
M403 746q0 25 -35 25q-38 0 -38 -27q0 -24 34 -24q39 0 39 26z" />
    <glyph glyph-name="aringacute" unicode="&#x1fb;" horiz-adv-x="524" 
d="M33 153q0 44 7.5 88.5t28 94t52 86.5t86 61.5t123.5 24.5q36 0 77 -4.5t64 -9.5l23 -4l-95 -490h-85l15 109q-30 -53 -75.5 -86t-93.5 -33q-62 0 -94.5 46.5t-32.5 116.5zM139 169q0 -97 58 -97q44 0 90 60.5t65 157.5l26 133q-31 10 -67 10q-39 0 -70 -20t-49.5 -49.5
t-31 -67t-17 -69t-4.5 -58.5zM317 777l120 108l67 -40l-140 -95zM317 548q-91 0 -91 66q0 39 31 68.5t89 29.5q92 0 92 -66q0 -39 -30.5 -68.5t-90.5 -29.5zM374 641q0 28 -34 28q-50 0 -50 -51q0 -28 33 -28q27 0 39 15t12 36z" />
    <glyph glyph-name="AEacute" unicode="&#x1fc;" horiz-adv-x="724" 
d="M622 0h-338l26 141h-188q-59 -104 -78 -141h-111q211 365 422 675h394l-16 -84h-227l-38 -201h187l-16 -81h-187l-44 -224h230zM327 222l71 369h-1q-89 -134 -230 -369h160zM728 787l-199 -64l-26 49l188 84z" />
    <glyph glyph-name="aeacute" unicode="&#x1fd;" horiz-adv-x="759" 
d="M657 100l7 -62q-89 -48 -182 -48q-136 0 -159 109q-79 -109 -188 -109q-62 0 -94 34t-32 83q0 26 6 49.5t24.5 50.5t48.5 46t82.5 32t121.5 13h40l9 45q8 46 -11 67.5t-72 21.5q-68 0 -153 -29l-5 63q100 41 190 41q109 0 130 -68q63 69 159 69q68 0 110 -32t42 -86
q0 -159 -311 -159q-7 -31 -7 -65q0 -96 97 -96q69 0 147 30zM631 383q0 54 -66 54q-48 0 -82 -39t-49 -101q116 0 156.5 22t40.5 64zM320 232h-45q-164 0 -164 -116q0 -52 56 -52q52 0 95 47t55 107zM618 676l-172 -118l-49 32l152 132z" />
    <glyph glyph-name="Oslashacute" unicode="&#x1fe;" horiz-adv-x="639" 
d="M270 -10q-90 0 -140 40l-83 -106l-54 33l91 115q-34 51 -34 140q0 81 20.5 161t60.5 151.5t109.5 116t157.5 44.5q89 0 141 -39l83 105l54 -33l-91 -115q34 -51 34 -140q0 -65 -12 -129t-39 -126.5t-66.5 -110t-99.5 -77t-132 -30.5zM383 606q-48 0 -88 -27t-65 -68.5
t-42.5 -92t-25 -95.5t-7.5 -82q0 -46 11 -68l313 397q-30 36 -96 36zM285 69q59 0 106 40t72 100.5t37.5 118.5t12.5 106t-10 68l-313 -397q30 -36 95 -36zM589 795l-199 -64l-26 49l188 84z" />
    <glyph glyph-name="oslashacute" unicode="&#x1ff;" horiz-adv-x="530" 
d="M492 336q0 -41 -6.5 -83t-26 -90.5t-49.5 -85.5t-81.5 -62t-118.5 -25q-54 0 -95 21l-68 -87l-52 35l71 89q-31 40 -31 114q0 41 6.5 83t25.5 91t49 85.5t81.5 61.5t118.5 25q56 0 97 -22l69 88l52 -34l-72 -92q30 -39 30 -112zM390 305q0 27 -9 47l-211 -274
q20 -16 58 -16q45 0 78.5 26.5t50.5 67.5t25 79t8 70zM136 190q0 -28 9 -48l214 277q-21 17 -61 17q-37 0 -66.5 -19t-47 -47t-29 -63t-15.5 -64t-4 -53zM493 676l-172 -118l-49 32l152 132z" />
    <glyph glyph-name="Scommaaccent" unicode="&#x218;" horiz-adv-x="494" 
d="M189 -9q-108 0 -187 60l34 58q80 -37 143 -37q67 0 107.5 33t40.5 89q0 33 -24 59t-58 45.5t-68 40.5t-58 56.5t-24 81.5q0 89 65 148t170 59q97 0 164 -50l-33 -58q-56 28 -122 28q-60 0 -94.5 -30.5t-34.5 -77.5q0 -33 24.5 -59t59.5 -45.5t70.5 -41t60 -57t24.5 -82.5
q0 -95 -71.5 -157.5t-188.5 -62.5zM186 -36q42 0 42 -36q0 -41 -36 -68.5t-101 -38.5l-10 35q60 22 60 46q0 2 -1.5 8.5t-1.5 13.5q0 17 13 28.5t35 11.5z" />
    <glyph glyph-name="scommaaccent" unicode="&#x219;" horiz-adv-x="408" 
d="M139 -9q-85 0 -148 38l19 55q69 -19 119 -19q52 0 82 21.5t30 60.5q0 24 -19 40.5t-46 28.5t-54.5 25.5t-46.5 39.5t-19 63q0 68 50 115.5t144 47.5q73 0 128 -32l-20 -55q-50 15 -95 15q-43 0 -70 -19.5t-27 -55.5q0 -22 19.5 -38t47 -27.5t54.5 -25.5t46.5 -41
t19.5 -65q0 -77 -58.5 -124.5t-155.5 -47.5zM136 -36q42 0 42 -36q0 -41 -36 -68.5t-101 -38.5l-10 35q60 22 60 46q0 2 -1.5 8.5t-1.5 13.5q0 17 13 28.5t35 11.5z" />
    <glyph glyph-name="Tcommaaccent" unicode="&#x21a;" horiz-adv-x="466" 
d="M515 590h-164l-114 -590h-108l114 590h-164l17 85h436zM172 -36q42 0 42 -36q0 -41 -36 -68.5t-101 -38.5l-10 35q60 22 60 46q0 2 -1.5 8.5t-1.5 13.5q0 17 13 28.5t35 11.5z" />
    <glyph glyph-name="tcommaaccent" unicode="&#x21b;" horiz-adv-x="347" 
d="M277 83l3 -62q-66 -30 -120 -30t-79.5 21t-25.5 66q0 26 6 58l57 289h-72l14 73h75q30 71 53 144h75l-28 -144h123l-15 -73h-123l-52 -270q-7 -31 -7 -49q0 -37 44 -37q30 0 72 14zM143 -36q42 0 42 -36q0 -41 -36 -68.5t-101 -38.5l-10 35q60 22 60 46q0 2 -1.5 8.5
t-1.5 13.5q0 17 13 28.5t35 11.5z" />
    <glyph glyph-name="dotlessj" unicode="&#x237;" horiz-adv-x="253" 
d="M224 498l-88 -456q-14 -74 -47 -125t-97 -97l-61 36q79 72 99 170l91 472h103z" />
    <glyph glyph-name="apostrophe" unicode="&#x2bc;" horiz-adv-x="219" 
d="M205 752q25 0 34.5 -8.5t9.5 -27.5q0 -55 -35 -109t-110 -93l-30 38q80 50 80 91q0 7 -7 17.5t-7 22.5q0 41 18 57q12 12 47 12z" />
    <glyph glyph-name="circumflex" unicode="&#x2c6;" horiz-adv-x="404" 
d="M410 600l-40 -40l-92 77l-124 -77l-27 42l165 124z" />
    <glyph glyph-name="caron" unicode="&#x2c7;" horiz-adv-x="404" 
d="M426 682l-165 -123l-118 126l39 40l94 -77l123 77z" />
    <glyph glyph-name="breve" unicode="&#x2d8;" horiz-adv-x="401" 
d="M365 718h65q-13 -75 -56 -114.5t-110 -39.5q-68 0 -98.5 40t-16.5 114h65q-8 -42 6 -61t53 -19q76 0 92 80z" />
    <glyph glyph-name="dotaccent" unicode="&#x2d9;" horiz-adv-x="246" 
d="M188 584q-31 0 -44 7t-13 26q0 12 5.5 32.5t13.5 27.5q15 15 54 15q58 0 58 -33q0 -12 -5.5 -32.5t-13.5 -28.5q-15 -14 -55 -14z" />
    <glyph glyph-name="ring" unicode="&#x2da;" horiz-adv-x="342" 
d="M229 545q-97 0 -97 73q0 46 31.5 80.5t96.5 34.5q97 0 97 -73q0 -46 -31.5 -80.5t-96.5 -34.5zM288 655q0 28 -35 28q-28 0 -40 -17.5t-12 -41.5q0 -28 36 -28q51 0 51 59z" />
    <glyph glyph-name="ogonek" unicode="&#x2db;" horiz-adv-x="299" 
d="M150 -108l10 -48q-42 -24 -90 -24q-82 0 -82 64q0 53 79 116h93q-39 -24 -61.5 -51t-22.5 -48q0 -22 25 -22q23 0 49 13z" />
    <glyph glyph-name="tilde" unicode="&#x2dc;" horiz-adv-x="456" 
d="M427 692l42 -31q-27 -45 -53 -65.5t-63 -20.5q-27 0 -49.5 13t-39 26t-29.5 13q-15 0 -27 -10.5t-34 -39.5l-42 31q27 45 52.5 65t62.5 20q27 0 49.5 -13t39 -26t29.5 -13q15 0 27 10.5t35 40.5z" />
    <glyph glyph-name="hungarumlaut" unicode="&#x2dd;" horiz-adv-x="504" 
d="M524 673l-168 -115l-49 30l149 131zM331 680l-159 -125l-48 31l140 138z" />
    <glyph glyph-name="uni0312" unicode="&#x312;" horiz-adv-x="266" 
d="M128 600q0 41 38 75.5t113 40.5l9 -37q-34 -9 -54 -24.5t-20 -29.5q0 -3 2 -9t2 -13q0 -17 -13 -29t-37 -12q-40 0 -40 38z" />
    <glyph glyph-name="uni0315" unicode="&#x315;" horiz-adv-x="232" 
d="M265 737l-91 -177l-53 11l68 183z" />
    <glyph glyph-name="uni0326" unicode="&#x326;" horiz-adv-x="256" 
d="M87 -36q42 0 42 -36q0 -41 -36 -68.5t-101 -38.5l-10 35q60 22 60 46q0 2 -1.5 8.5t-1.5 13.5q0 17 13 28.5t35 11.5z" />
    <glyph glyph-name="Delta" unicode="&#x2206;" horiz-adv-x="537" 
d="M463 0h-489l14 73q128 294 290 602h139q42 -288 60 -602zM97 82h268q-7 235 -40 494h-2q-139 -278 -226 -494z" />
    <glyph glyph-name="Delta" unicode="&#x394;" horiz-adv-x="537" 
d="M463 0h-489l14 73q128 294 290 602h139q42 -288 60 -602zM97 82h268q-7 235 -40 494h-2q-139 -278 -226 -494z" />
    <glyph glyph-name="Omega" unicode="&#x2126;" horiz-adv-x="652" 
d="M573 0h-242l14 73q56 27 97 105t56 149t15 122q0 76 -25.5 114.5t-94.5 38.5q-52 0 -92.5 -30.5t-63.5 -74t-38.5 -98t-20.5 -96.5t-5 -74q0 -115 59 -156l-14 -73h-239l13 73h140q-70 54 -70 178q0 50 10.5 105t36.5 115t64.5 106.5t99.5 77t135 30.5q114 0 166.5 -57.5
t52.5 -170.5q0 -114 -47.5 -222.5t-135.5 -161.5h143z" />
    <glyph glyph-name="Omega" unicode="&#x3a9;" horiz-adv-x="652" 
d="M573 0h-242l14 73q56 27 97 105t56 149t15 122q0 76 -25.5 114.5t-94.5 38.5q-52 0 -92.5 -30.5t-63.5 -74t-38.5 -98t-20.5 -96.5t-5 -74q0 -115 59 -156l-14 -73h-239l13 73h140q-70 54 -70 178q0 50 10.5 105t36.5 115t64.5 106.5t99.5 77t135 30.5q114 0 166.5 -57.5
t52.5 -170.5q0 -114 -47.5 -222.5t-135.5 -161.5h143z" />
    <glyph glyph-name="pi" unicode="&#x3c0;" horiz-adv-x="609" 
d="M604 420h-114q-50 -251 -50 -306q0 -25 8 -35t28 -10q31 0 62 11l3 -61q-54 -28 -104 -28q-53 0 -76.5 20.5t-23.5 72.5q0 67 53 336h-164q-42 -217 -96 -420h-105q72 269 102 420h-82l15 78h559z" />
    <glyph glyph-name="uni1E02" unicode="&#x1e02;" horiz-adv-x="555" 
d="M209 -2q-30 0 -90 1t-86 1l131 675h194q92 0 135.5 -35t43.5 -95t-35.5 -109t-96.5 -71q50 -10 79 -42t29 -82q0 -42 -16 -82t-49 -77.5t-95 -60.5t-144 -23zM396 229q0 86 -123 86h-72l-46 -235q32 -4 74 -4q48 0 82.5 15.5t52 40t25 49t7.5 48.5zM424 525q0 73 -93 73
h-75l-40 -207h61q73 0 110 43t37 91zM353 733q-29 0 -40 7t-11 24q0 36 17 53q14 14 54 14q29 0 40 -7t11 -23q0 -38 -16 -54q-14 -14 -55 -14z" />
    <glyph glyph-name="uni1E03" unicode="&#x1e03;" horiz-adv-x="524" 
d="M191 -10q-37 0 -78 4.5t-63 9.5l-23 4l135 701h103l-44 -230q-3 -16 -21 -82q28 47 71 79t91 32q61 0 93.5 -46.5t32.5 -116.5q0 -44 -7.5 -88.5t-28 -94t-52 -86.5t-86 -61.5t-123.5 -24.5zM381 329q0 97 -58 97q-44 0 -90 -60.5t-65 -157.5l-26 -133q32 -10 67 -10
q48 0 84 29.5t54 74t26 85t8 75.5zM221 768q-31 0 -42 6.5t-11 21.5q0 39 17 56q14 14 55 14q30 0 41.5 -6.5t11.5 -22.5q0 -39 -17 -56q-13 -13 -55 -13z" />
    <glyph glyph-name="uni1E0A" unicode="&#x1e0a;" horiz-adv-x="587" 
d="M568 447q0 -46 -10 -101.5t-41.5 -129t-79.5 -122.5q-99 -97 -247 -97q-30 0 -83.5 1.5t-73.5 1.5l131 675q31 0 83 0.5t79 0.5q124 0 183 -62.5t59 -166.5zM452 440q0 155 -141 155q-37 0 -54 -1l-100 -511q38 -2 53 -2q83 0 139 56q55 55 79 146t24 157zM354 733
q-29 0 -40 7t-11 24q0 36 17 53q14 14 54 14q29 0 40 -7t11 -23q0 -38 -16 -54q-14 -14 -55 -14z" />
    <glyph glyph-name="uni1E0B" unicode="&#x1e0b;" horiz-adv-x="524" 
d="M399 0h-85l15 104q-31 -50 -76.5 -82t-92.5 -32q-62 0 -94.5 46.5t-32.5 116.5q0 44 7.5 88.5t28 94t52 86.5t86 61.5t123.5 24.5l64 -5l39 202h103zM139 169q0 -97 58 -97q44 0 90 60.5t65 157.5l26 133q-31 10 -67 10q-39 0 -70 -20t-49.5 -49.5t-31 -67t-17 -69
t-4.5 -58.5zM496 768q-31 0 -42 6.5t-11 21.5q0 39 17 56q14 14 55 14q30 0 41.5 -6.5t11.5 -22.5q0 -39 -17 -56q-13 -13 -55 -13z" />
    <glyph glyph-name="uni1E1E" unicode="&#x1e1e;" horiz-adv-x="452" 
d="M477 592h-221l-41 -212h200l-15 -82h-201l-58 -298h-108l131 675h329zM343 733q-29 0 -40 7t-11 24q0 36 17 53q14 14 54 14q29 0 40 -7t11 -23q0 -38 -16 -54q-14 -14 -55 -14z" />
    <glyph glyph-name="uni1E1F" unicode="&#x1e1f;" horiz-adv-x="299" 
d="M335 498l-14 -73h-100l-88 -456q-29 -149 -160 -149q-60 0 -107 30l24 59q35 -14 61 -14q34 0 53 17.5t26 57.5l88 455h-72l14 73h72l12 64q29 149 161 149q62 0 107 -29l-24 -59q-35 14 -61 14q-34 0 -53 -17.5t-27 -56.5l-12 -65h100zM303 768q-31 0 -42 6.5t-11 21.5
q0 39 17 56q14 14 55 14q30 0 41.5 -6.5t11.5 -22.5q0 -39 -17 -56q-13 -13 -55 -13z" />
    <glyph glyph-name="uni1E40" unicode="&#x1e40;" horiz-adv-x="844" 
d="M724 0h-113q54 310 74 544h-1l-275 -544h-89l-66 544h-1q-59 -209 -129 -544h-104q79 353 180 675h137l66 -502h1l259 502h140q-28 -367 -79 -675zM507 733q-29 0 -40 7t-11 24q0 36 17 53q14 14 54 14q29 0 40 -7t11 -23q0 -38 -16 -54q-14 -14 -55 -14z" />
    <glyph glyph-name="uni1E41" unicode="&#x1e41;" horiz-adv-x="818" 
d="M693 0h-103q12 62 27 132t22 103t12 65t5 52q0 72 -51 72q-43 0 -88.5 -60t-64.5 -156l-41 -208h-103l47 236q17 88 17 116q0 72 -51 72q-43 0 -88.5 -60t-64.5 -156l-40 -208h-103l97 498h85l-15 -104q31 50 75 82t93 32q104 0 113 -116q32 52 76.5 84t93.5 32
q118 0 118 -136q0 -35 -8 -79t-27 -132t-33 -161zM474 584q-31 0 -44 7t-13 26q0 12 5.5 32.5t13.5 27.5q15 15 54 15q58 0 58 -33q0 -12 -5.5 -32.5t-13.5 -28.5q-15 -14 -55 -14z" />
    <glyph glyph-name="uni1E56" unicode="&#x1e56;" horiz-adv-x="528" 
d="M548 516q0 -51 -15.5 -97t-49.5 -88.5t-99 -67.5t-154 -25h-43l-46 -238h-108l131 675q26 0 83 0.5t84 0.5q217 0 217 -160zM432 500q0 48 -29 72t-96 24h-51l-53 -277h46q52 0 90 17.5t57 46t27.5 58t8.5 59.5zM351 733q-29 0 -40 7t-11 24q0 36 17 53q14 14 54 14
q29 0 40 -7t11 -23q0 -38 -16 -54q-14 -14 -55 -14z" />
    <glyph glyph-name="uni1E57" unicode="&#x1e57;" horiz-adv-x="524" 
d="M488 345q0 -44 -7.5 -88.5t-28 -94t-52 -86.5t-86 -61.5t-123.5 -24.5l-64 5l-33 -168h-103l131 671h85l-15 -104q31 50 76 82t93 32q62 0 94.5 -46.5t32.5 -116.5zM381 329q0 97 -58 97q-44 0 -90 -60.5t-65 -157.5l-25 -133q31 -10 66 -10q48 0 84 29.5t54 74t26 85
t8 75.5zM328 584q-31 0 -44 7t-13 26q0 12 5.5 32.5t13.5 27.5q15 15 54 15q58 0 58 -33q0 -12 -5.5 -32.5t-13.5 -28.5q-15 -14 -55 -14z" />
    <glyph glyph-name="uni1E60" unicode="&#x1e60;" horiz-adv-x="494" 
d="M189 -9q-108 0 -187 60l34 58q80 -37 143 -37q67 0 107.5 33t40.5 89q0 33 -24 59t-58 45.5t-68 40.5t-58 56.5t-24 81.5q0 89 65 148t170 59q97 0 164 -50l-33 -58q-56 28 -122 28q-60 0 -94.5 -30.5t-34.5 -77.5q0 -33 24.5 -59t59.5 -45.5t70.5 -41t60 -57t24.5 -82.5
q0 -95 -71.5 -157.5t-188.5 -62.5zM334 737q-29 0 -40 7t-11 24q0 36 17 53q14 14 54 14q29 0 40 -7t11 -23q0 -38 -16 -54q-14 -14 -55 -14z" />
    <glyph glyph-name="uni1E61" unicode="&#x1e61;" horiz-adv-x="408" 
d="M139 -9q-85 0 -148 38l19 55q69 -19 119 -19q52 0 82 21.5t30 60.5q0 24 -19 40.5t-46 28.5t-54.5 25.5t-46.5 39.5t-19 63q0 68 50 115.5t144 47.5q73 0 128 -32l-20 -55q-50 15 -95 15q-43 0 -70 -19.5t-27 -55.5q0 -22 19.5 -38t47 -27.5t54.5 -25.5t46.5 -41
t19.5 -65q0 -77 -58.5 -124.5t-155.5 -47.5zM269 586q-31 0 -44 7t-13 26q0 12 5.5 32.5t13.5 27.5q15 15 54 15q58 0 58 -33q0 -12 -5.5 -32.5t-13.5 -28.5q-15 -14 -55 -14z" />
    <glyph glyph-name="uni1E6A" unicode="&#x1e6a;" horiz-adv-x="466" 
d="M515 590h-164l-114 -590h-108l114 590h-164l17 85h436zM323 733q-29 0 -40 7t-11 24q0 36 17 53q14 14 54 14q29 0 40 -7t11 -23q0 -38 -16 -54q-14 -14 -55 -14z" />
    <glyph glyph-name="uni1E6B" unicode="&#x1e6b;" horiz-adv-x="347" 
d="M277 83l3 -62q-66 -30 -120 -30t-79.5 21t-25.5 66q0 26 6 58l57 289h-72l14 73h75q30 71 53 144h75l-28 -144h123l-15 -73h-123l-52 -270q-7 -31 -7 -49q0 -37 44 -37q30 0 72 14zM242 700q-31 0 -44 7t-13 26q0 12 5.5 32.5t13.5 27.5q15 15 54 15q58 0 58 -33
q0 -12 -5.5 -32.5t-13.5 -28.5q-15 -14 -55 -14z" />
    <glyph glyph-name="Wgrave" unicode="&#x1e80;" horiz-adv-x="856" 
d="M813 675h105q-142 -355 -302 -675h-115l-24 402l-1 101h-2l-40 -102l-171 -401h-122q-37 319 -41 675h113q0 -140 21 -539h1l30 79l198 460h102l24 -454l2 -85h2q148 347 220 539zM600 768l-37 -45l-181 69l55 64z" />
    <glyph glyph-name="wgrave" unicode="&#x1e81;" horiz-adv-x="744" 
d="M663 498h103q-80 -231 -232 -498h-115l-25 308v70h-2l-26 -70l-133 -308h-124l-42 498h108l20 -296l2 -94h2l32 83l130 307h116l24 -315l1 -75h2q101 208 159 390zM487 586l-54 -28l-131 124l78 40z" />
    <glyph glyph-name="Wacute" unicode="&#x1e82;" horiz-adv-x="856" 
d="M813 675h105q-142 -355 -302 -675h-115l-24 402l-1 101h-2l-40 -102l-171 -401h-122q-37 319 -41 675h113q0 -140 21 -539h1l30 79l198 460h102l24 -454l2 -85h2q148 347 220 539zM684 787l-199 -64l-26 49l188 84z" />
    <glyph glyph-name="wacute" unicode="&#x1e83;" horiz-adv-x="744" 
d="M663 498h103q-80 -231 -232 -498h-115l-25 308v70h-2l-26 -70l-133 -308h-124l-42 498h108l20 -296l2 -94h2l32 83l130 307h116l24 -315l1 -75h2q101 208 159 390zM581 676l-172 -118l-49 32l152 132z" />
    <glyph glyph-name="Wdieresis" unicode="&#x1e84;" horiz-adv-x="856" 
d="M813 675h105q-142 -355 -302 -675h-115l-24 402l-1 101h-2l-40 -102l-171 -401h-122q-37 319 -41 675h113q0 -140 21 -539h1l30 79l198 460h102l24 -454l2 -85h2q148 347 220 539zM692 795q0 -35 -15 -50q-13 -13 -46 -13q-26 0 -36 7t-10 26q0 34 14 50q13 13 46 13
q26 0 36.5 -7t10.5 -26zM490 795q0 -35 -15 -50q-13 -13 -46 -13q-26 0 -36 7t-10 26q0 36 14 50q13 13 46 13q26 0 36.5 -7t10.5 -26z" />
    <glyph glyph-name="wdieresis" unicode="&#x1e85;" horiz-adv-x="744" 
d="M663 498h103q-80 -231 -232 -498h-115l-25 308v70h-2l-26 -70l-133 -308h-124l-42 498h108l20 -296l2 -94h2l32 83l130 307h116l24 -315l1 -75h2q101 208 159 390zM593 654q0 -39 -17 -54q-12 -13 -44 -13q-25 0 -36 7.5t-11 25.5q0 37 17 54q13 13 45 13q46 0 46 -33z
M398 654q0 -39 -17 -54q-12 -13 -44 -13q-25 0 -36 7.5t-11 25.5q0 39 17 54q13 13 44 13q25 0 36 -7.5t11 -25.5z" />
    <glyph glyph-name="Ygrave" unicode="&#x1ef2;" horiz-adv-x="486" 
d="M457 675h113q-147 -246 -267 -387l-56 -288h-108l56 288q-70 164 -117 387h116q34 -169 78 -289h2q76 97 183 289zM399 768l-37 -45l-181 69l55 64z" />
    <glyph glyph-name="ygrave" unicode="&#x1ef3;" horiz-adv-x="471" 
d="M384 498h111q-60 -160 -121 -282.5t-111.5 -195.5t-101 -119t-89.5 -62.5t-77 -16.5q-36 0 -70 17l11 61q18 -3 46 -3q58 0 98 40q37 39 37 91q0 53 -9 120l-46 350h107l32 -270q12 -90 -1 -155h2q45 77 96.5 197.5t85.5 227.5zM350 586l-54 -28l-131 124l78 40z" />
    <glyph glyph-name="endash" unicode="&#x2013;" 
d="M456 261h-410l15 75h410z" />
    <glyph glyph-name="emdash" unicode="&#x2014;" horiz-adv-x="1000" 
d="M861 261h-721l14 75h721z" />
    <glyph glyph-name="uni2015" unicode="&#x2015;" horiz-adv-x="1000" 
d="M861 261h-721l14 75h721z" />
    <glyph glyph-name="quoteleft" unicode="&#x2018;" horiz-adv-x="275" 
d="M292 785l34 -43q-87 -56 -87 -100q0 -7 8 -18.5t8 -26.5q0 -45 -20 -65q-15 -15 -54 -15q-29 0 -40.5 10t-11.5 32q0 62 39.5 122.5t123.5 103.5z" />
    <glyph glyph-name="quoteright" unicode="&#x2019;" horiz-adv-x="281" 
d="M137 490l-35 43q87 54 87 99q0 8 -8 19.5t-8 26.5q0 45 20 65q14 14 55 14q29 0 40.5 -10t11.5 -32q0 -61 -40 -121t-123 -104z" />
    <glyph glyph-name="quotesinglbase" unicode="&#x201a;" horiz-adv-x="303" 
d="M11 -153l-34 43q88 55 88 99q0 7 -8.5 19t-8.5 27q0 44 21 65q16 14 55 14q29 0 40.5 -10t11.5 -32q0 -61 -40.5 -121t-124.5 -104z" />
    <glyph glyph-name="quotedblleft" unicode="&#x201c;" horiz-adv-x="461" 
d="M289 783l30 -42q-87 -55 -87 -99q0 -7 8 -18.5t8 -25.5q0 -44 -20 -64q-14 -14 -49 -14q-28 0 -39 9.5t-11 30.5q0 60 39 120t121 103zM479 779l30 -42q-83 -51 -83 -95q0 -7 8 -18.5t8 -25.5q0 -43 -21 -64q-13 -14 -49 -14q-28 0 -38.5 9.5t-10.5 30.5q0 60 38.5 119
t117.5 100z" />
    <glyph glyph-name="quotedblright" unicode="&#x201d;" horiz-adv-x="467" 
d="M325 491l-30 42q87 55 87 99q0 7 -8 18.5t-8 25.5q0 45 20 65q14 13 49 13q28 0 38.5 -9.5t10.5 -30.5q0 -61 -38.5 -120t-120.5 -103zM135 495l-30 42q83 51 83 95q0 7 -8 18.5t-8 25.5q0 45 20 65q14 13 49 13q28 0 39 -9.5t11 -30.5q0 -60 -38.5 -119t-117.5 -100z
" />
    <glyph glyph-name="quotedblbase" unicode="&#x201e;" horiz-adv-x="488" 
d="M200 -152l-30 42q87 55 87 98q0 7 -8 19t-8 26q0 43 21 64q13 14 49 14q28 0 38.5 -9.5t10.5 -31.5q0 -60 -39 -119.5t-121 -102.5zM10 -148l-30 42q83 50 83 94q0 7 -7.5 19t-7.5 26q0 44 20 64q14 14 49 14q28 0 38.5 -9.5t10.5 -31.5q0 -60 -38 -119t-118 -99z" />
    <glyph glyph-name="dagger" unicode="&#x2020;" horiz-adv-x="380" 
d="M394 509h-107l-60 -308h-97l60 308h-107l14 68h106l26 132h97l-26 -132h107z" />
    <glyph glyph-name="daggerdbl" unicode="&#x2021;" horiz-adv-x="380" 
d="M322 141h-107l-27 -141h-96l27 141h-108l14 68h107l58 293h-108l13 68h107l27 139h96l-27 -139h107l-12 -68h-107l-58 -293h107z" />
    <glyph glyph-name="bullet" unicode="&#x2022;" 
d="M411 310q0 -66 -47 -112t-111 -46q-61 0 -104 42.5t-43 103.5q0 67 46.5 112.5t111.5 45.5q61 0 104 -42.5t43 -103.5z" />
    <glyph glyph-name="perthousand" unicode="&#x2030;" horiz-adv-x="1032" 
d="M220 367q-63 0 -90.5 26t-27.5 80q0 34 9.5 69t28.5 68.5t54.5 54t82.5 20.5q63 0 90.5 -26t27.5 -80q0 -34 -9.5 -69t-28.5 -68.5t-54.5 -54t-82.5 -20.5zM316 571q0 29 -11.5 42t-37.5 13q-32 0 -53 -29t-27 -59t-6 -57q0 -55 48 -55q25 0 43.5 16t27 41t12.5 47t4 41z
M702 660l-623 -679l-51 34l624 679zM452 -10q-63 0 -90.5 26t-27.5 80q0 33 9.5 67.5t29 68t55.5 55t82 21.5q62 0 90 -26t28 -80q0 -48 -15.5 -93.5t-57.5 -82t-103 -36.5zM548 194q0 55 -48 55q-25 0 -43.5 -16t-27 -41t-12.5 -47t-4 -41q0 -55 49 -55q32 0 53 29t27 59
t6 57zM785 -10q-63 0 -90.5 26t-27.5 80q0 48 15.5 93.5t57.5 82t103 36.5q62 0 90 -26t28 -80q0 -48 -15.5 -93.5t-57.5 -82t-103 -36.5zM881 194q0 55 -48 55q-25 0 -43.5 -16t-27 -41t-12.5 -47t-4 -41q0 -55 49 -55q32 0 53 29t27 59t6 57z" />
    <glyph glyph-name="guilsinglleft" unicode="&#x2039;" horiz-adv-x="305" 
d="M214 118l-72 -22l-91 200l164 195l67 -27l-127 -173z" />
    <glyph glyph-name="guilsinglright" unicode="&#x203a;" horiz-adv-x="306" 
d="M106 470l71 21l92 -200l-164 -195l-67 28l127 172z" />
    <glyph glyph-name="exclamdbl" unicode="&#x203c;" horiz-adv-x="648" 
d="M350 675l-118 -513h-89l81 513h126zM158 -7q-33 0 -46 8.5t-13 30.5q0 45 18 61q15 16 57 16q32 0 45 -9t13 -31q0 -43 -17 -60q-16 -16 -57 -16zM634 675l-118 -513h-89l81 513h126zM442 -7q-33 0 -46 8.5t-13 30.5q0 45 18 61q15 16 57 16q32 0 45 -9t13 -31
q0 -43 -17 -60q-16 -16 -57 -16z" />
    <glyph glyph-name="fraction" unicode="&#x2044;" horiz-adv-x="81" 
d="M445 698l-721 -773l-51 33l720 773z" />
    <glyph glyph-name="zero.superior" unicode="&#x2070;" horiz-adv-x="387" 
d="M409 616q0 -61 -20 -123.5t-53 -94.5q-49 -47 -127 -47q-61 0 -94 29.5t-33 84.5q0 61 20.5 123.5t52.5 94.5q50 47 128 47q60 0 93 -29.5t33 -84.5zM320 615q0 55 -49 55q-28 0 -49 -20q-23 -23 -36.5 -81.5t-13.5 -102.5q0 -55 48 -55q29 0 49 20q23 23 37 82t14 102z
" />
    <glyph glyph-name="four.superior" unicode="&#x2074;" horiz-adv-x="356" 
d="M370 433h-50l-15 -74h-86l15 74h-177l12 61q77 109 184 228h122l-43 -226h50zM247 496l35 174h-2q-60 -63 -142 -174h109z" />
    <glyph glyph-name="five.superior" unicode="&#x2075;" horiz-adv-x="351" 
d="M361 491q0 -22 -8 -44t-26.5 -45t-56 -37t-89.5 -14q-58 0 -122 26l15 42q56 -10 97 -10q50 0 73 21t23 49q0 21 -15 32t-56 11q-45 0 -93 -7l55 207h218l-12 -65h-145l-24 -87q24 5 52 5q114 0 114 -84z" />
    <glyph glyph-name="six.superior" unicode="&#x2076;" horiz-adv-x="374" 
d="M386 497q0 -52 -43 -99t-125 -47q-128 0 -128 115q0 69 20.5 126.5t70.5 97.5t122 40q54 0 110 -22l-16 -43q-68 9 -88 9q-52 0 -79 -27.5t-41 -90.5q53 25 97 25q100 0 100 -84zM300 490q0 39 -51 39q-29 0 -67 -16q-5 -24 -5 -52q0 -55 47 -55q39 0 57.5 25.5
t18.5 58.5z" />
    <glyph glyph-name="seven.superior" unicode="&#x2077;" horiz-adv-x="337" 
d="M389 660l-109 -146q-81 -105 -143 -164l-62 19l211 285h-179l13 68h281z" />
    <glyph glyph-name="eight.superior" unicode="&#x2078;" horiz-adv-x="375" 
d="M385 468q0 -53 -46 -85.5t-131 -32.5q-143 0 -143 82q0 69 105 107q-59 32 -59 79q0 49 44 81t121 32q66 0 100.5 -21.5t34.5 -56.5q0 -34 -24.5 -58t-71.5 -45q70 -29 70 -82zM323 646q0 34 -54 34q-69 0 -69 -50q0 -18 11.5 -30t41.5 -26q70 30 70 72zM294 455
q0 17 -14.5 30.5t-51.5 28.5q-72 -34 -72 -74q0 -39 62 -39q38 0 57 16t19 38z" />
    <glyph glyph-name="nine.superior" unicode="&#x2079;" horiz-adv-x="372" 
d="M100 584q0 54 42.5 100t127.5 46q127 0 127 -112q0 -70 -20.5 -128.5t-70 -98.5t-120.5 -40q-55 0 -119 23l15 44q57 -11 96 -11q52 0 79.5 28.5t39.5 89.5q-53 -25 -96 -25q-101 0 -101 84zM186 591q0 -39 52 -39q29 0 67 16q5 24 5 52q0 55 -49 55q-37 0 -56 -25.5
t-19 -58.5z" />
    <glyph glyph-name="uni207A" unicode="&#x207a;" horiz-adv-x="329" 
d="M343 508h-93l-18 -95h-74l18 95h-93l13 64h92l19 96h75l-19 -96h92z" />
    <glyph glyph-name="uni207B" unicode="&#x207b;" horiz-adv-x="329" 
d="M343 507h-260l13 66h259z" />
    <glyph glyph-name="uni207C" unicode="&#x207c;" horiz-adv-x="329" 
d="M352 568h-254l11 60h255zM330 453h-254l11 60h255z" />
    <glyph glyph-name="parenleft.superior" unicode="&#x207d;" horiz-adv-x="198" 
d="M193 292l-62 -13q-40 81 -40 181q0 90 35.5 186t106.5 173l58 -20q-115 -183 -115 -355q0 -79 17 -152z" />
    <glyph glyph-name="parenright.superior" unicode="&#x207e;" horiz-adv-x="197" 
d="M126 805l61 14q40 -80 40 -181q0 -90 -35.5 -186t-105.5 -173l-58 19q114 181 114 355q0 84 -16 152z" />
    <glyph glyph-name="nsuperior" unicode="&#x207f;" horiz-adv-x="382" 
d="M394 597q0 -30 -42 -238h-85q39 196 39 224q0 36 -31 36q-28 0 -55 -32.5t-38 -91.5l-27 -136h-86l62 315h69l-4 -61q47 67 117 67q43 0 62 -23.5t19 -59.5z" />
    <glyph glyph-name="zero.inferior" unicode="&#x2080;" horiz-adv-x="387" 
d="M327 196q0 -61 -20 -123.5t-53 -94.5q-49 -47 -127 -47q-61 0 -94 29.5t-33 84.5q0 61 20.5 123.5t52.5 94.5q50 47 128 47q60 0 93 -29.5t33 -84.5zM238 195q0 55 -49 55q-28 0 -49 -20q-23 -23 -36.5 -81.5t-13.5 -102.5q0 -55 48 -55q29 0 49 20q23 23 37 82t14 102z
" />
    <glyph glyph-name="one.inferior" unicode="&#x2081;" horiz-adv-x="339" 
d="M241 -61h-255l12 63h87l45 227l-82 -22l-3 51l120 46h69l-59 -302h79z" />
    <glyph glyph-name="two.inferior" unicode="&#x2082;" horiz-adv-x="351" 
d="M253 -61h-276l12 63q126 86 170 127.5t44 80.5q0 38 -56 38q-29 0 -96 -19l-6 54q79 27 135 27t86.5 -23.5t30.5 -62.5q0 -53 -51 -105t-155 -111l-1 -2h175z" />
    <glyph glyph-name="three.inferior" unicode="&#x2083;" horiz-adv-x="350" 
d="M279 62q0 -20 -7.5 -40t-25.5 -42t-56 -35.5t-92 -13.5q-62 0 -125 23l16 46q61 -11 100 -11q52 0 74 19.5t22 47.5q0 43 -77 43h-50l11 57h54q43 0 63 16.5t20 40.5q0 39 -60 39q-38 0 -90 -14l-6 49q64 23 123 23q66 0 96 -23.5t30 -58.5t-23.5 -60.5t-62.5 -34.5
q66 -14 66 -71z" />
    <glyph glyph-name="four.inferior" unicode="&#x2084;" horiz-adv-x="356" 
d="M288 13h-50l-15 -74h-86l15 74h-177l12 61q77 109 184 228h122l-43 -226h50zM165 76l35 174h-2q-60 -63 -142 -174h109z" />
    <glyph glyph-name="five.inferior" unicode="&#x2085;" horiz-adv-x="351" 
d="M279 71q0 -22 -8 -44t-26.5 -45t-56 -37t-89.5 -14q-58 0 -122 26l15 42q56 -10 97 -10q50 0 73 21t23 49q0 21 -15 32t-56 11q-45 0 -93 -7l55 207h218l-12 -65h-145l-24 -87q24 5 52 5q114 0 114 -84z" />
    <glyph glyph-name="six.inferior" unicode="&#x2086;" horiz-adv-x="374" 
d="M304 77q0 -52 -43 -99t-125 -47q-128 0 -128 115q0 69 20.5 126.5t70.5 97.5t122 40q54 0 110 -22l-16 -43q-67 9 -88 9q-52 0 -79 -27.5t-41 -90.5q53 25 97 25q100 0 100 -84zM218 70q0 39 -51 39q-29 0 -67 -16q-5 -24 -5 -52q0 -55 47 -55q39 0 57.5 25.5t18.5 58.5z
" />
    <glyph glyph-name="seven.inferior" unicode="&#x2087;" horiz-adv-x="337" 
d="M307 240l-109 -146q-81 -105 -143 -164l-62 19l211 285h-179l13 68h281z" />
    <glyph glyph-name="eight.inferior" unicode="&#x2088;" horiz-adv-x="382" 
d="M306 48q0 -53 -46 -85.5t-131 -32.5q-143 0 -143 82q0 69 105 107q-59 32 -59 79q0 49 44 81t121 32q66 0 100.5 -21.5t34.5 -56.5q0 -34 -24.5 -58t-71.5 -45q70 -29 70 -82zM244 226q0 34 -54 34q-69 0 -69 -50q0 -18 11.5 -30t41.5 -26q70 30 70 72zM215 35
q0 17 -14.5 30.5t-51.5 28.5q-72 -34 -72 -74q0 -39 62 -39q38 0 57 16t19 38z" />
    <glyph glyph-name="nine.inferior" unicode="&#x2089;" horiz-adv-x="372" 
d="M17 164q0 54 42.5 100t127.5 46q127 0 127 -112q0 -70 -20.5 -128.5t-70 -98.5t-120.5 -40q-55 0 -119 23l15 44q57 -11 96 -11q52 0 79.5 28.5t39.5 89.5q-53 -25 -96 -25q-101 0 -101 84zM103 171q0 -39 52 -39q29 0 67 16q5 24 5 52q0 55 -49 55q-37 0 -56 -25.5
t-19 -58.5z" />
    <glyph glyph-name="uni208A" unicode="&#x208a;" horiz-adv-x="329" 
d="M261 88h-93l-18 -95h-74l18 95h-93l13 64h92l19 96h75l-19 -96h92z" />
    <glyph glyph-name="uni208B" unicode="&#x208b;" horiz-adv-x="329" 
d="M261 87h-260l13 66h259z" />
    <glyph glyph-name="uni208C" unicode="&#x208c;" horiz-adv-x="329" 
d="M270 148h-254l11 60h255zM248 33h-254l11 60h255z" />
    <glyph glyph-name="parenleft.inferior" unicode="&#x208d;" horiz-adv-x="206" 
d="M111 -128l-62 -13q-40 81 -40 181q0 90 35.5 186t106.5 173l58 -20q-115 -183 -115 -355q0 -79 17 -152z" />
    <glyph glyph-name="parenright.inferior" unicode="&#x208e;" horiz-adv-x="206" 
d="M44 385l61 14q40 -80 40 -181q0 -90 -35.5 -186t-105.5 -173l-58 19q114 181 114 355q0 84 -16 152z" />
    <glyph glyph-name="Euro" unicode="&#x20ac;" 
d="M413 135l36 -52q-95 -93 -202 -93q-102 0 -148.5 68t-41.5 175h-59l12 67h55q4 33 16 79h-55l13 67h62q39 114 111 176.5t163 62.5q124 0 158 -102l-54 -46q-29 67 -102 67q-59 0 -103.5 -44t-67.5 -114h172l-13 -67h-178q-11 -36 -16 -79h178l-12 -67h-170
q-4 -39 3 -73.5t33 -61t70 -26.5q73 0 140 63z" />
    <glyph glyph-name="uni2117" unicode="&#x2117;" horiz-adv-x="774" 
d="M575 422q0 -76 -50.5 -113t-128.5 -37h-39l-23 -118h-79l70 363q17 0 60 0.5t62 0.5q128 0 128 -96zM492 415q0 46 -60 46h-39l-26 -132h39q37 0 61.5 22t24.5 64zM356 -12q-136 0 -220.5 85t-84.5 214q0 102 51.5 193.5t144 148.5t200.5 57q136 0 221 -85t85 -214
q0 -102 -52 -193.5t-144.5 -148.5t-200.5 -57zM675 379q0 103 -64.5 173t-169.5 70q-130 0 -221.5 -99t-91.5 -228q0 -103 64.5 -173t169.5 -70q130 0 221.5 99t91.5 228z" />
    <glyph glyph-name="servicemark" unicode="&#x2120;" horiz-adv-x="433" 
d="M217 563q0 -26 -21.5 -42.5t-59.5 -16.5q-36 0 -61 15l12 26q19 -8 42 -8q30 0 30 19q0 7 -9.5 13.5t-20.5 11t-20.5 16t-9.5 27.5q0 24 19.5 39.5t51.5 15.5q35 0 57 -12l-11 -26q-19 7 -37 7q-25 0 -25 -17q0 -7 10 -13t21.5 -11t21.5 -16.5t10 -27.5zM449 509h-47
q14 73 18 108h-1l-56 -108h-50l-13 107h-1q-14 -58 -24 -107h-44q20 91 44 166h62l12 -111h1l56 111h65q-6 -71 -22 -166z" />
    <glyph glyph-name="trademark" unicode="&#x2122;" horiz-adv-x="415" 
d="M422 509h-47q14 73 18 108h-1l-56 -108h-50l-13 107h-1q-14 -58 -24 -107h-44q20 91 44 166h62l12 -111h1l56 111h65q-6 -71 -22 -166zM215 636h-34l-24 -127h-50l25 127h-35l7 39h119z" />
    <glyph glyph-name="uni2139" unicode="&#x2139;" horiz-adv-x="372" 
d="M301 0h-330l14 73h119l46 234h-111l14 73h218l-59 -307h103zM231 450q-35 0 -49 8t-14 28q0 16 6 39t14 32q16 16 60 16q34 0 48.5 -8t14.5 -28q0 -15 -6.5 -38.5t-14.5 -32.5q-16 -16 -59 -16z" />
    <glyph glyph-name="onethird" unicode="&#x2153;" horiz-adv-x="759" 
d="M323 359h-255l12 63h87l45 227l-82 -22l-3 51l120 46h69l-59 -302h79zM785 698l-721 -773l-51 33l720 773zM687 62q0 -20 -7.5 -40t-25.5 -42t-56 -35.5t-92 -13.5q-62 0 -125 23l16 46q61 -11 100 -11q52 0 74 19.5t22 47.5q0 43 -77 43h-50l11 57h54q43 0 63 16.5
t20 40.5q0 39 -60 39q-37 0 -90 -14l-6 49q64 23 123 23q66 0 96 -23.5t30 -58.5t-23.5 -60.5t-62.5 -34.5q66 -14 66 -71z" />
    <glyph glyph-name="twothirds" unicode="&#x2154;" horiz-adv-x="770" 
d="M335 359h-276l12 63q126 86 170 127.5t44 80.5q0 38 -56 38q-29 0 -96 -19l-6 54q79 27 135 27t86.5 -23.5t30.5 -62.5q0 -53 -51 -105t-155 -111l-1 -2h175zM796 698l-721 -773l-51 33l720 773zM698 62q0 -20 -7.5 -40t-25.5 -42t-56 -35.5t-92 -13.5q-62 0 -125 23
l16 46q61 -11 100 -11q52 0 74 19.5t22 47.5q0 43 -77 43h-50l11 57h54q43 0 63 16.5t20 40.5q0 39 -60 39q-37 0 -90 -14l-6 49q64 23 123 23q66 0 96 -23.5t30 -58.5t-23.5 -60.5t-62.5 -34.5q66 -14 66 -71z" />
    <glyph glyph-name="onefifth" unicode="&#x2155;" horiz-adv-x="751" 
d="M323 359h-255l12 63h87l45 227l-82 -22l-3 51l120 46h69l-59 -302h79zM785 698l-721 -773l-51 33l720 773zM672 71q0 -22 -8 -44t-26.5 -45t-56 -37t-89.5 -14q-58 0 -122 26l15 42q56 -10 97 -10q50 0 73 21t23 49q0 21 -15 32t-56 11q-45 0 -93 -7l55 207h218l-12 -65
h-145l-24 -87q24 5 52 5q114 0 114 -84z" />
    <glyph glyph-name="twofifths" unicode="&#x2156;" horiz-adv-x="762" 
d="M335 359h-276l12 63q126 86 170 127.5t44 80.5q0 38 -56 38q-29 0 -96 -19l-6 54q79 27 135 27t86.5 -23.5t30.5 -62.5q0 -53 -51 -105t-155 -111l-1 -2h175zM796 698l-721 -773l-51 33l720 773zM683 71q0 -22 -8 -44t-26.5 -45t-56 -37t-89.5 -14q-58 0 -122 26l15 42
q56 -10 97 -10q50 0 73 21t23 49q0 21 -15 32t-56 11q-45 0 -93 -7l55 207h218l-12 -65h-145l-24 -87q24 5 52 5q114 0 114 -84z" />
    <glyph glyph-name="threefifths" unicode="&#x2157;" horiz-adv-x="756" 
d="M361 482q0 -20 -7.5 -40t-25.5 -42t-56 -35.5t-92 -13.5q-62 0 -125 23l16 46q61 -11 100 -11q52 0 74 19.5t22 47.5q0 43 -77 43h-50l11 57h54q43 0 63 16.5t20 40.5q0 39 -60 39q-38 0 -90 -14l-6 49q64 23 123 23q66 0 96 -23.5t30 -58.5t-23.5 -60.5t-62.5 -34.5
q66 -14 66 -71zM790 698l-721 -773l-51 33l720 773zM677 71q0 -22 -8 -44t-26.5 -45t-56 -37t-89.5 -14q-58 0 -122 26l15 42q56 -10 97 -10q50 0 73 21t23 49q0 21 -15 32t-56 11q-45 0 -93 -7l55 207h218l-12 -65h-145l-24 -87q24 5 52 5q114 0 114 -84z" />
    <glyph glyph-name="fourfifths" unicode="&#x2158;" horiz-adv-x="751" 
d="M370 433h-50l-15 -74h-86l15 74h-177l12 61q77 109 184 228h122l-43 -226h50zM247 496l35 174h-2q-60 -63 -142 -174h109zM785 698l-721 -773l-51 33l720 773zM672 71q0 -22 -8 -44t-26.5 -45t-56 -37t-89.5 -14q-58 0 -122 26l15 42q56 -10 97 -10q50 0 73 21t23 49
q0 21 -15 32t-56 11q-45 0 -93 -7l55 207h218l-12 -65h-145l-24 -87q24 5 52 5q114 0 114 -84z" />
    <glyph glyph-name="onesixth" unicode="&#x2159;" horiz-adv-x="769" 
d="M785 698l-721 -773l-51 33l720 773zM698 77q0 -52 -43 -99t-125 -47q-128 0 -128 115q0 69 20.5 126.5t70.5 97.5t122 40q54 0 110 -22l-16 -43q-68 9 -88 9q-52 0 -79 -27.5t-41 -90.5q53 25 97 25q100 0 100 -84zM612 70q0 39 -51 39q-29 0 -67 -16q-5 -24 -5 -52
q0 -55 47 -55q39 0 57.5 25.5t18.5 58.5zM323 359h-255l12 63h87l45 227l-82 -22l-3 51l120 46h69l-59 -302h79z" />
    <glyph glyph-name="fivesixths" unicode="&#x215a;" horiz-adv-x="772" 
d="M788 698l-721 -773l-51 33l720 773zM701 77q0 -52 -43 -99t-125 -47q-128 0 -128 115q0 69 20.5 126.5t70.5 97.5t122 40q54 0 110 -22l-16 -43q-68 9 -88 9q-52 0 -79 -27.5t-41 -90.5q53 25 97 25q100 0 100 -84zM615 70q0 39 -51 39q-29 0 -67 -16q-5 -24 -5 -52
q0 -55 47 -55q39 0 57.5 25.5t18.5 58.5zM361 491q0 -22 -8 -44t-26.5 -45t-56 -37t-89.5 -14q-58 0 -122 26l15 42q56 -10 97 -10q50 0 73 21t23 49q0 21 -15 32t-56 11q-45 0 -93 -7l55 207h218l-12 -65h-145l-24 -87q24 5 52 5q114 0 114 -84z" />
    <glyph glyph-name="oneeighth" unicode="&#x215b;" horiz-adv-x="795" 
d="M785 698l-721 -773l-51 33l720 773zM726 48q0 -53 -46 -85.5t-131 -32.5q-143 0 -143 82q0 69 105 107q-59 32 -59 79q0 49 44 81t121 32q66 0 100.5 -21.5t34.5 -56.5q0 -34 -24.5 -58t-71.5 -45q70 -29 70 -82zM664 226q0 34 -54 34q-69 0 -69 -50q0 -18 11.5 -30
t41.5 -26q70 30 70 72zM635 35q0 17 -14.5 30.5t-51.5 28.5q-72 -34 -72 -74q0 -39 62 -39q38 0 57 16t19 38zM323 359h-255l12 63h87l45 227l-82 -22l-3 51l120 46h69l-59 -302h79z" />
    <glyph glyph-name="threeeighths" unicode="&#x215c;" horiz-adv-x="800" 
d="M361 482q0 -20 -7.5 -40t-25.5 -42t-56 -35.5t-92 -13.5q-62 0 -125 23l16 46q61 -11 100 -11q52 0 74 19.5t22 47.5q0 43 -77 43h-50l11 57h54q43 0 63 16.5t20 40.5q0 39 -60 39q-38 0 -90 -14l-6 49q64 23 123 23q66 0 96 -23.5t30 -58.5t-23.5 -60.5t-62.5 -34.5
q66 -14 66 -71zM790 698l-721 -773l-51 33l720 773zM731 48q0 -53 -46 -85.5t-131 -32.5q-143 0 -143 82q0 69 105 107q-59 32 -59 79q0 49 44 81t121 32q66 0 100.5 -21.5t34.5 -56.5q0 -34 -24.5 -58t-71.5 -45q70 -29 70 -82zM669 226q0 34 -54 34q-69 0 -69 -50
q0 -18 11.5 -30t41.5 -26q70 30 70 72zM640 35q0 17 -14.5 30.5t-51.5 28.5q-72 -34 -72 -74q0 -39 62 -39q38 0 57 16t19 38z" />
    <glyph glyph-name="fiveeighths" unicode="&#x215d;" horiz-adv-x="798" 
d="M788 698l-721 -773l-51 33l720 773zM729 48q0 -53 -46 -85.5t-131 -32.5q-143 0 -143 82q0 69 105 107q-59 32 -59 79q0 49 44 81t121 32q66 0 100.5 -21.5t34.5 -56.5q0 -34 -24.5 -58t-71.5 -45q70 -29 70 -82zM667 226q0 34 -54 34q-69 0 -69 -50q0 -18 11.5 -30
t41.5 -26q70 30 70 72zM638 35q0 17 -14.5 30.5t-51.5 28.5q-72 -34 -72 -74q0 -39 62 -39q38 0 57 16t19 38zM361 491q0 -22 -8 -44t-26.5 -45t-56 -37t-89.5 -14q-58 0 -122 26l15 42q56 -10 97 -10q50 0 73 21t23 49q0 21 -15 32t-56 11q-45 0 -93 -7l55 207h218l-12 -65
h-145l-24 -87q24 5 52 5q114 0 114 -84z" />
    <glyph glyph-name="seveneighths" unicode="&#x215e;" horiz-adv-x="754" 
d="M743 698l-721 -773l-51 33l720 773zM684 48q0 -53 -46 -85.5t-131 -32.5q-143 0 -143 82q0 69 105 107q-59 32 -59 79q0 49 44 81t121 32q66 0 100.5 -21.5t34.5 -56.5q0 -34 -24.5 -58t-71.5 -45q70 -29 70 -82zM622 226q0 34 -54 34q-69 0 -69 -50q0 -18 11.5 -30
t41.5 -26q70 30 70 72zM593 35q0 17 -14.5 30.5t-51.5 28.5q-72 -34 -72 -74q0 -39 62 -39q38 0 57 16t19 38zM434 660l-109 -146q-81 -105 -143 -164l-62 19l211 285h-179l13 68h281z" />
    <glyph glyph-name="uni2160" unicode="&#x2160;" horiz-adv-x="388" 
d="M286 0h-284l15 85h89l98 506h-88l17 84h284l-16 -84h-89l-98 -506h88z" />
    <glyph glyph-name="uni2161" unicode="&#x2161;" horiz-adv-x="776" 
d="M286 0h-284l15 85h89l98 506h-88l17 84h284l-16 -84h-89l-98 -506h88zM674 0h-284l15 85h89l98 506h-88l17 84h284l-16 -84h-89l-98 -506h88z" />
    <glyph glyph-name="uni2162" unicode="&#x2162;" horiz-adv-x="1164" 
d="M286 0h-284l15 85h89l98 506h-88l17 84h284l-16 -84h-89l-98 -506h88zM674 0h-284l15 85h89l98 506h-88l17 84h284l-16 -84h-89l-98 -506h88zM1062 0h-284l15 85h89l98 506h-88l17 84h284l-16 -84h-89l-98 -506h88z" />
    <glyph glyph-name="uni2163" unicode="&#x2163;" horiz-adv-x="923" 
d="M286 0h-284l15 85h89l98 506h-88l17 84h284l-16 -84h-89l-98 -506h88zM880 675h110q-149 -372 -319 -675h-129q-53 344 -59 675h114q2 -269 35 -564h2q128 254 246 564z" />
    <glyph glyph-name="uni2164" unicode="&#x2164;" horiz-adv-x="535" 
d="M492 675h110q-149 -372 -319 -675h-129q-53 344 -59 675h114q2 -269 35 -564h2q128 254 246 564z" />
    <glyph glyph-name="uni2165" unicode="&#x2165;" horiz-adv-x="923" 
d="M492 675h110q-149 -372 -319 -675h-129q-53 344 -59 675h114q2 -269 35 -564h2q128 254 246 564zM821 0h-284l15 85h89l98 506h-88l17 84h284l-16 -84h-89l-98 -506h88z" />
    <glyph glyph-name="uni2166" unicode="&#x2166;" horiz-adv-x="1311" 
d="M492 675h110q-149 -372 -319 -675h-129q-53 344 -59 675h114q2 -269 35 -564h2q128 254 246 564zM821 0h-284l15 85h89l98 506h-88l17 84h284l-16 -84h-89l-98 -506h88zM1209 0h-284l15 85h89l98 506h-88l17 84h284l-16 -84h-89l-98 -506h88z" />
    <glyph glyph-name="uni2167" unicode="&#x2167;" horiz-adv-x="1699" 
d="M492 675h110q-149 -372 -319 -675h-129q-53 344 -59 675h114q2 -269 35 -564h2q128 254 246 564zM821 0h-284l15 85h89l98 506h-88l17 84h284l-16 -84h-89l-98 -506h88zM1209 0h-284l15 85h89l98 506h-88l17 84h284l-16 -84h-89l-98 -506h88zM1597 0h-284l15 85h89
l98 506h-88l17 84h284l-16 -84h-89l-98 -506h88z" />
    <glyph glyph-name="uni2168" unicode="&#x2168;" horiz-adv-x="934" 
d="M286 0h-284l15 85h89l98 506h-88l17 84h284l-16 -84h-89l-98 -506h88zM863 0h-116q-41 155 -89 269h-1q-91 -113 -188 -269h-112q115 187 253 356q-66 165 -105 319h113q42 -160 76 -242h1q82 101 170 242h110q-106 -172 -230 -319q78 -190 118 -356z" />
    <glyph glyph-name="uni2169" unicode="&#x2169;" horiz-adv-x="546" 
d="M475 0h-116q-41 155 -89 269h-1q-91 -113 -188 -269h-112q115 187 253 356q-66 165 -105 319h113q42 -160 76 -242h1q82 101 170 242h110q-106 -172 -230 -319q78 -190 118 -356z" />
    <glyph glyph-name="uni216A" unicode="&#x216a;" horiz-adv-x="934" 
d="M475 0h-116q-41 155 -89 269h-1q-91 -113 -188 -269h-112q115 187 253 356q-66 165 -105 319h113q42 -160 76 -242h1q82 101 170 242h110q-106 -172 -230 -319q78 -190 118 -356zM832 0h-284l15 85h89l98 506h-88l17 84h284l-16 -84h-89l-98 -506h88z" />
    <glyph glyph-name="uni216B" unicode="&#x216b;" horiz-adv-x="1322" 
d="M475 0h-116q-41 155 -89 269h-1q-91 -113 -188 -269h-112q115 187 253 356q-66 165 -105 319h113q42 -160 76 -242h1q82 101 170 242h110q-106 -172 -230 -319q78 -190 118 -356zM832 0h-284l15 85h89l98 506h-88l17 84h284l-16 -84h-89l-98 -506h88zM1220 0h-284l15 85
h89l98 506h-88l17 84h284l-16 -84h-89l-98 -506h88z" />
    <glyph glyph-name="uni216C" unicode="&#x216c;" horiz-adv-x="421" 
d="M354 0h-321l131 675h108l-114 -590h212z" />
    <glyph glyph-name="uni216D" unicode="&#x216d;" horiz-adv-x="517" 
d="M419 148l39 -56q-92 -102 -213 -102q-95 0 -145 56t-50 164q0 46 7.5 96.5t23 104.5t42.5 102.5t61.5 87t84 61.5t107.5 23q125 0 164 -112l-58 -46q-34 71 -101 71q-68 0 -119 -63t-74 -145.5t-23 -163.5q0 -148 109 -148q74 0 145 70z" />
    <glyph glyph-name="uni216E" unicode="&#x216e;" horiz-adv-x="587" 
d="M568 447q0 -46 -10 -101.5t-41.5 -129t-79.5 -122.5q-99 -97 -247 -97q-30 0 -83.5 1.5t-73.5 1.5l131 675q31 0 83 0.5t79 0.5q124 0 183 -62.5t59 -166.5zM452 440q0 155 -141 155q-37 0 -54 -1l-100 -511q38 -2 53 -2q83 0 139 56q55 55 79 146t24 157z" />
    <glyph glyph-name="uni216F" unicode="&#x216f;" horiz-adv-x="844" 
d="M724 0h-113q54 310 74 544h-1l-275 -544h-89l-66 544h-1q-59 -209 -129 -544h-104q79 353 180 675h137l66 -502h1l259 502h140q-28 -367 -79 -675z" />
    <glyph glyph-name="arrowleft" unicode="&#x2190;" horiz-adv-x="1054" 
d="M62 338l373 373l49 -50q-136 -157 -259 -279l1 -1q303 8 611 8h136v-102h-136q-137 0 -290 2t-237 4l-84 2l-1 -1q55 -54 119.5 -124t101.5 -112l38 -43l-49 -50z" />
    <glyph glyph-name="arrowup" unicode="&#x2191;" horiz-adv-x="870" 
d="M435 803l373 -373l-50 -49q-157 136 -279 259l-1 -1q8 -303 8 -611v-136h-102v136q0 137 2 290t4 237l2 84l-1 1q-54 -55 -124 -119.5t-113 -102.5l-42 -37l-50 49z" />
    <glyph glyph-name="arrowright" unicode="&#x2192;" horiz-adv-x="1054" 
d="M992 338l-373 -373l-49 50q136 157 259 279l-1 1q-303 -8 -611 -8h-136v102h136q137 0 290 -2t237 -4l84 -2l1 1q-55 54 -119.5 124t-101.5 112l-38 43l49 50z" />
    <glyph glyph-name="arrowdown" unicode="&#x2193;" horiz-adv-x="870" 
d="M435 -127l-373 373l50 49q157 -136 279 -259l1 1q-8 303 -8 611v136h102v-136q0 -137 -2 -290t-4 -237l-2 -84l1 -1q54 55 124 119.5t113 102.5l42 37l50 -49z" />
    <glyph glyph-name="arrowboth" unicode="&#x2194;" horiz-adv-x="1250" 
d="M1188 338l-331 -331l-47 47q111 131 226 243l-1 1q-203 -6 -327 -6h-166l-327 6l-1 -1q51 -50 107.5 -110.5t87.5 -96.5l31 -36l-47 -47l-331 331l331 331l47 -47q-111 -131 -226 -243l1 -1q203 6 327 6h166l327 -6l1 1q-51 50 -107.5 110.5t-87.5 96.5l-31 36l47 47z
" />
    <glyph glyph-name="arrowupdn" unicode="&#x2195;" horiz-adv-x="786" 
d="M393 -169l-331 331l47 47q131 -111 243 -226l1 1q-6 203 -6 327v54l6 327l-1 1q-50 -51 -110.5 -107.5t-96.5 -87.5l-36 -31l-47 47l331 331l331 -331l-47 -47q-131 111 -243 226l-1 -1q6 -203 6 -327v-54l-6 -327l1 -1q50 51 110.5 107.5t96.5 87.5l36 31l47 -47z" />
    <glyph glyph-name="arrownorthwest" unicode="&#x2196;" horiz-adv-x="846" 
d="M94 667h527v-70q-23 -2 -62.5 -4.5t-141 -6t-177.5 -3.5l-1 -1q220 -208 438 -427l97 -97l-72 -72l-97 97q-97 97 -203.5 206.5t-164.5 170.5l-58 61h-2q1 -77 -2.5 -172.5t-6.5 -152.5l-4 -57h-70v528z" />
    <glyph glyph-name="arrownortheast" unicode="&#x2197;" horiz-adv-x="846" 
d="M751 667v-528h-70q-2 23 -4 62.5t-5.5 141t-3.5 178.5h-2q-208 -219 -426 -438l-97 -97l-72 72l97 97q97 97 206.5 204t170.5 165l61 58l-1 1q-76 0 -171.5 3.5t-152.5 7.5l-57 3v70h527z" />
    <glyph glyph-name="arrowsoutheast" unicode="&#x2198;" horiz-adv-x="846" 
d="M751 9h-527v70q23 2 62.5 4.5t141 6t177.5 3.5l1 1q-220 208 -438 427l-97 97l72 72l97 -97q97 -97 203.5 -206.5t164.5 -170.5l58 -61h2q0 77 3 172.5t7 152.5l3 57h70v-528z" />
    <glyph glyph-name="arrowsouthwest" unicode="&#x2199;" horiz-adv-x="846" 
d="M94 9v528h70q2 -23 4.5 -62.5t6 -141t2.5 -178.5h2q208 219 426 438l97 97l72 -72l-97 -97q-97 -97 -206.5 -204t-170.5 -165l-61 -58l1 -1q76 0 171.5 -3.5t152.5 -7.5l57 -3v-70h-527z" />
    <glyph glyph-name="partialdiff" unicode="&#x2202;" horiz-adv-x="524" 
d="M30 171q0 56 14.5 110t46 105t90 82.5t137.5 31.5q39 0 61 -6q-26 92 -134 171l63 53q89 -53 137 -129t48 -188q0 -47 -8 -98t-29 -108t-52.5 -101.5t-83 -73.5t-115.5 -29q-175 0 -175 180zM140 171q0 -100 82 -100q46 0 80.5 40.5t51.5 99t24.5 113t4.5 92.5
q-26 13 -78 13q-44 0 -77.5 -26.5t-51.5 -67.5t-27 -83t-9 -81z" />
    <glyph glyph-name="product" unicode="&#x220f;" horiz-adv-x="653" 
d="M696 590h-72l-114 -590h-108l114 590h-248l-114 -590h-108l114 590h-71l17 85h607z" />
    <glyph glyph-name="summation" unicode="&#x2211;" 
d="M407 0h-417l14 74l273 277l-159 250l15 74h392l-17 -83h-269l154 -243l-259 -263h290z" />
    <glyph glyph-name="minus" unicode="&#x2212;" 
d="M461 261h-420l15 76h420z" />
    <glyph glyph-name="uni2215" unicode="&#x2215;" horiz-adv-x="81" 
d="M445 698l-721 -773l-51 33l720 773z" />
    <glyph glyph-name="radical" unicode="&#x221a;" 
d="M469 675h101q-131 -340 -319 -675h-113l-23 427h-75l13 71h157l14 -383q142 284 245 560z" />
    <glyph glyph-name="infinity" unicode="&#x221e;" horiz-adv-x="1000" 
d="M967 344q0 -27 -6 -57t-23 -64.5t-43 -61.5t-71 -45t-101 -18q-65 0 -119.5 35.5t-110.5 98.5q-168 -134 -278 -134q-82 0 -125 41t-43 111q0 27 6 57t23 64.5t43 61.5t71 45t101 18q65 0 119 -36t111 -99q81 64 147.5 99.5t131.5 35.5q82 0 124.5 -41t42.5 -111z
M863 332q0 81 -80 81q-42 0 -91 -29t-117 -85q49 -58 86.5 -88t77.5 -30q35 0 61 16.5t38.5 42t18.5 49t6 43.5zM232 181q42 0 90 29t117 85q-50 58 -87.5 88t-76.5 30q-35 0 -60.5 -16.5t-38.5 -42t-18.5 -49t-5.5 -43.5q0 -81 80 -81z" />
    <glyph glyph-name="integral" unicode="&#x222b;" horiz-adv-x="400" 
d="M463 694l-27 -60q-34 9 -52 9q-33 0 -51 -18.5t-26 -60.5l-113 -579q-18 -88 -58.5 -126.5t-106.5 -38.5q-51 0 -96 25l27 60q28 -10 52 -10q33 0 51 18.5t26 60.5l113 581q32 164 165 164q48 0 96 -25z" />
    <glyph glyph-name="uni2236" unicode="&#x2236;" horiz-adv-x="332" 
d="M130 74q-29 0 -41 8.5t-12 30.5q0 44 19 63q15 14 54 14q29 0 41.5 -8.5t12.5 -29.5q0 -43 -20 -63q-15 -15 -54 -15zM205 461q-29 0 -41 8.5t-12 29.5q0 42 19 63q17 15 54 15q29 0 41.5 -9t12.5 -30q0 -44 -20 -62q-14 -15 -54 -15z" />
    <glyph glyph-name="approxequal" unicode="&#x2248;" 
d="M457 449l28 -57q-67 -60 -129 -60q-45 0 -93.5 27.5t-79.5 27.5q-35 0 -89 -45l-29 57q37 32 66.5 46t63.5 14q45 0 93.5 -27.5t79.5 -27.5q35 0 89 45zM419 255l29 -57q-67 -60 -130 -60q-45 0 -93.5 27t-79.5 27q-36 0 -89 -44l-28 57q67 60 129 60q45 0 94 -27.5
t79 -27.5q35 0 89 45z" />
    <glyph glyph-name="notequal" unicode="&#x2260;" 
d="M440 171h-225l-111 -154l-68 34l88 120h-97l13 69h131l86 117h-193l13 69h227l111 154l68 -33l-89 -121h96l-14 -69h-128l-86 -117h191z" />
    <glyph glyph-name="lessequal" unicode="&#x2264;" 
d="M407 0h-415l13 71h415zM447 204l-44 -72l-351 179l13 69l421 179l15 -74l-344 -140z" />
    <glyph glyph-name="greaterequal" unicode="&#x2265;" 
d="M407 0h-415l13 71h415zM467 311l-421 -179l-16 74l345 140l-290 141l44 72l351 -179z" />
    <glyph glyph-name="filledbox" unicode="&#x25a0;" horiz-adv-x="1100" 
d="M922 -115h-890l176 906h890z" />
    <glyph glyph-name="uni25A1" unicode="&#x25a1;" horiz-adv-x="1100" 
d="M937 -127h-924l181 930h924zM867 -56l154 788h-758l-154 -788h758z" />
    <glyph glyph-name="uni25B2" unicode="&#x25b2;" horiz-adv-x="800" 
d="M400 710l286 -684h-572z" />
    <glyph glyph-name="uni25B3" unicode="&#x25b3;" horiz-adv-x="800" 
d="M699 18h-598l299 713zM570 103l-170 407l-170 -407h340z" />
    <glyph glyph-name="uni25B6" unicode="&#x25b6;" horiz-adv-x="836" 
d="M790 338l-684 -286v572z" />
    <glyph glyph-name="uni25B7" unicode="&#x25b7;" horiz-adv-x="836" 
d="M811 338l-713 -299v598zM183 508v-340l407 170z" />
    <glyph glyph-name="uni25BC" unicode="&#x25bc;" horiz-adv-x="800" 
d="M686 650l-286 -684l-286 684h572z" />
    <glyph glyph-name="uni25BD" unicode="&#x25bd;" horiz-adv-x="800" 
d="M699 658l-299 -713l-299 713h598zM230 573l170 -407l170 407h-340z" />
    <glyph glyph-name="uni25C0" unicode="&#x25c0;" horiz-adv-x="836" 
d="M730 624v-572l-684 286z" />
    <glyph glyph-name="uni25C1" unicode="&#x25c1;" horiz-adv-x="836" 
d="M738 637v-598l-713 299zM246 338l407 -170v340z" />
    <glyph glyph-name="lozenge" unicode="&#x25ca;" 
d="M493 339l-254 -339h-81l-121 336l255 339h81zM397 337l-87 232l-176 -230l87 -233z" />
    <glyph glyph-name="circle" unicode="&#x25cb;" horiz-adv-x="1100" 
d="M1066 471q0 -120 -42 -249.5t-131 -218.5q-156 -156 -421 -156q-210 0 -309 97.5t-99 260.5q0 120 42 249.5t131 218.5q156 156 421 156q210 0 309 -97.5t99 -260.5zM982 469q0 289 -337 289q-216 0 -345 -129q-58 -58 -94.5 -144.5t-47 -152t-10.5 -125.5
q0 -289 337 -289q216 0 345 129q58 58 94.5 144.5t47 152t10.5 125.5z" />
    <glyph glyph-name="uni25CF" unicode="&#x25cf;" horiz-adv-x="1100" 
d="M1049 468q0 -115 -41 -241t-128 -213q-152 -152 -406 -152q-202 0 -298.5 95t-96.5 252q0 116 41 242t128 213q151 151 406 151q202 0 298.5 -95t96.5 -252z" />
    <glyph glyph-name="uniE1C2" unicode="&#xe1c2;" horiz-adv-x="1100" 
d="M622 55h120l-166 305l257 264h-119l-228 -239h-1l47 239h-106l-110 -569h106l52 267h1zM1049 468q0 -115 -41 -241t-128 -213q-152 -152 -406 -152q-202 0 -298.5 95t-96.5 252q0 116 41 242t128 213q151 151 406 151q202 0 298.5 -95t96.5 -252z" />
    <glyph glyph-name="uniE1C3" unicode="&#xe1c3;" horiz-adv-x="1100" 
d="M1049 468q0 -115 -41 -241t-128 -213q-152 -152 -406 -152q-202 0 -298.5 95t-96.5 252q0 116 41 242t128 213q151 151 406 151q202 0 298.5 -95t96.5 -252zM344 68h330l14 73h-104l60 307h-218l-14 -73h110l-45 -234h-120zM603 518q43 0 59 16q9 9 15 32t6 39
q0 20 -14.5 28t-48.5 8q-43 0 -59 -16q-9 -9 -15 -32t-6 -39q0 -20 14.5 -28t48.5 -8z" />
    <glyph glyph-name="uniE1C4" unicode="&#xe1c4;" horiz-adv-x="1100" 
d="M739 55h-120l-147 267h-1l-52 -267h-106l110 569h106l-47 -239h1l228 239h119l-257 -264zM1066 471q0 -120 -42 -249.5t-131 -218.5q-156 -156 -421 -156q-210 0 -309 97.5t-99 260.5q0 120 42 249.5t131 218.5q156 156 421 156q210 0 309 -97.5t99 -260.5zM982 469
q0 289 -337 289q-216 0 -345 -129q-58 -58 -94.5 -144.5t-47 -152t-10.5 -125.5q0 -289 337 -289q216 0 345 129q58 58 94.5 144.5t47 152t10.5 125.5z" />
    <glyph glyph-name="apple" unicode="&#xf8ff;" horiz-adv-x="1000" 
d="M771 404q0 -108 -71 -184v-85l-18 -5l35 -82l-34 -9l34 -78l-35 -9l11 -26l-33 -76h-59q-4 -22 -32 -36t-68 -14q-41 0 -69.5 14.5t-31.5 35.5h-59l-58 137l34 10l-34 81l37 9l-20 50v83q-71 79 -71 184q0 112 79.5 191t192.5 79q111 0 190.5 -79t79.5 -191zM706 404
q0 85 -60.5 145t-144.5 60q-86 0 -146.5 -60t-60.5 -145q0 -96 73 -156h58l-18 143q-12 -3 -41 -14q-11 -4 -16 15q-6 27 4 41q2 3 5 4q73 23 142 23q65 0 143 -23q11 -3 9 -34q-2 -28 -15 -26q-2 0 -3 1q-16 6 -43 13l-16 -143h58q72 61 72 156zM636 -12l-15 37l-257 -67
l26 -63h221l13 32l-6 12l-77 -19l-15 41zM633 167v29h-266v-55l16 -38zM544 398q-14 2 -42 2q-32 0 -47 -2l16 -150h59zM636 77l-16 37l-257 -65l17 -38zM537 883l-12 -154q-25 3 -50 0l-12 154q22 2 37 2t37 -2zM846 700l-98 -84q-17 20 -36 36l84 98q28 -23 50 -50z
M288 652q-21 -16 -36 -36l-98 84q23 27 50 50zM174 379l-128 -11q-3 36 0 71l128 -10v-50zM954 368l-128 11q2 25 0 50l128 10q3 -36 0 -71zM504 425l1 4q-1 -1 -2 -3q0 -2 1 -1zM496 427l1 2h-1l-1 -2h-1l1 2h-1l-1 -2q-1 -1 0 -2q1 1 3 2zM489 425h2v1h-1l2 5h-1l-2 -5
q-1 -1 0 -1zM499 426l-1 2l2 1q-1 2 -2 0q-2 -3 -1 -4q0 -1 2 1zM509 429q-3 1 -3 0v-2q1 -1 1 -1.5t-2 -0.5q4 -1 2 2v1.5t2 0.5zM507 423q6 4 3 9q0 -4 -3 -9zM503 432q-6 -4 -3 -9q0 5 3 9z" />
    <glyph glyph-name="s_t" unicode="&#xfb06;" horiz-adv-x="737" 
d="M667 83l3 -62q-68 -30 -120 -30q-54 0 -80 21t-26 66q0 26 6 58l57 289h-72l15 73h71l5 26q12 59 -6 85.5t-64 26.5q-49 0 -78.5 -31.5t-29.5 -75.5q0 -35 31 -53l-23 -56q-48 15 -93 15q-43 0 -70 -19.5t-27 -55.5q0 -22 19.5 -38t47 -27.5t54.5 -25.5t46.5 -41
t19.5 -65q0 -77 -58.5 -124.5t-155.5 -47.5q-85 0 -148 38l19 55q69 -19 119 -19q52 0 82 21.5t30 60.5q0 24 -19 40.5t-46 28.5t-54.5 25.5t-46.5 39.5t-19 63q0 68 50 115.5t144 47.5l44 -4q-20 15 -20 51q0 61 52.5 108t147.5 47q191 0 155 -184l-5 -27h123l-14 -73h-123
l-53 -270q-7 -31 -7 -49q0 -37 44 -37q30 0 73 14z" />
    <glyph glyph-name="uniFEFF" unicode="&#xfeff;" horiz-adv-x="0" 
 />
    <glyph glyph-name="u1F137" unicode="&#x1f137;" horiz-adv-x="1100" 
d="M732 55h-106l49 253h-242l-50 -253h-106l110 569h107l-45 -228h242l45 228h106zM937 -127h-924l181 930h924zM867 -56l154 788h-758l-154 -788h758z" />
    <glyph glyph-name="u1F13F" unicode="&#x1f13f;" horiz-adv-x="1100" 
d="M804 487q0 -31 -6.5 -60t-25.5 -62t-49 -57t-81.5 -40t-118.5 -16h-55l-38 -197h-104l110 569q27 0 84.5 0.5t86.5 0.5q106 0 151.5 -35.5t45.5 -102.5zM692 475q0 39 -23 57t-84 18h-59l-43 -222h51q38 0 66.5 9.5t45.5 24t28 35t14.5 39t3.5 39.5zM937 -127h-924
l181 930h924zM867 -56l154 788h-758l-154 -788h758z" />
    <glyph glyph-name="u1F177" unicode="&#x1f177;" horiz-adv-x="1100" 
d="M631 55h106l110 569h-106l-45 -228h-242l45 228h-107l-110 -569h106l50 253h242zM922 -115h-890l176 906h890z" />
    <glyph glyph-name="u1F17F" unicode="&#x1f17f;" horiz-adv-x="1100" 
d="M922 -115h-890l176 906h890zM820 487q0 67 -46 102.5t-152 35.5q-29 0 -86 -0.5t-84 -0.5l-110 -569h104l38 197h54q67 0 118.5 16t81.5 40t49.5 57t26 62t6.5 60zM708 475q0 -59 -35.5 -103t-122.5 -44h-51l43 222h59q61 0 84 -18.5t23 -56.5z" />
    <glyph glyph-name="U1F6C8" unicode="&#x1f6c8;" horiz-adv-x="1100" 
d="M1066 471q0 -120 -42 -249.5t-131 -218.5q-156 -156 -421 -156q-210 0 -309 97.5t-99 260.5q0 120 42 249.5t131 218.5q156 156 421 156q210 0 309 -97.5t99 -260.5zM982 469q0 289 -337 289q-216 0 -345 -129q-58 -58 -94.5 -144.5t-47 -152t-10.5 -125.5
q0 -289 337 -289q216 0 345 129q58 58 94.5 144.5t47 152t10.5 125.5zM675 68h-330l14 73h119l46 234h-111l14 73h218l-59 -307h103zM605 518q-35 0 -49 8t-14 28q0 16 6 39t14 32q16 16 60 16q34 0 48.5 -8t14.5 -28q0 -15 -6.5 -38.5t-14.5 -32.5q-16 -16 -59 -16z" />
    <glyph glyph-name="L_a_t_n_C_a_p_s" horiz-adv-x="935" 
d="M212 500h-160v337h54v-295h106v-42zM436 500h-40l-4 26q-38 -31 -77 -31q-75 0 -75 69q0 40 31.5 62.5t95.5 22.5h18v23q0 44 -52 44q-28 0 -73 -15l-7 32q47 20 94 20q89 0 89 -75v-178zM385 557v59h-21q-73 0 -73 -45q0 -39 38 -39q26 0 56 25zM628 541l5 -30
q-31 -16 -59 -16q-33 0 -46.5 15t-13.5 52v150h-36v37h37q7 31 13 71h37v-71h61v-37h-61v-138q0 -23 5.5 -31.5t20.5 -8.5q13 0 37 7zM879 500h-52q0 26 1 72t1 60q0 45 -10 62.5t-31 17.5q-24 0 -54 -25v-187h-52v249h42l4 -28q36 33 77 33q76 0 76 -112q0 -14 -1 -64
t-1 -78zM199 73l23 -27q-38 -51 -100 -51q-122 0 -122 168q0 84 34 131.5t92 47.5q61 0 90 -55l-26 -23q-22 35 -58 35q-37 0 -56 -36t-19 -91q0 -133 75 -133q36 0 67 34zM448 0h-40l-4 26q-38 -31 -77 -31q-75 0 -75 69q0 40 31.5 62.5t95.5 22.5h18v23q0 44 -52 44
q-28 0 -73 -15l-7 32q47 20 94 20q89 0 89 -75v-178zM397 57v59h-21q-73 0 -73 -45q0 -39 38 -39q26 0 56 25zM574 -87h-51v336h41l5 -27q37 32 71 32q40 0 63 -33.5t23 -86.5q0 -70 -33.5 -104.5t-88.5 -34.5q-20 0 -30 2v-84zM574 189v-151q12 -5 34 -5q29 0 47 23.5
t18 69.5q0 41 -13 64.5t-35 23.5q-21 0 -51 -25zM765 14l5 28q37 -10 62 -10q48 0 48 35q0 17 -18 28t-39 17t-39 23.5t-18 46.5q0 32 24 51.5t63 19.5q33 0 64 -15l-7 -28q-27 7 -48 7q-42 0 -42 -31q0 -17 18 -28t39.5 -17t39.5 -23.5t18 -46.5q0 -34 -25.5 -55t-69.5 -21
q-37 0 -75 19z" />
    <glyph glyph-name="IJ.alt1" horiz-adv-x="555" 
d="M141 0h-108l131 675h108zM553 675l-87 -445q-28 -148 -150 -240l-61 47q45 41 68 86t36 112l86 440h108z" />
    <glyph glyph-name="IJ.alt2" horiz-adv-x="556" 
d="M141 0h-108l131 675h108zM553 675l-116 -599q-23 -119 -84.5 -180.5t-197.5 -75.5l-6 66q88 19 125.5 61.5t54.5 132.5l116 595h108z" />
    <glyph glyph-name="J.alt1" horiz-adv-x="281" 
d="M279 675l-87 -445q-28 -148 -150 -240l-61 47q45 41 68 86t36 112l86 440h108z" />
    <glyph glyph-name="J.alt2" horiz-adv-x="281" 
d="M279 675l-116 -599q-23 -119 -84.5 -180.5t-197.5 -75.5l-6 66q88 19 125.5 61.5t54.5 132.5l116 595h108z" />
    <glyph glyph-name="Jcircumflex.alt2" horiz-adv-x="281" 
d="M279 675l-116 -599q-23 -119 -84.5 -180.5t-197.5 -75.5l-6 66q88 19 125.5 61.5t54.5 132.5l116 595h108zM256 856l134 -88l-35 -45l-109 57l-133 -57l-20 45z" />
    <glyph glyph-name="Jcircumflex.alt1" horiz-adv-x="281" 
d="M279 675l-87 -445q-28 -148 -150 -240l-61 47q45 41 68 86t36 112l86 440h108zM255 856l134 -88l-35 -45l-109 57l-133 -57l-20 45z" />
    <glyph glyph-name="L_a_t_n_L_o_w_e_r" horiz-adv-x="1215" 
d="M407 129q0 -67 -30.5 -100.5t-85.5 -33.5q-105 0 -105 125q0 67 30.5 100.5t84.5 33.5q106 0 106 -125zM734 249h50q-17 -115 -67 -249h-59l-42 154l-8 34l-6 -34l-37 -154h-61l-69 249h55l39 -148l10 -44l8 38l36 154h58l43 -158l8 -33q34 118 42 191zM564 500h-40
l-4 26q-38 -31 -77 -31q-75 0 -75 69q0 40 31.5 62.5t95.5 22.5h18v23q0 44 -52 44q-28 0 -73 -15l-7 32q47 20 93 20q90 0 90 -75v-178zM1020 116h-148v-4q0 -77 62 -77q35 0 77 14l9 -29q-47 -25 -97 -25q-104 0 -104 122q0 66 28.5 101.5t79.5 35.5q101 0 93 -138z
M1006 500h-51q0 26 1 72t1 60q0 45 -10.5 62.5t-31.5 17.5q-23 0 -53 -25v-187h-52v249h42l4 -28q36 33 77 33q75 0 75 -112q0 -14 -1 -64t-1 -78zM340 500h-161v337h54v-295h107v-42zM160 0h-160v337h54v-295h106v-42zM756 541l5 -30q-32 -16 -59 -16q-34 0 -47 15t-13 52
v150h-36v37h37q7 31 13 71h37v-71h61v-37h-61v-138q0 -23 5.5 -31.5t20.5 -8.5q13 0 37 7zM353 118q0 54 -13.5 75.5t-43.5 21.5q-57 0 -57 -84q0 -54 14 -76t43 -22q57 0 57 85zM1215 248l-6 -46q-15 3 -21 3q-19 0 -53 -41v-164h-51v249h42l5 -42q35 46 62 46q12 0 22 -5z
M513 557v59h-21q-74 0 -74 -45q0 -39 39 -39q26 0 56 25zM872 149h98v1q0 68 -46 68q-24 0 -37 -19t-15 -50z" />
    <glyph glyph-name="c_h" horiz-adv-x="940" 
d="M815 0h-102q12 64 26.5 132.5t22 102.5t12.5 65.5t5 51.5q0 73 -55 73q-46 0 -92.5 -64.5t-66.5 -165.5l-38 -195h-103l125 640q-21 5 -51 5q-46 0 -75 -20t-37.5 -42.5t-8.5 -46.5q0 -40 39 -79l-43 -58q-31 31 -80 31q-38 0 -69 -28t-48 -70t-26 -85t-9 -79
q0 -98 81 -98q48 0 108 45l22 -55q-82 -69 -161 -69q-76 0 -116.5 43t-40.5 128q0 51 14 107.5t42 111.5t79.5 90.5t117.5 35.5q20 0 32 -7q-16 20 -16 54q0 27 10.5 53.5t35 53t74 42.5t117.5 16q26 0 57 -2.5t49 -5.5l19 -3l-45 -229q-6 -27 -21 -82q28 47 71.5 79
t92.5 32q120 0 120 -136q0 -35 -8 -79t-27 -132t-33 -161z" />
    <glyph glyph-name="c_k" horiz-adv-x="872" 
d="M808 0h-117l-111 253h-4l-48 -253h-103l124 640q-21 5 -51 5q-46 0 -75 -20t-37.5 -42.5t-8.5 -46.5q0 -40 39 -79l-43 -58q-31 31 -80 31q-38 0 -69 -28t-48 -70t-26 -85t-9 -79q0 -98 81 -98q48 0 108 45l22 -55q-82 -69 -161 -69q-76 0 -116.5 43t-40.5 128
q0 51 14 107.5t42 111.5t79.5 90.5t117.5 35.5q20 0 32 -7q-16 20 -16 54q0 27 10.5 53.5t35 53t74 42.5t117.5 16q26 0 57 -2.5t49 -5.5l19 -3l-81 -414h3l176 204h126l-210 -218z" />
    <glyph glyph-name="c_t" horiz-adv-x="762" 
d="M759 425h-123l-53 -270q-6 -33 -6 -49q0 -37 42 -37q31 0 73 14l5 -61q-68 -31 -122 -31t-79.5 21t-25.5 66q0 26 6 58l57 289h-72l14 73h72l5 25q12 59 -5.5 86t-63.5 27q-48 0 -77 -29t-29 -73q0 -39 38 -77l-41 -58q-35 31 -78 31q-41 0 -73 -28.5t-48.5 -71.5
t-25 -84.5t-8.5 -77.5q0 -98 82 -98q58 0 116 48l27 -54q-82 -73 -173 -73q-159 0 -159 171q0 33 6 70t18.5 76.5t33.5 74.5t48 63t65.5 44.5t83.5 16.5q19 0 30 -7q-17 18 -17 52q0 65 52.5 111t150.5 46q184 0 150 -182l-5 -29h123z" />
    <glyph glyph-name="ccedilla_t" horiz-adv-x="762" 
d="M759 425h-123l-53 -270q-6 -33 -6 -49q0 -37 42 -37q31 0 73 14l5 -61q-68 -31 -122 -31t-79.5 21t-25.5 66q0 26 6 58l57 289h-72l14 73h72l5 25q12 59 -5.5 86t-63.5 27q-48 0 -77 -29t-29 -73q0 -39 38 -77l-41 -58q-35 31 -78 31q-41 0 -73 -28.5t-48.5 -71.5
t-25 -84.5t-8.5 -77.5q0 -98 82 -98q58 0 116 48l27 -54q-82 -73 -173 -73q-159 0 -159 171q0 33 6 70t18.5 76.5t33.5 74.5t48 63t65.5 44.5t83.5 16.5q19 0 30 -7q-17 18 -17 52q0 65 52.5 111t150.5 46q184 0 150 -182l-5 -29h123zM127 -43h89q0 -83 -97 -138l-55 27
q35 29 48.5 52.5t14.5 58.5z" />
    <glyph glyph-name="i.dotaccent" horiz-adv-x="253" 
d="M128 0h-103l96 498h103zM191 580q-31 0 -44 7t-13 26q0 14 5.5 35t13.5 29q15 15 54 15q32 0 45 -7.5t13 -26.5q0 -14 -5.5 -34.5t-13.5 -28.5q-14 -15 -55 -15z" />
    <glyph glyph-name="ij.alt1" horiz-adv-x="541" 
d="M512 498l-93 -480q-22 -112 -82 -155t-156 -43q-78 0 -159 35l20 58q85 -15 143 -15q57 0 86.5 22.5t40.5 76.5l6 30l8 30q8 30 12 43h-1q-27 -45 -70.5 -75.5t-91.5 -30.5q-121 0 -121 136q0 35 7.5 78t26.5 130.5t33 159.5h102q-12 -63 -26.5 -131.5t-21 -101
t-11.5 -64t-5 -51.5q0 -73 55 -73q46 0 92 62t64 155l39 204h103zM194 580q-31 0 -44.5 7.5t-13.5 25.5q0 14 5.5 35t13.5 29q16 15 55 15q31 0 44 -7.5t13 -26.5q0 -14 -5.5 -34.5t-13.5 -28.5q-14 -15 -54 -15zM477 580q-31 0 -44.5 7.5t-13.5 25.5q0 14 5.5 35t13.5 29
q16 15 55 15q31 0 44 -7.5t13 -26.5q0 -14 -5.5 -34.5t-13.5 -28.5q-14 -15 -54 -15z" />
    <glyph glyph-name="i_j" horiz-adv-x="541" 
d="M512 498l-93 -480q-22 -112 -82 -155t-156 -43q-78 0 -159 35l20 58q85 -15 143 -15q57 0 86.5 22.5t40.5 76.5l6 30l8 30q8 30 12 43h-1q-27 -45 -70.5 -75.5t-91.5 -30.5q-121 0 -121 136q0 35 7.5 78t26.5 130.5t33 159.5h102q-12 -63 -26.5 -131.5t-21 -101
t-11.5 -64t-5 -51.5q0 -73 55 -73q46 0 92 62t64 155l39 204h103zM194 580q-31 0 -44.5 7.5t-13.5 25.5q0 14 5.5 35t13.5 29q16 15 55 15q31 0 44 -7.5t13 -26.5q0 -14 -5.5 -34.5t-13.5 -28.5q-14 -15 -54 -15zM477 580q-31 0 -44.5 7.5t-13.5 25.5q0 14 5.5 35t13.5 29
q16 15 55 15q31 0 44 -7.5t13 -26.5q0 -14 -5.5 -34.5t-13.5 -28.5q-14 -15 -54 -15z" />
    <glyph glyph-name="scedilla_t" horiz-adv-x="737" 
d="M667 83l3 -62q-68 -30 -120 -30q-54 0 -80 21t-26 66q0 26 6 58l57 289h-72l15 73h71l5 26q12 59 -6 85.5t-64 26.5q-49 0 -78.5 -31.5t-29.5 -75.5q0 -35 31 -53l-23 -56q-48 15 -93 15q-43 0 -70 -19.5t-27 -55.5q0 -22 19.5 -38t47 -27.5t54.5 -25.5t46.5 -41
t19.5 -65q0 -77 -58.5 -124.5t-155.5 -47.5q-85 0 -148 38l19 55q69 -19 119 -19q52 0 82 21.5t30 60.5q0 24 -19 40.5t-46 28.5t-54.5 25.5t-46.5 39.5t-19 63q0 68 50 115.5t144 47.5l44 -4q-20 15 -20 51q0 61 52.5 108t147.5 47q191 0 155 -184l-5 -27h123l-14 -73h-123
l-53 -270q-7 -31 -7 -49q0 -37 44 -37q30 0 73 14zM87 -43h89q0 -83 -97 -138l-55 27q35 29 48.5 52.5t14.5 58.5z" />
    <glyph glyph-name="scommaaccent_t" horiz-adv-x="737" 
d="M667 83l3 -62q-68 -30 -120 -30q-54 0 -80 21t-26 66q0 26 6 58l57 289h-72l15 73h71l5 26q12 59 -6 85.5t-64 26.5q-49 0 -78.5 -31.5t-29.5 -75.5q0 -35 31 -53l-23 -56q-48 15 -93 15q-43 0 -70 -19.5t-27 -55.5q0 -22 19.5 -38t47 -27.5t54.5 -25.5t46.5 -41
t19.5 -65q0 -77 -58.5 -124.5t-155.5 -47.5q-85 0 -148 38l19 55q69 -19 119 -19q52 0 82 21.5t30 60.5q0 24 -19 40.5t-46 28.5t-54.5 25.5t-46.5 39.5t-19 63q0 68 50 115.5t144 47.5l44 -4q-20 15 -20 51q0 61 52.5 108t147.5 47q191 0 155 -184l-5 -27h123l-14 -73h-123
l-53 -270q-7 -31 -7 -49q0 -37 44 -37q30 0 73 14zM136 -36q42 0 42 -36q0 -41 -36 -68.5t-101 -38.5l-10 35q60 22 60 46q0 2 -1.5 8.5t-1.5 13.5q0 17 13 28.5t35 11.5z" />
    <glyph glyph-name="grave.cap" horiz-adv-x="342" 
d="M381 768l-37 -45l-181 69l55 64z" />
    <glyph glyph-name="acute.cap" horiz-adv-x="342" 
d="M384 787l-199 -64l-26 49l188 84z" />
    <glyph glyph-name="circumflex.cap" horiz-adv-x="417" 
d="M322 856l134 -88l-35 -45l-109 57l-133 -57l-20 45z" />
    <glyph glyph-name="caron.cap" horiz-adv-x="417" 
d="M302 723l-135 89l36 44l109 -57l132 57l20 -46z" />
    <glyph glyph-name="uni0315.cap" horiz-adv-x="232" 
d="M265 737l-91 -177l-53 11l68 183z" />
    <glyph glyph-name="tilde.cap" horiz-adv-x="463" 
d="M461 844l44 -30q-26 -46 -52.5 -66t-65.5 -20q-36 0 -71 26t-49 26q-15 0 -27.5 -10.5t-34.5 -39.5l-43 30q27 45 53.5 65.5t64.5 20.5q36 0 70.5 -26t48.5 -26q15 0 27.5 10.5t34.5 39.5z" />
    <glyph glyph-name="dieresis.cap" horiz-adv-x="428" 
d="M469 795q0 -35 -15 -50q-13 -13 -46 -13q-26 0 -36 7t-10 26q0 34 14 50q13 13 46 13q26 0 36.5 -7t10.5 -26zM267 795q0 -35 -15 -50q-13 -13 -46 -13q-26 0 -36 7t-10 26q0 36 14 50q13 13 46 13q26 0 36.5 -7t10.5 -26z" />
    <glyph glyph-name="dieresis.cap.narrow" horiz-adv-x="373" 
d="M415 795q0 -34 -14 -50q-13 -13 -44 -13q-24 0 -34 7t-10 26q0 34 14 50q13 13 44 13q25 0 34.5 -7t9.5 -26zM262 795q0 -34 -14 -50q-13 -13 -44 -13q-24 0 -34 7t-10 26q0 34 14 50q13 13 44 13q25 0 34.5 -7t9.5 -26z" />
    <glyph glyph-name="dieresis.narrow" horiz-adv-x="387" 
d="M402 654q0 -38 -16 -54q-13 -13 -44 -13q-46 0 -46 33q0 37 17 54q13 13 44 13q24 0 34.5 -7.5t10.5 -25.5zM238 654q0 -39 -17 -54q-12 -13 -44 -13q-24 0 -34.5 7.5t-10.5 25.5q0 39 17 54q13 13 43 13q46 0 46 -33z" />
    <glyph glyph-name="macron.cap" horiz-adv-x="398" 
d="M432 747h-277l13 69h277z" />
    <glyph glyph-name="breve.cap" horiz-adv-x="399" 
d="M391 858h64q-12 -67 -56.5 -103t-106.5 -36q-67 0 -98 37t-17 102h63q-7 -31 9 -50.5t52 -19.5q37 0 61 19.5t29 50.5z" />
    <glyph glyph-name="ring.cap" horiz-adv-x="335" 
d="M252 692q-93 0 -93 63q0 42 31.5 71.5t91.5 29.5q94 0 94 -63q0 -43 -32 -72t-92 -29zM310 788q0 25 -36 25q-49 0 -49 -53q0 -26 35 -26q26 0 38 15.5t12 38.5z" />
    <glyph glyph-name="ring.big" horiz-adv-x="294" 
d="M355 762q0 -50 -32.5 -82t-91.5 -32q-100 0 -100 74q0 49 35 81t91 32q98 0 98 -73zM287 756q0 28 -35 28q-52 0 -52 -56q0 -29 35 -29q52 0 52 57z" />
    <glyph glyph-name="ringacute.cap" horiz-adv-x="330" 
d="M211 846l157 39l16 -41l-164 -28zM249 689q-94 0 -94 52q0 29 29 45t76 16q94 0 94 -52q0 -29 -29 -45t-76 -16zM291 746q0 25 -35 25q-38 0 -38 -27q0 -24 34 -24q39 0 39 26z" />
    <glyph glyph-name="ringacute" horiz-adv-x="355" 
d="M221 777l120 108l67 -40l-140 -95zM221 548q-91 0 -91 66q0 39 31 68.5t89 29.5q92 0 92 -66q0 -39 -30.5 -68.5t-90.5 -29.5zM278 641q0 28 -34 28q-50 0 -50 -51q0 -28 33 -28q27 0 39 15t12 36z" />
    <glyph glyph-name="hungarumlaut.cap" horiz-adv-x="544" 
d="M590 807l-199 -89l-37 35l185 106zM378 818l-184 -101l-39 31l165 117z" />
    <glyph glyph-name="dotaccent.cap" horiz-adv-x="243" 
d="M213 733q-29 0 -40 7t-11 24q0 36 17 53q14 14 54 14q29 0 40 -7t11 -23q0 -38 -16 -54q-14 -14 -55 -14z" />
    <glyph glyph-name="dotaccent.i" horiz-adv-x="246" 
d="M188 580q-31 0 -44.5 7.5t-13.5 25.5q0 14 5.5 35t13.5 29q17 15 55 15q31 0 44 -7.5t13 -26.5q0 -14 -5.5 -34.5t-13.5 -28.5q-14 -15 -54 -15z" />
    <glyph glyph-name="dotaccent.asc" horiz-adv-x="241" 
d="M219 768q-31 0 -42 6.5t-11 21.5q0 39 17 56q14 14 55 14q30 0 41.5 -6.5t11.5 -22.5q0 -39 -17 -56q-13 -13 -55 -13z" />
    <glyph glyph-name="exclamdown.cap" horiz-adv-x="364" 
d="M44 0l119 513h89l-82 -513h-126zM237 682q33 0 46 -8.5t13 -30.5q0 -45 -18 -61q-15 -16 -57 -16q-32 0 -45 9t-13 31q0 43 17 60q16 16 57 16z" />
    <glyph glyph-name="questiondown.cap" 
d="M38 123q0 47 19.5 85t48.5 64.5t59.5 51t56.5 57t34 70.5l14 62h89l-11 -72q-6 -42 -28 -78t-48.5 -61t-53 -48.5t-44 -51t-17.5 -57.5q0 -33 22 -52t65 -19q61 0 125 23l16 -65q-95 -41 -179 -41q-83 0 -125.5 35.5t-42.5 96.5zM341 682q33 0 46 -8.5t13 -30.5
q0 -45 -18 -61q-15 -16 -57 -16q-32 0 -45 9t-13 31q0 43 17 60q16 16 57 16z" />
    <glyph glyph-name="guilsinglleft.cap" horiz-adv-x="305" 
d="M224 168l-72 -22l-91 200l164 195l67 -27l-127 -173z" />
    <glyph glyph-name="guilsinglright.cap" horiz-adv-x="306" 
d="M116 520l71 21l92 -200l-164 -195l-67 28l127 172z" />
    <glyph glyph-name="guillemotleft.cap" horiz-adv-x="506" 
d="M220 168l-70 -22l-91 199l163 196l66 -27l-127 -171zM416 176l-68 -21l-87 190l156 188l63 -26l-117 -164z" />
    <glyph glyph-name="guillemotright.cap" horiz-adv-x="506" 
d="M320 520l69 21l92 -198l-164 -197l-65 27l127 172zM124 512l68 21l87 -190l-156 -188l-64 26l118 164z" />
    <glyph glyph-name="bar.cap" horiz-adv-x="252" 
d="M97 -123h-91l180 926h91z" />
    <glyph glyph-name="brokenbar.cap" horiz-adv-x="252" 
d="M97 -123h-89l72 372h89zM201 415h-89l76 391h89z" />
    <glyph glyph-name="hyphen.cap" horiz-adv-x="235" 
d="M241 300h-205l16 78h205z" />
    <glyph glyph-name="endash.cap" 
d="M465 307h-410l15 75h410z" />
    <glyph glyph-name="emdash.cap" horiz-adv-x="1000" 
d="M870 307h-721l14 75h721z" />
    <glyph glyph-name="uni2015.cap" horiz-adv-x="1000" 
d="M870 307h-721l14 75h721z" />
    <glyph glyph-name="periodcentered.cap" horiz-adv-x="267" 
d="M142 286q-30 0 -42.5 8t-12.5 29q0 19 6 41t14 31q16 15 54 15q31 0 43.5 -8t12.5 -29q0 -19 -6 -41t-15 -31q-15 -15 -54 -15z" />
    <glyph glyph-name="parenleft.cap" horiz-adv-x="310" 
d="M199 -101l-72 -21q-61 130 -61 296q0 152 58.5 308t173.5 294l66 -27q-97 -132 -150.5 -289t-53.5 -307q0 -137 39 -254z" />
    <glyph glyph-name="parenright.cap" horiz-adv-x="310" 
d="M138 755l72 21q61 -127 61 -295q0 -151 -56.5 -306t-174.5 -297l-66 27q100 138 152 292.5t52 302.5q0 135 -40 255z" />
    <glyph glyph-name="bracketleft.cap" horiz-adv-x="357" 
d="M219 -123h-182l177 912h182l-12 -65h-94l-152 -782h94z" />
    <glyph glyph-name="bracketright.cap" horiz-adv-x="357" 
d="M172 -123h-183l13 65h93l153 782h-94l12 65h183z" />
    <glyph glyph-name="braceleft.cap" horiz-adv-x="388" 
d="M237 -123h-45q-68 0 -91 33.5t-11 97.5l41 208q7 40 -3 62t-47 22h-25l15 76h25q65 0 81 81l39 202q25 130 157 130h42l-13 -62h-28q-55 0 -68 -68l-35 -178q-24 -125 -114 -142q82 -20 58 -145l-36 -187q-8 -37 1.5 -52.5t41.5 -15.5h28z" />
    <glyph glyph-name="braceright.cap" horiz-adv-x="388" 
d="M180 789h45q127 0 102 -131l-39 -198q-7 -40 3 -62t46 -22h26l-15 -76h-25q-66 0 -82 -81l-40 -212q-25 -130 -157 -130h-42l12 62h28q56 0 69 68l36 188q13 65 40.5 99t74.5 43q-83 20 -59 145l35 177q8 37 -1.5 52.5t-41.5 15.5h-28z" />
    <glyph glyph-name="at.cap" horiz-adv-x="1007" 
d="M960 520q0 -76 -24.5 -145t-69.5 -124t-116.5 -87.5t-157.5 -32.5h-52l23 98q-35 -47 -79.5 -76.5t-86.5 -29.5q-109 0 -109 124q0 58 18 113t53 101.5t94 74.5t133 28q88 0 156 -21l-104 -336q99 0 163 87.5t64 214.5q0 97 -55.5 146t-185.5 49q-90 0 -167 -29
t-131 -77.5t-92.5 -112.5t-56.5 -135t-18 -144q0 -125 62 -184t209 -59q121 0 257 53l13 -61q-141 -63 -289 -63q-347 0 -347 298q0 113 39.5 217t111 186.5t183 131.5t245.5 49q163 0 240 -67.5t77 -186.5zM395 261q0 -56 46 -56q38 0 83.5 51.5t69.5 128.5l30 95
q-25 7 -61 7q-42 0 -75.5 -21.5t-53 -55.5t-29.5 -72.5t-10 -76.5z" />
    <glyph glyph-name="Euro.fitted" horiz-adv-x="556" 
d="M442 136l34 -54q-94 -92 -207 -92q-103 0 -155 62.5t-45 180.5h-66l13 67h59q7 42 18 79h-62l14 67h68q39 112 116.5 175.5t169.5 63.5q127 0 165 -102l-52 -46q-30 67 -111 67q-61 0 -108 -45t-70 -113h170l-13 -67h-178q-12 -45 -16 -79h178l-12 -67h-172
q-7 -78 23 -119.5t93 -41.5q77 0 146 64z" />
    <glyph glyph-name="dollar.slashed.oldstyle" horiz-adv-x="566" 
d="M145 11q-80 13 -138 52l35 59q45 -27 128 -39l74 215q-67 27 -106 62t-39 95q0 84 67 140.5t189 56.5h13l42 103h60l-32 -110q64 -11 117 -41l-30 -56q-52 20 -112 27l-70 -201q37 -13 60.5 -24.5t50.5 -30.5t40.5 -45.5t13.5 -60.5q0 -89 -73 -149t-208 -60h-13
l-44 -110h-59zM402 191q0 27 -24 45.5t-70 36.5l-67 -194q82 3 121.5 35t39.5 77zM202 475q0 -44 77 -77l63 180q-73 -3 -106.5 -32.5t-33.5 -70.5z" />
    <glyph glyph-name="cent.fitted" horiz-adv-x="458" 
d="M376 226l28 -54q-64 -52 -136 -63l-31 -112h-63l14 110q-68 7 -101 49.5t-33 110.5q0 64 21.5 126.5t74.5 114.5t128 63l29 106h63l-13 -107q59 -10 97 -56l-42 -53q-41 38 -90 38q-73 0 -116.5 -67t-43.5 -151q0 -101 89 -101q62 0 125 46z" />
    <glyph glyph-name="cent.slashed.oldstyle" horiz-adv-x="502" 
d="M420 223l20 -55q-92 -65 -193 -62l-43 -106h-59l32 111q-122 29 -122 162q0 126 78.5 212.5t205.5 87.5l41 102h59l-32 -111q59 -12 96 -51l-39 -52q-39 29 -81 34l-110 -313q71 -7 147 41zM156 287q0 -71 50 -94l105 302q-73 -9 -114 -70.5t-41 -137.5z" />
    <glyph glyph-name="sterling.fitted" horiz-adv-x="447" 
d="M370 0h-389l13 69q65 55 93 108t31 128h-87l14 70h75l-2 24q-1 24 -1 47q0 101 52 169t162 68q82 0 152 -40l-26 -57q-58 19 -104 19q-69 0 -97.5 -43t-28.5 -123q0 -19 1 -40t1 -24h143l-14 -70h-132q-2 -73 -27.5 -124.5t-83.5 -97.5h271z" />
    <glyph glyph-name="florin.fitted" horiz-adv-x="465" 
d="M507 651l-26 -58q-32 15 -64 15q-33 0 -52.5 -19.5t-32.5 -64.5l-43 -147h133l-13 -70h-136l-76 -264q-42 -154 -166 -154q-54 0 -101 32l24 57q28 -15 60 -15q31 0 49.5 20t32.5 65l74 259h-104l13 70h108l44 151q21 77 62 115.5t108 38.5q59 0 106 -31z" />
    <glyph glyph-name="yen.fitted" horiz-adv-x="480" 
d="M424 239h-137l-15 -78h136l-13 -69h-136l-18 -92h-102l17 92h-136l13 69h136l16 78h-137l14 69h136l4 19q-67 146 -121 348h112q36 -161 81 -267q75 89 178 267h110q-148 -223 -257 -348l-4 -19h136z" />
    <glyph glyph-name="H_a_n_g_T_a_b_P_r_o_p" horiz-adv-x="1666" 
d="M528 500h-54v154h-138v-154h-54v337h54v-138h138v138h54v-337zM783 500h-40l-4 26q-38 -31 -77 -31q-75 0 -75 69q0 40 31.5 62.5t95.5 22.5h18v23q0 44 -52 44q-29 0 -72 -15l-8 32q47 20 94 20q89 0 89 -75v-178zM732 557v59h-22q-72 0 -72 -45q0 -39 39 -39
q25 0 55 25zM1054 500h-52q0 26 1 72t1 60q0 45 -10 62.5t-31 17.5q-22 0 -54 -25v-187h-52v249h42l5 -28q36 33 77 33q75 0 75 -112q0 -14 -1 -64t-1 -78zM1317 744v-236q0 -55 -26.5 -76.5t-74.5 -21.5q-38 0 -83 17l4 29q45 -7 74 -7t41.5 11t12.5 39v32q-35 -26 -67 -26
q-39 0 -62 33t-23 83q0 66 35 99.5t90 33.5q35 0 79 -10zM1265 568v142q-15 6 -35 6q-29 0 -46.5 -23t-17.5 -64q0 -40 13 -63t35 -23t51 25zM218 295h-82v-295h-54v295h-82v42h218v-42zM408 0h-40l-4 26q-38 -31 -77 -31q-75 0 -75 69q0 40 31.5 62.5t95.5 22.5h18v23
q0 44 -52 44q-28 0 -73 -15l-7 32q47 20 94 20q89 0 89 -75v-178zM357 57v59h-21q-73 0 -73 -45q0 -39 38 -39q28 0 56 25zM483 4v350h51v-128q35 28 66 28q40 0 63 -34t23 -86q0 -71 -34 -105t-93 -34q-36 0 -76 9zM534 189v-151q13 -5 35 -5q28 0 46 23.5t18 68.5
q0 41 -12.5 65t-34.5 24t-52 -25zM819 0h-54v337q13 0 41 0.5t46 0.5q123 0 123 -104q0 -53 -33.5 -84t-105.5 -31h-17v-119zM819 298v-139h24q75 0 75 70q0 69 -74 69h-25zM1156 248l-6 -46q-15 3 -21 3q-19 0 -53 -41v-164h-51v249h42l5 -42q35 46 62 46q12 0 22 -5z
M1403 129q0 -67 -31 -100.5t-85 -33.5q-105 0 -105 125q0 67 30.5 100.5t84.5 33.5q106 0 106 -125zM1349 118q0 54 -13.5 75.5t-43.5 21.5q-57 0 -57 -84q0 -54 14 -76t44 -22q56 0 56 85zM1514 -87h-52v336h42l4 -27q37 32 72 32q40 0 63 -33.5t23 -86.5
q0 -70 -33.5 -104.5t-88.5 -34.5q-21 0 -30 2v-84zM1514 189v-151q12 -5 34 -5q29 0 47 23.5t18 69.5q0 41 -13 64.5t-35 23.5q-23 0 -51 -25z" />
    <glyph glyph-name="H_a_n_g_P_r_o_p" horiz-adv-x="1035" 
d="M246 500h-54v154h-138v-154h-54v337h54v-138h138v138h54v-337zM501 500h-40l-4 26q-38 -31 -77 -31q-75 0 -75 69q0 40 31.5 62.5t95.5 22.5h18v23q0 44 -52 44q-29 0 -72 -15l-8 32q47 20 94 20q89 0 89 -75v-178zM450 557v59h-22q-72 0 -72 -45q0 -39 39 -39
q25 0 55 25zM772 500h-52q0 26 1 72t1 60q0 45 -10 62.5t-31 17.5q-22 0 -54 -25v-187h-52v249h42l5 -28q36 33 77 33q75 0 75 -112q0 -14 -1 -64t-1 -78zM1035 744v-236q0 -55 -26.5 -76.5t-74.5 -21.5q-38 0 -83 17l4 29q45 -7 74 -7t41.5 11t12.5 39v32q-35 -26 -67 -26
q-39 0 -62 33t-23 83q0 66 35 99.5t90 33.5q35 0 79 -10zM983 568v142q-15 6 -35 6q-29 0 -46.5 -23t-17.5 -64q0 -40 13 -63t35 -23t51 25zM118 0h-54v337q12 0 40 0.5t47 0.5q123 0 123 -104q0 -53 -33.5 -84t-105.5 -31h-17v-119zM118 298v-139h24q75 0 75 70
q0 69 -74 69h-25zM455 248l-6 -46q-15 3 -21 3q-19 0 -53 -41v-164h-51v249h42l5 -42q35 46 62 46q12 0 22 -5zM702 129q0 -67 -31 -100.5t-85 -33.5q-105 0 -105 125q0 67 30.5 100.5t84.5 33.5q106 0 106 -125zM648 118q0 54 -13.5 75.5t-43.5 21.5q-57 0 -57 -84
q0 -54 14 -76t44 -22q56 0 56 85zM813 -87h-52v336h42l4 -27q37 32 72 32q40 0 63 -33.5t23 -86.5q0 -70 -33.5 -104.5t-88.5 -34.5q-21 0 -30 2v-84zM813 189v-151q13 -5 34 -5q29 0 47 23.5t18 69.5q0 41 -13 64.5t-35 23.5q-23 0 -51 -25z" />
    <glyph glyph-name="zero.oldstyle" horiz-adv-x="545" 
d="M515 402q0 -78 -30 -183.5t-86 -162.5q-66 -66 -176 -66q-183 0 -183 178q0 78 31 183.5t87 161.5q66 66 174 66q183 0 183 -177zM237 70q50 0 84 34q40 40 63.5 136t23.5 157q0 104 -90 104q-50 0 -84 -34q-39 -39 -62.5 -135.5t-23.5 -157.5q0 -104 89 -104z" />
    <glyph glyph-name="one.oldstyle" horiz-adv-x="336" 
d="M200 0h-107l90 463l-121 -41l-11 70l179 77h81z" />
    <glyph glyph-name="two.oldstyle" horiz-adv-x="445" 
d="M359 0h-385l15 79q203 153 260.5 214.5t57.5 129.5q0 70 -86 70q-57 0 -126 -22l-4 70q95 37 174 37q74 0 116 -35t42 -101q0 -87 -60.5 -157.5t-238.5 -196.5h252z" />
    <glyph glyph-name="three.oldstyle" horiz-adv-x="440" 
d="M108 -112q-81 0 -159 38l20 63q73 -19 125 -19q39 0 68.5 11.5t46 29t27 40t14 41.5t3.5 38q0 82 -101 82h-59l15 80h59q66 0 97.5 41.5t31.5 90.5q0 71 -87 71q-60 0 -117 -21l-4 70q82 34 161 34q160 0 160 -136q0 -58 -34 -112t-99 -71q44 -7 67.5 -39t23.5 -82
q0 -29 -6.5 -59.5t-24.5 -65.5t-46 -62t-75 -45t-107 -18z" />
    <glyph glyph-name="four.oldstyle" horiz-adv-x="503" 
d="M442 47h-86l-30 -151h-102l29 151h-275l16 82q136 212 311 440h152l-84 -435h86zM270 134l70 357h-2q-155 -205 -251 -357h183z" />
    <glyph glyph-name="five.oldstyle" horiz-adv-x="454" 
d="M126 -112q-78 0 -157 36l19 62q87 -17 124 -17q83 0 124.5 50t41.5 114q0 89 -107 89q-63 0 -123 -14l92 361h289l-18 -89h-205l-46 -181q27 6 72 6q75 0 115.5 -37.5t40.5 -109.5q0 -47 -15 -93t-44.5 -86.5t-82 -65.5t-120.5 -25z" />
    <glyph glyph-name="six.oldstyle" horiz-adv-x="504" 
d="M217 -9q-168 0 -168 183q0 53 12.5 129t47 169t83.5 142q70 70 174 70q77 0 153 -36l-21 -61q-76 18 -126 18q-78 0 -122.5 -57t-74.5 -190q88 45 150 45q68 0 103.5 -36.5t35.5 -100.5q0 -41 -13.5 -85.5t-40.5 -88.5t-77.5 -72.5t-115.5 -28.5zM359 245q0 39 -19.5 58
t-61.5 19q-47 0 -114 -35q-13 -75 -13 -113q0 -105 79 -105q44 0 75 31.5t42.5 69.5t11.5 75z" />
    <glyph glyph-name="seven.oldstyle" horiz-adv-x="428" 
d="M452 489l-177 -284q-90 -146 -225 -317l-66 25l345 567h-266l18 89h387z" />
    <glyph glyph-name="eight.oldstyle" horiz-adv-x="511" 
d="M204 -10q-90 0 -137 37.5t-47 100.5q0 67 39 119t126 98q-84 57 -84 139q0 33 13 66.5t39 64.5t74.5 50.5t111.5 19.5q84 0 128.5 -36t44.5 -95q0 -63 -37.5 -112t-123.5 -93q54 -32 80 -67t26 -81q0 -38 -13 -73.5t-40.5 -67.5t-79 -51t-120.5 -19zM410 542q0 69 -90 69
q-58 0 -87.5 -35t-29.5 -78q0 -58 77 -105q74 39 102 71.5t28 77.5zM352 182q0 64 -101 119q-73 -40 -100.5 -77t-27.5 -81q0 -37 25.5 -57.5t74.5 -20.5q57 0 93 34.5t36 82.5z" />
    <glyph glyph-name="nine.oldstyle" horiz-adv-x="504" 
d="M297 579q168 0 168 -183q0 -104 -37 -236.5t-104 -198.5q-76 -75 -183 -75q-79 0 -161 38l18 60q89 -19 140 -19q76 0 124 57t77 190q-88 -45 -150 -45q-68 0 -103.5 36.5t-35.5 100.5q0 32 7.5 67t26.5 73t46 67.5t70.5 48.5t96.5 19zM154 325q0 -77 82 -77q47 0 114 35
q13 66 13 112q0 106 -79 106q-44 0 -75 -32t-43 -70t-12 -74z" />
    <glyph glyph-name="H_a_n_g_T_a_b" horiz-adv-x="1035" 
d="M246 500h-54v154h-138v-154h-54v337h54v-138h138v138h54v-337zM501 500h-40l-4 26q-38 -31 -77 -31q-75 0 -75 69q0 40 31.5 62.5t95.5 22.5h18v23q0 44 -52 44q-29 0 -72 -15l-8 32q47 20 94 20q89 0 89 -75v-178zM450 557v59h-22q-72 0 -72 -45q0 -39 39 -39
q25 0 55 25zM772 500h-52q0 26 1 72t1 60q0 45 -10 62.5t-31 17.5q-22 0 -54 -25v-187h-52v249h42l5 -28q36 33 77 33q75 0 75 -112q0 -14 -1 -64t-1 -78zM1035 744v-236q0 -55 -26.5 -76.5t-74.5 -21.5q-38 0 -83 17l4 29q45 -7 74 -7t41.5 11t12.5 39v32q-35 -26 -67 -26
q-39 0 -62 33t-23 83q0 66 35 99.5t90 33.5q35 0 79 -10zM983 568v142q-15 6 -35 6q-29 0 -46.5 -23t-17.5 -64q0 -40 13 -63t35 -23t51 25zM370 295h-82v-295h-54v295h-82v42h218v-42zM560 0h-40l-4 26q-38 -31 -77 -31q-75 0 -75 69q0 40 31.5 62.5t95.5 22.5h18v23
q0 44 -52 44q-28 0 -73 -15l-7 32q47 20 94 20q89 0 89 -75v-178zM509 57v59h-21q-73 0 -73 -45q0 -39 38 -39q28 0 56 25zM635 4v350h51v-128q35 28 66 28q40 0 63 -34t23 -86q0 -71 -34 -105t-93 -34q-36 0 -76 9zM686 189v-151q13 -5 35 -5q28 0 46 23.5t18 68.5
q0 41 -12.5 65t-34.5 24t-52 -25z" />
    <glyph glyph-name="zero.OnumTab" 
d="M483 406q0 -78 -32 -189t-86 -165q-63 -62 -166 -62q-88 0 -131 39.5t-43 132.5q0 78 32.5 189t87.5 166q62 62 165 62q88 0 130.5 -40.5t42.5 -132.5zM213 69q47 0 79 31q37 37 61.5 142t24.5 164q0 51 -20.5 72.5t-63.5 21.5q-46 0 -79 -32q-37 -37 -61 -141t-24 -163
q0 -51 20.5 -73t62.5 -22z" />
    <glyph glyph-name="one.OnumTab" 
d="M402 0h-385l17 88h144l74 377l-137 -44l-11 70l191 78h88l-94 -481h129z" />
    <glyph glyph-name="two.OnumTab" 
d="M401 0h-401l14 78q211 149 274 212.5t63 130.5q0 72 -92 72q-65 0 -146 -26l-4 70q106 41 189 41q81 0 125.5 -35.5t44.5 -102.5q0 -84 -63.5 -155.5t-246.5 -196.5h260z" />
    <glyph glyph-name="three.OnumTab" 
d="M144 -112q-90 0 -180 42l19 62q80 -21 149 -21q49 0 84.5 15.5t53 40.5t25 50t7.5 52q0 83 -110 83h-75l15 80h70q72 0 107 41t35 92q0 70 -93 70q-69 0 -146 -25l-3 70q95 38 186 38q87 0 127.5 -35t40.5 -96q0 -64 -36.5 -116.5t-99.5 -72.5q95 -17 95 -123
q0 -31 -7 -62.5t-26.5 -65.5t-48.5 -59.5t-78 -42.5t-111 -17z" />
    <glyph glyph-name="four.OnumTab" 
d="M432 47h-74l-30 -151h-102l29 151h-273l18 87q150 230 307 435h153l-85 -435h74zM272 134l69 349h-2q-106 -138 -248 -349h181z" />
    <glyph glyph-name="five.OnumTab" 
d="M146 -112q-83 0 -181 43l20 61q74 -21 151 -21q48 0 83.5 15t55 40t28.5 53t9 58q0 45 -29.5 65t-91.5 20q-72 0 -143 -16l93 363h319l-17 -89h-235l-48 -182q44 7 85 7q176 0 176 -149q0 -46 -14 -90.5t-44 -85.5t-86.5 -66.5t-130.5 -25.5z" />
    <glyph glyph-name="six.OnumTab" 
d="M211 -9q-78 0 -121 42t-43 142q0 57 12.5 133.5t46.5 167.5t83 139q69 69 174 69q76 0 154 -36l-21 -61q-77 18 -128 18q-74 0 -120.5 -57t-74.5 -189q86 44 145 44q68 0 103.5 -35t35.5 -99q0 -33 -8 -69t-27 -74t-46 -67.5t-70 -48.5t-95 -19zM353 251q0 71 -77 71
q-47 0 -114 -34q-15 -75 -15 -116q0 -103 77 -103q44 0 75 33.5t42.5 72.5t11.5 76z" />
    <glyph glyph-name="seven.OnumTab" 
d="M509 489l-190 -289q-107 -161 -230 -312l-69 29l358 563h-296l17 89h426z" />
    <glyph glyph-name="eight.OnumTab" 
d="M196 -10q-90 0 -135 37.5t-45 100.5q0 67 38.5 119t125.5 98q-83 56 -83 136q0 35 12.5 68.5t38 65t74 51t112.5 19.5q85 0 128 -35.5t43 -95.5q0 -63 -37 -111.5t-123 -92.5q105 -62 105 -143q0 -88 -63 -152.5t-191 -64.5zM402 543q0 68 -88 68q-57 0 -86 -36t-29 -79
q0 -55 75 -103q73 39 100.5 72t27.5 78zM345 182q0 36 -24.5 63t-75.5 57q-72 -41 -99 -78.5t-27 -81.5q0 -77 98 -77q56 0 92 35t36 82z" />
    <glyph glyph-name="nine.OnumTab" 
d="M299 579q164 0 164 -182q0 -106 -36.5 -239t-105.5 -201q-72 -71 -174 -71q-84 0 -166 38l18 60q84 -19 142 -19q74 0 121 58t76 189q-88 -45 -149 -45q-68 0 -102 34.5t-34 98.5q0 31 7.5 65.5t25.5 73t45 69.5t71 51t97 20zM157 319q0 -71 80 -71q46 0 112 35
q14 78 14 115q0 103 -79 103q-45 0 -75.5 -35.5t-41 -74t-10.5 -72.5z" />
    <glyph glyph-name="L_i_n_P_r_o_p" horiz-adv-x="901" 
d="M340 500h-160v337h54v-295h106v-42zM443 818q0 -16 -6 -22t-25 -6t-25 5.5t-6 22.5q0 16 6.5 22t24.5 6q19 0 25 -6t6 -22zM438 500h-52v249h52v-249zM710 500h-52q0 26 1 72t1 60q0 45 -10 62.5t-31 17.5q-23 0 -55 -25v-187h-51v249h42l5 -28q36 33 77 33q74 0 74 -112
q0 -14 -0.5 -64t-0.5 -78zM54 0h-54v337q12 0 40 0.5t47 0.5q123 0 123 -104q0 -53 -33.5 -84t-105.5 -31h-17v-119zM54 298v-139h24q75 0 75 70q0 69 -74 69h-25zM391 248l-6 -46q-15 3 -21 3q-19 0 -53 -41v-164h-51v249h42l5 -42q35 46 62 46q12 0 22 -5zM638 129
q0 -67 -31 -100.5t-85 -33.5q-105 0 -105 125q0 67 30.5 100.5t84.5 33.5q106 0 106 -125zM584 118q0 54 -13.5 75.5t-43.5 21.5q-57 0 -57 -84q0 -54 14 -76t44 -22q56 0 56 85zM749 -87h-52v336h42l4 -27q37 32 72 32q40 0 63 -33.5t23 -86.5q0 -70 -33.5 -104.5
t-88.5 -34.5q-21 0 -30 2v-84zM749 189v-151q13 -5 34 -5q29 0 47 23.5t18 69.5q0 41 -13 64.5t-35 23.5q-23 0 -51 -25z" />
    <glyph glyph-name="zero.LinProp" horiz-adv-x="570" 
d="M368 684q93 0 143 -49.5t50 -145.5q0 -100 -36 -228t-104 -196q-74 -74 -189 -74q-193 0 -193 195q0 99 36.5 228t103.5 196q74 74 189 74zM449 486q0 118 -96 118q-58 0 -97 -41q-46 -46 -76 -173t-30 -201q0 -118 97 -118q58 0 97 41q46 46 75.5 173t29.5 201z" />
    <glyph glyph-name="one.LinProp" horiz-adv-x="338" 
d="M202 0h-109l109 565l-124 -47l-8 74l180 83h83z" />
    <glyph glyph-name="two.LinProp" horiz-adv-x="474" 
d="M376 0h-402l16 87q200 170 276.5 265.5t76.5 167.5q0 75 -88 75q-57 0 -144 -30l-3 75q114 44 187 44q81 0 124 -35.5t43 -104.5q0 -97 -85.5 -207t-261.5 -244h278z" />
    <glyph glyph-name="three.LinProp" horiz-adv-x="457" 
d="M403 237q0 -40 -14 -80t-43.5 -79t-85 -63.5t-128.5 -24.5q-86 0 -163 39l20 65q76 -19 131 -19q88 0 129.5 49t41.5 110q0 83 -107 83h-80l15 79h74q68 0 104 39.5t36 93.5q0 74 -98 74q-65 0 -129 -20l-3 66q88 35 169 35q84 0 129 -34t45 -100q0 -63 -39.5 -116
t-106.5 -70q47 -7 75 -39t28 -88z" />
    <glyph glyph-name="four.LinProp" horiz-adv-x="507" 
d="M467 153h-86l-29 -153h-103l29 153h-280l16 80q122 190 317 442h152l-86 -435h87zM295 240l70 357h-2q-166 -218 -256 -357h188z" />
    <glyph glyph-name="five.LinProp" horiz-adv-x="468" 
d="M422 267q0 -121 -77.5 -198.5t-198.5 -77.5q-80 0 -158 35l20 67q84 -18 124 -18q77 0 128.5 44t51.5 124q0 89 -111 89q-63 0 -132 -16l92 359h298l-17 -89h-215l-47 -179q54 6 76 6q82 0 124 -37.5t42 -108.5z" />
    <glyph glyph-name="six.LinProp" horiz-adv-x="507" 
d="M467 266q0 -42 -14.5 -87.5t-42.5 -88.5t-78 -71t-112 -28q-172 0 -172 182q0 53 13 129.5t48 169t84 141.5q71 71 173 71q75 0 153 -36l-21 -61q-76 18 -127 18q-75 0 -121 -56.5t-75 -190.5q88 45 151 45q66 0 103.5 -36t37.5 -101zM361 244q0 78 -84 78
q-47 0 -113 -35q-15 -65 -15 -114q0 -105 80 -105q45 0 76.5 32t43.5 70t12 74z" />
    <glyph glyph-name="seven.LinProp" horiz-adv-x="436" 
d="M481 595l-183 -285q-130 -201 -225 -319l-69 24l354 571h-274l17 89h395z" />
    <glyph glyph-name="eight.LinProp" horiz-adv-x="518" 
d="M205 -10q-90 0 -138.5 38t-48.5 100q0 67 39 119t126 98q-84 57 -84 136q0 77 60 140.5t181 63.5q87 0 133 -36t46 -95q0 -63 -37.5 -112t-123.5 -93q54 -32 80 -67t26 -81q0 -84 -65 -147.5t-194 -63.5zM414 541q0 70 -89 70q-59 0 -89.5 -35t-30.5 -79q0 -58 77 -105
q75 39 103.5 72t28.5 77zM357 182q0 66 -101 121q-74 -40 -102.5 -78t-28.5 -82q0 -37 26.5 -57.5t74.5 -20.5q57 0 94 34.5t37 82.5z" />
    <glyph glyph-name="nine.LinProp" horiz-adv-x="507" 
d="M72 409q0 40 13.5 84.5t41 88.5t78 73t115.5 29q83 0 126.5 -40.5t43.5 -141.5q0 -104 -35.5 -234.5t-102.5 -197.5q-79 -79 -182 -79q-83 0 -169 39l23 62q77 -21 143 -21q69 0 120 59.5t77 185.5q-86 -44 -154 -44q-64 0 -101 35.5t-37 101.5zM177 431q0 -78 84 -78
q44 0 114 35q12 67 12 115q0 104 -78 104q-36 0 -63 -19t-41 -48.5t-21 -57t-7 -51.5z" />
    </font>
</defs>
</svg>
