<?xml version="1.0" standalone="no"?>
<!DOCTYPE svg PUBLIC "-//W3C//DTD SVG 1.1//EN" "http://www.w3.org/Graphics/SVG/1.1/DTD/svg11.dtd" >
<svg xmlns="http://www.w3.org/2000/svg" xmlns:xlink="http://www.w3.org/1999/xlink" version="1.1">
<metadata>
Created by FontForge 20170731 at Wed Nov  9 19:20:28 2016
 By Aleksey,,,
Copyright (c) Luc[as] de Groot, published by LucasFonts, 2002, 2004, 2007, 2009, 2016. All rights reserved.
</metadata>
<defs>
<font id="FHPSun-ExtraBold" horiz-adv-x="500" >
  <font-face 
    font-family="FHP Sun ExtraBold"
    font-weight="800"
    font-stretch="normal"
    units-per-em="1000"
    panose-1="2 11 8 3 5 3 2 2 2 3"
    ascent="800"
    descent="-200"
    x-height="505"
    cap-height="675"
    bbox="-281 -200 1731 885"
    underline-thickness="116"
    underline-position="-356"
    unicode-range="U+000D-1F6C8"
  />
<missing-glyph horiz-adv-x="550" 
d="M300 150h-150v250h50v-200h100v-50zM500 50h-450v450h450v-450zM350 350h-100v50h150v-250h-50v100h-100v50h100v50zM100 100h350v350h-350v-350z" />
    <glyph glyph-name="f_f" unicode="ff" horiz-adv-x="603" 
d="M634 689l-20 -90q-32 9 -54 9q-24 0 -34 -12t-10 -38v-53h78v-111h-78v-394h-160v394h-133v-394h-160v394h-54v111h54v40q0 82 35 125t115 43q64 0 118 -28l-17 -94q-26 8 -48 8q-23 0 -33 -12t-10 -38v-44h133v49q0 82 35 125t115 43q68 0 128 -33z" />
    <glyph glyph-name="fi" unicode="fi" horiz-adv-x="569" 
d="M516 0h-160v394h-133v-394h-160v394h-54v111h54v50q0 82 34.5 124.5t114.5 42.5q59 0 105 -21l-16 -99q-20 6 -39 6q-39 0 -39 -49v-54h293v-505zM530 630q0 -45 -20 -63t-74 -18q-55 0 -74.5 17t-19.5 64q0 45 20 63t74 18q56 0 75 -17t19 -64z" />
    <glyph glyph-name="fl" unicode="fl" horiz-adv-x="581" 
d="M565 99l6 -93q-43 -16 -108 -16q-56 0 -82.5 23t-26.5 81v506q-32 8 -65 8q-37 0 -51.5 -15t-14.5 -51v-37h66v-111h-66v-394h-160v394h-54v111h54v30q0 95 40 141t147 46q57 0 116 -13h148v-552q0 -38 6 -48t25 -10h20z" />
    <glyph glyph-name="f_f_i" unicode="ffi" horiz-adv-x="862" 
d="M809 0h-160v394h-133v-394h-160v394h-133v-394h-160v394h-54v111h54v40q0 82 35 125t115 43q64 0 118 -28l-17 -94q-26 8 -48 8q-23 0 -33 -12t-10 -38v-44h133v50q0 82 34.5 124.5t114.5 42.5q59 0 105 -21l-16 -99q-20 6 -39 6q-39 0 -39 -49v-54h293v-505zM823 630
q0 -45 -20 -63t-74 -18q-55 0 -74.5 17t-19.5 64q0 45 20 63t74 18q56 0 75 -17t19 -64z" />
    <glyph glyph-name="f_f_l" unicode="ffl" horiz-adv-x="874" 
d="M858 99l6 -93q-43 -16 -108 -16q-56 0 -82.5 23t-26.5 81v506q-32 8 -65 8q-37 0 -51.5 -15t-14.5 -51v-37h66v-111h-66v-394h-160v394h-133v-394h-160v394h-54v111h54v40q0 82 35 125t115 43q64 0 118 -28l-20 -93q-23 7 -45 7q-23 0 -33 -12t-10 -38v-44h133v30
q0 95 40 141t147 46q57 0 116 -13h148v-552q0 -38 6 -48t25 -10h20z" />
    <glyph glyph-name="f_b" unicode="fb" horiz-adv-x="846" 
d="M516 709v-238q57 46 118 46q92 0 138 -69t46 -175q0 -286 -275 -286q-91 0 -187 24v589q-32 8 -67 8q-37 0 -51.5 -15t-14.5 -51v-37h66v-111h-66v-394h-160v394h-54v111h54v30q0 95 40 141t147 46q57 0 118 -13h148zM516 363v-255q22 -8 48 -8q42 0 66.5 38t24.5 116
q0 141 -67 141q-32 0 -72 -32z" />
    <glyph glyph-name="f_f_b" unicode="ffb" horiz-adv-x="1140" 
d="M809 709v-238q57 46 118 46q92 0 138 -69t46 -175q0 -286 -275 -286q-89 0 -187 24v589q-32 8 -67 8q-37 0 -51.5 -15t-14.5 -51v-37h66v-111h-66v-394h-160v394h-133v-394h-160v394h-54v111h54v40q0 82 35 125t115 43q64 0 118 -28l-17 -94q-26 8 -48 8q-23 0 -33 -12
t-10 -38v-44h133v30q0 95 40 141t147 46q57 0 118 -13h148zM809 363v-255q22 -8 49 -8q42 0 66 38t24 116q0 141 -67 141q-32 0 -72 -32z" />
    <glyph glyph-name="f_h" unicode="fh" horiz-adv-x="853" 
d="M516 709v-241q60 49 130 49q82 0 120 -54t38 -177q0 -22 -2 -121.5t-2 -164.5h-160q0 60 1.5 150.5t1.5 110.5q0 79 -11.5 104t-39.5 25q-31 0 -76 -30v-360h-160v600q-32 8 -67 8q-37 0 -51.5 -15t-14.5 -51v-37h66v-111h-66v-394h-160v394h-54v111h54v30q0 95 40 141
t147 46q57 0 118 -13h148z" />
    <glyph glyph-name="f_f_h" unicode="ffh" horiz-adv-x="1146" 
d="M809 709v-241q60 49 130 49q82 0 120 -54t38 -177q0 -22 -2 -121.5t-2 -164.5h-160q0 60 1.5 150.5t1.5 110.5q0 79 -11.5 104t-39.5 25q-31 0 -76 -30v-360h-160v600q-32 8 -67 8q-37 0 -51.5 -15t-14.5 -51v-37h66v-111h-66v-394h-160v394h-133v-394h-160v394h-54v111
h54v40q0 82 35 125t115 43q64 0 118 -28l-17 -94q-26 8 -48 8q-23 0 -33 -12t-10 -38v-44h133v30q0 95 40 141t147 46q57 0 118 -13h148z" />
    <glyph glyph-name="f_igrave" unicode="f&#xec;" horiz-adv-x="569" 
d="M516 0h-160v394h-133v-394h-160v394h-54v111h54v55q0 80 31.5 121t103.5 41q46 0 91 -18l-9 -100q-14 4 -27 4q-30 0 -30 -42v-61h293v-505zM441 729l75 -162l-90 -22l-110 152z" />
    <glyph glyph-name="f_iacute" unicode="f&#xed;" horiz-adv-x="569" 
d="M516 0h-160v394h-133v-394h-160v394h-54v111h54v50q0 82 34.5 124.5t114.5 42.5q59 0 105 -21l-16 -99q-20 6 -39 6q-39 0 -39 -49v-54h293v-505zM593 672l-162 -121l-81 41l133 137z" />
    <glyph glyph-name="f_icircumflex" unicode="f&#xee;" horiz-adv-x="569" 
d="M578 604l-51 -59l-92 72l-93 -72l-49 58l146 133zM516 0h-160v394h-133v-394h-160v394h-54v111h54v55q0 80 31.5 121t103.5 41q46 0 91 -18l-13 -100q-12 4 -24 4q-29 0 -29 -42v-61h293v-505z" />
    <glyph glyph-name="f_itilde" unicode="f&#x129;" horiz-adv-x="569" 
d="M530 682l55 -45q-39 -87 -111 -87q-33 0 -61 19t-35 19q-19 0 -43 -38l-54 45q38 87 111 87q32 0 60 -19t36 -19q18 0 42 38zM516 0h-160v394h-133v-394h-160v394h-54v111h54v55q0 162 130 162q51 0 89 -17l-9 -100q-11 3 -20 3q-30 0 -30 -42v-61h293v-505z" />
    <glyph glyph-name="f_idieresis" unicode="f&#xef;" horiz-adv-x="569" 
d="M597 631q0 -37 -14.5 -53t-52.5 -16t-52.5 15t-14.5 54t14.5 55t52.5 16t52.5 -15.5t14.5 -55.5zM436 631q0 -37 -14.5 -53t-52.5 -16t-52.5 15t-14.5 54t14.5 55t52.5 16t52.5 -15.5t14.5 -55.5zM516 0h-160v394h-133v-394h-160v394h-54v111h54v55q0 162 130 162
q51 0 89 -17l-9 -100q-11 3 -20 3q-30 0 -30 -42v-61h293v-505z" />
    <glyph glyph-name="f_imacron" unicode="f&#x12b;" horiz-adv-x="569" 
d="M572 578h-269v109h269v-109zM516 0h-160v394h-133v-394h-160v394h-54v111h54v55q0 162 130 162q51 0 89 -17l-9 -100q-11 3 -20 3q-30 0 -30 -42v-61h293v-505z" />
    <glyph glyph-name="f_ibreve" unicode="f&#x12d;" horiz-adv-x="569" 
d="M492 697h86q0 -77 -36.5 -116.5t-102.5 -39.5q-136 0 -136 156h86q0 -35 12 -49t38 -14q28 0 40.5 14t12.5 49zM516 0h-160v394h-133v-394h-160v394h-54v111h54v55q0 162 130 162q51 0 89 -17l-9 -100q-11 3 -20 3q-30 0 -30 -42v-61h293v-505z" />
    <glyph glyph-name="f_iogonek" unicode="f&#x12f;" horiz-adv-x="569" 
d="M516 505v-505q-43 -6 -65.5 -28.5t-22.5 -49.5q0 -23 28 -23q20 0 40 11l20 -68q-50 -27 -106 -27q-107 0 -107 77q0 55 53 108v394h-133v-394h-160v394h-54v111h54v50q0 82 34.5 124.5t114.5 42.5q59 0 105 -21l-16 -99q-20 6 -39 6q-39 0 -39 -49v-54h293zM530 631
q0 -45 -19.5 -63.5t-74.5 -18.5q-56 0 -75 18t-19 64q0 44 20 62t74 18q56 0 75 -16.5t19 -63.5z" />
    <glyph glyph-name="f_dotlessi" unicode="f&#x131;" horiz-adv-x="569" 
d="M516 0h-160v394h-133v-394h-160v394h-54v111h54v50q0 82 34.5 124.5t114.5 42.5q59 0 105 -21l-16 -99q-20 6 -39 6q-39 0 -39 -49v-54h293v-505z" />
    <glyph glyph-name="f_f_igrave" unicode="ff&#xec;" horiz-adv-x="862" 
d="M809 567l-90 -22l-110 152l125 32zM809 0h-160v394h-133v-394h-160v394h-133v-394h-160v394h-54v111h54v40q0 82 35 125t115 43q64 0 118 -28l-17 -94q-26 8 -48 8q-23 0 -33 -12t-10 -38v-44h133v55q0 80 31.5 121t103.5 41q46 0 91 -18l-9 -100q-14 4 -27 4
q-30 0 -30 -42v-61h293v-505z" />
    <glyph glyph-name="f_f_iacute" unicode="ff&#xed;" horiz-adv-x="862" 
d="M809 0h-160v394h-133v-394h-160v394h-133v-394h-160v394h-54v111h54v40q0 82 35 125t115 43q64 0 118 -28l-17 -94q-26 8 -48 8q-23 0 -33 -12t-10 -38v-44h133v50q0 82 34.5 124.5t114.5 42.5q59 0 105 -21l-16 -99q-20 6 -39 6q-39 0 -39 -49v-54h293v-505zM886 672
l-162 -121l-81 41l133 137z" />
    <glyph glyph-name="f_f_icircumflex" unicode="ff&#xee;" horiz-adv-x="862" 
d="M872 604l-52 -59l-92 72l-93 -72l-49 58l146 133zM809 0h-160v394h-133v-394h-160v394h-133v-394h-160v394h-54v111h54v40q0 82 35 125t115 43q64 0 118 -28l-17 -94q-26 8 -48 8q-23 0 -33 -12t-10 -38v-44h133v55q0 80 31.5 121t103.5 41q46 0 91 -18l-13 -100
q-12 4 -24 4q-29 0 -29 -42v-61h293v-505z" />
    <glyph glyph-name="f_f_itilde" unicode="ff&#x129;" horiz-adv-x="862" 
d="M823 682l55 -45q-38 -87 -111 -87q-33 0 -61 19t-35 19q-11 0 -19.5 -8t-23.5 -30l-54 45q38 87 111 87q33 0 60.5 -19t35.5 -19q18 0 42 38zM809 0h-160v394h-133v-394h-160v394h-133v-394h-160v394h-54v111h54v40q0 82 35 125t115 43q65 0 118 -28l-17 -94q-26 8 -48 8
q-23 0 -33 -12t-10 -38v-44h133v55q0 162 131 162q50 0 88 -17l-9 -100q-11 3 -20 3q-30 0 -30 -42v-61h293v-505z" />
    <glyph glyph-name="f_f_idieresis" unicode="ff&#xef;" horiz-adv-x="862" 
d="M890 631q0 -37 -14.5 -53t-52.5 -16t-52.5 15t-14.5 54t14.5 55t52.5 16t52.5 -15.5t14.5 -55.5zM729 631q0 -38 -14.5 -53.5t-52.5 -15.5q-37 0 -52 15.5t-15 53.5q0 39 15 55t52 16q39 0 53 -15.5t14 -55.5zM809 0h-160v394h-133v-394h-160v394h-133v-394h-160v394h-54
v111h54v40q0 82 35 125t115 43q64 0 118 -28l-17 -94q-26 8 -48 8q-23 0 -33 -12t-10 -38v-44h133v55q0 162 131 162q50 0 88 -17l-9 -100q-11 3 -20 3q-30 0 -30 -42v-61h293v-505z" />
    <glyph glyph-name="f_f_imacron" unicode="ff&#x12b;" horiz-adv-x="862" 
d="M865 578h-269v109h269v-109zM809 0h-160v394h-133v-394h-160v394h-133v-394h-160v394h-54v111h54v40q0 82 35 125t115 43q64 0 118 -28l-17 -94q-26 8 -48 8q-23 0 -33 -12t-10 -38v-44h133v55q0 162 131 162q50 0 88 -17l-9 -100q-11 3 -20 3q-30 0 -30 -42v-61h293
v-505z" />
    <glyph glyph-name="f_f_ibreve" unicode="ff&#x12d;" horiz-adv-x="862" 
d="M785 697h86q0 -77 -36.5 -116.5t-102.5 -39.5q-136 0 -136 156h86q0 -35 12 -49t38 -14q28 0 40.5 14t12.5 49zM809 0h-160v394h-133v-394h-160v394h-133v-394h-160v394h-54v111h54v40q0 82 35 125t115 43q64 0 118 -28l-17 -94q-26 8 -48 8q-23 0 -33 -12t-10 -38v-44
h133v55q0 162 131 162q50 0 88 -17l-9 -100q-11 3 -20 3q-30 0 -30 -42v-61h293v-505z" />
    <glyph glyph-name="f_f_iogonek" unicode="ff&#x12f;" horiz-adv-x="862" 
d="M809 505v-505q-43 -6 -65 -28.5t-22 -49.5q0 -23 27 -23q20 0 40 11l20 -68q-49 -27 -106 -27q-107 0 -107 77q0 55 53 108v394h-133v-394h-160v394h-133v-394h-160v394h-54v111h54v40q0 82 35 125t115 43q64 0 118 -28l-17 -94q-26 8 -48 8q-23 0 -33 -12t-10 -38v-44
h133v50q0 82 34.5 124.5t114.5 42.5q59 0 105 -21l-16 -99q-20 6 -39 6q-39 0 -39 -49v-54h293zM823 630q0 -45 -20 -63t-74 -18q-55 0 -74.5 17t-19.5 64q0 45 20 63t74 18q56 0 75 -17t19 -64z" />
    <glyph glyph-name="f_f_dotlessi" unicode="ff&#x131;" horiz-adv-x="862" 
d="M809 0h-160v394h-133v-394h-160v394h-133v-394h-160v394h-54v111h54v40q0 82 35 125t115 43q64 0 118 -28l-17 -94q-26 8 -48 8q-23 0 -33 -12t-10 -38v-44h133v50q0 82 34.5 124.5t114.5 42.5q59 0 105 -21l-16 -99q-20 6 -39 6q-39 0 -39 -49v-54h293v-505z" />
    <glyph glyph-name="f_ij" unicode="f&#x133;" horiz-adv-x="851" 
d="M798 505v-484q0 -206 -228 -206q-84 0 -192 48l11 87q104 -17 162 -17q47 0 67 15t20 52v11q0 22 4 36q-60 -50 -134 -50q-81 0 -119.5 54t-38.5 173q0 26 1 87t1 83h-129v-394h-160v394h-54v111h54v50q0 82 34.5 124.5t114.5 42.5q59 0 105 -21l-16 -99q-20 6 -39 6
q-39 0 -39 -49v-54h291q0 -61 -1.5 -150t-1.5 -108q0 -79 11.5 -103.5t39.5 -24.5q31 0 76 30v356h160zM531 630q0 -45 -20 -63t-74 -18q-55 0 -74.5 17t-19.5 64q0 45 20 63t74 18q55 0 74.5 -17t19.5 -64zM809 630q0 -45 -19.5 -63t-73.5 -18q-56 0 -75.5 17t-19.5 64
q0 45 20 63t75 18t74 -17t19 -64z" />
    <glyph glyph-name="f_j" unicode="fj" horiz-adv-x="569" 
d="M516 505v-456q0 -73 -27.5 -128t-89.5 -106l-106 45q63 81 63 162v372h-133v-394h-160v394h-54v111h54v50q0 82 34.5 124.5t114.5 42.5q59 0 105 -21l-16 -99q-20 6 -39 6q-39 0 -39 -49v-54h293zM530 630q0 -45 -20 -63t-74 -18q-55 0 -74.5 17t-19.5 64q0 45 20 63
t74 18q56 0 75 -17t19 -64z" />
    <glyph glyph-name="f_jcircumflex" unicode="f&#x135;" horiz-adv-x="569" 
d="M578 604l-51 -59l-92 72l-93 -72l-49 58l146 133zM516 505v-456q0 -73 -27.5 -128t-89.5 -106l-106 45q63 81 63 162v372h-133v-394h-160v394h-54v111h54v55q0 80 31.5 121t103.5 41q46 0 91 -18l-13 -100q-12 4 -24 4q-29 0 -29 -42v-61h293z" />
    <glyph glyph-name="f_f_j" unicode="ffj" horiz-adv-x="862" 
d="M809 505v-456q0 -73 -27.5 -128t-88.5 -106l-107 45q63 81 63 162v372h-133v-394h-160v394h-133v-394h-160v394h-54v111h54v40q0 82 35 125t115 43q64 0 118 -28l-17 -94q-26 8 -48 8q-23 0 -33 -12t-10 -38v-44h133v50q0 82 34.5 124.5t114.5 42.5q59 0 105 -21l-16 -99
q-20 6 -39 6q-39 0 -39 -49v-54h293zM823 630q0 -45 -20 -63t-74 -18q-55 0 -74.5 17t-19.5 64q0 45 20 63t74 18q56 0 75 -17t19 -64z" />
    <glyph glyph-name="f_k" unicode="fk" horiz-adv-x="814" 
d="M809 0h-185l-102 239h-6v-239h-160v600q-32 8 -67 8q-37 0 -51.5 -15t-14.5 -51v-37h66v-111h-66v-394h-160v394h-54v111h54v30q0 95 40 141t147 46q57 0 118 -13h148v-404h6l93 200h182l-130 -216z" />
    <glyph glyph-name="f_kcommaaccent" unicode="f&#x137;" horiz-adv-x="814" 
d="M809 0h-185l-102 239h-6v-239h-160v600q-32 8 -67 8q-37 0 -51.5 -15t-14.5 -51v-37h66v-111h-66v-394h-160v394h-54v111h54v30q0 95 40 141t147 46q57 0 118 -13h148v-404h6l93 200h182l-130 -216zM564 -31q28 0 45 -16t17 -43q0 -96 -164 -93l-17 50q60 9 60 33
q0 3 -2.5 9.5t-2.5 14.5q0 19 17 32t47 13z" />
    <glyph glyph-name="f_f_k" unicode="ffk" horiz-adv-x="1107" 
d="M1102 0h-185l-102 239h-6v-239h-160v600q-32 8 -67 8q-37 0 -51.5 -15t-14.5 -51v-37h66v-111h-66v-394h-160v394h-133v-394h-160v394h-54v111h54v40q0 82 35 125t115 43q64 0 118 -28l-17 -94q-26 8 -48 8q-23 0 -33 -12t-10 -38v-44h133v30q0 95 40 141t147 46
q57 0 118 -13h148v-404h6l93 200h182l-130 -216z" />
    <glyph glyph-name="f_lacute" unicode="f&#x13a;" horiz-adv-x="581" 
d="M565 99l6 -93q-43 -16 -108 -16q-56 0 -82.5 23t-26.5 81v506q-32 8 -65 8q-37 0 -51.5 -15t-14.5 -51v-37h66v-111h-66v-394h-160v394h-54v111h54v30q0 95 40 141t147 46q57 0 116 -13h148v-552q0 -38 6 -48t25 -10h20zM353 796l189 81l71 -92l-211 -56z" />
    <glyph glyph-name="f_lcaron" unicode="f&#x13e;" horiz-adv-x="655" 
d="M565 99l6 -93q-43 -16 -108 -16q-56 0 -82.5 23t-26.5 81v506q-32 8 -65 8q-37 0 -51.5 -15t-14.5 -51v-37h66v-111h-66v-394h-160v394h-54v111h54v30q0 95 40 141t147 46q57 0 116 -13h148v-552q0 -38 6 -48t25 -10h20zM680 742l-64 -192l-78 13l33 200z" />
    <glyph glyph-name="f_lcommaaccent" unicode="f&#x13c;" horiz-adv-x="581" 
d="M565 99l6 -93q-43 -16 -108 -16q-56 0 -82.5 23t-26.5 81v506q-32 8 -65 8q-37 0 -51.5 -15t-14.5 -51v-37h66v-111h-66v-394h-160v394h-54v111h54v30q0 95 40 141t147 46q57 0 116 -13h148v-552q0 -38 6 -48t25 -10h20zM481 -31q28 0 45 -16t17 -43q0 -96 -164 -93
l-17 50q60 9 60 33q0 3 -2.5 9.5t-2.5 14.5q0 19 17 32t47 13z" />
    <glyph glyph-name="f_lslash" unicode="f&#x142;" horiz-adv-x="582" 
d="M565 99l6 -93q-43 -16 -108 -16q-56 0 -82.5 23t-26.5 81v185l-53 -29v113l53 28v209q-32 8 -65 8q-37 0 -51.5 -15t-14.5 -51v-37h62v-111h-62v-394h-160v394h-54v111h54v30q0 95 40 141t147 46q57 0 116 -13h148v-231l52 28v-112l-52 -29v-208q0 -38 6 -48t25 -10h20z
" />
    <glyph glyph-name="f_thorn" unicode="f&#xfe;" horiz-adv-x="846" 
d="M818 274q0 -146 -68.5 -216.5t-187.5 -70.5q-31 0 -46 3v-163h-160v773q-32 8 -67 8q-37 0 -51.5 -15t-14.5 -51v-37h66v-111h-66v-394h-160v394h-54v111h54v30q0 95 40 141t147 46q57 0 118 -13h148v-238q58 46 118 46q92 0 138 -69t46 -174zM516 360v-252q18 -8 48 -8
q91 0 91 154q0 141 -67 141q-32 0 -72 -35z" />
    <glyph glyph-name="f_f_thorn" unicode="ff&#xfe;" horiz-adv-x="1140" 
d="M1111 274q0 -146 -68.5 -216.5t-186.5 -70.5q-32 0 -47 3v-163h-160v773q-32 8 -67 8q-37 0 -51.5 -15t-14.5 -51v-37h66v-111h-66v-394h-160v394h-133v-394h-160v394h-54v111h54v40q0 82 35 125t115 43q64 0 118 -28l-17 -94q-26 8 -48 8q-23 0 -33 -12t-10 -38v-44h133
v30q0 95 40 141t147 46q57 0 118 -13h148v-238q57 46 118 46q92 0 138 -69t46 -174zM809 360v-252q18 -8 49 -8q90 0 90 154q0 141 -67 141q-32 0 -72 -35z" />
    <glyph glyph-name=".notdef" horiz-adv-x="550" 
d="M300 150h-150v250h50v-200h100v-50zM500 50h-450v450h450v-450zM350 350h-100v50h150v-250h-50v100h-100v50h100v50zM100 100h350v350h-350v-350z" />
    <glyph glyph-name=".null" horiz-adv-x="0" 
 />
    <glyph glyph-name="nonmarkingreturn" horiz-adv-x="333" 
 />
    <glyph glyph-name="CR" unicode="&#xd;" horiz-adv-x="0" 
 />
    <glyph glyph-name="space" unicode=" " horiz-adv-x="240" 
 />
    <glyph glyph-name="exclam" unicode="!" horiz-adv-x="354" 
d="M264 195h-143l-27 480h195zM288 72q0 -46 -20.5 -64t-75.5 -18q-54 0 -74 18t-20 64q0 45 20 63t75 18q56 0 75.5 -17.5t19.5 -63.5z" />
    <glyph glyph-name="quotedbl" unicode="&#x22;" horiz-adv-x="486" 
d="M196 410h-122l-16 265h153zM411 410h-122l-15 265h152z" />
    <glyph glyph-name="numbersign" unicode="#" horiz-adv-x="519" 
d="M495 195h-89l-22 -195h-116l22 195h-94l-22 -195h-116l22 195h-57v95h67l14 121h-81v94h92l19 170h115l-19 -170h95l19 170h115l-19 -170h55v-94h-66l-13 -121h79v-95zM300 290l14 121h-94l-14 -121h94z" />
    <glyph glyph-name="dollar" unicode="$" 
d="M288 -108h-92l-9 112q-94 8 -162 61l43 83q70 -33 137 -33q47 0 68.5 19t21.5 49q0 28 -26.5 48t-64.5 36.5t-76.5 37.5t-65 62t-26.5 98q0 69 39.5 115.5t111.5 61.5l9 107h92l10 -102q85 -8 142 -59l-44 -79q-55 31 -119 31q-36 0 -56 -18.5t-20 -44.5
q0 -29 27.5 -50.5t67.5 -37.5t79.5 -37t67 -61t27.5 -97q0 -71 -44.5 -122.5t-127.5 -65.5z" />
    <glyph glyph-name="percent" unicode="%" horiz-adv-x="711" 
d="M355 525q0 -75 -42.5 -118t-121.5 -43q-82 0 -117.5 40.5t-35.5 121.5q0 76 42.5 119t121.5 43q82 0 117.5 -41.5t35.5 -121.5zM240 526q0 43 -10.5 61.5t-33.5 18.5q-44 0 -44 -80q0 -44 10.5 -62t33.5 -18t33.5 18.5t10.5 61.5zM674 148q0 -75 -43 -118t-121 -43
q-83 0 -118.5 40.5t-35.5 121.5q0 76 43 119t121 43q82 0 118 -41.5t36 -121.5zM559 149q0 80 -44 80t-44 -80q0 -44 10.5 -62t33.5 -18t33.5 18.5t10.5 61.5zM650 654l-508 -678l-81 45l509 678z" />
    <glyph glyph-name="ampersand" unicode="&#x26;" horiz-adv-x="671" 
d="M644 102v-98q-34 -16 -79 -16q-43 0 -114 53q-84 -52 -197 -52q-117 0 -171 52t-54 134q0 61 29.5 103t81.5 79q-66 90 -66 160q0 77 54 123t157 46q86 0 135 -35t49 -101q0 -36 -11 -65.5t-33.5 -53.5t-43 -39.5t-52.5 -36.5q55 -61 109 -114l8 -8q28 71 26 156h150
q2 -146 -72 -253q43 -34 65 -34h29zM274 98q45 0 83 22l-31 31q-62 59 -115 118q-31 -38 -31 -82q0 -43 26 -66t68 -23zM223 532q0 -35 41 -94q60 48 60 105q0 48 -50 48q-24 0 -37.5 -16t-13.5 -43z" />
    <glyph glyph-name="quotesingle" unicode="'" horiz-adv-x="320" 
d="M223 410h-116l-15 265h146z" />
    <glyph glyph-name="parenleft" unicode="(" horiz-adv-x="310" 
d="M287 -142l-107 -33q-138 206 -138 448q0 246 138 455l107 -34q-103 -182 -103 -416q0 -233 103 -420z" />
    <glyph glyph-name="parenright" unicode=")" horiz-adv-x="310" 
d="M130 -174l-107 34q103 182 103 416q0 233 -103 420l107 33q138 -206 138 -448q0 -246 -138 -455z" />
    <glyph glyph-name="asterisk" unicode="*" 
d="M472 464l-71 -123l-104 89l25 -135h-142l25 135l-104 -89l-71 123l128 46l-128 46l71 123l104 -89l-25 135h142l-25 -135l104 89l71 -123l-128 -46z" />
    <glyph glyph-name="plus" unicode="+" 
d="M465 245h-148v-168h-134v168h-149v111h149v164h134v-164h148v-111z" />
    <glyph glyph-name="comma" unicode="," horiz-adv-x="301" 
d="M87 -173l-62 59q72 60 72 97q0 12 -19.5 33.5t-19.5 56.5q0 57 18 76.5t76 19.5q53 0 69.5 -21t16.5 -75q0 -142 -151 -246z" />
    <glyph glyph-name="hyphen" unicode="&#xad;" horiz-adv-x="239" 
d="M238 225h-216v117h216v-117z" />
    <glyph glyph-name="hyphen" unicode="-" horiz-adv-x="239" 
d="M238 225h-216v117h216v-117z" />
    <glyph glyph-name="period" unicode="." horiz-adv-x="290" 
d="M238 78q0 -54 -17.5 -72.5t-72.5 -18.5t-73 18.5t-18 71.5q0 55 18 73.5t74 18.5q54 0 71.5 -18.5t17.5 -72.5z" />
    <glyph glyph-name="slash" unicode="/" 
d="M496 709l-358 -813h-138l358 813h138z" />
    <glyph glyph-name="zero" unicode="0" 
d="M479 295q0 -308 -236 -308q-118 0 -170.5 68t-52.5 226q0 307 237 307q118 0 170 -67.5t52 -225.5zM318 288q0 105 -15 143t-52 38q-38 0 -54 -37.5t-16 -143.5q0 -105 15.5 -143t52.5 -38q38 0 53.5 37.5t15.5 143.5z" />
    <glyph glyph-name="one" unicode="1" 
d="M466 0h-412v135h125v284l-108 -35l-38 103l188 89h134v-441h111v-135z" />
    <glyph glyph-name="two" unicode="2" 
d="M468 0h-433v115q148 116 195.5 170t47.5 103q0 69 -82 69q-50 0 -142 -28l-19 107q118 52 210 52q106 0 158.5 -47.5t52.5 -131.5q0 -70 -45.5 -130t-156.5 -143h214v-136z" />
    <glyph glyph-name="three" unicode="3" 
d="M16 -64l10 92q75 -16 142 -16q123 0 123 91q0 44 -25 65.5t-85 21.5h-77v121h75q100 0 100 81q0 68 -85 68q-60 0 -140 -26l-20 105q112 49 205 49q106 0 157 -45t51 -123q0 -114 -95 -159q114 -30 114 -157q0 -107 -72.5 -162.5t-184.5 -55.5q-96 0 -193 50z" />
    <glyph glyph-name="four" unicode="4" 
d="M195 576h233v-404h57v-133h-57v-143h-159v143h-255v122q77 207 181 415zM269 172l1 269h-4q-56 -119 -115 -269h118z" />
    <glyph glyph-name="five" unicode="5" 
d="M420 439h-223l-8 -128q27 5 69 5q211 0 211 -197q0 -109 -70 -171t-195 -62q-92 0 -187 51l10 91q75 -16 146 -16q131 0 131 95q0 42 -26 62.5t-86 20.5q-66 0 -149 -18l23 404h354v-137z" />
    <glyph glyph-name="six" unicode="6" 
d="M452 640l-14 -89q-74 16 -130 16q-65 0 -92 -41t-31 -140q71 39 127 39q165 0 165 -177q0 -124 -60.5 -191.5t-165.5 -67.5q-38 0 -67.5 7t-60 28.5t-50 58t-32 98.5t-12.5 146q0 190 67.5 275t182.5 85q87 0 173 -47zM190 282v-5q0 -96 17.5 -134t52.5 -38
q31 0 46.5 27.5t15.5 95.5q0 40 -14 57t-46 17t-72 -20z" />
    <glyph glyph-name="seven" unicode="7" 
d="M475 450l-121 -257q-73 -157 -177 -306l-110 40l218 512h-258v137h448v-126z" />
    <glyph glyph-name="eight" unicode="8" 
d="M470 514q0 -95 -95 -155q105 -59 105 -175q0 -90 -59 -143.5t-181 -53.5q-220 0 -220 182q0 100 101 163q-91 61 -91 171q0 83 58 134t167 51q215 0 215 -174zM323 174q0 36 -24 59t-70 44q-52 -40 -52 -98q0 -80 75 -80q34 0 52.5 20.5t18.5 54.5zM184 513
q0 -62 76 -100q56 42 56 96q0 70 -66 70q-31 0 -48.5 -17.5t-17.5 -48.5z" />
    <glyph glyph-name="nine" unicode="9" 
d="M33 -69l10 87q91 -15 148 -15q63 0 92 43t33 145q-71 -39 -127 -39q-165 0 -165 177q0 124 60.5 191.5t164.5 67.5q38 0 68 -7t60 -28.5t50 -58t32.5 -98.5t12.5 -146q0 -190 -68.5 -278.5t-181.5 -88.5q-99 0 -189 48zM178 349q0 -40 14.5 -57t46.5 -17t72 20v5
q0 96 -17.5 134t-53.5 38q-31 0 -46.5 -27.5t-15.5 -95.5z" />
    <glyph glyph-name="colon" unicode=":" horiz-adv-x="306" 
d="M253 430q0 -45 -21 -63t-67 -18q-45 0 -66 18.5t-21 62.5t21 62.5t66 18.5q47 0 67.5 -18t20.5 -63zM253 75q0 -45 -21 -63t-67 -18q-45 0 -66 18t-21 62t21 62.5t66 18.5q47 0 67.5 -17.5t20.5 -62.5z" />
    <glyph glyph-name="semicolon" unicode=";" horiz-adv-x="306" 
d="M250 430q0 -44 -21 -62.5t-66 -18.5q-46 0 -67 18.5t-21 62.5t21.5 62.5t66.5 18.5q46 0 66.5 -18t20.5 -63zM98 -172l-61 49q82 61 82 111q0 12 -11 20t-22 22t-11 41q0 46 21 64t68 18q46 0 66 -18t20 -65q0 -131 -152 -242z" />
    <glyph glyph-name="less" unicode="&#x3c;" 
d="M463 172l-47 -118l-383 193v107l383 193l47 -115l-273 -130z" />
    <glyph glyph-name="equal" unicode="=" 
d="M458 340h-416v109h416v-109zM458 152h-416v109h416v-109z" />
    <glyph glyph-name="greater" unicode="&#x3e;" 
d="M467 247l-383 -193l-47 115l273 130l-273 130l47 118l383 -193v-107z" />
    <glyph glyph-name="question" unicode="?" 
d="M457 515q0 -36 -10.5 -65.5t-26.5 -47.5t-35 -36t-35 -32.5t-28 -37t-13 -48.5l-3 -53h-141l-3 49q-4 45 6.5 78t28 52.5t35.5 36t31 37.5t13 48q0 26 -19 44t-57 18q-50 0 -107 -23l-45 96q95 55 204 55q101 0 153 -44t52 -127zM330 72q0 -47 -19.5 -64.5t-75.5 -17.5
q-54 0 -74.5 18t-20.5 64q0 45 20.5 63t75.5 18q56 0 75 -17t19 -64z" />
    <glyph glyph-name="at" unicode="@" horiz-adv-x="1031" 
d="M755 -26l25 -90q-139 -64 -304 -64q-207 0 -319.5 102t-112.5 301q0 223 146.5 360t394.5 137q199 0 294.5 -84.5t95.5 -228.5q0 -157 -89 -252t-244 -95h-70l-9 73q-71 -82 -144 -82q-71 0 -105 49t-34 135q0 139 76.5 208.5t202.5 69.5q99 0 173 -26l-35 -313
q60 0 98 56.5t38 150.5q0 114 -59 174t-208 60q-126 0 -213.5 -50.5t-126.5 -132.5t-39 -188q0 -170 74 -244t240 -74q126 0 254 48zM551 236l19 158q-20 4 -34 4q-42 0 -68 -34.5t-26 -105.5q0 -46 8 -64t26 -18q33 0 75 60z" />
    <glyph glyph-name="A" unicode="A" horiz-adv-x="589" 
d="M584 0h-180q-1 5 -10.5 54.5t-14.5 69.5h-190q-16 -73 -24 -124h-160q83 386 176 675h225q101 -314 178 -675zM213 248h142q-38 163 -71 283h-3q-37 -142 -68 -283z" />
    <glyph glyph-name="B" unicode="B" horiz-adv-x="581" 
d="M63 0v675h246q109 0 163.5 -44t54.5 -119q0 -101 -83 -140q55 -13 86.5 -55t31.5 -98q0 -97 -73 -159t-222 -62q-24 0 -94 1t-110 1zM229 560v-153h39q45 0 66.5 22.5t21.5 56.5q0 74 -76 74h-51zM229 295v-178q36 -3 54 -3q101 0 101 94q0 38 -25.5 62.5t-80.5 24.5h-49
z" />
    <glyph glyph-name="C" unicode="C" horiz-adv-x="514" 
d="M437 180l68 -87q-34 -50 -89.5 -78t-118.5 -28q-135 0 -200 83t-65 254q0 177 71 270.5t197 93.5q134 0 193 -110l-75 -75q-39 51 -94 51q-57 0 -86.5 -56.5t-29.5 -152.5q0 -122 29.5 -172.5t88.5 -50.5t111 58z" />
    <glyph glyph-name="D" unicode="D" horiz-adv-x="605" 
d="M63 0v675q41 0 111 1t101 1q298 0 298 -320q0 -361 -326 -361q-35 0 -99.5 2t-84.5 2zM231 552v-427q26 -2 36 -2q130 0 130 217q0 112 -32 162.5t-97 50.5q-24 0 -37 -1z" />
    <glyph glyph-name="E" unicode="E" horiz-adv-x="476" 
d="M435 0h-372v675h368v-127h-200v-142h167v-121h-167v-157h204v-128z" />
    <glyph glyph-name="F" unicode="F" horiz-adv-x="456" 
d="M427 548h-196v-154h175v-124h-175v-270h-168v675h364v-127z" />
    <glyph glyph-name="G" unicode="G" horiz-adv-x="578" 
d="M530 401v-332q-102 -82 -235 -82q-263 0 -263 334q0 181 78 274t215 93q64 0 116 -31t86 -83l-74 -67q-63 49 -121 49q-125 0 -125 -209q0 -122 26 -174.5t76 -52.5q30 0 56 15v145h-69v121h234z" />
    <glyph glyph-name="H" unicode="H" horiz-adv-x="658" 
d="M595 0h-168v281h-196v-281h-168v675h168v-254h196v254h168v-675z" />
    <glyph glyph-name="I" unicode="I" horiz-adv-x="294" 
d="M231 0h-168v675h168v-675z" />
    <glyph glyph-name="J" unicode="J" horiz-adv-x="297" 
d="M234 675v-602q0 -163 -146 -249l-80 66q36 43 47 87.5t11 113.5v584h168z" />
    <glyph glyph-name="K" unicode="K" horiz-adv-x="563" 
d="M556 0h-188l-134 300h-3v-300h-168v675h168v-278h3l130 278h178l-162 -298z" />
    <glyph glyph-name="L" unicode="L" horiz-adv-x="421" 
d="M406 0h-343v675h168v-546h175v-129z" />
    <glyph glyph-name="M" unicode="M" horiz-adv-x="853" 
d="M807 0h-177q-3 263 -18 471h-2l-123 -471h-144l-123 471h-1q-13 -196 -15 -471h-156q9 345 47 675h221l114 -415h1l116 415h210q35 -328 50 -675z" />
    <glyph glyph-name="N" unicode="N" horiz-adv-x="650" 
d="M587 0h-182l-157 333q-12 24 -25.5 56.5t-20.5 52.5l-8 21h-2q8 -116 8 -165v-298h-137v675h200l138 -290q11 -22 25 -55t22 -54l8 -22h1q-8 118 -8 167v254h138v-675z" />
    <glyph glyph-name="O" unicode="O" horiz-adv-x="643" 
d="M611 351q0 -184 -77.5 -274t-218.5 -90q-145 0 -214 79t-69 258q0 184 77.5 274t218.5 90q145 0 214 -79t69 -258zM435 326q0 93 -14.5 146t-39 71t-63.5 18q-53 0 -81.5 -46t-28.5 -166q0 -135 29 -184.5t88 -49.5q53 0 81.5 45.5t28.5 165.5z" />
    <glyph glyph-name="P" unicode="P" horiz-adv-x="557" 
d="M231 0h-168v675q37 0 113 1t111 1q255 0 255 -217q0 -246 -290 -246h-21v-214zM231 555v-219h31q104 0 104 110q0 56 -24 82.5t-80 26.5h-31z" />
    <glyph glyph-name="Q" unicode="Q" horiz-adv-x="643" 
d="M703 -112l-52 -64q-39 23 -107 23q-16 0 -38 -1t-34 -1q-57 0 -99 33t-70 110q-137 -1 -204 80t-67 257q0 183 77.5 273t219.5 90q144 0 213 -79t69 -256q0 -157 -55 -244t-150 -110q39 -44 102 -44q11 0 29 0.5t29 0.5q75 0 137 -68zM435 327q0 135 -29 184.5t-88 49.5
q-53 0 -81.5 -46t-28.5 -164q0 -93 14.5 -146t39 -71.5t63.5 -18.5q53 0 81.5 46t28.5 166z" />
    <glyph glyph-name="R" unicode="R" horiz-adv-x="586" 
d="M571 0h-188l-114 260h-38v-260h-168v675q117 3 236 3q127 0 187 -53.5t60 -143.5q0 -134 -121 -185zM231 557v-175h45q95 0 95 88q0 87 -94 87h-46z" />
    <glyph glyph-name="S" unicode="S" horiz-adv-x="496" 
d="M479 197q0 -90 -64.5 -149.5t-183.5 -59.5q-116 0 -213 71l39 85q90 -34 143 -34q44 0 68 17.5t24 50.5q0 31 -27 54.5t-65.5 42.5t-77 42.5t-65.5 66.5t-27 102q0 91 63 145.5t164 54.5q103 0 192 -60l-39 -85q-65 25 -122 25q-40 0 -61 -16.5t-21 -44.5q0 -31 28 -55
t68 -43.5t80.5 -43.5t68.5 -66.5t28 -99.5z" />
    <glyph glyph-name="T" unicode="T" horiz-adv-x="467" 
d="M453 547h-137v-547h-168v547h-135v128h440v-128z" />
    <glyph glyph-name="U" unicode="U" horiz-adv-x="652" 
d="M590 675v-434q0 -133 -73.5 -193.5t-201.5 -60.5t-190.5 55.5t-62.5 181.5v451h168v-434q0 -73 22.5 -102.5t73.5 -29.5q50 0 74.5 27t24.5 95v444h165z" />
    <glyph glyph-name="V" unicode="V" horiz-adv-x="561" 
d="M393 675h163q-63 -379 -170 -675h-207q-112 326 -173 675h183q36 -258 105 -508h2q61 214 97 508z" />
    <glyph glyph-name="W" unicode="W" horiz-adv-x="868" 
d="M703 675h155q-59 -349 -147 -675h-185l-73 315l-21 113h-2l-20 -112l-68 -316h-183q-83 295 -149 675h180q10 -74 36.5 -227.5t39.5 -236.5h2l18 104l79 360h167l82 -364l18 -100h3q44 266 68 464z" />
    <glyph glyph-name="X" unicode="X" horiz-adv-x="553" 
d="M548 0h-183q-52 132 -100 224h-3q-52 -103 -95 -224h-163q76 200 164 356q-84 154 -148 319h179q48 -129 83 -199h3q45 85 87 199h159q-66 -178 -150 -315q94 -166 167 -360z" />
    <glyph glyph-name="Y" unicode="Y" horiz-adv-x="494" 
d="M337 675h164q-76 -241 -171 -400v-275h-168v275q-104 184 -169 400h181q40 -144 83 -245h2q40 91 78 245z" />
    <glyph glyph-name="Z" unicode="Z" horiz-adv-x="493" 
d="M465 0h-439v114l229 430h-219l3 131h418v-113l-228 -430h239z" />
    <glyph glyph-name="bracketleft" unicode="[" horiz-adv-x="365" 
d="M308 -173h-222v912h222v-94h-88v-724h88v-94z" />
    <glyph glyph-name="backslash" unicode="\" 
d="M500 -104h-138l-358 813h139z" />
    <glyph glyph-name="bracketright" unicode="]" horiz-adv-x="365" 
d="M279 -173h-222v94h88v724h-88v94h222v-912z" />
    <glyph glyph-name="asciicircum" unicode="^" 
d="M484 401l-124 -42l-110 220l-112 -220l-121 43l172 307h124z" />
    <glyph glyph-name="underscore" unicode="_" 
d="M500 -181h-500v115h500v-115z" />
    <glyph glyph-name="grave" unicode="`" horiz-adv-x="312" 
d="M277 592l-80 -41l-163 121l111 57z" />
    <glyph glyph-name="a" unicode="a" horiz-adv-x="520" 
d="M468 0h-123l-10 47q-68 -60 -151 -60q-74 0 -118.5 42t-44.5 114q0 171 263 171h26v28q0 61 -82 61q-71 0 -159 -30l-20 96q113 48 218 48q97 0 149 -42t52 -118v-357zM310 133v86h-32q-102 0 -102 -63q0 -57 56 -57q39 0 78 34z" />
    <glyph glyph-name="b" unicode="b" horiz-adv-x="544" 
d="M53 11v698h160v-238q57 46 118 46q92 0 138 -69t46 -175q0 -286 -275 -286q-89 0 -187 24zM213 363v-255q22 -8 49 -8q42 0 66 38t24 116q0 141 -67 141q-32 0 -72 -32z" />
    <glyph glyph-name="c" unicode="c" horiz-adv-x="421" 
d="M365 143l47 -82q-72 -72 -176 -72q-207 0 -207 257q0 120 59 195.5t160 75.5q97 0 155 -63l-55 -83q-35 28 -75 28q-36 0 -57 -35.5t-21 -106.5q0 -81 18.5 -115t58.5 -34q45 0 93 35z" />
    <glyph glyph-name="d" unicode="d" horiz-adv-x="544" 
d="M490 0h-130l-11 48q-68 -61 -138 -61q-91 0 -136.5 69t-45.5 175q0 146 68.5 216t185.5 70q29 0 47 -2v194h160v-709zM330 142v255q-26 8 -49 8q-89 0 -89 -154q0 -141 67 -141q31 0 71 32z" />
    <glyph glyph-name="e" unicode="e" horiz-adv-x="520" 
d="M485 217h-293v-5q0 -104 97 -104q74 0 172 28l21 -90q-110 -59 -224 -59q-110 0 -169.5 59t-59.5 194t64 206t178 71q111 0 168 -68.5t46 -231.5zM193 314h139v2q0 96 -66 96q-33 0 -52 -25.5t-21 -72.5z" />
    <glyph glyph-name="f" unicode="f" horiz-adv-x="310" 
d="M341 689l-20 -90q-31 9 -54 9q-24 0 -34 -12t-10 -38v-53h78v-111h-78v-394h-160v394h-54v111h54v49q0 82 35 125t115 43q67 0 128 -33z" />
    <glyph glyph-name="g" unicode="g" horiz-adv-x="544" 
d="M490 494v-473q0 -206 -228 -206q-83 0 -192 48l11 87q106 -17 163 -17q46 0 66 15t20 52v50q-61 -46 -119 -46q-89 0 -135.5 67.5t-46.5 168.5q0 140 72 208.5t200 68.5q89 0 189 -23zM330 155v241q-23 9 -49 9q-41 0 -65 -37t-24 -108q0 -137 67 -137q32 0 71 32z" />
    <glyph glyph-name="h" unicode="h" horiz-adv-x="551" 
d="M497 0h-160q0 60 2 150.5t2 110.5q0 79 -12 104t-40 25q-31 0 -76 -30v-360h-160v709h160v-241q59 49 130 49q82 0 120 -54t38 -177q0 -22 -2 -121.5t-2 -164.5z" />
    <glyph glyph-name="i" unicode="i" horiz-adv-x="267" 
d="M227 630q0 -45 -19.5 -63t-73.5 -18q-56 0 -75.5 17t-19.5 64q0 45 20 63t75 18t74 -17t19 -64zM213 0h-160v505h160v-505z" />
    <glyph glyph-name="j" unicode="j" horiz-adv-x="267" 
d="M213 505v-456q0 -73 -27.5 -128t-88.5 -106l-107 45q63 79 63 162v483h160zM227 630q0 -45 -19.5 -63t-73.5 -18q-56 0 -75.5 17t-19.5 64q0 45 20 63t75 18t74 -17t19 -64z" />
    <glyph glyph-name="k" unicode="k" horiz-adv-x="511" 
d="M506 0h-185l-102 239h-6v-239h-160v709h160v-404h6l93 200h182l-130 -216z" />
    <glyph glyph-name="l" unicode="l" horiz-adv-x="281" 
d="M265 99l6 -93q-45 -16 -109 -16q-56 0 -82.5 23t-26.5 81v615h160v-552q0 -38 6.5 -48t24.5 -10h21z" />
    <glyph glyph-name="m" unicode="m" horiz-adv-x="826" 
d="M773 0h-160q0 62 1.5 152t1.5 108q0 81 -10.5 105.5t-38.5 24.5q-30 0 -77 -33q4 -28 4 -66v-291h-160v260q0 81 -10.5 105.5t-36.5 24.5q-29 0 -74 -30v-360h-160v505h131l11 -50q67 62 146 62q90 0 124 -68q76 68 156 68t118 -55t38 -175q0 -22 -2 -121.5t-2 -165.5z
" />
    <glyph glyph-name="n" unicode="n" horiz-adv-x="551" 
d="M497 0h-160q0 62 2 152t2 109q0 79 -12 104t-40 25q-31 0 -76 -30v-360h-160v505h131l11 -50q67 62 148 62q82 0 120 -54.5t38 -176.5q0 -22 -2 -120.5t-2 -165.5z" />
    <glyph glyph-name="o" unicode="o" horiz-adv-x="549" 
d="M520 262q0 -137 -66.5 -206t-188.5 -69q-118 0 -177 60t-59 195q0 137 66.5 206t188.5 69q118 0 177 -60t59 -195zM356 241q0 94 -20.5 127t-61.5 33q-81 0 -81 -137q0 -95 20 -127.5t62 -32.5q81 0 81 137z" />
    <glyph glyph-name="p" unicode="p" horiz-adv-x="544" 
d="M213 -173h-160v678h130l12 -49q64 61 136 61q92 0 138 -68.5t46 -174.5q0 -146 -69 -216.5t-187 -70.5q-28 0 -46 3v-163zM213 363v-255q21 -8 49 -8q90 0 90 154q0 141 -67 141q-32 0 -72 -32z" />
    <glyph glyph-name="q" unicode="q" horiz-adv-x="544" 
d="M490 -173h-160v207q-55 -47 -118 -47q-91 0 -137 69t-46 175q0 286 275 286q92 0 186 -23v-667zM330 142v255q-22 8 -48 8q-42 0 -66 -38t-24 -116q0 -141 66 -141q32 0 72 32z" />
    <glyph glyph-name="r" unicode="r" horiz-adv-x="375" 
d="M367 504l-19 -137q-27 7 -48 7q-20 0 -38.5 -14.5t-48.5 -52.5v-307h-160v505h131l12 -73q35 47 61.5 65.5t55.5 18.5q30 0 54 -12z" />
    <glyph glyph-name="s" unicode="s" horiz-adv-x="425" 
d="M20 34l12 80q80 -15 126 -15q78 0 78 44q0 20 -22 33.5t-53.5 24.5t-63 26.5t-53.5 48.5t-22 82q0 72 54 115.5t142 43.5q75 0 154 -43l-15 -79q-61 14 -104 14q-32 0 -48 -11t-16 -28q0 -20 22.5 -33.5t54.5 -24.5t63.5 -26.5t54 -48.5t22.5 -82q0 -74 -58.5 -120.5
t-159.5 -46.5q-81 0 -168 46z" />
    <glyph glyph-name="t" unicode="t" horiz-adv-x="350" 
d="M322 115l11 -91q-69 -36 -135 -36q-74 0 -104.5 29.5t-30.5 101.5v275h-54v111h60q19 62 37 148h117v-148h96v-111h-96v-236q0 -29 8.5 -40t27.5 -11q30 0 63 8z" />
    <glyph glyph-name="u" unicode="u" horiz-adv-x="551" 
d="M497 0h-130l-11 49q-70 -62 -148 -62q-82 0 -120.5 55t-38.5 177q0 21 2 120t2 166h161q0 -61 -2 -152t-2 -110q0 -76 11.5 -102t40.5 -26q30 0 75 30v360h160v-505z" />
    <glyph glyph-name="v" unicode="v" horiz-adv-x="496" 
d="M323 505h165q-32 -256 -133 -505h-219l-130 505h173l62 -254l18 -110h2q51 163 62 364z" />
    <glyph glyph-name="w" unicode="w" horiz-adv-x="779" 
d="M613 505h154q-23 -231 -117 -505h-194l-55 249l-13 84h-2l-11 -84l-48 -249h-196l-121 505h171l49 -253l14 -98h3l12 96l46 255h188l56 -261l14 -90h3q43 218 47 351z" />
    <glyph glyph-name="x" unicode="x" horiz-adv-x="490" 
d="M486 0h-182l-69 174h-2q-35 -91 -61 -174h-167l129 263l-114 242h178l55 -154h3q23 51 52 154h159l-115 -227z" />
    <glyph glyph-name="y" unicode="y" horiz-adv-x="494" 
d="M321 505h164q-20 -180 -62 -316t-96 -214.5t-112.5 -116.5t-120.5 -38q-41 0 -85 25v91q24 -4 56 -4q42 0 62 16q22 18 22 43q0 22 -36 143l-107 371h171l59 -238q20 -74 22 -142h2q24 74 42 182.5t19 197.5z" />
    <glyph glyph-name="z" unicode="z" horiz-adv-x="400" 
d="M379 120l-4 -120h-354v101l161 286h-154l5 118h331v-100l-161 -285h176z" />
    <glyph glyph-name="braceleft" unicode="{" horiz-adv-x="388" 
d="M325 -173h-64q-148 0 -148 145v202q0 30 -9.5 43.5t-35.5 13.5h-31v114h31q25 0 35 13.5t10 42.5v194q0 144 150 144h62v-93h-34q-23 0 -33 -12.5t-10 -41.5v-177q0 -96 -73 -127q73 -31 73 -128v-186q0 -32 9 -43t34 -11h34v-93z" />
    <glyph glyph-name="bar" unicode="|" horiz-adv-x="255" 
d="M196 -173h-138v926h138v-926z" />
    <glyph glyph-name="braceright" unicode="}" horiz-adv-x="388" 
d="M351 231h-32q-25 0 -35 -13.5t-10 -42.5v-204q0 -144 -149 -144h-62v93h34q23 0 33 12.5t10 41.5v187q0 97 73 127q-73 30 -73 128v176q0 31 -9 42.5t-34 11.5h-34v93h63q148 0 148 -145v-192q0 -29 10 -43t35 -14h32v-114z" />
    <glyph glyph-name="asciitilde" unicode="~" 
d="M480 615v-29q0 -79 -43 -126.5t-118 -47.5q-32 0 -57 11t-38.5 27t-23.5 31.5t-18 26.5t-16 11q-15 0 -21.5 -16.5t-6.5 -65.5h-122v28q0 80 42.5 127t116.5 47q40 0 68.5 -16.5t41 -36.5t24.5 -36.5t21 -16.5q16 0 22 16t6 66h122z" />
    <glyph glyph-name="uni00A0" unicode="&#xa0;" horiz-adv-x="240" 
 />
    <glyph glyph-name="exclamdown" unicode="&#xa1;" horiz-adv-x="354" 
d="M91 376h143l26 -480h-195zM66 499q0 46 20 64t76 18q55 0 75 -18t20 -64q0 -45 -20 -63t-75 -18q-56 0 -76 17.5t-20 63.5z" />
    <glyph glyph-name="cent" unicode="&#xa2;" 
d="M408 251l46 -82q-54 -44 -114 -58l-12 -117h-95l-10 109q-180 23 -180 229q0 94 48.5 156.5t130.5 82.5l11 109h95l11 -109q56 -11 104 -53l-54 -81q-41 29 -81 29q-41 0 -70.5 -28.5t-29.5 -90.5q0 -134 94 -134q56 0 106 38z" />
    <glyph glyph-name="sterling" unicode="&#xa3;" 
d="M469 0h-433v103q42 44 57.5 86.5t11.5 98.5h-78v104h61q-16 55 -16 98q0 194 212 194q99 0 173 -43l-14 -85q-61 11 -107 11q-57 0 -76.5 -18t-19.5 -61q0 -37 16 -96h144v-104h-131q4 -56 -5.5 -93.5t-37.5 -68.5h243v-126z" />
    <glyph glyph-name="currency" unicode="&#xa4;" 
d="M482 63l-103 -59l-57 79q-39 -13 -80 -13q-35 0 -65 10l-55 -76l-103 59l62 69q-31 46 -31 122q0 83 37 132l-68 76l102 59l58 -79q33 13 77 13q37 0 68 -11l57 77l101 -59l-64 -72q32 -43 32 -117q0 -81 -37 -132zM315 254q0 68 -16 91t-50 23q-32 0 -49 -22t-17 -76
q0 -68 16.5 -91t50.5 -23q65 0 65 98z" />
    <glyph glyph-name="yen" unicode="&#xa5;" 
d="M451 336v-101h-122v-63h122v-101h-122v-71h-158v71h-122v101h122v63h-122v101h122v11q-90 144 -163 328h173q40 -131 80 -204q38 67 75 204h159q-82 -205 -166 -328v-11h122z" />
    <glyph glyph-name="brokenbar" unicode="&#xa6;" horiz-adv-x="255" 
d="M196 203v-376h-137v376h137zM59 361v395h137v-395h-137z" />
    <glyph glyph-name="section" unicode="&#xa7;" horiz-adv-x="508" 
d="M73 -134l30 87q52 -16 96 -16q34 0 46.5 11.5t12.5 34.5q0 25 -24 51.5t-59 54t-69.5 60.5t-58.5 84.5t-24 112.5q0 81 41.5 160.5t107 129t131.5 49.5q64 0 121 -40l-29 -88q-47 15 -90 15q-55 0 -55 -47q0 -25 24.5 -51t59 -53.5t69 -61t59 -85.5t24.5 -114
q0 -124 -89 -230.5t-194 -106.5q-65 0 -130 43zM359 140q0 39 -20.5 73.5t-49.5 60t-57.5 49.5t-47.5 53t-17 59q-17 -29 -17 -68t20 -73t48.5 -58.5t57 -48.5t48 -54.5t18.5 -63.5q17 36 17 71z" />
    <glyph glyph-name="dieresis" unicode="&#xa8;" horiz-adv-x="420" 
d="M385 631q0 -37 -16.5 -53t-56.5 -16q-41 0 -57.5 15.5t-16.5 53.5q0 39 16.5 55t57.5 16t57 -15.5t16 -55.5zM182 631q0 -37 -16.5 -53t-57.5 -16t-57.5 15.5t-16.5 53.5t17 54.5t57 16.5q41 0 57.5 -15.5t16.5 -55.5z" />
    <glyph glyph-name="copyright" unicode="&#xa9;" horiz-adv-x="777" 
d="M746 346q0 -151 -104 -257t-258 -106q-153 0 -253 99.5t-100 245.5q0 152 103.5 257.5t258.5 105.5q153 0 253 -99.5t100 -245.5zM634 341q0 107 -70.5 181.5t-171.5 74.5q-105 0 -177 -76.5t-72 -187.5q0 -107 70 -181.5t172 -74.5q104 0 176.5 76.5t72.5 187.5z
M490 257l40 -67q-62 -54 -145 -54q-87 0 -131.5 51.5t-44.5 145.5q0 92 51 150t137 58q76 0 126 -50l-48 -64q-26 21 -58 21q-28 0 -45.5 -26.5t-17.5 -77.5q0 -61 16 -87t47 -26q36 0 73 26z" />
    <glyph glyph-name="ordfeminine" unicode="&#xaa;" horiz-adv-x="459" 
d="M388 339h-100l-8 34q-54 -42 -119 -42q-54 0 -84 31t-30 82q0 123 184 123h30v12q0 23 -11.5 33t-40.5 10q-59 0 -130 -18l-16 77q87 36 170 36q155 0 155 -133v-245zM261 438v57h-26q-67 0 -67 -41q0 -18 10.5 -28t27.5 -10q25 0 55 22zM390 198h-322v85h322v-85z" />
    <glyph glyph-name="guillemotleft" unicode="&#xab;" horiz-adv-x="511" 
d="M268 114l-106 -34l-138 211l139 211l105 -35l-93 -176zM466 126l-103 -33l-127 198l127 198l103 -34l-81 -164z" />
    <glyph glyph-name="logicalnot" unicode="&#xac;" 
d="M456 111h-128v133h-294v113h422v-246z" />
    <glyph glyph-name="registered" unicode="&#xae;" horiz-adv-x="567" 
d="M529 491q0 -102 -71 -173t-177 -71q-105 0 -174 67t-69 165q0 102 71.5 173t177.5 71q105 0 173.5 -67t68.5 -165zM443 488q0 68 -45.5 116t-111.5 48q-68 0 -115 -49t-47 -121q0 -69 45.5 -116.5t111.5 -47.5q68 0 115 49t47 121zM386 377h-79l-28 82h-15v-82h-71v224
q17 0 34.5 0.5t28.5 1t23 0.5q102 0 102 -70q0 -43 -37 -63zM264 556v-52h18q28 0 28 27q0 25 -31 25h-15z" />
    <glyph glyph-name="macron" unicode="&#x2c9;" horiz-adv-x="360" 
d="M325 578h-291v109h291v-109z" />
    <glyph glyph-name="macron" unicode="&#xaf;" horiz-adv-x="360" 
d="M325 578h-291v109h291v-109z" />
    <glyph glyph-name="degree" unicode="&#xb0;" horiz-adv-x="451" 
d="M399 558q0 -72 -47.5 -113.5t-125.5 -41.5q-83 0 -127 38t-44 113q0 72 47.5 112.5t126.5 40.5q170 0 170 -149zM282 557q0 61 -55 61q-56 0 -56 -61q0 -64 56 -64q55 0 55 64z" />
    <glyph glyph-name="plusminus" unicode="&#xb1;" 
d="M462 0h-424v106h424v-106zM462 310h-148v-156h-129v156h-147v106h147v152h129v-152h148v-106z" />
    <glyph glyph-name="twosuperior" unicode="&#xb2;" horiz-adv-x="370" 
d="M343 347h-310v94q98 78 127.5 109t29.5 56q0 33 -44 33q-31 0 -98 -19l-18 79q79 33 154 33q63 0 106 -27t43 -80q0 -44 -34 -87t-119 -94h163v-97z" />
    <glyph glyph-name="threesuperior" unicode="&#xb3;" horiz-adv-x="365" 
d="M20 364l9 66q58 -10 102 -10q68 0 68 40q0 19 -14.5 28t-50.5 9h-58v84h64q50 0 50 34q0 32 -48 32q-42 0 -93 -16l-18 74q78 27 141 27q78 0 117.5 -27.5t39.5 -73.5q0 -59 -66 -86q76 -15 76 -85q0 -61 -50 -92.5t-126 -31.5q-75 0 -143 28z" />
    <glyph glyph-name="acute" unicode="&#xb4;" horiz-adv-x="312" 
d="M277 672l-162 -121l-81 41l133 137z" />
    <glyph glyph-name="mu" unicode="&#x3bc;" horiz-adv-x="564" 
d="M461 -12q-46 0 -69.5 15.5t-33.5 46.5q-58 -56 -112 -56q-32 0 -50 21q13 -101 17 -188h-160v678h160v-274q0 -70 10.5 -93t41.5 -23q29 0 74 30v360h160v-348q0 -29 7.5 -40t25.5 -11q16 0 28 5l11 -94q-55 -29 -110 -29z" />
    <glyph glyph-name="mu" unicode="&#xb5;" horiz-adv-x="564" 
d="M461 -12q-46 0 -69.5 15.5t-33.5 46.5q-58 -56 -112 -56q-32 0 -50 21q13 -101 17 -188h-160v678h160v-274q0 -70 10.5 -93t41.5 -23q29 0 74 30v360h160v-348q0 -29 7.5 -40t25.5 -11q16 0 28 5l11 -94q-55 -29 -110 -29z" />
    <glyph glyph-name="paragraph" unicode="&#xb6;" horiz-adv-x="659" 
d="M581 -105h-121v684h-92v-684h-121v373q-93 -6 -152.5 49t-59.5 152q0 96 57 151t161 55h328v-780z" />
    <glyph glyph-name="periodcentered" unicode="&#x2219;" horiz-adv-x="282" 
d="M230 300q0 -52 -17.5 -70t-70.5 -18q-54 0 -71.5 17.5t-17.5 69.5q0 53 17.5 71.5t72.5 18.5q53 0 70 -18t17 -71z" />
    <glyph glyph-name="periodcentered" unicode="&#xb7;" horiz-adv-x="282" 
d="M230 300q0 -52 -17.5 -70t-70.5 -18q-54 0 -71.5 17.5t-17.5 69.5q0 53 17.5 71.5t72.5 18.5q53 0 70 -18t17 -71z" />
    <glyph glyph-name="cedilla" unicode="&#xb8;" horiz-adv-x="254" 
d="M81 -42h135q17 -87 -89 -144l-93 33q37 31 46.5 55.5t0.5 55.5z" />
    <glyph glyph-name="onesuperior" unicode="&#xb9;" horiz-adv-x="349" 
d="M323 347h-283v92h78v176l-67 -19l-17 76l116 51h104v-284h69v-92z" />
    <glyph glyph-name="ordmasculine" unicode="&#xba;" horiz-adv-x="435" 
d="M398 531q0 -95 -52.5 -147t-136.5 -52q-176 0 -176 185q0 96 52 147.5t134 51.5t130.5 -46t48.5 -139zM269 512q0 68 -13.5 91t-40.5 23q-55 0 -55 -92q0 -66 14 -89t42 -23q53 0 53 90zM380 198h-323v85h323v-85z" />
    <glyph glyph-name="guillemotright" unicode="&#xbb;" horiz-adv-x="511" 
d="M243 468l106 34l137 -211l-138 -211l-105 35l93 176zM45 456l103 33l126 -198l-127 -198l-102 33l80 165z" />
    <glyph glyph-name="onequarter" unicode="&#xbc;" horiz-adv-x="748" 
d="M323 347h-283v92h78v176l-67 -19l-17 76l116 51h104v-284h69v-92zM69 -44l575 777l80 -45l-575 -776zM732 -3h-38v-65h-130v65h-170v91q42 100 115 218h185v-217h38v-92zM564 89v140h-1q-41 -59 -75 -140h76z" />
    <glyph glyph-name="onehalf" unicode="&#xbd;" horiz-adv-x="798" 
d="M323 347h-283v92h78v176l-67 -19l-17 76l116 51h104v-284h69v-92zM69 -44l575 777l80 -45l-575 -776zM771 -68h-310v94q98 78 127.5 109t29.5 56q0 33 -44 33q-32 0 -98 -19l-18 79q79 33 154 33q63 0 106 -27t43 -80q0 -44 -34 -87t-119 -94h163v-97z" />
    <glyph glyph-name="threequarters" unicode="&#xbe;" horiz-adv-x="740" 
d="M20 364l9 66q58 -10 102 -10q68 0 68 40q0 19 -14.5 28t-50.5 9h-58v84h64q50 0 50 34q0 32 -48 32q-42 0 -93 -16l-18 74q78 27 141 27q78 0 117.5 -27.5t39.5 -73.5q0 -59 -66 -86q76 -15 76 -85q0 -61 -50 -92.5t-126 -31.5q-75 0 -143 28zM60 -44l575 777l80 -45
l-575 -776zM723 -3h-38v-65h-130v65h-170v91q42 100 115 218h185v-217h38v-92zM555 89v140h-1q-41 -59 -75 -140h76z" />
    <glyph glyph-name="questiondown" unicode="&#xbf;" 
d="M43 57q0 42 14.5 74t36 52.5t43 39.5t37 44t17.5 56l3 53h141l3 -49q4 -45 -6.5 -78.5t-28 -52.5t-35.5 -35.5t-31 -37t-13 -46.5q0 -28 19 -46t57 -18q50 0 107 23l45 -96q-95 -55 -204 -55q-101 0 -153 44.5t-52 127.5zM170 499q0 47 19.5 64.5t75.5 17.5
q54 0 74.5 -18t20.5 -64q0 -45 -20.5 -63t-75.5 -18q-56 0 -75 17t-19 64z" />
    <glyph glyph-name="Agrave" unicode="&#xc0;" horiz-adv-x="589" 
d="M584 0h-180q-1 5 -10.5 54.5t-14.5 69.5h-190q-16 -73 -24 -124h-160q83 386 176 675h225q101 -314 178 -675zM213 248h142q-38 163 -71 283h-3q-37 -142 -68 -283zM385 780l-49 -67l-211 56l71 92z" />
    <glyph glyph-name="Aacute" unicode="&#xc1;" horiz-adv-x="589" 
d="M584 0h-180q-1 5 -10.5 54.5t-14.5 69.5h-190q-16 -73 -24 -124h-160q83 386 176 675h225q101 -314 178 -675zM213 248h142q-38 163 -71 283h-3q-37 -142 -68 -283zM209 780l189 81l71 -92l-211 -56z" />
    <glyph glyph-name="Acircumflex" unicode="&#xc2;" horiz-adv-x="589" 
d="M584 0h-180q-1 5 -10.5 54.5t-14.5 69.5h-190q-16 -73 -24 -124h-160q83 386 176 675h225q101 -314 178 -675zM213 248h142q-38 163 -71 283h-3q-37 -142 -68 -283zM295 861l157 -83l-40 -65l-119 47l-118 -47l-39 62z" />
    <glyph glyph-name="Atilde" unicode="&#xc3;" horiz-adv-x="589" 
d="M584 0h-180q-1 5 -10.5 54.5t-14.5 69.5h-190q-16 -73 -24 -124h-160q83 386 176 675h225q101 -314 178 -675zM213 248h142q-38 163 -71 283h-3q-37 -142 -68 -283zM411 856l63 -43q-46 -96 -131 -96q-38 0 -71 22t-43 22q-13 0 -23.5 -9t-27.5 -34l-64 43q48 96 131 96
q38 0 71.5 -22.5t43.5 -22.5q13 0 23 9t28 35z" />
    <glyph glyph-name="Adieresis" unicode="&#xc4;" horiz-adv-x="589" 
d="M584 0h-180q-1 5 -10.5 54.5t-14.5 69.5h-190q-16 -73 -24 -124h-160q83 386 176 675h225q101 -314 178 -675zM213 248h142q-38 163 -71 283h-3q-37 -142 -68 -283zM473 784q0 -35 -17 -50t-56 -15q-41 0 -57.5 14t-16.5 51q0 36 16.5 51t57.5 15q40 0 56.5 -14.5
t16.5 -51.5zM263 784q0 -35 -16.5 -50t-56.5 -15q-41 0 -57.5 14.5t-16.5 50.5q0 35 17 50.5t57 15.5q41 0 57 -14.5t16 -51.5z" />
    <glyph glyph-name="Aring" unicode="&#xc5;" horiz-adv-x="589" 
d="M584 0h-180q-1 5 -10.5 54.5t-14.5 69.5h-190q-16 -73 -24 -124h-160q83 386 176 675h225q101 -314 178 -675zM213 248h142q-38 163 -71 283h-3q-37 -142 -68 -283zM419 777q0 -41 -34.5 -64.5t-93.5 -23.5q-124 0 -124 85q0 40 34.5 63.5t94.5 23.5q123 0 123 -84z
M330 775q0 33 -36 33q-37 0 -37 -33t37 -33q36 0 36 33z" />
    <glyph glyph-name="AE" unicode="&#xc6;" horiz-adv-x="749" 
d="M708 0h-372v124h-160q-21 -59 -40 -124h-162q120 349 266 675h464v-127h-200v-142h167v-121h-167v-157h204v-128zM336 248v300h-2q-69 -164 -118 -300h120z" />
    <glyph glyph-name="Ccedilla" unicode="&#xc7;" horiz-adv-x="514" 
d="M437 180l68 -87q-34 -50 -89.5 -78t-118.5 -28q-135 0 -200 83t-65 254q0 177 71 270.5t197 93.5q134 0 193 -110l-75 -75q-39 51 -94 51q-57 0 -86.5 -56.5t-29.5 -152.5q0 -122 29.5 -172.5t88.5 -50.5t111 58zM225 -42h135q17 -87 -89 -144l-93 33q37 31 46.5 55.5
t0.5 55.5z" />
    <glyph glyph-name="Egrave" unicode="&#xc8;" horiz-adv-x="476" 
d="M435 0h-372v675h368v-127h-200v-142h167v-121h-167v-157h204v-128zM328 780l-49 -67l-211 56l71 92z" />
    <glyph glyph-name="Eacute" unicode="&#xc9;" horiz-adv-x="476" 
d="M435 0h-372v675h368v-127h-200v-142h167v-121h-167v-157h204v-128zM167 780l189 81l71 -92l-211 -56z" />
    <glyph glyph-name="Ecircumflex" unicode="&#xca;" horiz-adv-x="476" 
d="M435 0h-372v675h368v-127h-200v-142h167v-121h-167v-157h204v-128zM247 861l157 -83l-40 -65l-119 47l-118 -47l-39 62z" />
    <glyph glyph-name="Edieresis" unicode="&#xcb;" horiz-adv-x="476" 
d="M435 0h-372v675h368v-127h-200v-142h167v-121h-167v-157h204v-128zM425 784q0 -35 -17 -50t-56 -15q-41 0 -57.5 14t-16.5 51q0 36 16.5 51t57.5 15q40 0 56.5 -14.5t16.5 -51.5zM215 784q0 -35 -16.5 -50t-56.5 -15q-41 0 -57.5 14.5t-16.5 50.5q0 35 17 50.5t57 15.5
q41 0 57 -14.5t16 -51.5z" />
    <glyph glyph-name="Igrave" unicode="&#xcc;" horiz-adv-x="294" 
d="M231 0h-168v675h168v-675zM231 780l-49 -67l-211 56l71 92z" />
    <glyph glyph-name="Iacute" unicode="&#xcd;" horiz-adv-x="294" 
d="M231 0h-168v675h168v-675zM53 780l189 81l71 -92l-211 -56z" />
    <glyph glyph-name="Icircumflex" unicode="&#xce;" horiz-adv-x="294" 
d="M231 0h-168v675h168v-675zM147 861l157 -83l-40 -65l-119 47l-118 -47l-39 62z" />
    <glyph glyph-name="Idieresis" unicode="&#xcf;" horiz-adv-x="294" 
d="M231 0h-168v675h168v-675zM301 784q0 -35 -15.5 -50t-52.5 -15q-38 0 -53.5 14t-15.5 51q0 36 15.5 51t53.5 15q37 0 52.5 -15t15.5 -51zM130 784q0 -35 -15.5 -50t-52.5 -15q-38 0 -53.5 14.5t-15.5 50.5q0 35 16 50.5t53 15.5q38 0 53 -14.5t15 -51.5z" />
    <glyph glyph-name="Eth" unicode="&#xd0;" horiz-adv-x="615" 
d="M73 406v269q40 0 110.5 1t102.5 1q297 0 297 -320q0 -361 -326 -361q-34 0 -98.5 2t-85.5 2v285h-48v121h48zM241 552v-146h82v-121h-82v-160q26 -2 36 -2q130 0 130 217q0 112 -32 162.5t-97 50.5q-24 0 -37 -1z" />
    <glyph glyph-name="Ntilde" unicode="&#xd1;" horiz-adv-x="650" 
d="M587 0h-182l-157 333q-12 24 -25.5 56.5t-20.5 52.5l-8 21h-2q8 -116 8 -165v-298h-137v675h200l138 -290q11 -22 25 -55t22 -54l8 -22h1q-8 118 -8 167v254h138v-675zM451 856l63 -43q-46 -96 -131 -96q-38 0 -71 22t-43 22q-13 0 -23.5 -9t-27.5 -34l-64 43
q48 96 131 96q38 0 71.5 -22.5t43.5 -22.5q13 0 23 9t28 35z" />
    <glyph glyph-name="Ograve" unicode="&#xd2;" horiz-adv-x="643" 
d="M611 351q0 -184 -77.5 -274t-218.5 -90q-145 0 -214 79t-69 258q0 184 77.5 274t218.5 90q145 0 214 -79t69 -258zM435 326q0 93 -14.5 146t-39 71t-63.5 18q-53 0 -81.5 -46t-28.5 -166q0 -135 29 -184.5t88 -49.5q53 0 81.5 45.5t28.5 165.5zM376 780l-49 -67l-211 56
l71 92z" />
    <glyph glyph-name="Oacute" unicode="&#xd3;" horiz-adv-x="643" 
d="M611 351q0 -184 -77.5 -274t-218.5 -90q-145 0 -214 79t-69 258q0 184 77.5 274t218.5 90q145 0 214 -79t69 -258zM435 326q0 93 -14.5 146t-39 71t-63.5 18q-53 0 -81.5 -46t-28.5 -166q0 -135 29 -184.5t88 -49.5q53 0 81.5 45.5t28.5 165.5zM245 780l189 81l71 -92
l-211 -56z" />
    <glyph glyph-name="Ocircumflex" unicode="&#xd4;" horiz-adv-x="643" 
d="M611 351q0 -184 -77.5 -274t-218.5 -90q-145 0 -214 79t-69 258q0 184 77.5 274t218.5 90q145 0 214 -79t69 -258zM435 326q0 93 -14.5 146t-39 71t-63.5 18q-53 0 -81.5 -46t-28.5 -166q0 -135 29 -184.5t88 -49.5q53 0 81.5 45.5t28.5 165.5zM322 861l157 -83l-40 -65
l-119 47l-118 -47l-39 62z" />
    <glyph glyph-name="Otilde" unicode="&#xd5;" horiz-adv-x="643" 
d="M611 351q0 -184 -77.5 -274t-218.5 -90q-145 0 -214 79t-69 258q0 184 77.5 274t218.5 90q145 0 214 -79t69 -258zM435 326q0 93 -14.5 146t-39 71t-63.5 18q-53 0 -81.5 -46t-28.5 -166q0 -135 29 -184.5t88 -49.5q53 0 81.5 45.5t28.5 165.5zM439 856l63 -43
q-46 -96 -131 -96q-38 0 -71 22t-43 22q-13 0 -23.5 -9t-27.5 -34l-64 43q48 96 131 96q38 0 71.5 -22.5t43.5 -22.5q13 0 23 9t28 35z" />
    <glyph glyph-name="Odieresis" unicode="&#xd6;" horiz-adv-x="643" 
d="M611 351q0 -184 -77.5 -274t-218.5 -90q-145 0 -214 79t-69 258q0 184 77.5 274t218.5 90q145 0 214 -79t69 -258zM435 326q0 93 -14.5 146t-39 71t-63.5 18q-53 0 -81.5 -46t-28.5 -166q0 -135 29 -184.5t88 -49.5q53 0 81.5 45.5t28.5 165.5zM499 784q0 -35 -17 -50
t-56 -15q-41 0 -57.5 14t-16.5 51q0 36 16.5 51t57.5 15q40 0 56.5 -14.5t16.5 -51.5zM289 784q0 -35 -16.5 -50t-56.5 -15q-41 0 -57.5 14.5t-16.5 50.5q0 35 17 50.5t57 15.5q41 0 57 -14.5t16 -51.5z" />
    <glyph glyph-name="multiply" unicode="&#xd7;" 
d="M335 301l124 -125l-84 -84l-124 124l-124 -124l-84 84l124 124l-124 124l84 84l124 -123l124 123l84 -84z" />
    <glyph glyph-name="Oslash" unicode="&#xd8;" horiz-adv-x="643" 
d="M611 351q0 -184 -77.5 -274t-218.5 -90q-80 0 -136 26l-58 -97l-83 44l63 105q-69 81 -69 259q0 184 77.5 274t218.5 90q81 0 136 -26l58 97l83 -44l-64 -105q70 -81 70 -259zM446 325q0 45 -5 120l-190 -315q27 -24 75 -24q58 0 89 47t31 172zM317 570q-38 0 -63 -17
t-41 -67t-16 -136q0 -34 6 -118l189 314q-28 24 -75 24z" />
    <glyph glyph-name="Ugrave" unicode="&#xd9;" horiz-adv-x="652" 
d="M590 675v-434q0 -133 -73.5 -193.5t-201.5 -60.5t-190.5 55.5t-62.5 181.5v451h168v-434q0 -73 22.5 -102.5t73.5 -29.5q50 0 74.5 27t24.5 95v444h165zM385 780l-49 -67l-211 56l71 92z" />
    <glyph glyph-name="Uacute" unicode="&#xda;" horiz-adv-x="652" 
d="M590 675v-434q0 -133 -73.5 -193.5t-201.5 -60.5t-190.5 55.5t-62.5 181.5v451h168v-434q0 -73 22.5 -102.5t73.5 -29.5q50 0 74.5 27t24.5 95v444h165zM265 780l189 81l71 -92l-211 -56z" />
    <glyph glyph-name="Ucircumflex" unicode="&#xdb;" horiz-adv-x="652" 
d="M590 675v-434q0 -133 -73.5 -193.5t-201.5 -60.5t-190.5 55.5t-62.5 181.5v451h168v-434q0 -73 22.5 -102.5t73.5 -29.5q50 0 74.5 27t24.5 95v444h165zM327 861l157 -83l-40 -65l-119 47l-118 -47l-39 62z" />
    <glyph glyph-name="Udieresis" unicode="&#xdc;" horiz-adv-x="652" 
d="M590 675v-434q0 -133 -73.5 -193.5t-201.5 -60.5t-190.5 55.5t-62.5 181.5v451h168v-434q0 -73 22.5 -102.5t73.5 -29.5q50 0 74.5 27t24.5 95v444h165zM504 784q0 -35 -17 -50t-56 -15q-41 0 -57.5 14t-16.5 51q0 36 16.5 51t57.5 15q40 0 56.5 -14.5t16.5 -51.5z
M294 784q0 -35 -16.5 -50t-56.5 -15q-41 0 -57.5 14.5t-16.5 50.5q0 35 17 50.5t57 15.5q41 0 57 -14.5t16 -51.5z" />
    <glyph glyph-name="Yacute" unicode="&#xdd;" horiz-adv-x="494" 
d="M337 675h164q-76 -241 -171 -400v-275h-168v275q-104 184 -169 400h181q40 -144 83 -245h2q40 91 78 245zM188 780l189 81l71 -92l-211 -56z" />
    <glyph glyph-name="Thorn" unicode="&#xde;" horiz-adv-x="557" 
d="M231 0h-168v675h168v-100q27 1 56 1q255 0 255 -217q0 -246 -290 -246h-21v-113zM231 454v-220h31q104 0 104 111q0 56 -24 82.5t-80 26.5h-31z" />
    <glyph glyph-name="germandbls" unicode="&#xdf;" horiz-adv-x="578" 
d="M213 0h-160v493q0 110 63 169.5t175 59.5q108 0 161 -42t53 -113q0 -46 -14 -77t-30.5 -43t-30.5 -28t-14 -37q0 -17 15 -34t36.5 -33t43 -35.5t36.5 -50.5t15 -70q0 -74 -43 -121t-127 -47q-74 0 -135 37l11 78q50 -8 78 -8t41 12.5t13 32.5q0 21 -15 38t-36 32
t-42 32.5t-36 47t-15 67.5q0 35 15.5 62.5t33.5 42.5t33.5 36t15.5 45q0 62 -65 62q-41 0 -58.5 -26t-17.5 -84v-498z" />
    <glyph glyph-name="agrave" unicode="&#xe0;" horiz-adv-x="520" 
d="M468 0h-123l-10 47q-68 -60 -151 -60q-74 0 -118.5 42t-44.5 114q0 171 263 171h26v28q0 61 -82 61q-71 0 -159 -30l-20 96q113 48 218 48q97 0 149 -42t52 -118v-357zM310 133v86h-32q-102 0 -102 -63q0 -57 56 -57q39 0 78 34zM332 592l-80 -41l-163 121l111 57z" />
    <glyph glyph-name="aacute" unicode="&#xe1;" horiz-adv-x="520" 
d="M468 0h-123l-10 47q-68 -60 -151 -60q-74 0 -118.5 42t-44.5 114q0 171 263 171h26v28q0 61 -82 61q-71 0 -159 -30l-20 96q113 48 218 48q97 0 149 -42t52 -118v-357zM310 133v86h-32q-102 0 -102 -63q0 -57 56 -57q39 0 78 34zM424 672l-162 -121l-81 41l133 137z" />
    <glyph glyph-name="acircumflex" unicode="&#xe2;" horiz-adv-x="520" 
d="M468 0h-123l-10 47q-68 -60 -151 -60q-74 0 -118.5 42t-44.5 114q0 171 263 171h26v28q0 61 -82 61q-71 0 -159 -30l-20 96q113 48 218 48q97 0 149 -42t52 -118v-357zM310 133v86h-32q-102 0 -102 -63q0 -57 56 -57q39 0 78 34zM412 615l-47 -63l-105 65l-106 -65
l-46 61l155 123z" />
    <glyph glyph-name="atilde" unicode="&#xe3;" horiz-adv-x="520" 
d="M468 0h-123l-10 47q-68 -60 -151 -60q-74 0 -118.5 42t-44.5 114q0 171 263 171h26v28q0 61 -82 61q-71 0 -159 -30l-20 96q113 48 218 48q97 0 149 -42t52 -118v-357zM310 133v86h-32q-102 0 -102 -63q0 -57 56 -57q39 0 78 34zM366 704l60 -44q-45 -97 -125 -97
q-28 0 -49.5 11.5t-36 22.5t-25.5 11q-12 0 -22 -9.5t-27 -35.5l-61 44q46 97 126 97q37 0 69 -22.5t42 -22.5q12 0 22 9.5t27 35.5z" />
    <glyph glyph-name="adieresis" unicode="&#xe4;" horiz-adv-x="520" 
d="M468 0h-123l-10 47q-68 -60 -151 -60q-74 0 -118.5 42t-44.5 114q0 171 263 171h26v28q0 61 -82 61q-71 0 -159 -30l-20 96q113 48 218 48q97 0 149 -42t52 -118v-357zM310 133v86h-32q-102 0 -102 -63q0 -57 56 -57q39 0 78 34zM436 631q0 -37 -16.5 -53t-56.5 -16
q-41 0 -57.5 15.5t-16.5 53.5q0 39 16.5 55t57.5 16t57 -15.5t16 -55.5zM233 631q0 -37 -16.5 -53t-57.5 -16t-57.5 15.5t-16.5 53.5t17 54.5t57 16.5q41 0 57.5 -15.5t16.5 -55.5z" />
    <glyph glyph-name="aring" unicode="&#xe5;" horiz-adv-x="520" 
d="M468 0h-123l-10 47q-68 -60 -151 -60q-74 0 -118.5 42t-44.5 114q0 171 263 171h26v28q0 61 -82 61q-71 0 -159 -30l-20 96q113 48 218 48q97 0 149 -42t52 -118v-357zM310 133v86h-32q-102 0 -102 -63q0 -57 56 -57q39 0 78 34zM392 651q0 -52 -36 -81t-99 -29
q-131 0 -131 106q0 51 36.5 80.5t98.5 29.5q131 0 131 -106zM297 649q0 40 -38 40t-38 -40t38 -40t38 40z" />
    <glyph glyph-name="ae" unicode="&#xe6;" horiz-adv-x="793" 
d="M735 136l21 -90q-111 -59 -224 -59q-128 0 -177 79q-72 -79 -171 -79q-74 0 -118.5 42t-44.5 114q0 171 263 171h26v28q0 61 -82 61q-71 0 -159 -30l-20 96q113 48 217 48q94 0 140 -49q58 49 140 49q110 0 167 -68.5t46 -231.5h-294v-5q0 -104 97 -104q73 0 173 28z
M310 219h-32q-102 0 -102 -63q0 -57 56 -57q46 0 78 44v76zM466 314h139v2q0 96 -66 96q-33 0 -52 -25.5t-21 -72.5z" />
    <glyph glyph-name="ccedilla" unicode="&#xe7;" horiz-adv-x="421" 
d="M365 143l47 -82q-72 -72 -176 -72q-207 0 -207 257q0 120 59 195.5t160 75.5q97 0 155 -63l-55 -83q-35 28 -75 28q-36 0 -57 -35.5t-21 -106.5q0 -81 18.5 -115t58.5 -34q45 0 93 35zM163 -42h135q17 -87 -89 -144l-93 33q37 31 46.5 55.5t0.5 55.5z" />
    <glyph glyph-name="egrave" unicode="&#xe8;" horiz-adv-x="520" 
d="M485 217h-293v-5q0 -104 97 -104q74 0 172 28l21 -90q-110 -59 -224 -59q-110 0 -169.5 59t-59.5 194t64 206t178 71q111 0 168 -68.5t46 -231.5zM193 314h139v2q0 96 -66 96q-33 0 -52 -25.5t-21 -72.5zM339 592l-80 -41l-163 121l111 57z" />
    <glyph glyph-name="eacute" unicode="&#xe9;" horiz-adv-x="520" 
d="M485 217h-293v-5q0 -104 97 -104q74 0 172 28l21 -90q-110 -59 -224 -59q-110 0 -169.5 59t-59.5 194t64 206t178 71q111 0 168 -68.5t46 -231.5zM193 314h139v2q0 96 -66 96q-33 0 -52 -25.5t-21 -72.5zM429 672l-162 -121l-81 41l133 137z" />
    <glyph glyph-name="ecircumflex" unicode="&#xea;" horiz-adv-x="520" 
d="M485 217h-293v-5q0 -104 97 -104q74 0 172 28l21 -90q-110 -59 -224 -59q-110 0 -169.5 59t-59.5 194t64 206t178 71q111 0 168 -68.5t46 -231.5zM193 314h139v2q0 96 -66 96q-33 0 -52 -25.5t-21 -72.5zM419 615l-47 -63l-105 65l-106 -65l-46 61l155 123z" />
    <glyph glyph-name="edieresis" unicode="&#xeb;" horiz-adv-x="520" 
d="M485 217h-293v-5q0 -104 97 -104q74 0 172 28l21 -90q-110 -59 -224 -59q-110 0 -169.5 59t-59.5 194t64 206t178 71q111 0 168 -68.5t46 -231.5zM193 314h139v2q0 96 -66 96q-33 0 -52 -25.5t-21 -72.5zM443 631q0 -37 -16.5 -53t-56.5 -16q-41 0 -57.5 15.5t-16.5 53.5
q0 39 16.5 55t57.5 16t57 -15.5t16 -55.5zM240 631q0 -37 -16.5 -53t-57.5 -16t-57.5 15.5t-16.5 53.5t17 54.5t57 16.5q41 0 57.5 -15.5t16.5 -55.5z" />
    <glyph glyph-name="igrave" unicode="&#xec;" horiz-adv-x="267" 
d="M213 0h-160v505h160v-505zM228 592l-80 -41l-163 121l111 57z" />
    <glyph glyph-name="iacute" unicode="&#xed;" horiz-adv-x="267" 
d="M213 0h-160v505h160v-505zM290 672l-162 -121l-81 41l133 137z" />
    <glyph glyph-name="icircumflex" unicode="&#xee;" horiz-adv-x="267" 
d="M213 0h-160v505h160v-505zM285 615l-47 -63l-105 65l-106 -65l-46 61l155 123z" />
    <glyph glyph-name="idieresis" unicode="&#xef;" horiz-adv-x="267" 
d="M213 0h-160v505h160v-505zM296 631q0 -37 -16 -53t-56 -16t-56 15.5t-16 53.5q0 39 16 55t56 16t56 -15.5t16 -55.5zM115 631q0 -37 -15.5 -53t-55.5 -16t-56 15.5t-16 53.5q0 39 16 55t56 16t55.5 -15.5t15.5 -55.5z" />
    <glyph glyph-name="eth" unicode="&#xf0;" horiz-adv-x="542" 
d="M493 621l-78 -24q99 -131 99 -286q0 -322 -262 -322q-112 0 -170.5 62t-58.5 177q0 127 63.5 204t179.5 77q24 0 34 -4q-12 23 -43 62l-87 -27l-61 71l86 26q-43 43 -84 72h193q24 -14 49 -41l79 24zM340 273q0 72 -14 123q-17 5 -42 5q-88 0 -88 -148q0 -143 73 -143
q37 0 54 32t17 131z" />
    <glyph glyph-name="ntilde" unicode="&#xf1;" horiz-adv-x="551" 
d="M497 0h-160q0 62 2 152t2 109q0 79 -12 104t-40 25q-31 0 -76 -30v-360h-160v505h131l11 -50q67 62 148 62q82 0 120 -54.5t38 -176.5q0 -22 -2 -120.5t-2 -165.5zM391 704l60 -44q-45 -97 -125 -97q-28 0 -49.5 11.5t-36 22.5t-25.5 11q-12 0 -22 -9.5t-27 -35.5l-61 44
q46 97 126 97q37 0 69 -22.5t42 -22.5q12 0 22 9.5t27 35.5z" />
    <glyph glyph-name="ograve" unicode="&#xf2;" horiz-adv-x="549" 
d="M520 262q0 -137 -66.5 -206t-188.5 -69q-118 0 -177 60t-59 195q0 137 66.5 206t188.5 69q118 0 177 -60t59 -195zM356 241q0 94 -20.5 127t-61.5 33q-81 0 -81 -137q0 -95 20 -127.5t62 -32.5q81 0 81 137zM348 592l-80 -41l-163 121l111 57z" />
    <glyph glyph-name="oacute" unicode="&#xf3;" horiz-adv-x="549" 
d="M520 262q0 -137 -66.5 -206t-188.5 -69q-118 0 -177 60t-59 195q0 137 66.5 206t188.5 69q118 0 177 -60t59 -195zM356 241q0 94 -20.5 127t-61.5 33q-81 0 -81 -137q0 -95 20 -127.5t62 -32.5q81 0 81 137zM432 672l-162 -121l-81 41l133 137z" />
    <glyph glyph-name="ocircumflex" unicode="&#xf4;" horiz-adv-x="549" 
d="M520 262q0 -137 -66.5 -206t-188.5 -69q-118 0 -177 60t-59 195q0 137 66.5 206t188.5 69q118 0 177 -60t59 -195zM356 241q0 94 -20.5 127t-61.5 33q-81 0 -81 -137q0 -95 20 -127.5t62 -32.5q81 0 81 137zM429 615l-47 -63l-105 65l-106 -65l-46 61l155 123z" />
    <glyph glyph-name="otilde" unicode="&#xf5;" horiz-adv-x="549" 
d="M520 262q0 -137 -66.5 -206t-188.5 -69q-118 0 -177 60t-59 195q0 137 66.5 206t188.5 69q118 0 177 -60t59 -195zM356 241q0 94 -20.5 127t-61.5 33q-81 0 -81 -137q0 -95 20 -127.5t62 -32.5q81 0 81 137zM388 704l60 -44q-45 -97 -125 -97q-28 0 -49.5 11.5t-36 22.5
t-25.5 11q-12 0 -22 -9.5t-27 -35.5l-61 44q46 97 126 97q37 0 69 -22.5t42 -22.5q12 0 22 9.5t27 35.5z" />
    <glyph glyph-name="odieresis" unicode="&#xf6;" horiz-adv-x="549" 
d="M520 262q0 -137 -66.5 -206t-188.5 -69q-118 0 -177 60t-59 195q0 137 66.5 206t188.5 69q118 0 177 -60t59 -195zM356 241q0 94 -20.5 127t-61.5 33q-81 0 -81 -137q0 -95 20 -127.5t62 -32.5q81 0 81 137zM452 631q0 -37 -16.5 -53t-56.5 -16q-41 0 -57.5 15.5
t-16.5 53.5q0 39 16.5 55t57.5 16t57 -15.5t16 -55.5zM249 631q0 -37 -16.5 -53t-57.5 -16t-57.5 15.5t-16.5 53.5t17 54.5t57 16.5q41 0 57.5 -15.5t16.5 -55.5z" />
    <glyph glyph-name="divide" unicode="&#xf7;" 
d="M332 108q0 -46 -16 -62t-65 -16q-51 0 -67.5 16t-16.5 61q0 47 16.5 63t67.5 16q49 0 65 -16t16 -62zM466 245h-432v111h432v-111zM332 492q0 -45 -16 -61t-65 -16q-51 0 -67.5 16t-16.5 62t16.5 62t67.5 16q49 0 65 -16t16 -63z" />
    <glyph glyph-name="oslash" unicode="&#xf8;" horiz-adv-x="549" 
d="M513 544l-54 -85q61 -61 61 -197q0 -137 -66.5 -206t-188.5 -69q-50 0 -94 14l-52 -83l-83 44l53 85q-60 60 -60 195q0 138 66 206.5t188 68.5q60 0 95 -13l52 83zM367 318l-133 -215q12 -8 41 -8q94 0 94 145q0 36 -2 78zM182 186l132 216q-14 8 -40 8q-94 0 -94 -145
q0 -35 2 -79z" />
    <glyph glyph-name="ugrave" unicode="&#xf9;" horiz-adv-x="551" 
d="M497 0h-130l-11 49q-70 -62 -148 -62q-82 0 -120.5 55t-38.5 177q0 21 2 120t2 166h161q0 -61 -2 -152t-2 -110q0 -76 11.5 -102t40.5 -26q30 0 75 30v360h160v-505zM358 592l-80 -41l-163 121l111 57z" />
    <glyph glyph-name="uacute" unicode="&#xfa;" horiz-adv-x="551" 
d="M497 0h-130l-11 49q-70 -62 -148 -62q-82 0 -120.5 55t-38.5 177q0 21 2 120t2 166h161q0 -61 -2 -152t-2 -110q0 -76 11.5 -102t40.5 -26q30 0 75 30v360h160v-505zM435 672l-162 -121l-81 41l133 137z" />
    <glyph glyph-name="ucircumflex" unicode="&#xfb;" horiz-adv-x="551" 
d="M497 0h-130l-11 49q-70 -62 -148 -62q-82 0 -120.5 55t-38.5 177q0 21 2 120t2 166h161q0 -61 -2 -152t-2 -110q0 -76 11.5 -102t40.5 -26q30 0 75 30v360h160v-505zM428 615l-47 -63l-105 65l-106 -65l-46 61l155 123z" />
    <glyph glyph-name="udieresis" unicode="&#xfc;" horiz-adv-x="551" 
d="M497 0h-130l-11 49q-70 -62 -148 -62q-82 0 -120.5 55t-38.5 177q0 21 2 120t2 166h161q0 -61 -2 -152t-2 -110q0 -76 11.5 -102t40.5 -26q30 0 75 30v360h160v-505zM451 631q0 -37 -16.5 -53t-56.5 -16q-41 0 -57.5 15.5t-16.5 53.5q0 39 16.5 55t57.5 16t57 -15.5
t16 -55.5zM248 631q0 -37 -16.5 -53t-57.5 -16t-57.5 15.5t-16.5 53.5t17 54.5t57 16.5q41 0 57.5 -15.5t16.5 -55.5z" />
    <glyph glyph-name="yacute" unicode="&#xfd;" horiz-adv-x="494" 
d="M321 505h164q-20 -180 -62 -316t-96 -214.5t-112.5 -116.5t-120.5 -38q-41 0 -85 25v91q24 -4 56 -4q42 0 62 16q22 18 22 43q0 22 -36 143l-107 371h171l59 -238q20 -74 22 -142h2q24 74 42 182.5t19 197.5zM421 672l-162 -121l-81 41l133 137z" />
    <glyph glyph-name="thorn" unicode="&#xfe;" horiz-adv-x="544" 
d="M213 -173h-160v882h160v-238q57 46 118 46q92 0 138 -68.5t46 -174.5q0 -146 -68.5 -216.5t-186.5 -70.5q-32 0 -47 3v-163zM213 360v-252q18 -8 49 -8q90 0 90 154q0 141 -67 141q-32 0 -72 -35z" />
    <glyph glyph-name="ydieresis" unicode="&#xff;" horiz-adv-x="494" 
d="M321 505h164q-20 -180 -62 -316t-96 -214.5t-112.5 -116.5t-120.5 -38q-41 0 -85 25v91q24 -4 56 -4q42 0 62 16q22 18 22 43q0 22 -36 143l-107 371h171l59 -238q20 -74 22 -142h2q24 74 42 182.5t19 197.5zM425 631q0 -37 -16.5 -53t-56.5 -16q-41 0 -57.5 15.5
t-16.5 53.5q0 39 16.5 55t57.5 16t57 -15.5t16 -55.5zM222 631q0 -37 -16.5 -53t-57.5 -16t-57.5 15.5t-16.5 53.5t17 54.5t57 16.5q41 0 57.5 -15.5t16.5 -55.5z" />
    <glyph glyph-name="Amacron" unicode="&#x100;" horiz-adv-x="589" 
d="M584 0h-180q-1 5 -10.5 54.5t-14.5 69.5h-190q-16 -73 -24 -124h-160q83 386 176 675h225q101 -314 178 -675zM213 248h142q-38 163 -71 283h-3q-37 -142 -68 -283zM441 736h-294v102h294v-102z" />
    <glyph glyph-name="amacron" unicode="&#x101;" horiz-adv-x="520" 
d="M468 0h-123l-10 47q-68 -60 -151 -60q-74 0 -118.5 42t-44.5 114q0 171 263 171h26v28q0 61 -82 61q-71 0 -159 -30l-20 96q113 48 218 48q97 0 149 -42t52 -118v-357zM310 133v86h-32q-102 0 -102 -63q0 -57 56 -57q39 0 78 34zM405 578h-291v109h291v-109z" />
    <glyph glyph-name="Abreve" unicode="&#x102;" horiz-adv-x="589" 
d="M584 0h-180q-1 5 -10.5 54.5t-14.5 69.5h-190q-16 -73 -24 -124h-160q83 386 176 675h225q101 -314 178 -675zM213 248h142q-38 163 -71 283h-3q-37 -142 -68 -283zM353 868h94q0 -75 -41 -117t-113 -42q-73 0 -113 40.5t-40 118.5h95q0 -59 58 -59q30 0 45 16t15 43z
" />
    <glyph glyph-name="abreve" unicode="&#x103;" horiz-adv-x="520" 
d="M468 0h-123l-10 47q-68 -60 -151 -60q-74 0 -118.5 42t-44.5 114q0 171 263 171h26v28q0 61 -82 61q-71 0 -159 -30l-20 96q113 48 218 48q97 0 149 -42t52 -118v-357zM310 133v86h-32q-102 0 -102 -63q0 -57 56 -57q39 0 78 34zM320 726h97q0 -86 -41.5 -131t-115.5 -45
q-155 0 -155 176h97q-1 -39 13 -55t45 -16t45.5 16t14.5 55z" />
    <glyph glyph-name="Aogonek" unicode="&#x104;" horiz-adv-x="589" 
d="M543 -90l20 -68q-48 -27 -106 -27q-107 0 -107 77q0 54 54 108q-1 5 -10.5 54.5t-14.5 69.5h-190q-16 -73 -24 -124h-160q83 386 176 675h225q101 -314 178 -675q-59 -5 -83.5 -28t-24.5 -50q0 -23 28 -23q21 0 39 11zM213 248h142q-38 163 -71 283h-3q-37 -142 -68 -283
z" />
    <glyph glyph-name="aogonek" unicode="&#x105;" horiz-adv-x="520" 
d="M475 -90l20 -68q-49 -27 -106 -27q-107 0 -107 77q0 62 61 115l-8 40q-68 -60 -151 -60q-79 0 -121 38t-42 111q0 83 67 130.5t196 47.5h26v28q0 61 -82 61q-71 0 -159 -30l-20 96q113 48 218 48q97 0 149 -42t52 -118v-357q-61 -35 -61 -78q0 -23 28 -23q20 0 40 11z
M310 133v86h-32q-102 0 -102 -66q0 -54 56 -54q37 0 78 34z" />
    <glyph glyph-name="Cacute" unicode="&#x106;" horiz-adv-x="514" 
d="M437 180l68 -87q-34 -50 -89.5 -78t-118.5 -28q-135 0 -200 83t-65 254q0 177 71 270.5t197 93.5q134 0 193 -110l-75 -75q-39 51 -94 51q-57 0 -86.5 -56.5t-29.5 -152.5q0 -122 29.5 -172.5t88.5 -50.5t111 58zM223 780l189 81l71 -92l-211 -56z" />
    <glyph glyph-name="cacute" unicode="&#x107;" horiz-adv-x="421" 
d="M365 143l47 -82q-72 -72 -176 -72q-207 0 -207 257q0 120 59 195.5t160 75.5q97 0 155 -63l-55 -83q-35 28 -75 28q-36 0 -57 -35.5t-21 -106.5q0 -81 18.5 -115t58.5 -34q45 0 93 35zM424 672l-162 -121l-81 41l133 137z" />
    <glyph glyph-name="Ccircumflex" unicode="&#x108;" horiz-adv-x="514" 
d="M437 180l68 -87q-34 -50 -89.5 -78t-118.5 -28q-135 0 -200 83t-65 254q0 177 71 270.5t197 93.5q134 0 193 -110l-75 -75q-39 51 -94 51q-57 0 -86.5 -56.5t-29.5 -152.5q0 -122 29.5 -172.5t88.5 -50.5t111 58zM298 861l157 -83l-40 -65l-119 47l-118 -47l-39 62z" />
    <glyph glyph-name="ccircumflex" unicode="&#x109;" horiz-adv-x="421" 
d="M365 143l47 -82q-72 -72 -176 -72q-207 0 -207 257q0 120 59 195.5t160 75.5q97 0 155 -63l-55 -83q-35 28 -75 28q-36 0 -57 -35.5t-21 -106.5q0 -81 18.5 -115t58.5 -34q45 0 93 35zM397 615l-47 -63l-105 65l-106 -65l-46 61l155 123z" />
    <glyph glyph-name="Cdotaccent" unicode="&#x10a;" horiz-adv-x="514" 
d="M437 180l68 -87q-34 -50 -89.5 -78t-118.5 -28q-135 0 -200 83t-65 254q0 177 71 270.5t197 93.5q134 0 193 -110l-75 -75q-39 51 -94 51q-57 0 -86.5 -56.5t-29.5 -152.5q0 -122 29.5 -172.5t88.5 -50.5t111 58zM381 793q0 -38 -19 -53.5t-68 -15.5q-50 0 -67.5 14.5
t-17.5 54.5q0 38 18.5 53t67.5 15q50 0 68 -14t18 -54z" />
    <glyph glyph-name="cdotaccent" unicode="&#x10b;" horiz-adv-x="421" 
d="M365 143l47 -82q-72 -72 -176 -72q-207 0 -207 257q0 120 59 195.5t160 75.5q97 0 155 -63l-55 -83q-35 28 -75 28q-36 0 -57 -35.5t-21 -106.5q0 -81 18.5 -115t58.5 -34q45 0 93 35zM335 639q0 -43 -19.5 -60t-73.5 -17q-56 0 -75.5 16.5t-19.5 60.5q0 43 20 60t75 17
t74 -16.5t19 -60.5z" />
    <glyph glyph-name="Ccaron" unicode="&#x10c;" horiz-adv-x="514" 
d="M437 180l68 -87q-34 -50 -89.5 -78t-118.5 -28q-135 0 -200 83t-65 254q0 177 71 270.5t197 93.5q134 0 193 -110l-75 -75q-39 51 -94 51q-57 0 -86.5 -56.5t-29.5 -152.5q0 -122 29.5 -172.5t88.5 -50.5t111 58zM299 713l-158 84l41 64l118 -46l119 46l38 -62z" />
    <glyph glyph-name="ccaron" unicode="&#x10d;" horiz-adv-x="421" 
d="M365 143l47 -82q-72 -72 -176 -72q-207 0 -207 257q0 120 59 195.5t160 75.5q97 0 155 -63l-55 -83q-35 28 -75 28q-36 0 -57 -35.5t-21 -106.5q0 -81 18.5 -115t58.5 -34q45 0 93 35zM395 673l-155 -122l-149 121l47 63l105 -65l107 65z" />
    <glyph glyph-name="Dcaron" unicode="&#x10e;" horiz-adv-x="605" 
d="M63 0v675q41 0 111 1t101 1q298 0 298 -320q0 -361 -326 -361q-35 0 -99.5 2t-84.5 2zM231 552v-427q26 -2 36 -2q130 0 130 217q0 112 -32 162.5t-97 50.5q-24 0 -37 -1zM287 713l-158 84l41 64l118 -46l119 46l38 -62z" />
    <glyph glyph-name="dcaron" unicode="&#x10f;" horiz-adv-x="626" 
d="M490 0h-130l-11 48q-68 -61 -138 -61q-91 0 -136.5 69t-45.5 175q0 146 68.5 216t185.5 70q29 0 47 -2v194h160v-709zM330 142v255q-26 8 -49 8q-89 0 -89 -154q0 -141 67 -141q31 0 71 32zM657 742l-64 -192l-78 13l33 200z" />
    <glyph glyph-name="Dcroat" unicode="&#x110;" horiz-adv-x="615" 
d="M73 406v269q40 0 110.5 1t102.5 1q297 0 297 -320q0 -361 -326 -361q-34 0 -98.5 2t-85.5 2v285h-48v121h48zM241 552v-146h82v-121h-82v-160q26 -2 36 -2q130 0 130 217q0 112 -32 162.5t-97 50.5q-24 0 -37 -1z" />
    <glyph glyph-name="dcroat" unicode="&#x111;" horiz-adv-x="544" 
d="M490 556v-556h-130l-11 48q-68 -61 -138 -61q-91 0 -136.5 69t-45.5 175q0 146 68.5 216t185.5 70q29 0 47 -2v41h-83v86h83v67h160v-67h58v-86h-58zM330 142v255q-26 8 -49 8q-89 0 -89 -154q0 -141 67 -141q31 0 71 32z" />
    <glyph glyph-name="Emacron" unicode="&#x112;" horiz-adv-x="476" 
d="M435 0h-372v675h368v-127h-200v-142h167v-121h-167v-157h204v-128zM393 736h-294v102h294v-102z" />
    <glyph glyph-name="emacron" unicode="&#x113;" horiz-adv-x="520" 
d="M485 217h-293v-5q0 -104 97 -104q74 0 172 28l21 -90q-110 -59 -224 -59q-110 0 -169.5 59t-59.5 194t64 206t178 71q111 0 168 -68.5t46 -231.5zM193 314h139v2q0 96 -66 96q-33 0 -52 -25.5t-21 -72.5zM409 578h-291v109h291v-109z" />
    <glyph glyph-name="Ebreve" unicode="&#x114;" horiz-adv-x="476" 
d="M435 0h-372v675h368v-127h-200v-142h167v-121h-167v-157h204v-128zM303 868h94q0 -75 -41 -117t-113 -42q-73 0 -113 40.5t-40 118.5h95q0 -59 58 -59q30 0 45 16t15 43z" />
    <glyph glyph-name="ebreve" unicode="&#x115;" horiz-adv-x="520" 
d="M485 217h-293v-5q0 -104 97 -104q74 0 172 28l21 -90q-110 -59 -224 -59q-110 0 -169.5 59t-59.5 194t64 206t178 71q111 0 168 -68.5t46 -231.5zM193 314h139v2q0 96 -66 96q-33 0 -52 -25.5t-21 -72.5zM323 726h97q0 -86 -41.5 -131t-115.5 -45q-155 0 -155 176h97
q-1 -39 13 -55t45 -16t45.5 16t14.5 55z" />
    <glyph glyph-name="Edotaccent" unicode="&#x116;" horiz-adv-x="476" 
d="M435 0h-372v675h368v-127h-200v-142h167v-121h-167v-157h204v-128zM334 788q0 -38 -19 -53.5t-68 -15.5q-50 0 -67.5 14.5t-17.5 54.5q0 38 18.5 53t67.5 15q50 0 68 -14t18 -54z" />
    <glyph glyph-name="edotaccent" unicode="&#x117;" horiz-adv-x="520" 
d="M485 217h-293v-5q0 -104 97 -104q74 0 172 28l21 -90q-110 -59 -224 -59q-110 0 -169.5 59t-59.5 194t64 206t178 71q111 0 168 -68.5t46 -231.5zM193 314h139v2q0 96 -66 96q-33 0 -52 -25.5t-21 -72.5zM359 639q0 -43 -19.5 -60t-73.5 -17q-56 0 -75.5 16.5t-19.5 60.5
q0 43 20 60t75 17t74 -16.5t19 -60.5z" />
    <glyph glyph-name="Eogonek" unicode="&#x118;" horiz-adv-x="476" 
d="M435 128v-128q-34 -13 -51.5 -34t-17.5 -44t28 -23q20 0 40 11l20 -68q-50 -27 -106 -27q-107 0 -107 77q0 57 53 108h-231v675h368v-127h-200v-142h167v-121h-167v-157h204z" />
    <glyph glyph-name="eogonek" unicode="&#x119;" horiz-adv-x="520" 
d="M461 136l21 -90q-33 -26 -59 -62.5t-26 -61.5q0 -23 27 -23q20 0 40 11l20 -68q-49 -27 -106 -27q-107 0 -107 77q0 54 49 101q-36 -6 -62 -6q-110 0 -169.5 59t-59.5 194t64 206t178 71q111 0 168 -68.5t46 -231.5h-293v-5q0 -104 97 -104q74 0 172 28zM193 314h139v2
q0 96 -66 96q-68 0 -73 -98z" />
    <glyph glyph-name="Ecaron" unicode="&#x11a;" horiz-adv-x="476" 
d="M435 0h-372v675h368v-127h-200v-142h167v-121h-167v-157h204v-128zM243 713l-158 84l41 64l118 -46l119 46l38 -62z" />
    <glyph glyph-name="ecaron" unicode="&#x11b;" horiz-adv-x="520" 
d="M485 217h-293v-5q0 -104 97 -104q74 0 172 28l21 -90q-110 -59 -224 -59q-110 0 -169.5 59t-59.5 194t64 206t178 71q111 0 168 -68.5t46 -231.5zM193 314h139v2q0 96 -66 96q-33 0 -52 -25.5t-21 -72.5zM419 673l-155 -122l-149 121l47 63l105 -65l107 65z" />
    <glyph glyph-name="Gcircumflex" unicode="&#x11c;" horiz-adv-x="578" 
d="M530 401v-332q-102 -82 -235 -82q-263 0 -263 334q0 181 78 274t215 93q64 0 116 -31t86 -83l-74 -67q-63 49 -121 49q-125 0 -125 -209q0 -122 26 -174.5t76 -52.5q30 0 56 15v145h-69v121h234zM319 861l157 -83l-40 -65l-119 47l-118 -47l-39 62z" />
    <glyph glyph-name="gcircumflex" unicode="&#x11d;" horiz-adv-x="544" 
d="M490 494v-473q0 -206 -228 -206q-83 0 -192 48l11 87q106 -17 163 -17q46 0 66 15t20 52v50q-61 -46 -119 -46q-89 0 -135.5 67.5t-46.5 168.5q0 140 72 208.5t200 68.5q89 0 189 -23zM330 155v241q-23 9 -49 9q-41 0 -65 -37t-24 -108q0 -137 67 -137q32 0 71 32z
M424 615l-47 -63l-105 65l-106 -65l-46 61l155 123z" />
    <glyph glyph-name="Gbreve" unicode="&#x11e;" horiz-adv-x="578" 
d="M530 401v-332q-102 -82 -235 -82q-263 0 -263 334q0 181 78 274t215 93q64 0 116 -31t86 -83l-74 -67q-63 49 -121 49q-125 0 -125 -209q0 -122 26 -174.5t76 -52.5q30 0 56 15v145h-69v121h234zM361 868h94q0 -75 -41 -117t-113 -42q-73 0 -113 40.5t-40 118.5h95
q0 -59 58 -59q30 0 45 16t15 43z" />
    <glyph glyph-name="gbreve" unicode="&#x11f;" horiz-adv-x="544" 
d="M490 494v-473q0 -206 -228 -206q-83 0 -192 48l11 87q106 -17 163 -17q46 0 66 15t20 52v50q-61 -46 -119 -46q-89 0 -135.5 67.5t-46.5 168.5q0 140 72 208.5t200 68.5q89 0 189 -23zM330 155v241q-23 9 -49 9q-41 0 -65 -37t-24 -108q0 -137 67 -137q32 0 71 32z
M342 726h97q0 -86 -41.5 -131t-115.5 -45q-155 0 -155 176h97q-1 -39 13 -55t45 -16t45.5 16t14.5 55z" />
    <glyph glyph-name="Gdotaccent" unicode="&#x120;" horiz-adv-x="578" 
d="M530 401v-332q-102 -82 -235 -82q-263 0 -263 334q0 181 78 274t215 93q64 0 116 -31t86 -83l-74 -67q-63 49 -121 49q-125 0 -125 -209q0 -122 26 -174.5t76 -52.5q30 0 56 15v145h-69v121h234zM398 793q0 -38 -19 -53.5t-68 -15.5q-50 0 -67.5 14.5t-17.5 54.5
q0 38 18.5 53t67.5 15q50 0 68 -14t18 -54z" />
    <glyph glyph-name="gdotaccent" unicode="&#x121;" horiz-adv-x="544" 
d="M490 494v-473q0 -206 -228 -206q-83 0 -192 48l11 87q106 -17 163 -17q46 0 66 15t20 52v50q-61 -46 -119 -46q-89 0 -135.5 67.5t-46.5 168.5q0 140 72 208.5t200 68.5q89 0 189 -23zM330 155v241q-23 9 -49 9q-41 0 -65 -37t-24 -108q0 -137 67 -137q32 0 71 32z
M365 639q0 -43 -19.5 -60t-73.5 -17q-56 0 -75.5 16.5t-19.5 60.5q0 43 20 60t75 17t74 -16.5t19 -60.5z" />
    <glyph glyph-name="Gcommaaccent" unicode="&#x122;" horiz-adv-x="578" 
d="M530 401v-332q-102 -82 -235 -82q-263 0 -263 334q0 181 78 274t215 93q64 0 116 -31t86 -83l-74 -67q-63 49 -121 49q-125 0 -125 -209q0 -122 26 -174.5t76 -52.5q30 0 56 15v145h-69v121h234zM303 -31q28 0 45 -16t17 -43q0 -96 -164 -93l-17 50q60 9 60 33
q0 3 -2.5 9.5t-2.5 14.5q0 19 17 32t47 13z" />
    <glyph glyph-name="gcommaaccent" unicode="&#x123;" horiz-adv-x="544" 
d="M490 494v-473q0 -206 -228 -206q-83 0 -192 48l11 87q106 -17 163 -17q46 0 66 15t20 52v50q-61 -46 -119 -46q-89 0 -135.5 67.5t-46.5 168.5q0 140 72 208.5t200 68.5q89 0 189 -23zM330 155v241q-23 9 -49 9q-41 0 -65 -37t-24 -108q0 -137 67 -137q32 0 71 32z
M410 718l16 -51q-64 -7 -64 -37q0 -3 2.5 -9.5t2.5 -15.5q0 -20 -17 -33t-47 -13q-29 0 -45.5 16.5t-16.5 44.5q0 50 43 76t126 22z" />
    <glyph glyph-name="Hcircumflex" unicode="&#x124;" horiz-adv-x="658" 
d="M595 0h-168v281h-196v-281h-168v675h168v-254h196v254h168v-675zM330 861l157 -83l-40 -65l-119 47l-118 -47l-39 62z" />
    <glyph glyph-name="hcircumflex" unicode="&#x125;" horiz-adv-x="551" 
d="M497 0h-160q0 60 2 150.5t2 110.5q0 79 -12 104t-40 25q-31 0 -76 -30v-360h-160v709h160v-241q59 49 130 49q82 0 120 -54t38 -177q0 -22 -2 -121.5t-2 -164.5zM137 885l157 -84l-40 -64l-119 46l-118 -46l-39 62z" />
    <glyph glyph-name="Hbar" unicode="&#x126;" horiz-adv-x="678" 
d="M605 0h-168v259h-196v-259h-168v478h-61v116h61v81h168v-81h196v81h168v-81h60v-116h-60v-478zM241 391h196v87h-196v-87z" />
    <glyph glyph-name="hbar" unicode="&#x127;" horiz-adv-x="551" 
d="M497 0h-160q0 60 2 148.5t2 108.5q0 80 -11.5 104.5t-40.5 24.5q-31 0 -76 -30v-356h-160v558h-61v107h61v55h160v-55h125v-107h-125v-94q61 50 130 50q81 0 119.5 -54.5t38.5 -177.5q0 -22 -2 -119.5t-2 -162.5z" />
    <glyph glyph-name="Itilde" unicode="&#x128;" horiz-adv-x="294" 
d="M231 0h-168v675h168v-675zM264 856l63 -43q-46 -96 -131 -96q-38 0 -71 22t-43 22q-13 0 -23.5 -9t-27.5 -34l-64 43q48 96 131 96q38 0 71.5 -22.5t43.5 -22.5q13 0 23 9t28 35z" />
    <glyph glyph-name="itilde" unicode="&#x129;" horiz-adv-x="267" 
d="M213 0h-160v505h160v-505zM246 704l60 -44q-45 -97 -125 -97q-28 0 -49.5 11.5t-36 22.5t-25.5 11q-12 0 -22 -9.5t-27 -35.5l-61 44q46 97 126 97q37 0 69 -22.5t42 -22.5q12 0 22 9.5t27 35.5z" />
    <glyph glyph-name="Imacron" unicode="&#x12a;" horiz-adv-x="294" 
d="M231 0h-168v675h168v-675zM294 736h-294v102h294v-102z" />
    <glyph glyph-name="imacron" unicode="&#x12b;" horiz-adv-x="267" 
d="M213 0h-160v505h160v-505zM279 578h-291v109h291v-109z" />
    <glyph glyph-name="Ibreve" unicode="&#x12c;" horiz-adv-x="294" 
d="M231 0h-168v675h168v-675zM207 868h94q0 -75 -41 -117t-113 -42q-73 0 -113 40.5t-40 118.5h95q0 -59 58 -59q30 0 45 16t15 43z" />
    <glyph glyph-name="ibreve" unicode="&#x12d;" horiz-adv-x="267" 
d="M213 0h-160v505h160v-505zM193 726h97q0 -86 -41.5 -131t-115.5 -45q-155 0 -155 176h97q-1 -39 13 -55t45 -16t45.5 16t14.5 55z" />
    <glyph glyph-name="Iogonek" unicode="&#x12e;" horiz-adv-x="294" 
d="M63 0v675h168v-675q-47 -6 -70.5 -28.5t-23.5 -49.5q0 -23 28 -23q21 0 39 11l20 -68q-48 -27 -106 -27q-107 0 -107 77q0 54 52 108z" />
    <glyph glyph-name="iogonek" unicode="&#x12f;" horiz-adv-x="267" 
d="M227 631q0 -45 -19 -63.5t-74 -18.5q-56 0 -75.5 18t-19.5 64q0 44 20.5 62t74.5 18q55 0 74 -17t19 -63zM53 0v505h160v-505q-43 -6 -65 -28.5t-22 -49.5q0 -23 27 -23q20 0 40 11l20 -68q-49 -27 -106 -27q-107 0 -107 77q0 55 53 108z" />
    <glyph glyph-name="Idotaccent" unicode="&#x130;" horiz-adv-x="294" 
d="M231 0h-168v675h168v-675zM232 788q0 -38 -19 -53.5t-68 -15.5q-50 0 -67.5 14.5t-17.5 54.5q0 38 18.5 53t67.5 15q50 0 68 -14t18 -54z" />
    <glyph glyph-name="dotlessi" unicode="&#x131;" horiz-adv-x="267" 
d="M213 0h-160v505h160v-505z" />
    <glyph glyph-name="IJ" unicode="&#x132;" horiz-adv-x="591" 
d="M231 0h-168v675h168v-675zM528 675v-602q0 -163 -146 -249l-80 66q36 43 47 87.5t11 113.5v584h168z" />
    <glyph glyph-name="ij" unicode="&#x133;" horiz-adv-x="533" 
d="M227 630q0 -45 -19.5 -63t-73.5 -18q-56 0 -75.5 17t-19.5 64q0 45 20 63t75 18t74 -17t19 -64zM213 0h-160v505h160v-505zM480 505v-456q0 -73 -27.5 -128t-88.5 -106l-107 45q63 79 63 162v483h160zM494 630q0 -45 -19.5 -63t-73.5 -18q-56 0 -75.5 17t-19.5 64
q0 45 20 63t75 18t74 -17t19 -64z" />
    <glyph glyph-name="Jcircumflex" unicode="&#x134;" horiz-adv-x="297" 
d="M234 675v-602q0 -163 -146 -249l-80 66q36 43 47 87.5t11 113.5v584h168zM150 861l157 -83l-40 -65l-119 47l-118 -47l-39 62z" />
    <glyph glyph-name="jcircumflex" unicode="&#x135;" horiz-adv-x="267" 
d="M213 505v-456q0 -73 -27.5 -128t-88.5 -106l-107 45q63 79 63 162v483h160zM285 615l-47 -63l-105 65l-106 -65l-46 61l155 123z" />
    <glyph glyph-name="Kcommaaccent" unicode="&#x136;" horiz-adv-x="563" 
d="M556 0h-188l-134 300h-3v-300h-168v675h168v-278h3l130 278h178l-162 -298zM294 -31q28 0 45 -16t17 -43q0 -96 -164 -93l-17 50q60 9 60 33q0 3 -2.5 9.5t-2.5 14.5q0 19 17 32t47 13z" />
    <glyph glyph-name="kcommaaccent" unicode="&#x137;" horiz-adv-x="511" 
d="M506 0h-185l-102 239h-6v-239h-160v709h160v-404h6l93 200h182l-130 -216zM262 -31q28 0 45 -16t17 -43q0 -96 -164 -93l-17 50q60 9 60 33q0 3 -2.5 9.5t-2.5 14.5q0 19 17 32t47 13z" />
    <glyph glyph-name="kgreenlandic" unicode="&#x138;" horiz-adv-x="511" 
d="M506 0h-185l-102 229h-6v-229h-160v505h160v-210h6l93 210h182l-130 -226z" />
    <glyph glyph-name="Lacute" unicode="&#x139;" horiz-adv-x="421" 
d="M406 0h-343v675h168v-546h175v-129zM103 780l189 81l71 -92l-211 -56z" />
    <glyph glyph-name="lacute" unicode="&#x13a;" horiz-adv-x="281" 
d="M265 99l6 -93q-45 -16 -109 -16q-56 0 -82.5 23t-26.5 81v615h160v-552q0 -38 6.5 -48t24.5 -10h21zM75 796l189 81l71 -92l-211 -56z" />
    <glyph glyph-name="Lcommaaccent" unicode="&#x13b;" horiz-adv-x="421" 
d="M406 0h-343v675h168v-546h175v-129zM233 -31q28 0 45 -16t17 -43q0 -96 -164 -93l-17 50q60 9 60 33q0 3 -2.5 9.5t-2.5 14.5q0 19 17 32t47 13z" />
    <glyph glyph-name="lcommaaccent" unicode="&#x13c;" horiz-adv-x="281" 
d="M265 99l6 -93q-45 -16 -109 -16q-56 0 -82.5 23t-26.5 81v615h160v-552q0 -38 6.5 -48t24.5 -10h21zM180 -31q28 0 45 -16t17 -43q0 -96 -164 -93l-17 50q60 9 60 33q0 3 -2.5 9.5t-2.5 14.5q0 19 17 32t47 13z" />
    <glyph glyph-name="Lcaron" unicode="&#x13d;" horiz-adv-x="421" 
d="M406 0h-343v675h168v-546h175v-129zM418 742l-64 -192l-78 13l33 200z" />
    <glyph glyph-name="lcaron" unicode="&#x13e;" horiz-adv-x="355" 
d="M265 99l6 -93q-45 -16 -109 -16q-56 0 -82.5 23t-26.5 81v615h160v-552q0 -38 6.5 -48t24.5 -10h21zM380 742l-64 -192l-78 13l33 200z" />
    <glyph glyph-name="Ldot" unicode="&#x13f;" horiz-adv-x="518" 
d="M406 0h-343v675h168v-546h175v-129zM504 340q0 -52 -17.5 -70t-70.5 -18q-54 0 -71.5 17.5t-17.5 69.5q0 53 17.5 71.5t72.5 18.5q53 0 70 -18t17 -71z" />
    <glyph glyph-name="ldot" unicode="&#x140;" horiz-adv-x="506" 
d="M265 99l6 -93q-45 -16 -109 -16q-56 0 -82.5 23t-26.5 81v615h160v-552q0 -38 6.5 -48t24.5 -10h21zM475 300q0 -52 -17.5 -70t-70.5 -18q-54 0 -71.5 17.5t-17.5 69.5q0 53 17.5 71.5t72.5 18.5q53 0 70 -18t17 -71z" />
    <glyph glyph-name="Lslash" unicode="&#x141;" horiz-adv-x="427" 
d="M237 483l87 45v-112l-87 -45v-242h176v-129h-344v287l-51 -27v112l51 26v277h168v-192z" />
    <glyph glyph-name="lslash" unicode="&#x142;" horiz-adv-x="288" 
d="M271 99l6 -93q-43 -16 -109 -16q-55 0 -81.5 23t-26.5 81v192l-53 -28v112l53 29v310h160v-224l52 29v-113l-52 -28v-216q0 -38 6 -48t24 -10h21z" />
    <glyph glyph-name="Nacute" unicode="&#x143;" horiz-adv-x="650" 
d="M587 0h-182l-157 333q-12 24 -25.5 56.5t-20.5 52.5l-8 21h-2q8 -116 8 -165v-298h-137v675h200l138 -290q11 -22 25 -55t22 -54l8 -22h1q-8 118 -8 167v254h138v-675zM265 780l189 81l71 -92l-211 -56z" />
    <glyph glyph-name="nacute" unicode="&#x144;" horiz-adv-x="551" 
d="M497 0h-160q0 62 2 152t2 109q0 79 -12 104t-40 25q-31 0 -76 -30v-360h-160v505h131l11 -50q67 62 148 62q82 0 120 -54.5t38 -176.5q0 -22 -2 -120.5t-2 -165.5zM444 672l-162 -121l-81 41l133 137z" />
    <glyph glyph-name="Ncommaaccent" unicode="&#x145;" horiz-adv-x="650" 
d="M587 0h-182l-157 333q-12 24 -25.5 56.5t-20.5 52.5l-8 21h-2q8 -116 8 -165v-298h-137v675h200l138 -290q11 -22 25 -55t22 -54l8 -22h1q-8 118 -8 167v254h138v-675zM317 -31q28 0 45 -16t17 -43q0 -96 -164 -93l-17 50q60 9 60 33q0 3 -2.5 9.5t-2.5 14.5q0 19 17 32
t47 13z" />
    <glyph glyph-name="ncommaaccent" unicode="&#x146;" horiz-adv-x="551" 
d="M497 0h-160q0 62 2 152t2 109q0 79 -12 104t-40 25q-31 0 -76 -30v-360h-160v505h131l11 -50q67 62 148 62q82 0 120 -54.5t38 -176.5q0 -22 -2 -120.5t-2 -165.5zM275 -31q28 0 45 -16t17 -43q0 -96 -164 -93l-17 50q60 9 60 33q0 3 -2.5 9.5t-2.5 14.5q0 19 17 32
t47 13z" />
    <glyph glyph-name="Ncaron" unicode="&#x147;" horiz-adv-x="650" 
d="M587 0h-182l-157 333q-12 24 -25.5 56.5t-20.5 52.5l-8 21h-2q8 -116 8 -165v-298h-137v675h200l138 -290q11 -22 25 -55t22 -54l8 -22h1q-8 118 -8 167v254h138v-675zM342 713l-158 84l41 64l118 -46l119 46l38 -62z" />
    <glyph glyph-name="ncaron" unicode="&#x148;" horiz-adv-x="551" 
d="M497 0h-160q0 62 2 152t2 109q0 79 -12 104t-40 25q-31 0 -76 -30v-360h-160v505h131l11 -50q67 62 148 62q82 0 120 -54.5t38 -176.5q0 -22 -2 -120.5t-2 -165.5zM430 673l-155 -122l-149 121l47 63l105 -65l107 65z" />
    <glyph glyph-name="napostrophe" unicode="&#x149;" horiz-adv-x="616" 
d="M55 503l-50 48q59 49 59 80q0 9 -15 27t-15 45q0 45 14.5 61t60.5 16q42 0 55.5 -16.5t13.5 -60.5q0 -116 -123 -200zM562 0h-160q0 62 2 152t2 109q0 79 -12 104t-40 25q-31 0 -76 -30v-360h-160v505h131l11 -50q67 62 148 62q82 0 120 -54.5t38 -176.5q0 -22 -2 -120.5
t-2 -165.5z" />
    <glyph glyph-name="Eng" unicode="&#x14a;" horiz-adv-x="650" 
d="M587 675v-622q0 -156 -146 -238l-74 67q27 24 41 57t14 61h-20l-156 333q-14 28 -27 60.5t-19 50.5l-6 19h-2q8 -86 8 -165v-298h-137v675h202l138 -292q13 -28 26 -61t20 -52l7 -20h1q-8 90 -8 168v257h138z" />
    <glyph glyph-name="eng" unicode="&#x14b;" horiz-adv-x="551" 
d="M383 -185l-107 45q64 80 64 162v239q0 80 -11.5 104.5t-39.5 24.5q-31 0 -76 -30v-360h-160v505h131l11 -50q67 62 148 62q82 0 119.5 -54.5t37.5 -176.5l-1 -237q0 -73 -27.5 -128t-88.5 -106z" />
    <glyph glyph-name="Omacron" unicode="&#x14c;" horiz-adv-x="643" 
d="M611 351q0 -184 -77.5 -274t-218.5 -90q-145 0 -214 79t-69 258q0 184 77.5 274t218.5 90q145 0 214 -79t69 -258zM435 326q0 93 -14.5 146t-39 71t-63.5 18q-53 0 -81.5 -46t-28.5 -166q0 -135 29 -184.5t88 -49.5q53 0 81.5 45.5t28.5 165.5zM468 736h-294v102h294
v-102z" />
    <glyph glyph-name="omacron" unicode="&#x14d;" horiz-adv-x="549" 
d="M520 262q0 -137 -66.5 -206t-188.5 -69q-118 0 -177 60t-59 195q0 137 66.5 206t188.5 69q118 0 177 -60t59 -195zM356 241q0 94 -20.5 127t-61.5 33q-81 0 -81 -137q0 -95 20 -127.5t62 -32.5q81 0 81 137zM420 578h-291v109h291v-109z" />
    <glyph glyph-name="Obreve" unicode="&#x14e;" horiz-adv-x="643" 
d="M611 351q0 -184 -77.5 -274t-218.5 -90q-145 0 -214 79t-69 258q0 184 77.5 274t218.5 90q145 0 214 -79t69 -258zM435 326q0 93 -14.5 146t-39 71t-63.5 18q-53 0 -81.5 -46t-28.5 -166q0 -135 29 -184.5t88 -49.5q53 0 81.5 45.5t28.5 165.5zM381 868h94
q0 -75 -41 -117t-113 -42q-73 0 -113 40.5t-40 118.5h95q0 -59 58 -59q30 0 45 16t15 43z" />
    <glyph glyph-name="obreve" unicode="&#x14f;" horiz-adv-x="549" 
d="M520 262q0 -137 -66.5 -206t-188.5 -69q-118 0 -177 60t-59 195q0 137 66.5 206t188.5 69q118 0 177 -60t59 -195zM356 241q0 94 -20.5 127t-61.5 33q-81 0 -81 -137q0 -95 20 -127.5t62 -32.5q81 0 81 137zM333 726h97q0 -86 -41.5 -131t-115.5 -45q-155 0 -155 176h97
q-1 -39 13 -55t45 -16t45.5 16t14.5 55z" />
    <glyph glyph-name="Ohungarumlaut" unicode="&#x150;" horiz-adv-x="643" 
d="M611 351q0 -184 -77.5 -274t-218.5 -90q-145 0 -214 79t-69 258q0 184 77.5 274t218.5 90q145 0 214 -79t69 -258zM435 326q0 93 -14.5 146t-39 71t-63.5 18q-53 0 -81.5 -46t-28.5 -166q0 -135 29 -184.5t88 -49.5q53 0 81.5 45.5t28.5 165.5zM651 801l-208 -94l-67 49
l183 113zM400 811l-177 -105l-71 40l151 125z" />
    <glyph glyph-name="ohungarumlaut" unicode="&#x151;" horiz-adv-x="549" 
d="M520 262q0 -137 -66.5 -206t-188.5 -69q-118 0 -177 60t-59 195q0 137 66.5 206t188.5 69q118 0 177 -60t59 -195zM356 241q0 94 -20.5 127t-61.5 33q-81 0 -81 -137q0 -95 20 -127.5t62 -32.5q81 0 81 137zM554 666l-161 -115l-80 41l131 131zM336 673l-149 -123l-78 41
l119 138z" />
    <glyph glyph-name="OE" unicode="&#x152;" horiz-adv-x="790" 
d="M749 0h-331q-45 -13 -103 -13q-143 0 -213 77.5t-70 260.5t77.5 273t219.5 90q62 0 108 -13h308v-127h-200v-142h167v-121h-167v-157h204v-128zM377 127v418q-23 16 -59 16q-53 0 -81.5 -46t-28.5 -164q0 -93 14.5 -146t39 -71.5t63.5 -18.5q33 0 52 12z" />
    <glyph glyph-name="oe" unicode="&#x153;" horiz-adv-x="843" 
d="M784 136l21 -90q-110 -59 -224 -59q-101 0 -154 60q-53 -60 -162 -60q-117 0 -176.5 60t-59.5 196q0 137 65.5 205.5t186.5 68.5q113 0 164 -62q52 62 149 62q111 0 168 -68.5t46 -231.5h-293v-5q0 -104 97 -104q74 0 172 28zM516 314h139v2q0 96 -66 96q-33 0 -52 -25.5
t-21 -72.5zM356 240q0 94 -20.5 127.5t-60.5 33.5q-39 0 -60.5 -30.5t-21.5 -105.5q0 -95 20.5 -128t62.5 -33q80 0 80 136z" />
    <glyph glyph-name="Racute" unicode="&#x154;" horiz-adv-x="586" 
d="M571 0h-188l-114 260h-38v-260h-168v675q117 3 236 3q127 0 187 -53.5t60 -143.5q0 -134 -121 -185zM231 557v-175h45q95 0 95 88q0 87 -94 87h-46zM196 780l189 81l71 -92l-211 -56z" />
    <glyph glyph-name="racute" unicode="&#x155;" horiz-adv-x="375" 
d="M367 504l-19 -137q-27 7 -48 7q-20 0 -38.5 -14.5t-48.5 -52.5v-307h-160v505h131l12 -73q35 47 61.5 65.5t55.5 18.5q30 0 54 -12zM369 672l-162 -121l-81 41l133 137z" />
    <glyph glyph-name="Rcommaaccent" unicode="&#x156;" horiz-adv-x="586" 
d="M571 0h-188l-114 260h-38v-260h-168v675q117 3 236 3q127 0 187 -53.5t60 -143.5q0 -134 -121 -185zM231 557v-175h45q95 0 95 88q0 87 -94 87h-46zM296 -31q28 0 45 -16t17 -43q0 -96 -164 -93l-17 50q60 9 60 33q0 3 -2.5 9.5t-2.5 14.5q0 19 17 32t47 13z" />
    <glyph glyph-name="rcommaaccent" unicode="&#x157;" horiz-adv-x="375" 
d="M367 504l-19 -137q-27 7 -48 7q-20 0 -38.5 -14.5t-48.5 -52.5v-307h-160v505h131l12 -73q35 47 61.5 65.5t55.5 18.5q30 0 54 -12zM137 -31q28 0 45 -16t17 -43q0 -96 -164 -93l-17 50q60 9 60 33q0 3 -2.5 9.5t-2.5 14.5q0 19 17 32t47 13z" />
    <glyph glyph-name="Rcaron" unicode="&#x158;" horiz-adv-x="586" 
d="M571 0h-188l-114 260h-38v-260h-168v675q117 3 236 3q127 0 187 -53.5t60 -143.5q0 -134 -121 -185zM231 557v-175h45q95 0 95 88q0 87 -94 87h-46zM278 713l-158 84l41 64l118 -46l119 46l38 -62z" />
    <glyph glyph-name="rcaron" unicode="&#x159;" horiz-adv-x="375" 
d="M367 504l-19 -137q-27 7 -48 7q-20 0 -38.5 -14.5t-48.5 -52.5v-307h-160v505h131l12 -73q35 47 61.5 65.5t55.5 18.5q30 0 54 -12zM363 673l-155 -122l-149 121l47 63l105 -65l107 65z" />
    <glyph glyph-name="Sacute" unicode="&#x15a;" horiz-adv-x="496" 
d="M479 197q0 -90 -64.5 -149.5t-183.5 -59.5q-116 0 -213 71l39 85q90 -34 143 -34q44 0 68 17.5t24 50.5q0 31 -27 54.5t-65.5 42.5t-77 42.5t-65.5 66.5t-27 102q0 91 63 145.5t164 54.5q103 0 192 -60l-39 -85q-65 25 -122 25q-40 0 -61 -16.5t-21 -44.5q0 -31 28 -55
t68 -43.5t80.5 -43.5t68.5 -66.5t28 -99.5zM179 780l189 81l71 -92l-211 -56z" />
    <glyph glyph-name="sacute" unicode="&#x15b;" horiz-adv-x="425" 
d="M20 34l12 80q80 -15 126 -15q78 0 78 44q0 20 -22 33.5t-53.5 24.5t-63 26.5t-53.5 48.5t-22 82q0 72 54 115.5t142 43.5q75 0 154 -43l-15 -79q-61 14 -104 14q-32 0 -48 -11t-16 -28q0 -20 22.5 -33.5t54.5 -24.5t63.5 -26.5t54 -48.5t22.5 -82q0 -74 -58.5 -120.5
t-159.5 -46.5q-81 0 -168 46zM371 672l-162 -121l-81 41l133 137z" />
    <glyph glyph-name="Scircumflex" unicode="&#x15c;" horiz-adv-x="496" 
d="M479 197q0 -90 -64.5 -149.5t-183.5 -59.5q-116 0 -213 71l39 85q90 -34 143 -34q44 0 68 17.5t24 50.5q0 31 -27 54.5t-65.5 42.5t-77 42.5t-65.5 66.5t-27 102q0 91 63 145.5t164 54.5q103 0 192 -60l-39 -85q-65 25 -122 25q-40 0 -61 -16.5t-21 -44.5q0 -31 28 -55
t68 -43.5t80.5 -43.5t68.5 -66.5t28 -99.5zM259 861l157 -83l-40 -65l-119 47l-118 -47l-39 62z" />
    <glyph glyph-name="scircumflex" unicode="&#x15d;" horiz-adv-x="425" 
d="M20 34l12 80q80 -15 126 -15q78 0 78 44q0 20 -22 33.5t-53.5 24.5t-63 26.5t-53.5 48.5t-22 82q0 72 54 115.5t142 43.5q75 0 154 -43l-15 -79q-61 14 -104 14q-32 0 -48 -11t-16 -28q0 -20 22.5 -33.5t54.5 -24.5t63.5 -26.5t54 -48.5t22.5 -82q0 -74 -58.5 -120.5
t-159.5 -46.5q-81 0 -168 46zM364 615l-47 -63l-105 65l-106 -65l-46 61l155 123z" />
    <glyph glyph-name="Scedilla" unicode="&#x15e;" horiz-adv-x="496" 
d="M479 197q0 -90 -64.5 -149.5t-183.5 -59.5q-116 0 -213 71l39 85q90 -34 143 -34q44 0 68 17.5t24 50.5q0 31 -27 54.5t-65.5 42.5t-77 42.5t-65.5 66.5t-27 102q0 91 63 145.5t164 54.5q103 0 192 -60l-39 -85q-65 25 -122 25q-40 0 -61 -16.5t-21 -44.5q0 -31 28 -55
t68 -43.5t80.5 -43.5t68.5 -66.5t28 -99.5zM169 -42h135q17 -87 -89 -144l-93 33q37 31 46.5 55.5t0.5 55.5z" />
    <glyph glyph-name="scedilla" unicode="&#x15f;" horiz-adv-x="425" 
d="M20 34l12 80q80 -15 126 -15q78 0 78 44q0 20 -22 33.5t-53.5 24.5t-63 26.5t-53.5 48.5t-22 82q0 72 54 115.5t142 43.5q75 0 154 -43l-15 -79q-61 14 -104 14q-32 0 -48 -11t-16 -28q0 -20 22.5 -33.5t54.5 -24.5t63.5 -26.5t54 -48.5t22.5 -82q0 -74 -58.5 -120.5
t-159.5 -46.5q-81 0 -168 46zM129 -42h135q17 -87 -89 -144l-93 33q37 31 46.5 55.5t0.5 55.5z" />
    <glyph glyph-name="Scaron" unicode="&#x160;" horiz-adv-x="496" 
d="M479 197q0 -90 -64.5 -149.5t-183.5 -59.5q-116 0 -213 71l39 85q90 -34 143 -34q44 0 68 17.5t24 50.5q0 31 -27 54.5t-65.5 42.5t-77 42.5t-65.5 66.5t-27 102q0 91 63 145.5t164 54.5q103 0 192 -60l-39 -85q-65 25 -122 25q-40 0 -61 -16.5t-21 -44.5q0 -31 28 -55
t68 -43.5t80.5 -43.5t68.5 -66.5t28 -99.5zM247 713l-158 84l41 64l118 -46l119 46l38 -62z" />
    <glyph glyph-name="scaron" unicode="&#x161;" horiz-adv-x="425" 
d="M20 34l12 80q80 -15 126 -15q78 0 78 44q0 20 -22 33.5t-53.5 24.5t-63 26.5t-53.5 48.5t-22 82q0 72 54 115.5t142 43.5q75 0 154 -43l-15 -79q-61 14 -104 14q-32 0 -48 -11t-16 -28q0 -20 22.5 -33.5t54.5 -24.5t63.5 -26.5t54 -48.5t22.5 -82q0 -74 -58.5 -120.5
t-159.5 -46.5q-81 0 -168 46zM365 673l-155 -122l-149 121l47 63l105 -65l107 65z" />
    <glyph glyph-name="uni0162" unicode="&#x162;" horiz-adv-x="467" 
d="M453 547h-137v-547h-168v547h-135v128h440v-128zM235 -31q28 0 45 -16t17 -43q0 -96 -164 -93l-17 50q60 9 60 33q0 3 -2.5 9.5t-2.5 14.5q0 19 17 32t47 13z" />
    <glyph glyph-name="uni0163" unicode="&#x163;" horiz-adv-x="350" 
d="M322 115l11 -91q-69 -36 -135 -36q-74 0 -104.5 29.5t-30.5 101.5v275h-54v111h60q19 62 37 148h117v-148h96v-111h-96v-236q0 -29 8.5 -40t27.5 -11q30 0 63 8zM205 -31q28 0 45 -16t17 -43q0 -96 -164 -93l-17 50q60 9 60 33q0 3 -2.5 9.5t-2.5 14.5q0 19 17 32t47 13z
" />
    <glyph glyph-name="Tcaron" unicode="&#x164;" horiz-adv-x="467" 
d="M453 547h-137v-547h-168v547h-135v128h440v-128zM233 713l-158 84l41 64l118 -46l119 46l38 -62z" />
    <glyph glyph-name="tcaron" unicode="&#x165;" horiz-adv-x="389" 
d="M322 115l11 -91q-69 -36 -135 -36q-74 0 -104.5 29.5t-30.5 101.5v275h-54v111h60q19 62 37 148h117v-148h96v-111h-96v-236q0 -29 8.5 -40t27.5 -11q30 0 63 8zM398 742l-64 -192l-78 13l33 200z" />
    <glyph glyph-name="Tbar" unicode="&#x166;" horiz-adv-x="467" 
d="M453 547h-137v-183h87v-111h-87v-253h-168v253h-85v111h85v183h-135v128h440v-128z" />
    <glyph glyph-name="tbar" unicode="&#x167;" horiz-adv-x="350" 
d="M322 115l11 -91q-69 -36 -135 -36q-74 0 -104.5 29.5t-30.5 101.5v86h-45v109h45v80h-54v111h60q19 62 37 148h117v-148h96v-111h-96v-80h86v-109h-86v-47q0 -29 8.5 -40t27.5 -11q30 0 63 8z" />
    <glyph glyph-name="Utilde" unicode="&#x168;" horiz-adv-x="652" 
d="M590 675v-434q0 -133 -73.5 -193.5t-201.5 -60.5t-190.5 55.5t-62.5 181.5v451h168v-434q0 -73 22.5 -102.5t73.5 -29.5q50 0 74.5 27t24.5 95v444h165zM443 856l63 -43q-46 -96 -131 -96q-38 0 -71 22t-43 22q-13 0 -23.5 -9t-27.5 -34l-64 43q48 96 131 96
q38 0 71.5 -22.5t43.5 -22.5q13 0 23 9t28 35z" />
    <glyph glyph-name="utilde" unicode="&#x169;" horiz-adv-x="551" 
d="M497 0h-130l-11 49q-70 -62 -148 -62q-82 0 -120.5 55t-38.5 177q0 21 2 120t2 166h161q0 -61 -2 -152t-2 -110q0 -76 11.5 -102t40.5 -26q30 0 75 30v360h160v-505zM388 704l60 -44q-45 -97 -125 -97q-28 0 -49.5 11.5t-36 22.5t-25.5 11q-12 0 -22 -9.5t-27 -35.5
l-61 44q46 97 126 97q37 0 69 -22.5t42 -22.5q12 0 22 9.5t27 35.5z" />
    <glyph glyph-name="Umacron" unicode="&#x16a;" horiz-adv-x="652" 
d="M590 675v-434q0 -133 -73.5 -193.5t-201.5 -60.5t-190.5 55.5t-62.5 181.5v451h168v-434q0 -73 22.5 -102.5t73.5 -29.5q50 0 74.5 27t24.5 95v444h165zM473 736h-294v102h294v-102z" />
    <glyph glyph-name="umacron" unicode="&#x16b;" horiz-adv-x="551" 
d="M497 0h-130l-11 49q-70 -62 -148 -62q-82 0 -120.5 55t-38.5 177q0 21 2 120t2 166h161q0 -61 -2 -152t-2 -110q0 -76 11.5 -102t40.5 -26q30 0 75 30v360h160v-505zM420 578h-291v109h291v-109z" />
    <glyph glyph-name="Ubreve" unicode="&#x16c;" horiz-adv-x="652" 
d="M590 675v-434q0 -133 -73.5 -193.5t-201.5 -60.5t-190.5 55.5t-62.5 181.5v451h168v-434q0 -73 22.5 -102.5t73.5 -29.5q50 0 74.5 27t24.5 95v444h165zM386 868h94q0 -75 -41 -117t-113 -42q-73 0 -113 40.5t-40 118.5h95q0 -59 58 -59q30 0 45 16t15 43z" />
    <glyph glyph-name="ubreve" unicode="&#x16d;" horiz-adv-x="551" 
d="M497 0h-130l-11 49q-70 -62 -148 -62q-82 0 -120.5 55t-38.5 177q0 21 2 120t2 166h161q0 -61 -2 -152t-2 -110q0 -76 11.5 -102t40.5 -26q30 0 75 30v360h160v-505zM334 726h97q0 -86 -41.5 -131t-115.5 -45q-155 0 -155 176h97q-1 -39 13 -55t45 -16t45.5 16t14.5 55z
" />
    <glyph glyph-name="Uring" unicode="&#x16e;" horiz-adv-x="652" 
d="M590 675v-434q0 -133 -73.5 -193.5t-201.5 -60.5t-190.5 55.5t-62.5 181.5v451h168v-434q0 -73 22.5 -102.5t73.5 -29.5q50 0 74.5 27t24.5 95v444h165zM454 777q0 -41 -34.5 -64.5t-93.5 -23.5q-124 0 -124 85q0 40 34.5 63.5t94.5 23.5q123 0 123 -84zM365 775
q0 33 -36 33q-37 0 -37 -33t37 -33q36 0 36 33z" />
    <glyph glyph-name="uring" unicode="&#x16f;" horiz-adv-x="551" 
d="M497 0h-130l-11 49q-70 -62 -148 -62q-82 0 -120.5 55t-38.5 177q0 21 2 120t2 166h161q0 -61 -2 -152t-2 -110q0 -76 11.5 -102t40.5 -26q30 0 75 30v360h160v-505zM410 651q0 -52 -36 -81t-99 -29q-131 0 -131 106q0 51 36.5 80.5t98.5 29.5q131 0 131 -106zM315 649
q0 40 -38 40t-38 -40t38 -40t38 40z" />
    <glyph glyph-name="Uhungarumlaut" unicode="&#x170;" horiz-adv-x="652" 
d="M590 675v-434q0 -133 -73.5 -193.5t-201.5 -60.5t-190.5 55.5t-62.5 181.5v451h168v-434q0 -73 22.5 -102.5t73.5 -29.5q50 0 74.5 27t24.5 95v444h165zM650 801l-208 -94l-67 49l183 113zM399 811l-177 -105l-71 40l151 125z" />
    <glyph glyph-name="uhungarumlaut" unicode="&#x171;" horiz-adv-x="551" 
d="M497 0h-130l-11 49q-70 -62 -148 -62q-82 0 -120.5 55t-38.5 177q0 21 2 120t2 166h161q0 -61 -2 -152t-2 -110q0 -76 11.5 -102t40.5 -26q30 0 75 30v360h160v-505zM543 666l-161 -115l-80 41l131 131zM325 673l-149 -123l-78 41l119 138z" />
    <glyph glyph-name="Uogonek" unicode="&#x172;" horiz-adv-x="652" 
d="M488 -90l19 -68q-48 -27 -105 -27q-107 0 -107 77q0 51 45 98q-12 -3 -25 -3q-131 0 -192 56t-61 181v451h168v-434q0 -73 22.5 -102.5t73.5 -29.5q50 0 74.5 27t24.5 95v444h165v-434q0 -122 -62 -182q-13 -13 -35.5 -34.5t-31.5 -31t-21 -23.5t-16 -25t-4 -23
q0 -23 28 -23q20 0 40 11z" />
    <glyph glyph-name="uogonek" unicode="&#x173;" horiz-adv-x="551" 
d="M497 505v-505q-62 -35 -62 -78q0 -23 28 -23q21 0 39 11l20 -68q-48 -27 -106 -27q-107 0 -107 77q0 58 57 110l-10 47q-70 -62 -148 -62q-82 0 -120.5 55t-38.5 177q0 21 2 120t2 166h161q0 -61 -2 -152t-2 -110q0 -76 11.5 -102t40.5 -26q30 0 75 30v360h160z" />
    <glyph glyph-name="Wcircumflex" unicode="&#x174;" horiz-adv-x="868" 
d="M703 675h155q-59 -349 -147 -675h-185l-73 315l-21 113h-2l-20 -112l-68 -316h-183q-83 295 -149 675h180q10 -74 36.5 -227.5t39.5 -236.5h2l18 104l79 360h167l82 -364l18 -100h3q44 266 68 464zM449 861l157 -83l-40 -65l-119 47l-118 -47l-39 62z" />
    <glyph glyph-name="wcircumflex" unicode="&#x175;" horiz-adv-x="779" 
d="M613 505h154q-23 -231 -117 -505h-194l-55 249l-13 84h-2l-11 -84l-48 -249h-196l-121 505h171l49 -253l14 -98h3l12 96l46 255h188l56 -261l14 -90h3q43 218 47 351zM550 615l-47 -63l-105 65l-106 -65l-46 61l155 123z" />
    <glyph glyph-name="Ycircumflex" unicode="&#x176;" horiz-adv-x="494" 
d="M337 675h164q-76 -241 -171 -400v-275h-168v275q-104 184 -169 400h181q40 -144 83 -245h2q40 91 78 245zM253 861l157 -83l-40 -65l-119 47l-118 -47l-39 62z" />
    <glyph glyph-name="ycircumflex" unicode="&#x177;" horiz-adv-x="494" 
d="M321 505h164q-20 -180 -62 -316t-96 -214.5t-112.5 -116.5t-120.5 -38q-41 0 -85 25v91q24 -4 56 -4q42 0 62 16q22 18 22 43q0 22 -36 143l-107 371h171l59 -238q20 -74 22 -142h2q24 74 42 182.5t19 197.5zM407 615l-47 -63l-105 65l-106 -65l-46 61l155 123z" />
    <glyph glyph-name="Ydieresis" unicode="&#x178;" horiz-adv-x="494" 
d="M337 675h164q-76 -241 -171 -400v-275h-168v275q-104 184 -169 400h181q40 -144 83 -245h2q40 91 78 245zM432 784q0 -35 -17 -50t-56 -15q-41 0 -57.5 14t-16.5 51q0 36 16.5 51t57.5 15q40 0 56.5 -14.5t16.5 -51.5zM222 784q0 -35 -16.5 -50t-56.5 -15
q-41 0 -57.5 14.5t-16.5 50.5q0 35 17 50.5t57 15.5q41 0 57 -14.5t16 -51.5z" />
    <glyph glyph-name="Zacute" unicode="&#x179;" horiz-adv-x="493" 
d="M465 0h-439v114l229 430h-219l3 131h418v-113l-228 -430h239zM183 780l189 81l71 -92l-211 -56z" />
    <glyph glyph-name="zacute" unicode="&#x17a;" horiz-adv-x="400" 
d="M379 120l-4 -120h-354v101l161 286h-154l5 118h331v-100l-161 -285h176zM381 672l-162 -121l-81 41l133 137z" />
    <glyph glyph-name="Zdotaccent" unicode="&#x17b;" horiz-adv-x="493" 
d="M465 0h-439v114l229 430h-219l3 131h418v-113l-228 -430h239zM335 788q0 -38 -19 -53.5t-68 -15.5q-50 0 -67.5 14.5t-17.5 54.5q0 38 18.5 53t67.5 15q50 0 68 -14t18 -54z" />
    <glyph glyph-name="zdotaccent" unicode="&#x17c;" horiz-adv-x="400" 
d="M379 120l-4 -120h-354v101l161 286h-154l5 118h331v-100l-161 -285h176zM297 634q0 -43 -19.5 -60t-73.5 -17q-56 0 -75.5 16.5t-19.5 60.5q0 43 20 60t75 17t74 -16.5t19 -60.5z" />
    <glyph glyph-name="Zcaron" unicode="&#x17d;" horiz-adv-x="493" 
d="M465 0h-439v114l229 430h-219l3 131h418v-113l-228 -430h239zM251 713l-158 84l41 64l118 -46l119 46l38 -62z" />
    <glyph glyph-name="zcaron" unicode="&#x17e;" horiz-adv-x="400" 
d="M379 120l-4 -120h-354v101l161 286h-154l5 118h331v-100l-161 -285h176zM354 673l-155 -122l-149 121l47 63l105 -65l107 65z" />
    <glyph glyph-name="longs" unicode="&#x17f;" horiz-adv-x="278" 
d="M314 693l-18 -93q-27 8 -45 8q-38 0 -38 -50v-558h-160v554q0 82 33 125t108 43q64 0 120 -29z" />
    <glyph glyph-name="florin" unicode="&#x192;" 
d="M479 648l-21 -87q-31 11 -65 11q-30 0 -43 -14.5t-16 -50.5l-10 -116h124v-104h-132l-20 -227q-12 -172 -170 -172q-70 0 -135 36l22 87q29 -11 64 -11q30 0 43.5 15t16.5 50l19 222h-115v104h123l11 121q12 171 170 171q72 0 134 -35z" />
    <glyph glyph-name="Gcaron" unicode="&#x1e6;" horiz-adv-x="578" 
d="M530 401v-332q-102 -82 -235 -82q-263 0 -263 334q0 181 78 274t215 93q64 0 116 -31t86 -83l-74 -67q-63 49 -121 49q-125 0 -125 -209q0 -122 26 -174.5t76 -52.5q30 0 56 15v145h-69v121h234zM314 713l-158 84l41 64l118 -46l119 46l38 -62z" />
    <glyph glyph-name="gcaron" unicode="&#x1e7;" horiz-adv-x="544" 
d="M490 494v-473q0 -206 -228 -206q-83 0 -192 48l11 87q106 -17 163 -17q46 0 66 15t20 52v50q-61 -46 -119 -46q-89 0 -135.5 67.5t-46.5 168.5q0 140 72 208.5t200 68.5q89 0 189 -23zM330 155v241q-23 9 -49 9q-41 0 -65 -37t-24 -108q0 -137 67 -137q32 0 71 32z
M424 673l-155 -122l-149 121l47 63l105 -65l107 65z" />
    <glyph glyph-name="Aringacute" unicode="&#x1fa;" horiz-adv-x="589" 
d="M584 0h-180q-1 5 -10.5 54.5t-14.5 69.5h-190q-16 -73 -24 -124h-160q83 386 176 675h225q101 -314 178 -675zM213 248h142q-38 163 -71 283h-3q-37 -142 -68 -283zM411 745q0 -28 -32.5 -44.5t-87.5 -16.5q-115 0 -115 56q0 28 32.5 44.5t87.5 16.5q115 0 115 -56z
M325 743q0 22 -31 22q-32 0 -32 -23q0 -22 32 -22q31 0 31 23zM216 846l169 39l31 -50l-183 -25z" />
    <glyph glyph-name="aringacute" unicode="&#x1fb;" horiz-adv-x="520" 
d="M468 0h-123l-10 47q-68 -60 -151 -60q-74 0 -118.5 42t-44.5 114q0 171 263 171h26v28q0 61 -82 61q-71 0 -159 -30l-20 96q113 48 218 48q97 0 149 -42t52 -118v-357zM310 133v86h-32q-102 0 -102 -63q0 -57 56 -57q39 0 78 34zM382 633q0 -41 -32.5 -64.5t-88.5 -23.5
q-118 0 -118 85q0 40 33 63.5t89 23.5q117 0 117 -84zM297 631q0 33 -35 33q-34 0 -34 -33t34 -33q35 0 35 33zM205 772l105 113l108 -47l-135 -97z" />
    <glyph glyph-name="AEacute" unicode="&#x1fc;" horiz-adv-x="749" 
d="M708 0h-372v124h-160q-21 -59 -40 -124h-162q120 349 266 675h464v-127h-200v-142h167v-121h-167v-157h204v-128zM336 248v300h-2q-69 -164 -118 -300h120zM395 780l189 81l71 -92l-211 -56z" />
    <glyph glyph-name="aeacute" unicode="&#x1fd;" horiz-adv-x="793" 
d="M735 136l21 -90q-111 -59 -224 -59q-128 0 -177 79q-72 -79 -171 -79q-74 0 -118.5 42t-44.5 114q0 171 263 171h26v28q0 61 -82 61q-71 0 -159 -30l-20 96q113 48 217 48q94 0 140 -49q58 49 140 49q110 0 167 -68.5t46 -231.5h-294v-5q0 -104 97 -104q73 0 173 28z
M310 219h-32q-102 0 -102 -63q0 -57 56 -57q46 0 78 44v76zM466 314h139v2q0 96 -66 96q-33 0 -52 -25.5t-21 -72.5zM572 672l-162 -121l-81 41l133 137z" />
    <glyph glyph-name="Oslashacute" unicode="&#x1fe;" horiz-adv-x="643" 
d="M611 351q0 -184 -77.5 -274t-218.5 -90q-80 0 -136 26l-58 -97l-83 44l63 105q-69 81 -69 259q0 184 77.5 274t218.5 90q81 0 136 -26l58 97l83 -44l-64 -105q70 -81 70 -259zM446 325q0 45 -5 120l-190 -315q27 -24 75 -24q58 0 89 47t31 172zM317 570q-38 0 -63 -17
t-41 -67t-16 -136q0 -34 6 -118l189 314q-28 24 -75 24zM252 795l189 81l71 -92l-211 -56z" />
    <glyph glyph-name="oslashacute" unicode="&#x1ff;" horiz-adv-x="549" 
d="M513 544l-54 -85q61 -61 61 -197q0 -137 -66.5 -206t-188.5 -69q-50 0 -94 14l-52 -83l-83 44l53 85q-60 60 -60 195q0 138 66 206.5t188 68.5q60 0 95 -13l52 83zM367 318l-133 -215q12 -8 41 -8q94 0 94 145q0 36 -2 78zM182 186l132 216q-14 8 -40 8q-94 0 -94 -145
q0 -35 2 -79zM445 672l-162 -121l-81 41l133 137z" />
    <glyph glyph-name="Scommaaccent" unicode="&#x218;" horiz-adv-x="496" 
d="M479 197q0 -90 -64.5 -149.5t-183.5 -59.5q-116 0 -213 71l39 85q90 -34 143 -34q44 0 68 17.5t24 50.5q0 31 -27 54.5t-65.5 42.5t-77 42.5t-65.5 66.5t-27 102q0 91 63 145.5t164 54.5q103 0 192 -60l-39 -85q-65 25 -122 25q-40 0 -61 -16.5t-21 -44.5q0 -31 28 -55
t68 -43.5t80.5 -43.5t68.5 -66.5t28 -99.5zM253 -31q28 0 45 -16t17 -43q0 -96 -164 -93l-17 50q60 9 60 33q0 3 -2.5 9.5t-2.5 14.5q0 19 17 32t47 13z" />
    <glyph glyph-name="scommaaccent" unicode="&#x219;" horiz-adv-x="425" 
d="M20 34l12 80q80 -15 126 -15q78 0 78 44q0 20 -22 33.5t-53.5 24.5t-63 26.5t-53.5 48.5t-22 82q0 72 54 115.5t142 43.5q75 0 154 -43l-15 -79q-61 14 -104 14q-32 0 -48 -11t-16 -28q0 -20 22.5 -33.5t54.5 -24.5t63.5 -26.5t54 -48.5t22.5 -82q0 -74 -58.5 -120.5
t-159.5 -46.5q-81 0 -168 46zM210 -31q28 0 45 -16t17 -43q0 -96 -164 -93l-17 50q60 9 60 33q0 3 -2.5 9.5t-2.5 14.5q0 19 17 32t47 13z" />
    <glyph glyph-name="Tcommaaccent" unicode="&#x21a;" horiz-adv-x="467" 
d="M453 547h-137v-547h-168v547h-135v128h440v-128zM235 -31q28 0 45 -16t17 -43q0 -96 -164 -93l-17 50q60 9 60 33q0 3 -2.5 9.5t-2.5 14.5q0 19 17 32t47 13z" />
    <glyph glyph-name="tcommaaccent" unicode="&#x21b;" horiz-adv-x="350" 
d="M322 115l11 -91q-69 -36 -135 -36q-74 0 -104.5 29.5t-30.5 101.5v275h-54v111h60q19 62 37 148h117v-148h96v-111h-96v-236q0 -29 8.5 -40t27.5 -11q30 0 63 8zM205 -31q28 0 45 -16t17 -43q0 -96 -164 -93l-17 50q60 9 60 33q0 3 -2.5 9.5t-2.5 14.5q0 19 17 32t47 13z
" />
    <glyph glyph-name="dotlessj" unicode="&#x237;" horiz-adv-x="267" 
d="M213 505v-456q0 -73 -27.5 -128t-88.5 -106l-107 45q63 79 63 162v483h160z" />
    <glyph glyph-name="apostrophe" unicode="&#x2bc;" horiz-adv-x="213" 
d="M55 503l-50 48q59 49 59 80q0 9 -15 27t-15 45q0 45 14.5 61t60.5 16q42 0 55.5 -16.5t13.5 -60.5q0 -116 -123 -200z" />
    <glyph glyph-name="circumflex" unicode="&#x2c6;" horiz-adv-x="372" 
d="M338 615l-47 -63l-105 65l-106 -65l-46 61l155 123z" />
    <glyph glyph-name="caron" unicode="&#x2c7;" horiz-adv-x="372" 
d="M338 673l-155 -122l-149 121l47 63l105 -65l107 65z" />
    <glyph glyph-name="breve" unicode="&#x2d8;" horiz-adv-x="380" 
d="M249 726h97q0 -86 -41.5 -131t-115.5 -45q-155 0 -155 176h97q-1 -39 13 -55t45 -16t45.5 16t14.5 55z" />
    <glyph glyph-name="dotaccent" unicode="&#x2d9;" horiz-adv-x="257" 
d="M222 634q0 -43 -19.5 -60t-73.5 -17q-56 0 -75.5 16.5t-19.5 60.5q0 43 20 60t75 17t74 -16.5t19 -60.5z" />
    <glyph glyph-name="ring" unicode="&#x2da;" horiz-adv-x="334" 
d="M300 651q0 -52 -36 -81t-99 -29q-131 0 -131 106q0 51 36.5 80.5t98.5 29.5q131 0 131 -106zM205 649q0 40 -38 40t-38 -40t38 -40t38 40z" />
    <glyph glyph-name="ogonek" unicode="&#x2db;" horiz-adv-x="281" 
d="M227 -90l20 -68q-48 -27 -106 -27q-107 0 -107 77q0 56 54 108h130q-58 -38 -58 -78q0 -23 28 -23q21 0 39 11z" />
    <glyph glyph-name="tilde" unicode="&#x2dc;" horiz-adv-x="415" 
d="M320 704l60 -44q-45 -97 -125 -97q-28 0 -49.5 11.5t-36 22.5t-25.5 11q-12 0 -22 -9.5t-27 -35.5l-61 44q46 97 126 97q37 0 69 -22.5t42 -22.5q12 0 22 9.5t27 35.5z" />
    <glyph glyph-name="hungarumlaut" unicode="&#x2dd;" horiz-adv-x="513" 
d="M479 666l-161 -115l-80 41l131 131zM261 673l-149 -123l-78 41l119 138z" />
    <glyph glyph-name="uni0312" unicode="&#x312;" horiz-adv-x="253" 
d="M203 718l16 -51q-64 -7 -64 -37q0 -3 2.5 -9.5t2.5 -15.5q0 -20 -17 -33t-47 -13q-29 0 -45.5 16.5t-16.5 44.5q0 50 43 76t126 22z" />
    <glyph glyph-name="uni0315" unicode="&#x315;" horiz-adv-x="210" 
d="M176 742l-64 -192l-78 13l33 200z" />
    <glyph glyph-name="uni0326" unicode="&#x326;" horiz-adv-x="249" 
d="M153 -31q28 0 45 -16t17 -43q0 -96 -164 -93l-17 50q60 9 60 33q0 3 -2.5 9.5t-2.5 14.5q0 19 17 32t47 13z" />
    <glyph glyph-name="Delta" unicode="&#x2206;" horiz-adv-x="570" 
d="M550 0h-531v114q67 293 152 561h225q83 -244 154 -561v-114zM176 124h194q-45 236 -95 407h-4q-56 -200 -95 -407z" />
    <glyph glyph-name="Delta" unicode="&#x394;" horiz-adv-x="570" 
d="M550 0h-531v114q67 293 152 561h225q83 -244 154 -561v-114zM176 124h194q-45 236 -95 407h-4q-56 -200 -95 -407z" />
    <glyph glyph-name="Omega" unicode="&#x2126;" horiz-adv-x="653" 
d="M627 0h-262v99q38 30 56.5 84.5t18.5 160.5q0 121 -29.5 169t-85.5 48q-55 0 -83.5 -44.5t-28.5 -147.5q0 -120 18 -180t56 -90v-99h-261v106h103q-92 76 -92 236q0 70 15.5 129t48.5 109.5t92.5 79t140.5 28.5q282 0 282 -317q0 -87 -27.5 -157t-76.5 -108h115v-106z
" />
    <glyph glyph-name="Omega" unicode="&#x3a9;" horiz-adv-x="653" 
d="M627 0h-262v99q38 30 56.5 84.5t18.5 160.5q0 121 -29.5 169t-85.5 48q-55 0 -83.5 -44.5t-28.5 -147.5q0 -120 18 -180t56 -90v-99h-261v106h103q-92 76 -92 236q0 70 15.5 129t48.5 109.5t92.5 79t140.5 28.5q282 0 282 -317q0 -87 -27.5 -157t-76.5 -108h115v-106z
" />
    <glyph glyph-name="pi" unicode="&#x3c0;" horiz-adv-x="614" 
d="M584 386h-88q0 -192 6.5 -235.5t34.5 -43.5q25 0 49 7l12 -93q-64 -33 -126 -33q-34 0 -53.5 3.5t-36 20.5t-23.5 38.5t-12 73t-6 106.5t-1 156h-111q0 -225 -12 -386h-164q21 275 21 386h-65v119h575v-119z" />
    <glyph glyph-name="uni1E02" unicode="&#x1e02;" horiz-adv-x="581" 
d="M63 0v675h246q109 0 163.5 -44t54.5 -119q0 -101 -83 -140q55 -13 86.5 -55t31.5 -98q0 -97 -73 -159t-222 -62q-24 0 -94 1t-110 1zM229 560v-153h39q45 0 66.5 22.5t21.5 56.5q0 74 -76 74h-51zM229 295v-178q36 -3 54 -3q101 0 101 94q0 38 -25.5 62.5t-80.5 24.5h-49
zM362 788q0 -38 -19 -53.5t-68 -15.5q-50 0 -67.5 14.5t-17.5 54.5q0 38 18.5 53t67.5 15q50 0 68 -14t18 -54z" />
    <glyph glyph-name="uni1E03" unicode="&#x1e03;" horiz-adv-x="544" 
d="M53 11v698h160v-238q57 46 118 46q92 0 138 -69t46 -175q0 -286 -275 -286q-89 0 -187 24zM213 363v-255q22 -8 49 -8q42 0 66 38t24 116q0 141 -67 141q-32 0 -72 -32zM223 808q0 -38 -19.5 -52.5t-70.5 -14.5q-52 0 -70 13.5t-18 53.5t19 54.5t70 14.5q52 0 70.5 -14
t18.5 -55z" />
    <glyph glyph-name="uni1E0A" unicode="&#x1e0a;" horiz-adv-x="605" 
d="M63 0v675q41 0 111 1t101 1q298 0 298 -320q0 -361 -326 -361q-35 0 -99.5 2t-84.5 2zM231 552v-427q26 -2 36 -2q130 0 130 217q0 112 -32 162.5t-97 50.5q-24 0 -37 -1zM365 788q0 -38 -19 -53.5t-68 -15.5q-50 0 -67.5 14.5t-17.5 54.5q0 38 18.5 53t67.5 15
q50 0 68 -14t18 -54z" />
    <glyph glyph-name="uni1E0B" unicode="&#x1e0b;" horiz-adv-x="544" 
d="M490 0h-130l-11 48q-68 -61 -138 -61q-91 0 -136.5 69t-45.5 175q0 146 68.5 216t185.5 70q29 0 47 -2v183h160v-698zM330 142v255q-26 8 -49 8q-89 0 -89 -154q0 -141 67 -141q31 0 71 32zM500 808q0 -38 -19.5 -52.5t-70.5 -14.5q-52 0 -70 13.5t-18 53.5t19 54.5
t70 14.5q52 0 70.5 -14t18.5 -55z" />
    <glyph glyph-name="uni1E1E" unicode="&#x1e1e;" horiz-adv-x="456" 
d="M427 548h-196v-154h175v-124h-175v-270h-168v675h364v-127zM337 788q0 -38 -19 -53.5t-68 -15.5q-50 0 -67.5 14.5t-17.5 54.5q0 38 18.5 53t67.5 15q50 0 68 -14t18 -54z" />
    <glyph glyph-name="uni1E1F" unicode="&#x1e1f;" horiz-adv-x="310" 
d="M340 682l-19 -89q-31 9 -54 9q-44 0 -44 -50v-47h78v-111h-78v-394h-160v394h-54v111h54v34q0 82 35 125t115 43q68 0 127 -25zM283 808q0 -38 -19.5 -52.5t-70.5 -14.5q-52 0 -70 13.5t-18 53.5t19 54.5t70 14.5q52 0 70.5 -14t18.5 -55z" />
    <glyph glyph-name="uni1E40" unicode="&#x1e40;" horiz-adv-x="853" 
d="M807 0h-177q-3 263 -18 471h-2l-123 -471h-144l-123 471h-1q-13 -196 -15 -471h-156q9 345 47 675h221l114 -415h1l116 415h210q35 -328 50 -675zM512 788q0 -38 -19 -53.5t-68 -15.5q-50 0 -67.5 14.5t-17.5 54.5q0 38 18.5 53t67.5 15q50 0 68 -14t18 -54z" />
    <glyph glyph-name="uni1E41" unicode="&#x1e41;" horiz-adv-x="826" 
d="M773 0h-160q0 62 1.5 152t1.5 108q0 81 -10.5 105.5t-38.5 24.5q-30 0 -77 -33q4 -28 4 -66v-291h-160v260q0 81 -10.5 105.5t-36.5 24.5q-29 0 -74 -30v-360h-160v505h131l11 -50q67 62 146 62q90 0 124 -68q76 68 156 68t118 -55t38 -175q0 -22 -2 -121.5t-2 -165.5z
M507 634q0 -43 -19.5 -60t-73.5 -17q-56 0 -75.5 16.5t-19.5 60.5q0 43 20 60t75 17t74 -16.5t19 -60.5z" />
    <glyph glyph-name="uni1E56" unicode="&#x1e56;" horiz-adv-x="557" 
d="M231 0h-168v675q37 0 113 1t111 1q255 0 255 -217q0 -246 -290 -246h-21v-214zM231 555v-219h31q104 0 104 110q0 56 -24 82.5t-80 26.5h-31zM365 788q0 -38 -19 -53.5t-68 -15.5q-50 0 -67.5 14.5t-17.5 54.5q0 38 18.5 53t67.5 15q50 0 68 -14t18 -54z" />
    <glyph glyph-name="uni1E57" unicode="&#x1e57;" horiz-adv-x="544" 
d="M213 -173h-160v678h130l12 -49q64 61 136 61q92 0 138 -68.5t46 -174.5q0 -146 -69 -216.5t-187 -70.5q-28 0 -46 3v-163zM213 363v-255q21 -8 49 -8q90 0 90 154q0 141 -67 141q-32 0 -72 -32zM366 634q0 -43 -19.5 -60t-73.5 -17q-56 0 -75.5 16.5t-19.5 60.5
q0 43 20 60t75 17t74 -16.5t19 -60.5z" />
    <glyph glyph-name="uni1E60" unicode="&#x1e60;" horiz-adv-x="496" 
d="M479 197q0 -90 -64.5 -149.5t-183.5 -59.5q-116 0 -213 71l39 85q90 -34 143 -34q44 0 68 17.5t24 50.5q0 31 -27 54.5t-65.5 42.5t-77 42.5t-65.5 66.5t-27 102q0 91 63 145.5t164 54.5q103 0 192 -60l-39 -85q-65 25 -122 25q-40 0 -61 -16.5t-21 -44.5q0 -31 28 -55
t68 -43.5t80.5 -43.5t68.5 -66.5t28 -99.5zM334 796q0 -38 -19 -53.5t-68 -15.5q-50 0 -67.5 14.5t-17.5 54.5q0 38 18.5 53t67.5 15q50 0 68 -14t18 -54z" />
    <glyph glyph-name="uni1E61" unicode="&#x1e61;" horiz-adv-x="425" 
d="M20 34l12 80q80 -15 126 -15q78 0 78 44q0 20 -22 33.5t-53.5 24.5t-63 26.5t-53.5 48.5t-22 82q0 72 54 115.5t142 43.5q75 0 154 -43l-15 -79q-61 14 -104 14q-32 0 -48 -11t-16 -28q0 -20 22.5 -33.5t54.5 -24.5t63.5 -26.5t54 -48.5t22.5 -82q0 -74 -58.5 -120.5
t-159.5 -46.5q-81 0 -168 46zM306 639q0 -43 -19.5 -60t-73.5 -17q-56 0 -75.5 16.5t-19.5 60.5q0 43 20 60t75 17t74 -16.5t19 -60.5z" />
    <glyph glyph-name="uni1E6A" unicode="&#x1e6a;" horiz-adv-x="467" 
d="M453 547h-137v-547h-168v547h-135v128h440v-128zM319 788q0 -38 -19 -53.5t-68 -15.5q-50 0 -67.5 14.5t-17.5 54.5q0 38 18.5 53t67.5 15q50 0 68 -14t18 -54z" />
    <glyph glyph-name="uni1E6B" unicode="&#x1e6b;" horiz-adv-x="350" 
d="M322 115l11 -91q-69 -36 -135 -36q-74 0 -104.5 29.5t-30.5 101.5v275h-54v111h60q19 62 37 148h117v-148h96v-111h-96v-236q0 -29 8.5 -40t27.5 -11q30 0 63 8zM261 772q0 -43 -19.5 -60t-73.5 -17q-56 0 -75.5 16.5t-19.5 60.5q0 43 20 60t75 17t74 -16.5t19 -60.5z
" />
    <glyph glyph-name="Wgrave" unicode="&#x1e80;" horiz-adv-x="868" 
d="M703 675h155q-59 -349 -147 -675h-185l-73 315l-21 113h-2l-20 -112l-68 -316h-183q-83 295 -149 675h180q10 -74 36.5 -227.5t39.5 -236.5h2l18 104l79 360h167l82 -364l18 -100h3q44 266 68 464zM554 780l-49 -67l-211 56l71 92z" />
    <glyph glyph-name="wgrave" unicode="&#x1e81;" horiz-adv-x="779" 
d="M613 505h154q-23 -231 -117 -505h-194l-55 249l-13 84h-2l-11 -84l-48 -249h-196l-121 505h171l49 -253l14 -98h3l12 96l46 255h188l56 -261l14 -90h3q43 218 47 351zM491 592l-80 -41l-163 121l111 57z" />
    <glyph glyph-name="Wacute" unicode="&#x1e82;" horiz-adv-x="868" 
d="M703 675h155q-59 -349 -147 -675h-185l-73 315l-21 113h-2l-20 -112l-68 -316h-183q-83 295 -149 675h180q10 -74 36.5 -227.5t39.5 -236.5h2l18 104l79 360h167l82 -364l18 -100h3q44 266 68 464zM339 780l189 81l71 -92l-211 -56z" />
    <glyph glyph-name="wacute" unicode="&#x1e83;" horiz-adv-x="779" 
d="M613 505h154q-23 -231 -117 -505h-194l-55 249l-13 84h-2l-11 -84l-48 -249h-196l-121 505h171l49 -253l14 -98h3l12 96l46 255h188l56 -261l14 -90h3q43 218 47 351zM535 672l-162 -121l-81 41l133 137z" />
    <glyph glyph-name="Wdieresis" unicode="&#x1e84;" horiz-adv-x="868" 
d="M703 675h155q-59 -349 -147 -675h-185l-73 315l-21 113h-2l-20 -112l-68 -316h-183q-83 295 -149 675h180q10 -74 36.5 -227.5t39.5 -236.5h2l18 104l79 360h167l82 -364l18 -100h3q44 266 68 464zM627 784q0 -35 -17 -50t-56 -15q-41 0 -57.5 14t-16.5 51q0 36 16.5 51
t57.5 15q40 0 56.5 -14.5t16.5 -51.5zM417 784q0 -35 -16.5 -50t-56.5 -15q-41 0 -57.5 14.5t-16.5 50.5q0 35 17 50.5t57 15.5q41 0 57 -14.5t16 -51.5z" />
    <glyph glyph-name="wdieresis" unicode="&#x1e85;" horiz-adv-x="779" 
d="M613 505h154q-23 -231 -117 -505h-194l-55 249l-13 84h-2l-11 -84l-48 -249h-196l-121 505h171l49 -253l14 -98h3l12 96l46 255h188l56 -261l14 -90h3q43 218 47 351zM575 631q0 -37 -16.5 -53t-56.5 -16q-41 0 -57.5 15.5t-16.5 53.5q0 39 16.5 55t57.5 16t57 -15.5
t16 -55.5zM372 631q0 -37 -16.5 -53t-57.5 -16t-57.5 15.5t-16.5 53.5t17 54.5t57 16.5q41 0 57.5 -15.5t16.5 -55.5z" />
    <glyph glyph-name="Ygrave" unicode="&#x1ef2;" horiz-adv-x="494" 
d="M337 675h164q-76 -241 -171 -400v-275h-168v275q-104 184 -169 400h181q40 -144 83 -245h2q40 91 78 245zM333 780l-49 -67l-211 56l71 92z" />
    <glyph glyph-name="ygrave" unicode="&#x1ef3;" horiz-adv-x="494" 
d="M321 505h164q-20 -180 -62 -316t-96 -214.5t-112.5 -116.5t-120.5 -38q-41 0 -85 25v91q24 -4 56 -4q42 0 62 16q22 18 22 43q0 22 -36 143l-107 371h171l59 -238q20 -74 22 -142h2q24 74 42 182.5t19 197.5zM348 592l-80 -41l-163 121l111 57z" />
    <glyph glyph-name="endash" unicode="&#x2013;" 
d="M456 244h-412v113h412v-113z" />
    <glyph glyph-name="emdash" unicode="&#x2014;" horiz-adv-x="1000" 
d="M884 244h-768v113h768v-113z" />
    <glyph glyph-name="uni2015" unicode="&#x2015;" horiz-adv-x="1000" 
d="M884 244h-768v113h768v-113z" />
    <glyph glyph-name="quoteleft" unicode="&#x2018;" horiz-adv-x="288" 
d="M199 806l61 -57q-70 -60 -70 -95q0 -12 9.5 -21.5t19 -24.5t9.5 -41q0 -54 -18 -73.5t-74 -19.5q-51 0 -67.5 20t-16.5 73q0 139 147 239z" />
    <glyph glyph-name="quoteright" unicode="&#x2019;" horiz-adv-x="291" 
d="M91 442l-61 57q70 60 70 95q0 12 -9 21.5t-18.5 24.5t-9.5 41q0 54 18 73.5t73 19.5q52 0 68.5 -20t16.5 -73q0 -138 -148 -239z" />
    <glyph glyph-name="quotesinglbase" unicode="&#x201a;" horiz-adv-x="300" 
d="M90 -170l-62 57q70 60 70 95q0 12 -9 21.5t-18.5 24.5t-9.5 41q0 54 18 73.5t73 19.5q52 0 68.5 -20t16.5 -73q0 -139 -147 -239z" />
    <glyph glyph-name="quotedblleft" unicode="&#x201c;" horiz-adv-x="486" 
d="M402 797l57 -54q-66 -57 -66 -92q0 -11 17.5 -31.5t17.5 -52.5q0 -52 -17 -70.5t-68 -18.5q-47 0 -62 19.5t-15 70.5q0 133 136 229zM196 803l56 -54q-73 -63 -73 -98q0 -11 17.5 -31.5t17.5 -52.5q0 -52 -17 -70.5t-68 -18.5q-47 0 -62 19.5t-15 70.5q0 133 144 235z
" />
    <glyph glyph-name="quotedblright" unicode="&#x201d;" horiz-adv-x="489" 
d="M293 444l-57 54q73 62 73 98q0 11 -17 31.5t-17 52.5q0 52 17 70.5t68 18.5q47 0 62 -19.5t15 -70.5q0 -133 -144 -235zM87 450l-57 55q66 56 66 91q0 11 -17.5 31.5t-17.5 52.5q0 52 17 70.5t68 18.5q47 0 62 -19.5t15 -70.5q0 -133 -136 -229z" />
    <glyph glyph-name="quotedblbase" unicode="&#x201e;" horiz-adv-x="498" 
d="M291 -168l-56 54q73 63 73 98q0 11 -17.5 31.5t-17.5 52.5q0 52 17 70.5t68 18.5q47 0 62 -19.5t15 -70.5q0 -133 -144 -235zM85 -162l-57 55q66 56 66 91q0 11 -17.5 31.5t-17.5 52.5q0 52 17 70.5t68 18.5q47 0 62 -19.5t15 -70.5q0 -133 -136 -229z" />
    <glyph glyph-name="dagger" unicode="&#x2020;" horiz-adv-x="395" 
d="M369 491h-97v-302h-150v302h-97v100h97v118h150v-118h97v-100z" />
    <glyph glyph-name="daggerdbl" unicode="&#x2021;" horiz-adv-x="395" 
d="M369 130h-98v-130h-147v130h-99v99h99v248h-99v99h99v133h147v-133h98v-99h-98v-248h98v-99z" />
    <glyph glyph-name="bullet" unicode="&#x2022;" 
d="M449 302q0 -82 -58.5 -140.5t-140.5 -58.5t-140.5 58.5t-58.5 140.5t58.5 140.5t140.5 58.5t140.5 -58.5t58.5 -140.5z" />
    <glyph glyph-name="ellipsis" unicode="&#x2026;" horiz-adv-x="777" 
d="M712 74q0 -50 -17.5 -68t-69.5 -18t-69.5 17.5t-17.5 67.5q0 52 17.5 70t70.5 18q52 0 69 -17.5t17 -69.5zM474 74q0 -50 -17.5 -68t-69.5 -18t-69.5 17.5t-17.5 67.5q0 52 17.5 70t70.5 18q52 0 69 -17.5t17 -69.5zM235 74q0 -51 -17 -68.5t-69 -17.5t-69.5 17.5
t-17.5 67.5q0 52 17 70t70 18q52 0 69 -17.5t17 -69.5z" />
    <glyph glyph-name="perthousand" unicode="&#x2030;" horiz-adv-x="1060" 
d="M355 525q0 -75 -42.5 -118t-121.5 -43q-82 0 -117.5 40.5t-35.5 121.5q0 76 42.5 119t121.5 43q82 0 117.5 -41.5t35.5 -121.5zM240 526q0 43 -10.5 61.5t-33.5 18.5q-44 0 -44 -80q0 -44 10.5 -62t33.5 -18t33.5 18.5t10.5 61.5zM650 654l-508 -678l-81 45l509 678z
M674 148q0 -75 -43 -118t-121 -43q-83 0 -118.5 40.5t-35.5 121.5q0 76 43 119t121 43q82 0 118 -41.5t36 -121.5zM559 149q0 80 -44 80t-44 -80q0 -44 10.5 -62t33.5 -18t33.5 18.5t10.5 61.5zM1022 148q0 -75 -42.5 -118t-121.5 -43q-82 0 -117.5 40.5t-35.5 121.5
q0 76 42.5 119t121.5 43q82 0 117.5 -41.5t35.5 -121.5zM907 149q0 43 -10.5 61.5t-33.5 18.5q-44 0 -44 -80q0 -44 10.5 -62t33.5 -18t33.5 18.5t10.5 61.5z" />
    <glyph glyph-name="guilsinglleft" unicode="&#x2039;" horiz-adv-x="310" 
d="M272 114l-109 -34l-138 211l139 211l108 -35l-93 -176z" />
    <glyph glyph-name="guilsinglright" unicode="&#x203a;" horiz-adv-x="310" 
d="M38 468l109 34l138 -211l-139 -211l-108 35l93 176z" />
    <glyph glyph-name="exclamdbl" unicode="&#x203c;" horiz-adv-x="642" 
d="M264 195h-143l-27 480h195zM288 72q0 -46 -20.5 -64t-75.5 -18q-54 0 -74 18t-20 64q0 45 20 63t75 18q56 0 75.5 -17.5t19.5 -63.5zM552 195h-143l-27 480h195zM576 72q0 -46 -20.5 -64t-75.5 -18q-54 0 -74 18t-20 64q0 45 20 63t75 18q56 0 75.5 -17.5t19.5 -63.5z
" />
    <glyph glyph-name="fraction" unicode="&#x2044;" horiz-adv-x="97" 
d="M-281 -44l575 777l80 -45l-575 -776z" />
    <glyph glyph-name="zero.superior" unicode="&#x2070;" horiz-adv-x="415" 
d="M389 539q0 -102 -49 -152.5t-136 -50.5q-91 0 -135 47t-44 148q0 99 48.5 149.5t137.5 51.5q91 0 134.5 -45t43.5 -148zM250 533q0 69 -9.5 90.5t-33.5 21.5t-33.5 -23t-9.5 -88q0 -64 10 -87.5t33 -23.5q24 0 33.5 24t9.5 86z" />
    <glyph glyph-name="four.superior" unicode="&#x2074;" horiz-adv-x="368" 
d="M351 412h-38v-65h-130v65h-170v91q42 100 115 218h185v-217h38v-92zM183 504v140h-1q-41 -59 -75 -140h76z" />
    <glyph glyph-name="five.superior" unicode="&#x2075;" horiz-adv-x="363" 
d="M308 626h-139l-4 -57q4 0 18.5 1.5t24.5 1.5q68 0 100.5 -25.5t32.5 -79.5q0 -63 -45 -97t-120 -34q-76 0 -151 26l9 67q57 -10 101 -10q65 0 65 41q0 19 -14 28t-49 9q-41 0 -95 -6l16 230h250v-95z" />
    <glyph glyph-name="six.superior" unicode="&#x2076;" horiz-adv-x="407" 
d="M362 706l-13 -64q-56 8 -102 8t-63.5 -19t-19.5 -68q47 22 91 22q129 0 129 -106q0 -65 -48 -104t-129 -39q-88 0 -132 40.5t-44 146.5q0 209 193 209q73 0 138 -26zM251 470q0 42 -41 42q-23 0 -46 -10q0 -48 11 -68t35 -20q41 0 41 56z" />
    <glyph glyph-name="seven.superior" unicode="&#x2077;" horiz-adv-x="339" 
d="M324 627l-75 -129q-64 -109 -115 -163l-100 28l137 258h-155v100h308v-94z" />
    <glyph glyph-name="eight.superior" unicode="&#x2078;" horiz-adv-x="420" 
d="M25 436q0 59 74 91q-65 33 -65 92q0 52 45 83t134 31q83 0 127.5 -26.5t44.5 -71.5q0 -57 -65 -90q74 -31 74 -94q0 -117 -192 -117q-177 0 -177 102zM260 439q0 30 -68 53q-33 -20 -33 -49q0 -37 52 -37q49 0 49 33zM165 627q0 -32 56 -51q33 20 33 48q0 37 -46 37
q-43 0 -43 -34z" />
    <glyph glyph-name="nine.superior" unicode="&#x2079;" horiz-adv-x="406" 
d="M37 363l13 65q71 -11 110 -11q46 0 64 19t20 69q-48 -23 -92 -23q-129 0 -129 107q0 65 48.5 104t129.5 39q87 0 131 -41t44 -147q0 -208 -192 -208q-70 0 -147 27zM244 566q0 48 -11 67.5t-36 19.5q-41 0 -41 -56q0 -42 41 -42q23 0 47 11z" />
    <glyph glyph-name="uni207A" unicode="&#x207a;" horiz-adv-x="334" 
d="M306 485h-83v-85h-112v85h-83v97h83v86h112v-86h83v-97z" />
    <glyph glyph-name="uni207B" unicode="&#x207b;" horiz-adv-x="334" 
d="M306 485h-278v97h278v-97z" />
    <glyph glyph-name="uni207C" unicode="&#x207c;" horiz-adv-x="334" 
d="M303 555h-272v87h272v-87zM303 426h-272v86h272v-86z" />
    <glyph glyph-name="parenleft.superior" unicode="&#x207d;" horiz-adv-x="235" 
d="M219 294l-94 -21q-91 112 -91 269q0 158 91 273l94 -26q-52 -122 -52 -246q0 -118 52 -249z" />
    <glyph glyph-name="parenright.superior" unicode="&#x207e;" horiz-adv-x="235" 
d="M109 273l-93 21q52 120 52 246q0 118 -52 249l93 26q92 -113 92 -269q0 -160 -92 -273z" />
    <glyph glyph-name="nsuperior" unicode="&#x207f;" horiz-adv-x="394" 
d="M364 531q0 -13 -1 -76t-1 -108h-131q0 42 0.5 102t0.5 77q0 36 -6.5 49t-21.5 13q-21 0 -40 -16v-225h-132v326h107l9 -35q47 41 103 41q61 0 87 -34.5t26 -113.5z" />
    <glyph glyph-name="zero.inferior" unicode="&#x2080;" horiz-adv-x="415" 
d="M389 124q0 -102 -49 -152.5t-136 -50.5q-91 0 -135 47t-44 148q0 99 48.5 149.5t137.5 51.5q91 0 134.5 -45t43.5 -148zM250 118q0 69 -9.5 90.5t-33.5 21.5t-33.5 -23t-9.5 -88q0 -64 10 -87.5t33 -23.5q24 0 33.5 24t9.5 86z" />
    <glyph glyph-name="one.inferior" unicode="&#x2081;" horiz-adv-x="349" 
d="M323 -68h-283v92h78v176l-67 -19l-17 76l116 51h104v-284h69v-92z" />
    <glyph glyph-name="two.inferior" unicode="&#x2082;" horiz-adv-x="370" 
d="M343 -68h-310v94q98 78 127.5 109t29.5 56q0 33 -44 33q-31 0 -98 -19l-18 79q79 33 154 33q63 0 106 -27t43 -80q0 -44 -34 -87t-119 -94h163v-97z" />
    <glyph glyph-name="three.inferior" unicode="&#x2083;" horiz-adv-x="365" 
d="M20 -51l9 66q58 -10 102 -10q68 0 68 40q0 19 -14.5 28t-50.5 9h-58v84h64q50 0 50 34q0 32 -48 32q-42 0 -93 -16l-18 74q78 27 141 27q78 0 117.5 -27.5t39.5 -73.5q0 -59 -66 -86q76 -15 76 -85q0 -61 -50 -92.5t-126 -31.5q-75 0 -143 28z" />
    <glyph glyph-name="four.inferior" unicode="&#x2084;" horiz-adv-x="368" 
d="M351 -3h-38v-65h-130v65h-170v91q42 100 115 218h185v-217h38v-92zM183 89v140h-1q-41 -59 -75 -140h76z" />
    <glyph glyph-name="five.inferior" unicode="&#x2085;" horiz-adv-x="363" 
d="M308 211h-139l-4 -57q4 0 18.5 1.5t24.5 1.5q68 0 100.5 -25.5t32.5 -79.5q0 -63 -45 -97t-120 -34q-76 0 -151 26l9 67q57 -10 101 -10q65 0 65 41q0 19 -14 28t-49 9q-41 0 -95 -6l16 230h250v-95z" />
    <glyph glyph-name="six.inferior" unicode="&#x2086;" horiz-adv-x="407" 
d="M362 291l-13 -64q-56 8 -102 8t-63.5 -19t-19.5 -68q47 22 91 22q129 0 129 -106q0 -65 -48 -104t-129 -39q-88 0 -132 40.5t-44 146.5q0 209 193 209q73 0 138 -26zM251 55q0 42 -41 42q-23 0 -46 -10q0 -48 11 -68t35 -20q41 0 41 56z" />
    <glyph glyph-name="seven.inferior" unicode="&#x2087;" horiz-adv-x="339" 
d="M324 212l-75 -129q-64 -109 -115 -163l-100 28l137 258h-155v100h308v-94z" />
    <glyph glyph-name="eight.inferior" unicode="&#x2088;" horiz-adv-x="420" 
d="M25 21q0 59 74 91q-65 33 -65 92q0 52 45 83t134 31q83 0 127.5 -26.5t44.5 -71.5q0 -58 -65 -90q74 -31 74 -94q0 -117 -192 -117q-177 0 -177 102zM260 24q0 30 -68 53q-33 -20 -33 -49q0 -37 52 -37q49 0 49 33zM165 212q0 -32 56 -51q33 20 33 48q0 37 -46 37
q-43 0 -43 -34z" />
    <glyph glyph-name="nine.inferior" unicode="&#x2089;" horiz-adv-x="406" 
d="M37 -52l13 65q71 -11 110 -11q46 0 64 19t20 69q-48 -23 -92 -23q-129 0 -129 107q0 65 48.5 104t129.5 39q87 0 131 -41t44 -147q0 -208 -192 -208q-70 0 -147 27zM244 151q0 48 -11 67.5t-36 19.5q-41 0 -41 -56q0 -42 41 -42q23 0 47 11z" />
    <glyph glyph-name="uni208A" unicode="&#x208a;" horiz-adv-x="334" 
d="M306 70h-83v-85h-112v85h-83v97h83v86h112v-86h83v-97z" />
    <glyph glyph-name="uni208B" unicode="&#x208b;" horiz-adv-x="334" 
d="M306 70h-278v97h278v-97z" />
    <glyph glyph-name="uni208C" unicode="&#x208c;" horiz-adv-x="334" 
d="M303 140h-272v87h272v-87zM303 11h-272v86h272v-86z" />
    <glyph glyph-name="parenleft.inferior" unicode="&#x208d;" horiz-adv-x="235" 
d="M219 -121l-94 -21q-91 112 -91 269q0 158 91 273l94 -26q-52 -122 -52 -246q0 -118 52 -249z" />
    <glyph glyph-name="parenright.inferior" unicode="&#x208e;" horiz-adv-x="235" 
d="M109 -142l-93 21q52 120 52 246q0 118 -52 249l93 26q92 -113 92 -269q0 -160 -92 -273z" />
    <glyph glyph-name="Euro" unicode="&#x20ac;" 
d="M226 469h124v-99h-137q-1 -10 -1 -26q0 -23 1 -35h137v-99h-124q7 -48 33 -73.5t65 -25.5q58 0 100 45l62 -79q-73 -90 -189 -90q-209 0 -238 223h-58v99h49v61h-49v99h60q21 105 85 162t157 57q118 0 174 -97l-65 -70q-35 45 -89 45q-38 0 -63 -26t-34 -71z" />
    <glyph glyph-name="uni2117" unicode="&#x2117;" horiz-adv-x="777" 
d="M374 161h-115v351q24 0 75 0.5t70 0.5q156 0 156 -122q0 -67 -44.5 -103t-126.5 -36h-15v-91zM374 434v-103h19q48 0 48 51q0 52 -48 52h-19zM746 346q0 -151 -104 -257t-258 -106q-153 0 -253 99.5t-100 245.5q0 152 103.5 257.5t258.5 105.5q153 0 253 -99.5
t100 -245.5zM634 341q0 107 -70.5 181.5t-171.5 74.5q-105 0 -177 -76.5t-72 -187.5q0 -107 70 -181.5t172 -74.5q104 0 176.5 76.5t72.5 187.5z" />
    <glyph glyph-name="servicemark" unicode="&#x2120;" horiz-adv-x="455" 
d="M425 506h-62q2 49 0 86h-2l-26 -86h-63l-25 86h-2q-1 -23 -1 -86h-58q0 78 8 169h87l27 -91h1l24 91h82q9 -82 10 -169zM161 666l-10 -33q-19 7 -38 7q-18 0 -18 -9q0 -2 1.5 -4t5 -3.5t6.5 -2.5t9.5 -3t10.5 -4q41 -16 41 -53q0 -25 -21 -42.5t-62 -17.5q-40 0 -71 18
l11 32q22 -9 44 -9q20 0 20 11q0 4 -5 7t-15 6t-17 6q-33 13 -33 50q0 27 20 42.5t56 15.5q37 0 65 -14z" />
    <glyph glyph-name="trademark" unicode="&#x2122;" horiz-adv-x="426" 
d="M396 506h-62q2 49 0 86h-2l-25 -86h-63l-26 86h-2v-24v-32.5v-29.5h-59q2 97 8 169h88l26 -91h1l24 91h82q9 -82 10 -169zM147 623h-30v-117h-66v117h-33v52h129v-52z" />
    <glyph glyph-name="uni2139" unicode="&#x2139;" horiz-adv-x="403" 
d="M303 525q0 -48 -21 -66.5t-79 -18.5q-59 0 -79 18t-20 67t20.5 67.5t78.5 18.5q60 0 80 -18t20 -68zM382 0h-361v108h103v177h-96v108h264v-285h90v-108z" />
    <glyph glyph-name="onethird" unicode="&#x2153;" horiz-adv-x="794" 
d="M323 347h-283v92h78v176l-67 -19l-17 76l116 51h104v-284h69v-92zM69 -44l575 777l80 -45l-575 -776zM449 -51l9 66q58 -10 102 -10q68 0 68 40q0 19 -14.5 28t-50.5 9h-58v84h64q50 0 50 34q0 32 -48 32q-42 0 -93 -16l-18 74q78 27 141 27q78 0 117.5 -27.5t39.5 -73.5
q0 -59 -66 -86q76 -15 76 -85q0 -61 -50 -92.5t-126 -31.5q-75 0 -143 28z" />
    <glyph glyph-name="twothirds" unicode="&#x2154;" horiz-adv-x="813" 
d="M343 347h-310v94q98 78 127.5 109t29.5 56q0 33 -44 33q-31 0 -98 -19l-18 79q79 33 154 33q63 0 106 -27t43 -80q0 -44 -34 -87t-119 -94h163v-97zM88 -44l575 777l80 -45l-575 -776zM468 -51l9 66q58 -10 102 -10q68 0 68 40q0 19 -14.5 28t-50.5 9h-58v84h64
q50 0 50 34q0 32 -48 32q-42 0 -93 -16l-18 74q78 27 141 27q78 0 117.5 -27.5t39.5 -73.5q0 -59 -66 -86q76 -15 76 -85q0 -61 -50 -92.5t-126 -31.5q-75 0 -143 28z" />
    <glyph glyph-name="onefifth" unicode="&#x2155;" horiz-adv-x="780" 
d="M323 347h-283v92h78v176l-67 -19l-17 76l116 51h104v-284h69v-92zM69 -44l575 777l80 -45l-575 -776zM724 211h-139l-4 -57q4 0 18.5 1.5t24.5 1.5q68 0 100.5 -25.5t32.5 -79.5q0 -63 -45 -97t-120 -34q-76 0 -151 26l9 67q57 -10 101 -10q65 0 65 41q0 19 -14 28t-49 9
q-41 0 -95 -6l16 230h250v-95z" />
    <glyph glyph-name="twofifths" unicode="&#x2156;" horiz-adv-x="799" 
d="M343 347h-310v94q98 78 127.5 109t29.5 56q0 33 -44 33q-31 0 -98 -19l-18 79q79 33 154 33q63 0 106 -27t43 -80q0 -44 -34 -87t-119 -94h163v-97zM88 -44l575 777l80 -45l-575 -776zM744 211h-139l-4 -57q4 0 18.5 1.5t24.5 1.5q68 0 100.5 -25.5t32.5 -79.5
q0 -63 -45 -97t-120 -34q-76 0 -151 26l9 67q57 -10 101 -10q65 0 65 41q0 19 -14 28t-49 9q-41 0 -95 -6l16 230h250v-95z" />
    <glyph glyph-name="threefifths" unicode="&#x2157;" horiz-adv-x="771" 
d="M20 364l9 66q58 -10 102 -10q68 0 68 40q0 19 -14.5 28t-50.5 9h-58v84h64q50 0 50 34q0 32 -48 32q-42 0 -93 -16l-18 74q78 27 141 27q78 0 117.5 -27.5t39.5 -73.5q0 -59 -66 -86q76 -15 76 -85q0 -61 -50 -92.5t-126 -31.5q-75 0 -143 28zM60 -44l575 777l80 -45
l-575 -776zM716 211h-139l-4 -57q4 0 18.5 1.5t24.5 1.5q68 0 100.5 -25.5t32.5 -79.5q0 -63 -45 -97t-120 -34q-76 0 -151 26l9 67q57 -10 101 -10q65 0 65 41q0 19 -14 28t-49 9q-41 0 -95 -6l16 230h250v-95z" />
    <glyph glyph-name="fourfifths" unicode="&#x2158;" horiz-adv-x="778" 
d="M351 412h-38v-65h-130v65h-170v91q42 100 115 218h185v-217h38v-92zM183 504v140h-1q-41 -59 -75 -140h76zM68 -44l575 777l80 -45l-575 -776zM723 211h-139l-4 -57q4 0 18.5 1.5t24.5 1.5q68 0 100.5 -25.5t32.5 -79.5q0 -63 -45 -97t-120 -34q-76 0 -151 26l9 67
q57 -10 101 -10q65 0 65 41q0 19 -14 28t-49 9q-41 0 -95 -6l16 230h250v-95z" />
    <glyph glyph-name="onesixth" unicode="&#x2159;" horiz-adv-x="802" 
d="M69 -44l575 777l80 -45l-575 -776zM760 291l-13 -64q-56 8 -102 8t-63.5 -19t-19.5 -68q47 22 91 22q129 0 129 -106q0 -65 -48 -104t-129 -39q-88 0 -132 40.5t-44 146.5q0 209 193 209q73 0 138 -26zM649 55q0 42 -41 42q-23 0 -46 -10q0 -48 11 -68t35 -20q41 0 41 56
zM323 347h-283v92h78v176l-67 -19l-17 76l116 51h104v-284h69v-92z" />
    <glyph glyph-name="fivesixths" unicode="&#x215a;" horiz-adv-x="794" 
d="M61 -44l575 777l80 -45l-575 -776zM753 291l-13 -64q-56 8 -102 8t-63.5 -19t-19.5 -68q47 22 91 22q129 0 129 -106q0 -65 -48 -104t-129 -39q-88 0 -132 40.5t-44 146.5q0 209 193 209q73 0 138 -26zM642 55q0 42 -41 42q-23 0 -46 -10q0 -48 11 -68t35 -20q41 0 41 56
zM308 626h-139l-4 -57q4 0 18.5 1.5t24.5 1.5q68 0 100.5 -25.5t32.5 -79.5q0 -63 -45 -97t-120 -34q-76 0 -151 26l9 67q57 -10 101 -10q65 0 65 41q0 19 -14 28t-49 9q-41 0 -95 -6l16 230h250v-95z" />
    <glyph glyph-name="oneeighth" unicode="&#x215b;" horiz-adv-x="840" 
d="M69 -44l575 777l80 -45l-575 -776zM445 21q0 59 74 91q-65 33 -65 92q0 52 45 83t134 31q83 0 127.5 -26.5t44.5 -71.5q0 -58 -65 -90q74 -31 74 -94q0 -117 -192 -117q-177 0 -177 102zM680 24q0 30 -68 53q-33 -20 -33 -49q0 -37 52 -37q49 0 49 33zM585 212
q0 -32 56 -51q33 20 33 48q0 37 -46 37q-43 0 -43 -34zM323 347h-283v92h78v176l-67 -19l-17 76l116 51h104v-284h69v-92z" />
    <glyph glyph-name="threeeighths" unicode="&#x215c;" horiz-adv-x="831" 
d="M20 364l9 66q58 -10 102 -10q68 0 68 40q0 19 -14.5 28t-50.5 9h-58v84h64q50 0 50 34q0 32 -48 32q-42 0 -93 -16l-18 74q78 27 141 27q78 0 117.5 -27.5t39.5 -73.5q0 -59 -66 -86q76 -15 76 -85q0 -61 -50 -92.5t-126 -31.5q-75 0 -143 28zM60 -44l575 777l80 -45
l-575 -776zM436 21q0 59 74 91q-65 33 -65 92q0 52 45 83t134 31q83 0 127.5 -26.5t44.5 -71.5q0 -58 -65 -90q74 -31 74 -94q0 -117 -192 -117q-177 0 -177 102zM671 24q0 30 -68 53q-33 -20 -33 -49q0 -37 52 -37q49 0 49 33zM576 212q0 -32 56 -51q33 20 33 48
q0 37 -46 37q-43 0 -43 -34z" />
    <glyph glyph-name="fiveeighths" unicode="&#x215d;" horiz-adv-x="832" 
d="M61 -44l575 777l80 -45l-575 -776zM437 21q0 59 74 91q-65 33 -65 92q0 52 45 83t134 31q83 0 127.5 -26.5t44.5 -71.5q0 -58 -65 -90q74 -31 74 -94q0 -117 -192 -117q-177 0 -177 102zM672 24q0 30 -68 53q-33 -20 -33 -49q0 -37 52 -37q49 0 49 33zM577 212
q0 -32 56 -51q33 20 33 48q0 37 -46 37q-43 0 -43 -34zM308 626h-139l-4 -57q4 0 18.5 1.5t24.5 1.5q68 0 100.5 -25.5t32.5 -79.5q0 -63 -45 -97t-120 -34q-76 0 -151 26l9 67q57 -10 101 -10q65 0 65 41q0 19 -14 28t-49 9q-41 0 -95 -6l16 230h250v-95z" />
    <glyph glyph-name="seveneighths" unicode="&#x215e;" horiz-adv-x="787" 
d="M17 -44l575 777l80 -45l-575 -776zM393 21q0 59 74 91q-65 33 -65 92q0 52 45 83t134 31q83 0 127.5 -26.5t44.5 -71.5q0 -58 -65 -90q74 -31 74 -94q0 -117 -192 -117q-177 0 -177 102zM628 24q0 30 -68 53q-33 -20 -33 -49q0 -37 52 -37q49 0 49 33zM533 212
q0 -32 56 -51q33 20 33 48q0 37 -46 37q-43 0 -43 -34zM366 627l-75 -129q-64 -109 -115 -163l-100 28l137 258h-155v100h308v-94z" />
    <glyph glyph-name="uni2160" unicode="&#x2160;" horiz-adv-x="395" 
d="M354 0h-313v128h73v420h-73v127h313v-127h-72v-420h72v-128z" />
    <glyph glyph-name="uni2161" unicode="&#x2161;" horiz-adv-x="790" 
d="M354 0h-313v128h73v420h-73v127h313v-127h-72v-420h72v-128zM749 0h-313v128h73v420h-73v127h313v-127h-72v-420h72v-128z" />
    <glyph glyph-name="uni2162" unicode="&#x2162;" horiz-adv-x="1185" 
d="M354 0h-313v128h73v420h-73v127h313v-127h-72v-420h72v-128zM749 0h-313v128h73v420h-73v127h313v-127h-72v-420h72v-128zM1144 0h-313v128h73v420h-73v127h313v-127h-72v-420h72v-128z" />
    <glyph glyph-name="uni2163" unicode="&#x2163;" horiz-adv-x="957" 
d="M354 0h-313v128h73v420h-73v127h313v-127h-72v-420h72v-128zM788 675h163q-63 -379 -170 -675h-207q-112 326 -173 675h183q36 -258 105 -508h2q61 214 97 508z" />
    <glyph glyph-name="uni2164" unicode="&#x2164;" horiz-adv-x="561" 
d="M393 675h163q-63 -379 -170 -675h-207q-112 326 -173 675h183q36 -258 105 -508h2q61 214 97 508z" />
    <glyph glyph-name="uni2165" unicode="&#x2165;" horiz-adv-x="957" 
d="M393 675h163q-63 -379 -170 -675h-207q-112 326 -173 675h183q36 -258 105 -508h2q61 214 97 508zM915 0h-313v128h73v420h-73v127h313v-127h-72v-420h72v-128z" />
    <glyph glyph-name="uni2166" unicode="&#x2166;" horiz-adv-x="1352" 
d="M393 675h163q-63 -379 -170 -675h-207q-112 326 -173 675h183q36 -258 105 -508h2q61 214 97 508zM915 0h-313v128h73v420h-73v127h313v-127h-72v-420h72v-128zM1311 0h-313v128h73v420h-73v127h313v-127h-72v-420h72v-128z" />
    <glyph glyph-name="uni2167" unicode="&#x2167;" horiz-adv-x="1747" 
d="M393 675h163q-63 -379 -170 -675h-207q-112 326 -173 675h183q36 -258 105 -508h2q61 214 97 508zM915 0h-313v128h73v420h-73v127h313v-127h-72v-420h72v-128zM1311 0h-313v128h73v420h-73v127h313v-127h-72v-420h72v-128zM1706 0h-313v128h73v420h-73v127h313v-127h-72
v-420h72v-128z" />
    <glyph glyph-name="uni2168" unicode="&#x2168;" horiz-adv-x="948" 
d="M354 0h-313v128h73v420h-73v127h313v-127h-72v-420h72v-128zM943 0h-183q-52 132 -100 224h-3q-52 -103 -95 -224h-163q76 200 164 356q-84 154 -148 319h179q48 -129 83 -199h3q45 85 87 199h159q-66 -178 -150 -315q94 -166 167 -360z" />
    <glyph glyph-name="uni2169" unicode="&#x2169;" horiz-adv-x="553" 
d="M548 0h-183q-52 132 -100 224h-3q-52 -103 -95 -224h-163q76 200 164 356q-84 154 -148 319h179q48 -129 83 -199h3q45 85 87 199h159q-66 -178 -150 -315q94 -166 167 -360z" />
    <glyph glyph-name="uni216A" unicode="&#x216a;" horiz-adv-x="948" 
d="M548 0h-183q-52 132 -100 224h-3q-52 -103 -95 -224h-163q76 200 164 356q-84 154 -148 319h179q48 -129 83 -199h3q45 85 87 199h159q-66 -178 -150 -315q94 -166 167 -360zM907 0h-313v128h73v420h-73v127h313v-127h-72v-420h72v-128z" />
    <glyph glyph-name="uni216B" unicode="&#x216b;" horiz-adv-x="1343" 
d="M548 0h-183q-52 132 -100 224h-3q-52 -103 -95 -224h-163q76 200 164 356q-84 154 -148 319h179q48 -129 83 -199h3q45 85 87 199h159q-66 -178 -150 -315q94 -166 167 -360zM907 0h-313v128h73v420h-73v127h313v-127h-72v-420h72v-128zM1302 0h-313v128h73v420h-73v127
h313v-127h-72v-420h72v-128z" />
    <glyph glyph-name="uni216C" unicode="&#x216c;" horiz-adv-x="421" 
d="M406 0h-343v675h168v-546h175v-129z" />
    <glyph glyph-name="uni216D" unicode="&#x216d;" horiz-adv-x="514" 
d="M437 180l68 -87q-34 -50 -89.5 -78t-118.5 -28q-135 0 -200 83t-65 254q0 177 71 270.5t197 93.5q134 0 193 -110l-75 -75q-39 51 -94 51q-57 0 -86.5 -56.5t-29.5 -152.5q0 -122 29.5 -172.5t88.5 -50.5t111 58z" />
    <glyph glyph-name="uni216E" unicode="&#x216e;" horiz-adv-x="605" 
d="M63 0v675q41 0 111 1t101 1q298 0 298 -320q0 -361 -326 -361q-35 0 -99.5 2t-84.5 2zM231 552v-427q26 -2 36 -2q130 0 130 217q0 112 -32 162.5t-97 50.5q-24 0 -37 -1z" />
    <glyph glyph-name="uni216F" unicode="&#x216f;" horiz-adv-x="853" 
d="M807 0h-177q-3 263 -18 471h-2l-123 -471h-144l-123 471h-1q-13 -196 -15 -471h-156q9 345 47 675h221l114 -415h1l116 415h210q35 -328 50 -675z" />
    <glyph glyph-name="arrowleft" unicode="&#x2190;" horiz-adv-x="1054" 
d="M44 338l391 391l76 -76q-105 -134 -217 -246l1 -3q264 14 547 14h139v-160h-139q-126 0 -263 3.5t-211 6.5l-73 4l-1 -3q50 -50 104 -111.5t84 -97.5l29 -37l-76 -76z" />
    <glyph glyph-name="arrowup" unicode="&#x2191;" horiz-adv-x="870" 
d="M435 821l391 -391l-76 -76q-134 105 -246 217l-3 -1q14 -264 14 -547v-139h-160v139q0 126 3.5 263t7.5 210l3 74l-3 1q-50 -50 -111.5 -104t-98.5 -83l-36 -30l-76 76z" />
    <glyph glyph-name="arrowright" unicode="&#x2192;" horiz-adv-x="1054" 
d="M1010 338l-391 -391l-76 76q105 134 217 246l-1 3q-264 -14 -547 -14h-139v160h139q126 0 263 -3.5t211 -6.5l73 -4l1 3q-50 50 -104 111.5t-84 97.5l-29 37l76 76z" />
    <glyph glyph-name="arrowdown" unicode="&#x2193;" horiz-adv-x="870" 
d="M435 -145l-391 391l76 76q134 -105 246 -217l3 1q-14 264 -14 547v139h160v-139q0 -126 -3.5 -263t-7.5 -210l-3 -74l3 -1q50 50 111.5 104t98.5 83l36 30l76 -76z" />
    <glyph glyph-name="arrowboth" unicode="&#x2194;" horiz-adv-x="1250" 
d="M1206 338l-349 -349l-71 71q86 111 189 215l-1 2q-181 -9 -277 -9h-144l-277 9l-1 -2q46 -46 93 -100t72 -85l24 -30l-71 -71l-349 349l349 349l71 -71q-86 -111 -189 -215l1 -2q181 9 277 9h144l277 -9l1 2q-46 46 -93 100t-72 85l-24 30l71 71z" />
    <glyph glyph-name="arrowupdn" unicode="&#x2195;" horiz-adv-x="786" 
d="M393 -187l-349 349l71 71q111 -86 215 -189l2 1q-10 181 -10 277v32q0 43 2.5 112t5.5 117l2 48l-2 1q-46 -46 -100 -93t-84 -71l-31 -25l-71 71l349 349l349 -349l-71 -71q-111 86 -215 189l-2 -1q10 -181 10 -277v-32q0 -43 -2.5 -112t-5.5 -117l-2 -48l2 -1
q46 46 100 93t84 71l31 25l71 -71z" />
    <glyph glyph-name="arrownorthwest" unicode="&#x2196;" horiz-adv-x="846" 
d="M80 680h554v-108q-170 -20 -328 -20l-1 -3q195 -176 396 -377l99 -99l-113 -113l-99 100q-89 89 -183 187.5t-144 152.5l-50 55l-3 -1q0 -70 -5 -152t-9 -129l-5 -47h-109v554z" />
    <glyph glyph-name="arrownortheast" unicode="&#x2197;" horiz-adv-x="846" 
d="M764 680v-554h-108q-20 170 -20 328l-3 1q-176 -195 -377 -395l-99 -100l-112 113l99 99q89 89 187.5 183.5t152.5 144.5l55 49v3q-70 0 -152.5 5t-129.5 10l-47 5v108h554z" />
    <glyph glyph-name="arrowsoutheast" unicode="&#x2198;" horiz-adv-x="846" 
d="M764 -4h-554v108q171 20 329 20v3q-195 176 -395 377l-99 99l112 113l99 -100q89 -89 183.5 -187.5t144.5 -152.5l49 -55l3 1q0 70 5 152t10 129l5 47h108v-554z" />
    <glyph glyph-name="arrowsouthwest" unicode="&#x2199;" horiz-adv-x="846" 
d="M80 -4v554h109q19 -170 19 -328l3 -1q177 195 377 395l99 100l113 -113l-99 -99q-89 -89 -188 -183.5t-153 -144.5l-55 -49l1 -3q70 0 152 -5t129 -10l47 -5v-108h-554z" />
    <glyph glyph-name="partialdiff" unicode="&#x2202;" horiz-adv-x="546" 
d="M143 638l88 82q143 -49 213 -147.5t70 -264.5q0 -153 -67 -236t-188 -83q-111 0 -173.5 63t-62.5 195q0 124 65.5 192.5t194.5 68.5q15 0 23 -3q-42 76 -163 133zM344 268q0 67 -9 125q-16 8 -50 8q-41 0 -65.5 -38.5t-24.5 -109.5q0 -143 79 -143q33 0 51.5 32.5
t18.5 125.5z" />
    <glyph glyph-name="product" unicode="&#x220f;" horiz-adv-x="653" 
d="M637 547h-53v-547h-168v547h-178v-547h-168v547h-53v128h620v-128z" />
    <glyph glyph-name="summation" unicode="&#x2211;" 
d="M467 0h-428v114l193 233l-184 212v116h402v-127h-212l171 -195l-182 -224h240v-129z" />
    <glyph glyph-name="minus" unicode="&#x2212;" 
d="M466 245h-432v112h432v-112z" />
    <glyph glyph-name="uni2215" unicode="&#x2215;" horiz-adv-x="97" 
d="M-281 -44l575 777l80 -45l-575 -776z" />
    <glyph glyph-name="radical" unicode="&#x221a;" 
d="M354 675h148q-63 -362 -178 -675h-174l-93 401h-51v104h179l66 -329q67 243 103 499z" />
    <glyph glyph-name="infinity" unicode="&#x221e;" horiz-adv-x="1000" 
d="M971 304q0 -97 -60 -155.5t-171 -58.5q-114 0 -248 112q-138 -112 -248 -112q-111 0 -163 56.5t-52 143.5q0 97 60 155.5t171 58.5q114 0 248 -112q138 112 248 112q111 0 163 -56.5t52 -143.5zM814 298q0 81 -66 81q-51 0 -140 -77q94 -87 140 -87q33 0 49.5 23t16.5 60
zM252 215q49 0 140 77q-48 43 -80.5 65t-59.5 22q-33 0 -49.5 -23t-16.5 -60q0 -81 66 -81z" />
    <glyph glyph-name="integral" unicode="&#x222b;" horiz-adv-x="400" 
d="M390 691l-19 -90q-31 7 -50 7q-25 0 -34.5 -13t-9.5 -45v-567q0 -82 -35 -125t-115 -43q-66 0 -123 31l19 90q32 -7 50 -7q25 0 34.5 13t9.5 45v567q0 82 35 125t115 43q66 0 123 -31z" />
    <glyph glyph-name="uni2236" unicode="&#x2236;" horiz-adv-x="331" 
d="M253 499q0 -45 -21 -63t-67 -18q-45 0 -66 18.5t-21 62.5t21 62.5t66 18.5q47 0 67.5 -18t20.5 -63zM253 144q0 -45 -21 -63t-67 -18q-45 0 -66 18t-21 62t21 62.5t66 18.5q47 0 67.5 -17.5t20.5 -62.5z" />
    <glyph glyph-name="approxequal" unicode="&#x2248;" 
d="M431 470l40 -88q-69 -62 -138 -62q-49 0 -100 26t-78 26q-36 0 -86 -44l-40 88q69 62 138 62q49 0 100 -26t78 -26q36 0 86 44zM431 273l40 -88q-69 -62 -138 -62q-49 0 -100 26t-78 26q-36 0 -86 -44l-40 88q69 62 138 62q49 0 100 -26t78 -26q36 0 86 44z" />
    <glyph glyph-name="notequal" unicode="&#x2260;" 
d="M465 159h-224l-78 -150l-103 51l53 99h-78v101h130l42 81h-172v101h225l78 150l103 -51l-53 -99h77v-101h-128l-43 -81h171v-101z" />
    <glyph glyph-name="lessequal" unicode="&#x2264;" 
d="M462 0h-424v106h424v-106zM463 252l-42 -110l-383 168v106l383 168l42 -108l-280 -111z" />
    <glyph glyph-name="greaterequal" unicode="&#x2265;" 
d="M462 0h-424v106h424v-106zM462 310l-384 -168l-42 107l280 112l-280 112l42 111l384 -168v-106z" />
    <glyph glyph-name="filledbox" unicode="&#x25a0;" horiz-adv-x="1100" 
d="M1017 -133h-934v942h934v-942z" />
    <glyph glyph-name="uni25A1" unicode="&#x25a1;" horiz-adv-x="1100" 
d="M1034 -149h-968v974h968v-974zM911 -45v766h-722v-766h722z" />
    <glyph glyph-name="uni25B2" unicode="&#x25b2;" horiz-adv-x="800" 
d="M400 732l305 -727h-610z" />
    <glyph glyph-name="uni25B3" unicode="&#x25b3;" horiz-adv-x="800" 
d="M721 -6h-642l321 765zM522 126l-122 292l-122 -292h244z" />
    <glyph glyph-name="uni25B6" unicode="&#x25b6;" horiz-adv-x="868" 
d="M828 338l-727 -305v610z" />
    <glyph glyph-name="uni25B7" unicode="&#x25b7;" horiz-adv-x="868" 
d="M855 338l-765 -321v642zM222 460v-244l292 122z" />
    <glyph glyph-name="uni25BC" unicode="&#x25bc;" horiz-adv-x="800" 
d="M705 671l-305 -727l-305 727h610z" />
    <glyph glyph-name="uni25BD" unicode="&#x25bd;" horiz-adv-x="800" 
d="M721 682l-321 -765l-321 765h642zM278 550l122 -292l122 292h-244z" />
    <glyph glyph-name="uni25C0" unicode="&#x25c0;" horiz-adv-x="868" 
d="M767 643v-610l-727 305z" />
    <glyph glyph-name="uni25C1" unicode="&#x25c1;" horiz-adv-x="868" 
d="M778 659v-642l-765 321zM354 338l291 -122v244z" />
    <glyph glyph-name="lozenge" unicode="&#x25ca;" 
d="M487 337l-179 -337h-115l-180 339l180 336h114zM346 325l-102 180l-88 -154l101 -181z" />
    <glyph glyph-name="circle" unicode="&#x25cb;" horiz-adv-x="1100" 
d="M1061 338q0 -246 -133 -377t-377 -131q-245 0 -378.5 131t-133.5 377q0 247 133.5 377.5t378.5 130.5q244 0 377 -131t133 -377zM935 338q0 403 -384 403q-386 0 -386 -403t386 -403q384 0 384 403z" />
    <glyph glyph-name="uni25CF" unicode="&#x25cf;" horiz-adv-x="1100" 
d="M62 338q0 237 127 364t360 127q232 0 358.5 -127.5t126.5 -363.5q0 -234 -127 -361t-358 -127q-233 0 -360 127t-127 361z" />
    <glyph glyph-name="uniE1C2" unicode="&#xe1c2;" horiz-adv-x="1100" 
d="M1036 338q0 -234 -126.5 -361t-358.5 -127q-233 0 -360 127t-127 361q0 237 127 364t360 127q232 0 358.5 -127.5t126.5 -363.5zM630 52h184l-173 319l158 257h-175l-127 -226h-1v226h-165v-576h165v244h1z" />
    <glyph glyph-name="uniE1C3" unicode="&#xe1c3;" horiz-adv-x="1100" 
d="M1036 338q0 -234 -126.5 -361t-358.5 -127q-233 0 -360 127t-127 361q0 237 127 364t360 127q232 0 358.5 -127.5t126.5 -363.5zM653 583q0 50 -20 68t-80 18q-57 0 -78 -19t-21 -67q0 -50 20.5 -68t78.5 -18t79 19t21 67zM371 57h361v109h-90v285h-264v-109h96v-176
h-103v-109z" />
    <glyph glyph-name="uniE1C4" unicode="&#xe1c4;" horiz-adv-x="1100" 
d="M807 52h-184l-133 244h-1v-244h-165v576h165v-226h1l127 226h175l-158 -257zM1061 338q0 -246 -133 -377t-377 -131q-245 0 -378.5 131t-133.5 377q0 247 133.5 377.5t378.5 130.5q244 0 377 -131t133 -377zM935 338q0 403 -384 403q-386 0 -386 -403t386 -403
q384 0 384 403z" />
    <glyph glyph-name="apple" unicode="&#xf8ff;" horiz-adv-x="1000" 
d="M706 136l-18 -5l35 -80l-33 -10l33 -77l-35 -10l10 -25l-32 -77h-63q-3 -23 -32 -37.5t-71 -14.5t-71 15t-32 37h-62l-59 140l34 10l-34 81l36 9l-19 48v83q-69 79 -69 182q0 114 81 194t195 80t195 -80t81 -194q0 -107 -70 -184v-85zM580 253h51q69 60 69 152
q0 82 -58.5 140.5t-141.5 58.5t-141.5 -58.5t-58.5 -140.5q0 -93 70 -152h51l-17 135q-15 -3 -41 -13q-12 -5 -17 16q-7 31 4 48q3 4 6 5q71 22 144 22t146 -22q13 -4 11 -39q-3 -33 -18 -31q-1 1 -2 1q-25 10 -42 13zM630 -7l-13 31l-248 -63l25 -59h213l11 28l-5 10
l-72 -19l-17 46zM628 172v21h-257v-48l15 -36zM544 882l-15 -163q-29 3 -58 0l-15 163q26 2 43 2q19 0 45 -2zM850 695l-107 -88q-20 24 -41 40l88 107q32 -24 60 -59zM257 607l-107 88q28 35 60 59l88 -107q-21 -16 -41 -40zM185 376l-137 -14q-5 42 0 85l137 -14
q-2 -29 0 -57zM952 362l-137 14q2 29 0 57l137 14q5 -43 0 -85zM526 253l14 144q-15 2 -39 2q-27 0 -42 -2l16 -144h51zM629 82l-13 31l-248 -62l15 -32zM505 425v3q0 2 -3 1v-1q2 1 2 0q-2 0 -2 -2q0 -1 2 -1h1zM494 426v3h-1v-3h-1v3h-1v-3q1 -1 3 0zM498 425v1v2v1h-2
q-1 -3 2 -4zM508 428v1q-4 0 -2 -3v-1q5 0 2 3zM501 424q-1 3 0 7h-1q-1 -4 0 -7h1zM510 424q1 4 0 7h-1q1 -4 0 -7h1zM490 425v1h-1v4h-1v-5h2zM504 427l-1 -1z" />
    <glyph glyph-name="s_t" unicode="&#xfb06;" horiz-adv-x="759" 
d="M731 115l12 -91q-69 -36 -136 -36q-73 0 -104 29.5t-31 101.5v275h-53v111h53v13q0 82 -65 82q-28 0 -46 -17.5t-18 -46.5q0 -37 29 -58l-15 -83q-61 14 -104 14q-32 0 -48 -11t-16 -28q0 -20 22.5 -33.5t54.5 -24.5t63.5 -26.5t54 -48.5t22.5 -82q0 -74 -58.5 -120.5
t-159.5 -46.5q-81 0 -168 46l12 80q80 -15 126 -15q78 0 78 44q0 20 -22 33.5t-53.5 24.5t-63 26.5t-53.5 48.5t-22 82q0 72 54 115.5t142 43.5l41 -4q-32 16 -32 61q0 63 55.5 99t139.5 36q110 0 160 -45t50 -135v-24h97v-111h-97v-236q0 -29 9 -40t28 -11q30 0 62 8z" />
    <glyph glyph-name="uniFEFF" unicode="&#xfeff;" horiz-adv-x="0" 
 />
    <glyph glyph-name="u1F137" unicode="&#x1f137;" horiz-adv-x="1100" 
d="M801 52h-166v232h-170v-232h-166v576h166v-210h170v210h166v-576zM1034 -149h-968v974h968v-974zM911 -45v766h-722v-766h722z" />
    <glyph glyph-name="u1F13F" unicode="&#x1f13f;" horiz-adv-x="1100" 
d="M507 52h-162v576q41 0 123 0.5t102 0.5q230 0 230 -185q0 -211 -265 -211h-28v-181zM507 516v-169h40q80 0 80 84q0 44 -18.5 64.5t-65.5 20.5h-36zM1034 -149h-968v974h968v-974zM911 -45v766h-722v-766h722z" />
    <glyph glyph-name="u1F177" unicode="&#x1f177;" horiz-adv-x="1100" 
d="M1017 -133h-934v942h934v-942zM635 52h166v576h-166v-210h-170v210h-166v-576h166v232h170v-232z" />
    <glyph glyph-name="u1F17F" unicode="&#x1f17f;" horiz-adv-x="1100" 
d="M1017 -133h-934v942h934v-942zM343 52h162v181h28q265 0 265 211q0 185 -230 185q-20 0 -102 -0.5t-123 -0.5v-576zM505 347v169h36q47 0 65.5 -20.5t18.5 -64.5q0 -84 -81 -84h-39z" />
    <glyph glyph-name="U1F6C8" unicode="&#x1f6c8;" horiz-adv-x="1100" 
d="M1061 338q0 -246 -133 -377t-377 -131q-245 0 -378.5 131t-133.5 377q0 247 133.5 377.5t378.5 130.5q244 0 377 -131t133 -377zM935 338q0 403 -384 403q-386 0 -386 -403t386 -403q384 0 384 403zM655 582q0 -48 -21 -66.5t-79 -18.5q-59 0 -79 18t-20 67t20.5 67.5
t78.5 18.5q60 0 80 -18t20 -68zM734 57h-361v108h103v177h-96v108h264v-285h90v-108z" />
    <glyph glyph-name="L_a_t_n_C_a_p_s" horiz-adv-x="976" 
d="M223 500h-172v337h84v-273h88v-64zM468 500h-61l-6 23q-33 -30 -75 -30q-81 0 -81 75q0 41 34 65t98 24h12v14q0 30 -41 30q-38 0 -80 -15l-9 48q54 24 108 24q49 0 75 -21t26 -58v-179zM389 567v42h-16q-51 0 -51 -32q0 -28 28 -28q19 0 39 18zM654 558l6 -46
q-33 -18 -68 -18q-37 0 -52 14.5t-15 50.5v138h-27v55h30q8 28 18 74h59v-74h48v-55h-48v-118q0 -26 18 -26q13 0 31 5zM917 500h-80q0 31 0.5 76t0.5 54q0 40 -5.5 52t-20.5 12q-14 0 -37 -15v-179h-80v252h65l6 -24q33 31 74 31t60 -28t19 -88q0 -11 -1 -61t-1 -82z
M203 90l34 -43q-37 -54 -104 -54q-68 0 -100.5 41.5t-32.5 127.5q0 88 35.5 135t98.5 47q66 0 97 -55l-38 -38q-19 26 -48 26q-57 0 -57 -104q0 -62 14.5 -87t44.5 -25q29 0 56 29zM475 0h-62l-5 23q-33 -30 -75 -30q-82 0 -82 75q0 41 34 65t98 24h13v14q0 30 -41 30
q-38 0 -80 -15l-9 48q53 24 108 24q49 0 75 -21t26 -58v-179zM396 67v42h-16q-51 0 -51 -32q0 -28 27 -28q20 0 40 18zM608 -87h-80v339h65l5 -24q34 31 69 31q46 0 68.5 -34.5t22.5 -88.5q0 -73 -34 -108t-93 -35q-4 0 -12.5 0.5t-10.5 0.5v-81zM608 181v-127q8 -4 24 -4
q45 0 45 77q0 70 -34 70q-18 0 -35 -16zM783 17l5 40q40 -8 64 -8q39 0 39 23q0 12 -16.5 20t-37 14t-37 24.5t-16.5 48.5q0 36 27 57.5t71 21.5q39 0 77 -21l-8 -40q-28 7 -52 7q-31 0 -31 -19q0 -12 17 -20t37 -14t37 -24.5t17 -48.5q0 -38 -29.5 -61t-80.5 -23
q-43 0 -83 23z" />
    <glyph glyph-name="IJ.alt1" horiz-adv-x="591" 
d="M231 0h-168v675h168v-675zM529 675v-439q0 -164 -121 -247l-103 67q34 38 45 73.5t11 99.5v446h168z" />
    <glyph glyph-name="IJ.alt2" horiz-adv-x="592" 
d="M231 0h-168v675h168v-675zM529 675v-585q0 -125 -62 -194t-209 -81l-25 101q74 20 101 60t27 117v582h168z" />
    <glyph glyph-name="J.alt1" horiz-adv-x="298" 
d="M235 675v-439q0 -164 -121 -247l-103 67q34 38 45 73.5t11 99.5v446h168z" />
    <glyph glyph-name="J.alt2" horiz-adv-x="298" 
d="M235 675v-585q0 -125 -62 -194t-209 -81l-25 101q74 20 101 60t27 117v582h168z" />
    <glyph glyph-name="Jcircumflex.alt2" horiz-adv-x="298" 
d="M235 675v-585q0 -125 -62 -194t-209 -81l-25 101q74 20 101 60t27 117v582h168zM152 861l157 -83l-40 -65l-119 47l-118 -47l-39 62z" />
    <glyph glyph-name="Jcircumflex.alt1" horiz-adv-x="298" 
d="M235 675v-439q0 -164 -121 -247l-103 67q34 38 45 73.5t11 99.5v446h168zM152 861l157 -83l-40 -65l-119 47l-118 -47l-39 62z" />
    <glyph glyph-name="L_a_t_n_L_o_w_e_r" horiz-adv-x="1277" 
d="M750 252h77q-11 -112 -58 -252h-97l-28 125l-7 41h-1l-5 -41l-24 -125h-98l-61 252h86l24 -126l7 -42h1l6 40l24 128h94l29 -130l7 -37q23 121 24 167zM434 131q0 -69 -33.5 -103.5t-94.5 -34.5q-59 0 -88 30t-29 98q0 69 33 103.5t94 34.5q59 0 88.5 -30.5t29.5 -97.5z
M614 500h-61l-6 23q-33 -30 -75 -30q-81 0 -81 75q0 41 34 65t98 24h12v14q0 30 -40 30q-38 0 -81 -15l-9 48q54 24 109 24q48 0 74 -21t26 -58v-179zM1075 108h-146v-2q0 -52 48 -52q36 0 86 13l11 -44q-57 -30 -112 -30q-115 0 -115 127q0 67 32.5 103t89.5 36
q117 0 106 -151zM1063 500h-80q0 31 0.5 76t0.5 54q0 40 -5.5 52t-20.5 12q-14 0 -37 -15v-179h-80v252h65l6 -24q33 31 74 31t60 -27.5t19 -88.5q0 -11 -1 -61t-1 -82zM369 500h-172v337h84v-273h88v-64zM171 0h-171v337h84v-273h87v-64zM801 558l5 -46q-33 -18 -68 -18
q-36 0 -51.5 14.5t-15.5 50.5v138h-27v55h30q10 30 18 74h59v-74h48v-55h-48v-118q0 -26 18 -26q13 0 32 5zM1277 252l-10 -69q-16 4 -24 4q-17 0 -43 -34v-153h-80v252h65l7 -36q29 42 58 42q14 0 27 -6zM352 120q0 48 -10 64t-31 16q-41 0 -41 -68q0 -47 10.5 -64
t30.5 -17q41 0 41 69zM535 567v42h-16q-51 0 -51 -32q0 -28 28 -28q19 0 39 18zM929 157h70v1q0 48 -33 48q-34 0 -37 -49z" />
    <glyph glyph-name="c_h" horiz-adv-x="949" 
d="M896 0h-161q0 60 2 150.5t2 110.5q0 80 -12 104.5t-41 24.5q-31 0 -74 -30v-360h-160v607q-15 4 -34 4q-33 0 -51 -17t-18 -49q0 -44 39 -78l-46 -90q-28 22 -69 22q-36 0 -57 -35.5t-21 -106.5q0 -81 18.5 -115t56.5 -34q47 0 88 32l38 -86q-70 -65 -161 -65
q-206 0 -206 257q0 114 57 192t157 78q9 0 13 -3q-24 18 -24 62q0 67 62.5 107t174.5 40q32 0 67.5 -3t55.5 -7l20 -3v-241q56 49 130 49q81 0 119 -54t38 -177q0 -22 -1.5 -121.5t-1.5 -164.5z" />
    <glyph glyph-name="c_k" horiz-adv-x="909" 
d="M904 0h-185l-102 239h-5v-239h-160v607q-15 4 -34 4q-33 0 -51 -17t-18 -49q0 -44 39 -78l-46 -90q-28 22 -69 22q-36 0 -57 -35.5t-21 -106.5q0 -81 18.5 -115t56.5 -34q47 0 88 32l38 -86q-70 -65 -161 -65q-206 0 -206 257q0 114 57 192t157 78q9 0 13 -3
q-24 18 -24 62q0 67 62.5 107t174.5 40q32 0 67.5 -3t55.5 -7l20 -3v-404h5l94 200h181l-130 -216z" />
    <glyph glyph-name="c_t" horiz-adv-x="760" 
d="M730 394h-96v-236q0 -29 8.5 -40t27.5 -11q30 0 63 8l11 -91q-69 -36 -135 -36q-74 0 -104.5 29.5t-30.5 101.5v275h-54v111h54v13q0 82 -64 82q-28 0 -44.5 -15.5t-16.5 -43.5q0 -39 37 -73l-43 -92q-32 23 -70 23q-36 0 -57 -35.5t-21 -106.5q0 -81 18.5 -115t58.5 -34
q45 0 93 35l47 -82q-72 -72 -176 -72q-207 0 -207 257q0 116 56.5 193t157.5 77q9 0 13 -3q-24 18 -24 62q0 63 56 98.5t143 35.5q107 0 155 -42.5t48 -137.5v-24h96v-111z" />
    <glyph glyph-name="ccedilla_t" horiz-adv-x="760" 
d="M730 394h-96v-236q0 -29 8.5 -40t27.5 -11q30 0 63 8l11 -91q-69 -36 -135 -36q-74 0 -104.5 29.5t-30.5 101.5v275h-54v111h54v13q0 82 -64 82q-28 0 -44.5 -15.5t-16.5 -43.5q0 -39 37 -73l-43 -92q-32 23 -70 23q-36 0 -57 -35.5t-21 -106.5q0 -81 18.5 -115t58.5 -34
q45 0 93 35l47 -82q-72 -72 -176 -72q-207 0 -207 257q0 116 56.5 193t157.5 77q9 0 13 -3q-24 18 -24 62q0 63 56 98.5t143 35.5q107 0 155 -42.5t48 -137.5v-24h96v-111zM163 -42h135q17 -87 -89 -144l-93 33q37 31 46.5 55.5t0.5 55.5z" />
    <glyph glyph-name="i.dotaccent" horiz-adv-x="267" 
d="M227 630q0 -45 -19.5 -63t-73.5 -18q-56 0 -75.5 17t-19.5 64q0 45 20 63t75 18t74 -17t19 -64zM213 0h-160v505h160v-505z" />
    <glyph glyph-name="ij.alt1" horiz-adv-x="551" 
d="M497 505v-484q0 -206 -228 -206q-84 0 -192 48l11 87q106 -17 162 -17q47 0 67 15t20 52v11q0 22 4 36q-60 -50 -133 -50q-82 0 -120.5 54t-38.5 173q0 22 2 118.5t2 162.5h161q0 -61 -2 -150t-2 -108q0 -79 11.5 -103.5t40.5 -24.5q30 0 75 30v356h160zM230 630
q0 -45 -19.5 -63t-73.5 -18q-56 0 -75.5 17t-19.5 64q0 45 20 63t75 18t74 -17t19 -64zM508 630q0 -45 -19.5 -63t-73.5 -18q-56 0 -75.5 17t-19.5 64q0 45 20 63t75 18t74 -17t19 -64z" />
    <glyph glyph-name="i_j" horiz-adv-x="551" 
d="M497 505v-484q0 -206 -228 -206q-84 0 -192 48l11 87q106 -17 162 -17q47 0 67 15t20 52v11q0 22 4 36q-60 -50 -133 -50q-82 0 -120.5 54t-38.5 173q0 22 2 118.5t2 162.5h161q0 -61 -2 -150t-2 -108q0 -79 11.5 -103.5t40.5 -24.5q30 0 75 30v356h160zM230 630
q0 -45 -19.5 -63t-73.5 -18q-56 0 -75.5 17t-19.5 64q0 45 20 63t75 18t74 -17t19 -64zM508 630q0 -45 -19.5 -63t-73.5 -18q-56 0 -75.5 17t-19.5 64q0 45 20 63t75 18t74 -17t19 -64z" />
    <glyph glyph-name="scedilla_t" horiz-adv-x="759" 
d="M731 115l12 -91q-69 -36 -136 -36q-73 0 -104 29.5t-31 101.5v275h-53v111h53v13q0 82 -65 82q-28 0 -46 -17.5t-18 -46.5q0 -37 29 -58l-15 -83q-61 14 -104 14q-32 0 -48 -11t-16 -28q0 -20 22.5 -33.5t54.5 -24.5t63.5 -26.5t54 -48.5t22.5 -82q0 -74 -58.5 -120.5
t-159.5 -46.5q-81 0 -168 46l12 80q80 -15 126 -15q78 0 78 44q0 20 -22 33.5t-53.5 24.5t-63 26.5t-53.5 48.5t-22 82q0 72 54 115.5t142 43.5l41 -4q-32 16 -32 61q0 63 55.5 99t139.5 36q110 0 160 -45t50 -135v-24h97v-111h-97v-236q0 -29 9 -40t28 -11q30 0 62 8z
M129 -42h135q17 -87 -89 -144l-93 33q37 31 46.5 55.5t0.5 55.5z" />
    <glyph glyph-name="scommaaccent_t" horiz-adv-x="759" 
d="M731 115l12 -91q-69 -36 -136 -36q-73 0 -104 29.5t-31 101.5v275h-53v111h53v13q0 82 -65 82q-28 0 -46 -17.5t-18 -46.5q0 -37 29 -58l-15 -83q-61 14 -104 14q-32 0 -48 -11t-16 -28q0 -20 22.5 -33.5t54.5 -24.5t63.5 -26.5t54 -48.5t22.5 -82q0 -74 -58.5 -120.5
t-159.5 -46.5q-81 0 -168 46l12 80q80 -15 126 -15q78 0 78 44q0 20 -22 33.5t-53.5 24.5t-63 26.5t-53.5 48.5t-22 82q0 72 54 115.5t142 43.5l41 -4q-32 16 -32 61q0 63 55.5 99t139.5 36q110 0 160 -45t50 -135v-24h97v-111h-97v-236q0 -29 9 -40t28 -11q30 0 62 8z
M210 -31q28 0 45 -16t17 -43q0 -96 -164 -93l-17 50q60 9 60 33q0 3 -2.5 9.5t-2.5 14.5q0 19 17 32t47 13z" />
    <glyph glyph-name="grave.cap" horiz-adv-x="328" 
d="M294 780l-49 -67l-211 56l71 92z" />
    <glyph glyph-name="acute.cap" horiz-adv-x="328" 
d="M34 780l189 81l71 -92l-211 -56z" />
    <glyph glyph-name="circumflex.cap" horiz-adv-x="385" 
d="M193 861l157 -83l-40 -65l-119 47l-118 -47l-39 62z" />
    <glyph glyph-name="caron.cap" horiz-adv-x="385" 
d="M192 713l-158 84l41 64l118 -46l119 46l38 -62z" />
    <glyph glyph-name="uni0315.cap" horiz-adv-x="210" 
d="M176 742l-64 -192l-78 13l33 200z" />
    <glyph glyph-name="tilde.cap" horiz-adv-x="428" 
d="M331 856l63 -43q-46 -96 -131 -96q-38 0 -71 22t-43 22q-13 0 -23.5 -9t-27.5 -34l-64 43q48 96 131 96q38 0 71.5 -22.5t43.5 -22.5q13 0 23 9t28 35z" />
    <glyph glyph-name="dieresis.cap" horiz-adv-x="425" 
d="M391 784q0 -35 -17 -50t-56 -15q-41 0 -57.5 14t-16.5 51q0 36 16.5 51t57.5 15q40 0 56.5 -14.5t16.5 -51.5zM181 784q0 -35 -16.5 -50t-56.5 -15q-41 0 -57.5 14.5t-16.5 50.5q0 35 17 50.5t57 15.5q41 0 57 -14.5t16 -51.5z" />
    <glyph glyph-name="dieresis.cap.narrow" horiz-adv-x="376" 
d="M342 784q0 -35 -15.5 -50t-52.5 -15q-38 0 -53.5 14t-15.5 51q0 36 15.5 51t53.5 15q37 0 52.5 -15t15.5 -51zM171 784q0 -35 -15.5 -50t-52.5 -15q-38 0 -53.5 14.5t-15.5 50.5q0 35 16 50.5t53 15.5q38 0 53 -14.5t15 -51.5z" />
    <glyph glyph-name="dieresis.narrow" horiz-adv-x="392" 
d="M358 631q0 -37 -16 -53t-56 -16t-56 15.5t-16 53.5q0 39 16 55t56 16t56 -15.5t16 -55.5zM177 631q0 -37 -15.5 -53t-55.5 -16t-56 15.5t-16 53.5q0 39 16 55t56 16t55.5 -15.5t15.5 -55.5z" />
    <glyph glyph-name="macron.cap" horiz-adv-x="363" 
d="M328 736h-294v102h294v-102z" />
    <glyph glyph-name="breve.cap" horiz-adv-x="375" 
d="M247 868h94q0 -75 -41 -117t-113 -42q-73 0 -113 40.5t-40 118.5h95q0 -59 58 -59q30 0 45 16t15 43z" />
    <glyph glyph-name="ring.cap" horiz-adv-x="320" 
d="M286 777q0 -41 -34.5 -64.5t-93.5 -23.5q-124 0 -124 85q0 40 34.5 63.5t94.5 23.5q123 0 123 -84zM197 775q0 33 -36 33q-37 0 -37 -33t37 -33q36 0 36 33z" />
    <glyph glyph-name="ring.big" horiz-adv-x="295" 
d="M281 753q0 -52 -35 -81t-97 -29q-132 0 -132 108q0 48 36.5 77.5t96.5 29.5q131 0 131 -105zM187 750q0 41 -38 41t-38 -41q0 -39 38 -39t38 39z" />
    <glyph glyph-name="ringacute.cap" horiz-adv-x="308" 
d="M269 745q0 -28 -32.5 -44.5t-87.5 -16.5q-115 0 -115 56q0 28 32.5 44.5t87.5 16.5q115 0 115 -56zM183 743q0 22 -31 22q-32 0 -32 -23q0 -22 32 -22q31 0 31 23zM74 846l169 39l31 -50l-183 -25z" />
    <glyph glyph-name="ringacute" horiz-adv-x="343" 
d="M273 633q0 -41 -32.5 -64.5t-88.5 -23.5q-118 0 -118 85q0 40 33 63.5t89 23.5q117 0 117 -84zM188 631q0 33 -35 33q-34 0 -34 -33t34 -33q35 0 35 33zM96 772l105 113l108 -47l-135 -97z" />
    <glyph glyph-name="hungarumlaut.cap" horiz-adv-x="567" 
d="M533 801l-208 -94l-67 49l183 113zM282 811l-177 -105l-71 40l151 125z" />
    <glyph glyph-name="dotaccent.cap" horiz-adv-x="250" 
d="M211 788q0 -38 -19 -53.5t-68 -15.5q-50 0 -67.5 14.5t-17.5 54.5q0 38 18.5 53t67.5 15q50 0 68 -14t18 -54z" />
    <glyph glyph-name="dotaccent.i" horiz-adv-x="257" 
d="M222 630q0 -45 -19.5 -63t-73.5 -18q-56 0 -75.5 17t-19.5 64q0 45 20 63t75 18t74 -17t19 -64z" />
    <glyph glyph-name="dotaccent.asc" horiz-adv-x="246" 
d="M212 808q0 -38 -19.5 -52.5t-70.5 -14.5q-52 0 -70 13.5t-18 53.5t19 54.5t70 14.5q52 0 70.5 -14t18.5 -55z" />
    <glyph glyph-name="exclamdown.cap" horiz-adv-x="354" 
d="M91 480h143l26 -480h-195zM66 603q0 46 20 64t76 18q55 0 75 -18t20 -64q0 -45 -20 -63t-75 -18q-56 0 -76 17.5t-20 63.5z" />
    <glyph glyph-name="questiondown.cap" 
d="M43 161q0 42 14.5 74t36 52.5t43 39.5t37 44t17.5 56l3 53h141l3 -49q4 -45 -6.5 -78.5t-28 -52.5t-35.5 -35.5t-31 -37t-13 -46.5q0 -28 19 -46t57 -18q50 0 107 23l45 -96q-95 -55 -204 -55q-101 0 -153 44.5t-52 127.5zM170 603q0 47 19.5 64.5t75.5 17.5
q54 0 74.5 -18t20.5 -64q0 -45 -20.5 -63t-75.5 -18q-56 0 -75 17t-19 64z" />
    <glyph glyph-name="guilsinglleft.cap" horiz-adv-x="310" 
d="M272 164l-109 -34l-138 211l139 211l108 -35l-93 -176z" />
    <glyph glyph-name="guilsinglright.cap" horiz-adv-x="310" 
d="M38 518l109 34l138 -211l-139 -211l-108 35l93 176z" />
    <glyph glyph-name="guillemotleft.cap" horiz-adv-x="511" 
d="M268 164l-106 -34l-138 211l139 211l105 -35l-93 -176zM466 176l-103 -33l-127 198l127 198l103 -34l-81 -164z" />
    <glyph glyph-name="guillemotright.cap" horiz-adv-x="511" 
d="M243 518l106 34l137 -211l-138 -211l-105 35l93 176zM45 506l103 33l126 -198l-127 -198l-102 33l80 165z" />
    <glyph glyph-name="bar.cap" horiz-adv-x="255" 
d="M196 -123h-138v926h138v-926z" />
    <glyph glyph-name="brokenbar.cap" horiz-adv-x="255" 
d="M196 253v-376h-137v376h137zM59 411v395h137v-395h-137z" />
    <glyph glyph-name="hyphen.cap" horiz-adv-x="239" 
d="M238 275h-216v117h216v-117z" />
    <glyph glyph-name="endash.cap" 
d="M456 286h-412v113h412v-113z" />
    <glyph glyph-name="emdash.cap" horiz-adv-x="1000" 
d="M884 286h-768v113h768v-113z" />
    <glyph glyph-name="uni2015.cap" horiz-adv-x="1000" 
d="M884 286h-768v113h768v-113z" />
    <glyph glyph-name="periodcentered.cap" horiz-adv-x="282" 
d="M230 350q0 -52 -17.5 -70t-70.5 -18q-54 0 -71.5 17.5t-17.5 69.5q0 53 17.5 71.5t72.5 18.5q53 0 70 -18t17 -71z" />
    <glyph glyph-name="parenleft.cap" horiz-adv-x="310" 
d="M287 -92l-107 -33q-138 206 -138 448q0 246 138 455l107 -34q-103 -182 -103 -416q0 -233 103 -420z" />
    <glyph glyph-name="parenright.cap" horiz-adv-x="310" 
d="M130 -124l-107 34q103 182 103 416q0 233 -103 420l107 33q138 -206 138 -448q0 -246 -138 -455z" />
    <glyph glyph-name="bracketleft.cap" horiz-adv-x="365" 
d="M308 -123h-222v912h222v-94h-88v-724h88v-94z" />
    <glyph glyph-name="bracketright.cap" horiz-adv-x="365" 
d="M279 -123h-222v94h88v724h-88v94h222v-912z" />
    <glyph glyph-name="braceleft.cap" horiz-adv-x="388" 
d="M325 -123h-64q-148 0 -148 145v202q0 30 -9.5 43.5t-35.5 13.5h-31v114h31q25 0 35 13.5t10 42.5v194q0 144 150 144h62v-93h-34q-23 0 -33 -12.5t-10 -41.5v-177q0 -96 -73 -127q73 -31 73 -128v-186q0 -32 9 -43t34 -11h34v-93z" />
    <glyph glyph-name="braceright.cap" horiz-adv-x="388" 
d="M351 281h-32q-25 0 -35 -13.5t-10 -42.5v-204q0 -144 -149 -144h-62v93h34q23 0 33 12.5t10 41.5v187q0 97 73 127q-73 30 -73 128v176q0 31 -9 42.5t-34 11.5h-34v93h63q148 0 148 -145v-192q0 -29 10 -43t35 -14h32v-114z" />
    <glyph glyph-name="at.cap" horiz-adv-x="1031" 
d="M755 34l25 -90q-139 -64 -304 -64q-207 0 -319.5 102t-112.5 301q0 223 146.5 360t394.5 137q199 0 294.5 -84.5t95.5 -228.5q0 -157 -89 -252t-244 -95h-70l-9 73q-71 -82 -144 -82q-71 0 -105 49t-34 135q0 139 76.5 208.5t202.5 69.5q99 0 173 -26l-35 -313
q60 0 98 56.5t38 150.5q0 114 -59 174t-208 60q-126 0 -213.5 -50.5t-126.5 -132.5t-39 -188q0 -170 74 -244t240 -74q126 0 254 48zM551 296l19 158q-20 4 -34 4q-42 0 -68 -34.5t-26 -105.5q0 -46 8 -64t26 -18q33 0 75 60z" />
    <glyph glyph-name="Euro.fitted" horiz-adv-x="542" 
d="M239 469h124v-99h-138q-1 -12 -1 -26q0 -21 1 -35h138v-99h-124q7 -47 35.5 -73t72.5 -26q59 0 101 45l61 -79q-72 -90 -190 -90q-106 0 -172 56.5t-82 166.5h-62v99h53q-1 12 -1 27q0 20 1 34h-53v99h69q20 101 89.5 160t163.5 59q121 0 176 -97l-64 -71q-36 46 -99 46
q-40 0 -65.5 -27t-33.5 -70z" />
    <glyph glyph-name="dollar.slashed.oldstyle" horiz-adv-x="606" 
d="M539 593l-31 -82q-65 22 -124 27l-22 -142q36 -8 62 -15.5t57 -22.5t50 -34.5t32 -50t13 -69.5q0 -87 -68 -140t-206 -59l-26 -113h-87l8 118q-96 15 -173 62l40 86q49 -26 150 -39l23 150q-43 10 -74 21.5t-62 32.5t-47.5 55t-16.5 81q0 84 67 136t192 56l25 101h86
l-7 -109q77 -15 139 -50zM418 184q0 42 -79 63l-20 -129q99 9 99 66zM192 479q0 -40 68 -60l19 121q-87 -8 -87 -61z" />
    <glyph glyph-name="cent.fitted" horiz-adv-x="466" 
d="M396 251l45 -82q-51 -43 -113 -58l-12 -117h-95l-11 109q-180 23 -180 229q0 94 49 156.5t130 82.5l12 109h95l11 -109q57 -11 103 -53l-53 -81q-41 29 -82 29t-70.5 -28.5t-29.5 -90.5q0 -134 95 -134q56 0 106 38z" />
    <glyph glyph-name="cent.slashed.oldstyle" horiz-adv-x="514" 
d="M444 247l39 -83q-73 -53 -168 -62l-23 -102h-87l7 105q-182 34 -182 228q0 112 72 176.5t183 68.5l23 97h86l-6 -110q49 -13 92 -47l-41 -82q-35 17 -68 24l-38 -245q58 0 111 32zM182 341q0 -79 49 -108l35 226q-84 -19 -84 -118z" />
    <glyph glyph-name="sterling.fitted" horiz-adv-x="456" 
d="M429 0h-403v103q42 44 57.5 86.5t11.5 98.5h-78v104h61q-16 55 -16 98q0 194 195 194q92 0 160 -43l-20 -86q-49 12 -88 12q-47 0 -63 -18t-16 -61q0 -37 16 -96h116v-104h-103q4 -56 -5.5 -93.5t-37.5 -68.5h213v-126z" />
    <glyph glyph-name="florin.fitted" horiz-adv-x="465" 
d="M445 648l-20 -87q-29 11 -60 11q-28 0 -40 -14.5t-15 -50.5l-11 -116h110v-104h-117l-20 -227q-15 -172 -160 -172q-64 0 -126 36l20 87q26 -11 55 -11q25 0 36.5 14.5t14.5 50.5l20 222h-95v104h102l11 121q15 171 165 171q70 0 130 -35z" />
    <glyph glyph-name="yen.fitted" horiz-adv-x="480" 
d="M441 235h-122v-63h122v-101h-122v-71h-158v71h-122v101h122v63h-122v101h122v11q-90 144 -163 328h173q40 -131 80 -204q38 67 75 204h159q-82 -205 -166 -328v-11h122v-101z" />
    <glyph glyph-name="H_a_n_g_T_a_b_P_r_o_p" horiz-adv-x="1731" 
d="M559 500h-84v140h-98v-140h-84v337h84v-127h98v127h84v-337zM824 500h-61l-5 23q-35 -30 -76 -30q-82 0 -82 75q0 41 34 65t98 24h13v14q0 30 -41 30q-37 0 -79 -15l-10 48q53 24 109 24q49 0 74.5 -21t25.5 -58v-179zM745 567v42h-16q-50 0 -50 -32q0 -28 27 -28
q21 0 39 18zM1099 500h-80q0 31 0.5 76t0.5 54q0 40 -5.5 52t-20.5 12q-14 0 -37 -15v-179h-80v252h65l6 -24q33 31 74 31t60 -28t19 -88q0 -11 -1 -61t-1 -82zM1371 747v-236q0 -104 -114 -104q-40 0 -97 24l6 43q56 -8 81 -8q24 0 34 7.5t10 26.5v25q-31 -23 -60 -23
q-44 0 -67.5 33.5t-23.5 84.5q0 70 36 104.5t100 34.5q43 0 95 -12zM1291 578v120q-9 4 -25 4q-45 0 -45 -72q0 -69 34 -69q16 0 36 17zM220 273h-68v-273h-84v273h-68v64h220v-64zM432 0h-61l-5 23q-35 -30 -75 -30q-83 0 -83 75q0 41 34 65t98 24h13v14q0 30 -41 30
q-37 0 -79 -15l-10 48q53 24 109 24q49 0 74.5 -21t25.5 -58v-179zM353 67v42h-16q-51 0 -51 -32q0 -28 28 -28q21 0 39 18zM485 5v349h80v-119q30 24 59 24q46 0 69 -34.5t23 -88.5q0 -143 -138 -143q-41 0 -93 12zM565 181v-127q7 -4 24 -4q45 0 45 76q0 71 -33 71
q-17 0 -36 -16zM854 0h-84v337q18 0 56 0.5t57 0.5q127 0 127 -109q0 -122 -145 -122h-11v-107zM854 277v-110h15q53 0 53 55q0 28 -12 41.5t-40 13.5h-16zM1201 252l-10 -69q-16 4 -24 4q-17 0 -43 -34v-153h-80v252h65l6 -36q31 42 59 42q12 0 27 -6zM1459 131
q0 -69 -33.5 -103.5t-94.5 -34.5q-59 0 -88.5 30t-29.5 98q0 69 33.5 103.5t94.5 34.5q59 0 88.5 -30.5t29.5 -97.5zM1377 120q0 48 -10 64t-31 16q-41 0 -41 -68q0 -48 10 -64.5t31 -16.5q41 0 41 69zM1580 -87h-80v339h65l6 -24q34 31 68 31q46 0 69 -34.5t23 -88.5
q0 -73 -34.5 -108t-93.5 -35q-4 0 -12 0.5t-11 0.5v-81zM1580 181v-127q8 -4 24 -4q45 0 45 77q0 70 -33 70q-17 0 -36 -16z" />
    <glyph glyph-name="H_a_n_g_P_r_o_p" horiz-adv-x="1078" 
d="M266 500h-84v140h-98v-140h-84v337h84v-127h98v127h84v-337zM532 500h-62l-5 23q-35 -30 -75 -30q-82 0 -82 75q0 41 34 65t98 24h12v14q0 30 -40 30q-38 0 -80 -15l-10 48q54 24 109 24q49 0 75 -21t26 -58v-179zM452 567v42h-16q-50 0 -50 -32q0 -28 28 -28q20 0 38 18
zM807 500h-81q0 31 1 76t1 54q0 40 -6 52t-21 12q-14 0 -36 -15v-179h-80v252h65l6 -24q33 31 74 31t60 -28t19 -88q0 -11 -1 -61t-1 -82zM1078 747v-236q0 -104 -114 -104q-40 0 -96 24l6 43q54 -8 81 -8q23 0 33 7.5t10 26.5v25q-31 -23 -60 -23q-44 0 -67 33.5t-23 84.5
q0 70 36 104.5t99 34.5q43 0 95 -12zM998 578v120q-8 4 -24 4q-45 0 -45 -72q0 -69 34 -69q16 0 35 17zM139 0h-84v337q19 0 56.5 0.5t55.5 0.5q128 0 128 -109q0 -122 -145 -122h-11v-107zM139 277v-110h15q52 0 52 55t-51 55h-16zM486 252l-10 -69q-16 4 -24 4
q-17 0 -43 -34v-153h-80v252h65l6 -36q31 42 59 42q12 0 27 -6zM744 131q0 -69 -33.5 -103.5t-94.5 -34.5q-59 0 -88.5 30t-29.5 98t33.5 103t93.5 35q59 0 89 -30.5t30 -97.5zM662 120q0 47 -10.5 63.5t-30.5 16.5q-41 0 -41 -68q0 -48 10 -64.5t31 -16.5q41 0 41 69z
M865 -87h-80v339h65l5 -24q36 31 69 31q46 0 68.5 -34.5t22.5 -88.5q0 -73 -34 -108t-93 -35q-4 0 -12.5 0.5t-10.5 0.5v-81zM865 181v-127q8 -4 24 -4q45 0 45 77q0 70 -33 70q-17 0 -36 -16z" />
    <glyph glyph-name="zero.oldstyle" horiz-adv-x="561" 
d="M530 295q0 -308 -255 -308q-130 0 -187 68t-57 225q0 309 256 309q126 0 184.5 -67t58.5 -227zM364 288q0 103 -21.5 142.5t-61.5 39.5q-41 0 -62.5 -37.5t-21.5 -142.5q0 -106 20 -144t64 -38q40 0 61.5 40t21.5 140z" />
    <glyph glyph-name="one.oldstyle" horiz-adv-x="348" 
d="M284 0h-167v419l-78 -32l-39 104l158 85h126v-576z" />
    <glyph glyph-name="two.oldstyle" horiz-adv-x="451" 
d="M424 0h-408v124q136 111 176.5 162t40.5 99q0 72 -76 72q-54 0 -115 -21l-19 108q101 44 192 44q99 0 147.5 -47.5t48.5 -131.5q0 -70 -44 -130.5t-151 -142.5h208v-136z" />
    <glyph glyph-name="three.oldstyle" horiz-adv-x="441" 
d="M1 -70l10 94q49 -13 117 -13q110 0 110 94q0 43 -20.5 64t-69.5 21h-68v121h65q82 0 82 80q0 69 -78 69q-57 0 -110 -20l-20 107q86 41 174 41q101 0 151.5 -45t50.5 -122q0 -117 -93 -160q111 -31 111 -157q0 -99 -68 -158.5t-169 -59.5q-103 0 -175 44z" />
    <glyph glyph-name="four.oldstyle" horiz-adv-x="505" 
d="M196 576h234v-404h63v-133h-63v-143h-159v143h-259v125q90 237 184 412zM271 172v277h-3q-43 -87 -119 -277h122z" />
    <glyph glyph-name="five.oldstyle" horiz-adv-x="457" 
d="M387 439h-192l-8 -128q23 5 55 5q94 0 140 -46t46 -143q0 -109 -68.5 -175t-180.5 -66q-86 0 -156 44l10 93q45 -12 106 -12q125 0 125 97q0 82 -105 82q-57 0 -117 -15l23 401h322v-137z" />
    <glyph glyph-name="six.oldstyle" horiz-adv-x="512" 
d="M458 640l-14 -89q-75 16 -130 16q-65 0 -92 -41t-31 -140q71 39 127 39q84 0 127.5 -46.5t43.5 -130.5q0 -123 -58.5 -191t-167.5 -68q-51 0 -87.5 12.5t-71 47t-52 104.5t-17.5 174q0 190 67.5 275t181.5 85q88 0 174 -47zM196 282v-5q0 -95 19 -133.5t56 -38.5
q63 0 63 123q0 40 -14 57t-46 17q-38 0 -78 -20z" />
    <glyph glyph-name="seven.oldstyle" horiz-adv-x="427" 
d="M414 450l-109 -253q-79 -187 -164 -310l-109 36l202 516h-222v137h402v-126z" />
    <glyph glyph-name="eight.oldstyle" horiz-adv-x="521" 
d="M483 514q0 -95 -93 -156q103 -59 103 -174q0 -90 -59.5 -143.5t-182.5 -53.5q-115 0 -169 48.5t-54 133.5q0 100 99 163q-89 61 -89 171q0 83 59 134t169 51q217 0 217 -174zM337 174q0 36 -24 58t-72 44q-57 -40 -57 -97q0 -37 19.5 -58.5t58.5 -21.5q35 0 55 20.5
t20 54.5zM191 513q0 -36 20 -58.5t58 -41.5q61 41 61 96q0 70 -70 70q-31 0 -50 -18t-19 -48z" />
    <glyph glyph-name="nine.oldstyle" horiz-adv-x="512" 
d="M35 -69l11 87q91 -15 154 -15q61 0 89.5 43.5t32.5 144.5q-71 -39 -127 -39q-84 0 -127.5 46.5t-43.5 130.5q0 123 58.5 191t167.5 68q51 0 87.5 -12.5t70.5 -47t51.5 -104t17.5 -174.5q0 -194 -67.5 -280.5t-181.5 -86.5q-102 0 -193 48zM317 295v5q0 95 -19.5 133.5
t-55.5 38.5q-64 0 -64 -123q0 -40 14.5 -57t46.5 -17q38 0 78 20z" />
    <glyph glyph-name="H_a_n_g_T_a_b" horiz-adv-x="1078" 
d="M266 500h-84v140h-98v-140h-84v337h84v-127h98v127h84v-337zM532 500h-62l-5 23q-35 -30 -75 -30q-82 0 -82 75q0 41 34 65t98 24h12v14q0 30 -40 30q-38 0 -80 -15l-10 48q54 24 109 24q49 0 75 -21t26 -58v-179zM452 567v42h-16q-50 0 -50 -32q0 -28 28 -28q20 0 38 18
zM807 500h-81q0 31 1 76t1 54q0 40 -6 52t-21 12q-14 0 -36 -15v-179h-80v252h65l6 -24q33 31 74 31t60 -28t19 -88q0 -11 -1 -61t-1 -82zM1078 747v-236q0 -104 -114 -104q-40 0 -96 24l6 43q54 -8 81 -8q23 0 33 7.5t10 26.5v25q-31 -23 -60 -23q-44 0 -67 33.5t-23 84.5
q0 70 36 104.5t99 34.5q43 0 95 -12zM998 578v120q-8 4 -24 4q-45 0 -45 -72q0 -69 34 -69q16 0 35 17zM393 273h-68v-273h-84v273h-68v64h220v-64zM605 0h-61l-5 23q-35 -30 -75 -30q-82 0 -82 75q0 41 33.5 65t97.5 24h13v14q0 30 -41 30q-37 0 -79 -15l-10 48
q53 24 109 24q49 0 74.5 -21t25.5 -58v-179zM526 67v42h-16q-50 0 -50 -32q0 -28 27 -28q21 0 39 18zM658 5v349h80v-119q32 24 59 24q46 0 69 -34.5t23 -88.5q0 -143 -137 -143q-42 0 -94 12zM738 181v-127q7 -4 25 -4q44 0 44 76q0 71 -33 71q-17 0 -36 -16z" />
    <glyph glyph-name="zero.OnumTab" 
d="M479 295q0 -308 -236 -308q-118 0 -170.5 68t-52.5 226q0 307 237 307q118 0 170 -67.5t52 -225.5zM318 288q0 105 -15 143t-52 38q-38 0 -54 -37.5t-16 -143.5q0 -105 15.5 -143t52.5 -38q38 0 53.5 37.5t15.5 143.5z" />
    <glyph glyph-name="one.OnumTab" 
d="M466 0h-412v135h125v284l-108 -35l-38 103l188 89h134v-441h111v-135z" />
    <glyph glyph-name="two.OnumTab" 
d="M468 0h-433v115q148 116 195.5 170t47.5 103q0 69 -82 69q-50 0 -142 -28l-19 107q118 52 210 52q106 0 158.5 -47.5t52.5 -131.5q0 -70 -45.5 -130t-156.5 -143h214v-136z" />
    <glyph glyph-name="three.OnumTab" 
d="M16 -64l10 92q75 -16 142 -16q123 0 123 91q0 44 -25 65.5t-85 21.5h-77v121h75q100 0 100 81q0 68 -85 68q-60 0 -140 -26l-20 105q112 49 205 49q106 0 157 -45t51 -123q0 -114 -95 -159q114 -30 114 -157q0 -107 -72.5 -162.5t-184.5 -55.5q-96 0 -193 50z" />
    <glyph glyph-name="four.OnumTab" 
d="M195 576h233v-404h57v-133h-57v-143h-159v143h-255v122q77 207 181 415zM269 172l1 269h-4q-56 -119 -115 -269h118z" />
    <glyph glyph-name="five.OnumTab" 
d="M420 439h-223l-8 -128q27 5 69 5q211 0 211 -197q0 -109 -70 -171t-195 -62q-92 0 -187 51l10 91q75 -16 146 -16q131 0 131 95q0 42 -26 62.5t-86 20.5q-66 0 -149 -18l23 404h354v-137z" />
    <glyph glyph-name="six.OnumTab" 
d="M452 640l-14 -89q-74 16 -130 16q-65 0 -92 -41t-31 -140q71 39 127 39q165 0 165 -177q0 -124 -60.5 -191.5t-165.5 -67.5q-38 0 -67.5 7t-60 28.5t-50 58t-32 98.5t-12.5 146q0 190 67.5 275t182.5 85q87 0 173 -47zM190 282v-5q0 -96 17.5 -134t52.5 -38
q31 0 46.5 27.5t15.5 95.5q0 40 -14 57t-46 17t-72 -20z" />
    <glyph glyph-name="seven.OnumTab" 
d="M475 450l-121 -257q-73 -157 -177 -306l-110 40l218 512h-258v137h448v-126z" />
    <glyph glyph-name="eight.OnumTab" 
d="M470 514q0 -95 -95 -155q105 -59 105 -175q0 -90 -59 -143.5t-181 -53.5q-220 0 -220 182q0 100 101 163q-91 61 -91 171q0 83 58 134t167 51q215 0 215 -174zM323 174q0 36 -24 59t-70 44q-52 -40 -52 -98q0 -80 75 -80q34 0 52.5 20.5t18.5 54.5zM184 513
q0 -62 76 -100q56 42 56 96q0 70 -66 70q-31 0 -48.5 -17.5t-17.5 -48.5z" />
    <glyph glyph-name="nine.OnumTab" 
d="M33 -69l10 87q91 -15 148 -15q63 0 92 43t33 145q-71 -39 -127 -39q-165 0 -165 177q0 124 60.5 191.5t164.5 67.5q38 0 68 -7t60 -28.5t50 -58t32.5 -98.5t12.5 -146q0 -190 -68.5 -278.5t-181.5 -88.5q-99 0 -189 48zM178 349q0 -40 14.5 -57t46.5 -17t72 20v5
q0 96 -17.5 134t-53.5 38q-31 0 -46.5 -27.5t-15.5 -95.5z" />
    <glyph glyph-name="L_i_n_P_r_o_p" horiz-adv-x="960" 
d="M364 500h-172v337h84v-273h88v-64zM484 815q0 -22 -10 -31t-37 -9q-28 0 -37.5 8.5t-9.5 31.5q0 22 10 31t37 9q28 0 37.5 -8.5t9.5 -31.5zM477 500h-80v252h80v-252zM753 500h-80q0 31 1 76t1 54q0 40 -6 52t-21 12t-37 -15v-179h-80v252h65l6 -24q34 31 74 31
q41 0 60 -27.5t19 -88.5q0 -11 -1 -61t-1 -82zM84 0h-84v337q19 0 56.5 0.5t55.5 0.5q127 0 127 -109q0 -122 -144 -122h-11v-107zM84 277v-110h15q52 0 52 55q0 28 -12 41.5t-40 13.5h-15zM430 252l-9 -69q-16 4 -24 4q-17 0 -44 -34v-153h-80v252h66l6 -36q31 42 59 42
q13 0 26 -6zM688 131q0 -68 -33.5 -103t-93.5 -35q-59 0 -88.5 30t-29.5 98t33.5 103t93.5 35q59 0 88.5 -30.5t29.5 -97.5zM606 120q0 47 -10 63.5t-30 16.5q-41 0 -41 -68q0 -48 10 -64.5t31 -16.5q40 0 40 69zM810 -87h-80v339h65l5 -24q34 31 69 31q46 0 68.5 -34.5
t22.5 -88.5q0 -73 -34 -108t-93 -35q-4 0 -12.5 0.5t-10.5 0.5v-81zM810 181v-127q8 -4 24 -4q45 0 45 77q0 70 -34 70q-18 0 -35 -16z" />
    <glyph glyph-name="zero.LinProp" horiz-adv-x="590" 
d="M561 345q0 -357 -273 -357q-134 0 -196.5 78.5t-62.5 263.5q0 357 273 357q134 0 196.5 -78.5t62.5 -263.5zM388 337q0 127 -23 177t-69 50q-48 0 -71 -49t-23 -177q0 -127 23 -177t69 -50q48 0 71 49t23 177z" />
    <glyph glyph-name="one.LinProp" horiz-adv-x="351" 
d="M287 0h-170v510l-88 -36l-29 114l158 87h129v-675z" />
    <glyph glyph-name="two.LinProp" horiz-adv-x="479" 
d="M449 0h-433v139q144 154 192.5 220.5t48.5 114.5q0 75 -81 75q-58 0 -128 -28l-29 109q102 57 216 57q93 0 147.5 -46t54.5 -141q0 -79 -48.5 -154.5t-181.5 -200.5h242v-145z" />
    <glyph glyph-name="three.LinProp" horiz-adv-x="460" 
d="M1 29l11 102q70 -14 130 -14q115 0 115 94q0 41 -23 61.5t-82 20.5h-89v120h85q97 0 97 79q0 72 -94 72q-57 0 -121 -19l-20 101q82 41 188 41q109 0 162 -44.5t53 -120.5q0 -116 -109 -160q56 -11 91.5 -49.5t35.5 -107.5q0 -107 -65.5 -162t-171.5 -55q-121 0 -193 41z
" />
    <glyph glyph-name="four.LinProp" horiz-adv-x="514" 
d="M502 139h-64v-139h-159v139h-267v124q81 204 192 412h234v-404h64v-132zM279 271v277h-2q-55 -109 -128 -277h130z" />
    <glyph glyph-name="five.LinProp" horiz-adv-x="475" 
d="M397 539h-203l-7 -121q24 4 54 4q205 0 205 -195q0 -113 -68 -176t-176 -63t-181 40l11 103q63 -14 128 -14q120 0 120 97q0 43 -27 64t-88 21q-58 0 -123 -17l23 393h332v-136z" />
    <glyph glyph-name="six.LinProp" horiz-adv-x="518" 
d="M457 640l-14 -89q-75 16 -130 16q-65 0 -92 -40.5t-31 -140.5q67 39 132 39q84 0 127 -46.5t43 -130.5q0 -122 -60 -190.5t-167 -68.5q-52 0 -89.5 12.5t-72 47t-52 104t-17.5 174.5q0 191 67.5 275.5t181.5 84.5q88 0 174 -47zM195 282v-5q0 -95 19 -133.5t56 -38.5
q33 0 50.5 32.5t17.5 87.5q0 41 -16 59t-50 18q-36 0 -77 -20z" />
    <glyph glyph-name="seven.LinProp" horiz-adv-x="442" 
d="M429 549l-115 -251q-89 -188 -168 -311l-114 37l218 515h-238v136h417v-126z" />
    <glyph glyph-name="eight.LinProp" horiz-adv-x="533" 
d="M495 514q0 -96 -99 -157q52 -28 81.5 -67.5t29.5 -103.5q0 -92 -60 -145.5t-191 -53.5q-230 0 -230 182q0 96 110 164q-98 59 -98 170q0 83 59.5 134t175.5 51t169 -44t53 -130zM347 174q0 36 -24.5 59t-71.5 44q-64 -43 -64 -98q0 -80 82 -80q38 0 58 20.5t20 54.5z
M194 509q0 -34 20.5 -56t59.5 -42q65 44 65 97q0 71 -73 71q-34 0 -53 -18t-19 -52z" />
    <glyph glyph-name="nine.LinProp" horiz-adv-x="518" 
d="M34 38l15 93q99 -22 164 -22q52 0 81.5 40.5t33.5 140.5q-70 -40 -133 -40q-84 0 -127 46.5t-43 130.5q0 123 60.5 191.5t167.5 68.5q52 0 89.5 -12.5t71.5 -47t51.5 -104t17.5 -174.5q0 -191 -67.5 -276t-181.5 -85q-102 0 -200 50zM323 393v6q0 95 -19 133t-56 38
q-68 0 -68 -120q0 -41 16 -58.5t50 -17.5q36 0 77 19z" />
    <glyph glyph-name="L_i_n_T_a_b" horiz-adv-x="716" 
d="M242 500h-172v337h84v-273h88v-64zM363 815q0 -22 -10 -31t-37 -9q-28 0 -37.5 8t-9.5 32q0 22 10 31t37 9t37 -8.5t10 -31.5zM356 500h-80v252h80v-252zM631 500h-80q0 31 1 76t1 54q0 39 -6 51.5t-20 12.5q-15 0 -38 -15v-179h-80v252h66l5 -24q34 31 75 31t59.5 -27.5
t18.5 -88.5q0 -11 -1 -61t-1 -82zM220 273h-68v-273h-84v273h-68v64h220v-64zM432 0h-61l-5 23q-35 -30 -75 -30q-83 0 -83 75q0 41 34 65t98 24h13v14q0 30 -41 30q-37 0 -79 -15l-10 48q53 24 109 24q49 0 74.5 -21t25.5 -58v-179zM353 67v42h-16q-51 0 -51 -32
q0 -28 28 -28q21 0 39 18zM485 5v349h80v-119q30 24 59 24q46 0 69 -34.5t23 -88.5q0 -143 -138 -143q-41 0 -93 12zM565 181v-127q7 -4 24 -4q45 0 45 76q0 71 -33 71q-17 0 -36 -16z" />
    <glyph glyph-name="zero.LinTab" 
d="M477 345q0 -193 -58.5 -275.5t-173.5 -82.5q-120 0 -171 77t-51 267t56.5 273.5t174.5 83.5q119 0 171 -75.5t52 -267.5zM316 339q0 132 -14.5 181.5t-50.5 49.5q-38 0 -52.5 -48t-14.5 -181q0 -136 14 -184.5t53 -48.5q35 0 50 50t15 181z" />
    <glyph glyph-name="one.LinTab" 
d="M355 145h111v-145h-412v145h125v369l-107 -38l-40 108l189 91h134v-530z" />
    <glyph glyph-name="two.LinTab" 
d="M470 0h-443v139q152 162 199 225.5t47 109.5q0 75 -85 75q-53 0 -138 -29l-28 109q113 59 225 59q91 0 148.5 -45.5t57.5 -142.5q0 -77 -49 -152.5t-185 -202.5h251v-145z" />
    <glyph glyph-name="three.LinTab" 
d="M17 31l11 101q75 -16 146 -16q118 0 118 92q0 40 -23 61t-79 21h-87v121h81q53 0 74.5 18.5t21.5 59.5q0 71 -91 71q-61 0 -134 -26l-20 105q105 49 204 49q107 0 158 -46.5t51 -124.5q0 -111 -95 -155q51 -12 82.5 -52t31.5 -97q0 -111 -72.5 -168.5t-182.5 -57.5
q-104 0 -195 44z" />
    <glyph glyph-name="four.LinTab" 
d="M197 675h231v-391h57v-140h-57v-144h-159v144h-255v129q78 204 183 402zM269 284v255h-3q-51 -105 -115 -255h118z" />
    <glyph glyph-name="five.LinTab" 
d="M420 675v-136h-223l-8 -122q40 5 67 5q106 0 159.5 -46t53.5 -151q0 -113 -72 -175.5t-188 -62.5q-105 0 -192 43l11 102q79 -16 140 -16q70 0 103 23t33 73q0 42 -25 62.5t-86 20.5q-76 0 -150 -17l23 397h354z" />
    <glyph glyph-name="six.LinTab" 
d="M452 640l-14 -89q-74 16 -130 16q-65 0 -92.5 -40.5t-30.5 -140.5q69 39 127 39q164 0 164 -177q0 -124 -60 -191.5t-165 -67.5q-38 0 -68 7t-60 28.5t-49.5 58t-32 98.5t-12.5 146q0 191 68 275.5t183 84.5q92 0 172 -47zM189 282v-5q0 -96 17.5 -134t53.5 -38
q31 0 46.5 27t15.5 94q0 41 -14 58.5t-45 17.5q-33 0 -74 -20z" />
    <glyph glyph-name="seven.LinTab" 
d="M476 549l-122 -259q-76 -163 -177 -303l-110 40l219 512h-259v136h449v-126z" />
    <glyph glyph-name="eight.LinTab" 
d="M465 514q0 -95 -88 -156q100 -55 100 -172q0 -92 -57.5 -145.5t-179.5 -53.5q-218 0 -218 186q0 96 99 161q-88 61 -88 169q0 83 56.5 134t164.5 51q211 0 211 -174zM323 174q0 36 -22.5 58.5t-66.5 43.5q-58 -41 -58 -97q0 -80 76 -80q34 0 52.5 20.5t18.5 54.5z
M188 509q0 -61 68 -95q56 39 56 89q0 76 -63 76q-61 0 -61 -70z" />
    <glyph glyph-name="nine.LinTab" 
d="M33 35l10 88q91 -15 158 -15q57 0 84 41.5t31 140.5q-70 -40 -128 -40q-164 0 -164 177q0 124 60 192t165 68q38 0 68 -7t60 -28.5t50 -58t32.5 -98.5t12.5 -146q0 -191 -68 -275.5t-182 -84.5q-106 0 -189 46zM311 393v6q0 96 -17.5 133.5t-53.5 37.5q-31 0 -46.5 -26.5
t-15.5 -93.5q0 -41 14 -58.5t46 -17.5q35 0 73 19z" />
    <glyph glyph-name="S_u_p" horiz-adv-x="772" 
d="M231 599q0 -46 -32.5 -75.5t-91.5 -29.5t-107 35l19 43q43 -17 72 -17q46 0 46 34q0 18 -20.5 32.5t-45 25t-45 35t-20.5 60.5q0 46 31.5 73.5t81.5 27.5t96 -30l-19 -43q-35 13 -61 13q-41 0 -41 -31q0 -19 21.5 -34t47 -25t47 -34.5t21.5 -59.5zM488 500h-66l-5 24
q-34 -31 -75 -31t-59.5 27.5t-18.5 88.5q0 11 1 60.5t1 82.5h79q0 -31 -0.5 -76t-0.5 -54q0 -40 6 -52.5t20 -12.5q15 0 38 15v180h80v-252zM621 413h-80v339h65l6 -24q33 31 68 31q46 0 69 -35t23 -88q0 -73 -34.5 -108t-93.5 -35q-4 0 -12 0.5t-11 0.5v-81zM621 681v-127
q8 -4 24 -4q45 0 45 77q0 70 -33 70q-17 0 -36 -16z" />
    <glyph glyph-name="a.superior" horiz-adv-x="383" 
d="M352 347h-106l-9 36q-48 -42 -99 -42q-57 0 -90.5 27.5t-33.5 77.5q0 104 196 104h10v12q0 20 -11.5 28.5t-39.5 8.5q-62 0 -124 -18l-15 69q81 33 166 33q84 0 120 -26.5t36 -83.5v-226zM220 433v56h-17q-61 0 -61 -38q0 -36 38 -36q20 0 40 18z" />
    <glyph glyph-name="b.superior" horiz-adv-x="388" 
d="M373 524q0 -188 -197 -188q-59 0 -144 17v449h132v-151q37 28 79 28q68 0 99 -43t31 -112zM241 506q0 83 -39 83q-18 0 -38 -13v-153q10 -3 27 -3q50 0 50 86z" />
    <glyph glyph-name="c.superior" horiz-adv-x="300" 
d="M291 384q-49 -47 -128 -47q-148 0 -148 171q0 76 43.5 126t115.5 50t112 -43l-45 -64q-21 16 -42 16q-48 0 -48 -77q0 -48 11.5 -66.5t37.5 -18.5q27 0 54 19z" />
    <glyph glyph-name="d.superior" horiz-adv-x="390" 
d="M357 347h-107l-9 35q-46 -41 -95 -41q-67 0 -98.5 46.5t-31.5 116.5q0 89 51 132t139 43h19v124h132v-456zM225 444v153q-14 4 -26 4q-51 0 -51 -87q0 -83 39 -83q19 0 38 13z" />
    <glyph glyph-name="e.superior" horiz-adv-x="373" 
d="M353 485h-205v-2q0 -55 56 -55q48 0 131 18l15 -68q-76 -38 -157 -38q-92 0 -135 36t-43 128q0 87 47.5 132t129.5 45q87 0 128.5 -41.5t32.5 -154.5zM233 547q0 63 -42 63q-43 0 -43 -63h85z" />
    <glyph glyph-name="f.superior" horiz-adv-x="222" 
d="M248 791l-14 -71q-23 6 -38 6q-13 0 -17 -5.5t-4 -18.5v-32h45v-81h-45v-242h-132v242h-33v81h33v29q0 57 25.5 86t88.5 29q41 0 91 -23z" />
    <glyph glyph-name="g.superior" horiz-adv-x="390" 
d="M357 363q0 -134 -170 -134q-61 0 -141 34l9 62q68 -14 120 -14q50 0 50 38v34q-37 -29 -79 -29q-67 0 -98.5 42.5t-31.5 109.5q0 88 51 130.5t139 42.5q73 0 151 -16v-300zM225 453v144q-14 4 -26 4q-51 0 -51 -85q0 -78 39 -78q20 0 38 15z" />
    <glyph glyph-name="h.superior" horiz-adv-x="394" 
d="M364 531q0 -13 -1 -76t-1 -108h-131q0 43 0.5 106.5t0.5 72.5q0 36 -6.5 49t-21.5 13q-21 0 -40 -16v-225h-132v456h132v-152q44 28 87 28q61 0 87 -34.5t26 -113.5z" />
    <glyph glyph-name="i.superior" horiz-adv-x="198" 
d="M171 758q0 -30 -15.5 -42.5t-55.5 -12.5q-43 0 -57.5 12t-14.5 43q0 30 16 42.5t56 12.5q42 0 56.5 -12t14.5 -43zM167 347h-135v326h135v-326z" />
    <glyph glyph-name="j.superior" horiz-adv-x="198" 
d="M167 673v-287q0 -89 -88 -155l-89 34q42 57 42 102v306h135zM171 758q0 -30 -15.5 -42.5t-55.5 -12.5q-43 0 -57.5 12t-14.5 43q0 30 16 42.5t56 12.5q42 0 56.5 -12t14.5 -43z" />
    <glyph glyph-name="k.superior" horiz-adv-x="385" 
d="M377 347h-145l-60 146h-6v-146h-134v456h134v-248h6l55 118h145l-76 -136z" />
    <glyph glyph-name="l.superior" horiz-adv-x="213" 
d="M204 351q-42 -10 -79 -10q-50 0 -71.5 19t-21.5 71v372h134v-347q0 -21 4 -27t17 -6h12z" />
    <glyph glyph-name="m.superior" horiz-adv-x="586" 
d="M557 530q0 -12 -2 -75t-2 -108h-130q0 43 1 100.5t1 66.5q0 43 -7 58.5t-22 15.5q-19 0 -39 -17q1 -9 1 -37v-187h-129v179q0 35 -6 48.5t-20 13.5q-20 0 -39 -16v-225h-132v326h107l9 -35q47 41 103 41q36 0 55.5 -10t35.5 -31q44 41 102 41q60 0 86.5 -34.5
t26.5 -114.5z" />
    <glyph glyph-name="o.superior" horiz-adv-x="391" 
d="M375 516q0 -87 -48.5 -132.5t-138.5 -45.5q-88 0 -130.5 38.5t-42.5 127.5q0 88 47.5 133.5t137.5 45.5q88 0 131.5 -38.5t43.5 -128.5zM243 502q0 57 -12.5 75.5t-35.5 18.5q-48 0 -48 -79q0 -56 12 -74t36 -18q48 0 48 77z" />
    <glyph glyph-name="p.superior" horiz-adv-x="389" 
d="M373 524q0 -188 -187 -188q-6 0 -13.5 0.5t-8.5 0.5v-102h-132v438h107l9 -35q47 41 95 41q68 0 99 -43t31 -112zM241 506q0 83 -39 83q-18 0 -38 -13v-153q10 -3 27 -3q50 0 50 86z" />
    <glyph glyph-name="q.superior" horiz-adv-x="389" 
d="M357 235h-132v134q-42 -28 -79 -28q-67 0 -98.5 46.5t-31.5 116.5q0 89 51 132t139 43q73 0 151 -16v-428zM225 444v153q-14 4 -26 4q-51 0 -51 -87q0 -83 39 -83q19 0 38 13z" />
    <glyph glyph-name="r.superior" horiz-adv-x="276" 
d="M270 673l-14 -103q-22 5 -36 5q-13 0 -24 -7t-32 -29v-192h-132v326h107l11 -48q46 54 82 54q22 0 38 -6z" />
    <glyph glyph-name="s.superior" horiz-adv-x="322" 
d="M307 452q0 -49 -43.5 -80t-118.5 -31q-79 0 -124 29l9 59q60 -11 89 -11q46 0 46 24q0 10 -9 16.5t-39 15.5q-49 15 -70.5 38t-21.5 65q0 48 39 75t104 27q69 0 118 -25l-13 -61q-52 13 -76 13q-33 0 -33 -19q0 -11 7.5 -17t34.5 -15q55 -17 78 -41t23 -62z" />
    <glyph glyph-name="t.superior" horiz-adv-x="248" 
d="M240 360q-48 -24 -100 -24q-54 0 -77 19t-23 64v170h-34v84h41q21 68 28 100h99v-100h55v-84h-55v-141q0 -21 16 -21q23 0 40 5z" />
    <glyph glyph-name="u.superior" horiz-adv-x="394" 
d="M361 347h-106l-9 35q-49 -41 -104 -41q-61 0 -87 34.5t-26 113.5q0 13 1.5 76t1.5 108h130q0 -42 -0.5 -102t-0.5 -77q0 -35 6.5 -48.5t21.5 -13.5q19 0 40 16v225h132v-326z" />
    <glyph glyph-name="v.superior" horiz-adv-x="361" 
d="M353 673q-14 -157 -83 -326h-189l-81 326h140l33 -141l11 -81h2q34 130 35 222h132z" />
    <glyph glyph-name="w.superior" horiz-adv-x="556" 
d="M548 673q-8 -133 -72 -326h-161l-32 138l-9 58h-2l-9 -60l-30 -136h-155l-78 326h132l31 -144l10 -61h2l11 62l28 143h140l36 -146l11 -59h3q22 99 29 205h115z" />
    <glyph glyph-name="x.superior" horiz-adv-x="359" 
d="M356 347h-142l-41 99h-2q-27 -52 -42 -99h-125l81 168l-76 158h140l35 -91h1q23 42 39 91h122l-75 -146z" />
    <glyph glyph-name="y.superior" horiz-adv-x="363" 
d="M354 673q-16 -212 -97 -329t-183 -117q-27 0 -66 21v71q18 -4 43 -4q23 0 33 10q12 11 12 23q0 16 -19 74l-75 251h140l34 -147q14 -54 12 -87h3q13 43 23 113.5t9 120.5h131z" />
    <glyph glyph-name="z.superior" horiz-adv-x="296" 
d="M282 436l-5 -89h-257v79l96 159h-91l3 88h243v-77l-100 -159z" />
    <glyph glyph-name="period.superior" horiz-adv-x="224" 
d="M185 410q0 -43 -15 -58.5t-59 -15.5q-46 0 -59 14t-13 58t14.5 59t59.5 15t58.5 -14t13.5 -58z" />
    <glyph glyph-name="comma.superior" horiz-adv-x="224" 
d="M71 225l-52 44q52 43 52 71q0 9 -15.5 25.5t-15.5 42.5q0 45 14 59.5t61 14.5q43 0 56.5 -16t13.5 -58q0 -110 -114 -183z" />
    <glyph glyph-name="I_n_f" horiz-adv-x="562" 
d="M84 0h-84v337h84v-337zM365 0h-81q0 31 1 76t1 54q0 40 -6 52t-21 12q-14 0 -36 -15v-179h-80v252h65l5 -24q34 31 74 31q41 0 60.5 -27.5t19.5 -88.5q0 -11 -1 -60.5t-1 -82.5zM562 344l-11 -45q-13 4 -26 4q-23 0 -23 -25v-26h39v-55h-39v-197h-80v197h-26v55h26v24
q0 85 75 85q33 0 65 -17z" />
    <glyph glyph-name="period.inferior" horiz-adv-x="224" 
d="M185 -5q0 -43 -15 -58.5t-59 -15.5q-46 0 -59 14t-13 58t14.5 59t59.5 15t58.5 -14t13.5 -58z" />
    <glyph glyph-name="comma.inferior" horiz-adv-x="224" 
d="M71 -190l-52 44q52 43 52 71q0 9 -15.5 25.5t-15.5 42.5q0 45 14 59.5t61 14.5q43 0 56.5 -16t13.5 -58q0 -110 -114 -183z" />
    <glyph glyph-name="designer" horiz-adv-x="1000" 
d="M784 88q-6 -9 -21.5 -11.5t-19.5 -6.5q-36 -4 -43 -28q-3 -9 -10.5 -24.5t-11 -29.5t-1.5 -28q3 -12 21 -6q1 0 4.5 4t6.5 2q2 -3 1.5 -4t-2.5 -4t-3 -5q-17 -13 -30 -5q-15 18 -11 36q4 20 28 74q-7 5 -24.5 0.5t-25.5 -0.5q5 8 22 14q4 1 13.5 1t16 2.5t10.5 10.5t4 22
v24q-4 1 -4 12q-2 5 -5.5 9.5t-6 7.5t-7.5 5t-8 3t-9.5 2t-8 1t-9 0.5t-8.5 0.5q-17 -1 -33 -16.5t-23 -35.5q-10 -29 2 -65q-2 -13 9.5 -42.5t4.5 -49.5q-7 -7 -21 -1q-6 4 -9 11.5t-5 21.5t-3 17q4 4 5 17.5t4 17.5q5 18 -5 24q-5 -1 -19 -1.5t-23 -3t-16 -9.5
q4 -19 3 -44.5t-15 -37.5q-9 -3 -19 4q-4 4 -6 10.5t-2 10.5t0.5 13t0.5 12q1 4 4.5 12.5t5.5 13.5t5 11t7.5 10.5t9.5 6.5q8 -6 27 1l39 1q3 3 3.5 13t1.5 13q7 30 26 52t43 24q32 4 51 -8q1 -7 9 -13t9 -13q8 -16 1 -68q17 0 70 12zM459 68q-4 -4 -13 2t-14 2
q-8 -7 -11.5 -24.5t-7.5 -23.5q0 -8 -3 -25.5t-3 -26.5q-8 -5 -11 -4q-5 2 -3 18t2 18q4 6 4 22t3 22q-2 4 -2.5 14t-0.5 11q-2 1 -6 -2t-6 1q1 10 11 18q8 0 15 -18q3 1 8 8.5t8 9t10 -3.5zM352 113q0 -20 1.5 -73t0.5 -80t-11 -64.5t-31 -63.5q-53 -41 -116 -19
q-10 7 -10 14q4 29 18 34q-8 -23 -10 -33q22 -15 50 -12.5t51 17.5q14 6 21 17.5t13.5 34t8.5 27.5q7 57 5 146q2 7 0.5 24t-0.5 24q-1 5 -10 1q-4 -5 -8.5 -17t-8.5 -16q1 -10 -8.5 -20t-9.5 -18q-22 -30 -58 -94q-1 -2 -2 -5t-2 -5t-2.5 -4t-3.5 -2.5t-4 -0.5
q-6 5 -4 29.5t1 31.5q13 56 21 70q18 59 52 86q2 3 7 1.5t6.5 -1.5t6.5 -3t6 -4t5.5 -4.5t5.5 -4.5q6 9 10 24q9 -4 9 -20q-3 -2 -1 -8t1 -9zM611 331q-11 -2 -49.5 -16t-61.5 -12q-8 -9 -4 -30q3 -17 15 -12q1 1 3 10t6 11q6 -15 -6 -33q-4 -1 -12 -2t-14.5 12.5t-3.5 38.5
q-7 9 -4 14q5 5 7.5 12t3 18.5t1.5 15.5q-1 0 -2 2l-2 2q-10 -9 -21.5 -32t-16.5 -29q0 -9 -10 -23.5t-8 -25.5q-2 -2 -3 -15.5t-9 -14.5q-9 3 -11.5 10t-1 19.5t0.5 16.5q-2 13 0.5 35t1.5 33q-6 -4 -10.5 -16t-6.5 -15q-1 -2 -8.5 -17.5t-14 -21t-16.5 -2.5q-12 23 10 72
q2 2 7.5 11t8.5 12t10 7.5t12 -0.5q4 -3 8 0q12 34 16 90l8 8q6 -2 6 -6.5t-2.5 -11t-1.5 -10.5q-1 -10 -6.5 -49.5t-6.5 -60.5q0 -6 -2 -19.5t-2 -19t2 -19.5q3 5 21 40.5t32 51.5q10 18 26 30q4 -4 12 -14t12 -14v-40q7 2 36 9t45 13q7 -5 6 -13zM877 703q-6 77 -48 101
q4 7 8 8t8.5 -3t7 -7.5t7 -11t5.5 -8.5q46 -69 9 -182q-26 -78 -83 -108q26 24 38 48q35 43 39 80q13 26 9 83zM805 602q-6 -21 -19 -25q-7 3 -16 17l2 14q2 -1 3 -7.5t5 -8.5q6 -2 13 11q7 50 -12 87l-5 -3q-2 -3 -10.5 -12.5t-13 -16.5t-8.5 -16l-6 -4q-7 -8 -18.5 -28
t-18.5 -28q-6 -1 -8 3t-3 11.5t-2 10.5q2 10 -3 17q-3 1 -5 -4t-3 -6q-12 -15 -25 -16q-11 4 -12.5 12t1.5 22.5t3 21.5q4 19 27 50q2 0 8 3t9.5 3.5t8 -1t7.5 -7.5l4 -6q-4 -13 -9 -72q3 -10 6 -10q7 0 12 11t7 13q24 26 62 78q8 -3 9.5 -20.5t3.5 -21.5q4 -3 2 -8
q9 -24 4 -64zM696 798q-7 -16 -19 -14q-3 13 -9 6q-62 -60 -75 -108q-15 -115 27 -156q4 -4 10 -5.5t14.5 -1t11.5 0.5q4 3 9 9t8 8q1 -5 -1.5 -9t-8 -8t-7.5 -6q-26 -13 -49 12q-18 21 -22 46q-5 3 -3 11t-2 11q2 4 -0.5 14t0.5 16q0 93 91 182q2 0 5.5 1t6.5 1.5t6 0.5
t5 -3t2 -8zM550 620q-6 -17 -18.5 -29.5t-27.5 -12.5q-35 0 -51 32q-8 17 -4 50q1 5 6 14.5t5 15.5q24 24 52 12q1 -1 3 -2.5t3 -2t1.5 -2.5t0.5 -5q-2 -2 -3.5 -1t-4 3t-4.5 2q-22 7 -40 -16q-16 -33 -8 -55q17 -30 43 -34q1 1 13 3.5t17 10.5q3 2 5.5 8t5 9t6.5 0z
M427 592q-2 -5 -5 -15t-6 -18t-7 -15q-9 -5 -17 10q-13 36 -8 75q-1 1 0.5 24.5t-1.5 30.5q-5 -15 -6 -58t-16 -62q-2 -3 -8 -4t-14 9t-11 33q2 14 4 38t3 34q0 2 -2 14.5t3 13.5q6 3 11 -4q0 -15 -2 -40.5t-2 -44.5t5 -31q7 -6 10 -0.5t4 16t3 12.5q2 10 2.5 39.5t4.5 44.5
q1 2 2.5 6t2.5 6.5t3.5 5.5t4.5 2.5t6 -2.5q7 -26 5.5 -76t4.5 -76q1 -3 4 -4t5 3l2 9q3 8 7 16t8 8zM302 562q-12 -12 -67 -17q-57 -6 -102 -25q-5 -13 -22 -2q-1 7 5.5 13.5t7.5 10.5q9 24 15 48q-1 4 7 26q45 132 59 208q-2 15 3 21q3 1 4.5 0t3 -4.5t2.5 -4.5
q-8 -56 -40.5 -152.5t-41.5 -139.5l2 -2q11 2 36.5 8t44 9.5t37.5 3.5q25 -6 44 3zM591 -32q8 23 -8 54q-5 -8 -7 -27q5 -25 15 -27zM495 49l-11 -19q-6 -29 -1 -46q6 -8 14 1q9 8 4 22q10 38 -6 42zM324 116q-3 10 -12.5 13t-16.5 -2q-23 -25 -32 -40q-3 -12 -12.5 -37.5
t-14 -45.5t-2.5 -40q1 0 5 4q9 14 29.5 43.5t34.5 54t21 50.5zM505 330q9 21 -1 24l-4 -29q3 1 5 5zM396 332l-1 20q-10 3 -19 -14q-24 -40 -16 -63q5 -3 8 7q19 23 28 50zM688 697q-2 3 -5 -0.5t-4 -2.5q-32 -20 -30 -80q3 -1 9 4t10 4q2 5 10 19t9.5 21t-3.5 22q4 0 4 13z
" />
    <glyph glyph-name="FoFa" horiz-adv-x="960" 
d="M771 -58l-4 -4q-13 1 -47.5 -2.5t-49.5 -1.5q-31 1 -104 -3.5t-113 -0.5q-24 -4 -96 3q-13 1 -121 1q-68 0 -100 -8q-12 -2 -15 4q0 4 -1 19.5t0 26t4 19.5q1 10 1 37.5t2 42.5q-3 15 -1 44.5t0 44.5q0 25 3 71.5t4 59.5q2 26 1 71.5t0 71.5q3 6 13.5 6t12.5 1
q2 -4 18.5 -2.5t18.5 1.5q12 12 13 1q1 -1 0.5 -6t2.5 -6q-1 -37 -1 -54.5t3.5 -74t4.5 -72.5q22 7 59 28t57 28q3 1 9.5 5.5t11.5 6.5q8 4 10 3q3 -1 4 -3.5t0 -7.5t-1 -6q-10 -29 -5 -61q1 -2 3 -2.5t3.5 0t4 1t3.5 0.5q6 5 17.5 12t16.5 10q25 15 41 21q36 25 48 29
l20 16q1 4 6 7q3 0 11 -6q0 -9 3 -28t3 -29q1 -2 3.5 -2.5t2.5 -1.5q3 -4 -2 -20l2 -2q23 5 61 32t60 32q3 3 10.5 6t11.5 7q3 0 16 9.5t22 2.5q6 0 7 -4q-1 -3 4 -12q-1 -4 0 -14t-2 -13q0 -5 -0.5 -16t0.5 -18.5t5 -13.5q-1 -4 2.5 -12.5t-0.5 -10.5q2 -25 4 -27
q2 -14 -1 -18q1 -5 2.5 -21t4.5 -25v-16q0 -26 6 -74.5t6 -72.5l1 -4q1 -4 0 -5zM458 30q3 5 4.5 10t1.5 10.5t0.5 9.5t-0.5 11t-1.5 10t-2.5 11.5t-2 10.5q1 4 -4.5 7.5t-12.5 7t-8 4.5q-6 6 -8 -1q-11 1 -19 -4q-4 -2 -8 -8t-6 -7q-5 -3 -9 3q5 24 -3 74l-2 7h-8
q-4 -1 -6 -4.5t-2 -6.5v-7.5t-1 -6.5q-2 -11 -2 -34t-2 -34q1 -11 0 -32.5t0 -31.5q0 -5 -1.5 -17t-0.5 -19q9 -5 31 5q8 2 10.5 0.5t6.5 -7t7 -7.5q8 0 13 1q12 7 24 20.5t11 24.5zM452 664q-12 -13 -29 -8q-13 18 -14 24q-6 9 -16 16t-18 9t-23 5.5t-21 5.5l-31 2
q-2 -2 -6.5 -1.5t-6.5 -0.5q-33 -10 -55 -21q-1 -2 -13.5 -11.5t-13.5 -18.5q-9 -22 -11 -70q0 -3 10.5 -2.5t11.5 0.5q19 2 86 2q1 -1 1.5 -3.5t-0.5 -3.5q-5 -5 -15.5 -0.5t-15.5 2.5q-7 0 -21 -1t-20 0q-4 -1 -12 -1.5t-14 -1.5t-10 -4l-3 -4q-2 -25 1 -63v-14t4 -14
q19 -1 38 1t31 2q2 2 13 -1q1 -1 1 -2v-2l-4 -2q-12 4 -39 0.5t-46 -2.5q-37 -3 -46 -2q-45 -2 -64 3l-2 3q3 3 9 5q4 -2 39 -7q24 3 26 4q-1 19 4.5 49.5t6.5 43.5l-3 4q-6 0 -18.5 -0.5t-21 0.5t-16.5 5q-2 5 3 5q18 -5 56 -3l2 3q6 47 15 66v3q47 55 119 62q31 4 70 -13
q2 -1 9.5 -1.5t10.5 -2.5q43 -9 62 -35q2 -2 0 -9zM739 -10q-11 24 -18 32q-2 4 -8 12.5t-9.5 15.5t-4.5 15q-7 14 -6 17q5 6 17 13.5t16 12.5l-9 17q-7 -1 -18 -5.5t-13 -4.5q-1 -1 -4 -3t-5 -3.5t-5 -1t-5 2.5q2 53 1 78l-2 3q-6 0 -27 7q-5 -35 -3 -48q-2 -5 -0.5 -19.5
t-1.5 -19.5q1 -18 -1 -51.5t0 -51.5l-1 -7h24q1 0 6 -1.5t6 1.5q0 18 -1 28q0 3 -1 8t-1.5 8.5t1 7t6.5 4.5q4 -2 6 -7.5t3 -7.5q-1 -5 4 -12.5t6 -10.5q7 -4 15 -16.5t14 -16.5q2 0 6 -1.5t7 -0.5q6 0 6 6zM248 181q-12 2 -52 0q-18 -2 -27 -8q-1 -12 -3.5 -35.5
t-3.5 -29.5q2 -19 1.5 -54.5t0.5 -55.5q1 0 7 1t7 0q3 1 11.5 -0.5t11.5 0.5l2 63q2 5 16 12q2 1 8 0.5t7 2.5l-1 28q-3 4 -21 4q-4 -4 -7 -4q-3 1 -5 3.5t-2 5.5t-0.5 7t-1.5 6q-2 4 4 10q13 4 39 8l6 4q-1 7 1 17.5t2 14.5zM333 34q-4 12 -3 44t-7 41q-11 7 -23 12l-8 5
h-14t-19 -5q-6 -3 -8 -26q8 -3 15.5 -1t16.5 0.5t13 -8.5q0 -2 2 -6t-1 -6q-3 -6 1 -8q5 -7 -3 -9q-5 -2 -14.5 -2t-13.5 -1q-19 -7 -25 -37q-2 -3 -0.5 -10.5t-1.5 -10.5q0 -11 15 -17q5 5 8 2q5 -1 9.5 1.5t10.5 7.5t9 7q6 1 7 -2.5t-0.5 -9t2.5 -8.5q2 -2 8 0t8 2
q2 1 5 1.5t5.5 1.5t4.5 3zM447 559q3 -19 -7 -31q-4 -3 -12.5 -10t-15 -11t-14.5 -5q-4 1 -6.5 -3.5t-6.5 -1.5q-1 3 -12 2t-13 -1q-14 0 -21 3q-24 21 -18 36q7 21 24 30q32 16 47 13q45 -2 55 -21zM880 571q0 -4 -2 -4q-5 1 -42 -2q-67 -3 -90 -7q-6 -5 -7 -17t-3 -16
q0 -3 2 -8.5t2 -6.5q4 -5 14 -7q17 2 23 13q0 7 -7 12q-3 2 -10 2.5t-10 4.5q2 3 5 4t9 0t8 -1q10 -3 15 -16q-1 -15 -18 -27l-21 -5q-35 9 -45 24q-4 1 -1 22l4 22q-1 3 -3.5 3.5t-5.5 0t-6 0.5l-33 -1q0 1 -1 2t-1 2q2 2 8 3h6q5 -1 11.5 -1t14.5 0.5t12 0.5q5 4 5 17
q1 3 3 14.5t6 15.5q4 1 5.5 0.5t4.5 -3.5l4 -4q4 -5 3.5 -17t1.5 -19q0 -5 10.5 -4.5t11.5 0.5q4 0 43.5 1t69.5 5q3 -2 4 -3zM560 123q-24 -2 -30 -13q-2 -2 -3 -5.5t-2 -6t-3.5 -4.5t-6.5 -1q-2 7 -2 29q-2 2 -7 0t-8 0q-7 -4 -11 -13q0 -73 4 -111l3 -4q3 -3 11.5 -1.5
t11.5 0.5q-2 7 -0.5 21t-1.5 20q6 31 16 44q4 3 13 6t13 7q0 4 1.5 11t2 10.5t-0.5 10.5zM651 504l-3 -2q-35 0 -51 -5q-11 5 -13 8q6 37 1 56q-2 2 -14 -4q-39 -24 -41 -48q-10 -10 -19 -5q-4 3 -3 15t0 16l-1 31q-2 2 -8 1.5t-10 0.5q-1 1 -4 1t-5 0.5t-2 3.5q7 0 26 1.5
t26 -0.5q4 -3 3 -14.5t6 -12.5q8 4 25 14t27 14q2 -1 12 -1t12 -8t2 -23.5v-19.5q1 -1 1.5 -5.5t2.5 -6.5q9 -2 13 0q2 0 7.5 -1t9.5 -1q3 -3 0 -5zM610 15q0 13 -1 38.5t-1 37.5v26q-2 5 -13.5 2.5t-14.5 -2.5q-5 0 -5 -24v-26l-3 -26q1 -3 1 -19.5t5 -24.5q15 0 30 5
q2 4 2 13zM425 539q-7 31 -26 34q-1 -3 -3.5 -3.5t-6 0t-4.5 0.5q-15 7 -26 -6q-2 -3 -3.5 -6.5t-1.5 -7t-0.5 -6t1 -6.5t2 -6t3.5 -6.5t3.5 -6t3.5 -6t4 -5.5q1 -2 3 -2.5t4 0t5 -0.5h9t8 3l8 4q2 2 7 5.5t6.5 5.5t4 7t-0.5 9zM430 77q14 -30 -9 -55q-1 -1 -12 -7
q-6 1 -9.5 5t-4.5 7.5t-2 11t-2 9.5q1 2 2.5 14.5t5.5 17.5q3 2 9 10t12 8l3 -3q-2 -5 2.5 -10.5t4.5 -7.5zM608 179q-4 12 -12 15q-7 7 -10 0q-13 -18 -4 -30q3 -11 19 -4q9 6 7 19zM295 42q0 -11 -14 -23l-7 -3q-6 -3 -10 -1q-4 1 -5 3.5t1 8.5l2 6q0 6 9 10q6 0 10 4
q13 -3 14 -5z" />
    <glyph glyph-name="LuFo" horiz-adv-x="180" 
d="M180 -20v-180h-180v180h180zM160 -40h-140v-140h140v140zM40 -160v100h20v-80h40v-20h-60zM80 -60h60v-100h-20v40h-40v20h40v20h-40v20zM180 885v-180h-180v180h180zM160 865h-140v-140h140v140zM40 745v100h20v-80h40v-20h-60zM80 845h60v-100h-20v40h-40v20h40v20h-40
v20z" />
    </font>
</defs>
</svg>
