<?xml version="1.0" encoding="UTF-8"?>
<svg width="13px" height="13px" viewBox="0 0 13 13" version="1.1" xmlns="http://www.w3.org/2000/svg" xmlns:xlink="http://www.w3.org/1999/xlink">
    <!-- Generator: Sketch 58 (84663) - https://sketch.com -->
    <title>icon_head</title>
    <desc>Created with Sketch.</desc>
    <g id="icon_head" stroke="none" stroke-width="1" fill="none" fill-rule="evenodd">
        <g id="USER-1" fill="#3D4043">
            <path d="M13,12.3689 C13,12.7169 12.7278,13 12.3906,13 L0.609375,13 C0.272188,13 0,12.719 0,12.371 C0,12.371 0,12.371 0,12.3689 C0,12.3689 0,10.0771 1.62297,9.24258 C2.64875,8.71629 2.25469,9.14403 3.51406,8.60306 C4.77547,8.06419 5.07406,7.87548 5.07406,7.87548 L5.08625,6.63419 C5.08625,6.63419 4.615,6.26097 4.46672,5.09306 C4.17219,5.18113 4.07469,4.73452 4.05641,4.45145 C4.04016,4.17677 3.88578,3.31919 4.24531,3.39677 C4.17219,2.82435 4.11937,2.30855 4.14375,2.03597 C4.23516,1.07565 5.13094,0.0733871 6.51016,0 C8.13312,0.0733871 8.775,1.07565 8.86438,2.03387 C8.89078,2.30645 8.83187,2.82435 8.75875,3.39468 C9.11828,3.31919 8.96187,4.17468 8.94563,4.44935 C8.92938,4.73242 8.82984,5.17694 8.53531,5.09097 C8.38703,6.25887 7.91578,6.63 7.91578,6.63 L7.92594,7.865 C7.92594,7.865 8.22453,8.04113 9.48391,8.58 C10.7453,9.11887 10.3492,8.71629 11.375,9.24258 C13,10.075 13,12.3689 13,12.3689 Z" id="Path"></path>
        </g>
    </g>
</svg>