<?xml version="1.0" encoding="UTF-8"?>
<svg width="13px" height="13px" viewBox="0 0 13 13" version="1.1" xmlns="http://www.w3.org/2000/svg" xmlns:xlink="http://www.w3.org/1999/xlink">
    <!-- Generator: Sketch 58 (84663) - https://sketch.com -->
    <title>icon_layer</title>
    <desc>Created with Sketch.</desc>
    <g id="icon_layer" stroke="none" stroke-width="1" fill="none" fill-rule="evenodd">
        <g id="LAYERS-1" transform="translate(0.000000, 1.000000)" fill="#3D4043">
            <path d="M12.6242,6.25016 L6.73766,8.68563 C6.73766,8.68563 6.73562,8.68563 6.73562,8.68766 L6.73359,8.68969 C6.66047,8.71812 6.58328,8.73438 6.5,8.73438 C6.41672,8.73438 6.33953,8.71813 6.26641,8.68766 L6.26438,8.68563 C6.26438,8.68563 6.26234,8.68563 6.26234,8.68359 L0.375781,6.25016 C0.156406,6.15875 0,5.94141 0,5.6875 C0,5.35031 0.272188,5.07812 0.609375,5.07812 C0.692656,5.07812 0.769844,5.09438 0.842969,5.12484 L0.845,5.12687 C0.845,5.12687 0.847031,5.12687 0.847031,5.12891 L6.5,7.46484 L12.153,5.12687 C12.153,5.12687 12.155,5.12687 12.155,5.12484 L12.157,5.12281 C12.2302,5.09437 12.3073,5.07812 12.3906,5.07812 C12.7278,5.07812 13,5.35031 13,5.6875 C13,5.94141 12.8436,6.15875 12.6242,6.25016 Z M12.6242,3.60953 L6.73766,6.045 C6.73766,6.045 6.73562,6.045 6.73562,6.04703 L6.73359,6.04906 C6.66047,6.0775 6.58328,6.09375 6.5,6.09375 C6.41672,6.09375 6.33953,6.0775 6.26641,6.04703 L6.26438,6.045 C6.26438,6.045 6.26234,6.045 6.26234,6.04297 L0.375781,3.60953 C0.156406,3.51813 0,3.30078 0,3.04688 C0,2.79297 0.156406,2.57562 0.375781,2.48422 L6.26234,0.04875 C6.26234,0.04875 6.26438,0.04875 6.26438,0.0467188 L6.26641,0.0446875 C6.33953,0.01625 6.41672,0 6.5,0 C6.58328,0 6.66047,0.01625 6.73359,0.0467188 L6.73562,0.04875 C6.73562,0.04875 6.73766,0.04875 6.73766,0.0507812 L12.6222,2.48625 C12.8436,2.57562 13,2.79297 13,3.04688 C13,3.30078 12.8436,3.51813 12.6242,3.60953 Z M0.609375,7.71875 C0.692656,7.71875 0.769844,7.735 0.842969,7.76547 L0.845,7.7675 C0.845,7.7675 0.847031,7.7675 0.847031,7.76953 L6.5,10.1055 L12.153,7.7675 C12.153,7.7675 12.155,7.7675 12.155,7.76547 L12.157,7.76344 C12.2302,7.735 12.3073,7.71875 12.3906,7.71875 C12.7278,7.71875 13,7.99094 13,8.32812 C13,8.58203 12.8436,8.79938 12.6242,8.89078 L6.73766,11.3263 C6.73766,11.3263 6.73562,11.3263 6.73562,11.3283 L6.73359,11.3303 C6.66047,11.3587 6.58328,11.375 6.5,11.375 C6.41672,11.375 6.33953,11.3588 6.26641,11.3283 L6.26438,11.3263 C6.26438,11.3263 6.26234,11.3263 6.26234,11.3242 L0.375781,8.89078 C0.156406,8.79938 0,8.58203 0,8.32812 C0,7.99094 0.272188,7.71875 0.609375,7.71875 Z" id="Shape"></path>
        </g>
    </g>
</svg>