<?xml version="1.0" encoding="UTF-8"?>
<svg width="13px" height="13px" viewBox="0 0 13 13" version="1.1" xmlns="http://www.w3.org/2000/svg" xmlns:xlink="http://www.w3.org/1999/xlink">
    <!-- Generator: Sketch 58 (84663) - https://sketch.com -->
    <title>icon_clock</title>
    <desc>Created with Sketch.</desc>
    <g id="icon_clock" stroke="none" stroke-width="1" fill="none" fill-rule="evenodd">
        <g id="TIME-1" transform="translate(1.000000, 1.000000)" fill="#3D4043" stroke="#3D4043" stroke-width="0.5">
            <path d="M5.5,11 C2.46297,11 0,8.53703 0,5.5 C0,2.46297 2.46297,0 5.5,0 C8.53703,0 11,2.46297 11,5.5 C11,8.53703 8.53703,11 5.5,11 Z M5.5,1.03125 C3.03188,1.03125 1.03125,3.03188 1.03125,5.5 C1.03125,7.96812 3.03188,9.9688 5.5,9.9688 C7.96812,9.9688 9.9688,7.96812 9.9688,5.5 C9.9688,3.03188 7.96812,1.03125 5.5,1.03125 Z M7.73438,6.01562 L6.70312,6.01562 L6.01562,6.01562 L5.5,6.01562 C5.21469,6.01562 4.98438,5.78531 4.98438,5.5 L4.98438,2.40625 C4.98438,2.12094 5.21469,1.89062 5.5,1.89062 C5.78531,1.89062 6.01562,2.12094 6.01562,2.40625 L6.01562,4.98438 L6.70312,4.98438 L7.73438,4.98438 C8.01969,4.98438 8.25,5.21469 8.25,5.5 C8.25,5.78531 8.01969,6.01562 7.73438,6.01562 Z" id="Shape"></path>
        </g>
    </g>
</svg>