<svg width="32" height="32" viewBox="0 0 32 32" fill="none" xmlns="http://www.w3.org/2000/svg">
<path d="M27 4.075C27.5109 4.075 27.925 4.48914 27.925 5V13.325C27.925 13.8359 27.5109 14.25 27 14.25C26.4891 14.25 26.075 13.8359 26.075 13.325V5.925L18.675 5.925C18.1641 5.925 17.75 5.51086 17.75 5C17.75 4.48914 18.1641 4.075 18.675 4.075H27ZM19.1688 14.1394C18.8076 14.5006 18.2219 14.5006 17.8606 14.1394C17.4994 13.7781 17.4994 13.1924 17.8606 12.8312L19.1688 14.1394ZM27.6541 5.65407L19.1688 14.1394L17.8606 12.8312L26.3459 4.34593L27.6541 5.65407Z" fill="#2C3E50"/>
<path d="M5 27.925C4.48914 27.925 4.075 27.5109 4.075 27V18.675C4.075 18.1641 4.48914 17.75 5 17.75C5.51086 17.75 5.925 18.1641 5.925 18.675L5.925 26.075H13.325C13.8359 26.075 14.25 26.4891 14.25 27C14.25 27.5109 13.8359 27.925 13.325 27.925H5ZM12.8312 17.8606C13.1924 17.4994 13.7781 17.4994 14.1394 17.8606C14.5006 18.2219 14.5006 18.8076 14.1394 19.1688L12.8312 17.8606ZM4.34593 26.3459L12.8312 17.8606L14.1394 19.1688L5.65407 27.6541L4.34593 26.3459Z" fill="#2C3E50"/>
</svg>
