<svg width="46" height="46" viewBox="0 0 46 46" fill="none" xmlns="http://www.w3.org/2000/svg">
<circle cx="23" cy="23" r="23" fill="black"/>
<path d="M22.3711 26.8398C23.3008 26.8398 23.7656 26.2793 23.9023 25.377C24.0117 24.1328 24.4492 23.4766 26.2402 22.4375C28.0996 21.3301 29.1387 19.8945 29.1387 17.8027C29.1387 14.7129 26.5957 12.6074 22.8906 12.6074C20.0742 12.6074 17.9414 13.7559 17.0938 15.6152C16.834 16.1348 16.7109 16.6406 16.7109 17.2285C16.7109 18.1445 17.2715 18.7188 18.2148 18.7188C18.9668 18.7188 19.4727 18.377 19.7734 17.5293C20.2109 16.1484 21.2227 15.3965 22.7402 15.3965C24.4219 15.3965 25.584 16.4355 25.584 17.9258C25.584 19.2383 25.0098 19.9902 23.3145 21.0156C21.6055 22.0273 20.7578 23.1484 20.7578 24.8438V25.1035C20.7578 26.1016 21.332 26.8398 22.3711 26.8398ZM22.3984 32.7734C23.5059 32.7734 24.3809 31.9121 24.3809 30.832C24.3809 29.752 23.5059 28.9043 22.3984 28.9043C21.291 28.9043 20.4023 29.752 20.4023 30.832C20.4023 31.9121 21.291 32.7734 22.3984 32.7734Z" fill="white"/>
</svg>
