<?xml version="1.0" standalone="no"?>
<!DOCTYPE svg PUBLIC "-//W3C//DTD SVG 1.1//EN" "http://www.w3.org/Graphics/SVG/1.1/DTD/svg11.dtd" >
<svg xmlns="http://www.w3.org/2000/svg" xmlns:xlink="http://www.w3.org/1999/xlink" version="1.1">
<metadata>
Created by FontForge 20170731 at Thu Oct 20 23:42:56 2016
 By Aleksey,,,
Copyright (c) Luc[as] de Groot, published by LucasFonts, 2002, 2004, 2007, 2009, 2016. All rights reserved.
</metadata>
<defs>
<font id="FHPSun-Bold" horiz-adv-x="500" >
  <font-face 
    font-family="FHP Sun"
    font-weight="700"
    font-stretch="normal"
    units-per-em="1000"
    panose-1="2 11 8 3 5 3 2 2 2 3"
    ascent="800"
    descent="-200"
    x-height="501"
    cap-height="675"
    bbox="-275 -200 1695 885"
    underline-thickness="94"
    underline-position="-320"
    unicode-range="U+000D-1F6C8"
  />
<missing-glyph horiz-adv-x="550" 
d="M300 150h-150v250h50v-200h100v-50zM500 50h-450v450h450v-450zM350 350h-100v50h150v-250h-50v100h-100v50h100v50zM100 100h350v350h-350v-350z" />
    <glyph glyph-name="f_f" unicode="ff" horiz-adv-x="593" 
d="M625 689l-20 -74q-31 12 -59 12q-29 0 -41 -15t-12 -47v-64h90v-90h-90v-411h-129v411h-160v-411h-128v411h-64v90h64v52q0 159 140 159q59 0 111 -27l-16 -76q-30 10 -54 10q-53 0 -53 -62v-56h160v60q0 159 141 159q62 0 120 -31z" />
    <glyph glyph-name="fi" unicode="fi" horiz-adv-x="558" 
d="M493 0h-129v411h-160v-411h-128v411h-64v90h64v60q0 159 139 159q57 0 101 -22l-15 -80q-23 9 -47 9q-50 0 -50 -62v-64h289v-501zM505 633q0 -38 -15.5 -52.5t-60.5 -14.5q-46 0 -61.5 14t-15.5 53q0 38 15.5 52.5t61.5 14.5t61 -13.5t15 -53.5z" />
    <glyph glyph-name="fl" unicode="fl" horiz-adv-x="572" 
d="M549 81l5 -76q-37 -13 -92 -13q-52 0 -76 21.5t-24 79.5v526q-40 9 -74 9q-46 0 -65 -19.5t-19 -66.5v-41h79v-90h-79v-411h-128v411h-64v90h64v36q0 91 39 137t143 46q58 0 113 -11h120v-565q0 -41 6.5 -52.5t27.5 -11.5q5 0 13.5 0.5t10.5 0.5z" />
    <glyph glyph-name="f_f_i" unicode="ffi" horiz-adv-x="846" 
d="M781 0h-129v411h-159v-411h-129v411h-160v-411h-128v411h-64v90h64v52q0 159 140 159q59 0 111 -27l-16 -76q-30 10 -54 10q-53 0 -53 -62v-56h160v60q0 159 139 159q58 0 102 -22l-16 -80q-22 9 -47 9q-26 0 -37.5 -15t-11.5 -47v-64h288v-501zM794 633q0 -38 -16 -52.5
t-61 -14.5q-46 0 -61.5 14t-15.5 53q0 38 16 52.5t61 14.5q46 0 61.5 -14t15.5 -53z" />
    <glyph glyph-name="f_f_l" unicode="ffl" horiz-adv-x="861" 
d="M837 81l6 -76q-39 -13 -93 -13q-52 0 -75.5 21.5t-23.5 79.5v526q-40 9 -74 9q-46 0 -65 -19.5t-19 -66.5v-41h79v-90h-79v-411h-129v411h-160v-411h-128v411h-64v90h64v52q0 159 140 159q59 0 111 -27l-19 -75q-27 9 -51 9q-53 0 -53 -62v-56h160v36q0 91 39 137t143 46
q57 0 114 -11h119v-565q0 -41 6.5 -52.5t27.5 -11.5q5 0 13.5 0.5t10.5 0.5z" />
    <glyph glyph-name="f_b" unicode="fb" horiz-adv-x="833" 
d="M493 709v-248q62 51 125 51q86 0 131.5 -68.5t45.5 -173.5q0 -144 -70 -212.5t-193 -68.5q-81 0 -168 20v610q-41 9 -76 9q-46 0 -65 -19.5t-19 -66.5v-41h79v-90h-79v-411h-128v411h-64v90h64v36q0 91 39 137t143 46q58 0 115 -11h120zM493 371v-281q23 -9 59 -9
q51 0 81.5 43t30.5 128q0 77 -22 119t-61 42q-40 0 -88 -42z" />
    <glyph glyph-name="f_f_b" unicode="ffb" horiz-adv-x="1121" 
d="M781 709v-248q63 51 125 51q86 0 132 -68.5t46 -173.5q0 -144 -70 -212.5t-193 -68.5q-82 0 -169 20v610q-40 9 -75 9q-46 0 -65 -19.5t-19 -66.5v-41h79v-90h-79v-411h-129v411h-160v-411h-128v411h-64v90h64v52q0 159 140 159q59 0 111 -27l-16 -76q-30 10 -54 10
q-53 0 -53 -62v-56h160v36q0 91 39 137t143 46q58 0 115 -11h120zM781 371v-281q25 -9 60 -9q50 0 80.5 43t30.5 128q0 77 -21.5 119t-60.5 42q-41 0 -89 -42z" />
    <glyph glyph-name="f_h" unicode="fh" horiz-adv-x="845" 
d="M493 709v-251q69 54 136 54q78 0 116.5 -53t38.5 -174q0 -24 -2 -123.5t-2 -161.5h-129q0 57 2 148.5t2 114.5q0 85 -16 115.5t-51 30.5q-43 0 -95 -41v-368h-129v619q-41 9 -76 9q-46 0 -65 -19.5t-19 -66.5v-41h79v-90h-79v-411h-128v411h-64v90h64v36q0 91 39 137
t143 46q58 0 115 -11h120z" />
    <glyph glyph-name="f_f_h" unicode="ffh" horiz-adv-x="1133" 
d="M781 709v-251q69 54 136 54q78 0 116.5 -53t38.5 -174q0 -24 -1.5 -123.5t-1.5 -161.5h-129q0 57 1.5 148.5t1.5 114.5q0 85 -16 115.5t-51 30.5q-41 0 -95 -41v-368h-129v619q-40 9 -75 9q-46 0 -65 -19.5t-19 -66.5v-41h79v-90h-79v-411h-129v411h-160v-411h-128v411
h-64v90h64v52q0 159 140 159q59 0 111 -27l-16 -76q-30 10 -54 10q-53 0 -53 -62v-56h160v36q0 91 39 137t143 46q58 0 115 -11h120z" />
    <glyph glyph-name="f_igrave" unicode="f&#xec;" horiz-adv-x="558" 
d="M493 0h-129v411h-160v-411h-128v411h-64v90h64v68q0 151 124 151q43 0 83 -17l-9 -80q-16 4 -31 4q-39 0 -39 -53v-73h289v-501zM418 727l75 -161l-73 -19l-106 152z" />
    <glyph glyph-name="f_iacute" unicode="f&#xed;" horiz-adv-x="558" 
d="M493 0h-129v411h-160v-411h-128v411h-64v90h64v60q0 159 139 159q57 0 101 -22l-15 -80q-23 9 -47 9q-50 0 -50 -62v-64h289v-501zM578 676l-157 -121l-64 35l130 135z" />
    <glyph glyph-name="f_icircumflex" unicode="f&#xee;" horiz-adv-x="558" 
d="M565 597l-43 -48l-94 79l-95 -79l-42 47l140 135zM493 0h-129v411h-160v-411h-128v411h-64v90h64v68q0 151 124 151q43 0 83 -17l-12 -80q-16 4 -29 4q-38 0 -38 -53v-73h289v-501z" />
    <glyph glyph-name="f_itilde" unicode="f&#x129;" horiz-adv-x="558" 
d="M524 672l46 -38q-38 -80 -105 -80q-31 0 -59.5 19.5t-37.5 19.5q-21 0 -48 -39l-46 38q39 80 105 80q32 0 60.5 -19.5t37.5 -19.5q21 0 47 39zM493 0h-129v411h-160v-411h-128v411h-64v90h64v68q0 151 121 151q43 0 81 -16l-9 -81q-13 4 -26 4q-39 0 -39 -53v-73h289
v-501z" />
    <glyph glyph-name="f_idieresis" unicode="f&#xef;" horiz-adv-x="558" 
d="M571 634q0 -33 -11.5 -45.5t-44.5 -12.5q-34 0 -45.5 12t-11.5 46t12 46.5t45 12.5t44.5 -12t11.5 -47zM420 634q0 -33 -11.5 -45.5t-44.5 -12.5t-45 12t-12 46q0 33 12 46t45 13t44.5 -12t11.5 -47zM493 0h-129v411h-160v-411h-128v411h-64v90h64v68q0 151 121 151
q43 0 81 -16l-9 -81q-13 4 -26 4q-39 0 -39 -53v-73h289v-501z" />
    <glyph glyph-name="f_imacron" unicode="f&#x12b;" horiz-adv-x="558" 
d="M559 587h-256v90h256v-90zM493 0h-129v411h-160v-411h-128v411h-64v90h64v68q0 151 121 151q43 0 81 -16l-9 -81q-13 4 -26 4q-39 0 -39 -53v-73h289v-501z" />
    <glyph glyph-name="f_ibreve" unicode="f&#x12d;" horiz-adv-x="558" 
d="M490 689h71q0 -71 -34.5 -108.5t-96.5 -37.5t-95.5 36.5t-33.5 109.5h71q0 -36 14 -51t44 -15q31 0 45.5 15.5t14.5 50.5zM493 0h-129v411h-160v-411h-128v411h-64v90h64v68q0 151 121 151q43 0 81 -16l-9 -81q-13 4 -26 4q-39 0 -39 -53v-73h289v-501z" />
    <glyph glyph-name="f_iogonek" unicode="f&#x12f;" horiz-adv-x="558" 
d="M493 501v-501q-38 -11 -59 -35t-21 -50q0 -27 31 -27q21 0 42 12l18 -56q-44 -26 -97 -26q-97 0 -97 73q0 53 54 109v411h-160v-411h-128v411h-64v90h64v60q0 159 139 159q57 0 101 -22l-15 -80q-23 9 -47 9q-50 0 -50 -62v-64h289zM505 634q0 -38 -15.5 -53t-60.5 -15
q-46 0 -61.5 14.5t-15.5 53.5q0 38 15.5 52t61.5 14t61 -13.5t15 -52.5z" />
    <glyph glyph-name="f_dotlessi" unicode="f&#x131;" horiz-adv-x="558" 
d="M493 0h-129v411h-160v-411h-128v411h-64v90h64v60q0 159 139 159q57 0 101 -22l-15 -80q-23 9 -47 9q-50 0 -50 -62v-64h289v-501z" />
    <glyph glyph-name="f_f_igrave" unicode="ff&#xec;" horiz-adv-x="846" 
d="M781 566l-73 -19l-105 152l103 28zM781 0h-129v411h-159v-411h-129v411h-160v-411h-128v411h-64v90h64v52q0 159 140 159q59 0 111 -27l-16 -76q-30 10 -54 10q-53 0 -53 -62v-56h160v68q0 151 125 151q41 0 83 -17l-9 -80q-18 4 -32 4q-38 0 -38 -53v-73h288v-501z" />
    <glyph glyph-name="f_f_iacute" unicode="ff&#xed;" horiz-adv-x="846" 
d="M781 0h-129v411h-159v-411h-129v411h-160v-411h-128v411h-64v90h64v52q0 159 140 159q59 0 111 -27l-16 -76q-30 10 -54 10q-53 0 -53 -62v-56h160v60q0 159 139 159q58 0 102 -22l-16 -80q-22 9 -47 9q-26 0 -37.5 -15t-11.5 -47v-64h288v-501zM867 676l-157 -121
l-64 35l130 135z" />
    <glyph glyph-name="f_f_icircumflex" unicode="ff&#xee;" horiz-adv-x="846" 
d="M854 597l-43 -48l-95 79l-94 -79l-43 47l140 135zM781 0h-129v411h-159v-411h-129v411h-160v-411h-128v411h-64v90h64v52q0 159 140 159q59 0 111 -27l-16 -76q-30 10 -54 10q-53 0 -53 -62v-56h160v68q0 151 125 151q41 0 83 -17l-12 -80q-16 4 -30 4q-37 0 -37 -53v-73
h288v-501z" />
    <glyph glyph-name="f_f_itilde" unicode="ff&#x129;" horiz-adv-x="846" 
d="M813 672l46 -38q-39 -80 -105 -80q-31 0 -60 19.5t-38 19.5q-21 0 -47 -39l-46 38q38 80 105 80q31 0 60 -19.5t38 -19.5q21 0 47 39zM781 0h-129v411h-159v-411h-129v411h-160v-411h-128v411h-64v90h64v52q0 159 140 159q59 0 111 -27l-16 -76q-30 10 -54 10
q-53 0 -53 -62v-56h160v68q0 151 121 151q42 0 82 -16l-9 -81q-14 4 -27 4q-38 0 -38 -53v-73h288v-501z" />
    <glyph glyph-name="f_f_idieresis" unicode="ff&#xef;" horiz-adv-x="846" 
d="M860 634q0 -33 -12 -45.5t-45 -12.5t-45 12t-12 46q0 33 12 46t45 13t45 -12.5t12 -46.5zM709 634q0 -33 -11.5 -45.5t-44.5 -12.5q-34 0 -46 12t-12 46q0 33 12.5 46t45.5 13t44.5 -12t11.5 -47zM781 0h-129v411h-159v-411h-129v411h-160v-411h-128v411h-64v90h64v52
q0 159 140 159q59 0 111 -27l-16 -76q-30 10 -54 10q-53 0 -53 -62v-56h160v68q0 151 121 151q42 0 82 -16l-9 -81q-14 4 -27 4q-38 0 -38 -53v-73h288v-501z" />
    <glyph glyph-name="f_f_imacron" unicode="ff&#x12b;" horiz-adv-x="846" 
d="M847 587h-255v90h255v-90zM781 0h-129v411h-159v-411h-129v411h-160v-411h-128v411h-64v90h64v52q0 159 140 159q59 0 111 -27l-16 -76q-30 10 -54 10q-53 0 -53 -62v-56h160v68q0 151 121 151q42 0 82 -16l-9 -81q-14 4 -27 4q-38 0 -38 -53v-73h288v-501z" />
    <glyph glyph-name="f_f_ibreve" unicode="ff&#x12d;" horiz-adv-x="846" 
d="M778 689h71q0 -71 -34 -108.5t-96 -37.5q-129 0 -129 146h71q-1 -36 13 -51t45 -15t45 15.5t14 50.5zM781 0h-129v411h-159v-411h-129v411h-160v-411h-128v411h-64v90h64v52q0 159 140 159q59 0 111 -27l-16 -76q-30 10 -54 10q-53 0 -53 -62v-56h160v68q0 151 121 151
q42 0 82 -16l-9 -81q-14 4 -27 4q-38 0 -38 -53v-73h288v-501z" />
    <glyph glyph-name="f_f_iogonek" unicode="ff&#x12f;" horiz-adv-x="846" 
d="M781 501v-501q-38 -11 -58.5 -35t-20.5 -50q0 -27 30 -27q22 0 43 12l17 -56q-43 -26 -96 -26q-98 0 -98 73q0 53 54 109v411h-159v-411h-129v411h-160v-411h-128v411h-64v90h64v52q0 159 140 159q59 0 111 -27l-16 -76q-30 10 -54 10q-53 0 -53 -62v-56h160v60
q0 159 139 159q58 0 102 -22l-16 -80q-22 9 -47 9q-26 0 -37.5 -15t-11.5 -47v-64h288zM794 633q0 -38 -16 -52.5t-61 -14.5q-46 0 -61.5 14t-15.5 53q0 38 16 52.5t61 14.5q46 0 61.5 -14t15.5 -53z" />
    <glyph glyph-name="f_f_dotlessi" unicode="ff&#x131;" horiz-adv-x="846" 
d="M781 0h-129v411h-159v-411h-129v411h-160v-411h-128v411h-64v90h64v52q0 159 140 159q59 0 111 -27l-16 -76q-30 10 -54 10q-53 0 -53 -62v-56h160v60q0 159 139 159q58 0 102 -22l-16 -80q-22 9 -47 9q-26 0 -37.5 -15t-11.5 -47v-64h288v-501z" />
    <glyph glyph-name="f_ij" unicode="f&#x133;" horiz-adv-x="844" 
d="M778 501v-482q0 -112 -57 -156.5t-156 -44.5q-82 0 -178 40l10 72q102 -17 154 -17t75.5 19t23.5 66v15q0 29 3 39q-68 -54 -140 -54q-77 0 -115.5 53t-38.5 170q0 29 1 97.5t1 92.5h-157v-411h-128v411h-64v90h64v60q0 159 139 159q57 0 101 -22l-15 -80q-23 9 -47 9
q-50 0 -50 -62v-64h287q0 -56 -1.5 -145.5t-1.5 -113.5q0 -84 16 -115t51 -31q40 0 95 42v363h128zM506 633q0 -38 -15.5 -52.5t-60.5 -14.5q-46 0 -61.5 14t-15.5 53q0 38 16 52.5t61 14.5q46 0 61 -13.5t15 -53.5zM788 633q0 -38 -15.5 -52.5t-60.5 -14.5q-46 0 -61.5 14
t-15.5 53q0 38 16 52.5t61 14.5q46 0 61 -13.5t15 -53.5z" />
    <glyph glyph-name="f_j" unicode="fj" horiz-adv-x="558" 
d="M493 501v-456q0 -73 -25.5 -125.5t-84.5 -101.5l-84 38q65 76 65 164v391h-160v-411h-128v411h-64v90h64v60q0 159 139 159q57 0 101 -22l-15 -80q-23 9 -47 9q-50 0 -50 -62v-64h289zM505 633q0 -38 -15.5 -52.5t-60.5 -14.5q-46 0 -61.5 14t-15.5 53q0 38 15.5 52.5
t61.5 14.5t61 -13.5t15 -53.5z" />
    <glyph glyph-name="f_jcircumflex" unicode="f&#x135;" horiz-adv-x="558" 
d="M565 597l-43 -48l-94 79l-95 -79l-42 47l140 135zM493 501v-456q0 -73 -25.5 -125.5t-84.5 -101.5l-84 38q65 76 65 164v391h-160v-411h-128v411h-64v90h64v68q0 151 124 151q43 0 83 -17l-12 -80q-16 4 -29 4q-38 0 -38 -53v-73h289z" />
    <glyph glyph-name="f_f_j" unicode="ffj" horiz-adv-x="846" 
d="M781 501v-456q0 -72 -25.5 -125t-83.5 -102l-84 38q64 77 64 164v391h-159v-411h-129v411h-160v-411h-128v411h-64v90h64v52q0 159 140 159q59 0 111 -27l-16 -76q-30 10 -54 10q-53 0 -53 -62v-56h160v60q0 159 139 159q58 0 102 -22l-16 -80q-22 9 -47 9
q-26 0 -37.5 -15t-11.5 -47v-64h288zM794 633q0 -38 -16 -52.5t-61 -14.5q-46 0 -61.5 14t-15.5 53q0 38 16 52.5t61 14.5q46 0 61.5 -14t15.5 -53z" />
    <glyph glyph-name="f_k" unicode="fk" horiz-adv-x="789" 
d="M779 0h-150l-132 247h-4v-247h-129v619q-41 9 -76 9q-46 0 -65 -19.5t-19 -66.5v-41h79v-90h-79v-411h-128v411h-64v90h64v36q0 91 39 137t143 46q58 0 115 -11h120v-410h4l118 202h149l-150 -214z" />
    <glyph glyph-name="f_kcommaaccent" unicode="f&#x137;" horiz-adv-x="789" 
d="M779 0h-150l-132 247h-4v-247h-129v619q-41 9 -76 9q-46 0 -65 -19.5t-19 -66.5v-41h79v-90h-79v-411h-128v411h-64v90h64v36q0 91 39 137t143 46q58 0 115 -11h120v-410h4l118 202h149l-150 -214zM554 -34q53 0 53 -51q0 -88 -140 -96l-15 42q55 15 55 38q0 4 -3.5 11
t-3.5 16q0 18 14 29t40 11z" />
    <glyph glyph-name="f_f_k" unicode="ffk" horiz-adv-x="1077" 
d="M1068 0h-150l-133 247h-4v-247h-129v619q-40 9 -75 9q-46 0 -65 -19.5t-19 -66.5v-41h79v-90h-79v-411h-129v411h-160v-411h-128v411h-64v90h64v52q0 159 140 159q59 0 111 -27l-16 -76q-30 10 -54 10q-53 0 -53 -62v-56h160v36q0 91 39 137t143 46q58 0 115 -11h120
v-410h4l119 202h148l-150 -214z" />
    <glyph glyph-name="f_lacute" unicode="f&#x13a;" horiz-adv-x="572" 
d="M549 81l5 -76q-37 -13 -92 -13q-52 0 -76 21.5t-24 79.5v526q-40 9 -74 9q-46 0 -65 -19.5t-19 -66.5v-41h79v-90h-79v-411h-128v411h-64v90h64v36q0 91 39 137t143 46q58 0 113 -11h120v-565q0 -41 6.5 -52.5t27.5 -11.5q5 0 13.5 0.5t10.5 0.5zM360 788l180 83l58 -78
l-199 -61z" />
    <glyph glyph-name="f_lcaron" unicode="f&#x13e;" horiz-adv-x="627" 
d="M549 81l5 -76q-37 -13 -92 -13q-52 0 -76 21.5t-24 79.5v526q-40 9 -74 9q-46 0 -65 -19.5t-19 -66.5v-41h79v-90h-79v-411h-128v411h-64v90h64v36q0 91 39 137t143 46q58 0 113 -11h120v-565q0 -41 6.5 -52.5t27.5 -11.5q5 0 13.5 0.5t10.5 0.5zM649 740l-61 -184
l-64 11l33 191z" />
    <glyph glyph-name="f_lcommaaccent" unicode="f&#x13c;" horiz-adv-x="572" 
d="M549 81l5 -76q-37 -13 -92 -13q-52 0 -76 21.5t-24 79.5v526q-40 9 -74 9q-46 0 -65 -19.5t-19 -66.5v-41h79v-90h-79v-411h-128v411h-64v90h64v36q0 91 39 137t143 46q58 0 113 -11h120v-565q0 -41 6.5 -52.5t27.5 -11.5q5 0 13.5 0.5t10.5 0.5zM474 -34q53 0 53 -51
q0 -88 -140 -96l-15 42q55 15 55 38q0 4 -3.5 11t-3.5 16q0 18 14 29t40 11z" />
    <glyph glyph-name="f_lslash" unicode="f&#x142;" horiz-adv-x="573" 
d="M549 81l5 -76q-37 -13 -92 -13q-52 0 -76 21.5t-24 79.5v205l-60 -33v93l60 33v228q-40 9 -74 9q-46 0 -65 -19.5t-19 -66.5v-41h76v-90h-76v-411h-128v411h-64v90h64v36q0 91 39 137t143 46q58 0 113 -11h120v-248l60 33v-93l-60 -33v-224q0 -41 6.5 -52.5t27.5 -11.5
q5 0 13.5 0.5t10.5 0.5z" />
    <glyph glyph-name="f_thorn" unicode="f&#xfe;" horiz-adv-x="833" 
d="M795 271q0 -143 -67.5 -212.5t-181.5 -69.5q-34 0 -53 3v-165h-129v792q-41 9 -76 9q-46 0 -65 -19.5t-19 -66.5v-41h79v-90h-79v-411h-128v411h-64v90h64v36q0 91 39 137t143 46q58 0 115 -11h120v-248q62 51 125 51q86 0 131.5 -68t45.5 -173zM493 369v-279
q25 -9 59 -9q51 0 81.5 43t30.5 128q0 78 -22 119.5t-61 41.5t-88 -44z" />
    <glyph glyph-name="f_f_thorn" unicode="ff&#xfe;" horiz-adv-x="1121" 
d="M1084 271q0 -143 -67.5 -212.5t-181.5 -69.5q-33 0 -54 3v-165h-129v792q-40 9 -75 9q-46 0 -65 -19.5t-19 -66.5v-41h79v-90h-79v-411h-129v411h-160v-411h-128v411h-64v90h64v52q0 159 140 159q59 0 111 -27l-16 -76q-30 10 -54 10q-53 0 -53 -62v-56h160v36
q0 91 39 137t143 46q58 0 115 -11h120v-248q64 51 125 51q86 0 132 -68t46 -173zM781 369v-279q25 -9 60 -9q51 0 81 43t30 128q0 78 -21.5 119.5t-60.5 41.5t-89 -44z" />
    <glyph glyph-name=".notdef" horiz-adv-x="550" 
d="M300 150h-150v250h50v-200h100v-50zM500 50h-450v450h450v-450zM350 350h-100v50h150v-250h-50v100h-100v50h100v50zM100 100h350v350h-350v-350z" />
    <glyph glyph-name=".null" horiz-adv-x="0" 
 />
    <glyph glyph-name="nonmarkingreturn" horiz-adv-x="333" 
 />
    <glyph glyph-name="CR" unicode="&#xd;" horiz-adv-x="0" 
 />
    <glyph glyph-name="space" unicode=" " horiz-adv-x="240" 
 />
    <glyph glyph-name="exclam" unicode="!" horiz-adv-x="359" 
d="M257 177h-114l-22 498h157zM279 61q0 -39 -16.5 -54t-62.5 -15t-62.5 14.5t-16.5 53.5t16.5 54t62.5 15t62.5 -14.5t16.5 -53.5z" />
    <glyph glyph-name="quotedbl" unicode="&#x22;" horiz-adv-x="466" 
d="M180 414h-98l-14 261h125zM382 414h-98l-13 261h124z" />
    <glyph glyph-name="numbersign" unicode="#" horiz-adv-x="514" 
d="M488 201h-100l-22 -201h-96l23 201h-105l-23 -201h-95l22 201h-66v79h75l16 143h-91v78h100l20 174h96l-20 -174h105l20 174h95l-20 -174h66v-78h-75l-16 -143h91v-79zM301 280l17 143h-105l-17 -143h105z" />
    <glyph glyph-name="dollar" unicode="$" 
d="M280 -107h-75l-8 110q-90 7 -160 57l36 69q67 -35 139 -35q54 0 82 23.5t28 60.5q0 28 -20.5 49t-51 34t-66.5 31.5t-66.5 38t-51 56t-20.5 84.5q0 66 40 111.5t111 58.5l8 106h75l9 -102q81 -8 138 -52l-35 -66q-58 30 -123 30q-43 0 -66.5 -21.5t-23.5 -53.5
q0 -34 29 -58.5t70.5 -42t83.5 -38t71 -60t29 -95.5q0 -70 -45.5 -120.5t-127.5 -62.5z" />
    <glyph glyph-name="percent" unicode="%" horiz-adv-x="705" 
d="M347 525q0 -73 -40.5 -116t-114.5 -43q-78 0 -111.5 40.5t-33.5 118.5q0 75 40.5 118t114.5 43q145 0 145 -161zM251 524q0 93 -55 93q-53 0 -53 -91t54 -91t54 89zM658 148q0 -73 -40.5 -116t-114.5 -43q-78 0 -111.5 40.5t-33.5 118.5q0 75 40.5 118t114.5 43
q145 0 145 -161zM562 147q0 93 -54 93t-54 -91t54 -91t54 89zM635 658l-499 -679l-66 38l499 679z" />
    <glyph glyph-name="ampersand" unicode="&#x26;" horiz-adv-x="681" 
d="M647 82v-78q-28 -14 -70 -14q-44 0 -123 61q-87 -61 -202 -61q-108 0 -160.5 50t-52.5 129q0 63 30.5 107.5t84.5 82.5q-68 95 -68 162q0 74 51 119t146 45q81 0 127 -34.5t46 -96.5q0 -36 -11.5 -65.5t-36.5 -54t-45 -39.5t-56 -38q48 -56 120 -126l24 -25q42 82 40 178
h122q0 -144 -80 -254q59 -48 85 -48h29zM271 80q60 0 107 36q-27 25 -42 41q-76 74 -125 131q-49 -47 -49 -106q0 -49 29 -75.5t80 -26.5zM207 535q0 -40 48 -111q83 58 83 122q0 27 -16 43.5t-48 16.5q-31 0 -49 -19.5t-18 -51.5z" />
    <glyph glyph-name="quotesingle" unicode="'" horiz-adv-x="320" 
d="M211 414h-93l-13 261h119z" />
    <glyph glyph-name="parenleft" unicode="(" horiz-adv-x="310" 
d="M277 -145l-87 -28q-134 199 -134 445t134 455l87 -29q-104 -188 -104 -419t104 -424z" />
    <glyph glyph-name="parenright" unicode=")" horiz-adv-x="310" 
d="M120 -173l-87 29q104 188 104 419t-104 424l87 28q134 -199 134 -445t-134 -455z" />
    <glyph glyph-name="asterisk" unicode="*" 
d="M459 461l-58 -100l-112 88l20 -141h-116l20 141l-112 -88l-58 100l132 54l-132 53l58 101l112 -89l-20 141h116l-20 -141l112 89l58 -101l-132 -53z" />
    <glyph glyph-name="plus" unicode="+" 
d="M462 254h-158v-176h-108v176h-159v91h159v172h108v-172h158v-91z" />
    <glyph glyph-name="comma" unicode="," horiz-adv-x="303" 
d="M87 -164l-50 50q71 57 71 95q0 12 -16.5 31t-16.5 48q0 48 15 64.5t63 16.5q44 0 58 -17.5t14 -62.5q0 -69 -32.5 -122.5t-105.5 -102.5z" />
    <glyph glyph-name="hyphen" unicode="&#xad;" horiz-adv-x="237" 
d="M236 239h-210v95h210v-95z" />
    <glyph glyph-name="hyphen" unicode="-" horiz-adv-x="237" 
d="M236 239h-210v95h210v-95z" />
    <glyph glyph-name="period" unicode="." horiz-adv-x="290" 
d="M225 65q0 -45 -14.5 -60.5t-60.5 -15.5t-61 15.5t-15 59.5q0 46 15 61.5t62 15.5q45 0 59.5 -15.5t14.5 -60.5z" />
    <glyph glyph-name="slash" unicode="/" 
d="M492 709l-379 -813h-113l379 813h113z" />
    <glyph glyph-name="zero" unicode="0" 
d="M471 293q0 -304 -228 -304q-112 0 -163 67t-51 223q0 304 227 304q112 0 163.5 -67t51.5 -223zM341 286q0 112 -21.5 156t-68.5 44q-49 0 -70.5 -44t-21.5 -156t21 -156t69 -44t70 44t22 156z" />
    <glyph glyph-name="one" unicode="1" 
d="M458 0h-397v109h136v335l-119 -39l-31 83l183 84h107v-463h121v-109z" />
    <glyph glyph-name="two" unicode="2" 
d="M459 0h-416v93q159 128 209.5 186.5t50.5 111.5q0 86 -97 86q-56 0 -143 -27l-16 87q117 46 197 46q98 0 149.5 -45.5t51.5 -128.5q0 -74 -49 -136.5t-178 -163.5h241v-109z" />
    <glyph glyph-name="three" unicode="3" 
d="M22 -67l9 75q83 -19 149 -19q133 0 133 108q0 53 -28 79t-95 26h-74v99h71q111 0 111 96q0 82 -98 82q-68 0 -141 -25l-16 85q100 44 192 44q101 0 150 -44.5t49 -119.5q0 -60 -27.5 -100t-71.5 -58q119 -27 119 -161q0 -104 -68 -158.5t-177 -54.5q-91 0 -187 46z" />
    <glyph glyph-name="four" unicode="4" 
d="M225 572h187v-421h66v-107h-66v-148h-128v148h-265v97q99 236 206 431zM284 151l1 313h-3q-76 -146 -151 -313h153z" />
    <glyph glyph-name="five" unicode="5" 
d="M409 462h-230l-10 -159q37 7 80 7q103 0 155.5 -49.5t52.5 -144.5q0 -108 -66.5 -168.5t-184.5 -60.5q-86 0 -183 47l10 74q83 -19 151 -19q139 0 139 116q0 52 -29.5 77.5t-96.5 25.5q-66 0 -145 -17l23 381h334v-110z" />
    <glyph glyph-name="six" unicode="6" 
d="M446 645l-12 -74q-76 17 -131 17q-71 0 -102 -50.5t-33 -166.5q74 42 135 42q165 0 165 -176q0 -118 -57.5 -182.5t-156.5 -64.5q-37 0 -66 7.5t-57.5 29.5t-47.5 57.5t-30.5 95.5t-11.5 141q0 364 242 364q77 0 163 -40zM171 285v-5q0 -106 22 -150.5t69 -44.5
q80 0 80 135q0 93 -79 93q-40 0 -92 -28z" />
    <glyph glyph-name="seven" unicode="7" 
d="M469 471l-129 -273q-76 -163 -173 -310l-89 32l238 542h-282v110h435v-101z" />
    <glyph glyph-name="eight" unicode="8" 
d="M459 519q0 -56 -28.5 -94t-78.5 -68q56 -30 87.5 -71t31.5 -109q0 -85 -57 -136.5t-172 -51.5q-109 0 -161 46.5t-52 127.5q0 60 30.5 100t85.5 73q-104 64 -104 172q0 80 55.5 129t158.5 49q204 0 204 -167zM344 169q0 42 -28 68t-84 54q-76 -48 -76 -117
q0 -44 24.5 -68.5t72.5 -24.5q43 0 67 23.5t24 64.5zM166 518q0 -41 24 -67t70 -49q74 48 74 112q0 83 -84 83q-39 0 -61.5 -21.5t-22.5 -57.5z" />
    <glyph glyph-name="nine" unicode="9" 
d="M39 -73l10 72q96 -17 147 -17q69 0 101.5 51.5t35.5 168.5q-75 -42 -135 -42q-165 0 -165 176q0 118 57 182.5t156 64.5q37 0 66.5 -7.5t58 -29t47.5 -57.5t30.5 -96t11.5 -141q0 -195 -66 -281t-176 -86q-89 0 -179 42zM158 353q0 -48 19 -70.5t61 -22.5q39 0 91 28v5
q0 106 -22 150.5t-68 44.5q-81 0 -81 -135z" />
    <glyph glyph-name="colon" unicode=":" horiz-adv-x="306" 
d="M239 437q0 -39 -17 -54t-57 -15q-39 0 -55.5 15t-16.5 53t17 53.5t56 15.5t56 -15t17 -53zM239 64q0 -39 -17 -53.5t-57 -14.5q-39 0 -55.5 14.5t-16.5 52.5t17 53.5t56 15.5t56 -15t17 -53z" />
    <glyph glyph-name="semicolon" unicode=";" horiz-adv-x="306" 
d="M237 437q0 -39 -17 -54t-56 -15t-56.5 15t-17.5 53t17.5 53.5t56.5 15.5t56 -15t17 -53zM98 -162l-50 42q79 57 79 105q0 12 -9.5 19.5t-18.5 19.5t-9 35q0 39 17 54.5t58 15.5q39 0 55.5 -15.5t16.5 -54.5q0 -124 -139 -221z" />
    <glyph glyph-name="less" unicode="&#x3c;" 
d="M458 156l-40 -96l-383 196v87l383 195l40 -93l-295 -145z" />
    <glyph glyph-name="equal" unicode="=" 
d="M455 349h-410v90h410v-90zM455 160h-410v89h410v-89z" />
    <glyph glyph-name="greater" unicode="&#x3e;" 
d="M465 256l-383 -196l-40 94l295 144l-295 144l40 96l383 -195v-87z" />
    <glyph glyph-name="question" unicode="?" 
d="M446 522q0 -43 -15.5 -77t-37.5 -56t-44 -42.5t-38.5 -48t-17.5 -60.5l-2 -61h-112l-4 60q-3 42 9 75t31 55t38.5 41.5t33.5 44t14 51.5q0 34 -23 55.5t-68 21.5q-56 0 -114 -22l-35 78q90 48 188 48t147.5 -43t49.5 -120zM313 60q0 -40 -15.5 -54t-62.5 -14
q-46 0 -62.5 14.5t-16.5 53.5t17 54t63 15t61.5 -14.5t15.5 -54.5z" />
    <glyph glyph-name="at" unicode="@" horiz-adv-x="1023" 
d="M746 -37l21 -74q-134 -62 -295 -62q-202 0 -308 99t-106 291q0 221 139.5 360.5t378.5 139.5q188 0 278.5 -83.5t90.5 -226.5q0 -153 -83.5 -247t-234.5 -94h-58l-4 82q-75 -91 -149 -91q-132 0 -132 176q0 134 72 204.5t194 70.5q87 0 158 -23l-37 -326q74 0 116.5 62
t42.5 163q0 120 -61 183.5t-209 63.5q-96 0 -171.5 -32t-121.5 -87t-69.5 -125.5t-23.5 -152.5q0 -168 75 -244.5t244 -76.5q59 0 130 14.5t123 35.5zM557 238l20 171q-30 5 -47 5q-55 0 -85.5 -41.5t-30.5 -119.5q0 -50 10.5 -72t35.5 -22q40 0 97 79z" />
    <glyph glyph-name="A" unicode="A" horiz-adv-x="566" 
d="M557 0h-145q-22 102 -30 133h-215l-28 -133h-129q80 361 183 675h177q107 -326 187 -675zM187 234h175q-41 161 -88 322h-3q-43 -152 -84 -322z" />
    <glyph glyph-name="B" unicode="B" horiz-adv-x="566" 
d="M74 0v675h221q104 0 156.5 -43.5t52.5 -116.5q0 -106 -93 -145q58 -11 93 -53.5t35 -102.5q0 -96 -70 -156t-211 -60q-26 0 -88.5 1t-95.5 1zM207 581v-183h52q55 0 81 28t26 69q0 86 -94 86h-65zM207 306v-209q30 -4 69 -4q119 0 119 111q0 102 -126 102h-62z" />
    <glyph glyph-name="C" unicode="C" horiz-adv-x="516" 
d="M442 162l55 -69q-35 -50 -87.5 -77t-115.5 -27q-253 0 -253 337q0 172 69.5 266t189.5 94q127 0 186 -110l-62 -60q-42 62 -107 62q-67 0 -101 -65.5t-34 -168.5q0 -130 34.5 -188t101.5 -58q66 0 124 64z" />
    <glyph glyph-name="D" unicode="D" horiz-adv-x="596" 
d="M74 0v675q35 0 97 1t91 1q154 0 223.5 -86.5t69.5 -234.5q0 -174 -78.5 -266.5t-238.5 -92.5q-11 0 -164 3zM209 575v-473q32 -2 47 -2q157 0 157 241q0 235 -158 235q-31 0 -46 -1z" />
    <glyph glyph-name="E" unicode="E" horiz-adv-x="474" 
d="M428 0h-354v675h350v-103h-215v-175h178v-99h-178v-194h219v-104z" />
    <glyph glyph-name="F" unicode="F" horiz-adv-x="454" 
d="M419 572h-210v-186h189v-101h-189v-285h-135v675h345v-103z" />
    <glyph glyph-name="G" unicode="G" horiz-adv-x="576" 
d="M515 388v-319q-95 -80 -221 -80q-253 0 -253 335q0 176 75.5 269t201.5 93q118 0 192 -101l-59 -56q-66 50 -126 50q-68 0 -105.5 -57.5t-37.5 -175.5q0 -249 125 -249q45 0 75 22v170h-80v99h213z" />
    <glyph glyph-name="H" unicode="H" horiz-adv-x="658" 
d="M584 0h-135v296h-240v-296h-135v675h135v-266h240v266h135v-675z" />
    <glyph glyph-name="I" unicode="I" horiz-adv-x="283" 
d="M209 0h-135v675h135v-675z" />
    <glyph glyph-name="J" unicode="J" horiz-adv-x="288" 
d="M214 675v-604q0 -162 -126 -246l-66 54q34 41 45.5 87t11.5 117v592h135z" />
    <glyph glyph-name="K" unicode="K" horiz-adv-x="547" 
d="M533 0h-153l-169 313h-2v-313h-135v675h135v-287h2l162 287h145l-188 -302z" />
    <glyph glyph-name="L" unicode="L" horiz-adv-x="421" 
d="M405 0h-331v675h135v-570h196v-105z" />
    <glyph glyph-name="M" unicode="M" horiz-adv-x="848" 
d="M789 0h-142q-5 272 -25 511h-2l-149 -511h-114l-149 511h-1q-17 -205 -20 -511h-127q9 342 48 675h178l140 -463h1l142 463h168q40 -345 52 -675z" />
    <glyph glyph-name="N" unicode="N" horiz-adv-x="650" 
d="M576 0h-142l-186 363q-15 28 -32 63.5t-26 57.5l-9 21h-2q7 -105 7 -162v-343h-112v675h163l164 -319q14 -27 31 -63t27 -59l10 -23h2q-7 109 -7 165v299h112v-675z" />
    <glyph glyph-name="O" unicode="O" horiz-adv-x="641" 
d="M600 350q0 -183 -75.5 -272t-211.5 -89t-204 79.5t-68 256.5q0 183 75.5 272t210.5 89q137 0 205 -79.5t68 -256.5zM458 328q0 140 -35 197.5t-106 57.5q-65 0 -99.5 -53.5t-34.5 -182.5q0 -141 34.5 -198t105.5 -57q65 0 100 53.5t35 182.5z" />
    <glyph glyph-name="P" unicode="P" horiz-adv-x="541" 
d="M209 0h-135v675q31 0 96 1t100 1q250 0 250 -212q0 -110 -67.5 -174t-215.5 -64h-28v-227zM209 578v-251h41q129 0 129 126q0 63 -30 94t-99 31h-41z" />
    <glyph glyph-name="Q" unicode="Q" horiz-adv-x="641" 
d="M701 -114l-43 -53q-44 25 -111 25q-15 0 -38 -1t-36 -1q-54 0 -95 30t-72 104q-132 -1 -198.5 80t-66.5 256q0 183 75.5 271.5t211.5 88.5t204 -79.5t68 -255.5q0 -158 -55.5 -245t-153.5 -107q42 -51 113 -51q12 0 31.5 1t30.5 1q76 0 135 -64zM458 329q0 140 -35 197
t-106 57q-65 0 -99.5 -53.5t-34.5 -181.5q0 -141 34.5 -198.5t105.5 -57.5q65 0 100 54t35 183z" />
    <glyph glyph-name="R" unicode="R" horiz-adv-x="568" 
d="M554 0h-153l-146 275h-46v-275h-135v675q201 3 212 3q121 0 179.5 -51.5t58.5 -138.5q0 -142 -141 -186zM209 578v-205h59q56 0 85.5 27t29.5 77q0 101 -116 101h-58z" />
    <glyph glyph-name="S" unicode="S" horiz-adv-x="496" 
d="M471 192q0 -89 -63 -145.5t-174 -56.5q-107 0 -203 64l32 71q88 -36 146 -36q53 0 82.5 22.5t29.5 64.5q0 36 -29 62.5t-70.5 46t-83 43t-70.5 65.5t-29 101q0 86 60.5 138.5t155.5 52.5q98 0 181 -55l-32 -70q-68 27 -124 27q-49 0 -73.5 -21t-24.5 -56q0 -36 30 -63
t72 -47t84.5 -43.5t72.5 -65t30 -99.5z" />
    <glyph glyph-name="T" unicode="T" horiz-adv-x="467" 
d="M452 571h-152v-571h-135v571h-151v104h438v-104z" />
    <glyph glyph-name="U" unicode="U" horiz-adv-x="652" 
d="M579 675v-431q0 -133 -70.5 -194t-193.5 -61t-182.5 56.5t-59.5 183.5v446h135v-432q0 -85 28 -120t91 -35q60 0 90 33.5t30 113.5v440h132z" />
    <glyph glyph-name="V" unicode="V" horiz-adv-x="547" 
d="M405 675h132q-69 -369 -180 -675h-165q-112 325 -182 675h148q47 -272 126 -539h3q68 233 118 539z" />
    <glyph glyph-name="W" unicode="W" horiz-adv-x="861" 
d="M720 675h126q-68 -363 -160 -675h-148l-88 363l-21 106h-2l-20 -106l-82 -363h-148q-90 301 -162 675h145q12 -73 28.5 -152t39 -183t35.5 -170h2l16 90l95 415h131l99 -413l18 -92h2q66 322 94 505z" />
    <glyph glyph-name="X" unicode="X" horiz-adv-x="549" 
d="M535 0h-148q-73 164 -122 249h-3q-69 -124 -117 -249h-133q76 188 176 354q-91 161 -159 321h145q60 -143 104 -222h2q61 100 107 222h130q-63 -161 -160 -316q99 -166 178 -359z" />
    <glyph glyph-name="Y" unicode="Y" horiz-adv-x="489" 
d="M360 675h134q-85 -238 -182 -393v-282h-135v282q-105 175 -182 393h148q55 -161 110 -269h2q54 103 105 269z" />
    <glyph glyph-name="Z" unicode="Z" horiz-adv-x="490" 
d="M458 0h-427v92l255 477h-243l3 106h402v-90l-254 -477h267z" />
    <glyph glyph-name="bracketleft" unicode="[" horiz-adv-x="360" 
d="M300 -173h-201v912h201v-78h-91v-756h91v-78z" />
    <glyph glyph-name="backslash" unicode="\" 
d="M500 -104h-113l-379 813h113z" />
    <glyph glyph-name="bracketright" unicode="]" horiz-adv-x="360" 
d="M261 -173h-201v78h91v756h-91v78h201v-912z" />
    <glyph glyph-name="asciicircum" unicode="^" 
d="M475 397l-100 -35l-125 242l-126 -242l-98 36l173 311h103z" />
    <glyph glyph-name="underscore" unicode="_" 
d="M500 -179h-500v94h500v-94z" />
    <glyph glyph-name="grave" unicode="`" horiz-adv-x="318" 
d="M270 590l-65 -35l-156 121l90 49z" />
    <glyph glyph-name="a" unicode="a" horiz-adv-x="510" 
d="M445 0h-99l-9 51q-72 -62 -153 -62q-70 0 -112.5 40t-42.5 108q0 168 257 168h32v38q0 76 -93 76q-68 0 -152 -30l-17 78q102 45 201 45q94 0 141 -41.5t47 -114.5v-356zM318 124v102h-38q-69 0 -97 -20t-28 -58q0 -68 68 -68q46 0 95 44z" />
    <glyph glyph-name="b" unicode="b" horiz-adv-x="534" 
d="M65 9v700h129v-248q62 51 125 51q86 0 132 -68.5t46 -173.5q0 -144 -70 -212.5t-193 -68.5q-82 0 -169 20zM194 371v-281q25 -9 59 -9q51 0 81.5 43t30.5 128q0 77 -21.5 119t-60.5 42q-41 0 -89 -42z" />
    <glyph glyph-name="c" unicode="c" horiz-adv-x="423" 
d="M367 129l40 -66q-71 -73 -170 -73q-200 0 -200 254q0 120 56.5 194t152.5 74q95 0 150 -63l-45 -66q-40 33 -85 33q-44 0 -69.5 -41t-25.5 -120q0 -88 23 -128t71 -40q50 0 102 42z" />
    <glyph glyph-name="d" unicode="d" horiz-adv-x="534" 
d="M469 0h-105l-10 51q-72 -62 -141 -62q-84 0 -130 68t-46 173q0 144 68 213t179 69q17 0 56 -3v200h129v-709zM340 130v280q-30 10 -61 10q-51 0 -80.5 -43t-29.5 -129q0 -78 21.5 -119t60.5 -41t89 42z" />
    <glyph glyph-name="e" unicode="e" horiz-adv-x="509" 
d="M464 225h-295v-7q0 -131 112 -131q73 0 162 29l19 -74q-101 -53 -207 -53q-218 0 -218 248q0 133 60.5 204t166.5 71q219 0 200 -287zM170 305h170v2q0 119 -81 119q-41 0 -64 -32.5t-25 -88.5z" />
    <glyph glyph-name="f" unicode="f" horiz-adv-x="304" 
d="M336 689l-19 -74q-31 12 -59 12q-29 0 -41.5 -15t-12.5 -47v-64h90v-90h-90v-411h-128v411h-64v90h64v60q0 159 140 159q62 0 120 -31z" />
    <glyph glyph-name="g" unicode="g" horiz-adv-x="534" 
d="M469 491v-472q0 -112 -57 -156.5t-157 -44.5q-80 0 -178 40l10 72q102 -17 154 -17t75.5 19t23.5 66v59q-67 -50 -127 -50q-83 0 -129.5 66.5t-46.5 167.5q0 135 70.5 203t188.5 68q81 0 173 -21zM340 145v265q-30 10 -62 10q-49 0 -79 -41.5t-30 -118.5q0 -76 22 -116.5
t61 -40.5t88 42z" />
    <glyph glyph-name="h" unicode="h" horiz-adv-x="546" 
d="M481 0h-128q0 57 1.5 148.5t1.5 114.5q0 85 -16 115.5t-51 30.5q-41 0 -95 -41v-368h-129v709h129v-251q69 54 136 54q78 0 116.5 -53t38.5 -174q0 -24 -2 -123.5t-2 -161.5z" />
    <glyph glyph-name="i" unicode="i" horiz-adv-x="259" 
d="M206 633q0 -38 -15.5 -52.5t-60.5 -14.5q-46 0 -61.5 14t-15.5 53q0 38 16 52.5t61 14.5q46 0 61 -13.5t15 -53.5zM194 0h-129v501h129v-501z" />
    <glyph glyph-name="j" unicode="j" horiz-adv-x="259" 
d="M194 501v-456q0 -72 -25.5 -125t-83.5 -102l-84 38q64 77 64 164v481h129zM206 633q0 -38 -15.5 -52.5t-60.5 -14.5q-46 0 -61.5 14t-15.5 53q0 38 16 52.5t61 14.5q46 0 61 -13.5t15 -53.5z" />
    <glyph glyph-name="k" unicode="k" horiz-adv-x="490" 
d="M481 0h-150l-133 247h-4v-247h-129v709h129v-410h4l119 202h148l-150 -214z" />
    <glyph glyph-name="l" unicode="l" horiz-adv-x="275" 
d="M252 81l5 -76q-37 -13 -93 -13q-52 0 -75.5 21.5t-23.5 79.5v616h129v-565q0 -41 6.5 -52.5t27.5 -11.5q4 0 12 0.5t12 0.5z" />
    <glyph glyph-name="m" unicode="m" horiz-adv-x="821" 
d="M757 0h-129q0 56 1.5 147t1.5 115q0 85 -14.5 116t-48.5 31q-40 0 -97 -45q5 -27 5 -75v-289h-128v262q0 85 -14.5 116t-47.5 31q-38 0 -92 -41v-368h-129v501h106l9 -53q74 64 148 64q87 0 122 -72q82 72 160 72q75 0 112.5 -53.5t37.5 -172.5q0 -25 -1.5 -125
t-1.5 -161z" />
    <glyph glyph-name="n" unicode="n" horiz-adv-x="546" 
d="M481 0h-128q0 56 1.5 147.5t1.5 115.5q0 85 -16 115.5t-51 30.5q-41 0 -95 -41v-368h-129v501h106l9 -53q74 64 150 64q78 0 116.5 -53.5t38.5 -173.5q0 -25 -2 -124.5t-2 -160.5z" />
    <glyph glyph-name="o" unicode="o" horiz-adv-x="538" 
d="M501 260q0 -135 -63.5 -203t-178.5 -68q-110 0 -166 60t-56 192q0 135 63.5 203t178.5 68q110 0 166 -60t56 -192zM369 239q0 100 -24.5 139t-75.5 39q-99 0 -99 -155q0 -101 24.5 -139.5t75.5 -38.5q99 0 99 155z" />
    <glyph glyph-name="p" unicode="p" horiz-adv-x="534" 
d="M194 -173h-129v674h105l10 -51q69 62 139 62q86 0 132 -68t46 -173q0 -142 -68 -212t-182 -70q-29 0 -53 3v-165zM194 371v-280q24 -10 60 -10q51 0 81 43t30 129q0 77 -21.5 118.5t-60.5 41.5q-41 0 -89 -42z" />
    <glyph glyph-name="q" unicode="q" horiz-adv-x="534" 
d="M469 -173h-129v213q-61 -51 -125 -51q-86 0 -132 68t-46 173q0 143 70 212.5t194 69.5q81 0 168 -21v-664zM340 130v280q-25 10 -60 10q-51 0 -81 -43.5t-30 -128.5q0 -77 21.5 -118.5t60.5 -41.5q38 0 89 42z" />
    <glyph glyph-name="r" unicode="r" horiz-adv-x="365" 
d="M351 500l-16 -113q-24 7 -44 7q-21 0 -42 -16.5t-55 -59.5v-318h-129v501h106l10 -79q37 49 65 69t56 20q26 0 49 -11z" />
    <glyph glyph-name="s" unicode="s" horiz-adv-x="416" 
d="M28 31l11 67q72 -17 124 -17q89 0 89 57q0 25 -23 41t-55.5 28t-65 27t-55.5 47.5t-23 80.5q0 67 50.5 108.5t132.5 41.5q69 0 140 -37l-14 -66q-63 15 -99 15q-37 0 -56 -14.5t-19 -37.5q0 -25 23 -41t55.5 -27.5t65.5 -27t56 -48t23 -80.5q0 -70 -54 -114t-148 -44
q-79 0 -158 41z" />
    <glyph glyph-name="t" unicode="t" horiz-adv-x="348" 
d="M318 97l10 -74q-65 -33 -126 -33q-69 0 -98 29.5t-29 101.5v290h-63v90h68q16 62 30 146h94v-146h111v-90h-111v-258q0 -38 10 -52.5t35 -14.5q30 0 69 11z" />
    <glyph glyph-name="u" unicode="u" horiz-adv-x="546" 
d="M481 0h-105l-10 53q-74 -64 -150 -64q-78 0 -116.5 54t-38.5 173q0 25 2 124.5t2 160.5h129q0 -56 -2 -147t-2 -116q0 -82 15.5 -114t51.5 -32q40 0 95 41v368h129v-501z" />
    <glyph glyph-name="v" unicode="v" horiz-adv-x="483" 
d="M334 501h133q-40 -266 -145 -501h-168l-143 501h139l81 -283l19 -100h2q61 169 82 383z" />
    <glyph glyph-name="w" unicode="w" horiz-adv-x="760" 
d="M616 501h125q-28 -226 -127 -501h-152l-71 282l-14 75h-2l-12 -76l-62 -281h-155l-130 501h137l65 -277l18 -95h2l14 88l59 284h149l72 -291l15 -81h2q53 214 67 372z" />
    <glyph glyph-name="x" unicode="x" horiz-adv-x="482" 
d="M469 0h-147l-89 190h-2q-49 -106 -81 -190h-137l141 263l-122 238h144l71 -165h2q34 68 68 165h130l-122 -225z" />
    <glyph glyph-name="y" unicode="y" horiz-adv-x="481" 
d="M332 501h133q-23 -153 -57.5 -273t-72 -195t-82 -124t-85.5 -68.5t-85 -19.5q-37 0 -76 21v74q23 -3 50 -3q46 0 72 22q29 25 29 60t-36 147l-111 359h138l73 -256q25 -83 25 -149h3q27 76 51 191.5t31 213.5z" />
    <glyph glyph-name="z" unicode="z" horiz-adv-x="400" 
d="M370 97l-4 -97h-336v81l180 324h-173l5 96h314v-80l-180 -324h194z" />
    <glyph glyph-name="braceleft" unicode="{" horiz-adv-x="388" 
d="M317 -173h-53q-74 0 -105.5 34.5t-31.5 102.5v205q0 73 -56 73h-28v92h28q56 0 56 70v199q0 136 139 136h51v-76h-31q-50 0 -50 -62v-177q0 -110 -80 -136q80 -24 80 -137v-186q0 -35 11 -48.5t40 -13.5h30v-76z" />
    <glyph glyph-name="bar" unicode="|" horiz-adv-x="253" 
d="M183 -173h-113v926h113v-926z" />
    <glyph glyph-name="braceright" unicode="}" horiz-adv-x="388" 
d="M344 242h-28q-56 0 -56 -70v-209q0 -136 -139 -136h-51v76h31q50 0 50 62v187q0 110 80 136q-80 24 -80 137v176q0 35 -11 48.5t-40 13.5h-30v76h53q74 0 105.5 -34.5t31.5 -102.5v-195q0 -73 56 -73h28v-92z" />
    <glyph glyph-name="asciitilde" unicode="~" 
d="M473 609v-23q0 -72 -40 -116.5t-109 -44.5q-32 0 -56.5 11t-38.5 27t-24.5 31.5t-21.5 26.5t-22 11q-22 0 -32 -19.5t-10 -66.5h-98v22q0 74 40 117.5t108 43.5q39 0 67.5 -16.5t41 -36t27.5 -36t29 -16.5q22 0 31.5 19t9.5 66h98z" />
    <glyph glyph-name="uni00A0" unicode="&#xa0;" horiz-adv-x="240" 
 />
    <glyph glyph-name="exclamdown" unicode="&#xa1;" horiz-adv-x="359" 
d="M103 394h113l22 -498h-157zM81 511q0 39 16 53.5t63 14.5q46 0 62 -14.5t16 -53.5t-16 -54t-62 -15q-47 0 -63 14.5t-16 54.5z" />
    <glyph glyph-name="cent" unicode="&#xa2;" 
d="M403 237l39 -66q-57 -49 -118 -60l-11 -115h-77l-9 108q-175 19 -175 228q0 96 47.5 158t127.5 80l9 108h77l10 -108q57 -8 107 -54l-44 -66q-45 34 -90 34q-47 0 -79 -35t-32 -103q0 -151 107 -151q59 0 111 42z" />
    <glyph glyph-name="sterling" unicode="&#xa3;" 
d="M462 0h-423v84q48 50 64.5 98.5t9.5 114.5h-83v86h68q-17 64 -17 109q0 97 52.5 144t147.5 47q90 0 167 -41l-13 -70q-63 16 -115 16q-60 0 -81.5 -22.5t-21.5 -70.5q0 -31 17 -112h160v-86h-148q6 -66 -6 -110.5t-49 -84.5h271v-102z" />
    <glyph glyph-name="currency" unicode="&#xa4;" 
d="M476 60l-85 -51l-60 82q-40 -20 -89 -20q-42 0 -75 15l-57 -77l-84 51l65 70q-32 45 -32 123q0 86 38 135l-71 77l83 51l61 -82q37 19 87 19q45 0 77 -15l58 78l84 -51l-68 -73q33 -44 33 -119q0 -85 -38 -134zM330 256q0 71 -19.5 98t-61.5 27q-81 0 -81 -113
q0 -71 20 -98t62 -27q80 0 80 113z" />
    <glyph glyph-name="yen" unicode="&#xa5;" 
d="M444 321v-84h-130v-71h130v-83h-130v-83h-128v83h-130v83h130v71h-130v84h130v15q-96 149 -177 339h141q58 -152 109 -238q50 79 104 238h130q-91 -210 -179 -339v-15h130z" />
    <glyph glyph-name="brokenbar" unicode="&#xa6;" horiz-adv-x="253" 
d="M182 201v-374h-110v374h110zM72 363v393h110v-393h-110z" />
    <glyph glyph-name="section" unicode="&#xa7;" horiz-adv-x="506" 
d="M86 -138l25 71q49 -16 94 -16q39 0 54.5 15.5t15.5 45.5q0 28 -25 57.5t-60.5 58.5t-71 63.5t-60.5 86t-25 112.5q0 122 84 225t181 103q61 0 114 -34l-24 -73q-45 14 -88 14q-36 0 -51 -15.5t-15 -45.5q0 -28 25 -57.5t60.5 -59t71 -64t60.5 -86.5t25 -114
q0 -121 -83.5 -223t-183.5 -102q-67 0 -123 38zM372 132q0 46 -24 86t-56.5 69t-64 56.5t-50 61t-10.5 69.5q-29 -41 -29 -100q0 -45 23.5 -84.5t55.5 -68t63.5 -56.5t50 -62.5t11.5 -73.5q30 49 30 103z" />
    <glyph glyph-name="dieresis" unicode="&#xa8;" horiz-adv-x="420" 
d="M372 634q0 -32 -13.5 -45t-48.5 -13t-48.5 12t-13.5 46q0 33 13.5 46t48.5 13q36 0 49 -12.5t13 -46.5zM172 634q0 -33 -13 -45.5t-48 -12.5t-48.5 12t-13.5 46q0 33 13.5 46t48.5 13t48 -12.5t13 -46.5z" />
    <glyph glyph-name="copyright" unicode="&#xa9;" horiz-adv-x="775" 
d="M739 344q0 -148 -101.5 -253t-253.5 -105q-150 0 -249 99.5t-99 244.5q0 148 102 253t254 105q149 0 248 -99.5t99 -244.5zM647 341q0 114 -74.5 192t-181.5 78q-111 0 -187 -80.5t-76 -197.5q0 -114 74.5 -192t181.5 -78q111 0 187 80.5t76 197.5zM488 249l35 -54
q-58 -54 -138 -54q-81 0 -123.5 50t-42.5 142q0 91 48.5 147t129.5 56q71 0 118 -48l-40 -53q-30 24 -64 24t-54 -30.5t-20 -84.5q0 -124 74 -124q39 0 77 29z" />
    <glyph glyph-name="ordfeminine" unicode="&#xaa;" horiz-adv-x="459" 
d="M375 339h-83l-7 38q-57 -45 -120 -45q-51 0 -81 30.5t-30 79.5q0 121 183 121h33v19q0 31 -14 43.5t-49 12.5q-55 0 -123 -19l-14 64q78 33 157 33q148 0 148 -128v-249zM270 433v68h-30q-47 0 -66 -12.5t-19 -38.5q0 -21 12 -34t33 -13q28 0 70 30zM379 203h-310v71h310
v-71z" />
    <glyph glyph-name="guillemotleft" unicode="&#xab;" horiz-adv-x="508" 
d="M251 117l-85 -28l-132 204l132 203l85 -29l-93 -174zM447 127l-83 -27l-123 193l124 193l82 -29l-83 -164z" />
    <glyph glyph-name="logicalnot" unicode="&#xac;" 
d="M451 119h-105v134h-309v92h414v-226z" />
    <glyph glyph-name="registered" unicode="&#xae;" horiz-adv-x="567" 
d="M522 490q0 -99 -69 -168.5t-173 -69.5q-101 0 -168 65.5t-67 161.5q0 99 69 169t172 70q102 0 169 -66t67 -162zM450 487q0 72 -48 121.5t-116 49.5q-72 0 -121 -51t-49 -125q0 -72 48 -121.5t117 -49.5q71 0 120 51t49 125zM382 373h-70l-35 88h-17v-88h-61v230
q80 2 81 2q95 0 95 -69q0 -46 -41 -66zM260 563v-61h21q32 0 32 31q0 15 -7.5 22.5t-27.5 7.5h-18z" />
    <glyph glyph-name="macron" unicode="&#x2c9;" horiz-adv-x="377" 
d="M328 587h-279v90h279v-90z" />
    <glyph glyph-name="macron" unicode="&#xaf;" horiz-adv-x="377" 
d="M328 587h-279v90h279v-90z" />
    <glyph glyph-name="degree" unicode="&#xb0;" horiz-adv-x="451" 
d="M384 560q0 -67 -43.5 -106.5t-114.5 -39.5q-76 0 -116.5 36t-40.5 105q0 67 44 106.5t116 39.5q74 0 114.5 -36t40.5 -105zM287 558q0 68 -60 68q-61 0 -61 -68q0 -69 61 -69q60 0 60 69z" />
    <glyph glyph-name="plusminus" unicode="&#xb1;" 
d="M459 0h-419v87h419v-87zM459 310h-157v-165h-105v165h-157v87h157v161h105v-161h157v-87z" />
    <glyph glyph-name="twosuperior" unicode="&#xb2;" horiz-adv-x="360" 
d="M328 354h-291v77q102 81 133.5 116.5t31.5 65.5q0 42 -53 42q-30 0 -98 -19l-14 65q72 30 142 30q59 0 99 -26t40 -79q0 -44 -36 -89t-124 -103h170v-80z" />
    <glyph glyph-name="threesuperior" unicode="&#xb3;" horiz-adv-x="357" 
d="M27 370l8 55q60 -11 103 -11q76 0 76 48q0 24 -17 35.5t-57 11.5h-57v70h60q61 0 61 42q0 40 -58 40q-42 0 -92 -15l-15 60q66 25 131 25q73 0 109.5 -26t36.5 -70q0 -60 -67 -85q79 -16 79 -86q0 -58 -47 -89t-120 -31q-66 0 -134 26z" />
    <glyph glyph-name="acute" unicode="&#xb4;" horiz-adv-x="318" 
d="M270 676l-157 -121l-64 35l130 135z" />
    <glyph glyph-name="mu" unicode="&#x3bc;" horiz-adv-x="562" 
d="M467 -10q-43 0 -65.5 16t-31.5 49q-64 -61 -125 -61q-45 0 -66 35q13 -125 15 -202h-129v674h128v-278q0 -73 14.5 -102t54.5 -29q37 0 93 41v368h128v-350q0 -37 9 -51.5t29 -14.5q17 0 33 6l10 -76q-50 -25 -97 -25z" />
    <glyph glyph-name="mu" unicode="&#xb5;" horiz-adv-x="562" 
d="M467 -10q-43 0 -65.5 16t-31.5 49q-64 -61 -125 -61q-45 0 -66 35q13 -125 15 -202h-129v674h128v-278q0 -73 14.5 -102t54.5 -29q37 0 93 41v368h128v-350q0 -37 9 -51.5t29 -14.5q17 0 33 6l10 -76q-50 -25 -97 -25z" />
    <glyph glyph-name="paragraph" unicode="&#xb6;" horiz-adv-x="644" 
d="M561 -105h-100v700h-95v-700h-99v385q-94 -9 -156 45.5t-62 149.5q0 91 56 145.5t156 54.5h300v-780z" />
    <glyph glyph-name="periodcentered" unicode="&#x2219;" horiz-adv-x="274" 
d="M211 299q0 -44 -14.5 -59t-58.5 -15q-45 0 -60 15t-15 58q0 45 15 60t60 15q44 0 58.5 -15t14.5 -59z" />
    <glyph glyph-name="periodcentered" unicode="&#xb7;" horiz-adv-x="274" 
d="M211 299q0 -44 -14.5 -59t-58.5 -15q-45 0 -60 15t-15 58q0 45 15 60t60 15q44 0 58.5 -15t14.5 -59z" />
    <glyph glyph-name="cedilla" unicode="&#xb8;" horiz-adv-x="257" 
d="M96 -42h109q14 -84 -83 -141l-73 29q33 30 43 54t4 58z" />
    <glyph glyph-name="onesuperior" unicode="&#xb9;" horiz-adv-x="344" 
d="M313 354h-268v76h83v204l-73 -21l-15 62l113 49h85v-294h75v-76z" />
    <glyph glyph-name="ordmasculine" unicode="&#xba;" horiz-adv-x="435" 
d="M389 532q0 -97 -50 -148.5t-131 -51.5q-169 0 -169 186q0 96 50.5 147t128.5 51t124.5 -45.5t46.5 -138.5zM284 513q0 72 -17.5 100t-52.5 28q-69 0 -69 -106q0 -72 17.5 -100t53.5 -28q68 0 68 106zM372 203h-311v71h311v-71z" />
    <glyph glyph-name="guillemotright" unicode="&#xbb;" horiz-adv-x="508" 
d="M257 468l85 28l132 -203l-133 -204l-84 29l93 175zM61 458l83 28l123 -193l-124 -193l-82 28l83 165z" />
    <glyph glyph-name="onequarter" unicode="&#xbc;" horiz-adv-x="735" 
d="M313 354h-268v76h83v204l-73 -21l-15 62l113 49h85v-294h75v-76zM70 -44l574 776l67 -37l-573 -776zM717 6h-45v-70h-106v70h-174v74q50 105 129 224h151v-222h45v-76zM566 82v158h-1q-48 -64 -94 -158h95z" />
    <glyph glyph-name="onehalf" unicode="&#xbd;" horiz-adv-x="778" 
d="M313 354h-268v76h83v204l-73 -21l-15 62l113 49h85v-294h75v-76zM70 -44l574 776l67 -37l-573 -776zM746 -64h-291v77q102 81 133.5 116.5t31.5 65.5q0 42 -53 42q-30 0 -98 -19l-14 65q72 30 142 30q59 0 99 -26t40 -79q0 -44 -36 -89t-124 -103h170v-80z" />
    <glyph glyph-name="threequarters" unicode="&#xbe;" horiz-adv-x="733" 
d="M27 370l8 55q60 -11 103 -11q76 0 76 48q0 24 -17 35.5t-57 11.5h-57v70h60q61 0 61 42q0 40 -58 40q-42 0 -92 -15l-15 60q66 25 131 25q73 0 109.5 -26t36.5 -70q0 -60 -67 -85q79 -16 79 -86q0 -58 -47 -89t-120 -31q-66 0 -134 26zM68 -44l574 776l67 -37l-573 -776z
M715 6h-45v-70h-106v70h-174v74q50 105 129 224h151v-222h45v-76zM564 82v158h-1q-48 -64 -94 -158h95z" />
    <glyph glyph-name="questiondown" unicode="&#xbf;" 
d="M54 52q0 41 15.5 74t37.5 55t44 42.5t38.5 48t17.5 61.5l2 61h112l4 -60q3 -42 -9 -76t-31 -56t-38.5 -41t-33.5 -42t-14 -49q0 -36 23 -58t68 -22q56 0 114 22l35 -78q-90 -48 -188 -48t-147.5 43.5t-49.5 122.5zM187 511q0 40 15.5 54t62.5 14q46 0 62.5 -14.5
t16.5 -53.5t-17 -54t-63 -15t-61.5 14.5t-15.5 54.5z" />
    <glyph glyph-name="Agrave" unicode="&#xc0;" horiz-adv-x="566" 
d="M557 0h-145q-22 102 -30 133h-215l-28 -133h-129q80 361 183 675h177q107 -326 187 -675zM187 234h175q-41 161 -88 322h-3q-43 -152 -84 -322zM357 775l-39 -56l-199 61l58 78z" />
    <glyph glyph-name="Aacute" unicode="&#xc1;" horiz-adv-x="566" 
d="M557 0h-145q-22 102 -30 133h-215l-28 -133h-129q80 361 183 675h177q107 -326 187 -675zM187 234h175q-41 161 -88 322h-3q-43 -152 -84 -322zM209 775l180 83l58 -78l-199 -61z" />
    <glyph glyph-name="Acircumflex" unicode="&#xc2;" horiz-adv-x="566" 
d="M557 0h-145q-22 102 -30 133h-215l-28 -133h-129q80 361 183 675h177q107 -326 187 -675zM187 234h175q-41 161 -88 322h-3q-43 -152 -84 -322zM283 858l152 -85l-34 -54l-120 52l-119 -52l-32 52z" />
    <glyph glyph-name="Atilde" unicode="&#xc3;" horiz-adv-x="566" 
d="M557 0h-145q-22 102 -30 133h-215l-28 -133h-129q80 361 183 675h177q107 -326 187 -675zM187 234h175q-41 161 -88 322h-3q-43 -152 -84 -322zM404 850l53 -37q-24 -46 -53 -68t-70 -22q-37 0 -71.5 24t-46.5 24q-15 0 -26 -9.5t-31 -37.5l-52 37q48 90 122 90
q37 0 71.5 -24.5t46.5 -24.5q14 0 25 9.5t32 38.5z" />
    <glyph glyph-name="Adieresis" unicode="&#xc4;" horiz-adv-x="566" 
d="M557 0h-145q-22 102 -30 133h-215l-28 -133h-129q80 361 183 675h177q107 -326 187 -675zM187 234h175q-41 161 -88 322h-3q-43 -152 -84 -322zM448 782q0 -31 -14 -43.5t-48 -12.5q-35 0 -48.5 12t-13.5 44q0 31 13.5 43.5t48.5 12.5t48.5 -12t13.5 -44zM242 782
q0 -31 -13.5 -43.5t-47.5 -12.5q-35 0 -48.5 12t-13.5 44q0 31 13.5 43.5t48.5 12.5t48 -12t13 -44z" />
    <glyph glyph-name="Aring" unicode="&#xc5;" horiz-adv-x="566" 
d="M557 0h-145q-22 102 -30 133h-215l-28 -133h-129q80 361 183 675h177q107 -326 187 -675zM187 234h175q-41 161 -88 322h-3q-43 -152 -84 -322zM397 777q0 -40 -32 -63t-86 -23q-113 0 -113 82q0 39 31.5 62t86.5 23q113 0 113 -81zM320 774q0 37 -38 37q-40 0 -40 -37
q0 -36 40 -36q38 0 38 36z" />
    <glyph glyph-name="AE" unicode="&#xc6;" horiz-adv-x="735" 
d="M688 0h-353v133h-177q-27 -70 -46 -133h-133q130 355 281 675h424v-103h-214v-175h178v-99h-178v-194h218v-104zM335 234v338h-2q-78 -175 -142 -338h144z" />
    <glyph glyph-name="Ccedilla" unicode="&#xc7;" horiz-adv-x="516" 
d="M442 162l55 -69q-35 -50 -87.5 -77t-115.5 -27q-253 0 -253 337q0 172 69.5 266t189.5 94q127 0 186 -110l-62 -60q-42 62 -107 62q-67 0 -101 -65.5t-34 -168.5q0 -130 34.5 -188t101.5 -58q66 0 124 64zM240 -42h109q14 -84 -83 -141l-73 29q33 30 43 54t4 58z" />
    <glyph glyph-name="Egrave" unicode="&#xc8;" horiz-adv-x="474" 
d="M428 0h-354v675h350v-103h-215v-175h178v-99h-178v-194h219v-104zM319 775l-39 -56l-199 61l58 78z" />
    <glyph glyph-name="Eacute" unicode="&#xc9;" horiz-adv-x="474" 
d="M428 0h-354v675h350v-103h-215v-175h178v-99h-178v-194h219v-104zM180 775l180 83l58 -78l-199 -61z" />
    <glyph glyph-name="Ecircumflex" unicode="&#xca;" horiz-adv-x="474" 
d="M428 0h-354v675h350v-103h-215v-175h178v-99h-178v-194h219v-104zM249 858l152 -85l-34 -54l-120 52l-119 -52l-32 52z" />
    <glyph glyph-name="Edieresis" unicode="&#xcb;" horiz-adv-x="474" 
d="M428 0h-354v675h350v-103h-215v-175h178v-99h-178v-194h219v-104zM413 782q0 -31 -14 -43.5t-48 -12.5q-35 0 -48.5 12t-13.5 44q0 31 13.5 43.5t48.5 12.5t48.5 -12t13.5 -44zM207 782q0 -31 -13.5 -43.5t-47.5 -12.5q-35 0 -48.5 12t-13.5 44q0 31 13.5 43.5t48.5 12.5
t48 -12t13 -44z" />
    <glyph glyph-name="Igrave" unicode="&#xcc;" horiz-adv-x="283" 
d="M209 0h-135v675h135v-675zM211 775l-39 -56l-199 61l58 78z" />
    <glyph glyph-name="Iacute" unicode="&#xcd;" horiz-adv-x="283" 
d="M209 0h-135v675h135v-675zM63 775l180 83l58 -78l-199 -61z" />
    <glyph glyph-name="Icircumflex" unicode="&#xce;" horiz-adv-x="283" 
d="M209 0h-135v675h135v-675zM142 858l152 -85l-34 -54l-120 52l-119 -52l-32 52z" />
    <glyph glyph-name="Idieresis" unicode="&#xcf;" horiz-adv-x="283" 
d="M209 0h-135v675h135v-675zM280 782q0 -31 -13 -43.5t-45 -12.5q-33 0 -45.5 12t-12.5 44q0 31 12.5 43.5t45.5 12.5t45.5 -12t12.5 -44zM119 782q0 -31 -12.5 -43.5t-45.5 -12.5t-45.5 12t-12.5 44q0 31 12.5 43.5t45.5 12.5t45.5 -12t12.5 -44z" />
    <glyph glyph-name="Eth" unicode="&#xd0;" horiz-adv-x="606" 
d="M84 397v278q35 0 97.5 1t92.5 1q103 0 170 -43.5t94 -113t27 -164.5q0 -174 -78.5 -266.5t-238.5 -92.5q-11 0 -164 3v298h-54v99h54zM219 575v-178h97v-99h-97v-196q32 -2 47 -2q157 0 157 241q0 235 -158 235q-31 0 -46 -1z" />
    <glyph glyph-name="Ntilde" unicode="&#xd1;" horiz-adv-x="650" 
d="M576 0h-142l-186 363q-15 28 -32 63.5t-26 57.5l-9 21h-2q7 -105 7 -162v-343h-112v675h163l164 -319q14 -27 31 -63t27 -59l10 -23h2q-7 109 -7 165v299h112v-675zM457 850l53 -37q-24 -46 -53 -68t-70 -22q-37 0 -71.5 24t-46.5 24q-15 0 -26 -9.5t-31 -37.5l-52 37
q48 90 122 90q37 0 71.5 -24.5t46.5 -24.5q14 0 25 9.5t32 38.5z" />
    <glyph glyph-name="Ograve" unicode="&#xd2;" horiz-adv-x="641" 
d="M600 350q0 -183 -75.5 -272t-211.5 -89t-204 79.5t-68 256.5q0 183 75.5 272t210.5 89q137 0 205 -79.5t68 -256.5zM458 328q0 140 -35 197.5t-106 57.5q-65 0 -99.5 -53.5t-34.5 -182.5q0 -141 34.5 -198t105.5 -57q65 0 100 53.5t35 182.5zM367 775l-39 -56l-199 61
l58 78z" />
    <glyph glyph-name="Oacute" unicode="&#xd3;" horiz-adv-x="641" 
d="M600 350q0 -183 -75.5 -272t-211.5 -89t-204 79.5t-68 256.5q0 183 75.5 272t210.5 89q137 0 205 -79.5t68 -256.5zM458 328q0 140 -35 197.5t-106 57.5q-65 0 -99.5 -53.5t-34.5 -182.5q0 -141 34.5 -198t105.5 -57q65 0 100 53.5t35 182.5zM258 775l180 83l58 -78
l-199 -61z" />
    <glyph glyph-name="Ocircumflex" unicode="&#xd4;" horiz-adv-x="641" 
d="M600 350q0 -183 -75.5 -272t-211.5 -89t-204 79.5t-68 256.5q0 183 75.5 272t210.5 89q137 0 205 -79.5t68 -256.5zM458 328q0 140 -35 197.5t-106 57.5q-65 0 -99.5 -53.5t-34.5 -182.5q0 -141 34.5 -198t105.5 -57q65 0 100 53.5t35 182.5zM322 858l152 -85l-34 -54
l-120 52l-119 -52l-32 52z" />
    <glyph glyph-name="Otilde" unicode="&#xd5;" horiz-adv-x="641" 
d="M600 350q0 -183 -75.5 -272t-211.5 -89t-204 79.5t-68 256.5q0 183 75.5 272t210.5 89q137 0 205 -79.5t68 -256.5zM458 328q0 140 -35 197.5t-106 57.5q-65 0 -99.5 -53.5t-34.5 -182.5q0 -141 34.5 -198t105.5 -57q65 0 100 53.5t35 182.5zM443 850l53 -37
q-24 -46 -53 -68t-70 -22q-37 0 -71.5 24t-46.5 24q-15 0 -26 -9.5t-31 -37.5l-52 37q48 90 122 90q37 0 71.5 -24.5t46.5 -24.5q14 0 25 9.5t32 38.5z" />
    <glyph glyph-name="Odieresis" unicode="&#xd6;" horiz-adv-x="641" 
d="M600 350q0 -183 -75.5 -272t-211.5 -89t-204 79.5t-68 256.5q0 183 75.5 272t210.5 89q137 0 205 -79.5t68 -256.5zM458 328q0 140 -35 197.5t-106 57.5q-65 0 -99.5 -53.5t-34.5 -182.5q0 -141 34.5 -198t105.5 -57q65 0 100 53.5t35 182.5zM484 782q0 -31 -14 -43.5
t-48 -12.5q-35 0 -48.5 12t-13.5 44q0 31 13.5 43.5t48.5 12.5t48.5 -12t13.5 -44zM278 782q0 -31 -13.5 -43.5t-47.5 -12.5q-35 0 -48.5 12t-13.5 44q0 31 13.5 43.5t48.5 12.5t48 -12t13 -44z" />
    <glyph glyph-name="multiply" unicode="&#xd7;" 
d="M319 299l129 -129l-68 -68l-129 129l-129 -129l-69 68l129 129l-128 128l68 69l129 -128l129 128l68 -68z" />
    <glyph glyph-name="Oslash" unicode="&#xd8;" horiz-adv-x="641" 
d="M600 350q0 -183 -75.5 -272t-211.5 -89q-84 0 -138 32l-60 -101l-69 37l65 109q-70 81 -70 259q0 183 75.5 272t210.5 89q84 0 139 -32l60 101l69 -37l-65 -108q70 -82 70 -260zM466 328q0 95 -17 149l-216 -360q34 -31 91 -31q69 0 105.5 54.5t36.5 187.5zM317 590
q-69 0 -106 -55t-37 -188q0 -91 18 -148l215 360q-34 31 -90 31z" />
    <glyph glyph-name="Ugrave" unicode="&#xd9;" horiz-adv-x="652" 
d="M579 675v-431q0 -133 -70.5 -194t-193.5 -61t-182.5 56.5t-59.5 183.5v446h135v-432q0 -85 28 -120t91 -35q60 0 90 33.5t30 113.5v440h132zM376 775l-39 -56l-199 61l58 78z" />
    <glyph glyph-name="Uacute" unicode="&#xda;" horiz-adv-x="652" 
d="M579 675v-431q0 -133 -70.5 -194t-193.5 -61t-182.5 56.5t-59.5 183.5v446h135v-432q0 -85 28 -120t91 -35q60 0 90 33.5t30 113.5v440h132zM277 775l180 83l58 -78l-199 -61z" />
    <glyph glyph-name="Ucircumflex" unicode="&#xdb;" horiz-adv-x="652" 
d="M579 675v-431q0 -133 -70.5 -194t-193.5 -61t-182.5 56.5t-59.5 183.5v446h135v-432q0 -85 28 -120t91 -35q60 0 90 33.5t30 113.5v440h132zM328 858l152 -85l-34 -54l-120 52l-119 -52l-32 52z" />
    <glyph glyph-name="Udieresis" unicode="&#xdc;" horiz-adv-x="652" 
d="M579 675v-431q0 -133 -70.5 -194t-193.5 -61t-182.5 56.5t-59.5 183.5v446h135v-432q0 -85 28 -120t91 -35q60 0 90 33.5t30 113.5v440h132zM491 782q0 -31 -14 -43.5t-48 -12.5q-35 0 -48.5 12t-13.5 44q0 31 13.5 43.5t48.5 12.5t48.5 -12t13.5 -44zM285 782
q0 -31 -13.5 -43.5t-47.5 -12.5q-35 0 -48.5 12t-13.5 44q0 31 13.5 43.5t48.5 12.5t48 -12t13 -44z" />
    <glyph glyph-name="Yacute" unicode="&#xdd;" horiz-adv-x="489" 
d="M360 675h134q-85 -238 -182 -393v-282h-135v282q-105 175 -182 393h148q55 -161 110 -269h2q54 103 105 269zM194 775l180 83l58 -78l-199 -61z" />
    <glyph glyph-name="Thorn" unicode="&#xde;" horiz-adv-x="541" 
d="M209 0h-135v675h136v-103h60q250 0 250 -211q0 -110 -67.5 -174t-215.5 -64h-28v-123zM209 473v-251h41q129 0 129 126q0 63 -30 94t-99 31h-41z" />
    <glyph glyph-name="germandbls" unicode="&#xdf;" horiz-adv-x="566" 
d="M194 0h-129v498q0 108 57.5 165t163.5 57q97 0 146.5 -39.5t49.5 -105.5q0 -39 -10 -66.5t-25 -42t-29.5 -26t-24.5 -26t-10 -34.5q0 -21 16.5 -39.5t39.5 -34.5t46 -35t39.5 -50t16.5 -70q0 -70 -42 -114.5t-120 -44.5q-70 0 -127 33l11 65q40 -10 81 -10q33 0 50 16.5
t17 41.5q0 24 -16 43.5t-39 34.5t-46 32.5t-39 46.5t-16 68q0 36 16.5 63t35.5 41.5t35.5 37.5t16.5 52q0 34 -19.5 52.5t-56.5 18.5q-49 0 -69 -30.5t-20 -94.5v-503z" />
    <glyph glyph-name="agrave" unicode="&#xe0;" horiz-adv-x="510" 
d="M445 0h-99l-9 51q-72 -62 -153 -62q-70 0 -112.5 40t-42.5 108q0 168 257 168h32v38q0 76 -93 76q-68 0 -152 -30l-17 78q102 45 201 45q94 0 141 -41.5t47 -114.5v-356zM318 124v102h-38q-69 0 -97 -20t-28 -58q0 -68 68 -68q46 0 95 44zM313 590l-65 -35l-156 121
l90 49z" />
    <glyph glyph-name="aacute" unicode="&#xe1;" horiz-adv-x="510" 
d="M445 0h-99l-9 51q-72 -62 -153 -62q-70 0 -112.5 40t-42.5 108q0 168 257 168h32v38q0 76 -93 76q-68 0 -152 -30l-17 78q102 45 201 45q94 0 141 -41.5t47 -114.5v-356zM318 124v102h-38q-69 0 -97 -20t-28 -58q0 -68 68 -68q46 0 95 44zM406 676l-157 -121l-64 35
l130 135z" />
    <glyph glyph-name="acircumflex" unicode="&#xe2;" horiz-adv-x="510" 
d="M445 0h-99l-9 51q-72 -62 -153 -62q-70 0 -112.5 40t-42.5 108q0 168 257 168h32v38q0 76 -93 76q-68 0 -152 -30l-17 78q102 45 201 45q94 0 141 -41.5t47 -114.5v-356zM318 124v102h-38q-69 0 -97 -20t-28 -58q0 -68 68 -68q46 0 95 44zM398 608l-40 -52l-107 72
l-107 -72l-38 51l149 124z" />
    <glyph glyph-name="atilde" unicode="&#xe3;" horiz-adv-x="510" 
d="M445 0h-99l-9 51q-72 -62 -153 -62q-70 0 -112.5 40t-42.5 108q0 168 257 168h32v38q0 76 -93 76q-68 0 -152 -30l-17 78q102 45 201 45q94 0 141 -41.5t47 -114.5v-356zM318 124v102h-38q-69 0 -97 -20t-28 -58q0 -68 68 -68q46 0 95 44zM365 697l51 -37
q-24 -47 -51.5 -69t-67.5 -22q-36 0 -70 24.5t-46 24.5q-14 0 -24.5 -9.5t-30.5 -37.5l-50 36q23 47 50.5 69t67.5 22q36 0 70 -24t46 -24q14 0 25 9.5t30 37.5z" />
    <glyph glyph-name="adieresis" unicode="&#xe4;" horiz-adv-x="510" 
d="M445 0h-99l-9 51q-72 -62 -153 -62q-70 0 -112.5 40t-42.5 108q0 168 257 168h32v38q0 76 -93 76q-68 0 -152 -30l-17 78q102 45 201 45q94 0 141 -41.5t47 -114.5v-356zM318 124v102h-38q-69 0 -97 -20t-28 -58q0 -68 68 -68q46 0 95 44zM415 634q0 -32 -13.5 -45
t-48.5 -13t-48.5 12t-13.5 46q0 33 13.5 46t48.5 13q36 0 49 -12.5t13 -46.5zM215 634q0 -33 -13 -45.5t-48 -12.5t-48.5 12t-13.5 46q0 33 13.5 46t48.5 13t48 -12.5t13 -46.5z" />
    <glyph glyph-name="aring" unicode="&#xe5;" horiz-adv-x="510" 
d="M445 0h-99l-9 51q-72 -62 -153 -62q-70 0 -112.5 40t-42.5 108q0 168 257 168h32v38q0 76 -93 76q-68 0 -152 -30l-17 78q102 45 201 45q94 0 141 -41.5t47 -114.5v-356zM318 124v102h-38q-69 0 -97 -20t-28 -58q0 -68 68 -68q46 0 95 44zM371 646q0 -48 -33 -75.5
t-90 -27.5q-118 0 -118 99q0 47 33 74.5t90 27.5q118 0 118 -98zM291 643q0 43 -41 43q-40 0 -40 -43q0 -41 40 -41q41 0 41 41z" />
    <glyph glyph-name="ae" unicode="&#xe6;" horiz-adv-x="783" 
d="M718 116l18 -74q-101 -53 -206 -53q-128 0 -174 87q-69 -87 -172 -87q-70 0 -112.5 40t-42.5 108q0 168 257 168h32v38q0 76 -93 76q-68 0 -152 -30l-17 78q102 45 201 45q101 0 140 -61q56 61 143 61q216 0 199 -287h-296v-7q0 -131 112 -131q73 0 163 29zM318 226h-38
q-69 0 -97 -20t-28 -58q0 -68 68 -68q59 0 95 60v86zM444 305h171v2q0 119 -82 119q-41 0 -63.5 -32.5t-25.5 -88.5z" />
    <glyph glyph-name="ccedilla" unicode="&#xe7;" horiz-adv-x="423" 
d="M367 129l40 -66q-71 -73 -170 -73q-200 0 -200 254q0 120 56.5 194t152.5 74q95 0 150 -63l-45 -66q-40 33 -85 33q-44 0 -69.5 -41t-25.5 -120q0 -88 23 -128t71 -40q50 0 102 42zM179 -42h109q14 -84 -83 -141l-73 29q33 30 43 54t4 58z" />
    <glyph glyph-name="egrave" unicode="&#xe8;" horiz-adv-x="509" 
d="M464 225h-295v-7q0 -131 112 -131q73 0 162 29l19 -74q-101 -53 -207 -53q-218 0 -218 248q0 133 60.5 204t166.5 71q219 0 200 -287zM170 305h170v2q0 119 -81 119q-41 0 -64 -32.5t-25 -88.5zM324 590l-65 -35l-156 121l90 49z" />
    <glyph glyph-name="eacute" unicode="&#xe9;" horiz-adv-x="509" 
d="M464 225h-295v-7q0 -131 112 -131q73 0 162 29l19 -74q-101 -53 -207 -53q-218 0 -218 248q0 133 60.5 204t166.5 71q219 0 200 -287zM170 305h170v2q0 119 -81 119q-41 0 -64 -32.5t-25 -88.5zM415 676l-157 -121l-64 35l130 135z" />
    <glyph glyph-name="ecircumflex" unicode="&#xea;" horiz-adv-x="509" 
d="M464 225h-295v-7q0 -131 112 -131q73 0 162 29l19 -74q-101 -53 -207 -53q-218 0 -218 248q0 133 60.5 204t166.5 71q219 0 200 -287zM170 305h170v2q0 119 -81 119q-41 0 -64 -32.5t-25 -88.5zM406 608l-40 -52l-107 72l-107 -72l-38 51l149 124z" />
    <glyph glyph-name="edieresis" unicode="&#xeb;" horiz-adv-x="509" 
d="M464 225h-295v-7q0 -131 112 -131q73 0 162 29l19 -74q-101 -53 -207 -53q-218 0 -218 248q0 133 60.5 204t166.5 71q219 0 200 -287zM170 305h170v2q0 119 -81 119q-41 0 -64 -32.5t-25 -88.5zM422 634q0 -32 -13.5 -45t-48.5 -13t-48.5 12t-13.5 46q0 33 13.5 46
t48.5 13q36 0 49 -12.5t13 -46.5zM222 634q0 -33 -13 -45.5t-48 -12.5t-48.5 12t-13.5 46q0 33 13.5 46t48.5 13t48 -12.5t13 -46.5z" />
    <glyph glyph-name="igrave" unicode="&#xec;" horiz-adv-x="259" 
d="M194 0h-129v501h129v-501zM209 590l-65 -35l-156 121l90 49z" />
    <glyph glyph-name="iacute" unicode="&#xed;" horiz-adv-x="259" 
d="M194 0h-129v501h129v-501zM280 676l-157 -121l-64 35l130 135z" />
    <glyph glyph-name="icircumflex" unicode="&#xee;" horiz-adv-x="259" 
d="M194 0h-129v501h129v-501zM276 608l-40 -52l-107 72l-107 -72l-38 51l149 124z" />
    <glyph glyph-name="idieresis" unicode="&#xef;" horiz-adv-x="259" 
d="M194 0h-129v501h129v-501zM276 634q0 -33 -13 -45.5t-47 -12.5q-35 0 -48 12t-13 46q0 33 13 46t48 13t47.5 -12.5t12.5 -46.5zM104 634q0 -33 -12.5 -45.5t-47.5 -12.5t-47.5 12t-12.5 46q0 33 12.5 46t47.5 13t47.5 -12t12.5 -47z" />
    <glyph glyph-name="eth" unicode="&#xf0;" horiz-adv-x="533" 
d="M472 636l-83 -33q104 -131 104 -297q0 -316 -244 -316q-107 0 -162 63t-55 177q0 127 62 201t173 74q34 0 48 -6q-19 38 -51 76l-93 -37l-50 60l91 36q-44 44 -86 75h158q27 -18 54 -47l84 34zM353 276q0 79 -16 132q-24 8 -60 8q-106 0 -106 -164q0 -163 93 -163
q21 0 35.5 7t27.5 26t19.5 57.5t6.5 96.5z" />
    <glyph glyph-name="ntilde" unicode="&#xf1;" horiz-adv-x="546" 
d="M481 0h-128q0 56 1.5 147.5t1.5 115.5q0 85 -16 115.5t-51 30.5q-41 0 -95 -41v-368h-129v501h106l9 -53q74 64 150 64q78 0 116.5 -53.5t38.5 -173.5q0 -25 -2 -124.5t-2 -160.5zM396 697l51 -37q-24 -47 -51.5 -69t-67.5 -22q-36 0 -70 24.5t-46 24.5q-14 0 -24.5 -9.5
t-30.5 -37.5l-50 36q23 47 50.5 69t67.5 22q36 0 70 -24t46 -24q14 0 25 9.5t30 37.5z" />
    <glyph glyph-name="ograve" unicode="&#xf2;" horiz-adv-x="538" 
d="M501 260q0 -135 -63.5 -203t-178.5 -68q-110 0 -166 60t-56 192q0 135 63.5 203t178.5 68q110 0 166 -60t56 -192zM369 239q0 100 -24.5 139t-75.5 39q-99 0 -99 -155q0 -101 24.5 -139.5t75.5 -38.5q99 0 99 155zM333 590l-65 -35l-156 121l90 49z" />
    <glyph glyph-name="oacute" unicode="&#xf3;" horiz-adv-x="538" 
d="M501 260q0 -135 -63.5 -203t-178.5 -68q-110 0 -166 60t-56 192q0 135 63.5 203t178.5 68q110 0 166 -60t56 -192zM369 239q0 100 -24.5 139t-75.5 39q-99 0 -99 -155q0 -101 24.5 -139.5t75.5 -38.5q99 0 99 155zM422 676l-157 -121l-64 35l130 135z" />
    <glyph glyph-name="ocircumflex" unicode="&#xf4;" horiz-adv-x="538" 
d="M501 260q0 -135 -63.5 -203t-178.5 -68q-110 0 -166 60t-56 192q0 135 63.5 203t178.5 68q110 0 166 -60t56 -192zM369 239q0 100 -24.5 139t-75.5 39q-99 0 -99 -155q0 -101 24.5 -139.5t75.5 -38.5q99 0 99 155zM418 608l-40 -52l-107 72l-107 -72l-38 51l149 124z" />
    <glyph glyph-name="otilde" unicode="&#xf5;" horiz-adv-x="538" 
d="M501 260q0 -135 -63.5 -203t-178.5 -68q-110 0 -166 60t-56 192q0 135 63.5 203t178.5 68q110 0 166 -60t56 -192zM369 239q0 100 -24.5 139t-75.5 39q-99 0 -99 -155q0 -101 24.5 -139.5t75.5 -38.5q99 0 99 155zM389 697l51 -37q-24 -47 -51.5 -69t-67.5 -22
q-36 0 -70 24.5t-46 24.5q-14 0 -24.5 -9.5t-30.5 -37.5l-50 36q23 47 50.5 69t67.5 22q36 0 70 -24t46 -24q14 0 25 9.5t30 37.5z" />
    <glyph glyph-name="odieresis" unicode="&#xf6;" horiz-adv-x="538" 
d="M501 260q0 -135 -63.5 -203t-178.5 -68q-110 0 -166 60t-56 192q0 135 63.5 203t178.5 68q110 0 166 -60t56 -192zM369 239q0 100 -24.5 139t-75.5 39q-99 0 -99 -155q0 -101 24.5 -139.5t75.5 -38.5q99 0 99 155zM433 634q0 -32 -13.5 -45t-48.5 -13t-48.5 12t-13.5 46
q0 33 13.5 46t48.5 13q36 0 49 -12.5t13 -46.5zM233 634q0 -33 -13 -45.5t-48 -12.5t-48.5 12t-13.5 46q0 33 13.5 46t48.5 13t48 -12.5t13 -46.5z" />
    <glyph glyph-name="divide" unicode="&#xf7;" 
d="M319 107q0 -39 -14 -52.5t-55 -13.5q-42 0 -56 13.5t-14 51.5q0 40 14 53.5t57 13.5q41 0 54.5 -13.5t13.5 -52.5zM462 254h-425v91h425v-91zM319 490q0 -38 -13.5 -51.5t-54.5 -13.5q-43 0 -57 13.5t-14 52.5q0 40 14 53.5t56 13.5t55.5 -14t13.5 -54z" />
    <glyph glyph-name="oslash" unicode="&#xf8;" horiz-adv-x="538" 
d="M494 543l-53 -87q60 -62 60 -196q0 -135 -63 -203t-178 -68q-53 0 -95 17l-52 -85l-69 38l53 86q-60 63 -60 196q0 136 63 203.5t178 67.5q61 0 95 -17l52 85zM367 342l-151 -252q19 -13 54 -13q108 0 108 161q0 70 -11 104zM172 158l150 253q-20 13 -54 13
q-108 0 -108 -161q0 -65 12 -105z" />
    <glyph glyph-name="ugrave" unicode="&#xf9;" horiz-adv-x="546" 
d="M481 0h-105l-10 53q-74 -64 -150 -64q-78 0 -116.5 54t-38.5 173q0 25 2 124.5t2 160.5h129q0 -56 -2 -147t-2 -116q0 -82 15.5 -114t51.5 -32q40 0 95 41v368h129v-501zM344 590l-65 -35l-156 121l90 49z" />
    <glyph glyph-name="uacute" unicode="&#xfa;" horiz-adv-x="546" 
d="M481 0h-105l-10 53q-74 -64 -150 -64q-78 0 -116.5 54t-38.5 173q0 25 2 124.5t2 160.5h129q0 -56 -2 -147t-2 -116q0 -82 15.5 -114t51.5 -32q40 0 95 41v368h129v-501zM428 676l-157 -121l-64 35l130 135z" />
    <glyph glyph-name="ucircumflex" unicode="&#xfb;" horiz-adv-x="546" 
d="M481 0h-105l-10 53q-74 -64 -150 -64q-78 0 -116.5 54t-38.5 173q0 25 2 124.5t2 160.5h129q0 -56 -2 -147t-2 -116q0 -82 15.5 -114t51.5 -32q40 0 95 41v368h129v-501zM420 608l-40 -52l-107 72l-107 -72l-38 51l149 124z" />
    <glyph glyph-name="udieresis" unicode="&#xfc;" horiz-adv-x="546" 
d="M481 0h-105l-10 53q-74 -64 -150 -64q-78 0 -116.5 54t-38.5 173q0 25 2 124.5t2 160.5h129q0 -56 -2 -147t-2 -116q0 -82 15.5 -114t51.5 -32q40 0 95 41v368h129v-501zM436 634q0 -32 -13.5 -45t-48.5 -13t-48.5 12t-13.5 46q0 33 13.5 46t48.5 13q36 0 49 -12.5
t13 -46.5zM236 634q0 -33 -13 -45.5t-48 -12.5t-48.5 12t-13.5 46q0 33 13.5 46t48.5 13t48 -12.5t13 -46.5z" />
    <glyph glyph-name="yacute" unicode="&#xfd;" horiz-adv-x="481" 
d="M332 501h133q-23 -153 -57.5 -273t-72 -195t-82 -124t-85.5 -68.5t-85 -19.5q-37 0 -76 21v74q23 -3 50 -3q46 0 72 22q29 25 29 60t-36 147l-111 359h138l73 -256q25 -83 25 -149h3q27 76 51 191.5t31 213.5zM407 676l-157 -121l-64 35l130 135z" />
    <glyph glyph-name="thorn" unicode="&#xfe;" horiz-adv-x="534" 
d="M194 -173h-129v882h129v-248q62 51 125 51q86 0 132 -68t46 -173q0 -143 -67.5 -212.5t-181.5 -69.5q-34 0 -54 3v-165zM194 369v-279q25 -9 59 -9q52 0 82 43t30 128q0 78 -21.5 119.5t-60.5 41.5q-40 0 -89 -44z" />
    <glyph glyph-name="ydieresis" unicode="&#xff;" horiz-adv-x="481" 
d="M332 501h133q-23 -153 -57.5 -273t-72 -195t-82 -124t-85.5 -68.5t-85 -19.5q-37 0 -76 21v74q23 -3 50 -3q46 0 72 22q29 25 29 60t-36 147l-111 359h138l73 -256q25 -83 25 -149h3q27 76 51 191.5t31 213.5zM404 634q0 -32 -13.5 -45t-48.5 -13t-48.5 12t-13.5 46
q0 33 13.5 46t48.5 13q36 0 49 -12.5t13 -46.5zM204 634q0 -33 -13 -45.5t-48 -12.5t-48.5 12t-13.5 46q0 33 13.5 46t48.5 13t48 -12.5t13 -46.5z" />
    <glyph glyph-name="Amacron" unicode="&#x100;" horiz-adv-x="566" 
d="M557 0h-145q-22 102 -30 133h-215l-28 -133h-129q80 361 183 675h177q107 -326 187 -675zM187 234h175q-41 161 -88 322h-3q-43 -152 -84 -322zM425 742h-284v84h284v-84z" />
    <glyph glyph-name="amacron" unicode="&#x101;" horiz-adv-x="510" 
d="M445 0h-99l-9 51q-72 -62 -153 -62q-70 0 -112.5 40t-42.5 108q0 168 257 168h32v38q0 76 -93 76q-68 0 -152 -30l-17 78q102 45 201 45q94 0 141 -41.5t47 -114.5v-356zM318 124v102h-38q-69 0 -97 -20t-28 -58q0 -68 68 -68q46 0 95 44zM392 587h-279v90h279v-90z" />
    <glyph glyph-name="Abreve" unicode="&#x102;" horiz-adv-x="566" 
d="M557 0h-145q-22 102 -30 133h-215l-28 -133h-129q80 361 183 675h177q107 -326 187 -675zM187 234h175q-41 161 -88 322h-3q-43 -152 -84 -322zM350 863h77q0 -68 -39 -108.5t-107 -40.5q-69 0 -106.5 39.5t-37.5 109.5h77q0 -29 17 -47.5t51 -18.5t51 18.5t17 47.5z" />
    <glyph glyph-name="abreve" unicode="&#x103;" horiz-adv-x="510" 
d="M445 0h-99l-9 51q-72 -62 -153 -62q-70 0 -112.5 40t-42.5 108q0 168 257 168h32v38q0 76 -93 76q-68 0 -152 -30l-17 78q102 45 201 45q94 0 141 -41.5t47 -114.5v-356zM318 124v102h-38q-69 0 -97 -20t-28 -58q0 -68 68 -68q46 0 95 44zM320 722h79q0 -80 -39 -122
t-109 -42q-146 0 -146 164h79q-1 -41 15.5 -58.5t51.5 -17.5t52 17.5t17 58.5z" />
    <glyph glyph-name="Aogonek" unicode="&#x104;" horiz-adv-x="566" 
d="M532 -100l17 -56q-43 -26 -96 -26q-98 0 -98 73q0 57 57 109q-22 102 -30 133h-215l-28 -133h-129q80 361 183 675h177q107 -326 187 -675q-53 -10 -75.5 -34t-22.5 -51t30 -27q22 0 43 12zM187 234h175q-41 161 -88 322h-3q-43 -152 -84 -322z" />
    <glyph glyph-name="aogonek" unicode="&#x105;" horiz-adv-x="510" 
d="M457 -100l17 -56q-43 -26 -97 -26q-97 0 -97 73q0 62 65 116l-8 44q-72 -62 -153 -62q-74 0 -114.5 37t-40.5 106q0 81 64.5 127t192.5 46h32v38q0 76 -93 76q-68 0 -152 -30l-17 78q102 45 201 45q94 0 141 -41.5t47 -114.5v-356q-62 -41 -62 -85q0 -27 31 -27
q21 0 43 12zM318 124v102h-38q-125 0 -125 -79q0 -67 67 -67q45 0 96 44z" />
    <glyph glyph-name="Cacute" unicode="&#x106;" horiz-adv-x="516" 
d="M442 162l55 -69q-35 -50 -87.5 -77t-115.5 -27q-253 0 -253 337q0 172 69.5 266t189.5 94q127 0 186 -110l-62 -60q-42 62 -107 62q-67 0 -101 -65.5t-34 -168.5q0 -130 34.5 -188t101.5 -58q66 0 124 64zM241 775l180 83l58 -78l-199 -61z" />
    <glyph glyph-name="cacute" unicode="&#x107;" horiz-adv-x="423" 
d="M367 129l40 -66q-71 -73 -170 -73q-200 0 -200 254q0 120 56.5 194t152.5 74q95 0 150 -63l-45 -66q-40 33 -85 33q-44 0 -69.5 -41t-25.5 -120q0 -88 23 -128t71 -40q50 0 102 42zM418 676l-157 -121l-64 35l130 135z" />
    <glyph glyph-name="Ccircumflex" unicode="&#x108;" horiz-adv-x="516" 
d="M442 162l55 -69q-35 -50 -87.5 -77t-115.5 -27q-253 0 -253 337q0 172 69.5 266t189.5 94q127 0 186 -110l-62 -60q-42 62 -107 62q-67 0 -101 -65.5t-34 -168.5q0 -130 34.5 -188t101.5 -58q66 0 124 64zM297 858l152 -85l-34 -54l-120 52l-119 -52l-32 52z" />
    <glyph glyph-name="ccircumflex" unicode="&#x109;" horiz-adv-x="423" 
d="M367 129l40 -66q-71 -73 -170 -73q-200 0 -200 254q0 120 56.5 194t152.5 74q95 0 150 -63l-45 -66q-40 33 -85 33q-44 0 -69.5 -41t-25.5 -120q0 -88 23 -128t71 -40q50 0 102 42zM391 608l-40 -52l-107 72l-107 -72l-38 51l149 124z" />
    <glyph glyph-name="Cdotaccent" unicode="&#x10a;" horiz-adv-x="516" 
d="M442 162l55 -69q-35 -50 -87.5 -77t-115.5 -27q-253 0 -253 337q0 172 69.5 266t189.5 94q127 0 186 -110l-62 -60q-42 62 -107 62q-67 0 -101 -65.5t-34 -168.5q0 -130 34.5 -188t101.5 -58q66 0 124 64zM365 788q0 -33 -15 -45.5t-56 -12.5q-43 0 -57 11.5t-14 46.5
q0 33 15 45.5t56 12.5q43 0 57 -11.5t14 -46.5z" />
    <glyph glyph-name="cdotaccent" unicode="&#x10b;" horiz-adv-x="423" 
d="M367 129l40 -66q-71 -73 -170 -73q-200 0 -200 254q0 120 56.5 194t152.5 74q95 0 150 -63l-45 -66q-40 33 -85 33q-44 0 -69.5 -41t-25.5 -120q0 -88 23 -128t71 -40q50 0 102 42zM317 639q0 -37 -15.5 -50.5t-60.5 -13.5q-46 0 -61.5 13.5t-15.5 50.5t15.5 50.5
t61.5 13.5t61 -13.5t15 -50.5z" />
    <glyph glyph-name="Ccaron" unicode="&#x10c;" horiz-adv-x="516" 
d="M442 162l55 -69q-35 -50 -87.5 -77t-115.5 -27q-253 0 -253 337q0 172 69.5 266t189.5 94q127 0 186 -110l-62 -60q-42 62 -107 62q-67 0 -101 -65.5t-34 -168.5q0 -130 34.5 -188t101.5 -58q66 0 124 64zM301 719l-152 86l33 53l120 -52l119 52l33 -52z" />
    <glyph glyph-name="ccaron" unicode="&#x10d;" horiz-adv-x="423" 
d="M367 129l40 -66q-71 -73 -170 -73q-200 0 -200 254q0 120 56.5 194t152.5 74q95 0 150 -63l-45 -66q-40 33 -85 33q-44 0 -69.5 -41t-25.5 -120q0 -88 23 -128t71 -40q50 0 102 42zM391 679l-149 -124l-143 123l39 52l107 -72l107 72z" />
    <glyph glyph-name="Dcaron" unicode="&#x10e;" horiz-adv-x="596" 
d="M74 0v675q35 0 97 1t91 1q154 0 223.5 -86.5t69.5 -234.5q0 -174 -78.5 -266.5t-238.5 -92.5q-11 0 -164 3zM209 575v-473q32 -2 47 -2q157 0 157 241q0 235 -158 235q-31 0 -46 -1zM281 719l-152 86l33 53l120 -52l119 52l33 -52z" />
    <glyph glyph-name="dcaron" unicode="&#x10f;" horiz-adv-x="595" 
d="M469 0h-105l-10 51q-72 -62 -141 -62q-84 0 -130 68t-46 173q0 144 68 213t179 69q17 0 56 -3v200h129v-709zM340 130v280q-30 10 -61 10q-51 0 -80.5 -43t-29.5 -129q0 -78 21.5 -119t60.5 -41t89 42zM626 740l-61 -184l-64 11l33 191z" />
    <glyph glyph-name="Dcroat" unicode="&#x110;" horiz-adv-x="606" 
d="M84 397v278q35 0 97.5 1t92.5 1q103 0 170 -43.5t94 -113t27 -164.5q0 -174 -78.5 -266.5t-238.5 -92.5q-11 0 -164 3v298h-54v99h54zM219 575v-178h97v-99h-97v-196q32 -2 47 -2q157 0 157 241q0 235 -158 235q-31 0 -46 -1z" />
    <glyph glyph-name="dcroat" unicode="&#x111;" horiz-adv-x="534" 
d="M469 564v-564h-105l-10 51q-72 -62 -141 -62q-84 0 -130 68t-46 173q0 144 68 213t179 69q17 0 56 -3v55h-95v71h95v74h129v-74h66v-71h-66zM340 130v280q-30 10 -61 10q-51 0 -80.5 -43t-29.5 -129q0 -78 21.5 -119t60.5 -41t89 42z" />
    <glyph glyph-name="Emacron" unicode="&#x112;" horiz-adv-x="474" 
d="M428 0h-354v675h350v-103h-215v-175h178v-99h-178v-194h219v-104zM390 742h-284v84h284v-84z" />
    <glyph glyph-name="emacron" unicode="&#x113;" horiz-adv-x="509" 
d="M464 225h-295v-7q0 -131 112 -131q73 0 162 29l19 -74q-101 -53 -207 -53q-218 0 -218 248q0 133 60.5 204t166.5 71q219 0 200 -287zM170 305h170v2q0 119 -81 119q-41 0 -64 -32.5t-25 -88.5zM397 587h-279v90h279v-90z" />
    <glyph glyph-name="Ebreve" unicode="&#x114;" horiz-adv-x="474" 
d="M428 0h-354v675h350v-103h-215v-175h178v-99h-178v-194h219v-104zM315 863h77q0 -68 -39 -108.5t-107 -40.5q-69 0 -106.5 39.5t-37.5 109.5h77q0 -29 17 -47.5t51 -18.5t51 18.5t17 47.5z" />
    <glyph glyph-name="ebreve" unicode="&#x115;" horiz-adv-x="509" 
d="M464 225h-295v-7q0 -131 112 -131q73 0 162 29l19 -74q-101 -53 -207 -53q-218 0 -218 248q0 133 60.5 204t166.5 71q219 0 200 -287zM170 305h170v2q0 119 -81 119q-41 0 -64 -32.5t-25 -88.5zM326 722h79q0 -80 -39 -122t-109 -42q-146 0 -146 164h79
q-1 -41 15.5 -58.5t51.5 -17.5t52 17.5t17 58.5z" />
    <glyph glyph-name="Edotaccent" unicode="&#x116;" horiz-adv-x="474" 
d="M428 0h-354v675h350v-103h-215v-175h178v-99h-178v-194h219v-104zM322 785q0 -33 -15 -45.5t-56 -12.5q-43 0 -57 11.5t-14 46.5q0 33 15 45.5t56 12.5q43 0 57 -11.5t14 -46.5z" />
    <glyph glyph-name="edotaccent" unicode="&#x117;" horiz-adv-x="509" 
d="M464 225h-295v-7q0 -131 112 -131q73 0 162 29l19 -74q-101 -53 -207 -53q-218 0 -218 248q0 133 60.5 204t166.5 71q219 0 200 -287zM170 305h170v2q0 119 -81 119q-41 0 -64 -32.5t-25 -88.5zM335 639q0 -37 -15.5 -50.5t-60.5 -13.5q-46 0 -61.5 13.5t-15.5 50.5
t15.5 50.5t61.5 13.5t61 -13.5t15 -50.5z" />
    <glyph glyph-name="Eogonek" unicode="&#x118;" horiz-adv-x="474" 
d="M428 104v-104q-68 -34 -68 -85q0 -27 30 -27q22 0 43 12l17 -56q-43 -26 -96 -26q-98 0 -98 73q0 57 57 109h-239v675h350v-103h-215v-175h178v-99h-178v-194h219z" />
    <glyph glyph-name="eogonek" unicode="&#x119;" horiz-adv-x="509" 
d="M443 116l19 -74q-38 -31 -63.5 -66t-25.5 -61q0 -27 30 -27q22 0 43 12l17 -56q-43 -26 -96 -26q-98 0 -98 73q0 55 56 106q-35 -8 -70 -8q-218 0 -218 248q0 133 60.5 204t166.5 71q219 0 200 -287h-295v-7q0 -131 112 -131q73 0 162 29zM170 305h170v2q0 119 -81 119
q-41 0 -64 -33t-25 -88z" />
    <glyph glyph-name="Ecaron" unicode="&#x11a;" horiz-adv-x="474" 
d="M428 0h-354v675h350v-103h-215v-175h178v-99h-178v-194h219v-104zM246 719l-152 86l33 53l120 -52l119 52l33 -52z" />
    <glyph glyph-name="ecaron" unicode="&#x11b;" horiz-adv-x="509" 
d="M464 225h-295v-7q0 -131 112 -131q73 0 162 29l19 -74q-101 -53 -207 -53q-218 0 -218 248q0 133 60.5 204t166.5 71q219 0 200 -287zM170 305h170v2q0 119 -81 119q-41 0 -64 -32.5t-25 -88.5zM407 679l-149 -124l-143 123l39 52l107 -72l107 72z" />
    <glyph glyph-name="Gcircumflex" unicode="&#x11c;" horiz-adv-x="576" 
d="M515 388v-319q-95 -80 -221 -80q-253 0 -253 335q0 176 75.5 269t201.5 93q118 0 192 -101l-59 -56q-66 50 -126 50q-68 0 -105.5 -57.5t-37.5 -175.5q0 -249 125 -249q45 0 75 22v170h-80v99h213zM314 858l152 -85l-34 -54l-120 52l-119 -52l-32 52z" />
    <glyph glyph-name="gcircumflex" unicode="&#x11d;" horiz-adv-x="534" 
d="M469 491v-472q0 -112 -57 -156.5t-157 -44.5q-80 0 -178 40l10 72q102 -17 154 -17t75.5 19t23.5 66v59q-67 -50 -127 -50q-83 0 -129.5 66.5t-46.5 167.5q0 135 70.5 203t188.5 68q81 0 173 -21zM340 145v265q-30 10 -62 10q-49 0 -79 -41.5t-30 -118.5q0 -76 22 -116.5
t61 -40.5t88 42zM413 608l-40 -52l-107 72l-107 -72l-38 51l149 124z" />
    <glyph glyph-name="Gbreve" unicode="&#x11e;" horiz-adv-x="576" 
d="M515 388v-319q-95 -80 -221 -80q-253 0 -253 335q0 176 75.5 269t201.5 93q118 0 192 -101l-59 -56q-66 50 -126 50q-68 0 -105.5 -57.5t-37.5 -175.5q0 -249 125 -249q45 0 75 22v170h-80v99h213zM367 863h77q0 -68 -39 -108.5t-107 -40.5q-69 0 -106.5 39.5
t-37.5 109.5h77q0 -29 17 -47.5t51 -18.5t51 18.5t17 47.5z" />
    <glyph glyph-name="gbreve" unicode="&#x11f;" horiz-adv-x="534" 
d="M469 491v-472q0 -112 -57 -156.5t-157 -44.5q-80 0 -178 40l10 72q102 -17 154 -17t75.5 19t23.5 66v59q-67 -50 -127 -50q-83 0 -129.5 66.5t-46.5 167.5q0 135 70.5 203t188.5 68q81 0 173 -21zM340 145v265q-30 10 -62 10q-49 0 -79 -41.5t-30 -118.5q0 -76 22 -116.5
t61 -40.5t88 42zM345 722h79q0 -80 -39 -122t-109 -42q-146 0 -146 164h79q-1 -41 15.5 -58.5t51.5 -17.5t52 17.5t17 58.5z" />
    <glyph glyph-name="Gdotaccent" unicode="&#x120;" horiz-adv-x="576" 
d="M515 388v-319q-95 -80 -221 -80q-253 0 -253 335q0 176 75.5 269t201.5 93q118 0 192 -101l-59 -56q-66 50 -126 50q-68 0 -105.5 -57.5t-37.5 -175.5q0 -249 125 -249q45 0 75 22v170h-80v99h213zM380 788q0 -33 -15 -45.5t-56 -12.5q-43 0 -57 11.5t-14 46.5
q0 33 15 45.5t56 12.5q43 0 57 -11.5t14 -46.5z" />
    <glyph glyph-name="gdotaccent" unicode="&#x121;" horiz-adv-x="534" 
d="M469 491v-472q0 -112 -57 -156.5t-157 -44.5q-80 0 -178 40l10 72q102 -17 154 -17t75.5 19t23.5 66v59q-67 -50 -127 -50q-83 0 -129.5 66.5t-46.5 167.5q0 135 70.5 203t188.5 68q81 0 173 -21zM340 145v265q-30 10 -62 10q-49 0 -79 -41.5t-30 -118.5q0 -76 22 -116.5
t61 -40.5t88 42zM342 639q0 -37 -15.5 -50.5t-60.5 -13.5q-46 0 -61.5 13.5t-15.5 50.5t15.5 50.5t61.5 13.5t61 -13.5t15 -50.5z" />
    <glyph glyph-name="Gcommaaccent" unicode="&#x122;" horiz-adv-x="576" 
d="M515 388v-319q-95 -80 -221 -80q-253 0 -253 335q0 176 75.5 269t201.5 93q118 0 192 -101l-59 -56q-66 50 -126 50q-68 0 -105.5 -57.5t-37.5 -175.5q0 -249 125 -249q45 0 75 22v170h-80v99h213zM299 -34q53 0 53 -51q0 -88 -140 -96l-15 42q55 15 55 38q0 4 -3.5 11
t-3.5 16q0 18 14 29t40 11z" />
    <glyph glyph-name="gcommaaccent" unicode="&#x123;" horiz-adv-x="534" 
d="M469 491v-472q0 -112 -57 -156.5t-157 -44.5q-80 0 -178 40l10 72q102 -17 154 -17t75.5 19t23.5 66v59q-67 -50 -127 -50q-83 0 -129.5 66.5t-46.5 167.5q0 135 70.5 203t188.5 68q81 0 173 -21zM340 145v265q-30 10 -62 10q-49 0 -79 -41.5t-30 -118.5q0 -76 22 -116.5
t61 -40.5t88 42zM396 717l14 -43q-31 -6 -47.5 -18.5t-16.5 -26.5q0 -4 3.5 -10.5t3.5 -16.5q0 -41 -54 -41q-52 0 -52 52q0 48 37.5 75t111.5 29z" />
    <glyph glyph-name="Hcircumflex" unicode="&#x124;" horiz-adv-x="658" 
d="M584 0h-135v296h-240v-296h-135v675h135v-266h240v266h135v-675zM330 858l152 -85l-34 -54l-120 52l-119 -52l-32 52z" />
    <glyph glyph-name="hcircumflex" unicode="&#x125;" horiz-adv-x="546" 
d="M481 0h-128q0 57 1.5 148.5t1.5 114.5q0 85 -16 115.5t-51 30.5q-41 0 -95 -41v-368h-129v709h129v-251q69 54 136 54q78 0 116.5 -53t38.5 -174q0 -24 -2 -123.5t-2 -161.5zM132 885l152 -86l-33 -54l-120 53l-119 -53l-33 52z" />
    <glyph glyph-name="Hbar" unicode="&#x126;" horiz-adv-x="678" 
d="M594 0h-135v273h-240v-273h-135v481h-69v95h69v99h135v-99h240v99h135v-99h68v-95h-68v-481zM219 381h240v100h-240v-100z" />
    <glyph glyph-name="hbar" unicode="&#x127;" horiz-adv-x="546" 
d="M481 0h-128q0 57 1.5 147.5t1.5 112.5q0 85 -16 115.5t-51 30.5q-41 0 -95 -41v-365h-129v566h-69v88h69v63h129v-63h132v-88h-132v-111q67 54 136 54q78 0 116.5 -53t38.5 -174q0 -23 -2 -121.5t-2 -160.5z" />
    <glyph glyph-name="Itilde" unicode="&#x128;" horiz-adv-x="283" 
d="M209 0h-135v675h135v-675zM264 850l53 -37q-24 -46 -53 -68t-70 -22q-37 0 -71.5 24t-46.5 24q-15 0 -26 -9.5t-31 -37.5l-52 37q48 90 122 90q37 0 71.5 -24.5t46.5 -24.5q14 0 25 9.5t32 38.5z" />
    <glyph glyph-name="itilde" unicode="&#x129;" horiz-adv-x="259" 
d="M194 0h-129v501h129v-501zM249 697l51 -37q-24 -47 -51.5 -69t-67.5 -22q-36 0 -70 24.5t-46 24.5q-14 0 -24.5 -9.5t-30.5 -37.5l-50 36q23 47 50.5 69t67.5 22q36 0 70 -24t46 -24q14 0 25 9.5t30 37.5z" />
    <glyph glyph-name="Imacron" unicode="&#x12a;" horiz-adv-x="283" 
d="M209 0h-135v675h135v-675zM284 742h-284v84h284v-84z" />
    <glyph glyph-name="imacron" unicode="&#x12b;" horiz-adv-x="259" 
d="M194 0h-129v501h129v-501zM270 587h-279v90h279v-90z" />
    <glyph glyph-name="Ibreve" unicode="&#x12c;" horiz-adv-x="283" 
d="M209 0h-135v675h135v-675zM210 863h77q0 -68 -39 -108.5t-107 -40.5q-69 0 -106.5 39.5t-37.5 109.5h77q0 -29 17 -47.5t51 -18.5t51 18.5t17 47.5z" />
    <glyph glyph-name="ibreve" unicode="&#x12d;" horiz-adv-x="259" 
d="M194 0h-129v501h129v-501zM198 722h79q0 -80 -39 -122t-109 -42q-146 0 -146 164h79q-1 -41 15.5 -58.5t51.5 -17.5t52 17.5t17 58.5z" />
    <glyph glyph-name="Iogonek" unicode="&#x12e;" horiz-adv-x="283" 
d="M74 0v675h135v-675q-41 -11 -63 -35t-22 -50q0 -27 31 -27q21 0 43 12l17 -56q-43 -26 -97 -26q-97 0 -97 73q0 53 53 109z" />
    <glyph glyph-name="iogonek" unicode="&#x12f;" horiz-adv-x="259" 
d="M206 634q0 -38 -15 -53t-61 -15t-61.5 14.5t-15.5 53.5q0 37 16 51.5t61 14.5q46 0 61 -13.5t15 -52.5zM65 0v501h129v-501q-38 -11 -59 -35t-21 -50q0 -27 31 -27q22 0 43 12l17 -56q-43 -26 -96 -26q-98 0 -98 73q0 53 54 109z" />
    <glyph glyph-name="Idotaccent" unicode="&#x130;" horiz-adv-x="283" 
d="M209 0h-135v675h135v-675zM212 785q0 -33 -15 -45.5t-56 -12.5q-43 0 -57 11.5t-14 46.5q0 33 15 45.5t56 12.5q43 0 57 -11.5t14 -46.5z" />
    <glyph glyph-name="dotlessi" unicode="&#x131;" horiz-adv-x="259" 
d="M194 0h-129v501h129v-501z" />
    <glyph glyph-name="IJ" unicode="&#x132;" horiz-adv-x="571" 
d="M209 0h-135v675h135v-675zM497 675v-604q0 -162 -126 -246l-66 54q34 41 45.5 87t11.5 117v592h135z" />
    <glyph glyph-name="ij" unicode="&#x133;" horiz-adv-x="518" 
d="M206 633q0 -38 -15.5 -52.5t-60.5 -14.5q-46 0 -61.5 14t-15.5 53q0 38 16 52.5t61 14.5q46 0 61 -13.5t15 -53.5zM194 0h-129v501h129v-501zM453 501v-456q0 -72 -25.5 -125t-83.5 -102l-84 38q64 77 64 164v481h129zM465 633q0 -38 -15.5 -52.5t-60.5 -14.5
q-46 0 -61.5 14t-15.5 53q0 38 16 52.5t61 14.5q46 0 61 -13.5t15 -53.5z" />
    <glyph glyph-name="Jcircumflex" unicode="&#x134;" horiz-adv-x="288" 
d="M214 675v-604q0 -162 -126 -246l-66 54q34 41 45.5 87t11.5 117v592h135zM147 858l152 -85l-34 -54l-120 52l-119 -52l-32 52z" />
    <glyph glyph-name="jcircumflex" unicode="&#x135;" horiz-adv-x="259" 
d="M194 501v-456q0 -72 -25.5 -125t-83.5 -102l-84 38q64 77 64 164v481h129zM276 608l-40 -52l-107 72l-107 -72l-38 51l149 124z" />
    <glyph glyph-name="Kcommaaccent" unicode="&#x136;" horiz-adv-x="547" 
d="M533 0h-153l-169 313h-2v-313h-135v675h135v-287h2l162 287h145l-188 -302zM287 -34q53 0 53 -51q0 -88 -140 -96l-15 42q55 15 55 38q0 4 -3.5 11t-3.5 16q0 18 14 29t40 11z" />
    <glyph glyph-name="kcommaaccent" unicode="&#x137;" horiz-adv-x="490" 
d="M481 0h-150l-133 247h-4v-247h-129v709h129v-410h4l119 202h148l-150 -214zM255 -34q53 0 53 -51q0 -88 -140 -96l-15 42q55 15 55 38q0 4 -3.5 11t-3.5 16q0 18 14 29t40 11z" />
    <glyph glyph-name="kgreenlandic" unicode="&#x138;" horiz-adv-x="490" 
d="M481 0h-150l-133 237h-4v-237h-129v501h129v-212h4l119 212h148l-150 -224z" />
    <glyph glyph-name="Lacute" unicode="&#x139;" horiz-adv-x="421" 
d="M405 0h-331v675h135v-570h196v-105zM109 775l180 83l58 -78l-199 -61z" />
    <glyph glyph-name="lacute" unicode="&#x13a;" horiz-adv-x="275" 
d="M252 81l5 -76q-37 -13 -93 -13q-52 0 -75.5 21.5t-23.5 79.5v616h129v-565q0 -41 6.5 -52.5t27.5 -11.5q4 0 12 0.5t12 0.5zM86 788l180 83l58 -78l-199 -61z" />
    <glyph glyph-name="Lcommaaccent" unicode="&#x13b;" horiz-adv-x="421" 
d="M405 0h-331v675h135v-570h196v-105zM236 -34q53 0 53 -51q0 -88 -140 -96l-15 42q55 15 55 38q0 4 -3.5 11t-3.5 16q0 18 14 29t40 11z" />
    <glyph glyph-name="lcommaaccent" unicode="&#x13c;" horiz-adv-x="275" 
d="M252 81l5 -76q-37 -13 -93 -13q-52 0 -75.5 21.5t-23.5 79.5v616h129v-565q0 -41 6.5 -52.5t27.5 -11.5q4 0 12 0.5t12 0.5zM176 -34q53 0 53 -51q0 -88 -140 -96l-15 42q55 15 55 38q0 4 -3.5 11t-3.5 16q0 18 14 29t40 11z" />
    <glyph glyph-name="Lcaron" unicode="&#x13d;" horiz-adv-x="421" 
d="M405 0h-331v675h135v-570h196v-105zM396 740l-61 -184l-64 11l33 191z" />
    <glyph glyph-name="lcaron" unicode="&#x13e;" horiz-adv-x="330" 
d="M252 81l5 -76q-37 -13 -93 -13q-52 0 -75.5 21.5t-23.5 79.5v616h129v-565q0 -41 6.5 -52.5t27.5 -11.5q4 0 12 0.5t12 0.5zM351 740l-61 -184l-64 11l33 191z" />
    <glyph glyph-name="Ldot" unicode="&#x13f;" horiz-adv-x="521" 
d="M405 0h-331v675h135v-570h196v-105zM493 339q0 -44 -14.5 -59t-58.5 -15q-45 0 -60 15t-15 58q0 45 15 60t60 15q44 0 58.5 -15t14.5 -59z" />
    <glyph glyph-name="ldot" unicode="&#x140;" horiz-adv-x="492" 
d="M252 81l5 -76q-37 -13 -93 -13q-52 0 -75.5 21.5t-23.5 79.5v616h129v-565q0 -41 6.5 -52.5t27.5 -11.5q4 0 12 0.5t12 0.5zM449 299q0 -44 -14.5 -59t-58.5 -15q-45 0 -60 15t-15 58q0 45 15 60t60 15q44 0 58.5 -15t14.5 -59z" />
    <glyph glyph-name="Lslash" unicode="&#x141;" horiz-adv-x="428" 
d="M216 471l101 54v-93l-101 -53v-274h196v-105h-331v310l-61 -32v93l61 32v272h135v-204z" />
    <glyph glyph-name="lslash" unicode="&#x142;" horiz-adv-x="283" 
d="M259 81l5 -76q-37 -13 -93 -13q-52 0 -75 21.5t-23 79.5v211l-61 -33v93l61 33v312h128v-242l61 33v-94l-61 -33v-229q0 -41 6.5 -52.5t27.5 -11.5q3 0 12 0.5t12 0.5z" />
    <glyph glyph-name="Nacute" unicode="&#x143;" horiz-adv-x="650" 
d="M576 0h-142l-186 363q-15 28 -32 63.5t-26 57.5l-9 21h-2q7 -105 7 -162v-343h-112v675h163l164 -319q14 -27 31 -63t27 -59l10 -23h2q-7 109 -7 165v299h112v-675zM277 775l180 83l58 -78l-199 -61z" />
    <glyph glyph-name="nacute" unicode="&#x144;" horiz-adv-x="546" 
d="M481 0h-128q0 56 1.5 147.5t1.5 115.5q0 85 -16 115.5t-51 30.5q-41 0 -95 -41v-368h-129v501h106l9 -53q74 64 150 64q78 0 116.5 -53.5t38.5 -173.5q0 -25 -2 -124.5t-2 -160.5zM434 676l-157 -121l-64 35l130 135z" />
    <glyph glyph-name="Ncommaaccent" unicode="&#x145;" horiz-adv-x="650" 
d="M576 0h-142l-186 363q-15 28 -32 63.5t-26 57.5l-9 21h-2q7 -105 7 -162v-343h-112v675h163l164 -319q14 -27 31 -63t27 -59l10 -23h2q-7 109 -7 165v299h112v-675zM317 -34q53 0 53 -51q0 -88 -140 -96l-15 42q55 15 55 38q0 4 -3.5 11t-3.5 16q0 18 14 29t40 11z" />
    <glyph glyph-name="ncommaaccent" unicode="&#x146;" horiz-adv-x="546" 
d="M481 0h-128q0 56 1.5 147.5t1.5 115.5q0 85 -16 115.5t-51 30.5q-41 0 -95 -41v-368h-129v501h106l9 -53q74 64 150 64q78 0 116.5 -53.5t38.5 -173.5q0 -25 -2 -124.5t-2 -160.5zM271 -34q53 0 53 -51q0 -88 -140 -96l-15 42q55 15 55 38q0 4 -3.5 11t-3.5 16
q0 18 14 29t40 11z" />
    <glyph glyph-name="Ncaron" unicode="&#x147;" horiz-adv-x="650" 
d="M576 0h-142l-186 363q-15 28 -32 63.5t-26 57.5l-9 21h-2q7 -105 7 -162v-343h-112v675h163l164 -319q14 -27 31 -63t27 -59l10 -23h2q-7 109 -7 165v299h112v-675zM341 719l-152 86l33 53l120 -52l119 52l33 -52z" />
    <glyph glyph-name="ncaron" unicode="&#x148;" horiz-adv-x="546" 
d="M481 0h-128q0 56 1.5 147.5t1.5 115.5q0 85 -16 115.5t-51 30.5q-41 0 -95 -41v-368h-129v501h106l9 -53q74 64 150 64q78 0 116.5 -53.5t38.5 -173.5q0 -25 -2 -124.5t-2 -160.5zM422 679l-149 -124l-143 123l39 52l107 -72l107 72z" />
    <glyph glyph-name="napostrophe" unicode="&#x149;" horiz-adv-x="607" 
d="M53 509l-41 42q62 47 62 82q0 11 -13.5 26t-13.5 40q0 39 12.5 52.5t51.5 13.5q36 0 47.5 -14.5t11.5 -51.5q0 -59 -27.5 -104t-89.5 -86zM542 0h-128q0 56 1.5 147.5t1.5 115.5q0 85 -16 115.5t-51 30.5q-41 0 -95 -41v-368h-129v501h106l9 -53q74 64 150 64
q78 0 116.5 -53.5t38.5 -173.5q0 -25 -2 -124.5t-2 -160.5z" />
    <glyph glyph-name="Eng" unicode="&#x14a;" horiz-adv-x="650" 
d="M576 675v-630q0 -150 -126 -227l-60 55q54 50 54 127h-15l-183 363q-16 32 -32.5 67.5t-24.5 55.5l-8 19h-2q7 -83 7 -162v-343h-112v675h164l165 -323l66 -147h2q-7 90 -7 167v303h112z" />
    <glyph glyph-name="eng" unicode="&#x14b;" horiz-adv-x="546" 
d="M374 -182l-84 38q65 76 65 164v243q0 85 -15.5 115.5t-50.5 30.5q-41 0 -95 -41v-368h-129v501h106l9 -53q74 64 150 64q78 0 116 -53.5t38 -173.5l-1 -240q0 -73 -25.5 -125.5t-83.5 -101.5z" />
    <glyph glyph-name="Omacron" unicode="&#x14c;" horiz-adv-x="641" 
d="M600 350q0 -183 -75.5 -272t-211.5 -89t-204 79.5t-68 256.5q0 183 75.5 272t210.5 89q137 0 205 -79.5t68 -256.5zM458 328q0 140 -35 197.5t-106 57.5q-65 0 -99.5 -53.5t-34.5 -182.5q0 -141 34.5 -198t105.5 -57q65 0 100 53.5t35 182.5zM462 742h-284v84h284v-84z
" />
    <glyph glyph-name="omacron" unicode="&#x14d;" horiz-adv-x="538" 
d="M501 260q0 -135 -63.5 -203t-178.5 -68q-110 0 -166 60t-56 192q0 135 63.5 203t178.5 68q110 0 166 -60t56 -192zM369 239q0 100 -24.5 139t-75.5 39q-99 0 -99 -155q0 -101 24.5 -139.5t75.5 -38.5q99 0 99 155zM409 587h-279v90h279v-90z" />
    <glyph glyph-name="Obreve" unicode="&#x14e;" horiz-adv-x="641" 
d="M600 350q0 -183 -75.5 -272t-211.5 -89t-204 79.5t-68 256.5q0 183 75.5 272t210.5 89q137 0 205 -79.5t68 -256.5zM458 328q0 140 -35 197.5t-106 57.5q-65 0 -99.5 -53.5t-34.5 -182.5q0 -141 34.5 -198t105.5 -57q65 0 100 53.5t35 182.5zM389 863h77
q0 -68 -39 -108.5t-107 -40.5q-69 0 -106.5 39.5t-37.5 109.5h77q0 -29 17 -47.5t51 -18.5t51 18.5t17 47.5z" />
    <glyph glyph-name="obreve" unicode="&#x14f;" horiz-adv-x="538" 
d="M501 260q0 -135 -63.5 -203t-178.5 -68q-110 0 -166 60t-56 192q0 135 63.5 203t178.5 68q110 0 166 -60t56 -192zM369 239q0 100 -24.5 139t-75.5 39q-99 0 -99 -155q0 -101 24.5 -139.5t75.5 -38.5q99 0 99 155zM337 722h79q0 -80 -39 -122t-109 -42q-146 0 -146 164
h79q-1 -41 15.5 -58.5t51.5 -17.5t52 17.5t17 58.5z" />
    <glyph glyph-name="Ohungarumlaut" unicode="&#x150;" horiz-adv-x="641" 
d="M600 350q0 -183 -75.5 -272t-211.5 -89t-204 79.5t-68 256.5q0 183 75.5 272t210.5 89q137 0 205 -79.5t68 -256.5zM458 328q0 140 -35 197.5t-106 57.5q-65 0 -99.5 -53.5t-34.5 -182.5q0 -141 34.5 -198t105.5 -57q65 0 100 53.5t35 182.5zM627 805l-195 -92l-53 41
l174 110zM397 815l-171 -103l-56 34l148 122z" />
    <glyph glyph-name="ohungarumlaut" unicode="&#x151;" horiz-adv-x="538" 
d="M501 260q0 -135 -63.5 -203t-178.5 -68q-110 0 -166 60t-56 192q0 135 63.5 203t178.5 68q110 0 166 -60t56 -192zM369 239q0 100 -24.5 139t-75.5 39q-99 0 -99 -155q0 -101 24.5 -139.5t75.5 -38.5q99 0 99 155zM529 671l-154 -116l-64 35l129 131zM325 677l-143 -124
l-63 35l117 138z" />
    <glyph glyph-name="OE" unicode="&#x152;" horiz-adv-x="782" 
d="M735 0h-324q-47 -11 -98 -11q-135 0 -203.5 78.5t-68.5 258.5q0 183 75.5 271.5t211.5 88.5q57 0 98 -11h305v-103h-215v-175h178v-99h-178v-194h219v-104zM381 103v465q-23 15 -64 15q-65 0 -99.5 -53.5t-34.5 -181.5q0 -141 34.5 -198.5t105.5 -57.5q36 0 58 11z" />
    <glyph glyph-name="oe" unicode="&#x153;" horiz-adv-x="837" 
d="M771 116l19 -74q-101 -53 -207 -53q-109 0 -158 75q-51 -75 -165 -75q-223 0 -223 252q0 135 63 203t176 68q115 0 164 -77q53 77 152 77q219 0 200 -287h-295v-7q0 -131 112 -131q73 0 162 29zM498 305h170v2q0 119 -81 119q-41 0 -64 -32.5t-25 -88.5zM369 238
q0 101 -24.5 140t-75.5 39q-99 0 -99 -154q0 -102 24.5 -140.5t76.5 -38.5q98 0 98 154z" />
    <glyph glyph-name="Racute" unicode="&#x154;" horiz-adv-x="568" 
d="M554 0h-153l-146 275h-46v-275h-135v675q201 3 212 3q121 0 179.5 -51.5t58.5 -138.5q0 -142 -141 -186zM209 578v-205h59q56 0 85.5 27t29.5 77q0 101 -116 101h-58zM202 775l180 83l58 -78l-199 -61z" />
    <glyph glyph-name="racute" unicode="&#x155;" horiz-adv-x="365" 
d="M351 500l-16 -113q-24 7 -44 7q-21 0 -42 -16.5t-55 -59.5v-318h-129v501h106l10 -79q37 49 65 69t56 20q26 0 49 -11zM360 676l-157 -121l-64 35l130 135z" />
    <glyph glyph-name="Rcommaaccent" unicode="&#x156;" horiz-adv-x="568" 
d="M554 0h-153l-146 275h-46v-275h-135v675q201 3 212 3q121 0 179.5 -51.5t58.5 -138.5q0 -142 -141 -186zM209 578v-205h59q56 0 85.5 27t29.5 77q0 101 -116 101h-58zM290 -34q53 0 53 -51q0 -88 -140 -96l-15 42q55 15 55 38q0 4 -3.5 11t-3.5 16q0 18 14 29t40 11z" />
    <glyph glyph-name="rcommaaccent" unicode="&#x157;" horiz-adv-x="365" 
d="M351 500l-16 -113q-24 7 -44 7q-21 0 -42 -16.5t-55 -59.5v-318h-129v501h106l10 -79q37 49 65 69t56 20q26 0 49 -11zM132 -34q53 0 53 -51q0 -88 -140 -96l-15 42q55 15 55 38q0 4 -3.5 11t-3.5 16q0 18 14 29t40 11z" />
    <glyph glyph-name="Rcaron" unicode="&#x158;" horiz-adv-x="568" 
d="M554 0h-153l-146 275h-46v-275h-135v675q201 3 212 3q121 0 179.5 -51.5t58.5 -138.5q0 -142 -141 -186zM209 578v-205h59q56 0 85.5 27t29.5 77q0 101 -116 101h-58zM273 719l-152 86l33 53l120 -52l119 52l33 -52z" />
    <glyph glyph-name="rcaron" unicode="&#x159;" horiz-adv-x="365" 
d="M351 500l-16 -113q-24 7 -44 7q-21 0 -42 -16.5t-55 -59.5v-318h-129v501h106l10 -79q37 49 65 69t56 20q26 0 49 -11zM355 679l-149 -124l-143 123l39 52l107 -72l107 72z" />
    <glyph glyph-name="Sacute" unicode="&#x15a;" horiz-adv-x="496" 
d="M471 192q0 -89 -63 -145.5t-174 -56.5q-107 0 -203 64l32 71q88 -36 146 -36q53 0 82.5 22.5t29.5 64.5q0 36 -29 62.5t-70.5 46t-83 43t-70.5 65.5t-29 101q0 86 60.5 138.5t155.5 52.5q98 0 181 -55l-32 -70q-68 27 -124 27q-49 0 -73.5 -21t-24.5 -56q0 -36 30 -63
t72 -47t84.5 -43.5t72.5 -65t30 -99.5zM193 775l180 83l58 -78l-199 -61z" />
    <glyph glyph-name="sacute" unicode="&#x15b;" horiz-adv-x="416" 
d="M28 31l11 67q72 -17 124 -17q89 0 89 57q0 25 -23 41t-55.5 28t-65 27t-55.5 47.5t-23 80.5q0 67 50.5 108.5t132.5 41.5q69 0 140 -37l-14 -66q-63 15 -99 15q-37 0 -56 -14.5t-19 -37.5q0 -25 23 -41t55.5 -27.5t65.5 -27t56 -48t23 -80.5q0 -70 -54 -114t-148 -44
q-79 0 -158 41zM362 676l-157 -121l-64 35l130 135z" />
    <glyph glyph-name="Scircumflex" unicode="&#x15c;" horiz-adv-x="496" 
d="M471 192q0 -89 -63 -145.5t-174 -56.5q-107 0 -203 64l32 71q88 -36 146 -36q53 0 82.5 22.5t29.5 64.5q0 36 -29 62.5t-70.5 46t-83 43t-70.5 65.5t-29 101q0 86 60.5 138.5t155.5 52.5q98 0 181 -55l-32 -70q-68 27 -124 27q-49 0 -73.5 -21t-24.5 -56q0 -36 30 -63
t72 -47t84.5 -43.5t72.5 -65t30 -99.5zM259 858l152 -85l-34 -54l-120 52l-119 -52l-32 52z" />
    <glyph glyph-name="scircumflex" unicode="&#x15d;" horiz-adv-x="416" 
d="M28 31l11 67q72 -17 124 -17q89 0 89 57q0 25 -23 41t-55.5 28t-65 27t-55.5 47.5t-23 80.5q0 67 50.5 108.5t132.5 41.5q69 0 140 -37l-14 -66q-63 15 -99 15q-37 0 -56 -14.5t-19 -37.5q0 -25 23 -41t55.5 -27.5t65.5 -27t56 -48t23 -80.5q0 -70 -54 -114t-148 -44
q-79 0 -158 41zM354 608l-40 -52l-107 72l-107 -72l-38 51l149 124z" />
    <glyph glyph-name="Scedilla" unicode="&#x15e;" horiz-adv-x="496" 
d="M471 192q0 -89 -63 -145.5t-174 -56.5q-107 0 -203 64l32 71q88 -36 146 -36q53 0 82.5 22.5t29.5 64.5q0 36 -29 62.5t-70.5 46t-83 43t-70.5 65.5t-29 101q0 86 60.5 138.5t155.5 52.5q98 0 181 -55l-32 -70q-68 27 -124 27q-49 0 -73.5 -21t-24.5 -56q0 -36 30 -63
t72 -47t84.5 -43.5t72.5 -65t30 -99.5zM184 -42h109q14 -84 -83 -141l-73 29q33 30 43 54t4 58z" />
    <glyph glyph-name="scedilla" unicode="&#x15f;" horiz-adv-x="416" 
d="M28 31l11 67q72 -17 124 -17q89 0 89 57q0 25 -23 41t-55.5 28t-65 27t-55.5 47.5t-23 80.5q0 67 50.5 108.5t132.5 41.5q69 0 140 -37l-14 -66q-63 15 -99 15q-37 0 -56 -14.5t-19 -37.5q0 -25 23 -41t55.5 -27.5t65.5 -27t56 -48t23 -80.5q0 -70 -54 -114t-148 -44
q-79 0 -158 41zM139 -42h109q14 -84 -83 -141l-73 29q33 30 43 54t4 58z" />
    <glyph glyph-name="Scaron" unicode="&#x160;" horiz-adv-x="496" 
d="M471 192q0 -89 -63 -145.5t-174 -56.5q-107 0 -203 64l32 71q88 -36 146 -36q53 0 82.5 22.5t29.5 64.5q0 36 -29 62.5t-70.5 46t-83 43t-70.5 65.5t-29 101q0 86 60.5 138.5t155.5 52.5q98 0 181 -55l-32 -70q-68 27 -124 27q-49 0 -73.5 -21t-24.5 -56q0 -36 30 -63
t72 -47t84.5 -43.5t72.5 -65t30 -99.5zM247 719l-152 86l33 53l120 -52l119 52l33 -52z" />
    <glyph glyph-name="scaron" unicode="&#x161;" horiz-adv-x="416" 
d="M28 31l11 67q72 -17 124 -17q89 0 89 57q0 25 -23 41t-55.5 28t-65 27t-55.5 47.5t-23 80.5q0 67 50.5 108.5t132.5 41.5q69 0 140 -37l-14 -66q-63 15 -99 15q-37 0 -56 -14.5t-19 -37.5q0 -25 23 -41t55.5 -27.5t65.5 -27t56 -48t23 -80.5q0 -70 -54 -114t-148 -44
q-79 0 -158 41zM355 679l-149 -124l-143 123l39 52l107 -72l107 72z" />
    <glyph glyph-name="uni0162" unicode="&#x162;" horiz-adv-x="467" 
d="M452 571h-152v-571h-135v571h-151v104h438v-104zM234 -34q53 0 53 -51q0 -88 -140 -96l-15 42q55 15 55 38q0 4 -3.5 11t-3.5 16q0 18 14 29t40 11z" />
    <glyph glyph-name="uni0163" unicode="&#x163;" horiz-adv-x="348" 
d="M318 97l10 -74q-65 -33 -126 -33q-69 0 -98 29.5t-29 101.5v290h-63v90h68q16 62 30 146h94v-146h111v-90h-111v-258q0 -38 10 -52.5t35 -14.5q30 0 69 11zM205 -34q53 0 53 -51q0 -88 -140 -96l-15 42q55 15 55 38q0 4 -3.5 11t-3.5 16q0 18 14 29t40 11z" />
    <glyph glyph-name="Tcaron" unicode="&#x164;" horiz-adv-x="467" 
d="M452 571h-152v-571h-135v571h-151v104h438v-104zM233 719l-152 86l33 53l120 -52l119 52l33 -52z" />
    <glyph glyph-name="tcaron" unicode="&#x165;" horiz-adv-x="379" 
d="M318 97l10 -74q-65 -33 -126 -33q-69 0 -98 29.5t-29 101.5v290h-63v90h68q16 62 30 146h94v-146h111v-90h-111v-258q0 -38 10 -52.5t35 -14.5q30 0 69 11zM373 740l-61 -184l-64 11l33 191z" />
    <glyph glyph-name="Tbar" unicode="&#x166;" horiz-adv-x="467" 
d="M452 571h-152v-207h99v-91h-99v-273h-135v273h-98v91h98v207h-151v104h438v-104z" />
    <glyph glyph-name="tbar" unicode="&#x167;" horiz-adv-x="348" 
d="M318 97l10 -74q-65 -33 -126 -33q-69 0 -98 29.5t-29 101.5v95h-52v89h52v106h-63v90h68q16 62 30 146h94v-146h111v-90h-111v-106h99v-89h-99v-63q0 -38 10 -52.5t35 -14.5q30 0 69 11z" />
    <glyph glyph-name="Utilde" unicode="&#x168;" horiz-adv-x="652" 
d="M579 675v-431q0 -133 -70.5 -194t-193.5 -61t-182.5 56.5t-59.5 183.5v446h135v-432q0 -85 28 -120t91 -35q60 0 90 33.5t30 113.5v440h132zM448 850l53 -37q-24 -46 -53 -68t-70 -22q-37 0 -71.5 24t-46.5 24q-15 0 -26 -9.5t-31 -37.5l-52 37q48 90 122 90
q37 0 71.5 -24.5t46.5 -24.5q14 0 25 9.5t32 38.5z" />
    <glyph glyph-name="utilde" unicode="&#x169;" horiz-adv-x="546" 
d="M481 0h-105l-10 53q-74 -64 -150 -64q-78 0 -116.5 54t-38.5 173q0 25 2 124.5t2 160.5h129q0 -56 -2 -147t-2 -116q0 -82 15.5 -114t51.5 -32q40 0 95 41v368h129v-501zM393 697l51 -37q-24 -47 -51.5 -69t-67.5 -22q-36 0 -70 24.5t-46 24.5q-14 0 -24.5 -9.5
t-30.5 -37.5l-50 36q23 47 50.5 69t67.5 22q36 0 70 -24t46 -24q14 0 25 9.5t30 37.5z" />
    <glyph glyph-name="Umacron" unicode="&#x16a;" horiz-adv-x="652" 
d="M579 675v-431q0 -133 -70.5 -194t-193.5 -61t-182.5 56.5t-59.5 183.5v446h135v-432q0 -85 28 -120t91 -35q60 0 90 33.5t30 113.5v440h132zM468 742h-284v84h284v-84z" />
    <glyph glyph-name="umacron" unicode="&#x16b;" horiz-adv-x="546" 
d="M481 0h-105l-10 53q-74 -64 -150 -64q-78 0 -116.5 54t-38.5 173q0 25 2 124.5t2 160.5h129q0 -56 -2 -147t-2 -116q0 -82 15.5 -114t51.5 -32q40 0 95 41v368h129v-501zM414 587h-279v90h279v-90z" />
    <glyph glyph-name="Ubreve" unicode="&#x16c;" horiz-adv-x="652" 
d="M579 675v-431q0 -133 -70.5 -194t-193.5 -61t-182.5 56.5t-59.5 183.5v446h135v-432q0 -85 28 -120t91 -35q60 0 90 33.5t30 113.5v440h132zM394 863h77q0 -68 -39 -108.5t-107 -40.5q-69 0 -106.5 39.5t-37.5 109.5h77q0 -29 17 -47.5t51 -18.5t51 18.5t17 47.5z" />
    <glyph glyph-name="ubreve" unicode="&#x16d;" horiz-adv-x="546" 
d="M481 0h-105l-10 53q-74 -64 -150 -64q-78 0 -116.5 54t-38.5 173q0 25 2 124.5t2 160.5h129q0 -56 -2 -147t-2 -116q0 -82 15.5 -114t51.5 -32q40 0 95 41v368h129v-501zM341 722h79q0 -80 -39 -122t-109 -42q-146 0 -146 164h79q-1 -41 15.5 -58.5t51.5 -17.5t52 17.5
t17 58.5z" />
    <glyph glyph-name="Uring" unicode="&#x16e;" horiz-adv-x="652" 
d="M579 675v-431q0 -133 -70.5 -194t-193.5 -61t-182.5 56.5t-59.5 183.5v446h135v-432q0 -85 28 -120t91 -35q60 0 90 33.5t30 113.5v440h132zM443 777q0 -40 -32 -63t-86 -23q-113 0 -113 82q0 39 31.5 62t86.5 23q113 0 113 -81zM366 774q0 37 -38 37q-40 0 -40 -37
q0 -36 40 -36q38 0 38 36z" />
    <glyph glyph-name="uring" unicode="&#x16f;" horiz-adv-x="546" 
d="M481 0h-105l-10 53q-74 -64 -150 -64q-78 0 -116.5 54t-38.5 173q0 25 2 124.5t2 160.5h129q0 -56 -2 -147t-2 -116q0 -82 15.5 -114t51.5 -32q40 0 95 41v368h129v-501zM397 646q0 -48 -33 -75.5t-90 -27.5q-118 0 -118 99q0 47 33 74.5t90 27.5q118 0 118 -98zM317 643
q0 43 -41 43q-40 0 -40 -43q0 -41 40 -41q41 0 41 41z" />
    <glyph glyph-name="Uhungarumlaut" unicode="&#x170;" horiz-adv-x="652" 
d="M579 675v-431q0 -133 -70.5 -194t-193.5 -61t-182.5 56.5t-59.5 183.5v446h135v-432q0 -85 28 -120t91 -35q60 0 90 33.5t30 113.5v440h132zM627 805l-195 -92l-53 41l174 110zM397 815l-171 -103l-56 34l148 122z" />
    <glyph glyph-name="uhungarumlaut" unicode="&#x171;" horiz-adv-x="546" 
d="M481 0h-105l-10 53q-74 -64 -150 -64q-78 0 -116.5 54t-38.5 173q0 25 2 124.5t2 160.5h129q0 -56 -2 -147t-2 -116q0 -82 15.5 -114t51.5 -32q40 0 95 41v368h129v-501zM528 671l-154 -116l-64 35l129 131zM324 677l-143 -124l-63 35l117 138z" />
    <glyph glyph-name="Uogonek" unicode="&#x172;" horiz-adv-x="652" 
d="M480 -100l18 -56q-44 -26 -97 -26q-97 0 -97 73q0 54 51 103q-16 -5 -40 -5q-125 0 -183.5 56.5t-58.5 183.5v446h135v-432q0 -85 28 -120t91 -35q60 0 90 33.5t30 113.5v440h132v-431q0 -124 -62 -186q-10 -10 -26.5 -26t-24.5 -24t-19.5 -20.5t-17 -20t-11.5 -17
t-8.5 -18t-2.5 -17.5q0 -27 31 -27q21 0 42 12z" />
    <glyph glyph-name="uogonek" unicode="&#x173;" horiz-adv-x="546" 
d="M481 501v-501q-63 -41 -63 -85q0 -27 30 -27q22 0 43 12l17 -56q-43 -26 -96 -26q-98 0 -98 73q0 58 61 112l-9 50q-74 -64 -150 -64q-77 0 -116 53.5t-39 173.5q0 25 2 124.5t2 160.5h129q0 -56 -2 -147t-2 -116q0 -82 15.5 -114t51.5 -32q40 0 95 41v368h129z" />
    <glyph glyph-name="Wcircumflex" unicode="&#x174;" horiz-adv-x="861" 
d="M720 675h126q-68 -363 -160 -675h-148l-88 363l-21 106h-2l-20 -106l-82 -363h-148q-90 301 -162 675h145q12 -73 28.5 -152t39 -183t35.5 -170h2l16 90l95 415h131l99 -413l18 -92h2q66 322 94 505zM442 858l152 -85l-34 -54l-120 52l-119 -52l-32 52z" />
    <glyph glyph-name="wcircumflex" unicode="&#x175;" horiz-adv-x="760" 
d="M616 501h125q-28 -226 -127 -501h-152l-71 282l-14 75h-2l-12 -76l-62 -281h-155l-130 501h137l65 -277l18 -95h2l14 88l59 284h149l72 -291l15 -81h2q53 214 67 372zM532 608l-40 -52l-107 72l-107 -72l-38 51l149 124z" />
    <glyph glyph-name="Ycircumflex" unicode="&#x176;" horiz-adv-x="489" 
d="M360 675h134q-85 -238 -182 -393v-282h-135v282q-105 175 -182 393h148q55 -161 110 -269h2q54 103 105 269zM250 858l152 -85l-34 -54l-120 52l-119 -52l-32 52z" />
    <glyph glyph-name="ycircumflex" unicode="&#x177;" horiz-adv-x="481" 
d="M332 501h133q-23 -153 -57.5 -273t-72 -195t-82 -124t-85.5 -68.5t-85 -19.5q-37 0 -76 21v74q23 -3 50 -3q46 0 72 22q29 25 29 60t-36 147l-111 359h138l73 -256q25 -83 25 -149h3q27 76 51 191.5t31 213.5zM393 608l-40 -52l-107 72l-107 -72l-38 51l149 124z" />
    <glyph glyph-name="Ydieresis" unicode="&#x178;" horiz-adv-x="489" 
d="M360 675h134q-85 -238 -182 -393v-282h-135v282q-105 175 -182 393h148q55 -161 110 -269h2q54 103 105 269zM415 782q0 -31 -14 -43.5t-48 -12.5q-35 0 -48.5 12t-13.5 44q0 31 13.5 43.5t48.5 12.5t48.5 -12t13.5 -44zM209 782q0 -31 -13.5 -43.5t-47.5 -12.5
q-35 0 -48.5 12t-13.5 44q0 31 13.5 43.5t48.5 12.5t48 -12t13 -44z" />
    <glyph glyph-name="Zacute" unicode="&#x179;" horiz-adv-x="490" 
d="M458 0h-427v92l255 477h-243l3 106h402v-90l-254 -477h267zM190 775l180 83l58 -78l-199 -61z" />
    <glyph glyph-name="zacute" unicode="&#x17a;" horiz-adv-x="400" 
d="M370 97l-4 -97h-336v81l180 324h-173l5 96h314v-80l-180 -324h194zM371 676l-157 -121l-64 35l130 135z" />
    <glyph glyph-name="Zdotaccent" unicode="&#x17b;" horiz-adv-x="490" 
d="M458 0h-427v92l255 477h-243l3 106h402v-90l-254 -477h267zM318 785q0 -33 -15 -45.5t-56 -12.5q-43 0 -57 11.5t-14 46.5q0 33 15 45.5t56 12.5q43 0 57 -11.5t14 -46.5z" />
    <glyph glyph-name="zdotaccent" unicode="&#x17c;" horiz-adv-x="400" 
d="M370 97l-4 -97h-336v81l180 324h-173l5 96h314v-80l-180 -324h194zM279 636q0 -37 -15.5 -50.5t-60.5 -13.5q-46 0 -61.5 13.5t-15.5 50.5t15.5 50.5t61.5 13.5t61 -13.5t15 -50.5z" />
    <glyph glyph-name="Zcaron" unicode="&#x17d;" horiz-adv-x="490" 
d="M458 0h-427v92l255 477h-243l3 106h402v-90l-254 -477h267zM249 719l-152 86l33 53l120 -52l119 52l33 -52z" />
    <glyph glyph-name="zcaron" unicode="&#x17e;" horiz-adv-x="400" 
d="M370 97l-4 -97h-336v81l180 324h-173l5 96h314v-80l-180 -324h194zM348 679l-149 -124l-143 123l39 52l107 -72l107 72z" />
    <glyph glyph-name="longs" unicode="&#x17f;" horiz-adv-x="271" 
d="M310 693l-17 -76q-30 10 -52 10q-47 0 -47 -63v-564h-129v561q0 159 132 159q57 0 113 -27z" />
    <glyph glyph-name="florin" unicode="&#x192;" 
d="M476 650l-19 -71q-33 13 -67 13q-33 0 -48 -17.5t-19 -56.5l-14 -135h135v-85h-142l-24 -247q-15 -162 -160 -162q-66 0 -123 33l19 71q33 -13 67 -13q33 0 48.5 17t19.5 57l25 244h-124v85h130l14 138q13 162 159 162q64 0 123 -33z" />
    <glyph glyph-name="Gcaron" unicode="&#x1e6;" horiz-adv-x="576" 
d="M515 388v-319q-95 -80 -221 -80q-253 0 -253 335q0 176 75.5 269t201.5 93q118 0 192 -101l-59 -56q-66 50 -126 50q-68 0 -105.5 -57.5t-37.5 -175.5q0 -249 125 -249q45 0 75 22v170h-80v99h213zM310 719l-152 86l33 53l120 -52l119 52l33 -52z" />
    <glyph glyph-name="gcaron" unicode="&#x1e7;" horiz-adv-x="534" 
d="M469 491v-472q0 -112 -57 -156.5t-157 -44.5q-80 0 -178 40l10 72q102 -17 154 -17t75.5 19t23.5 66v59q-67 -50 -127 -50q-83 0 -129.5 66.5t-46.5 167.5q0 135 70.5 203t188.5 68q81 0 173 -21zM340 145v265q-30 10 -62 10q-49 0 -79 -41.5t-30 -118.5q0 -76 22 -116.5
t61 -40.5t88 42zM413 679l-149 -124l-143 123l39 52l107 -72l107 72z" />
    <glyph glyph-name="Aringacute" unicode="&#x1fa;" horiz-adv-x="566" 
d="M557 0h-145q-22 102 -30 133h-215l-28 -133h-129q80 361 183 675h177q107 -326 187 -675zM187 234h175q-41 161 -88 322h-3q-43 -152 -84 -322zM390 747q0 -27 -30 -43.5t-80 -16.5q-105 0 -105 55q0 27 29.5 43t80.5 16q105 0 105 -54zM316 745q0 23 -34 23t-34 -25
q0 -23 34 -23t34 25zM213 846l158 39l27 -45l-170 -27z" />
    <glyph glyph-name="aringacute" unicode="&#x1fb;" horiz-adv-x="510" 
d="M445 0h-99l-9 51q-72 -62 -153 -62q-70 0 -112.5 40t-42.5 108q0 168 257 168h32v38q0 76 -93 76q-68 0 -152 -30l-17 78q102 45 201 45q94 0 141 -41.5t47 -114.5v-356zM318 124v102h-38q-69 0 -97 -20t-28 -58q0 -68 68 -68q46 0 95 44zM364 632q0 -40 -30 -62.5
t-83 -22.5q-108 0 -108 82q0 39 30.5 62t82.5 23q108 0 108 -82zM291 630q0 37 -38 37q-37 0 -37 -37q0 -36 37 -36q38 0 38 36zM203 774l103 111l89 -42l-129 -97z" />
    <glyph glyph-name="AEacute" unicode="&#x1fc;" horiz-adv-x="735" 
d="M688 0h-353v133h-177q-27 -70 -46 -133h-133q130 355 281 675h424v-103h-214v-175h178v-99h-178v-194h218v-104zM335 234v338h-2q-78 -175 -142 -338h144zM403 775l180 83l58 -78l-199 -61z" />
    <glyph glyph-name="aeacute" unicode="&#x1fd;" horiz-adv-x="783" 
d="M718 116l18 -74q-101 -53 -206 -53q-128 0 -174 87q-69 -87 -172 -87q-70 0 -112.5 40t-42.5 108q0 168 257 168h32v38q0 76 -93 76q-68 0 -152 -30l-17 78q102 45 201 45q101 0 140 -61q56 61 143 61q216 0 199 -287h-296v-7q0 -131 112 -131q73 0 163 29zM318 226h-38
q-69 0 -97 -20t-28 -58q0 -68 68 -68q59 0 95 60v86zM444 305h171v2q0 119 -82 119q-41 0 -63.5 -32.5t-25.5 -88.5zM559 676l-157 -121l-64 35l130 135z" />
    <glyph glyph-name="Oslashacute" unicode="&#x1fe;" horiz-adv-x="641" 
d="M600 350q0 -183 -75.5 -272t-211.5 -89q-84 0 -138 32l-60 -101l-69 37l65 109q-70 81 -70 259q0 183 75.5 272t210.5 89q84 0 139 -32l60 101l69 -37l-65 -108q70 -82 70 -260zM466 328q0 95 -17 149l-216 -360q34 -31 91 -31q69 0 105.5 54.5t36.5 187.5zM317 590
q-69 0 -106 -55t-37 -188q0 -91 18 -148l215 360q-34 31 -90 31zM262 786l180 83l58 -78l-199 -61z" />
    <glyph glyph-name="oslashacute" unicode="&#x1ff;" horiz-adv-x="538" 
d="M494 543l-53 -87q60 -62 60 -196q0 -135 -63 -203t-178 -68q-53 0 -95 17l-52 -85l-69 38l53 86q-60 63 -60 196q0 136 63 203.5t178 67.5q61 0 95 -17l52 85zM367 342l-151 -252q19 -13 54 -13q108 0 108 161q0 70 -11 104zM172 158l150 253q-20 13 -54 13
q-108 0 -108 -161q0 -65 12 -105zM430 676l-157 -121l-64 35l130 135z" />
    <glyph glyph-name="Scommaaccent" unicode="&#x218;" horiz-adv-x="496" 
d="M471 192q0 -89 -63 -145.5t-174 -56.5q-107 0 -203 64l32 71q88 -36 146 -36q53 0 82.5 22.5t29.5 64.5q0 36 -29 62.5t-70.5 46t-83 43t-70.5 65.5t-29 101q0 86 60.5 138.5t155.5 52.5q98 0 181 -55l-32 -70q-68 27 -124 27q-49 0 -73.5 -21t-24.5 -56q0 -36 30 -63
t72 -47t84.5 -43.5t72.5 -65t30 -99.5zM250 -34q53 0 53 -51q0 -88 -140 -96l-15 42q55 15 55 38q0 4 -3.5 11t-3.5 16q0 18 14 29t40 11z" />
    <glyph glyph-name="scommaaccent" unicode="&#x219;" horiz-adv-x="416" 
d="M28 31l11 67q72 -17 124 -17q89 0 89 57q0 25 -23 41t-55.5 28t-65 27t-55.5 47.5t-23 80.5q0 67 50.5 108.5t132.5 41.5q69 0 140 -37l-14 -66q-63 15 -99 15q-37 0 -56 -14.5t-19 -37.5q0 -25 23 -41t55.5 -27.5t65.5 -27t56 -48t23 -80.5q0 -70 -54 -114t-148 -44
q-79 0 -158 41zM203 -34q53 0 53 -51q0 -88 -140 -96l-15 42q55 15 55 38q0 4 -3.5 11t-3.5 16q0 18 14 29t40 11z" />
    <glyph glyph-name="Tcommaaccent" unicode="&#x21a;" horiz-adv-x="467" 
d="M452 571h-152v-571h-135v571h-151v104h438v-104zM234 -34q53 0 53 -51q0 -88 -140 -96l-15 42q55 15 55 38q0 4 -3.5 11t-3.5 16q0 18 14 29t40 11z" />
    <glyph glyph-name="tcommaaccent" unicode="&#x21b;" horiz-adv-x="348" 
d="M318 97l10 -74q-65 -33 -126 -33q-69 0 -98 29.5t-29 101.5v290h-63v90h68q16 62 30 146h94v-146h111v-90h-111v-258q0 -38 10 -52.5t35 -14.5q30 0 69 11zM205 -34q53 0 53 -51q0 -88 -140 -96l-15 42q55 15 55 38q0 4 -3.5 11t-3.5 16q0 18 14 29t40 11z" />
    <glyph glyph-name="dotlessj" unicode="&#x237;" horiz-adv-x="259" 
d="M194 501v-456q0 -72 -25.5 -125t-83.5 -102l-84 38q64 77 64 164v481h129z" />
    <glyph glyph-name="apostrophe" unicode="&#x2bc;" horiz-adv-x="216" 
d="M53 509l-41 42q62 47 62 82q0 11 -13.5 26t-13.5 40q0 39 12.5 52.5t51.5 13.5q36 0 47.5 -14.5t11.5 -51.5q0 -59 -27.5 -104t-89.5 -86z" />
    <glyph glyph-name="circumflex" unicode="&#x2c6;" horiz-adv-x="390" 
d="M341 608l-40 -52l-107 72l-107 -72l-38 51l149 124z" />
    <glyph glyph-name="caron" unicode="&#x2c7;" horiz-adv-x="390" 
d="M341 679l-149 -124l-143 123l39 52l107 -72l107 72z" />
    <glyph glyph-name="breve" unicode="&#x2d8;" horiz-adv-x="391" 
d="M264 722h79q0 -80 -39 -122t-109 -42q-146 0 -146 164h79q-1 -41 15.5 -58.5t51.5 -17.5t52 17.5t17 58.5z" />
    <glyph glyph-name="dotaccent" unicode="&#x2d9;" horiz-adv-x="251" 
d="M202 636q0 -37 -15.5 -50.5t-60.5 -13.5q-46 0 -61.5 13.5t-15.5 50.5t15.5 50.5t61.5 13.5t61 -13.5t15 -50.5z" />
    <glyph glyph-name="ring" unicode="&#x2da;" horiz-adv-x="339" 
d="M290 646q0 -48 -33 -75.5t-90 -27.5q-118 0 -118 99q0 47 33 74.5t90 27.5q118 0 118 -98zM210 643q0 43 -41 43q-40 0 -40 -43q0 -41 40 -41q41 0 41 41z" />
    <glyph glyph-name="ogonek" unicode="&#x2db;" horiz-adv-x="291" 
d="M225 -100l17 -56q-43 -26 -96 -26q-97 0 -97 73q0 57 56 109h107q-60 -43 -60 -85q0 -27 31 -27q21 0 42 12z" />
    <glyph glyph-name="tilde" unicode="&#x2dc;" horiz-adv-x="437" 
d="M338 697l51 -37q-24 -47 -51.5 -69t-67.5 -22q-36 0 -70 24.5t-46 24.5q-14 0 -24.5 -9.5t-30.5 -37.5l-50 36q23 47 50.5 69t67.5 22q36 0 70 -24t46 -24q14 0 25 9.5t30 37.5z" />
    <glyph glyph-name="hungarumlaut" unicode="&#x2dd;" horiz-adv-x="508" 
d="M459 671l-154 -116l-64 35l129 131zM255 677l-143 -124l-63 35l117 138z" />
    <glyph glyph-name="uni0312" unicode="&#x312;" horiz-adv-x="260" 
d="M198 717l14 -43q-31 -6 -47.5 -18.5t-16.5 -26.5q0 -4 3.5 -10.5t3.5 -16.5q0 -41 -54 -41q-52 0 -52 52q0 48 37.5 75t111.5 29z" />
    <glyph glyph-name="uni0315" unicode="&#x315;" horiz-adv-x="222" 
d="M174 740l-61 -184l-64 11l33 191z" />
    <glyph glyph-name="uni0326" unicode="&#x326;" horiz-adv-x="253" 
d="M151 -34q53 0 53 -51q0 -88 -140 -96l-15 42q55 15 55 38q0 4 -3.5 11t-3.5 16q0 18 14 29t40 11z" />
    <glyph glyph-name="Delta" unicode="&#x2206;" horiz-adv-x="552" 
d="M530 0h-508v92q72 301 164 583h177q94 -276 167 -583v-92zM150 101h234q-51 242 -118 455h-2q-74 -255 -114 -455z" />
    <glyph glyph-name="Delta" unicode="&#x394;" horiz-adv-x="552" 
d="M530 0h-508v92q72 301 164 583h177q94 -276 167 -583v-92zM150 101h234q-51 242 -118 455h-2q-74 -255 -114 -455z" />
    <glyph glyph-name="Omega" unicode="&#x2126;" horiz-adv-x="652" 
d="M625 0h-251v84q90 62 90 258q0 130 -35.5 185.5t-104.5 55.5q-135 0 -135 -222q0 -118 21.5 -183t66.5 -94v-84h-249v88h120q-101 71 -101 250q0 75 16.5 137t50 110t90 74.5t130.5 26.5q272 0 272 -321q0 -93 -29.5 -166t-82.5 -111h131v-88z" />
    <glyph glyph-name="Omega" unicode="&#x3a9;" horiz-adv-x="652" 
d="M625 0h-251v84q90 62 90 258q0 130 -35.5 185.5t-104.5 55.5q-135 0 -135 -222q0 -118 21.5 -183t66.5 -94v-84h-249v88h120q-101 71 -101 250q0 75 16.5 137t50 110t90 74.5t130.5 26.5q272 0 272 -321q0 -93 -29.5 -166t-82.5 -111h131v-88z" />
    <glyph glyph-name="pi" unicode="&#x3c0;" horiz-adv-x="611" 
d="M578 405h-103q0 -119 1 -174t7 -93t15 -45t28 -7q27 0 54 9l11 -75q-58 -30 -116 -30q-87 0 -106 64.5t-19 350.5h-140q0 -227 -13 -405h-132q21 279 21 405h-74v96h566v-96z" />
    <glyph glyph-name="uni1E02" unicode="&#x1e02;" horiz-adv-x="566" 
d="M74 0v675h221q104 0 156.5 -43.5t52.5 -116.5q0 -106 -93 -145q58 -11 93 -53.5t35 -102.5q0 -96 -70 -156t-211 -60q-26 0 -88.5 1t-95.5 1zM207 581v-183h52q55 0 81 28t26 69q0 86 -94 86h-65zM207 306v-209q30 -4 69 -4q119 0 119 111q0 102 -126 102h-62zM341 785
q0 -33 -15 -45.5t-56 -12.5q-43 0 -57 11.5t-14 46.5q0 33 15 45.5t56 12.5q43 0 57 -11.5t14 -46.5z" />
    <glyph glyph-name="uni1E03" unicode="&#x1e03;" horiz-adv-x="534" 
d="M65 9v700h129v-248q62 51 125 51q86 0 132 -68.5t46 -173.5q0 -144 -70 -212.5t-193 -68.5q-82 0 -169 20zM194 371v-281q25 -9 59 -9q51 0 81.5 43t30.5 128q0 77 -21.5 119t-60.5 42q-41 0 -89 -42zM204 813q0 -33 -15.5 -45t-58.5 -12q-44 0 -58 11.5t-14 45.5t15 46
t58 12t58 -11.5t15 -46.5z" />
    <glyph glyph-name="uni1E0A" unicode="&#x1e0a;" horiz-adv-x="596" 
d="M74 0v675q35 0 97 1t91 1q154 0 223.5 -86.5t69.5 -234.5q0 -174 -78.5 -266.5t-238.5 -92.5q-11 0 -164 3zM209 575v-473q32 -2 47 -2q157 0 157 241q0 235 -158 235q-31 0 -46 -1zM346 785q0 -33 -15 -45.5t-56 -12.5q-43 0 -57 11.5t-14 46.5q0 33 15 45.5t56 12.5
q43 0 57 -11.5t14 -46.5z" />
    <glyph glyph-name="uni1E0B" unicode="&#x1e0b;" horiz-adv-x="534" 
d="M469 0h-105l-10 51q-72 -62 -141 -62q-84 0 -130 68t-46 173q0 144 68 213t179 69q17 0 56 -3v192h129v-701zM340 130v280q-30 10 -61 10q-51 0 -80.5 -43t-29.5 -129q0 -78 21.5 -119t60.5 -41t89 42zM478 813q0 -33 -15.5 -45t-58.5 -12q-44 0 -58 11.5t-14 45.5t15 46
t58 12t58 -11.5t15 -46.5z" />
    <glyph glyph-name="uni1E1E" unicode="&#x1e1e;" horiz-adv-x="454" 
d="M419 572h-210v-186h189v-101h-189v-285h-135v675h345v-103zM323 785q0 -33 -15 -45.5t-56 -12.5q-43 0 -57 11.5t-14 46.5q0 33 15 45.5t56 12.5q43 0 57 -11.5t14 -46.5z" />
    <glyph glyph-name="uni1E1F" unicode="&#x1e1f;" horiz-adv-x="304" 
d="M335 684l-18 -73q-36 12 -59 12q-54 0 -54 -63v-59h90v-90h-90v-411h-128v411h-64v90h64v49q0 159 140 159q61 0 119 -25zM272 813q0 -33 -15.5 -45t-58.5 -12q-44 0 -58 11.5t-14 45.5t15 46t58 12t58 -11.5t15 -46.5z" />
    <glyph glyph-name="uni1E40" unicode="&#x1e40;" horiz-adv-x="848" 
d="M789 0h-142q-5 272 -25 511h-2l-149 -511h-114l-149 511h-1q-17 -205 -20 -511h-127q9 342 48 675h178l140 -463h1l142 463h168q40 -345 52 -675zM495 785q0 -33 -15 -45.5t-56 -12.5q-43 0 -57 11.5t-14 46.5q0 33 15 45.5t56 12.5q43 0 57 -11.5t14 -46.5z" />
    <glyph glyph-name="uni1E41" unicode="&#x1e41;" horiz-adv-x="821" 
d="M757 0h-129q0 56 1.5 147t1.5 115q0 85 -14.5 116t-48.5 31q-40 0 -97 -45q5 -27 5 -75v-289h-128v262q0 85 -14.5 116t-47.5 31q-38 0 -92 -41v-368h-129v501h106l9 -53q74 64 148 64q87 0 122 -72q82 72 160 72q75 0 112.5 -53.5t37.5 -172.5q0 -25 -1.5 -125
t-1.5 -161zM487 636q0 -37 -15.5 -50.5t-60.5 -13.5q-46 0 -61.5 13.5t-15.5 50.5t15.5 50.5t61.5 13.5t61 -13.5t15 -50.5z" />
    <glyph glyph-name="uni1E56" unicode="&#x1e56;" horiz-adv-x="541" 
d="M209 0h-135v675q31 0 96 1t100 1q250 0 250 -212q0 -110 -67.5 -174t-215.5 -64h-28v-227zM209 578v-251h41q129 0 129 126q0 63 -30 94t-99 31h-41zM341 785q0 -33 -15 -45.5t-56 -12.5q-43 0 -57 11.5t-14 46.5q0 33 15 45.5t56 12.5q43 0 57 -11.5t14 -46.5z" />
    <glyph glyph-name="uni1E57" unicode="&#x1e57;" horiz-adv-x="534" 
d="M194 -173h-129v674h105l10 -51q69 62 139 62q86 0 132 -68t46 -173q0 -142 -68 -212t-182 -70q-29 0 -53 3v-165zM194 371v-280q24 -10 60 -10q51 0 81 43t30 129q0 77 -21.5 118.5t-60.5 41.5q-41 0 -89 -42zM344 636q0 -37 -15.5 -50.5t-60.5 -13.5q-46 0 -61.5 13.5
t-15.5 50.5t15.5 50.5t61.5 13.5t61 -13.5t15 -50.5z" />
    <glyph glyph-name="uni1E60" unicode="&#x1e60;" horiz-adv-x="496" 
d="M471 192q0 -89 -63 -145.5t-174 -56.5q-107 0 -203 64l32 71q88 -36 146 -36q53 0 82.5 22.5t29.5 64.5q0 36 -29 62.5t-70.5 46t-83 43t-70.5 65.5t-29 101q0 86 60.5 138.5t155.5 52.5q98 0 181 -55l-32 -70q-68 27 -124 27q-49 0 -73.5 -21t-24.5 -56q0 -36 30 -63
t72 -47t84.5 -43.5t72.5 -65t30 -99.5zM319 791q0 -33 -15 -45.5t-56 -12.5q-43 0 -57 11.5t-14 46.5q0 33 15 45.5t56 12.5q43 0 57 -11.5t14 -46.5z" />
    <glyph glyph-name="uni1E61" unicode="&#x1e61;" horiz-adv-x="416" 
d="M28 31l11 67q72 -17 124 -17q89 0 89 57q0 25 -23 41t-55.5 28t-65 27t-55.5 47.5t-23 80.5q0 67 50.5 108.5t132.5 41.5q69 0 140 -37l-14 -66q-63 15 -99 15q-37 0 -56 -14.5t-19 -37.5q0 -25 23 -41t55.5 -27.5t65.5 -27t56 -48t23 -80.5q0 -70 -54 -114t-148 -44
q-79 0 -158 41zM284 639q0 -37 -15.5 -50.5t-60.5 -13.5q-46 0 -61.5 13.5t-15.5 50.5t15.5 50.5t61.5 13.5t61 -13.5t15 -50.5z" />
    <glyph glyph-name="uni1E6A" unicode="&#x1e6a;" horiz-adv-x="467" 
d="M452 571h-152v-571h-135v571h-151v104h438v-104zM304 785q0 -33 -15 -45.5t-56 -12.5q-43 0 -57 11.5t-14 46.5q0 33 15 45.5t56 12.5q43 0 57 -11.5t14 -46.5z" />
    <glyph glyph-name="uni1E6B" unicode="&#x1e6b;" horiz-adv-x="348" 
d="M318 97l10 -74q-65 -33 -126 -33q-69 0 -98 29.5t-29 101.5v290h-63v90h68q16 62 30 146h94v-146h111v-90h-111v-258q0 -38 10 -52.5t35 -14.5q30 0 69 11zM236 762q0 -37 -15.5 -50.5t-60.5 -13.5q-46 0 -61.5 13.5t-15.5 50.5t15.5 50.5t61.5 13.5t61 -13.5t15 -50.5z
" />
    <glyph glyph-name="Wgrave" unicode="&#x1e80;" horiz-adv-x="861" 
d="M720 675h126q-68 -363 -160 -675h-148l-88 363l-21 106h-2l-20 -106l-82 -363h-148q-90 301 -162 675h145q12 -73 28.5 -152t39 -183t35.5 -170h2l16 90l95 415h131l99 -413l18 -92h2q66 322 94 505zM527 775l-39 -56l-199 61l58 78z" />
    <glyph glyph-name="wgrave" unicode="&#x1e81;" horiz-adv-x="760" 
d="M616 501h125q-28 -226 -127 -501h-152l-71 282l-14 75h-2l-12 -76l-62 -281h-155l-130 501h137l65 -277l18 -95h2l14 88l59 284h149l72 -291l15 -81h2q53 214 67 372zM463 590l-65 -35l-156 121l90 49z" />
    <glyph glyph-name="Wacute" unicode="&#x1e82;" horiz-adv-x="861" 
d="M720 675h126q-68 -363 -160 -675h-148l-88 363l-21 106h-2l-20 -106l-82 -363h-148q-90 301 -162 675h145q12 -73 28.5 -152t39 -183t35.5 -170h2l16 90l95 415h131l99 -413l18 -92h2q66 322 94 505zM352 775l180 83l58 -78l-199 -61z" />
    <glyph glyph-name="wacute" unicode="&#x1e83;" horiz-adv-x="760" 
d="M616 501h125q-28 -226 -127 -501h-152l-71 282l-14 75h-2l-12 -76l-62 -281h-155l-130 501h137l65 -277l18 -95h2l14 88l59 284h149l72 -291l15 -81h2q53 214 67 372zM519 676l-157 -121l-64 35l130 135z" />
    <glyph glyph-name="Wdieresis" unicode="&#x1e84;" horiz-adv-x="861" 
d="M720 675h126q-68 -363 -160 -675h-148l-88 363l-21 106h-2l-20 -106l-82 -363h-148q-90 301 -162 675h145q12 -73 28.5 -152t39 -183t35.5 -170h2l16 90l95 415h131l99 -413l18 -92h2q66 322 94 505zM607 782q0 -31 -14 -43.5t-48 -12.5q-35 0 -48.5 12t-13.5 44
q0 31 13.5 43.5t48.5 12.5t48.5 -12t13.5 -44zM401 782q0 -31 -13.5 -43.5t-47.5 -12.5q-35 0 -48.5 12t-13.5 44q0 31 13.5 43.5t48.5 12.5t48 -12t13 -44z" />
    <glyph glyph-name="wdieresis" unicode="&#x1e85;" horiz-adv-x="760" 
d="M616 501h125q-28 -226 -127 -501h-152l-71 282l-14 75h-2l-12 -76l-62 -281h-155l-130 501h137l65 -277l18 -95h2l14 88l59 284h149l72 -291l15 -81h2q53 214 67 372zM549 634q0 -32 -13.5 -45t-48.5 -13t-48.5 12t-13.5 46q0 33 13.5 46t48.5 13q36 0 49 -12.5t13 -46.5
zM349 634q0 -33 -13 -45.5t-48 -12.5t-48.5 12t-13.5 46q0 33 13.5 46t48.5 13t48 -12.5t13 -46.5z" />
    <glyph glyph-name="Ygrave" unicode="&#x1ef2;" horiz-adv-x="489" 
d="M360 675h134q-85 -238 -182 -393v-282h-135v282q-105 175 -182 393h148q55 -161 110 -269h2q54 103 105 269zM319 775l-39 -56l-199 61l58 78z" />
    <glyph glyph-name="ygrave" unicode="&#x1ef3;" horiz-adv-x="481" 
d="M332 501h133q-23 -153 -57.5 -273t-72 -195t-82 -124t-85.5 -68.5t-85 -19.5q-37 0 -76 21v74q23 -3 50 -3q46 0 72 22q29 25 29 60t-36 147l-111 359h138l73 -256q25 -83 25 -149h3q27 76 51 191.5t31 213.5zM323 590l-65 -35l-156 121l90 49z" />
    <glyph glyph-name="endash" unicode="&#x2013;" 
d="M456 253h-411v92h411v-92z" />
    <glyph glyph-name="emdash" unicode="&#x2014;" horiz-adv-x="1000" 
d="M871 253h-742v92h742v-92z" />
    <glyph glyph-name="uni2015" unicode="&#x2015;" horiz-adv-x="1000" 
d="M871 253h-742v92h742v-92z" />
    <glyph glyph-name="quoteleft" unicode="&#x2018;" horiz-adv-x="281" 
d="M196 795l49 -49q-70 -56 -70 -93q0 -12 16.5 -30t16.5 -47q0 -45 -15 -61.5t-62 -16.5q-43 0 -57 16.5t-14 60.5q0 68 32.5 120.5t103.5 99.5z" />
    <glyph glyph-name="quoteright" unicode="&#x2019;" horiz-adv-x="286" 
d="M90 468l-50 49q70 54 70 93q0 12 -16 30t-16 47q0 46 14.5 62t61.5 16q43 0 57 -17t14 -61q0 -68 -32 -120t-103 -99z" />
    <glyph glyph-name="quotesinglbase" unicode="&#x201a;" horiz-adv-x="302" 
d="M89 -161l-49 48q70 56 70 93q0 12 -16.5 30.5t-16.5 47.5q0 45 15 61.5t62 16.5q43 0 56.5 -17t13.5 -61q0 -68 -32 -120t-103 -99z" />
    <glyph glyph-name="quotedblleft" unicode="&#x201c;" horiz-adv-x="472" 
d="M390 788l46 -47q-66 -53 -66 -90q0 -12 15 -29.5t15 -45.5q0 -43 -14 -59t-58 -16q-40 0 -52.5 16t-12.5 59q0 65 30.5 115.5t96.5 96.5zM193 792l46 -46q-72 -58 -72 -95q0 -12 15 -29.5t15 -45.5q0 -43 -14 -59t-57 -16q-40 0 -53 16t-13 59q0 66 31 117t102 99z" />
    <glyph glyph-name="quotedblright" unicode="&#x201d;" horiz-adv-x="477" 
d="M284 470l-46 46q72 58 72 95q0 12 -15 29.5t-15 45.5q0 43 14 59t57 16q40 0 52.5 -16t12.5 -59q0 -66 -30.5 -117t-101.5 -99zM87 474l-47 47q67 53 67 90q0 12 -15 29.5t-15 45.5q0 43 14 59t57 16q40 0 52.5 -16t12.5 -59q0 -65 -30 -115.5t-96 -96.5z" />
    <glyph glyph-name="quotedblbase" unicode="&#x201e;" horiz-adv-x="493" 
d="M283 -160l-46 47q72 58 72 95q0 12 -15 29t-15 45q0 44 14 60t57 16q40 0 52.5 -16t12.5 -59q0 -66 -30.5 -117t-101.5 -100zM86 -155l-46 46q66 54 66 91q0 12 -15 29t-15 45q0 44 14 60t57 16q40 0 53 -16t13 -59q0 -65 -30.5 -116t-96.5 -96z" />
    <glyph glyph-name="dagger" unicode="&#x2020;" horiz-adv-x="387" 
d="M356 501h-102v-305h-121v305h-103v82h103v126h121v-126h102v-82z" />
    <glyph glyph-name="daggerdbl" unicode="&#x2021;" horiz-adv-x="387" 
d="M356 136h-103v-136h-119v136h-104v82h104v272h-104v83h104v136h119v-136h103v-83h-103v-272h103v-82z" />
    <glyph glyph-name="bullet" unicode="&#x2022;" 
d="M423 303q0 -72 -50.5 -122.5t-122.5 -50.5t-122.5 50.5t-50.5 122.5t50.5 122.5t122.5 50.5t122.5 -50.5t50.5 -122.5z" />
    <glyph glyph-name="ellipsis" unicode="&#x2026;" horiz-adv-x="777" 
d="M690 62q0 -43 -14 -57.5t-58 -14.5t-58.5 14.5t-14.5 56.5q0 44 14.5 59t58.5 15t58 -15t14 -58zM457 62q0 -42 -14.5 -57t-58.5 -15t-58 14.5t-14 56.5q0 44 14.5 59t58.5 15q43 0 57.5 -15t14.5 -58zM223 62q0 -43 -14 -57.5t-58 -14.5t-58.5 14.5t-14.5 56.5
q0 44 14.5 59t58.5 15t58 -15t14 -58z" />
    <glyph glyph-name="perthousand" unicode="&#x2030;" horiz-adv-x="1045" 
d="M347 525q0 -73 -40.5 -116t-114.5 -43q-78 0 -111.5 40.5t-33.5 118.5q0 75 40.5 118t114.5 43q145 0 145 -161zM251 524q0 93 -55 93q-53 0 -53 -91t54 -91t54 89zM635 658l-499 -679l-66 38l499 679zM658 148q0 -73 -40.5 -116t-114.5 -43q-78 0 -111.5 40.5
t-33.5 118.5q0 75 40.5 118t114.5 43q145 0 145 -161zM562 147q0 93 -54 93t-54 -91t54 -91t54 89zM998 148q0 -73 -40.5 -116t-114.5 -43q-78 0 -111.5 40.5t-33.5 118.5q0 75 40.5 118t114.5 43q145 0 145 -161zM902 147q0 93 -54 93t-54 -91t54 -91t54 89z" />
    <glyph glyph-name="guilsinglleft" unicode="&#x2039;" horiz-adv-x="307" 
d="M255 117l-87 -28l-133 204l133 203l87 -29l-93 -174z" />
    <glyph glyph-name="guilsinglright" unicode="&#x203a;" horiz-adv-x="308" 
d="M53 468l87 28l132 -203l-133 -204l-86 29l93 175z" />
    <glyph glyph-name="exclamdbl" unicode="&#x203c;" horiz-adv-x="645" 
d="M257 177h-114l-22 498h157zM279 61q0 -39 -16.5 -54t-62.5 -15t-62.5 14.5t-16.5 53.5t16.5 54t62.5 15t62.5 -14.5t16.5 -53.5zM543 177h-114l-22 498h157zM565 61q0 -39 -16.5 -54t-62.5 -15t-62.5 14.5t-16.5 53.5t16.5 54t62.5 15t62.5 -14.5t16.5 -53.5z" />
    <glyph glyph-name="fraction" unicode="&#x2044;" horiz-adv-x="88" 
d="M-275 -44l574 776l67 -37l-573 -776z" />
    <glyph glyph-name="zero.superior" unicode="&#x2070;" horiz-adv-x="399" 
d="M366 543q0 -100 -45.5 -149.5t-125.5 -49.5q-82 0 -123.5 45.5t-41.5 145.5q0 97 45.5 146.5t126.5 49.5q82 1 123 -43t41 -145zM253 536q0 73 -12.5 98t-42.5 25t-42.5 -26t-12.5 -94q0 -70 13 -96.5t42 -26.5q30 0 42.5 27t12.5 93z" />
    <glyph glyph-name="four.superior" unicode="&#x2074;" horiz-adv-x="361" 
d="M343 424h-45v-70h-106v70h-174v74q50 105 129 224h151v-222h45v-76zM192 500v158h-1q-48 -64 -94 -158h95z" />
    <glyph glyph-name="five.superior" unicode="&#x2075;" horiz-adv-x="357" 
d="M296 644h-142l-6 -74q32 4 49 4q131 0 131 -103q0 -61 -43.5 -94t-114.5 -33q-64 0 -139 25l7 55q51 -10 102 -10q74 0 74 51q0 24 -17 35t-57 11q-43 0 -92 -7l16 218h232v-78z" />
    <glyph glyph-name="six.superior" unicode="&#x2076;" horiz-adv-x="390" 
d="M343 708l-10 -54q-61 9 -98 9q-48 0 -67.5 -22.5t-21.5 -81.5q48 24 94 24q122 0 122 -103q0 -62 -44.5 -99t-117.5 -37q-80 0 -121 40t-41 142q0 205 179 205q64 0 126 -23zM254 472q0 50 -51 50q-26 0 -57 -14q0 -53 13.5 -75.5t43.5 -22.5q51 0 51 62z" />
    <glyph glyph-name="seven.superior" unicode="&#x2077;" horiz-adv-x="338" 
d="M317 645l-79 -138q-67 -113 -113 -164l-80 24l148 272h-169v83h293v-77z" />
    <glyph glyph-name="eight.superior" unicode="&#x2078;" horiz-adv-x="399" 
d="M30 441q0 59 78 93q-69 34 -69 92q0 48 42 77t122 29q76 0 116 -25t40 -68q0 -58 -70 -92q80 -32 80 -94q0 -51 -43.5 -80.5t-133.5 -29.5q-162 0 -162 98zM259 444q0 20 -19 33t-56 27q-45 -23 -45 -57q0 -43 63 -43q57 0 57 40zM146 632q0 -36 62 -57q44 22 44 55
q0 42 -55 42q-51 0 -51 -40z" />
    <glyph glyph-name="nine.superior" unicode="&#x2079;" horiz-adv-x="389" 
d="M40 369l11 53q68 -10 106 -10q47 0 66.5 22.5t22.5 81.5q-53 -24 -95 -24q-122 0 -122 104q0 62 44.5 98.5t117.5 36.5q80 0 121 -40t41 -142q0 -205 -179 -205q-63 0 -134 25zM245 567q0 53 -13.5 76t-43.5 23q-51 0 -51 -63q0 -49 51 -49q28 0 57 13z" />
    <glyph glyph-name="uni207A" unicode="&#x207a;" horiz-adv-x="331" 
d="M299 498h-87v-91h-92v91h-88v79h88v91h92v-91h87v-79z" />
    <glyph glyph-name="uni207B" unicode="&#x207b;" horiz-adv-x="331" 
d="M299 498h-267v79h267v-79z" />
    <glyph glyph-name="uni207C" unicode="&#x207c;" horiz-adv-x="331" 
d="M297 562h-263v72h263v-72zM297 441h-263v72h263v-72z" />
    <glyph glyph-name="parenleft.superior" unicode="&#x207d;" horiz-adv-x="219" 
d="M201 294l-76 -18q-86 114 -86 268q0 159 86 273l76 -21q-54 -120 -54 -250q0 -122 54 -252z" />
    <glyph glyph-name="parenright.superior" unicode="&#x207e;" horiz-adv-x="219" 
d="M93 276l-75 18q54 120 54 250q0 122 -54 252l75 21q86 -111 86 -268q0 -159 -86 -273z" />
    <glyph glyph-name="nsuperior" unicode="&#x207f;" horiz-adv-x="387" 
d="M348 536q0 -15 -1 -78.5t-1 -103.5h-106q0 37 0.5 97t0.5 78q0 43 -9 59.5t-29 16.5q-27 0 -54 -22v-229h-107v319h86l8 -35q50 42 104 42q57 0 82.5 -34t25.5 -110z" />
    <glyph glyph-name="zero.inferior" unicode="&#x2080;" horiz-adv-x="399" 
d="M366 125q0 -100 -45.5 -149.5t-125.5 -49.5q-82 0 -123.5 45.5t-41.5 145.5q0 97 45.5 146.5t126.5 49.5q82 1 123 -43t41 -145zM253 118q0 73 -12.5 98t-42.5 25t-42.5 -26t-12.5 -94q0 -70 13 -96.5t42 -26.5q30 0 42.5 27t12.5 93z" />
    <glyph glyph-name="one.inferior" unicode="&#x2081;" horiz-adv-x="344" 
d="M313 -64h-268v76h83v204l-73 -21l-15 62l113 49h85v-294h75v-76z" />
    <glyph glyph-name="two.inferior" unicode="&#x2082;" horiz-adv-x="360" 
d="M328 -64h-291v77q102 81 133.5 116.5t31.5 65.5q0 42 -53 42q-30 0 -98 -19l-14 65q72 30 142 30q59 0 99 -26t40 -79q0 -44 -36 -89t-124 -103h170v-80z" />
    <glyph glyph-name="three.inferior" unicode="&#x2083;" horiz-adv-x="357" 
d="M27 -48l8 55q60 -11 103 -11q76 0 76 48q0 24 -17 35.5t-57 11.5h-57v70h60q61 0 61 42q0 40 -58 40q-42 0 -92 -15l-15 60q66 25 131 25q73 0 109.5 -26t36.5 -70q0 -60 -67 -85q79 -16 79 -86q0 -58 -47 -89t-120 -31q-66 0 -134 26z" />
    <glyph glyph-name="four.inferior" unicode="&#x2084;" horiz-adv-x="361" 
d="M343 6h-45v-70h-106v70h-174v74q50 105 129 224h151v-222h45v-76zM192 82v158h-1q-48 -64 -94 -158h95z" />
    <glyph glyph-name="five.inferior" unicode="&#x2085;" horiz-adv-x="357" 
d="M296 226h-142l-6 -74q32 4 49 4q131 0 131 -103q0 -61 -43.5 -94t-114.5 -33q-64 0 -139 25l7 55q51 -10 102 -10q74 0 74 51q0 24 -17 35t-57 11q-43 0 -92 -7l16 218h232v-78z" />
    <glyph glyph-name="six.inferior" unicode="&#x2086;" horiz-adv-x="390" 
d="M343 290l-10 -54q-61 9 -98 9q-48 0 -67.5 -22.5t-21.5 -81.5q48 24 94 24q122 0 122 -103q0 -62 -44.5 -99t-117.5 -37q-80 0 -121 40t-41 142q0 205 179 205q64 0 126 -23zM254 54q0 50 -51 50q-26 0 -57 -14q0 -53 13.5 -75.5t43.5 -22.5q51 0 51 62z" />
    <glyph glyph-name="seven.inferior" unicode="&#x2087;" horiz-adv-x="338" 
d="M317 227l-79 -138q-67 -113 -113 -164l-80 24l148 272h-169v83h293v-77z" />
    <glyph glyph-name="eight.inferior" unicode="&#x2088;" horiz-adv-x="399" 
d="M30 23q0 59 78 93q-69 34 -69 92q0 48 42 77t122 29q76 0 116 -25t40 -68q0 -58 -70 -92q80 -32 80 -94q0 -51 -43.5 -80.5t-133.5 -29.5q-162 0 -162 98zM259 26q0 20 -19 33t-56 27q-45 -23 -45 -57q0 -43 63 -43q57 0 57 40zM146 214q0 -36 62 -57q44 22 44 55
q0 42 -55 42q-51 0 -51 -40z" />
    <glyph glyph-name="nine.inferior" unicode="&#x2089;" horiz-adv-x="389" 
d="M40 -49l11 53q68 -10 106 -10q47 0 66.5 22.5t22.5 81.5q-53 -24 -95 -24q-122 0 -122 104q0 62 44.5 98.5t117.5 36.5q80 0 121 -40t41 -142q0 -205 -179 -205q-63 0 -134 25zM245 149q0 53 -13.5 76t-43.5 23q-51 0 -51 -63q0 -49 51 -49q28 0 57 13z" />
    <glyph glyph-name="uni208A" unicode="&#x208a;" horiz-adv-x="331" 
d="M299 80h-87v-91h-92v91h-88v79h88v91h92v-91h87v-79z" />
    <glyph glyph-name="uni208B" unicode="&#x208b;" horiz-adv-x="331" 
d="M299 80h-267v79h267v-79z" />
    <glyph glyph-name="uni208C" unicode="&#x208c;" horiz-adv-x="331" 
d="M297 144h-263v72h263v-72zM297 23h-263v72h263v-72z" />
    <glyph glyph-name="parenleft.inferior" unicode="&#x208d;" horiz-adv-x="219" 
d="M201 -124l-76 -18q-86 114 -86 268q0 159 86 273l76 -21q-54 -120 -54 -250q0 -122 54 -252z" />
    <glyph glyph-name="parenright.inferior" unicode="&#x208e;" horiz-adv-x="219" 
d="M93 -142l-75 18q54 120 54 250q0 122 -54 252l75 21q86 -111 86 -268q0 -159 -86 -273z" />
    <glyph glyph-name="Euro" unicode="&#x20ac;" 
d="M196 456h149v-81h-160q-1 -11 -1 -32q0 -25 1 -39h160v-81h-149q8 -65 39.5 -99t81.5 -34q66 0 115 55l51 -65q-74 -91 -189 -91q-100 0 -160 59.5t-74 174.5h-58v81h51v30q0 27 1 41h-52v81h61q19 108 83 169t155 61q118 0 173 -100l-55 -56q-40 57 -103 57
q-49 0 -79.5 -36.5t-40.5 -94.5z" />
    <glyph glyph-name="uni2117" unicode="&#x2117;" horiz-adv-x="775" 
d="M363 156h-95v358q21 0 68.5 0.5t64.5 0.5q152 0 152 -119q0 -66 -44.5 -100t-121.5 -34h-24v-106zM363 448v-119h29q63 0 63 59q0 32 -15 46t-48 14h-29zM739 344q0 -148 -101.5 -253t-253.5 -105q-150 0 -249 99.5t-99 244.5q0 148 102 253t254 105q149 0 248 -99.5
t99 -244.5zM647 341q0 114 -74.5 192t-181.5 78q-111 0 -187 -80.5t-76 -197.5q0 -114 74.5 -192t181.5 -78q111 0 187 80.5t76 197.5z" />
    <glyph glyph-name="servicemark" unicode="&#x2120;" horiz-adv-x="448" 
d="M412 508h-54q0 67 -2 98h-2l-30 -98h-56l-30 97h-1q-3 -51 -2 -97h-51q2 88 10 167h75l30 -102h1l30 102h71q8 -71 11 -167zM154 667l-9 -29q-20 6 -37 6q-21 0 -21 -12q0 -3 1.5 -5t5 -4t6.5 -3.5t10 -3.5t11 -4q42 -16 42 -51q0 -25 -20.5 -41.5t-58.5 -16.5
q-36 0 -65 16l10 29q21 -9 43 -9q25 0 25 15q0 5 -5 8.5t-16.5 7t-17.5 5.5q-34 14 -34 49q0 26 19 41t53 15q32 0 58 -13z" />
    <glyph glyph-name="trademark" unicode="&#x2122;" horiz-adv-x="420" 
d="M384 508h-54q0 67 -2 98h-1l-31 -98h-56l-30 97h-1q-2 -30 -2 -97h-51q2 88 10 167h75l31 -102h1l29 102h71q8 -71 11 -167zM144 630h-32v-122h-57v122h-34v45h123v-45z" />
    <glyph glyph-name="uni2139" unicode="&#x2139;" horiz-adv-x="386" 
d="M279 518q0 -41 -17 -57t-65 -16q-50 0 -66.5 15t-16.5 58q0 42 16.5 57t66.5 15t66 -14.5t16 -57.5zM365 0h-344v89h112v208h-104v89h239v-297h97v-89z" />
    <glyph glyph-name="onethird" unicode="&#x2153;" horiz-adv-x="774" 
d="M313 354h-268v76h83v204l-73 -21l-15 62l113 49h85v-294h75v-76zM70 -44l574 776l67 -37l-573 -776zM444 -48l8 55q60 -11 103 -11q76 0 76 48q0 24 -17 35.5t-57 11.5h-57v70h60q61 0 61 42q0 40 -58 40q-42 0 -92 -15l-15 60q66 25 131 25q73 0 109.5 -26t36.5 -70
q0 -60 -67 -85q79 -16 79 -86q0 -58 -47 -89t-120 -31q-66 0 -134 26z" />
    <glyph glyph-name="twothirds" unicode="&#x2154;" horiz-adv-x="789" 
d="M328 354h-291v77q102 81 133.5 116.5t31.5 65.5q0 42 -53 42q-30 0 -98 -19l-14 65q72 30 142 30q59 0 99 -26t40 -79q0 -44 -36 -89t-124 -103h170v-80zM85 -44l574 776l67 -37l-573 -776zM459 -48l8 55q60 -11 103 -11q76 0 76 48q0 24 -17 35.5t-57 11.5h-57v70h60
q61 0 61 42q0 40 -58 40q-42 0 -92 -15l-15 60q66 25 131 25q73 0 109.5 -26t36.5 -70q0 -60 -67 -85q79 -16 79 -86q0 -58 -47 -89t-120 -31q-66 0 -134 26z" />
    <glyph glyph-name="onefifth" unicode="&#x2155;" horiz-adv-x="764" 
d="M313 354h-268v76h83v204l-73 -21l-15 62l113 49h85v-294h75v-76zM70 -44l574 776l67 -37l-573 -776zM703 226h-142l-6 -74q32 4 49 4q131 0 131 -103q0 -61 -43.5 -94t-114.5 -33q-64 0 -139 25l7 55q51 -10 102 -10q74 0 74 51q0 24 -17 35t-57 11q-43 0 -92 -7l16 218
h232v-78z" />
    <glyph glyph-name="twofifths" unicode="&#x2156;" horiz-adv-x="779" 
d="M328 354h-291v77q102 81 133.5 116.5t31.5 65.5q0 42 -53 42q-30 0 -98 -19l-14 65q72 30 142 30q59 0 99 -26t40 -79q0 -44 -36 -89t-124 -103h170v-80zM85 -44l574 776l67 -37l-573 -776zM718 226h-142l-6 -74q32 4 49 4q131 0 131 -103q0 -61 -43.5 -94t-114.5 -33
q-64 0 -139 25l7 55q51 -10 102 -10q74 0 74 51q0 24 -17 35t-57 11q-43 0 -92 -7l16 218h232v-78z" />
    <glyph glyph-name="threefifths" unicode="&#x2157;" horiz-adv-x="763" 
d="M27 370l8 55q60 -11 103 -11q76 0 76 48q0 24 -17 35.5t-57 11.5h-57v70h60q61 0 61 42q0 40 -58 40q-42 0 -92 -15l-15 60q66 25 131 25q73 0 109.5 -26t36.5 -70q0 -60 -67 -85q79 -16 79 -86q0 -58 -47 -89t-120 -31q-66 0 -134 26zM68 -44l574 776l67 -37l-573 -776z
M702 226h-142l-6 -74q32 4 49 4q131 0 131 -103q0 -61 -43.5 -94t-114.5 -33q-64 0 -139 25l7 55q51 -10 102 -10q74 0 74 51q0 24 -17 35t-57 11q-43 0 -92 -7l16 218h232v-78z" />
    <glyph glyph-name="fourfifths" unicode="&#x2158;" horiz-adv-x="763" 
d="M343 424h-45v-70h-106v70h-174v74q50 105 129 224h151v-222h45v-76zM192 500v158h-1q-48 -64 -94 -158h95zM69 -44l574 776l67 -37l-573 -776zM703 226h-142l-6 -74q32 4 49 4q131 0 131 -103q0 -61 -43.5 -94t-114.5 -33q-64 0 -139 25l7 55q51 -10 102 -10q74 0 74 51
q0 24 -17 35t-57 11q-43 0 -92 -7l16 218h232v-78z" />
    <glyph glyph-name="onesixth" unicode="&#x2159;" horiz-adv-x="784" 
d="M70 -44l574 776l67 -37l-573 -776zM739 290l-10 -54q-61 9 -98 9q-48 0 -67.5 -22.5t-21.5 -81.5q48 24 94 24q122 0 122 -103q0 -62 -44.5 -99t-117.5 -37q-80 0 -121 40t-41 142q0 205 179 205q64 0 126 -23zM650 54q0 50 -51 50q-26 0 -57 -14q0 -53 13.5 -75.5
t43.5 -22.5q51 0 51 62zM313 354h-268v76h83v204l-73 -21l-15 62l113 49h85v-294h75v-76z" />
    <glyph glyph-name="fivesixths" unicode="&#x215a;" horiz-adv-x="782" 
d="M68 -44l574 776l67 -37l-573 -776zM737 290l-10 -54q-61 9 -98 9q-48 0 -67.5 -22.5t-21.5 -81.5q48 24 94 24q122 0 122 -103q0 -62 -44.5 -99t-117.5 -37q-80 0 -121 40t-41 142q0 205 179 205q64 0 126 -23zM648 54q0 50 -51 50q-26 0 -57 -14q0 -53 13.5 -75.5
t43.5 -22.5q51 0 51 62zM296 644h-142l-6 -74q32 4 49 4q131 0 131 -103q0 -61 -43.5 -94t-114.5 -33q-64 0 -139 25l7 55q51 -10 102 -10q74 0 74 51q0 24 -17 35t-57 11q-43 0 -92 -7l16 218h232v-78z" />
    <glyph glyph-name="oneeighth" unicode="&#x215b;" horiz-adv-x="818" 
d="M70 -44l574 776l67 -37l-573 -776zM449 23q0 59 78 93q-69 34 -69 92q0 48 42 77t122 29q76 0 116 -25t40 -68q0 -58 -70 -92q80 -32 80 -94q0 -51 -43.5 -80.5t-133.5 -29.5q-162 0 -162 98zM678 26q0 20 -19 33t-56 27q-45 -23 -45 -57q0 -43 63 -43q57 0 57 40z
M565 214q0 -36 62 -57q44 22 44 55q0 42 -55 42q-51 0 -51 -40zM313 354h-268v76h83v204l-73 -21l-15 62l113 49h85v-294h75v-76z" />
    <glyph glyph-name="threeeighths" unicode="&#x215c;" horiz-adv-x="817" 
d="M27 370l8 55q60 -11 103 -11q76 0 76 48q0 24 -17 35.5t-57 11.5h-57v70h60q61 0 61 42q0 40 -58 40q-42 0 -92 -15l-15 60q66 25 131 25q73 0 109.5 -26t36.5 -70q0 -60 -67 -85q79 -16 79 -86q0 -58 -47 -89t-120 -31q-66 0 -134 26zM68 -44l574 776l67 -37l-573 -776z
M448 23q0 59 78 93q-69 34 -69 92q0 48 42 77t122 29q76 0 116 -25t40 -68q0 -58 -70 -92q80 -32 80 -94q0 -51 -43.5 -80.5t-133.5 -29.5q-162 0 -162 98zM677 26q0 20 -19 33t-56 27q-45 -23 -45 -57q0 -43 63 -43q57 0 57 40zM564 214q0 -36 62 -57q44 22 44 55
q0 42 -55 42q-51 0 -51 -40z" />
    <glyph glyph-name="fiveeighths" unicode="&#x215d;" horiz-adv-x="816" 
d="M68 -44l574 776l67 -37l-573 -776zM447 23q0 59 78 93q-69 34 -69 92q0 48 42 77t122 29q76 0 116 -25t40 -68q0 -58 -70 -92q80 -32 80 -94q0 -51 -43.5 -80.5t-133.5 -29.5q-162 0 -162 98zM676 26q0 20 -19 33t-56 27q-45 -23 -45 -57q0 -43 63 -43q57 0 57 40z
M563 214q0 -36 62 -57q44 22 44 55q0 42 -55 42q-51 0 -51 -40zM296 644h-142l-6 -74q32 4 49 4q131 0 131 -103q0 -61 -43.5 -94t-114.5 -33q-64 0 -139 25l7 55q51 -10 102 -10q74 0 74 51q0 24 -17 35t-57 11q-43 0 -92 -7l16 218h232v-78z" />
    <glyph glyph-name="seveneighths" unicode="&#x215e;" horiz-adv-x="772" 
d="M23 -44l574 776l67 -37l-573 -776zM403 23q0 59 78 93q-69 34 -69 92q0 48 42 77t122 29q76 0 116 -25t40 -68q0 -58 -70 -92q80 -32 80 -94q0 -51 -43.5 -80.5t-133.5 -29.5q-162 0 -162 98zM632 26q0 20 -19 33t-56 27q-45 -23 -45 -57q0 -43 63 -43q57 0 57 40z
M519 214q0 -36 62 -57q44 22 44 55q0 42 -55 42q-51 0 -51 -40zM361 645l-79 -138q-67 -113 -113 -164l-80 24l148 272h-169v83h293v-77z" />
    <glyph glyph-name="uni2160" unicode="&#x2160;" horiz-adv-x="391" 
d="M345 0h-298v104h81v468h-81v103h298v-103h-82v-468h82v-104z" />
    <glyph glyph-name="uni2161" unicode="&#x2161;" horiz-adv-x="782" 
d="M345 0h-298v104h81v468h-81v103h298v-103h-82v-468h82v-104zM736 0h-298v104h81v468h-81v103h298v-103h-82v-468h82v-104z" />
    <glyph glyph-name="uni2162" unicode="&#x2162;" horiz-adv-x="1174" 
d="M345 0h-298v104h81v468h-81v103h298v-103h-82v-468h82v-104zM736 0h-298v104h81v468h-81v103h298v-103h-82v-468h82v-104zM1127 0h-298v104h81v468h-81v103h298v-103h-82v-468h82v-104z" />
    <glyph glyph-name="uni2163" unicode="&#x2163;" horiz-adv-x="938" 
d="M345 0h-298v104h81v468h-81v103h298v-103h-82v-468h82v-104zM796 675h132q-69 -369 -180 -675h-165q-112 325 -182 675h148q47 -272 126 -539h3q68 233 118 539z" />
    <glyph glyph-name="uni2164" unicode="&#x2164;" horiz-adv-x="547" 
d="M405 675h132q-69 -369 -180 -675h-165q-112 325 -182 675h148q47 -272 126 -539h3q68 233 118 539z" />
    <glyph glyph-name="uni2165" unicode="&#x2165;" horiz-adv-x="938" 
d="M405 675h132q-69 -369 -180 -675h-165q-112 325 -182 675h148q47 -272 126 -539h3q68 233 118 539zM892 0h-298v104h81v468h-81v103h298v-103h-82v-468h82v-104z" />
    <glyph glyph-name="uni2166" unicode="&#x2166;" horiz-adv-x="1329" 
d="M405 675h132q-69 -369 -180 -675h-165q-112 325 -182 675h148q47 -272 126 -539h3q68 233 118 539zM892 0h-298v104h81v468h-81v103h298v-103h-82v-468h82v-104zM1283 0h-298v104h81v468h-81v103h298v-103h-82v-468h82v-104z" />
    <glyph glyph-name="uni2167" unicode="&#x2167;" horiz-adv-x="1720" 
d="M405 675h132q-69 -369 -180 -675h-165q-112 325 -182 675h148q47 -272 126 -539h3q68 233 118 539zM892 0h-298v104h81v468h-81v103h298v-103h-82v-468h82v-104zM1283 0h-298v104h81v468h-81v103h298v-103h-82v-468h82v-104zM1674 0h-298v104h81v468h-81v103h298v-103
h-82v-468h82v-104z" />
    <glyph glyph-name="uni2168" unicode="&#x2168;" horiz-adv-x="940" 
d="M345 0h-298v104h81v468h-81v103h298v-103h-82v-468h82v-104zM926 0h-148q-73 164 -122 249h-3q-69 -124 -117 -249h-133q76 188 176 354q-91 161 -159 321h145q60 -143 104 -222h2q61 100 107 222h130q-63 -161 -160 -316q99 -166 178 -359z" />
    <glyph glyph-name="uni2169" unicode="&#x2169;" horiz-adv-x="549" 
d="M535 0h-148q-73 164 -122 249h-3q-69 -124 -117 -249h-133q76 188 176 354q-91 161 -159 321h145q60 -143 104 -222h2q61 100 107 222h130q-63 -161 -160 -316q99 -166 178 -359z" />
    <glyph glyph-name="uni216A" unicode="&#x216a;" horiz-adv-x="940" 
d="M535 0h-148q-73 164 -122 249h-3q-69 -124 -117 -249h-133q76 188 176 354q-91 161 -159 321h145q60 -143 104 -222h2q61 100 107 222h130q-63 -161 -160 -316q99 -166 178 -359zM894 0h-298v104h81v468h-81v103h298v-103h-82v-468h82v-104z" />
    <glyph glyph-name="uni216B" unicode="&#x216b;" horiz-adv-x="1332" 
d="M535 0h-148q-73 164 -122 249h-3q-69 -124 -117 -249h-133q76 188 176 354q-91 161 -159 321h145q60 -143 104 -222h2q61 100 107 222h130q-63 -161 -160 -316q99 -166 178 -359zM894 0h-298v104h81v468h-81v103h298v-103h-82v-468h82v-104zM1285 0h-298v104h81v468h-81
v103h298v-103h-82v-468h82v-104z" />
    <glyph glyph-name="uni216C" unicode="&#x216c;" horiz-adv-x="421" 
d="M405 0h-331v675h135v-570h196v-105z" />
    <glyph glyph-name="uni216D" unicode="&#x216d;" horiz-adv-x="516" 
d="M442 162l55 -69q-35 -50 -87.5 -77t-115.5 -27q-253 0 -253 337q0 172 69.5 266t189.5 94q127 0 186 -110l-62 -60q-42 62 -107 62q-67 0 -101 -65.5t-34 -168.5q0 -130 34.5 -188t101.5 -58q66 0 124 64z" />
    <glyph glyph-name="uni216E" unicode="&#x216e;" horiz-adv-x="596" 
d="M74 0v675q35 0 97 1t91 1q154 0 223.5 -86.5t69.5 -234.5q0 -174 -78.5 -266.5t-238.5 -92.5q-11 0 -164 3zM209 575v-473q32 -2 47 -2q157 0 157 241q0 235 -158 235q-31 0 -46 -1z" />
    <glyph glyph-name="uni216F" unicode="&#x216f;" horiz-adv-x="848" 
d="M789 0h-142q-5 272 -25 511h-2l-149 -511h-114l-149 511h-1q-17 -205 -20 -511h-127q9 342 48 675h178l140 -463h1l142 463h168q40 -345 52 -675z" />
    <glyph glyph-name="arrowleft" unicode="&#x2190;" horiz-adv-x="1054" 
d="M54 338l381 381l61 -61q-122 -147 -240 -265l1 -2q286 11 582 11h138v-128h-138q-132 0 -277.5 3t-225.5 5l-79 3l-1 -2q52 -52 112 -118.5t94 -106.5l34 -40l-61 -61z" />
    <glyph glyph-name="arrowup" unicode="&#x2191;" horiz-adv-x="870" 
d="M435 811l381 -381l-61 -61q-147 122 -265 240l-2 -1q11 -286 11 -582v-138h-128v138q0 132 2.5 277.5t5.5 224.5l3 80l-2 1q-52 -52 -118.5 -112t-106.5 -94l-40 -34l-61 61z" />
    <glyph glyph-name="arrowright" unicode="&#x2192;" horiz-adv-x="1054" 
d="M1000 338l-381 -381l-61 61q122 147 240 265l-1 2q-286 -11 -582 -11h-138v128h138q132 0 277.5 -3t225.5 -5l79 -3l1 2q-52 52 -112 118.5t-94 106.5l-34 40l61 61z" />
    <glyph glyph-name="arrowdown" unicode="&#x2193;" horiz-adv-x="870" 
d="M435 -135l-381 381l61 61q147 -122 265 -240l2 1q-11 286 -11 582v138h128v-138q0 -132 -2.5 -277.5t-5.5 -224.5l-3 -80l2 -1q52 52 118.5 112t106.5 94l40 34l61 -61z" />
    <glyph glyph-name="arrowboth" unicode="&#x2194;" horiz-adv-x="1250" 
d="M1196 338l-339 -339l-58 58q100 122 209 230l-1 1q-193 -7 -304 -7h-156l-304 7l-1 -1q48 -48 100.5 -105.5t80.5 -91.5l28 -33l-58 -58l-339 339l339 339l58 -58q-100 -122 -209 -230l1 -1q193 7 304 7h156l304 -7l1 1q-48 48 -100.5 105.5t-80.5 91.5l-28 33l58 58z
" />
    <glyph glyph-name="arrowupdn" unicode="&#x2195;" horiz-adv-x="786" 
d="M393 -177l-339 339l58 58q122 -100 230 -209l1 1q-7 193 -7 304v44l7 304l-1 1q-48 -48 -105.5 -100.5t-90.5 -80.5l-34 -28l-58 58l339 339l339 -339l-58 -58q-122 100 -230 209l-1 -1q7 -193 7 -304v-44l-7 -304l1 -1q48 48 105.5 100.5t90.5 80.5l34 28l58 -58z" />
    <glyph glyph-name="arrownorthwest" unicode="&#x2196;" horiz-adv-x="846" 
d="M88 673h539v-88q-21 -2 -57.5 -4.5t-131 -7t-168.5 -4.5l-1 -2q208 -194 419 -404l98 -98l-90 -90l-98 98q-94 93 -195 197.5t-155 162.5l-55 58h-2q0 -74 -4 -163.5t-8 -141.5l-4 -53h-87v540z" />
    <glyph glyph-name="arrownortheast" unicode="&#x2197;" horiz-adv-x="846" 
d="M757 673v-540h-87q-2 22 -4.5 58t-7 131t-4.5 169h-3q-193 -208 -404 -418l-98 -98l-90 90l98 98q93 93 198 194t163 155l58 55l-1 2q-74 0 -163 4t-142 8l-52 4v88h539z" />
    <glyph glyph-name="arrowsoutheast" unicode="&#x2198;" horiz-adv-x="846" 
d="M757 3h-539v88q21 2 57.5 4.5t131 7t168.5 4.5l1 2q-209 194 -419 404l-98 98l90 90l98 -98q94 -93 195 -197.5t155 -162.5l54 -58h3q0 74 4 163.5t8 141.5l4 53h87v-540z" />
    <glyph glyph-name="arrowsouthwest" unicode="&#x2199;" horiz-adv-x="846" 
d="M88 3v540h87q2 -22 4.5 -58t7 -131t4.5 -169h2q194 208 405 418l98 98l90 -90l-98 -98q-94 -93 -198.5 -194t-162.5 -155l-58 -55l1 -2q74 0 163 -4t141 -8l53 -4v-88h-539z" />
    <glyph glyph-name="partialdiff" unicode="&#x2202;" horiz-adv-x="534" 
d="M157 650l70 68q129 -52 197.5 -151.5t68.5 -261.5q0 -156 -63.5 -235.5t-174.5 -79.5q-105 0 -164 64t-59 190q0 125 63.5 192.5t184.5 67.5q25 0 40 -5q-45 84 -163 151zM356 273q0 78 -12 133q-25 10 -66 10q-49 0 -78.5 -42t-29.5 -122q0 -87 24.5 -125t72.5 -38
q20 0 34.5 7t27.5 26t20 57t7 94z" />
    <glyph glyph-name="product" unicode="&#x220f;" horiz-adv-x="653" 
d="M634 571h-63v-571h-135v571h-217v-571h-135v571h-63v104h613v-104z" />
    <glyph glyph-name="summation" unicode="&#x2211;" 
d="M462 0h-422v91l207 257l-197 233v94h397v-103h-242l186 -218l-199 -249h270v-105z" />
    <glyph glyph-name="minus" unicode="&#x2212;" 
d="M463 254h-425v92h425v-92z" />
    <glyph glyph-name="uni2215" unicode="&#x2215;" horiz-adv-x="88" 
d="M-275 -44l574 776l67 -37l-573 -776z" />
    <glyph glyph-name="radical" unicode="&#x221a;" 
d="M374 675h121q-67 -359 -184 -675h-140l-100 415h-64v86h168l78 -358q78 263 121 532z" />
    <glyph glyph-name="infinity" unicode="&#x221e;" horiz-adv-x="1000" 
d="M963 304q0 -95 -56.5 -152.5t-161.5 -57.5q-112 0 -251 124q-141 -124 -252 -124q-105 0 -155 55t-50 141q0 95 56.5 152.5t161.5 57.5q110 0 251 -124q143 124 252 124q105 0 155 -55t50 -141zM835 298q0 44 -20.5 72t-63.5 28q-60 0 -166 -97q56 -52 94 -78.5t73 -26.5
q42 0 62.5 28.5t20.5 73.5zM249 196q35 0 73.5 24t92.5 72q-55 53 -93.5 79.5t-73.5 26.5q-42 0 -62.5 -28.5t-20.5 -73.5q0 -44 20.5 -72t63.5 -28z" />
    <glyph glyph-name="integral" unicode="&#x222b;" horiz-adv-x="400" 
d="M384 693l-17 -74q-34 8 -53 8q-29 0 -41 -16t-12 -53v-581q0 -159 -141 -159q-57 0 -111 27l17 74q27 -8 52 -8q29 0 41.5 16t12.5 53v581q0 159 141 159q57 0 111 -27z" />
    <glyph glyph-name="uni2236" unicode="&#x2236;" horiz-adv-x="331" 
d="M239 510q0 -39 -17 -54t-57 -15q-39 0 -55.5 15t-16.5 53t17 53.5t56 15.5t56 -15t17 -53zM239 137q0 -39 -17 -53.5t-57 -14.5q-39 0 -55.5 14.5t-16.5 52.5t17 53.5t56 15.5t56 -15t17 -53z" />
    <glyph glyph-name="approxequal" unicode="&#x2248;" 
d="M430 459l34 -72q-67 -60 -132 -60q-47 0 -97.5 26.5t-78.5 26.5q-36 0 -87 -44l-35 71q68 61 133 61q47 0 97 -27t79 -27q36 0 87 45zM430 263l34 -71q-68 -61 -132 -61q-47 0 -97.5 27t-78.5 27q-34 0 -87 -45l-35 71q68 61 133 61q47 0 97 -26.5t79 -26.5q36 0 87 44z
" />
    <glyph glyph-name="notequal" unicode="&#x2260;" 
d="M461 166h-227l-81 -153l-84 42l60 111h-89v83h131l54 101h-185v83h228l81 152l84 -41l-60 -111h88v-83h-130l-54 -101h184v-83z" />
    <glyph glyph-name="lessequal" unicode="&#x2264;" 
d="M459 0h-419v87h419v-87zM460 227l-35 -90l-385 174v85l385 174l35 -88l-301 -127z" />
    <glyph glyph-name="greaterequal" unicode="&#x2265;" 
d="M459 0h-419v87h419v-87zM459 311l-385 -174l-35 88l300 127l-300 128l35 90l385 -174v-85z" />
    <glyph glyph-name="filledbox" unicode="&#x25a0;" horiz-adv-x="1100" 
d="M1005 -124h-910v924h910v-924z" />
    <glyph glyph-name="uni25A1" unicode="&#x25a1;" horiz-adv-x="1100" 
d="M1022 -137h-944v950h944v-950zM921 -51v778h-742v-778h742z" />
    <glyph glyph-name="uni25B2" unicode="&#x25b2;" horiz-adv-x="800" 
d="M400 720l295 -703h-590z" />
    <glyph glyph-name="uni25B3" unicode="&#x25b3;" horiz-adv-x="800" 
d="M709 7h-618l309 737zM548 113l-148 356l-148 -356h296z" />
    <glyph glyph-name="uni25B6" unicode="&#x25b6;" horiz-adv-x="850" 
d="M807 338l-703 -295v590z" />
    <glyph glyph-name="uni25B7" unicode="&#x25b7;" horiz-adv-x="850" 
d="M831 338l-737 -309v618zM201 486v-296l355 148z" />
    <glyph glyph-name="uni25BC" unicode="&#x25bc;" horiz-adv-x="800" 
d="M695 659l-295 -703l-295 703h590z" />
    <glyph glyph-name="uni25BD" unicode="&#x25bd;" horiz-adv-x="800" 
d="M709 669l-309 -737l-309 737h618zM252 563l148 -356l148 356h-296z" />
    <glyph glyph-name="uni25C0" unicode="&#x25c0;" horiz-adv-x="850" 
d="M747 633v-590l-704 295z" />
    <glyph glyph-name="uni25C1" unicode="&#x25c1;" horiz-adv-x="850" 
d="M756 647v-618l-737 309zM295 338l355 -148v296z" />
    <glyph glyph-name="lozenge" unicode="&#x25ca;" 
d="M482 338l-184 -338h-97l-183 337l184 338h97zM366 328l-121 212l-110 -192l121 -213z" />
    <glyph glyph-name="circle" unicode="&#x25cb;" horiz-adv-x="1100" 
d="M1049 338q0 -242 -129 -370t-369 -128t-370 128t-130 370t130 370t370 128t369 -128t129 -370zM945 338q0 412 -394 412q-396 0 -396 -412t396 -412q394 0 394 412z" />
    <glyph glyph-name="uni25CF" unicode="&#x25cf;" horiz-adv-x="1100" 
d="M70 338q0 234 124.5 358.5t355.5 124.5q229 0 353 -125t124 -358q0 -232 -124 -356.5t-353 -124.5q-231 0 -355.5 124.5t-124.5 356.5z" />
    <glyph glyph-name="uniE1C2" unicode="&#xe1c2;" horiz-adv-x="1100" 
d="M1029 338q0 -232 -124.5 -356.5t-353.5 -124.5q-231 0 -355.5 124.5t-124.5 356.5q0 233 124.5 358t355.5 125q230 0 354 -125t124 -358zM649 54h151l-201 314l183 258h-143l-157 -235h-1v235h-133v-572h133v255h1z" />
    <glyph glyph-name="uniE1C3" unicode="&#xe1c3;" horiz-adv-x="1100" 
d="M1029 338q0 -232 -124.5 -356.5t-353.5 -124.5q-231 0 -355.5 124.5t-124.5 356.5q0 233 124.5 358t355.5 125q230 0 354 -125t124 -358zM637 581q0 43 -16 58t-66 15q-49 0 -66 -15.5t-17 -57.5q0 -43 16.5 -57.5t66.5 -14.5q49 0 65.5 15.5t16.5 56.5zM379 63h344v89
h-97v297h-239v-89h104v-208h-112v-89z" />
    <glyph glyph-name="uniE1C4" unicode="&#xe1c4;" horiz-adv-x="1100" 
d="M795 54h-150l-168 255h-1v-255h-133v572h133v-234h1l158 234h143l-184 -258zM1049 338q0 -242 -129 -370t-369 -128t-370 128t-130 370t130 370t370 128t369 -128t129 -370zM945 338q0 412 -394 412q-396 0 -396 -412t396 -412q394 0 394 412z" />
    <glyph glyph-name="apple" unicode="&#xf8ff;" horiz-adv-x="1000" 
d="M703 135l-18 -5l35 -81l-34 -9l34 -78l-35 -9l10 -26l-32 -76h-61q-4 -23 -32.5 -37t-69.5 -14t-69.5 14.5t-31.5 36.5h-61l-58 138l34 10l-34 81l37 9l-20 49v83q-70 80 -70 183q0 114 79.5 193t193.5 79q113 0 193 -79t80 -193q0 -107 -70 -184v-85zM578 250h55
q70 61 70 154q0 85 -59.5 144t-143.5 59t-143.5 -59t-59.5 -144q0 -94 71 -154h55l-17 140q-16 -4 -41 -14q-12 -4 -16 15q-7 29 4 45q2 3 5 4q73 23 142 23q67 0 145 -23q12 -3 10 -36q-2 -30 -17 -28q-1 1 -2 1q-20 7 -43 13zM633 -10l-14 34l-253 -65l26 -61h217l12 30
l-5 12l-75 -20l-16 44zM631 169v26h-262v-52l15 -37zM540 882l-13 -157q-27 2 -54 0l-13 157q24 2 39 2q29 0 41 -2zM528 250l14 148q-28 2 -40 2q-30 0 -45 -2l16 -148h55zM633 79l-15 35l-253 -64l16 -35zM179 378l-132 -13q-5 39 0 78l132 -12q-2 -27 0 -53zM953 365
l-132 13q2 27 0 53l132 12q5 -39 0 -78zM848 698l-102 -86q-18 21 -38 38l85 102q30 -24 55 -54zM254 612l-102 86q27 32 55 54l85 -102q-21 -17 -38 -38zM505 425v3q0 2 -3 1v-1q2 1 2 0q-2 0 -2 -2q0 -1 2 -1h1zM494 426v3h-1v-3h-1v3h-1v-3q1 -1 3 0zM498 425v1v2v1h-2
q-1 -3 2 -4zM508 428v1q-4 0 -2 -3v-1q5 0 2 3zM501 424q-1 3 0 7h-1q-1 -4 0 -7h1zM510 424q1 4 0 7h-1q1 -4 0 -7h1zM490 425v1h-1v4h-1v-5h2zM504 427l-1 -1z" />
    <glyph glyph-name="s_t" unicode="&#xfb06;" horiz-adv-x="747" 
d="M716 97l11 -74q-66 -33 -126 -33q-70 0 -98.5 29.5t-28.5 101.5v290h-64v90h64v19q0 53 -20.5 76.5t-60.5 23.5q-34 0 -55.5 -20.5t-21.5 -55.5q0 -45 36 -67l-13 -68q-63 15 -99 15q-37 0 -56 -14.5t-19 -37.5q0 -25 23 -41t55.5 -27.5t65.5 -27t56 -48t23 -80.5
q0 -70 -54 -114t-148 -44q-79 0 -158 41l11 67q72 -17 124 -17q89 0 89 57q0 25 -23 41t-55.5 28t-65 27t-55.5 47.5t-23 80.5q0 67 50.5 108.5t132.5 41.5l39 -4q-32 16 -32 64q0 63 53 100t134 37q101 0 148 -44.5t47 -133.5v-30h111v-90h-111v-258q0 -38 10 -52.5
t35 -14.5q30 0 69 11z" />
    <glyph glyph-name="uniFEFF" unicode="&#xfeff;" horiz-adv-x="0" 
 />
    <glyph glyph-name="u1F137" unicode="&#x1f137;" horiz-adv-x="1100" 
d="M788 54h-133v244h-210v-244h-133v572h133v-220h210v220h133v-572zM1022 -137h-944v950h944v-950zM921 -51v778h-742v-778h742z" />
    <glyph glyph-name="u1F13F" unicode="&#x1f13f;" horiz-adv-x="1100" 
d="M493 54h-131v572q34 0 104.5 1t95.5 1q225 0 225 -181q0 -93 -61 -148t-195 -55h-38v-190zM493 535v-198h50q105 0 105 99q0 51 -24 75t-84 24h-47zM1022 -137h-944v950h944v-950zM921 -51v778h-742v-778h742z" />
    <glyph glyph-name="u1F177" unicode="&#x1f177;" horiz-adv-x="1100" 
d="M1005 -124h-910v924h910v-924zM655 54h133v572h-133v-220h-210v220h-133v-572h133v243h210v-243z" />
    <glyph glyph-name="u1F17F" unicode="&#x1f17f;" horiz-adv-x="1100" 
d="M1005 -124h-910v924h910v-924zM358 54h131v189h37q135 0 196 55t61 148q0 181 -225 181q-25 0 -96 -0.5t-104 -0.5v-572zM489 336v198h47q59 0 83 -23.5t24 -74.5q0 -100 -105 -100h-49z" />
    <glyph glyph-name="U1F6C8" unicode="&#x1f6c8;" horiz-adv-x="1100" 
d="M1049 338q0 -242 -129 -370t-369 -128t-370 128t-130 370t130 370t370 128t369 -128t129 -370zM945 338q0 412 -394 412q-396 0 -396 -412t396 -412q394 0 394 412zM637 581q0 -41 -17 -57t-65 -16q-50 0 -66.5 15t-16.5 58q0 42 16.5 57t66.5 15t66 -14.5t16 -57.5z
M723 63h-344v89h112v208h-104v89h239v-297h97v-89z" />
    <glyph glyph-name="L_a_t_n_C_a_p_s" horiz-adv-x="953" 
d="M217 500h-166v337h68v-285h98v-52zM450 500h-49l-5 25q-36 -31 -76 -31q-78 0 -78 72q0 40 33 63t97 23h15v19q0 38 -47 38q-30 0 -76 -14l-8 39q51 21 100 21q94 0 94 -77v-178zM387 562v51h-19q-63 0 -63 -39q0 -34 33 -34q24 0 49 22zM640 549l5 -38q-31 -16 -63 -16
q-35 0 -49 14.5t-14 51.5v144h-32v45h34q6 24 15 73h47v-73h55v-45h-55v-129q0 -19 5 -26t17 -7q16 0 35 6zM896 500h-64q0 28 0.5 73.5t0.5 57.5q0 42 -8 57.5t-26 15.5q-19 0 -47 -20v-184h-64v250h52l5 -26q34 32 76 32q39 0 58 -27t19 -87q0 -12 -1 -62t-1 -80zM201 81
l27 -35q-36 -52 -101 -52q-127 0 -127 168q0 86 35 133.5t94 47.5q64 0 93 -55l-31 -30q-21 31 -53 31q-34 0 -50.5 -32.5t-16.5 -84.5q0 -123 68 -123q33 0 62 32zM460 0h-50l-4 25q-36 -31 -76 -31q-78 0 -78 72q0 40 32.5 63t96.5 23h15v19q0 38 -46 38q-31 0 -77 -14
l-7 39q51 21 100 21q94 0 94 -77v-178zM396 62v51h-18q-64 0 -64 -39q0 -34 34 -34q24 0 48 22zM589 -87h-64v337h52l5 -25q36 31 70 31q43 0 65.5 -34t22.5 -87q0 -71 -33.5 -106t-90.5 -35q-11 0 -27 2v-83zM589 185v-140q15 -5 30 -5q25 0 40.5 21.5t15.5 64.5
q0 80 -41 80q-21 0 -45 -21zM773 15l6 33q36 -8 62 -8q44 0 44 29q0 15 -17.5 24.5t-38 15.5t-38 24.5t-17.5 47.5q0 33 25.5 53.5t66.5 20.5q37 0 70 -18l-7 -33q-31 7 -50 7q-38 0 -38 -25q0 -15 17.5 -25t38.5 -15.5t38.5 -24t17.5 -47.5q0 -35 -27 -57t-74 -22
q-39 0 -79 20z" />
    <glyph glyph-name="IJ.alt1" horiz-adv-x="571" 
d="M209 0h-135v675h135v-675zM498 675v-442q0 -156 -114 -243l-82 54q36 40 48.5 80t12.5 106v445h135z" />
    <glyph glyph-name="IJ.alt2" horiz-adv-x="572" 
d="M209 0h-135v675h135v-675zM498 675v-591q0 -122 -55.5 -187t-195.5 -79l-20 82q80 19 108 60t28 125v590h135z" />
    <glyph glyph-name="J.alt1" horiz-adv-x="289" 
d="M215 675v-442q0 -156 -114 -243l-82 54q36 40 48.5 80t12.5 106v445h135z" />
    <glyph glyph-name="J.alt2" horiz-adv-x="289" 
d="M215 675v-591q0 -122 -55.5 -187t-195.5 -79l-20 82q80 19 108 60t28 125v590h135z" />
    <glyph glyph-name="Jcircumflex.alt2" horiz-adv-x="289" 
d="M215 675v-591q0 -122 -55.5 -187t-195.5 -79l-20 82q80 19 108 60t28 125v590h135zM148 858l152 -85l-34 -54l-120 52l-119 -52l-32 52z" />
    <glyph glyph-name="Jcircumflex.alt1" horiz-adv-x="289" 
d="M215 675v-442q0 -156 -114 -243l-82 54q36 40 48.5 80t12.5 106v445h135zM148 858l152 -85l-34 -54l-120 52l-119 -52l-32 52z" />
    <glyph glyph-name="L_a_t_n_L_o_w_e_r" horiz-adv-x="1243" 
d="M741 250h63q-14 -109 -64 -250h-76l-35 141l-8 37l-6 -37l-31 -141h-78l-65 250h69l32 -138l9 -43l7 39l31 142h74l37 -145l7 -35q30 122 34 180zM419 130q0 -68 -31.5 -102t-89.5 -34q-111 0 -111 126q0 68 31.5 102t89.5 34q111 0 111 -126zM586 500h-49l-5 25
q-36 -31 -76 -31q-78 0 -78 72q0 40 33 63t97 23h15v19q0 38 -47 38q-30 0 -76 -14l-8 39q51 21 100 21q94 0 94 -77v-178zM1045 112h-147v-3q0 -66 56 -66q38 0 81 15l9 -37q-51 -27 -104 -27q-108 0 -108 124q0 67 30 102.5t84 35.5q108 0 99 -144zM1032 500h-64
q0 28 0.5 73.5t0.5 57.5q0 42 -8 57.5t-26 15.5q-19 0 -47 -20v-184h-64v250h53l4 -26q35 32 76 32q39 0 58 -27t19 -87q0 -12 -1 -62t-1 -80zM165 0h-165v337h68v-285h97v-52zM353 500h-165v337h67v-285h98v-52zM776 549l6 -38q-32 -16 -64 -16q-35 0 -49 14.5t-14 51.5
v144h-32v45h34q6 24 15 73h47v-73h56v-45h-56v-129q0 -19 5 -26t17 -7q16 0 35 6zM1243 250l-8 -57q-15 4 -22 4q-18 0 -49 -38v-159h-64v250h52l6 -39q34 44 61 44q13 0 24 -5zM353 119q0 51 -12.5 70.5t-38.5 19.5q-49 0 -49 -78q0 -50 12.5 -69.5t37.5 -19.5q50 0 50 77z
M523 562v51h-19q-63 0 -63 -39q0 -34 33 -34q24 0 49 22zM898 152h85v2q0 58 -40 58q-42 0 -45 -60z" />
    <glyph glyph-name="c_h" horiz-adv-x="946" 
d="M881 0h-129q0 57 1.5 148.5t1.5 113.5q0 86 -16.5 116.5t-52.5 30.5q-39 0 -93 -41v-368h-128v625q-19 4 -44 4q-42 0 -64.5 -20t-22.5 -57q0 -48 48 -91l-38 -72q-32 27 -80 27q-43 0 -68 -41.5t-25 -119.5q0 -88 23 -128t70 -40q48 0 95 40l33 -70q-69 -67 -157 -67
q-198 0 -198 254q0 116 55.5 191.5t149.5 75.5q14 0 26 -5q-30 20 -30 69q0 66 59 105.5t166 39.5q29 0 61.5 -3t50.5 -6l18 -3v-250q65 54 137 54q77 0 115.5 -53.5t38.5 -173.5q0 -24 -1.5 -123.5t-1.5 -161.5z" />
    <glyph glyph-name="c_k" horiz-adv-x="889" 
d="M880 0h-150l-133 247h-4v-247h-128v625q-19 4 -44 4q-42 0 -64.5 -20t-22.5 -57q0 -48 48 -91l-38 -72q-32 27 -80 27q-43 0 -68 -41.5t-25 -119.5q0 -88 23 -128t70 -40q48 0 95 40l33 -70q-69 -67 -157 -67q-198 0 -198 254q0 116 55.5 191.5t149.5 75.5q14 0 26 -5
q-30 20 -30 69q0 66 59 105.5t166 39.5q29 0 61.5 -3t50.5 -6l18 -3v-409h4l119 202h148l-149 -214z" />
    <glyph glyph-name="c_t" horiz-adv-x="762" 
d="M728 411h-111v-258q0 -38 10 -52.5t35 -14.5q30 0 69 11l11 -74q-66 -33 -127 -33q-69 0 -97.5 29.5t-28.5 101.5v290h-64v90h64v19q0 53 -19.5 76.5t-59.5 23.5q-34 0 -55 -19t-21 -52q0 -46 47 -87l-36 -74q-36 28 -81 28q-43 0 -68 -41.5t-25 -119.5q0 -88 23.5 -128
t70.5 -40q50 0 102 42l40 -66q-71 -73 -170 -73q-200 0 -200 254q0 117 55 192t150 75q14 0 26 -5q-30 20 -30 69q0 61 53 97.5t136 36.5q99 0 144.5 -42.5t45.5 -135.5v-30h111v-90z" />
    <glyph glyph-name="ccedilla_t" horiz-adv-x="762" 
d="M728 411h-111v-258q0 -38 10 -52.5t35 -14.5q30 0 69 11l11 -74q-66 -33 -127 -33q-69 0 -97.5 29.5t-28.5 101.5v290h-64v90h64v19q0 53 -19.5 76.5t-59.5 23.5q-34 0 -55 -19t-21 -52q0 -46 47 -87l-36 -74q-36 28 -81 28q-43 0 -68 -41.5t-25 -119.5q0 -88 23.5 -128
t70.5 -40q50 0 102 42l40 -66q-71 -73 -170 -73q-200 0 -200 254q0 117 55 192t150 75q14 0 26 -5q-30 20 -30 69q0 61 53 97.5t136 36.5q99 0 144.5 -42.5t45.5 -135.5v-30h111v-90zM179 -42h109q14 -84 -83 -141l-73 29q33 30 43 54t4 58z" />
    <glyph glyph-name="i.dotaccent" horiz-adv-x="259" 
d="M206 633q0 -38 -15.5 -52.5t-60.5 -14.5q-46 0 -61.5 14t-15.5 53q0 38 16 52.5t61 14.5q46 0 61 -13.5t15 -53.5zM194 0h-129v501h129v-501z" />
    <glyph glyph-name="ij.alt1" horiz-adv-x="546" 
d="M481 501v-482q0 -112 -57 -156.5t-157 -44.5q-81 0 -177 40l10 72q100 -17 153 -17t76 19t23 66v15q0 25 4 39q-70 -54 -140 -54q-77 0 -116 52.5t-39 170.5q0 25 2 122.5t2 157.5h129q0 -56 -2 -145.5t-2 -113.5q0 -84 16 -115t51 -31q41 0 95 42v363h129zM209 633
q0 -38 -15.5 -52.5t-60.5 -14.5q-46 0 -61.5 14t-15.5 53q0 38 15.5 52.5t61.5 14.5t61 -13.5t15 -53.5zM491 633q0 -38 -15.5 -52.5t-60.5 -14.5q-46 0 -61.5 14t-15.5 53q0 38 15.5 52.5t61.5 14.5t61 -13.5t15 -53.5z" />
    <glyph glyph-name="i_j" horiz-adv-x="546" 
d="M481 501v-482q0 -112 -57 -156.5t-157 -44.5q-81 0 -177 40l10 72q100 -17 153 -17t76 19t23 66v15q0 25 4 39q-70 -54 -140 -54q-77 0 -116 52.5t-39 170.5q0 25 2 122.5t2 157.5h129q0 -56 -2 -145.5t-2 -113.5q0 -84 16 -115t51 -31q41 0 95 42v363h129zM209 633
q0 -38 -15.5 -52.5t-60.5 -14.5q-46 0 -61.5 14t-15.5 53q0 38 15.5 52.5t61.5 14.5t61 -13.5t15 -53.5zM491 633q0 -38 -15.5 -52.5t-60.5 -14.5q-46 0 -61.5 14t-15.5 53q0 38 15.5 52.5t61.5 14.5t61 -13.5t15 -53.5z" />
    <glyph glyph-name="scedilla_t" horiz-adv-x="747" 
d="M716 97l11 -74q-66 -33 -126 -33q-70 0 -98.5 29.5t-28.5 101.5v290h-64v90h64v19q0 53 -20.5 76.5t-60.5 23.5q-34 0 -55.5 -20.5t-21.5 -55.5q0 -45 36 -67l-13 -68q-63 15 -99 15q-37 0 -56 -14.5t-19 -37.5q0 -25 23 -41t55.5 -27.5t65.5 -27t56 -48t23 -80.5
q0 -70 -54 -114t-148 -44q-79 0 -158 41l11 67q72 -17 124 -17q89 0 89 57q0 25 -23 41t-55.5 28t-65 27t-55.5 47.5t-23 80.5q0 67 50.5 108.5t132.5 41.5l39 -4q-32 16 -32 64q0 63 53 100t134 37q101 0 148 -44.5t47 -133.5v-30h111v-90h-111v-258q0 -38 10 -52.5
t35 -14.5q30 0 69 11zM139 -42h109q14 -84 -83 -141l-73 29q33 30 43 54t4 58z" />
    <glyph glyph-name="scommaaccent_t" horiz-adv-x="747" 
d="M716 97l11 -74q-66 -33 -126 -33q-70 0 -98.5 29.5t-28.5 101.5v290h-64v90h64v19q0 53 -20.5 76.5t-60.5 23.5q-34 0 -55.5 -20.5t-21.5 -55.5q0 -45 36 -67l-13 -68q-63 15 -99 15q-37 0 -56 -14.5t-19 -37.5q0 -25 23 -41t55.5 -27.5t65.5 -27t56 -48t23 -80.5
q0 -70 -54 -114t-148 -44q-79 0 -158 41l11 67q72 -17 124 -17q89 0 89 57q0 25 -23 41t-55.5 28t-65 27t-55.5 47.5t-23 80.5q0 67 50.5 108.5t132.5 41.5l39 -4q-32 16 -32 64q0 63 53 100t134 37q101 0 148 -44.5t47 -133.5v-30h111v-90h-111v-258q0 -38 10 -52.5
t35 -14.5q30 0 69 11zM203 -34q53 0 53 -51q0 -88 -140 -96l-15 42q55 15 55 38q0 4 -3.5 11t-3.5 16q0 18 14 29t40 11z" />
    <glyph glyph-name="grave.cap" horiz-adv-x="336" 
d="M287 775l-39 -56l-199 61l58 78z" />
    <glyph glyph-name="acute.cap" horiz-adv-x="336" 
d="M49 775l180 83l58 -78l-199 -61z" />
    <glyph glyph-name="circumflex.cap" horiz-adv-x="403" 
d="M202 858l152 -85l-34 -54l-120 52l-119 -52l-32 52z" />
    <glyph glyph-name="caron.cap" horiz-adv-x="403" 
d="M201 719l-152 86l33 53l120 -52l119 52l33 -52z" />
    <glyph glyph-name="uni0315.cap" horiz-adv-x="222" 
d="M174 740l-61 -184l-64 11l33 191z" />
    <glyph glyph-name="tilde.cap" horiz-adv-x="447" 
d="M346 850l53 -37q-24 -46 -53 -68t-70 -22q-37 0 -71.5 24t-46.5 24q-15 0 -26 -9.5t-31 -37.5l-52 37q48 90 122 90q37 0 71.5 -24.5t46.5 -24.5q14 0 25 9.5t32 38.5z" />
    <glyph glyph-name="dieresis.cap" horiz-adv-x="427" 
d="M378 782q0 -31 -14 -43.5t-48 -12.5q-35 0 -48.5 12t-13.5 44q0 31 13.5 43.5t48.5 12.5t48.5 -12t13.5 -44zM172 782q0 -31 -13.5 -43.5t-47.5 -12.5q-35 0 -48.5 12t-13.5 44q0 31 13.5 43.5t48.5 12.5t48 -12t13 -44z" />
    <glyph glyph-name="dieresis.cap.narrow" horiz-adv-x="374" 
d="M326 782q0 -31 -13 -43.5t-45 -12.5q-33 0 -45.5 12t-12.5 44q0 31 12.5 43.5t45.5 12.5t45.5 -12t12.5 -44zM165 782q0 -31 -12.5 -43.5t-45.5 -12.5t-45.5 12t-12.5 44q0 31 12.5 43.5t45.5 12.5t45.5 -12t12.5 -44z" />
    <glyph glyph-name="dieresis.narrow" horiz-adv-x="389" 
d="M341 634q0 -33 -13 -45.5t-47 -12.5q-35 0 -48 12t-13 46q0 33 13 46t48 13t47.5 -12.5t12.5 -46.5zM169 634q0 -33 -12.5 -45.5t-47.5 -12.5t-47.5 12t-12.5 46q0 33 12.5 46t47.5 13t47.5 -12t12.5 -47z" />
    <glyph glyph-name="macron.cap" horiz-adv-x="382" 
d="M333 742h-284v84h284v-84z" />
    <glyph glyph-name="breve.cap" horiz-adv-x="388" 
d="M262 863h77q0 -68 -39 -108.5t-107 -40.5q-69 0 -106.5 39.5t-37.5 109.5h77q0 -29 17 -47.5t51 -18.5t51 18.5t17 47.5z" />
    <glyph glyph-name="ring.cap" horiz-adv-x="329" 
d="M280 777q0 -40 -32 -63t-86 -23q-113 0 -113 82q0 39 31.5 62t86.5 23q113 0 113 -81zM203 774q0 37 -38 37q-40 0 -40 -37q0 -36 40 -36q38 0 38 36z" />
    <glyph glyph-name="ring.big" horiz-adv-x="295" 
d="M270 748q0 -48 -32.5 -75t-88.5 -27q-120 0 -120 99q0 45 34 72.5t88 27.5q119 0 119 -97zM190 745q0 42 -41 42q-40 0 -40 -42q0 -41 40 -41q41 0 41 41z" />
    <glyph glyph-name="ringacute.cap" horiz-adv-x="320" 
d="M264 747q0 -27 -30 -43.5t-80 -16.5q-105 0 -105 55q0 27 29.5 43t80.5 16q105 0 105 -54zM190 745q0 23 -34 23t-34 -25q0 -23 34 -23t34 25zM87 846l158 39l27 -45l-170 -27z" />
    <glyph glyph-name="ringacute" horiz-adv-x="350" 
d="M270 632q0 -40 -30 -62.5t-83 -22.5q-108 0 -108 82q0 39 30.5 62t82.5 23q108 0 108 -82zM197 630q0 37 -38 37q-37 0 -37 -37q0 -36 37 -36q38 0 38 36zM109 774l103 111l89 -42l-129 -97z" />
    <glyph glyph-name="hungarumlaut.cap" horiz-adv-x="554" 
d="M506 805l-195 -92l-53 41l174 110zM276 815l-171 -103l-56 34l148 122z" />
    <glyph glyph-name="dotaccent.cap" horiz-adv-x="246" 
d="M194 785q0 -33 -15 -45.5t-56 -12.5q-43 0 -57 11.5t-14 46.5q0 33 15 45.5t56 12.5q43 0 57 -11.5t14 -46.5z" />
    <glyph glyph-name="dotaccent.i" horiz-adv-x="251" 
d="M202 633q0 -38 -15.5 -52.5t-60.5 -14.5q-46 0 -61.5 14t-15.5 53q0 38 15.5 52.5t61.5 14.5t61 -13.5t15 -53.5z" />
    <glyph glyph-name="dotaccent.asc" horiz-adv-x="243" 
d="M195 813q0 -33 -15.5 -45t-58.5 -12q-44 0 -58 11.5t-14 45.5t15 46t58 12t58 -11.5t15 -46.5z" />
    <glyph glyph-name="exclamdown.cap" horiz-adv-x="359" 
d="M103 498h113l22 -498h-157zM81 615q0 39 16 53.5t63 14.5q46 0 62 -14.5t16 -53.5t-16 -54t-62 -15q-47 0 -63 14.5t-16 54.5z" />
    <glyph glyph-name="questiondown.cap" 
d="M54 156q0 41 15.5 74t37.5 55t44 42.5t38.5 48t17.5 61.5l2 61h112l4 -60q3 -42 -9 -76t-31 -56t-38.5 -41t-33.5 -42t-14 -49q0 -36 23 -58t68 -22q56 0 114 22l35 -78q-90 -48 -188 -48t-147.5 43.5t-49.5 122.5zM187 615q0 40 15.5 54t62.5 14q46 0 62.5 -14.5
t16.5 -53.5t-17 -54t-63 -15t-61.5 14.5t-15.5 54.5z" />
    <glyph glyph-name="guilsinglleft.cap" horiz-adv-x="307" 
d="M255 167l-87 -28l-133 204l133 203l87 -29l-93 -174z" />
    <glyph glyph-name="guilsinglright.cap" horiz-adv-x="308" 
d="M53 518l87 28l132 -203l-133 -204l-86 29l93 175z" />
    <glyph glyph-name="guillemotleft.cap" horiz-adv-x="508" 
d="M251 167l-85 -28l-132 204l132 203l85 -29l-93 -174zM447 177l-83 -27l-123 193l124 193l82 -29l-83 -164z" />
    <glyph glyph-name="guillemotright.cap" horiz-adv-x="508" 
d="M257 518l85 28l132 -203l-133 -204l-84 29l93 175zM61 508l83 28l123 -193l-124 -193l-82 28l83 165z" />
    <glyph glyph-name="bar.cap" horiz-adv-x="253" 
d="M183 -123h-113v926h113v-926z" />
    <glyph glyph-name="brokenbar.cap" horiz-adv-x="253" 
d="M182 251v-374h-110v374h110zM72 413v393h110v-393h-110z" />
    <glyph glyph-name="hyphen.cap" horiz-adv-x="237" 
d="M236 289h-210v95h210v-95z" />
    <glyph glyph-name="endash.cap" 
d="M456 297h-411v92h411v-92z" />
    <glyph glyph-name="emdash.cap" horiz-adv-x="1000" 
d="M871 297h-742v92h742v-92z" />
    <glyph glyph-name="uni2015.cap" horiz-adv-x="1000" 
d="M871 297h-742v92h742v-92z" />
    <glyph glyph-name="periodcentered.cap" horiz-adv-x="274" 
d="M211 349q0 -44 -14.5 -59t-58.5 -15q-45 0 -60 15t-15 58q0 45 15 60t60 15q44 0 58.5 -15t14.5 -59z" />
    <glyph glyph-name="parenleft.cap" horiz-adv-x="310" 
d="M277 -95l-87 -28q-134 199 -134 445t134 455l87 -29q-104 -188 -104 -419t104 -424z" />
    <glyph glyph-name="parenright.cap" horiz-adv-x="310" 
d="M120 -123l-87 29q104 188 104 419t-104 424l87 28q134 -199 134 -445t-134 -455z" />
    <glyph glyph-name="bracketleft.cap" horiz-adv-x="360" 
d="M300 -123h-201v912h201v-78h-91v-756h91v-78z" />
    <glyph glyph-name="bracketright.cap" horiz-adv-x="360" 
d="M261 -123h-201v78h91v756h-91v78h201v-912z" />
    <glyph glyph-name="braceleft.cap" horiz-adv-x="388" 
d="M317 -123h-53q-74 0 -105.5 34.5t-31.5 102.5v205q0 73 -56 73h-28v92h28q56 0 56 70v199q0 136 139 136h51v-76h-31q-50 0 -50 -62v-177q0 -110 -80 -136q80 -24 80 -137v-186q0 -35 11 -48.5t40 -13.5h30v-76z" />
    <glyph glyph-name="braceright.cap" horiz-adv-x="388" 
d="M344 292h-28q-56 0 -56 -70v-209q0 -136 -139 -136h-51v76h31q50 0 50 62v187q0 110 80 136q-80 24 -80 137v176q0 35 -11 48.5t-40 13.5h-30v76h53q74 0 105.5 -34.5t31.5 -102.5v-195q0 -73 56 -73h28v-92z" />
    <glyph glyph-name="at.cap" horiz-adv-x="1023" 
d="M746 23l21 -74q-134 -62 -295 -62q-202 0 -308 99t-106 291q0 221 139.5 360.5t378.5 139.5q188 0 278.5 -83.5t90.5 -226.5q0 -153 -83.5 -247t-234.5 -94h-58l-4 82q-75 -91 -149 -91q-132 0 -132 176q0 134 72 204.5t194 70.5q87 0 158 -23l-37 -326q74 0 116.5 62
t42.5 163q0 120 -61 183.5t-209 63.5q-96 0 -171.5 -32t-121.5 -87t-69.5 -125.5t-23.5 -152.5q0 -168 75 -244.5t244 -76.5q59 0 130 14.5t123 35.5zM557 298l20 171q-30 5 -47 5q-55 0 -85.5 -41.5t-30.5 -119.5q0 -50 10.5 -72t35.5 -22q40 0 97 79z" />
    <glyph glyph-name="Euro.fitted" horiz-adv-x="550" 
d="M210 456h150v-81h-160q-2 -24 -2 -32q0 -24 2 -39h160v-81h-150q8 -64 42.5 -98.5t89.5 -34.5q68 0 117 55l51 -65q-74 -91 -192 -91q-104 0 -168.5 59.5t-79.5 174.5h-64v81h56q-1 12 -1 30q0 11 2 41h-57v81h70q19 106 87 168t162 62q122 0 176 -100l-54 -57
q-39 58 -113 58q-52 0 -83.5 -36.5t-40.5 -94.5z" />
    <glyph glyph-name="dollar.slashed.oldstyle" horiz-adv-x="584" 
d="M195 10q-91 14 -160 57l33 71q53 -27 141 -39l28 184q-42 12 -70.5 24t-58.5 33t-45 53.5t-15 75.5q0 81 64 131t182 52l23 102h72l-9 -109q73 -12 132 -46l-27 -68q-61 21 -119 28l-26 -173q46 -13 75.5 -24t63 -32.5t50.5 -55t17 -78.5q0 -85 -67.5 -136.5
t-197.5 -54.5l-24 -112h-72zM418 180q0 30 -24.5 48t-72.5 33l-26 -164q123 7 123 83zM174 485q0 -28 21.5 -45.5t61.5 -30.5l23 152q-106 -8 -106 -76z" />
    <glyph glyph-name="cent.fitted" horiz-adv-x="462" 
d="M390 237l39 -66q-55 -48 -118 -60l-10 -115h-78l-9 108q-175 19 -175 228q0 96 47.5 158t127.5 80l9 108h78l9 -108q56 -8 107 -54l-44 -66q-45 34 -89 34q-47 0 -79.5 -35t-32.5 -103q0 -151 107 -151q59 0 111 42z" />
    <glyph glyph-name="cent.slashed.oldstyle" horiz-adv-x="507" 
d="M436 234l33 -67q-75 -60 -175 -63l-22 -104h-72l9 108q-170 36 -170 225q0 113 69.5 176t172.5 66l22 100h71l-8 -110q56 -12 100 -49l-36 -67q-36 23 -77 30l-45 -282q68 -4 128 37zM162 341q0 -98 62 -129l42 267q-50 -8 -77 -45t-27 -93z" />
    <glyph glyph-name="sterling.fitted" horiz-adv-x="451" 
d="M424 0h-395v84q48 50 64.5 98.5t9.5 114.5h-83v86h68q-17 64 -17 109q0 191 186 191q86 0 156 -41l-18 -70q-57 16 -100 16q-51 0 -69.5 -22.5t-18.5 -70.5q0 -31 17 -112h132v-86h-120q6 -66 -6 -110.5t-49 -84.5h243v-102z" />
    <glyph glyph-name="florin.fitted" horiz-adv-x="465" 
d="M441 650l-19 -71q-32 13 -62 13q-31 0 -45.5 -17t-18.5 -57l-14 -135h122v-85h-128l-25 -247q-15 -162 -149 -162q-60 0 -116 33l18 71q30 -13 58 -13q30 0 43.5 17t17.5 57l24 244h-99v85h106l14 138q15 162 153 162q61 0 120 -33z" />
    <glyph glyph-name="yen.fitted" horiz-adv-x="480" 
d="M434 237h-130v-71h130v-83h-130v-83h-128v83h-130v83h130v71h-130v84h130v15q-96 149 -177 339h141q58 -152 109 -238q50 79 104 238h130q-91 -210 -179 -339v-15h130v-84z" />
    <glyph glyph-name="H_a_n_g_T_a_b_P_r_o_p" horiz-adv-x="1695" 
d="M542 500h-68v148h-120v-148h-67v337h67v-133h120v133h68v-337zM801 500h-49l-4 25q-38 -31 -77 -31q-78 0 -78 72q0 40 32.5 63t96.5 23h16v19q0 38 -47 38q-30 0 -76 -14l-9 39q52 21 102 21q46 0 69.5 -20.5t23.5 -56.5v-178zM738 562v51h-19q-63 0 -63 -39
q0 -34 34 -34q23 0 48 22zM1075 500h-65q0 28 0.5 73.5t0.5 57.5q0 42 -8 57.5t-26 15.5q-19 0 -46 -20v-184h-65v250h53l5 -26q34 32 75 32q39 0 58 -27t19 -87q0 -12 -0.5 -62t-0.5 -80zM1341 745v-236q0 -56 -28.5 -78t-78.5 -22q-42 0 -89 20l5 36q49 -9 77 -9
q27 0 38.5 9.5t11.5 33.5v29q-33 -24 -64 -24q-41 0 -64.5 33t-23.5 83q0 68 35.5 102t94.5 34q42 0 86 -11zM1277 573v131q-13 6 -31 6q-25 0 -40 -21t-15 -59q0 -78 42 -78q19 0 44 21zM219 285h-76v-285h-67v285h-76v52h219v-52zM419 0h-50l-4 25q-38 -31 -76 -31
q-79 0 -79 72q0 40 33 63t97 23h15v19q0 38 -47 38q-31 0 -75 -14l-9 39q51 21 101 21q94 0 94 -77v-178zM355 62v51h-19q-63 0 -63 -39q0 -34 34 -34q24 0 48 22zM484 5v349h64v-124q33 26 63 26q43 0 66 -34t23 -87q0 -141 -132 -141q-40 0 -84 11zM548 185v-140
q12 -5 30 -5q25 0 40 21.5t15 64.5q0 80 -40 80q-21 0 -45 -21zM835 0h-68v337q15 0 48 0.5t51 0.5q125 0 125 -106q0 -119 -142 -119h-14v-113zM835 289v-126h20q65 0 65 63q0 32 -15 47.5t-50 15.5h-20zM1176 250l-8 -57q-13 4 -22 4q-18 0 -49 -38v-159h-64v250h53l5 -39
q34 44 61 44q13 0 24 -5zM1428 130q0 -67 -32 -101.5t-89 -34.5q-111 0 -111 126q0 68 31.5 102t89.5 34q111 0 111 -126zM1362 119q0 51 -12 70.5t-38 19.5q-50 0 -50 -78q0 -51 12 -70t38 -19q50 0 50 77zM1544 -87h-65v337h53l4 -25q38 31 70 31q43 0 66 -34t23 -87
q0 -71 -34 -106t-91 -35q-12 0 -26 2v-83zM1544 185v-140q13 -5 29 -5q56 0 56 86q0 80 -41 80q-20 0 -44 -21z" />
    <glyph glyph-name="H_a_n_g_P_r_o_p" horiz-adv-x="1054" 
d="M255 500h-68v148h-119v-148h-68v337h68v-133h119v133h68v-337zM515 500h-50l-4 25q-38 -31 -77 -31q-78 0 -78 72q0 40 32.5 63t96.5 23h16v19q0 38 -47 38q-31 0 -75 -14l-9 39q51 21 101 21q46 0 70 -20.5t24 -56.5v-178zM451 562v51h-19q-62 0 -62 -39q0 -34 33 -34
q24 0 48 22zM788 500h-65q0 28 1 73.5t1 57.5q0 42 -8.5 57.5t-26.5 15.5q-19 0 -46 -20v-184h-64v250h52l5 -26q34 32 76 32q38 0 57 -27t19 -87q0 -12 -0.5 -62t-0.5 -80zM1054 745v-236q0 -56 -28 -78t-78 -22q-43 0 -90 20l6 36q47 -9 76 -9q27 0 38.5 9.5t11.5 33.5v29
q-31 -24 -64 -24q-41 0 -64 33t-23 83q0 68 35 102t94 34q44 0 86 -11zM990 573v131q-14 6 -31 6q-25 0 -40 -21t-15 -59q0 -78 42 -78q21 0 44 21zM128 0h-68v337q15 0 47.5 0.5t50.5 0.5q125 0 125 -106q0 -119 -141 -119h-14v-113zM128 289v-126h20q64 0 64 63
q0 32 -15 47.5t-49 15.5h-20zM469 250l-8 -57q-15 4 -22 4q-18 0 -49 -38v-159h-64v250h53l5 -39q32 44 60 44q14 0 25 -5zM721 130q0 -67 -32 -101.5t-89 -34.5q-111 0 -111 126q0 68 31.5 102t88.5 34q112 0 112 -126zM654 119q0 51 -12 70.5t-37 19.5q-50 0 -50 -78
q0 -51 12 -70t38 -19q49 0 49 77zM836 -87h-64v337h52l5 -25q36 31 70 31q43 0 65.5 -34t22.5 -87q0 -71 -33.5 -106t-90.5 -35q-11 0 -27 2v-83zM836 185v-140q15 -5 30 -5q25 0 40.5 21.5t15.5 64.5q0 80 -41 80q-21 0 -45 -21z" />
    <glyph glyph-name="zero.oldstyle" horiz-adv-x="552" 
d="M512 291q0 -153 -62.5 -227.5t-178.5 -74.5q-122 0 -176.5 67.5t-54.5 222.5q0 305 242 305q118 0 174 -67t56 -226zM378 283q0 114 -26 159t-76 45t-76 -43.5t-26 -155.5q0 -113 24.5 -157t79.5 -44q50 0 75 45.5t25 150.5z" />
    <glyph glyph-name="one.oldstyle" horiz-adv-x="341" 
d="M265 0h-134v444l-97 -37l-31 84l161 81h101v-572z" />
    <glyph glyph-name="two.oldstyle" horiz-adv-x="448" 
d="M416 0h-396v100q148 124 192.5 180t44.5 109q0 88 -90 88q-56 0 -119 -22l-17 87q98 41 183 41q90 0 137.5 -45.5t47.5 -128.5q0 -75 -46.5 -137.5t-170.5 -162.5h234v-109z" />
    <glyph glyph-name="three.oldstyle" horiz-adv-x="441" 
d="M8 -72l8 76q61 -16 123 -16q122 0 122 110q0 52 -23.5 78t-80.5 26h-65v99h63q93 0 93 96q0 82 -91 82q-55 0 -113 -20l-16 86q80 38 163 38q97 0 145 -44t48 -118q0 -64 -27 -103.5t-69 -56.5q115 -30 115 -161q0 -97 -64.5 -155t-164.5 -58q-91 0 -166 41z" />
    <glyph glyph-name="four.oldstyle" horiz-adv-x="504" 
d="M224 572h188v-421h76v-107h-76v-148h-128v148h-268v99q103 244 208 429zM284 151v319h-2q-65 -123 -154 -319h156z" />
    <glyph glyph-name="five.oldstyle" horiz-adv-x="455" 
d="M377 462h-199l-10 -158q32 6 66 6q185 0 185 -188q0 -108 -65 -171.5t-174 -63.5q-81 0 -150 40l8 76q52 -15 113 -15q134 0 134 118q0 102 -117 102q-57 0 -117 -15l22 379h304v-110z" />
    <glyph glyph-name="six.oldstyle" horiz-adv-x="507" 
d="M451 645l-12 -74q-78 17 -132 17q-71 0 -101.5 -50t-33.5 -167q75 42 135 42q83 0 126.5 -46.5t43.5 -129.5q0 -117 -56 -182t-158 -65q-49 0 -85 13.5t-67.5 47.5t-48.5 102t-17 168q0 364 242 364q77 0 164 -40zM176 285v-5q0 -105 23 -150t70 -45q82 0 82 135
q0 93 -79 93q-44 0 -96 -28z" />
    <glyph glyph-name="seven.oldstyle" horiz-adv-x="428" 
d="M410 471l-118 -269q-81 -188 -161 -314l-89 30l222 544h-247v110h393v-101z" />
    <glyph glyph-name="eight.oldstyle" horiz-adv-x="516" 
d="M469 519q0 -56 -28 -94t-78 -69q55 -30 86.5 -71t31.5 -108q0 -85 -57.5 -136.5t-173.5 -51.5q-109 0 -162 46.5t-53 127.5q0 60 30 100t84 73q-103 61 -103 172q0 80 56.5 129t160.5 49q206 0 206 -167zM354 169q0 42 -28.5 68t-84.5 53q-79 -49 -79 -116
q0 -44 25 -68.5t74 -24.5q42 0 67.5 24t25.5 64zM171 518q0 -41 24.5 -67t71.5 -49q78 49 78 112q0 83 -88 83q-39 0 -62.5 -21.5t-23.5 -57.5z" />
    <glyph glyph-name="nine.oldstyle" horiz-adv-x="507" 
d="M40 -73l10 72q96 -17 152 -17q68 0 100 52t34 168q-75 -42 -135 -42q-83 0 -126 46.5t-43 129.5q0 117 56 182t158 65q38 0 68 -7.5t59 -29t48 -57.5t30.5 -96t11.5 -141q0 -367 -242 -367q-91 0 -181 42zM333 288v5q0 106 -23.5 150.5t-70.5 44.5q-82 0 -82 -135
q0 -48 19 -70.5t61 -22.5q43 0 96 28z" />
    <glyph glyph-name="H_a_n_g_T_a_b" horiz-adv-x="1054" 
d="M255 500h-68v148h-119v-148h-68v337h68v-133h119v133h68v-337zM515 500h-50l-4 25q-38 -31 -77 -31q-78 0 -78 72q0 40 32.5 63t96.5 23h16v19q0 38 -47 38q-31 0 -75 -14l-9 39q51 21 101 21q46 0 70 -20.5t24 -56.5v-178zM451 562v51h-19q-62 0 -62 -39q0 -34 33 -34
q24 0 48 22zM788 500h-65q0 28 1 73.5t1 57.5q0 42 -8.5 57.5t-26.5 15.5q-19 0 -46 -20v-184h-64v250h52l5 -26q34 32 76 32q38 0 57 -27t19 -87q0 -12 -0.5 -62t-0.5 -80zM1054 745v-236q0 -56 -28 -78t-78 -22q-43 0 -90 20l6 36q47 -9 76 -9q27 0 38.5 9.5t11.5 33.5v29
q-31 -24 -64 -24q-41 0 -64 33t-23 83q0 68 35 102t94 34q44 0 86 -11zM990 573v131q-14 6 -31 6q-25 0 -40 -21t-15 -59q0 -78 42 -78q21 0 44 21zM380 285h-75v-285h-68v285h-75v52h218v-52zM580 0h-49l-5 25q-36 -31 -76 -31q-78 0 -78 72q0 40 32.5 63t96.5 23h15v19
q0 38 -46 38q-30 0 -76 -14l-8 39q51 21 100 21q94 0 94 -77v-178zM516 62v51h-18q-63 0 -63 -39q0 -34 34 -34q25 0 47 22zM645 5v349h65v-124q32 26 62 26q43 0 66 -34t23 -87q0 -141 -132 -141q-40 0 -84 11zM710 185v-140q10 -5 30 -5q25 0 40 21.5t15 64.5q0 80 -41 80
q-20 0 -44 -21z" />
    <glyph glyph-name="zero.OnumTab" 
d="M471 293q0 -304 -228 -304q-112 0 -163 67t-51 223q0 304 227 304q112 0 163.5 -67t51.5 -223zM341 286q0 112 -21.5 156t-68.5 44q-49 0 -70.5 -44t-21.5 -156t21 -156t69 -44t70 44t22 156z" />
    <glyph glyph-name="one.OnumTab" 
d="M458 0h-397v109h136v335l-119 -39l-31 83l183 84h107v-463h121v-109z" />
    <glyph glyph-name="two.OnumTab" 
d="M459 0h-416v93q159 128 209.5 186.5t50.5 111.5q0 86 -97 86q-56 0 -143 -27l-16 87q117 46 197 46q98 0 149.5 -45.5t51.5 -128.5q0 -74 -49 -136.5t-178 -163.5h241v-109z" />
    <glyph glyph-name="three.OnumTab" 
d="M22 -67l9 75q83 -19 149 -19q133 0 133 108q0 53 -28 79t-95 26h-74v99h71q111 0 111 96q0 82 -98 82q-68 0 -141 -25l-16 85q100 44 192 44q101 0 150 -44.5t49 -119.5q0 -60 -27.5 -100t-71.5 -58q119 -27 119 -161q0 -104 -68 -158.5t-177 -54.5q-91 0 -187 46z" />
    <glyph glyph-name="four.OnumTab" 
d="M225 572h187v-421h66v-107h-66v-148h-128v148h-265v97q99 236 206 431zM284 151l1 313h-3q-76 -146 -151 -313h153z" />
    <glyph glyph-name="five.OnumTab" 
d="M409 462h-230l-10 -159q37 7 80 7q103 0 155.5 -49.5t52.5 -144.5q0 -108 -66.5 -168.5t-184.5 -60.5q-86 0 -183 47l10 74q83 -19 151 -19q139 0 139 116q0 52 -29.5 77.5t-96.5 25.5q-66 0 -145 -17l23 381h334v-110z" />
    <glyph glyph-name="six.OnumTab" 
d="M446 645l-12 -74q-76 17 -131 17q-71 0 -102 -50.5t-33 -166.5q74 42 135 42q165 0 165 -176q0 -118 -57.5 -182.5t-156.5 -64.5q-37 0 -66 7.5t-57.5 29.5t-47.5 57.5t-30.5 95.5t-11.5 141q0 364 242 364q77 0 163 -40zM171 285v-5q0 -106 22 -150.5t69 -44.5
q80 0 80 135q0 93 -79 93q-40 0 -92 -28z" />
    <glyph glyph-name="seven.OnumTab" 
d="M469 471l-129 -273q-76 -163 -173 -310l-89 32l238 542h-282v110h435v-101z" />
    <glyph glyph-name="eight.OnumTab" 
d="M459 519q0 -56 -28.5 -94t-78.5 -68q56 -30 87.5 -71t31.5 -109q0 -85 -57 -136.5t-172 -51.5q-109 0 -161 46.5t-52 127.5q0 60 30.5 100t85.5 73q-104 64 -104 172q0 80 55.5 129t158.5 49q204 0 204 -167zM344 169q0 42 -28 68t-84 54q-76 -48 -76 -117
q0 -44 24.5 -68.5t72.5 -24.5q43 0 67 23.5t24 64.5zM166 518q0 -41 24 -67t70 -49q74 48 74 112q0 83 -84 83q-39 0 -61.5 -21.5t-22.5 -57.5z" />
    <glyph glyph-name="nine.OnumTab" 
d="M39 -73l10 72q96 -17 147 -17q69 0 101.5 51.5t35.5 168.5q-75 -42 -135 -42q-165 0 -165 176q0 118 57 182.5t156 64.5q37 0 66.5 -7.5t58 -29t47.5 -57.5t30.5 -96t11.5 -141q0 -195 -66 -281t-176 -86q-89 0 -179 42zM158 353q0 -48 19 -70.5t61 -22.5q39 0 91 28v5
q0 106 -22 150.5t-68 44.5q-81 0 -81 -135z" />
    <glyph glyph-name="L_i_n_P_r_o_p" horiz-adv-x="927" 
d="M351 500h-166v337h68v-285h98v-52zM462 817q0 -19 -8 -26.5t-30 -7.5q-23 0 -31 7t-8 27q0 18 8 25.5t31 7.5t30.5 -7t7.5 -26zM456 500h-65v250h65v-250zM729 500h-64q0 28 0.5 73.5t0.5 57.5q0 42 -8 57.5t-26 15.5q-19 0 -47 -20v-184h-64v250h53l5 -26q34 32 76 32
q38 0 57 -27t19 -87q0 -12 -1 -62t-1 -80zM68 0h-68v337q15 0 47.5 0.5t50.5 0.5q125 0 125 -106q0 -119 -141 -119h-14v-113zM68 289v-126h20q64 0 64 63q0 32 -15 47.5t-49 15.5h-20zM409 250l-8 -57q-15 4 -22 4q-18 0 -49 -38v-159h-64v250h53l5 -39q32 44 60 44
q14 0 25 -5zM660 130q0 -68 -31.5 -102t-89.5 -34q-110 0 -110 126q0 68 31.5 102t88.5 34q111 0 111 -126zM594 119q0 51 -12 70.5t-38 19.5q-49 0 -49 -78q0 -51 12 -70t38 -19q49 0 49 77zM776 -87h-64v337h52l5 -25q36 31 70 31q43 0 65.5 -34t22.5 -87
q0 -71 -33.5 -106t-90.5 -35q-11 0 -27 2v-83zM776 185v-140q15 -5 30 -5q25 0 40.5 21.5t15.5 64.5q0 80 -41 80q-21 0 -45 -21z" />
    <glyph glyph-name="zero.LinProp" horiz-adv-x="579" 
d="M543 343q0 -353 -260 -353q-126 0 -186.5 78.5t-60.5 263.5q0 353 260 353q126 0 186.5 -78.5t60.5 -263.5zM404 335q0 138 -28.5 194.5t-85.5 56.5q-58 0 -86.5 -55t-28.5 -191q0 -138 28.5 -194.5t85.5 -56.5t86 55t29 191z" />
    <glyph glyph-name="one.LinProp" horiz-adv-x="344" 
d="M268 0h-137v541l-103 -43l-24 92l160 85h104v-675z" />
    <glyph glyph-name="two.LinProp" horiz-adv-x="476" 
d="M436 0h-416v111q148 155 202.5 233.5t54.5 135.5q0 94 -94 94q-56 0 -132 -28l-23 88q98 51 201 51q88 0 140.5 -44.5t52.5 -139.5q0 -83 -53 -166t-195 -219h262v-116z" />
    <glyph glyph-name="three.LinProp" horiz-adv-x="458" 
d="M8 28l9 83q71 -17 138 -17q124 0 124 111q0 51 -26 76t-90 25h-84v98h78q108 0 108 96q0 85 -103 85q-67 0 -124 -19l-17 82q80 37 177 37q102 0 152.5 -44t50.5 -116q0 -120 -108 -162q54 -10 90.5 -48.5t36.5 -111.5q0 -105 -62 -159t-164 -54q-110 0 -186 38z" />
    <glyph glyph-name="four.LinProp" horiz-adv-x="510" 
d="M494 147h-76v-147h-128v147h-274v99q97 223 214 429h188v-421h76v-107zM290 254v319h-2q-72 -133 -160 -319h162z" />
    <glyph glyph-name="five.LinProp" horiz-adv-x="471" 
d="M387 565h-210l-9 -153q33 5 65 5q201 0 201 -193q0 -111 -63 -172.5t-168 -61.5q-98 0 -175 37l9 83q72 -16 135 -16q128 0 128 117q0 106 -125 106q-59 0 -124 -17l22 375h314v-110z" />
    <glyph glyph-name="six.LinProp" horiz-adv-x="512" 
d="M450 645l-12 -74q-78 17 -132 17q-69 0 -100.5 -49.5t-34.5 -167.5q75 42 140 42q83 0 125.5 -46.5t42.5 -129.5q0 -117 -57 -182t-158 -65q-50 0 -86.5 13.5t-68.5 47.5t-48.5 102t-16.5 168q0 364 241 364q78 0 165 -40zM175 285v-5q0 -105 23 -150t70 -45
q42 0 64 35.5t22 95.5q0 97 -83 97q-43 0 -96 -28z" />
    <glyph glyph-name="seven.LinProp" horiz-adv-x="439" 
d="M421 574l-122 -270q-81 -176 -164 -315l-93 30l234 546h-259v110h404v-101z" />
    <glyph glyph-name="eight.LinProp" horiz-adv-x="525" 
d="M478 519q0 -57 -29 -95t-81 -69q58 -30 90.5 -70.5t32.5 -105.5q0 -87 -57.5 -138.5t-179.5 -51.5q-220 0 -220 174q0 59 32.5 99t90.5 74q-52 30 -81.5 70t-29.5 102q0 80 57 129t165 49q210 0 210 -167zM361 169q0 42 -28.5 68.5t-83.5 52.5q-85 -51 -85 -116
q0 -93 102 -93q45 0 70 23.5t25 64.5zM173 515q0 -39 25 -65.5t72 -48.5q81 51 81 112q0 84 -90 84q-41 0 -64.5 -22t-23.5 -60z" />
    <glyph glyph-name="nine.LinProp" horiz-adv-x="512" 
d="M39 33l13 77q91 -22 159 -22q61 0 94 50t36 167q-76 -43 -141 -43q-82 0 -124.5 47t-42.5 130q0 117 57 181.5t158 64.5q50 0 86 -13t68 -47.5t48.5 -102t16.5 -167.5q0 -365 -241 -365q-92 0 -187 43zM337 390v6q0 105 -23 149.5t-71 44.5q-42 0 -63.5 -35t-21.5 -96
q0 -97 83 -97q43 0 96 28z" />
    <glyph glyph-name="L_i_n_T_a_b" horiz-adv-x="700" 
d="M236 500h-166v337h68v-285h98v-52zM347 817q0 -19 -8 -26.5t-30 -7.5q-23 0 -31 7t-8 27q0 18 8 25.5t31 7.5t30.5 -7t7.5 -26zM341 500h-65v250h65v-250zM614 500h-64q0 28 0.5 73.5t0.5 57.5q0 42 -8 57.5t-26 15.5q-19 0 -47 -20v-184h-64v250h53l5 -26q34 32 76 32
q38 0 57 -27t19 -87q0 -12 -1 -62t-1 -80zM219 285h-76v-285h-67v285h-76v52h219v-52zM419 0h-50l-4 25q-38 -31 -76 -31q-79 0 -79 72q0 40 33 63t97 23h15v19q0 38 -47 38q-31 0 -75 -14l-9 39q51 21 101 21q94 0 94 -77v-178zM355 62v51h-19q-63 0 -63 -39q0 -34 34 -34
q24 0 48 22zM484 5v349h64v-124q33 26 63 26q43 0 66 -34t23 -87q0 -141 -132 -141q-40 0 -84 11zM548 185v-140q12 -5 30 -5q25 0 40 21.5t15 64.5q0 80 -40 80q-21 0 -45 -21z" />
    <glyph glyph-name="zero.LinTab" 
d="M467 346q0 -193 -56 -275t-167 -82q-113 0 -162.5 76.5t-49.5 265.5t54.5 272t167.5 83t163 -75t50 -265zM336 337q0 143 -19.5 198t-66.5 55t-67 -54t-20 -193q0 -146 19.5 -201t67.5 -55q47 0 66.5 55.5t19.5 194.5z" />
    <glyph glyph-name="one.LinTab" 
d="M337 116h121v-116h-397v116h136v428l-119 -44l-31 87l183 88h107v-559z" />
    <glyph glyph-name="two.LinTab" 
d="M459 0h-423v111q156 164 208.5 238t52.5 131q0 95 -99 95q-51 0 -139 -30l-23 88q109 53 208 53q87 0 142 -44.5t55 -140.5q0 -82 -53.5 -165t-198.5 -220h270v-116z" />
    <glyph glyph-name="three.LinTab" 
d="M24 30l10 82q89 -19 153 -19q128 0 128 110q0 49 -26.5 75t-90.5 26h-85v99h80q56 0 81.5 23t25.5 71q0 86 -103 86q-63 0 -136 -26l-17 86q97 43 191 43q102 0 151 -45.5t49 -120.5q0 -116 -98 -157q50 -11 84.5 -51t34.5 -104q0 -106 -68 -162.5t-174 -56.5
q-97 0 -190 41z" />
    <glyph glyph-name="four.LinTab" 
d="M226 675h186v-413h66v-113h-66v-149h-128v149h-265v103q99 230 207 423zM284 262v304h-2q-61 -115 -151 -304h153z" />
    <glyph glyph-name="five.LinTab" 
d="M409 675v-110h-230l-10 -155q47 6 79 6q104 0 156.5 -46.5t52.5 -147.5q0 -110 -68.5 -171.5t-178.5 -61.5q-98 0 -186 40l10 83q83 -19 146 -19q144 0 144 117q0 52 -29 78t-97 26q-71 0 -146 -17l23 378h334z" />
    <glyph glyph-name="six.LinTab" 
d="M446 645l-12 -74q-76 17 -131 17q-70 0 -101.5 -49.5t-34.5 -167.5q75 42 137 42q163 0 163 -176q0 -118 -57 -182.5t-156 -64.5q-47 0 -82.5 13.5t-67 47.5t-48 102t-16.5 168q0 364 244 364q87 0 162 -40zM171 285v-5q0 -106 22 -150.5t68 -44.5q81 0 81 132
q0 50 -19 73t-59 23q-41 0 -93 -28z" />
    <glyph glyph-name="seven.LinTab" 
d="M471 574l-131 -277q-79 -169 -173 -308l-89 33l239 543h-283v110h437v-101z" />
    <glyph glyph-name="eight.LinTab" 
d="M456 519q0 -99 -102 -163q54 -29 84.5 -69.5t30.5 -107.5q0 -87 -56 -138.5t-171 -51.5q-109 0 -160.5 47t-51.5 130q0 58 30.5 98.5t83.5 73.5q-101 61 -101 170q0 80 54.5 129t157.5 49q201 0 201 -167zM344 169q0 42 -27.5 68.5t-80.5 52.5q-80 -50 -80 -116
q0 -44 24.5 -68.5t72.5 -24.5q43 0 67 23.5t24 64.5zM168 515q0 -40 23 -65.5t65 -47.5q76 48 76 107q0 88 -83 88q-38 0 -59.5 -22t-21.5 -60z" />
    <glyph glyph-name="nine.LinTab" 
d="M39 31l10 73q88 -17 155 -17q64 0 95 50.5t34 167.5q-77 -43 -137 -43q-163 0 -163 177q0 118 57 182t156 64q37 0 66.5 -7.5t58 -29t47.5 -57.5t30.5 -95.5t11.5 -140.5q0 -365 -241 -365q-98 0 -180 41zM329 390v6q0 105 -22 149.5t-68 44.5q-81 0 -81 -131
q0 -50 19 -73.5t59 -23.5q41 0 93 28z" />
    <glyph glyph-name="S_u_p" horiz-adv-x="754" 
d="M220 596q0 -44 -31.5 -72.5t-86.5 -28.5t-102 32l16 35q44 -18 73 -18q56 0 56 44q0 21 -22 37.5t-48.5 26.5t-48.5 34.5t-22 60.5q0 43 30.5 69t78.5 26q49 0 89 -27l-15 -35q-36 13 -63 13q-48 0 -48 -38q0 -18 15 -31.5t36 -23.5t42 -21.5t36 -32.5t15 -50zM473 500
h-53l-4 26q-37 -32 -76 -32t-57.5 27t-18.5 87q0 12 0.5 62t0.5 80h64q0 -28 -0.5 -73.5t-0.5 -57.5q0 -42 8 -57.5t26 -15.5q19 0 47 20v184h64v-250zM603 413h-64v337h52l5 -25q34 31 69 31q43 0 66 -34t23 -87q0 -71 -33.5 -106t-91.5 -35q-10 0 -26 2v-83zM603 685v-140
q13 -5 30 -5q25 0 40 21.5t15 64.5q0 80 -41 80q-20 0 -44 -21z" />
    <glyph glyph-name="a.superior" horiz-adv-x="371" 
d="M331 354h-86l-8 35q-49 -41 -98 -41q-53 0 -85 26.5t-32 73.5q0 102 187 102h15v18q0 24 -13.5 34.5t-46.5 10.5q-51 0 -114 -17l-13 56q73 31 151 31q77 0 110 -26.5t33 -78.5v-224zM224 434v63h-22q-41 0 -58.5 -10.5t-17.5 -34.5q0 -19 12.5 -30.5t32.5 -11.5
q26 0 53 24z" />
    <glyph glyph-name="b.superior" horiz-adv-x="380" 
d="M356 527q0 -182 -186 -182q-56 0 -128 14v444h107v-154q39 31 82 31q63 0 94 -42.5t31 -110.5zM248 512q0 93 -49 93q-25 0 -50 -19v-168q15 -5 33 -5q34 0 50 23.5t16 75.5z" />
    <glyph glyph-name="c.superior" horiz-adv-x="302" 
d="M285 392q-49 -47 -121 -47q-140 0 -140 168q0 74 42 122t109 48q65 0 105 -42l-39 -52q-24 20 -49 20q-58 0 -58 -90q0 -52 14.5 -74.5t45.5 -22.5q29 0 60 23z" />
    <glyph glyph-name="d.superior" horiz-adv-x="381" 
d="M339 354h-87l-8 35q-48 -41 -95 -41q-62 0 -93 45t-31 114q0 88 48.5 130.5t131.5 42.5q5 0 14.5 -0.5t12.5 -0.5v126h107v-451zM232 442v168q-18 4 -34 4q-66 0 -66 -98q0 -94 49 -94q25 0 51 20z" />
    <glyph glyph-name="e.superior" horiz-adv-x="361" 
d="M335 494h-203v-3q0 -38 16 -55t50 -17q44 0 121 20l13 -57q-72 -35 -144 -35q-84 0 -124 36t-40 125q0 83 44 128t119 45q79 0 117.5 -41.5t30.5 -145.5zM236 548v1q0 72 -51 72q-53 0 -53 -73h104z" />
    <glyph glyph-name="f.superior" horiz-adv-x="214" 
d="M241 793l-13 -60q-24 8 -41 8q-16 0 -22 -7.5t-6 -24.5v-37h55v-68h-55v-250h-107v250h-39v68h39v35q0 52 24 79.5t81 27.5q38 0 84 -21z" />
    <glyph glyph-name="g.superior" horiz-adv-x="381" 
d="M339 367q0 -73 -42 -101.5t-115 -28.5q-56 0 -129 30l8 51q60 -13 112 -13q59 0 59 49v38q-43 -31 -83 -31q-62 0 -93 41.5t-31 107.5q0 86 48.5 128t131.5 42q64 0 134 -14v-299zM232 452v158q-20 4 -34 4q-66 0 -66 -95q0 -88 49 -88q25 0 51 21z" />
    <glyph glyph-name="h.superior" horiz-adv-x="387" 
d="M348 536q0 -15 -1 -78.5t-1 -103.5h-106q0 38 0.5 100t0.5 75q0 43 -9 59.5t-29 16.5q-27 0 -54 -22v-229h-107v451h107v-156q45 31 91 31q57 0 82.5 -34t25.5 -110z" />
    <glyph glyph-name="i.superior" horiz-adv-x="192" 
d="M156 760q0 -25 -13 -35.5t-46 -10.5q-35 0 -47 10t-12 36t12.5 36.5t46.5 10.5t46.5 -10t12.5 -37zM151 354h-109v319h109v-319z" />
    <glyph glyph-name="j.superior" horiz-adv-x="192" 
d="M151 673v-285q0 -87 -81 -148l-71 28q43 53 43 103v302h109zM156 760q0 -25 -13 -35.5t-46 -10.5q-35 0 -47 10t-12 36t12.5 36.5t46.5 10.5t46.5 -10t12.5 -37z" />
    <glyph glyph-name="k.superior" horiz-adv-x="363" 
d="M354 354h-119l-80 150h-5v-150h-108v451h108v-251h5l71 119h118l-89 -133z" />
    <glyph glyph-name="l.superior" horiz-adv-x="205" 
d="M191 357q-27 -8 -66 -8q-45 0 -64 17.5t-19 65.5v373h108v-353q0 -22 4.5 -29t18.5 -7q10 0 14 1z" />
    <glyph glyph-name="m.superior" horiz-adv-x="576" 
d="M537 534q0 -14 -1.5 -77t-1.5 -103h-106q0 38 1 95.5t1 70.5q0 48 -9.5 66.5t-29.5 18.5q-25 0 -53 -25q3 -15 3 -43v-183h-105v175q0 41 -8.5 58.5t-27.5 17.5q-24 0 -51 -22v-229h-107v319h86l8 -35q50 42 103 42q34 0 52.5 -11t33.5 -33q49 44 105 44t81.5 -34
t25.5 -112z" />
    <glyph glyph-name="o.superior" horiz-adv-x="380" 
d="M357 520q0 -85 -45.5 -129.5t-128.5 -44.5q-80 0 -120 38t-40 124q0 85 44.5 129.5t127.5 44.5q81 0 121.5 -38t40.5 -124zM249 506q0 60 -15 82.5t-44 22.5q-60 0 -60 -90q0 -61 15 -82.5t45 -21.5q59 0 59 89z" />
    <glyph glyph-name="p.superior" horiz-adv-x="381" 
d="M356 527q0 -93 -47 -137.5t-132 -44.5q-24 0 -28 1v-103h-107v430h86l8 -35q50 42 95 42q63 0 94 -42.5t31 -110.5zM248 512q0 93 -49 93q-25 0 -50 -19v-168q15 -5 33 -5q34 0 50 23.5t16 75.5z" />
    <glyph glyph-name="q.superior" horiz-adv-x="381" 
d="M339 243h-107v136q-46 -31 -83 -31q-62 0 -93 45t-31 114q0 88 48.5 130.5t131.5 42.5q64 0 134 -14v-423zM232 442v168q-20 4 -34 4q-66 0 -66 -98q0 -94 49 -94q25 0 51 20z" />
    <glyph glyph-name="r.superior" horiz-adv-x="264" 
d="M255 673l-11 -85q-20 5 -33 5q-24 0 -62 -42v-197h-107v319h87l9 -50q47 57 83 57q15 0 34 -7z" />
    <glyph glyph-name="s.superior" horiz-adv-x="313" 
d="M291 452q0 -45 -40 -74.5t-109 -29.5q-70 0 -114 26l9 50q55 -11 85 -11q55 0 55 30q0 14 -11 23t-44 19q-49 15 -69.5 37t-20.5 62q0 44 36 69.5t95 25.5q61 0 106 -22l-11 -51q-46 12 -72 12q-42 0 -42 -26q0 -14 10 -22.5t40 -17.5q53 -17 75 -40t22 -60z" />
    <glyph glyph-name="t.superior" horiz-adv-x="244" 
d="M234 365q-43 -22 -92 -22t-70.5 19t-21.5 63v179h-41v69h46q20 76 23 97h80v-97h66v-69h-66v-155q0 -18 5.5 -24.5t17.5 -6.5q20 0 44 6z" />
    <glyph glyph-name="u.superior" horiz-adv-x="387" 
d="M345 354h-86l-8 35q-50 -42 -104 -42q-57 0 -82.5 34t-25.5 110q0 15 1 78.5t1 103.5h106q0 -37 -0.5 -96.5t-0.5 -78.5q0 -43 9 -59.5t29 -16.5q28 0 54 23v228h107v-319z" />
    <glyph glyph-name="v.superior" horiz-adv-x="343" 
d="M333 673q-19 -158 -91 -319h-148l-90 319h113l45 -159l13 -74h2q41 134 49 233h107z" />
    <glyph glyph-name="w.superior" horiz-adv-x="531" 
d="M520 673q-12 -131 -79 -319h-128l-43 164l-8 48h-2l-8 -50l-40 -162h-125l-83 319h108l39 -159l12 -60h3l10 58l37 161h113l45 -165l11 -53h3q29 113 40 218h95z" />
    <glyph glyph-name="x.superior" horiz-adv-x="344" 
d="M336 354h-116l-53 110h-1q-34 -58 -55 -110h-103l89 166l-81 153h115l44 -97h2q18 30 47 97h100l-79 -143z" />
    <glyph glyph-name="y.superior" horiz-adv-x="347" 
d="M336 673q-28 -221 -103 -329t-166 -108q-24 0 -58 17v58q24 -3 37 -3q27 0 41 14q18 18 18 33t-22 78l-76 240h113l44 -156q16 -57 16 -91h2q37 102 47 247h107z" />
    <glyph glyph-name="z.superior" horiz-adv-x="293" 
d="M273 427l-5 -73h-241v63l110 184h-106l3 72h228v-62l-113 -183z" />
    <glyph glyph-name="period.superior" horiz-adv-x="212" 
d="M167 406q0 -37 -12 -49.5t-49 -12.5q-38 0 -49 11.5t-11 49.5q0 36 12 48.5t49 12.5q38 0 49 -11.5t11 -48.5z" />
    <glyph glyph-name="comma.superior" horiz-adv-x="212" 
d="M62 235l-41 38q52 40 52 70q0 10 -13 24t-13 37q0 37 11.5 49.5t50.5 12.5q35 0 46.5 -13.5t11.5 -48.5q0 -102 -105 -169z" />
    <glyph glyph-name="I_n_f" horiz-adv-x="546" 
d="M68 0h-68v337h68v-337zM345 0h-64q0 28 1 73.5t1 57.5q0 42 -8.5 57.5t-26.5 15.5q-19 0 -46 -20v-184h-64v250h52l5 -26q34 32 75 32q39 0 58 -27t19 -87q0 -12 -1 -61.5t-1 -80.5zM546 344l-10 -36q-17 5 -29 5q-27 0 -27 -31v-32h45v-45h-45v-205h-64v205h-32v45h32
v30q0 80 70 80q30 0 60 -16z" />
    <glyph glyph-name="period.inferior" horiz-adv-x="212" 
d="M167 -12q0 -37 -12 -49.5t-49 -12.5q-38 0 -49 11.5t-11 49.5q0 36 12 48.5t49 12.5q38 0 49 -11.5t11 -48.5z" />
    <glyph glyph-name="comma.inferior" horiz-adv-x="212" 
d="M62 -183l-41 38q52 40 52 70q0 10 -13 24t-13 37q0 37 11.5 49.5t50.5 12.5q35 0 46.5 -13.5t11.5 -48.5q0 -102 -105 -169z" />
    <glyph glyph-name="designer" horiz-adv-x="1000" 
d="M784 88q-6 -9 -21.5 -11.5t-19.5 -6.5q-36 -4 -43 -28q-3 -9 -10.5 -24.5t-11 -29.5t-1.5 -28q3 -12 21 -6q1 0 4.5 4t6.5 2q2 -3 1.5 -4t-2.5 -4t-3 -5q-17 -13 -30 -5q-15 18 -11 36q4 20 28 74q-7 5 -24.5 0.5t-25.5 -0.5q5 8 22 14q4 1 13.5 1t16 2.5t10.5 10.5t4 22
v24q-4 1 -4 12q-2 5 -5.5 9.5t-6 7.5t-7.5 5t-8 3t-9.5 2t-8 1t-9 0.5t-8.5 0.5q-17 -1 -33 -16.5t-23 -35.5q-10 -29 2 -65q-2 -13 9.5 -42.5t4.5 -49.5q-7 -7 -21 -1q-6 4 -9 11.5t-5 21.5t-3 17q4 4 5 17.5t4 17.5q5 18 -5 24q-5 -1 -19 -1.5t-23 -3t-16 -9.5
q4 -19 3 -44.5t-15 -37.5q-9 -3 -19 4q-4 4 -6 10.5t-2 10.5t0.5 13t0.5 12q1 4 4.5 12.5t5.5 13.5t5 11t7.5 10.5t9.5 6.5q8 -6 27 1l39 1q3 3 3.5 13t1.5 13q7 30 26 52t43 24q32 4 51 -8q1 -7 9 -13t9 -13q8 -16 1 -68q17 0 70 12zM459 68q-4 -4 -13 2t-14 2
q-8 -7 -11.5 -24.5t-7.5 -23.5q0 -8 -3 -25.5t-3 -26.5q-8 -5 -11 -4q-5 2 -3 18t2 18q4 6 4 22t3 22q-2 4 -2.5 14t-0.5 11q-2 1 -6 -2t-6 1q1 10 11 18q8 0 15 -18q3 1 8 8.5t8 9t10 -3.5zM352 113q0 -20 1.5 -73t0.5 -80t-11 -64.5t-31 -63.5q-53 -41 -116 -19
q-10 7 -10 14q4 29 18 34q-8 -23 -10 -33q22 -15 50 -12.5t51 17.5q14 6 21 17.5t13.5 34t8.5 27.5q7 57 5 146q2 7 0.5 24t-0.5 24q-1 5 -10 1q-4 -5 -8.5 -17t-8.5 -16q1 -10 -8.5 -20t-9.5 -18q-22 -30 -58 -94q-1 -2 -2 -5t-2 -5t-2.5 -4t-3.5 -2.5t-4 -0.5
q-6 5 -4 29.5t1 31.5q13 56 21 70q18 59 52 86q2 3 7 1.5t6.5 -1.5t6.5 -3t6 -4t5.5 -4.5t5.5 -4.5q6 9 10 24q9 -4 9 -20q-3 -2 -1 -8t1 -9zM611 331q-11 -2 -49.5 -16t-61.5 -12q-8 -9 -4 -30q3 -17 15 -12q1 1 3 10t6 11q6 -15 -6 -33q-4 -1 -12 -2t-14.5 12.5t-3.5 38.5
q-7 9 -4 14q5 5 7.5 12t3 18.5t1.5 15.5q-1 0 -2 2l-2 2q-10 -9 -21.5 -32t-16.5 -29q0 -9 -10 -23.5t-8 -25.5q-2 -2 -3 -15.5t-9 -14.5q-9 3 -11.5 10t-1 19.5t0.5 16.5q-2 13 0.5 35t1.5 33q-6 -4 -10.5 -16t-6.5 -15q-1 -2 -8.5 -17.5t-14 -21t-16.5 -2.5q-12 23 10 72
q2 2 7.5 11t8.5 12t10 7.5t12 -0.5q4 -3 8 0q12 34 16 90l8 8q6 -2 6 -6.5t-2.5 -11t-1.5 -10.5q-1 -10 -6.5 -49.5t-6.5 -60.5q0 -6 -2 -19.5t-2 -19t2 -19.5q3 5 21 40.5t32 51.5q10 18 26 30q4 -4 12 -14t12 -14v-40q7 2 36 9t45 13q7 -5 6 -13zM877 703q-6 77 -48 101
q4 7 8 8t8.5 -3t7 -7.5t7 -11t5.5 -8.5q46 -69 9 -182q-26 -78 -83 -108q26 24 38 48q35 43 39 80q13 26 9 83zM805 602q-6 -21 -19 -25q-7 3 -16 17l2 14q2 -1 3 -7.5t5 -8.5q6 -2 13 11q7 50 -12 87l-5 -3q-2 -3 -10.5 -12.5t-13 -16.5t-8.5 -16l-6 -4q-7 -8 -18.5 -28
t-18.5 -28q-6 -1 -8 3t-3 11.5t-2 10.5q2 10 -3 17q-3 1 -5 -4t-3 -6q-12 -15 -25 -16q-11 4 -12.5 12t1.5 22.5t3 21.5q4 19 27 50q2 0 8 3t9.5 3.5t8 -1t7.5 -7.5l4 -6q-4 -13 -9 -72q3 -10 6 -10q7 0 12 11t7 13q24 26 62 78q8 -3 9.5 -20.5t3.5 -21.5q4 -3 2 -8
q9 -24 4 -64zM696 798q-7 -16 -19 -14q-3 13 -9 6q-62 -60 -75 -108q-15 -115 27 -156q4 -4 10 -5.5t14.5 -1t11.5 0.5q4 3 9 9t8 8q1 -5 -1.5 -9t-8 -8t-7.5 -6q-26 -13 -49 12q-18 21 -22 46q-5 3 -3 11t-2 11q2 4 -0.5 14t0.5 16q0 93 91 182q2 0 5.5 1t6.5 1.5t6 0.5
t5 -3t2 -8zM550 620q-6 -17 -18.5 -29.5t-27.5 -12.5q-35 0 -51 32q-8 17 -4 50q1 5 6 14.5t5 15.5q24 24 52 12q1 -1 3 -2.5t3 -2t1.5 -2.5t0.5 -5q-2 -2 -3.5 -1t-4 3t-4.5 2q-22 7 -40 -16q-16 -33 -8 -55q17 -30 43 -34q1 1 13 3.5t17 10.5q3 2 5.5 8t5 9t6.5 0z
M427 592q-2 -5 -5 -15t-6 -18t-7 -15q-9 -5 -17 10q-13 36 -8 75q-1 1 0.5 24.5t-1.5 30.5q-5 -15 -6 -58t-16 -62q-2 -3 -8 -4t-14 9t-11 33q2 14 4 38t3 34q0 2 -2 14.5t3 13.5q6 3 11 -4q0 -15 -2 -40.5t-2 -44.5t5 -31q7 -6 10 -0.5t4 16t3 12.5q2 10 2.5 39.5t4.5 44.5
q1 2 2.5 6t2.5 6.5t3.5 5.5t4.5 2.5t6 -2.5q7 -26 5.5 -76t4.5 -76q1 -3 4 -4t5 3l2 9q3 8 7 16t8 8zM302 562q-12 -12 -67 -17q-57 -6 -102 -25q-5 -13 -22 -2q-1 7 5.5 13.5t7.5 10.5q9 24 15 48q-1 4 7 26q45 132 59 208q-2 15 3 21q3 1 4.5 0t3 -4.5t2.5 -4.5
q-8 -56 -40.5 -152.5t-41.5 -139.5l2 -2q11 2 36.5 8t44 9.5t37.5 3.5q25 -6 44 3zM591 -32q8 23 -8 54q-5 -8 -7 -27q5 -25 15 -27zM495 49l-11 -19q-6 -29 -1 -46q6 -8 14 1q9 8 4 22q10 38 -6 42zM324 116q-3 10 -12.5 13t-16.5 -2q-23 -25 -32 -40q-3 -12 -12.5 -37.5
t-14 -45.5t-2.5 -40q1 0 5 4q9 14 29.5 43.5t34.5 54t21 50.5zM505 330q9 21 -1 24l-4 -29q3 1 5 5zM396 332l-1 20q-10 3 -19 -14q-24 -40 -16 -63q5 -3 8 7q19 23 28 50zM688 697q-2 3 -5 -0.5t-4 -2.5q-32 -20 -30 -80q3 -1 9 4t10 4q2 5 10 19t9.5 21t-3.5 22q4 0 4 13z
" />
    <glyph glyph-name="FoFa" horiz-adv-x="960" 
d="M771 -58l-4 -4q-13 1 -47.5 -2.5t-49.5 -1.5q-31 1 -104 -3.5t-113 -0.5q-24 -4 -96 3q-13 1 -121 1q-68 0 -100 -8q-12 -2 -15 4q0 4 -1 19.5t0 26t4 19.5q1 10 1 37.5t2 42.5q-3 15 -1 44.5t0 44.5q0 25 3 71.5t4 59.5q2 26 1 71.5t0 71.5q3 6 13.5 6t12.5 1
q2 -4 18.5 -2.5t18.5 1.5q12 12 13 1q1 -1 0.5 -6t2.5 -6q-1 -37 -1 -54.5t3.5 -74t4.5 -72.5q22 7 59 28t57 28q3 1 9.5 5.5t11.5 6.5q8 4 10 3q3 -1 4 -3.5t0 -7.5t-1 -6q-10 -29 -5 -61q1 -2 3 -2.5t3.5 0t4 1t3.5 0.5q6 5 17.5 12t16.5 10q25 15 41 21q36 25 48 29
l20 16q1 4 6 7q3 0 11 -6q0 -9 3 -28t3 -29q1 -2 3.5 -2.5t2.5 -1.5q3 -4 -2 -20l2 -2q23 5 61 32t60 32q3 3 10.5 6t11.5 7q3 0 16 9.5t22 2.5q6 0 7 -4q-1 -3 4 -12q-1 -4 0 -14t-2 -13q0 -5 -0.5 -16t0.5 -18.5t5 -13.5q-1 -4 2.5 -12.5t-0.5 -10.5q2 -25 4 -27
q2 -14 -1 -18q1 -5 2.5 -21t4.5 -25v-16q0 -26 6 -74.5t6 -72.5l1 -4q1 -4 0 -5zM458 30q3 5 4.5 10t1.5 10.5t0.5 9.5t-0.5 11t-1.5 10t-2.5 11.5t-2 10.5q1 4 -4.5 7.5t-12.5 7t-8 4.5q-6 6 -8 -1q-11 1 -19 -4q-4 -2 -8 -8t-6 -7q-5 -3 -9 3q5 24 -3 74l-2 7h-8
q-4 -1 -6 -4.5t-2 -6.5v-7.5t-1 -6.5q-2 -11 -2 -34t-2 -34q1 -11 0 -32.5t0 -31.5q0 -5 -1.5 -17t-0.5 -19q9 -5 31 5q8 2 10.5 0.5t6.5 -7t7 -7.5q8 0 13 1q12 7 24 20.5t11 24.5zM452 664q-12 -13 -29 -8q-13 18 -14 24q-6 9 -16 16t-18 9t-23 5.5t-21 5.5l-31 2
q-2 -2 -6.5 -1.5t-6.5 -0.5q-33 -10 -55 -21q-1 -2 -13.5 -11.5t-13.5 -18.5q-9 -22 -11 -70q0 -3 10.5 -2.5t11.5 0.5q19 2 86 2q1 -1 1.5 -3.5t-0.5 -3.5q-5 -5 -15.5 -0.5t-15.5 2.5q-7 0 -21 -1t-20 0q-4 -1 -12 -1.5t-14 -1.5t-10 -4l-3 -4q-2 -25 1 -63v-14t4 -14
q19 -1 38 1t31 2q2 2 13 -1q1 -1 1 -2v-2l-4 -2q-12 4 -39 0.5t-46 -2.5q-37 -3 -46 -2q-45 -2 -64 3l-2 3q3 3 9 5q4 -2 39 -7q24 3 26 4q-1 19 4.5 49.5t6.5 43.5l-3 4q-6 0 -18.5 -0.5t-21 0.5t-16.5 5q-2 5 3 5q18 -5 56 -3l2 3q6 47 15 66v3q47 55 119 62q31 4 70 -13
q2 -1 9.5 -1.5t10.5 -2.5q43 -9 62 -35q2 -2 0 -9zM739 -10q-11 24 -18 32q-2 4 -8 12.5t-9.5 15.5t-4.5 15q-7 14 -6 17q5 6 17 13.5t16 12.5l-9 17q-7 -1 -18 -5.5t-13 -4.5q-1 -1 -4 -3t-5 -3.5t-5 -1t-5 2.5q2 53 1 78l-2 3q-6 0 -27 7q-5 -35 -3 -48q-2 -5 -0.5 -19.5
t-1.5 -19.5q1 -18 -1 -51.5t0 -51.5l-1 -7h24q1 0 6 -1.5t6 1.5q0 18 -1 28q0 3 -1 8t-1.5 8.5t1 7t6.5 4.5q4 -2 6 -7.5t3 -7.5q-1 -5 4 -12.5t6 -10.5q7 -4 15 -16.5t14 -16.5q2 0 6 -1.5t7 -0.5q6 0 6 6zM248 181q-12 2 -52 0q-18 -2 -27 -8q-1 -12 -3.5 -35.5
t-3.5 -29.5q2 -19 1.5 -54.5t0.5 -55.5q1 0 7 1t7 0q3 1 11.5 -0.5t11.5 0.5l2 63q2 5 16 12q2 1 8 0.5t7 2.5l-1 28q-3 4 -21 4q-4 -4 -7 -4q-3 1 -5 3.5t-2 5.5t-0.5 7t-1.5 6q-2 4 4 10q13 4 39 8l6 4q-1 7 1 17.5t2 14.5zM333 34q-4 12 -3 44t-7 41q-11 7 -23 12l-8 5
h-14t-19 -5q-6 -3 -8 -26q8 -3 15.5 -1t16.5 0.5t13 -8.5q0 -2 2 -6t-1 -6q-3 -6 1 -8q5 -7 -3 -9q-5 -2 -14.5 -2t-13.5 -1q-19 -7 -25 -37q-2 -3 -0.5 -10.5t-1.5 -10.5q0 -11 15 -17q5 5 8 2q5 -1 9.5 1.5t10.5 7.5t9 7q6 1 7 -2.5t-0.5 -9t2.5 -8.5q2 -2 8 0t8 2
q2 1 5 1.5t5.5 1.5t4.5 3zM447 559q3 -19 -7 -31q-4 -3 -12.5 -10t-15 -11t-14.5 -5q-4 1 -6.5 -3.5t-6.5 -1.5q-1 3 -12 2t-13 -1q-14 0 -21 3q-24 21 -18 36q7 21 24 30q32 16 47 13q45 -2 55 -21zM880 571q0 -4 -2 -4q-5 1 -42 -2q-67 -3 -90 -7q-6 -5 -7 -17t-3 -16
q0 -3 2 -8.5t2 -6.5q4 -5 14 -7q17 2 23 13q0 7 -7 12q-3 2 -10 2.5t-10 4.5q2 3 5 4t9 0t8 -1q10 -3 15 -16q-1 -15 -18 -27l-21 -5q-35 9 -45 24q-4 1 -1 22l4 22q-1 3 -3.5 3.5t-5.5 0t-6 0.5l-33 -1q0 1 -1 2t-1 2q2 2 8 3h6q5 -1 11.5 -1t14.5 0.5t12 0.5q5 4 5 17
q1 3 3 14.5t6 15.5q4 1 5.5 0.5t4.5 -3.5l4 -4q4 -5 3.5 -17t1.5 -19q0 -5 10.5 -4.5t11.5 0.5q4 0 43.5 1t69.5 5q3 -2 4 -3zM560 123q-24 -2 -30 -13q-2 -2 -3 -5.5t-2 -6t-3.5 -4.5t-6.5 -1q-2 7 -2 29q-2 2 -7 0t-8 0q-7 -4 -11 -13q0 -73 4 -111l3 -4q3 -3 11.5 -1.5
t11.5 0.5q-2 7 -0.5 21t-1.5 20q6 31 16 44q4 3 13 6t13 7q0 4 1.5 11t2 10.5t-0.5 10.5zM651 504l-3 -2q-35 0 -51 -5q-11 5 -13 8q6 37 1 56q-2 2 -14 -4q-39 -24 -41 -48q-10 -10 -19 -5q-4 3 -3 15t0 16l-1 31q-2 2 -8 1.5t-10 0.5q-1 1 -4 1t-5 0.5t-2 3.5q7 0 26 1.5
t26 -0.5q4 -3 3 -14.5t6 -12.5q8 4 25 14t27 14q2 -1 12 -1t12 -8t2 -23.5v-19.5q1 -1 1.5 -5.5t2.5 -6.5q9 -2 13 0q2 0 7.5 -1t9.5 -1q3 -3 0 -5zM610 15q0 13 -1 38.5t-1 37.5v26q-2 5 -13.5 2.5t-14.5 -2.5q-5 0 -5 -24v-26l-3 -26q1 -3 1 -19.5t5 -24.5q15 0 30 5
q2 4 2 13zM425 539q-7 31 -26 34q-1 -3 -3.5 -3.5t-6 0t-4.5 0.5q-15 7 -26 -6q-2 -3 -3.5 -6.5t-1.5 -7t-0.5 -6t1 -6.5t2 -6t3.5 -6.5t3.5 -6t3.5 -6t4 -5.5q1 -2 3 -2.5t4 0t5 -0.5h9t8 3l8 4q2 2 7 5.5t6.5 5.5t4 7t-0.5 9zM430 77q14 -30 -9 -55q-1 -1 -12 -7
q-6 1 -9.5 5t-4.5 7.5t-2 11t-2 9.5q1 2 2.5 14.5t5.5 17.5q3 2 9 10t12 8l3 -3q-2 -5 2.5 -10.5t4.5 -7.5zM608 179q-4 12 -12 15q-7 7 -10 0q-13 -18 -4 -30q3 -11 19 -4q9 6 7 19zM295 42q0 -11 -14 -23l-7 -3q-6 -3 -10 -1q-4 1 -5 3.5t1 8.5l2 6q0 6 9 10q6 0 10 4
q13 -3 14 -5z" />
    <glyph glyph-name="LuFo" horiz-adv-x="180" 
d="M180 -20v-180h-180v180h180zM160 -40h-140v-140h140v140zM40 -160v100h20v-80h40v-20h-60zM80 -60h60v-100h-20v40h-40v20h40v20h-40v20zM180 885v-180h-180v180h180zM160 865h-140v-140h140v140zM40 745v100h20v-80h40v-20h-60zM80 845h60v-100h-20v40h-40v20h40v20h-40
v20z" />
    </font>
</defs>
</svg>
